<svg xmlns="http://www.w3.org/2000/svg" viewBox="0 0 320 512"><!-- Font Awesome Pro 6.0.0-alpha1 by @fontawesome - https://fontawesome.com License - https://fontawesome.com/license (Commercial License) --><path d="M316 282C302 225 257 179 200 165C184 161 168 160 153 160L217 84C228 71 226 51 213 39C199 28 179 30 167 43L45 191C16 225 0 269 0 314C0 403 70 478 156 480C157 480 159 480 160 480C208 480 253 459 284 421C316 383 327 332 316 282ZM160 416C107 416 64 373 64 320S107 224 160 224S256 267 256 320S213 416 160 416Z"/></svg>