<svg xmlns="http://www.w3.org/2000/svg" viewBox="0 0 320 512"><!-- Font Awesome Pro 6.0.0-alpha1 by @fontawesome - https://fontawesome.com License - https://fontawesome.com/license (Commercial License) --><path d="M268 249C290 226 304 195 304 160C304 89 247 32 176 32H144C73 32 16 89 16 160C16 195 30 226 52 249C21 273 0 310 0 352C0 423 57 480 128 480H192C263 480 320 423 320 352C320 310 299 273 268 249ZM144 96H176C211 96 240 125 240 160S211 224 176 224H144C109 224 80 195 80 160S109 96 144 96ZM192 416H128C93 416 64 387 64 352S93 288 128 288H192C227 288 256 317 256 352S227 416 192 416Z"/></svg>