<svg xmlns="http://www.w3.org/2000/svg" viewBox="0 0 320 512"><!-- Font Awesome Pro 6.0.0-alpha1 by @fontawesome - https://fontawesome.com License - https://fontawesome.com/license (Commercial License) --><path d="M4 230C18 287 63 333 120 347C136 351 152 352 167 352L103 428C92 441 94 461 107 473C121 484 141 482 153 469L275 321C304 287 320 243 320 198C320 109 250 34 164 32C163 32 161 32 160 32C112 32 67 53 36 91C4 129 -7 180 4 230ZM160 96C213 96 256 139 256 192S213 288 160 288S64 245 64 192S107 96 160 96Z"/></svg>