<svg xmlns="http://www.w3.org/2000/svg" viewBox="0 0 576 512"><!-- Font Awesome Pro 6.0.0-alpha1 by @fontawesome - https://fontawesome.com License - https://fontawesome.com/license (Commercial License) --><path d="M512 32H64C29 32 0 61 0 96V416C0 451 29 480 64 480H512C547 480 576 451 576 416V96C576 61 547 32 512 32ZM128 264H112C103 264 96 271 96 280V296C96 305 103 312 112 312H128V336H112C103 336 96 343 96 352V368C96 377 103 384 112 384H128V432H64C55 432 48 425 48 416V240H128V264ZM128 128H112C103 128 96 135 96 144V160C96 169 103 176 112 176H128V208H48V96C48 87 55 80 64 80H128V128ZM256 264H240C231 264 224 271 224 280V296C224 305 231 312 240 312H256V336H240C231 336 224 343 224 352V368C224 377 231 384 240 384H256V432H160V384H176C185 384 192 377 192 368V352C192 343 185 336 176 336H160V312H176C185 312 192 305 192 296V280C192 271 185 264 176 264H160V240H256V264ZM256 128H240C231 128 224 135 224 144V160C224 169 231 176 240 176H256V208H160V176H176C185 176 192 169 192 160V144C192 135 185 128 176 128H160V80H256V128ZM416 336H400C391 336 384 343 384 352V368C384 377 391 384 400 384H416V432H288V384H304C313 384 320 377 320 368V352C320 343 313 336 304 336H288V312H304C313 312 320 305 320 296V280C320 271 313 264 304 264H288V240H416V336ZM416 128H400C391 128 384 135 384 144V160C384 169 391 176 400 176H416V208H288V176H304C313 176 320 169 320 160V144C320 135 313 128 304 128H288V80H416V128ZM512 432H448V384H464C473 384 480 377 480 368V352C480 343 473 336 464 336H448V240H528V416C528 425 521 432 512 432ZM528 208H448V176H464C473 176 480 169 480 160V144C480 135 473 128 464 128H448V80H512C521 80 528 87 528 96V208Z"/></svg>