<svg xmlns="http://www.w3.org/2000/svg" viewBox="0 0 448 512"><!-- Font Awesome Pro 6.0.0-alpha1 by @fontawesome - https://fontawesome.com License - https://fontawesome.com/license (Commercial License) --><path d="M448 153C448 100 405 57 352 57H256C260 50 265 42 273 34C282 25 282 9 273 0S248 -9 239 0C218 21 209 42 204 57H96C43 57 0 100 0 153H0V185C0 203 14 217 32 217H48C48 391 177 450 224 473C257 457 400 402 400 217H416C434 217 448 203 448 185L448 153L448 153ZM224 420C135 376 96 295 96 217H352C352 292 317 375 224 420ZM400 169H48L48 153C48 127 70 105 96 105H352C378 105 400 127 400 153V169Z"/></svg>