<svg xmlns="http://www.w3.org/2000/svg" viewBox="0 0 576 512"><!-- Font Awesome Pro 6.0.0-alpha1 by @fontawesome - https://fontawesome.com License - https://fontawesome.com/license (Commercial License) --><path d="M208 256C243 256 272 227 272 192C272 157 243 128 208 128S144 157 144 192C144 227 173 256 208 256ZM464 232H368C355 232 344 243 344 256S355 280 368 280H464C477 280 488 269 488 256S477 232 464 232ZM240 288H176C132 288 96 324 96 368C96 377 103 384 112 384H304C313 384 320 377 320 368C320 324 284 288 240 288ZM464 152H368C355 152 344 163 344 176S355 200 368 200H464C477 200 488 189 488 176S477 152 464 152ZM512 32H64C29 32 0 61 0 96V416C0 451 29 480 64 480H512C547 480 576 451 576 416V96C576 61 547 32 512 32ZM528 416C528 425 521 432 512 432H64C55 432 48 425 48 416V96C48 87 55 80 64 80H512C521 80 528 87 528 96V416Z"/></svg>