<svg xmlns="http://www.w3.org/2000/svg" viewBox="0 0 384 512"><!-- Font Awesome Pro 6.0.0-alpha1 by @fontawesome - https://fontawesome.com License - https://fontawesome.com/license (Commercial License) --><path d="M377 306L306 224H342C364 224 376 198 362 182L212 9C206 3 199 0 192 0C185 0 178 3 172 9L22 182C8 198 19 224 41 224H78L7 306C-9 324 4 352 28 352H160V384H80C53 384 32 406 32 432V464C32 490 53 512 80 512H304C331 512 352 490 352 464V432C352 406 331 384 304 384H224V352H356C380 352 393 324 377 306ZM304 432V464H80V432H304ZM72 304L160 202C169 192 162 176 148 176H91L192 60L293 176H236C222 176 215 192 224 202L312 304H72ZM192 112C179 112 168 123 168 136S179 160 192 160C205 160 216 149 216 136S205 112 192 112Z"/></svg>