<svg xmlns="http://www.w3.org/2000/svg" viewBox="0 0 512 512"><!-- Font Awesome Pro 6.0.0-alpha1 by @fontawesome - https://fontawesome.com License - https://fontawesome.com/license (Commercial License) --><path d="M96 0C43 0 0 43 0 96C0 115 6 133 15 147L161 26C144 10 121 0 96 0ZM328 264H280V216C280 203 269 192 256 192S232 203 232 216V264H184C171 264 160 275 160 288S171 312 184 312H232V360C232 373 243 384 256 384S280 373 280 360V312H328C341 312 352 301 352 288S341 264 328 264ZM256 64C132 64 32 164 32 288C32 341 51 390 82 428L39 471C30 480 30 496 39 505C44 510 50 512 56 512S68 510 73 505L116 462C154 493 203 512 256 512S358 493 396 462L439 505C444 510 450 512 456 512S468 510 473 505C482 496 482 480 473 471L430 428C461 390 480 341 480 288C480 164 380 64 256 64ZM256 464C159 464 80 385 80 288S159 112 256 112S432 191 432 288S353 464 256 464ZM416 0C391 0 368 10 351 26L497 147C506 133 512 115 512 96C512 43 469 0 416 0Z"/></svg>