<svg xmlns="http://www.w3.org/2000/svg" viewBox="0 0 512 512"><!-- Font Awesome Pro 6.0.0-alpha1 by @fontawesome - https://fontawesome.com License - https://fontawesome.com/license (Commercial License) --><path d="M480 24C480 11 469 0 456 0H56C43 0 32 11 32 24V48H480V24ZM496 104C496 91 485 80 472 80H40C27 80 16 91 16 104V128H496V104ZM256 438C330 438 394 395 398 339C401 280 338 230 256 230S111 280 114 339C118 395 182 438 256 438ZM256 320C273 320 286 330 286 342C286 354 272 364 256 364C240 364 226 354 226 342C226 330 239 320 256 320ZM480 160H32C8 160 -1 182 0 195L24 454C27 487 54 512 87 512H425C458 512 485 487 488 454L512 195C513 182 504 160 480 160ZM441 449C440 458 433 464 425 464H87C79 464 72 458 71 449L50 208H463L441 449Z"/></svg>