<svg xmlns="http://www.w3.org/2000/svg" viewBox="0 0 448 512"><!-- Font Awesome Pro 6.0.0-alpha1 by @fontawesome - https://fontawesome.com License - https://fontawesome.com/license (Commercial License) --><path d="M224 112C144 112 80 176 80 256S144 400 224 400S368 336 368 256S304 112 224 112ZM224 288C206 288 192 274 192 256S206 224 224 224S256 238 256 256S242 288 224 288ZM384 32H64C29 32 0 61 0 96V416C0 451 29 480 64 480H384C419 480 448 451 448 416V96C448 61 419 32 384 32ZM400 416C400 425 393 432 384 432H64C55 432 48 425 48 416V96C48 87 55 80 64 80H384C393 80 400 87 400 96V416Z"/></svg>