<svg xmlns="http://www.w3.org/2000/svg" viewBox="0 0 576 512"><!-- Font Awesome Pro 6.0.0-alpha1 by @fontawesome - https://fontawesome.com License - https://fontawesome.com/license (Commercial License) --><path d="M560 128H544C535 128 528 135 528 144V240H480V176C480 167 473 160 464 160H432V96H464C473 96 480 89 480 80V48C480 39 473 32 464 32H448C439 32 432 39 432 48V64H400C391 64 384 71 384 80V128H192V80C192 71 185 64 176 64H144V48C144 39 137 32 128 32H112C103 32 96 39 96 48V80C96 89 103 96 112 96H144V160H112C103 160 96 167 96 176V240H48V144C48 135 41 128 32 128H16C7 128 0 135 0 144V272C0 281 7 288 16 288H64V368C64 377 71 384 80 384H128V464C128 473 135 480 144 480H240C249 480 256 473 256 464V448C256 439 249 432 240 432H176V384H400V432H336C327 432 320 439 320 448V464C320 473 327 480 336 480H432C441 480 448 473 448 464V384H496C505 384 512 377 512 368V288H560C569 288 576 281 576 272V144C576 135 569 128 560 128ZM464 336H112V288H144V208H192V176H384V208H432V288H464V336ZM240 224H208C199 224 192 231 192 240V288C192 297 199 304 208 304H240C249 304 256 297 256 288V240C256 231 249 224 240 224ZM368 224H336C327 224 320 231 320 240V288C320 297 327 304 336 304H368C377 304 384 297 384 288V240C384 231 377 224 368 224Z"/></svg>