<svg xmlns="http://www.w3.org/2000/svg" viewBox="0 0 448 512"><!-- Font Awesome Pro 6.0.0-alpha1 by @fontawesome - https://fontawesome.com License - https://fontawesome.com/license (Commercial License) --><path d="M224 0C100 0 0 88 0 232C0 344 134 457 195 502C212 515 236 515 253 502C314 457 448 344 448 232C448 88 348 0 224 0ZM224 464C114 382 48 295 48 232C48 122 119 48 224 48S400 122 400 232C400 295 334 382 224 464ZM130 224H98C89 224 82 231 82 240C82 284 118 320 162 320H194C203 320 210 313 210 304C210 260 174 224 130 224ZM352 224L322 224C278 224 242 260 242 304C242 313 249 320 258 320H290C334 320 370 284 370 240C370 231 361 224 352 224Z"/></svg>