<svg xmlns="http://www.w3.org/2000/svg" viewBox="0 0 448 512"><!-- Font Awesome Pro 6.0.0-alpha1 by @fontawesome - https://fontawesome.com License - https://fontawesome.com/license (Commercial License) --><path d="M120 88H328C341 88 352 77 352 64V64C352 51 341 40 328 40H120C107 40 96 51 96 64V64C96 77 107 88 120 88ZM424 424H24C11 424 0 435 0 448V448C0 461 11 472 24 472H424C437 472 448 461 448 448V448C448 435 437 424 424 424ZM328 344C341 344 352 333 352 320V320C352 307 341 296 328 296H120C107 296 96 307 96 320V320C96 333 107 344 120 344H328ZM424 168H24C11 168 0 179 0 192V192C0 205 11 216 24 216H424C437 216 448 205 448 192V192C448 179 437 168 424 168Z"/></svg>