<svg xmlns="http://www.w3.org/2000/svg" viewBox="0 0 512 512"><!-- Font Awesome Pro 6.0.0-alpha1 by @fontawesome - https://fontawesome.com License - https://fontawesome.com/license (Commercial License) --><path d="M384 336C393 336 400 329 400 320S393 304 384 304S368 311 368 320S375 336 384 336ZM320 336C329 336 336 329 336 320S329 304 320 304S304 311 304 320S311 336 320 336ZM416 384C425 384 432 377 432 368S425 352 416 352S400 359 400 368S407 384 416 384ZM352 384C361 384 368 377 368 368S361 352 352 352S336 359 336 368S343 384 352 384ZM128 400C119 400 112 407 112 416S119 432 128 432S144 425 144 416S137 400 128 400ZM192 400C183 400 176 407 176 416S183 432 192 432S208 425 208 416S201 400 192 400ZM288 384C297 384 304 377 304 368S297 352 288 352S272 359 272 368S279 384 288 384ZM384 400C375 400 368 407 368 416S375 432 384 432S400 425 400 416S393 400 384 400ZM320 400C311 400 304 407 304 416S311 432 320 432S336 425 336 416S329 400 320 400ZM256 400C247 400 240 407 240 416S247 432 256 432S272 425 272 416S265 400 256 400ZM256 336C265 336 272 329 272 320S265 304 256 304S240 311 240 320S247 336 256 336ZM192 152C179 152 168 163 168 176S179 200 192 200S216 189 216 176S205 152 192 152ZM112 152C99 152 88 163 88 176S99 200 112 200S136 189 136 176S125 152 112 152ZM448 80H402C378 53 322 0 256 0S134 53 110 80H64C29 80 0 109 0 144V448C0 483 29 512 64 512H448C483 512 512 483 512 448V144C512 109 483 80 448 80ZM256 48C283 48 310 63 332 80H180C202 63 229 48 256 48ZM464 448C464 457 457 464 448 464H64C55 464 48 457 48 448V272H464V448ZM464 224H48V144C48 135 55 128 64 128H448C457 128 464 135 464 144V224ZM96 384C105 384 112 377 112 368S105 352 96 352S80 359 80 368S87 384 96 384ZM192 336C201 336 208 329 208 320S201 304 192 304S176 311 176 320S183 336 192 336ZM224 384C233 384 240 377 240 368S233 352 224 352S208 359 208 368S215 384 224 384ZM128 336C137 336 144 329 144 320S137 304 128 304S112 311 112 320S119 336 128 336ZM160 384C169 384 176 377 176 368S169 352 160 352S144 359 144 368S151 384 160 384ZM320 152C307 152 296 163 296 176S307 200 320 200S344 189 344 176S333 152 320 152ZM400 152C387 152 376 163 376 176S387 200 400 200S424 189 424 176S413 152 400 152Z"/></svg>