<svg xmlns="http://www.w3.org/2000/svg" viewBox="0 0 384 512"><!-- Font Awesome Pro 6.0.0-alpha1 by @fontawesome - https://fontawesome.com License - https://fontawesome.com/license (Commercial License) --><path d="M375 426L319 366L379 273C388 259 384 239 369 229C355 220 335 224 325 239L274 317L201 239L253 199C275 182 288 155 288 126C288 74 246 32 193 32H143C90 32 48 74 48 126C48 153 58 179 77 200L107 232L42 282C15 304 0 335 0 369C0 430 50 480 112 480H172C216 480 257 458 282 422C282 422 282 422 282 422C283 422 283 422 283 422L283 421L329 470C335 477 343 480 352 480C360 480 368 477 374 471C387 459 387 439 375 426ZM143 96H193C210 96 224 110 224 126C224 135 220 144 213 149L158 192L124 156C116 148 112 137 112 126C112 110 126 96 143 96ZM229 386C216 405 195 416 172 416H112C85 416 64 395 64 369C64 355 70 341 81 333L151 279L238 373L229 386Z"/></svg>