<svg xmlns="http://www.w3.org/2000/svg" viewBox="0 0 384 512"><!-- Font Awesome Pro 6.0.0-alpha1 by @fontawesome - https://fontawesome.com License - https://fontawesome.com/license (Commercial License) --><path d="M328 270L192 392L56 270C51 266 46 264 40 264C33 264 27 267 22 272C13 282 14 297 24 306L176 442C185 450 199 450 208 442L360 306C370 297 371 282 362 272C353 262 338 261 328 270ZM176 250C185 258 199 258 208 250L360 114C370 105 371 90 362 80C353 70 338 69 328 78L192 200L56 78C51 74 46 72 40 72C33 72 27 75 22 80C13 90 14 105 24 114L176 250Z"/></svg>