<svg xmlns="http://www.w3.org/2000/svg" viewBox="0 0 448 512"><!-- Font Awesome Pro 6.0.0-alpha1 by @fontawesome - https://fontawesome.com License - https://fontawesome.com/license (Commercial License) --><path d="M230 116L352 252L230 388C226 393 224 398 224 404C224 411 227 417 232 422C242 431 257 430 266 420L402 268C410 259 410 245 402 236L266 84C257 74 242 73 232 82C222 91 221 106 230 116ZM210 268C218 259 218 245 210 236L74 84C65 74 50 73 40 82C30 91 29 106 38 116L160 252L38 388C34 393 32 398 32 404C32 411 35 417 40 422C50 431 65 430 74 420L210 268Z"/></svg>