<svg xmlns="http://www.w3.org/2000/svg" viewBox="0 0 448 512"><!-- Font Awesome Pro 6.0.0-alpha1 by @fontawesome - https://fontawesome.com License - https://fontawesome.com/license (Commercial License) --><path d="M415 178C397 151 371 134 342 129C307 123 256 138 224 153C192 138 141 123 106 129C77 134 51 151 33 178C5 218 -7 280 4 337C19 422 70 512 167 512C181 512 195 508 209 500C218 495 229 495 238 500C253 508 267 512 281 512C378 512 429 422 444 337C455 280 443 218 415 178ZM397 329C393 351 368 464 281 464C276 464 269 462 261 458C250 452 237 448 224 448S198 452 186 458C179 462 172 464 167 464C80 464 55 351 51 329C43 284 51 235 72 205C83 189 97 180 114 177C127 174 168 177 224 207C280 177 321 174 333 177C350 180 365 189 376 205C396 235 405 284 397 329ZM222 112C241 112 274 109 296 88C326 57 319 1 319 1S314 0 306 0C287 0 253 3 232 24C202 55 209 111 209 111S214 112 222 112Z"/></svg>