<svg xmlns="http://www.w3.org/2000/svg" viewBox="0 0 448 512"><!-- Font Awesome Pro 6.0.0-alpha1 by @fontawesome - https://fontawesome.com License - https://fontawesome.com/license (Commercial License) --><path d="M168 352C161 352 155 355 150 360L120 394V56C120 43 109 32 96 32C83 32 72 43 72 56V394L42 360C33 350 18 350 8 358C-2 367 -3 383 6 392L78 472C87 483 105 483 114 472L186 392C195 383 194 367 184 358C180 354 174 352 168 352ZM392 432H376V312C376 303 371 295 364 291C356 287 347 287 340 291L300 315C288 322 285 337 291 348C298 360 313 363 324 357L328 354V432H312C299 432 288 443 288 456S299 480 312 480H392C405 480 416 469 416 456S405 432 392 432ZM352 192C352 192 353 192 353 192C348 198 342 203 336 208L330 213C319 221 317 236 325 246C330 253 337 256 344 256C349 256 354 254 358 251L365 246C407 215 432 165 432 112C432 68 396 32 352 32C308 32 272 68 272 112S308 192 352 192ZM352 80C370 80 384 94 384 112S370 144 352 144C334 144 320 130 320 112S334 80 352 80Z"/></svg>