<svg xmlns="http://www.w3.org/2000/svg" viewBox="0 0 512 512"><!-- Font Awesome Pro 6.0.0-alpha1 by @fontawesome - https://fontawesome.com License - https://fontawesome.com/license (Commercial License) --><path d="M287 237C290 239 293 239 296 239H440C453 239 464 228 464 215S453 191 440 191H354L489 56C498 47 498 32 489 22S464 13 455 22L320 157V71C320 58 309 47 296 47S272 58 272 71V215C272 218 273 221 274 224C276 230 281 235 287 237ZM225 273C222 272 219 271 216 271H72C59 271 48 282 48 295S59 319 72 319H158L23 454C14 464 14 479 23 488S48 498 57 488L192 353V439C192 452 203 463 216 463S240 452 240 439V295C240 292 239 289 238 286C236 280 231 276 225 273Z"/></svg>