<svg xmlns="http://www.w3.org/2000/svg" viewBox="0 0 384 512"><!-- Font Awesome Pro 6.0.0-alpha1 by @fontawesome - https://fontawesome.com License - https://fontawesome.com/license (Commercial License) --><path d="M360 432H24C11 432 0 443 0 456C0 469 11 480 24 480H360C373 480 384 469 384 456C384 443 373 432 360 432ZM303 208L216 300V56C216 43 205 32 192 32S168 43 168 56V300L81 208C77 203 70 200 64 200C58 200 52 202 48 207C38 216 37 231 47 241L175 377C184 386 200 386 209 377L337 241C347 231 346 216 336 207C327 198 312 198 303 208Z"/></svg>