<svg xmlns="http://www.w3.org/2000/svg" viewBox="0 0 512 512"><!-- Font Awesome Pro 6.0.0-alpha1 by @fontawesome - https://fontawesome.com License - https://fontawesome.com/license (Commercial License) --><path d="M224 352V448C224 466 238 480 256 480H416C434 480 448 466 448 448V352C448 334 434 320 416 320H256C238 320 224 334 224 352ZM272 368H400V432H272V368ZM512 224V64C512 46 498 32 480 32H256C238 32 224 46 224 64V224C224 242 238 256 256 256H480C498 256 512 242 512 224ZM464 208H272V80H464V208ZM114 40C105 29 87 29 78 40L6 120C-3 130 -2 145 8 154C18 162 33 162 42 152L72 118V456C72 469 83 480 96 480S120 469 120 456V118L150 152C155 157 161 160 168 160C174 160 179 158 184 154C194 145 195 130 186 120L114 40Z"/></svg>