<svg xmlns="http://www.w3.org/2000/svg" viewBox="0 0 512 512"><!-- Font Awesome Pro 6.0.0-alpha1 by @fontawesome - https://fontawesome.com License - https://fontawesome.com/license (Commercial License) --><path d="M512 248C512 255 509 262 504 266L416 346C412 350 406 352 400 352C393 352 387 350 382 345C373 335 374 320 384 311L426 272H280V418L318 376C327 366 342 366 352 375C362 384 363 399 354 409L274 497C269 502 263 504 256 504S243 502 238 497L158 409C149 399 150 384 160 375C170 366 185 366 194 376L232 418V272H86L128 311C138 320 139 335 130 345C125 350 119 352 112 352C106 352 100 350 96 346L8 266C3 262 0 255 0 248C0 242 3 235 8 231L96 151C106 142 121 142 130 152C139 162 138 177 128 186L86 224H232V78L194 120C185 130 170 131 160 122C150 113 149 98 158 88L238 0C247 -10 265 -10 274 0L354 88C363 98 362 113 352 122C348 126 342 128 336 128C329 128 323 126 318 120L280 78V224H426L384 186C374 177 373 162 382 152C391 142 406 142 416 151L504 231C509 235 512 242 512 248Z"/></svg>