<svg xmlns="http://www.w3.org/2000/svg" viewBox="0 0 512 512"><!-- Font Awesome Pro 6.0.0-alpha1 by @fontawesome - https://fontawesome.com License - https://fontawesome.com/license (Commercial License) --><path d="M455 289C442 285 429 293 425 305C403 380 334 432 256 432C189 432 129 394 100 336H200C213 336 224 325 224 312S213 288 200 288H40C27 288 16 299 16 312V472C16 485 27 496 40 496S64 485 64 472V370C104 436 176 480 256 480C355 480 443 414 471 319C475 306 467 293 455 289ZM472 16C459 16 448 27 448 40V142C408 76 336 32 256 32C157 32 69 98 41 193C37 206 45 219 57 223C70 227 83 219 87 207C109 132 178 80 256 80C323 80 383 118 413 176H312C299 176 288 187 288 200S299 224 312 224H472C485 224 496 213 496 200V40C496 27 485 16 472 16Z"/></svg>