<svg xmlns="http://www.w3.org/2000/svg" viewBox="0 0 512 512"><!-- Font Awesome Pro 6.0.0-alpha1 by @fontawesome - https://fontawesome.com License - https://fontawesome.com/license (Commercial License) --><path d="M256 192H416C434 192 448 178 448 160V64C448 46 434 32 416 32H256C238 32 224 46 224 64V160C224 178 238 192 256 192ZM272 80H400V144H272V80ZM480 256H256C238 256 224 270 224 288V448C224 466 238 480 256 480H480C498 480 512 466 512 448V288C512 270 498 256 480 256ZM464 432H272V304H464V432ZM114 40C105 29 87 29 78 40L6 120C-3 130 -2 145 8 154C18 162 33 162 42 152L72 118V456C72 469 83 480 96 480S120 469 120 456V118L150 152C155 157 161 160 168 160C174 160 179 158 184 154C194 145 195 130 186 120L114 40Z"/></svg>