<svg xmlns="http://www.w3.org/2000/svg" viewBox="0 0 448 512"><!-- Font Awesome Pro 6.0.0-alpha1 by @fontawesome - https://fontawesome.com License - https://fontawesome.com/license (Commercial License) --><path d="M408 288H264C251 288 240 299 240 312V456C240 469 251 480 264 480H408C421 480 432 469 432 456V312C432 299 421 288 408 288ZM384 432H288V336H384V432ZM168 352C161 352 155 355 150 360L120 394V56C120 43 109 32 96 32S72 43 72 56V394L42 360C33 350 18 350 8 358C-2 367 -3 383 6 392L78 472C87 483 105 483 114 472L186 392C195 383 194 367 184 358C180 354 174 352 168 352ZM444 183L361 46C356 37 346 32 336 32C326 32 317 37 311 46L228 183C217 201 231 224 253 224H419C441 224 455 201 444 183ZM288 176L336 97L384 176H288Z"/></svg>