<svg xmlns="http://www.w3.org/2000/svg" viewBox="0 0 512 512"><!-- Font Awesome Pro 6.0.0-alpha1 by @fontawesome - https://fontawesome.com License - https://fontawesome.com/license (Commercial License) --><path d="M40 16C53 16 64 27 64 40V142C104 76 176 32 256 32C379 32 480 133 480 256S379 480 256 480C204 480 153 462 113 428C102 420 101 405 110 394C118 384 133 383 143 391C175 418 215 432 256 432C353 432 432 353 432 256S353 80 256 80C189 80 129 118 100 176H200C213 176 224 187 224 200S213 224 200 224H40C27 224 16 213 16 200V40C16 27 27 16 40 16Z"/></svg>