<svg xmlns="http://www.w3.org/2000/svg" viewBox="0 0 448 512"><!-- Font Awesome Pro 6.0.0-alpha1 by @fontawesome - https://fontawesome.com License - https://fontawesome.com/license (Commercial License) --><path d="M400 88V424C400 437 411 448 424 448S448 437 448 424V88C448 75 437 64 424 64S400 75 400 88ZM176 367L84 280H328C341 280 352 269 352 256S341 232 328 232H84L176 145C181 141 184 134 184 128C184 122 182 116 177 112C168 102 153 101 143 111L7 239C-2 248 -2 264 7 273L143 401C153 411 168 410 177 400C186 391 186 376 176 367Z"/></svg>