<svg xmlns="http://www.w3.org/2000/svg" viewBox="0 0 512 512"><!-- Font Awesome Pro 6.0.0-alpha1 by @fontawesome - https://fontawesome.com License - https://fontawesome.com/license (Commercial License) --><path d="M497 2C494 1 491 0 488 0H344C331 0 320 11 320 24S331 48 344 48H430L295 183C286 192 286 208 295 217S320 226 329 217L464 82V168C464 181 475 192 488 192S512 181 512 168V24C512 21 511 18 510 15C508 9 503 4 497 2ZM15 510C18 511 21 512 24 512H168C181 512 192 501 192 488S181 464 168 464H82L217 329C226 320 226 304 217 295S192 286 183 295L48 430V344C48 331 37 320 24 320S0 331 0 344V488C0 491 1 494 2 497C4 503 9 508 15 510Z"/></svg>