<svg xmlns="http://www.w3.org/2000/svg" viewBox="0 0 448 512"><!-- Font Awesome Pro 6.0.0-alpha1 by @fontawesome - https://fontawesome.com License - https://fontawesome.com/license (Commercial License) --><path d="M48 424V88C48 75 37 64 24 64S0 75 0 88V424C0 437 11 448 24 448S48 437 48 424ZM272 145L364 232H120C107 232 96 243 96 256S107 280 120 280H364L272 367C267 371 264 378 264 384C264 390 266 396 271 400C280 410 295 411 305 401L441 273C450 264 450 248 441 239L305 111C295 101 280 102 271 112C262 121 262 136 272 145Z"/></svg>