<svg xmlns="http://www.w3.org/2000/svg" viewBox="0 0 384 512"><!-- Font Awesome Pro 6.0.0-alpha1 by @fontawesome - https://fontawesome.com License - https://fontawesome.com/license (Commercial License) --><path d="M378 120L306 40C297 30 279 30 270 40L198 120C189 130 190 145 200 154C210 163 225 162 234 152L264 119V456C264 469 275 480 288 480C301 480 312 469 312 456V119L342 152C347 157 353 160 360 160C366 160 371 158 376 154C386 145 387 130 378 120ZM150 360L120 393V56C120 43 109 32 96 32C83 32 72 43 72 56V393L42 360C33 350 18 349 8 358S-3 382 6 392L78 472C83 477 89 480 96 480S109 477 114 472L186 392C195 382 194 367 184 358C174 349 159 350 150 360Z"/></svg>