<svg xmlns="http://www.w3.org/2000/svg" viewBox="0 0 512 512"><!-- Font Awesome Pro 6.0.0-alpha1 by @fontawesome - https://fontawesome.com License - https://fontawesome.com/license (Commercial License) --><path d="M488 232C475 232 464 243 464 256C464 313 417 360 360 360H88C78 360 69 366 66 375C63 381 63 387 66 393C67 396 69 399 71 401L175 505C180 510 186 512 192 512S204 510 209 505C218 496 218 480 209 471L146 408H360C444 408 512 340 512 256C512 243 501 232 488 232ZM152 152H424C434 152 443 146 446 137C449 131 449 125 446 119C445 116 443 113 441 111L337 7C328 -2 312 -2 303 7S294 32 303 41L366 104H152C68 104 0 172 0 256C0 269 11 280 24 280S48 269 48 256C48 199 95 152 152 152ZM264 328C277 328 288 317 288 304V216C288 208 284 200 277 196C270 191 261 191 253 195L221 211C209 216 205 231 211 243C216 254 229 259 240 255V304C240 317 251 328 264 328Z"/></svg>