<svg xmlns="http://www.w3.org/2000/svg" viewBox="0 0 512 512"><!-- Font Awesome Pro 6.0.0-alpha1 by @fontawesome - https://fontawesome.com License - https://fontawesome.com/license (Commercial License) --><path d="M114 40C105 29 87 29 78 40L6 120C-3 130 -2 145 8 154C18 162 33 162 42 152L72 118V456C72 469 83 480 96 480C109 480 120 469 120 456V118L150 152C155 157 161 160 168 160C174 160 179 158 184 154C194 145 195 130 186 120L114 40ZM488 432H248C235 432 224 443 224 456C224 469 235 480 248 480H488C501 480 512 469 512 456C512 443 501 432 488 432ZM248 352H424C437 352 448 341 448 328C448 315 437 304 424 304H248C235 304 224 315 224 328C224 341 235 352 248 352ZM248 224H360C373 224 384 213 384 200S373 176 360 176H248C235 176 224 187 224 200S235 224 248 224ZM248 96H296C309 96 320 85 320 72S309 48 296 48H248C235 48 224 58 224 72S235 96 248 96Z"/></svg>