<svg xmlns="http://www.w3.org/2000/svg" viewBox="0 0 640 512"><!-- Font Awesome Pro 6.0.0-alpha1 by @fontawesome - https://fontawesome.com License - https://fontawesome.com/license (Commercial License) --><path d="M328 368H152V146L215 209C220 214 226 216 232 216S244 214 249 209C258 200 258 184 249 175L145 71C136 62 120 62 111 71L7 175C-2 184 -2 200 7 209S32 218 41 209L104 146V392C104 405 115 416 128 416H328C341 416 352 405 352 392S341 368 328 368ZM633 303C624 294 608 294 599 303L536 366V120C536 107 525 96 512 96H312C299 96 288 107 288 120S299 144 312 144H488V366L425 303C420 298 414 296 408 296S396 298 391 303C382 312 382 328 391 337L495 441C504 450 520 450 529 441L633 337C642 328 642 312 633 303Z"/></svg>