<svg xmlns="http://www.w3.org/2000/svg" viewBox="0 0 448 512"><!-- Font Awesome Pro 6.0.0-alpha1 by @fontawesome - https://fontawesome.com License - https://fontawesome.com/license (Commercial License) --><path d="M114 40C105 30 87 30 78 40L6 120C-3 130 -2 145 8 154C18 163 33 162 42 152L72 119V456C72 469 83 480 96 480C109 480 120 469 120 456V119L150 152C155 157 161 160 168 160C174 160 179 158 184 154C194 145 195 130 186 120L114 40ZM445 445L373 301C365 285 339 285 331 301L259 445C253 457 257 472 269 477C281 483 296 479 301 467L307 456H397L402 467C407 475 415 480 424 480C428 480 431 479 435 477C447 472 451 457 445 445ZM331 408L352 366L373 408H331ZM296 80H359L277 185C271 193 270 202 274 211C278 219 287 224 296 224H408C421 224 432 213 432 200C432 187 421 176 408 176H345L427 71C433 63 434 54 430 45C426 37 417 32 408 32H296C283 32 272 43 272 56S283 80 296 80Z"/></svg>