<svg xmlns="http://www.w3.org/2000/svg" viewBox="0 0 448 512"><!-- Font Awesome Pro 6.0.0-alpha1 by @fontawesome - https://fontawesome.com License - https://fontawesome.com/license (Commercial License) --><path d="M48 424V88C48 75 37 64 24 64S0 75 0 88V424C0 437 11 448 24 448S48 437 48 424ZM272 367L180 280H424C437 280 448 269 448 256C448 243 437 232 424 232H180L272 145C277 141 280 134 280 128C280 122 278 116 273 112C264 102 249 101 239 111L103 239C94 248 94 264 103 273L239 401C249 411 264 410 273 400C282 391 282 376 272 367Z"/></svg>