<svg xmlns="http://www.w3.org/2000/svg" viewBox="0 0 512 512"><!-- Font Awesome Pro 6.0.0-alpha1 by @fontawesome - https://fontawesome.com License - https://fontawesome.com/license (Commercial License) --><path d="M488 232C475 232 464 243 464 256C464 313 417 360 360 360H146L209 297C218 288 218 272 209 263S184 254 175 263L71 367C62 376 62 392 71 401L175 505C180 510 186 512 192 512S204 510 209 505C218 496 218 480 209 471L146 408H360C444 408 512 340 512 256C512 243 501 232 488 232ZM152 152H366L303 215C294 224 294 240 303 249C308 254 314 256 320 256S332 254 337 249L441 145C450 136 450 120 441 111L337 7C328 -2 312 -2 303 7S294 32 303 41L366 104H152C68 104 0 172 0 256C0 269 11 280 24 280S48 269 48 256C48 199 95 152 152 152Z"/></svg>