<svg xmlns="http://www.w3.org/2000/svg" viewBox="0 0 448 512"><!-- Font Awesome Pro 6.0.0-alpha1 by @fontawesome - https://fontawesome.com License - https://fontawesome.com/license (Commercial License) --><path d="M114 40C105 29 87 29 78 40L6 120C-3 130 -2 145 8 154C18 162 33 162 42 152L72 118V456C72 469 83 480 96 480C109 480 120 469 120 456V118L150 152C155 157 161 160 168 160C174 160 179 158 184 154C194 145 195 130 186 120L114 40ZM445 189L373 45C365 29 339 29 331 45L259 189C253 201 257 215 269 221C281 227 296 222 301 211L307 200H397L402 211C407 219 415 224 424 224C428 224 431 223 435 221C447 215 451 201 445 189ZM331 152L352 109L373 152H331ZM408 432H345L427 327C433 319 434 310 430 301C426 293 417 288 408 288H296C283 288 272 299 272 312C272 325 283 336 296 336H359L277 441C271 449 270 458 274 467C278 475 287 480 296 480H408C421 480 432 469 432 456C432 443 421 432 408 432Z"/></svg>