<svg xmlns="http://www.w3.org/2000/svg" viewBox="0 0 384 512"><!-- Font Awesome Pro 6.0.0-alpha1 by @fontawesome - https://fontawesome.com License - https://fontawesome.com/license (Commercial License) --><path d="M24 80H360C373 80 384 69 384 56S373 32 360 32H24C11 32 0 43 0 56S11 80 24 80ZM303 304L216 396V152C216 139 205 128 192 128S168 139 168 152V396L81 304C77 299 70 296 64 296C58 296 52 298 48 303C38 312 37 327 47 337L175 473C184 482 200 482 209 473L337 337C347 327 346 312 336 303C327 294 312 294 303 304Z"/></svg>