<svg xmlns="http://www.w3.org/2000/svg" viewBox="0 0 640 512"><!-- Font Awesome Pro 6.0.0-alpha1 by @fontawesome - https://fontawesome.com License - https://fontawesome.com/license (Commercial License) --><path d="M368 224H496C514 224 528 210 528 192V64C528 46 514 32 496 32H368C350 32 336 46 336 64V192C336 210 350 224 368 224ZM384 80H480V176H384V80ZM540 439L457 302C452 293 442 288 432 288S413 293 407 302L324 439C313 457 327 480 349 480H515C537 480 551 457 540 439ZM384 432L432 353L480 432H384ZM210 40C201 29 183 29 174 40L102 120C93 130 94 145 104 154C114 162 129 162 138 152L168 118V456C168 469 179 480 192 480S216 469 216 456V118L246 152C251 157 257 160 264 160C270 160 275 158 280 154C290 145 291 130 282 120L210 40Z"/></svg>