<svg xmlns="http://www.w3.org/2000/svg" viewBox="0 0 448 512"><!-- Font Awesome Pro 6.0.0-alpha1 by @fontawesome - https://fontawesome.com License - https://fontawesome.com/license (Commercial License) --><path d="M352 256C308 256 272 292 272 336S308 416 352 416C352 416 353 416 353 416C348 422 342 427 336 432L330 437C319 445 317 460 325 470C330 477 337 480 344 480C349 480 354 478 358 475L365 470C407 439 432 389 432 336C432 292 396 256 352 256ZM352 368C334 368 320 354 320 336S334 304 352 304C370 304 384 318 384 336S370 368 352 368ZM312 176C299 176 288 187 288 200S299 224 312 224H392C405 224 416 213 416 200S405 176 392 176H376V56C376 47 371 39 364 35C356 31 347 31 340 35L300 59C288 66 285 81 291 92C298 104 313 107 324 101L328 98V176H312ZM114 40C105 30 87 30 78 40L6 120C-3 130 -2 145 8 154C18 163 33 162 42 152L72 119V456C72 469 83 480 96 480C109 480 120 469 120 456V119L150 152C155 157 161 160 168 160C174 160 179 158 184 154C194 145 195 130 186 120L114 40Z"/></svg>