<svg xmlns="http://www.w3.org/2000/svg" viewBox="0 0 448 512"><!-- Font Awesome Pro 6.0.0-alpha1 by @fontawesome - https://fontawesome.com License - https://fontawesome.com/license (Commercial License) --><path d="M418 368C414 376 406 380 397 380C393 380 389 379 385 377L248 298V456C248 469 237 480 224 480S200 469 200 456V298L63 377C59 379 55 380 51 380C43 380 35 376 30 368C24 357 28 342 39 335L176 256L39 177C28 170 24 155 30 144C37 133 51 129 63 135L200 214V56C200 43 211 32 224 32S248 43 248 56V214L385 135C397 129 412 133 418 144C425 155 421 170 409 177L272 256L409 335C421 342 425 357 418 368Z"/></svg>