<svg xmlns="http://www.w3.org/2000/svg" viewBox="0 0 512 512"><!-- Font Awesome Pro 6.0.0-alpha1 by @fontawesome - https://fontawesome.com License - https://fontawesome.com/license (Commercial License) --><path d="M256 224C238 224 224 238 224 256S238 288 256 288C274 288 288 274 288 256C288 238 274 224 256 224ZM471 128C456 100 422 87 378 87C369 87 359 87 350 89C327 34 294 0 256 0S185 34 162 89C153 87 143 87 134 87C90 87 56 100 41 128C22 162 34 209 68 256C34 303 22 350 41 384C56 412 90 425 134 425C143 425 153 425 162 423C185 478 219 512 256 512S327 478 350 423C359 425 369 425 378 425C422 425 456 412 471 384C490 350 478 303 444 256C478 209 490 162 471 128ZM256 48C270 48 288 66 303 98C287 102 271 108 256 114C241 108 225 102 209 98C224 66 242 48 256 48ZM134 377C107 377 87 371 81 360C74 347 81 322 100 293C111 305 124 317 137 327C139 344 142 360 146 376C142 376 138 377 134 377ZM137 185C124 195 111 207 100 219C81 190 74 165 81 152C87 141 107 135 134 135C138 135 142 136 146 136C142 152 139 169 137 185ZM256 464C242 464 224 446 209 414C225 410 241 404 256 398C271 404 287 410 303 414C288 446 270 464 256 464ZM256 352C203 352 160 309 160 256S203 160 256 160S352 203 352 256S309 352 256 352ZM431 360C425 371 405 377 378 377C374 377 370 376 366 376C370 360 373 343 375 327C388 317 401 305 412 293C431 322 438 347 431 360ZM412 219C401 207 388 195 375 185C373 168 370 152 366 136C370 136 374 135 378 135C405 135 425 141 431 152C438 165 431 190 412 219Z"/></svg>