<svg xmlns="http://www.w3.org/2000/svg" viewBox="0 0 448 512"><!-- Font Awesome Pro 6.0.0-alpha1 by @fontawesome - https://fontawesome.com License - https://fontawesome.com/license (Commercial License) --><path d="M424 320H361L341 271H424C437 271 448 261 448 247C448 234 437 223 424 223H321L246 45C239 28 209 28 202 45L127 223H24C11 223 0 234 0 247C0 261 11 271 24 271H107L87 319H24C11 320 0 330 0 344S11 368 24 368H67L34 447C29 459 34 473 47 478C59 483 73 478 78 465L119 368H329L370 465C374 474 383 480 392 480C395 480 398 479 401 478C414 473 419 459 414 447L381 368H424C437 368 448 357 448 344S437 320 424 320ZM224 117L269 223H179L224 117ZM139 320L159 271H289L309 320H139Z"/></svg>