<svg xmlns="http://www.w3.org/2000/svg" viewBox="0 0 384 512"><!-- Font Awesome Pro 6.0.0-alpha1 by @fontawesome - https://fontawesome.com License - https://fontawesome.com/license (Commercial License) --><path d="M328 216L371 186C385 176 389 156 378 142C368 127 348 124 334 134L291 164C232 205 152 205 93 164L50 134C36 124 16 127 6 142C-4 156 -1 176 14 186L56 216C74 228 93 238 112 245V331L63 396C54 407 54 424 63 435L111 499C117 508 127 512 136 512C143 512 150 510 155 506C170 495 172 475 162 461L129 417L147 394C158 403 172 408 187 408H198C212 408 226 403 238 394L256 417L223 461C212 475 215 495 229 506C235 510 242 512 248 512C258 512 268 508 274 499L322 435C331 423 331 407 321 396L272 331V245C292 238 310 228 328 216ZM240 333L211 362C207 366 202 368 197 368H187C182 368 177 366 173 362L144 333V312H240V333ZM192 160C236 160 272 124 272 80C272 36 236 0 192 0C148 0 112 36 112 80C112 124 148 160 192 160Z"/></svg>