<svg xmlns="http://www.w3.org/2000/svg" viewBox="0 0 512 512"><!-- Font Awesome Pro 6.0.0-alpha1 by @fontawesome - https://fontawesome.com License - https://fontawesome.com/license (Commercial License) --><path d="M488 96H456C425 96 400 121 400 152V192H293L189 28C180 14 165 4 147 1C130 -2 113 2 100 13C41 60 0 139 0 216C0 266 18 315 60 355C21 365 -7 404 2 448C7 479 32 504 63 510C115 521 160 482 160 432C160 423 158 415 156 407C177 413 200 416 224 416S271 413 292 407C287 424 285 444 297 467C312 493 339 512 369 512C413 511 448 476 448 432C448 395 422 364 388 355C425 320 448 275 448 224V152C448 148 452 144 456 144H488C501 144 512 133 512 120V120C512 107 501 96 488 96ZM80 464C62 464 48 450 48 432C48 414 62 400 80 400S112 414 112 432C112 450 98 464 80 464ZM400 432C400 450 386 464 368 464S336 450 336 432C336 414 350 400 368 400S400 414 400 432ZM224 368C134 368 59 312 49 240H399C389 312 314 368 224 368Z"/></svg>