<svg xmlns="http://www.w3.org/2000/svg" viewBox="0 0 320 512"><!-- Font Awesome Pro 6.0.0-alpha1 by @fontawesome - https://fontawesome.com License - https://fontawesome.com/license (Commercial License) --><path d="M16 88V424C16 437 27 448 40 448S64 437 64 424V318L237 442C243 446 249 448 256 448C261 448 266 447 271 444C281 439 288 428 288 416V96C288 84 281 73 271 68C266 65 261 64 256 64C249 64 243 66 237 70L64 194V88C64 75 53 64 40 64S16 75 16 88ZM64 253L92 233L240 127V385L92 279L64 259V253Z"/></svg>