<svg xmlns="http://www.w3.org/2000/svg" viewBox="0 0 448 512"><!-- Font Awesome Pro 6.0.0-alpha1 by @fontawesome - https://fontawesome.com License - https://fontawesome.com/license (Commercial License) --><path d="M320 80H312V56C312 25 287 0 256 0H192C161 0 136 25 136 56V80H128C57 80 0 137 0 208V448C0 483 29 512 64 512H384C419 512 448 483 448 448V208C448 137 391 80 320 80ZM184 56C184 52 188 48 192 48H256C260 48 264 52 264 56V80H184V56ZM320 464H128V400H320V464ZM320 352H128V320C128 302 142 288 160 288H288C306 288 320 302 320 320V352ZM400 448C400 457 393 464 384 464H368V320C368 276 332 240 288 240H160C116 240 80 276 80 320V464H64C55 464 48 457 48 448V208C48 164 84 128 128 128H320C364 128 400 164 400 208V448ZM304 160H144C135 160 128 167 128 176V192C128 201 135 208 144 208H304C313 208 320 201 320 192V176C320 167 313 160 304 160Z"/></svg>