<svg xmlns="http://www.w3.org/2000/svg" viewBox="0 0 512 512"><!-- Font Awesome Pro 6.0.0-alpha1 by @fontawesome - https://fontawesome.com License - https://fontawesome.com/license (Commercial License) --><path d="M224 64C217 64 210 66 203 71L11 231C-4 244 -4 268 11 281L203 441C210 446 217 448 224 448C240 448 256 435 256 416V96C256 77 240 64 224 64ZM208 382L57 256L208 130V382ZM495 68C485 62 473 63 463 69L299 173C288 180 285 195 292 206C299 218 314 221 325 214L464 125V387L325 298C314 291 299 294 292 306C285 317 288 332 299 339L463 443C468 446 474 448 480 448C485 448 491 447 495 444C506 438 512 428 512 416V96C512 84 506 74 495 68Z"/></svg>