<svg xmlns="http://www.w3.org/2000/svg" viewBox="0 0 512 512"><!-- Font Awesome Pro 6.0.0-alpha1 by @fontawesome - https://fontawesome.com License - https://fontawesome.com/license (Commercial License) --><path d="M464 64C457 64 450 66 443 71L272 228V96C272 77 256 64 240 64C233 64 226 66 219 71L48 228V88C48 75 37 64 24 64H24C11 64 0 75 0 88V424C0 437 11 448 24 448C37 448 48 437 48 424V285L219 441C226 446 233 448 240 448C256 448 272 435 272 416V285L443 441C450 446 457 448 464 448C480 448 496 435 496 416V96C496 77 480 64 464 64ZM224 380L88 257L224 132V380ZM448 380L312 257L448 132V380Z"/></svg>