<svg xmlns="http://www.w3.org/2000/svg" viewBox="0 0 512 512"><!-- Font Awesome Pro 6.0.0-alpha1 by @fontawesome - https://fontawesome.com License - https://fontawesome.com/license (Commercial License) --><path d="M496 202L386 187L428 83C433 70 423 57 411 57C408 57 405 58 402 60L308 120L273 13C271 4 263 0 256 0S241 4 239 13L204 120L110 60C107 58 104 57 101 57C89 57 79 70 84 83L126 187L16 202C-2 205 -6 229 10 237L108 290L33 373C22 386 32 404 47 404C48 404 49 404 51 404L159 380L155 493C155 504 164 512 174 512C179 512 184 510 188 505L256 416L324 505C328 510 333 512 338 512C348 512 357 504 357 493L353 380L461 404C463 404 464 404 465 404C480 404 490 386 479 373L404 290L502 237C518 229 514 205 496 202ZM369 322L383 338L363 333L303 320L305 382L306 403L293 386L256 338L219 386L206 403L207 382L209 320L149 333L129 338L143 322L184 276L130 247L112 238L132 235L193 226L170 169L162 149L179 161L231 194L250 135L256 115L262 135L281 194L333 161L350 149L342 169L320 226L380 235L400 238L382 247L328 276L369 322Z"/></svg>