<svg xmlns="http://www.w3.org/2000/svg" viewBox="0 0 320 512"><!-- Font Awesome Pro 6.0.0-alpha1 by @fontawesome - https://fontawesome.com License - https://fontawesome.com/license (Commercial License) --><path d="M261 237C278 219 288 195 288 168C288 111 241 64 184 64H168V24C168 11 157 0 144 0S120 11 120 24V64H24C11 64 0 75 0 88V424C0 437 10 447 22 448C30 449 43 449 59 449C76 449 97 449 120 448V488C120 501 131 512 144 512S168 501 168 488V447C182 447 196 447 210 447C270 446 320 396 320 335C320 293 296 256 261 237ZM184 112C215 112 240 137 240 168S215 224 184 224H168V112H184ZM48 112H120V224H48V112ZM48 401V272H120V400C93 401 67 401 48 401ZM209 399C196 399 182 399 168 399V272H209C244 272 272 300 272 335C272 370 244 398 209 399Z"/></svg>