<svg xmlns="http://www.w3.org/2000/svg" viewBox="0 0 512 512"><!-- Font Awesome Pro 6.0.0-alpha1 by @fontawesome - https://fontawesome.com License - https://fontawesome.com/license (Commercial License) --><path d="M112 320H218L122 224H112C103 224 96 231 96 240V304C96 313 103 320 112 320ZM321 128C305 128 292 117 289 102C289 98 285 96 282 96H265C260 96 257 101 257 105C262 136 289 160 321 160C336 160 349 171 352 186C353 190 356 192 360 192H376C381 192 385 187 384 183C379 152 353 128 321 128ZM256 0C115 0 0 115 0 256S115 512 256 512S512 397 512 256S397 0 256 0ZM256 464C141 464 48 371 48 256C48 207 65 162 93 127L385 419C350 447 305 464 256 464ZM290 256H384V288H322L290 256ZM419 385L354 320H400C409 320 416 313 416 304V240C416 231 409 224 400 224H258L127 93C162 65 207 48 256 48C371 48 464 141 464 256C464 305 447 350 419 385Z"/></svg>