<svg xmlns="http://www.w3.org/2000/svg" viewBox="0 0 512 512"><!-- Font Awesome Pro 6.0.0-alpha1 by @fontawesome - https://fontawesome.com License - https://fontawesome.com/license (Commercial License) --><path d="M256 16C123 16 16 123 16 256S123 496 256 496S496 389 496 256S389 16 256 16ZM256 448C150 448 64 362 64 256C64 212 79 171 105 138L374 407C341 433 300 448 256 448ZM407 374L334 301C335 300 335 299 335 298L365 304C378 306 383 294 384 291C385 282 380 274 371 272L336 265V247L371 240C380 238 385 230 384 221C382 212 373 206 365 208L335 214C335 214 335 214 335 214C334 210 334 205 332 201C332 201 332 201 332 200C331 196 329 192 327 188C327 188 327 188 327 188L352 174C360 170 362 160 358 152C354 144 344 142 336 146L307 163L307 163C293 151 275 144 256 144C234 144 215 153 201 167L138 105C171 79 212 64 256 64C362 64 448 150 448 256C448 300 433 341 407 374ZM144 304C145 304 146 304 147 304L177 298C178 307 181 316 185 324L160 338C152 342 150 352 154 360C157 365 162 368 168 368C171 368 173 367 176 366L205 349C219 361 237 368 256 368C263 368 269 367 275 365L175 266L141 272C132 274 127 282 128 291C130 299 137 304 144 304Z"/></svg>