<svg xmlns="http://www.w3.org/2000/svg" viewBox="0 0 512 512"><!-- Font Awesome Pro 6.0.0-alpha1 by @fontawesome - https://fontawesome.com License - https://fontawesome.com/license (Commercial License) --><path d="M503 30L473 0C461 -13 440 -13 428 0L382 46C378 50 375 55 373 60L355 114L292 177C271 160 245 150 219 145L218 145C218 130 207 119 192 119C178 119 166 130 166 145V145C140 149 115 159 94 175L93 175C83 165 67 165 57 176C47 185 47 201 56 212L57 212C41 233 31 258 27 284H26C12 284 0 296 0 311C0 325 12 337 26 337H27C31 363 41 388 57 409L56 409C49 416 46 426 49 435C51 444 58 452 68 454C77 456 87 453 93 446L94 446C115 462 140 472 166 476V476C166 491 178 503 192 503C207 503 218 491 218 476V476C244 472 269 462 291 446L291 446C297 453 307 456 316 454C326 452 333 444 335 435C338 426 335 416 328 409L328 409C343 388 353 363 357 337H358C372 337 384 325 384 311C384 296 372 284 358 284H357C353 257 342 232 326 210L389 147L443 130C448 128 452 125 456 121L503 75C515 62 515 42 503 30ZM192 431C126 431 72 377 72 311S126 191 192 191S312 244 312 311C312 377 258 430 192 431ZM151 299C144 293 134 293 128 299L117 311C110 317 110 327 117 333L169 386C176 392 186 392 192 386L203 375C210 368 210 358 203 352L151 299Z"/></svg>