<svg xmlns="http://www.w3.org/2000/svg" viewBox="0 0 512 512"><!-- Font Awesome Pro 6.0.0-alpha1 by @fontawesome - https://fontawesome.com License - https://fontawesome.com/license (Commercial License) --><path d="M488 32H24C11 32 0 44 0 59V133C0 148 11 160 24 160H488C501 160 512 148 512 133V59C512 44 501 32 488 32ZM464 112H352V80H464V112ZM488 352H24C11 352 0 364 0 379V453C0 468 11 480 24 480H488C501 480 512 468 512 453V379C512 364 501 352 488 352ZM464 432H288V400H464V432ZM488 192H24C11 192 0 204 0 219V293C0 308 11 320 24 320H488C501 320 512 308 512 293V219C512 204 501 192 488 192ZM464 272H160V240H464V272Z"/></svg>