<svg xmlns="http://www.w3.org/2000/svg" viewBox="0 0 512 512"><!-- Font Awesome Pro 6.0.0-alpha1 by @fontawesome - https://fontawesome.com License - https://fontawesome.com/license (Commercial License) --><path d="M256 16C123 16 16 123 16 256S123 496 256 496S496 389 496 256S389 16 256 16ZM300 443C301 440 301 438 302 435C305 422 297 409 284 406C282 405 280 405 278 405C267 405 258 413 255 423C253 431 252 440 250 448C149 445 67 363 64 262C72 260 80 259 87 257C100 254 108 241 105 228C102 217 92 210 82 210C80 210 78 210 76 211C74 211 71 211 69 212C86 141 141 86 212 69C211 72 211 74 210 77C207 90 215 103 228 106C230 107 232 107 234 107C245 107 254 99 257 89C259 81 260 72 262 64C363 67 445 149 448 250C440 252 432 253 425 255C412 258 404 271 407 284C410 295 420 302 431 302C432 302 434 302 436 301C438 301 441 301 443 300C426 371 371 426 300 443ZM200 131C192 131 185 135 180 141C174 150 167 158 159 165C153 171 147 176 140 181C129 189 127 204 135 215C139 221 147 224 154 224C159 224 164 223 168 220C176 214 184 207 192 200C202 191 211 180 219 169C227 159 225 144 214 136C210 133 205 131 200 131ZM358 288C353 288 348 289 344 292C336 298 328 305 320 312C310 321 301 332 293 343C285 353 287 368 298 376C302 379 307 381 312 381C320 381 327 377 332 371C338 362 345 354 353 347C359 341 366 336 372 331C383 323 385 308 377 297C373 291 365 288 358 288Z"/></svg>