<svg xmlns="http://www.w3.org/2000/svg" viewBox="0 0 640 512"><!-- Font Awesome Pro 6.0.0-alpha1 by @fontawesome - https://fontawesome.com License - https://fontawesome.com/license (Commercial License) --><path d="M512 320C459 320 416 363 416 416S459 512 512 512S608 469 608 416S565 320 512 320ZM512 464C485 464 464 442 464 416S485 368 512 368C538 368 560 389 560 416S538 464 512 464ZM626 54L609 32C582 -5 531 -10 497 16L309 152C261 187 217 225 178 270C123 333 72 371 42 392C34 383 19 381 9 389C-1 397 -3 413 5 423L69 503C77 513 92 515 103 507C112 499 114 486 108 476C138 455 190 420 264 388C319 365 371 336 419 301L605 166C641 140 652 90 626 54ZM576 128L391 264C316 317 254 340 229 352L202 314C221 294 262 245 337 191L525 55C538 45 559 46 570 61L583 83C593 97 590 117 576 128Z"/></svg>