<svg xmlns="http://www.w3.org/2000/svg" viewBox="0 0 576 512"><!-- Font Awesome Pro 6.0.0-alpha1 by @fontawesome - https://fontawesome.com License - https://fontawesome.com/license (Commercial License) --><path d="M48 352V160C48 151 55 144 64 144H200V96H64C29 96 0 125 0 160V352C0 387 29 416 64 416H192C192 398 198 381 208 368H64C55 368 48 361 48 352ZM544 192V160C544 125 515 96 480 96H344V144H480C489 144 496 151 496 160V352C496 361 489 368 480 368H336C346 381 352 398 352 416H480C515 416 544 387 544 352V320C562 320 576 306 576 288V224C576 206 562 192 544 192ZM272 336C285 336 296 325 296 312V88C296 75 285 64 272 64S248 75 248 88V312C248 325 259 336 272 336ZM272 384C254 384 240 398 240 416C240 434 254 448 272 448S304 434 304 416C304 398 290 384 272 384Z"/></svg>