<svg xmlns="http://www.w3.org/2000/svg" viewBox="0 0 576 512"><!-- Font Awesome Pro 6.0.0-alpha1 by @fontawesome - https://fontawesome.com License - https://fontawesome.com/license (Commercial License) --><path d="M96 320H192V192H96V320ZM544 192V160C544 125 515 96 480 96H64C29 96 0 125 0 160V352C0 387 29 416 64 416H480C515 416 544 387 544 352V320C562 320 576 306 576 288V224C576 206 562 192 544 192ZM496 352C496 361 489 368 480 368H64C55 368 48 361 48 352V160C48 151 55 144 64 144H480C489 144 496 151 496 160V352Z"/></svg>