<svg xmlns="http://www.w3.org/2000/svg" viewBox="0 0 576 512"><!-- Font Awesome Pro 6.0.0-alpha1 by @fontawesome - https://fontawesome.com License - https://fontawesome.com/license (Commercial License) --><path d="M152 144C192 144 224 112 224 72S192 0 152 0S80 32 80 72S112 144 152 144ZM152 48C165 48 176 59 176 72S165 96 152 96S128 85 128 72S139 48 152 48ZM464 0H272C263 0 256 7 256 16V160H48V24C48 11 37 0 24 0H24C11 0 0 11 0 24V488C0 501 11 512 24 512H24C37 512 48 501 48 488V464H528V488C528 501 539 512 552 512L552 512C565 512 576 501 576 488V128C576 50 526 0 464 0ZM528 416H304V304H464C499 304 528 333 528 368V416ZM528 276C509 263 487 256 464 256H272C263 256 256 263 256 272V416H48V208H528V276ZM528 160H304V48H464C499 48 528 77 528 112V160ZM152 400C192 400 224 368 224 328S192 256 152 256S80 288 80 328S112 400 152 400ZM152 304C165 304 176 315 176 328S165 352 152 352S128 341 128 328S139 304 152 304Z"/></svg>