<svg xmlns="http://www.w3.org/2000/svg" viewBox="0 0 640 512"><!-- Font Awesome Pro 6.0.0-alpha1 by @fontawesome - https://fontawesome.com License - https://fontawesome.com/license (Commercial License) --><path d="M216 96H338L379 172C383 179 391 184 400 184H401C410 184 418 178 422 170L471 65L495 89C500 93 506 96 512 96H616C629 96 640 85 640 72S629 48 616 48H522L481 7C475 1 468 -1 460 0C452 2 446 7 442 14L398 107L373 60C369 53 361 48 352 48H216C203 48 192 59 192 72S203 96 216 96ZM168 336C217 336 256 297 256 248S217 160 168 160S80 199 80 248S119 336 168 336ZM168 208C190 208 208 226 208 248S190 288 168 288C146 288 128 270 128 248S146 208 168 208ZM528 160H488C475 160 464 171 464 184C464 197 475 208 488 208H528C563 208 592 237 592 272V368H336V184C336 171 325 160 312 160S288 171 288 184V368H48V88C48 75 37 64 24 64S0 75 0 88V488C0 501 11 512 24 512S48 501 48 488V416H592V488C592 501 603 512 616 512S640 501 640 488V272C640 210 590 160 528 160Z"/></svg>