<svg xmlns="http://www.w3.org/2000/svg" viewBox="0 0 640 512"><!-- Font Awesome Pro 6.0.0-alpha1 by @fontawesome - https://fontawesome.com License - https://fontawesome.com/license (Commercial License) --><path d="M168 304C217 304 256 265 256 216S217 128 168 128S80 167 80 216S119 304 168 304ZM168 176C190 176 208 194 208 216C208 238 190 256 168 256C146 256 128 238 128 216C128 194 146 176 168 176ZM528 128H304C295 128 288 135 288 144V336H48V56C48 43 37 32 24 32H24C11 32 0 43 0 56V456C0 469 11 480 24 480H24C37 480 48 469 48 456V384H592V456C592 469 603 480 616 480L616 480C629 480 640 469 640 456V240C640 178 590 128 528 128ZM592 336H336V176H528C563 176 592 205 592 240V336Z"/></svg>