<svg xmlns="http://www.w3.org/2000/svg" viewBox="0 0 576 512"><!-- Font Awesome Pro 6.0.0-alpha1 by @fontawesome - https://fontawesome.com License - https://fontawesome.com/license (Commercial License) --><path d="M448 96H448C420 96 393 106 367 119C368 117 368 114 368 112C368 92 360 73 348 59L379 27C386 21 386 11 379 5S363 -2 357 5L322 40C311 35 300 32 288 32S265 35 254 40L219 5C213 -2 203 -2 197 5S190 21 197 27L228 59C216 73 208 92 208 112C208 114 208 117 209 119C183 106 156 96 128 96H128C57 96 0 146 0 208V208C0 270 57 320 128 320H128C135 320 142 319 149 318C162 418 288 512 288 512S414 418 427 318C434 319 441 320 448 320H448C519 320 576 270 576 208V208C576 146 519 96 448 96ZM196 304H380C380 314 377 325 373 336H203C199 325 196 314 196 304ZM207 256C211 249 216 241 222 235C240 218 263 208 288 208H288C313 208 336 218 354 235C360 241 365 249 369 256H207ZM151 269C143 271 136 272 128 272C84 272 48 243 48 208C48 173 84 144 128 144H128C157 144 189 160 217 180C184 199 160 231 151 269ZM288 449C269 432 247 409 230 384H346C329 409 307 432 288 449ZM448 272C440 272 433 271 425 269C416 231 392 199 359 180C387 160 419 144 448 144H448C492 144 528 173 528 208C528 243 492 272 448 272Z"/></svg>