<svg xmlns="http://www.w3.org/2000/svg" viewBox="0 0 512 512"><!-- Font Awesome Pro 6.0.0-alpha1 by @fontawesome - https://fontawesome.com License - https://fontawesome.com/license (Commercial License) --><path d="M392 96H352V64C352 46 338 32 320 32H32C14 32 0 46 0 64V400C0 444 36 480 80 480H272C316 480 352 444 352 400V384L427 351C459 337 480 305 480 270V184C480 135 441 96 392 96ZM304 400C304 418 290 432 272 432H80C62 432 48 418 48 400V80H304V400ZM432 270C432 286 423 300 408 307L352 331V144H392C414 144 432 162 432 184V270ZM96 368V144C96 135 103 128 112 128S128 135 128 144V368C128 377 121 384 112 384S96 377 96 368ZM160 368V144C160 135 167 128 176 128S192 135 192 144V368C192 377 185 384 176 384S160 377 160 368ZM224 368V144C224 135 231 128 240 128S256 135 256 144V368C256 377 249 384 240 384S224 377 224 368Z"/></svg>