<svg xmlns="http://www.w3.org/2000/svg" viewBox="0 0 448 512"><!-- Font Awesome Pro 6.0.0-alpha1 by @fontawesome - https://fontawesome.com License - https://fontawesome.com/license (Commercial License) --><path d="M224 512C259 512 288 483 288 448H160C160 483 189 512 224 512ZM439 363C420 342 384 311 384 209C384 131 330 69 256 54V33C256 21 250 10 240 4C230 -2 218 -2 208 4C198 10 192 21 192 33V54C118 69 64 131 64 209C64 311 28 342 9 363C3 368 0 376 0 384C0 401 13 416 32 416H416C435 416 448 401 448 384C448 376 445 368 439 363ZM67 368C89 340 112 294 112 209V209C112 147 162 97 224 97S336 147 336 209V209C336 294 359 340 381 368H67ZM224 255C237 255 248 245 248 232V152C248 138 237 128 224 128S200 138 200 152V232C200 245 211 255 224 255ZM224 287C206 287 192 302 192 319S206 351 224 351S256 337 256 319S242 287 224 287Z"/></svg>