<svg xmlns="http://www.w3.org/2000/svg" viewBox="0 0 512 512"><!-- Font Awesome Pro 6.0.0-alpha1 by @fontawesome - https://fontawesome.com License - https://fontawesome.com/license (Commercial License) --><path d="M464 352C438 352 416 374 416 400C416 416 424 431 437 440C431 454 417 464 400 464H350C351 459 352 454 352 448V358C400 311 426 242 412 167C396 86 331 19 249 4C116 -21 0 80 0 208C0 267 25 320 64 358V448C64 483 93 512 128 512H400C442 512 477 482 486 442C501 434 512 419 512 400C512 374 490 352 464 352ZM304 448C304 457 297 464 288 464H128C119 464 112 457 112 448V392C141 407 173 416 208 416S275 407 304 392V448ZM251 362C130 394 22 286 54 165C68 111 111 68 165 54C286 22 394 130 362 251C348 305 305 348 251 362ZM227 114C159 101 101 159 114 227C121 264 152 295 189 302C257 315 315 257 302 189C295 152 264 121 227 114ZM208 256C182 256 160 234 160 208S182 160 208 160S256 182 256 208S234 256 208 256Z"/></svg>