<svg xmlns="http://www.w3.org/2000/svg" viewBox="0 0 640 512"><!-- Font Awesome Pro 6.0.0-alpha1 by @fontawesome - https://fontawesome.com License - https://fontawesome.com/license (Commercial License) --><path d="M576 176C611 176 640 147 640 112S611 48 576 48C549 48 526 65 517 88H400V64C400 46 386 32 368 32H272C254 32 240 46 240 64V88H123C114 65 91 48 64 48C29 48 0 77 0 112S29 176 64 176C91 176 114 159 123 136H203C139 174 94 242 89 320H64C46 320 32 334 32 352V448C32 466 46 480 64 480H160C178 480 192 466 192 448V352C192 334 178 320 160 320H137C143 253 184 197 242 170C246 182 258 192 272 192H368C382 192 394 182 398 170C456 197 497 253 503 320H480C462 320 448 334 448 352V448C448 466 462 480 480 480H576C594 480 608 466 608 448V352C608 334 594 320 576 320H551C546 242 501 174 437 136H517C526 159 549 176 576 176ZM560 110L561 108C562 101 569 96 576 96C585 96 592 103 592 112S585 128 576 128C569 128 562 123 561 116L560 114V110ZM80 114L79 116C78 123 71 128 64 128C55 128 48 121 48 112S55 96 64 96C71 96 78 101 79 108L80 110V114ZM144 368V432H80V368H144ZM352 144H288V80H352V144ZM560 368V432H496V368H560Z"/></svg>