<svg xmlns="http://www.w3.org/2000/svg" viewBox="0 0 640 512"><!-- Font Awesome Pro 6.0.0-alpha1 by @fontawesome - https://fontawesome.com License - https://fontawesome.com/license (Commercial License) --><path d="M512 224C498 224 485 227 472 231L374 49C368 38 358 32 346 32H311C297 32 287 43 287 56C287 69 297 80 311 80H336L371 144H221L194 106C190 100 182 96 175 96H119C105 96 95 107 95 120C95 133 105 144 119 144H162L184 175L158 228C148 226 138 224 128 224C57 224 0 281 0 352C0 423 57 480 128 480C193 480 246 431 254 368H303C311 368 319 364 323 356L408 213L430 254C402 278 384 313 384 352C384 423 441 480 512 480S640 423 640 352C640 281 583 224 512 224ZM128 432C84 432 48 396 48 352S84 272 128 272C131 272 133 273 135 273L105 333C101 341 102 350 106 357C111 364 118 368 127 368H206C199 404 167 432 128 432ZM165 320L216 220L287 320H165ZM315 276L255 192H365L315 276ZM512 432C468 432 432 396 432 352C432 331 440 312 454 297L478 342C484 354 499 358 511 352L511 352C522 346 527 331 520 319L495 274C501 273 506 272 512 272C556 272 592 308 592 352S556 432 512 432Z"/></svg>