<svg xmlns="http://www.w3.org/2000/svg" viewBox="0 0 512 512"><!-- Font Awesome Pro 6.0.0-alpha1 by @fontawesome - https://fontawesome.com License - https://fontawesome.com/license (Commercial License) --><path d="M416 80H320V48C320 39 327 32 336 32H400C409 32 416 39 416 48V80ZM192 48C192 39 185 32 176 32H112C103 32 96 39 96 48V80H192V48ZM512 432C512 458 491 480 464 480H336C310 480 288 458 288 432V288H224V432C224 458 202 480 176 480H48C21 480 0 458 0 432L0 388C4 258 61 238 64 144C64 126 78 112 96 112L192 112C210 112 224 126 224 144V160H288V144C288 126 302 112 320 112L416 112C434 112 448 126 448 144C451 238 508 258 512 388L512 432ZM176 160H111C107 205 93 237 80 265C64 298 50 329 48 389L48 432L176 432V160ZM464 432L464 388C462 329 448 298 432 265C419 237 405 205 401 160H336V432H464Z"/></svg>