<svg xmlns="http://www.w3.org/2000/svg" viewBox="0 0 512 512"><!-- Font Awesome Pro 6.0.0-alpha1 by @fontawesome - https://fontawesome.com License - https://fontawesome.com/license (Commercial License) --><path d="M426 330L512 0H48C22 0 0 22 0 48V208C0 234 22 256 48 256H150L156 327C121 341 96 376 96 416V480C96 498 110 512 128 512H448C466 512 480 498 480 480V416C480 378 458 346 426 330ZM48 208V48H132L146 208H48ZM450 48L437 96H304C295 96 288 103 288 112V112C288 121 295 128 304 128H429L412 192H304C295 192 288 199 288 208V208C288 217 295 224 304 224H404L379 320H204L180 48H450ZM432 464H144V416C144 390 166 368 192 368H384C410 368 432 390 432 416V464ZM288 392C275 392 264 403 264 416S275 440 288 440S312 429 312 416S301 392 288 392Z"/></svg>