<svg xmlns="http://www.w3.org/2000/svg" viewBox="0 0 576 512"><!-- Font Awesome Pro 6.0.0-alpha1 by @fontawesome - https://fontawesome.com License - https://fontawesome.com/license (Commercial License) --><path d="M352 392C339 392 328 403 328 416S339 440 352 440C365 440 376 429 376 416S365 392 352 392ZM116 123C123 123 130 119 133 112L159 49C162 42 159 33 152 29L113 5C98 -4 80 0 69 12C-24 116 -23 272 71 374C81 385 100 387 113 379L152 355C159 351 162 342 159 335L133 272C130 265 123 261 116 262L71 266C54 219 53 166 71 118L116 123ZM490 330L576 0H192L220 327C185 341 160 376 160 416V480C160 498 174 512 192 512H512C530 512 544 498 544 480V416C544 378 522 346 490 330ZM514 48L501 96H368C359 96 352 103 352 112C352 121 359 128 368 128H493L476 192H368C359 192 352 199 352 208C352 217 359 224 368 224H468L443 320H268L244 48H514ZM496 464H208V416C208 390 230 368 256 368H448C474 368 496 390 496 416V464Z"/></svg>