<svg xmlns="http://www.w3.org/2000/svg" viewBox="0 0 512 512"><!-- Font Awesome Pro 6.0.0-alpha1 by @fontawesome - https://fontawesome.com License - https://fontawesome.com/license (Commercial License) --><path d="M488 464H24C11 464 0 475 0 488S11 512 24 512H488C501 512 512 501 512 488S501 464 488 464ZM488 160H224V208H488C501 208 512 197 512 184S501 160 488 160ZM24 160C11 160 0 171 0 184S11 208 24 208H144V240C144 241 145 243 145 244C117 254 96 280 96 312C96 352 128 384 168 384S240 352 240 312C240 280 219 254 191 244C191 243 192 241 192 240V48H488C501 48 512 37 512 24S501 0 488 0H24C11 0 0 11 0 24S11 48 24 48H144V160H24ZM168 288C181 288 192 299 192 312S181 336 168 336S144 325 144 312S155 288 168 288ZM488 320H271C270 338 264 354 255 368H488C501 368 512 357 512 344S501 320 488 320ZM24 368H81C72 354 66 338 65 320H24C11 320 0 331 0 344S11 368 24 368Z"/></svg>