<svg xmlns="http://www.w3.org/2000/svg" viewBox="0 0 512 512"><!-- Font Awesome Pro 6.0.0-alpha1 by @fontawesome - https://fontawesome.com License - https://fontawesome.com/license (Commercial License) --><path d="M217 0C204 -1 193 10 192 23C191 36 202 47 215 48C347 54 459 165 464 297C465 310 475 320 488 320C488 320 489 320 489 320C502 319 513 308 512 295C505 139 373 7 217 0ZM218 96C205 95 193 105 192 118S201 143 214 144C294 149 363 218 368 298C369 310 379 320 392 320C393 320 393 320 394 320C407 319 417 308 416 294C409 192 320 103 218 96ZM144 224H120C107 224 96 235 96 248C96 261 107 272 120 272H144C197 272 240 315 240 368S197 464 144 464S48 421 48 368V120C48 107 37 96 24 96S0 107 0 120V368C0 447 65 512 144 512S288 447 288 368S223 224 144 224Z"/></svg>