<svg xmlns="http://www.w3.org/2000/svg" viewBox="0 0 512 512"><!-- Font Awesome Pro 6.0.0-alpha1 by @fontawesome - https://fontawesome.com License - https://fontawesome.com/license (Commercial License) --><path d="M390 144L403 131C410 125 410 115 403 109C400 106 396 104 392 104S384 106 381 109L368 122L333 86C328 82 323 80 317 80S306 82 302 86L280 109C257 101 233 96 208 96C93 96 0 189 0 304S93 512 208 512S416 419 416 304C416 279 411 255 403 232L426 210C434 201 434 188 426 179L390 144ZM369 198L347 220L358 249C365 267 368 286 368 304C368 392 296 464 208 464S48 392 48 304S120 144 208 144C226 144 245 147 263 154L292 165L314 143L317 139L329 151L357 178L373 195L369 198ZM224 176C145 176 80 241 80 320C80 329 87 336 96 336S112 329 112 320C112 258 162 208 224 208C233 208 240 201 240 192S233 176 224 176ZM509 59L469 43L453 3C451 -1 445 -1 443 3L427 43L387 59C383 61 383 67 387 69L427 85L443 125C445 129 451 129 453 125L469 85L509 69C513 67 513 61 509 59Z"/></svg>