<svg xmlns="http://www.w3.org/2000/svg" viewBox="0 0 576 512"><!-- Font Awesome Pro 6.0.0-alpha1 by @fontawesome - https://fontawesome.com License - https://fontawesome.com/license (Commercial License) --><path d="M576 190V186C576 143 545 106 503 98C457 89 412 113 396 156C394 162 388 168 383 168H193C188 168 182 162 179 155C165 113 118 89 73 98C31 106 0 143 0 186V190C0 216 12 240 32 256C12 272 0 296 0 322V326C0 369 31 406 73 414C79 415 86 416 92 416C131 416 167 393 180 356C182 350 188 344 193 344H383C388 344 394 350 397 357C412 399 458 423 503 414C545 406 576 369 576 326V322C576 296 564 272 544 256C564 240 576 216 576 190ZM528 190C528 204 519 218 504 224C492 230 484 242 484 256S492 282 504 288L504 288C519 294 528 308 528 322V326C528 346 514 363 494 367C471 372 449 360 442 341C434 319 412 296 383 296H193C164 296 142 319 134 341C127 360 105 372 82 367C62 363 48 346 48 326V322C48 308 57 294 72 287C84 282 92 270 92 256S84 230 72 224C57 218 48 204 48 190V186C48 166 62 149 82 145C85 144 89 144 92 144C111 144 128 155 134 172C142 193 164 216 193 216H383C412 216 434 193 442 171C449 152 471 140 494 145C514 149 528 166 528 186V190Z"/></svg>