<svg xmlns="http://www.w3.org/2000/svg" viewBox="0 0 640 512"><!-- Font Awesome Pro 6.0.0-alpha1 by @fontawesome - https://fontawesome.com License - https://fontawesome.com/license (Commercial License) --><path d="M408 160C414 160 420 158 425 153L473 105C482 96 482 80 473 71C464 62 448 62 439 71L391 119C382 128 382 144 391 153C396 158 402 160 408 160ZM320 128C333 128 344 117 344 104V24C344 11 333 0 320 0C307 0 296 11 296 24V104C296 117 307 128 320 128ZM215 153C220 158 226 160 232 160S244 158 249 153C258 144 258 128 249 119L201 71C192 62 176 62 167 71S158 96 167 105L215 153ZM582 198C539 182 489 199 466 238C463 243 457 245 452 245L373 227C360 224 347 232 345 245S350 271 363 274L443 292C468 296 495 284 508 262C519 243 543 235 566 243C584 250 595 270 591 289L591 293C588 308 576 320 560 324C546 328 536 339 534 352C532 365 537 379 549 386C562 395 568 410 566 424L565 428C561 448 543 463 522 464C500 464 480 450 476 431L476 429C472 404 451 384 427 380L320 354L215 379C189 384 168 404 164 429L164 431C160 451 140 465 118 464C97 463 79 448 75 428L74 424C72 410 78 395 91 386C103 379 108 365 106 352C104 339 94 328 80 324C64 320 52 308 49 293L49 289C45 270 56 250 75 243C96 235 121 243 132 262C145 284 171 296 199 291L277 274C290 271 298 258 295 245C293 232 280 224 267 227L190 244C183 245 177 243 174 237C151 199 101 182 58 198C17 214 -6 256 2 298L2 302C7 328 24 349 47 362C30 382 22 408 27 433L28 437C36 479 73 510 116 512C163 514 205 482 212 437L212 436C213 431 217 428 225 426L320 403L417 427C423 428 427 431 428 436L428 437C435 480 474 512 520 512C522 512 523 512 524 512C567 510 604 479 612 437L613 433C618 408 610 382 593 362C616 349 633 328 638 302L638 298C646 256 623 214 582 198Z"/></svg>