<svg xmlns="http://www.w3.org/2000/svg" viewBox="0 0 640 512"><!-- Font Awesome Pro 6.0.0-alpha1 by @fontawesome - https://fontawesome.com License - https://fontawesome.com/license (Commercial License) --><path d="M600 33L592 35V403L320 464L48 403V35L40 33C20 28 0 43 0 64V416C0 431 10 444 25 447L313 511C318 512 322 512 327 511L615 447C630 444 640 431 640 416V64C640 43 620 28 600 33ZM98 375L314 431C316 432 318 432 320 432S324 432 326 431L542 375C553 373 560 363 560 352V24C560 17 557 10 551 6C546 1 539 -1 532 0L320 40L108 0C101 -1 94 1 89 6C83 10 80 17 80 24V352C80 363 87 373 98 375ZM344 84L512 53V333L344 377V84ZM128 53L296 84V377L128 333V53Z"/></svg>