<svg xmlns="http://www.w3.org/2000/svg" viewBox="0 0 448 512"><!-- Font Awesome Pro 6.0.0-alpha1 by @fontawesome - https://fontawesome.com License - https://fontawesome.com/license (Commercial License) --><path d="M424 400C437 400 448 389 448 376V24C448 11 437 0 424 0H80C36 0 0 36 0 80V432C0 476 36 512 80 512H424C437 512 448 501 448 488S437 464 424 464H416V400H424ZM368 464H80C62 464 48 450 48 432S62 400 80 400H368V464ZM400 352H80C69 352 58 354 48 359V80C48 62 62 48 80 48H400V352ZM152 160H328C341 160 352 149 352 136S341 112 328 112H152C139 112 128 123 128 136S139 160 152 160ZM152 240H328C341 240 352 229 352 216S341 192 328 192H152C139 192 128 203 128 216S139 240 152 240Z"/></svg>