<svg xmlns="http://www.w3.org/2000/svg" viewBox="0 0 448 512"><!-- Font Awesome Pro 6.0.0-alpha1 by @fontawesome - https://fontawesome.com License - https://fontawesome.com/license (Commercial License) --><path d="M424 400C437 400 448 389 448 376V24C448 11 437 0 424 0H80C36 0 0 36 0 80V432C0 476 36 512 80 512H424C437 512 448 501 448 488S437 464 424 464H416V400H424ZM368 464H80C62 464 48 450 48 432S62 400 80 400H368V464ZM400 352H80C69 352 58 354 48 359V80C48 62 62 48 80 48H400V352ZM141 301C153 307 168 303 173 291L191 256H289L306 291C311 299 319 304 328 304C332 304 335 303 339 301C351 296 355 281 349 269L261 93C253 77 227 77 218 93L130 269C125 281 129 296 141 301ZM240 158L265 208H215L240 158Z"/></svg>