<svg xmlns="http://www.w3.org/2000/svg" viewBox="0 0 576 512"><!-- Font Awesome Pro 6.0.0-alpha1 by @fontawesome - https://fontawesome.com License - https://fontawesome.com/license (Commercial License) --><path d="M541 57C494 40 449 32 411 32C352 33 308 50 288 60C268 50 224 33 165 32C126 31 82 40 35 57C14 64 0 85 0 107V399C0 416 8 431 21 441C35 452 52 455 69 451C187 419 271 474 274 476C279 479 283 480 288 480S297 479 301 476C305 474 389 419 507 451C524 455 541 452 555 441C568 431 576 416 576 399V107C576 85 562 64 541 57ZM264 417C236 405 194 393 143 393C116 393 87 396 57 404C53 405 51 404 50 403C48 402 48 400 48 399V107C48 105 50 103 52 102C93 87 131 80 164 80C211 81 247 94 264 102V417ZM528 399C528 400 528 402 526 403C525 404 523 405 519 404C429 380 354 399 312 417V102C329 94 365 81 412 80C444 80 483 87 524 102C526 103 528 105 528 107V399Z"/></svg>