<svg xmlns="http://www.w3.org/2000/svg" viewBox="0 0 640 512"><!-- Font Awesome Pro 6.0.0-alpha1 by @fontawesome - https://fontawesome.com License - https://fontawesome.com/license (Commercial License) --><path d="M631 469L512 376V48C512 22 491 0 464 0H176C150 0 128 22 128 48V75L39 5C28 -3 13 -1 5 9C-3 20 -1 35 9 43L601 507C606 510 611 512 616 512C623 512 630 509 635 503C643 492 641 477 631 469ZM464 338L176 113V54C176 51 179 48 182 48H458C461 48 464 51 464 54V338ZM320 368L176 452V234L128 197V480C128 505 155 520 176 508L320 424L464 508C480 517 500 510 508 495L425 429L320 368Z"/></svg>