<svg xmlns="http://www.w3.org/2000/svg" viewBox="0 0 448 512"><!-- Font Awesome Pro 6.0.0-alpha1 by @fontawesome - https://fontawesome.com License - https://fontawesome.com/license (Commercial License) --><path d="M192 195V208C192 217 199 224 208 224H272C281 224 288 217 288 208V195C307 183 320 165 320 144C320 109 284 80 240 80S160 109 160 144C160 165 173 183 192 195ZM272 128C281 128 288 135 288 144S281 160 272 160S256 153 256 144S263 128 272 128ZM208 128C217 128 224 135 224 144S217 160 208 160S192 153 192 144S199 128 208 128ZM424 400C437 400 448 389 448 376V24C448 11 437 0 424 0H80C36 0 0 36 0 80V432C0 476 36 512 80 512H424C437 512 448 501 448 488S437 464 424 464H416V400H424ZM368 464H80C62 464 48 450 48 432S62 400 80 400H368V464ZM400 352H80C69 352 58 354 48 359V80C48 62 62 48 80 48H400V352ZM129 309C131 316 137 320 144 320C146 320 147 320 149 319L240 289L331 319C333 320 334 320 336 320C343 320 349 316 351 309C354 301 349 292 341 289L291 272L341 255C349 252 354 243 351 235C348 227 339 222 331 225L240 255L149 225C141 222 132 227 129 235C126 243 131 252 139 255L189 272L139 289C131 292 126 301 129 309Z"/></svg>