<svg xmlns="http://www.w3.org/2000/svg" viewBox="0 0 448 512"><!-- Font Awesome Pro 6.0.0-alpha1 by @fontawesome - https://fontawesome.com License - https://fontawesome.com/license (Commercial License) --><path d="M232 320C298 320 352 266 352 200S298 80 232 80S112 134 112 200S166 320 232 320ZM318 184H284C282 160 278 139 271 122C296 134 313 157 318 184ZM284 216H318C313 243 295 266 271 278C278 261 282 240 284 216ZM232 114C239 123 250 147 252 184H212C214 147 225 123 232 114ZM252 216C250 253 239 277 232 286C225 277 214 253 212 216H252ZM193 122C186 139 182 160 180 184H146C151 157 168 134 193 122ZM180 216C182 240 186 261 193 278C169 266 151 243 146 216H180ZM424 400C437 400 448 389 448 376V24C448 11 437 0 424 0H80C36 0 0 36 0 80V432C0 476 36 512 80 512H424C437 512 448 501 448 488S437 464 424 464H416V400H424ZM368 464H80C62 464 48 450 48 432S62 400 80 400H368V464ZM400 352H80C69 352 58 354 48 359V80C48 62 62 48 80 48H400V352Z"/></svg>