<svg xmlns="http://www.w3.org/2000/svg" viewBox="0 0 448 512"><!-- Font Awesome Pro 6.0.0-alpha1 by @fontawesome - https://fontawesome.com License - https://fontawesome.com/license (Commercial License) --><path d="M160 208H208V304C208 313 215 320 224 320H256C265 320 272 313 272 304V208H320C329 208 336 201 336 192V160C336 151 329 144 320 144H272V96C272 87 265 80 256 80H224C215 80 208 87 208 96V144H160C151 144 144 151 144 160V192C144 201 151 208 160 208ZM424 400C437 400 448 389 448 376V24C448 11 437 0 424 0H80C36 0 0 36 0 80V432C0 476 36 512 80 512H424C437 512 448 501 448 488S437 464 424 464H416V400H424ZM368 464H80C62 464 48 450 48 432S62 400 80 400H368V464ZM400 352H80C69 352 58 354 48 359V80C48 62 62 48 80 48H400V352Z"/></svg>