<svg xmlns="http://www.w3.org/2000/svg" viewBox="0 0 512 512"><!-- Font Awesome Pro 6.0.0-alpha1 by @fontawesome - https://fontawesome.com License - https://fontawesome.com/license (Commercial License) --><path d="M0 56V488C0 501 11 512 24 512S48 501 48 488V56C48 52 52 48 56 48H112V0H56C25 0 0 25 0 56ZM456 0H144V400C144 435 173 464 208 464C223 464 237 458 248 450C259 458 273 464 288 464S317 458 328 450C339 458 353 464 368 464S397 458 408 450C419 458 433 464 448 464C454 464 459 463 464 462V488C464 501 475 512 488 512S512 501 512 488V56C512 25 487 0 456 0ZM224 400C224 409 217 416 208 416S192 409 192 400V48H224V400ZM304 400C304 409 297 416 288 416S272 409 272 400V48H304V400ZM384 400C384 409 377 416 368 416S352 409 352 400V48H384V400ZM464 400C464 409 457 416 448 416S432 409 432 400V48H456C460 48 464 52 464 56V400Z"/></svg>