<svg xmlns="http://www.w3.org/2000/svg" viewBox="0 0 448 512"><!-- Font Awesome Pro 6.0.0-alpha1 by @fontawesome - https://fontawesome.com License - https://fontawesome.com/license (Commercial License) --><path d="M24 88H40C49 88 56 81 56 72V56C56 47 49 40 40 40H24C15 40 8 47 8 56V72C8 81 15 88 24 88ZM40 424H24C15 424 8 431 8 440V456C8 465 15 472 24 472H40C49 472 56 465 56 456V440C56 431 49 424 40 424ZM24 184H40C49 184 56 177 56 168V152C56 143 49 136 40 136H24C15 136 8 143 8 152V168C8 177 15 184 24 184ZM408 88H424C433 88 440 81 440 72V56C440 47 433 40 424 40H408C399 40 392 47 392 56V72C392 81 399 88 408 88ZM408 184H424C433 184 440 177 440 168V152C440 143 433 136 424 136H408C399 136 392 143 392 152V168C392 177 399 184 408 184ZM312 88H328C337 88 344 81 344 72V56C344 47 337 40 328 40H312C303 40 296 47 296 56V72C296 81 303 88 312 88ZM120 88H136C145 88 152 81 152 72V56C152 47 145 40 136 40H120C111 40 104 47 104 56V72C104 81 111 88 120 88ZM424 424H408C399 424 392 431 392 440V456C392 465 399 472 408 472H424C433 472 440 465 440 456V440C440 431 433 424 424 424ZM424 328H408C399 328 392 335 392 344V360C392 369 399 376 408 376H424C433 376 440 369 440 360V344C440 335 433 328 424 328ZM328 424H312C303 424 296 431 296 440V456C296 465 303 472 312 472H328C337 472 344 465 344 456V440C344 431 337 424 328 424ZM40 328H24C15 328 8 335 8 344V360C8 369 15 376 24 376H40C49 376 56 369 56 360V344C56 335 49 328 40 328ZM136 424H120C111 424 104 431 104 440V456C104 465 111 472 120 472H136C145 472 152 465 152 456V440C152 431 145 424 136 424ZM432 232H248V48C248 39 241 32 232 32H216C207 32 200 39 200 48V232H16C7 232 0 239 0 248V264C0 273 7 280 16 280H200V464C200 473 207 480 216 480H232C241 480 248 473 248 464V280H432C441 280 448 273 448 264V248C448 239 441 232 432 232Z"/></svg>