<svg xmlns="http://www.w3.org/2000/svg" viewBox="0 0 448 512"><!-- Font Awesome Pro 6.0.0-alpha1 by @fontawesome - https://fontawesome.com License - https://fontawesome.com/license (Commercial License) --><path d="M312 280H328C337 280 344 273 344 264V248C344 239 337 232 328 232H312C303 232 296 239 296 248V264C296 273 303 280 312 280ZM312 88H328C337 88 344 81 344 72V56C344 47 337 40 328 40H312C303 40 296 47 296 56V72C296 81 303 88 312 88ZM216 184H232C241 184 248 177 248 168V152C248 143 241 136 232 136H216C207 136 200 143 200 152V168C200 177 207 184 216 184ZM216 88H232C241 88 248 81 248 72V56C248 47 241 40 232 40H216C207 40 200 47 200 56V72C200 81 207 88 216 88ZM408 184H424C433 184 440 177 440 168V152C440 143 433 136 424 136H408C399 136 392 143 392 152V168C392 177 399 184 408 184ZM408 88H424C433 88 440 81 440 72V56C440 47 433 40 424 40H408C399 40 392 47 392 56V72C392 81 399 88 408 88ZM408 280H424C433 280 440 273 440 264V248C440 239 433 232 424 232H408C399 232 392 239 392 248V264C392 273 399 280 408 280ZM408 376H424C433 376 440 369 440 360V344C440 335 433 328 424 328H408C399 328 392 335 392 344V360C392 369 399 376 408 376ZM120 88H136C145 88 152 81 152 72V56C152 47 145 40 136 40H120C111 40 104 47 104 56V72C104 81 111 88 120 88ZM24 280H40C49 280 56 273 56 264V248C56 239 49 232 40 232H24C15 232 8 239 8 248V264C8 273 15 280 24 280ZM24 376H40C49 376 56 369 56 360V344C56 335 49 328 40 328H24C15 328 8 335 8 344V360C8 369 15 376 24 376ZM24 184H40C49 184 56 177 56 168V152C56 143 49 136 40 136H24C15 136 8 143 8 152V168C8 177 15 184 24 184ZM432 432H16C7 432 0 439 0 448V464C0 473 7 480 16 480H432C441 480 448 473 448 464V448C448 439 441 432 432 432ZM216 376H232C241 376 248 369 248 360V344C248 335 241 328 232 328H216C207 328 200 335 200 344V360C200 369 207 376 216 376ZM216 280H232C241 280 248 273 248 264V248C248 239 241 232 232 232H216C207 232 200 239 200 248V264C200 273 207 280 216 280ZM120 280H136C145 280 152 273 152 264V248C152 239 145 232 136 232H120C111 232 104 239 104 248V264C104 273 111 280 120 280ZM24 88H40C49 88 56 81 56 72V56C56 47 49 40 40 40H24C15 40 8 47 8 56V72C8 81 15 88 24 88Z"/></svg>