<svg xmlns="http://www.w3.org/2000/svg" viewBox="0 0 448 512"><!-- Font Awesome Pro 6.0.0-alpha1 by @fontawesome - https://fontawesome.com License - https://fontawesome.com/license (Commercial License) --><path d="M232 232H216C207 232 200 239 200 248V264C200 273 207 280 216 280H232C241 280 248 273 248 264V248C248 239 241 232 232 232ZM328 424H312C303 424 296 431 296 440V456C296 465 303 472 312 472H328C337 472 344 465 344 456V440C344 431 337 424 328 424ZM232 136H216C207 136 200 143 200 152V168C200 177 207 184 216 184H232C241 184 248 177 248 168V152C248 143 241 136 232 136ZM136 424H120C111 424 104 431 104 440V456C104 465 111 472 120 472H136C145 472 152 465 152 456V440C152 431 145 424 136 424ZM232 424H216C207 424 200 431 200 440V456C200 465 207 472 216 472H232C241 472 248 465 248 456V440C248 431 241 424 232 424ZM136 232H120C111 232 104 239 104 248V264C104 273 111 280 120 280H136C145 280 152 273 152 264V248C152 239 145 232 136 232ZM232 328H216C207 328 200 335 200 344V360C200 369 207 376 216 376H232C241 376 248 369 248 360V344C248 335 241 328 232 328ZM424 136H408C399 136 392 143 392 152V168C392 177 399 184 408 184H424C433 184 440 177 440 168V152C440 143 433 136 424 136ZM328 232H312C303 232 296 239 296 248V264C296 273 303 280 312 280H328C337 280 344 273 344 264V248C344 239 337 232 328 232ZM424 232H408C399 232 392 239 392 248V264C392 273 399 280 408 280H424C433 280 440 273 440 264V248C440 239 433 232 424 232ZM424 328H408C399 328 392 335 392 344V360C392 369 399 376 408 376H424C433 376 440 369 440 360V344C440 335 433 328 424 328ZM424 424H408C399 424 392 431 392 440V456C392 465 399 472 408 472H424C433 472 440 465 440 456V440C440 431 433 424 424 424ZM432 32H64C29 32 0 61 0 96V464C0 473 7 480 16 480H32C41 480 48 473 48 464V96C48 87 55 80 64 80H432C441 80 448 73 448 64V48C448 39 441 32 432 32Z"/></svg>