<svg xmlns="http://www.w3.org/2000/svg" viewBox="0 0 512 512"><!-- Font Awesome Pro 6.0.0-alpha1 by @fontawesome - https://fontawesome.com License - https://fontawesome.com/license (Commercial License) --><path d="M146 287L180 253L80 153C114 129 154 116 197 116C231 116 264 124 293 140L328 105C289 81 244 68 197 68C142 68 89 86 46 119L39 112C32 106 22 106 16 112L5 123C-2 129 -2 140 5 146L146 287ZM493 0L365 26C352 28 348 44 357 52L391 87L140 337L91 321C89 320 78 317 70 326L6 389C-5 400 0 418 14 423L70 442L88 497C91 506 99 511 108 511C113 511 118 509 122 505L186 442C191 436 193 428 191 421L174 371L425 121L459 155C468 164 483 159 486 147L512 19C514 7 504 -2 493 0ZM116 455L101 410L56 395L89 362L134 377L149 422L116 455ZM456 95L417 56L465 47L456 95ZM407 184L372 219C388 248 397 281 397 315C397 358 384 398 359 432L259 332L225 366L367 507C373 514 383 514 389 507L401 496C407 490 407 480 401 473L393 466C427 423 445 371 445 315C445 268 432 223 407 184Z"/></svg>