<svg xmlns="http://www.w3.org/2000/svg" viewBox="0 0 576 512"><!-- Font Awesome Pro 6.0.0-alpha1 by @fontawesome - https://fontawesome.com License - https://fontawesome.com/license (Commercial License) --><path d="M123 224C108 224 96 236 96 251C96 265 108 277 123 277C137 277 149 265 149 251C149 236 137 224 123 224ZM197 267C183 267 171 279 171 293S183 320 197 320C212 320 224 308 224 293S212 267 197 267ZM197 179C183 179 171 191 171 205S183 232 197 232C212 232 224 220 224 205S212 179 197 179ZM550 258C539 232 529 208 529 186C529 179 532 171 536 161C542 144 549 124 549 95C549 33 506 0 464 0H464C422 0 379 33 379 95C379 124 386 144 392 161C396 171 399 179 399 186C399 194 397 203 394 212C360 143 290 96 208 96C93 96 0 189 0 304S93 512 208 512C273 512 330 483 368 437C374 453 381 467 387 478C397 499 417 512 440 512H488C511 512 531 499 541 479C555 450 576 407 576 354C576 320 563 288 550 258ZM208 464C120 464 48 392 48 304S120 144 208 144S368 216 368 304S296 464 208 464ZM464 48H464C483 48 501 63 501 95C501 115 496 130 491 145C489 150 487 155 486 160H442C441 155 439 150 437 145C432 130 427 115 427 95C427 63 445 48 464 48ZM498 458C496 462 492 464 488 464H440C436 464 432 462 430 457C419 435 407 409 402 378C411 355 416 330 416 304C416 300 416 296 415 293C418 287 420 282 422 276C431 254 441 231 445 208H483C487 231 497 254 506 276C517 303 528 329 528 354C528 396 512 430 498 458Z"/></svg>