<svg xmlns="http://www.w3.org/2000/svg" viewBox="0 0 512 512"><!-- Font Awesome Pro 6.0.0-alpha1 by @fontawesome - https://fontawesome.com License - https://fontawesome.com/license (Commercial License) --><path d="M256 16C123 16 16 123 16 256S123 496 256 496S496 389 496 256S389 16 256 16ZM256 448C150 448 64 362 64 256S150 64 256 64S448 150 448 256S362 448 256 448ZM272 208C272 226 258 240 240 240S208 226 208 208S222 176 240 176S272 190 272 208ZM272 112C272 130 258 144 240 144S208 130 208 112S222 80 240 80S272 94 272 112ZM176 176C176 194 162 208 144 208S112 194 112 176S126 144 144 144S176 158 176 176Z"/></svg>