<svg xmlns="http://www.w3.org/2000/svg" viewBox="0 0 448 512"><!-- Font Awesome Pro 6.0.0-alpha1 by @fontawesome - https://fontawesome.com License - https://fontawesome.com/license (Commercial License) --><path d="M143 325C122 305 123 270 147 251C170 232 201 241 217 256L224 263L231 256C247 240 278 232 301 251C325 270 326 305 305 325L233 397C228 401 220 401 216 397L143 325ZM448 177V416C448 451 419 480 384 480H64C29 480 0 451 0 416V177C0 166 3 155 8 145L54 65C65 44 86 32 109 32H339C362 32 383 44 394 65L440 145C445 155 448 166 448 177ZM247 159H392L352 88C350 83 344 80 339 80H247V159ZM56 159H199V80H109C104 80 98 83 95 88L56 159ZM400 207H48V416C48 425 55 432 64 432H384C393 432 400 425 400 416V207Z"/></svg>