<svg xmlns="http://www.w3.org/2000/svg" viewBox="0 0 640 512"><!-- Font Awesome Pro 6.0.0-alpha1 by @fontawesome - https://fontawesome.com License - https://fontawesome.com/license (Commercial License) --><path d="M498 274L424 348L398 322C390 314 378 314 370 322S362 342 370 350L410 390C414 394 419 396 424 396S434 394 438 390L526 302C534 294 534 282 526 274S506 266 498 274ZM448 128C342 128 256 214 256 320S342 512 448 512S640 426 640 320S554 128 448 128ZM448 464C369 464 304 399 304 320S369 176 448 176S592 241 592 320S527 464 448 464ZM64 432C55 432 48 425 48 416V207H255C265 189 278 173 293 159H247V80H339C344 80 350 83 353 88L366 112C381 106 397 101 414 99L394 65C383 44 362 32 339 32H109C86 32 65 44 54 65L8 145C3 155 0 166 0 177V416C0 451 29 480 64 480H291C277 466 264 450 254 432H64ZM95 88C98 83 104 80 109 80H199V159H56L95 88Z"/></svg>