<svg xmlns="http://www.w3.org/2000/svg" viewBox="0 0 576 512"><!-- Font Awesome Pro 6.0.0-alpha1 by @fontawesome - https://fontawesome.com License - https://fontawesome.com/license (Commercial License) --><path d="M520 160H480V208H520C524 208 528 212 528 216V320H48V216C48 212 52 208 56 208H96V160H56C25 160 0 185 0 216V456C0 487 25 512 56 512H520C551 512 576 487 576 456V216C576 185 551 160 520 160ZM528 456C528 460 524 464 520 464H56C52 464 48 460 48 456V368H528V456ZM160 256H416C434 256 448 242 448 224V32C448 14 434 0 416 0H160C142 0 128 14 128 32V224C128 242 142 256 160 256ZM176 48H400V208H176V48Z"/></svg>