<svg xmlns="http://www.w3.org/2000/svg" viewBox="0 0 512 512"><!-- Font Awesome Pro 6.0.0-alpha1 by @fontawesome - https://fontawesome.com License - https://fontawesome.com/license (Commercial License) --><path d="M133 320H379C389 320 398 313 402 303L463 111C465 104 464 96 459 90C455 84 448 80 440 80H335C316 80 300 68 294 51C286 28 265 0 208 0H72C65 0 58 3 53 9C49 15 47 22 49 29L110 301C112 312 122 320 133 320ZM208 48C242 48 247 61 249 66C261 103 296 128 335 128H407L361 272H153L102 48H208ZM460 224L445 272H456C460 272 464 276 464 280V368H48V280C48 276 52 272 56 272H71L60 224H56C25 224 0 249 0 280V456C0 487 25 512 56 512H456C487 512 512 487 512 456V280C512 251 489 227 460 224ZM464 456C464 460 460 464 456 464H56C52 464 48 460 48 456V416H464V456Z"/></svg>