<svg xmlns="http://www.w3.org/2000/svg" viewBox="0 0 512 512"><!-- Font Awesome Pro 6.0.0-alpha1 by @fontawesome - https://fontawesome.com License - https://fontawesome.com/license (Commercial License) --><path d="M464 32H48C22 32 0 54 0 80V144C0 162 14 176 32 176H32V416C32 451 61 480 96 480H416C451 480 480 451 480 416V176H480C498 176 512 162 512 144V80C512 54 490 32 464 32ZM416 432H96C87 432 80 425 80 416V176H432V416C432 425 425 432 416 432ZM464 128H48V80H464V128ZM184 272H328C341 272 352 261 352 248V248C352 235 341 224 328 224H184C171 224 160 235 160 248V248C160 261 171 272 184 272Z"/></svg>