<svg xmlns="http://www.w3.org/2000/svg" viewBox="0 0 576 512"><!-- Font Awesome Pro 6.0.0-alpha1 by @fontawesome - https://fontawesome.com License - https://fontawesome.com/license (Commercial License) --><path d="M208 224H368C394 224 416 202 416 176V48C416 22 394 0 368 0H208C182 0 160 22 160 48V176C160 202 182 224 208 224ZM208 48H256V112L288 96L320 112V48H368V176H208V48ZM208 288H48C22 288 0 310 0 336V464C0 490 22 512 48 512H208C234 512 256 490 256 464V336C256 310 234 288 208 288ZM208 464H48V336H96V400L128 384L160 400V336H208V464ZM528 288H368C342 288 320 310 320 336V464C320 490 342 512 368 512H528C554 512 576 490 576 464V336C576 310 554 288 528 288ZM528 464H368V336H416V400L448 384L480 400V336H528V464Z"/></svg>