<svg xmlns="http://www.w3.org/2000/svg" viewBox="0 0 512 512"><!-- Font Awesome Pro 6.0.0-alpha1 by @fontawesome - https://fontawesome.com License - https://fontawesome.com/license (Commercial License) --><path d="M512 296C512 268 502 243 485 223C487 216 488 208 488 200C488 168 472 139 447 121C443 93 425 68 401 53C387 22 356 0 320 0C295 0 272 11 256 28C240 11 217 0 192 0C156 0 125 22 111 53C87 68 69 93 65 121C40 139 24 168 24 200C24 208 25 216 27 223C10 243 0 269 0 296C0 326 12 354 32 374C32 375 32 375 32 376C32 423 66 462 111 471C127 496 156 512 188 512C215 512 239 500 256 482C273 500 297 512 324 512C356 512 385 496 401 470C446 462 480 423 480 376C480 375 480 375 480 374C500 354 512 326 512 296ZM232 420C232 444 212 464 188 464C164 464 145 445 144 421C139 423 134 424 128 424C102 424 80 403 80 376C80 368 82 361 86 354C63 344 48 322 48 296C48 269 65 246 89 236C79 228 72 215 72 200C72 175 91 155 115 152C113 147 112 142 112 136C112 112 129 93 152 89C152 89 152 88 152 88C152 66 170 48 192 48S232 66 232 88V420ZM426 354C430 361 432 368 432 376C432 403 410 424 384 424C378 424 373 423 368 421C367 445 348 464 324 464C300 464 280 444 280 420V88C280 66 298 48 320 48S360 66 360 88C360 88 360 89 360 89C383 93 400 112 400 136C400 142 399 147 397 152C421 155 440 175 440 200C440 215 433 228 423 236C447 246 464 269 464 296C464 322 449 344 426 354Z"/></svg>