<svg xmlns="http://www.w3.org/2000/svg" viewBox="0 0 640 512"><!-- Font Awesome Pro 6.0.0-alpha1 by @fontawesome - https://fontawesome.com License - https://fontawesome.com/license (Commercial License) --><path d="M635 340L539 245C529 235 512 242 512 257V304H432C426 304 421 304 415 305C368 312 329 349 322 396C314 443 335 486 370 509C380 516 392 506 388 495C379 468 382 400 448 400H512V447C512 462 529 469 539 459L635 364C642 358 642 346 635 340ZM290 391C291 383 293 375 296 368V82C296 63 311 48 330 48C346 48 359 58 363 74L368 92L391 91C407 91 423 107 423 125C423 130 422 131 417 153L436 160C450 166 479 190 461 226L451 246L471 257C474 259 477 262 480 264V257C480 235 494 216 514 210C514 208 515 207 515 205C515 172 498 142 471 124C470 85 441 52 403 45C390 18 362 0 330 0C307 0 287 9 272 24C256 9 236 0 214 0C182 0 154 18 140 45C102 52 73 85 73 125C46 142 29 172 29 205C29 213 30 221 32 228C12 246 0 272 0 299C0 332 17 362 44 380C44 428 82 466 129 468C145 495 174 512 206 512C232 512 255 501 272 483C285 498 303 507 324 511C296 478 283 435 290 391ZM248 423C248 446 229 464 206 464C173 464 167 434 161 416L140 420C116 424 92 404 92 379C92 376 97 352 97 352L78 344C42 329 37 278 73 258L92 247L83 226C65 191 94 166 108 160L127 153C122 131 121 130 121 126C121 107 136 92 153 91L176 93L181 74C185 59 198 48 214 48C232 48 248 63 248 82V423H248Z"/></svg>