<svg xmlns="http://www.w3.org/2000/svg" viewBox="0 0 640 512"><!-- Font Awesome Pro 6.0.0-alpha1 by @fontawesome - https://fontawesome.com License - https://fontawesome.com/license (Commercial License) --><path d="M320 288C333 288 344 277 344 264V152C344 139 333 128 320 128S296 139 296 152V264C296 277 307 288 320 288ZM320 320C302 320 288 334 288 352C288 370 302 384 320 384S352 370 352 352C352 334 338 320 320 320ZM320 32C196 32 96 132 96 256C96 380 196 480 320 480C444 480 544 380 544 256C544 132 444 32 320 32ZM320 432C223 432 144 353 144 256S223 80 320 80S496 159 496 256S417 432 320 432ZM84 76C73 69 58 72 51 83C18 135 0 194 0 256S18 377 51 429C55 436 63 440 71 440C75 440 80 439 84 436C95 429 98 414 91 403C63 359 48 308 48 256S63 153 91 109C98 98 95 83 84 76ZM589 83C582 72 567 69 556 76C545 83 542 98 549 109C577 153 592 204 592 256S577 359 549 403C542 414 545 429 556 436C560 439 565 440 569 440C577 440 585 436 589 429C622 377 640 318 640 256S622 135 589 83Z"/></svg>