<svg xmlns="http://www.w3.org/2000/svg" viewBox="0 0 640 512"><!-- Font Awesome Pro 6.0.0-alpha1 by @fontawesome - https://fontawesome.com License - https://fontawesome.com/license (Commercial License) --><path d="M496 224C416 224 352 288 352 368S416 512 496 512S640 448 640 368S576 224 496 224ZM544 384H496C487 384 480 377 480 368V304C480 295 487 288 496 288S512 295 512 304V352H544C553 352 560 359 560 368S553 384 544 384ZM64 432C55 432 48 425 48 416V304H192V320C192 338 206 352 224 352H288C306 352 320 338 320 320V304H332C339 286 348 270 360 256H48V160C48 151 55 144 64 144H448C457 144 464 151 464 160V195C474 193 485 192 496 192C501 192 507 192 512 193V160C512 125 483 96 448 96H384V64C384 29 355 0 320 0H192C157 0 128 29 128 64V96H64C29 96 0 125 0 160V416C0 451 29 480 64 480H360C348 466 339 450 332 432H64ZM176 64C176 55 183 48 192 48H320C329 48 336 55 336 64V96H176V64Z"/></svg>