<svg xmlns="http://www.w3.org/2000/svg" viewBox="0 0 640 512"><!-- Font Awesome Pro 6.0.0-alpha1 by @fontawesome - https://fontawesome.com License - https://fontawesome.com/license (Commercial License) --><path d="M635 9C627 -1 612 -3 601 5L368 187L329 138C324 132 315 132 310 138L252 211C221 212 148 218 100 256C38 305 0 511 0 511C15 512 212 519 272 471C320 433 342 364 350 334L434 294C441 291 443 282 439 276L398 225L631 43C641 35 643 20 635 9ZM242 434C226 447 168 462 59 464C64 445 70 426 75 407L121 371C126 368 122 360 116 361L89 366C103 331 117 303 130 293C157 272 201 262 240 260L300 335C290 366 272 410 242 434ZM366 273L330 290L290 240L315 209C317 206 322 206 324 209L368 264C370 267 369 272 366 273Z"/></svg>