<svg xmlns="http://www.w3.org/2000/svg" viewBox="0 0 576 512"><!-- Font Awesome Pro 6.0.0-alpha1 by @fontawesome - https://fontawesome.com License - https://fontawesome.com/license (Commercial License) --><path d="M512 0H160C125 0 96 29 96 64V352C96 387 125 416 160 416H512C547 416 576 387 576 352V64C576 29 547 0 512 0ZM528 352C528 361 521 368 512 368H160C151 368 144 361 144 352V128H528V352ZM48 432V96C22 96 0 118 0 144V448C0 483 29 512 64 512H432C458 512 480 490 480 464H80C62 464 48 450 48 432Z"/></svg>