<svg xmlns="http://www.w3.org/2000/svg" viewBox="0 0 448 512"><!-- Font Awesome Pro 6.0.0-alpha1 by @fontawesome - https://fontawesome.com License - https://fontawesome.com/license (Commercial License) --><path d="M128 148V108C128 101 133 96 140 96H180C187 96 192 101 192 108V148C192 155 187 160 180 160H140C133 160 128 155 128 148ZM268 160H308C315 160 320 155 320 148V108C320 101 315 96 308 96H268C261 96 256 101 256 108V148C256 155 261 160 268 160ZM140 256H180C187 256 192 251 192 244V204C192 197 187 192 180 192H140C133 192 128 197 128 204V244C128 251 133 256 140 256ZM268 256H308C315 256 320 251 320 244V204C320 197 315 192 308 192H268C261 192 256 197 256 204V244C256 251 261 256 268 256ZM192 340V300C192 293 187 288 180 288H140C133 288 128 293 128 300V340C128 347 133 352 140 352H180C187 352 192 347 192 340ZM268 352H308C315 352 320 347 320 340V300C320 293 315 288 308 288H268C261 288 256 293 256 300V340C256 347 261 352 268 352ZM448 488L448 488C448 501 437 512 424 512H24C11 512 0 501 0 488V488C0 475 11 464 24 464H31V32C31 14 46 0 63 0H384C402 0 416 14 416 32V464H424C437 464 448 475 448 488ZM79 463L176 464L176 400C176 391 183 384 192 384H256C265 384 272 390 272 399L272 464H368L369 49L80 48L79 463Z"/></svg>