<svg xmlns="http://www.w3.org/2000/svg" viewBox="0 0 512 512"><!-- Font Awesome Pro 6.0.0-alpha1 by @fontawesome - https://fontawesome.com License - https://fontawesome.com/license (Commercial License) --><path d="M480 185V32C480 23 473 0 448 0C441 0 434 2 428 7L343 75C300 109 247 128 192 128H64C29 128 0 157 0 192V288C0 323 29 352 64 352H82C71 430 116 495 118 498C125 507 134 512 143 512H192C205 512 217 503 222 489C227 475 224 459 215 448C214 448 174 399 186 352H192C247 352 300 371 343 405L428 473C433 477 442 480 448 480C473 480 480 457 480 448V295C499 284 512 264 512 240S499 196 480 185ZM64 304C55 304 48 297 48 288V192C48 183 55 176 64 176H192V304H64ZM432 415L373 367C334 337 288 316 240 308V172C288 164 334 143 373 113L432 65V415Z"/></svg>