<svg xmlns="http://www.w3.org/2000/svg" viewBox="0 0 512 512"><!-- Font Awesome Pro 6.0.0-alpha1 by @fontawesome - https://fontawesome.com License - https://fontawesome.com/license (Commercial License) --><path d="M268 245C264 241 258 239 252 241L28 305C21 306 17 312 16 319C16 326 20 332 26 335L101 367L16 451C4 463 4 484 16 496H16C29 509 49 509 62 496L146 412L178 486C180 492 186 496 192 496C193 496 193 496 193 496C200 496 206 491 208 484L272 260C273 255 272 249 268 245ZM256 16C124 16 16 123 16 256C16 262 17 269 17 275C18 274 19 274 19 274L65 261C65 259 64 258 64 256C64 150 150 64 256 64S448 150 448 256S363 448 256 448C255 448 253 448 252 448L239 493C238 494 238 494 238 495C244 496 250 496 256 496C389 496 496 389 496 256C496 123 389 16 256 16ZM280 349L265 399C341 394 400 332 400 256C400 176 336 112 256 112C180 112 118 172 113 247L164 233C174 191 212 160 256 160C309 160 352 203 352 256C352 301 321 338 280 349Z"/></svg>