<svg xmlns="http://www.w3.org/2000/svg" viewBox="0 0 512 512"><!-- Font Awesome Pro 6.0.0-alpha1 by @fontawesome - https://fontawesome.com License - https://fontawesome.com/license (Commercial License) --><path d="M256 112C176 112 112 176 112 256S176 400 256 400S400 336 400 256S336 112 256 112ZM256 352C203 352 160 309 160 256S203 160 256 160S352 203 352 256S309 352 256 352ZM256 16C123 16 16 123 16 256C16 389 123 496 256 496S496 389 496 256C496 123 389 16 256 16ZM256 448C150 448 64 362 64 256S150 64 256 64S448 150 448 256S362 448 256 448ZM256 208C230 208 208 230 208 256S230 304 256 304S304 282 304 256S282 208 256 208Z"/></svg>