<svg xmlns="http://www.w3.org/2000/svg" viewBox="0 0 640 512"><!-- Font Awesome Pro 6.0.0-alpha1 by @fontawesome - https://fontawesome.com License - https://fontawesome.com/license (Commercial License) --><path d="M110 464L82 176H328C341 176 352 165 352 152C352 139 341 128 328 128H207L227 48H264C277 48 288 37 288 24C288 11 277 0 264 0H221C202 0 186 12 182 30L157 128H24C11 128 0 139 0 152C0 165 11 176 24 176H34L64 482C65 499 79 512 96 512H268C255 499 244 482 238 464H110ZM528 312C537 312 544 305 544 296S537 280 528 280S512 287 512 296S519 312 528 312ZM448 296C457 296 464 289 464 280S457 264 448 264S432 271 432 280S439 296 448 296ZM368 312C377 312 384 305 384 296S377 280 368 280S352 287 352 296S359 312 368 312ZM640 376C640 363 634 352 624 345C636 321 634 292 619 270C586 223 518 192 448 192S311 223 277 270C262 292 260 321 272 345C262 352 256 363 256 376C256 387 261 398 269 405C266 412 264 420 264 428C264 474 302 512 348 512H548C594 512 632 474 632 428C632 420 630 412 627 405C635 398 640 387 640 376ZM317 298C339 266 389 240 448 240S557 266 580 298C585 305 585 315 581 323S569 336 560 336H336C327 336 319 331 315 323S311 305 317 298ZM548 464H348C328 464 312 448 312 428C312 421 317 416 324 416H572C579 416 584 421 584 428C584 448 568 464 548 464Z"/></svg>