<svg xmlns="http://www.w3.org/2000/svg" viewBox="0 0 640 512"><!-- Font Awesome Pro 6.0.0-alpha1 by @fontawesome - https://fontawesome.com License - https://fontawesome.com/license (Commercial License) --><path d="M98 464L65 314C97 338 142 352 192 352C205 352 218 351 230 349C232 345 233 341 235 338C232 325 232 312 233 300C220 302 206 304 192 304C127 304 74 274 65 235C64 228 57 224 50 224H16C11 224 6 226 3 230S-1 239 0 243L54 487C58 502 71 512 86 512H268C255 499 244 482 238 464H98ZM128 258V33L124 13C123 8 119 3 114 1C109 -1 103 0 99 3L70 25C65 28 63 35 64 41L101 238C106 245 116 253 128 258ZM50 192C54 192 57 193 60 194L40 87L21 81C15 79 9 80 5 84C1 88 -1 93 0 99L17 192H50ZM224 269V32C224 26 221 20 215 18L183 2C178 -1 172 -1 168 2C163 5 160 10 160 16V269C181 273 203 273 224 269ZM384 99C385 93 383 88 379 84C374 80 369 79 363 81L346 86L328 188C342 181 356 176 371 171L384 99ZM292 211L320 51C321 45 319 40 315 36C310 32 305 31 299 33L265 43C261 44 258 47 256 51V246C266 233 278 221 292 211ZM448 296C457 296 464 289 464 280S457 264 448 264S432 271 432 280S439 296 448 296ZM528 312C537 312 544 305 544 296S537 280 528 280S512 287 512 296S519 312 528 312ZM368 312C377 312 384 305 384 296S377 280 368 280S352 287 352 296S359 312 368 312ZM640 376C640 363 633 352 624 345C636 321 634 292 619 270C585 223 518 192 448 192C378 192 311 223 277 270C262 292 260 321 272 345C262 352 256 363 256 376C256 387 261 398 269 405C266 412 264 420 264 428C264 474 302 512 348 512H548C594 512 632 474 632 428C632 420 630 412 627 405C635 398 640 387 640 376ZM317 298C339 266 389 240 448 240C507 240 557 266 580 298C585 305 585 315 581 323S569 336 560 336H336C327 336 319 331 315 323S311 305 317 298ZM548 464H348C328 464 312 448 312 428C312 421 317 416 324 416H572C579 416 584 421 584 428C584 448 568 464 548 464Z"/></svg>