<svg xmlns="http://www.w3.org/2000/svg" viewBox="0 0 512 512"><!-- Font Awesome Pro 6.0.0-alpha1 by @fontawesome - https://fontawesome.com License - https://fontawesome.com/license (Commercial License) --><path d="M512 123C512 91 491 62 460 52C453 32 439 15 419 7C400 -2 377 -2 358 7C317 -11 270 8 252 48L34 267C-11 312 -11 385 34 431L81 478C127 523 200 523 245 478L464 260C504 242 523 195 505 154C510 144 512 134 512 123ZM163 464C145 464 128 457 115 444L68 397C60 388 54 378 51 367C71 373 91 376 112 376C204 376 283 318 314 237C347 229 381 232 412 243L212 444C199 457 182 464 163 464ZM268 100C276 119 280 139 280 160C280 253 205 328 112 328C93 328 74 325 55 318C59 312 63 306 68 300L268 100Z"/></svg>