<svg xmlns="http://www.w3.org/2000/svg" viewBox="0 0 576 512"><!-- Font Awesome Pro 6.0.0-alpha1 by @fontawesome - https://fontawesome.com License - https://fontawesome.com/license (Commercial License) --><path d="M176 304C158 304 144 318 144 336S158 368 176 368S208 354 208 336S194 304 176 304ZM528 232V152C528 139 517 128 504 128H496V80C496 35 404 0 288 0S80 35 80 80V128H72C59 128 48 139 48 152V232C48 245 59 256 72 256C77 256 48 275 48 320V384C48 414 68 439 96 446V480C96 498 110 512 128 512S160 498 160 480V448H416V480C416 498 430 512 448 512S480 498 480 480V446C508 439 528 414 528 384V320C528 273 498 256 504 256C517 256 528 245 528 232ZM128 84C140 71 197 48 288 48S436 71 448 84V112H368C368 94 354 80 336 80H240C222 80 208 94 208 112H128V84ZM448 160V224H304V160H448ZM128 160H272V224H128V160ZM480 384C480 393 473 400 464 400H112C103 400 96 393 96 384V320C96 294 118 272 144 272H432C458 272 480 294 480 320V384ZM400 304C382 304 368 318 368 336S382 368 400 368S432 354 432 336S418 304 400 304Z"/></svg>