<svg xmlns="http://www.w3.org/2000/svg" viewBox="0 0 384 512"><!-- Font Awesome Pro 6.0.0-alpha1 by @fontawesome - https://fontawesome.com License - https://fontawesome.com/license (Commercial License) --><path d="M219 480C161 480 105 457 64 414C-21 327 -21 185 64 98C105 55 161 32 219 32S333 55 375 98C387 111 387 131 374 143C362 155 341 155 329 143C300 113 261 96 219 96S139 113 110 143C49 205 49 307 110 369C139 399 178 416 219 416S300 399 329 369C341 357 362 357 374 369C387 381 387 401 375 414C333 457 278 480 219 480Z"/></svg>