<svg xmlns="http://www.w3.org/2000/svg" viewBox="0 0 448 512"><!-- Font Awesome Pro 6.0.0-alpha1 by @fontawesome - https://fontawesome.com License - https://fontawesome.com/license (Commercial License) --><path d="M384 224H376V168C376 155 365 144 352 144S328 155 328 168V224H248V168C248 155 237 144 224 144S200 155 200 168V224H120V168C120 155 109 144 96 144S72 155 72 168V224H64C29 224 0 253 0 288V480C0 498 14 512 32 512H416C434 512 448 498 448 480V288C448 253 419 224 384 224ZM400 464H48V392C66 390 82 382 96 374C113 385 136 395 160 395S207 385 224 374C241 385 264 395 288 395S335 385 352 374C365 382 382 390 400 393V464ZM400 344C387 339 374 331 367 325C358 318 346 318 337 325C327 333 307 347 288 347S249 333 239 325C230 318 218 318 209 325C199 333 179 347 160 347S121 333 111 325C102 318 90 318 81 325C74 331 61 339 48 344V288C48 279 55 272 64 272H384C393 272 400 279 400 288V344ZM352 112C374 112 392 94 392 72S352 0 352 0S312 50 312 72S330 112 352 112ZM224 112C246 112 264 94 264 72S224 0 224 0S184 50 184 72S202 112 224 112ZM96 112C118 112 136 94 136 72S96 0 96 0S56 50 56 72S74 112 96 112Z"/></svg>