<svg xmlns="http://www.w3.org/2000/svg" viewBox="0 0 384 512"><!-- Font Awesome Pro 6.0.0-alpha1 by @fontawesome - https://fontawesome.com License - https://fontawesome.com/license (Commercial License) --><path d="M192 344C205 344 216 333 216 320S205 296 192 296S168 307 168 320S179 344 192 344ZM192 256C205 256 216 245 216 232S205 208 192 208S168 219 168 232S179 256 192 256ZM280 344C293 344 304 333 304 320S293 296 280 296S256 307 256 320S267 344 280 344ZM280 256C293 256 304 245 304 232S293 208 280 208S256 219 256 232S267 256 280 256ZM280 432C293 432 304 421 304 408S293 384 280 384S256 395 256 408S267 432 280 432ZM104 432H184C197 432 208 421 208 408S197 384 184 384H104C91 384 80 395 80 408S91 432 104 432ZM320 0H64C29 0 0 29 0 64V448C0 483 29 512 64 512H320C355 512 384 483 384 448V64C384 29 355 0 320 0ZM336 448C336 457 329 464 320 464H64C55 464 48 457 48 448V176H336V448ZM336 128H48V64C48 55 55 48 64 48H320C329 48 336 55 336 64V128ZM104 256C117 256 128 245 128 232S117 208 104 208S80 219 80 232S91 256 104 256ZM104 344C117 344 128 333 128 320S117 296 104 296S80 307 80 320S91 344 104 344Z"/></svg>