<svg xmlns="http://www.w3.org/2000/svg" viewBox="0 0 448 512"><!-- Font Awesome Pro 6.0.0-alpha1 by @fontawesome - https://fontawesome.com License - https://fontawesome.com/license (Commercial License) --><path d="M296 296L248 248L267 229C274 222 285 222 292 229L315 252C322 259 322 270 315 277L296 296ZM135 416L183 406C185 406 187 405 189 403L280 313L232 265L141 355C139 357 138 359 138 361L128 409C127 413 131 417 135 416ZM448 128V448C448 483 419 512 384 512H64C29 512 0 483 0 448V128C0 93 29 64 64 64H104V24C104 11 115 0 128 0S152 11 152 24V64H296V24C296 11 307 0 320 0S344 11 344 24V64H384C419 64 448 93 448 128ZM400 192H48V448C48 457 55 464 64 464H384C393 464 400 457 400 448V192Z"/></svg>