<svg xmlns="http://www.w3.org/2000/svg" viewBox="0 0 512 512"><!-- Font Awesome Pro 6.0.0-alpha1 by @fontawesome - https://fontawesome.com License - https://fontawesome.com/license (Commercial License) --><path d="M48 432V160C22 160 0 182 0 208V448C0 483 29 512 64 512H368C394 512 416 490 416 464H80C62 464 48 450 48 432ZM448 64H408V24C408 11 397 0 384 0S360 11 360 24V64H248V24C248 11 237 0 224 0S200 11 200 24V64H160C125 64 96 93 96 128V352C96 387 125 416 160 416H448C483 416 512 387 512 352V128C512 93 483 64 448 64ZM464 352C464 361 457 368 448 368H160C151 368 144 361 144 352V192H464V352Z"/></svg>