<svg xmlns="http://www.w3.org/2000/svg" viewBox="0 0 448 512"><!-- Font Awesome Pro 6.0.0-alpha1 by @fontawesome - https://fontawesome.com License - https://fontawesome.com/license (Commercial License) --><path d="M224 432C242 432 256 418 256 400S242 368 224 368C206 368 192 382 192 400S206 432 224 432ZM224 336C237 336 248 325 248 312V248C248 235 237 224 224 224S200 235 200 248V312C200 325 211 336 224 336ZM384 64H344V24C344 11 333 0 320 0S296 11 296 24V64H152V24C152 11 141 0 128 0S104 11 104 24V64H64C29 64 0 93 0 128V448C0 483 29 512 64 512H384C419 512 448 483 448 448V128C448 93 419 64 384 64ZM400 448C400 457 393 464 384 464H64C55 464 48 457 48 448V192H400V448Z"/></svg>