<svg xmlns="http://www.w3.org/2000/svg" viewBox="0 0 448 512"><!-- Font Awesome Pro 6.0.0-alpha1 by @fontawesome - https://fontawesome.com License - https://fontawesome.com/license (Commercial License) --><path d="M156 396C166 405 181 405 190 396L224 362L258 396C267 405 283 405 292 396C301 387 301 371 292 362L258 328L292 294C301 285 301 269 292 260S267 251 258 260L224 294L190 260C181 251 165 251 156 260S147 285 156 294L190 328L156 362C147 371 147 386 156 396ZM384 64H344V24C344 11 333 0 320 0S296 11 296 24V64H152V24C152 11 141 0 128 0S104 11 104 24V64H64C29 64 0 93 0 128V448C0 483 29 512 64 512H384C419 512 448 483 448 448V128C448 93 419 64 384 64ZM400 448C400 457 393 464 384 464H64C55 464 48 457 48 448V192H400V448Z"/></svg>