<svg xmlns="http://www.w3.org/2000/svg" viewBox="0 0 448 512"><!-- Font Awesome Pro 6.0.0-alpha1 by @fontawesome - https://fontawesome.com License - https://fontawesome.com/license (Commercial License) --><path d="M183 409C188 413 194 416 200 416C200 416 201 416 201 416C208 416 214 413 218 408L314 296C323 286 322 270 312 262C302 253 286 254 278 264L199 357L169 327C160 318 144 318 135 327S126 352 135 361L183 409ZM384 64H344V24C344 11 333 0 320 0S296 11 296 24V64H152V24C152 11 141 0 128 0S104 11 104 24V64H64C29 64 0 93 0 128V448C0 483 29 512 64 512H384C419 512 448 483 448 448V128C448 93 419 64 384 64ZM400 448C400 457 393 464 384 464H64C55 464 48 457 48 448V192H400V448Z"/></svg>