<svg xmlns="http://www.w3.org/2000/svg" viewBox="0 0 448 512"><!-- Font Awesome Pro 6.0.0-alpha1 by @fontawesome - https://fontawesome.com License - https://fontawesome.com/license (Commercial License) --><path d="M216 312H328C341 312 352 301 352 288V288C352 275 341 264 328 264H216C203 264 192 275 192 288C192 301 203 312 216 312ZM341 352H299C293 352 288 357 288 363V405C288 411 293 416 299 416H341C347 416 352 411 352 405V363C352 357 347 352 341 352ZM107 320H149C155 320 160 315 160 309V267C160 261 155 256 149 256H107C101 256 96 261 96 267V309C96 315 101 320 107 320ZM384 64H344V24C344 11 333 0 320 0S296 11 296 24V64H152V24C152 11 141 0 128 0S104 11 104 24V64H64C29 64 0 93 0 128V448C0 483 29 512 64 512H384C419 512 448 483 448 448V128C448 93 419 64 384 64ZM400 448C400 457 393 464 384 464H64C55 464 48 457 48 448V192H400V448ZM120 408H232C245 408 256 397 256 384V384C256 371 245 360 232 360H120C107 360 96 371 96 384C96 397 107 408 120 408Z"/></svg>