<svg xmlns="http://www.w3.org/2000/svg" viewBox="0 0 576 512"><!-- Font Awesome Pro 6.0.0-alpha1 by @fontawesome - https://fontawesome.com License - https://fontawesome.com/license (Commercial License) --><path d="M312 240H104C91 240 80 251 80 264S91 288 104 288H312C325 288 336 277 336 264S325 240 312 240ZM558 182C546 175 532 174 519 180L416 227V224C416 189 387 160 352 160H96V120C96 98 114 80 136 80H296C309 80 320 69 320 56S309 32 296 32H136C87 32 48 71 48 120V162C20 169 0 194 0 224V416C0 451 29 480 64 480H352C387 480 416 451 416 416V413L519 460C525 463 530 464 536 464C544 464 551 462 558 458C569 450 576 438 576 424V216C576 202 569 190 558 182ZM368 416C368 425 361 432 352 432H64C55 432 48 425 48 416V224C48 215 55 208 64 208H352C361 208 368 215 368 224V416ZM528 412L416 360V280L528 228V412Z"/></svg>