<svg xmlns="http://www.w3.org/2000/svg" viewBox="0 0 512 512"><!-- Font Awesome Pro 6.0.0-alpha1 by @fontawesome - https://fontawesome.com License - https://fontawesome.com/license (Commercial License) --><path d="M112 176V352C112 370 126 384 144 384H368C386 384 400 370 400 352V176C400 158 386 144 368 144H332L326 128C322 118 313 112 303 112H209C199 112 190 118 186 128L180 144H144C126 144 112 158 112 176ZM160 192H213L225 161L225 160H287L287 161L299 192H352V336H160V192ZM136 432H48V344C48 331 37 320 24 320H24C11 320 0 331 0 344V448C0 466 14 480 32 480H136C149 480 160 469 160 456V456C160 443 149 432 136 432ZM24 192L24 192C37 192 48 181 48 168V80H136C149 80 160 69 160 56V56C160 43 149 32 136 32H32C14 32 0 46 0 64V168C0 181 11 192 24 192ZM480 32H376C363 32 352 43 352 56V56C352 69 363 80 376 80H464V168C464 181 475 192 488 192L488 192C501 192 512 181 512 168V64C512 46 498 32 480 32ZM488 320L488 320C475 320 464 331 464 344V432H376C363 432 352 443 352 456V456C352 469 363 480 376 480H480C498 480 512 466 512 448V344C512 331 501 320 488 320ZM256 224C234 224 216 242 216 264C216 286 234 304 256 304C278 304 296 286 296 264C296 242 278 224 256 224Z"/></svg>