<svg xmlns="http://www.w3.org/2000/svg" viewBox="0 0 576 512"><!-- Font Awesome Pro 6.0.0-alpha1 by @fontawesome - https://fontawesome.com License - https://fontawesome.com/license (Commercial License) --><path d="M288 128C244 128 208 164 208 208S244 288 288 288S368 252 368 208C368 164 332 128 288 128ZM288 240C270 240 256 226 256 208S270 176 288 176S320 190 320 208S306 240 288 240ZM565 336L512 256V96C512 61 483 32 448 32H128C93 32 64 61 64 96V256L11 336C4 346 0 359 0 371V416C0 451 29 480 64 480H512C547 480 576 451 576 416V371C576 359 572 346 565 336ZM112 270V96C112 87 119 80 128 80H448C457 80 464 87 464 96V270L508 336H68L112 270ZM512 432H64C55 432 48 425 48 416V384H528V416C528 425 521 432 512 432ZM424 112H392C388 112 384 116 384 120V152C384 156 388 160 392 160H424C428 160 432 156 432 152V120C432 116 428 112 424 112Z"/></svg>