<svg xmlns="http://www.w3.org/2000/svg" viewBox="0 0 512 512"><!-- Font Awesome Pro 6.0.0-alpha1 by @fontawesome - https://fontawesome.com License - https://fontawesome.com/license (Commercial License) --><path d="M448 32H271C261 32 251 34 242 39L192 64H160V48C160 39 153 32 144 32H80C71 32 64 39 64 48V64C29 64 0 93 0 128V416C0 451 29 480 64 480H448C483 480 512 451 512 416V96C512 61 483 32 448 32ZM464 416C464 425 457 432 448 432H64C55 432 48 425 48 416V240H133C130 250 128 261 128 272C128 343 185 400 256 400C327 400 384 343 384 272C384 261 382 250 379 240H464V416ZM176 272C176 228 212 192 256 192S336 228 336 272C336 316 300 352 256 352S176 316 176 272ZM464 192H355C332 163 296 144 256 144C216 144 180 163 157 192H48V128C48 119 55 112 64 112H203L272 80H448C457 80 464 87 464 96V192Z"/></svg>