<svg xmlns="http://www.w3.org/2000/svg" viewBox="0 0 576 512"><!-- Font Awesome Pro 6.0.0-alpha1 by @fontawesome - https://fontawesome.com License - https://fontawesome.com/license (Commercial License) --><path d="M563 415L319 113L379 39C387 29 385 14 375 5C365 -3 350 -1 341 9L288 75L235 9C226 -1 211 -3 201 5C191 14 189 29 197 39L257 113L13 415C5 426 0 439 0 453C0 485 27 512 59 512H517C549 512 576 485 576 453C576 439 571 426 563 415ZM186 464L288 328L390 464H186ZM517 464H450L307 274C298 262 278 262 269 274L126 464H59C53 464 48 459 48 453C48 450 49 447 51 445L288 151L525 445C527 447 528 450 528 453C528 459 523 464 517 464Z"/></svg>