<svg xmlns="http://www.w3.org/2000/svg" viewBox="0 0 640 512"><!-- Font Awesome Pro 6.0.0-alpha1 by @fontawesome - https://fontawesome.com License - https://fontawesome.com/license (Commercial License) --><path d="M480 0C314 2 315 39 322 73C352 224 416 416 480 416H480C544 416 608 224 638 72C645 39 646 2 480 0ZM480 366C468 355 451 326 432 282C464 280 496 280 528 282C509 326 492 355 480 366ZM591 63C588 79 584 95 581 110C517 102 443 102 379 110C376 95 372 79 369 63C369 62 369 62 369 61C379 57 408 49 480 48C552 49 581 57 591 61C591 62 591 62 591 63ZM85 206C-31 324 -3 350 24 369C153 454 334 545 379 500H379C424 455 334 274 248 145C229 118 203 90 85 206ZM92 355C78 347 65 338 51 329C50 329 50 328 49 328C54 318 68 292 119 240C171 189 197 175 207 170C207 171 208 171 208 172C217 186 226 199 234 213C183 252 131 304 92 355ZM318 371C336 416 345 449 343 464C328 466 295 457 250 439C271 415 294 392 318 371Z"/></svg>