<svg xmlns="http://www.w3.org/2000/svg" viewBox="0 0 448 512"><!-- Font Awesome Pro 6.0.0-alpha1 by @fontawesome - https://fontawesome.com License - https://fontawesome.com/license (Commercial License) --><path d="M372 368C348 369 327 384 315 404C301 427 302 447 308 464H272V272C272 246 250 224 224 224H96C70 224 48 246 48 272V464C43 464 29 464 24 464C11 464 0 475 0 488C0 501 11 512 24 512C24 512 294 512 373 512C408 512 440 489 447 455C456 407 418 366 372 368ZM224 464H96V272H128V328C128 341 139 352 152 352S176 341 176 328V272H224V464ZM376 464C363 464 352 453 352 440S363 416 376 416S400 427 400 440S389 464 376 464ZM160 192C206 192 238 159 238 113C238 83 205 38 160 0C114 38 82 83 82 113C82 159 114 192 160 192ZM160 66C180 88 190 106 190 113C190 124 186 144 160 144S130 124 130 113C130 106 140 88 160 66Z"/></svg>