<svg xmlns="http://www.w3.org/2000/svg" viewBox="0 0 512 512"><!-- Font Awesome Pro 6.0.0-alpha1 by @fontawesome - https://fontawesome.com License - https://fontawesome.com/license (Commercial License) --><path d="M491 327C489 326 475 318 452 311C496 247 510 184 511 181C514 168 510 155 500 145C491 136 476 133 466 135C465 135 408 147 347 186C336 98 297 32 288 17C274 -4 239 -5 223 18C215 32 176 98 166 186C106 148 50 136 47 135L39 134C29 134 19 138 11 146C2 155 -2 168 1 181C2 184 16 247 60 311C38 318 23 326 21 327C8 334 0 347 0 361C0 375 8 388 20 395C21 395 68 421 132 425C131 428 131 429 131 430C126 443 130 458 140 469C150 479 165 483 178 478C184 477 208 463 232 449V489C232 502 243 513 256 513S280 502 280 489V449C304 463 328 477 334 478C337 479 341 480 345 480C355 480 365 476 372 469C382 459 386 443 382 431C382 430 381 428 380 425C444 421 491 395 491 395C504 388 512 375 512 361C512 347 504 334 491 327ZM359 378C354 378 349 378 344 378L304 377L322 413C323 415 325 418 326 420C314 414 299 405 285 396L280 393V312C280 299 269 288 256 288S232 299 232 312V393L227 396C213 405 198 414 186 420C187 418 189 416 190 413L209 377L168 378C163 378 158 378 153 378C115 378 82 369 63 361C73 357 88 352 106 349L146 341L119 309C80 263 60 212 52 187C77 194 127 213 172 249L211 281V227C211 150 241 85 256 57C271 85 301 150 301 227V281L340 249C386 212 436 194 460 186C452 211 432 263 393 309L366 341L406 349C424 352 439 357 449 361C430 368 397 378 359 378Z"/></svg>