<svg xmlns="http://www.w3.org/2000/svg" viewBox="0 0 640 512"><!-- Font Awesome Pro 6.0.0-alpha1 by @fontawesome - https://fontawesome.com License - https://fontawesome.com/license (Commercial License) --><path d="M616 464H520L569 344C582 312 576 278 556 252L557 148C558 113 537 82 505 69L355 6C323 -7 286 1 262 26L189 101C157 105 128 125 115 157L50 313C44 328 51 346 67 353C83 359 101 352 107 336L125 294L465 434L453 464H24C11 464 0 475 0 488C0 501 11 512 24 512H616C629 512 640 501 640 488C640 475 629 464 616 464ZM295 58C306 46 323 43 337 49L487 111C502 117 511 131 511 147L510 220L244 110L295 58ZM128 245L157 174C167 151 194 140 218 149L502 266C525 276 536 303 526 327L497 398L128 245ZM476 289C460 283 442 290 435 306C429 321 436 339 452 346C468 352 486 345 492 329C499 313 491 295 476 289ZM220 183C204 177 186 184 180 200S181 234 197 240C212 247 230 239 237 224S236 190 220 183Z"/></svg>