<svg xmlns="http://www.w3.org/2000/svg" viewBox="0 0 512 512"><!-- Font Awesome Pro 6.0.0-alpha1 by @fontawesome - https://fontawesome.com License - https://fontawesome.com/license (Commercial License) --><path d="M426 284L411 246L395 205C384 178 358 160 328 160H184C154 160 128 178 117 205L101 246L86 284C63 302 48 329 48 360V480C48 498 62 512 80 512S112 498 112 480V448H400V480C400 498 414 512 432 512S464 498 464 480V360C464 329 449 302 426 284ZM162 223C166 214 174 208 184 208H328C338 208 346 214 350 223L367 264H145L162 223ZM416 400H96V360C96 334 118 312 144 312H368C394 312 416 334 416 360V400ZM506 112H448L426 80L448 48H506C511 48 514 43 511 39C497 16 472 0 442 0C410 0 382 20 369 48H143C132 23 109 5 81 1C47 -4 17 13 1 39C-2 43 1 48 6 48H64L86 80L64 112H6C1 112 -2 117 1 121C15 144 40 160 70 160C102 160 130 140 143 112H369C380 137 403 155 431 159C465 164 495 147 511 121C514 117 511 112 506 112ZM160 336C147 336 136 347 136 360C136 373 147 384 160 384S184 373 184 360C184 347 173 336 160 336ZM352 336C339 336 328 347 328 360C328 373 339 384 352 384S376 373 376 360C376 347 365 336 352 336Z"/></svg>