<svg xmlns="http://www.w3.org/2000/svg" viewBox="0 0 640 512"><!-- Font Awesome Pro 6.0.0-alpha1 by @fontawesome - https://fontawesome.com License - https://fontawesome.com/license (Commercial License) --><path d="M144 192H112C103 192 96 199 96 208V240C96 249 103 256 112 256H144C153 256 160 249 160 240V208C160 199 153 192 144 192ZM144 288H112C103 288 96 295 96 304V336C96 345 103 352 112 352H144C153 352 160 345 160 336V304C160 295 153 288 144 288ZM208 96C199 96 192 103 192 112V144C192 153 199 160 208 160H240C249 160 256 153 256 144V112C256 103 249 96 240 96H208ZM144 96H112C103 96 96 103 96 112V144C96 153 103 160 112 160H144C153 160 160 153 160 144V112C160 103 153 96 144 96ZM304 56V104C304 117 315 128 328 128S352 117 352 104V56C352 25 327 0 296 0H56C25 0 0 25 0 56V456C0 469 11 480 24 480S48 469 48 456V56C48 52 52 48 56 48H296C300 48 304 52 304 56ZM256 212V208C256 199 249 192 240 192H208C199 192 192 199 192 208V240C192 249 199 256 208 256H238L256 212ZM602 284L571 205C560 178 534 160 504 160H360C330 160 304 178 293 205L262 284C239 302 224 329 224 360V480C224 498 238 512 256 512S288 498 288 480V448H576V480C576 498 590 512 608 512S640 498 640 480V360C640 329 625 302 602 284ZM338 223C342 214 350 208 360 208H504C514 208 522 214 526 223L543 264H321L338 223ZM592 400H272V360C272 334 294 312 320 312H544C570 312 592 334 592 360V400ZM528 336C515 336 504 347 504 360C504 373 515 384 528 384S552 373 552 360C552 347 541 336 528 336ZM336 336C323 336 312 347 312 360C312 373 323 384 336 384S360 373 360 360C360 347 349 336 336 336Z"/></svg>