<svg xmlns="http://www.w3.org/2000/svg" viewBox="0 0 640 512"><!-- Font Awesome Pro 6.0.0-alpha1 by @fontawesome - https://fontawesome.com License - https://fontawesome.com/license (Commercial License) --><path d="M102 201L71 192L98 174C110 165 114 148 107 134L94 112L118 120C133 124 149 116 155 102L167 70L172 77C179 88 193 91 205 84C216 77 219 63 212 51L191 17C186 6 175 0 164 0C151 0 140 8 136 19L116 69L66 53C54 50 41 54 33 63C25 73 24 86 30 97L57 144L13 174C3 181 -2 194 1 206C4 218 13 227 23 229L90 247C92 248 94 248 96 248C107 248 116 241 119 230C123 218 115 204 102 201ZM540 289C524 283 506 290 499 306C493 321 500 339 516 346C532 352 550 345 556 329C563 314 555 296 540 289ZM620 252L621 148C622 113 601 82 569 69L419 6C387 -7 350 1 326 26L253 101C221 105 192 125 179 157L114 313C108 329 115 346 131 353C147 359 165 352 171 336L189 294L529 434L514 470C508 485 515 503 531 510C546 516 564 509 571 493L633 344C646 312 640 278 620 252ZM359 58C370 46 387 43 401 49L551 111C566 117 575 131 575 147L574 220L308 110L359 58ZM591 327L561 398L192 245L221 174C231 151 258 140 282 149L566 267C589 276 600 303 591 327ZM284 184C268 177 250 185 244 200C237 216 245 234 261 240C276 247 294 239 301 224C307 208 300 190 284 184Z"/></svg>