<svg xmlns="http://www.w3.org/2000/svg" viewBox="0 0 512 512"><!-- Font Awesome Pro 6.0.0-alpha1 by @fontawesome - https://fontawesome.com License - https://fontawesome.com/license (Commercial License) --><path d="M463 189L422 87C409 54 377 32 341 32H171C135 32 103 54 90 87L49 189C20 205 0 236 0 272V336C0 360 13 380 32 391V448C32 466 46 480 64 480S96 466 96 448V400H416V448C416 466 430 480 448 480S480 466 480 448V391C499 380 512 360 512 336V272C512 236 492 205 463 189ZM134 105C140 90 155 80 171 80H341C357 80 372 90 378 105L406 176H106L134 105ZM448 352H320V320C320 302 306 288 288 288H224C206 288 192 302 192 320V352H64C55 352 48 345 48 336V304H88C101 304 112 293 112 280S101 256 88 256H51C58 237 75 224 96 224H416C437 224 454 237 461 256H424C411 256 400 267 400 280S411 304 424 304H464V336C464 345 457 352 448 352Z"/></svg>