<svg xmlns="http://www.w3.org/2000/svg" viewBox="0 0 640 512"><!-- Font Awesome Pro 6.0.0-alpha1 by @fontawesome - https://fontawesome.com License - https://fontawesome.com/license (Commercial License) --><path d="M616 368H576V192C576 104 504 32 416 32H96C43 32 0 75 0 128V320C0 373 43 416 96 416C96 469 139 512 192 512S288 469 288 416H616C629 416 640 405 640 392V392C640 379 629 368 616 368ZM192 464C166 464 144 442 144 416S166 368 192 368S240 390 240 416S218 464 192 464ZM432 240C423 240 416 247 416 256C416 265 423 272 432 272V368H368V176H432V240ZM528 368H480V168C480 146 462 128 440 128H360C338 128 320 146 320 168V368H275C258 339 227 320 192 320S126 339 109 368H96C70 368 48 346 48 320V128C48 102 70 80 96 80H416C478 80 528 130 528 192V368ZM256 128H128C110 128 96 142 96 160V224C96 242 110 256 128 256H256C274 256 288 242 288 224V160C288 142 274 128 256 128Z"/></svg>