<svg xmlns="http://www.w3.org/2000/svg" viewBox="0 0 576 512"><!-- Font Awesome Pro 6.0.0-alpha1 by @fontawesome - https://fontawesome.com License - https://fontawesome.com/license (Commercial License) --><path d="M176 416C150 416 128 438 128 464S150 512 176 512S224 490 224 464S202 416 176 416ZM319 201C324 206 330 208 336 208S348 206 353 201L417 137C426 128 426 112 417 103S392 94 383 103L360 126V24C360 11 349 0 336 0S312 11 312 24V126L289 103C280 94 264 94 255 103S246 128 255 137L319 201ZM464 416C438 416 416 438 416 464S438 512 464 512S512 490 512 464S490 416 464 416ZM570 45C563 37 554 32 544 32H448V80H523L477 240H162L131 80H224V32H122L120 20C117 8 108 0 96 0H24C11 0 0 11 0 24C0 37 11 48 24 48H76L136 364C139 376 148 384 160 384H488C501 384 512 373 512 360C512 347 501 336 488 336H180L171 288H489C503 288 516 279 520 265L575 73C578 63 576 53 570 45Z"/></svg>