<svg xmlns="http://www.w3.org/2000/svg" viewBox="0 0 640 512"><!-- Font Awesome Pro 6.0.0-alpha1 by @fontawesome - https://fontawesome.com License - https://fontawesome.com/license (Commercial License) --><path d="M616 400H144V64C144 29 115 0 80 0H24C11 0 0 11 0 24C0 37 11 48 24 48H72C85 48 96 59 96 72V416C96 434 110 448 128 448H163C161 453 160 458 160 464C160 490 182 512 208 512S256 490 256 464C256 458 255 453 253 448H451C449 453 448 458 448 464C448 490 470 512 496 512S544 490 544 464C544 458 543 453 541 448H616C629 448 640 437 640 424C640 411 629 400 616 400Z"/></svg>