<svg xmlns="http://www.w3.org/2000/svg" viewBox="0 0 576 512"><!-- Font Awesome Pro 6.0.0-alpha1 by @fontawesome - https://fontawesome.com License - https://fontawesome.com/license (Commercial License) --><path d="M352 384H464C482 384 496 370 496 352V240C496 222 482 208 464 208H352C334 208 320 222 320 240V352C320 370 334 384 352 384ZM368 256H448V336H368V256ZM512 32H64C29 32 0 61 0 96V416C0 451 29 480 64 480H512C547 480 576 451 576 416V96C576 61 547 32 512 32ZM528 416C528 425 521 432 512 432H64C55 432 48 425 48 416V160H528V416ZM184 400C241 400 288 353 288 296S241 192 184 192S80 239 80 296S127 400 184 400ZM184 240C215 240 240 265 240 296S215 352 184 352S128 327 128 296S153 240 184 240ZM184 320C197 320 208 309 208 296C208 283 197 272 184 272C171 272 160 283 160 296C160 309 171 320 184 320Z"/></svg>