<svg xmlns="http://www.w3.org/2000/svg" viewBox="0 0 576 512"><!-- Font Awesome Pro 6.0.0-alpha1 by @fontawesome - https://fontawesome.com License - https://fontawesome.com/license (Commercial License) --><path d="M184 384H392C441 384 480 345 480 296S441 208 392 208H184C135 208 96 247 96 296S135 384 184 384ZM400 264C418 264 432 278 432 296S418 328 400 328V264ZM224 256H352V336H224V256ZM176 264V328C158 328 144 314 144 296S158 264 176 264ZM512 32H64C29 32 0 61 0 96V416C0 451 29 480 64 480H512C547 480 576 451 576 416V96C576 61 547 32 512 32ZM528 416C528 425 521 432 512 432H64C55 432 48 425 48 416V160H528V416Z"/></svg>