<svg xmlns="http://www.w3.org/2000/svg" viewBox="0 0 576 512"><!-- Font Awesome Pro 6.0.0-alpha1 by @fontawesome - https://fontawesome.com License - https://fontawesome.com/license (Commercial License) --><path d="M512 32H64C29 32 0 61 0 96V416C0 451 29 480 64 480H512C547 480 576 451 576 416V96C576 61 547 32 512 32ZM157 432L176 384H400L419 432H157ZM528 416C528 425 521 432 512 432H468L470 431L438 351C435 342 426 336 416 336H160C150 336 141 342 138 351L106 431L108 432H64C55 432 48 425 48 416V96C48 87 55 80 64 80H512C521 80 528 87 528 96V416ZM400 160H176C141 160 112 189 112 224C112 259 141 288 176 288H400C435 288 464 259 464 224C464 189 435 160 400 160ZM176 240C167 240 160 233 160 224S167 208 176 208S192 215 192 224S185 240 176 240ZM338 240H238C239 235 240 230 240 224S239 213 238 208H338C337 213 336 218 336 224S337 235 338 240ZM400 240C391 240 384 233 384 224S391 208 400 208S416 215 416 224S409 240 400 240Z"/></svg>