<svg xmlns="http://www.w3.org/2000/svg" viewBox="0 0 384 512"><!-- Font Awesome Pro 6.0.0-alpha1 by @fontawesome - https://fontawesome.com License - https://fontawesome.com/license (Commercial License) --><path d="M311 352C289 374 262 387 232 390V122C262 125 289 138 311 160C320 169 336 169 345 160C354 151 354 135 345 126C314 95 275 78 232 74V24C232 11 221 0 208 0S184 11 184 24V75C147 81 113 99 86 126C14 198 14 314 86 386C113 413 147 431 184 437V488C184 501 195 512 208 512S232 501 232 488V438C275 434 314 417 345 386C354 377 354 361 345 352C336 343 320 343 311 352ZM120 352C67 299 67 213 120 160C138 142 160 130 184 124V388C160 382 138 370 120 352Z"/></svg>