<svg xmlns="http://www.w3.org/2000/svg" viewBox="0 0 512 512"><!-- Font Awesome Pro 6.0.0-alpha1 by @fontawesome - https://fontawesome.com License - https://fontawesome.com/license (Commercial License) --><path d="M474 256L498 233C510 221 515 204 510 188C506 172 493 159 478 155L445 147L454 114C459 99 454 81 442 70C430 58 413 53 397 58L365 67L357 35C353 19 340 6 324 2C308 -3 291 2 280 14L256 38L233 14C221 2 204 -3 188 2C172 6 159 18 155 34L147 67L115 58C99 53 82 58 70 70C58 81 54 99 58 115L67 147L35 155C19 159 6 172 2 188C-3 204 2 221 14 232L38 256L14 279C2 291 -3 308 2 324C6 340 19 353 34 356L67 365L58 397C54 413 58 430 70 442C81 454 99 458 115 454L147 445L155 477C159 494 172 506 188 510C192 511 196 512 200 512C212 512 224 507 232 498L256 474L279 498C291 510 308 515 324 510C340 506 353 494 357 478L365 445L398 454C413 458 431 454 442 442C454 430 459 413 454 397L445 365L477 357C493 353 506 340 510 324S510 291 498 279L474 256ZM310 46L310 46L310 46L310 46ZM198 47L198 47L198 47L198 47ZM46 202L46 202L46 202L46 202ZM47 314L48 314L48 314L47 314ZM202 466L202 466L202 466L202 466ZM314 465L314 464L314 464L314 465ZM385 331L407 407L331 385L311 462L256 405L201 462L181 385L105 407L127 331L50 311L107 256L50 201L127 181L105 105L181 127L201 50L256 107L311 50L331 127L407 105L385 181L462 201L405 256L462 311L385 331ZM464 198L464 198L465 198L464 198ZM466 310L466 310L466 310L466 310Z"/></svg>