<svg xmlns="http://www.w3.org/2000/svg" viewBox="0 0 640 512"><!-- Font Awesome Pro 6.0.0-alpha1 by @fontawesome - https://fontawesome.com License - https://fontawesome.com/license (Commercial License) --><path d="M192 352H128C57 352 0 409 0 480C0 498 14 512 32 512H288C306 512 320 498 320 480C320 409 263 352 192 352ZM50 464C57 428 89 400 128 400H192C231 400 263 428 270 464H50ZM160 320C213 320 256 277 256 224C256 171 213 128 160 128C107 128 64 171 64 224C64 277 107 320 160 320ZM160 176C186 176 208 198 208 224S186 272 160 272S112 250 112 224S134 176 160 176ZM584 0H216C185 0 160 25 160 56V80C160 93 171 104 184 104S208 93 208 80V56C208 52 212 48 216 48H584C588 48 592 52 592 56V360C592 364 588 368 584 368H528V336C528 318 514 304 496 304H416C398 304 384 318 384 336V368H352C339 368 328 379 328 392S339 416 352 416H584C615 416 640 391 640 360V56C640 25 615 0 584 0Z"/></svg>