<svg xmlns="http://www.w3.org/2000/svg" viewBox="0 0 256 512"><!-- Font Awesome Pro 6.0.0-alpha1 by @fontawesome - https://fontawesome.com License - https://fontawesome.com/license (Commercial License) --><path d="M216 464H152V350C217 338 264 278 255 212L228 27C226 12 212 0 196 0H60C44 0 30 12 28 27L1 212C-8 278 39 338 104 349V464H40C27 464 16 475 16 488C16 501 27 512 40 512H216C229 512 240 501 240 488C240 475 229 464 216 464ZM182 48L194 128H62L74 48H182ZM49 219L55 176H201L207 219C211 250 186 304 128 304C70 304 44 251 49 219Z"/></svg>