<svg xmlns="http://www.w3.org/2000/svg" viewBox="0 0 640 512"><!-- Font Awesome Pro 6.0.0-alpha1 by @fontawesome - https://fontawesome.com License - https://fontawesome.com/license (Commercial License) --><path d="M638 423C634 414 626 408 616 408C613 408 610 409 607 410L562 428L520 323C572 289 591 223 561 168L475 16C470 6 459 0 447 0C443 0 439 1 435 2L320 47L205 2C201 1 197 0 193 0C181 0 170 6 165 17L79 168C49 223 68 289 120 323L78 428L33 410C30 409 27 408 24 408C15 408 6 414 2 423C-3 435 3 449 15 454L151 510C154 511 157 512 160 512C169 512 178 506 182 497C187 485 181 471 169 466L123 447L165 341C173 343 181 343 189 343C243 343 291 309 305 256L320 196L320 197L320 196L335 256C349 309 397 343 451 343C459 343 467 343 475 341L517 447L471 466C459 471 453 485 458 497C462 506 471 512 480 512C483 512 486 511 489 510L625 454C637 449 643 435 638 423ZM121 192L147 145L270 198L258 244C233 345 71 282 121 192ZM282 151L171 103L200 52L297 90L282 151ZM343 90L440 52L469 103L358 151L350 117L343 90ZM382 244L370 198L493 145L519 192C570 282 407 345 382 244Z"/></svg>