<svg xmlns="http://www.w3.org/2000/svg" viewBox="0 0 576 512"><!-- Font Awesome Pro 6.0.0-alpha1 by @fontawesome - https://fontawesome.com License - https://fontawesome.com/license (Commercial License) --><path d="M560 128H544V80C544 71 537 64 528 64S512 71 512 80V128H480V80C480 71 473 64 464 64S448 71 448 80V128H432C423 128 416 135 416 144V192C416 228 440 258 472 268V371C472 385 462 397 449 400C431 402 416 389 416 372V344C416 296 376 256 328 256H320V64C320 29 291 0 256 0H96C61 0 32 29 32 64V464H24C11 464 0 475 0 488C0 501 11 512 24 512H328C341 512 352 501 352 488C352 475 341 464 328 464H320V304H328C350 304 368 322 368 344V368C368 408 397 444 437 448C482 452 520 416 520 372V268C552 258 576 228 576 192V144C576 135 569 128 560 128ZM272 464H80V64C80 55 87 48 96 48H256C265 48 272 55 272 64V464ZM528 192C528 210 514 224 496 224S464 210 464 192V176H528V192ZM214 176H171L186 127C190 115 183 101 171 97C158 93 144 100 141 113L115 193C113 200 114 208 119 214C123 220 131 224 138 224H174L142 285C136 297 141 311 152 317C156 319 160 320 163 320C172 320 180 315 185 307L235 211C239 204 239 195 234 188S222 176 214 176Z"/></svg>