<svg xmlns="http://www.w3.org/2000/svg" viewBox="0 0 512 512"><!-- Font Awesome Pro 6.0.0-alpha1 by @fontawesome - https://fontawesome.com License - https://fontawesome.com/license (Commercial License) --><path d="M488 432H48V56C48 43 37 32 24 32S0 43 0 56V448C0 466 14 480 32 480H488C501 480 512 469 512 456C512 443 501 432 488 432ZM168 352C181 352 192 341 192 328V280C192 267 181 256 168 256S144 267 144 280V328C144 341 155 352 168 352ZM264 352C277 352 288 341 288 328V152C288 139 277 128 264 128S240 139 240 152V328C240 341 251 352 264 352ZM360 352C373 352 384 341 384 328V216C384 203 373 192 360 192S336 203 336 216V328C336 341 347 352 360 352ZM456 352C469 352 480 341 480 328V120C480 107 469 96 456 96S432 107 432 120V328C432 341 443 352 456 352Z"/></svg>