<svg xmlns="http://www.w3.org/2000/svg" viewBox="0 0 512 512"><!-- Font Awesome Pro 6.0.0-alpha1 by @fontawesome - https://fontawesome.com License - https://fontawesome.com/license (Commercial License) --><path d="M120 384H456C469 384 480 373 480 360V240C480 234 478 229 475 225L403 137C398 132 392 128 385 128C379 128 372 130 367 135L321 181L250 104C245 99 239 96 232 96H232C225 96 219 99 214 104L102 224C98 228 96 234 96 240V360C96 373 107 384 120 384ZM144 249L232 155L302 232C307 237 313 240 319 240C327 240 332 238 337 233L382 188L432 249V336H144V249ZM488 432H48V56C48 43 37 32 24 32S0 43 0 56V448C0 466 14 480 32 480H488C501 480 512 469 512 456C512 443 501 432 488 432Z"/></svg>