<svg xmlns="http://www.w3.org/2000/svg" viewBox="0 0 512 512"><!-- Font Awesome Pro 6.0.0-alpha1 by @fontawesome - https://fontawesome.com License - https://fontawesome.com/license (Commercial License) --><path d="M488 432H48V56C48 43 37 32 24 32S0 43 0 56V448C0 466 14 480 32 480H488C501 480 512 469 512 456C512 443 501 432 488 432ZM191 257C200 266 216 266 225 257L304 178L398 272H344C331 272 320 283 320 296S331 320 344 320H456C469 320 480 309 480 296V184C480 171 469 160 456 160S432 171 432 184V238L321 127C312 118 296 118 287 127L208 206L145 143C136 134 120 134 111 143S102 168 111 177L191 257Z"/></svg>