<svg xmlns="http://www.w3.org/2000/svg" viewBox="0 0 512 512"><!-- Font Awesome Pro 6.0.0-alpha1 by @fontawesome - https://fontawesome.com License - https://fontawesome.com/license (Commercial License) --><path d="M152 256H296C309 256 320 245 320 232S309 208 296 208H152C139 208 128 219 128 232S139 256 152 256ZM152 160H360C373 160 384 149 384 136S373 112 360 112H152C139 112 128 123 128 136S139 160 152 160ZM152 352H424C437 352 448 341 448 328S437 304 424 304H152C139 304 128 315 128 328S139 352 152 352ZM488 432H48V56C48 43 37 32 24 32S0 43 0 56V448C0 466 14 480 32 480H488C501 480 512 469 512 456S501 432 488 432Z"/></svg>