<svg xmlns="http://www.w3.org/2000/svg" viewBox="0 0 512 512"><!-- Font Awesome Pro 6.0.0-alpha1 by @fontawesome - https://fontawesome.com License - https://fontawesome.com/license (Commercial License) --><path d="M128 192C146 192 160 178 160 160S146 128 128 128S96 142 96 160S110 192 128 192ZM384 96C402 96 416 82 416 64S402 32 384 32S352 46 352 64S366 96 384 96ZM32 96C50 96 64 82 64 64S50 32 32 32S0 46 0 64S14 96 32 96ZM384 288C402 288 416 274 416 256S402 224 384 224S352 238 352 256S366 288 384 288ZM64 256C64 238 50 224 32 224S0 238 0 256S14 288 32 288S64 274 64 256ZM480 128C462 128 448 142 448 160S462 192 480 192S512 178 512 160S498 128 480 128ZM256 416C238 416 224 430 224 448S238 480 256 480S288 466 288 448S274 416 256 416ZM280 277V56C280 43 269 32 256 32S232 43 232 56V277L41 438C30 446 29 461 38 471C46 482 61 483 71 474L256 319L441 474C445 478 451 480 456 480C463 480 470 477 474 471C483 461 482 446 471 438L280 277Z"/></svg>