<svg xmlns="http://www.w3.org/2000/svg" viewBox="0 0 256 512"><!-- Font Awesome Pro 6.0.0-alpha1 by @fontawesome - https://fontawesome.com License - https://fontawesome.com/license (Commercial License) --><path d="M250 435L224 416V392C224 379 213 368 200 368H203C201 352 200 336 200 320V288H208C217 288 224 281 224 272V256C224 249 218 242 210 241C219 226 224 210 224 193C224 152 199 116 161 102C123 88 80 99 54 131C28 162 25 206 46 241C38 242 32 249 32 256V272C32 281 39 288 48 288H56V320C56 336 55 352 53 368H56C43 368 32 379 32 392V416L6 435C2 438 0 443 0 448V496C0 505 7 512 16 512H240C249 512 256 505 256 496V448C256 443 254 438 250 435ZM152 288V318C152 335 153 352 154 368H102C103 352 104 335 104 318V288H152ZM128 145C154 145 176 166 176 193S154 240 128 240S80 219 80 193S102 145 128 145ZM48 464L80 440V416H176V440L208 464H48Z"/></svg>