<svg xmlns="http://www.w3.org/2000/svg" viewBox="0 0 256 512"><!-- Font Awesome Pro 6.0.0-alpha1 by @fontawesome - https://fontawesome.com License - https://fontawesome.com/license (Commercial License) --><path d="M250 435L224 416V392C224 382 217 373 207 370C203 345 201 319 201 294V256H208C217 256 224 249 224 240V224C224 215 217 208 208 208H205L232 128C234 120 233 112 229 106C224 100 217 96 209 96H145V64H161C170 64 177 57 177 48V48C177 39 170 32 161 32H145V16C145 7 138 0 129 0H129C120 0 113 7 113 16V32H97C88 32 81 39 81 48V48C81 57 88 64 97 64H113V96H49C41 96 34 100 29 106C24 112 23 120 26 128L53 208H48C39 208 32 215 32 224V240C32 249 39 256 48 256H57V294C57 319 54 344 50 369C40 372 32 381 32 392V416L6 435C2 438 0 443 0 448V496C0 505 7 512 16 512H240C249 512 256 505 256 496V448C256 443 254 438 250 435ZM176 144L154 208H103L82 144H176ZM158 368H99C102 343 105 319 105 294V256H153V294C153 319 155 343 158 368ZM48 464L80 440V416H176V440L208 464H48Z"/></svg>