<svg xmlns="http://www.w3.org/2000/svg" viewBox="0 0 320 512"><!-- Font Awesome Pro 6.0.0-alpha1 by @fontawesome - https://fontawesome.com License - https://fontawesome.com/license (Commercial License) --><path d="M314 435L288 416V392C288 381 280 372 270 369L265 251L291 231C299 225 304 216 304 206V96C304 78 290 64 272 64H48C30 64 16 78 16 96V206C16 216 21 226 29 232L55 252L50 369C40 372 32 381 32 392V416L6 435C2 438 0 443 0 448V496C0 505 7 512 16 512H304C313 512 320 505 320 496V448C320 443 318 438 314 435ZM64 112H104V144H136V112H184V144H216V112H256V198L215 229L222 368H98L105 228L64 198V112ZM48 464L80 440V416H240V440L272 464H48ZM184 248C184 234 174 224 160 224C147 224 137 234 137 248V288H184V248Z"/></svg>