<svg xmlns="http://www.w3.org/2000/svg" viewBox="0 0 320 512"><!-- Font Awesome Pro 6.0.0-alpha1 by @fontawesome - https://fontawesome.com License - https://fontawesome.com/license (Commercial License) --><path d="M296 464H24C11 464 0 475 0 488V488C0 501 11 512 24 512H296C309 512 320 501 320 488V488C320 475 309 464 296 464ZM0 304C0 356 30 389 64 400V432H112V365L78 354C64 350 48 334 48 304C48 229 114 138 149 102C155 96 165 96 172 102C184 114 206 137 231 183L165 249C159 256 159 266 165 272L176 283C182 290 192 290 199 283L253 229C264 257 272 283 272 304C272 334 256 350 242 354L208 365V432H256V400C290 389 320 356 320 304C320 231 252 107 199 62C213 59 224 47 224 32C224 14 210 0 192 0H128C110 0 96 14 96 32C96 47 107 59 121 62C68 107 0 231 0 304Z"/></svg>