<svg xmlns="http://www.w3.org/2000/svg" viewBox="0 0 640 512"><!-- Font Awesome Pro 6.0.0-alpha1 by @fontawesome - https://fontawesome.com License - https://fontawesome.com/license (Commercial License) --><path d="M576 112H544V104C544 91 533 80 520 80H408C395 80 384 91 384 104V112H200V80H232C245 80 256 69 256 56S245 32 232 32H120C107 32 96 43 96 56S107 80 120 80H152V112H64C29 112 0 141 0 176V416C0 451 29 480 64 480H576C611 480 640 451 640 416V176C640 141 611 112 576 112ZM592 416C592 425 585 432 576 432H64C55 432 48 425 48 416V176C48 167 55 160 64 160H576C585 160 592 167 592 176V416ZM200 192C143 192 96 239 96 296S143 400 200 400S304 353 304 296S257 192 200 192ZM216 288C216 297 209 304 200 304S184 297 184 288V240C184 231 191 224 200 224S216 231 216 240V288ZM366 222C326 263 326 329 366 370C407 410 473 410 514 370C554 329 554 263 514 222C473 182 407 182 366 222ZM491 268L457 302C451 308 441 308 434 302S428 285 434 279L468 245C475 239 485 239 491 245S497 261 491 268Z"/></svg>