<svg xmlns="http://www.w3.org/2000/svg" viewBox="0 0 320 512"><!-- Font Awesome Pro 6.0.0-alpha1 by @fontawesome - https://fontawesome.com License - https://fontawesome.com/license (Commercial License) --><path d="M90 195C95 195 100 192 103 187C105 182 104 175 100 171C96 168 90 166 85 168C79 171 76 176 76 181C76 189 82 195 90 195ZM314 435L288 416V386C298 372 304 356 304 339V233C304 140 228 64 135 64H55C37 64 21 73 10 88C0 102 -3 121 3 138C1 145 0 151 0 158V242C0 268 14 291 37 303C27 318 20 335 17 354C14 375 19 395 32 412V416L6 435C2 438 0 443 0 448V496C0 505 7 512 16 512H304C313 512 320 505 320 496V448C320 443 318 438 314 435ZM55 112H135C202 112 256 166 256 233V339C256 347 253 355 247 361L240 368H65C65 366 64 364 64 362C69 333 86 316 111 305L145 294C154 290 160 281 160 271V223L133 228C129 230 126 233 125 237L120 256C118 262 114 267 108 269S98 274 93 274C90 274 87 273 85 272L60 261C53 258 48 250 48 242V158C48 150 52 147 58 142L49 124C46 118 50 112 55 112ZM48 464L80 440V416H240V440L272 464H48Z"/></svg>