<svg xmlns="http://www.w3.org/2000/svg" viewBox="0 0 256 512"><!-- Font Awesome Pro 6.0.0-alpha1 by @fontawesome - https://fontawesome.com License - https://fontawesome.com/license (Commercial License) --><path d="M224 416V392C224 381 216 372 205 369C202 347 200 324 200 302V256H224C233 256 240 249 240 240V224C240 215 233 208 224 208H217L255 103C257 99 256 95 252 93L240 85C237 82 232 83 229 87C215 106 185 96 185 71C185 69 185 67 183 66C182 65 180 64 178 64H159C155 64 153 66 152 69C150 80 140 88 128 88C117 88 107 80 104 69C104 66 101 64 98 64H78C74 64 71 67 71 71C71 96 41 105 27 87C25 83 20 82 16 85L4 93C1 95 -1 99 1 103L40 208H32C24 208 16 215 16 224V240C16 249 24 256 32 256H56V302C56 325 54 347 51 369C40 371 32 381 32 392V416L6 435C2 438 0 443 0 448V496C0 505 7 512 16 512H240C248 512 256 505 256 496V448C256 443 253 438 249 435L224 416ZM93 127C115 139 141 139 163 127C171 134 180 139 190 142L167 208H90L67 142C76 139 86 134 93 127ZM157 368H99C102 346 104 324 104 302V256H152V302C152 324 154 346 157 368ZM48 464L80 440V416H176V440L208 464H48ZM128 56C144 56 156 43 156 28S144 0 128 0C113 0 100 13 100 28S113 56 128 56Z"/></svg>