<svg xmlns="http://www.w3.org/2000/svg" viewBox="0 0 448 512"><!-- Font Awesome Pro 6.0.0-alpha1 by @fontawesome - https://fontawesome.com License - https://fontawesome.com/license (Commercial License) --><path d="M392 464H56C43 464 32 475 32 488V488C32 501 43 512 56 512H392C405 512 416 501 416 488V488C416 475 405 464 392 464ZM437 183C427 168 410 160 392 160H248V104H280C293 104 304 93 304 80V80C304 67 293 56 280 56H248V24C248 11 237 0 224 0H224C211 0 200 11 200 24V56H168C155 56 144 67 144 80V80C144 93 155 104 168 104H200V160H56C38 160 21 169 11 183C0 197 -3 216 3 233L68 432H119L48 218C48 216 48 213 50 211C51 209 53 208 56 208H392C394 208 397 209 398 211C400 213 400 216 400 218L329 432H379L445 233C451 216 448 197 437 183Z"/></svg>