<svg xmlns="http://www.w3.org/2000/svg" viewBox="0 0 384 512"><!-- Font Awesome Pro 6.0.0-alpha1 by @fontawesome - https://fontawesome.com License - https://fontawesome.com/license (Commercial License) --><path d="M44 321L58 327C41 347 32 373 32 400V432H80V400C80 375 94 353 116 341L154 318C168 311 176 298 176 283V224L161 233C156 236 152 240 151 246L143 271C141 279 135 285 128 288L117 292C111 295 103 294 97 292L63 277C54 273 48 263 48 253V141C48 135 50 130 54 127L61 119L50 96C49 94 48 92 48 90C48 84 52 80 58 80H163C250 80 320 150 320 237V432H368V237C368 124 276 32 163 32H58C26 32 0 58 0 90C0 98 2 107 5 115C2 123 0 132 0 141V253C0 282 17 309 44 321ZM80 164C80 175 89 184 100 184C111 184 120 175 120 164S111 144 100 144C89 144 80 153 80 164ZM360 464H24C11 464 0 475 0 488V488C0 501 11 512 24 512H360C373 512 384 501 384 488V488C384 475 373 464 360 464Z"/></svg>