<svg xmlns="http://www.w3.org/2000/svg" viewBox="0 0 512 512"><!-- Font Awesome Pro 6.0.0-alpha1 by @fontawesome - https://fontawesome.com License - https://fontawesome.com/license (Commercial License) --><path d="M256 112C287 112 312 87 312 56S287 0 256 0S200 25 200 56S225 112 256 112ZM505 184L476 168C474 166 471 166 468 166C462 166 457 169 454 173C445 185 431 192 416 192C413 192 410 192 407 191C384 187 368 165 368 141C368 134 362 128 355 128H316C310 128 304 132 303 138C298 160 279 176 256 176C233 176 214 160 209 138C208 132 202 128 196 128H157C150 128 144 134 144 141C144 167 125 190 99 192C98 192 97 192 96 192C81 192 67 185 58 173C55 168 50 166 44 166C41 166 38 166 36 168L7 184C0 189 -2 198 2 205L110 432H163L70 236C78 239 87 240 96 240C98 240 100 240 103 240C137 238 166 217 181 187C199 210 227 224 256 224C285 224 313 211 331 188C344 214 369 233 398 238C404 239 410 240 416 240C425 240 434 239 442 237L349 432H402L510 205C514 197 512 189 505 184ZM424 464H88C75 464 64 475 64 488V488C64 501 75 512 88 512H424C437 512 448 501 448 488V488C448 475 437 464 424 464Z"/></svg>