<svg xmlns="http://www.w3.org/2000/svg" viewBox="0 0 448 512"><!-- Font Awesome Pro 6.0.0-alpha1 by @fontawesome - https://fontawesome.com License - https://fontawesome.com/license (Commercial License) --><path d="M73 256L233 89C242 79 242 64 233 55S208 46 199 55L23 239C14 249 14 263 23 273L199 457C208 466 223 466 233 457C238 453 240 446 240 440C240 434 238 428 233 423L73 256ZM425 423L265 256L425 89C434 79 434 64 425 55S400 46 391 55L215 239C206 249 206 263 215 273L391 457C400 466 415 466 425 457C430 453 432 446 432 440C432 434 430 428 425 423Z"/></svg>