<svg xmlns="http://www.w3.org/2000/svg" viewBox="0 0 448 512"><!-- Font Awesome Pro 6.0.0-alpha1 by @fontawesome - https://fontawesome.com License - https://fontawesome.com/license (Commercial License) --><path d="M57 265L224 105L391 265C396 270 402 272 408 272C414 272 421 270 425 265C434 255 434 240 425 231L241 55C231 46 217 46 207 55L23 231C14 240 13 255 23 265S47 274 57 265ZM241 247C231 238 217 238 207 247L23 423C14 432 13 447 23 457S47 466 57 457L224 297L391 457C396 462 402 464 408 464C414 464 421 462 425 457C435 447 434 432 425 423L241 247Z"/></svg>