<svg xmlns="http://www.w3.org/2000/svg" viewBox="0 0 448 512"><!-- Font Awesome Pro 6.0.0-alpha1 by @fontawesome - https://fontawesome.com License - https://fontawesome.com/license (Commercial License) --><path d="M416 32H32C14 32 0 46 0 64V192C0 210 14 224 32 224V456C32 469 43 480 56 480H56C69 480 80 469 80 456V384H256V456C256 469 267 480 280 480H280C293 480 304 469 304 456V384H368V456C368 469 379 480 392 480H392C405 480 416 469 416 456V224C434 224 448 210 448 192V64C448 46 434 32 416 32ZM160 336H80V224H160V336ZM368 336H208V224H368V336ZM400 176H48V80H400V176Z"/></svg>