<svg xmlns="http://www.w3.org/2000/svg" viewBox="0 0 512 512"><!-- Font Awesome Pro 6.0.0-alpha1 by @fontawesome - https://fontawesome.com License - https://fontawesome.com/license (Commercial License) --><path d="M371 147C359 141 344 145 339 157L256 322L173 157C168 145 153 141 141 147C129 152 125 167 131 179L235 387C239 395 247 400 256 400S273 395 277 387L381 179C387 167 383 152 371 147ZM256 16C123 16 16 123 16 256S123 496 256 496S496 389 496 256S389 16 256 16ZM256 448C150 448 64 362 64 256S150 64 256 64S448 150 448 256S362 448 256 448Z"/></svg>