<svg xmlns="http://www.w3.org/2000/svg" viewBox="0 0 512 512"><!-- Font Awesome Pro 6.0.0-alpha1 by @fontawesome - https://fontawesome.com License - https://fontawesome.com/license (Commercial License) --><path d="M256 16C123 16 16 123 16 256S123 496 256 496S496 389 496 256S389 16 256 16ZM256 448C150 448 64 362 64 256S150 64 256 64S448 150 448 256S362 448 256 448ZM320 336H280V152C280 143 275 135 267 131C260 127 250 127 243 132L191 167C180 174 177 189 184 200C191 211 206 214 217 207L232 197V336H192C179 336 168 347 168 360S179 384 192 384H320C333 384 344 373 344 360S333 336 320 336Z"/></svg>