<svg xmlns="http://www.w3.org/2000/svg" viewBox="0 0 512 512"><!-- Font Awesome Pro 6.0.0-alpha1 by @fontawesome - https://fontawesome.com License - https://fontawesome.com/license (Commercial License) --><path d="M278 125C270 108 242 108 234 125L138 334C133 346 138 360 150 366C162 371 176 366 182 354L194 328H318L330 354C334 363 343 368 352 368C355 368 359 367 362 366C374 360 379 346 374 334L278 125ZM216 280L256 192L296 280H216ZM256 16C123 16 16 123 16 256S123 496 256 496S496 389 496 256S389 16 256 16ZM256 448C150 448 64 362 64 256S150 64 256 64S448 150 448 256S362 448 256 448Z"/></svg>