<svg xmlns="http://www.w3.org/2000/svg" viewBox="0 0 512 512"><!-- Font Awesome Pro 6.0.0-alpha1 by @fontawesome - https://fontawesome.com License - https://fontawesome.com/license (Commercial License) --><path d="M256 16C123 16 16 123 16 256S123 496 256 496S496 389 496 256S389 16 256 16ZM256 448C150 448 64 362 64 256S150 64 256 64S448 150 448 256S362 448 256 448ZM372 140L322 128C314 127 307 131 304 137L280 192C278 198 279 206 285 210L312 232C295 267 267 295 232 312L210 285C206 279 198 278 192 280L137 304C130 307 127 314 128 322L140 372C142 379 148 384 155 384C281 384 384 281 384 155C384 148 379 142 372 140Z"/></svg>