<svg xmlns="http://www.w3.org/2000/svg" viewBox="0 0 512 512"><!-- Font Awesome Pro 6.0.0-alpha1 by @fontawesome - https://fontawesome.com License - https://fontawesome.com/license (Commercial License) --><path d="M461 256H256V51C256 33 241 18 224 18C223 18 221 19 219 19C89 39 -7 163 21 304C39 398 114 473 208 491C224 494 240 496 256 496C376 496 476 408 493 293C496 273 481 256 461 256ZM256 448C243 448 230 447 217 444C142 430 82 370 68 295C57 242 69 189 99 146C125 108 164 81 208 70V256C208 282 230 304 256 304H442C420 387 344 448 256 448Z"/></svg>