<svg xmlns="http://www.w3.org/2000/svg" viewBox="0 0 512 512"><!-- Font Awesome Pro 6.0.0-alpha1 by @fontawesome - https://fontawesome.com License - https://fontawesome.com/license (Commercial License) --><path d="M256 16C123 16 16 123 16 256S123 496 256 496S496 389 496 256S389 16 256 16ZM256 448C150 448 64 362 64 256S150 64 256 64S448 150 448 256S362 448 256 448ZM290 138C281 134 271 136 264 142L160 238C155 243 152 249 152 256S155 269 160 274L264 370C271 376 281 378 290 374C298 370 304 362 304 352V160C304 150 298 142 290 138Z"/></svg>