<svg xmlns="http://www.w3.org/2000/svg" viewBox="0 0 512 512"><!-- Font Awesome Pro 6.0.0-alpha1 by @fontawesome - https://fontawesome.com License - https://fontawesome.com/license (Commercial License) --><path d="M256 128C185 128 128 185 128 256S185 384 256 384C283 384 307 376 328 362L343 377C348 382 354 384 360 384S372 382 377 377C386 368 386 352 377 343L362 328C376 307 384 283 384 256C384 185 327 128 256 128ZM327 293L297 263C288 254 272 254 263 263S254 288 263 297L293 327C282 332 269 336 256 336C212 336 176 300 176 256S212 176 256 176S336 212 336 256C336 269 332 282 327 293ZM256 16C123 16 16 123 16 256S123 496 256 496S496 389 496 256S389 16 256 16ZM256 448C150 448 64 362 64 256S150 64 256 64S448 150 448 256S362 448 256 448Z"/></svg>