<svg xmlns="http://www.w3.org/2000/svg" viewBox="0 0 512 512"><!-- Font Awesome Pro 6.0.0-alpha1 by @fontawesome - https://fontawesome.com License - https://fontawesome.com/license (Commercial License) --><path d="M256 16C123 16 16 123 16 256S123 496 256 496S496 389 496 256S389 16 256 16ZM256 448C150 448 64 362 64 256S150 64 256 64S448 150 448 256S362 448 256 448ZM385 207C376 198 360 198 351 207L256 302L161 207C152 198 136 198 127 207S118 232 127 241L239 353C244 358 250 360 256 360S268 358 273 353L385 241C394 232 394 216 385 207Z"/></svg>