<svg xmlns="http://www.w3.org/2000/svg" viewBox="0 0 512 512"><!-- Font Awesome Pro 6.0.0-alpha1 by @fontawesome - https://fontawesome.com License - https://fontawesome.com/license (Commercial License) --><path d="M361 209L269 117C266 114 261 112 256 112S246 114 243 117L151 209C140 220 148 240 165 240H348C364 240 372 220 361 209ZM496 256C496 123 389 16 256 16S16 123 16 256S123 496 256 496S496 389 496 256ZM448 256C448 362 362 448 256 448S64 362 64 256S150 64 256 64S448 150 448 256ZM361 303C372 292 364 272 348 272H165C148 272 140 292 151 303L243 395C246 398 251 400 256 400S266 398 269 395L361 303ZM315 304L256 362L197 304H315Z"/></svg>