<svg xmlns="http://www.w3.org/2000/svg" viewBox="0 0 640 512"><!-- Font Awesome Pro 6.0.0-alpha1 by @fontawesome - https://fontawesome.com License - https://fontawesome.com/license (Commercial License) --><path d="M408 128C395 128 384 139 384 152V232H256V152C256 139 245 128 232 128S208 139 208 152V360C208 373 219 384 232 384S256 373 256 360V280H384V360C384 373 395 384 408 384S432 373 432 360V152C432 139 421 128 408 128ZM-1112 240H-1192C-1205 240 -1216 251 -1216 264S-1205 288 -1192 288H-1142C-1146 297 -1152 305 -1159 313C-1190 343 -1242 343 -1273 313C-1304 281 -1304 231 -1273 199C-1242 169 -1192 168 -1160 196C-1150 205 -1135 204 -1126 194C-1117 185 -1118 169 -1128 161C-1179 115 -1259 118 -1306 165C-1356 215 -1356 297 -1306 346C-1282 371 -1250 384 -1216 384S-1150 371 -1126 347C-1106 327 -1093 303 -1088 279C-1088 278 -1088 276 -1088 275V264C-1088 251 -1099 240 -1112 240ZM-1216 16C-1349 16 -1456 123 -1456 256S-1349 496 -1216 496S-976 389 -976 256S-1083 16 -1216 16ZM-1216 448C-1322 448 -1408 362 -1408 256S-1322 64 -1216 64S-1024 150 -1024 256S-1110 448 -1216 448ZM320 16C187 16 80 123 80 256S187 496 320 496S560 389 560 256S453 16 320 16ZM320 448C214 448 128 362 128 256S214 64 320 64S512 150 512 256S426 448 320 448Z"/></svg>