<svg xmlns="http://www.w3.org/2000/svg" viewBox="0 0 512 512"><!-- Font Awesome Pro 6.0.0-alpha1 by @fontawesome - https://fontawesome.com License - https://fontawesome.com/license (Commercial License) --><path d="M342 248L280 315V144C280 131 269 120 256 120S232 131 232 144V315L170 248C161 238 145 237 136 246C126 255 125 271 134 280L238 392C243 397 249 400 256 400S269 397 274 392L378 280C387 271 386 255 376 246C367 237 351 238 342 248ZM256 16C123 16 16 123 16 256S123 496 256 496S496 389 496 256S389 16 256 16ZM256 448C150 448 64 362 64 256S150 64 256 64S448 150 448 256S362 448 256 448Z"/></svg>