<svg xmlns="http://www.w3.org/2000/svg" viewBox="0 0 512 512"><!-- Font Awesome Pro 6.0.0-alpha1 by @fontawesome - https://fontawesome.com License - https://fontawesome.com/license (Commercial License) --><path d="M256 16C123 16 16 123 16 256S123 496 256 496S496 389 496 256S389 16 256 16ZM256 448C150 448 64 362 64 256S150 64 256 64S448 150 448 256S362 448 256 448ZM256 304C269 304 280 293 280 280V152C280 139 269 128 256 128S232 139 232 152V280C232 293 243 304 256 304ZM256 337C239 337 225 351 225 369C225 386 239 400 256 400S287 386 287 369C287 351 273 337 256 337Z"/></svg>