<svg xmlns="http://www.w3.org/2000/svg" viewBox="0 0 512 512"><!-- Font Awesome Pro 6.0.0-alpha1 by @fontawesome - https://fontawesome.com License - https://fontawesome.com/license (Commercial License) --><path d="M256 16C123 16 16 123 16 256S123 496 256 496S496 389 496 256S389 16 256 16ZM256 448C150 448 64 362 64 256S150 64 256 64S448 150 448 256S362 448 256 448ZM216 142C212 139 205 139 200 142C195 145 192 150 192 156V356C192 362 195 367 200 370C203 371 205 372 208 372C211 372 214 371 216 370L376 270C381 267 384 262 384 256S381 245 376 242L216 142Z"/></svg>