<svg xmlns="http://www.w3.org/2000/svg" viewBox="0 0 512 512"><!-- Font Awesome Pro 6.0.0-alpha1 by @fontawesome - https://fontawesome.com License - https://fontawesome.com/license (Commercial License) --><path d="M256 16C123 16 16 123 16 256S123 496 256 496S496 389 496 256S389 16 256 16ZM256 448C150 448 64 362 64 256S150 64 256 64S448 150 448 256S362 448 256 448ZM344 240H288L288 152C288 139 277 128 264 128H248C235 128 224 139 224 152L224 240H168C158 240 150 246 146 254C142 263 144 273 150 280L239 376C244 381 250 384 257 384C265 384 270 381 275 376L362 280C368 273 370 263 366 254S354 240 344 240Z"/></svg>