<svg xmlns="http://www.w3.org/2000/svg" viewBox="0 0 512 512"><!-- Font Awesome Pro 6.0.0-alpha1 by @fontawesome - https://fontawesome.com License - https://fontawesome.com/license (Commercial License) --><path d="M256 16C123 16 16 123 16 256S123 496 256 496S496 389 496 256S389 16 256 16ZM256 448C150 448 64 362 64 256S150 64 256 64S448 150 448 256S362 448 256 448ZM282 226L220 219L229 176H312C325 176 336 165 336 152S325 128 312 128H209C197 128 187 136 185 148L168 236C167 242 169 249 173 254C177 260 183 263 189 264L277 274C292 276 304 289 304 305C304 322 290 336 273 336H223C216 336 209 331 207 324C203 311 189 305 176 309C164 313 157 327 161 339C170 366 195 384 223 384H273C317 384 352 349 352 305C352 265 322 231 282 226Z"/></svg>