<svg xmlns="http://www.w3.org/2000/svg" viewBox="0 0 512 512"><!-- Font Awesome Pro 6.0.0-alpha1 by @fontawesome - https://fontawesome.com License - https://fontawesome.com/license (Commercial License) --><path d="M273 136C268 131 262 128 255 128C247 128 242 131 238 136L150 232C144 239 142 249 146 258C150 266 158 272 168 272H224L224 360C224 373 235 384 248 384H264C277 384 288 373 288 360L288 272H344C354 272 362 266 366 258C370 249 368 239 362 232L273 136ZM256 16C123 16 16 123 16 256S123 496 256 496S496 389 496 256S389 16 256 16ZM256 448C150 448 64 362 64 256S150 64 256 64S448 150 448 256S362 448 256 448Z"/></svg>