<svg xmlns="http://www.w3.org/2000/svg" viewBox="0 0 512 512"><!-- Font Awesome Pro 6.0.0-alpha1 by @fontawesome - https://fontawesome.com License - https://fontawesome.com/license (Commercial License) --><path d="M171 362C171 374 182 384 195 384H317C330 384 341 374 341 362L351 208H161L171 362ZM256 16C123 16 16 123 16 256S123 496 256 496S496 389 496 256S389 16 256 16ZM256 448C150 448 64 362 64 256S150 64 256 64S448 150 448 256S362 448 256 448ZM352 144H304L298 132C297 130 294 128 291 128H221C218 128 215 130 214 132L208 144H160C151 144 144 151 144 160C144 169 151 176 160 176H352C361 176 368 169 368 160C368 151 361 144 352 144Z"/></svg>