<svg xmlns="http://www.w3.org/2000/svg" viewBox="0 0 512 512"><!-- Font Awesome Pro 6.0.0-alpha1 by @fontawesome - https://fontawesome.com License - https://fontawesome.com/license (Commercial License) --><path d="M262 233C212 219 206 212 209 197C210 191 213 186 218 183C226 178 249 170 302 184C314 187 327 179 331 166C334 153 326 140 313 137C260 123 219 125 192 143C175 153 165 169 161 188C150 252 210 268 250 279C300 293 306 300 303 316C302 323 299 327 293 331C275 341 235 336 193 320C181 315 167 321 162 333C157 346 163 360 175 365C194 372 230 384 266 384C284 384 302 381 317 372C335 362 347 345 351 324C362 261 302 244 262 233ZM256 16C123 16 16 123 16 256S123 496 256 496S496 389 496 256S389 16 256 16ZM256 448C150 448 64 362 64 256S150 64 256 64S448 150 448 256S362 448 256 448Z"/></svg>