<svg xmlns="http://www.w3.org/2000/svg" viewBox="0 0 512 512"><!-- Font Awesome Pro 6.0.0-alpha1 by @fontawesome - https://fontawesome.com License - https://fontawesome.com/license (Commercial License) --><path d="M256 16C123 16 16 123 16 256S123 496 256 496S496 389 496 256S389 16 256 16ZM256 448C150 448 64 362 64 256S150 64 256 64S448 150 448 256S362 448 256 448ZM329 154L133 238C124 242 118 252 120 262C123 273 132 280 142 280H232V370C232 380 239 389 250 392C251 392 253 392 254 392C263 392 271 387 274 379L358 183V183C362 174 360 165 354 158C347 152 338 150 329 154Z"/></svg>