<svg xmlns="http://www.w3.org/2000/svg" viewBox="0 0 512 512"><!-- Font Awesome Pro 6.0.0-alpha1 by @fontawesome - https://fontawesome.com License - https://fontawesome.com/license (Commercial License) --><path d="M360 224L272 224V168C272 158 266 150 258 146C249 142 239 144 232 150L136 239C131 244 128 250 128 257C128 265 131 270 136 275L232 362C239 368 249 370 258 366S272 354 272 344L272 288L360 288C373 288 384 277 384 264V248C384 235 373 224 360 224ZM256 16C123 16 16 123 16 256S123 496 256 496S496 389 496 256S389 16 256 16ZM256 448C150 448 64 362 64 256S150 64 256 64S448 150 448 256S362 448 256 448Z"/></svg>