<svg xmlns="http://www.w3.org/2000/svg" viewBox="0 0 512 512"><!-- Font Awesome Pro 6.0.0-alpha1 by @fontawesome - https://fontawesome.com License - https://fontawesome.com/license (Commercial License) --><path d="M328 336H230L348 166C353 158 353 149 349 141C345 133 337 128 328 128H184C171 128 160 139 160 152S171 176 184 176H282L164 346C159 354 159 363 163 371C167 379 175 384 184 384H328C341 384 352 373 352 360S341 336 328 336ZM256 16C123 16 16 123 16 256S123 496 256 496S496 389 496 256S389 16 256 16ZM256 448C150 448 64 362 64 256S150 64 256 64S448 150 448 256S362 448 256 448Z"/></svg>