<svg xmlns="http://www.w3.org/2000/svg" viewBox="0 0 512 512"><!-- Font Awesome Pro 6.0.0-alpha1 by @fontawesome - https://fontawesome.com License - https://fontawesome.com/license (Commercial License) --><path d="M256 16C123 16 16 123 16 256S123 496 256 496S496 389 496 256S389 16 256 16ZM256 448C150 448 64 362 64 256S150 64 256 64S448 150 448 256S362 448 256 448ZM216 160H168C159 160 152 167 152 176V336C152 345 159 352 168 352H216C225 352 232 345 232 336V176C232 167 225 160 216 160ZM344 160H296C287 160 280 167 280 176V336C280 345 287 352 296 352H344C353 352 360 345 360 336V176C360 167 353 160 344 160Z"/></svg>