<svg xmlns="http://www.w3.org/2000/svg" viewBox="0 0 512 512"><!-- Font Awesome Pro 6.0.0-alpha1 by @fontawesome - https://fontawesome.com License - https://fontawesome.com/license (Commercial License) --><path d="M359 134C349 125 334 126 326 136L256 219L186 137C178 126 163 125 153 134C142 142 141 157 150 167L225 256L150 345C141 355 142 370 152 378C157 382 163 384 168 384C175 384 182 381 186 375L256 293L326 375C330 381 337 384 344 384C349 384 355 382 359 378C370 370 371 355 362 345L287 256L362 167C371 157 370 142 359 134ZM256 16C123 16 16 123 16 256S123 496 256 496S496 389 496 256S389 16 256 16ZM256 448C150 448 64 362 64 256S150 64 256 64S448 150 448 256S362 448 256 448Z"/></svg>