<svg xmlns="http://www.w3.org/2000/svg" viewBox="0 0 512 512"><!-- Font Awesome Pro 6.0.0-alpha1 by @fontawesome - https://fontawesome.com License - https://fontawesome.com/license (Commercial License) --><path d="M256 16C123 16 16 123 16 256S123 496 256 496S496 389 496 256S389 16 256 16ZM256 448C150 448 64 362 64 256S150 64 256 64S448 150 448 256S362 448 256 448ZM336 200C336 160 304 128 264 128H248C208 128 176 160 176 200C176 216 181 230 190 242C172 257 160 279 160 304C160 348 196 384 240 384H272C316 384 352 348 352 304C352 279 340 257 322 242C331 230 336 216 336 200ZM248 176H264C277 176 288 187 288 200S277 224 264 224H248C235 224 224 213 224 200S235 176 248 176ZM272 336H240C222 336 208 322 208 304S222 272 240 272H272C290 272 304 286 304 304S290 336 272 336Z"/></svg>