<svg xmlns="http://www.w3.org/2000/svg" viewBox="0 0 512 512"><!-- Font Awesome Pro 6.0.0-alpha1 by @fontawesome - https://fontawesome.com License - https://fontawesome.com/license (Commercial License) --><path d="M280 150C273 144 263 142 254 146S240 158 240 168L240 224L152 224C139 224 128 235 128 248V264C128 277 139 288 152 288L240 288V344C240 354 246 362 254 366C263 370 273 368 280 362L376 273C381 268 384 262 384 255C384 247 381 242 376 237L280 150ZM256 16C123 16 16 123 16 256S123 496 256 496S496 389 496 256S389 16 256 16ZM256 448C150 448 64 362 64 256S150 64 256 64S448 150 448 256S362 448 256 448Z"/></svg>