<svg xmlns="http://www.w3.org/2000/svg" viewBox="0 0 512 512"><!-- Font Awesome Pro 6.0.0-alpha1 by @fontawesome - https://fontawesome.com License - https://fontawesome.com/license (Commercial License) --><path d="M256 16C123 16 16 123 16 256S123 496 256 496S496 389 496 256S389 16 256 16ZM256 448C150 448 64 362 64 256S150 64 256 64S448 150 448 256S362 448 256 448ZM328 128H184C171 128 160 139 160 152S171 176 184 176H288L195 349C189 360 193 375 205 381C208 383 212 384 216 384C225 384 233 379 237 371L349 163C353 156 353 147 349 140C344 132 336 128 328 128Z"/></svg>