<svg xmlns="http://www.w3.org/2000/svg" viewBox="0 0 512 512"><!-- Font Awesome Pro 6.0.0-alpha1 by @fontawesome - https://fontawesome.com License - https://fontawesome.com/license (Commercial License) --><path d="M256 16C123 16 16 123 16 256S123 496 256 496S496 389 496 256S389 16 256 16ZM256 448C150 448 64 362 64 256S150 64 256 64S448 150 448 256S362 448 256 448ZM305 127C296 118 280 118 271 127L159 239C154 244 152 250 152 256S154 268 159 273L271 385C280 394 296 394 305 385S314 360 305 351L210 256L305 161C314 152 314 136 305 127Z"/></svg>