<svg xmlns="http://www.w3.org/2000/svg" viewBox="0 0 512 512"><!-- Font Awesome Pro 6.0.0-alpha1 by @fontawesome - https://fontawesome.com License - https://fontawesome.com/license (Commercial License) --><path d="M256 16C123 16 16 123 16 256S123 496 256 496S496 389 496 256S389 16 256 16ZM256 448C150 448 64 362 64 256S150 64 256 64S448 150 448 256S362 448 256 448ZM256 128C203 128 160 171 160 224V288C160 341 203 384 256 384S352 341 352 288V224C352 171 309 128 256 128ZM304 288C304 314 282 336 256 336S208 314 208 288V224C208 198 230 176 256 176S304 198 304 224V288Z"/></svg>