<svg xmlns="http://www.w3.org/2000/svg" viewBox="0 0 512 512"><!-- Font Awesome Pro 6.0.0-alpha1 by @fontawesome - https://fontawesome.com License - https://fontawesome.com/license (Commercial License) --><path d="M280 128H184C171 128 160 139 160 152V360C160 373 171 384 184 384S208 373 208 360V304H280C329 304 368 265 368 216S329 128 280 128ZM280 256H208V176H280C302 176 320 194 320 216S302 256 280 256ZM256 16C123 16 16 123 16 256S123 496 256 496S496 389 496 256S389 16 256 16ZM256 448C150 448 64 362 64 256S150 64 256 64S448 150 448 256S362 448 256 448Z"/></svg>