<svg xmlns="http://www.w3.org/2000/svg" viewBox="0 0 640 512"><!-- Font Awesome Pro 6.0.0-alpha1 by @fontawesome - https://fontawesome.com License - https://fontawesome.com/license (Commercial License) --><path d="M244 384H204C197 384 192 389 192 396V436C192 443 197 448 204 448H244C251 448 256 443 256 436V396C256 389 251 384 244 384ZM244 192H204C197 192 192 197 192 204V244C192 251 197 256 204 256H244C251 256 256 251 256 244V204C256 197 251 192 244 192ZM148 192H108C101 192 96 197 96 204V244C96 251 101 256 108 256H148C155 256 160 251 160 244V204C160 197 155 192 148 192ZM148 384H108C101 384 96 389 96 396V436C96 443 101 448 108 448H148C155 448 160 443 160 436V396C160 389 155 384 148 384ZM148 288H108C101 288 96 293 96 300V340C96 347 101 352 108 352H148C155 352 160 347 160 340V300C160 293 155 288 148 288ZM244 288H204C197 288 192 293 192 300V340C192 347 197 352 204 352H244C251 352 256 347 256 340V300C256 293 251 288 244 288ZM532 384H492C485 384 480 389 480 396V436C480 443 485 448 492 448H532C539 448 544 443 544 436V396C544 389 539 384 532 384ZM532 288H492C485 288 480 293 480 300V340C480 347 485 352 492 352H532C539 352 544 347 544 340V300C544 293 539 288 532 288ZM608 192H512V32C512 14 498 0 480 0H288C270 0 256 14 256 32V96H224V24C224 11 213 0 200 0H200C187 0 176 11 176 24V96H112V24C112 11 101 0 88 0H88C75 0 64 11 64 24V96H32C14 96 0 110 0 128V488C0 501 11 512 24 512H24C37 512 48 501 48 488V144H304V48H464V240H592V488C592 501 603 512 616 512L616 512C629 512 640 501 640 488V224C640 206 626 192 608 192ZM404 96H364C357 96 352 101 352 108V148C352 155 357 160 364 160H404C411 160 416 155 416 148V108C416 101 411 96 404 96ZM404 288H364C357 288 352 293 352 300V340C352 347 357 352 364 352H404C411 352 416 347 416 340V300C416 293 411 288 404 288ZM404 192H364C357 192 352 197 352 204V244C352 251 357 256 364 256H404C411 256 416 251 416 244V204C416 197 411 192 404 192Z"/></svg>