<svg xmlns="http://www.w3.org/2000/svg" viewBox="0 0 512 512"><!-- Font Awesome Pro 6.0.0-alpha1 by @fontawesome - https://fontawesome.com License - https://fontawesome.com/license (Commercial License) --><path d="M7 225C2 222 -2 229 2 233L87 318C93 324 96 332 96 340V384H140C148 384 156 387 162 393L280 510C283 514 290 510 287 505C206 333 64 251 7 225ZM247 30C253 36 256 44 256 52V96H300C308 96 316 99 322 105L375 158C381 164 384 172 384 180V224H428C436 224 444 227 450 233L503 286C507 290 514 286 511 281C430 109 287 27 231 1C226 -2 222 5 226 9L247 30ZM509 466L507 463C453 348 322 134 46 3C32 -3 15 1 6 14C-3 26 -1 44 8 53L152 233V296H214L280 362V424H344L459 504C465 509 472 512 480 512C486 512 493 510 498 506C511 497 515 481 509 466ZM360 376H328V342L234 248H200V216L93 82C277 189 383 335 436 429L360 376Z"/></svg>