<svg xmlns="http://www.w3.org/2000/svg" viewBox="0 0 384 512"><!-- Font Awesome Pro 6.0.0-alpha1 by @fontawesome - https://fontawesome.com License - https://fontawesome.com/license (Commercial License) --><path d="M320 64H270C263 27 231 0 192 0S121 27 114 64H64C29 64 0 93 0 128V448C0 483 29 512 64 512H320C355 512 384 483 384 448V128C384 93 355 64 320 64ZM192 48C205 48 216 59 216 72S205 96 192 96S168 85 168 72S179 48 192 48ZM336 448C336 457 329 464 320 464H64C55 464 48 457 48 448V128C48 119 55 112 64 112H82C81 117 80 122 80 128V144C80 153 87 160 96 160H288C297 160 304 153 304 144V128C304 122 303 117 302 112H320C329 112 336 119 336 128V448ZM272 288H224V240C224 231 217 224 208 224H176C167 224 160 231 160 240V288H112C103 288 96 295 96 304V336C96 345 103 352 112 352H160V400C160 409 167 416 176 416H208C217 416 224 409 224 400V352H272C281 352 288 345 288 336V304C288 295 281 288 272 288Z"/></svg>