<svg xmlns="http://www.w3.org/2000/svg" viewBox="0 0 448 512"><!-- Font Awesome Pro 6.0.0-alpha1 by @fontawesome - https://fontawesome.com License - https://fontawesome.com/license (Commercial License) --><path d="M248 228V120C248 107 237 96 224 96S200 107 200 120V240C200 248 204 255 210 259L274 307C278 310 283 312 288 312C295 312 302 309 307 302C315 292 313 277 302 269L248 228ZM224 0C100 0 0 100 0 224C0 228 0 460 0 460C0 489 23 512 52 512H396C425 512 448 489 448 460C448 460 448 228 448 224C448 100 348 0 224 0ZM224 400C127 400 48 321 48 224S127 48 224 48S400 127 400 224S321 400 224 400Z"/></svg>