<svg xmlns="http://www.w3.org/2000/svg" viewBox="0 0 512 512"><!-- Font Awesome Pro 6.0.0-alpha1 by @fontawesome - https://fontawesome.com License - https://fontawesome.com/license (Commercial License) --><path d="M256 32C176 32 104 76 64 142V56C64 43 53 32 40 32S16 43 16 56V200C16 213 27 224 40 224H168C181 224 192 213 192 200S181 176 168 176H100C129 118 189 80 256 80C353 80 432 159 432 256S353 432 256 432C215 432 175 418 143 391C133 383 118 384 110 394C101 405 102 420 113 428C153 462 204 480 256 480C379 480 480 379 480 256S379 32 256 32ZM256 128C243 128 232 139 232 152V272C232 280 236 287 242 292L298 332C302 335 307 336 312 336C319 336 327 333 332 326C339 315 337 300 326 292L280 260V152C280 139 269 128 256 128Z"/></svg>