<svg xmlns="http://www.w3.org/2000/svg" viewBox="0 0 512 512"><!-- Font Awesome Pro 6.0.0-alpha1 by @fontawesome - https://fontawesome.com License - https://fontawesome.com/license (Commercial License) --><path d="M256 16C123 16 16 123 16 256S123 496 256 496S496 389 496 256S389 16 256 16ZM256 448C150 448 64 362 64 256S150 64 256 64S448 150 448 256S362 448 256 448ZM280 260V152C280 139 269 128 256 128S232 139 232 152V272C232 280 236 287 242 291L306 339C310 342 315 344 320 344C327 344 334 341 339 334C347 324 345 309 334 301L280 260Z"/></svg>