<svg xmlns="http://www.w3.org/2000/svg" viewBox="0 0 576 512"><!-- Font Awesome Pro 6.0.0-alpha1 by @fontawesome - https://fontawesome.com License - https://fontawesome.com/license (Commercial License) --><path d="M568 224C498 237 433 183 433 113C433 72 455 35 490 15C496 12 495 4 488 2C480 1 471 0 462 0C398 0 345 41 325 98C354 111 377 133 390 162C426 188 448 231 448 276C448 280 448 283 447 286C452 287 457 288 462 288C506 288 547 268 574 235C579 230 574 223 568 224ZM278 336H220L237 271C239 264 234 256 226 256H158C152 256 146 260 146 266L130 386C129 394 134 400 142 400H201L178 497C176 505 182 512 190 512C194 512 198 510 200 506L288 354C293 346 287 336 278 336ZM363 183C351 147 317 120 276 120C273 120 270 120 267 121C245 105 219 96 192 96C140 96 94 127 75 173C31 187 0 228 0 276C0 332 43 378 98 383C98 382 98 381 98 380L104 335C73 333 48 308 48 276C48 243 75 216 108 216C110 216 111 216 113 216C117 176 150 144 192 144C217 144 239 156 254 174C261 170 268 168 276 168C300 168 320 188 320 212C320 214 320 215 319 217C347 223 368 247 368 276C368 305 347 329 320 335C323 346 321 358 316 368L306 384H308C367 384 416 336 416 276C416 237 395 202 363 183Z"/></svg>