<svg xmlns="http://www.w3.org/2000/svg" viewBox="0 0 640 512"><!-- Font Awesome Pro 6.0.0-alpha1 by @fontawesome - https://fontawesome.com License - https://fontawesome.com/license (Commercial License) --><path d="M128 208C128 246 157 278 192 288C199 278 205 272 215 266C227 230 250 198 279 176C269 147 240 128 208 128C163 128 128 163 128 208ZM96 208C96 147 147 96 208 96C253 96 291 122 307 160C330 150 352 144 375 144C384 144 394 144 403 147L413 134C419 128 413 115 407 115L317 99L301 10C301 0 288 -3 282 3L208 54L135 3C128 -3 115 0 115 10L99 99L10 115C0 115 -3 128 3 134L55 208L3 282C-3 288 0 301 10 301L99 317L115 406C115 416 128 419 135 413L160 394C160 390 160 387 160 384C160 358 167 336 176 314C131 301 96 259 96 208ZM583 298C576 246 531 208 480 208C474 208 471 208 464 208C439 186 410 176 375 176C311 176 256 221 243 282C211 304 192 342 192 384C192 454 250 512 320 512H525C589 512 640 461 640 397C640 355 618 317 583 298ZM525 464H320C275 464 240 429 240 384C240 352 259 323 288 310C288 262 327 224 378 224C410 224 435 240 451 266C458 259 471 256 480 256C512 256 538 282 538 314C538 320 538 326 535 330C567 333 592 362 592 397C592 435 563 464 525 464Z "></path></svg>