<svg xmlns="http://www.w3.org/2000/svg" viewBox="0 0 640 512"><!-- Font Awesome Pro 6.0.0-alpha1 by @fontawesome - https://fontawesome.com License - https://fontawesome.com/license (Commercial License) --><path d="M200 464H88C75 464 64 475 64 488V488C64 501 75 512 88 512H200C213 512 224 501 224 488V488C224 475 213 464 200 464ZM616 464H296C283 464 272 475 272 488V488C272 501 283 512 296 512H616C629 512 640 501 640 488V488C640 475 629 464 616 464ZM576 400L576 400C576 387 565 376 552 376H24C11 376 0 387 0 400V400C0 413 11 424 24 424H552C565 424 576 413 576 400ZM172 320H468C528 320 576 271 576 212C576 155 531 108 475 104C461 62 422 32 376 32C362 32 349 35 337 40C314 14 282 0 248 0C184 0 132 50 128 113C90 130 64 169 64 212C64 271 112 320 172 320ZM158 154L179 149L176 124C176 123 176 121 176 120C176 80 208 48 248 48C273 48 296 61 309 83L323 105L344 90C353 84 364 80 376 80C405 80 428 102 431 130L434 152H468C501 152 528 179 528 212S501 272 468 272H172C139 272 112 245 112 212C112 184 131 160 158 154Z"/></svg>