<svg xmlns="http://www.w3.org/2000/svg" viewBox="0 0 640 512"><!-- Font Awesome Pro 6.0.0-alpha1 by @fontawesome - https://fontawesome.com License - https://fontawesome.com/license (Commercial License) --><path d="M543 214C543 212 544 210 544 208C544 146 494 96 432 96C421 96 410 98 399 101C369 60 320 32 264 32C171 32 95 108 96 201C40 221 0 273 0 336C0 416 64 480 144 480H504C579 480 640 419 640 344C640 283 599 231 543 214ZM504 432H144C91 432 48 389 48 336C48 296 74 260 112 246L144 235C144 196 144 201 144 197C145 132 199 80 264 80C302 80 338 98 361 130L381 157L413 147C462 132 498 173 495 212L493 249L529 260C567 272 592 305 592 344C592 393 553 432 504 432ZM363 177L235 224C229 226 224 232 224 239V338C219 337 213 336 208 336C182 336 160 350 160 368S182 400 208 400S256 386 256 368V283L352 246V306C347 305 341 304 336 304C310 304 288 318 288 336S310 368 336 368S384 354 384 336V192C384 187 382 182 378 179S368 175 363 177Z"/></svg>