<svg xmlns="http://www.w3.org/2000/svg" viewBox="0 0 576 512"><!-- Font Awesome Pro 6.0.0-alpha1 by @fontawesome - https://fontawesome.com License - https://fontawesome.com/license (Commercial License) --><path d="M566 261C484 277 408 214 408 132C408 84 434 41 476 17C482 14 480 4 473 3C465 1 451 0 442 0C348 0 272 75 272 168C272 169 272 169 272 170C276 172 279 174 283 176C284 176 286 176 288 176C350 176 404 218 419 277C440 292 456 312 466 334C509 328 547 306 574 274C579 268 574 260 566 261ZM391 296C383 246 340 208 288 208C283 208 278 208 273 209C249 188 217 176 184 176C120 176 66 221 52 281C20 305 0 343 0 384C0 455 57 512 128 512H332C396 512 448 460 448 396C448 354 425 317 391 296ZM332 464H128C84 464 48 428 48 384C48 351 68 323 96 311C97 263 136 224 184 224C215 224 242 240 258 265C267 259 277 256 288 256C319 256 344 281 344 312C344 318 343 323 341 329C374 333 400 362 400 396C400 434 370 464 332 464Z"/></svg>