<svg xmlns="http://www.w3.org/2000/svg" viewBox="0 0 512 512"><!-- Font Awesome Pro 6.0.0-alpha1 by @fontawesome - https://fontawesome.com License - https://fontawesome.com/license (Commercial License) --><path d="M48 360C39 360 32 367 32 376V416C32 425 39 432 48 432S64 425 64 416V376C64 367 57 360 48 360ZM144 440C135 440 128 447 128 456V496C128 505 135 512 144 512S160 505 160 496V456C160 447 153 440 144 440ZM240 360C231 360 224 367 224 376V416C224 425 231 432 240 432S256 425 256 416V376C256 367 249 360 240 360ZM336 440C327 440 320 447 320 456V496C320 505 327 512 336 512S352 505 352 496V456C352 447 345 440 336 440ZM432 360C423 360 416 367 416 376V416C416 425 423 432 432 432S448 425 448 416V376C448 367 441 360 432 360ZM411 104C397 62 358 32 312 32C298 32 285 35 273 40C250 14 218 0 184 0C120 0 68 50 64 113C26 130 0 169 0 212C0 271 48 320 108 320H404C464 320 512 271 512 212C512 155 467 108 411 104ZM404 272H108C75 272 48 245 48 212C48 184 67 160 94 154L115 149L112 124C112 123 112 121 112 120C112 80 144 48 184 48C209 48 232 61 245 83L259 105L280 90C289 84 300 80 312 80C341 80 364 102 367 130L370 152H404C437 152 464 179 464 212S437 272 404 272Z"/></svg>