<svg xmlns="http://www.w3.org/2000/svg" viewBox="0 0 640 512"><!-- Font Awesome Pro 6.0.0-alpha1 by @fontawesome - https://fontawesome.com License - https://fontawesome.com/license (Commercial License) --><path d="M208 352H176C167 352 160 359 160 368C160 377 167 384 176 384H208C217 384 224 377 224 368C224 359 217 352 208 352ZM368 352H272C263 352 256 359 256 368C256 377 263 384 272 384H368C377 384 384 377 384 368C384 359 377 352 368 352ZM288 304C288 295 281 288 272 288H144C135 288 128 295 128 304C128 313 135 320 144 320H272C281 320 288 313 288 304ZM464 352H432C423 352 416 359 416 368C416 377 423 384 432 384H464C473 384 480 377 480 368C480 359 473 352 464 352ZM496 288H336C327 288 320 295 320 304C320 313 327 320 336 320H496C505 320 512 313 512 304C512 295 505 288 496 288ZM543 214C543 212 544 210 544 208C544 146 494 96 432 96C421 96 410 98 399 101C369 60 320 32 264 32C171 32 95 108 96 201C40 221 0 273 0 336C0 416 65 480 144 480H504C579 480 640 419 640 344C640 283 599 231 543 214ZM504 432H144C91 432 48 389 48 336C48 296 74 260 112 246L144 235C144 196 144 201 144 197C145 132 199 80 264 80C302 80 338 98 361 130L381 157L413 147C462 132 498 173 495 212L493 249L529 260C567 272 592 305 592 344C592 393 553 432 504 432Z"/></svg>