<svg xmlns="http://www.w3.org/2000/svg" viewBox="0 0 640 512"><!-- Font Awesome Pro 6.0.0-alpha1 by @fontawesome - https://fontawesome.com License - https://fontawesome.com/license (Commercial License) --><path d="M96 208C96 146 146 96 208 96C245 96 277 114 298 142C306 134 314 127 324 122C328 115 333 109 337 102L317 99L301 10C300 1 289 -3 282 2L208 54L134 2C127 -3 116 1 115 10L99 99L10 115C1 116 -3 127 2 134L54 208L2 282C-3 289 1 300 10 301L99 317L115 406C116 413 124 417 130 415C129 408 128 400 128 392C128 360 138 331 155 306C120 287 96 250 96 208ZM128 208C128 241 148 269 176 281C187 271 200 262 214 255C225 236 241 219 260 206C263 192 269 179 277 168C263 144 237 128 208 128C164 128 128 164 128 208ZM640 237C640 186 602 144 552 138C532 103 494 80 452 80C406 80 366 106 348 146C316 160 293 190 289 225C267 238 248 257 237 280C191 298 160 341 160 392C160 458 214 512 280 512H520C586 512 640 458 640 392C640 360 627 331 607 310C627 292 640 266 640 237ZM520 464H280C240 464 208 432 208 392C208 354 237 324 274 321C281 284 313 256 352 256C376 256 397 267 412 283C422 276 435 272 448 272C478 272 503 293 510 321C513 321 517 320 520 320C560 320 592 352 592 392S560 464 520 464ZM566 281C558 278 550 275 541 274C521 243 486 224 448 224C438 224 429 225 420 228C400 215 376 208 352 208C350 208 348 208 346 209C354 196 368 187 385 186C390 153 418 128 452 128C488 128 517 156 520 191C526 188 533 186 541 186C569 186 592 209 592 237C592 256 581 273 566 281Z"/></svg>