<svg xmlns="http://www.w3.org/2000/svg" viewBox="0 0 512 512"><!-- Font Awesome Pro 6.0.0-alpha1 by @fontawesome - https://fontawesome.com License - https://fontawesome.com/license (Commercial License) --><path d="M48 368C39 368 32 375 32 384V464C32 473 39 480 48 480S64 473 64 464V384C64 375 57 368 48 368ZM144 400C135 400 128 407 128 416V496C128 505 135 512 144 512S160 505 160 496V416C160 407 153 400 144 400ZM240 368C231 368 224 375 224 384V464C224 473 231 480 240 480S256 473 256 464V384C256 375 249 368 240 368ZM336 400C327 400 320 407 320 416V496C320 505 327 512 336 512S352 505 352 496V416C352 407 345 400 336 400ZM432 368C423 368 416 375 416 384V464C416 473 423 480 432 480S448 473 448 464V384C448 375 441 368 432 368ZM411 104C397 62 358 32 312 32C298 32 285 35 273 40C250 14 218 0 184 0C120 0 68 50 64 113C26 130 0 169 0 212C0 271 48 320 108 320H404C464 320 512 271 512 212C512 155 467 108 411 104ZM404 272H108C75 272 48 245 48 212C48 184 67 160 94 154L115 149L112 124C112 123 112 121 112 120C112 80 144 48 184 48C209 48 232 61 245 83L259 105L280 90C289 84 300 80 312 80C341 80 364 102 367 130L370 152H404C437 152 464 179 464 212S437 272 404 272Z"/></svg>