<svg xmlns="http://www.w3.org/2000/svg" viewBox="0 0 576 512"><!-- Font Awesome Pro 6.0.0-alpha1 by @fontawesome - https://fontawesome.com License - https://fontawesome.com/license (Commercial License) --><path d="M561 48C569 48 576 41 576 32V16C576 7 568 0 559 0C419 6 298 87 236 204C220 196 202 192 184 192C120 192 68 242 64 305C26 322 0 361 0 404C0 463 48 512 108 512H404C464 512 512 463 512 404C512 366 492 332 461 313C485 282 520 261 561 257C569 256 576 249 576 241V225C576 216 568 208 559 209C498 214 445 248 414 297C413 296 412 296 411 296C405 278 395 263 381 251C423 195 487 157 561 152C569 152 576 145 576 137V121C576 111 568 104 559 104C468 110 389 157 339 228C331 225 321 224 312 224C300 224 288 226 277 230C331 126 437 54 561 48ZM312 272C341 272 364 294 367 322L370 344H404C437 344 464 371 464 404S437 464 404 464H108C75 464 48 437 48 404C48 376 67 352 94 346L115 341L112 316C112 315 112 313 112 312C112 272 144 240 184 240C209 240 232 253 245 275L259 297L280 282C289 276 301 272 312 272Z"/></svg>