<svg xmlns="http://www.w3.org/2000/svg" viewBox="0 0 640 512"><!-- Font Awesome Pro 6.0.0-alpha1 by @fontawesome - https://fontawesome.com License - https://fontawesome.com/license (Commercial License) --><path d="M170 120C160 110 145 109 136 118L8 238C3 243 0 249 0 256S3 269 8 274L136 394C140 398 146 400 152 400C158 400 165 397 170 392C179 383 178 368 168 358L59 256L168 154C178 144 179 129 170 120ZM390 1C378 -3 364 5 361 18L233 482C229 494 237 508 250 511C252 512 254 512 256 512C267 512 276 505 279 494L407 30C411 18 403 4 390 1ZM632 238L504 118C495 109 480 110 470 120C461 129 462 144 472 154L581 256L472 358C462 368 461 383 470 392C475 397 482 400 488 400C494 400 500 398 504 394L632 274C637 269 640 263 640 256S637 243 632 238Z"/></svg>