<svg xmlns="http://www.w3.org/2000/svg" viewBox="0 0 512 512"><!-- Font Awesome Pro 6.0.0-alpha1 by @fontawesome - https://fontawesome.com License - https://fontawesome.com/license (Commercial License) --><path d="M428 175L480 32H88C39 32 0 71 0 120V200C0 213 11 224 24 224H24C37 224 48 213 48 200V120C48 98 66 80 88 80H114L148 175C97 215 64 276 64 345C64 396 83 429 114 462C125 474 139 480 155 480L421 480C436 480 451 474 462 463C493 430 512 396 512 345C512 277 480 215 428 175ZM411 80L382 160H194L165 80H411ZM114 320C121 274 148 234 186 208H392C429 234 455 274 462 320H114Z"/></svg>