<svg xmlns="http://www.w3.org/2000/svg" viewBox="0 0 384 512"><!-- Font Awesome Pro 6.0.0-alpha1 by @fontawesome - https://fontawesome.com License - https://fontawesome.com/license (Commercial License) --><path d="M375 115L267 9C261 3 252 0 244 0H140C132 0 123 3 117 9L9 115C1 123 -2 135 1 146L88 488C92 502 105 512 120 512H264C279 512 292 502 296 488L383 146C386 135 383 123 375 115ZM253 464H131L50 143L146 48H238L334 143L253 464ZM216 120C216 107 205 96 192 96H192C179 96 168 107 168 120V160H120C107 160 96 171 96 184V184C96 197 107 208 120 208H168V328C168 341 179 352 192 352H192C205 352 216 341 216 328V208H264C277 208 288 197 288 184V184C288 171 277 160 264 160H216V120Z"/></svg>