<svg xmlns="http://www.w3.org/2000/svg" viewBox="0 0 512 512"><!-- Font Awesome Pro 6.0.0-alpha1 by @fontawesome - https://fontawesome.com License - https://fontawesome.com/license (Commercial License) --><path d="M0 216V424C0 482 97 512 192 512S384 482 384 424V216C384 100 0 100 0 216ZM336 424C336 434 286 464 192 464S48 434 48 424V380C85 399 139 408 192 408S299 399 336 380V424ZM336 320C336 330 286 360 192 360S48 330 48 320V276C85 295 139 304 192 304S299 295 336 276V320ZM192 256C98 256 48 226 48 216S98 176 192 176S336 206 336 216S286 256 192 256ZM320 0C239 0 169 21 142 53C133 63 134 78 145 87C155 95 170 94 178 84C193 66 248 48 320 48C414 48 464 78 464 88C464 90 457 102 424 113C412 117 405 131 409 143C413 153 422 160 432 160C435 160 437 159 440 158C449 155 457 152 464 148V192C464 194 457 206 423 217C411 222 404 235 408 248C412 258 421 264 431 264C434 264 436 264 439 263C448 259 457 256 464 252V296C464 298 457 310 424 321C412 325 405 339 409 351C413 361 422 368 432 368C435 368 437 367 440 366C503 345 512 313 512 296V88C512 30 415 0 320 0Z"/></svg>