<svg xmlns="http://www.w3.org/2000/svg" viewBox="0 0 512 512"><!-- Font Awesome Pro 6.0.0-alpha1 by @fontawesome - https://fontawesome.com License - https://fontawesome.com/license (Commercial License) --><path d="M324 149C317 142 306 142 299 149L280 168L328 216L347 197C354 190 354 179 347 172L324 149ZM173 275C171 277 170 279 170 281L160 329C159 333 163 337 167 336L215 326C217 326 219 325 221 323L312 233L264 185L173 275ZM256 32C115 32 0 125 0 240C0 288 20 331 53 366C38 406 7 439 7 439C0 446 -2 457 2 465C6 474 14 480 24 480C86 480 134 454 163 434C192 443 223 448 256 448C397 448 512 355 512 240S397 32 256 32ZM256 400C229 400 203 396 178 388L155 381L135 394C121 405 102 416 78 423C85 411 92 398 98 383L108 355L88 333C70 314 48 282 48 240C48 152 141 80 256 80C371 80 464 152 464 240S371 400 256 400Z"/></svg>