<svg xmlns="http://www.w3.org/2000/svg" viewBox="0 0 576 512"><!-- Font Awesome Pro 6.0.0-alpha1 by @fontawesome - https://fontawesome.com License - https://fontawesome.com/license (Commercial License) --><path d="M225 271V262C244 258 258 246 261 228C267 191 232 181 213 176L208 174C188 168 188 165 189 162C190 155 203 153 215 155C220 156 225 157 230 159C239 162 249 158 252 149C255 140 250 130 241 127C235 125 230 123 225 122V113C225 104 217 96 208 96S191 104 191 113V122C172 126 158 138 155 156C149 192 183 203 198 207L203 208C228 216 228 218 227 222C226 229 213 231 201 229C195 228 188 225 181 223L177 222C168 218 158 223 155 232C152 241 157 251 166 254L169 255C176 258 183 260 191 262V271C191 280 199 288 208 288S225 280 225 271ZM538 412C562 386 576 354 576 320C576 253 522 196 447 172C448 178 448 185 448 192C448 298 340 384 208 384C197 384 187 383 176 382C208 440 282 480 368 480C409 480 447 471 479 455C501 468 531 480 568 480C571 480 574 478 575 475C577 472 576 469 574 466C574 466 551 442 538 412ZM416 192C416 104 323 32 208 32C102 32 0 98 0 192C0 229 17 263 44 290C29 321 7 345 6 345C0 352 -2 362 2 370S14 384 23 384C77 384 120 364 148 345C149 345 182 352 208 352C323 352 416 280 416 192ZM139 294L122 305C108 314 94 321 79 326C82 322 84 317 87 312L102 280L78 256C64 243 48 221 48 192C48 123 137 80 208 80C295 80 368 131 368 192S295 304 208 304C181 304 164 299 139 294Z"/></svg>