<svg xmlns="http://www.w3.org/2000/svg" viewBox="0 0 512 512"><!-- Font Awesome Pro 6.0.0-alpha1 by @fontawesome - https://fontawesome.com License - https://fontawesome.com/license (Commercial License) --><path d="M319 223L280 262V160C280 147 269 136 256 136S232 147 232 160V262L193 223C188 218 182 216 176 216S164 218 159 223C150 232 150 248 159 257L239 337C248 346 264 346 273 337L353 257C362 248 362 232 353 223S328 214 319 223ZM256 32C115 32 0 125 0 240C0 288 20 331 53 366C38 406 7 439 7 439C0 446 -2 457 2 465C6 474 14 480 24 480C86 480 134 454 163 434C192 443 223 448 256 448C397 448 512 355 512 240S397 32 256 32ZM256 400C229 400 203 396 178 388L155 381L135 394C121 405 102 416 78 423C85 411 92 398 98 383L108 355L88 333C70 314 48 282 48 240C48 152 141 80 256 80C371 80 464 152 464 240S371 400 256 400Z"/></svg>