<svg xmlns="http://www.w3.org/2000/svg" viewBox="0 0 512 512"><!-- Font Awesome Pro 6.0.0-alpha1 by @fontawesome - https://fontawesome.com License - https://fontawesome.com/license (Commercial License) --><path d="M256 32C115 32 0 125 0 240C0 288 20 331 53 366C38 406 7 439 7 439C0 446 -2 457 2 465C6 474 14 480 24 480C86 480 134 454 163 434C192 443 223 448 256 448C397 448 512 355 512 240S397 32 256 32ZM256 400C229 400 203 396 178 388L155 381L135 394C121 405 102 416 78 423C85 411 92 398 98 383L108 355L88 333C70 314 48 282 48 240C48 152 141 80 256 80C371 80 464 152 464 240S371 400 256 400ZM216 144H152C139 144 128 155 128 168V216C128 229 139 240 152 240H192V256C192 274 178 288 160 288H156C149 288 144 293 144 300V324C144 331 149 336 156 336H160C204 336 240 300 240 256V168C240 155 229 144 216 144ZM360 144H296C283 144 272 155 272 168V216C272 229 283 240 296 240H336V256C336 274 322 288 304 288H300C293 288 288 293 288 300V324C288 331 293 336 300 336H304C348 336 384 300 384 256V168C384 155 373 144 360 144Z"/></svg>