<svg xmlns="http://www.w3.org/2000/svg" viewBox="0 0 512 512"><!-- Font Awesome Pro 6.0.0-alpha1 by @fontawesome - https://fontawesome.com License - https://fontawesome.com/license (Commercial License) --><path d="M256 32C115 32 0 125 0 240C0 288 20 331 53 366C38 406 7 439 7 439C0 446 -2 457 2 465C6 474 14 480 24 480C86 480 134 454 163 434C192 443 223 448 256 448C397 448 512 355 512 240S397 32 256 32ZM256 400C229 400 203 396 178 388L155 381L135 394C121 405 102 416 78 423C85 411 92 398 98 383L108 355L88 333C70 314 48 282 48 240C48 152 141 80 256 80S464 152 464 240S371 400 256 400ZM240 216C240 203 229 192 216 192H120C107 192 96 203 96 216S107 240 120 240H216C229 240 240 229 240 216ZM296 272H216C203 272 192 283 192 296S203 320 216 320H296C309 320 320 309 320 296S309 272 296 272ZM136 272H120C107 272 96 283 96 296S107 320 120 320H136C149 320 160 309 160 296S149 272 136 272ZM392 272H376C363 272 352 283 352 296S363 320 376 320H392C405 320 416 309 416 296S405 272 392 272ZM392 192H296C283 192 272 203 272 216S283 240 296 240H392C405 240 416 229 416 216S405 192 392 192Z"/></svg>