<svg xmlns="http://www.w3.org/2000/svg" viewBox="0 0 512 512"><!-- Font Awesome Pro 6.0.0-alpha1 by @fontawesome - https://fontawesome.com License - https://fontawesome.com/license (Commercial License) --><path d="M256 32C115 32 0 125 0 240C0 288 20 331 53 366C38 406 7 439 7 439C0 446 -2 457 2 466C6 474 14 480 24 480C85 480 134 454 163 434C193 443 224 448 256 448C397 448 512 355 512 240S397 32 256 32ZM256 400C229 400 203 396 178 388L155 381L135 394C118 407 98 417 78 423C86 411 92 397 98 383L108 355L88 333C70 314 48 282 48 240C48 152 141 80 256 80C371 80 464 152 464 240S371 400 256 400ZM331 129L203 176C196 178 192 184 192 191V290C187 289 181 288 176 288C149 288 128 302 128 320S149 352 176 352S224 338 224 320V235L320 198V258C315 257 309 256 304 256C277 256 256 270 256 288S277 320 304 320S352 306 352 288V144C352 139 350 134 345 131S336 127 331 129H331Z"/></svg>