<svg xmlns="http://www.w3.org/2000/svg" viewBox="0 0 384 512"><!-- Font Awesome Pro 6.0.0-alpha1 by @fontawesome - https://fontawesome.com License - https://fontawesome.com/license (Commercial License) --><path d="M224 0H160C72 0 0 72 0 160V352C0 440 72 512 160 512H224C312 512 384 440 384 352V160C384 72 312 0 224 0ZM336 352C336 414 286 464 224 464H160C98 464 48 414 48 352V160C48 98 98 48 160 48H224C286 48 336 98 336 160V352ZM192 96C174 96 160 110 160 128V160C160 178 174 192 192 192C210 192 224 178 224 160V128C224 110 210 96 192 96Z"/></svg>