<svg xmlns="http://www.w3.org/2000/svg" viewBox="0 0 512 512"><!-- Font Awesome Pro 6.0.0-alpha1 by @fontawesome - https://fontawesome.com License - https://fontawesome.com/license (Commercial License) --><path d="M256 16C123 16 16 123 16 256S123 496 256 496S496 389 496 256S389 16 256 16ZM256 448C150 448 64 362 64 256S150 64 256 64S448 150 448 256S362 448 256 448ZM228 131C236 129 242 121 240 112C238 103 229 98 220 100C161 113 113 161 100 220C98 229 103 238 112 240C113 240 114 240 116 240C123 240 130 235 131 228C142 180 180 142 228 131ZM256 160C203 160 160 203 160 256C160 309 203 352 256 352S352 309 352 256C352 203 309 160 256 160ZM256 280C243 280 232 269 232 256S243 232 256 232S280 243 280 256S269 280 256 280Z"/></svg>