<svg xmlns="http://www.w3.org/2000/svg" viewBox="0 0 640 512"><!-- Font Awesome Pro 6.0.0-alpha1 by @fontawesome - https://fontawesome.com License - https://fontawesome.com/license (Commercial License) --><path d="M576 32H384C349 32 320 61 320 96V416C320 451 349 480 384 480H576C611 480 640 451 640 416V96C640 61 611 32 576 32ZM592 416C592 425 585 432 576 432H384C375 432 368 425 368 416V96C368 87 375 80 384 80H576C585 80 592 87 592 96V416ZM0 96V320C0 355 29 384 64 384H288V336H64C55 336 48 329 48 320V96C48 87 55 80 64 80H290C293 62 301 45 313 32H64C29 32 0 61 0 96ZM120 432C107 432 96 443 96 456C96 469 107 480 120 480H313C301 467 293 450 290 432H120ZM480 240C436 240 400 276 400 320C400 364 436 400 480 400C524 400 560 364 560 320C560 276 524 240 480 240ZM480 352C462 352 448 338 448 320S462 288 480 288S512 302 512 320S498 352 480 352ZM480 176C498 176 512 162 512 144S498 112 480 112C462 112 448 126 448 144S462 176 480 176Z"/></svg>