<svg xmlns="http://www.w3.org/2000/svg" viewBox="0 0 448 512"><!-- Font Awesome Pro 6.0.0-alpha1 by @fontawesome - https://fontawesome.com License - https://fontawesome.com/license (Commercial License) --><path d="M384 0H64C29 0 0 29 0 64V368C0 392 13 412 32 423V480C32 498 46 512 64 512H384C402 512 416 498 416 480V423C435 412 448 392 448 368V64C448 29 419 0 384 0ZM368 464H80V432H368V464ZM400 368C400 377 393 384 384 384H64C55 384 48 377 48 368V64C48 55 55 48 64 48H384C393 48 400 55 400 64V368ZM336 80H112C94 80 80 94 80 112V208C80 226 94 240 112 240H336C354 240 368 226 368 208V112C368 94 354 80 336 80ZM120 304C107 304 96 315 96 328C96 341 107 352 120 352S144 341 144 328C144 315 133 304 120 304ZM352 304H224C215 304 208 311 208 320S215 336 224 336H352C361 336 368 329 368 320S361 304 352 304Z"/></svg>