<svg xmlns="http://www.w3.org/2000/svg" viewBox="0 0 640 512"><!-- Font Awesome Pro 6.0.0-alpha1 by @fontawesome - https://fontawesome.com License - https://fontawesome.com/license (Commercial License) --><path d="M631 469L523 384C546 347 560 303 560 256C560 123 453 16 320 16C252 16 191 45 147 90L39 5C34 2 29 0 24 0C17 0 10 3 5 9C-3 20 -1 35 9 43L601 507C612 515 627 513 635 503C643 492 641 477 631 469ZM485 354L390 280L432 186C445 159 417 131 390 143L280 194L185 120C220 85 267 64 320 64C426 64 512 150 512 256C512 292 502 326 485 354ZM320 448C214 448 128 362 128 256C128 238 131 220 136 203L96 172C86 198 80 226 80 256C80 389 187 496 320 496C370 496 417 480 456 454L415 422C387 439 355 448 320 448ZM250 369L311 341L230 277L208 326C195 353 223 381 250 369Z"/></svg>