<svg xmlns="http://www.w3.org/2000/svg" viewBox="0 0 640 512"><!-- Font Awesome Pro 6.0.0-alpha1 by @fontawesome - https://fontawesome.com License - https://fontawesome.com/license (Commercial License) --><path d="M616 432H608V80H616C629 80 640 69 640 56S629 32 616 32H24C11 32 0 43 0 56S11 80 24 80H32V432H24C11 432 0 443 0 456S11 480 24 480H616C629 480 640 469 640 456S629 432 616 432ZM560 432H80V80H560V432ZM192 400C205 400 216 389 216 376V136C216 123 205 112 192 112S168 123 168 136V376C168 389 179 400 192 400ZM320 400C333 400 344 389 344 376V136C344 123 333 112 320 112S296 123 296 136V376C296 389 307 400 320 400ZM448 400C461 400 472 389 472 376V136C472 123 461 112 448 112S424 123 424 136V376C424 389 435 400 448 400Z"/></svg>