<svg xmlns="http://www.w3.org/2000/svg" viewBox="0 0 640 512"><!-- Font Awesome Pro 6.0.0-alpha1 by @fontawesome - https://fontawesome.com License - https://fontawesome.com/license (Commercial License) --><path d="M128 368C110 368 96 382 96 400S110 432 128 432S160 418 160 400S146 368 128 368ZM528 288H112C50 288 0 338 0 400S50 512 112 512H528C590 512 640 462 640 400S590 288 528 288ZM528 464H112C77 464 48 435 48 400C48 365 77 336 112 336H528C563 336 592 365 592 400C592 435 563 464 528 464ZM512 368C494 368 480 382 480 400S494 432 512 432S544 418 544 400S530 368 512 368ZM320 368C302 368 288 382 288 400S302 432 320 432S352 418 352 400S338 368 320 368ZM192 256H448C483 256 512 227 512 192V64C512 29 483 0 448 0H192C157 0 128 29 128 64V192C128 227 157 256 192 256ZM176 64C176 55 183 48 192 48H256C256 70 256 128 256 128L320 96L384 128V48H448C457 48 464 55 464 64V192C464 201 457 208 448 208H192C183 208 176 201 176 192V64Z"/></svg>