<svg xmlns="http://www.w3.org/2000/svg" viewBox="0 0 576 512"><!-- Font Awesome Pro 6.0.0-alpha1 by @fontawesome - https://fontawesome.com License - https://fontawesome.com/license (Commercial License) --><path d="M368 304C350 304 336 318 336 336S350 368 368 368S400 354 400 336S386 304 368 304ZM336 144C354 144 368 130 368 112S354 80 336 80S304 94 304 112S318 144 336 144ZM208 176C208 158 194 144 176 144S144 158 144 176S158 208 176 208S208 194 208 176ZM208 304C190 304 176 318 176 336S190 368 208 368S240 354 240 336S226 304 208 304ZM304 208C286 208 272 222 272 240S286 272 304 272S336 258 336 240S322 208 304 208ZM526 239L514 162C510 135 497 109 477 90L422 35C403 15 377 2 350 -2L273 -14C266 -15 259 -16 252 -16C232 -16 211 -11 193 -2L123 34C99 46 78 66 66 91L30 160C18 185 13 214 18 241L30 318C34 345 47 371 67 390L122 445C141 465 167 478 194 482L271 494C278 495 285 496 292 496C312 496 333 491 352 482L421 446C446 434 466 414 479 389L514 320C526 295 531 266 526 239ZM471 298L436 367C427 383 415 396 399 404L330 439C318 445 305 448 292 448C287 448 283 448 278 447L202 435C184 432 168 424 156 411L101 357C88 344 80 328 77 310L65 234C62 216 65 198 73 182L108 113C117 97 129 85 145 76L214 41C226 35 239 32 252 32C257 32 261 32 266 33L342 45C360 48 376 56 389 69L443 123C456 136 464 152 467 170L479 246C482 264 479 282 471 298Z"/></svg>