<svg xmlns="http://www.w3.org/2000/svg" viewBox="0 0 640 512"><!-- Font Awesome Pro 6.0.0-alpha1 by @fontawesome - https://fontawesome.com License - https://fontawesome.com/license (Commercial License) --><path d="M576 224C541 224 512 253 512 288H128C128 253 99 224 64 224S0 253 0 288V448C0 466 14 480 32 480H96C114 480 128 466 128 448H512C512 466 526 480 544 480H608C626 480 640 466 640 448V288C640 253 611 224 576 224ZM80 432H48V288C48 279 55 272 64 272S80 279 80 288V432ZM512 400H128V336H512V400ZM592 432H560V288C560 279 567 272 576 272S592 279 592 288V432ZM88 192C101 192 112 181 112 168V152C112 112 144 80 184 80H456C496 80 528 112 528 152V168C528 181 539 192 552 192S576 181 576 168V152C576 86 522 32 456 32H184C118 32 64 86 64 152V168C64 181 75 192 88 192Z"/></svg>