<svg xmlns="http://www.w3.org/2000/svg" viewBox="0 0 640 512"><!-- Font Awesome Pro 6.0.0-alpha1 by @fontawesome - https://fontawesome.com License - https://fontawesome.com/license (Commercial License) --><path d="M480 192C392 192 320 264 320 352S392 512 480 512C568 512 640 440 640 352S568 192 480 192ZM544 368H496V416C496 425 489 432 480 432C471 432 464 425 464 416V368H416C407 368 400 361 400 352C400 343 407 336 416 336H464V288C464 279 471 272 480 272C489 272 496 279 496 288V336H544C553 336 560 343 560 352C560 361 553 368 544 368ZM324 464H51L109 144H339L351 210C364 198 379 188 395 180L387 136C382 113 363 96 339 96H321V48C321 22 299 0 273 0H176C150 0 128 22 128 48V96H109C85 96 65 113 61 136L0 474C-3 493 11 512 32 512H374C355 499 338 483 324 464ZM176 48H272V96H176V48Z"/></svg>