<svg xmlns="http://www.w3.org/2000/svg" viewBox="0 0 576 512"><!-- Font Awesome Pro 6.0.0-alpha1 by @fontawesome - https://fontawesome.com License - https://fontawesome.com/license (Commercial License) --><path d="M512 32H64C29 32 0 61 0 96V416C0 451 29 480 64 480H512C547 480 576 451 576 416V96C576 61 547 32 512 32ZM528 416C528 425 521 432 512 432H64C55 432 48 425 48 416V96C48 87 55 80 64 80H512C521 80 528 87 528 96V416ZM464 128H368C359 128 352 135 352 144V208C352 217 359 224 368 224H464C473 224 480 217 480 208V144C480 135 473 128 464 128ZM168 336H120C107 336 96 347 96 360C96 373 107 384 120 384H168C181 384 192 373 192 360C192 347 181 336 168 336ZM168 256H120C107 256 96 267 96 280C96 293 107 304 120 304H168C181 304 192 293 192 280C192 267 181 256 168 256ZM328 336H248C235 336 224 347 224 360C224 373 235 384 248 384H328C341 384 352 373 352 360C352 347 341 336 328 336ZM328 256H248C235 256 224 267 224 280C224 293 235 304 248 304H328C341 304 352 293 352 280C352 267 341 256 328 256ZM456 256H408C395 256 384 267 384 280C384 293 395 304 408 304H456C469 304 480 293 480 280C480 267 469 256 456 256Z"/></svg>