<svg xmlns="http://www.w3.org/2000/svg" viewBox="0 0 576 512"><!-- Font Awesome Pro 6.0.0-alpha1 by @fontawesome - https://fontawesome.com License - https://fontawesome.com/license (Commercial License) --><path d="M512 32H64C29 32 0 61 0 96V416C0 451 29 480 64 480H512C547 480 576 451 576 416V96C576 61 547 32 512 32ZM528 416C528 425 521 432 512 432H64C55 432 48 425 48 416V96C48 87 55 80 64 80H512C521 80 528 87 528 96V416ZM168 336H120C107 336 96 347 96 360S107 384 120 384H168C181 384 192 373 192 360S181 336 168 336ZM360 336H248C235 336 224 347 224 360C224 373 235 384 248 384H360C373 384 384 373 384 360C384 347 373 336 360 336Z"/></svg>