<svg xmlns="http://www.w3.org/2000/svg" viewBox="0 0 512 512"><!-- Font Awesome Pro 6.0.0-alpha1 by @fontawesome - https://fontawesome.com License - https://fontawesome.com/license (Commercial License) --><path d="M508 168C494 132 468 102 434 84C431 67 422 52 408 42C373 15 330 0 285 0C270 0 255 2 239 6C225 0 209 -2 193 2C99 26 26 99 2 193C-2 208 0 224 6 239C-8 298 5 359 41 407C52 421 66 430 83 433C101 467 131 494 168 508C215 525 263 486 255 436L239 341C241 339 242 338 243 335C262 335 279 327 292 314L314 292C327 279 334 262 335 244C337 243 340 241 342 239L436 255C486 263 525 214 508 168ZM112 382C100 391 86 387 79 378C58 350 48 315 49 280C50 281 51 281 52 282L187 323L112 382ZM185 463C165 455 147 442 135 425C137 423 139 422 142 420L197 377L208 444C209 450 206 456 202 460C197 464 191 465 185 463ZM280 258L258 280C251 287 241 290 232 287L66 236C53 232 45 218 49 205C68 128 128 68 205 49C218 45 232 53 236 66L287 232C290 241 287 251 280 258V258ZM323 188L281 52C281 51 280 50 280 48C282 48 284 48 285 48C319 48 352 59 379 80C387 86 392 100 383 112L323 188ZM444 208L377 197L421 141C422 139 424 137 425 135C442 148 455 165 463 185C465 191 464 197 460 202C456 206 450 209 444 208Z"/></svg>