<svg xmlns="http://www.w3.org/2000/svg" viewBox="0 0 512 512"><!-- Font Awesome Pro 6.0.0-alpha1 by @fontawesome - https://fontawesome.com License - https://fontawesome.com/license (Commercial License) --><path d="M512 408C512 421 501 432 488 432H432V488C432 501 421 512 408 512S384 501 384 488V162L162 384H352V432H120C98 432 80 414 80 392V128H24C11 128 0 117 0 104S11 80 24 80H80V24C80 11 91 0 104 0S128 11 128 24V350L350 128H160V80H398L471 7C480 -2 496 -2 505 7S514 32 505 41L432 114V384H488C501 384 512 395 512 408Z"/></svg>