<svg xmlns="http://www.w3.org/2000/svg" viewBox="0 0 512 512"><!-- Font Awesome Pro 6.0.0-alpha1 by @fontawesome - https://fontawesome.com License - https://fontawesome.com/license (Commercial License) --><path d="M488 232H471C460 132 380 52 280 41V24C280 11 269 0 256 0H256C243 0 232 11 232 24V41C132 52 52 132 41 232H24C11 232 0 243 0 256V256C0 269 11 280 24 280H41C52 380 132 460 232 471V488C232 501 243 512 256 512H256C269 512 280 501 280 488V471C380 460 460 380 471 280H488C501 280 512 269 512 256V256C512 243 501 232 488 232ZM280 422V392C280 379 269 368 256 368H256C243 368 232 379 232 392V422C158 412 100 354 90 280H120C133 280 144 269 144 256V256C144 243 133 232 120 232H90C100 158 158 100 232 90V120C232 133 243 144 256 144H256C269 144 280 133 280 120V90C354 100 412 158 422 232H392C379 232 368 243 368 256V256C368 269 379 280 392 280H422C412 354 354 412 280 422ZM288 256C288 274 274 288 256 288C238 288 224 274 224 256S238 224 256 224C274 224 288 238 288 256Z"/></svg>