<svg xmlns="http://www.w3.org/2000/svg" viewBox="0 0 384 512"><!-- Font Awesome Pro 6.0.0-alpha1 by @fontawesome - https://fontawesome.com License - https://fontawesome.com/license (Commercial License) --><path d="M336 112H272V48C272 22 250 0 224 0H160C134 0 112 22 112 48V112H48C21 112 0 134 0 160V224C0 250 22 272 48 272H112V464C112 490 134 512 160 512H224C250 512 272 490 272 464V272H336C362 272 384 250 384 224V160C384 134 362 112 336 112ZM336 224H224V464H160V224H48V160H160V48H224V160H336V224Z"/></svg>