<svg xmlns="http://www.w3.org/2000/svg" viewBox="0 0 640 512"><!-- Font Awesome Pro 6.0.0-alpha1 by @fontawesome - https://fontawesome.com License - https://fontawesome.com/license (Commercial License) --><path d="M544 32H519C502 13 476 0 448 0C395 0 352 43 352 96V126L12 394C5 399 0 408 0 418C0 435 14 448 30 448C35 448 39 447 44 445L165 384H262H263L306 496C309 506 318 512 328 512C331 512 334 511 336 510C349 506 355 492 350 480L315 384H352C354 384 356 384 358 384L359 383L402 496C405 506 414 512 424 512C427 512 430 511 432 510C445 506 451 492 446 479L407 376C486 352 544 279 544 192V112L640 96C640 61 597 32 544 32ZM496 192C496 271 431 336 352 336H274L320 323C368 309 408 276 430 231C434 223 431 214 423 210C415 206 406 209 402 217C383 254 350 281 311 292L166 334L382 164L400 150V96C400 70 422 48 448 48S496 70 496 96V192ZM448 72C435 72 424 83 424 96S435 120 448 120S472 109 472 96S461 72 448 72Z"/></svg>