<svg xmlns="http://www.w3.org/2000/svg" viewBox="0 0 384 512"><!-- Font Awesome Pro 6.0.0-alpha1 by @fontawesome - https://fontawesome.com License - https://fontawesome.com/license (Commercial License) --><path d="M377 380C386 390 386 405 377 414C335 457 280 480 221 480C221 480 221 480 221 480C162 480 106 457 64 414C-21 327 -21 185 64 98C106 55 162 32 221 32C280 32 335 55 377 98C386 107 386 122 377 132C367 141 352 141 343 131C310 98 267 80 221 80C175 80 131 98 99 131C31 200 31 312 99 381C116 398 137 412 160 420V248C160 235 171 224 184 224C195 224 204 232 207 242C219 236 232 232 246 232C281 232 312 252 326 284C331 296 326 310 313 316C301 321 287 315 282 303C276 289 262 280 246 280C225 280 208 297 208 318V431C212 431 216 432 221 432C267 432 310 414 343 381C352 371 367 371 377 380Z"/></svg>