<svg xmlns="http://www.w3.org/2000/svg" viewBox="0 0 512 512"><!-- Font Awesome Pro 6.0.0-alpha1 by @fontawesome - https://fontawesome.com License - https://fontawesome.com/license (Commercial License) --><path d="M491 85L278 4C271 1 264 0 256 0S241 1 234 4L21 85C8 90 0 102 0 116V396C0 410 8 422 21 427L234 508C241 511 248 512 256 512S271 511 278 508L491 427C504 422 512 410 512 396V116C512 102 504 90 491 85ZM251 49C252 48 254 48 256 48S260 48 261 49L456 123L256 198L56 123L251 49ZM48 172L232 241V456L48 386V172ZM280 456V241L464 172V386L280 456Z"/></svg>