<svg xmlns="http://www.w3.org/2000/svg" viewBox="0 0 576 512"><!-- Font Awesome Pro 6.0.0-alpha1 by @fontawesome - https://fontawesome.com License - https://fontawesome.com/license (Commercial License) --><path d="M480 224C480 189 451 160 416 160H224V120C224 98 242 80 264 80H392C405 80 416 69 416 56S405 32 392 32H264C215 32 176 71 176 120V160H160C125 160 96 189 96 224C43 224 0 267 0 320V384C0 437 43 480 96 480H480C533 480 576 437 576 384V320C576 267 533 224 480 224ZM96 272H480C506 272 528 294 528 320V328H48V320C48 294 70 272 96 272ZM480 432H96C70 432 48 410 48 384V376H528V384C528 410 506 432 480 432Z"/></svg>