<svg xmlns="http://www.w3.org/2000/svg" viewBox="0 0 576 512"><!-- Font Awesome Pro 6.0.0-alpha1 by @fontawesome - https://fontawesome.com License - https://fontawesome.com/license (Commercial License) --><path d="M400 160C391 160 384 167 384 176C384 185 391 192 400 192S416 185 416 176C416 167 409 160 400 160ZM536 96C521 96 507 105 501 118C495 114 488 111 481 109L413 89C416 86 419 83 421 79L439 52C444 45 442 35 435 30L422 21C414 16 405 18 400 25L382 52C378 58 372 63 366 66L317 90L316 91L307 89L308 88C316 78 320 65 320 53V16C320 7 313 0 304 0H288C279 0 272 7 272 16V53C272 55 271 56 270 58L257 75L246 71C243 70 240 67 240 64V16C240 7 233 0 224 0H208C199 0 192 7 192 16V64C192 89 209 111 233 118L297 136L282 160H88C39 160 0 199 0 248V312H48V319L38 347C31 364 30 382 35 400L60 482C64 499 80 512 98 512H162C174 512 186 506 194 497C201 487 204 474 201 461L177 381L187 352H256V472C256 494 274 512 296 512H360C382 512 400 494 400 472V302L422 264H464C499 264 528 235 528 200V174C531 175 533 176 536 176C558 176 576 158 576 136S558 96 536 96ZM480 200C480 209 473 216 464 216H394L352 290V464H304V304H154L126 379L151 464H104L81 387C79 380 80 371 82 364L96 332L96 264H48V248C48 226 66 208 88 208H310L344 149C352 134 369 127 385 131L468 155C475 157 480 163 480 170V200Z"/></svg>