<svg xmlns="http://www.w3.org/2000/svg" viewBox="0 0 512 512"><!-- Font Awesome Pro 6.0.0-alpha1 by @fontawesome - https://fontawesome.com License - https://fontawesome.com/license (Commercial License) --><path d="M499 232L479 233C474 188 457 148 430 115L445 101C450 96 450 88 445 83L429 67C424 62 416 62 411 67L397 82C364 55 324 38 279 33L280 13C280 6 275 0 268 0H244C237 0 232 6 232 13L233 33C188 38 148 55 115 82L101 67C96 62 88 62 83 67L67 83C62 88 62 96 67 101L82 115C55 148 38 188 33 233L13 232C6 232 0 237 0 244V268C0 275 6 280 13 280L33 279C38 324 55 364 82 397L67 411C62 416 62 424 67 429L83 445C88 450 96 450 101 445L115 430C148 457 188 474 233 479L232 499C232 506 237 512 244 512H268C275 512 280 506 280 499L279 479C324 474 364 457 397 430L411 445C416 450 424 450 429 445L445 429C450 424 450 416 445 411L430 397C457 364 474 324 479 279L499 280C506 280 512 275 512 268V244C512 237 506 232 499 232ZM430 234L350 237C347 224 343 213 336 203L395 148C414 173 426 202 430 234ZM256 304C230 304 208 282 208 256S230 208 256 208S304 230 304 256S282 304 256 304ZM364 117L309 176C299 169 287 165 275 162L278 81C310 86 339 98 364 117ZM234 82L237 162C224 165 213 169 203 176L148 117C173 98 202 86 234 82ZM117 148L176 203C169 213 165 225 162 237L82 234C86 202 98 173 117 148ZM82 278L162 275C165 288 169 299 176 309L117 364C98 339 86 310 82 278ZM148 395L203 336C213 343 225 347 237 350L234 431C202 426 173 414 148 395ZM278 430L275 350C288 347 299 343 309 336L364 395C339 414 310 426 278 430ZM395 364L336 309C343 299 347 287 350 275L431 278C426 310 414 339 395 364Z"/></svg>