<svg xmlns="http://www.w3.org/2000/svg" viewBox="0 0 576 512"><!-- Font Awesome Pro 6.0.0-alpha1 by @fontawesome - https://fontawesome.com License - https://fontawesome.com/license (Commercial License) --><path d="M32 256A32 32 0 1 0 64 288A32 32 0 0 0 32 256ZM84 446A32 32 0 1 0 130 446A32 32 0 0 0 84 446ZM130 130A32 32 0 1 0 84 130A32 32 0 0 0 130 130ZM288 64A32 32 0 1 0 256 32A32 32 0 0 0 288 64ZM446 446A32 32 0 1 0 492 446A32 32 0 0 0 446 446ZM544 256A32 32 0 1 0 576 288A32 32 0 0 0 544 256ZM446 84A32 32 0 1 0 492 84A32 32 0 0 0 446 84ZM401 175A160 160 0 1 0 401 401A160 160 0 0 0 401 175ZM367 367A112 112 0 0 1 228 382L305 305A24 24 0 0 0 271 271L194 348A112 112 0 1 1 367 367Z"/></svg>