<svg xmlns="http://www.w3.org/2000/svg" viewBox="0 0 512 512"><!-- Font Awesome Pro 6.0.0-alpha1 by @fontawesome - https://fontawesome.com License - https://fontawesome.com/license (Commercial License) --><path d="M496 222L288 14C279 5 267 0 254 0C242 0 230 5 221 14L12 222C-6 241 -6 271 12 290L221 498C230 507 242 512 254 512C267 512 279 507 288 498L496 290C515 271 515 241 496 222ZM255 464L46 256L254 48L462 256L255 464ZM301 216H198C185 216 174 227 174 240V312C174 325 185 336 198 336S222 325 222 312V264H301L277 287C268 296 268 312 277 321C282 326 288 328 294 328S307 326 311 321L375 257C385 248 385 232 375 223L311 159C302 150 287 150 277 159S268 184 277 193L301 216Z"/></svg>