<svg xmlns="http://www.w3.org/2000/svg" viewBox="0 0 512 512"><!-- Font Awesome Pro 6.0.0-alpha1 by @fontawesome - https://fontawesome.com License - https://fontawesome.com/license (Commercial License) --><path d="M464 116L272 4C262 -1 250 -1 240 4L48 116C38 122 32 133 32 144V368C32 379 38 390 48 396L240 508C250 513 262 513 272 508L464 396C474 390 480 379 480 368V144C480 133 474 122 464 116ZM256 88L329 184H183L256 88ZM256 339L188 232H324L256 339ZM145 254L208 354L125 335L145 254ZM367 254L387 335L304 354L367 254ZM383 177L313 84L419 146L383 177ZM129 177L93 146L199 84L129 177ZM104 220L80 317V198L104 220ZM232 409V447L122 383L232 409ZM280 409L390 383L280 447V409ZM432 317L408 220L432 198V317Z"/></svg>