<svg xmlns="http://www.w3.org/2000/svg" viewBox="0 0 448 512"><!-- Font Awesome Pro 6.0.0-alpha1 by @fontawesome - https://fontawesome.com License - https://fontawesome.com/license (Commercial License) --><path d="M128 128C110 128 96 142 96 160S110 192 128 192S160 178 160 160S146 128 128 128ZM224 224C206 224 192 238 192 256S206 288 224 288S256 274 256 256S242 224 224 224ZM384 32H64C29 32 0 61 0 96V416C0 451 29 480 64 480H384C419 480 448 451 448 416V96C448 61 419 32 384 32ZM400 416C400 425 393 432 384 432H64C55 432 48 425 48 416V96C48 87 55 80 64 80H384C393 80 400 87 400 96V416ZM320 320C302 320 288 334 288 352S302 384 320 384S352 370 352 352S338 320 320 320Z"/></svg>