<svg xmlns="http://www.w3.org/2000/svg" viewBox="0 0 640 512"><!-- Font Awesome Pro 6.0.0-alpha1 by @fontawesome - https://fontawesome.com License - https://fontawesome.com/license (Commercial License) --><path d="M571 192H469C472 202 474 213 474 224C474 249 464 274 446 292L315 423V448C315 483 344 512 379 512H571C606 512 635 483 635 448V256C635 221 606 192 571 192ZM475 376C462 376 451 365 451 352C451 339 462 328 475 328S499 339 499 352C499 365 488 376 475 376ZM424 178L264 19C251 6 235 0 219 0S186 6 173 19L14 178C-11 203 -11 244 14 269L173 429C186 441 202 448 219 448S251 441 264 429L424 269C449 244 449 203 424 178ZM390 235L230 395C226 399 221 400 219 400C216 400 211 399 207 395L48 235C43 231 43 226 43 224S43 217 48 212L207 53C211 49 216 48 219 48S226 49 230 53L390 212C394 217 394 221 394 224S394 231 390 235ZM219 302C213 302 206 304 202 309C192 318 192 333 202 343C206 347 213 350 219 350C225 350 231 347 236 343C245 333 245 318 236 309C231 304 225 302 219 302ZM219 200C213 200 206 202 202 207C192 216 192 231 202 241C206 245 213 248 219 248C225 248 231 245 236 241C245 231 245 216 236 207C231 202 225 200 219 200ZM117 200C111 200 105 202 100 207C90 216 90 231 100 241C105 245 111 248 117 248S129 245 134 241C143 231 143 216 134 207C129 202 123 200 117 200ZM320 200C314 200 308 202 304 207C294 216 294 231 304 241C308 245 314 248 320 248S333 245 337 241C347 231 347 216 337 207C333 202 327 200 320 200ZM219 98C213 98 206 100 202 105C192 114 192 130 202 139C206 144 213 146 219 146C225 146 231 144 236 139C245 130 245 114 236 105C231 100 225 98 219 98Z"/></svg>