<svg xmlns="http://www.w3.org/2000/svg" viewBox="0 0 576 512"><!-- Font Awesome Pro 6.0.0-alpha1 by @fontawesome - https://fontawesome.com License - https://fontawesome.com/license (Commercial License) --><path d="M368 176H320V128C320 119 313 112 304 112H272C263 112 256 119 256 128V176H208C199 176 192 183 192 192V224C192 233 199 240 208 240H256V288C256 297 263 304 272 304H304C313 304 320 297 320 288V240H368C377 240 384 233 384 224V192C384 183 377 176 368 176ZM512 0H64C29 0 0 29 0 64V352C0 387 29 416 64 416H212L203 464H152C139 464 128 475 128 488S139 512 152 512H424C437 512 448 501 448 488S437 464 424 464H373L364 416H512C547 416 576 387 576 352V64C576 29 547 0 512 0ZM252 464L261 416H315L324 464H252ZM528 352C528 361 521 368 512 368H64C55 368 48 361 48 352V64C48 55 55 48 64 48H512C521 48 528 55 528 64V352Z"/></svg>