<svg xmlns="http://www.w3.org/2000/svg" viewBox="0 0 640 512"><!-- Font Awesome Pro 6.0.0-alpha1 by @fontawesome - https://fontawesome.com License - https://fontawesome.com/license (Commercial License) --><path d="M631 469L560 414C588 407 608 382 608 352V64C608 29 579 0 544 0H96C80 0 65 6 53 17L39 5C28 -3 13 -1 5 9C-3 20 -1 35 9 43L601 507C606 510 611 512 616 512C623 512 630 509 635 503C643 492 641 477 631 469ZM560 352C560 361 553 368 544 368H502L94 48C95 48 95 48 96 48H544C553 48 560 55 560 64V352ZM456 464H405L396 416H408L347 368H96C87 368 80 361 80 352V159L32 121V352C32 387 61 416 96 416H244L235 464H184C171 464 160 475 160 488S171 512 184 512H456C469 512 480 501 480 488S469 464 456 464ZM284 464L293 416H347L356 464H284Z"/></svg>