<svg xmlns="http://www.w3.org/2000/svg" viewBox="0 0 576 512"><!-- Font Awesome Pro 6.0.0-alpha1 by @fontawesome - https://fontawesome.com License - https://fontawesome.com/license (Commercial License) --><path d="M512 0H64C29 0 0 29 0 64V352C0 387 29 416 64 416H212L203 464H152C139 464 128 475 128 488S139 512 152 512H424C437 512 448 501 448 488S437 464 424 464H373L364 416H512C547 416 576 387 576 352V64C576 29 547 0 512 0ZM324 464H252L261 416H315L324 464ZM528 352C528 361 521 368 512 368H64C55 368 48 361 48 352V64C48 55 55 48 64 48H512C521 48 528 55 528 64V352Z"/></svg>