<svg xmlns="http://www.w3.org/2000/svg" viewBox="0 0 576 512"><!-- Font Awesome Pro 6.0.0-alpha1 by @fontawesome - https://fontawesome.com License - https://fontawesome.com/license (Commercial License) --><path d="M416 96C407 96 400 103 400 112S407 128 416 128S432 121 432 112S425 96 416 96ZM536 64H487L486 63C476 46 450 32 430 32H360C359 32 359 32 358 32L359 32L331 5C321 -5 304 2 304 16V192H184C153 192 124 204 103 224H91C69 224 47 207 48 185C48 171 37 160 24 160C11 160 0 171 0 184C0 226 30 263 72 270C67 284 64 298 64 312V448C64 483 93 512 128 512H144C179 512 208 483 208 448V384H336V448C336 483 365 512 400 512H416C451 512 480 483 480 448V240H488C537 240 576 201 576 152V104C576 82 558 64 536 64ZM432 448C432 457 425 464 416 464H400C391 464 384 457 384 448V336H160V448C160 457 153 464 144 464H128C119 464 112 457 112 448V312C112 272 144 240 184 240H320L432 269V448ZM528 152C528 174 510 192 488 192H432V219L352 199V88C352 84 356 80 360 80H436C439 80 442 82 443 84L457 112H528V152Z"/></svg>