<svg xmlns="http://www.w3.org/2000/svg" viewBox="0 0 320 512"><!-- Font Awesome Pro 6.0.0-alpha1 by @fontawesome - https://fontawesome.com License - https://fontawesome.com/license (Commercial License) --><path d="M302 358C293 406 248 435 184 439V488C184 501 173 512 160 512S136 501 136 488V438C133 437 130 438 126 437C99 433 70 424 45 416L33 412C20 408 13 395 17 382C21 369 34 362 47 366L59 370C83 378 110 386 133 390C188 397 247 388 255 349C262 313 236 300 154 279L138 275C90 263 1 239 18 154C27 106 72 77 136 73V24C136 11 147 0 160 0S184 11 184 24V74C187 74 190 74 194 75C211 77 231 82 257 90C270 94 277 107 273 120C269 133 256 140 243 136C220 129 202 125 187 122C132 115 73 124 65 163C59 195 79 210 150 229L166 233C230 249 319 272 302 358Z"/></svg>