<svg xmlns="http://www.w3.org/2000/svg" viewBox="0 0 384 512"><!-- Font Awesome Pro 6.0.0-alpha1 by @fontawesome - https://fontawesome.com License - https://fontawesome.com/license (Commercial License) --><path d="M192 400C222 400 250 389 272 371V376C272 389 283 400 296 400S320 389 320 376V112H328C341 112 352 101 352 88S341 64 328 64H320V56C320 43 309 32 296 32S272 43 272 56V64H216C203 64 192 75 192 88S203 112 216 112H272V173C250 155 222 144 192 144C121 144 64 201 64 272S121 400 192 400ZM192 192C236 192 272 228 272 272S236 352 192 352S112 316 112 272S148 192 192 192ZM360 432H24C11 432 0 443 0 456S11 480 24 480H360C373 480 384 469 384 456S373 432 360 432Z"/></svg>