<svg xmlns="http://www.w3.org/2000/svg" viewBox="0 0 576 512"><!-- Font Awesome Pro 6.0.0-alpha1 by @fontawesome - https://fontawesome.com License - https://fontawesome.com/license (Commercial License) --><path d="M368 224C350 224 336 238 336 256S350 288 368 288S400 274 400 256S386 224 368 224ZM552 464H480V64C480 29 451 0 416 0H160C125 0 96 29 96 64V464H24C11 464 0 475 0 488C0 501 11 512 24 512H552C565 512 576 501 576 488C576 475 565 464 552 464ZM432 464H144V64C144 55 151 48 160 48H416C425 48 432 55 432 64V464Z"/></svg>