<svg xmlns="http://www.w3.org/2000/svg" viewBox="0 0 512 512"><!-- Font Awesome Pro 6.0.0-alpha1 by @fontawesome - https://fontawesome.com License - https://fontawesome.com/license (Commercial License) --><path d="M368 160C368 169 375 176 384 176S400 169 400 160C400 151 393 144 384 144C375 144 368 151 368 160ZM384 64C338 64 299 97 290 140C261 104 241 61 234 14C232 1 215 -5 206 6C181 35 162 71 151 111C149 116 149 122 148 128C122 104 101 75 87 42C81 29 64 29 58 41C42 75 33 113 32 153C31 249 87 316 128 353L14 391C2 394 -4 409 3 420C23 453 72 507 178 512C191 513 195 507 203 503L279 448H320C408 448 480 377 480 288V160L512 64H384ZM197 123C200 113 203 104 207 95C223 133 247 168 276 197C246 190 218 179 192 163C193 149 194 136 197 123ZM432 152V288C432 350 382 400 320 400H264L175 464C122 460 89 442 68 423L222 371C166 325 79 261 80 154C80 145 81 137 82 128C175 249 320 256 336 256V160C336 134 357 112 384 112H445L432 152Z"/></svg>