<svg xmlns="http://www.w3.org/2000/svg" viewBox="0 0 512 512"><!-- Font Awesome Pro 6.0.0-alpha1 by @fontawesome - https://fontawesome.com License - https://fontawesome.com/license (Commercial License) --><path d="M448 304H394L346 352H448C457 352 464 359 464 368V448C464 457 457 464 448 464H64C55 464 48 457 48 448V368C48 359 55 352 64 352H166L118 304H64C29 304 0 333 0 368V448C0 483 29 512 64 512H448C483 512 512 483 512 448V368C512 333 483 304 448 304ZM432 408C432 395 421 384 408 384S384 395 384 408C384 421 395 432 408 432S432 421 432 408ZM239 369C244 374 250 376 256 376S268 374 273 369L409 233C418 224 418 208 409 199S384 190 375 199L280 294V24C280 11 269 0 256 0S232 11 232 24V294L137 199C128 190 112 190 103 199S94 224 103 233L239 369Z"/></svg>