<svg xmlns="http://www.w3.org/2000/svg" viewBox="0 0 512 512"><!-- Font Awesome Pro 6.0.0-alpha1 by @fontawesome - https://fontawesome.com License - https://fontawesome.com/license (Commercial License) --><path d="M489 16C480 7 464 7 455 16L374 97L327 50C321 44 312 41 304 41C300 41 296 42 292 43C280 48 272 60 272 73V209C272 222 283 233 296 233H432C445 233 457 225 462 213C467 201 464 187 455 178L408 131L489 50C498 41 498 25 489 16ZM216 265H80C67 265 55 273 50 285C45 297 48 310 57 320L104 367L23 448C14 457 14 473 23 482S48 491 57 482L138 401L185 448C192 454 200 457 208 457C212 457 216 456 220 455C232 450 240 438 240 425V289C240 276 229 265 216 265Z"/></svg>