<svg xmlns="http://www.w3.org/2000/svg" viewBox="0 0 640 512"><!-- Font Awesome Pro 6.0.0-alpha1 by @fontawesome - https://fontawesome.com License - https://fontawesome.com/license (Commercial License) --><path d="M569 266L491 220C484 216 480 210 480 202V192H491L508 208C519 218 532 224 546 224H574C594 224 613 212 622 194L634 167C643 149 641 127 629 111L562 21C552 8 536 0 519 0H304C292 0 280 8 275 19C271 31 273 44 284 55L309 75L290 83C280 88 273 99 273 111C273 123 280 133 292 140L336 157V205L200 107C177 91 145 93 123 111L6 228C-7 238 2 258 18 256L192 224L101 293C91 303 98 320 112 320H352C361 342 373 362 388 380C220 391 81 422 32 433C13 437 0 453 0 472C0 494 18 512 40 512H504C577 512 636 458 640 389C643 337 615 289 569 266ZM504 464H116C195 449 315 430 448 425L522 422L460 381C413 349 384 296 384 238V123L349 110L401 89L351 48H519C521 48 523 49 523 50L591 140C592 142 592 144 591 146L578 173C578 175 576 176 574 176H546C545 176 543 175 542 174L509 144H432V202C432 228 446 251 468 262L545 307L547 308C576 323 594 353 592 386C590 429 550 464 504 464ZM502 110C514 110 524 102 527 91L481 80C477 97 489 109 502 110Z"/></svg>