<svg xmlns="http://www.w3.org/2000/svg" viewBox="0 0 448 512"><!-- Font Awesome Pro 6.0.0-alpha1 by @fontawesome - https://fontawesome.com License - https://fontawesome.com/license (Commercial License) --><path d="M384 352C381 352 377 353 374 353L339 294C347 284 352 270 352 256C352 242 347 228 339 218L374 159C377 159 381 160 384 160C419 160 448 131 448 96S419 32 384 32C357 32 334 49 325 72H123C114 49 91 32 64 32C29 32 0 61 0 96C0 123 17 146 40 155V357C17 366 0 389 0 416C0 451 29 480 64 480C91 480 114 463 123 440H325C334 463 357 480 384 480C419 480 448 451 448 416S419 352 384 352ZM88 357V155C104 149 117 136 123 120H325C327 125 330 130 333 134L298 193C295 193 291 192 288 192C253 192 224 221 224 256S253 320 288 320C291 320 295 319 298 319L333 378C330 382 327 387 325 392H123C117 376 104 363 88 357ZM288 240C297 240 304 247 304 256C304 265 297 272 288 272S272 265 272 256C272 247 279 240 288 240ZM384 80C393 80 400 87 400 96S393 112 384 112S368 105 368 96S375 80 384 80ZM64 80C73 80 80 87 80 96S73 112 64 112S48 105 48 96S55 80 64 80ZM64 432C55 432 48 425 48 416S55 400 64 400S80 407 80 416S73 432 64 432ZM384 432C375 432 368 425 368 416S375 400 384 400S400 407 400 416S393 432 384 432Z"/></svg>