<svg xmlns="http://www.w3.org/2000/svg" viewBox="0 0 448 512"><!-- Font Awesome Pro 6.0.0-alpha1 by @fontawesome - https://fontawesome.com License - https://fontawesome.com/license (Commercial License) --><path d="M408 357V155C431 146 448 123 448 96C448 61 419 32 384 32C357 32 334 49 325 72H123C114 49 91 32 64 32C29 32 0 61 0 96C0 123 17 146 40 155V357C17 366 0 389 0 416C0 451 29 480 64 480C91 480 114 463 123 440H325C334 463 357 480 384 480C419 480 448 451 448 416C448 389 431 366 408 357ZM88 357V155C104 149 117 136 123 120H325C331 136 344 149 360 155V357C344 363 331 376 325 392H123C117 376 104 363 88 357ZM384 80C393 80 400 87 400 96S393 112 384 112S368 105 368 96S375 80 384 80ZM64 80C73 80 80 87 80 96S73 112 64 112S48 105 48 96S55 80 64 80ZM64 432C55 432 48 425 48 416S55 400 64 400S80 407 80 416S73 432 64 432ZM384 432C375 432 368 425 368 416S375 400 384 400S400 407 400 416S393 432 384 432Z"/></svg>