<svg xmlns="http://www.w3.org/2000/svg" viewBox="0 0 448 512"><!-- Font Awesome Pro 6.0.0-alpha1 by @fontawesome - https://fontawesome.com License - https://fontawesome.com/license (Commercial License) --><path d="M441 39C432 30 416 30 407 39L295 151L217 74C211 67 202 64 194 64C185 64 176 67 170 74L20 224C7 237 0 254 0 271V413C0 450 30 480 67 480H209C226 480 243 473 256 460L406 310C419 297 419 276 406 263L329 185L441 73C450 64 450 48 441 39ZM222 426C218 430 214 432 209 432H67C57 432 48 423 48 413V271C48 266 50 262 54 258L107 205L275 373L222 426ZM309 339L141 171L193 118L362 287L309 339Z"/></svg>