<svg xmlns="http://www.w3.org/2000/svg" viewBox="0 0 384 512"><!-- Font Awesome Pro 6.0.0-alpha1 by @fontawesome - https://fontawesome.com License - https://fontawesome.com/license (Commercial License) --><path d="M221 22C217 7 205 0 192 0C180 0 167 7 163 22C116 180 16 223 16 334C16 432 95 512 192 512S368 432 368 334C368 222 268 181 221 22ZM192 464C121 464 64 406 64 334C64 291 85 261 116 216C140 182 169 140 192 84C215 140 244 182 268 216C299 261 320 290 320 334C320 406 263 464 192 464ZM208 400C164 400 128 364 128 320C128 311 121 304 112 304S96 311 96 320C96 382 146 432 208 432C217 432 224 425 224 416S217 400 208 400Z"/></svg>