<svg xmlns="http://www.w3.org/2000/svg" viewBox="0 0 640 512"><!-- Font Awesome Pro 6.0.0-alpha1 by @fontawesome - https://fontawesome.com License - https://fontawesome.com/license (Commercial License) --><path d="M631 469L494 362C495 353 496 343 496 334C496 222 396 181 349 22C345 7 333 0 320 0C308 0 295 7 291 22C274 78 251 119 228 154L39 5C34 2 29 0 24 0C17 0 10 3 5 9C-3 20 -1 35 9 43L239 223L601 507C612 515 627 513 635 503C643 492 641 477 631 469ZM266 183C285 156 304 124 320 84C343 140 372 182 396 216C425 258 445 286 447 325L266 183ZM320 464C249 464 192 406 192 334C192 308 200 286 213 263L175 234C157 264 144 295 144 334C144 432 223 512 320 512C373 512 420 488 452 451L414 421C391 447 357 464 320 464ZM336 432C345 432 352 425 352 416S345 400 336 400C292 400 256 364 256 320C256 311 249 304 240 304S224 311 224 320C224 382 274 432 336 432Z"/></svg>