<svg xmlns="http://www.w3.org/2000/svg" viewBox="0 0 576 512"><!-- Font Awesome Pro 6.0.0-alpha1 by @fontawesome - https://fontawesome.com License - https://fontawesome.com/license (Commercial License) --><path d="M288 32C129 32 0 89 0 160V352C0 423 129 480 288 480S576 423 576 352V160C576 89 447 32 288 32ZM288 80C312 80 336 81 358 83L346 128C342 146 316 160 288 160S234 146 230 128L218 83C240 81 264 80 288 80ZM230 175C246 186 267 192 288 192C309 192 330 186 346 176C349 198 357 218 370 235C345 238 317 240 288 240C259 240 231 238 205 235C218 218 227 197 230 175ZM174 90L187 136C197 170 184 206 157 227C91 213 48 188 48 160C48 130 99 103 174 90ZM528 352C528 379 434 432 288 432S48 379 48 352V231C100 265 188 288 288 288S476 265 528 231V352ZM418 227C410 221 402 213 397 204C385 185 381 163 386 142L399 89C475 102 528 129 528 160C528 188 484 213 418 227Z"/></svg>