<svg xmlns="http://www.w3.org/2000/svg" viewBox="0 0 512 512"><!-- Font Awesome Pro 6.0.0-alpha1 by @fontawesome - https://fontawesome.com License - https://fontawesome.com/license (Commercial License) --><path d="M471 58C440 22 395 1 348 0C301 -1 255 17 222 50C195 76 160 119 160 189V278L119 318C110 328 95 329 83 324C56 314 26 323 10 347C-6 371 -3 403 18 423C33 438 54 443 74 438C69 458 74 479 89 494C109 515 141 518 165 502C189 486 198 456 188 429C183 417 184 402 194 393L234 352H262L262 352H323C362 352 396 342 427 321C473 290 504 241 511 188C517 140 503 93 471 58ZM400 281C377 296 352 304 323 304H240C222 304 208 290 208 272V190C208 149 222 117 256 84C313 26 396 45 435 89C497 159 450 248 400 281Z"/></svg>