<svg xmlns="http://www.w3.org/2000/svg" viewBox="0 0 448 512"><!-- Font Awesome Pro 6.0.0-alpha1 by @fontawesome - https://fontawesome.com License - https://fontawesome.com/license (Commercial License) --><path d="M368 0H80C36 0 0 36 0 80V448C0 483 29 512 64 512H384C419 512 448 483 448 448V80C448 36 412 0 368 0ZM400 448C400 457 393 464 384 464H64C55 464 48 457 48 448V80C48 62 62 48 80 48H368C386 48 400 62 400 80V448ZM128 104C128 91 117 80 104 80C91 80 80 91 80 104S91 128 104 128C117 128 128 117 128 104ZM184 128C197 128 208 117 208 104S197 80 184 80C171 80 160 91 160 104S171 128 184 128ZM224 160C149 160 88 221 88 296S149 432 224 432S360 371 360 296S299 160 224 160ZM224 384C184 384 150 357 140 320H176C189 320 200 309 200 296S189 272 176 272H140C150 235 184 208 224 208C273 208 312 247 312 296S273 384 224 384Z"/></svg>