<svg xmlns="http://www.w3.org/2000/svg" viewBox="0 0 640 512"><!-- Font Awesome Pro 6.0.0-alpha1 by @fontawesome - https://fontawesome.com License - https://fontawesome.com/license (Commercial License) --><path d="M608 224L608 224L608 152C608 121 583 96 552 96H520C517 96 515 96 512 97V88C512 57 487 32 456 32H424C393 32 368 57 368 88V224H272V88C272 57 247 32 216 32H184C153 32 128 57 128 88V97C125 96 123 96 120 96H88C57 96 32 121 32 152V224H32C14 224 0 238 0 256V256C0 274 14 288 32 288H32V360C32 391 57 416 88 416H120C123 416 125 416 128 415V424C128 455 153 480 184 480H216C247 480 272 455 272 424V288H368V424C368 455 393 480 424 480H456C487 480 512 455 512 424V415C515 416 517 416 520 416H552C583 416 608 391 608 360V288H608C626 288 640 274 640 256V256C640 238 626 224 608 224ZM120 368H88C84 368 80 364 80 360V152C80 148 84 144 88 144H120C124 144 128 148 128 152V360C128 364 124 368 120 368ZM224 424C224 428 220 432 216 432H184C180 432 176 428 176 424V88C176 84 180 80 184 80H216C220 80 224 84 224 88V424ZM464 424C464 428 460 432 456 432H424C420 432 416 428 416 424V88C416 84 420 80 424 80H456C460 80 464 84 464 88V424ZM560 360C560 364 556 368 552 368H520C516 368 512 364 512 360V152C512 148 516 144 520 144H552C556 144 560 148 560 152V360Z"/></svg>