<svg xmlns="http://www.w3.org/2000/svg" viewBox="0 0 576 512"><!-- Font Awesome Pro 6.0.0-alpha1 by @fontawesome - https://fontawesome.com License - https://fontawesome.com/license (Commercial License) --><path d="M560 160C570 160 578 150 575 140L551 44C550 37 543 32 536 32H437L463 160H560ZM405 32H304V160H430L405 32ZM552 224H540L544 192H32L36 224H24C11 224 0 235 0 248V248C0 261 11 272 24 272H42L64 448V456C64 469 75 480 88 480H88C101 480 112 469 112 456V448H464V456C464 469 475 480 488 480L488 480C501 480 512 469 512 456V448L534 272H552C565 272 576 261 576 248V248C576 235 565 224 552 224ZM470 400H106L86 240H490L470 400ZM16 160H113L139 32H40C33 32 26 37 25 44L1 140C-2 150 6 160 16 160ZM272 32H171L146 160H272V32Z"/></svg>