<svg xmlns="http://www.w3.org/2000/svg" viewBox="0 0 640 512"><!-- Font Awesome Pro 6.0.0-alpha1 by @fontawesome - https://fontawesome.com License - https://fontawesome.com/license (Commercial License) --><path d="M419 104L419 104L405 32H304V160H365C381 141 399 122 419 104ZM461 104C480 120 497 138 512 156C518 150 524 145 530 139L551 120L572 139C573 140 574 141 575 142C575 142 576 141 575 140L551 44C550 37 543 32 536 32H437L449 94L461 104ZM272 32H172L146 160H272V32ZM106 400L86 240H312C320 224 329 208 341 192H32L36 224H24C11 224 0 235 0 248V248C0 261 11 272 24 272H42L64 448V456C64 469 75 480 88 480H88C101 480 112 469 112 456V448H337C324 434 313 418 305 400H106ZM16 160H113L139 32H40C33 32 26 37 25 44L1 140C-2 150 6 160 16 160ZM551 163C536 177 523 190 511 204C491 179 467 152 440 128C370 191 320 272 320 322C320 409 392 480 480 480S640 409 640 322C640 285 603 209 551 163ZM480 432C418 432 368 383 368 322C368 299 393 247 440 195C463 219 471 231 509 281C549 234 548 235 550 233C576 268 592 307 592 322C592 383 542 432 480 432Z"/></svg>