<svg xmlns="http://www.w3.org/2000/svg" viewBox="0 0 512 512"><!-- Font Awesome Pro 6.0.0-alpha1 by @fontawesome - https://fontawesome.com License - https://fontawesome.com/license (Commercial License) --><path d="M256 16C123 16 16 123 16 256S123 496 256 496S496 389 496 256S389 16 256 16ZM224 67V70C224 82 211 90 201 84L187 77C199 73 211 69 224 67ZM64 256C64 230 70 205 79 182C90 199 103 218 108 226C113 233 119 240 126 246L127 247C137 256 147 263 159 269C173 276 193 287 208 295C218 300 224 311 224 323V355C224 363 227 371 233 377C248 392 258 416 256 429V448C150 448 64 362 64 256ZM302 441L316 405C318 399 319 393 321 388C322 384 324 380 327 377C330 374 334 370 338 366C347 357 352 345 352 333C352 325 349 317 343 311L329 297C323 291 315 288 307 288H240C231 283 219 256 208 256S187 254 178 249L167 243C163 241 160 237 160 233C160 228 163 223 168 221L199 211C205 209 211 210 215 214L224 222C226 223 228 224 229 224H235C241 224 245 218 242 212L227 181C225 178 226 174 228 172L238 162C240 161 242 160 244 160H253C255 160 257 159 258 158L266 150C269 146 269 142 266 138L262 134C259 130 259 126 262 122L272 112L277 107C283 101 283 91 277 85L256 64H256C331 64 396 108 427 170L422 173C418 175 415 178 412 181L393 211C387 219 387 229 393 237L411 264C414 269 419 273 425 274L446 279C436 359 378 422 302 441Z"/></svg>