<svg xmlns="http://www.w3.org/2000/svg" viewBox="0 0 512 512"><!-- Font Awesome Pro 6.0.0-alpha1 by @fontawesome - https://fontawesome.com License - https://fontawesome.com/license (Commercial License) --><path d="M256 16C123 16 16 123 16 256S123 496 256 496S496 389 496 256S389 16 256 16ZM282 221L268 214C260 210 252 208 243 208H242C230 208 219 212 209 219L182 240C168 250 160 266 160 283V297C160 312 166 326 176 336C186 346 200 352 215 352H241C249 352 256 359 256 367V397C256 410 259 422 264 433C266 436 271 442 276 446C270 447 263 448 256 448C150 448 64 362 64 256S150 64 256 64C267 64 278 65 288 67V80C288 89 281 96 273 96H248C243 96 238 99 235 103L227 115C225 118 222 121 218 122L204 125C197 127 192 133 192 140V145C192 153 199 160 207 160H298C302 160 306 162 309 165L315 172C318 174 322 176 326 176H337C345 176 352 183 352 191C352 198 348 204 341 206L294 222C290 223 286 223 282 221ZM307 441C309 439 311 438 312 436L325 416C332 405 341 396 350 387C353 385 354 382 355 378L359 356C360 353 361 351 362 349L381 324C383 322 384 318 384 315V303C384 295 377 288 369 288H360C355 288 350 285 347 281L334 261C329 253 332 241 342 238L345 237C349 235 354 236 358 239L377 251C381 254 387 254 392 252L408 244C413 242 416 236 416 230V223C416 215 423 208 431 208H442C446 223 448 239 448 256C448 344 388 418 307 441Z"/></svg>