<svg xmlns="http://www.w3.org/2000/svg" viewBox="0 0 512 512"><!-- Font Awesome Pro 6.0.0-alpha1 by @fontawesome - https://fontawesome.com License - https://fontawesome.com/license (Commercial License) --><path d="M256 16C123 16 16 123 16 256S123 496 256 496S496 389 496 256S389 16 256 16ZM415 363C416 362 416 360 416 358V334C416 330 414 325 411 322L399 311C398 309 397 307 397 305V292C397 290 395 288 393 288H387C385 288 384 289 383 291L379 305C378 307 377 308 375 308H371C370 308 368 307 368 306L362 293C361 290 358 288 355 288H343C341 288 340 289 338 290L314 306C313 308 311 309 309 309L270 325C266 326 264 329 264 333V343C264 345 265 347 267 348L279 360C282 363 286 365 290 365H300C302 365 303 365 304 365L326 359C335 357 344 360 351 366L364 379C367 382 371 384 375 384H390C395 384 399 382 402 379L407 374C372 419 317 448 256 448C161 448 82 379 67 288H121C126 288 130 286 133 283L152 264C156 260 162 261 165 266L188 311C190 317 196 320 202 320H208C217 320 224 313 224 304V295C224 290 222 286 219 283L214 278C211 274 211 269 214 266L219 261C222 258 226 256 231 256H231C236 256 242 253 245 248L262 219C264 216 268 217 270 220C271 222 274 224 277 224H280C284 224 288 220 288 216V138C288 132 285 126 279 124L268 118C263 115 262 108 268 104L309 72C389 96 448 169 448 256C448 296 436 333 415 363Z"/></svg>