<svg xmlns="http://www.w3.org/2000/svg" viewBox="0 0 512 512"><!-- Font Awesome Pro 6.0.0-alpha1 by @fontawesome - https://fontawesome.com License - https://fontawesome.com/license (Commercial License) --><path d="M256 16C123 16 16 123 16 256S123 496 256 496S496 389 496 256S389 16 256 16ZM422 352H418C413 352 408 350 405 347L387 330C381 324 373 320 365 320H346L303 283C295 276 285 272 274 272H243C234 272 226 275 219 279L176 305C162 313 154 328 154 344V368C154 382 161 395 172 404L194 421C203 427 219 432 230 432H250C259 432 265 439 266 447C263 447 259 448 256 448C150 448 64 362 64 256C64 156 141 74 239 65L221 78C219 79 218 82 218 84V104C218 109 222 112 226 112H242C246 112 250 109 250 104V96L266 80H287C293 80 298 86 298 92C298 95 297 98 295 100L268 126C267 128 265 129 264 129L224 142C220 144 218 147 218 150C218 157 215 163 211 168L191 188C188 191 186 195 186 199V224C186 233 193 240 202 240H224C230 240 236 237 238 232L248 213C249 210 252 208 255 208H258C263 208 266 212 266 216S270 224 274 224H290C295 224 298 221 298 216V214C298 211 300 208 304 207L335 196C342 194 346 188 346 181V176C346 168 353 160 362 160H399C405 160 410 166 410 172V181C410 187 405 192 399 192H367C364 192 361 194 359 196L349 205C347 207 346 210 346 213C346 219 351 224 357 224H373C376 224 379 226 382 228L391 237C393 239 394 242 394 245V254L382 266C377 271 377 278 381 283L414 316C416 319 421 320 425 320H436C432 332 428 342 422 352ZM186 124C186 118 181 112 175 112C172 112 169 114 167 116L141 141C139 143 138 146 138 149C138 155 143 160 149 160H165C168 160 171 159 173 157L183 148C185 146 186 143 186 140V124Z"/></svg>