<svg xmlns="http://www.w3.org/2000/svg" viewBox="0 0 640 512"><!-- Font Awesome Pro 6.0.0-alpha1 by @fontawesome - https://fontawesome.com License - https://fontawesome.com/license (Commercial License) --><path d="M256 458L204 381L113 399L131 307L54 255L131 203L113 112L204 130L256 53L288 100C299 88 311 78 325 69L290 17C274 -6 238 -6 223 17L182 77L111 63C98 60 84 65 75 74C66 84 61 97 64 110L78 181L18 222C7 230 0 242 0 256C0 269 7 282 18 289L78 330L64 401C61 414 66 427 75 437S98 451 111 448L182 434L223 494C230 505 243 512 256 512S282 505 290 494L324 443C311 434 298 423 287 412L256 458ZM230 207C234 188 241 170 250 153C195 156 152 201 152 256C152 311 195 356 250 359C241 342 234 324 230 305C212 296 200 277 200 256C200 235 212 216 230 207ZM448 64C342 64 256 150 256 256S342 448 448 448C554 448 640 362 640 256S554 64 448 64ZM448 400C369 400 304 335 304 256C304 177 369 112 448 112S592 177 592 256C592 335 527 400 448 400Z"/></svg>