<svg xmlns="http://www.w3.org/2000/svg" viewBox="0 0 512 512"><!-- Font Awesome Pro 6.0.0-alpha1 by @fontawesome - https://fontawesome.com License - https://fontawesome.com/license (Commercial License) --><path d="M478 150C439 110 378 104 334 68C290 32 256 0 200 0C192 0 184 1 175 2C89 16 64 82 50 159C39 224 -4 286 0 352C5 418 53 481 115 503C133 509 149 512 164 512C229 512 273 461 320 417C364 375 413 379 461 343C517 300 533 202 478 150ZM432 304C416 317 398 323 378 330C350 341 318 352 287 382C281 387 276 392 270 398C234 433 202 464 164 464C154 464 143 462 131 458C87 442 51 395 48 349C46 320 58 288 71 253C82 226 92 198 98 167C111 87 133 58 183 50C189 49 195 48 200 48C233 48 255 65 294 98L303 105C329 126 357 138 383 149C408 160 429 169 444 184L444 185L445 185C463 202 464 226 464 239C462 265 450 291 432 304ZM224 128C162 128 112 178 112 240C112 302 162 352 224 352S336 302 336 240C336 178 286 128 224 128ZM224 200C202 200 184 218 184 240C184 249 177 256 168 256S152 249 152 240C152 201 184 168 224 168C233 168 240 175 240 184C240 193 233 200 224 200V200Z"/></svg>