<svg xmlns="http://www.w3.org/2000/svg" viewBox="0 0 384 512"><!-- Font Awesome Pro 6.0.0-alpha1 by @fontawesome - https://fontawesome.com License - https://fontawesome.com/license (Commercial License) --><path d="M192 0C86 0 0 214 0 320S86 512 192 512C298 512 384 426 384 320S298 0 192 0ZM192 464C113 464 48 399 48 320C48 203 139 48 192 48S336 203 336 320C336 399 271 464 192 464ZM168 104C161 104 154 107 149 113C114 157 76 239 76 304C76 317 87 328 100 328C114 328 124 317 124 304C124 252 156 181 187 143C195 133 193 118 183 109C179 106 174 104 168 104Z"/></svg>