<svg xmlns="http://www.w3.org/2000/svg" viewBox="0 0 448 512"><!-- Font Awesome Pro 6.0.0-alpha1 by @fontawesome - https://fontawesome.com License - https://fontawesome.com/license (Commercial License) --><path d="M48 352H400C442 352 463 302 435 272L259 79C250 69 237 64 224 64C211 64 198 69 189 79L13 272C-15 302 6 352 48 352ZM224 112C224 112 224 112 224 112L224 112L400 304L48 304L224 112ZM424 400H24C11 400 0 411 0 424C0 437 11 448 24 448H424C437 448 448 437 448 424C448 411 437 400 424 400Z"/></svg>