<svg xmlns="http://www.w3.org/2000/svg" viewBox="0 0 640 512"><!-- Font Awesome Pro 6.0.0-alpha1 by @fontawesome - https://fontawesome.com License - https://fontawesome.com/license (Commercial License) --><path d="M528 128C519 128 512 135 512 144C512 153 519 160 528 160S544 153 544 144C544 135 537 128 528 128ZM512 32H451C447 28 443 25 439 21C413 1 380 -5 347 4C329 9 313 19 301 32H192C86 32 0 118 0 224V336C0 345 7 352 16 352H32V480C32 498 46 512 64 512H144C162 512 176 498 176 480V407C194 412 242 424 304 407V480C304 498 318 512 336 512H416C434 512 448 498 448 480V288H592V376C592 389 581 400 568 400S544 389 544 376V368C544 359 537 352 528 352H512C503 352 496 359 496 368V373C496 410 523 444 561 448C604 452 640 418 640 376V160C640 89 583 32 512 32ZM400 464H352V344C231 377 241 375 128 344V464H80V304H48V224C48 144 113 80 192 80H275C269 107 273 134 287 157C298 177 316 191 336 200C336 240 363 274 400 284V464ZM592 208C592 226 578 240 560 240H424C402 240 384 222 384 200V163C361 158 342 156 328 133C311 105 321 61 360 50C389 42 415 56 426 80H512C556 80 592 116 592 160V208Z"/></svg>