<svg xmlns="http://www.w3.org/2000/svg" viewBox="0 0 512 512"><!-- Font Awesome Pro 6.0.0-alpha1 by @fontawesome - https://fontawesome.com License - https://fontawesome.com/license (Commercial License) --><path d="M256 176C212 176 176 212 176 256S212 336 256 336C300 336 336 300 336 256S300 176 256 176ZM256 288C238 288 224 274 224 256S238 224 256 224S288 238 288 256S274 288 256 288ZM432 176C388 176 352 212 352 256S388 336 432 336C476 336 512 300 512 256S476 176 432 176ZM432 288C414 288 400 274 400 256S414 224 432 224S464 238 464 256S450 288 432 288ZM80 176C36 176 0 212 0 256S36 336 80 336C124 336 160 300 160 256S124 176 80 176ZM80 288C62 288 48 274 48 256S62 224 80 224S112 238 112 256S98 288 80 288Z"/></svg>