<svg xmlns="http://www.w3.org/2000/svg" viewBox="0 0 256 512"><!-- Font Awesome Pro 6.0.0-alpha1 by @fontawesome - https://fontawesome.com License - https://fontawesome.com/license (Commercial License) --><path d="M208 256C208 212 172 176 128 176S48 212 48 256C48 300 84 336 128 336S208 300 208 256ZM96 256C96 238 110 224 128 224S160 238 160 256S146 288 128 288S96 274 96 256ZM208 432C208 388 172 352 128 352S48 388 48 432C48 476 84 512 128 512S208 476 208 432ZM96 432C96 414 110 400 128 400S160 414 160 432S146 464 128 464S96 450 96 432ZM208 80C208 36 172 0 128 0S48 36 48 80C48 124 84 160 128 160S208 124 208 80ZM96 80C96 62 110 48 128 48S160 62 160 80S146 112 128 112S96 98 96 80Z"/></svg>