<svg xmlns="http://www.w3.org/2000/svg" viewBox="0 0 640 512"><!-- Font Awesome Pro 6.0.0-alpha1 by @fontawesome - https://fontawesome.com License - https://fontawesome.com/license (Commercial License) --><path d="M192 232A24 24 0 1 0 216 256A24 24 0 0 0 192 232ZM592 192H560A48 48 0 0 0 512 240V256H496V208A16 16 0 0 0 490 196L419 138C410 132 416 128 405 128H312V112H376A24 24 0 0 0 376 64H200A24 24 0 0 0 200 112H264V128H128A48 48 0 0 0 80 176V232H48V152A24 24 0 0 0 0 152V360A24 24 0 0 0 48 360V280H80V336A48 48 0 0 0 128 384H169L219 434A48 48 0 0 0 253 448H448A48 48 0 0 0 496 400V384H512V400A48 48 0 0 0 560 448H592A48 48 0 0 0 640 400V240A48 48 0 0 0 592 192ZM448 400H253L203 350L189 336H128V176H389L448 223ZM592 400H560V336H496V304H560V240H592ZM288 232A24 24 0 1 0 312 256A24 24 0 0 0 288 232ZM360 256A24 24 0 1 0 384 232A24 24 0 0 0 360 256Z"/></svg>