<svg xmlns="http://www.w3.org/2000/svg" viewBox="0 0 640 512"><!-- Font Awesome Pro 6.0.0-alpha1 by @fontawesome - https://fontawesome.com License - https://fontawesome.com/license (Commercial License) --><path d="M288 384A32 32 0 1 0 320 416A32 32 0 0 0 288 384ZM288 352A24 24 0 0 0 312 328V216A24 24 0 0 0 264 216V328A24 24 0 0 0 288 352ZM592 192H560A48 48 0 0 0 512 240V256H496V208A16 16 0 0 0 490 196L419 138A48 48 0 0 0 389 128H312V112H376A24 24 0 0 0 376 64H200A24 24 0 0 0 200 112H264V128H128A48 48 0 0 0 80 176V232H48V152A24 24 0 0 0 0 152V360A24 24 0 0 0 48 360V280H80V336A48 48 0 0 0 128 384H169L219 434A48 48 0 0 0 229 441A64 64 0 0 1 234 381L189 336H128V176H389L448 223V400H350A63 63 0 0 1 352 416A64 64 0 0 1 343 448H448A48 48 0 0 0 496 400V384H512V400A48 48 0 0 0 560 448H592A48 48 0 0 0 640 400V240A48 48 0 0 0 592 192ZM592 400H560V336H496V304H560V240H592Z"/></svg>