<svg xmlns="http://www.w3.org/2000/svg" viewBox="0 0 512 512"><!-- Font Awesome Pro 6.0.0-alpha1 by @fontawesome - https://fontawesome.com License - https://fontawesome.com/license (Commercial License) --><path d="M494 163C469 143 448 128 329 41C313 29 280 0 256 0C256 0 256 0 256 0C256 0 256 0 256 0C232 0 199 29 183 41C64 128 43 143 18 163C7 172 0 186 0 201V448C0 483 29 512 64 512H448C483 512 512 483 512 448V201C512 186 505 172 494 163ZM464 448C464 457 457 464 448 464H64C55 464 48 457 48 448V277L184 390C204 407 230 416 256 416S308 407 328 390L464 277V448ZM464 214L297 353C274 372 238 372 215 353L48 214V208H48L48 201C71 182 90 168 211 80C214 78 218 75 222 72C229 66 247 53 256 49C265 53 283 66 290 72C294 75 298 78 301 80C422 168 441 182 464 201V214Z"/></svg>