<svg xmlns="http://www.w3.org/2000/svg" viewBox="0 0 512 512"><!-- Font Awesome Pro 6.0.0-alpha1 by @fontawesome - https://fontawesome.com License - https://fontawesome.com/license (Commercial License) --><path d="M257 304C268 304 277 295 277 284V274C300 269 315 255 319 234C327 191 285 179 263 173L257 171C234 164 234 161 235 157C236 149 251 147 265 149C271 150 277 152 283 154C293 157 305 152 308 141C312 131 306 120 296 116C289 113 283 112 277 111V100C277 89 268 80 257 80S237 89 237 100V110C215 115 199 129 195 150C188 193 229 204 246 210L252 211C281 220 281 222 280 227C278 235 263 237 249 235C242 234 234 231 226 228L221 226C211 223 199 228 196 239C192 249 198 261 208 264L212 266C220 269 229 271 237 273V284C237 295 246 304 257 304ZM477 214L477 214C469 214 461 217 454 222L297 353C275 372 237 372 215 353L58 222C51 217 43 214 35 214H35C16 214 0 230 0 249V448C0 483 29 512 64 512H448C483 512 512 483 512 448V249C512 230 496 214 477 214ZM464 448C464 457 457 464 448 464H64C55 464 48 457 48 448V277L184 390C204 407 230 416 256 416S308 407 328 390L464 277V448ZM112 226V56C112 52 116 48 120 48H392C396 48 400 52 400 56V226L434 198C438 194 443 191 448 189V56C448 25 423 0 392 0H120C89 0 64 25 64 56V189C69 191 74 194 78 198L112 226Z"/></svg>