<svg xmlns="http://www.w3.org/2000/svg" viewBox="0 0 640 512"><!-- Font Awesome Pro 6.0.0-alpha1 by @fontawesome - https://fontawesome.com License - https://fontawesome.com/license (Commercial License) --><path d="M592 128H272C246 128 224 150 224 176V192H272V176H592V368H416V416H592C618 416 640 394 640 368V176C640 150 618 128 592 128ZM112 48H432V96H480V48C480 22 458 0 432 0H112C86 0 64 22 64 48V192H112V48ZM336 224H48C22 224 0 246 0 272V464C0 490 22 512 48 512H336C362 512 384 490 384 464V272C384 246 362 224 336 224ZM336 464H48V344C62 355 128 402 128 402C142 413 167 432 192 432S242 413 256 402C256 402 322 355 336 344V464ZM336 285C334 287 224 367 219 371C210 377 200 384 192 384C183 384 169 374 161 366C157 364 50 284 48 282V272H336V285ZM496 208V272H560V208H496Z"/></svg>