<svg xmlns="http://www.w3.org/2000/svg" viewBox="0 0 512 512"><!-- Font Awesome Pro 6.0.0-alpha1 by @fontawesome - https://fontawesome.com License - https://fontawesome.com/license (Commercial License) --><path d="M480 192H448V160C448 142 434 128 416 128H384V96C384 78 370 64 352 64H160C142 64 128 78 128 96V128H96C78 128 64 142 64 160V192H32C14 192 0 206 0 224V416C0 434 14 448 32 448H480C498 448 512 434 512 416V224C512 206 498 192 480 192ZM464 400H424V344C424 331 413 320 400 320S376 331 376 344V400H328V344C328 331 317 320 304 320S280 331 280 344V400H232V344C232 331 221 320 208 320S184 331 184 344V400H136V344C136 331 125 320 112 320S88 331 88 344V400H48V240H96C105 240 112 233 112 224V176H160C169 176 176 169 176 160V112H336V160C336 169 343 176 352 176H400V224C400 233 407 240 416 240H464V400Z"/></svg>