<svg xmlns="http://www.w3.org/2000/svg" viewBox="0 0 384 512"><!-- Font Awesome Pro 6.0.0-alpha1 by @fontawesome - https://fontawesome.com License - https://fontawesome.com/license (Commercial License) --><path d="M351 447C354 460 346 473 333 475C318 478 302 480 287 480C229 480 172 457 129 414C104 389 87 360 76 328H56C43 328 32 317 32 304S43 280 56 280H66C64 264 64 248 66 232H56C43 232 32 221 32 208C32 195 43 184 56 184H76C87 152 104 123 129 98C183 44 259 21 333 37C346 39 354 52 352 65C349 78 336 86 323 84C265 72 205 90 163 132C148 147 136 165 128 184H280C293 184 304 195 304 208C304 221 293 232 280 232H114C112 248 112 264 114 280H264C277 280 288 291 288 304S277 328 264 328H128C136 347 148 365 163 380C205 422 265 440 323 428C336 426 349 434 351 447Z"/></svg>