<svg xmlns="http://www.w3.org/2000/svg" viewBox="0 0 640 512"><!-- Font Awesome Pro 6.0.0-alpha1 by @fontawesome - https://fontawesome.com License - https://fontawesome.com/license (Commercial License) --><path d="M631 469L527 388C559 356 585 317 605 273C606 269 608 261 608 256C608 251 606 243 605 239C550 116 443 32 320 32C257 32 199 54 149 92L39 5C34 2 29 0 24 0C17 0 10 3 5 9C-3 20 -1 35 9 43L601 507C612 515 627 513 635 503C643 492 641 477 631 469ZM394 284L313 220C317 211 320 202 320 192C320 187 319 181 318 176C319 176 319 176 320 176C364 176 400 212 400 256C400 266 398 275 394 284ZM433 314C442 297 448 277 448 256V256C448 185 391 128 320 128C288 128 259 140 236 160L188 122C228 95 273 80 320 80C419 80 511 147 560 256C542 296 517 330 489 358L433 314ZM320 384C333 384 346 381 358 378L303 334C279 329 259 313 249 292L193 248C193 251 192 253 192 256C192 327 249 384 320 384H320ZM320 432C221 432 129 365 80 256C91 232 105 210 119 190L81 160C64 184 48 210 35 239C34 243 32 251 32 256C32 261 34 269 35 273C90 396 197 480 320 480C365 480 409 469 448 448L405 414C378 425 349 432 320 432Z"/></svg>