<svg xmlns="http://www.w3.org/2000/svg" viewBox="0 0 640 512"><!-- Font Awesome Pro 6.0.0-alpha1 by @fontawesome - https://fontawesome.com License - https://fontawesome.com/license (Commercial License) --><path d="M610 218L516 192C530 169 557 128 557 128C566 113 565 96 554 82C543 69 525 63 508 69L406 105C402 104 398 102 394 101L357 24C350 9 336 0 320 0S290 9 283 23L246 101C242 102 238 104 234 105L132 69C115 63 97 69 86 82C75 96 74 113 83 128C83 128 110 169 124 192L30 218C12 222 0 238 0 256S12 290 30 294L124 320C117 331 105 351 83 384C74 399 75 416 86 430C97 443 115 449 132 443L234 407C238 408 242 410 246 411L283 488C290 503 304 512 320 512S350 503 357 489L394 411C398 410 402 408 406 407L508 443C525 449 543 443 554 430C565 416 566 399 557 384C535 351 523 331 516 320L610 295C628 290 640 274 640 256C640 238 628 222 610 218ZM486 278L481 285C477 290 472 296 467 302L456 316L466 331C468 334 490 368 504 390L404 355L395 359C387 363 378 366 370 369L360 372L320 455L280 372L270 369C262 366 253 363 245 359L236 355L136 390C150 368 172 334 174 331L185 316L173 302C168 296 163 290 159 285L154 278L72 256L154 234L159 228C163 222 168 216 173 210L184 197L175 182C173 180 151 145 136 122L236 157L245 153C253 149 262 146 270 143L280 140L320 57L360 140L370 143C378 146 387 149 395 153L404 157L504 122C489 145 467 180 465 182L456 197L467 211C473 216 477 222 481 228L486 234L568 256L486 278ZM391 201C387 201 384 201 380 203C362 209 342 213 320 213C298 213 278 209 259 203C256 201 253 201 249 201C235 201 222 210 219 224C216 238 215 253 218 268C226 310 260 344 302 351C308 352 314 352 320 352C378 352 424 306 424 248C424 241 423 234 422 227C419 212 405 201 391 201ZM320 304C317 304 313 304 310 303C288 300 269 281 265 259C265 257 265 256 264 254C276 258 289 259 302 260L320 288L338 260C351 259 364 258 376 254C372 282 349 304 320 304Z"/></svg>