<svg xmlns="http://www.w3.org/2000/svg" viewBox="0 0 512 512"><!-- Font Awesome Pro 6.0.0-alpha1 by @fontawesome - https://fontawesome.com License - https://fontawesome.com/license (Commercial License) --><path d="M144 211C152 197 164 189 176 189C188 189 200 197 207 211L217 228C221 235 233 232 232 223C229 181 200 152 176 152C152 152 123 181 120 223C119 232 131 235 135 228L144 211ZM370 288H142C133 288 127 295 128 303C136 362 187 408 249 408H263C325 408 376 362 384 303C385 295 379 288 370 288ZM336 152C312 152 283 181 280 223C279 232 291 235 295 228L304 211C312 197 324 189 336 189C348 189 360 197 367 211L377 228C381 235 392 232 392 223C389 181 360 152 336 152ZM256 16C123 16 16 123 16 256S123 496 256 496S496 389 496 256S389 16 256 16ZM256 448C150 448 64 362 64 256S150 64 256 64S448 150 448 256S362 448 256 448Z"/></svg>