<svg xmlns="http://www.w3.org/2000/svg" viewBox="0 0 512 512"><!-- Font Awesome Pro 6.0.0-alpha1 by @fontawesome - https://fontawesome.com License - https://fontawesome.com/license (Commercial License) --><path d="M170 275C159 290 134 325 134 343C134 366 153 384 176 384C199 384 218 366 218 343C218 325 193 290 182 275C179 271 173 271 170 275ZM176 240C194 240 208 226 208 208S194 176 176 176C158 176 144 190 144 208S158 240 176 240ZM264 304C251 304 240 315 240 328S251 352 264 352C288 352 310 362 326 381C334 391 349 393 359 384C370 375 371 360 362 350C338 321 302 304 264 304ZM336 176C318 176 304 190 304 208S318 240 336 240C354 240 368 226 368 208S354 176 336 176ZM256 16C123 16 16 123 16 256S123 496 256 496S496 389 496 256S389 16 256 16ZM256 448C150 448 64 362 64 256S150 64 256 64S448 150 448 256S362 448 256 448Z"/></svg>