<svg xmlns="http://www.w3.org/2000/svg" viewBox="0 0 512 512"><!-- Font Awesome Pro 6.0.0-alpha1 by @fontawesome - https://fontawesome.com License - https://fontawesome.com/license (Commercial License) --><path d="M160 200C147 200 136 211 136 224S147 248 160 248S184 237 184 224S173 200 160 200ZM256 16C123 16 16 123 16 256S123 496 256 496S496 389 496 256S389 16 256 16ZM256 448C150 448 64 362 64 256S150 64 256 64S448 150 448 256S362 448 256 448ZM232 224C232 184 200 152 160 152C120 152 88 184 88 224C88 264 120 296 160 296C200 296 232 264 232 224ZM160 264C138 264 120 246 120 224C120 202 138 184 160 184C182 184 200 202 200 224C200 246 182 264 160 264ZM352 200C339 200 328 211 328 224S339 248 352 248S376 237 376 224S365 200 352 200ZM352 152C312 152 280 184 280 224C280 264 312 296 352 296C392 296 424 264 424 224C424 184 392 152 352 152ZM352 264C330 264 312 246 312 224C312 202 330 184 352 184C374 184 392 202 392 224C392 246 374 264 352 264ZM312 336H200C187 336 176 347 176 360S187 384 200 384H312C325 384 336 373 336 360S325 336 312 336Z"/></svg>