<svg xmlns="http://www.w3.org/2000/svg" viewBox="0 0 512 512"><!-- Font Awesome Pro 6.0.0-alpha1 by @fontawesome - https://fontawesome.com License - https://fontawesome.com/license (Commercial License) --><path d="M344 152C304 152 272 184 272 224S304 296 344 296C384 296 416 264 416 224S384 152 344 152ZM344 264C322 264 304 246 304 224C304 210 311 199 322 192C321 194 320 197 320 200C320 213 331 224 344 224S368 213 368 200C368 197 367 194 366 192C377 199 384 210 384 224C384 246 366 264 344 264ZM240 224C240 184 208 152 168 152C128 152 96 184 96 224S128 296 168 296C208 296 240 264 240 224ZM128 224C128 210 135 199 146 192C145 194 144 197 144 200C144 213 155 224 168 224S192 213 192 200C192 197 191 194 190 192C201 199 208 210 208 224C208 246 190 264 168 264C146 264 128 246 128 224ZM320 352H192C179 352 168 363 168 376S179 400 192 400H320C333 400 344 389 344 376S333 352 320 352ZM256 16C123 16 16 123 16 256S123 496 256 496S496 389 496 256S389 16 256 16ZM256 448C150 448 64 362 64 256S150 64 256 64S448 150 448 256S362 448 256 448Z"/></svg>