<svg xmlns="http://www.w3.org/2000/svg" viewBox="0 0 512 512"><!-- Font Awesome Pro 6.0.0-alpha1 by @fontawesome - https://fontawesome.com License - https://fontawesome.com/license (Commercial License) --><path d="M370 288H142C133 288 127 295 128 303C136 362 187 408 249 408H263C325 408 376 362 384 303C385 295 379 288 370 288ZM142 254L222 206C230 202 230 190 222 186L142 138C131 131 118 145 127 156L160 196L127 236C118 247 131 261 142 254ZM370 138L290 186C282 190 282 202 290 206L370 254C381 261 394 247 385 236L352 196L385 156C394 145 381 131 370 138ZM256 16C123 16 16 123 16 256S123 496 256 496S496 389 496 256S389 16 256 16ZM256 448C150 448 64 362 64 256S150 64 256 64S448 150 448 256S362 448 256 448Z"/></svg>