<svg xmlns="http://www.w3.org/2000/svg" viewBox="0 0 512 512"><!-- Font Awesome Pro 6.0.0-alpha1 by @fontawesome - https://fontawesome.com License - https://fontawesome.com/license (Commercial License) --><path d="M256 312C222 312 191 327 169 353C161 363 162 378 172 386S198 394 206 383C231 354 281 354 306 383C314 393 329 395 340 386C350 378 351 363 343 353C321 327 290 312 256 312ZM407 185C403 172 390 165 377 169L297 193C284 197 277 210 281 223C284 233 294 240 304 240C304 258 318 272 336 272C354 272 368 258 368 240C368 234 366 228 363 223L391 215C404 211 411 198 407 185ZM208 240C218 240 228 233 231 223C235 210 228 197 215 193L135 169C122 165 109 172 105 185C101 198 108 211 121 215L149 224C146 228 144 234 144 240C144 258 158 272 176 272C194 272 208 258 208 240ZM256 16C123 16 16 123 16 256S123 496 256 496S496 389 496 256S389 16 256 16ZM256 448C150 448 64 362 64 256S150 64 256 64S448 150 448 256S362 448 256 448Z"/></svg>