<svg xmlns="http://www.w3.org/2000/svg" viewBox="0 0 512 512"><!-- Font Awesome Pro 6.0.0-alpha1 by @fontawesome - https://fontawesome.com License - https://fontawesome.com/license (Commercial License) --><path d="M160 186C172 186 184 194 191 207L201 224C203 228 207 229 210 228C214 227 216 224 216 220C213 178 184 148 160 148C136 148 107 178 104 220C104 223 106 227 110 228C113 229 117 228 119 224L128 207C136 194 148 186 160 186ZM240 396C292 396 355 363 363 316C365 306 356 298 346 301C320 309 281 314 240 314S160 309 134 301C125 298 115 306 117 316C125 363 188 396 240 396ZM376 220C373 178 344 148 320 148C296 148 267 178 264 220C264 223 266 227 270 228C273 229 277 228 279 224L289 207C296 194 308 186 320 186C332 186 344 194 352 207L361 224C363 228 367 229 370 228C374 227 376 224 376 220ZM440 172C430 172 421 170 412 167C425 193 432 222 432 252C432 358 346 444 240 444S48 358 48 252S134 60 240 60C282 60 321 74 353 97C353 94 352 91 352 87C352 76 356 63 364 47C328 25 285 12 240 12C107 12 0 120 0 252S107 492 240 492S480 385 480 252C480 223 474 195 465 168C457 171 449 172 440 172ZM440 140C471 140 496 117 496 87C496 65 463 20 447 0C444 -5 436 -5 433 0C417 20 384 65 384 87C384 117 409 140 440 140Z"/></svg>