<svg xmlns="http://www.w3.org/2000/svg" viewBox="0 0 512 512"><!-- Font Awesome Pro 6.0.0-alpha1 by @fontawesome - https://fontawesome.com License - https://fontawesome.com/license (Commercial License) --><path d="M160 180C134 180 104 197 100 222C99 227 102 232 106 234C111 237 116 236 120 233L129 224C144 211 176 211 190 224L200 233C202 235 208 238 214 234C218 232 221 227 220 222C216 197 186 180 160 180ZM256 16C123 16 16 123 16 256C16 367 91 460 193 487C209 502 231 512 255 512H255C280 512 302 502 320 487C421 459 496 366 496 256C496 123 389 16 256 16ZM320 416C320 452 291 481 255 480C220 479 192 450 192 415V364L210 355C225 348 241 357 245 372L247 384C249 393 263 393 265 384L267 372C271 357 287 348 302 355L320 364V416ZM351 422C352 420 352 418 352 416V364C366 352 376 337 379 320C381 310 372 302 362 305C336 313 297 318 256 318S176 313 150 305C140 302 131 310 133 320C136 337 146 352 160 364V415C160 418 160 420 161 422C103 389 64 327 64 256C64 150 150 64 256 64S448 150 448 256C448 327 409 389 351 422ZM336 184C323 184 312 195 312 208S323 232 336 232C349 232 360 221 360 208S349 184 336 184ZM336 128C292 128 256 164 256 208C256 252 292 288 336 288S416 252 416 208C416 164 380 128 336 128ZM336 256C310 256 288 234 288 208S310 160 336 160C362 160 384 182 384 208S362 256 336 256Z"/></svg>