<svg xmlns="http://www.w3.org/2000/svg" viewBox="0 0 512 512"><!-- Font Awesome Pro 6.0.0-alpha1 by @fontawesome - https://fontawesome.com License - https://fontawesome.com/license (Commercial License) --><path d="M209 256C213 257 218 254 219 250L239 180C244 159 231 139 210 135C191 132 174 145 168 163L166 170L159 168C141 164 121 173 114 190C107 211 118 232 139 238L209 256ZM362 305C336 313 297 318 256 318S176 313 150 305C141 302 131 310 133 320C141 367 204 400 256 400S371 367 379 320C381 310 372 302 362 305ZM398 190C391 173 371 164 353 168L346 170L344 163C339 145 321 132 302 135C281 139 268 159 273 180L293 250C294 254 299 257 303 256L373 238C394 232 405 211 398 190ZM256 16C123 16 16 123 16 256S123 496 256 496S496 389 496 256S389 16 256 16ZM256 448C150 448 64 362 64 256S150 64 256 64S448 150 448 256S362 448 256 448Z"/></svg>