<svg xmlns="http://www.w3.org/2000/svg" viewBox="0 0 512 512"><!-- Font Awesome Pro 6.0.0-alpha1 by @fontawesome - https://fontawesome.com License - https://fontawesome.com/license (Commercial License) --><path d="M277 344C299 335 312 321 312 308C312 289 283 266 241 264C237 264 233 266 232 270C231 274 233 278 237 279L254 287C267 292 275 300 275 308S267 324 254 330L237 337C231 339 231 349 237 352L254 359C267 364 275 372 275 380S267 396 254 402L237 409C233 411 231 414 232 418C233 422 236 424 240 424H241C283 422 312 400 312 380C312 367 299 353 277 344ZM176 176C158 176 144 190 144 208S158 240 176 240C194 240 208 226 208 208S194 176 176 176ZM336 176C318 176 304 190 304 208S318 240 336 240C354 240 368 226 368 208S354 176 336 176ZM256 16C123 16 16 123 16 256S123 496 256 496S496 389 496 256S389 16 256 16ZM256 448C150 448 64 362 64 256S150 64 256 64S448 150 448 256S362 448 256 448Z"/></svg>