<svg xmlns="http://www.w3.org/2000/svg" viewBox="0 0 512 512"><!-- Font Awesome Pro 6.0.0-alpha1 by @fontawesome - https://fontawesome.com License - https://fontawesome.com/license (Commercial License) --><path d="M176 240C194 240 208 226 208 208S194 176 176 176C158 176 144 190 144 208S158 240 176 240ZM344 320H168C155 320 144 331 144 344S155 368 168 368H344C357 368 368 357 368 344S357 320 344 320ZM336 176C318 176 304 190 304 208S318 240 336 240C354 240 368 226 368 208S354 176 336 176ZM256 16C123 16 16 123 16 256S123 496 256 496S496 389 496 256S389 16 256 16ZM256 448C150 448 64 362 64 256S150 64 256 64S448 150 448 256S362 448 256 448Z"/></svg>