<svg xmlns="http://www.w3.org/2000/svg" viewBox="0 0 512 512"><!-- Font Awesome Pro 6.0.0-alpha1 by @fontawesome - https://fontawesome.com License - https://fontawesome.com/license (Commercial License) --><path d="M134 247C133 253 139 258 145 255L176 239L207 255C213 258 219 253 218 247L212 212L238 188C242 183 240 175 233 174L198 169L183 138C180 132 172 132 169 138L154 169L119 174C113 175 110 183 114 188L140 212L134 247ZM362 305C336 313 297 318 256 318S176 313 150 305C141 302 131 310 133 320C141 367 204 400 256 400S371 367 379 320C381 310 372 302 362 305ZM393 174L358 169L343 138C340 132 332 132 329 138L314 169L279 174C272 175 270 183 274 188L300 212L294 247C293 253 299 258 305 255L336 239L367 255C373 258 379 253 378 247L372 212L398 188C402 183 400 175 393 174ZM256 16C123 16 16 123 16 256S123 496 256 496S496 389 496 256S389 16 256 16ZM256 448C150 448 64 362 64 256S150 64 256 64S448 150 448 256S362 448 256 448Z"/></svg>