<svg xmlns="http://www.w3.org/2000/svg" viewBox="0 0 512 512"><!-- Font Awesome Pro 6.0.0-alpha1 by @fontawesome - https://fontawesome.com License - https://fontawesome.com/license (Commercial License) --><path d="M385 152C381 148 375 147 370 150L290 198C286 200 284 204 284 208S286 216 290 218L370 266C375 270 382 268 385 264C389 259 389 253 385 248L352 208L385 168C389 163 389 157 385 152ZM256 272C211 272 155 310 148 365C147 377 155 387 164 383C186 374 220 368 256 368S326 374 348 383C357 387 365 377 364 365C357 310 301 272 256 272ZM228 208C228 204 226 200 222 198L142 150C137 147 131 148 127 152S123 163 127 168L160 208L127 248C123 253 123 259 127 264C130 268 137 270 142 266L222 218C226 216 228 212 228 208ZM256 16C123 16 16 123 16 256S123 496 256 496S496 389 496 256S389 16 256 16ZM256 448C150 448 64 362 64 256S150 64 256 64S448 150 448 256S362 448 256 448Z"/></svg>