<svg xmlns="http://www.w3.org/2000/svg" viewBox="0 0 512 512"><!-- Font Awesome Pro 6.0.0-alpha1 by @fontawesome - https://fontawesome.com License - https://fontawesome.com/license (Commercial License) --><path d="M362 305C336 313 297 318 256 318S176 313 150 305C141 302 131 310 133 320C141 367 204 400 256 400S371 367 379 320C381 310 372 302 362 305ZM336 152C312 152 283 181 280 223C280 227 282 231 286 232C289 233 293 231 295 228L305 211C312 197 324 189 336 189C348 189 360 197 368 211L377 228C379 232 383 233 386 232C390 231 392 227 392 223C389 181 360 152 336 152ZM144 211C152 197 164 189 176 189C188 189 200 197 207 211L217 228C219 232 223 233 226 232C230 231 232 227 232 223C229 181 200 152 176 152C152 152 123 181 120 223C120 227 122 231 126 232C129 233 133 231 135 228L144 211ZM256 16C123 16 16 123 16 256S123 496 256 496S496 389 496 256S389 16 256 16ZM256 448C150 448 64 362 64 256S150 64 256 64S448 150 448 256S362 448 256 448Z"/></svg>