<svg xmlns="http://www.w3.org/2000/svg" viewBox="0 0 640 512"><!-- Font Awesome Pro 6.0.0-alpha1 by @fontawesome - https://fontawesome.com License - https://fontawesome.com/license (Commercial License) --><path d="M320 448C243 448 177 402 146 337C136 373 125 385 121 390C164 454 237 496 320 496C403 496 476 454 519 390C515 385 504 373 494 337C463 402 397 448 320 448ZM115 224L118 224C123 224 127 225 131 226C145 134 224 64 320 64C416 64 495 134 509 226C513 225 517 224 522 224H524L527 224C539 226 549 228 558 230C545 109 444 16 320 16S95 109 82 230C91 228 101 226 113 224L115 224ZM240 189C252 189 264 197 271 211L281 228C283 232 287 233 290 232C294 231 296 227 296 223C293 181 264 152 240 152C216 152 187 181 184 223C184 227 186 231 190 232C193 233 197 231 199 228L209 211C216 197 228 189 240 189ZM320 400C372 400 435 367 443 320C445 310 436 302 426 305C400 313 361 318 320 318S240 313 214 305C205 302 195 310 197 320C205 367 268 400 320 400ZM117 256C91 260 33 270 16 287C-6 309 -5 345 17 367S75 390 97 368C114 351 124 293 128 267C129 261 123 255 117 256ZM456 223C453 181 424 152 400 152C376 152 347 181 344 223C344 227 346 231 350 232C353 233 357 231 359 228L369 211C376 197 388 189 400 189C412 189 424 197 431 211L441 228C443 232 447 233 450 232C454 231 456 227 456 223ZM624 287C607 270 549 260 523 256C517 255 511 261 512 267C516 293 526 351 543 368C565 390 601 389 623 367C645 345 646 309 624 287Z"/></svg>