<svg xmlns="http://www.w3.org/2000/svg" viewBox="0 0 512 512"><!-- Font Awesome Pro 6.0.0-alpha1 by @fontawesome - https://fontawesome.com License - https://fontawesome.com/license (Commercial License) --><path d="M336 240C354 240 368 226 368 208S354 176 336 176C318 176 304 190 304 208S318 240 336 240ZM176 240C194 240 208 226 208 208S194 176 176 176C158 176 144 190 144 208S158 240 176 240ZM256 16C123 16 16 123 16 256S123 496 256 496S496 389 496 256S389 16 256 16ZM256 448C150 448 64 362 64 256S150 64 256 64S448 150 448 256S362 448 256 448ZM336 272H176C150 272 128 293 128 320V336C128 362 150 384 176 384H336C362 384 384 362 384 336V320C384 294 362 272 336 272ZM184 352H176C167 352 160 345 160 336V320C160 311 167 304 176 304H184V352ZM240 352H216V304H240V352ZM296 352H272V304H296V352ZM352 336C352 345 345 352 336 352H328V304H336C345 304 352 311 352 320V336Z"/></svg>