<svg xmlns="http://www.w3.org/2000/svg" viewBox="0 0 576 512"><!-- Font Awesome Pro 6.0.0-alpha1 by @fontawesome - https://fontawesome.com License - https://fontawesome.com/license (Commercial License) --><path d="M400 224H336C327 224 320 231 320 240V304C320 313 327 320 336 320H400C409 320 416 313 416 304V240C416 231 409 224 400 224ZM573 246L517 135C514 129 508 123 502 120L381 67C373 63 363 63 355 67L234 120C229 123 223 128 224 128C222 130 220 133 219 135L163 246C161 251 160 256 160 261V480C160 498 174 512 192 512H544C562 512 576 498 576 480V261C576 256 575 251 573 246ZM528 464H416V416C416 398 402 384 384 384H352C334 384 320 398 320 416V464H208V264L259 162L368 114L477 162L528 264V464ZM136 144H48V112C48 77 77 48 112 48C139 48 162 64 172 89C176 101 190 107 203 102C215 98 221 84 216 71C199 28 158 0 112 0C50 0 0 50 0 112V488C0 501 11 512 24 512S48 501 48 488V192H136C149 192 160 181 160 168S149 144 136 144Z"/></svg>