<svg xmlns="http://www.w3.org/2000/svg" viewBox="0 0 512 512"><!-- Font Awesome Pro 6.0.0-alpha1 by @fontawesome - https://fontawesome.com License - https://fontawesome.com/license (Commercial License) --><path d="M416 480C416 498 430 512 448 512S480 498 480 480S448 416 448 416S416 462 416 480ZM368 160H323C305 137 278 120 248 114V84C248 84 367 96 368 96C377 96 384 89 384 79V49C384 39 377 32 368 32C367 32 374 31 248 45V16C248 7 241 0 232 0H216C207 0 200 7 200 16V45C74 31 81 32 80 32C71 32 64 39 64 49V79C64 89 71 96 80 96C81 96 200 84 200 84V114C170 120 143 137 125 160H24C11 160 0 171 0 184V184C0 197 11 208 24 208H151C163 179 192 160 224 160S285 179 297 208H368C421 208 464 251 464 304V336H400V304C400 286 386 272 368 272H297C285 301 256 320 224 320S163 301 151 272H24C11 272 0 283 0 296V296C0 309 11 320 24 320H125C148 349 184 368 224 368S300 349 323 320H352V336C352 362 374 384 400 384H464C490 384 512 362 512 336V304C512 224 448 160 368 160Z"/></svg>