<svg xmlns="http://www.w3.org/2000/svg" viewBox="0 0 512 512"><!-- Font Awesome Pro 6.0.0-alpha1 by @fontawesome - https://fontawesome.com License - https://fontawesome.com/license (Commercial License) --><path d="M481 0C480 0 480 0 479 0C362 8 -3 62 75 403L7 471C-2 480 -2 496 7 505C12 510 18 512 24 512S36 510 41 505L109 437C141 444 171 448 199 448C460 448 504 138 512 33C513 15 499 0 481 0ZM199 400C183 400 167 398 150 396L194 352H335C285 392 232 400 199 400ZM380 304H242L290 256H410C401 274 391 290 380 304ZM429 208H338L345 201C354 192 354 176 345 167S320 158 311 167L116 362C105 291 116 234 151 186C224 85 389 57 462 50C456 114 445 165 429 208Z"/></svg>