<svg xmlns="http://www.w3.org/2000/svg" viewBox="0 0 384 512"><!-- Font Awesome Pro 6.0.0-alpha1 by @fontawesome - https://fontawesome.com License - https://fontawesome.com/license (Commercial License) --><path d="M365 93L291 19C279 7 262 0 245 0H64C29 0 0 29 0 64L0 448C0 483 29 512 64 512H320C355 512 384 483 384 448V139C384 122 377 105 365 93ZM336 448C336 457 329 464 320 464H64C55 464 48 457 48 448L48 64C48 55 55 48 64 48H224V128C224 146 238 160 256 160H336V448ZM206 312C229 300 243 275 239 246C235 215 206 192 174 192H96C87 192 80 199 80 208V360C80 373 91 384 104 384H104C117 384 128 373 128 360V320H147L206 379L182 404C172 413 172 428 182 438L182 438C191 447 206 447 216 438L240 413L264 438C274 447 289 447 298 438L298 438C308 428 308 413 298 404L274 379L298 355C308 346 308 330 298 321C289 312 274 312 264 321L240 345L206 312ZM176 272H128V240H176C185 240 192 247 192 256S185 272 176 272Z"/></svg>