<svg xmlns="http://www.w3.org/2000/svg" viewBox="0 0 384 512"><!-- Font Awesome Pro 6.0.0-alpha1 by @fontawesome - https://fontawesome.com License - https://fontawesome.com/license (Commercial License) --><path d="M365 93L291 19C279 7 262 0 245 0H64C29 0 0 29 0 64L0 448C0 483 29 512 64 512H320C355 512 384 483 384 448V139C384 122 377 105 365 93ZM336 448C336 457 329 464 320 464H64C55 464 48 457 48 448L48 64C48 55 55 48 64 48H224V128C224 146 238 160 256 160H336V448ZM80 256V384C80 402 94 416 112 416H272C290 416 304 402 304 384V256C304 238 290 224 272 224H112C94 224 80 238 80 256ZM176 384H112V336H176V384ZM208 256H272V304H208V256ZM208 336H272V384H208V336ZM176 304H112V256H176V304Z"/></svg>