<svg xmlns="http://www.w3.org/2000/svg" viewBox="0 0 384 512"><!-- Font Awesome Pro 6.0.0-alpha1 by @fontawesome - https://fontawesome.com License - https://fontawesome.com/license (Commercial License) --><path d="M365 93L291 19C279 7 262 0 245 0H64C29 0 0 29 0 64L0 448C0 483 29 512 64 512H320C355 512 384 483 384 448V139C384 122 377 105 365 93ZM336 448C336 457 329 464 320 464H64C55 464 48 457 48 448L48 64C48 55 55 48 64 48H224V128C224 146 238 160 256 160H336V448ZM179 298C178 297 177 296 177 295C177 291 182 288 188 288H192C201 288 208 281 208 272C208 263 201 256 192 256H188C164 256 145 273 145 295C145 305 150 315 159 323L181 342C182 343 183 344 183 345C183 349 178 352 172 352H168C159 352 152 359 152 368C152 377 159 384 168 384H172C196 384 215 367 215 345C215 335 210 325 201 317L179 298ZM112 288C121 288 128 281 128 272C128 263 121 256 112 256C86 256 64 278 64 304V336C64 362 86 384 112 384C121 384 128 377 128 368C128 359 121 352 112 352C103 352 96 345 96 336V304C96 295 103 288 112 288ZM256 272C256 263 249 256 240 256S224 263 224 272V285C224 320 237 354 260 379C263 382 267 384 272 384S281 382 284 379C307 354 320 320 320 285V272C320 263 313 256 304 256S288 263 288 272V285C288 305 282 325 272 342C262 325 256 305 256 285V272Z"/></svg>