<svg xmlns="http://www.w3.org/2000/svg" viewBox="0 0 384 512"><!-- Font Awesome Pro 6.0.0-alpha1 by @fontawesome - https://fontawesome.com License - https://fontawesome.com/license (Commercial License) --><path d="M365 93L291 19C279 7 262 0 245 0H64C29 0 0 29 0 64L0 448C0 483 29 512 64 512H320C355 512 384 483 384 448V139C384 122 377 105 365 93ZM336 448C336 457 329 464 320 464H64C55 464 48 457 48 448L48 64C48 55 55 48 64 48H224V128C224 146 238 160 256 160H336V448ZM96 128H176C185 128 192 121 192 112S185 96 176 96H96C87 96 80 103 80 112S87 128 96 128ZM96 192H176C185 192 192 185 192 176S185 160 176 160H96C87 160 80 167 80 176S87 192 96 192ZM197 363L183 322C179 312 170 305 160 305S141 312 137 322L119 376C118 381 113 384 108 384H96C87 384 80 391 80 400S87 416 96 416H108C127 416 144 404 149 386L160 355L177 405C179 411 184 415 191 416H192C198 416 204 413 206 407L214 392C217 386 222 386 224 386S231 386 234 392C242 407 256 416 273 416H288C297 416 304 409 304 400S297 384 288 384H273C269 384 265 382 263 378C251 354 216 347 197 363Z"/></svg>