<svg xmlns="http://www.w3.org/2000/svg" viewBox="0 0 512 512"><!-- Font Awesome Pro 6.0.0-alpha1 by @fontawesome - https://fontawesome.com License - https://fontawesome.com/license (Commercial License) --><path d="M247 338C255 331 258 320 255 310C250 289 250 292 255 271C258 261 255 250 247 242C233 227 234 230 229 209C226 199 218 191 208 188C188 182 190 184 175 169C168 161 157 158 147 161C126 166 129 166 109 161C99 158 88 161 81 169C66 184 68 182 48 188C38 191 30 199 27 209C22 230 23 227 9 242C1 250 -2 261 1 271C6 292 6 289 1 309C-2 320 1 331 9 338C23 353 22 351 27 371C30 382 38 390 48 393C62 396 60 396 64 398V512L128 480L192 512V398C196 396 194 397 208 393C218 390 226 382 228 372C234 351 233 353 247 338ZM128 352C93 352 64 323 64 288S93 224 128 224S192 253 192 288S163 352 128 352ZM493 93L419 19C407 7 390 0 373 0H192C157 0 128 29 128 64V96L128 133C128 133 150 122 176 132L176 64C176 55 183 48 192 48H352V128C352 146 366 160 384 160H464V448C464 457 457 464 448 464H224V512H448C483 512 512 483 512 448V139C512 122 505 105 493 93Z"/></svg>