<svg xmlns="http://www.w3.org/2000/svg" viewBox="0 0 384 512"><!-- Font Awesome Pro 6.0.0-alpha1 by @fontawesome - https://fontawesome.com License - https://fontawesome.com/license (Commercial License) --><path d="M365 93L291 19C279 7 262 0 245 0H64C29 0 0 29 0 64L0 448C0 483 29 512 64 512H320C355 512 384 483 384 448V139C384 122 377 105 365 93ZM336 448C336 457 329 464 320 464H64C55 464 48 457 48 448L48 64C48 55 55 48 64 48H224V128C224 146 238 160 256 160H336V448ZM142 258C134 250 122 250 114 258L66 306C58 314 58 326 66 334L114 382C118 386 123 388 128 388S138 386 142 382C150 374 150 362 142 354L108 320L142 286C150 278 150 266 142 258ZM242 258C234 266 234 278 242 286L276 320L242 354C234 362 234 374 242 382C246 386 251 388 256 388S266 386 270 382L318 334C326 326 326 314 318 306L270 258C262 250 250 250 242 258ZM221 205C210 202 199 208 197 219L149 411C146 422 152 433 163 435C165 436 166 436 168 436C177 436 185 430 187 421L235 229C238 218 232 207 221 205Z"/></svg>