<svg xmlns="http://www.w3.org/2000/svg" viewBox="0 0 384 512"><!-- Font Awesome Pro 6.0.0-alpha1 by @fontawesome - https://fontawesome.com License - https://fontawesome.com/license (Commercial License) --><path d="M365 93L291 19C279 7 262 0 245 0H64C29 0 0 29 0 64L0 448C0 483 29 512 64 512H320C355 512 384 483 384 448V139C384 122 377 105 365 93ZM336 448C336 457 329 464 320 464H64C55 464 48 457 48 448L48 64C48 55 55 48 64 48H224V128C224 146 238 160 256 160H336V448ZM202 286C203 283 204 281 205 278C206 272 212 246 212 226C212 207 197 192 179 192C160 192 145 207 145 226C145 226 145 254 159 288C152 307 143 327 134 346C112 356 94 368 81 382C74 388 71 397 71 407C71 425 86 440 105 440C116 440 126 435 132 426C139 416 150 399 163 377C178 371 196 365 216 361C230 371 245 378 262 384C267 386 272 386 277 386C297 386 313 370 313 349C313 329 296 313 276 313H272C269 313 252 314 227 318C217 309 209 298 202 286ZM110 410C107 415 98 413 98 405C98 403 99 402 100 401C109 391 120 384 132 377C122 393 114 405 110 410ZM179 219C182 219 185 222 185 226C185 241 181 260 180 268C172 245 172 227 172 226C172 222 175 219 179 219ZM162 348C169 335 175 320 182 304C188 315 196 325 207 336C193 339 177 343 162 348ZM272 339H276C281 339 286 344 286 350C286 355 282 360 277 360C274 360 272 359 271 359C258 354 248 349 238 343C258 340 272 339 272 339Z"/></svg>