<svg xmlns="http://www.w3.org/2000/svg" viewBox="0 0 448 512"><!-- Font Awesome Pro 6.0.0-alpha1 by @fontawesome - https://fontawesome.com License - https://fontawesome.com/license (Commercial License) --><path d="M299 189C299 182 293 176 285 176H259C251 176 245 182 245 189V229H205C198 229 192 235 192 243V269C192 277 198 283 205 283H245V323C245 330 251 336 259 336H285C293 336 299 330 299 323V283H339C346 283 352 277 352 269V243C352 235 346 229 339 229H299V189ZM48 432V96C22 96 0 118 0 144V448C0 483 29 512 64 512H304C330 512 352 490 352 464H80C62 464 48 450 48 432ZM429 93L355 19C343 7 326 0 309 0H160C125 0 96 29 96 64L96 352C96 387 125 416 160 416H384C419 416 448 387 448 352V139C448 122 441 105 429 93ZM400 352C400 361 393 368 384 368H160C151 368 144 361 144 352L144 64C144 55 151 48 160 48H288V128C288 146 302 160 320 160H400V352Z"/></svg>