<svg xmlns="http://www.w3.org/2000/svg" viewBox="0 0 384 512"><!-- Font Awesome Pro 6.0.0-alpha1 by @fontawesome - https://fontawesome.com License - https://fontawesome.com/license (Commercial License) --><path d="M365 93L291 19C279 7 262 0 245 0H64C29 0 0 29 0 64L0 448C0 483 29 512 64 512H320C355 512 384 483 384 448V139C384 122 377 105 365 93ZM336 448C336 457 329 464 320 464H64C55 464 48 457 48 448L48 64C48 55 55 48 64 48H224V128C224 146 238 160 256 160H336V448ZM229 233L192 281L155 233C147 223 132 221 121 229C111 237 109 252 117 263L162 320L117 377C109 388 111 403 121 411C126 414 131 416 136 416C143 416 150 413 155 407L192 359L229 407C234 413 241 416 248 416C253 416 258 414 263 411C273 403 275 388 267 377L222 320L267 263C275 252 273 237 263 229C252 221 237 223 229 233Z"/></svg>