<svg xmlns="http://www.w3.org/2000/svg" viewBox="0 0 384 512"><!-- Font Awesome Pro 6.0.0-alpha1 by @fontawesome - https://fontawesome.com License - https://fontawesome.com/license (Commercial License) --><path d="M365 93L291 19C279 7 262 0 245 0H64C29 0 0 29 0 64L0 448C0 483 29 512 64 512H320C355 512 384 483 384 448V139C384 122 377 105 365 93ZM336 448C336 457 329 464 320 464H64C55 464 48 457 48 448L48 64C48 55 55 48 64 48H224V128C224 146 238 160 256 160H336V448ZM176 208C123 208 80 251 80 304S123 400 176 400C194 400 210 395 224 386L271 433C276 438 282 440 288 440S300 438 305 433C314 424 314 408 305 399L258 352C267 338 272 322 272 304C272 251 229 208 176 208ZM176 352C150 352 128 330 128 304S150 256 176 256S224 278 224 304S202 352 176 352Z"/></svg>