<svg xmlns="http://www.w3.org/2000/svg" viewBox="0 0 384 512"><!-- Font Awesome Pro 6.0.0-alpha1 by @fontawesome - https://fontawesome.com License - https://fontawesome.com/license (Commercial License) --><path d="M365 93L291 19C279 7 262 0 245 0H64C29 0 0 29 0 64L0 448C0 483 29 512 64 512H320C355 512 384 483 384 448V139C384 122 377 105 365 93ZM336 448C336 457 329 464 320 464H64C55 464 48 457 48 448L48 64C48 55 55 48 64 48H224V128C224 146 238 160 256 160H336V448ZM144 255V370C139 369 133 368 128 368C102 368 80 382 80 400S102 432 128 432S176 418 176 400V299L272 262V338C267 337 261 336 256 336C230 336 208 350 208 368S230 400 256 400S304 386 304 368V208C304 203 302 198 298 195S288 191 283 193L155 240C149 242 144 248 144 255Z"/></svg>