<svg xmlns="http://www.w3.org/2000/svg" viewBox="0 0 576 512"><!-- Font Awesome Pro 6.0.0-alpha1 by @fontawesome - https://fontawesome.com License - https://fontawesome.com/license (Commercial License) --><path d="M160 288C160 275 149 264 136 264H24C11 264 0 275 0 288S11 312 24 312H136C149 312 160 301 160 288ZM552 264H440C427 264 416 275 416 288S427 312 440 312H552C565 312 576 301 576 288S565 264 552 264ZM248 264C235 264 224 275 224 288S235 312 248 312H328C341 312 352 301 352 288S341 264 328 264H248ZM144 224L144 64C144 55 151 48 160 48H320V128C320 146 334 160 352 160H432V224H480V139C480 122 473 105 461 93L387 19C375 7 358 0 341 0H160C125 0 96 29 96 64L96 224H144ZM432 448C432 457 425 464 416 464H160C151 464 144 457 144 448L144 352H96L96 448C96 483 125 512 160 512H416C451 512 480 483 480 448V352H432V448Z"/></svg>