<svg xmlns="http://www.w3.org/2000/svg" viewBox="0 0 576 512"><!-- Font Awesome Pro 6.0.0-alpha1 by @fontawesome - https://fontawesome.com License - https://fontawesome.com/license (Commercial License) --><path d="M48 448L48 64C48 55 55 48 64 48H224V128C224 146 238 160 256 160H336V254L384 206V139C384 122 377 105 365 93L291 19C279 7 262 0 245 0H64C29 0 0 29 0 64L0 448C0 483 29 512 64 512H320C350 512 375 491 382 464H64C55 464 48 457 48 448ZM293 342C290 345 288 349 288 354V384H273C269 384 265 382 263 378C251 354 216 347 197 363L183 322C179 312 170 305 160 305S141 312 137 322L119 376C118 381 113 384 108 384H96C87 384 80 391 80 400S87 416 96 416H108C127 416 144 404 149 386L160 355L177 405C179 411 184 415 191 416H192C198 416 204 413 206 407L214 392C217 386 222 386 224 386S231 386 234 392C242 407 256 416 273 416H350C355 416 359 414 362 411L519 253L451 185L293 342ZM569 167L537 135C527 126 511 126 501 135L473 163L541 231L569 203C578 193 578 177 569 167Z"/></svg>