<svg xmlns="http://www.w3.org/2000/svg" viewBox="0 0 512 512"><!-- Font Awesome Pro 6.0.0-alpha1 by @fontawesome - https://fontawesome.com License - https://fontawesome.com/license (Commercial License) --><path d="M503 217L295 9C289 3 281 0 272 0C264 0 256 3 250 9L162 97L76 10C67 1 52 1 42 10L42 10C33 20 33 35 42 44L129 130L28 231C-9 268 -9 329 28 367L145 484C164 503 189 512 213 512C238 512 262 503 281 484L503 262C515 250 515 230 503 217ZM409 288H49C51 279 56 271 62 265L163 164L232 234C242 244 257 244 266 234C276 225 276 210 266 200L197 130L272 55L457 240L409 288Z"/></svg>