<svg xmlns="http://www.w3.org/2000/svg" viewBox="0 0 512 512"><!-- Font Awesome Pro 6.0.0-alpha1 by @fontawesome - https://fontawesome.com License - https://fontawesome.com/license (Commercial License) --><path d="M448 32H64C29 32 0 61 0 96V416C0 451 29 480 64 480H448C483 480 512 451 512 416V96C512 61 483 32 448 32ZM112 432H64C55 432 48 425 48 416V344H112V432ZM112 296H48V216H112V296ZM112 168H48V96C48 87 55 80 64 80H112V168ZM352 432H160V80H352V432ZM464 416C464 425 457 432 448 432H400V344H464V416ZM464 296H400V216H464V296ZM464 168H400V80H448C457 80 464 87 464 96V168Z"/></svg>