<svg xmlns="http://www.w3.org/2000/svg" viewBox="0 0 512 512"><!-- Font Awesome Pro 6.0.0-alpha1 by @fontawesome - https://fontawesome.com License - https://fontawesome.com/license (Commercial License) --><path d="M508 59C500 42 484 32 465 32H47C28 32 12 42 4 59C-3 75 -1 93 11 107L176 310V378C176 390 182 402 193 409L275 473C282 478 290 480 297 480C319 480 336 463 336 442V310L502 107C513 93 515 75 508 59ZM295 284C291 290 288 297 288 304V422L224 373V304C224 297 221 290 217 284L51 80H461L295 284Z"/></svg>