<svg xmlns="http://www.w3.org/2000/svg" viewBox="0 0 640 512"><!-- Font Awesome Pro 6.0.0-alpha1 by @fontawesome - https://fontawesome.com License - https://fontawesome.com/license (Commercial License) --><path d="M352 200C352 200 282 128 277 122C240 167 222 193 222 223C222 235 224 245 227 254C254 235 286 224 320 224C352 224 384 234 410 253C416 230 414 205 403 183C400 178 397 173 394 167L352 200ZM152 240C168 240 183 243 197 247C194 236 192 225 192 213C192 183 223 123 276 67C291 82 304 98 316 113L352 161L391 115C393 113 395 110 397 108C429 149 448 196 448 213C448 225 446 236 443 247C457 243 472 240 488 240C490 240 492 241 494 241C495 232 496 222 496 213C496 173 455 90 398 39C382 53 367 69 354 84C333 56 306 27 276 0C199 69 144 159 144 213C144 222 145 232 146 241C148 241 150 240 152 240ZM486 282C462 282 438 290 419 305C396 274 359 256 320 256S244 274 221 305C202 290 178 282 154 282C91 282 40 334 40 397S91 512 154 512H486C549 512 600 460 600 397S549 282 486 282ZM486 464H154C117 464 88 434 88 397S117 330 154 330C174 330 194 340 206 357C211 365 220 368 228 367C237 366 245 361 248 353C260 323 289 304 320 304S380 323 392 353C396 361 403 366 412 367C420 368 429 365 434 357C446 340 466 330 486 330C523 330 552 360 552 397S523 464 486 464Z"/></svg>