<svg xmlns="http://www.w3.org/2000/svg" viewBox="0 0 448 512"><!-- Font Awesome Pro 6.0.0-alpha1 by @fontawesome - https://fontawesome.com License - https://fontawesome.com/license (Commercial License) --><path d="M400 180V88C400 57 375 32 344 32H320C316 32 311 33 307 34C299 14 279 0 256 0H232C209 0 189 14 181 34C177 33 172 32 168 32H144C121 32 101 46 93 66C89 65 84 64 80 64H56C25 64 0 89 0 120V331C0 371 16 410 45 438L64 458V496C64 505 71 512 80 512H96C105 512 112 505 112 496V438L78 405C59 385 48 358 48 331V271C51 272 53 272 56 272H80C92 272 103 268 112 262C121 268 132 272 144 272H168C180 272 191 268 200 262C204 273 211 283 220 292C224 296 228 299 232 302C214 318 199 338 183 363C177 371 179 383 188 390L196 394C205 401 217 398 223 389C252 345 270 325 306 321C314 320 320 313 320 305V288C320 279 313 272 304 272H287C261 272 240 251 240 225V224C240 215 247 208 256 208H336C371 208 400 237 400 272V320C400 346 390 370 372 388L320 440V496C320 505 327 512 336 512H352C361 512 368 505 368 496V460L406 422C433 395 448 358 448 320V272C448 234 429 201 400 180ZM80 224H56C52 224 48 220 48 216V120C48 116 52 112 56 112H80C84 112 88 116 88 120V216C88 220 84 224 80 224ZM176 216C176 220 172 224 168 224H144C140 224 136 220 136 216V88C136 84 140 80 144 80H168C172 80 176 84 176 88V216ZM224 169V56C224 52 228 48 232 48H256C260 48 264 52 264 56V160H256C244 160 234 163 224 169ZM312 160V88C312 84 316 80 320 80H344C348 80 352 84 352 88V162C347 161 342 160 336 160H312Z"/></svg>