<svg xmlns="http://www.w3.org/2000/svg" viewBox="0 0 512 512"><!-- Font Awesome Pro 6.0.0-alpha1 by @fontawesome - https://fontawesome.com License - https://fontawesome.com/license (Commercial License) --><path d="M476 0C470 0 463 1 457 4C411 25 377 32 349 32C289 32 254 0 185 0H185C151 0 107 8 48 32V24C48 11 37 0 24 0S0 11 0 24V488C0 501 11 512 24 512S48 501 48 488V384C102 360 144 352 181 352C254 352 306 384 379 384C411 384 447 378 491 361C504 356 512 344 512 332V31C512 12 495 0 476 0ZM120 310C97 315 73 322 48 332V284L66 277C86 269 103 263 120 258V310ZM120 209C99 214 75 221 48 232V188L66 181C86 173 103 167 120 162V209ZM120 113C99 118 75 125 48 136V84L66 77C86 69 103 63 120 59V113ZM240 310C222 306 202 304 181 304C177 304 172 305 168 305V249C174 249 180 248 185 248C206 248 223 252 240 257V310ZM240 207C224 203 206 200 185 200H185C180 200 174 201 168 201V153C174 153 180 152 185 152C206 152 223 156 240 161V207ZM240 111C224 107 206 104 185 104H185C180 104 174 105 168 105V49C174 49 180 48 185 48C206 48 223 52 240 57V111ZM360 335C337 333 315 327 292 322C291 321 289 321 288 321V271C306 276 326 280 349 280C353 280 356 279 360 279V335ZM360 231C356 231 353 232 349 232C326 232 307 227 288 221V175C306 180 326 184 349 184C353 184 356 183 360 183V231ZM360 135C356 135 353 136 349 136C326 136 307 131 288 125V71C306 76 326 80 349 80C353 80 356 80 360 80V135ZM464 320C444 327 426 331 408 334V272C426 268 444 262 464 253V320ZM464 202C462 202 459 203 457 204C439 212 423 218 408 222V176C426 172 444 166 464 157V202ZM464 106C462 106 459 107 457 108C439 116 423 122 408 126V72C426 68 444 62 464 54V106Z"/></svg>