<svg xmlns="http://www.w3.org/2000/svg" viewBox="0 0 512 512"><!-- Font Awesome Pro 6.0.0-alpha1 by @fontawesome - https://fontawesome.com License - https://fontawesome.com/license (Commercial License) --><path d="M476 0C470 0 463 1 457 4C411 25 377 32 349 32C289 32 254 0 185 0H185C151 0 107 8 48 32V24C48 11 37 0 24 0S0 11 0 24V488C0 501 11 512 24 512S48 501 48 488V384C102 360 144 352 181 352C254 352 306 384 379 384C411 384 447 378 491 361C504 356 512 344 512 332V31C512 12 495 0 476 0ZM464 320C434 331 406 336 379 336C349 336 321 329 292 322C260 313 224 304 181 304C138 304 95 313 48 332V84L66 77C113 58 152 48 185 48C213 48 234 55 258 63C284 71 313 80 349 80C385 80 421 72 464 54V320Z"/></svg>