<svg xmlns="http://www.w3.org/2000/svg" viewBox="0 0 448 512"><!-- Font Awesome Pro 6.0.0-alpha1 by @fontawesome - https://fontawesome.com License - https://fontawesome.com/license (Commercial License) --><path d="M320 169V48H328C341 48 352 37 352 24C352 11 341 0 328 0H120C107 0 96 11 96 24C96 37 107 48 120 48H128V168C62 203 16 272 16 352C16 406 36 455 70 492C82 505 99 512 117 512H331C349 512 366 505 378 491C411 455 431 408 432 357C434 277 387 205 320 169ZM267 329C207 299 139 297 65 333C72 281 103 235 150 211L176 197V48H272V198L297 211C350 240 384 295 384 352C358 352 317 354 267 329Z"/></svg>