<svg xmlns="http://www.w3.org/2000/svg" viewBox="0 0 384 512"><!-- Font Awesome Pro 6.0.0-alpha1 by @fontawesome - https://fontawesome.com License - https://fontawesome.com/license (Commercial License) --><path d="M384 56C384 69 373 80 360 80H309C292 80 277 91 271 106L226 232H328C341 232 352 243 352 256S341 280 328 280H209L158 422C145 457 112 480 75 480H24C11 480 0 469 0 456S11 432 24 432H75C92 432 107 421 113 406L158 280H56C43 280 32 269 32 256S43 232 56 232H175L226 90C239 55 272 32 309 32H360C373 32 384 43 384 56Z"/></svg>