<svg xmlns="http://www.w3.org/2000/svg" viewBox="0 0 512 512"><!-- Font Awesome Pro 6.0.0-alpha1 by @fontawesome - https://fontawesome.com License - https://fontawesome.com/license (Commercial License) --><path d="M496 288H449C381 288 321 318 280 365V288C355 287 416 226 416 150V16C416 10 413 5 407 2C402 -1 395 0 391 3L317 57L268 6C265 2 261 0 256 0C251 0 247 2 244 6L195 57L121 3C117 0 110 -1 105 2C99 5 96 10 96 16V150C96 226 157 287 232 288V365C191 318 131 288 63 288H16C7 288 -1 297 0 308C10 422 106 512 224 512H288C406 512 502 422 512 308C513 297 505 288 496 288ZM144 150V78L200 120L256 64L312 120L368 78V150C368 200 328 240 278 240H234C184 240 144 200 144 150ZM224 464C144 464 75 410 54 336C129 336 183 368 215 422L240 464H224ZM288 464H272L297 422C329 369 382 336 458 336C437 410 368 464 288 464Z"/></svg>