<svg xmlns="http://www.w3.org/2000/svg" viewBox="0 0 512 512"><!-- Font Awesome Pro 6.0.0-alpha1 by @fontawesome - https://fontawesome.com License - https://fontawesome.com/license (Commercial License) --><path d="M480 170C480 94 418 32 342 32C310 32 280 43 256 62C232 43 202 32 170 32C94 32 32 94 32 170C32 202 43 232 62 256C43 280 32 310 32 342C32 418 94 480 170 480C202 480 232 469 256 450C280 469 310 480 342 480C418 480 480 418 480 342C480 310 469 280 450 256C469 232 480 202 480 170ZM401 274C421 292 432 316 432 342C432 391 391 432 342 432C316 432 292 421 274 401L256 380L238 401C220 421 196 432 170 432C120 432 80 391 80 342C80 316 91 292 111 274L132 256L111 238C91 220 80 196 80 170C80 121 121 80 170 80C196 80 220 91 238 111L256 132L274 111C292 91 316 80 342 80C391 80 432 120 432 170C432 196 421 220 401 238L380 256L401 274ZM256 176C212 176 176 212 176 256S212 336 256 336S336 300 336 256S300 176 256 176ZM256 288C238 288 224 274 224 256S238 224 256 224S288 238 288 256S274 288 256 288Z"/></svg>