<svg xmlns="http://www.w3.org/2000/svg" viewBox="0 0 512 512"><!-- Font Awesome Pro 6.0.0-alpha1 by @fontawesome - https://fontawesome.com License - https://fontawesome.com/license (Commercial License) --><path d="M496 288H449C381 288 321 318 280 365V283C317 296 359 283 382 251C406 219 406 176 383 144C394 129 400 110 400 91C400 41 359 0 309 0C290 0 271 6 256 18C241 6 222 0 203 0C153 0 112 41 112 91C112 110 118 129 129 144C118 159 112 178 112 197C112 227 126 254 150 271S204 293 232 283V365C191 318 131 288 63 288H16C7 288 -1 297 0 308C10 422 106 512 224 512H288C406 512 502 422 512 308C513 297 505 288 496 288ZM224 464C144 464 75 410 54 336C129 336 183 368 215 422L240 464H224ZM237 223C227 236 210 242 194 239C177 236 164 223 161 206C157 190 164 173 177 163L203 144L177 125C166 117 160 104 160 91C160 67 179 48 203 48C216 48 229 54 237 65L256 91L275 65C283 54 296 48 309 48C333 48 352 67 352 91C352 104 345 117 335 125L309 144L335 163C345 171 352 184 352 197C352 221 333 240 309 240C296 240 283 234 275 223L256 197L237 223ZM288 464H272L297 422C329 369 382 336 458 336C437 410 368 464 288 464ZM288 144C288 126 274 112 256 112S224 126 224 144S238 176 256 176S288 162 288 144Z"/></svg>