<svg xmlns="http://www.w3.org/2000/svg" viewBox="0 0 640 512"><!-- Font Awesome Pro 6.0.0-alpha1 by @fontawesome - https://fontawesome.com License - https://fontawesome.com/license (Commercial License) --><path d="M320 232C307 232 296 243 296 256S307 280 320 280S344 269 344 256S333 232 320 232ZM576 160H64C29 160 0 189 0 224V288C0 323 29 352 64 352H576C611 352 640 323 640 288V224C640 189 611 160 576 160ZM96 304H64C55 304 48 297 48 288V224C48 215 55 208 64 208H96V304ZM592 288C592 297 585 304 576 304H144V208H576C585 208 592 215 592 224V288ZM512 232C499 232 488 243 488 256S499 280 512 280S536 269 536 256S525 232 512 232ZM416 232C403 232 392 243 392 256S403 280 416 280S440 269 440 256S429 232 416 232Z"/></svg>