<svg xmlns="http://www.w3.org/2000/svg" viewBox="0 0 640 512"><!-- Font Awesome Pro 6.0.0-alpha1 by @fontawesome - https://fontawesome.com License - https://fontawesome.com/license (Commercial License) --><path d="M80 400V160C54 160 32 182 32 208V416C32 451 61 480 96 480H464C490 480 512 458 512 432H112C94 432 80 418 80 400ZM544 96H404L355 51C343 39 326 32 310 32H192C157 32 128 61 128 96V320C128 355 157 384 192 384H544C579 384 608 355 608 320V160C608 125 579 96 544 96ZM560 320C560 329 553 336 544 336H192C183 336 176 329 176 320V96C176 87 183 80 192 80H310C314 80 318 82 321 85L384 144H544C553 144 560 151 560 160V320Z"/></svg>