<svg xmlns="http://www.w3.org/2000/svg" viewBox="0 0 512 512"><!-- Font Awesome Pro 6.0.0-alpha1 by @fontawesome - https://fontawesome.com License - https://fontawesome.com/license (Commercial License) --><path d="M448 96H276L227 51C215 39 198 32 182 32H64C29 32 0 61 0 96V416C0 451 29 480 64 480H448C483 480 512 451 512 416V160C512 125 483 96 448 96ZM464 416C464 425 457 432 448 432H64C55 432 48 425 48 416V96C48 87 55 80 64 80H182C186 80 190 82 193 85L256 144H448C457 144 464 151 464 160V416ZM128 240C146 240 160 226 160 208S146 176 128 176S96 190 96 208S110 240 128 240ZM307 215C304 211 299 208 293 208S283 211 280 215L217 309L195 279C192 274 187 272 182 272C177 272 172 274 169 279L99 375C95 379 95 386 98 391C100 397 106 400 112 400H400C406 400 411 397 414 392C417 386 417 380 413 375L307 215Z"/></svg>