<svg xmlns="http://www.w3.org/2000/svg" viewBox="0 0 512 512"><!-- Font Awesome Pro 6.0.0-alpha1 by @fontawesome - https://fontawesome.com License - https://fontawesome.com/license (Commercial License) --><path d="M273 191C264 182 248 182 239 191L159 271C150 280 150 296 159 305S184 314 193 305L232 266V368C232 381 243 392 256 392S280 381 280 368V266L319 305C324 310 330 312 336 312S348 310 353 305C362 296 362 280 353 271L273 191ZM448 96H276L227 51C215 39 198 32 182 32H64C29 32 0 61 0 96V416C0 451 29 480 64 480H448C483 480 512 451 512 416V160C512 125 483 96 448 96ZM464 416C464 425 457 432 448 432H64C55 432 48 425 48 416V96C48 87 55 80 64 80H182C186 80 190 82 193 85L256 144H448C457 144 464 151 464 160V416Z"/></svg>