<svg xmlns="http://www.w3.org/2000/svg" viewBox="0 0 576 512"><!-- Font Awesome Pro 6.0.0-alpha1 by @fontawesome - https://fontawesome.com License - https://fontawesome.com/license (Commercial License) --><path d="M544 320H448L404 293C399 290 393 288 387 288H320C302 288 288 302 288 320V480C288 498 302 512 320 512H544C562 512 576 498 576 480V352C576 334 562 320 544 320ZM528 464H336V336H382L423 361C430 366 439 368 448 368H528V464ZM232 160C245 160 256 149 256 136C256 123 245 112 232 112H48V24C48 11 37 0 24 0S0 11 0 24V392C0 423 25 448 56 448H232C245 448 256 437 256 424C256 411 245 400 232 400H56C52 400 48 396 48 392V160H232ZM544 32H448L404 5C399 2 393 0 387 0H320C302 0 288 14 288 32V192C288 210 302 224 320 224H544C562 224 576 210 576 192V64C576 46 562 32 544 32ZM528 176H336V48H382L423 73C430 78 439 80 448 80H528V176Z"/></svg>