<svg xmlns="http://www.w3.org/2000/svg" viewBox="0 0 576 512"><!-- Font Awesome Pro 6.0.0-alpha1 by @fontawesome - https://fontawesome.com License - https://fontawesome.com/license (Commercial License) --><path d="M573 270L477 462C471 473 460 480 448 480H64C29 480 0 451 0 416V96C0 61 29 32 64 32H182C198 32 215 39 227 51L276 96H416C451 96 480 125 480 160V192H432V160C432 151 425 144 416 144H256L193 85C190 82 186 80 182 80H64C55 80 48 87 48 96V384L119 242C125 231 136 224 148 224H544C568 224 583 249 573 270Z"/></svg>