<svg xmlns="http://www.w3.org/2000/svg" viewBox="0 0 512 512"><!-- Font Awesome Pro 6.0.0-alpha1 by @fontawesome - https://fontawesome.com License - https://fontawesome.com/license (Commercial License) --><path d="M448 96H276L227 51C215 39 198 32 182 32H64C29 32 0 61 0 96V416C0 451 29 480 64 480H448C483 480 512 451 512 416V160C512 125 483 96 448 96ZM464 416C464 425 457 432 448 432H64C55 432 48 425 48 416V96C48 87 55 80 64 80H182C186 80 190 82 193 85L256 144H448C457 144 464 151 464 160V416ZM336 256H288V208C288 199 281 192 272 192H240C231 192 224 199 224 208V256H176C167 256 160 263 160 272V304C160 313 167 320 176 320H224V368C224 377 231 384 240 384H272C281 384 288 377 288 368V320H336C345 320 352 313 352 304V272C352 263 345 256 336 256Z"/></svg>