<svg xmlns="http://www.w3.org/2000/svg" viewBox="0 0 512 512"><!-- Font Awesome Pro 6.0.0-alpha1 by @fontawesome - https://fontawesome.com License - https://fontawesome.com/license (Commercial License) --><path d="M448 96H276L227 51C215 39 198 32 182 32H64C29 32 0 61 0 96V416C0 451 29 480 64 480H448C483 480 512 451 512 416V160C512 125 483 96 448 96ZM464 416C464 425 457 432 448 432H64C55 432 48 425 48 416V96C48 87 55 80 64 80H182C186 80 190 82 193 85L256 144H448C457 144 464 151 464 160V416ZM322 320C331 306 336 290 336 272C336 219 293 176 240 176S144 219 144 272S187 368 240 368C258 368 274 363 288 354L335 401C340 406 346 408 352 408S364 406 369 401C378 392 378 376 369 367L322 320ZM240 320C214 320 192 298 192 272S214 224 240 224S288 246 288 272S266 320 240 320Z"/></svg>