<svg xmlns="http://www.w3.org/2000/svg" viewBox="0 0 640 512"><!-- Font Awesome Pro 6.0.0-alpha1 by @fontawesome - https://fontawesome.com License - https://fontawesome.com/license (Commercial License) --><path d="M616 128C603 128 592 139 592 152V157C569 139 541 130 511 129C441 129 384 186 384 257V320C384 391 441 448 512 448C542 448 570 437 592 419V424C592 437 603 448 616 448S640 437 640 424V152C640 139 629 128 616 128ZM592 320C592 364 556 400 512 400S432 364 432 320V257C432 213 468 177 512 177H512C533 177 553 185 568 200C584 215 592 235 592 257V320ZM198 78C190 61 162 61 154 78L2 414C-3 426 2 440 14 446C26 451 40 446 46 434L83 352H269L306 434C310 443 319 448 328 448C331 448 335 447 338 446C350 440 355 426 350 414L198 78ZM105 304L176 146L247 304H105Z"/></svg>