<svg xmlns="http://www.w3.org/2000/svg" viewBox="0 0 448 512"><!-- Font Awesome Pro 6.0.0-alpha1 by @fontawesome - https://fontawesome.com License - https://fontawesome.com/license (Commercial License) --><path d="M424 432H393L246 47C243 38 234 32 224 32C224 32 224 32 224 32C214 32 205 38 202 47L48 432H24C11 432 0 443 0 456S11 480 24 480H136C149 480 160 469 160 456S149 432 136 432H99L135 344H308L341 432H312C299 432 288 443 288 456S299 480 312 480H424C437 480 448 469 448 456S437 432 424 432ZM154 296L223 122L290 296H154Z"/></svg>