<svg xmlns="http://www.w3.org/2000/svg" viewBox="0 0 448 512"><!-- Font Awesome Pro 6.0.0-alpha1 by @fontawesome - https://fontawesome.com License - https://fontawesome.com/license (Commercial License) --><path d="M435 79C430 63 418 50 401 46C391 43 352 32 300 32C236 32 154 49 85 117C-26 228 -2 374 13 433C18 449 30 462 47 466C57 469 96 480 148 480C212 480 294 463 363 395C474 284 450 138 435 79ZM399 157L324 82C345 83 367 86 388 92C393 107 397 130 399 157ZM49 355L125 430C103 429 81 426 60 420C56 405 51 382 49 355ZM329 361C291 399 245 421 191 429L51 289C58 243 77 194 119 151C157 113 203 91 257 83L397 223C390 269 371 318 329 361ZM267 277C274 283 274 293 267 299C264 302 260 304 256 304S248 302 245 299L181 235C174 229 174 219 181 213S197 206 203 213L267 277ZM315 229C322 235 322 245 315 251C312 254 308 256 304 256S296 254 293 251L229 187C222 181 222 171 229 165S245 158 251 165L315 229ZM219 325C226 331 226 341 219 347C216 350 212 352 208 352S200 350 197 347L133 283C126 277 126 267 133 261S149 254 155 261L219 325Z"/></svg>