<svg xmlns="http://www.w3.org/2000/svg" viewBox="0 0 576 512"><!-- Font Awesome Pro 6.0.0-alpha1 by @fontawesome - https://fontawesome.com License - https://fontawesome.com/license (Commercial License) --><path d="M352 179C356 184 363 186 369 186C375 186 381 184 386 179L477 87C487 78 487 62 477 53C468 44 453 44 443 53L352 146C342 155 342 170 352 179ZM398 226C402 230 408 233 415 233C421 233 427 230 432 226L523 133C533 124 532 109 523 99C514 90 498 90 489 99L398 192C388 201 388 216 398 226ZM569 145C560 136 544 136 535 146L402 280C383 298 360 297 335 273L146 464L112 429L307 245C281 219 280 194 298 175L431 41C441 32 441 16 431 7C422 -2 407 -2 397 7L264 141C239 167 233 204 247 235L79 394C70 403 64 415 64 428C64 441 69 454 78 463L112 498C121 507 134 512 147 512H147C160 512 173 506 181 497L344 332C374 345 411 339 436 314L569 179C578 170 578 155 569 145ZM154 279C111 268 80 243 63 204C34 141 53 64 68 49L209 182C212 165 219 148 229 134L105 14C96 5 83 0 70 0H70C56 0 44 5 34 15C0 49 -14 150 19 224C32 253 59 293 115 316L154 279ZM449 344C436 355 420 363 404 367L464 424L427 463L426 463L423 462L341 381L307 415L389 496C397 506 410 512 424 512C424 512 425 512 425 512C438 512 451 507 461 497L497 461C517 441 517 410 497 390L449 344Z"/></svg>