<svg xmlns="http://www.w3.org/2000/svg" viewBox="0 0 512 512"><!-- Font Awesome Pro 6.0.0-alpha1 by @fontawesome - https://fontawesome.com License - https://fontawesome.com/license (Commercial License) --><path d="M505 145C496 136 480 136 471 146L338 280C319 298 296 297 271 273L82 464L48 429L243 245C217 219 216 194 234 175L367 41C377 32 377 16 367 7C358 -2 343 -2 333 7L200 141C175 167 169 204 183 235L15 394C6 403 0 415 0 428C0 441 5 454 14 463L48 498C57 507 70 512 83 512H83C96 512 109 506 117 497L280 332C310 345 347 339 372 314L505 179C514 170 514 155 505 145ZM334 226C338 230 344 233 351 233C357 233 363 230 368 226L459 133C469 124 468 109 459 99C450 90 434 90 425 99L334 192C324 201 324 216 334 226ZM288 179C292 184 299 186 305 186C311 186 317 184 322 179L413 87C423 78 423 62 413 53C404 44 389 44 379 53L288 146C278 155 278 170 288 179Z"/></svg>