<svg xmlns="http://www.w3.org/2000/svg" viewBox="0 0 512 512"><!-- Font Awesome Pro 6.0.0-alpha1 by @fontawesome - https://fontawesome.com License - https://fontawesome.com/license (Commercial License) --><path d="M256 96V416C256 435 272 448 288 448C295 448 302 446 309 441L501 281C516 268 516 244 501 231L309 71C302 66 295 64 288 64C272 64 256 77 256 96ZM304 130L455 256L304 382V130ZM0 96V416C0 428 6 438 17 444C21 447 27 448 32 448C38 448 44 446 49 443L213 339C224 332 227 317 220 306C213 294 198 291 187 298L48 387V125L187 214C198 221 213 218 220 206C227 195 224 180 213 173L49 69C39 63 27 62 17 68S0 84 0 96Z"/></svg>