<svg xmlns="http://www.w3.org/2000/svg" viewBox="0 0 512 512"><!-- Font Awesome Pro 6.0.0-alpha1 by @fontawesome - https://fontawesome.com License - https://fontawesome.com/license (Commercial License) --><path d="M178 229L208 320H304L334 229L256 172L178 229ZM256 16C123 16 16 123 16 256S123 496 256 496S496 389 496 256S389 16 256 16ZM417 361L331 360L306 441C290 445 273 448 256 448S222 445 206 441L181 360L95 361C77 333 66 301 64 266L134 216L107 136L107 136C128 109 156 89 188 77C188 77 188 77 188 77L256 128L324 77C324 77 324 77 324 77C356 89 384 109 405 136C405 136 405 136 405 136L378 216L448 266C446 301 435 333 417 361Z"/></svg>