<svg xmlns="http://www.w3.org/2000/svg" viewBox="0 0 640 512"><!-- Font Awesome Pro 6.0.0-alpha1 by @fontawesome - https://fontawesome.com License - https://fontawesome.com/license (Commercial License) --><path d="M400 272C382 272 368 286 368 304S382 336 400 336S432 322 432 304S418 272 400 272ZM248 232H216V200C216 187 205 176 192 176C179 176 168 187 168 200V232H136C123 232 112 243 112 256C112 269 123 280 136 280H168V312C168 325 179 336 192 336C205 336 216 325 216 312V280H248C261 280 272 269 272 256C272 243 261 232 248 232ZM464 176C446 176 432 190 432 208S446 240 464 240S496 226 496 208S482 176 464 176ZM448 64H192C86 64 0 150 0 256S86 448 192 448H448C554 448 640 362 640 256S554 64 448 64ZM448 400H192C113 400 48 335 48 256S113 112 192 112H448C527 112 592 177 592 256S527 400 448 400Z"/></svg>