<svg xmlns="http://www.w3.org/2000/svg" viewBox="0 0 448 512"><!-- Font Awesome Pro 6.0.0-alpha1 by @fontawesome - https://fontawesome.com License - https://fontawesome.com/license (Commercial License) --><path d="M64 96V176H144V96H64ZM64 256V336H144V256H64ZM304 96H224V176H304V96ZM144 416H224V336H144V416ZM384 416V336H304V416H384ZM304 256H384V176H304V256ZM224 176H144V256H224V176ZM384 32H64C29 32 0 61 0 96V416C0 451 29 480 64 480H384C419 480 448 451 448 416V96C448 61 419 32 384 32ZM400 416C400 425 393 432 384 432H64C55 432 48 425 48 416V96C48 87 55 80 64 80H384C393 80 400 87 400 96V416ZM224 336H304V256H224V336Z"/></svg>