<svg xmlns="http://www.w3.org/2000/svg" viewBox="0 0 640 512"><!-- Font Awesome Pro 6.0.0-alpha1 by @fontawesome - https://fontawesome.com License - https://fontawesome.com/license (Commercial License) --><path d="M639 317L611 135C603 84 565 43 516 32C387 3 253 3 124 32C74 43 37 84 29 135L1 317C-10 391 47 458 121 458H121C168 458 210 432 230 390L244 362H396L410 390C430 432 472 458 518 458H519C593 458 650 391 639 317ZM574 385C560 401 540 410 518 410C491 410 466 395 453 369L435 332C429 321 418 314 406 314H234C222 314 210 321 205 332L187 369C174 395 149 410 121 410C100 410 80 401 66 385C52 368 45 346 49 324L76 143C81 111 104 86 135 79C257 51 383 51 505 79C536 86 559 111 564 143L591 324C594 346 588 368 574 385ZM400 218C382 218 368 233 368 250S382 282 400 282S432 268 432 250S418 218 400 218ZM248 178H216V146C216 133 205 122 192 122C179 122 168 133 168 146V178H136C123 178 112 189 112 202C112 215 123 226 136 226H168V258C168 271 179 282 192 282C205 282 216 271 216 258V226H248C261 226 272 215 272 202C272 189 261 178 248 178ZM464 122C446 122 432 137 432 154S446 186 464 186C482 186 496 172 496 154S482 122 464 122Z"/></svg>