<svg xmlns="http://www.w3.org/2000/svg" viewBox="0 0 384 512"><!-- Font Awesome Pro 6.0.0-alpha1 by @fontawesome - https://fontawesome.com License - https://fontawesome.com/license (Commercial License) --><path d="M320 0H64C29 0 0 29 0 64V448C0 483 29 512 64 512H256C327 512 384 455 384 384V64C384 29 355 0 320 0ZM336 384C336 428 300 464 256 464H64C55 464 48 457 48 448V64C48 55 55 48 64 48H320C329 48 336 55 336 64V384ZM112 240H256C274 240 288 226 288 208V112C288 103 281 96 272 96H112C103 96 96 103 96 112V224C96 233 103 240 112 240ZM160 320H144V304C144 295 137 288 128 288S112 295 112 304V320H96C87 320 80 327 80 336C80 345 87 352 96 352H112V368C112 377 119 384 128 384S144 377 144 368V352H160C169 352 176 345 176 336C176 327 169 320 160 320ZM232 336C219 336 208 347 208 360S219 384 232 384S256 373 256 360S245 336 232 336ZM280 288C267 288 256 299 256 312S267 336 280 336S304 325 304 312S293 288 280 288Z"/></svg>