<svg xmlns="http://www.w3.org/2000/svg" viewBox="0 0 512 512"><!-- Font Awesome Pro 6.0.0-alpha1 by @fontawesome - https://fontawesome.com License - https://fontawesome.com/license (Commercial License) --><path d="M493 107L418 32C409 23 393 23 384 32L384 32C375 41 375 57 384 66L416 98V160C416 188 437 211 464 215V376C464 389 453 400 440 400C427 400 416 389 416 376V344C416 295 377 256 328 256H320V64C320 29 291 0 256 0H96C61 0 32 29 32 64V464H24C11 464 0 475 0 488V488C0 501 11 512 24 512H328C341 512 352 501 352 488V488C352 475 341 464 328 464H320V304H328C350 304 368 322 368 344V372C368 410 395 444 433 448C475 452 512 418 512 376V153C512 136 505 119 493 107ZM272 464H80V240H272V464ZM272 192H80V64C80 55 87 48 96 48H256C265 48 272 55 272 64V192Z"/></svg>