<svg xmlns="http://www.w3.org/2000/svg" viewBox="0 0 576 512"><!-- Font Awesome Pro 6.0.0-alpha1 by @fontawesome - https://fontawesome.com License - https://fontawesome.com/license (Commercial License) --><path d="M128 288C110 288 96 302 96 320S110 352 128 352S160 338 160 320S146 288 128 288ZM176 176C158 176 144 190 144 208S158 240 176 240S208 226 208 208S194 176 176 176ZM432 208C432 190 418 176 400 176S368 190 368 208S382 240 400 240S432 226 432 208ZM288 32C129 32 0 161 0 320C0 373 14 422 39 465C45 474 55 480 66 480H510C521 480 531 474 537 465C562 422 576 373 576 320C576 161 447 32 288 32ZM288 432C266 432 248 414 248 392S266 352 288 352C310 352 328 370 328 392S310 432 288 432ZM500 432H366C372 420 376 406 376 392C376 352 349 318 312 308V152C312 139 301 128 288 128S264 139 264 152V308C227 318 200 352 200 392C200 406 204 420 210 432H76C58 398 48 359 48 320C48 188 156 80 288 80S528 188 528 320C528 359 518 398 500 432ZM416 320C416 338 431 352 448 352S480 338 480 320S466 288 448 288S416 302 416 320Z"/></svg>