<svg xmlns="http://www.w3.org/2000/svg" viewBox="0 0 576 512"><!-- Font Awesome Pro 6.0.0-alpha1 by @fontawesome - https://fontawesome.com License - https://fontawesome.com/license (Commercial License) --><path d="M288 32C129 32 0 161 0 320C0 373 14 422 39 465C45 474 55 480 66 480H510C521 480 531 474 537 465C562 422 576 373 576 320C576 161 447 32 288 32ZM288 432C266 432 248 414 248 392S266 352 288 352C310 352 328 370 328 392S310 432 288 432ZM500 432H366C372 420 376 406 376 392C376 343 337 304 288 304C263 304 241 314 225 331L129 290C117 285 103 290 98 303S98 329 111 334L202 373C201 379 200 386 200 392C200 406 204 420 210 432H76C58 398 48 359 48 320C48 188 156 80 288 80S528 188 528 320C528 359 518 398 500 432Z"/></svg>