<svg xmlns="http://www.w3.org/2000/svg" viewBox="0 0 512 512"><!-- Font Awesome Pro 6.0.0-alpha1 by @fontawesome - https://fontawesome.com License - https://fontawesome.com/license (Commercial License) --><path d="M492 295L459 276C460 263 460 249 459 236L492 217C502 212 506 200 503 190C492 146 469 106 437 75C433 70 426 68 420 68C415 68 411 69 407 71L375 90C364 82 353 76 341 70V32C341 21 333 11 322 9C301 3 278 0 256 0C234 0 212 3 190 9C179 11 172 21 172 32V70C160 76 148 82 138 90L105 71C101 69 97 68 93 68C86 68 80 70 75 75C44 106 21 146 9 190C6 200 11 212 20 217L53 236C52 249 52 263 53 276L20 295C11 300 6 312 9 322C21 366 44 406 75 437C80 442 86 444 93 444C97 444 101 443 105 441L138 422C148 430 160 436 172 442V480C172 491 179 501 190 503C212 509 234 512 256 512C278 512 301 509 322 503C333 501 341 491 341 480V442C353 436 364 430 375 422L407 441C411 443 415 444 420 444C426 444 432 442 437 437C469 406 492 366 503 322C506 312 502 300 492 295ZM415 390C392 376 404 383 372 365C330 395 339 389 293 411V461C260 466 234 463 220 461V411C173 389 183 395 141 365C109 383 118 378 97 390C81 371 69 350 61 327C82 315 72 320 104 302C99 250 99 262 104 210C72 192 82 197 61 185C69 162 81 141 97 122C121 136 108 129 141 147C183 117 173 123 220 101V51C252 46 278 49 293 51V101C339 123 330 117 372 147C406 128 394 134 415 122C431 141 443 162 452 185C431 197 440 192 408 210C413 262 413 250 408 302C440 320 431 315 452 327C443 350 431 371 415 390ZM256 160C203 160 160 203 160 256S203 352 256 352S352 309 352 256S309 160 256 160ZM256 304C230 304 208 282 208 256S230 208 256 208S304 230 304 256S283 304 256 304Z"/></svg>