<svg xmlns="http://www.w3.org/2000/svg" viewBox="0 0 384 512"><!-- Font Awesome Pro 6.0.0-alpha1 by @fontawesome - https://fontawesome.com License - https://fontawesome.com/license (Commercial License) --><path d="M192 0C190 0 188 0 186 0C81 3 0 95 0 200V464C0 474 8 480 16 480C20 480 24 478 27 475L52 457C55 455 58 454 62 454C66 454 71 455 74 459L117 507C120 510 124 512 128 512C132 512 136 510 139 507L180 461C183 458 188 456 192 456S201 458 204 461L245 507C248 510 252 512 256 512C260 512 264 510 267 507L310 459C316 453 325 452 332 457L357 475C360 478 364 480 368 480C376 480 384 474 384 464V192C384 86 298 0 192 0ZM336 407C331 406 327 406 322 406C304 406 286 413 274 427L256 448L240 430C228 416 210 408 192 408S156 416 144 430L128 448L110 427C98 413 80 406 62 406C57 406 53 406 48 407V200C48 118 111 50 187 48L192 48C271 48 336 113 336 192V407ZM128 160C110 160 96 174 96 192S110 224 128 224S160 210 160 192S146 160 128 160ZM256 160C238 160 224 174 224 192S238 224 256 224C274 224 288 210 288 192S274 160 256 160Z"/></svg>