<svg xmlns="http://www.w3.org/2000/svg" viewBox="0 0 640 512"><!-- Font Awesome Pro 6.0.0-alpha1 by @fontawesome - https://fontawesome.com License - https://fontawesome.com/license (Commercial License) --><path d="M587 225C592 215 592 206 592 200C592 165 565 128 520 128C472 128 444 176 432 203C420 176 392 128 344 128C299 128 272 165 272 200C272 206 272 215 277 225C247 230 224 256 224 288V448C224 483 253 512 288 512H576C611 512 640 483 640 448V288C640 256 617 230 587 225ZM344 176C363 176 380 204 389 224H336C333 223 331 221 329 219C322 213 320 205 320 200C320 191 326 176 344 176ZM408 464H288C279 464 272 457 272 448V392H408V464ZM408 344H272V288C272 279 279 272 288 272H408V344ZM520 176C538 176 544 191 544 200C544 205 542 213 535 219C533 221 531 223 528 224H475C484 204 501 176 520 176ZM592 448C592 457 585 464 576 464H456V392H592V448ZM592 344H456V272H576C585 272 592 279 592 288V344ZM168 464H64C55 464 48 457 48 448V160C48 151 55 144 64 144H232C245 144 256 133 256 120S245 96 232 96H223L244 85C255 79 259 64 253 53C247 41 232 37 221 43L196 57L206 34C211 22 206 8 194 2C182 -3 168 2 162 14L144 54L126 14C120 2 106 -3 94 2C82 8 77 22 82 34L92 57L67 43C56 37 41 41 35 53C29 64 33 79 45 85L65 96H64C29 96 0 125 0 160V448C0 483 29 512 64 512H168C181 512 192 501 192 488S181 464 168 464Z"/></svg>