<svg xmlns="http://www.w3.org/2000/svg" viewBox="0 0 576 512"><!-- Font Awesome Pro 6.0.0-alpha1 by @fontawesome - https://fontawesome.com License - https://fontawesome.com/license (Commercial License) --><path d="M574 280L529 99C523 75 507 55 486 43C464 31 439 29 416 37L400 42C392 44 387 54 390 62L395 77C398 85 407 90 416 87L429 83C440 79 452 79 462 85S479 99 482 110L521 264C499 257 471 252 440 252C400 252 354 261 306 288H270C222 261 177 252 137 252C105 252 78 257 55 264L94 110C97 99 104 90 114 84C124 79 136 79 147 83L160 87C169 90 178 85 181 77L186 62C189 53 184 44 176 42L160 36C137 29 112 31 90 43C69 55 53 75 47 99L2 280C1 285 0 291 0 296V366C0 429 52 480 115 480H152C213 480 263 434 267 375L270 336H306L309 375C313 434 363 480 424 480H461C524 480 576 429 576 366V296C576 291 575 286 574 280ZM219 371C217 405 187 432 152 432H115C78 432 48 402 48 366V318C68 310 99 300 137 300C166 300 196 306 223 318L219 371ZM528 366C528 402 498 432 461 432H424C389 432 359 405 357 371L353 318C381 306 410 300 440 300C477 300 508 310 528 318V366Z"/></svg>