<svg xmlns="http://www.w3.org/2000/svg" viewBox="0 0 512 512"><!-- Font Awesome Pro 6.0.0-alpha1 by @fontawesome - https://fontawesome.com License - https://fontawesome.com/license (Commercial License) --><path d="M368 0C305 0 253 40 233 96H285C302 67 333 48 368 48C421 48 464 91 464 144C464 194 425 235 376 239L372 288C449 286 512 222 512 144C512 65 448 0 368 0ZM320 128H32C23 128 14 132 8 138C2 145 -1 154 0 163L29 454C33 487 60 512 93 512H259C292 512 319 487 323 454L352 163C353 154 350 145 344 138C338 132 329 128 320 128ZM275 450C274 458 267 464 259 464H93C85 464 78 458 77 450L62 304H290L275 450ZM294 256H58L50 176H302L294 256Z"/></svg>