<svg xmlns="http://www.w3.org/2000/svg" viewBox="0 0 512 512"><!-- Font Awesome Pro 6.0.0-alpha1 by @fontawesome - https://fontawesome.com License - https://fontawesome.com/license (Commercial License) --><path d="M256 16C123 16 16 123 16 256S123 496 256 496S496 389 496 256S389 16 256 16ZM422 160H373C367 133 358 108 347 87C378 104 404 129 422 160ZM336 256C336 273 335 289 333 304H179C177 289 176 273 176 256S177 223 179 208H333C335 223 336 239 336 256ZM256 448C234 448 205 412 189 352H323C307 412 278 448 256 448ZM189 160C205 100 234 64 256 64S307 100 323 160H189ZM165 87C154 108 145 133 139 160H90C108 129 134 104 165 87ZM70 208H131C129 224 128 240 128 256S129 288 131 304H70C66 289 64 273 64 256S66 223 70 208ZM90 352H139C145 379 154 404 165 425C134 408 108 383 90 352ZM347 425C358 404 367 379 373 352H422C404 383 378 408 347 425ZM442 304H381C383 288 384 272 384 256S383 224 381 208H442C446 223 448 239 448 256S446 289 442 304Z"/></svg>