<svg xmlns="http://www.w3.org/2000/svg" viewBox="0 0 512 512"><!-- Font Awesome Pro 6.0.0-alpha1 by @fontawesome - https://fontawesome.com License - https://fontawesome.com/license (Commercial License) --><path d="M496 352H480V240C480 231 473 224 464 224H448V144C448 135 441 128 432 128H416V24C416 11 405 0 392 0S368 11 368 24V32H320V24C320 11 309 0 296 0S272 11 272 24V32H240V24C240 11 229 0 216 0S192 11 192 24V32H144V24C144 11 133 0 120 0S96 11 96 24V128H80C71 128 64 135 64 144V224H48C39 224 32 231 32 240V352H16C7 352 0 359 0 368V488C0 501 11 512 24 512H24C37 512 48 501 48 488V400H96V496C96 505 103 512 112 512H112C121 512 128 505 128 496V400H384V496C384 505 391 512 400 512H400C409 512 416 505 416 496V400H464V488C464 501 475 512 488 512L488 512C501 512 512 501 512 488V368C512 359 505 352 496 352ZM144 80H368V128H144V80ZM264 200H248C239 200 232 207 232 216V224H192V176H320V224H280V216C280 207 273 200 264 200ZM112 176H160V224H112V176ZM128 352H80V272H128V352ZM352 352H288V320C288 311 281 304 272 304H240C231 304 224 311 224 320V352H160V272H352V352ZM352 224V176H400V224H352ZM432 352H384V272H432V352ZM288 432H224C215 432 208 439 208 448V496C208 505 215 512 224 512H288C297 512 304 505 304 496V448C304 439 297 432 288 432Z"/></svg>