<svg xmlns="http://www.w3.org/2000/svg" viewBox="0 0 640 512"><!-- Font Awesome Pro 6.0.0-alpha1 by @fontawesome - https://fontawesome.com License - https://fontawesome.com/license (Commercial License) --><path d="M624 137L341 36C334 33 327 32 320 32S306 33 299 36L16 137C6 140 0 150 0 160S6 180 16 183L76 205C64 220 56 239 52 259C40 263 32 275 32 288C32 298 37 306 44 312L19 461C17 471 25 480 35 480H93C103 480 111 471 109 461L84 312C91 306 96 298 96 288C96 278 91 269 83 263C88 245 96 229 108 216L299 284C306 287 313 288 320 288S334 287 341 284L624 183C634 180 640 170 640 160S634 140 624 137ZM325 239C321 241 317 240 315 239L176 189L325 143C333 141 338 132 335 123C333 115 324 110 315 113L125 171L94 160L315 81C319 79 323 80 325 81L546 160L325 239ZM452 279L464 391C464 401 414 432 320 432S176 401 176 391L188 279L142 262L128 388C128 449 225 480 320 480S512 449 512 388L498 262L452 279Z"/></svg>