<svg xmlns="http://www.w3.org/2000/svg" viewBox="0 0 384 512"><!-- Font Awesome Pro 6.0.0-alpha1 by @fontawesome - https://fontawesome.com License - https://fontawesome.com/license (Commercial License) --><path d="M56 320C61 320 66 318 70 316C110 288 194 239 271 239C283 238 296 240 308 243C320 246 328 257 328 269C328 288 312 304 293 304H184C171 304 160 315 160 328V328C160 341 171 352 184 352H293C339 352 376 315 376 269C376 235 353 206 321 197C237 174 175 65 151 14C146 4 137 -1 127 0C117 1 109 8 106 18L33 290C31 297 32 305 37 311C42 317 49 320 56 320ZM137 89C158 125 187 165 223 195C177 205 131 225 95 245L137 89ZM360 464H352V416C352 398 338 384 320 384H64C46 384 32 398 32 416V464H24C11 464 0 475 0 488V488C0 501 11 512 24 512H360C373 512 384 501 384 488V488C384 475 373 464 360 464ZM304 464H80V432H304V464Z"/></svg>