<svg xmlns="http://www.w3.org/2000/svg" viewBox="0 0 384 512"><!-- Font Awesome Pro 6.0.0-alpha1 by @fontawesome - https://fontawesome.com License - https://fontawesome.com/license (Commercial License) --><path d="M344 224H216V113C250 115 283 128 308 154C318 163 333 163 342 154S352 129 342 120C307 85 262 67 216 65V24C216 11 205 0 192 0S168 11 168 24V68C133 76 99 93 72 120C36 156 16 204 16 255C16 306 36 354 72 390C98 416 132 433 168 441V488C168 501 179 512 192 512S216 501 216 488V447C217 447 219 448 220 448C273 448 325 430 361 394C365 389 368 383 368 377V248C368 235 357 224 344 224ZM106 356C79 329 64 293 64 255S79 181 106 154C124 136 145 125 168 118V392C145 385 123 373 106 356ZM320 366C293 390 254 400 216 400V272H320V366Z"/></svg>