<svg xmlns="http://www.w3.org/2000/svg" viewBox="0 0 640 512"><!-- Font Awesome Pro 6.0.0-alpha1 by @fontawesome - https://fontawesome.com License - https://fontawesome.com/license (Commercial License) --><path d="M503 30L473 0C461 -13 440 -13 428 0L382 46C378 50 375 55 373 60L355 114L319 150C304 137 286 127 267 122C257 120 248 119 238 119C212 119 187 128 169 146C158 156 151 169 147 182C140 203 121 218 101 220C75 223 51 233 32 251C-18 301 -9 390 52 451C86 485 130 503 170 503C201 503 230 492 252 470C270 452 280 428 283 402C284 381 300 363 320 356C334 352 346 344 357 334C382 309 389 272 381 236C376 216 366 199 353 183L389 147L443 130C448 128 452 125 456 121L503 75C515 62 515 42 503 30ZM305 310C267 323 238 358 235 397C230 448 187 455 170 455C140 455 110 441 86 417C62 393 48 362 48 333C48 316 55 273 105 268C145 264 180 236 192 197C203 163 248 155 285 184L220 248C199 242 176 252 165 271C154 290 157 314 173 330C188 346 213 349 232 338C251 326 260 304 254 282L319 218C346 252 341 299 305 310Z"/></svg>