<svg xmlns="http://www.w3.org/2000/svg" viewBox="0 0 640 512"><!-- Font Awesome Pro 6.0.0-alpha1 by @fontawesome - https://fontawesome.com License - https://fontawesome.com/license (Commercial License) --><path d="M296 64C283 64 272 75 272 88V224H48V88C48 75 37 64 24 64S0 75 0 88V424C0 437 11 448 24 448S48 437 48 424V272H272V424C272 437 283 448 296 448S320 437 320 424V88C320 75 309 64 296 64ZM516 208H514L617 105C624 98 626 88 622 79C618 70 610 64 600 64H392C379 64 368 75 368 88S379 112 392 112H542L439 215C432 222 430 232 434 241C438 250 446 256 456 256H516C558 256 592 290 592 332S558 408 516 408C476 408 440 386 421 352C415 340 400 336 389 342C377 348 373 363 379 374C406 425 459 456 516 456C584 456 640 400 640 332S584 208 516 208Z"/></svg>