<svg xmlns="http://www.w3.org/2000/svg" viewBox="0 0 640 512"><!-- Font Awesome Pro 6.0.0-alpha1 by @fontawesome - https://fontawesome.com License - https://fontawesome.com/license (Commercial License) --><path d="M296 64C283 64 272 75 272 88V224H48V88C48 75 37 64 24 64S0 75 0 88V424C0 437 11 448 24 448S48 437 48 424V272H272V424C272 437 283 448 296 448S320 437 320 424V88C320 75 309 64 296 64ZM616 64C603 64 592 75 592 88V272H432V88C432 75 421 64 408 64S384 75 384 88V296C384 309 395 320 408 320H592V424C592 437 603 448 616 448S640 437 640 424V88C640 75 629 64 616 64Z"/></svg>