<svg xmlns="http://www.w3.org/2000/svg" viewBox="0 0 512 512"><!-- Font Awesome Pro 6.0.0-alpha1 by @fontawesome - https://fontawesome.com License - https://fontawesome.com/license (Commercial License) --><path d="M480 313C480 281 461 252 432 240C429 212 408 188 380 182L363 179C349 177 346 176 339 176C338 176 337 176 336 176V80C336 36 300 0 256 0C253 0 251 0 249 0C207 4 176 39 176 81V176C175 176 174 176 173 176C166 176 161 177 153 179L139 181C105 188 80 219 80 254V258L75 261L60 268C33 282 16 309 16 340V387C16 408 24 428 39 443L66 470C93 497 129 512 168 512H336C415 512 480 447 480 368L480 313ZM336 464H168C142 464 118 454 100 436L73 409C67 403 64 395 64 387V340C64 328 71 317 82 311L96 304V336C96 345 103 352 112 352S128 345 128 336V254C128 241 137 231 149 229C168 225 170 224 173 224C183 224 192 232 192 243C192 250 198 256 205 256H211C218 256 224 250 224 243V81C224 65 236 50 253 48C254 48 255 48 256 48C274 48 288 62 288 80V243C288 250 294 256 301 256H307C314 256 320 250 320 243C320 232 329 224 339 224C342 224 342 224 371 230C378 231 384 238 384 245V272L408 282C422 285 432 298 432 313L432 368C432 421 389 464 336 464Z"/></svg>