<svg xmlns="http://www.w3.org/2000/svg" viewBox="0 0 640 512"><!-- Font Awesome Pro 6.0.0-alpha1 by @fontawesome - https://fontawesome.com License - https://fontawesome.com/license (Commercial License) --><path d="M576 384H640V128H506C488 108 445 66 383 57C361 54 338 60 320 75C302 60 279 53 257 57C217 63 184 83 162 101L39 5C34 2 29 0 24 0C17 0 10 3 5 9C-3 20 -1 35 9 43L601 507C612 515 627 513 635 503C643 492 641 477 631 469L340 241L374 207C383 198 383 182 374 173C364 164 349 164 340 173L302 211L274 189L347 114C355 106 366 103 376 104C436 114 476 167 477 168C480 172 484 175 488 176H544V352C544 370 558 384 576 384ZM592 320C601 320 608 327 608 336C608 345 601 352 592 352S576 345 576 336C576 327 583 320 592 320ZM236 159L201 132C217 120 239 108 264 104C271 103 279 105 285 109L236 159ZM373 404C370 407 367 408 366 408C364 408 361 408 359 406L326 379L311 392L308 395C302 402 294 407 285 408C275 409 266 406 260 401L170 320H96V172L40 128H0V384H64C76 384 86 377 91 368H152L229 437C244 450 262 456 281 456C284 456 287 456 290 456C303 454 316 449 327 442L328 443C340 453 355 457 371 456C384 454 396 449 404 440C416 445 428 445 440 441L381 395L373 404ZM48 352C39 352 32 345 32 336C32 327 39 320 48 320S64 327 64 336C64 345 57 352 48 352Z"/></svg>