<svg xmlns="http://www.w3.org/2000/svg" viewBox="0 0 640 512"><!-- Font Awesome Pro 6.0.0-alpha1 by @fontawesome - https://fontawesome.com License - https://fontawesome.com/license (Commercial License) --><path d="M640 328C640 341 629 352 616 352L486 352C484 360 481 368 475 375L449 407C433 427 407 433 385 424C372 441 354 448 336 448C321 448 308 443 295 432C263 454 221 453 190 428L105 352L24 352C11 352 0 341 0 328C0 315 11 304 24 304L124 304L221 392C237 405 262 402 276 385L292 366L329 398C331 399 334 400 338 400S344 398 347 395L377 359L401 378C404 381 409 380 412 377L438 345C441 341 440 336 437 333L329 246L320 253C280 290 234 265 219 249C192 220 194 174 223 147L262 112L227 112C210 112 193 119 181 131L138 176L24 176C11 176 0 165 0 152C0 139 11 128 24 128L118 128L144 101C168 77 201 64 235 64H402C436 64 469 77 493 101L519 128L616 128C629 128 640 139 640 152C640 165 629 176 616 176L499 176L451 129C439 118 423 112 406 112L348 112C338 112 329 116 321 123L256 183C246 191 245 207 255 217C263 226 280 225 289 217L344 166C351 160 361 161 367 167L378 179C384 185 383 195 377 201L364 213L467 296C470 298 473 301 475 304L616 304C629 304 640 315 640 328Z"/></svg>