<svg xmlns="http://www.w3.org/2000/svg" viewBox="0 0 640 512"><!-- Font Awesome Pro 6.0.0-alpha1 by @fontawesome - https://fontawesome.com License - https://fontawesome.com/license (Commercial License) --><path d="M640 173V362C640 387 631 412 615 432L561 503C553 513 538 515 528 507C517 499 515 483 524 473L578 402C587 391 592 377 592 362V169C592 157 584 147 573 144C558 141 544 153 544 168C544 168 544 269 544 301C544 308 541 315 536 321L459 414C455 419 449 422 442 422C437 422 431 419 426 415C419 407 419 394 426 386L475 319C483 308 481 293 471 285C466 281 461 280 456 280C449 280 442 283 437 289L365 383C357 394 352 407 352 421V480C352 497 338 512 320 512C302 512 288 497 288 480V421C288 407 284 394 275 383L203 289C198 283 191 280 184 280C179 280 174 281 169 285C159 293 157 308 165 319L214 386C221 394 221 407 214 415C209 419 203 422 198 422C191 422 185 419 181 414L104 321C99 315 96 308 96 301C96 269 96 168 96 168C96 153 82 141 67 144C56 147 48 157 48 169V362C48 377 53 391 62 402L116 473C125 483 123 499 112 507C102 515 87 513 79 503L25 432C9 412 0 387 0 362V173C0 135 27 100 65 96C108 92 144 126 144 168C144 168 144 207 144 244C156 236 170 232 184 232C206 232 227 242 241 260L313 353C315 357 318 361 320 364C322 361 325 357 327 353L399 260C413 242 434 232 456 232C470 232 484 236 496 244C496 207 496 168 496 168C496 126 532 92 575 96C613 100 640 135 640 173Z"/></svg>