<svg xmlns="http://www.w3.org/2000/svg" viewBox="0 0 512 512"><!-- Font Awesome Pro 6.0.0-alpha1 by @fontawesome - https://fontawesome.com License - https://fontawesome.com/license (Commercial License) --><path d="M15 383C19 387 22 391 26 394C26 409 32 424 41 435C45 439 48 443 52 446C52 461 58 476 67 487C80 503 99 512 119 512H288C347 512 398 477 421 426L468 380C496 353 511 316 512 276L512 184C512 147 481 117 443 117C442 117 440 118 439 118L420 57C411 28 385 9 356 9C349 9 343 10 336 12C325 4 312 0 298 0C276 0 256 10 243 28C239 33 236 38 234 44C221 49 209 57 201 68C197 73 194 79 192 85C179 89 168 97 159 109C147 126 143 148 150 169L156 187L162 208C161 211 160 214 159 217C159 218 158 220 158 221H94C61 221 33 244 27 276C26 279 26 283 26 287C13 297 4 311 1 328C-3 348 3 368 15 383ZM242 172C236 170 230 169 224 169C216 169 208 170 201 173L196 154C191 139 203 129 215 129C222 129 230 133 233 143L242 172ZM275 103L302 189C302 190 302 190 303 190L257 176L237 114C233 99 245 88 256 88C264 88 272 93 275 103ZM331 199L311 193C314 191 315 188 314 185L279 73C274 58 286 48 298 48C306 48 313 52 317 62L355 186C356 188 359 190 362 190C362 190 363 190 364 190C367 189 369 185 368 182L337 82C332 67 344 57 356 57C363 57 371 61 374 71L423 226L424 185C424 174 433 166 444 165H444C455 165 464 174 464 185V276C464 304 452 328 434 346V340C434 276 393 220 331 199ZM48 337C50 327 59 321 68 321H198C201 321 204 318 204 314S201 308 197 308H93C81 308 72 297 74 285C76 275 85 269 94 269H256L218 255C207 252 202 241 205 231C207 222 215 217 224 217C225 217 227 217 229 218L317 245C358 259 386 297 386 340V366C386 420 342 464 288 464H119C107 464 98 453 100 441C102 431 111 425 120 425H197C201 425 204 422 204 418S201 412 197 412H93C81 412 72 401 74 389C76 379 85 373 94 373H197C201 373 204 370 204 366S201 360 197 360H67C55 360 46 349 48 337Z"/></svg>