<svg xmlns="http://www.w3.org/2000/svg" viewBox="0 0 640 512"><!-- Font Awesome Pro 6.0.0-alpha1 by @fontawesome - https://fontawesome.com License - https://fontawesome.com/license (Commercial License) --><path d="M506 128C488 108 445 66 383 57C361 54 338 60 320 75C302 60 279 53 257 57C177 69 127 136 125 139C117 150 119 165 130 173C134 176 139 177 144 177C151 177 159 174 163 168C164 167 203 114 264 104C271 103 279 105 285 109L227 168C215 181 208 197 208 214C208 232 215 248 227 261C240 273 256 280 273 280S307 273 320 261L331 249L455 350C458 352 458 356 456 358L428 394C426 396 423 397 421 395L399 376L373 404C370 407 367 408 366 408C364 408 361 408 359 406L326 379L311 392L308 395C302 402 294 407 285 408C275 409 266 406 260 401L170 320H96V128H0V384H64C76 384 86 377 91 368H152L229 437C244 450 262 456 281 456C284 456 287 456 290 456C303 454 316 450 327 442L328 443C340 453 355 457 371 456C384 454 396 449 404 440C426 448 451 443 466 424L493 388C512 365 508 332 486 313L365 215L374 207C383 198 383 182 374 173C364 164 349 164 340 173L286 227C279 233 268 234 261 227C258 224 256 219 256 214C256 210 258 205 261 202L347 114C355 106 366 103 376 104C436 113 476 167 477 168C480 172 484 174 489 176H544V352C544 370 558 384 576 384H640V128H506ZM48 352C39 352 32 345 32 336C32 327 39 320 48 320S64 327 64 336C64 345 57 352 48 352ZM592 352C583 352 576 345 576 336C576 327 583 320 592 320S608 327 608 336C608 345 601 352 592 352Z"/></svg>