<svg xmlns="http://www.w3.org/2000/svg" viewBox="0 0 512 512"><!-- Font Awesome Pro 6.0.0-alpha1 by @fontawesome - https://fontawesome.com License - https://fontawesome.com/license (Commercial License) --><path d="M455 113C438 96 415 87 392 87C390 87 388 87 386 87C372 70 351 59 328 59H307C293 42 272 32 249 32H222C199 32 178 43 164 60C163 59 161 59 160 59C112 59 73 98 73 146V170L59 180L33 201C12 217 0 242 0 269V356C0 388 18 417 46 432L103 463C124 474 147 480 171 480H336C383 480 425 452 443 408L467 347C475 327 480 306 480 284L480 174C480 151 471 129 455 113ZM432 284C432 300 429 315 423 329L398 390C388 416 363 432 336 432H171C155 432 140 428 126 421L69 390C56 383 48 370 48 356V269C48 257 53 246 63 238L89 218V272C89 281 96 288 105 288S121 281 121 272V146C121 125 138 107 160 107C165 107 167 108 174 111C176 112 178 113 181 113C183 113 186 112 188 111C192 109 195 105 196 100C199 88 209 80 222 80H249C260 80 270 87 274 98C276 105 282 109 289 109C290 109 292 109 293 109C296 108 298 107 300 107H328C340 107 351 116 353 128C354 132 357 137 361 139C364 140 366 140 369 140C371 140 373 140 375 139C381 136 387 135 392 135C414 135 432 152 432 174L432 284Z"/></svg>