<svg xmlns="http://www.w3.org/2000/svg" viewBox="0 0 576 512"><!-- Font Awesome Pro 6.0.0-alpha1 by @fontawesome - https://fontawesome.com License - https://fontawesome.com/license (Commercial License) --><path d="M576 366C575 386 565 405 549 418L448 494C432 506 413 512 393 512H24C11 512 0 501 0 488V488C0 475 11 464 24 464H393C402 464 412 461 419 455L520 380C530 372 531 357 521 349C513 342 501 343 493 349L431 395C424 401 414 404 404 404H270C262 404 256 398 256 390V390C256 382 262 376 270 376H330C360 376 359 336 331 336H187C169 336 151 342 137 353L96 384H24C11 384 0 373 0 360V360C0 347 11 336 24 336H80L108 314C130 297 158 288 187 288H331C369 288 400 318 400 356H403L464 310C483 296 521 286 552 312C568 326 577 345 576 366Z"/></svg>