<svg xmlns="http://www.w3.org/2000/svg" viewBox="0 0 640 512"><!-- Font Awesome Pro 6.0.0-alpha1 by @fontawesome - https://fontawesome.com License - https://fontawesome.com/license (Commercial License) --><path d="M347 395C345 398 341 400 338 400S331 399 329 398L292 366L276 385C262 402 237 405 221 392L124 304L24 304C11 304 0 315 0 328C0 341 11 352 24 352L105 352L190 428C221 453 263 454 295 432C308 443 321 448 336 448C355 448 372 441 385 424C396 428 409 429 420 426L360 379L347 395ZM616 352C629 352 640 341 640 328C640 315 629 304 616 304H420L336 238L377 201C383 195 384 185 378 179L367 167C361 161 351 160 344 166L298 208L260 179L321 123C329 116 338 112 348 112L406 112C423 112 439 118 451 130L499 176L616 176C629 176 640 165 640 152C640 139 629 128 616 128L519 128L493 101C469 77 436 64 402 64H235C205 64 176 75 153 94L39 5C34 2 29 0 24 0C17 0 10 3 5 9C-3 20 -1 35 9 43L118 128L601 507C612 515 627 513 635 503C643 492 641 477 631 469L485 355C485 354 486 353 486 352L616 352ZM222 149L190 124C201 116 214 112 227 112L262 112L223 147C223 148 223 148 222 149ZM24 176L101 176L40 128L24 128C11 128 0 139 0 152C0 165 11 176 24 176Z"/></svg>