<svg xmlns="http://www.w3.org/2000/svg" viewBox="0 0 448 512"><!-- Font Awesome Pro 6.0.0-alpha1 by @fontawesome - https://fontawesome.com License - https://fontawesome.com/license (Commercial License) --><path d="M208 288C199 288 192 295 192 304V400C192 409 199 416 208 416S224 409 224 400V304C224 295 217 288 208 288ZM272 288C263 288 256 295 256 304V400C256 409 263 416 272 416S288 409 288 400V304C288 295 281 288 272 288ZM377 201C363 184 342 174 320 174H306C303 174 299 174 295 175C283 165 267 160 251 160H240V72C240 32 208 0 168 0C128 0 96 32 96 72V241C91 238 85 237 80 236C76 236 73 235 70 235C55 235 40 240 28 249C13 261 3 277 1 295C-2 314 3 332 14 347L92 451C121 489 166 512 214 512H323C330 512 336 511 342 509C370 504 395 490 415 469C436 446 448 416 448 384V274C448 235 416 202 377 201ZM400 384C400 404 393 422 380 436C367 450 351 459 330 463C327 464 325 464 323 464H214C181 464 150 448 131 422L52 318C49 314 47 308 48 302C49 296 52 291 57 288C61 285 65 283 70 283C71 283 72 283 73 284C79 284 84 287 87 292L115 330C119 335 127 337 133 335C140 333 144 327 144 320V72C144 59 155 48 168 48C181 48 192 59 192 72V203C192 209 196 215 202 217C207 220 214 219 219 215C223 211 231 208 238 208H251C260 208 268 212 273 220C277 227 287 229 294 225C298 223 302 222 306 222H320C331 222 340 228 344 239C346 245 354 249 361 249H375C389 249 400 260 400 274V384ZM336 288C327 288 320 295 320 304V400C320 409 327 416 336 416S352 409 352 400V304C352 295 345 288 336 288Z"/></svg>