<svg xmlns="http://www.w3.org/2000/svg" viewBox="0 0 448 512"><!-- Font Awesome Pro 6.0.0-alpha1 by @fontawesome - https://fontawesome.com License - https://fontawesome.com/license (Commercial License) --><path d="M346 196C332 179 311 168 289 168H281L287 79C290 39 260 3 220 0C218 0 217 0 215 0C177 0 145 30 142 69L142 79L141 77C134 58 121 43 103 35C93 30 83 28 73 28C64 28 55 30 47 33C10 47 -9 89 4 127L51 255L32 270C12 287 0 312 0 339V386C0 418 17 448 45 463L100 494C121 506 144 512 168 512H276C353 512 416 447 416 368V270C416 230 385 197 346 196ZM368 368C368 421 327 464 276 464H168C153 464 137 460 124 452L68 421C56 414 48 401 48 386V339C48 327 53 315 63 308L81 292L105 357C108 365 117 370 125 367C133 364 138 354 135 346L50 111C45 98 51 82 64 78C70 75 77 75 82 78C89 81 93 86 96 93L148 240C150 247 158 251 165 250C173 249 178 243 179 235L190 72C191 58 202 47 217 48C230 49 240 62 239 76L230 213C229 219 233 226 240 229C246 231 253 229 258 224C263 219 269 216 276 216H289C300 216 309 223 312 233C315 240 323 245 330 244H343C357 244 368 256 368 270V368Z"/></svg>