<svg xmlns="http://www.w3.org/2000/svg" viewBox="0 0 448 512"><!-- Font Awesome Pro 6.0.0-alpha1 by @fontawesome - https://fontawesome.com License - https://fontawesome.com/license (Commercial License) --><path d="M0 339V386C0 418 17 448 45 463L100 494C121 506 144 512 168 512H276C353 512 416 447 416 368V270C416 230 385 197 346 196C332 179 311 168 289 168H276C272 168 269 168 265 169C253 159 237 154 222 154H208V72C208 32 176 0 136 0C96 0 64 32 64 72V242L31 271C11 287 0 312 0 339ZM48 339C48 327 53 315 62 308L80 292V336C80 345 87 352 96 352S112 345 112 336V72C112 59 123 48 136 48C149 48 160 59 160 72V208C160 216 165 222 173 224C181 225 188 221 191 214C191 213 196 202 208 202H222C230 202 238 206 242 214C247 221 256 224 264 219C268 217 272 216 276 216H289C300 216 309 223 312 233C315 240 322 244 328 244L343 244C357 244 368 256 368 270V368C368 421 327 464 276 464H168C153 464 137 460 124 452L68 421C56 414 48 401 48 386V339Z"/></svg>