<svg xmlns="http://www.w3.org/2000/svg" viewBox="0 0 576 512"><!-- Font Awesome Pro 6.0.0-alpha1 by @fontawesome - https://fontawesome.com License - https://fontawesome.com/license (Commercial License) --><path d="M552 312C521 286 483 296 464 310L403 356H400C400 318 369 288 331 288H187C158 288 130 297 108 314L80 336H24C11 336 0 347 0 360C0 373 11 384 24 384H96L137 353C151 342 169 336 187 336H331C359 336 360 376 330 376H270C262 376 256 382 256 390V390C256 398 262 404 270 404H404C414 404 424 401 431 395L493 349C501 343 513 342 521 349C531 357 530 372 520 380L419 455C412 461 402 464 393 464H24C11 464 0 475 0 488C0 501 11 512 24 512H393C413 512 432 506 448 494L549 418C565 405 575 386 576 366C577 345 568 326 552 312ZM275 251C282 258 294 258 301 251L410 136C441 103 439 48 404 18C373 -9 327 -4 299 25L288 37L277 25C249 -4 203 -9 172 18C137 48 135 103 166 136L275 251Z"/></svg>