<svg xmlns="http://www.w3.org/2000/svg" viewBox="0 0 576 512"><!-- Font Awesome Pro 6.0.0-alpha1 by @fontawesome - https://fontawesome.com License - https://fontawesome.com/license (Commercial License) --><path d="M576 192C576 148 540 112 496 112C494 112 491 113 489 113C503 101 512 84 512 64C512 29 483 0 448 0S384 29 384 64S413 128 448 128C448 128 448 128 449 128C429 143 416 166 416 192C416 202 418 212 422 221H386C386 218 384 214 382 208L394 169C400 150 397 129 386 112C378 99 366 89 351 84C350 80 347 75 345 71C336 58 324 49 310 44C308 39 306 35 303 31C292 14 274 3 254 0C251 0 249 0 246 0C232 0 219 4 208 12C204 11 200 10 196 10C194 9 191 9 189 9C159 9 133 28 124 57L105 118C104 118 102 117 101 117C63 117 32 147 32 184L32 276C32 305 41 333 56 356C24 366 0 396 0 432C0 476 36 512 80 512C111 512 138 494 151 468C178 495 215 512 255 512H424C445 512 464 503 477 487C486 476 492 461 492 446C506 435 518 417 518 394C522 391 525 387 529 383C541 368 547 348 543 328C540 311 531 297 518 287C518 277 516 271 515 269C550 261 576 230 576 192ZM448 80C439 80 432 73 432 64S439 48 448 48C457 48 464 55 464 64S457 80 448 80ZM311 143C319 118 356 130 348 154L343 173C336 170 328 169 320 169C314 169 308 170 302 172L311 143ZM307 114L287 176L241 190C242 190 242 190 242 189L269 103C277 77 314 89 307 114ZM80 185C80 174 89 165 100 165H100C111 166 120 174 120 185L121 226L170 71C178 46 215 58 207 83L176 182C175 185 177 189 180 190C181 190 182 190 182 190C185 190 188 188 189 186L227 62C236 37 273 49 265 73L230 185C229 188 230 191 233 193L213 199C151 220 110 276 110 340V346C92 328 80 304 80 276V185ZM80 464C62 464 48 450 48 432C48 414 62 400 80 400C98 400 112 414 112 432C112 450 98 464 80 464ZM477 360H347C343 360 340 363 340 366S343 373 347 373H450C459 373 468 379 470 389C472 401 463 412 451 412H347C343 412 340 415 340 418S343 425 347 425H424C433 425 442 431 444 441C446 453 437 464 425 464H255C202 464 158 420 158 366V340C158 297 186 259 227 245L315 218C317 217 319 217 320 217C329 217 337 222 339 231C342 241 337 252 326 255L288 269H450C459 269 468 275 470 285C472 297 463 308 450 308H346C343 308 340 311 340 314S343 321 346 321H476C485 321 494 327 496 337C498 349 489 360 477 360ZM496 224C478 224 464 210 464 192S478 160 496 160C514 160 528 174 528 192S514 224 496 224Z"/></svg>