<svg xmlns="http://www.w3.org/2000/svg" viewBox="0 0 640 512"><!-- Font Awesome Pro 6.0.0-alpha1 by @fontawesome - https://fontawesome.com License - https://fontawesome.com/license (Commercial License) --><path d="M575 96C532 92 496 126 496 168C496 168 496 207 496 244C484 236 470 232 456 232C434 232 413 242 399 260L327 353C325 357 322 361 320 364C318 361 315 357 313 353L241 260C227 242 206 232 184 232C170 232 156 236 144 244C144 207 144 168 144 168C144 126 108 92 65 96C27 100 0 135 0 173V362C0 387 9 412 25 432L79 503C87 513 102 515 112 507C123 499 125 483 116 473L62 402C53 391 48 377 48 362V169C48 157 56 147 67 144C82 141 96 153 96 168C96 168 96 269 96 301C96 308 99 315 104 321L181 414C185 419 191 422 198 422C203 422 209 419 214 415C221 407 221 394 214 386L165 319C157 308 159 293 169 285C174 281 179 280 184 280C191 280 198 283 203 289L275 383C283 394 288 407 288 421V480C288 497 302 512 320 512C338 512 352 497 352 480V421C352 407 356 394 365 383L437 289C442 283 449 280 456 280C461 280 466 281 471 285C481 293 483 308 475 319L426 386C419 394 419 407 426 415C431 419 437 422 442 422C449 422 455 419 459 414L536 321C541 315 544 308 544 301C544 269 544 168 544 168C544 153 558 141 573 144C584 147 592 157 592 169V362C592 377 587 391 578 402L524 473C515 483 517 499 528 507C538 515 553 513 561 503L615 432C631 412 640 387 640 362V173C640 135 613 100 575 96ZM307 251C314 258 326 258 333 251L442 136C473 103 471 48 436 18C405 -9 359 -4 331 25L320 37L309 25C281 -4 235 -9 204 18C169 48 167 103 198 136L307 251Z"/></svg>