<svg xmlns="http://www.w3.org/2000/svg" viewBox="0 0 640 512"><!-- Font Awesome Pro 6.0.0-alpha1 by @fontawesome - https://fontawesome.com License - https://fontawesome.com/license (Commercial License) --><path d="M448 176V296H480V176C480 167 473 160 464 160S448 167 448 176ZM464 128C477 128 488 116 488 101C488 87 464 48 464 48S440 87 440 101C440 116 451 128 464 128ZM320 80C333 80 344 68 344 53C344 39 320 0 320 0S296 39 296 53C296 68 307 80 320 80ZM400 128C413 128 424 116 424 101C424 87 400 48 400 48S376 87 376 101C376 116 387 128 400 128ZM512 176V296H544V176C544 167 537 160 528 160S512 167 512 176ZM616 128C629 128 640 116 640 101C640 87 616 48 616 48S592 87 592 101C592 116 603 128 616 128ZM528 128C541 128 552 116 552 101C552 87 528 48 528 48S504 87 504 101C504 116 515 128 528 128ZM384 176V296H416V176C416 167 409 160 400 160S384 167 384 176ZM24 128C37 128 48 116 48 101C48 87 24 48 24 48S0 87 0 101C0 116 11 128 24 128ZM240 128C253 128 264 116 264 101C264 87 240 48 240 48S216 87 216 101C216 116 227 128 240 128ZM96 176V296H128V176C128 167 121 160 112 160S96 167 96 176ZM616 160C603 160 592 171 592 184V294C592 317 573 336 550 336H344V136C344 123 333 112 320 112S296 123 296 136V336H90C67 336 48 317 48 294V184C48 171 37 160 24 160S0 171 0 184V294C0 344 40 384 90 384H296V464H144C131 464 120 475 120 488C120 501 131 512 144 512H496C509 512 520 501 520 488C520 475 509 464 496 464H344V384H550C600 384 640 344 640 294V184C640 171 629 160 616 160ZM112 128C125 128 136 116 136 101C136 87 112 48 112 48S88 87 88 101C88 116 99 128 112 128ZM224 176V296H256V176C256 167 249 160 240 160S224 167 224 176ZM176 128C189 128 200 116 200 101C200 87 176 48 176 48S152 87 152 101C152 116 163 128 176 128ZM160 176V296H192V176C192 167 185 160 176 160S160 167 160 176Z"/></svg>