<svg xmlns="http://www.w3.org/2000/svg" viewBox="0 0 512 512"><!-- Font Awesome Pro 6.0.0-alpha1 by @fontawesome - https://fontawesome.com License - https://fontawesome.com/license (Commercial License) --><path d="M304 344C291 344 280 355 280 368C280 381 291 392 304 392C317 392 328 381 328 368C328 355 317 344 304 344ZM448 32H64C29 32 0 61 0 96V416C0 451 29 480 64 480H448C483 480 512 451 512 416V96C512 61 483 32 448 32ZM464 416C464 425 457 432 448 432H64C55 432 48 425 48 416V320C48 311 55 304 64 304H448C457 304 464 311 464 320V416ZM464 258C459 257 454 256 448 256H64C58 256 53 257 48 258V96C48 87 55 80 64 80H448C457 80 464 87 464 96V258ZM400 344C387 344 376 355 376 368C376 381 387 392 400 392C413 392 424 381 424 368C424 355 413 344 400 344Z"/></svg>