<svg xmlns="http://www.w3.org/2000/svg" viewBox="0 0 640 512"><!-- Font Awesome Pro 6.0.0-alpha1 by @fontawesome - https://fontawesome.com License - https://fontawesome.com/license (Commercial License) --><path d="M612 218C614 209 612 200 605 194C599 188 590 185 582 187C572 172 548 172 538 187C530 185 521 188 515 194C508 200 506 209 508 218C501 222 496 231 496 239C496 248 501 257 508 261C506 270 508 279 515 285C522 292 530 294 539 292C543 299 551 304 560 304C569 304 577 299 581 292C588 294 597 293 605 285C612 279 614 270 612 261C619 257 624 249 624 240C624 231 619 222 612 218ZM464 368H471L466 357L390 159C387 150 378 144 368 144C365 144 362 145 359 146C347 150 341 164 346 177L417 363L419 368H93L95 363L170 175C193 117 248 80 310 80C359 80 404 104 433 143L460 182C465 188 472 192 480 192C485 192 490 190 494 188C505 180 507 165 500 154L472 115C435 63 374 32 310 32C229 32 156 81 126 157L46 357L41 368H48C22 368 0 390 0 416V432C0 458 22 480 48 480H464C490 480 512 458 512 432V416C512 390 490 368 464 368ZM481 184C481 184 480 184 480 184C480 184 479 184 479 184C480 184 480 184 481 184Z"/></svg>