<svg xmlns="http://www.w3.org/2000/svg" viewBox="0 0 512 512"><!-- Font Awesome Pro 6.0.0-alpha1 by @fontawesome - https://fontawesome.com License - https://fontawesome.com/license (Commercial License) --><path d="M400 448C400 457 393 464 384 464H128C119 464 112 457 112 448V384H64V448C64 483 93 512 128 512H384C419 512 448 483 448 448V384H400V448ZM416 32C395 32 375 39 358 52C335 21 298 0 256 0C214 0 177 21 154 52C137 39 116 32 96 32C81 32 67 35 53 42C20 58 0 91 0 128C0 170 64 352 64 352H448C448 352 512 170 512 128C512 75 469 32 416 32ZM416 304H374L400 163C401 154 396 146 387 144C378 143 370 148 368 157L342 304H272V160C272 151 265 144 256 144S240 151 240 160V304H170L144 157C142 148 134 143 125 144C116 146 111 154 112 163L138 304H96C71 243 48 145 48 128C48 109 58 93 75 85C81 82 88 80 96 80C106 80 116 83 125 90L163 119L192 80C208 60 231 48 256 48C281 48 304 60 320 81L349 119L387 90C396 83 406 80 416 80C442 80 464 102 464 128C464 145 441 243 416 304Z"/></svg>