<svg xmlns="http://www.w3.org/2000/svg" viewBox="0 0 512 512"><!-- Font Awesome Pro 6.0.0-alpha1 by @fontawesome - https://fontawesome.com License - https://fontawesome.com/license (Commercial License) --><path d="M308 199L283 187L271 162C269 159 265 159 263 162L251 187L226 199C223 201 223 205 226 207L251 219L263 244C265 247 269 247 271 244L283 219L308 207C311 205 311 201 308 199ZM496 448H16C7 448 0 455 0 464C0 490 22 512 48 512H464C490 512 512 490 512 464C512 455 505 448 496 448ZM203 187C211 169 225 154 242 144L361 76L329 172C322 192 323 213 331 231L409 416H461L375 212C372 205 372 196 375 187L426 32C430 22 427 12 419 5C411 -1 400 -2 392 3L219 102C192 117 171 140 159 167L44 416H97L203 187ZM248 328L232 279C229 271 219 271 216 279L200 328L151 344C143 347 143 357 151 360L200 376L208 416H240L248 376L297 360C305 357 305 347 297 344L248 328Z"/></svg>