<svg xmlns="http://www.w3.org/2000/svg" viewBox="0 0 512 512"><!-- Font Awesome Pro 6.0.0-alpha1 by @fontawesome - https://fontawesome.com License - https://fontawesome.com/license (Commercial License) --><path d="M256 32C113 32 5 151 0 288V400C0 401 0 402 0 402C3 446 38 480 82 480C108 480 128 460 128 434V302C128 276 108 256 82 256C71 256 60 258 50 263C62 160 150 80 256 80C362 80 450 160 462 263C452 258 441 256 430 256C404 256 384 276 384 302V434C384 460 404 480 430 480C474 480 509 446 512 402C512 402 512 401 512 400V288C507 151 399 32 256 32ZM80 304V432C62 431 48 416 48 398V338C48 320 62 305 80 304ZM432 432V304C450 305 464 320 464 338V398C464 416 450 431 432 432Z"/></svg>