<svg xmlns="http://www.w3.org/2000/svg" viewBox="0 0 512 512"><!-- Font Awesome Pro 6.0.0-alpha1 by @fontawesome - https://fontawesome.com License - https://fontawesome.com/license (Commercial License) --><path d="M509 275C488 228 461 123 436 88C398 34 335 0 266 0H200C96 0 4 80 0 185C-2 244 23 298 64 335V488C64 501 75 512 88 512C101 512 112 501 112 488V313L96 299C49 257 33 187 64 127C89 77 143 48 199 48H266C318 48 367 73 397 116C408 132 425 182 437 218C444 237 450 256 456 272H400V384C400 393 393 400 384 400H304V488C304 501 315 512 328 512C341 512 352 501 352 488V448H384C419 448 448 419 448 384V320H480C503 320 519 296 509 275ZM315 123C295 106 265 109 247 128L240 135L233 128C214 109 185 106 165 123C142 142 141 176 161 197L232 269C236 273 244 273 248 269L319 197C339 176 338 142 315 123Z"/></svg>