<svg xmlns="http://www.w3.org/2000/svg" viewBox="0 0 640 512"><!-- Font Awesome Pro 6.0.0-alpha1 by @fontawesome - https://fontawesome.com License - https://fontawesome.com/license (Commercial License) --><path d="M480 360C467 360 456 371 456 384S467 408 480 408S504 397 504 384S493 360 480 360ZM477 275C456 228 429 123 404 88C366 34 303 0 234 0H200C96 0 4 80 0 185C-2 244 23 298 64 335V488C64 501 75 512 88 512C101 512 112 501 112 488V313L96 299C49 257 33 187 64 127C89 77 143 48 199 48H234C286 48 335 73 365 116C376 132 393 182 405 218C412 237 418 256 424 272H368V325L312 333C298 335 288 346 288 360S298 385 312 387L368 395V416C368 425 361 432 352 432H272V488C272 501 283 512 296 512C309 512 320 501 320 488V480H352C387 480 416 451 416 416V320H448C471 320 487 296 477 275ZM608 360C595 360 584 371 584 384S595 408 608 408S632 397 632 384S621 360 608 360ZM608 312C621 312 632 301 632 288S621 264 608 264S584 275 584 288S595 312 608 312ZM544 408C531 408 520 419 520 432S531 456 544 456S568 445 568 432S557 408 544 408ZM544 312C531 312 520 323 520 336S531 360 544 360S568 349 568 336S557 312 544 312ZM608 456C595 456 584 467 584 480S595 504 608 504S632 493 632 480S621 456 608 456ZM320 224C338 224 352 210 352 192S338 160 320 160C302 160 288 174 288 192S302 224 320 224Z"/></svg>