<svg xmlns="http://www.w3.org/2000/svg" viewBox="0 0 512 512"><!-- Font Awesome Pro 6.0.0-alpha1 by @fontawesome - https://fontawesome.com License - https://fontawesome.com/license (Commercial License) --><path d="M314 192C335 192 352 175 352 155C352 135 335 118 314 118H311C306 103 291 93 275 93C268 93 262 95 256 99C249 88 238 80 224 80S199 88 192 99C186 95 180 93 173 93C152 93 134 110 134 131C113 131 96 148 96 170C96 186 107 200 122 206C122 206 122 207 122 208C122 229 139 246 160 246C164 246 169 245 173 244V294C173 309 184 320 198 320S224 309 224 294V244C228 245 232 246 237 246C258 246 275 229 275 208C275 202 274 197 271 192H314ZM509 275C488 228 461 123 436 88C398 34 335 0 266 0H200C96 0 4 80 0 185C-2 244 23 298 64 335V488C64 501 75 512 88 512C101 512 112 501 112 488V313L96 299C49 257 33 187 64 127C89 77 143 48 199 48H266C318 48 367 73 397 116C408 132 425 182 437 218C444 237 450 256 456 272H400V384C400 393 393 400 384 400H304V488C304 501 315 512 328 512C341 512 352 501 352 488V448H384C419 448 448 419 448 384V320H480C503 320 519 296 509 275Z"/></svg>