<svg xmlns="http://www.w3.org/2000/svg" viewBox="0 0 640 512"><!-- Font Awesome Pro 6.0.0-alpha1 by @fontawesome - https://fontawesome.com License - https://fontawesome.com/license (Commercial License) --><path d="M631 469L441 320H448C471 320 487 296 477 275C456 228 429 123 404 88C366 34 303 0 234 0H200C156 0 115 14 81 38L39 5C34 2 29 0 24 0C17 0 10 3 5 9C-3 20 -1 35 9 43L601 507C612 515 627 513 635 503C643 492 641 477 631 469ZM379 272L317 223C318 224 319 224 320 224C338 224 352 210 352 192S338 160 320 160C302 160 288 174 288 192C288 196 289 199 290 202L121 69C144 56 171 48 199 48H234C286 48 335 73 365 116C376 132 393 182 405 218C412 237 418 256 424 272H379ZM58 142L19 111C8 133 1 158 0 184C-2 244 23 298 64 335V488C64 501 75 512 88 512C101 512 112 501 112 488V313L96 299C53 260 36 198 58 142ZM288 360C288 374 298 385 312 387L368 395V416C368 425 361 432 352 432H272V488C272 501 283 512 296 512C309 512 320 501 320 488V480H352C385 480 412 454 415 422L305 335C295 339 288 349 288 360ZM608 312C621 312 632 301 632 288S621 264 608 264S584 275 584 288S595 312 608 312ZM608 408C621 408 632 397 632 384S621 360 608 360S584 371 584 384S595 408 608 408ZM544 360C557 360 568 349 568 336S557 312 544 312S520 323 520 336S531 360 544 360Z"/></svg>