<svg xmlns="http://www.w3.org/2000/svg" viewBox="0 0 512 512"><!-- Font Awesome Pro 6.0.0-alpha1 by @fontawesome - https://fontawesome.com License - https://fontawesome.com/license (Commercial License) --><path d="M352 160C334 160 320 174 320 192S334 224 352 224C370 224 384 210 384 192S370 160 352 160ZM509 275C488 228 461 123 436 88C398 34 335 0 266 0H198C94 0 4 81 0 185C-2 245 23 298 64 335V488C64 501 75 512 88 512S112 501 112 488V313L96 299C68 274 51 238 48 200L224 319V480C224 498 238 512 256 512H371C408 512 441 489 454 454L508 302C513 294 513 284 509 275ZM440 352H336C327 352 320 359 320 368C320 377 327 384 336 384H428L416 416H336C327 416 320 423 320 432C320 441 327 448 336 448H403C396 458 384 464 371 464H272V320H451L440 352ZM240 272L56 147C58 141 60 134 63 128C88 78 142 48 198 48H266C318 48 367 73 397 116C408 132 425 182 437 218C444 237 450 256 456 272H240Z"/></svg>