<svg xmlns="http://www.w3.org/2000/svg" viewBox="0 0 512 512"><!-- Font Awesome Pro 6.0.0-alpha1 by @fontawesome - https://fontawesome.com License - https://fontawesome.com/license (Commercial License) --><path d="M256 0C113 0 5 119 0 256V309C0 351 33 384 73 384H91C112 384 128 367 128 347V213C128 193 112 176 91 176H73C70 176 67 177 64 177C95 102 169 48 256 48C343 48 417 102 448 177C445 177 442 176 439 176H421C400 176 384 193 384 213V347C384 367 400 384 421 384H439C448 384 456 382 464 379V400C464 422 446 440 424 440H313C305 426 290 416 272 416H240C214 416 192 438 192 464S214 512 240 512H272C290 512 305 502 313 488H424C473 488 512 449 512 400V256C507 119 399 0 256 0ZM73 224H80V336H73C59 336 48 324 48 309V256C48 254 48 251 48 249C49 235 60 224 73 224ZM439 336H432V224H439C452 224 463 235 464 249C464 251 464 254 464 256V309C464 324 453 336 439 336Z"/></svg>