<svg xmlns="http://www.w3.org/2000/svg" viewBox="0 0 512 512"><!-- Font Awesome Pro 6.0.0-alpha1 by @fontawesome - https://fontawesome.com License - https://fontawesome.com/license (Commercial License) --><path d="M480 456C480 469 469 480 456 480H344C331 480 320 469 320 456S331 432 344 432H376V280H136V432H168C181 432 192 443 192 456S181 480 168 480H56C43 480 32 469 32 456S43 432 56 432H88V80H56C43 80 32 69 32 56S43 32 56 32H168C181 32 192 43 192 56S181 80 168 80H136V232H376V80H344C331 80 320 69 320 56S331 32 344 32H456C469 32 480 43 480 56S469 80 456 80H424V432H456C469 432 480 443 480 456Z"/></svg>