<svg xmlns="http://www.w3.org/2000/svg" viewBox="0 0 512 512"><!-- Font Awesome Pro 6.0.0-alpha1 by @fontawesome - https://fontawesome.com License - https://fontawesome.com/license (Commercial License) --><path d="M256 425L154 320H88L233 470C239 477 248 480 256 480C264 480 273 477 279 470L424 320H357L256 425ZM463 63C439 42 409 32 379 32C341 32 303 47 276 76L256 96L236 76C209 47 171 32 133 32C103 32 73 42 49 63C-13 117 -16 213 40 270L57 288L154 288L184 216L240 343C246 355 263 355 269 343L319 244L341 288L455 288L472 270C528 213 525 117 463 63ZM438 237L419 256H361L333 201C327 189 311 189 305 201L256 299L198 169C192 157 174 157 168 170L132 256H93L74 237C42 204 34 139 80 99C120 65 175 82 202 109C231 140 210 118 256 165C294 126 283 137 310 109C337 82 391 64 432 99C477 139 471 203 438 237Z"/></svg>