<svg xmlns="http://www.w3.org/2000/svg" viewBox="0 0 576 512"><!-- Font Awesome Pro 6.0.0-alpha1 by @fontawesome - https://fontawesome.com License - https://fontawesome.com/license (Commercial License) --><path d="M32 256C50 256 64 243 64 228V0L1 221C-4 239 11 256 32 256ZM575 221L512 0V228C512 243 526 256 544 256C565 256 580 239 575 221ZM480 211C480 90 288 0 288 0S96 90 96 211C96 294 73 357 65 392C62 406 68 421 81 427L243 506C251 510 261 512 271 512H305C315 512 325 510 333 506L495 427C508 421 515 406 511 391C503 357 480 294 480 211ZM312 462V288L400 256V224H176V256L264 288V462L115 390C116 387 116 384 117 381C128 342 144 284 144 211C144 147 236 83 288 54C340 83 432 147 432 211C432 284 448 342 459 381C460 384 460 387 461 390L312 462Z"/></svg>