<svg xmlns="http://www.w3.org/2000/svg" viewBox="0 0 576 512"><!-- Font Awesome Pro 6.0.0-alpha1 by @fontawesome - https://fontawesome.com License - https://fontawesome.com/license (Commercial License) --><path d="M552 464H248C235 464 224 475 224 488C224 501 235 512 248 512H552C565 512 576 501 576 488C576 475 565 464 552 464ZM267 429C271 431 274 431 278 431C288 431 298 427 305 419L530 154C549 133 548 100 528 79L465 16C454 5 440 0 426 0C413 0 400 5 390 14L126 239C116 249 111 264 116 277L129 320L72 377C63 386 63 400 71 410L6 475C-7 489 2 512 22 512H94C99 512 103 510 106 507L138 475C147 482 160 481 168 473L224 416L267 429ZM422 50C423 49 425 48 426 48C428 48 429 48 431 50L494 113C497 116 497 120 494 123L332 313L232 212L422 50ZM151 422L123 394L183 334L164 270L195 243L301 349L274 381L211 362L151 422Z"/></svg>