<svg xmlns="http://www.w3.org/2000/svg" viewBox="0 0 576 512"><!-- Font Awesome Pro 6.0.0-alpha1 by @fontawesome - https://fontawesome.com License - https://fontawesome.com/license (Commercial License) --><path d="M528 79L465 16C454 5 440 0 426 0C413 0 400 5 390 14L104 262C93 271 89 286 93 300L106 343L72 377C63 386 63 400 71 410L6 475C-7 489 2 512 22 512H94C99 512 103 510 106 507L138 475C147 482 160 481 168 473L202 439L244 452C248 453 252 454 255 454C266 454 276 449 282 441L530 154C550 133 548 100 528 79ZM251 404L188 385L151 422L123 394L160 356L141 293L173 266L279 372L251 404ZM494 123L310 335L209 235L422 50C423 49 425 48 426 48C428 48 429 48 431 50L494 113C497 116 497 120 494 123Z"/></svg>