<svg xmlns="http://www.w3.org/2000/svg" viewBox="0 0 512 512"><!-- Font Awesome Pro 6.0.0-alpha1 by @fontawesome - https://fontawesome.com License - https://fontawesome.com/license (Commercial License) --><path d="M256 64C129 64 0 96 0 178V315C0 402 129 448 256 448S512 402 512 315V184C512 102 383 64 256 64ZM464 315C464 361 369 400 256 400S48 361 48 315V259C88 285 154 304 256 304S424 285 464 259V315ZM256 256C141 256 48 224 48 184C48 150 132 112 256 112S464 150 464 184C464 224 371 256 256 256Z"/></svg>