<svg xmlns="http://www.w3.org/2000/svg" viewBox="0 0 640 512"><!-- Font Awesome Pro 6.0.0-alpha1 by @fontawesome - https://fontawesome.com License - https://fontawesome.com/license (Commercial License) --><path d="M593 303H436L411 351L528 352V464L418 464C398 464 379 455 366 441L356 460C352 468 347 476 342 484C362 502 389 512 418 512H593C619 512 640 490 640 464V351C640 324 619 303 593 303ZM593 464H560V351H593V464ZM222 267L249 215L175 70L217 48L275 162L302 110L259 26C251 9 234 0 217 0C210 0 203 2 196 5L154 27C143 33 134 43 130 55C126 67 127 81 133 92L222 267ZM510 55C506 43 497 33 486 27L444 5C437 2 430 0 423 0C406 0 389 9 381 26L240 303H47C21 303 0 324 0 351V464C0 490 21 512 47 512H222C267 512 308 486 328 445L507 92C513 81 514 67 510 55ZM80 464H47V351H80V464ZM286 424C274 448 249 464 222 464L112 464V352L249 351C261 351 272 344 277 334L423 48L465 70L286 424Z"/></svg>