<svg xmlns="http://www.w3.org/2000/svg" viewBox="0 0 448 512"><!-- Font Awesome Pro 6.0.0-alpha1 by @fontawesome - https://fontawesome.com License - https://fontawesome.com/license (Commercial License) --><path d="M192 416C183 416 176 423 176 432S183 448 192 448C201 448 208 441 208 432S201 416 192 416ZM192 352C183 352 176 359 176 368S183 384 192 384C201 384 208 377 208 368S201 352 192 352ZM272 112C281 112 288 105 288 96S281 80 272 80C263 80 256 87 256 96S263 112 272 112ZM176 112C185 112 192 105 192 96S185 80 176 80S160 87 160 96S167 112 176 112ZM192 288C183 288 176 295 176 304S183 320 192 320C201 320 208 313 208 304S201 288 192 288ZM256 416C247 416 240 423 240 432S247 448 256 448C265 448 272 441 272 432S265 416 256 416ZM256 288C247 288 240 295 240 304S247 320 256 320C265 320 272 313 272 304S265 288 256 288ZM256 352C247 352 240 359 240 368S247 384 256 384C265 384 272 377 272 368S265 352 256 352ZM224 128C215 128 208 135 208 144S215 160 224 160S240 153 240 144S233 128 224 128ZM377 54C335 18 279 0 224 0C168 0 113 18 71 54C7 110 -31 225 33 416C65 512 224 512 224 512S383 512 415 416C479 225 441 110 377 54ZM370 401C353 452 256 464 224 464C198 464 96 453 78 401C31 259 40 146 103 91C134 63 178 48 224 48S314 63 345 91C408 146 417 259 370 401ZM200 208C200 190 186 176 168 176H104C86 176 72 190 72 208C72 243 101 272 136 272S200 243 200 208ZM280 176C262 176 248 190 248 208C248 243 277 272 312 272S376 243 376 208C376 190 362 176 344 176H280Z"/></svg>