<svg xmlns="http://www.w3.org/2000/svg" viewBox="0 0 576 512"><!-- Font Awesome Pro 6.0.0-alpha1 by @fontawesome - https://fontawesome.com License - https://fontawesome.com/license (Commercial License) --><path d="M280 240C262 221 231 218 211 235C187 254 186 288 207 309L280 381C284 385 292 385 296 381L369 309C390 288 389 254 365 235C345 218 314 221 295 240L288 247L280 240ZM568 230L304 6C295 -2 281 -2 272 6L8 230C-2 238 -3 253 6 264C14 274 29 275 40 266L64 246V448C64 483 93 512 128 512H448C483 512 512 483 512 448V246L536 266C541 270 547 272 552 272C559 272 566 269 570 264C579 253 578 238 568 230ZM464 448C464 457 457 464 448 464H128C119 464 112 457 112 448V208C112 207 112 206 111 205L288 55L464 205V448Z"/></svg>