<svg xmlns="http://www.w3.org/2000/svg" viewBox="0 0 576 512"><!-- Font Awesome Pro 6.0.0-alpha1 by @fontawesome - https://fontawesome.com License - https://fontawesome.com/license (Commercial License) --><path d="M568 224L304 0C295 -8 281 -8 272 0L8 224C-2 233 -3 248 6 258C14 268 29 269 40 261L64 240V442C64 478 93 506 128 506H448C483 506 512 478 512 442V240L536 261C541 264 547 266 552 266C559 266 566 263 570 258C579 248 578 233 568 224ZM464 442C464 451 457 458 448 458H128C119 458 112 451 112 442V202C112 201 112 200 111 200L288 50L464 199V442ZM224 218C224 254 253 282 288 282S352 254 352 218C352 183 323 154 288 154S224 183 224 218ZM256 314C212 314 176 350 176 394C176 403 183 410 192 410H384C393 410 400 403 400 394C400 350 364 314 320 314H256Z"/></svg>