<svg xmlns="http://www.w3.org/2000/svg" viewBox="0 0 576 512"><!-- Font Awesome Pro 6.0.0-alpha1 by @fontawesome - https://fontawesome.com License - https://fontawesome.com/license (Commercial License) --><path d="M570 461C512 384 512 320 512 320V256C512 172 466 133 411 73L451 34C463 21 454 0 437 0H288C192 0 64 110 64 256V320C64 320 64 384 6 461C-9 482 6 512 32 512H544C570 512 585 482 570 461ZM368 464H208V328C208 284 244 248 288 248C332 248 368 284 368 328V464ZM416 464V328C416 257 359 200 288 200C218 200 160 257 160 328V464H63C111 388 112 327 112 320V256C112 137 219 48 288 48H368L344 72C381 112 379 109 394 125C441 176 464 203 464 256V320C464 327 466 388 514 464H416Z"/></svg>