<svg xmlns="http://www.w3.org/2000/svg" viewBox="0 0 576 512"><!-- Font Awesome Pro 6.0.0-alpha1 by @fontawesome - https://fontawesome.com License - https://fontawesome.com/license (Commercial License) --><path d="M464 80C455 80 448 87 448 96S455 112 464 112S480 105 480 96S473 80 464 80ZM576 102C576 91 572 80 565 72L543 45C559 40 572 27 576 10C577 5 573 0 568 0L432 0C364 0 306 48 292 112H176C138 112 104 131 84 160C37 162 0 201 0 248V296C0 309 11 320 24 320H24C37 320 48 309 48 296V248C48 235 55 224 65 216C65 219 64 221 64 224C64 254 76 282 96 303L83 346C79 360 79 374 82 387L106 487C110 502 123 512 137 512H212C233 512 248 492 243 472L218 371L227 345L288 358V480C288 498 302 512 320 512H400C418 512 432 498 432 480V324C452 302 463 273 464 243C464 242 464 234 464 234C485 241 502 235 505 234L536 224C560 215 576 193 576 168V102ZM521 178L490 189C488 189 480 192 473 185L448 160H416V240C416 266 403 289 384 304V464H336V320L196 289L167 369L191 464H150L129 376C128 371 128 365 129 360L152 283C129 274 112 251 112 224C112 189 141 160 176 160H336V144C336 91 379 48 432 48H483L528 102V168C528 172 525 177 521 178Z"/></svg>