<svg xmlns="http://www.w3.org/2000/svg" viewBox="0 0 576 512"><!-- Font Awesome Pro 6.0.0-alpha1 by @fontawesome - https://fontawesome.com License - https://fontawesome.com/license (Commercial License) --><path d="M464 80C455 80 448 87 448 96S455 112 464 112S480 105 480 96S473 80 464 80ZM576 102C576 93 571 79 565 72L543 45C559 40 572 26 576 10C576 7 576 5 574 3C573 1 570 0 568 0H432C364 0 306 48 292 112H176C139 112 105 130 84 160C37 162 0 201 0 248V296C0 309 11 320 24 320H24C37 320 48 309 48 296V248C48 235 55 224 65 216C65 218 58 264 96 303L83 346C80 360 79 374 82 387L106 487C110 502 123 512 137 512H212C222 512 231 507 237 500C243 492 246 482 243 472L218 371L227 345L288 358V480C288 498 302 512 320 512H400C418 512 432 498 432 480V324C452 302 463 273 464 243C464 242 464 234 464 234C477 239 492 239 505 234L536 224C560 215 576 193 576 168V102ZM224 295L196 289L168 369L192 464H150L129 376C128 371 128 365 129 360L152 283C126 273 110 247 112 220C114 192 133 169 160 162V176C160 216 187 250 224 260V295ZM208 176V160H288V176C288 198 270 216 248 216C226 216 208 198 208 176ZM521 178L490 189C484 191 477 189 473 185L448 160H416V240C416 265 404 289 384 304V464H336V320L272 306V260C309 250 336 216 336 176V144C336 91 379 48 432 48H483L528 102V168C528 172 525 177 521 178Z"/></svg>