<svg xmlns="http://www.w3.org/2000/svg" viewBox="0 0 512 512"><!-- Font Awesome Pro 6.0.0-alpha1 by @fontawesome - https://fontawesome.com License - https://fontawesome.com/license (Commercial License) --><path d="M507 269C506 267 435 128 403 103C409 84 410 63 404 41C396 10 362 -8 332 3L167 65C19 118 0 257 0 372V448C0 483 29 512 64 512H296C316 512 334 501 344 484C354 467 354 446 345 428L344 427L344 426L304 364C307 363 305 364 308 363L314 370C328 389 350 400 374 400H401C420 400 438 393 451 380C494 345 488 350 490 348C511 327 518 296 507 269ZM456 314L420 344C415 349 408 352 401 352H374C365 352 357 348 352 341L319 296C300 314 281 328 251 328C216 328 185 307 171 275C168 270 162 266 156 266C152 266 148 268 145 271L133 283C128 288 126 295 130 301C153 347 199 376 251 376C252 376 253 376 255 376L303 452C306 457 302 464 296 464H64C55 464 48 457 48 448V372C48 242 77 148 184 110L348 48C353 46 357 51 358 53C368 91 345 112 330 120C365 127 390 156 405 185L462 286C466 296 464 307 456 314ZM296 176C283 176 272 187 272 200C272 213 283 224 296 224C309 224 320 213 320 200C320 187 309 176 296 176Z"/></svg>