<svg xmlns="http://www.w3.org/2000/svg" viewBox="0 0 576 512"><!-- Font Awesome Pro 6.0.0-alpha1 by @fontawesome - https://fontawesome.com License - https://fontawesome.com/license (Commercial License) --><path d="M308 384H268C261 384 256 389 256 396V436C256 443 261 448 268 448H308C315 448 320 443 320 436V396C320 389 315 384 308 384ZM308 256H268C261 256 256 261 256 268V308C256 315 261 320 268 320H308C315 320 320 315 320 308V268C320 261 315 256 308 256ZM180 256H140C133 256 128 261 128 268V308C128 315 133 320 140 320H180C187 320 192 315 192 308V268C192 261 187 256 180 256ZM436 256H396C389 256 384 261 384 268V308C384 315 389 320 396 320H436C443 320 448 315 448 308V268C448 261 443 256 436 256ZM341 123H309V91C309 85 305 80 299 80H277C271 80 267 85 267 91V123H235C229 123 224 127 224 133V155C224 161 229 165 235 165H267V197C267 203 271 208 277 208H299C305 208 309 203 309 197V165H341C347 165 352 161 352 155V133C352 127 347 123 341 123ZM180 384H140C133 384 128 389 128 396V436C128 443 133 448 140 448H180C187 448 192 443 192 436V396C192 389 187 384 180 384ZM436 384H396C389 384 384 389 384 396V436C384 443 389 448 396 448H436C443 448 448 443 448 436V396C448 389 443 384 436 384ZM512 96H480L480 64C481 29 452 0 416 0H160C124 0 95 29 96 64L96 96H64C29 96 0 125 0 160V488C0 501 11 512 24 512S48 501 48 488V160C48 151 55 144 64 144H144L144 64C144 55 151 48 160 48H416C425 48 432 55 432 64L432 144H512C521 144 528 151 528 160V488C528 501 539 512 552 512S576 501 576 488V160C576 125 547 96 512 96Z"/></svg>