<svg xmlns="http://www.w3.org/2000/svg" viewBox="0 0 640 512"><!-- Font Awesome Pro 6.0.0-alpha1 by @fontawesome - https://fontawesome.com License - https://fontawesome.com/license (Commercial License) --><path d="M148 240H108C101 240 96 245 96 252V292C96 299 101 304 108 304H148C154 304 160 299 160 292V252C160 245 154 240 148 240ZM148 352H108C101 352 96 357 96 364V404C96 411 101 416 108 416H148C154 416 160 411 160 404V364C160 357 154 352 148 352ZM336 64L336 120C336 133 346 144 360 144S384 133 384 120L384 64C384 29 355 0 320 0H63C28 0 -1 29 -1 64L-1 488C0 501 10 512 23 512C37 512 47 501 47 488L47 64C47 55 54 48 63 48H320C329 48 336 55 336 64ZM256 155V133C256 127 251 123 245 123H213V91C213 85 208 80 202 80H181C175 80 170 85 170 91V123H138C132 123 128 127 128 133V155C128 161 132 165 138 165H170V197C170 203 175 208 181 208H202C208 208 213 203 213 197V165H245C251 165 256 161 256 155ZM276 352H236C229 352 224 357 224 364V404C224 411 229 416 236 416H276C282 416 288 411 288 404V364C288 357 282 352 276 352ZM276 240H236C229 240 224 245 224 252V292C224 299 229 304 236 304H276C282 304 288 299 288 292V252C288 245 282 240 276 240ZM480 320C533 320 576 277 576 224S533 128 480 128S384 171 384 224S426 320 480 320ZM480 176C506 176 528 198 528 224S506 272 480 272S432 250 432 224S453 176 480 176ZM512 352H448C377 352 320 409 320 480C320 498 334 512 352 512H608C625 512 640 498 640 480C640 409 582 352 512 352ZM369 464C377 428 409 400 448 400H512C550 400 582 428 590 464H369Z"/></svg>