<svg xmlns="http://www.w3.org/2000/svg" viewBox="0 0 512 512"><!-- Font Awesome Pro 6.0.0-alpha1 by @fontawesome - https://fontawesome.com License - https://fontawesome.com/license (Commercial License) --><path d="M321 178C322 186 328 192 336 192H352C361 192 369 183 368 174C364 134 346 99 319 77C301 62 290 40 287 14C286 6 279 0 272 0H256C246 0 239 9 240 18C244 58 262 93 289 115C306 130 318 152 321 178ZM417 178C418 186 424 192 432 192H448C457 192 465 183 464 174C460 134 442 99 415 77C397 62 386 40 383 14C382 6 375 0 368 0H352C342 0 335 9 336 18C340 58 358 93 385 115C402 130 414 152 417 178ZM480 256H261L150 173C139 165 126 160 112 160H64C29 160 0 189 0 224V448C0 483 29 512 64 512H448C483 512 512 483 512 448V288C512 270 498 256 480 256ZM48 224C48 215 55 208 64 208H112C115 208 119 209 122 211L181 256H48V224ZM112 464H64C55 464 48 457 48 448V304H112V464ZM232 464H160V304H232V464ZM352 464H280V304H352V464ZM464 448C464 457 457 464 448 464H400V304H464V448ZM64 128C99 128 128 99 128 64C128 29 99 0 64 0S0 29 0 64C0 99 29 128 64 128Z"/></svg>