<svg xmlns="http://www.w3.org/2000/svg" viewBox="0 0 512 512"><!-- Font Awesome Pro 6.0.0-alpha1 by @fontawesome - https://fontawesome.com License - https://fontawesome.com/license (Commercial License) --><path d="M484 187C502 166 512 141 512 113C512 51 461 0 399 0C372 0 346 10 325 28L322 25C306 9 285 0 263 0C243 0 224 8 210 22L22 210C-8 240 -7 291 25 323L28 325C10 346 0 371 0 399C0 461 51 512 113 512C140 512 166 502 187 484L190 487C206 503 227 512 249 512C269 512 288 504 302 490L490 302C520 272 519 221 487 189L484 187ZM56 244L244 56C254 45 273 44 291 61L61 291C44 273 46 254 56 244ZM456 268L268 456C258 467 239 468 221 451L451 221C468 239 466 258 456 268ZM445 159L159 445C134 470 92 470 67 445S42 378 67 353L353 67C378 42 420 42 445 67S470 134 445 159ZM400 112C390 122 381 123 369 125C364 126 306 128 298 197C293 238 262 239 254 240C248 241 190 244 182 312C181 320 181 350 139 355C125 357 108 359 89 377C84 384 84 393 90 400C96 406 106 406 112 400C123 389 131 388 143 387C148 386 206 384 214 316C215 307 216 277 258 272C264 271 321 269 329 201C334 159 365 158 373 157C387 155 404 153 423 135C429 128 429 118 422 112C416 106 406 106 400 112Z"/></svg>