<svg xmlns="http://www.w3.org/2000/svg" viewBox="0 0 576 512"><!-- Font Awesome Pro 6.0.0-alpha1 by @fontawesome - https://fontawesome.com License - https://fontawesome.com/license (Commercial License) --><path d="M208 210V290C208 312 226 330 248 330H328C350 330 368 312 368 290V210C368 188 350 170 328 170H248C226 170 208 188 208 210ZM256 218H320V282H256V218ZM568 224L512 177V50C512 37 501 26 488 26S464 37 464 50V136L304 0C295 -8 281 -8 272 0L8 224C-2 233 -3 248 6 258C14 268 29 269 40 261L64 240V442C64 478 93 506 128 506H448C483 506 512 478 512 442V240L536 261C541 264 547 266 552 266C559 266 566 263 570 258C579 248 578 233 568 224ZM464 442C464 451 457 458 448 458H128C119 458 112 451 112 442V202C112 201 112 201 111 200L288 50L464 199V442Z"/></svg>