<svg xmlns="http://www.w3.org/2000/svg" viewBox="0 0 576 512"><!-- Font Awesome Pro 6.0.0-alpha1 by @fontawesome - https://fontawesome.com License - https://fontawesome.com/license (Commercial License) --><path d="M556 459C535 455 514 443 497 425C488 416 472 416 463 425C443 446 414 458 384 458S325 446 305 425C296 416 280 416 271 425C251 446 222 458 192 458C160 458 124 445 105 425C96 416 80 416 71 425C52 445 39 455 20 459C7 461 -2 473 0 486C3 500 15 508 28 506C54 501 73 489 89 475C117 494 155 506 192 506C227 506 261 495 288 474C342 515 425 515 480 474C500 491 524 502 548 506C549 506 551 506 552 506C563 506 574 498 576 486C578 473 569 461 556 459ZM40 261L64 240V346C64 360 75 370 88 370S112 360 112 346V202C112 201 112 201 111 200L288 50L464 199V346C464 360 475 370 488 370C501 370 512 360 512 346V240L536 261C541 264 547 266 552 266C559 266 566 263 570 258C579 248 578 233 568 224L512 177V50C512 37 501 26 488 26C475 26 464 37 464 50V136L304 0C295 -8 281 -8 272 0L8 224C-2 233 -3 248 6 258C14 268 29 269 40 261ZM248 170C226 170 208 188 208 210V290C208 312 226 330 248 330H328C350 330 368 312 368 290V210C368 188 350 170 328 170H248ZM320 282H256V218H320V282Z"/></svg>