<svg xmlns="http://www.w3.org/2000/svg" viewBox="0 0 640 512"><!-- Font Awesome Pro 6.0.0-alpha1 by @fontawesome - https://fontawesome.com License - https://fontawesome.com/license (Commercial License) --><path d="M616 464H592V312C592 290 574 272 552 272H344C322 272 304 290 304 312V464H280C267 464 256 475 256 488S267 512 280 512H616C629 512 640 501 640 488S629 464 616 464ZM544 464H352V320H544V464ZM208 192C199 192 192 199 192 208V272C192 281 199 288 208 288H272C281 288 288 281 288 272V208C288 199 281 192 272 192H208ZM272 368H112V170L240 56L368 170V240H416V213L440 234C445 238 450 240 456 240C463 240 469 237 474 232C483 222 482 207 472 198L416 148V56C416 43 405 32 392 32S368 43 368 56V106L256 6C247 -2 233 -2 224 6L8 198C-2 207 -3 222 6 232C15 242 30 243 40 234L64 213V368C64 395 86 416 112 416H272V368Z"/></svg>