<svg xmlns="http://www.w3.org/2000/svg" viewBox="0 0 640 512"><!-- Font Awesome Pro 6.0.0-alpha1 by @fontawesome - https://fontawesome.com License - https://fontawesome.com/license (Commercial License) --><path d="M112 224C146 224 178 209 199 182C200 181 201 178 199 177C198 175 196 174 194 174C152 182 110 159 95 118C80 78 97 33 134 12C136 10 137 8 137 6C136 4 135 2 133 2C126 1 119 0 112 0C50 0 0 50 0 112S50 224 112 224ZM117 363L101 323C100 321 98 320 96 320C94 320 92 321 91 323L75 363L35 379C33 380 32 382 32 384S33 388 35 389L75 405L91 445C92 447 94 448 96 448C98 448 100 447 101 445L117 405L157 389C159 388 160 386 160 384S159 380 157 379L117 363ZM195 69L235 85L251 125C252 127 254 128 256 128C258 128 260 127 261 125L277 85L317 69C319 68 320 66 320 64S319 60 317 59L277 43L261 3C260 1 258 0 256 0C254 0 252 1 251 3L235 43L195 59C193 60 192 62 192 64S193 68 195 69ZM632 294L576 244V152C576 139 565 128 552 128S528 139 528 152V202L416 102C407 94 393 94 384 102L168 294C158 303 157 318 166 328C175 338 190 339 200 330L224 309V464C224 490 246 512 272 512H528C554 512 576 490 576 464V309L600 330C605 334 610 336 616 336C623 336 629 333 634 328C643 318 642 303 632 294ZM528 464H272V266L400 152L528 266V464ZM352 304V368C352 377 359 384 368 384H432C441 384 448 377 448 368V304C448 295 441 288 432 288H368C359 288 352 295 352 304Z"/></svg>