<svg xmlns="http://www.w3.org/2000/svg" viewBox="0 0 640 512"><!-- Font Awesome Pro 6.0.0-alpha1 by @fontawesome - https://fontawesome.com License - https://fontawesome.com/license (Commercial License) --><path d="M363 390L365 387L372 368H112V170L240 56L344 148C354 138 367 130 381 124L387 122L256 6C247 -2 233 -2 224 6L8 198C-2 207 -3 222 6 232C15 242 30 243 40 234L64 213V376C64 398 82 416 104 416H337L363 390ZM176 192C167 192 160 199 160 208V272C160 281 167 288 176 288H240C249 288 256 281 256 272V208C256 199 249 192 240 192H176ZM528 96C554 96 576 74 576 48S554 0 528 0S480 22 480 48S502 96 528 96ZM633 271L603 242C603 241 602 240 601 239L589 200C574 157 534 128 489 128C454 128 436 137 393 154C372 162 355 178 345 199L331 230C317 258 360 279 374 250L388 220C393 210 401 203 411 199C432 190 444 185 455 182L435 261C431 280 436 300 450 315L529 388C535 394 539 401 541 409L560 494C565 510 580 513 589 512C602 509 610 496 607 483L588 398C584 381 575 365 562 353L508 304L534 199C541 209 541 212 556 254C559 263 563 270 570 277L599 306C621 326 655 294 633 271ZM422 331L394 399C392 404 389 409 385 412L327 471C318 480 318 496 327 505C336 514 352 514 361 505L419 446C428 438 434 428 439 417L458 367C449 358 424 333 422 331Z"/></svg>