<svg xmlns="http://www.w3.org/2000/svg" viewBox="0 0 640 512"><!-- Font Awesome Pro 6.0.0-alpha1 by @fontawesome - https://fontawesome.com License - https://fontawesome.com/license (Commercial License) --><path d="M112 170L240 56L356 159C365 146 376 134 389 124L256 6C247 -2 233 -2 224 6L8 198C-2 207 -3 222 6 232C15 242 30 243 40 234L64 213V376C64 398 82 416 104 416H336L341 391C343 383 346 375 350 368H112V170ZM176 192C167 192 160 199 160 208V272C160 281 167 288 176 288H240C249 288 256 281 256 272V208C256 199 249 192 240 192H176ZM432 96C458 96 480 74 480 48S458 0 432 0S384 22 384 48S406 96 432 96ZM525 261L505 182C516 185 528 190 549 199C559 203 567 210 572 220L586 250C600 279 643 258 629 230L615 199C605 178 588 162 567 154C524 137 506 128 471 128C426 128 386 157 371 200L359 239C358 240 358 241 357 242L327 271C305 294 339 326 361 306L390 277C397 270 401 263 404 254C419 212 419 209 426 199L452 304L398 353C385 365 376 381 372 398L353 483C350 496 358 509 371 512C380 513 395 510 400 494L419 409C421 401 425 394 431 388L510 315C524 300 529 280 525 261ZM633 471L575 412C571 408 568 404 566 399L538 331C536 333 511 358 502 367L521 417C526 428 532 438 541 446L599 505C608 514 624 514 633 505C642 496 642 480 633 471Z"/></svg>