<svg xmlns="http://www.w3.org/2000/svg" viewBox="0 0 640 512"><!-- Font Awesome Pro 6.0.0-alpha1 by @fontawesome - https://fontawesome.com License - https://fontawesome.com/license (Commercial License) --><path d="M24 224C11 224 0 235 0 248S11 272 24 272C143 272 240 369 240 488C240 501 251 512 264 512S288 501 288 488C288 342 170 224 24 224ZM24 320C11 320 0 331 0 344S11 368 24 368C90 368 144 422 144 488C144 501 155 512 168 512S192 501 192 488C192 395 117 320 24 320ZM24 416C11 416 0 427 0 440S11 464 24 464C37 464 48 475 48 488C48 501 59 512 72 512S96 501 96 488C96 448 64 416 24 416ZM432 288C441 288 448 281 448 272V208C448 199 441 192 432 192H368C359 192 352 199 352 208V272C352 281 359 288 368 288H432ZM632 198L576 148V56C576 43 565 32 552 32S528 43 528 56V106L416 6C407 -2 393 -2 384 6L168 198C158 207 157 222 166 232C175 242 190 243 200 234L224 213V248C224 261 235 272 248 272C261 272 272 261 272 248V170L400 56L528 170V368H344C331 368 320 379 320 392V392C320 405 331 416 344 416H528C554 416 576 394 576 368V213L600 234C605 238 610 240 616 240C623 240 629 237 634 232C643 222 642 207 632 198Z"/></svg>