<svg xmlns="http://www.w3.org/2000/svg" viewBox="0 0 448 512"><!-- Font Awesome Pro 6.0.0-alpha1 by @fontawesome - https://fontawesome.com License - https://fontawesome.com/license (Commercial License) --><path d="M208 96C195 96 184 107 184 120S195 144 208 144C296 144 368 216 368 304S296 464 208 464C195 464 184 475 184 488S195 512 208 512C323 512 416 419 416 304S323 96 208 96ZM248 392C248 379 237 368 224 368C136 368 64 296 64 208S136 48 224 48C237 48 248 37 248 24S237 0 224 0C109 0 16 93 16 208S109 416 224 416C237 416 248 405 248 392ZM240 256C240 238 226 224 208 224S176 238 176 256C176 274 190 288 208 288S240 274 240 256Z"/></svg>