<svg xmlns="http://www.w3.org/2000/svg" viewBox="0 0 448 512"><!-- Font Awesome Pro 6.0.0-alpha1 by @fontawesome - https://fontawesome.com License - https://fontawesome.com/license (Commercial License) --><path d="M381 129C367 56 302 0 224 0S81 56 67 129C26 136 -3 173 0 215C4 256 38 288 80 288H81L174 480C183 500 203 512 224 512S265 500 274 480L367 288H368C410 288 444 256 448 215S422 136 381 129ZM231 459C227 467 221 467 217 459L134 288H314L231 459ZM368 240H80C62 240 48 226 48 208C48 192 59 179 75 177L108 171L114 139C124 86 170 48 224 48S324 86 334 138L340 171L373 177C389 179 400 192 400 208C400 226 386 240 368 240Z"/></svg>