<svg xmlns="http://www.w3.org/2000/svg" viewBox="0 0 576 512"><!-- Font Awesome Pro 6.0.0-alpha1 by @fontawesome - https://fontawesome.com License - https://fontawesome.com/license (Commercial License) --><path d="M552 416L552 416C539 416 528 427 528 440V440C528 453 517 464 504 464H432V416H448C483 416 512 387 512 352V299C512 255 482 217 439 206L352 184V24C352 11 341 0 328 0H328C315 0 304 11 304 24V32H204C196 32 188 34 181 37L52 88C40 93 32 105 32 118V352C32 387 61 416 96 416V464H24C11 464 0 475 0 488V488C0 501 11 512 24 512H512C547 512 576 483 576 448V440C576 427 565 416 552 416ZM80 352V129L198 81C200 80 202 80 204 80H304V128H240C231 128 224 135 224 144V144C224 153 231 160 240 160H304V192H240C231 192 224 199 224 208V208C224 217 231 224 240 224H314L428 252C449 258 464 277 464 299V352C464 361 457 368 448 368H96C87 368 80 361 80 352ZM144 416H384V464H144V416Z"/></svg>