<svg xmlns="http://www.w3.org/2000/svg" viewBox="0 0 512 512"><!-- Font Awesome Pro 6.0.0-alpha1 by @fontawesome - https://fontawesome.com License - https://fontawesome.com/license (Commercial License) --><path d="M480 0H32C11 0 -5 21 1 41L81 277C83 284 90 288 96 288S109 284 111 277L140 190L176 372C178 380 185 384 192 384S206 380 207 372L246 181L273 277C275 284 281 288 288 288C294 288 301 284 303 277L341 142L400 499C402 508 409 512 416 512C423 512 430 508 432 499L511 38C515 18 500 0 480 0ZM96 171L54 48H137L96 171ZM199 171L192 206L187 181L160 48H224L199 171ZM295 129L288 153L259 48H318L295 129ZM417 304L389 134L375 48H461L417 304Z"/></svg>