<svg xmlns="http://www.w3.org/2000/svg" viewBox="0 0 576 512"><!-- Font Awesome Pro 6.0.0-alpha1 by @fontawesome - https://fontawesome.com License - https://fontawesome.com/license (Commercial License) --><path d="M256 128H320C338 128 352 114 352 96V32C352 14 338 0 320 0H256C238 0 224 14 224 32V96C224 114 238 128 256 128ZM288 304C323 304 352 275 352 240C352 205 323 176 288 176S224 205 224 240C224 275 253 304 288 304ZM512 64H384V112H512C521 112 528 119 528 128V448C528 457 521 464 512 464H64C55 464 48 457 48 448V128C48 119 55 112 64 112H192V64H64C29 64 0 93 0 128V448C0 483 29 512 64 512H512C547 512 576 483 576 448V128C576 93 547 64 512 64ZM192 432H384C393 432 400 425 400 416C400 372 364 336 320 336H256C212 336 176 372 176 416C176 425 183 432 192 432Z"/></svg>