<svg xmlns="http://www.w3.org/2000/svg" viewBox="0 0 576 512"><!-- Font Awesome Pro 6.0.0-alpha1 by @fontawesome - https://fontawesome.com License - https://fontawesome.com/license (Commercial License) --><path d="M368 344H464C477 344 488 333 488 320S477 296 464 296H368C355 296 344 307 344 320S355 344 368 344ZM208 320C243 320 272 291 272 256C272 221 243 192 208 192S144 221 144 256C144 291 173 320 208 320ZM512 32H64C29 32 0 61 0 96V416C0 451 29 480 64 480H512C547 480 576 451 576 416V96C576 61 547 32 512 32ZM528 416C528 425 521 432 512 432H320C320 388 284 352 240 352H176C132 352 96 388 96 432H64C55 432 48 425 48 416V160H528V416ZM368 264H464C477 264 488 253 488 240S477 216 464 216H368C355 216 344 227 344 240S355 264 368 264Z"/></svg>