<svg xmlns="http://www.w3.org/2000/svg" viewBox="0 0 448 512"><!-- Font Awesome Pro 6.0.0-alpha1 by @fontawesome - https://fontawesome.com License - https://fontawesome.com/license (Commercial License) --><path d="M384 32H64C29 32 0 61 0 96V424C0 459 29 488 64 488H384C419 488 448 459 448 424C448 413 448 96 448 96C448 61 419 32 384 32ZM400 424C400 433 393 440 384 440H64C55 440 48 433 48 424V376H400V424ZM400 328H332C322 296 292 272 256 272H192C156 272 126 296 116 328H48V96C48 87 55 80 64 80H384C393 80 400 87 400 96V328ZM224 112C189 112 160 141 160 176S189 240 224 240S288 211 288 176S259 112 224 112Z"/></svg>