<svg xmlns="http://www.w3.org/2000/svg" viewBox="0 0 448 512"><!-- Font Awesome Pro 6.0.0-alpha1 by @fontawesome - https://fontawesome.com License - https://fontawesome.com/license (Commercial License) --><path d="M112 112C94 112 80 126 80 144S94 176 112 176C130 176 144 162 144 144S130 112 112 112ZM448 96C448 61 419 32 384 32H64C29 32 0 61 0 96V416C0 451 29 480 64 480H384C419 480 448 451 448 416C448 349 448 165 448 96ZM400 416C400 425 393 432 384 432H64C55 432 48 425 48 416V368H400V416ZM400 320H371L275 175C272 171 267 168 261 168C256 168 251 171 248 175L185 269L163 239C160 234 155 232 150 232C145 232 140 234 137 239L78 320H48V96C48 87 55 80 64 80H384C393 80 400 87 400 96V320Z"/></svg>