<svg xmlns="http://www.w3.org/2000/svg" viewBox="0 0 576 512"><!-- Font Awesome Pro 6.0.0-alpha1 by @fontawesome - https://fontawesome.com License - https://fontawesome.com/license (Commercial License) --><path d="M512 64H64C29 64 0 93 0 128V384C0 419 29 448 64 448H512C547 448 576 419 576 384V128C576 93 547 64 512 64ZM528 384C528 393 521 400 512 400H485L353 202C349 196 342 192 335 192C328 192 321 196 317 202L234 327L204 286C200 281 193 277 187 277S173 281 169 286L86 400H64C55 400 48 393 48 384V128C48 119 55 112 64 112H512C521 112 528 119 528 128V384ZM176 160C158 160 144 174 144 192S158 224 176 224C194 224 208 210 208 192S194 160 176 160Z"/></svg>