<svg xmlns="http://www.w3.org/2000/svg" viewBox="0 0 512 512"><!-- Font Awesome Pro 6.0.0-alpha1 by @fontawesome - https://fontawesome.com License - https://fontawesome.com/license (Commercial License) --><path d="M508 305L447 56C443 42 431 32 416 32H96C81 32 69 42 65 56L4 305C1 315 0 325 0 336V416C0 451 29 480 64 480H448C483 480 512 451 512 416V336C512 325 511 315 508 305ZM109 80H403L455 288H368C359 288 351 293 347 301L321 352H191L165 301C161 293 153 288 144 288H57L109 80ZM464 416C464 425 457 432 448 432H64C55 432 48 425 48 416V336H129L155 387C159 395 167 400 176 400H336C345 400 353 395 357 387L383 336H464V416ZM184 176H328C341 176 352 165 352 152S341 128 328 128H184C171 128 160 139 160 152S171 176 184 176ZM360 256C373 256 384 245 384 232S373 208 360 208H152C139 208 128 219 128 232S139 256 152 256H360Z"/></svg>