<svg xmlns="http://www.w3.org/2000/svg" viewBox="0 0 448 512"><!-- Font Awesome Pro 6.0.0-alpha1 by @fontawesome - https://fontawesome.com License - https://fontawesome.com/license (Commercial License) --><path d="M9 350C11 351 14 352 16 352C20 352 23 351 26 348L122 268C126 265 128 261 128 256S126 247 122 244L26 164C21 160 15 159 9 162C4 164 0 170 0 176V336C0 342 4 348 9 350ZM424 424H24C11 424 0 435 0 448C0 461 11 472 24 472H424C437 472 448 461 448 448C448 435 437 424 424 424ZM24 88H424C437 88 448 77 448 64C448 51 437 40 424 40H24C11 40 0 51 0 64C0 77 11 88 24 88ZM424 168H216C203 168 192 179 192 192C192 205 203 216 216 216H424C437 216 448 205 448 192C448 179 437 168 424 168ZM424 296H216C203 296 192 307 192 320C192 333 203 344 216 344H424C437 344 448 333 448 320C448 307 437 296 424 296Z"/></svg>