<svg xmlns="http://www.w3.org/2000/svg" viewBox="0 0 320 512"><!-- Font Awesome Pro 6.0.0-alpha1 by @fontawesome - https://fontawesome.com License - https://fontawesome.com/license (Commercial License) --><path d="M320 176C320 189 309 200 296 200H246C234 268 175 320 104 320H99L262 436C273 444 275 459 268 470C263 477 255 480 248 480C243 480 238 479 234 476L10 316C2 309 -2 299 1 289C4 279 14 272 24 272H104C149 272 186 241 197 200H24C11 200 0 189 0 176S11 152 24 152H197C186 111 149 80 104 80H24C11 80 0 69 0 56S11 32 24 32H296C309 32 320 43 320 56S309 80 296 80H211C228 100 241 125 246 152H296C309 152 320 163 320 176Z"/></svg>