<svg xmlns="http://www.w3.org/2000/svg" viewBox="0 0 640 512"><!-- Font Awesome Pro 6.0.0-alpha1 by @fontawesome - https://fontawesome.com License - https://fontawesome.com/license (Commercial License) --><path d="M484 96C407 96 349 164 320 209C291 164 233 96 156 96C70 96 0 168 0 256S70 416 156 416C233 416 291 348 320 303C349 348 407 416 484 416C570 416 640 344 640 256S570 96 484 96ZM156 368C96 368 48 318 48 256S96 144 156 144C223 144 276 226 293 256C276 286 223 368 156 368ZM484 368C417 368 364 286 347 256C364 226 417 144 484 144C544 144 592 194 592 256S544 368 484 368Z"/></svg>