<svg xmlns="http://www.w3.org/2000/svg" viewBox="0 0 576 512"><!-- Font Awesome Pro 6.0.0-alpha1 by @fontawesome - https://fontawesome.com License - https://fontawesome.com/license (Commercial License) --><path d="M128 368C110 368 96 382 96 400C96 418 110 432 128 432S160 418 160 400C160 382 146 368 128 368ZM32 224C14 224 0 238 0 256C0 274 14 288 32 288S64 274 64 256C64 238 50 224 32 224ZM32 320C14 320 0 334 0 352C0 370 14 384 32 384S64 370 64 352C64 334 50 320 32 320ZM32 416C14 416 0 430 0 448C0 466 14 480 32 480S64 466 64 448C64 430 50 416 32 416ZM128 272C110 272 96 286 96 304S110 336 128 336S160 322 160 304S146 272 128 272ZM328 224H224C206 224 192 238 192 256V448C192 466 206 480 224 480H470C483 480 494 471 498 459L540 296L377 132C368 124 353 128 350 140L328 224ZM374 236L382 206L487 310L455 432H240V272H365L374 236ZM555 65L435 33C420 29 404 38 400 53L388 99L536 246L575 100C579 85 570 69 555 65Z"/></svg>