<svg xmlns="http://www.w3.org/2000/svg" viewBox="0 0 640 512"><!-- Font Awesome Pro 6.0.0-alpha1 by @fontawesome - https://fontawesome.com License - https://fontawesome.com/license (Commercial License) --><path d="M128 160C115 160 104 171 104 184V328C104 341 115 352 128 352S152 341 152 328V184C152 171 141 160 128 160ZM576 64H64C29 64 0 93 0 128V384C0 419 29 448 64 448H576C611 448 640 419 640 384V128C640 93 611 64 576 64ZM592 384C592 393 585 400 576 400H64C55 400 48 393 48 384V128C48 119 55 112 64 112H576C585 112 592 119 592 128V384Z"/></svg>