<svg xmlns="http://www.w3.org/2000/svg" viewBox="0 0 640 512"><!-- Font Awesome Pro 6.0.0-alpha1 by @fontawesome - https://fontawesome.com License - https://fontawesome.com/license (Commercial License) --><path d="M471 178C497 193 512 220 512 250V264C512 277 523 288 536 288H536C549 288 560 277 560 264V250C560 206 539 166 504 142C480 125 464 99 464 70V24C464 11 453 0 440 0H440C427 0 416 11 416 24L416 74C416 116 436 156 471 178ZM553 87C548 83 544 77 544 70V24C544 11 533 0 520 0H520C507 0 496 11 496 24L496 72C496 94 508 115 527 127C568 155 592 200 592 250V264C592 277 603 288 616 288H616C629 288 640 277 640 264V250C640 184 608 123 553 87ZM616 352H279C180 352 84 380 0 432C84 484 180 512 279 512H616C629 512 640 501 640 488V376C640 363 629 352 616 352ZM279 464C220 464 162 453 107 432C156 413 209 403 262 401L316 464H279ZM379 464L324 400H421L476 464H379ZM592 464H539L484 400H592V464Z"/></svg>