<svg xmlns="http://www.w3.org/2000/svg" viewBox="0 0 448 512"><!-- Font Awesome Pro 6.0.0-alpha1 by @fontawesome - https://fontawesome.com License - https://fontawesome.com/license (Commercial License) --><path d="M384 352H248V221C314 207 355 135 327 67C315 38 290 15 259 5C188 -17 120 32 113 100C106 157 144 209 200 221V352H128C128 334 114 320 96 320S64 334 64 352C29 352 0 381 0 416V448C0 483 29 512 64 512H384C419 512 448 483 448 448V416C448 381 419 352 384 352ZM160 112C160 77 189 48 224 48S288 77 288 112C288 147 259 176 224 176S160 147 160 112ZM400 448C400 457 393 464 384 464H64C55 464 48 457 48 448V416C48 407 55 400 64 400H384C393 400 400 407 400 416V448Z"/></svg>