<svg xmlns="http://www.w3.org/2000/svg" viewBox="0 0 512 512"><!-- Font Awesome Pro 6.0.0-alpha1 by @fontawesome - https://fontawesome.com License - https://fontawesome.com/license (Commercial License) --><path d="M329 0C227 0 145 82 145 183C145 194 146 204 148 214L16 347C6 357 0 370 0 384V474C0 495 17 512 38 512H126C147 512 164 495 164 474V454H183C205 454 222 437 222 416V396H250C260 396 270 392 277 385L298 364C412 384 512 295 512 183C512 82 430 0 329 0ZM296 315L283 311L246 348H174V406H116V464H48V384C48 383 49 381 49 380L201 229L197 216C194 205 193 194 193 183C193 109 254 48 328 48S464 109 464 183C464 269 385 337 296 315ZM368 112C350 112 336 126 336 144C336 162 350 176 368 176S400 162 400 144C400 126 386 112 368 112Z"/></svg>