<svg xmlns="http://www.w3.org/2000/svg" viewBox="0 0 640 512"><!-- Font Awesome Pro 6.0.0-alpha1 by @fontawesome - https://fontawesome.com License - https://fontawesome.com/license (Commercial License) --><path d="M436 280H460C467 280 472 275 472 268V244C472 237 467 232 460 232H436C429 232 424 237 424 244V268C424 275 429 280 436 280ZM284 232H260C253 232 248 237 248 244V268C248 275 253 280 260 280H284C291 280 296 275 296 268V244C296 237 291 232 284 232ZM356 200H380C387 200 392 195 392 188V164C392 157 387 152 380 152H356C349 152 344 157 344 164V188C344 195 349 200 356 200ZM436 200H460C467 200 472 195 472 188V164C472 157 467 152 460 152H436C429 152 424 157 424 164V188C424 195 429 200 436 200ZM121 159C112 150 96 150 87 159L7 239C-2 248 -2 264 7 273L87 353C92 358 98 360 104 360S116 358 121 353C130 344 130 328 121 319L58 256L121 193C130 184 130 168 121 159ZM356 280H380C387 280 392 275 392 268V244C392 237 387 232 380 232H356C349 232 344 237 344 244V268C344 275 349 280 356 280ZM540 152H516C509 152 504 157 504 164V188C504 195 509 200 516 200H540C547 200 552 195 552 188V164C552 157 547 152 540 152ZM576 64H224C189 64 160 93 160 128V384C160 419 189 448 224 448H576C611 448 640 419 640 384V128C640 93 611 64 576 64ZM592 384C592 393 585 400 576 400H224C215 400 208 393 208 384V128C208 119 215 112 224 112H576C585 112 592 119 592 128V384ZM284 152H260C253 152 248 157 248 164V188C248 195 253 200 260 200H284C291 200 296 195 296 188V164C296 157 291 152 284 152ZM480 320H320C311 320 304 327 304 336V352C304 361 311 368 320 368H480C489 368 496 361 496 352V336C496 327 489 320 480 320ZM540 232H516C509 232 504 237 504 244V268C504 275 509 280 516 280H540C547 280 552 275 552 268V244C552 237 547 232 540 232Z"/></svg>