<svg xmlns="http://www.w3.org/2000/svg" viewBox="0 0 384 512"><!-- Font Awesome Pro 6.0.0-alpha1 by @fontawesome - https://fontawesome.com License - https://fontawesome.com/license (Commercial License) --><path d="M384 256C384 269 373 280 360 280H161L344 438C354 446 355 462 346 472C341 477 335 480 328 480C322 480 317 478 312 474L112 301V456C112 469 101 480 88 480S64 469 64 456V280H24C11 280 0 269 0 256C0 243 11 232 24 232H64V56C64 43 75 32 88 32S112 43 112 56V211L312 38C322 29 338 30 346 40C355 50 354 66 344 74L161 232H360C373 232 384 243 384 256Z"/></svg>