<svg xmlns="http://www.w3.org/2000/svg" viewBox="0 0 576 512"><!-- Font Awesome Pro 6.0.0-alpha1 by @fontawesome - https://fontawesome.com License - https://fontawesome.com/license (Commercial License) --><path d="M566 43L531 9C518 -3 497 -3 484 9L304 183C297 190 297 200 304 206L394 293C399 299 409 299 415 294L438 275C444 269 448 261 448 252V208L566 89C579 76 579 56 566 43ZM443 155C437 162 427 162 421 155S414 139 421 133S437 126 443 133S450 149 443 155ZM507 91C501 98 491 98 485 91S478 75 485 69S501 62 507 69C514 75 514 85 507 91ZM390 335C381 326 366 326 357 335L302 388C251 437 184 464 111 464C102 464 92 463 82 462L284 267C294 258 294 242 284 233C275 224 260 224 251 233L5 470C-4 478 0 492 11 496C44 507 78 512 111 512C194 512 275 481 336 422L390 370C400 360 400 345 390 335L390 335Z"/></svg>