<svg xmlns="http://www.w3.org/2000/svg" viewBox="0 0 512 512"><!-- Font Awesome Pro 6.0.0-alpha1 by @fontawesome - https://fontawesome.com License - https://fontawesome.com/license (Commercial License) --><path d="M478 15C468 5 456 0 442 0H442C429 0 416 5 407 14L15 390C-5 410 -5 441 15 461L51 497C61 507 73 512 87 512C87 512 88 512 88 512C102 512 115 506 123 496L287 334C422 338 474 267 493 224C526 150 512 49 478 15ZM449 204C423 263 366 291 279 286L268 285L89 462L86 463L85 463L48 424L444 49C459 64 478 141 449 204Z"/></svg>