<svg xmlns="http://www.w3.org/2000/svg" viewBox="0 0 512 512"><!-- Font Awesome Pro 6.0.0-alpha1 by @fontawesome - https://fontawesome.com License - https://fontawesome.com/license (Commercial License) --><path d="M393 279C415 294 445 291 464 272C483 253 485 223 470 201L393 279ZM509 86C504 73 491 64 477 64H392L356 29C323 -5 270 -10 232 18C193 46 181 98 203 140L103 239C97 245 95 254 97 263L155 464H24C11 464 0 475 0 488C0 501 11 512 24 512H360C373 512 384 501 384 488C384 475 373 464 360 464H204L147 263L233 177L256 200V285C256 299 265 312 278 317C291 323 306 320 316 310L502 124C512 114 515 99 509 86ZM304 254V180L254 130C236 111 236 82 255 63C273 44 303 44 322 62L372 112H446L304 254Z"/></svg>