<svg xmlns="http://www.w3.org/2000/svg" viewBox="0 0 640 512"><!-- Font Awesome Pro 6.0.0-alpha1 by @fontawesome - https://fontawesome.com License - https://fontawesome.com/license (Commercial License) --><path d="M112 64C112 55 119 48 128 48H448C457 48 464 55 464 64V96H512V64C512 29 483 0 448 0H128C93 0 64 29 64 64V320H16C7 320 0 327 0 336C0 362 22 384 48 384H352V320H112V64ZM576 128H448C413 128 384 157 384 192V448C384 483 413 512 448 512H576C611 512 640 483 640 448V192C640 157 611 128 576 128ZM592 448C592 457 585 464 576 464H448C439 464 432 457 432 448V192C432 183 439 176 448 176H576C585 176 592 183 592 192V448Z"/></svg>