<svg xmlns="http://www.w3.org/2000/svg" viewBox="0 0 640 512"><!-- Font Awesome Pro 6.0.0-alpha1 by @fontawesome - https://fontawesome.com License - https://fontawesome.com/license (Commercial License) --><path d="M112 88C112 84 116 80 120 80H520C524 80 528 84 528 88V320H576V88C576 57 551 32 520 32H120C89 32 64 57 64 88V320H112V88ZM616 352H24C11 352 0 363 0 376V392C0 441 39 480 88 480H552C601 480 640 441 640 392V376C640 363 629 352 616 352ZM552 432H88C69 432 53 418 49 400H591C587 418 571 432 552 432ZM304 320H336C345 320 352 313 352 304V256H400C409 256 416 249 416 240V208C416 199 409 192 400 192H352V144C352 135 345 128 336 128H304C295 128 288 135 288 144V192H240C231 192 224 199 224 208V240C224 249 231 256 240 256H288V304C288 313 295 320 304 320Z"/></svg>