<svg xmlns="http://www.w3.org/2000/svg" viewBox="0 0 640 512"><!-- Font Awesome Pro 6.0.0-alpha1 by @fontawesome - https://fontawesome.com License - https://fontawesome.com/license (Commercial License) --><path d="M64 146V320H112V184ZM88 432A40 40 0 0 1 49 400H388L326 352H24A24 24 0 0 0 0 376V392A88 88 0 0 0 88 480H490L428 432ZM640 376A24 24 0 0 0 616 352H481L134 80H520A8 8 0 0 1 528 88V320H576V88A56 56 0 0 0 520 32H120A55 55 0 0 0 87 43L39 5A24 24 0 0 0 9 43L601 507A24 24 0 1 0 631 469L613 455A87 87 0 0 0 640 392ZM574 425L543 400H591A40 40 0 0 1 574 425Z"/></svg>