<svg xmlns="http://www.w3.org/2000/svg" viewBox="0 0 384 512"><!-- Font Awesome Pro 6.0.0-alpha1 by @fontawesome - https://fontawesome.com License - https://fontawesome.com/license (Commercial License) --><path d="M384 456C384 469 373 480 360 480H24C11 480 0 469 0 456S11 432 24 432H65C25 397 0 345 0 288C0 208 50 139 120 110V56C120 43 131 32 144 32S168 43 168 56V98C176 97 184 96 192 96C200 96 208 97 216 98V56C216 43 227 32 240 32S264 43 264 56V111C323 134 368 186 381 251C383 264 374 277 362 280C349 282 336 274 333 261C325 218 299 184 264 163V264C264 277 253 288 240 288S216 277 216 264V146C208 145 200 144 192 144C184 144 176 145 168 146V264C168 277 157 288 144 288S120 277 120 264V164C77 189 48 235 48 288C48 367 113 432 192 432H360C373 432 384 443 384 456Z"/></svg>