<svg xmlns="http://www.w3.org/2000/svg" viewBox="0 0 576 512"><!-- Font Awesome Pro 6.0.0-alpha1 by @fontawesome - https://fontawesome.com License - https://fontawesome.com/license (Commercial License) --><path d="M256 80L256 80L256 80C256 82 258 85 260 86L309 107L309 107L330 156C331 158 334 160 336 160C338 160 341 158 342 156L363 107L363 107L363 107L412 86C414 85 416 82 416 80L416 80L416 80C416 78 414 75 412 74L363 53L363 53L342 4C341 2 338 0 336 0C334 0 331 2 330 4L309 53L309 53L260 74C258 75 256 78 256 80ZM572 426L523 405L502 356C501 354 498 352 496 352C494 352 491 354 490 356L469 405L420 426C418 427 416 430 416 432C416 434 418 437 420 438L469 459L490 508C491 510 494 512 496 512C498 512 501 510 502 508L523 459L572 438C574 437 576 434 576 432C576 430 574 427 572 426ZM576 179C576 98 494 32 379 9L387 29L425 44C439 52 448 65 448 80C448 80 448 81 448 82C497 106 528 141 528 179C528 250 418 309 288 309C277 309 266 309 254 308C247 278 215 256 176 256C156 256 137 262 123 272C118 270 113 267 109 265C70 240 48 210 48 179C48 117 130 64 237 51C240 49 242 47 245 45L285 29L297 0C294 0 291 0 288 0C126 0 0 78 0 179C0 227 30 272 83 305C88 308 92 310 97 313C91 354 132 387 182 383C185 392 187 401 186 410C186 440 159 464 130 464H56C43 464 32 475 32 488C32 501 43 512 56 512H126C186 512 237 463 234 404C234 392 232 380 228 368C233 365 238 360 243 355C258 356 273 357 288 357C450 357 576 279 576 179Z"/></svg>