<svg xmlns="http://www.w3.org/2000/svg" viewBox="0 0 576 512"><!-- Font Awesome Pro 6.0.0-alpha1 by @fontawesome - https://fontawesome.com License - https://fontawesome.com/license (Commercial License) --><path d="M288 0C126 0 0 78 0 179C0 227 30 272 83 305C88 308 92 310 97 313C91 354 132 387 182 383C185 392 187 401 186 410C186 440 159 464 130 464L56 464C43 464 32 475 32 488V488C32 501 43 512 56 512L126 512C186 512 237 463 234 404C234 392 232 380 228 368C233 365 238 360 243 355C258 356 273 357 288 357C450 357 576 279 576 179C576 78 450 0 288 0ZM288 309C277 309 266 309 254 308C247 278 215 256 176 256C156 256 137 262 123 272C118 270 113 267 109 265C70 240 48 210 48 179C48 108 158 48 288 48S528 108 528 179C528 250 418 309 288 309Z"/></svg>