<svg xmlns="http://www.w3.org/2000/svg" viewBox="0 0 512 512"><!-- Font Awesome Pro 6.0.0-alpha1 by @fontawesome - https://fontawesome.com License - https://fontawesome.com/license (Commercial License) --><path d="M486 346C474 340 460 346 455 359C451 367 453 376 458 382L255 464L54 382C59 376 61 367 57 359C52 346 38 340 26 346C10 352 0 367 0 384S10 416 26 422L237 509C243 511 250 512 256 512C262 512 269 511 275 508L486 422C502 416 512 401 512 384S502 352 486 346ZM486 218L275 132C263 127 249 127 237 132L26 218C10 224 0 239 0 256C0 273 10 288 26 294L237 381C243 383 250 384 256 384C262 384 269 383 275 380L486 294C502 288 512 273 512 256C512 239 502 224 486 218ZM255 336L59 256L257 176L453 256L255 336ZM376 104H488C501 104 512 93 512 80S501 56 488 56H376C363 56 352 67 352 80S363 104 376 104Z"/></svg>