<svg xmlns="http://www.w3.org/2000/svg" viewBox="0 0 512 512"><!-- Font Awesome Pro 6.0.0-alpha1 by @fontawesome - https://fontawesome.com License - https://fontawesome.com/license (Commercial License) --><path d="M480 145C480 145 479 144 479 144C477 142 475 141 473 140C484 95 466 70 453 58C453 58 453 58 453 58C441 46 416 29 372 39C371 37 369 34 367 32C355 14 336 3 316 0C295 -2 276 5 261 19C252 27 247 36 242 44C239 49 236 53 234 58C218 48 200 45 182 48C161 53 144 66 133 86C119 112 121 138 124 161C115 161 105 162 97 166C79 173 66 188 61 207C57 222 57 239 60 253C63 263 66 272 70 281C72 287 75 293 76 300C79 309 78 312 76 318C68 342 70 367 81 389C82 391 83 392 84 394L7 471C-2 480 -2 496 7 505C12 510 18 512 24 512S36 510 41 505L118 428C120 429 121 430 123 431C145 442 170 444 196 436C200 434 203 433 212 436C219 437 225 440 231 442C240 446 249 450 259 452C266 453 273 454 280 454C288 454 297 453 305 451C324 446 339 433 346 415C350 407 351 398 351 388C374 391 400 393 426 379C446 368 459 351 464 330C467 312 464 294 454 278C459 276 464 273 468 270C476 265 485 260 493 251C507 236 514 216 512 196C509 176 498 157 480 145ZM458 219C455 222 449 226 442 230C433 235 424 240 415 246L407 250C401 254 396 260 395 267C394 274 396 281 400 286L410 299C416 305 418 313 417 320C415 327 411 333 404 337C391 343 376 343 355 340C348 340 341 339 333 338L316 336C307 335 298 340 293 348C288 356 289 366 294 374L298 379C299 381 299 381 300 382C303 388 304 393 302 397C300 402 296 404 292 405C285 406 277 407 270 405C262 403 256 401 249 398C241 395 233 392 225 390C216 387 209 386 203 386C192 386 184 389 179 391C171 393 163 393 155 391L313 233C322 224 322 208 313 199S288 190 279 199L121 357C119 349 119 341 122 332C124 325 129 311 123 287C121 279 117 271 114 263C112 256 109 250 107 242C105 235 106 227 107 220C108 216 111 212 115 210C119 208 124 209 130 212C131 213 132 213 133 214L138 218C146 223 156 224 164 219C172 214 177 205 176 196L174 179C173 171 173 164 172 157C169 136 169 121 176 108C179 101 185 97 192 95C199 94 207 96 213 102L226 112C231 116 239 118 245 117C252 116 258 111 262 105L267 97C272 87 277 78 283 69C286 63 290 57 293 54C300 48 306 48 311 48C317 49 324 53 328 59C330 62 331 64 332 67C340 84 360 92 379 87C391 83 408 81 419 91C419 92 420 92 420 93C421 93 421 93 421 93C431 104 429 121 425 133C420 152 428 172 446 180C448 181 450 182 452 184C452 184 453 184 453 184C459 189 463 195 464 201C464 206 464 212 458 219Z"/></svg>