<svg xmlns="http://www.w3.org/2000/svg" viewBox="0 0 512 512"><!-- Font Awesome Pro 6.0.0-alpha1 by @fontawesome - https://fontawesome.com License - https://fontawesome.com/license (Commercial License) --><path d="M504 238L392 134C387 130 382 128 376 128C372 128 369 129 366 130C357 134 352 142 352 152V232H160V152C160 142 154 134 145 130C142 129 139 128 136 128C130 128 124 130 119 134L7 238C-2 247 -2 264 7 274L119 378C124 382 130 384 136 384C139 384 142 383 145 382C154 378 160 370 160 360V280H352V360C352 370 357 378 366 382C369 383 372 384 376 384C382 384 387 382 392 378L504 274C514 265 514 247 504 238Z"/></svg>