<svg xmlns="http://www.w3.org/2000/svg" viewBox="0 0 448 512"><!-- Font Awesome Pro 6.0.0-alpha1 by @fontawesome - https://fontawesome.com License - https://fontawesome.com/license (Commercial License) --><path d="M240 379V336H304C330 336 352 314 352 288V224C352 198 330 176 304 176H240V133C240 91 191 69 160 97L9 233C3 240 0 248 0 256S3 272 9 279L160 415C191 442 240 421 240 379ZM55 256L192 135V224H304V288H192V377L55 256ZM448 424V88C448 75 437 64 424 64S400 75 400 88V424C400 437 411 448 424 448S448 437 448 424Z"/></svg>