<svg xmlns="http://www.w3.org/2000/svg" viewBox="0 0 512 512"><!-- Font Awesome Pro 6.0.0-alpha1 by @fontawesome - https://fontawesome.com License - https://fontawesome.com/license (Commercial License) --><path d="M442 408C476 366 496 314 496 256S476 146 442 104L449 97C458 88 458 72 449 63S424 54 415 63L408 70C366 36 314 16 256 16S146 36 104 70L97 63C88 54 72 54 63 63S54 88 63 97L70 104C36 146 16 198 16 256S36 366 70 408L63 415C54 424 54 440 63 449C68 454 74 456 80 456S92 454 97 449L104 442C146 476 198 496 256 496S366 476 408 442L415 449C420 454 426 456 432 456S444 454 449 449C458 440 458 424 449 415L442 408ZM448 256C448 300 433 341 407 374L338 304C347 290 352 274 352 256S347 222 338 208L407 138C433 171 448 212 448 256ZM208 256C208 230 230 208 256 208S304 230 304 256S282 304 256 304S208 282 208 256ZM256 64C300 64 341 79 374 105L304 174C290 165 274 160 256 160S222 165 208 174L138 105C171 79 212 64 256 64ZM64 256C64 212 79 171 105 138L174 208C165 222 160 238 160 256S165 290 174 304L105 374C79 341 64 300 64 256ZM256 448C212 448 171 433 138 407L208 338C222 347 238 352 256 352S290 347 304 338L374 407C341 433 300 448 256 448Z"/></svg>