<svg xmlns="http://www.w3.org/2000/svg" viewBox="0 0 384 512"><!-- Font Awesome Pro 6.0.0-alpha1 by @fontawesome - https://fontawesome.com License - https://fontawesome.com/license (Commercial License) --><path d="M112 454C112 461 114 467 117 472L134 498C140 506 152 512 161 512H223C232 512 244 506 250 498L267 472C270 468 272 460 272 454L272 416H112L112 454ZM192 0C90 0 16 83 16 176C16 220 32 261 60 292C76 311 102 350 112 383C112 383 112 384 112 384H272C272 384 272 383 272 383C282 350 308 311 324 292C352 261 368 220 368 176C368 79 289 0 192 0ZM288 260C273 278 253 306 239 336H145C131 306 111 278 96 260C75 237 64 207 64 176C64 113 112 48 192 48C263 48 320 105 320 176C320 207 309 237 288 260ZM198 165L192 163C168 156 169 153 170 149C171 141 186 139 200 141C205 142 212 144 217 146C228 149 239 144 243 133C246 123 241 112 231 108C223 105 217 104 212 103V96C212 85 203 76 192 76S172 85 172 96V102C150 107 134 121 130 142C123 185 163 196 181 202L187 203C216 212 215 214 214 219C213 227 198 229 184 227C177 226 168 223 161 220L156 218C146 215 134 220 130 231C127 241 132 253 143 256L147 258C155 261 163 263 172 265V272C172 283 181 292 192 292S212 283 212 272V266C234 261 250 247 254 226C261 183 220 171 198 165Z"/></svg>