<svg xmlns="http://www.w3.org/2000/svg" viewBox="0 0 384 512"><!-- Font Awesome Pro 6.0.0-alpha1 by @fontawesome - https://fontawesome.com License - https://fontawesome.com/license (Commercial License) --><path d="M320 0H64C29 0 0 29 0 64V448C0 483 29 512 64 512H320C355 512 384 483 384 448V64C384 29 355 0 320 0ZM336 448C336 457 329 464 320 464H214C211 454 202 448 192 448S173 454 170 464H64C55 464 48 457 48 448V64C48 55 55 48 64 48H170C173 58 182 64 192 64S211 58 214 48H320C329 48 336 55 336 64V448ZM240 96H144C118 96 96 118 96 144V368C96 394 118 416 144 416H240C266 416 288 394 288 368V144C288 118 266 96 240 96ZM240 256H144V144H240V256Z"/></svg>