<svg xmlns="http://www.w3.org/2000/svg" viewBox="0 0 640 512"><!-- Font Awesome Pro 6.0.0-alpha1 by @fontawesome - https://fontawesome.com License - https://fontawesome.com/license (Commercial License) --><path d="M107 287L52 319C44 323 39 331 39 340C39 349 44 357 51 361C59 365 68 365 76 361L131 329C142 322 146 307 140 296C133 285 118 281 107 287ZM131 55L76 23C68 19 59 19 51 23C44 27 39 35 39 44C39 53 44 61 52 65L107 97C114 101 124 101 131 97C139 93 143 85 143 76C143 67 139 59 131 55ZM112 192C112 179 101 168 88 168H24C11 168 0 179 0 192S11 216 24 216H88C101 216 112 205 112 192ZM521 100C525 100 529 99 533 97L588 65C600 58 603 43 597 32C590 21 576 17 564 23L509 55C499 61 495 72 498 82C501 93 510 100 521 100ZM616 168H552C539 168 528 179 528 192S539 216 552 216H616C629 216 640 205 640 192S629 168 616 168ZM588 319L533 287C526 283 516 283 509 287C501 291 497 299 497 308C497 317 501 325 509 329L564 361C576 367 590 363 597 352C603 341 599 326 588 319ZM320 0C218 0 144 83 144 176C144 220 160 261 188 292C204 311 230 350 240 383C240 383 240 384 240 384H400C400 384 400 383 400 383C410 350 436 311 452 292C480 261 496 220 496 176C496 79 417 0 320 0ZM416 260C401 278 381 306 367 336H273C259 306 239 278 224 260C203 237 192 207 192 176C192 113 240 48 320 48C391 48 448 105 448 176C448 207 437 237 416 260ZM240 454C240 461 242 467 245 472L262 498C268 506 280 512 289 512H351C360 512 372 506 378 498L395 472C398 468 400 460 400 454L400 416H240L240 454ZM304 80C260 80 224 116 224 160C224 169 231 176 240 176S256 169 256 160C256 134 278 112 304 112C313 112 320 105 320 96S313 80 304 80Z"/></svg>