<svg xmlns="http://www.w3.org/2000/svg" viewBox="0 0 640 512"><!-- Font Awesome Pro 6.0.0-alpha1 by @fontawesome - https://fontawesome.com License - https://fontawesome.com/license (Commercial License) --><path d="M637 76C630 64 615 61 604 67C540 105 433 128 320 128S100 105 36 67C25 61 10 64 3 76C-3 87 0 102 12 109C46 129 90 145 140 156L118 229C88 230 61 249 52 279C40 317 55 406 86 415C116 424 178 359 190 321C199 291 187 260 163 243L187 166C222 171 258 174 296 175V260C268 270 248 297 248 328C248 368 288 448 320 448C352 448 392 368 392 328C392 297 372 270 344 260V175C382 174 418 171 453 166L477 243C453 260 441 291 450 321C462 359 524 424 554 415C585 406 600 317 588 279C579 249 552 230 522 229L500 156C550 145 594 129 628 109C640 102 643 87 637 76ZM144 307C139 322 119 346 103 359C97 339 93 308 98 293C102 281 115 273 128 277C140 281 148 295 144 307ZM542 293C547 308 543 339 537 359C521 346 501 322 496 307C492 295 500 281 512 277C525 273 538 281 542 293ZM320 390C309 372 296 344 296 328C296 315 307 304 320 304C333 304 344 315 344 328C344 344 332 372 320 390Z"/></svg>