<svg xmlns="http://www.w3.org/2000/svg" viewBox="0 0 576 512"><!-- Font Awesome Pro 6.0.0-alpha1 by @fontawesome - https://fontawesome.com License - https://fontawesome.com/license (Commercial License) --><path d="M248 120H552C565 120 576 109 576 96C576 83 565 72 552 72H248C235 72 224 83 224 96C224 109 235 120 248 120ZM552 392H248C235 392 224 403 224 416C224 429 235 440 248 440H552C565 440 576 429 576 416C576 403 565 392 552 392ZM552 232H248C235 232 224 243 224 256C224 269 235 280 248 280H552C565 280 576 269 576 256C576 243 565 232 552 232ZM151 145C156 150 162 152 168 152S180 150 185 145C194 136 194 120 185 111L113 39C104 30 88 30 79 39L7 111C-2 120 -2 136 7 145S32 154 41 145L72 114V398L41 367C32 358 16 358 7 367S-2 392 7 401L79 473C84 478 90 480 96 480S108 478 113 473L185 401C194 392 194 376 185 367S160 358 151 367L120 398V114L151 145Z"/></svg>