<svg xmlns="http://www.w3.org/2000/svg" viewBox="0 0 512 512"><!-- Font Awesome Pro 6.0.0-alpha1 by @fontawesome - https://fontawesome.com License - https://fontawesome.com/license (Commercial License) --><path d="M200 168H24C11 168 0 179 0 192V192C0 205 11 216 24 216H200C213 216 224 205 224 192V192C224 179 213 168 200 168ZM200 296H24C11 296 0 307 0 320V320C0 333 11 344 24 344H200C213 344 224 333 224 320V320C224 307 213 296 200 296ZM200 40H24C11 40 0 51 0 64V64C0 77 11 88 24 88H200C213 88 224 77 224 64V64C224 51 213 40 200 40ZM200 424H24C11 424 0 435 0 448V448C0 461 11 472 24 472H200C213 472 224 461 224 448V448C224 435 213 424 200 424ZM488 40H312C299 40 288 51 288 64V64C288 77 299 88 312 88H488C501 88 512 77 512 64V64C512 51 501 40 488 40ZM488 168H312C299 168 288 179 288 192V192C288 205 299 216 312 216H488C501 216 512 205 512 192V192C512 179 501 168 488 168ZM488 424H312C299 424 288 435 288 448V448C288 461 299 472 312 472H488C501 472 512 461 512 448V448C512 435 501 424 488 424ZM488 296H312C299 296 288 307 288 320V320C288 333 299 344 312 344H488C501 344 512 333 512 320V320C512 307 501 296 488 296Z"/></svg>