<svg xmlns="http://www.w3.org/2000/svg" viewBox="0 0 640 512"><!-- Font Awesome Pro 6.0.0-alpha1 by @fontawesome - https://fontawesome.com License - https://fontawesome.com/license (Commercial License) --><path d="M144 304C91 304 48 261 48 208C48 186 56 166 68 150L30 121C12 145 0 175 0 208C0 287 65 352 144 352H167C163 337 160 321 160 304H144ZM574 424C613 399 640 355 640 304C640 225 575 160 496 160H473C477 175 480 191 480 208H496C549 208 592 251 592 304C592 344 568 378 533 393L414 299C435 275 448 243 448 208C448 129 383 64 304 64H144C135 64 126 65 118 67L39 5C34 2 29 0 24 0C17 0 10 3 5 9C-3 20 -1 35 9 43L601 507C612 515 627 513 635 503C643 492 641 477 631 469L574 424ZM377 270L305 214C315 210 325 208 336 208H368C368 189 359 172 346 160H336C309 160 284 168 263 181L175 112H304C357 112 400 155 400 208C400 232 391 253 377 270ZM336 400C283 400 240 357 240 304C240 298 241 292 242 286L201 254C196 270 192 287 192 304C192 383 257 448 336 448H448L387 400H336Z"/></svg>