<svg xmlns="http://www.w3.org/2000/svg" viewBox="0 0 512 512"><!-- Font Awesome Pro 6.0.0-alpha1 by @fontawesome - https://fontawesome.com License - https://fontawesome.com/license (Commercial License) --><path d="M120 176H104V48C104 39 97 32 88 32H51C43 32 36 36 31 43L31 43C21 59 33 80 51 80H56V176H40C27 176 16 187 16 200V200C16 213 27 224 40 224H120C133 224 144 213 144 200V200C144 187 133 176 120 176ZM488 392H216C203 392 192 403 192 416V416C192 429 203 440 216 440H488C501 440 512 429 512 416V416C512 403 501 392 488 392ZM120 432H58L59 431C61 425 69 420 81 413C105 399 136 381 136 342C136 295 94 282 69 282C35 282 17 298 7 311C3 315 0 322 10 330L24 341C29 345 35 347 45 337C50 333 56 330 63 330C72 330 82 336 82 348C82 357 72 364 58 373C34 389 0 411 0 459V466C0 475 6 480 15 480H120C133 480 144 469 144 456V456C144 443 133 432 120 432ZM488 72H216C203 72 192 83 192 96V96C192 109 203 120 216 120H488C501 120 512 109 512 96V96C512 83 501 72 488 72ZM488 232H216C203 232 192 243 192 256V256C192 269 203 280 216 280H488C501 280 512 269 512 256V256C512 243 501 232 488 232Z"/></svg>