<svg xmlns="http://www.w3.org/2000/svg" viewBox="0 0 512 512"><!-- Font Awesome Pro 6.0.0-alpha1 by @fontawesome - https://fontawesome.com License - https://fontawesome.com/license (Commercial License) --><path d="M80 208H16C7 208 0 215 0 224V288C0 297 7 304 16 304H80C89 304 96 297 96 288V224C96 215 89 208 80 208ZM80 368H16C7 368 0 375 0 384V448C0 457 7 464 16 464H80C89 464 96 457 96 448V384C96 375 89 368 80 368ZM80 48H16C7 48 0 55 0 64V128C0 137 7 144 16 144H80C89 144 96 137 96 128V64C96 55 89 48 80 48ZM488 232H184C171 232 160 243 160 256V256C160 269 171 280 184 280H488C501 280 512 269 512 256V256C512 243 501 232 488 232ZM488 72H184C171 72 160 83 160 96V96C160 109 171 120 184 120H488C501 120 512 109 512 96V96C512 83 501 72 488 72ZM488 392H184C171 392 160 403 160 416V416C160 429 171 440 184 440H488C501 440 512 429 512 416V416C512 403 501 392 488 392Z"/></svg>