<svg xmlns="http://www.w3.org/2000/svg" viewBox="0 0 512 512"><!-- Font Awesome Pro 6.0.0-alpha1 by @fontawesome - https://fontawesome.com License - https://fontawesome.com/license (Commercial License) --><path d="M184 120H488C501 120 512 109 512 96S501 72 488 72H184C171 72 160 83 160 96S171 120 184 120ZM488 392H184C171 392 160 403 160 416S171 440 184 440H488C501 440 512 429 512 416S501 392 488 392ZM488 232H184C171 232 160 243 160 256S171 280 184 280H488C501 280 512 269 512 256S501 232 488 232ZM100 43C90 36 77 32 64 32C29 32 0 61 0 96S29 160 64 160C77 160 90 156 100 149C107 144 112 139 117 132C124 122 128 109 128 96S124 70 117 60C112 53 107 48 100 43ZM64 192C29 192 0 221 0 256S29 320 64 320C99 320 128 291 128 256S99 192 64 192ZM64 280C51 280 40 269 40 256C40 243 51 232 64 232C77 232 88 243 88 256C88 269 77 280 64 280ZM64 352C29 352 0 381 0 416S29 480 64 480C99 480 128 451 128 416S99 352 64 352ZM64 440C51 440 40 429 40 416C40 403 51 392 64 392C77 392 88 403 88 416C88 429 77 440 64 440Z"/></svg>