<svg xmlns="http://www.w3.org/2000/svg" viewBox="0 0 512 512"><!-- Font Awesome Pro 6.0.0-alpha1 by @fontawesome - https://fontawesome.com License - https://fontawesome.com/license (Commercial License) --><path d="M32 224C14 224 0 238 0 256C0 274 14 288 32 288S64 274 64 256C64 238 50 224 32 224ZM32 64C14 64 0 78 0 96C0 114 14 128 32 128S64 114 64 96C64 78 50 64 32 64ZM32 384C14 384 0 398 0 416C0 434 14 448 32 448S64 434 64 416C64 398 50 384 32 384ZM472 72H168C155 72 144 83 144 96V96C144 109 155 120 168 120H472C485 120 496 109 496 96V96C496 83 485 72 472 72ZM472 392H168C155 392 144 403 144 416V416C144 429 155 440 168 440H472C485 440 496 429 496 416V416C496 403 485 392 472 392ZM472 232H168C155 232 144 243 144 256V256C144 269 155 280 168 280H472C485 280 496 269 496 256V256C496 243 485 232 472 232Z"/></svg>