<svg xmlns="http://www.w3.org/2000/svg" viewBox="0 0 512 512"><!-- Font Awesome Pro 6.0.0-alpha1 by @fontawesome - https://fontawesome.com License - https://fontawesome.com/license (Commercial License) --><path d="M24 96H264C277 96 288 85 288 72S277 48 264 48H24C11 48 0 59 0 72S11 96 24 96ZM499 6C491 0 480 -2 470 1L358 37C345 41 336 53 336 67V366C318 357 296 352 272 352C210 352 160 388 160 432C160 476 210 512 272 512S384 476 384 432V195L490 162C503 158 512 145 512 131V32C512 22 507 12 499 6ZM272 464C232 464 208 443 208 432C208 421 232 400 272 400S336 421 336 432C336 443 312 464 272 464ZM464 120L384 145V79L464 54V120ZM24 224H264C277 224 288 213 288 200S277 176 264 176H24C11 176 0 187 0 200S11 224 24 224ZM136 304H24C11 304 0 315 0 328S11 352 24 352H136C149 352 160 341 160 328S149 304 136 304Z"/></svg>