<svg xmlns="http://www.w3.org/2000/svg" viewBox="0 0 512 512"><!-- Font Awesome Pro 6.0.0-alpha1 by @fontawesome - https://fontawesome.com License - https://fontawesome.com/license (Commercial License) --><path d="M184 120H488C501 120 512 109 512 96S501 72 488 72H184C171 72 160 83 160 96S171 120 184 120ZM208 208H144C135 208 128 215 128 224V232H72V144H80C89 144 96 137 96 128V64C96 55 89 48 80 48H16C7 48 0 55 0 64V128C0 137 7 144 16 144H24V384C24 415 49 440 80 440H128V448C128 457 135 464 144 464H208C217 464 224 457 224 448V384C224 375 217 368 208 368H144C135 368 128 375 128 384V392H80C76 392 72 388 72 384V280H128V288C128 297 135 304 144 304H208C217 304 224 297 224 288V224C224 215 217 208 208 208ZM488 392H312C299 392 288 403 288 416S299 440 312 440H488C501 440 512 429 512 416S501 392 488 392ZM488 232H312C299 232 288 243 288 256S299 280 312 280H488C501 280 512 269 512 256S501 232 488 232Z"/></svg>