<svg xmlns="http://www.w3.org/2000/svg" viewBox="0 0 384 512"><!-- Font Awesome Pro 6.0.0-alpha1 by @fontawesome - https://fontawesome.com License - https://fontawesome.com/license (Commercial License) --><path d="M254 220L226 192L254 164C264 154 264 139 254 130C245 120 230 120 220 130L192 158L164 130C154 120 139 120 130 130C120 139 120 154 130 164L158 192L130 220C120 230 120 245 130 254C139 264 154 264 164 254L192 226L220 254C230 264 245 264 254 254S264 230 254 220ZM192 0C86 0 0 86 0 192C0 269 27 291 172 502C177 509 185 512 192 512S207 509 212 502C357 291 384 269 384 192C384 86 298 0 192 0ZM192 446C174 420 159 398 145 378C58 254 48 239 48 192C48 113 113 48 192 48S336 113 336 192C336 239 326 254 239 378C225 398 210 420 192 446Z"/></svg>