<svg xmlns="http://www.w3.org/2000/svg" viewBox="0 0 384 512"><!-- Font Awesome Pro 6.0.0-alpha1 by @fontawesome - https://fontawesome.com License - https://fontawesome.com/license (Commercial License) --><path d="M192 0C86 0 0 86 0 192C0 269 27 291 172 502C177 509 185 512 192 512S207 509 212 502C357 291 384 269 384 192C384 86 298 0 192 0ZM192 446C174 420 159 398 145 378C58 254 48 239 48 192C48 113 113 48 192 48S336 113 336 192C336 239 326 254 239 378C225 398 210 420 192 446ZM255 112C250 107 243 104 236 104S221 107 216 112L132 196C128 200 125 205 124 210L112 264C111 268 115 272 119 272C119 272 120 272 120 272C120 272 157 264 174 260C179 259 184 257 187 253C209 231 234 206 272 168C283 157 283 140 272 129L255 112Z"/></svg>