<svg xmlns="http://www.w3.org/2000/svg" viewBox="0 0 512 512"><!-- Font Awesome Pro 6.0.0-alpha1 by @fontawesome - https://fontawesome.com License - https://fontawesome.com/license (Commercial License) --><path d="M256 168C207 168 168 207 168 256S207 344 256 344S344 305 344 256S305 168 256 168ZM256 296C234 296 216 278 216 256C216 234 234 216 256 216C278 216 296 234 296 256C296 278 278 296 256 296ZM488 232H446C435 145 367 77 280 66V24C280 11 269 0 256 0H256C243 0 232 11 232 24V66C145 77 77 145 66 232H24C11 232 0 243 0 256V256C0 269 11 280 24 280H66C77 367 145 435 232 446V488C232 501 243 512 256 512H256C269 512 280 501 280 488V446C367 435 435 367 446 280H488C501 280 512 269 512 256V256C512 243 501 232 488 232ZM256 400C177 400 112 335 112 256S177 112 256 112S400 177 400 256S335 400 256 400Z"/></svg>