<svg xmlns="http://www.w3.org/2000/svg" viewBox="0 0 384 512"><!-- Font Awesome Pro 6.0.0-alpha1 by @fontawesome - https://fontawesome.com License - https://fontawesome.com/license (Commercial License) --><path d="M192 0C86 0 0 86 0 192C0 269 26 291 173 502C178 509 185 512 192 512S206 509 211 502C358 291 384 269 384 192C384 86 298 0 192 0ZM192 446C178 425 165 407 153 390C58 257 48 240 48 192C48 113 113 48 192 48S336 113 336 192C336 240 326 257 231 390C219 407 206 426 192 446ZM136 176C149 176 160 165 160 152S149 128 136 128C123 128 112 139 112 152S123 176 136 176ZM248 176C261 176 272 165 272 152S261 128 248 128S224 139 224 152S235 176 248 176ZM238 227C215 254 169 254 146 227C137 217 122 216 112 225C102 234 101 249 110 259C131 282 161 296 192 296C223 296 253 282 274 259C283 249 282 234 272 225C262 216 247 217 238 227Z"/></svg>