<svg xmlns="http://www.w3.org/2000/svg" viewBox="0 0 512 512"><!-- Font Awesome Pro 6.0.0-alpha1 by @fontawesome - https://fontawesome.com License - https://fontawesome.com/license (Commercial License) --><path d="M416 192H384V128C384 57 327 0 256 0S128 57 128 128V192H96C61 192 32 221 32 256V448C32 483 61 512 96 512H416C451 512 480 483 480 448V256C480 221 451 192 416 192ZM176 128C176 84 212 48 256 48S336 84 336 128V192H176V128ZM432 448C432 457 425 464 416 464H96C87 464 80 457 80 448V256C80 247 87 240 96 240H416C425 240 432 247 432 256V448ZM256 304C243 304 232 315 232 328V376C232 389 243 400 256 400S280 389 280 376V328C280 315 269 304 256 304Z"/></svg>