<svg xmlns="http://www.w3.org/2000/svg" viewBox="0 0 448 512"><!-- Font Awesome Pro 6.0.0-alpha1 by @fontawesome - https://fontawesome.com License - https://fontawesome.com/license (Commercial License) --><path d="M224 0C100 0 0 100 0 224V352C0 440 72 512 160 512H288C376 512 448 440 448 352V224C448 100 348 0 224 0ZM400 352C400 414 350 464 288 464H160C98 464 48 414 48 352V224C48 127 127 48 224 48S400 127 400 224V352ZM226 226C226 226 222 226 221 226C213 188 182 160 144 160H76C69 160 64 165 64 172V203C64 250 100 288 144 288H166C159 300 154 311 151 321C120 326 96 352 96 384C96 419 125 448 161 448H287C322 448 352 419 352 384C352 352 328 326 297 321C294 311 289 300 282 288H304C348 288 384 250 384 203V172C384 165 379 160 372 160H304C266 160 235 188 226 226ZM224 267C244 287 256 305 263 320H185C192 305 204 287 224 267ZM144 256C118 256 96 232 96 203V192H144C170 192 192 216 192 245V254C191 255 191 255 190 256H144ZM288 352C306 352 320 366 320 384S306 416 288 416H160C142 416 128 402 128 384S142 352 160 352H288ZM352 203C352 232 330 256 304 256H258C257 255 257 255 256 254V245C256 216 278 192 304 192H352V203Z"/></svg>