<svg xmlns="http://www.w3.org/2000/svg" viewBox="0 0 512 512"><!-- Font Awesome Pro 6.0.0-alpha1 by @fontawesome - https://fontawesome.com License - https://fontawesome.com/license (Commercial License) --><path d="M500 210L419 184C406 139 370 104 325 91L298 11C296 4 292 1 288 0C284 1 280 4 278 11L251 91C206 104 170 139 157 184L76 210C60 215 60 228 76 234L156 261C160 276 167 290 176 302L7 471C-2 480 -2 496 7 505C12 510 18 512 24 512S36 510 41 505L209 336C221 345 234 351 248 356L274 437C277 446 283 449 288 448C293 449 299 446 302 437L328 356C373 342 408 306 420 261L500 234C516 228 516 215 500 210ZM288 312C240 312 200 272 200 224C200 176 240 136 288 136S376 176 376 224C376 272 336 312 288 312ZM288 192C270 192 256 206 256 224S270 256 288 256S320 242 320 224S306 192 288 192Z"/></svg>