<svg xmlns="http://www.w3.org/2000/svg" viewBox="0 0 512 512"><!-- Font Awesome Pro 6.0.0-alpha1 by @fontawesome - https://fontawesome.com License - https://fontawesome.com/license (Commercial License) --><path d="M505 471L371 337C399 302 416 257 416 208C416 93 323 0 208 0S0 93 0 208S93 416 208 416C257 416 302 399 337 371L471 505C476 510 482 512 488 512S500 510 505 505C514 496 514 480 505 471ZM208 368C120 368 48 296 48 208S120 48 208 48S368 120 368 208S296 368 208 368ZM213 189L207 187C180 179 181 175 182 169C183 159 201 157 217 159C222 160 228 162 236 164C247 168 258 163 262 152C265 142 260 130 249 127C241 124 234 122 228 121V112C228 101 219 92 208 92S188 101 188 112V120C163 125 146 140 142 162C135 207 178 220 196 225L202 227C235 236 235 240 234 247C233 257 215 259 199 257C191 256 182 252 173 249L168 247C158 244 146 249 143 260C139 270 144 281 155 285L160 287C168 290 178 293 188 295V304C188 315 197 324 208 324S228 315 228 304V296C253 291 270 276 274 254C282 208 239 196 213 189Z"/></svg>