<svg xmlns="http://www.w3.org/2000/svg" viewBox="0 0 448 512"><!-- Font Awesome Pro 6.0.0-alpha1 by @fontawesome - https://fontawesome.com License - https://fontawesome.com/license (Commercial License) --><path d="M408 32H328C306 32 288 50 288 72V256C288 291 259 320 224 320S160 291 160 256V72C160 50 142 32 120 32H40C18 32 0 50 0 72V256C0 380 100 480 224 480S448 380 448 256V72C448 50 430 32 408 32ZM400 256C400 353 321 432 224 432S48 353 48 256V176H112V256C112 318 162 368 224 368C286 368 336 318 336 256V176H400V256Z"/></svg>