<svg xmlns="http://www.w3.org/2000/svg" viewBox="0 0 576 512"><!-- Font Awesome Pro 6.0.0-alpha1 by @fontawesome - https://fontawesome.com License - https://fontawesome.com/license (Commercial License) --><path d="M184 192H104C91 192 80 203 80 216C80 229 91 240 104 240H184C197 240 208 229 208 216C208 203 197 192 184 192ZM432 64H144C65 64 0 129 0 208V416C0 434 14 448 32 448H544C562 448 576 434 576 416V208C576 129 511 64 432 64ZM240 400H48V208C48 155 91 112 144 112S240 155 240 208V400ZM528 400H288V208C288 171 274 138 251 112H432C485 112 528 155 528 208V400ZM464 192H360C347 192 336 203 336 216C336 229 347 240 360 240H416V272C416 281 423 288 432 288H464C473 288 480 281 480 272V208C480 199 473 192 464 192Z"/></svg>