<svg xmlns="http://www.w3.org/2000/svg" viewBox="0 0 512 512"><!-- Font Awesome Pro 6.0.0-alpha1 by @fontawesome - https://fontawesome.com License - https://fontawesome.com/license (Commercial License) --><path d="M507 51L461 5C456 -1 448 -1 442 2L378 43C371 47 366 54 364 62L345 133L286 192C97 189 50 237 31 256C-16 303 -9 407 48 464C80 496 127 512 170 512C204 512 235 502 256 481C271 466 324 420 320 226L379 167L450 149C458 146 465 141 470 135L510 71C514 64 513 56 507 51ZM222 447C211 458 192 464 170 464C137 464 103 451 82 430C43 390 39 316 65 290C113 242 221 241 238 241L188 290C167 284 144 293 133 312C122 331 125 356 141 371C156 387 181 390 200 379C219 368 228 345 222 324L271 275C271 290 270 399 222 447Z"/></svg>