<svg xmlns="http://www.w3.org/2000/svg" viewBox="0 0 576 512"><!-- Font Awesome Pro 6.0.0-alpha1 by @fontawesome - https://fontawesome.com License - https://fontawesome.com/license (Commercial License) --><path d="M554 33L384 96L212 35C206 33 199 32 192 32C185 32 178 33 172 35L20 88C8 93 0 105 0 118V464C0 475 11 483 22 479L192 416L364 477C377 481 391 481 404 477L556 424C568 419 576 407 576 394V48C576 37 565 29 554 33ZM224 90L352 136V422L224 376V90ZM48 418V129L176 84V371L175 371L48 418ZM528 383L400 428V141L401 141L528 94V383Z"/></svg>