<svg xmlns="http://www.w3.org/2000/svg" viewBox="0 0 512 512"><!-- Font Awesome Pro 6.0.0-alpha1 by @fontawesome - https://fontawesome.com License - https://fontawesome.com/license (Commercial License) --><path d="M486 26C468 9 445 0 422 0C398 0 375 9 358 26L321 63L296 38C275 17 238 17 216 38L111 143C102 152 102 168 111 177C116 182 122 184 128 184S140 182 145 177L250 72C254 68 259 68 262 72L287 97L94 290C42 342 8 411 0 485V485C-1 500 10 512 24 512C30 512 135 505 222 418L486 154C521 119 521 62 486 26ZM188 384C151 421 104 447 53 459C65 408 91 361 128 324L201 251L261 311L188 384ZM452 121L295 277L235 217L391 60C400 52 410 48 422 48S444 52 452 61C460 69 464 79 464 91S460 113 452 121Z"/></svg>