<svg xmlns="http://www.w3.org/2000/svg" viewBox="0 0 640 512"><!-- Font Awesome Pro 6.0.0-alpha1 by @fontawesome - https://fontawesome.com License - https://fontawesome.com/license (Commercial License) --><path d="M601 239L521 159C512 150 497 150 487 159S478 184 487 193L526 232H448V184C448 171 437 160 424 160S400 171 400 184V232H366C354 146 281 80 192 80C95 80 16 159 16 256S95 432 192 432C281 432 354 366 366 280H400V328C400 341 411 352 424 352S448 341 448 328V280H526L487 319C478 328 478 343 487 353C492 358 498 360 504 360S517 358 521 353L601 273C610 264 610 248 601 239ZM192 384C121 384 64 327 64 256S121 128 192 128S320 185 320 256S263 384 192 384Z"/></svg>