<svg xmlns="http://www.w3.org/2000/svg" viewBox="0 0 640 512"><!-- Font Awesome Pro 6.0.0-alpha1 by @fontawesome - https://fontawesome.com License - https://fontawesome.com/license (Commercial License) --><path d="M568 32H456C443 32 432 43 432 56S443 80 456 80H510L410 180C401 189 401 204 410 213L410 213C460 263 460 345 410 394C386 419 354 432 320 432C311 432 302 431 294 429C288 437 282 444 275 451C269 457 263 463 256 468C276 476 298 480 320 480C365 480 410 463 444 428C507 366 512 267 460 198L544 114V168C544 181 555 192 568 192S592 181 592 168V56C592 43 581 32 568 32ZM268 198L352 114V168C352 181 363 192 376 192C389 192 400 181 400 168V56C400 43 389 32 376 32H264C251 32 240 43 240 56S251 80 264 80H318L234 164C202 141 165 128 128 128C83 128 38 145 3 180C-65 248 -65 360 3 428C38 463 83 480 128 480S218 463 252 428C315 366 320 267 268 198ZM218 394C194 419 162 432 128 432S62 419 37 394C-12 345 -12 263 37 213C62 189 94 176 128 176S194 189 218 214C268 263 268 345 218 394Z"/></svg>