<svg xmlns="http://www.w3.org/2000/svg" viewBox="0 0 448 512"><!-- Font Awesome Pro 6.0.0-alpha1 by @fontawesome - https://fontawesome.com License - https://fontawesome.com/license (Commercial License) --><path d="M376 32H264C251 32 240 43 240 56S251 80 264 80H318L234 164C202 141 165 128 128 128C83 128 38 145 3 180C-65 248 -65 360 3 428C38 463 83 480 128 480S218 463 252 428C315 366 320 267 268 198L352 114V168C352 181 363 192 376 192S400 181 400 168V56C400 43 389 32 376 32ZM218 394C194 419 162 432 128 432S62 419 37 394C-12 345 -12 263 37 213C62 189 94 176 128 176S194 189 218 214C218 214 218 214 218 214C218 214 218 214 218 214C268 263 268 345 218 394Z"/></svg>