<svg xmlns="http://www.w3.org/2000/svg" viewBox="0 0 576 512"><!-- Font Awesome Pro 6.0.0-alpha1 by @fontawesome - https://fontawesome.com License - https://fontawesome.com/license (Commercial License) --><path d="M576 144C576 223 511 288 432 288C405 288 379 280 357 267L393 231C405 237 418 240 432 240C485 240 528 197 528 144S485 48 432 48C397 48 366 67 349 96H297C317 40 369 0 432 0C511 0 576 65 576 144ZM320 488C320 501 309 512 296 512H277H123H120C107 512 96 501 96 488S107 464 120 464H155H184V347L7 170C-8 154 3 128 25 128H391C413 128 424 154 409 170L232 347V464H245H296C309 464 320 475 320 488ZM208 303L335 176H81L208 303Z"/></svg>