<svg xmlns="http://www.w3.org/2000/svg" viewBox="0 0 576 512"><!-- Font Awesome Pro 6.0.0-alpha1 by @fontawesome - https://fontawesome.com License - https://fontawesome.com/license (Commercial License) --><path d="M288 64C40 64 0 182 0 273C0 379 79 448 176 448C203 448 227 441 242 411L262 371C268 359 278 352 288 352C298 352 308 359 314 371L334 411C349 441 373 448 400 448C497 448 576 379 576 273C576 182 536 64 288 64ZM400 400C382 400 380 397 377 390L357 349C343 322 318 305 290 304L288 304L286 304C258 305 233 322 219 350L199 390C196 397 194 400 176 400C101 400 48 348 48 273C48 229 48 112 288 112S528 229 528 273C528 348 475 400 400 400ZM160 192C125 192 96 221 96 256S125 320 160 320C195 320 224 291 224 256S195 192 160 192ZM416 192C381 192 352 221 352 256S381 320 416 320C451 320 480 291 480 256S451 192 416 192Z"/></svg>