<svg xmlns="http://www.w3.org/2000/svg" viewBox="0 0 576 512"><!-- Font Awesome Pro 6.0.0-alpha1 by @fontawesome - https://fontawesome.com License - https://fontawesome.com/license (Commercial License) --><path d="M552 32C539 32 528 43 528 56V60L47 195C45 184 35 176 24 176C11 176 0 187 0 200V312C0 325 11 336 24 336C35 336 45 328 47 317L168 351C163 363 160 375 160 388C160 439 201 480 252 480C298 480 337 445 343 400L528 452V456C528 469 539 480 552 480C565 480 576 469 576 456V56C576 43 565 32 552 32ZM296 388C296 412 276 432 252 432S208 412 208 388C208 380 211 371 215 364L296 387C296 387 296 388 296 388ZM48 268V244L528 109V403L48 268Z"/></svg>