<svg xmlns="http://www.w3.org/2000/svg" viewBox="0 0 640 512"><!-- Font Awesome Pro 6.0.0-alpha1 by @fontawesome - https://fontawesome.com License - https://fontawesome.com/license (Commercial License) --><path d="M416 96C434 96 448 82 448 64S416 0 416 0S384 46 384 64S398 96 416 96ZM512 128C499 128 488 139 488 152V288H536V152C536 139 525 128 512 128ZM608 96C626 96 640 82 640 64S608 0 608 0S576 46 576 64S590 96 608 96ZM512 96C530 96 544 82 544 64S512 0 512 0S480 46 480 64S494 96 512 96ZM320 96C338 96 352 82 352 64S320 0 320 0S288 46 288 64S302 96 320 96ZM416 128C403 128 392 139 392 152V288H440V152C440 139 429 128 416 128ZM32 96C50 96 64 82 64 64S32 0 32 0S0 46 0 64S14 96 32 96ZM616 128C603 128 592 139 592 152V280C592 302 574 320 552 320H344V152C344 139 333 128 320 128S296 139 296 152V320H88C66 320 48 302 48 280V152C48 139 37 128 24 128S0 139 0 152V280C0 329 39 368 88 368H296V464H152C139 464 128 475 128 488C128 501 139 512 152 512H488C501 512 512 501 512 488C512 475 501 464 488 464H344V368H552C601 368 640 329 640 280V152C640 139 629 128 616 128ZM224 96C242 96 256 82 256 64S224 0 224 0S192 46 192 64S206 96 224 96ZM128 128C115 128 104 139 104 152V288H152V152C152 139 141 128 128 128ZM128 96C146 96 160 82 160 64S128 0 128 0S96 46 96 64S110 96 128 96ZM224 128C211 128 200 139 200 152V288H248V152C248 139 237 128 224 128Z"/></svg>