<svg xmlns="http://www.w3.org/2000/svg" viewBox="0 0 384 512"><!-- Font Awesome Pro 6.0.0-alpha1 by @fontawesome - https://fontawesome.com License - https://fontawesome.com/license (Commercial License) --><path d="M368 224C368 158 331 100 278 70C290 62 303 52 314 40C323 31 322 15 312 6C303 -3 287 -2 278 8C230 60 154 60 106 8C97 -2 81 -3 72 6C62 15 61 31 70 40C81 52 94 62 106 70C53 100 16 158 16 224C16 313 82 386 168 398V424H136C123 424 112 435 112 448C112 461 123 472 136 472H168V488C168 501 179 512 192 512S216 501 216 488V472H248C261 472 272 461 272 448C272 435 261 424 248 424H216V398C302 386 368 313 368 224ZM64 224C64 153 121 96 192 96S320 153 320 224S263 352 192 352S64 295 64 224Z"/></svg>