<svg xmlns="http://www.w3.org/2000/svg" viewBox="0 0 576 512"><!-- Font Awesome Pro 6.0.0-alpha1 by @fontawesome - https://fontawesome.com License - https://fontawesome.com/license (Commercial License) --><path d="M352 320C387 320 416 291 416 256V64C416 29 387 0 352 0H64C29 0 0 29 0 64V256C0 291 29 320 64 320H96V372C96 379 102 384 108 384C110 384 113 383 115 382L224 320H352ZM200 278L144 310V272H64C55 272 48 265 48 256V64C48 55 55 48 64 48H352C361 48 368 55 368 64V256C368 265 361 272 352 272H211L200 278ZM512 160H448V256C448 309 405 352 352 352H232L192 375V384C192 419 221 448 256 448H382L465 510C471 515 480 510 480 502V448H512C547 448 576 419 576 384V224C576 189 547 160 512 160Z"/></svg>