<svg xmlns="http://www.w3.org/2000/svg" viewBox="0 0 576 512"><!-- Font Awesome Pro 6.0.0-alpha1 by @fontawesome - https://fontawesome.com License - https://fontawesome.com/license (Commercial License) --><path d="M512 160H448V256C448 309 405 352 352 352H232L192 375V384C192 419 221 448 256 448H382L465 510C471 515 480 510 480 502V448H512C547 448 576 419 576 384V224C576 189 547 160 512 160ZM352 320C387 320 416 291 416 256V64C416 29 387 0 352 0H64C29 0 0 29 0 64V256C0 291 29 320 64 320H96V372C96 379 102 384 108 384C110 384 113 383 115 382L224 320H352ZM200 278L144 310V272H64C55 272 48 265 48 256V64C48 55 55 48 64 48H352C361 48 368 55 368 64V256C368 265 361 272 352 272H211L200 278ZM213 143L208 142C188 136 188 133 189 130C190 123 203 121 215 123C220 124 225 125 230 127C239 130 249 126 252 117C255 108 250 98 241 95C235 93 230 91 225 90V81C225 72 217 64 208 64S191 72 191 81V90C172 94 158 106 155 124C149 160 183 171 198 175L203 176C228 184 228 186 227 190C226 197 213 199 201 197C195 196 188 193 181 191L177 190C168 186 158 191 155 200C152 209 157 219 166 222L169 223C176 226 183 228 191 230V239C191 248 199 256 208 256S225 248 225 239V230C244 226 258 214 261 196C267 159 232 149 213 143Z"/></svg>