<svg xmlns="http://www.w3.org/2000/svg" viewBox="0 0 512 512"><!-- Font Awesome Pro 6.0.0-alpha1 by @fontawesome - https://fontawesome.com License - https://fontawesome.com/license (Commercial License) --><path d="M448 96H336L269 6C266 2 261 0 256 0S246 2 243 6L176 96H64C29 96 0 125 0 160V448C0 483 29 512 64 512H448C483 512 512 483 512 448V160C512 125 483 96 448 96ZM464 448C464 457 457 464 448 464H64C55 464 48 457 48 448V160C48 151 55 144 64 144H200L256 69L312 144H448C457 144 464 151 464 160V448Z"/></svg>