<svg xmlns="http://www.w3.org/2000/svg" viewBox="0 0 512 512"><!-- Font Awesome Pro 6.0.0-alpha1 by @fontawesome - https://fontawesome.com License - https://fontawesome.com/license (Commercial License) --><path d="M326 117C319 110 307 110 300 117L282 136L330 184L348 165C355 158 355 147 348 140L326 117ZM174 243C173 245 172 247 171 249L162 297C161 301 164 305 169 304L216 294C219 294 221 293 222 291L313 201L265 153L174 243ZM448 0H64C29 0 0 29 0 64V352C0 387 29 416 64 416H160V500C160 510 171 515 179 510L304 416H448C483 416 512 387 512 352V64C512 29 483 0 448 0ZM464 352C464 361 457 368 448 368H288L208 428V368H64C55 368 48 361 48 352V64C48 55 55 48 64 48H448C457 48 464 55 464 64V352Z"/></svg>