<svg xmlns="http://www.w3.org/2000/svg" viewBox="0 0 512 512"><!-- Font Awesome Pro 6.0.0-alpha1 by @fontawesome - https://fontawesome.com License - https://fontawesome.com/license (Commercial License) --><path d="M136 272H120C107 272 96 283 96 296S107 320 120 320H136C149 320 160 309 160 296S149 272 136 272ZM296 272H216C203 272 192 283 192 296S203 320 216 320H296C309 320 320 309 320 296S309 272 296 272ZM120 240H216C229 240 240 229 240 216S229 192 216 192H120C107 192 96 203 96 216S107 240 120 240ZM392 272H376C363 272 352 283 352 296S363 320 376 320H392C405 320 416 309 416 296S405 272 392 272ZM392 192H296C283 192 272 203 272 216S283 240 296 240H392C405 240 416 229 416 216S405 192 392 192ZM448 0H64C29 0 0 29 0 64V352C0 387 29 416 64 416H160V500C160 510 171 515 179 510L304 416H448C483 416 512 387 512 352V64C512 29 483 0 448 0ZM464 352C464 361 457 368 448 368H288L208 428V368H64C55 368 48 361 48 352V64C48 55 55 48 64 48H448C457 48 464 55 464 64V352Z"/></svg>