<svg xmlns="http://www.w3.org/2000/svg" viewBox="0 0 512 512"><!-- Font Awesome Pro 6.0.0-alpha1 by @fontawesome - https://fontawesome.com License - https://fontawesome.com/license (Commercial License) --><path d="M176 160C194 160 208 146 208 128S194 96 176 96S144 110 144 128S158 160 176 160ZM312 135C309 131 304 128 299 128S288 131 285 135L232 215L220 199C217 194 212 192 207 192S197 194 194 199L147 263C144 267 143 274 146 279C148 285 154 288 160 288H384C390 288 395 285 398 280C401 274 401 268 397 263L312 135ZM448 0H64C29 0 0 29 0 64V352C0 387 29 416 64 416H160V500C160 510 171 515 179 510L304 416H448C483 416 512 387 512 352V64C512 29 483 0 448 0ZM464 352C464 361 457 368 448 368H288L208 428V368H64C55 368 48 361 48 352V64C48 55 55 48 64 48H448C457 48 464 55 464 64V352Z"/></svg>