<svg xmlns="http://www.w3.org/2000/svg" viewBox="0 0 512 512"><!-- Font Awesome Pro 6.0.0-alpha1 by @fontawesome - https://fontawesome.com License - https://fontawesome.com/license (Commercial License) --><path d="M146 176C128 176 114 190 114 208S128 240 146 240S178 226 178 208S163 176 146 176ZM258 176C240 176 226 190 226 208S240 240 258 240C275 240 290 226 290 208S275 176 258 176ZM370 176C352 176 338 190 338 208S352 240 370 240S402 226 402 208S387 176 370 176ZM448 0H64C29 0 0 29 0 64V352C0 387 29 416 64 416H160V500C160 510 171 515 179 510L304 416H448C483 416 512 387 512 352V64C512 29 483 0 448 0ZM464 352C464 361 457 368 448 368H288L208 428V368H64C55 368 48 361 48 352V64C48 55 55 48 64 48H448C457 48 464 55 464 64V352Z"/></svg>