<svg xmlns="http://www.w3.org/2000/svg" viewBox="0 0 512 512"><!-- Font Awesome Pro 6.0.0-alpha1 by @fontawesome - https://fontawesome.com License - https://fontawesome.com/license (Commercial License) --><path d="M324 140C314 131 299 131 290 140L256 174L222 140C213 131 197 131 188 140S179 165 188 174L222 208L188 242C179 251 179 267 188 276S213 285 222 276L256 242L290 276C299 285 315 285 324 276S333 251 324 242L290 208L324 174C333 165 333 149 324 140ZM448 0H64C29 0 0 29 0 64V352C0 387 29 416 64 416H160V500C160 510 171 515 179 510L304 416H448C483 416 512 387 512 352V64C512 29 483 0 448 0ZM464 352C464 361 457 368 448 368H288L208 428V368H64C55 368 48 361 48 352V64C48 55 55 48 64 48H448C457 48 464 55 464 64V352Z"/></svg>