<svg xmlns="http://www.w3.org/2000/svg" viewBox="0 0 512 512"><!-- Font Awesome Pro 6.0.0-alpha1 by @fontawesome - https://fontawesome.com License - https://fontawesome.com/license (Commercial License) --><path d="M511 43C502 71 481 137 458 196C469 200 477 208 481 218C484 229 484 240 479 250C457 292 399 396 342 453C264 532 137 532 59 453C-20 375 -20 248 59 170C116 113 220 55 262 33C272 28 283 28 294 31S312 43 316 54C374 31 441 10 469 1C481 -2 494 1 502 10C511 18 514 31 511 43ZM393 227L404 202C425 154 444 94 457 55C418 68 358 87 310 108L285 119L278 93C277 89 275 85 274 81C234 102 142 154 93 204C33 263 33 360 93 419C121 448 160 464 200 464C241 464 280 448 308 419C357 371 407 282 431 238C427 237 423 236 419 234L393 227ZM312 312C312 374 262 424 200 424S88 374 88 312S138 200 200 200C262 200 312 250 312 312ZM200 288C200 275 189 264 176 264S152 275 152 288S163 312 176 312C182 312 189 309 193 305C197 300 200 294 200 288ZM232 360C232 351 225 344 216 344C207 344 200 351 200 360S207 376 216 376C225 376 232 369 232 360Z"/></svg>