<svg xmlns="http://www.w3.org/2000/svg" viewBox="0 0 384 512"><!-- Font Awesome Pro 6.0.0-alpha1 by @fontawesome - https://fontawesome.com License - https://fontawesome.com/license (Commercial License) --><path d="M344 192L344 192C331 192 320 203 320 216V256C320 331 255 391 179 383C113 377 64 317 64 250V216C64 203 53 192 40 192H40C27 192 16 203 16 216V248C16 338 80 418 168 430V464H120C107 464 96 475 96 488V488C96 501 107 512 120 512H264C277 512 288 501 288 488V488C288 475 277 464 264 464H216V430C302 418 368 345 368 256V216C368 203 357 192 344 192ZM192 352C245 352 288 309 288 256V96C288 43 245 0 192 0S96 43 96 96V256C96 309 139 352 192 352ZM144 96C144 70 166 48 192 48S240 70 240 96V256C240 282 218 304 192 304S144 282 144 256V96Z"/></svg>