<svg xmlns="http://www.w3.org/2000/svg" viewBox="0 0 576 512"><!-- Font Awesome Pro 6.0.0-alpha1 by @fontawesome - https://fontawesome.com License - https://fontawesome.com/license (Commercial License) --><path d="M384 128H128C110 128 96 142 96 160V320C96 338 110 352 128 352H384C402 352 416 338 416 320V160C416 142 402 128 384 128ZM472 224C459 224 448 235 448 248C448 261 459 272 472 272S496 261 496 248C496 235 485 224 472 224ZM512 32H64C29 32 0 61 0 96V384C0 419 29 448 64 448V456C64 469 75 480 88 480S112 469 112 456V448H464V456C464 469 475 480 488 480S512 469 512 456V448C547 448 576 419 576 384V96C576 61 547 32 512 32ZM528 384C528 393 521 400 512 400H64C55 400 48 393 48 384V96C48 87 55 80 64 80H512C521 80 528 87 528 96V384ZM472 144C459 144 448 155 448 168C448 181 459 192 472 192S496 181 496 168C496 155 485 144 472 144Z"/></svg>