<svg xmlns="http://www.w3.org/2000/svg" viewBox="0 0 512 512"><!-- Font Awesome Pro 6.0.0-alpha1 by @fontawesome - https://fontawesome.com License - https://fontawesome.com/license (Commercial License) --><path d="M312 224H448C461 224 473 216 478 204C483 192 480 178 471 169L424 122L505 41C514 32 514 16 505 7S480 -2 471 7L390 88L343 41C337 35 328 32 320 32C316 32 312 33 308 34C296 39 288 51 288 64V200C288 213 299 224 312 224ZM200 288H64C51 288 39 296 34 308C29 320 32 333 41 343L88 390L7 471C-2 480 -2 496 7 505C12 510 18 512 24 512S36 510 41 505L122 424L169 471C176 477 184 480 192 480C196 480 200 479 204 478C216 473 224 461 224 448V312C224 299 213 288 200 288ZM204 34C200 33 196 32 192 32C184 32 176 35 169 41L122 88L41 7C32 -2 16 -2 7 7S-2 32 7 41L88 122L41 169C35 175 32 184 32 192C32 196 33 200 34 204C39 216 51 224 64 224H200C213 224 224 213 224 200V64C224 51 216 39 204 34ZM424 390L471 343C480 333 482 320 478 308C473 296 461 288 448 288H312C299 288 288 299 288 312V448C288 461 296 473 308 478C312 479 316 480 320 480C328 480 337 477 343 471L390 424L471 505C476 510 482 512 488 512S500 510 505 505C514 496 514 480 505 471L424 390Z"/></svg>