<svg xmlns="http://www.w3.org/2000/svg" viewBox="0 0 384 512"><!-- Font Awesome Pro 6.0.0-alpha1 by @fontawesome - https://fontawesome.com License - https://fontawesome.com/license (Commercial License) --><path d="M240 400H144C135 400 128 407 128 416S135 432 144 432H240C249 432 256 425 256 416S249 400 240 400ZM304 0H80C45 0 16 29 16 64V448C16 483 45 512 80 512H304C339 512 368 483 368 448V64C368 29 339 0 304 0ZM320 448C320 457 313 464 304 464H80C71 464 64 457 64 448V64C64 55 71 48 80 48H128V80C128 89 135 96 144 96H240C249 96 256 89 256 80V48H304C313 48 320 55 320 64V448Z"/></svg>