<svg xmlns="http://www.w3.org/2000/svg" viewBox="0 0 384 512"><!-- Font Awesome Pro 6.0.0-alpha1 by @fontawesome - https://fontawesome.com License - https://fontawesome.com/license (Commercial License) --><path d="M304 0H80C45 0 16 29 16 64V448C16 483 45 512 80 512H304C339 512 368 483 368 448V64C368 29 339 0 304 0ZM320 448C320 457 313 464 304 464H80C71 464 64 457 64 448V368H320V448ZM320 320H64V64C64 55 71 48 80 48H304C313 48 320 55 320 64V320ZM192 440C205 440 216 429 216 416C216 403 205 392 192 392S168 403 168 416C168 429 179 440 192 440Z"/></svg>