<svg xmlns="http://www.w3.org/2000/svg" viewBox="0 0 384 512"><!-- Font Awesome Pro 6.0.0-alpha1 by @fontawesome - https://fontawesome.com License - https://fontawesome.com/license (Commercial License) --><path d="M304 0H80C45 0 16 29 16 64V448C16 483 45 512 80 512H304C339 512 368 483 368 448V64C368 29 339 0 304 0ZM320 448C320 457 313 464 304 464H80C71 464 64 457 64 448V64C64 55 71 48 80 48H304C313 48 320 55 320 64V448ZM224 400H160C151 400 144 407 144 416S151 432 160 432H224C233 432 240 425 240 416S233 400 224 400Z"/></svg>