<svg xmlns="http://www.w3.org/2000/svg" viewBox="0 0 576 512"><!-- Font Awesome Pro 6.0.0-alpha1 by @fontawesome - https://fontawesome.com License - https://fontawesome.com/license (Commercial License) --><path d="M149 237L144 235C120 228 121 225 122 221C123 213 138 211 152 213C157 214 163 216 169 218C180 222 191 216 195 206C198 195 193 184 182 180C175 178 170 176 164 175V164C164 153 155 144 144 144S124 153 124 164V174C102 179 86 193 82 214C75 257 115 268 133 274L138 275C168 284 167 286 166 291C165 299 150 301 136 299C129 298 120 295 112 292L108 290C98 287 86 292 83 302S84 324 95 328L99 329C107 332 115 335 124 337V348C124 359 133 368 144 368S164 359 164 348V337C186 333 202 319 206 298C213 255 172 243 149 237ZM512 64H64C29 64 0 93 0 128V384C0 419 29 448 64 448H512C547 448 576 419 576 384V128C576 93 547 64 512 64ZM528 384C528 393 521 400 512 400H64C55 400 48 393 48 384V128C48 119 55 112 64 112H512C521 112 528 119 528 128V384ZM456 184H280C267 184 256 195 256 208S267 232 280 232H456C469 232 480 221 480 208S469 184 456 184ZM328 280H280C267 280 256 291 256 304S267 328 280 328H328C341 328 352 317 352 304S341 280 328 280ZM456 280H408C395 280 384 291 384 304S395 328 408 328H456C469 328 480 317 480 304S469 280 456 280Z"/></svg>