<svg xmlns="http://www.w3.org/2000/svg" viewBox="0 0 576 512"><!-- Font Awesome Pro 6.0.0-alpha1 by @fontawesome - https://fontawesome.com License - https://fontawesome.com/license (Commercial License) --><path d="M512 64H64C29 64 0 93 0 128V384C0 419 29 448 64 448H512C547 448 576 419 576 384V128C576 93 547 64 512 64ZM528 336C493 336 464 365 464 400H112C112 365 83 336 48 336V176C83 176 112 147 112 112H464C464 147 493 176 528 176V336ZM368 256C368 309 332 352 288 352S208 309 208 256C208 203 244 160 288 160S368 203 368 256Z"/></svg>