<svg xmlns="http://www.w3.org/2000/svg" viewBox="0 0 576 512"><!-- Font Awesome Pro 6.0.0-alpha1 by @fontawesome - https://fontawesome.com License - https://fontawesome.com/license (Commercial License) --><path d="M336 300V324C336 330 330 336 324 336H252C246 336 240 330 240 324V300C240 294 246 288 252 288H264V224H252C248 224 244 222 242 218C240 214 239 210 241 206L254 183C256 179 259 176 264 176H300C306 176 312 182 312 188V288H324C330 288 336 294 336 300ZM576 128V384C576 419 547 448 512 448H64C29 448 0 419 0 384V128C0 93 29 64 64 64H512C547 64 576 93 576 128ZM528 176C493 176 464 147 464 112H112C112 147 83 176 48 176V336C83 336 112 365 112 400H464C464 365 493 336 528 336V176Z"/></svg>