<svg xmlns="http://www.w3.org/2000/svg" viewBox="0 0 576 512"><!-- Font Awesome Pro 6.0.0-alpha1 by @fontawesome - https://fontawesome.com License - https://fontawesome.com/license (Commercial License) --><path d="M512 64H64C29 64 0 93 0 128V384C0 419 29 448 64 448H512C547 448 576 419 576 384V128C576 93 547 64 512 64ZM528 384C528 393 521 400 512 400H64C55 400 48 393 48 384V128C48 119 55 112 64 112H512C521 112 528 119 528 128V384ZM368 256C368 309 332 352 288 352S208 309 208 256C208 203 244 160 288 160S368 203 368 256Z"/></svg>