<svg xmlns="http://www.w3.org/2000/svg" viewBox="0 0 384 512"><!-- Font Awesome Pro 6.0.0-alpha1 by @fontawesome - https://fontawesome.com License - https://fontawesome.com/license (Commercial License) --><path d="M360 464H334L289 101C288 93 285 86 280 81L203 5C200 2 196 0 192 0C188 0 184 2 181 5L104 81C99 86 96 93 95 101L50 464H24C11 464 0 475 0 488V488C0 501 11 512 24 512H360C373 512 384 501 384 488V488C384 475 373 464 360 464ZM98 464L142 111L192 61L242 111L286 464H98ZM216 272H168C155 272 144 283 144 296V296C144 309 155 320 168 320H216C229 320 240 309 240 296V296C240 283 229 272 216 272Z"/></svg>