<svg xmlns="http://www.w3.org/2000/svg" viewBox="0 0 512 512"><!-- Font Awesome Pro 6.0.0-alpha1 by @fontawesome - https://fontawesome.com License - https://fontawesome.com/license (Commercial License) --><path d="M310 390C278 396 246 387 222 367C197 346 182 316 182 284C182 245 203 209 237 190C249 184 255 171 253 157C250 144 240 134 227 131C171 121 113 136 69 172C25 209 0 263 0 320C0 426 86 512 192 512C250 512 304 486 341 441C349 431 350 416 343 404C337 393 323 387 310 390ZM192 464C113 464 48 399 48 320C48 277 67 237 100 209C122 191 149 180 177 177C150 205 135 244 135 284C135 330 155 374 191 404C215 424 243 435 273 439C250 455 221 464 192 464ZM288 64L300 94C301 95 303 96 304 96S307 95 308 94L320 64L350 52C351 51 352 49 352 48C352 47 351 45 350 44L320 32L308 2C307 1 305 0 304 0S301 1 300 2L288 32L258 44C257 45 256 47 256 48C256 49 257 51 258 52L288 64ZM508 217L448 192L423 132C422 130 419 128 416 128S410 130 409 132L384 192L324 217C322 218 320 221 320 224S322 230 324 231L384 256L409 316C410 318 413 320 416 320S422 318 423 316L448 256L508 231C510 230 512 227 512 224S510 218 508 217Z"/></svg>