<svg xmlns="http://www.w3.org/2000/svg" viewBox="0 0 512 512"><!-- Font Awesome Pro 6.0.0-alpha1 by @fontawesome - https://fontawesome.com License - https://fontawesome.com/license (Commercial License) --><path d="M488 192H24C11 192 0 203 0 216S11 240 24 240H32C32 319 74 392 141 432C132 450 128 468 128 488C128 501 139 512 152 512H360C373 512 384 501 384 488C384 468 380 450 371 432C438 392 480 319 480 240H488C501 240 512 229 512 216S501 192 488 192ZM327 401C320 404 315 410 313 417C311 425 313 432 318 438C324 446 329 455 332 464H180C183 455 188 446 194 438C199 432 201 425 199 417C197 410 192 404 185 401C121 373 80 310 80 240H432C432 310 391 373 327 401ZM504 42C514 34 515 19 506 8S483 -3 472 6L291 160H365L504 42Z"/></svg>