<svg xmlns="http://www.w3.org/2000/svg" viewBox="0 0 640 512"><!-- Font Awesome Pro 6.0.0-alpha1 by @fontawesome - https://fontawesome.com License - https://fontawesome.com/license (Commercial License) --><path d="M622 273C633 258 640 241 640 222C640 169 592 133 538 104C475 69 438 26 417 5C408 -5 392 -5 383 5C362 26 325 69 262 104C242 114 224 126 208 138V118C208 53 140 12 114 0C108 -3 100 -3 94 0C68 12 0 53 0 118V486C0 499 11 510 24 510S48 499 48 486V190H160V486C160 499 171 510 184 510S208 499 208 486V318H592V486C592 499 603 510 616 510S640 499 640 486V302C640 289 633 279 622 273ZM160 142H48V118C48 88 81 64 104 51C127 64 160 88 160 118V142ZM529 270H271C237 270 208 248 208 222C208 199 232 175 285 146C330 121 368 95 400 66C432 95 470 121 515 146C568 175 592 199 592 222C592 248 563 270 529 270ZM285 382C268 383 256 398 256 415V486C256 499 267 510 280 510H296C309 510 320 499 320 486V414C320 395 304 380 285 382ZM400 350C400 350 352 374 352 422V486C352 499 363 510 376 510H424C437 510 448 499 448 486V422C448 374 400 350 400 350ZM509 382C492 383 480 398 480 415V486C480 499 491 510 504 510H520C533 510 544 499 544 486V414C544 395 528 380 509 382Z"/></svg>