<svg xmlns="http://www.w3.org/2000/svg" viewBox="0 0 512 512"><!-- Font Awesome Pro 6.0.0-alpha1 by @fontawesome - https://fontawesome.com License - https://fontawesome.com/license (Commercial License) --><path d="M503 394L280 44C275 36 265 32 256 32C247 32 237 36 232 44L9 394C-2 411 -3 433 7 451C17 469 36 480 56 480H456C476 480 495 469 505 451C515 433 514 411 503 394ZM256 96L328 208H256C248 208 241 212 237 218L208 256L179 217L256 96ZM463 428C462 430 459 432 456 432H56C53 432 50 430 49 428C48 425 48 422 49 420L151 260L189 310C193 316 200 320 208 320S223 316 227 310L268 256H358L463 420C464 422 464 425 463 428Z"/></svg>