<svg xmlns="http://www.w3.org/2000/svg" viewBox="0 0 576 512"><!-- Font Awesome Pro 6.0.0-alpha1 by @fontawesome - https://fontawesome.com License - https://fontawesome.com/license (Commercial License) --><path d="M384 320H410C477 320 537 271 543 205C551 128 491 64 416 64H16C7 64 0 71 0 80V352C0 405 43 448 96 448H288C341 448 384 405 384 352V320ZM384 112H416C460 112 496 148 496 192S460 272 416 272H384V112ZM336 352C336 378 314 400 288 400H96C70 400 48 378 48 352V112H120V152L89 183C83 189 80 197 80 205V256C80 274 94 288 112 288H160C178 288 192 274 192 256V205C192 197 189 189 183 183L152 152V112H336V352Z"/></svg>