<svg xmlns="http://www.w3.org/2000/svg" viewBox="0 0 640 512"><!-- Font Awesome Pro 6.0.0-alpha1 by @fontawesome - https://fontawesome.com License - https://fontawesome.com/license (Commercial License) --><path d="M631 469L559 413C567 402 573 390 575 377C576 374 576 371 576 369V32C576 14 562 0 544 0C541 0 538 1 534 2L230 98C217 102 208 114 208 128V138L39 5C28 -3 13 -1 5 9C-3 20 -1 35 9 43L601 507C606 510 611 512 616 512C623 512 630 509 635 503C643 492 641 477 631 469ZM521 383L464 338C469 337 474 336 480 336C508 336 528 353 528 368C528 373 526 378 521 383ZM528 299C513 292 497 288 480 288C458 288 438 294 421 305L329 233L528 170V299ZM528 120L284 197L256 175V140L528 54V120ZM208 363C193 356 177 352 160 352C107 352 64 388 64 432S107 512 160 512C209 512 250 481 255 441C256 438 256 435 256 432V297L208 259V363ZM160 464C132 464 112 447 112 432S132 400 160 400S208 417 208 432S188 464 160 464Z"/></svg>