<svg xmlns="http://www.w3.org/2000/svg" viewBox="0 0 384 512"><!-- Font Awesome Pro 6.0.0-alpha1 by @fontawesome - https://fontawesome.com License - https://fontawesome.com/license (Commercial License) --><path d="M342 1L198 37C185 41 176 53 176 67V366C158 357 136 352 112 352C50 352 0 388 0 432S50 512 112 512S224 476 224 432V195L362 162C375 158 384 145 384 131V32C384 22 379 12 371 6C363 0 352 -2 342 1ZM112 464C72 464 48 443 48 432C48 421 72 400 112 400S176 421 176 432C176 443 152 464 112 464ZM336 120L224 145V79L336 54V120Z"/></svg>