<svg xmlns="http://www.w3.org/2000/svg" viewBox="0 0 448 512"><!-- Font Awesome Pro 6.0.0-alpha1 by @fontawesome - https://fontawesome.com License - https://fontawesome.com/license (Commercial License) --><path d="M424 264H384V56C384 43 373 32 360 32S336 43 336 56V264H258L108 42C102 34 91 30 81 33C71 36 64 45 64 56V264H24C11 264 0 275 0 288S11 312 24 312H64V456C64 469 75 480 88 480S112 469 112 456V312H233L340 470C345 476 352 480 360 480C362 480 365 480 367 479C377 476 384 467 384 456V312H424C437 312 448 301 448 288S437 264 424 264ZM112 264V134L200 264H112ZM336 378L291 312H336V378Z"/></svg>