<svg xmlns="http://www.w3.org/2000/svg" viewBox="0 0 640 512"><!-- Font Awesome Pro 6.0.0-alpha1 by @fontawesome - https://fontawesome.com License - https://fontawesome.com/license (Commercial License) --><path d="M608 320H536V280H616C629 280 640 269 640 256C640 243 629 232 616 232H344V192H416C434 192 448 178 448 160V32C448 14 434 0 416 0H224C206 0 192 14 192 32V160C192 178 206 192 224 192H296V232H24C11 232 0 243 0 256C0 269 11 280 24 280H104V320H32C14 320 0 334 0 352V480C0 498 14 512 32 512H224C242 512 256 498 256 480V352C256 334 242 320 224 320H152V280H488V320H416C398 320 384 334 384 352V480C384 498 398 512 416 512H608C626 512 640 498 640 480V352C640 334 626 320 608 320ZM208 368V464H48V368H208ZM240 144V48H400V144H240ZM592 464H432V368H592V464Z"/></svg>