<svg xmlns="http://www.w3.org/2000/svg" viewBox="0 0 512 512"><!-- Font Awesome Pro 6.0.0-alpha1 by @fontawesome - https://fontawesome.com License - https://fontawesome.com/license (Commercial License) --><path d="M456 32H152C121 32 96 57 96 88V408C96 421 85 432 72 432S48 421 48 408V112C48 99 37 88 24 88S0 99 0 112V408C0 448 32 480 72 480H424C473 480 512 441 512 392V88C512 57 487 32 456 32ZM464 392C464 414 446 432 424 432H140C143 425 144 416 144 408V88C144 84 148 80 152 80H456C460 80 464 84 464 88V392ZM264 272H200C187 272 176 283 176 296S187 320 200 320H264C277 320 288 309 288 296S277 272 264 272ZM408 272H344C331 272 320 283 320 296S331 320 344 320H408C421 320 432 309 432 296S421 272 408 272ZM264 352H200C187 352 176 363 176 376S187 400 200 400H264C277 400 288 389 288 376S277 352 264 352ZM408 352H344C331 352 320 363 320 376S331 400 344 400H408C421 400 432 389 432 376S421 352 408 352ZM400 112H208C190 112 176 126 176 144V208C176 226 190 240 208 240H400C418 240 432 226 432 208V144C432 126 418 112 400 112Z"/></svg>