<svg xmlns="http://www.w3.org/2000/svg" viewBox="0 0 448 512"><!-- Font Awesome Pro 6.0.0-alpha1 by @fontawesome - https://fontawesome.com License - https://fontawesome.com/license (Commercial License) --><path d="M384 32H64C29 32 0 61 0 96L0 416C0 451 29 480 64 480H296C322 480 346 470 364 452L420 396C438 378 448 354 448 328V96C448 61 419 32 384 32ZM53 427C51 426 48 422 48 416L48 96C48 87 55 80 64 80H384C393 80 400 87 400 96V288H312C281 288 256 313 256 344V432H64C58 432 54 429 53 427ZM330 418C323 425 314 430 304 431V344C304 340 308 336 312 336H399C398 346 393 355 386 362L330 418Z"/></svg>