<svg xmlns="http://www.w3.org/2000/svg" viewBox="0 0 512 512"><!-- Font Awesome Pro 6.0.0-alpha1 by @fontawesome - https://fontawesome.com License - https://fontawesome.com/license (Commercial License) --><path d="M512 112V64C512 46 498 32 480 32H432C414 32 400 46 400 64H112C112 46 98 32 80 32H32C14 32 0 46 0 64V112C0 130 14 144 32 144V368C14 368 0 382 0 400V448C0 466 14 480 32 480H80C98 480 112 466 112 448H400C400 466 414 480 432 480H480C498 480 512 466 512 448V400C512 382 498 368 480 368V144C498 144 512 130 512 112ZM72 440H40V408H72V440ZM72 104H40V72H72V104ZM432 368C414 368 400 382 400 400H112C112 382 98 368 80 368V144C98 144 112 130 112 112H400C400 130 414 144 432 144V368ZM472 440H440V408H472V440ZM472 104H440V72H472V104ZM288 256V176C288 158 274 144 256 144H144C126 144 112 158 112 176V256C112 274 126 288 144 288H256C274 288 288 274 288 256ZM248 248H152V184H248V248ZM368 224H320V264H360V328H264V320H224V336C224 354 238 368 256 368H368C386 368 400 354 400 336V256C400 238 386 224 368 224Z"/></svg>