<svg xmlns="http://www.w3.org/2000/svg" viewBox="0 0 512 512"><!-- Font Awesome Pro 6.0.0-alpha1 by @fontawesome - https://fontawesome.com License - https://fontawesome.com/license (Commercial License) --><path d="M483 157L355 29C346 21 335 16 323 16H189C177 16 166 21 157 29L29 157C21 166 16 177 16 189V323C16 335 21 346 29 355L157 483C166 491 177 496 189 496H323C335 496 346 491 355 483L483 355C491 346 496 335 496 323V189C496 177 491 166 483 157ZM448 322L322 448H190L64 322V190L190 64H322L448 190V322ZM256 222L205 171C196 162 181 162 171 171V171C162 181 162 196 171 205L222 256L171 307C162 316 162 331 171 341L171 341C181 350 196 350 205 341L256 290L307 341C316 350 331 350 341 341L341 341C350 331 350 316 341 307L290 256L341 205C350 196 350 181 341 171V171C331 162 316 162 307 171L256 222Z"/></svg>