<svg xmlns="http://www.w3.org/2000/svg" viewBox="0 0 512 512"><!-- Font Awesome Pro 6.0.0-alpha1 by @fontawesome - https://fontawesome.com License - https://fontawesome.com/license (Commercial License) --><path d="M483 157L355 29C346 21 335 16 323 16H189C177 16 166 21 157 29L29 157C21 166 16 177 16 189V323C16 335 21 346 29 355L157 483C166 491 177 496 189 496H323C335 496 346 491 355 483L483 355C491 346 496 335 496 323V189C496 177 491 166 483 157ZM448 322L322 448H190L64 322V190L190 64H322L448 190V322ZM280 160C280 147 269 136 256 136S232 147 232 160V232H160C147 232 136 243 136 256C136 269 147 280 160 280H232V352C232 365 243 376 256 376S280 365 280 352V280H352C365 280 376 269 376 256C376 243 365 232 352 232H280V160Z"/></svg>