<svg xmlns="http://www.w3.org/2000/svg" viewBox="0 0 640 512"><!-- Font Awesome Pro 6.0.0-alpha1 by @fontawesome - https://fontawesome.com License - https://fontawesome.com/license (Commercial License) --><path d="M638 168C635 163 630 160 624 160C623 160 622 160 621 160L451 198L401 168C393 163 383 160 373 160H288V112H328C341 112 352 101 352 88C352 75 341 64 328 64H184C171 64 160 75 160 88C160 101 171 112 184 112H224V160H48C22 160 0 182 0 208V272C0 291 11 309 29 316L96 346V374C96 397 118 416 144 416H401C415 416 428 411 437 401L636 187C641 182 641 174 638 168ZM96 293L48 272V208H96V293ZM403 367C403 368 402 368 401 368H144V208H373C375 208 375 208 376 209L426 239L442 249L461 245L531 229L403 367Z"/></svg>