<svg xmlns="http://www.w3.org/2000/svg" viewBox="0 0 640 512"><!-- Font Awesome Pro 6.0.0-alpha1 by @fontawesome - https://fontawesome.com License - https://fontawesome.com/license (Commercial License) --><path d="M496 72C487 72 480 79 480 88S487 104 496 104S512 97 512 88S505 72 496 72ZM576 32H566L558 23C543 8 523 0 501 0H481C467 0 453 4 441 10L291 96H272C158 96 64 189 64 304L64 369C28 373 0 403 0 440C0 480 32 512 72 512H232C245 512 256 501 256 488S245 464 232 464H72C59 464 48 453 48 440S59 416 72 416H305C331 416 353 394 353 368C353 349 346 331 334 317L348 310L388 390C396 406 413 416 431 416H529C555 416 577 394 577 368C577 324 541 288 497 288H480L461 249L492 233C503 227 515 224 528 224C590 224 640 174 640 112V96C640 61 611 32 576 32ZM528 176C507 176 487 181 470 190L466 192L483 171C492 159 506 152 521 152H578C566 166 548 176 528 176ZM592 112C592 115 591 117 591 120H521C496 120 472 132 457 151L398 227L399 228L397 229L451 336H497C515 336 529 350 529 368H431L369 244L195 336H272C290 336 304 350 304 368H112V304C112 216 184 144 272 144H304L465 52C470 50 475 48 481 48H501C510 48 518 51 524 57L547 80H576C585 80 592 87 592 96V112Z"/></svg>