<svg xmlns="http://www.w3.org/2000/svg" viewBox="0 0 512 512"><!-- Font Awesome Pro 6.0.0-alpha1 by @fontawesome - https://fontawesome.com License - https://fontawesome.com/license (Commercial License) --><path d="M296 304H224V352H296C309 352 320 341 320 328V328C320 315 309 304 296 304ZM96 328L96 328C96 341 107 352 120 352H192V304H120C107 304 96 315 96 328ZM392 160H120C107 160 96 171 96 184V232C96 245 107 256 120 256H392C405 256 416 245 416 232V184C416 171 405 160 392 160ZM448 64H64C29 64 0 93 0 128V384C0 419 29 448 64 448H448C483 448 512 419 512 384V128C512 93 483 64 448 64ZM464 384C464 393 457 400 448 400H64C55 400 48 393 48 384V128C48 119 55 112 64 112H448C457 112 464 119 464 128V384Z"/></svg>