<svg xmlns="http://www.w3.org/2000/svg" viewBox="0 0 576 512"><!-- Font Awesome Pro 6.0.0-alpha1 by @fontawesome - https://fontawesome.com License - https://fontawesome.com/license (Commercial License) --><path d="M135 231C147 227 160 224 174 223L184 213L163 191L223 131L245 153L279 119L179 19C166 6 150 0 134 0C117 0 101 6 88 19L51 56C26 81 26 122 51 147C74 169 103 199 135 231ZM499 339L456 296L422 330L465 373C467 375 469 378 469 381L486 454C461 449 431 442 413 438C410 437 408 436 406 434L361 389L350 401C349 413 346 425 341 437L372 468C380 476 391 482 402 485C440 494 525 512 525 512C526 512 527 512 528 512C538 512 546 503 544 493L516 370C513 358 507 347 499 339ZM553 22C539 8 519 0 499 0C478 0 459 8 444 22L194 270C147 268 118 295 109 303C86 327 74 360 77 393C77 400 75 406 71 411C66 417 57 420 46 420C21 420 0 441 0 466C0 491 21 512 46 512H97C154 512 231 504 271 463C293 442 304 411 303 380L553 131C568 117 576 97 576 77C576 56 568 37 553 22ZM237 429C215 451 164 464 97 464H73C86 460 98 453 106 443C120 429 126 409 124 389C123 370 130 351 143 337C168 313 194 319 206 320L254 368C256 389 256 410 237 429ZM520 97L322 293L281 252L478 56C483 51 491 48 499 48C507 48 514 51 520 56C525 62 528 69 528 77C528 84 525 92 520 97Z"/></svg>