<svg xmlns="http://www.w3.org/2000/svg" viewBox="0 0 640 512"><!-- Font Awesome Pro 6.0.0-alpha1 by @fontawesome - https://fontawesome.com License - https://fontawesome.com/license (Commercial License) --><path d="M592 64C588 64 583 65 578 66L578 66C494 91 407 104 320 104S146 91 62 66L62 66C57 65 52 64 48 64C22 64 0 85 0 112V432C0 459 22 480 48 480C52 480 57 479 62 478L62 478C146 453 233 440 320 440S494 453 578 478L578 478C583 479 588 480 592 480C618 480 640 459 640 432V112C640 85 618 64 592 64ZM592 432C570 426 549 420 527 415L383 201C379 195 373 192 367 192C360 192 354 195 350 201L271 319L244 280C240 275 234 272 227 272C221 272 215 275 211 280L114 415C92 420 70 425 48 432L48 112C136 139 228 152 320 152C412 152 504 139 592 112L592 432ZM144 176C126 176 112 190 112 208S126 240 144 240C162 240 176 226 176 208S162 176 144 176Z"/></svg>