<svg xmlns="http://www.w3.org/2000/svg" viewBox="0 0 384 512"><!-- Font Awesome Pro 6.0.0-alpha1 by @fontawesome - https://fontawesome.com License - https://fontawesome.com/license (Commercial License) --><path d="M352 128V336C352 438 264 521 160 511C68 503 0 422 0 330L0 216C0 203 11 192 24 192H24C37 192 48 203 48 216L48 331C48 397 102 460 168 464C242 468 304 409 304 336V132C304 90 273 52 231 48C184 44 144 81 144 128V336C144 355 161 371 181 368C197 365 208 350 208 334L208 152C208 139 219 128 232 128H232C245 128 256 139 256 152V332C256 374 225 412 183 416C136 420 96 383 96 336L96 133C96 67 150 4 216 0C290 -4 352 55 352 128Z"/></svg>