<svg xmlns="http://www.w3.org/2000/svg" viewBox="0 0 384 512"><!-- Font Awesome Pro 6.0.0-alpha1 by @fontawesome - https://fontawesome.com License - https://fontawesome.com/license (Commercial License) --><path d="M144 224H176L176 296C176 309 187 320 200 320S224 309 224 296V48H256V296C256 309 267 320 280 320S304 309 304 296V48H328C341 48 352 37 352 24C352 11 341 0 328 0H144C80 0 32 48 32 112S80 224 144 224ZM144 48H176V176H144C106 176 80 150 80 112S106 48 144 48ZM360 392H87L120 362C130 353 131 338 122 328C113 318 98 317 88 326L8 398C3 403 0 409 0 416S3 429 8 434L88 506C93 510 98 512 104 512C111 512 117 509 122 504C131 494 130 479 120 470L87 440H360C373 440 384 429 384 416S373 392 360 392Z"/></svg>