<svg xmlns="http://www.w3.org/2000/svg" viewBox="0 0 448 512"><!-- Font Awesome Pro 6.0.0-alpha1 by @fontawesome - https://fontawesome.com License - https://fontawesome.com/license (Commercial License) --><path d="M384 0H64C29 0 0 29 0 64V448C0 483 29 512 64 512H384C419 512 448 483 448 448V64C448 29 419 0 384 0ZM400 448C400 457 393 464 384 464H64C55 464 48 457 48 448V64C48 55 55 48 64 48H384C393 48 400 55 400 64V448ZM336 384H112C103 384 96 391 96 400S103 416 112 416H336C345 416 352 409 352 400S345 384 336 384ZM224 328C290 328 344 274 344 208S290 88 224 88S104 142 104 208S158 328 224 328ZM310 192H276C274 168 270 147 263 130C288 142 305 165 310 192ZM276 224H310C305 251 287 274 263 286C270 269 274 248 276 224ZM224 122C231 131 242 155 244 192H204C206 155 217 131 224 122ZM244 224C242 261 231 285 224 294C217 285 206 261 204 224H244ZM185 130C178 147 174 168 172 192H138C143 165 160 142 185 130ZM172 224C174 248 178 269 185 286C161 274 143 251 138 224H172Z"/></svg>