<svg xmlns="http://www.w3.org/2000/svg" viewBox="0 0 512 512"><!-- Font Awesome Pro 6.0.0-alpha1 by @fontawesome - https://fontawesome.com License - https://fontawesome.com/license (Commercial License) --><path d="M503 199L441 137C435 131 427 128 419 128H256C221 128 192 157 192 192L192 448C192 483 221 512 256 512H448C483 512 512 483 512 448V221C512 213 509 205 503 199ZM464 448C464 457 457 464 448 464H256C247 464 240 457 240 448L240 192C240 183 247 176 256 176H384V224C384 242 398 256 416 256H464V448ZM318 96C311 68 286 48 256 48H215C211 21 188 0 160 0C132 0 109 21 105 48H64C29 48 0 77 0 112V384C0 419 29 448 64 448H160V400H64C55 400 48 393 48 384V112C48 103 55 96 64 96H80V112C80 130 94 144 112 144H173C190 115 221 96 256 96H318ZM160 72C151 72 144 65 144 56S151 40 160 40S176 47 176 56S169 72 160 72Z"/></svg>