<svg xmlns="http://www.w3.org/2000/svg" viewBox="0 0 512 512"><!-- Font Awesome Pro 6.0.0-alpha1 by @fontawesome - https://fontawesome.com License - https://fontawesome.com/license (Commercial License) --><path d="M256 256C175 256 64 364 64 443C64 485 98 512 151 512C198 512 227 492 256 492C285 492 315 512 361 512C414 512 448 485 448 443C448 364 337 256 256 256ZM361 464C323 464 295 444 256 444C217 444 189 464 151 464C136 464 112 461 112 443C112 395 198 304 256 304S400 395 400 443C400 461 376 464 361 464ZM493 190L448 128V195C428 202 410 219 403 243C393 278 408 312 437 319C467 326 499 302 509 269C518 239 507 209 493 190ZM318 223C359 233 388 187 396 159C404 128 399 98 384 80L320 0V75C304 86 290 105 284 129C272 173 288 214 318 223ZM109 243C102 219 84 202 64 195V128L19 190C5 209 -6 239 3 269C13 302 45 326 75 319C104 312 119 278 109 243ZM194 223C224 214 240 173 228 129C222 105 208 86 192 75V0L128 80C113 98 108 128 116 159C124 187 153 233 194 223Z"/></svg>