<svg xmlns="http://www.w3.org/2000/svg" viewBox="0 0 512 512"><!-- Font Awesome Pro 6.0.0-alpha1 by @fontawesome - https://fontawesome.com License - https://fontawesome.com/license (Commercial License) --><path d="M256 16C123 16 16 123 16 256S123 496 256 496S496 389 496 256S389 16 256 16ZM448 256C448 293 437 327 420 356L280 244V66C375 78 448 158 448 256ZM232 446C190 441 152 422 122 394L232 306V446ZM280 306L390 394C360 422 322 441 280 446V306ZM232 66V244L92 356C75 327 64 293 64 256C64 158 137 78 232 66Z"/></svg>