<svg xmlns="http://www.w3.org/2000/svg" viewBox="0 0 512 512"><!-- Font Awesome Pro 6.0.0-alpha1 by @fontawesome - https://fontawesome.com License - https://fontawesome.com/license (Commercial License) --><path d="M493 70L456 32C431 7 390 7 365 32L321 77L296 51C274 29 238 29 216 51L111 157C102 166 102 181 111 191C116 195 122 198 128 198S140 195 145 191L250 85C254 82 259 82 262 85L287 111L94 304C48 350 0 434 0 499C-1 513 10 526 24 526C30 526 135 519 222 432L493 160C518 135 518 95 493 70ZM188 398C151 435 104 461 53 472C65 422 91 375 128 338L320 146L380 206L188 398Z"/></svg>