<svg xmlns="http://www.w3.org/2000/svg" viewBox="0 0 576 512"><!-- Font Awesome Pro 6.0.0-alpha1 by @fontawesome - https://fontawesome.com License - https://fontawesome.com/license (Commercial License) --><path d="M154 194L56 97C51 92 48 84 48 77C48 69 51 62 56 57C62 51 69 48 77 48C85 48 93 51 98 56L195 153L229 119L132 22C117 8 98 0 77 0C57 0 37 8 23 22C8 37 0 56 0 77C0 97 8 117 23 131L120 228L154 194ZM530 420C519 420 510 417 505 411C501 406 499 400 499 393C502 360 490 327 467 303C462 298 456 294 450 290L415 325C421 328 428 332 433 337C446 351 453 370 452 389C450 409 456 429 470 443C478 453 490 460 503 464H479C412 464 361 451 339 429C334 424 330 419 328 412L292 447C296 453 300 458 305 463C345 504 422 512 479 512H530C555 512 576 491 576 466C576 441 555 420 530 420ZM525 56L488 19C475 6 459 0 442 0C426 0 410 6 397 19L77 339C69 347 63 358 60 370L32 493C30 503 38 512 48 512C49 512 50 512 51 512C51 512 136 494 174 485C185 482 196 476 204 468C253 419 439 233 525 147C550 122 550 81 525 56ZM170 434C168 436 166 437 163 438C145 442 115 449 90 454L107 381C107 378 109 375 111 373L345 139L405 199L170 434Z"/></svg>