<svg xmlns="http://www.w3.org/2000/svg" viewBox="0 0 512 512"><!-- Font Awesome Pro 6.0.0-alpha1 by @fontawesome - https://fontawesome.com License - https://fontawesome.com/license (Commercial License) --><path d="M343 152C338 147 331 144 324 144S309 147 304 152L180 276C176 280 173 285 172 290L160 344C159 348 163 352 167 352C167 352 168 352 168 352C168 352 205 344 222 340C227 339 232 336 235 333C257 311 322 246 360 208C371 197 371 179 360 168L343 152ZM256 16C123 16 16 123 16 256S123 496 256 496S496 389 496 256S389 16 256 16ZM256 448C150 448 64 362 64 256S150 64 256 64S448 150 448 256S362 448 256 448Z"/></svg>