<svg xmlns="http://www.w3.org/2000/svg" viewBox="0 0 640 512"><!-- Font Awesome Pro 6.0.0-alpha1 by @fontawesome - https://fontawesome.com License - https://fontawesome.com/license (Commercial License) --><path d="M192 320C192 338 206 352 224 352S256 338 256 320S242 288 224 288S192 302 192 320ZM528 327C528 327 528 327 528 327V448C528 457 521 464 512 464H64C55 464 48 457 48 448V192C48 183 55 176 64 176H286L334 128H64C29 128 0 157 0 192V448C0 483 29 512 64 512H512C547 512 576 483 576 448L576 242L528 290V327ZM96 320C96 338 110 352 128 352S160 338 160 320S146 288 128 288S96 302 96 320ZM622 40L600 18C588 6 572 0 556 0S524 6 512 18L315 215C309 221 305 228 304 237L289 312C287 322 289 332 296 340C302 348 311 352 321 352C324 352 326 352 328 351L403 336C412 335 419 331 425 324L622 128C634 116 640 101 640 84S634 52 622 40ZM588 94L393 290L340 300L351 247L546 52C549 49 552 48 556 48S563 49 566 52L588 74C591 77 592 80 592 84C592 88 591 91 588 94Z"/></svg>