<svg xmlns="http://www.w3.org/2000/svg" viewBox="0 0 512 512"><!-- Font Awesome Pro 6.0.0-alpha1 by @fontawesome - https://fontawesome.com License - https://fontawesome.com/license (Commercial License) --><path d="M435 273L401 307L417 322L385 353C379 360 379 370 385 376C389 379 393 381 397 381S405 379 408 376L439 345L464 369C464 369 464 370 464 371L371 464H369L307 401L273 435L335 498C345 507 357 512 370 512C383 512 395 507 405 498L498 405C517 386 517 354 498 335L435 273ZM77 239L111 205L48 143C48 143 48 142 48 141L141 48L142 48C143 48 143 48 143 48L167 73L136 104C130 110 130 120 136 127C139 130 143 131 147 131S156 130 159 127L190 95L205 111L239 77L177 14C167 5 155 0 142 0C130 0 117 5 107 14L14 107C-5 126 -5 158 14 177L77 239ZM493 56L456 19C443 6 427 0 410 0C394 0 378 6 365 19L45 339C37 347 31 358 28 370L0 493C-2 503 6 512 16 512C17 512 18 512 19 512C19 512 104 494 142 485C153 482 164 476 172 468C221 419 407 233 493 147C518 122 518 81 493 56ZM138 434C136 436 134 437 131 438C113 442 83 449 58 454L75 381C75 378 77 375 79 373L313 139L373 199L138 434Z"/></svg>