<svg xmlns="http://www.w3.org/2000/svg" viewBox="0 0 640 512"><!-- Font Awesome Pro 6.0.0-alpha1 by @fontawesome - https://fontawesome.com License - https://fontawesome.com/license (Commercial License) --><path d="M631 469L409 295L557 147C582 122 582 81 557 56L520 19C495 -6 454 -6 429 19L385 63L360 38C338 16 302 16 280 38L193 126L39 5C34 2 29 0 24 0C17 0 10 3 5 9C-3 20 -1 35 9 43L601 507C612 515 627 513 635 503C643 492 641 477 631 469ZM231 155L314 72C318 68 323 68 326 72L351 97L265 183L231 155ZM303 212L384 132L444 192L371 265L303 212ZM252 384C215 421 168 447 117 459C129 408 155 361 192 324L235 281L197 251L158 290C112 336 64 420 64 485C63 500 74 512 88 512C94 512 199 505 286 418L340 364L302 334L252 384Z"/></svg>