<svg xmlns="http://www.w3.org/2000/svg" viewBox="0 0 512 512"><!-- Font Awesome Pro 6.0.0-alpha1 by @fontawesome - https://fontawesome.com License - https://fontawesome.com/license (Commercial License) --><path d="M456 19C443 6 427 0 410 0C394 0 378 6 365 19L45 339C37 347 31 358 28 370L0 493C-2 503 6 512 16 512C17 512 18 512 19 512C19 512 104 494 142 485C153 482 164 476 172 468C221 419 407 233 493 147C518 122 518 81 493 56L456 19ZM138 434C136 436 134 437 131 438C113 442 83 449 58 454L75 381C75 378 77 375 79 373L321 131L381 191L138 434Z"/></svg>