<svg xmlns="http://www.w3.org/2000/svg" viewBox="0 0 512 512"><!-- Font Awesome Pro 6.0.0-alpha1 by @fontawesome - https://fontawesome.com License - https://fontawesome.com/license (Commercial License) --><path d="M493 56L456 19C443 6 427 0 410 0C394 0 378 6 365 19L31 353C29 355 27 358 27 361L0 493C-2 503 6 512 16 512C17 512 18 512 19 512L151 485C154 485 157 483 159 481C159 481 489 151 493 147C518 122 518 81 493 56ZM132 440L57 455L72 380L96 356V416H156L132 440ZM144 368V308L321 131L381 191L204 368H144Z"/></svg>