<svg xmlns="http://www.w3.org/2000/svg" viewBox="0 0 640 512"><!-- Font Awesome Pro 6.0.0-alpha1 by @fontawesome - https://fontawesome.com License - https://fontawesome.com/license (Commercial License) --><path d="M631 469L409 295C464 240 520 184 557 147C582 122 582 81 557 56L520 19C507 6 491 0 474 0C458 0 442 6 429 19L265 183L39 5C34 2 29 0 24 0C17 0 10 3 5 9C-3 20 -1 35 9 43L601 507C612 515 627 513 635 503C643 492 641 477 631 469ZM303 212L385 131L445 191L371 265L303 212ZM302 334L268 368H208V308L235 281L197 251V251L95 353C93 355 91 358 91 361L64 493C62 503 70 512 80 512C81 512 82 512 83 512L215 485C218 485 221 483 223 481C223 481 276 428 340 364L340 364L302 334ZM196 440L121 455L136 380L160 356V416H220L196 440Z"/></svg>