<svg xmlns="http://www.w3.org/2000/svg" viewBox="0 0 512 512"><!-- Font Awesome Pro 6.0.0-alpha1 by @fontawesome - https://fontawesome.com License - https://fontawesome.com/license (Commercial License) --><path d="M466 132C486 94 484 46 459 10C455 4 447 0 440 0C435 0 430 1 426 4C415 12 413 27 420 38C433 57 435 81 427 101C403 88 377 80 348 80C313 80 278 92 249 115C243 120 240 128 240 136C241 143 245 151 252 155L297 182V272C297 285 307 296 321 296H412L445 342C450 348 457 352 465 352C465 352 465 352 465 352C473 352 480 348 485 341C503 313 512 281 512 248C512 203 494 162 466 132ZM419 361C420 362 422 364 423 365C356 438 232 512 73 512C33 512 0 479 0 438S33 364 73 364C145 364 176 296 205 231C214 212 222 195 231 179C232 180 234 181 235 182L265 200V218C259 228 254 239 249 251C216 323 176 412 73 412C59 412 48 424 48 438S59 463 73 463C218 463 331 394 389 331H398L419 361Z"/></svg>