<svg xmlns="http://www.w3.org/2000/svg" viewBox="0 0 512 512"><!-- Font Awesome Pro 6.0.0-alpha1 by @fontawesome - https://fontawesome.com License - https://fontawesome.com/license (Commercial License) --><path d="M400 96C426 96 448 74 448 48S426 0 400 0C373 0 352 22 352 48S373 96 400 96ZM511 190C508 177 496 168 483 170C470 173 461 185 463 198C467 217 457 237 441 246L169 386L219 264C220 263 221 262 221 261L343 151C352 141 355 128 350 116S333 96 320 96H136C123 96 112 107 112 120S123 144 136 144H250L181 233C180 235 179 235 175 246L122 375C117 386 122 399 133 405L13 467C1 473 -3 487 3 499C7 507 15 512 24 512C28 512 31 511 35 509L464 288C499 269 517 229 511 190Z"/></svg>