<svg xmlns="http://www.w3.org/2000/svg" viewBox="0 0 640 512"><!-- Font Awesome Pro 6.0.0-alpha1 by @fontawesome - https://fontawesome.com License - https://fontawesome.com/license (Commercial License) --><path d="M240 96C266 96 288 74 288 48S266 0 240 0S192 22 192 48S213 96 240 96ZM635 441C626 431 611 429 601 437C585 450 565 459 545 462L492 392L562 345C571 340 576 330 576 319V260C576 248 569 237 558 231L414 159L373 77C368 65 353 61 341 67C329 72 325 87 330 99L365 169L348 192H290L246 148C233 135 216 128 198 128C170 128 145 145 135 171L122 207C117 219 123 233 135 238C138 239 141 240 144 240C154 240 163 234 166 225L179 189C183 180 191 177 199 177C204 177 209 178 212 182L261 231C267 237 275 240 283 240H312L288 272H111C99 272 89 279 83 290L51 354C51 355 50 357 50 358C17 371 -5 405 1 444C7 484 44 512 84 512H236C267 512 298 495 312 466C323 443 322 419 313 400H438L486 464H440C427 464 416 475 416 488S427 512 440 512H525C563 512 601 499 631 475C641 466 643 451 635 441ZM240 464H80C62 464 48 450 48 432S62 400 80 400H240C258 400 272 414 272 432S258 464 240 464ZM465 352H106L122 320H312L398 205L528 270V310L465 352Z"/></svg>