<svg xmlns="http://www.w3.org/2000/svg" viewBox="0 0 256 512"><!-- Font Awesome Pro 6.0.0-alpha1 by @fontawesome - https://fontawesome.com License - https://fontawesome.com/license (Commercial License) --><path d="M249 343L204 183C200 169 187 160 173 160H83C68 160 56 169 52 183L6 343C0 364 16 384 37 384H64V488C64 501 75 512 88 512S112 501 112 488V384H144V488C144 501 155 512 168 512S192 501 192 488V384H219C240 384 255 364 249 343ZM58 336L95 208H161L197 336H58ZM128 128C163 128 192 99 192 64S163 0 128 0S64 29 64 64S92 128 128 128Z"/></svg>