<svg xmlns="http://www.w3.org/2000/svg" viewBox="0 0 384 512"><!-- Font Awesome Pro 6.0.0-alpha1 by @fontawesome - https://fontawesome.com License - https://fontawesome.com/license (Commercial License) --><path d="M80 96C106 96 128 74 128 48S106 0 80 0S32 22 32 48S54 96 80 96ZM368 96H208C199 96 192 103 192 112V240H158L126 162C118 142 97 128 75 128H56C25 128 0 153 0 184V286C0 294 3 316 21 330L98 391C103 395 107 402 109 409L129 493C131 505 143 515 157 511C170 508 178 495 175 483L154 390C151 377 144 366 134 358L96 328V215L118 268C123 280 135 288 148 288H368C377 288 384 281 384 272V112C384 103 377 96 368 96ZM336 240H240V144H336V240ZM0 488C0 501 11 512 24 512S48 501 48 488V392C36 383 1 354 0 354V488Z"/></svg>