<svg xmlns="http://www.w3.org/2000/svg" viewBox="0 0 576 512"><!-- Font Awesome Pro 6.0.0-alpha1 by @fontawesome - https://fontawesome.com License - https://fontawesome.com/license (Commercial License) --><path d="M556 384C535 380 514 369 497 351C488 342 472 342 463 351C443 372 414 384 384 384S325 372 305 351C296 342 280 342 271 351C251 372 222 384 192 384C160 384 124 370 105 351C96 342 80 342 71 351C52 371 39 381 20 384C7 387 -2 399 0 412C3 425 15 434 28 432C54 427 73 415 89 400C117 420 155 432 192 432C227 432 261 420 288 400C342 441 425 441 480 400C500 416 524 427 548 432C549 432 551 432 552 432C563 432 574 424 576 412C578 399 569 387 556 384ZM96 224C131 224 160 195 160 160C160 125 131 96 96 96S32 125 32 160C32 195 61 224 96 224ZM168 336C181 336 192 325 192 312C192 282 203 253 224 231L241 212C246 206 252 200 258 195L392 314C397 318 402 320 408 320C415 320 421 317 426 312C435 302 434 287 424 278L300 168C303 166 307 164 310 163C349 146 392 142 434 152L467 159C480 162 492 154 495 141S490 116 477 113L445 105C393 93 340 98 291 119C258 133 230 153 206 179L188 198C160 230 144 270 144 312C144 325 155 336 168 336Z"/></svg>