<svg xmlns="http://www.w3.org/2000/svg" viewBox="0 0 576 512"><!-- Font Awesome Pro 6.0.0-alpha1 by @fontawesome - https://fontawesome.com License - https://fontawesome.com/license (Commercial License) --><path d="M336 96C362 96 384 74 384 48S362 0 336 0S288 22 288 48S310 96 336 96ZM552 416C539 416 528 427 528 440S517 464 504 464H434L463 267C468 262 472 256 472 248C472 235 461 224 448 224H399L371 166C359 143 338 126 314 120L243 98C217 92 190 98 169 114L129 145C124 149 121 154 120 161C119 166 121 172 124 177L67 464H24C11 464 0 475 0 488S11 512 24 512H504C544 512 576 480 576 440C576 427 565 416 552 416ZM297 464H186L237 355L220 345C211 340 204 334 198 326L133 464H99L155 184C156 184 158 183 159 183L198 152C205 147 214 144 223 144C225 144 228 144 230 145L254 152L213 247C202 273 212 303 236 318L327 371L297 464ZM402 464H348L375 378C379 361 372 342 356 333L289 293L330 192L358 250C365 263 379 272 394 272H429L402 464Z"/></svg>