<svg xmlns="http://www.w3.org/2000/svg" viewBox="0 0 576 512"><!-- Font Awesome Pro 6.0.0-alpha1 by @fontawesome - https://fontawesome.com License - https://fontawesome.com/license (Commercial License) --><path d="M192 496C192 505 199 512 208 512H224C233 512 240 505 240 496V320H192V496ZM64 128C90 128 112 106 112 80S90 32 64 32S16 54 16 80S37 128 64 128ZM224 232H170L122 184C112 174 98 168 83 168H56C25 168 0 193 0 224L0 320L0 488C0 501 11 512 24 512S48 501 48 488L48 370C48 370 49 370 49 371C49 371 49 371 50 371L101 410C103 411 104 413 104 416V488C104 501 115 512 128 512C141 512 152 501 152 488V416C152 398 144 382 130 371L112 358V242L138 268C146 276 156 280 167 280H224C238 280 248 269 248 256C248 243 238 232 224 232ZM544 0H224C206 0 192 14 192 32V192H240V48L325 253C302 285 264 343 264 372C264 414 298 448 340 448C354 448 368 444 380 437C404 452 436 452 460 437C472 444 486 448 500 448C510 448 519 446 528 442V496C528 505 535 512 544 512H560C569 512 576 505 576 496V32C576 14 562 0 544 0ZM528 372C528 387 515 400 500 400C492 400 484 396 478 390C474 384 467 381 460 381S446 384 442 390C431 403 409 403 399 390C390 378 371 378 362 390C356 396 348 400 340 400C325 400 312 387 312 372C313 360 341 312 371 270C376 263 377 255 374 247L292 48H528V372Z"/></svg>