<svg xmlns="http://www.w3.org/2000/svg" viewBox="0 0 320 512"><!-- Font Awesome Pro 6.0.0-alpha1 by @fontawesome - https://fontawesome.com License - https://fontawesome.com/license (Commercial License) --><path d="M95 348C95 348 95 348 95 347L74 398C72 403 69 408 65 412L7 470C-2 480 -2 495 7 504C12 509 18 511 24 511S36 509 41 504L99 446C108 437 114 427 119 416L132 383L96 349L95 348ZM208 96C234 96 256 74 256 48S234 0 208 0C181 0 160 22 160 48S181 96 208 96ZM313 271L283 242C282 241 282 240 281 239L268 200C254 157 214 128 169 128C134 128 116 137 73 154C52 162 35 178 25 199L10 230C-3 259 40 279 54 250L68 220C73 210 81 203 91 199C112 190 124 185 135 182L115 261C110 280 115 299 130 315L209 388C215 394 219 401 221 409L240 493C243 505 255 514 269 511C282 508 290 495 287 482L267 398C263 381 254 365 241 353L188 303L214 199C221 208 221 211 236 254C238 262 243 270 249 276L279 305C301 327 335 293 313 271Z"/></svg>