<svg xmlns="http://www.w3.org/2000/svg" viewBox="0 0 576 512"><!-- Font Awesome Pro 6.0.0-alpha1 by @fontawesome - https://fontawesome.com License - https://fontawesome.com/license (Commercial License) --><path d="M311 416C297 416 285 425 281 438L256 512H576L474 306C469 296 458 289 447 288C435 288 424 294 418 304L383 363L301 316L279 192C268 136 218 96 162 96H110C94 96 79 103 69 115L14 176C9 181 7 189 8 196S14 209 20 213L359 404L352 416H311ZM70 186L104 147C106 145 108 144 110 144H162C196 144 225 168 232 201L247 286L70 186ZM444 354L499 464H380L444 354ZM272 96C299 96 320 74 320 48C320 21 299 0 272 0S224 21 224 48C224 74 246 96 272 96ZM85 284C78 280 70 279 63 282C56 285 51 291 49 298L1 482C-3 495 5 508 18 511C20 512 22 512 24 512C35 512 44 505 47 494L87 342L176 397V488C176 501 187 512 200 512S224 501 224 488V384C224 376 220 368 213 364L85 284Z"/></svg>