<svg xmlns="http://www.w3.org/2000/svg" viewBox="0 0 384 512"><!-- Font Awesome Pro 6.0.0-alpha1 by @fontawesome - https://fontawesome.com License - https://fontawesome.com/license (Commercial License) --><path d="M256 128C291 128 320 99 320 64S291 0 256 0S192 29 192 64S221 128 256 128ZM234 287C238 294 245 297 253 298C261 299 268 297 274 292L374 209C386 199 387 182 377 170C367 158 350 157 338 167L260 230L214 169C201 152 181 143 160 144C139 146 121 159 111 179L64 289C44 330 57 382 95 408L166 456H28C13 456 0 469 0 484S13 512 28 512H256C262 512 288 507 288 480C288 471 285 463 278 457L158 344L202 246L234 287Z"/></svg>