<svg xmlns="http://www.w3.org/2000/svg" viewBox="0 0 576 512"><!-- Font Awesome Pro 6.0.0-alpha1 by @fontawesome - https://fontawesome.com License - https://fontawesome.com/license (Commercial License) --><path d="M368 336H336C327 336 320 343 320 352V384C320 393 327 400 336 400H368C377 400 384 393 384 384V352C384 343 377 336 368 336ZM320 256V288C320 297 327 304 336 304H368C377 304 384 297 384 288V256C384 247 377 240 368 240H336C327 240 320 247 320 256ZM432 400H464C473 400 480 393 480 384V352C480 343 473 336 464 336H432C423 336 416 343 416 352V384C416 393 423 400 432 400ZM432 304H464C473 304 480 297 480 288V256C480 247 473 240 464 240H432C423 240 416 247 416 256V288C416 297 423 304 432 304ZM512 32H269C262 13 245 0 224 0H144C123 0 106 13 99 32H64C29 32 0 61 0 96V448C0 483 29 512 64 512H512C547 512 576 483 576 448V96C576 61 547 32 512 32ZM144 48H224V368H144V48ZM528 448C528 457 521 464 512 464H64C55 464 48 457 48 448V96C48 87 55 80 64 80H96V368C96 394 118 416 144 416H224C250 416 272 394 272 368V80H320V152C320 174 338 192 360 192H528V448ZM528 144H368V80H512C521 80 528 87 528 96V144Z"/></svg>