<svg xmlns="http://www.w3.org/2000/svg" viewBox="0 0 512 512"><!-- Font Awesome Pro 6.0.0-alpha1 by @fontawesome - https://fontawesome.com License - https://fontawesome.com/license (Commercial License) --><path d="M480 320L382 278C361 269 335 275 321 293L293 327C249 301 211 263 185 219L219 191C237 177 243 151 234 130L192 32C182 8 156 -4 132 1L41 22C17 28 0 49 0 73C0 315 197 512 439 512C463 512 484 495 490 471L511 380C516 355 504 330 480 320ZM464 369L443 461C442 463 441 464 439 464C223 464 48 289 48 73C48 71 49 70 51 69L143 48C143 48 143 48 144 48C145 48 147 49 148 51L190 149C191 151 190 153 189 154L140 194C131 201 129 213 133 223C166 290 222 346 289 379C299 383 311 381 318 372L358 323C359 322 361 321 363 322L461 364C463 365 464 367 464 369L464 369Z"/></svg>