<svg xmlns="http://www.w3.org/2000/svg" viewBox="0 0 640 512"><!-- Font Awesome Pro 6.0.0-alpha1 by @fontawesome - https://fontawesome.com License - https://fontawesome.com/license (Commercial License) --><path d="M631 469L478 349C539 274 576 178 576 73C576 49 559 28 535 22L444 1C420 -4 394 8 384 32L342 130C333 151 339 177 357 191L391 219C382 233 373 246 362 259L39 5C28 -3 13 -1 5 9C-3 20 -1 35 9 43L601 507C606 510 611 512 616 512C623 512 630 509 635 503C643 492 641 477 631 469ZM400 288C417 268 431 247 443 223C447 213 445 201 436 194L387 154C386 153 385 151 386 149L428 51C429 49 431 48 432 48C433 48 433 48 433 48L525 69C527 70 528 71 528 73C528 167 495 252 440 319L400 288ZM137 464C135 464 134 463 133 461L112 369H112C112 367 113 365 115 364L213 322C215 321 217 322 218 323L258 372C265 381 277 384 287 379C302 371 315 363 329 354L289 322C287 324 285 325 283 327L255 293C241 275 215 269 194 278L96 320C72 330 60 355 65 380L86 471C92 495 113 512 137 512C240 512 334 476 409 417L370 386C305 435 225 464 137 464Z"/></svg>