<svg xmlns="http://www.w3.org/2000/svg" viewBox="0 0 512 512"><!-- Font Awesome Pro 6.0.0-alpha1 by @fontawesome - https://fontawesome.com License - https://fontawesome.com/license (Commercial License) --><path d="M370 192C359 172 338 160 315 160H197C174 160 153 172 142 192L36 377C34 382 32 387 32 393V448C32 466 46 480 64 480H448C466 480 480 466 480 448V393C480 387 478 382 476 377L370 192ZM432 432H80V397L183 216C186 211 191 208 197 208H315C321 208 326 211 329 216L432 397V432ZM256 256C221 256 192 285 192 320S221 384 256 384S320 355 320 320S291 256 256 256ZM506 123C437 65 347 32 256 32S75 65 6 123C2 126 0 131 0 136V192C0 201 7 208 16 208H86C92 208 98 205 100 199L128 128C168 111 211 104 256 104S344 111 384 128L412 199C414 205 420 208 426 208H496C505 208 512 201 512 192V136C512 131 510 126 506 123Z"/></svg>