<svg xmlns="http://www.w3.org/2000/svg" viewBox="0 0 512 512"><!-- Font Awesome Pro 6.0.0-alpha1 by @fontawesome - https://fontawesome.com License - https://fontawesome.com/license (Commercial License) --><path d="M1 380L22 471C28 495 49 512 73 512C315 512 512 315 512 73C512 49 495 28 471 22L380 1C356 -4 330 8 320 32L278 130C269 151 275 177 293 191L327 219C301 263 263 301 219 327L191 293C177 275 151 269 130 278L32 320C8 330 -4 355 1 380ZM48 369C48 367 49 365 51 364L149 322C151 321 153 322 154 323L194 372C201 381 213 384 223 379C290 346 346 290 379 223C383 213 381 201 372 194L323 154C322 153 321 151 322 149L364 51C365 49 367 48 368 48C369 48 369 48 369 48L461 69C463 70 464 71 464 73C464 289 289 464 73 464C71 464 70 463 69 461L48 369L48 369Z"/></svg>