<svg xmlns="http://www.w3.org/2000/svg" viewBox="0 0 640 512"><!-- Font Awesome Pro 6.0.0-alpha1 by @fontawesome - https://fontawesome.com License - https://fontawesome.com/license (Commercial License) --><path d="M464 448C464 457 457 464 448 464H400V384H352V464H160V128H64C29 128 0 157 0 192V448C0 483 29 512 64 512H448C483 512 512 483 512 448V384H464V448ZM112 464H64C55 464 48 457 48 448V400H112V464ZM112 352H48V288H112V352ZM112 240H48V192C48 183 55 176 64 176H112V240ZM576 0H256C221 0 192 29 192 64V288C192 323 221 352 256 352H576C611 352 640 323 640 288V64C640 29 611 0 576 0ZM592 288C592 297 585 304 576 304L467 143C464 139 459 136 453 136C448 136 443 139 440 143L377 237L355 207C352 202 347 200 342 200C337 200 332 202 329 207L256 304C247 304 240 297 240 288V64C240 55 247 48 256 48H576C585 48 592 55 592 64V288ZM304 80C286 80 272 94 272 112S286 144 304 144C322 144 336 130 336 112S322 80 304 80Z"/></svg>