<svg xmlns="http://www.w3.org/2000/svg" viewBox="0 0 640 512"><!-- Font Awesome Pro 6.0.0-alpha1 by @fontawesome - https://fontawesome.com License - https://fontawesome.com/license (Commercial License) --><path d="M272 112C272 130 286 144 304 144C322 144 336 130 336 112S322 80 304 80C286 80 272 94 272 112ZM160 400V112H64C29 112 0 141 0 176V384C0 419 29 448 64 448H290C295 428 308 411 326 400H160ZM112 400H64C55 400 48 393 48 384V352H112V400ZM112 304H48V256H112V304ZM112 208H48V176C48 167 55 160 64 160H112V208ZM576 0H256C221 0 192 29 192 64V256C192 291 221 320 256 320H368V245C368 225 381 206 401 200L504 166L467 111C464 107 459 104 453 104C448 104 443 107 440 111L377 205L355 175C352 170 347 168 342 168C337 168 332 170 329 175L256 272C247 272 240 265 240 256V64C240 55 247 48 256 48H576C585 48 592 55 592 64V136L609 130C614 129 619 128 624 128C630 128 635 129 640 131V64C640 29 611 0 576 0ZM619 161L411 230C404 232 400 238 400 245V418C395 417 390 416 384 416C349 416 320 438 320 464S349 512 384 512C419 512 448 490 448 464V319L592 271V354C587 353 582 352 576 352C541 352 512 374 512 400S541 448 576 448C611 448 640 426 640 400V176C640 165 629 157 619 161Z"/></svg>