<svg xmlns="http://www.w3.org/2000/svg" viewBox="0 0 512 512"><!-- Font Awesome Pro 6.0.0-alpha1 by @fontawesome - https://fontawesome.com License - https://fontawesome.com/license (Commercial License) --><path d="M469 356C480 363 483 378 476 389L456 419C444 437 424 448 402 448C365 448 336 419 336 382V112V112H192V285C192 311 186 338 175 362L142 434C138 443 129 448 120 448C117 448 113 447 110 446C98 440 93 426 98 414L132 342C140 324 144 304 144 285V112H56C43 112 32 101 32 88C32 75 43 64 56 64H456C469 64 480 75 480 88C480 101 469 112 456 112H384V112V382C384 392 392 400 402 400C408 400 413 397 416 392L436 363C443 352 458 349 469 356Z"/></svg>