<svg xmlns="http://www.w3.org/2000/svg" viewBox="0 0 448 512"><!-- Font Awesome Pro 6.0.0-alpha1 by @fontawesome - https://fontawesome.com License - https://fontawesome.com/license (Commercial License) --><path d="M395 386L167 213L167 213C158 206 147 200 136 197C82 180 23 209 5 262C-3 287 -1 315 11 339C23 363 45 382 72 390L346 478C352 479 357 480 362 480C379 480 394 473 405 460C413 449 417 435 416 421C414 407 407 394 395 386ZM367 430C365 432 362 432 361 432L86 344C72 340 60 330 54 317C47 305 46 290 51 277C58 254 80 240 104 240C110 240 115 241 121 243C127 245 133 248 138 251L366 424C367 425 368 426 368 427C368 428 368 429 367 430ZM104 272C91 272 80 283 80 296C80 309 91 320 104 320S128 309 128 296C128 283 117 272 104 272ZM352 32C299 32 256 75 256 128S299 224 352 224S448 181 448 128S405 32 352 32ZM352 176C326 176 304 154 304 128S326 80 352 80S400 102 400 128S378 176 352 176Z"/></svg>