<svg xmlns="http://www.w3.org/2000/svg" viewBox="0 0 512 512"><!-- Font Awesome Pro 6.0.0-alpha1 by @fontawesome - https://fontawesome.com License - https://fontawesome.com/license (Commercial License) --><path d="M159 0C158 0 157 0 156 0C141 0 128 10 124 24L1 492C-1 496 0 502 3 506C6 510 11 512 16 512C18 512 19 512 21 511L488 382C504 377 514 362 512 346C491 165 341 17 159 0ZM61 450L143 140C265 160 349 243 371 364L61 450ZM418 351C391 215 293 118 155 94L167 49C315 69 440 191 462 339L418 351ZM192 192C174 192 160 206 160 224S174 256 192 256C210 256 224 242 224 224S210 192 192 192ZM160 320C142 320 128 334 128 352S142 384 160 384C178 384 192 370 192 352S178 320 160 320ZM256 320C256 338 270 352 288 352S320 338 320 320S306 288 288 288S256 302 256 320Z"/></svg>