<svg xmlns="http://www.w3.org/2000/svg" viewBox="0 0 576 512"><!-- Font Awesome Pro 6.0.0-alpha1 by @fontawesome - https://fontawesome.com License - https://fontawesome.com/license (Commercial License) --><path d="M468 176H363L356 128H368V144C368 153 375 160 384 160S400 153 400 144V112C409 112 416 105 416 96C416 87 409 80 400 80V48C400 39 393 32 384 32S368 39 368 48V64H347L341 21C339 9 329 0 317 0H259C247 0 237 9 235 21L229 64H224C206 64 192 78 192 96C192 112 204 125 220 127L212 182L150 187L145 155C142 140 129 128 113 128H75C59 128 46 140 43 155L35 210C15 216 0 234 0 256S15 296 35 302L43 357C46 372 59 384 75 384H113C129 384 142 372 145 357L150 325L212 330L220 385C204 387 192 400 192 416C192 434 206 448 224 448H229L235 491C237 503 247 512 259 512H317C329 512 339 503 341 491L347 448H368V464C368 473 375 480 384 480S400 473 400 464V432C409 432 416 425 416 416C416 407 409 400 400 400V368C400 359 393 352 384 352S368 359 368 368V384H356L363 336H468C506 336 576 306 576 256S506 176 468 176ZM468 288H321L315 329L296 464H280L260 323L254 285L216 282L154 278L110 274L102 318L99 336H89L82 294L77 265L48 256L77 248L82 218L89 176H99L102 194L110 238L154 234L216 230L254 227L260 189L280 48H296L315 183L321 224H468C492 224 528 245 528 256S492 288 468 288Z"/></svg>