<svg xmlns="http://www.w3.org/2000/svg" viewBox="0 0 512 512"><!-- Font Awesome Pro 6.0.0-alpha1 by @fontawesome - https://fontawesome.com License - https://fontawesome.com/license (Commercial License) --><path d="M176 112V153L16 254C7 259 0 270 0 281V347C0 357 5 366 13 372C21 378 31 380 41 378L176 335V360L125 398C117 404 112 414 112 424V480C112 490 116 499 124 505C132 511 142 513 152 511L256 481L360 511C370 513 380 511 388 505C396 499 400 490 400 480V424C400 414 395 404 387 398L336 360V335L471 377C481 380 491 378 499 372C507 366 512 357 512 347V281C512 270 506 259 496 254L336 153V112C336 74 305 0 256 0S176 74 176 112ZM288 112V180L464 290V325L288 270V384L352 432V459L256 431L160 459V432L224 384V270L48 325V290L224 180V112C224 86 246 49 256 48C266 49 288 86 288 112Z"/></svg>