<svg xmlns="http://www.w3.org/2000/svg" viewBox="0 0 576 512"><!-- Font Awesome Pro 6.0.0-alpha1 by @fontawesome - https://fontawesome.com License - https://fontawesome.com/license (Commercial License) --><path d="M464 176H375L274 16C269 7 258 0 247 0H181C171 0 162 5 156 13C150 21 148 31 150 41L193 176H152L114 125C108 117 98 112 88 112H32C22 112 13 116 7 124C1 132 -1 142 1 152L31 256L1 360C-1 370 1 380 7 388C13 396 22 400 32 400H88C98 400 108 395 114 387L152 336H193L151 471C148 481 150 491 156 499C162 507 171 512 181 512H247C258 512 269 506 275 496L375 336H464C502 336 576 305 576 256S502 176 464 176ZM464 288H348L238 464H203L259 288H128L80 352H53L81 256L53 160H80L128 224H259L203 48H238L348 224H464C490 224 527 246 528 256C527 266 490 288 464 288Z"/></svg>