<svg xmlns="http://www.w3.org/2000/svg" viewBox="0 0 512 512"><!-- Font Awesome Pro 6.0.0-alpha1 by @fontawesome - https://fontawesome.com License - https://fontawesome.com/license (Commercial License) --><path d="M488 464H280C267 464 254 462 242 457L48 382V358L246 307C255 305 263 304 272 304H488C501 304 512 293 512 280S501 256 488 256H383L130 9C124 3 116 0 108 0L32 0C12 0 -3 19 1 39L61 305L30 313C12 318 0 334 0 352V388C0 404 10 419 26 425L225 502C243 509 261 512 280 512H488C501 512 512 501 512 488S501 464 488 464ZM216 352C203 352 192 363 192 376C192 389 203 400 216 400H360C373 400 384 389 384 376C384 363 373 352 360 352H216Z"/></svg>