<svg xmlns="http://www.w3.org/2000/svg" viewBox="0 0 384 512"><!-- Font Awesome Pro 6.0.0-alpha1 by @fontawesome - https://fontawesome.com License - https://fontawesome.com/license (Commercial License) --><path d="M312 24C312 11 301 0 288 0S264 11 264 24V112H312V24ZM120 24C120 11 109 0 96 0S72 11 72 24V112H120V24ZM360 144H24C11 144 0 155 0 168V168C0 181 11 192 24 192H32V256C32 336 91 402 168 414V488C168 501 179 512 192 512H192C205 512 216 501 216 488V414C293 402 352 336 352 256V192H360C373 192 384 181 384 168V168C384 155 373 144 360 144ZM304 256C304 318 254 368 192 368S80 318 80 256V192H304V256Z"/></svg>