<svg xmlns="http://www.w3.org/2000/svg" viewBox="0 0 448 512"><!-- Font Awesome Pro 6.0.0-alpha1 by @fontawesome - https://fontawesome.com License - https://fontawesome.com/license (Commercial License) --><path d="M224 304C190 304 157 313 157 350C157 384 171 458 179 488C184 507 204 512 224 512S264 507 269 488C277 458 291 384 291 350C291 313 258 304 224 304ZM226 464C225 464 225 464 224 464C223 464 223 464 222 464C216 434 207 381 206 354C209 353 215 352 224 352C233 352 239 353 242 354C242 380 233 433 226 464ZM224 288C259 288 288 259 288 224S259 160 224 160S160 189 160 224S189 288 224 288ZM224 208C233 208 240 215 240 224S233 240 224 240S208 233 208 224S215 208 224 208ZM224 0C101 0 0 100 0 224C0 295 33 360 90 403C94 406 99 408 104 408C111 408 118 405 123 398C131 388 129 373 118 365C74 331 48 280 48 224C48 127 127 48 224 48S400 127 400 224C400 280 374 331 330 365C319 373 317 388 325 398C333 409 348 411 358 403C415 360 448 295 448 224C448 100 347 0 224 0ZM346 301C360 278 368 251 368 224C368 145 303 80 224 80S80 145 80 224C80 251 88 278 102 301C109 312 124 315 135 308S150 286 143 275C133 260 128 242 128 224C128 171 171 128 224 128S320 171 320 224C320 242 315 260 305 275C298 286 302 301 313 308C317 311 321 312 325 312C333 312 341 308 346 301Z"/></svg>