<svg xmlns="http://www.w3.org/2000/svg" viewBox="0 0 576 512"><!-- Font Awesome Pro 6.0.0-alpha1 by @fontawesome - https://fontawesome.com License - https://fontawesome.com/license (Commercial License) --><path d="M496 304H80V80H32V320C32 338 46 352 64 352H264V399L192 471C183 480 183 496 192 505L192 505C201 514 217 514 226 505L288 443L350 505C359 514 375 514 384 505C393 495 393 480 384 471L312 399V352H512C530 352 544 338 544 320V80H496V304ZM552 0H24C11 0 0 11 0 24V24C0 37 11 48 24 48H552C565 48 576 37 576 24V24C576 11 565 0 552 0Z"/></svg>