<svg xmlns="http://www.w3.org/2000/svg" viewBox="0 0 384 512"><!-- Font Awesome Pro 6.0.0-alpha1 by @fontawesome - https://fontawesome.com License - https://fontawesome.com/license (Commercial License) --><path d="M352 0H32C14 0 0 14 0 32V96C0 114 14 128 32 128V456C32 487 57 512 88 512H296C327 512 352 487 352 456V128C370 128 384 114 384 96V32C384 14 370 0 352 0ZM304 456C304 460 300 464 296 464H88C84 464 80 460 80 456V128H304V456ZM336 80H48V48H336V80ZM112 320H160V368C160 377 167 384 176 384H208C217 384 224 377 224 368V320H272C281 320 288 313 288 304V272C288 263 281 256 272 256H224V208C224 199 217 192 208 192H176C167 192 160 199 160 208V256H112C103 256 96 263 96 272V304C96 313 103 320 112 320Z"/></svg>