<svg xmlns="http://www.w3.org/2000/svg" viewBox="0 0 448 512"><!-- Font Awesome Pro 6.0.0-alpha1 by @fontawesome - https://fontawesome.com License - https://fontawesome.com/license (Commercial License) --><path d="M322 352L441 233C450 224 450 208 441 199S416 190 407 199L288 318L192 222C246 214 288 168 288 112C288 50 238 0 176 0H24C11 0 0 11 0 24V296C0 309 11 320 24 320S48 309 48 296V224H126L254 352L135 471C126 480 126 496 135 505C140 510 146 512 152 512S164 510 169 505L288 386L407 505C412 510 418 512 424 512S436 510 441 505C450 496 450 480 441 471L322 352ZM48 48H176C211 48 240 77 240 112S211 176 176 176H48V48Z"/></svg>