<svg xmlns="http://www.w3.org/2000/svg" viewBox="0 0 384 512"><!-- Font Awesome Pro 6.0.0-alpha1 by @fontawesome - https://fontawesome.com License - https://fontawesome.com/license (Commercial License) --><path d="M352 0H32C14 0 0 14 0 32V96C0 114 14 128 32 128V456C32 487 57 512 88 512H296C327 512 352 487 352 456V128C370 128 384 114 384 96V32C384 14 370 0 352 0ZM48 48H336V80H48V48ZM304 456C304 460 300 464 296 464H88C84 464 80 460 80 456V416H136C149 416 160 405 160 392S149 368 136 368H80V320H136C149 320 160 309 160 296S149 272 136 272H80V224H136C149 224 160 213 160 200S149 176 136 176H80V128H304V456Z"/></svg>