<svg xmlns="http://www.w3.org/2000/svg" viewBox="0 0 640 512"><!-- Font Awesome Pro 6.0.0-alpha1 by @fontawesome - https://fontawesome.com License - https://fontawesome.com/license (Commercial License) --><path d="M633 471L554 392C568 371 576 347 576 320C576 249 519 192 448 192S320 249 320 320S377 448 448 448C475 448 499 440 520 426L599 505C604 510 610 512 616 512S628 510 633 505C642 496 642 480 633 471ZM448 400C404 400 368 364 368 320S404 240 448 240S528 276 528 320S492 400 448 400ZM112 48H366L400 82V160H448V82C448 69 443 57 434 48L400 14C391 5 379 0 366 0H112C86 0 64 21 64 48V75L64 130C64 130 64 130 64 130V160H112L112 48ZM128 464V368H296C291 353 288 337 288 320H112C94 320 80 334 80 352H48V264C48 251 59 240 72 240H310C321 221 336 205 353 192H72C32 192 0 224 0 264V376C0 389 11 400 24 400H80V480C80 498 94 512 112 512H400C418 512 432 498 432 480V478C413 477 396 472 379 464H128Z"/></svg>