<svg xmlns="http://www.w3.org/2000/svg" viewBox="0 0 640 512"><!-- Font Awesome Pro 6.0.0-alpha1 by @fontawesome - https://fontawesome.com License - https://fontawesome.com/license (Commercial License) --><path d="M631 469L543 400H552C565 400 576 389 576 376V264C576 224 544 192 504 192H277L176 113L176 48H430L464 82V160H512V82C512 69 507 57 498 48L464 14C455 5 443 0 430 0H176C150 0 128 21 128 48V75L39 5C28 -3 13 -1 5 9C-3 20 -1 35 9 43L601 507C606 510 611 512 616 512C623 512 630 509 635 503C643 492 641 477 631 469ZM528 352H481L339 240H504C517 240 528 251 528 264V352ZM448 464H192V368H347L286 320H176C158 320 144 334 144 352H112V264C112 251 123 240 136 240H183L124 193C90 199 64 228 64 264V376C64 389 75 400 88 400H144V480C144 498 158 512 176 512H464C480 512 493 500 495 484L448 447V464Z"/></svg>