<svg xmlns="http://www.w3.org/2000/svg" viewBox="0 0 640 512"><!-- Font Awesome Pro 6.0.0-alpha1 by @fontawesome - https://fontawesome.com License - https://fontawesome.com/license (Commercial License) --><path d="M576 192H496V193C469 172 436 160 400 160C364 160 332 172 305 192H64C29 192 0 221 0 256V384C0 419 29 448 64 448H80V488C80 501 91 512 104 512S128 501 128 488V448H305C332 468 364 480 400 480C436 480 469 468 496 447V448H512V488C512 501 523 512 536 512S560 501 560 488V448H576C611 448 640 419 640 384V256C640 221 611 192 576 192ZM262 400H64C55 400 48 393 48 384V256C48 247 55 240 64 240H262C248 264 240 291 240 320S248 376 262 400ZM400 432C338 432 288 382 288 320C288 258 338 208 400 208S512 258 512 320C512 382 462 432 400 432ZM592 384C592 393 585 400 576 400H538C552 376 560 349 560 320S552 264 538 240H576C585 240 592 247 592 256V384ZM400 128C413 128 424 117 424 104V24C424 11 413 0 400 0S376 11 376 24V104C376 117 387 128 400 128ZM496 136C502 136 508 134 513 129L569 73C578 64 578 48 569 39S544 30 535 39L479 95C470 104 470 120 479 129C484 134 490 136 496 136ZM287 129C292 134 298 136 304 136S316 134 321 129C330 120 330 104 321 95L265 39C256 30 240 30 231 39S222 64 231 73L287 129ZM104 296C91 296 80 307 80 320C80 333 91 344 104 344C117 344 128 333 128 320C128 307 117 296 104 296ZM184 296C171 296 160 307 160 320C160 333 171 344 184 344C197 344 208 333 208 320C208 307 197 296 184 296Z"/></svg>