<svg xmlns="http://www.w3.org/2000/svg" viewBox="0 0 640 512"><!-- Font Awesome Pro 6.0.0-alpha1 by @fontawesome - https://fontawesome.com License - https://fontawesome.com/license (Commercial License) --><path d="M368 320H272C246 320 224 342 224 368V464C224 490 246 512 272 512H368C394 512 416 490 416 464V368C416 342 394 320 368 320ZM368 464H272V368H368V464ZM592 0H496C469 0 448 22 448 48V144C448 170 469 192 496 192H592C618 192 640 170 640 144V48C640 22 618 0 592 0ZM592 144H496V48H592V144ZM392 72H192V48C192 22 170 0 144 0H48C22 0 0 22 0 48V144C0 170 22 192 48 192H138L195 292C200 300 208 304 216 304C220 304 224 303 228 301C239 294 243 280 237 268L182 173C188 165 192 155 192 144V120H392C405 120 416 109 416 96S405 72 392 72ZM144 144H48V48H144V144Z"/></svg>