<svg xmlns="http://www.w3.org/2000/svg" viewBox="0 0 384 512"><!-- Font Awesome Pro 6.0.0-alpha1 by @fontawesome - https://fontawesome.com License - https://fontawesome.com/license (Commercial License) --><path d="M152 244C136 266 100 316 100 341C100 374 127 400 160 400S220 374 220 341C220 316 184 266 168 244C164 239 156 239 152 244ZM377 103L321 47C316 43 310 40 304 40H240V32C240 14 226 0 208 0H112C94 0 80 14 80 32V128C49 131 23 155 21 186L0 442C-3 480 26 512 64 512H256C294 512 323 480 320 442L299 186C296 155 271 131 240 128V88H294L343 137C348 142 354 144 360 144S372 142 377 137C386 128 386 112 377 103ZM128 48H192V128H128V48ZM252 190L272 447C273 455 266 464 256 464H64C55 464 47 457 48 446L68 191C69 182 76 176 84 176H236C244 176 251 182 252 190Z"/></svg>