<svg xmlns="http://www.w3.org/2000/svg" viewBox="0 0 576 512"><!-- Font Awesome Pro 6.0.0-alpha1 by @fontawesome - https://fontawesome.com License - https://fontawesome.com/license (Commercial License) --><path d="M495 104C456 67 397 62 352 89V36C352 30 349 24 343 22L304 2C295 -2 285 1 282 10L255 77C245 80 235 84 226 90C181 62 121 67 81 104C29 154 0 221 0 292S29 430 81 480C119 515 177 522 222 496C225 495 227 495 230 496C247 507 267 512 288 512S329 507 346 496C349 495 351 495 353 496C399 522 457 515 495 480C547 430 576 363 576 292S547 154 495 104ZM288 468C167 468 164 116 288 116C409 116 412 468 288 468ZM48 292C48 214 113 85 196 128C143 209 143 375 196 455C114 499 48 371 48 292ZM380 455C426 386 433 254 398 162C397 161 393 148 380 129C463 85 528 214 528 292S462 499 380 455Z"/></svg>