<svg xmlns="http://www.w3.org/2000/svg" viewBox="0 0 640 512"><!-- Font Awesome Pro 6.0.0-alpha1 by @fontawesome - https://fontawesome.com License - https://fontawesome.com/license (Commercial License) --><path d="M551 154C543 154 535 155 528 157V123C528 82 494 48 453 48H368C349 48 332 55 320 67C308 55 291 48 272 48H187C146 48 112 82 112 123V157C105 155 97 154 89 154C39 154 0 199 0 256S39 358 89 358C97 358 105 357 112 355V389C112 430 146 464 187 464H272C291 464 308 457 320 445C332 457 349 464 368 464H453C494 464 528 430 528 389V355C535 357 543 358 551 358C601 358 640 313 640 256S601 154 551 154ZM551 310C539 310 529 304 521 293C517 287 511 283 504 283C492 283 480 292 480 304V389C480 404 468 416 453 416H368C356 416 347 407 347 395C347 388 351 382 357 378C368 370 374 360 374 348C374 325 350 307 320 307C290 307 266 325 266 348C266 360 272 370 283 378C289 382 293 388 293 395C293 407 284 416 272 416H187C172 416 160 404 160 389V304C160 292 148 283 136 283C129 283 123 287 119 293C111 304 101 310 89 310C66 310 48 286 48 256S66 202 89 202C101 202 111 208 119 219C123 225 129 229 136 229C148 229 160 219 160 208V123C160 108 172 96 187 96H272C284 96 293 105 293 117C293 124 289 130 283 134C272 142 266 152 266 164C266 187 290 205 320 205C350 205 374 187 374 164C374 152 368 142 357 134C351 130 347 124 347 117C347 105 356 96 368 96H453C468 96 480 108 480 123V208C480 219 492 229 504 229C511 229 517 225 521 219C529 208 539 202 551 202C574 202 592 226 592 256S574 310 551 310Z"/></svg>