<svg xmlns="http://www.w3.org/2000/svg" viewBox="0 0 448 512"><!-- Font Awesome Pro 6.0.0-alpha1 by @fontawesome - https://fontawesome.com License - https://fontawesome.com/license (Commercial License) --><path d="M393 402C427 363 448 312 448 256C448 133 348 32 224 32S0 133 0 256S100 480 224 480C268 480 310 467 345 444L391 501C398 508 407 512 416 512C423 512 430 510 436 505C450 493 452 473 441 460L393 402ZM224 416C136 416 64 344 64 256S136 96 224 96S384 168 384 256C384 292 371 325 351 352L281 268C269 254 249 252 236 263C222 275 220 295 231 309L303 394C280 408 253 416 224 416Z"/></svg>