<svg xmlns="http://www.w3.org/2000/svg" viewBox="0 0 512 512"><!-- Font Awesome Pro 6.0.0-alpha1 by @fontawesome - https://fontawesome.com License - https://fontawesome.com/license (Commercial License) --><path d="M112 256C88 256 66 264 48 276V184C48 127 95 80 152 80H168C181 80 192 69 192 56S181 32 168 32H152C68 32 0 100 0 184V368C0 430 50 480 112 480S224 430 224 368S174 256 112 256ZM112 432C77 432 48 403 48 368S77 304 112 304S176 333 176 368S147 432 112 432ZM400 256C376 256 354 264 336 276V184C336 127 383 80 440 80H456C469 80 480 69 480 56S469 32 456 32H440C356 32 288 100 288 184V368C288 430 338 480 400 480S512 430 512 368S462 256 400 256ZM400 432C365 432 336 403 336 368S365 304 400 304S464 333 464 368S435 432 400 432Z"/></svg>