<svg xmlns="http://www.w3.org/2000/svg" viewBox="0 0 512 512"><!-- Font Awesome Pro 6.0.0-alpha1 by @fontawesome - https://fontawesome.com License - https://fontawesome.com/license (Commercial License) --><path d="M160 32H64C29 32 0 61 0 96V192C0 227 29 256 64 256H160C166 256 171 255 176 254V328C176 385 129 432 72 432H56C43 432 32 443 32 456S43 480 56 480H72C156 480 224 412 224 328V96C224 61 195 32 160 32ZM176 192C176 201 169 208 160 208H64C55 208 48 201 48 192V96C48 87 55 80 64 80H160C169 80 176 87 176 96V192ZM448 32H352C317 32 288 61 288 96V192C288 227 317 256 352 256H448C454 256 459 255 464 254V328C464 385 417 432 360 432H344C331 432 320 443 320 456S331 480 344 480H360C444 480 512 412 512 328V96C512 61 483 32 448 32ZM464 192C464 201 457 208 448 208H352C343 208 336 201 336 192V96C336 87 343 80 352 80H448C457 80 464 87 464 96V192Z"/></svg>