<svg xmlns="http://www.w3.org/2000/svg" viewBox="0 0 512 512"><!-- Font Awesome Pro 6.0.0-alpha1 by @fontawesome - https://fontawesome.com License - https://fontawesome.com/license (Commercial License) --><path d="M400 32C338 32 288 82 288 144S338 256 400 256C424 256 446 248 464 236V328C464 385 417 432 360 432H344C331 432 320 443 320 456S331 480 344 480H360C444 480 512 412 512 328V144C512 82 462 32 400 32ZM400 208C365 208 336 179 336 144S365 80 400 80S464 109 464 144S435 208 400 208ZM112 32C50 32 0 82 0 144S50 256 112 256C136 256 158 248 176 236V328C176 385 129 432 72 432H56C43 432 32 443 32 456S43 480 56 480H72C156 480 224 412 224 328V144C224 82 174 32 112 32ZM112 208C77 208 48 179 48 144S77 80 112 80S176 109 176 144S147 208 112 208Z"/></svg>