<svg xmlns="http://www.w3.org/2000/svg" viewBox="0 0 640 512"><!-- Font Awesome Pro 6.0.0-alpha1 by @fontawesome - https://fontawesome.com License - https://fontawesome.com/license (Commercial License) --><path d="M598 190C596 188 599 190 557 164C555 155 554 146 551 138C543 106 517 32 461 32C456 32 451 33 446 34C428 39 414 51 407 69C398 66 389 64 380 64C363 64 348 70 337 81C331 87 322 99 320 117C293 104 267 96 240 96C199 96 162 114 127 152C114 142 97 136 80 136C36 136 0 172 0 216C0 260 36 296 80 296C91 296 102 294 111 289C119 301 120 302 162 348L153 354C137 364 128 381 128 400V424C128 444 138 462 156 472C165 478 174 480 184 480C194 480 203 478 212 473L254 448L269 464C278 474 290 480 304 480H464C490 480 512 458 512 432C512 406 499 383 480 368H541C596 368 640 324 640 270C640 238 624 208 598 190ZM96 243C77 254 62 243 57 239C45 226 45 206 57 193C64 187 84 176 102 193C96 209 94 226 96 243ZM188 431C185 433 182 432 180 431C178 430 176 428 176 424V400C176 398 177 395 178 395L196 385L221 412L188 431ZM541 320H448L400 340C400 292 368 249 323 236L287 225C274 221 261 229 257 241C253 254 261 267 273 271L310 282C334 289 352 314 352 341V400H432C450 400 464 414 464 432H304L160 274C138 250 137 213 159 189C187 157 212 144 240 144C293 144 353 193 448 256C448 237 448 234 452 223C439 216 423 205 408 190C378 159 361 125 371 115C382 104 416 123 446 152C448 155 451 158 453 160C443 119 445 84 459 80C473 77 494 108 505 150C509 166 512 182 512 195C515 196 517 197 520 198L571 229C584 238 592 253 592 270C592 298 569 320 541 320ZM512 240C503 240 496 247 496 256C496 265 503 272 512 272S528 265 528 256C528 247 521 240 512 240Z"/></svg>