<svg xmlns="http://www.w3.org/2000/svg" viewBox="0 0 640 512"><!-- Font Awesome Pro 6.0.0-alpha1 by @fontawesome - https://fontawesome.com License - https://fontawesome.com/license (Commercial License) --><path d="M616 61C562 -17 434 -20 333 50C275 90 237 146 225 200C215 243 195 282 168 316C168 316 153 308 137 319L14 406C-1 416 -4 436 6 450L40 498C50 513 70 516 84 506L208 420C218 413 222 402 221 390C251 381 283 376 314 376C343 377 349 380 373 381C422 381 477 364 527 330C630 259 670 138 616 61ZM208 344C218 331 226 317 234 304C243 320 247 324 255 333C239 336 224 339 208 344ZM499 291C460 318 415 333 373 333C233 331 237 175 360 90C417 51 466 48 487 48C497 48 497 48 487 48C625 50 624 204 499 291Z"/></svg>