<svg xmlns="http://www.w3.org/2000/svg" viewBox="0 0 512 512"><!-- Font Awesome Pro 6.0.0-alpha1 by @fontawesome - https://fontawesome.com License - https://fontawesome.com/license (Commercial License) --><path d="M504 256C504 397 387 510 244 504C118 498 14 394 8 268C2 125 115 8 256 8C306 8 354 23 395 51L420 26C429 17 444 17 454 26L454 26C463 36 463 51 454 60L258 256H258H320C320 291 292 320 257 320C222 321 193 293 192 258C191 223 219 193 254 192L288 158C278 154 267 152 256 152C198 152 151 199 152 257C153 313 199 359 255 360C313 361 360 314 360 256H408C408 330 355 391 285 405C278 397 267 392 256 392S234 397 227 405C166 393 119 346 107 285C115 278 120 267 120 256S115 234 107 227C121 157 182 104 256 104C281 104 304 111 325 121L360 86C329 66 293 56 256 56C157 56 75 128 59 223C48 230 40 242 40 256C40 270 48 282 59 289C73 373 139 439 223 453C230 464 242 472 256 472C270 472 282 464 289 453C384 437 456 355 456 256H504Z"/></svg>