<svg xmlns="http://www.w3.org/2000/svg" viewBox="0 0 512 512"><!-- Font Awesome Pro 6.0.0-alpha1 by @fontawesome - https://fontawesome.com License - https://fontawesome.com/license (Commercial License) --><path d="M208 384H112C103 384 96 391 96 400C96 409 103 416 112 416H208C217 416 224 409 224 400C224 391 217 384 208 384ZM96 352H224C233 352 240 345 240 336C240 327 233 320 224 320H96C87 320 80 327 80 336C80 345 87 352 96 352ZM368 432C403 432 432 403 432 368S403 304 368 304C333 304 304 333 304 368S333 432 368 432ZM440 128H201L494 47C507 44 515 30 511 18C508 5 494 -3 482 1L53 119C22 128 0 156 0 189V440C0 480 32 512 72 512H440C480 512 512 480 512 440V200C512 160 480 128 440 128ZM464 440C464 453 453 464 440 464H72C59 464 48 453 48 440V272H464V440Z"/></svg>