<svg xmlns="http://www.w3.org/2000/svg" viewBox="0 0 384 512"><!-- Font Awesome Pro 6.0.0-alpha1 by @fontawesome - https://fontawesome.com License - https://fontawesome.com/license (Commercial License) --><path d="M384 352V32C384 14 370 0 352 0H32C14 0 0 14 0 32V352C0 370 14 384 32 384H39L3 467C-6 489 10 512 33 512H352C375 512 390 489 381 467L345 384H352C370 384 384 370 384 352ZM57 464L112 336H272L327 464H57ZM312 307C307 296 296 288 283 288H101C88 288 77 296 72 307L59 336H48V48H336V336H325L312 307Z"/></svg>