<svg xmlns="http://www.w3.org/2000/svg" viewBox="0 0 576 512"><!-- Font Awesome Pro 6.0.0-alpha1 by @fontawesome - https://fontawesome.com License - https://fontawesome.com/license (Commercial License) --><path d="M512 32H64C29 32 0 61 0 96V416C0 451 29 480 64 480H512C547 480 576 451 576 416V96C576 61 547 32 512 32ZM528 416C528 425 521 432 512 432H64C55 432 48 425 48 416V96C48 87 55 80 64 80H512C521 80 528 87 528 96V416ZM128 128C110 128 96 142 96 160C96 178 110 192 128 192S160 178 160 160C160 142 146 128 128 128ZM128 224C110 224 96 238 96 256C96 274 110 288 128 288S160 274 160 256C160 238 146 224 128 224ZM128 320C110 320 96 334 96 352C96 370 110 384 128 384S160 370 160 352C160 334 146 320 128 320ZM456 136H216C203 136 192 147 192 160S203 184 216 184H456C469 184 480 173 480 160S469 136 456 136ZM456 232H216C203 232 192 243 192 256S203 280 216 280H456C469 280 480 269 480 256S469 232 456 232ZM456 328H216C203 328 192 339 192 352S203 376 216 376H456C469 376 480 365 480 352S469 328 456 328Z"/></svg>