<svg xmlns="http://www.w3.org/2000/svg" viewBox="0 0 512 512"><!-- Font Awesome Pro 6.0.0-alpha1 by @fontawesome - https://fontawesome.com License - https://fontawesome.com/license (Commercial License) --><path d="M341 171L341 171C331 162 316 162 307 171L256 222L205 171C196 162 181 162 171 171L171 171C162 181 162 196 171 205L222 256L171 307C162 316 162 331 171 341L171 341C181 350 196 350 205 341L256 290L307 341C316 350 331 350 341 341L341 341C350 331 350 316 341 307L290 256L341 205C350 196 350 181 341 171ZM448 32H64C29 32 0 61 0 96V416C0 451 29 480 64 480H448C483 480 512 451 512 416V96C512 61 483 32 448 32ZM464 416C464 425 457 432 448 432H64C55 432 48 425 48 416V96C48 87 55 80 64 80H448C457 80 464 87 464 96V416Z"/></svg>