<svg xmlns="http://www.w3.org/2000/svg" viewBox="0 0 512 512"><!-- Font Awesome Pro 6.0.0-alpha1 by @fontawesome - https://fontawesome.com License - https://fontawesome.com/license (Commercial License) --><path d="M169 154C167 148 163 142 157 139C150 136 143 135 137 138L47 171C34 176 28 190 33 202C37 215 51 221 63 216L92 206L28 313C13 337 12 366 25 390L27 395C41 423 68 440 99 440H136C149 440 160 429 160 416S149 392 136 392H99C87 392 76 385 70 374L68 369C63 359 63 347 69 338L136 225L145 259C148 270 157 278 168 278C170 278 172 277 174 277C187 274 195 261 191 248L169 154ZM178 109C190 115 204 112 211 100L228 72C240 52 272 52 284 72L342 168L306 158C294 154 280 162 277 174C273 187 280 200 293 204L385 231C388 232 390 232 392 232C397 232 401 231 405 228C411 225 415 219 416 212L432 117C434 104 425 92 412 89C399 87 387 96 385 109L380 138L325 47C311 23 284 8 256 8S202 23 187 47L170 76C163 87 167 102 178 109ZM485 313L462 276C456 264 441 261 429 267C418 274 414 289 421 300L444 338C449 347 450 359 445 369L442 374C437 385 426 392 413 392H287L312 370C322 361 323 346 314 336C305 326 290 325 280 334L208 398C203 403 200 409 200 416S203 429 208 434L280 498C285 502 290 504 296 504C303 504 309 501 314 496C323 486 322 471 312 462L287 440H413C444 440 472 423 485 395L488 390C500 366 499 337 485 313Z"/></svg>