<svg xmlns="http://www.w3.org/2000/svg" viewBox="0 0 512 512"><!-- Font Awesome Pro 6.0.0-alpha1 by @fontawesome - https://fontawesome.com License - https://fontawesome.com/license (Commercial License) --><path d="M352 208C352 164 316 128 272 128H184C171 128 160 139 160 152V360C160 373 171 384 184 384S208 373 208 360V288H268L306 370C310 379 319 384 328 384C331 384 335 383 338 382C350 376 355 362 350 350L315 275C337 261 352 236 352 208ZM272 240H208V176H272C290 176 304 190 304 208S290 240 272 240ZM256 16C123 16 16 123 16 256S123 496 256 496C389 496 496 389 496 256S389 16 256 16ZM256 448C150 448 64 362 64 256S150 64 256 64S448 150 448 256S362 448 256 448Z"/></svg>