<svg xmlns="http://www.w3.org/2000/svg" viewBox="0 0 512 512"><!-- Font Awesome Pro 6.0.0-alpha1 by @fontawesome - https://fontawesome.com License - https://fontawesome.com/license (Commercial License) --><path d="M176 128H320V184C320 194 326 202 335 206S354 208 361 201L441 121C450 112 450 96 441 87L361 7C354 0 344 -2 335 2S320 14 320 24V80H176C79 80 0 159 0 256C0 269 11 280 24 280S48 269 48 256C48 185 105 128 176 128ZM488 232C475 232 464 243 464 256C464 327 407 384 336 384H192V328C192 318 186 310 177 306S158 304 151 311L71 391C62 400 62 416 71 425L151 505C158 512 168 514 177 510S192 498 192 488V432H336C433 432 512 353 512 256C512 243 501 232 488 232Z"/></svg>