<svg xmlns="http://www.w3.org/2000/svg" viewBox="0 0 576 512"><!-- Font Awesome Pro 6.0.0-alpha1 by @fontawesome - https://fontawesome.com License - https://fontawesome.com/license (Commercial License) --><path d="M61 208L216 74C226 66 227 50 218 40C209 30 194 29 184 38L8 190C3 194 0 201 0 208C0 215 3 222 8 226L184 378C189 382 194 384 200 384C207 384 213 381 218 376C227 366 226 350 216 342L61 208ZM424 184H217L344 74C354 66 355 50 346 40C337 30 322 29 312 38L136 190C131 194 128 201 128 208C128 215 131 222 136 226L312 378C317 382 322 384 328 384C335 384 341 381 346 376C355 366 354 350 344 342L217 232H424C481 232 528 279 528 336V456C528 469 539 480 552 480S576 469 576 456V336C576 252 508 184 424 184Z"/></svg>