<svg xmlns="http://www.w3.org/2000/svg" viewBox="0 0 640 512"><!-- Font Awesome Pro 6.0.0-alpha1 by @fontawesome - https://fontawesome.com License - https://fontawesome.com/license (Commercial License) --><path d="M189 144L162 140L149 115C147 111 141 111 139 115L126 140L99 144C94 145 92 151 96 154L116 174L111 201C110 206 115 210 120 207L144 194L169 207C173 210 178 206 177 201L173 174L192 154C196 151 194 145 189 144ZM317 144L290 140L277 115C275 111 269 111 267 115L254 140L227 144C222 145 220 151 224 154L244 174L239 201C238 206 243 210 248 207L272 194L297 207C301 210 306 206 305 201L301 174L320 154C324 151 322 145 317 144ZM445 144L418 140L405 115C403 111 397 111 395 115L382 140L355 144C350 145 348 151 352 154L372 174L367 201C366 206 371 210 376 207L400 194L425 207C429 210 434 206 433 201L429 174L448 154C452 151 450 145 445 144ZM624 320H608C599 320 592 327 592 336V408C592 421 581 432 568 432S544 421 544 408V192C544 104 472 32 384 32H160C72 32 0 104 0 192V448C0 466 14 480 32 480H128C146 480 160 466 160 448V384H288V448C288 466 302 480 320 480H416C434 480 448 466 448 448V384H496V404C496 441 523 476 560 480C563 480 566 480 568 480C608 480 640 448 640 408V336C640 327 633 320 624 320ZM496 336H432C414 336 400 350 400 368V432H336V368C336 350 322 336 304 336H144C126 336 112 350 112 368V432H48V288H496V336ZM496 240H48V192C48 130 98 80 160 80H384C446 80 496 130 496 192V240Z"/></svg>