<svg xmlns="http://www.w3.org/2000/svg" viewBox="0 0 640 512"><!-- Font Awesome Pro 6.0.0-alpha1 by @fontawesome - https://fontawesome.com License - https://fontawesome.com/license (Commercial License) --><path d="M328 368H136V192H192C202 192 210 186 214 177S216 158 209 151L129 71C124 66 118 64 112 64S100 66 95 71L15 151C8 158 6 168 10 177S22 192 32 192H88V392C88 405 99 416 112 416H328C341 416 352 405 352 392S341 368 328 368ZM598 335C594 326 586 320 576 320H520V120C520 107 509 96 496 96H280C267 96 256 107 256 120S267 144 280 144H472V320H416C406 320 398 326 394 335S392 354 399 361L479 441C484 446 490 448 496 448S508 446 513 441L593 361C600 354 602 344 598 335Z"/></svg>