<svg xmlns="http://www.w3.org/2000/svg" viewBox="0 0 448 512"><!-- Font Awesome Pro 6.0.0-alpha1 by @fontawesome - https://fontawesome.com License - https://fontawesome.com/license (Commercial License) --><path d="M438 405L329 287L367 247C402 209 406 155 378 109L347 59C332 35 310 17 285 9C249 -3 200 -3 164 9C138 17 116 35 101 59L68 113C42 156 47 210 81 247L119 287L10 405C-6 423 -2 451 18 464L81 505C105 521 127 505 133 499L224 401L315 499C321 505 343 521 367 505L430 464C450 451 454 423 438 405ZM328 120L337 134C354 162 352 192 332 214L297 251L257 208L302 158C314 147 322 133 328 120ZM178 54C205 46 243 46 270 54C279 57 287 63 295 70C292 83 285 108 268 125L224 172L180 124C163 108 156 83 153 70C161 63 169 57 178 54ZM102 462L53 429L151 322L191 365L102 462ZM346 462L116 214C97 193 94 162 109 138L120 121C126 133 134 146 145 157L395 430L346 462Z"/></svg>