<svg xmlns="http://www.w3.org/2000/svg" viewBox="0 0 512 512"><!-- Font Awesome Pro 6.0.0-alpha1 by @fontawesome - https://fontawesome.com License - https://fontawesome.com/license (Commercial License) --><path d="M168 432H96C70 432 48 410 48 384V128C48 102 70 80 96 80H168C181 80 192 69 192 56C192 43 181 32 168 32H96C43 32 0 75 0 128V384C0 437 43 480 96 480H168C181 480 192 469 192 456C192 443 181 432 168 432ZM504 239L351 104C342 96 327 94 315 99C304 104 296 116 296 129V184H176C154 184 136 202 136 224V288C136 310 154 328 176 328H296V383C296 396 304 408 315 413C320 415 325 416 329 416C337 416 345 413 351 408L504 274C509 270 512 263 512 256S509 243 504 239ZM344 350V280H184V232H344V162L452 256L344 350Z"/></svg>