<svg xmlns="http://www.w3.org/2000/svg" viewBox="0 0 512 512"><!-- Font Awesome Pro 6.0.0-alpha1 by @fontawesome - https://fontawesome.com License - https://fontawesome.com/license (Commercial License) --><path d="M24 152H352V232C352 242 358 250 366 254S385 256 392 250L504 146C515 136 515 120 504 110L392 6C385 0 375 -2 366 2S352 14 352 24V104H24C11 104 0 115 0 128S11 152 24 152ZM488 360H160V280C160 270 154 262 146 258S127 256 120 262L8 366C-3 376 -3 392 8 402L120 506C127 512 137 514 146 510S160 498 160 488V408H488C501 408 512 397 512 384S501 360 488 360Z"/></svg>