<svg xmlns="http://www.w3.org/2000/svg" viewBox="0 0 640 512"><!-- Font Awesome Pro 6.0.0-alpha1 by @fontawesome - https://fontawesome.com License - https://fontawesome.com/license (Commercial License) --><path d="M352 400C352 409 345 416 336 416H304C295 416 288 409 288 400C288 391 295 384 304 384H336C345 384 352 391 352 400ZM240 384H192C183 384 176 391 176 400C176 409 183 416 192 416H240C249 416 256 409 256 400C256 391 249 384 240 384ZM172 260C172 222 202 192 240 192C278 192 308 222 308 260C308 298 278 328 240 328C202 328 172 298 172 260ZM220 260C220 271 229 280 240 280C251 280 260 271 260 260C260 249 251 240 240 240C229 240 220 249 220 260ZM468 260C468 298 438 328 400 328C400 328 400 328 400 328S400 328 400 328C362 328 332 298 332 260C332 222 362 192 400 192C400 192 400 192 400 192S400 192 400 192C438 192 468 222 468 260ZM420 260C420 249 411 240 400 240C389 240 380 249 380 260C380 271 389 280 400 280C411 280 420 271 420 260ZM448 384H400C391 384 384 391 384 400C384 409 391 416 400 416H448C457 416 464 409 464 400C464 391 457 384 448 384ZM544 176V432C544 476 508 512 464 512H176C132 512 96 476 96 432V176C96 132 132 96 176 96H296V24C296 11 307 0 320 0S344 11 344 24V96H464C508 96 544 132 544 176ZM496 176C496 158 482 144 464 144H176C158 144 144 158 144 176V208V416V432C144 450 158 464 176 464H464C482 464 496 450 496 432V416V208V176ZM592 192H576V384H592C610 384 624 370 624 352V224C624 206 610 192 592 192ZM16 224V352C16 370 30 384 48 384H64V192H48C30 192 16 206 16 224Z"/></svg>