<svg xmlns="http://www.w3.org/2000/svg" viewBox="0 0 512 512"><!-- Font Awesome Pro 6.0.0-alpha1 by @fontawesome - https://fontawesome.com License - https://fontawesome.com/license (Commercial License) --><path d="M36 352C10 378 -3 443 1 511C70 515 134 502 160 476C200 436 203 382 166 346C130 309 76 312 36 352ZM117 436C109 445 87 449 64 448C63 425 67 403 76 395C89 381 107 380 119 393C132 405 131 423 117 436ZM505 19C504 14 498 8 493 7C461 0 435 0 410 0C307 0 245 55 199 128H95C79 128 59 140 52 154L3 253C1 257 0 260 0 264C0 277 11 288 24 288H128C181 288 224 331 224 384V488C224 501 235 512 248 512C252 512 255 511 259 510L358 460C372 453 384 434 384 417V313C457 266 512 204 512 102C512 77 512 51 505 19ZM358 272C333 289 351 279 259 325C244 293 219 268 187 253C233 162 223 179 240 154C287 80 338 48 410 48C428 48 444 48 462 50C464 68 464 85 464 102C464 174 432 225 358 272ZM368 104C346 104 328 122 328 144C328 166 346 184 368 184C390 184 408 166 408 144S390 104 368 104Z"/></svg>