<svg xmlns="http://www.w3.org/2000/svg" viewBox="0 0 512 512"><!-- Font Awesome Pro 6.0.0-alpha1 by @fontawesome - https://fontawesome.com License - https://fontawesome.com/license (Commercial License) --><path d="M481 34C472 30 462 32 455 39L405 90C364 54 312 32 256 32C157 32 69 98 41 193C37 206 45 219 57 223C70 227 83 219 87 207C109 132 178 80 256 80C299 80 339 96 371 123L311 183C304 190 302 200 306 209C310 218 318 224 328 224H472C485 224 496 213 496 200V56C496 46 490 38 481 34ZM455 289C442 285 429 293 425 305C403 380 334 432 256 432C213 432 173 416 141 389L201 329C208 322 210 312 206 303C202 294 194 288 184 288H40C27 288 16 299 16 312V456C16 466 22 474 31 478C34 479 37 480 40 480C46 480 52 478 57 473L107 422C148 458 200 480 256 480C355 480 443 414 471 319C475 306 467 293 455 289Z"/></svg>