<svg xmlns="http://www.w3.org/2000/svg" viewBox="0 0 512 512"><!-- Font Awesome Pro 6.0.0-alpha1 by @fontawesome - https://fontawesome.com License - https://fontawesome.com/license (Commercial License) --><path d="M480 72V200C480 213 469 224 456 224H328C318 224 310 218 306 209C302 200 304 190 311 183L363 131C331 99 287 80 240 80C143 80 64 159 64 256S143 432 240 432C281 432 321 418 353 391C363 383 378 384 386 394C395 405 394 420 383 428C343 462 292 480 240 480C117 480 16 379 16 256S117 32 240 32C300 32 356 57 397 97L439 55C446 48 456 46 465 50C474 54 480 62 480 72Z"/></svg>