<svg xmlns="http://www.w3.org/2000/svg" viewBox="0 0 576 512"><!-- Font Awesome Pro 6.0.0-alpha1 by @fontawesome - https://fontawesome.com License - https://fontawesome.com/license (Commercial License) --><path d="M248 102C238 111 237 126 246 136C255 146 270 147 280 138C320 103 384 103 424 138C434 147 449 146 458 136C462 131 464 126 464 120C464 113 461 107 456 102C399 52 305 52 248 102ZM200 58C284 -19 420 -19 504 58C514 67 529 66 538 56C542 52 544 46 544 40C544 34 541 27 536 22C435 -71 269 -71 168 22C158 31 157 47 166 56C175 66 190 67 200 58ZM512 256H376V200C376 187 365 176 352 176S328 187 328 200V256H64C29 256 0 285 0 320V400C0 436 29 464 64 464H512C547 464 576 436 576 400V320C576 285 547 256 512 256ZM528 400C528 409 521 416 512 416H64C55 416 48 409 48 400V320C48 311 55 304 64 304H512C521 304 528 311 528 320V400ZM184 336C171 336 160 347 160 360C160 373 171 384 184 384S208 373 208 360C208 347 197 336 184 336ZM104 336C91 336 80 347 80 360C80 373 91 384 104 384S128 373 128 360C128 347 117 336 104 336Z"/></svg>