<svg xmlns="http://www.w3.org/2000/svg" viewBox="0 0 512 512"><!-- Font Awesome Pro 6.0.0-alpha1 by @fontawesome - https://fontawesome.com License - https://fontawesome.com/license (Commercial License) --><path d="M481 55C478 45 469 38 460 38C458 38 456 39 455 39C436 44 417 47 396 47C347 47 303 31 270 5C266 2 261 0 256 0S246 2 242 5C209 31 165 47 116 47C95 47 76 44 57 39C56 39 54 38 52 38C43 38 34 45 31 55C-6 175 9 410 256 512C503 410 518 175 481 55ZM256 460C170 419 111 357 83 275C73 247 68 219 66 192H446C444 219 439 247 429 275C401 357 342 419 256 460Z"/></svg>