<svg xmlns="http://www.w3.org/2000/svg" viewBox="0 0 512 512"><!-- Font Awesome Pro 6.0.0-alpha1 by @fontawesome - https://fontawesome.com License - https://fontawesome.com/license (Commercial License) --><path d="M128 384H256L128 256V384ZM502 452L60 10C53 3 44 0 35 0C17 0 0 14 0 35V477C0 496 16 512 35 512H477C508 512 524 474 502 452ZM48 464V66L91 110L77 125C70 131 70 141 77 147C80 150 84 152 88 152S96 150 99 147L114 133L164 182L149 197C142 203 142 213 149 219C152 222 156 224 160 224S168 222 171 219L186 205L236 254L221 269C214 275 214 285 221 291C224 294 228 296 232 296S240 294 243 291L258 277L308 326L293 341C286 347 286 357 293 363C296 366 300 368 304 368S312 366 315 363L330 349L380 398L365 413C358 419 358 429 365 435C368 438 372 440 376 440S384 438 387 435L402 421L446 464H48Z"/></svg>