<svg xmlns="http://www.w3.org/2000/svg" viewBox="0 0 512 512"><!-- Font Awesome Pro 6.0.0-alpha1 by @fontawesome - https://fontawesome.com License - https://fontawesome.com/license (Commercial License) --><path d="M256 168C256 93 195 32 120 32H24C11 32 0 43 0 56V456C0 469 11 480 24 480S48 469 48 456V304H120C124 304 128 303 131 303L177 463C180 473 190 480 200 480C202 480 204 480 207 479C219 475 227 462 223 449L178 291C224 269 256 222 256 168ZM120 256H48V80H120C169 80 208 119 208 168S169 256 120 256ZM400 160H312C299 160 288 171 288 184V488C288 501 299 512 312 512S336 501 336 488V384H400C462 384 512 334 512 272S462 160 400 160ZM400 336H336V208H400C435 208 464 237 464 272S435 336 400 336Z"/></svg>