<svg xmlns="http://www.w3.org/2000/svg" viewBox="0 0 640 512"><!-- Font Awesome Pro 6.0.0-alpha1 by @fontawesome - https://fontawesome.com License - https://fontawesome.com/license (Commercial License) --><path d="M592 208H596C620 208 640 188 640 164C640 91 581 32 508 32H384C384 14 370 0 352 0H256C238 0 224 14 224 32H64C29 32 0 61 0 96V294C0 310 7 327 19 339L96 416V432C96 476 132 512 176 512S256 476 256 432C256 426 255 421 254 416H418C417 421 416 426 416 432C416 476 452 512 496 512S576 476 576 432C576 426 575 421 574 416H608C626 416 640 402 640 384V282C640 265 633 249 621 237L592 208ZM176 464C158 464 144 450 144 432S158 400 176 400S208 414 208 432S194 464 176 464ZM368 368H224C210 358 194 352 176 352S142 358 128 368H116L53 305C50 302 48 298 48 294V96C48 87 55 80 64 80H508C553 80 590 115 592 160H368V368ZM572 256H416V208H518C522 208 526 210 529 213L572 256ZM496 464C478 464 464 450 464 432S478 400 496 400S528 414 528 432S514 464 496 464ZM592 368H544C530 358 514 352 496 352S462 358 448 368H416V304H592V368ZM288 128H128C110 128 96 142 96 160V224C96 242 110 256 128 256H288C306 256 320 242 320 224V160C320 142 306 128 288 128Z"/></svg>