<svg xmlns="http://www.w3.org/2000/svg" viewBox="0 0 512 512"><!-- Font Awesome Pro 6.0.0-alpha1 by @fontawesome - https://fontawesome.com License - https://fontawesome.com/license (Commercial License) --><path d="M480 320H32C14 320 0 334 0 352V416C0 434 14 448 32 448H480C498 448 512 434 512 416V352C512 334 498 320 480 320ZM464 400H48V368H464V400ZM480 64H32C14 64 0 78 0 96V160C0 178 14 192 32 192H480C498 192 512 178 512 160V96C512 78 498 64 480 64ZM464 144H48V112H464V144ZM498 247C481 246 471 241 459 235C446 228 387 196 310 235C257 261 219 243 203 235C190 228 132 195 53 235C41 241 31 246 14 247C6 248 0 255 0 263V279C0 289 9 296 18 295C44 293 60 285 75 278C128 251 165 269 181 278C259 316 318 284 331 278C387 250 426 272 437 278C452 285 468 293 494 295C503 296 512 289 512 279V263C512 255 506 248 498 247Z"/></svg>