<svg xmlns="http://www.w3.org/2000/svg" viewBox="0 0 512 512"><!-- Font Awesome Pro 6.0.0-alpha1 by @fontawesome - https://fontawesome.com License - https://fontawesome.com/license (Commercial License) --><path d="M201 344L249 297C258 288 258 272 249 263S224 254 215 263L168 311L72 215C67 210 60 208 53 208C46 209 40 212 36 218C12 250 0 287 0 327C0 429 83 512 185 512C225 512 262 500 294 476C300 472 303 466 304 459C304 452 302 445 297 440L201 344ZM185 464C109 464 48 403 48 327C48 307 52 288 60 271L241 452C224 460 205 464 185 464ZM216 0C203 0 192 11 192 24S203 48 216 48C353 48 464 159 464 296C464 309 475 320 488 320S512 309 512 296C512 133 379 0 216 0ZM216 104C203 104 192 115 192 128S203 152 216 152C295 152 360 217 360 296C360 309 371 320 384 320S408 309 408 296C408 190 322 104 216 104Z"/></svg>