<svg xmlns="http://www.w3.org/2000/svg" viewBox="0 0 640 512"><!-- Font Awesome Pro 6.0.0-alpha1 by @fontawesome - https://fontawesome.com License - https://fontawesome.com/license (Commercial License) --><path d="M74 176L67 159C65 154 64 147 64 141C64 130 75 102 100 70C104 75 108 79 111 84L147 134L176 100C186 118 192 134 192 141C192 147 191 154 189 159L182 176H234C238 165 240 153 240 141C240 114 214 59 178 26C168 35 158 45 150 56C135 35 118 17 100 0C51 46 16 105 16 141C16 153 18 165 22 176H74ZM626 104L601 81C590 70 575 64 559 64H517C493 64 471 73 454 89L448 94L439 85C432 78 422 78 416 85L405 96C399 102 399 112 405 119L415 129L401 143L391 133C384 127 374 127 368 133L357 144C351 150 351 160 357 167L367 177L353 191L343 181C336 175 326 175 320 181L309 192C303 198 303 208 309 215L319 225L224 320L247 256H248C261 256 272 245 272 232C272 219 261 208 248 208H24C11 208 0 219 0 232C0 242 6 250 14 254C7 283 0 320 0 343C0 406 36 463 95 492C119 505 147 512 176 512C255 512 298 465 312 450C317 445 294 471 537 183H594C613 183 630 172 637 154C644 137 639 117 626 104ZM537 135C522 135 509 141 500 152C258 439 281 413 277 417C265 430 234 464 176 464C155 464 135 459 116 449C74 428 48 387 48 343C48 318 56 284 63 256H196L179 304C171 325 179 349 198 361C217 373 242 370 258 354L487 124C495 116 506 112 517 112H559C562 112 566 113 568 116L588 135H537ZM120 288C107 288 96 299 96 312S107 336 120 336S144 325 144 312S133 288 120 288Z"/></svg>