<svg xmlns="http://www.w3.org/2000/svg" viewBox="0 0 640 512"><!-- Font Awesome Pro 6.0.0-alpha1 by @fontawesome - https://fontawesome.com License - https://fontawesome.com/license (Commercial License) --><path d="M520 176C530 176 540 170 543 159C547 147 540 133 527 129L399 88C399 85 400 83 400 80C400 36 364 0 320 0C290 0 265 16 251 41L127 1C115 -3 101 4 97 17C93 29 100 43 113 47L241 88C244 120 266 146 296 156V464H120C107 464 96 475 96 488C96 501 107 512 120 512H312C330 512 344 498 344 480V156C358 151 370 143 380 132L513 175C515 176 518 176 520 176ZM320 112C302 112 288 98 288 80S302 48 320 48S352 62 352 80S338 112 320 112ZM555 250C546 233 529 224 512 224C495 224 478 233 469 250C383 423 384 416 384 432C384 476 441 512 512 512C583 512 640 476 640 432C640 416 642 425 555 250ZM440 416C446 404 492 312 512 272C512 272 512 272 512 272C531 310 578 403 584 416H440ZM256 304C256 288 258 297 171 122C162 105 145 96 128 96S94 105 85 122C-1 295 0 288 0 304C0 348 57 384 128 384S256 348 256 304ZM128 144C128 144 194 275 200 288H56C62 276 108 184 128 144Z"/></svg>