<svg xmlns="http://www.w3.org/2000/svg" viewBox="0 0 640 512"><!-- Font Awesome Pro 6.0.0-alpha1 by @fontawesome - https://fontawesome.com License - https://fontawesome.com/license (Commercial License) --><path d="M128 224C111 224 94 233 85 250C-2 425 0 416 0 432C0 476 57 512 128 512C199 512 256 476 256 432C256 416 257 423 171 250C162 233 145 224 128 224ZM56 416C62 403 109 310 128 272C128 272 128 272 128 272C148 312 194 404 200 416H56ZM520 464H344V156C374 146 396 120 399 88L527 47C540 43 547 29 543 17C539 4 525 -3 513 1L389 41C375 16 350 0 320 0C276 0 240 36 240 80C240 83 241 85 241 88L113 129C100 133 93 147 97 159C100 170 110 176 120 176C122 176 125 176 127 175L260 132C270 143 282 151 296 156V480C296 498 310 512 328 512H520C533 512 544 501 544 488C544 475 533 464 520 464ZM320 112C302 112 288 98 288 80S302 48 320 48S352 62 352 80S338 112 320 112ZM555 122C546 105 529 96 512 96S478 105 469 122C382 297 384 288 384 304C384 348 441 384 512 384S640 348 640 304C640 288 641 295 555 122ZM440 288C446 275 512 144 512 144C532 184 578 276 584 288H440Z"/></svg>