<svg xmlns="http://www.w3.org/2000/svg" viewBox="0 0 640 512"><!-- Font Awesome Pro 6.0.0-alpha1 by @fontawesome - https://fontawesome.com License - https://fontawesome.com/license (Commercial License) --><path d="M256 336C256 320 257 327 171 154C162 137 145 128 128 128S94 137 85 154C-2 329 0 320 0 336C0 380 57 416 128 416S256 380 256 336ZM128 176H128L200 320H56L128 176ZM520 464H344V156C371 147 393 125 398 96H520C533 96 544 85 544 72V72C544 59 533 48 520 48H393C381 20 353 0 320 0S259 20 247 48H120C107 48 96 59 96 72V72C96 85 107 96 120 96H242C247 125 269 147 296 156V464H120C107 464 96 475 96 488V488C96 501 107 512 120 512H520C533 512 544 501 544 488V488C544 475 533 464 520 464ZM320 112C302 112 288 98 288 80S302 48 320 48S352 62 352 80S338 112 320 112ZM640 336C640 320 641 327 555 154C546 137 529 128 512 128S478 137 469 154C382 329 384 320 384 336C384 380 441 416 512 416S640 380 640 336ZM440 320C440 320 493 214 512 176H512L584 320H440Z"/></svg>