<svg xmlns="http://www.w3.org/2000/svg" viewBox="0 0 448 512"><!-- Font Awesome Pro 6.0.0-alpha1 by @fontawesome - https://fontawesome.com License - https://fontawesome.com/license (Commercial License) --><path d="M446 186L419 160L438 142C443 137 439 128 432 128H320L320 90C320 39 278 -1 227 0C142 1 128 85 128 103L128 128H16C9 128 5 137 10 142L29 160L2 186C-1 189 -1 195 2 198L29 224L10 242C5 247 9 256 16 256H122L96 397C95 408 103 416 112 416C114 416 117 415 119 414L152 390C160 384 168 388 169 389L200 406V488C200 501 211 512 224 512H224C237 512 248 501 248 488V405L279 389C280 388 288 384 296 390L329 414C331 415 334 416 336 416C345 416 354 407 352 397L326 256H432C439 256 443 247 438 242L419 224L446 198C449 195 449 190 446 186ZM176 101C176 101 176 100 176 100C180 102 184 104 188 104C199 104 208 95 208 84C208 74 200 65 190 64C198 55 210 48 224 48C246 48 264 63 270 83C267 81 264 80 260 80C249 80 240 89 240 100S249 120 260 120C265 120 269 118 272 116V128C272 137 265 144 256 144H192C183 144 176 137 176 128V101ZM367 208H268L279 265L292 339C280 338 268 341 257 346L224 364L192 346C182 342 172 339 161 339C160 339 158 339 156 339L169 265L180 208H81L65 192L81 176H150C161 186 176 192 192 192H256C272 192 287 186 298 176H367L383 192L367 208Z"/></svg>