<svg xmlns="http://www.w3.org/2000/svg" viewBox="0 0 512 512"><!-- Font Awesome Pro 6.0.0-alpha1 by @fontawesome - https://fontawesome.com License - https://fontawesome.com/license (Commercial License) --><path d="M511 403C512 401 512 398 510 396L367 253L391 228C439 174 404 115 402 112L359 39C354 32 349 26 342 21C296 -9 209 -5 170 22C163 26 158 32 154 39L110 113C108 115 73 175 121 228L145 253L5 397C-2 403 -2 413 5 419L5 419C11 426 21 426 27 419L95 350L117 373L53 437C46 443 46 453 53 459C59 466 69 466 75 459L139 395L161 417L93 485C86 491 86 501 93 507L93 507C99 514 109 514 115 507L256 366L397 510C399 512 401 512 404 511C409 513 415 512 419 507L419 507C426 501 426 491 419 485L351 416L373 395L437 459C443 466 453 466 459 459C466 453 466 443 459 437L395 373L396 372L417 350L485 419C491 426 501 426 507 419L507 419C512 415 513 409 511 403ZM349 117L361 137C365 144 378 170 356 195L332 219L290 176L349 117ZM195 64C207 43 305 43 317 64L324 74L256 142L188 74L195 64ZM179 287L223 332L222 332L184 371L139 327L179 287ZM156 195C134 170 147 144 151 137L163 117L373 327L329 371L156 195Z"/></svg>