<svg xmlns="http://www.w3.org/2000/svg" viewBox="0 0 512 512"><!-- Font Awesome Pro 6.0.0-alpha1 by @fontawesome - https://fontawesome.com License - https://fontawesome.com/license (Commercial License) --><path d="M507 60L452 5C447 -1 438 -2 431 3L306 97C298 103 293 113 293 123V185L212 266C167 242 130 266 116 280L12 384C-4 400 -4 426 12 442L70 500C78 508 89 512 99 512C110 512 120 508 128 500L232 396C258 370 262 331 246 300L290 256L327 219H389C399 219 409 214 415 206L509 81C514 74 513 65 507 60ZM198 362L99 461L51 413L150 314C163 301 185 301 198 314C211 327 211 349 198 362ZM381 171H341V131L438 58L454 74L381 171Z"/></svg>