<svg xmlns="http://www.w3.org/2000/svg" viewBox="0 0 512 512"><!-- Font Awesome Pro 6.0.0-alpha1 by @fontawesome - https://fontawesome.com License - https://fontawesome.com/license (Commercial License) --><path d="M224 96L224 145L254 175C247 140 257 104 282 79C302 59 329 48 357 48L358 48L301 105L316 196L407 211L464 154C464 182 453 209 433 230C424 239 413 246 401 251C403 253 405 254 407 256L437 287C448 280 458 273 467 264C505 226 520 169 507 117C504 105 495 95 483 92C471 89 458 92 449 101L390 160L358 154L353 122L411 63C420 54 423 41 420 29C417 17 407 8 395 5C342 -9 287 7 248 45C238 55 230 67 223 79L224 80L224 96ZM106 454C93 467 71 467 58 454C52 448 48 439 48 430C48 421 51 412 58 406L192 272L158 238L24 372C9 387 0 408 0 430S9 472 24 488C39 503 60 512 82 512C104 512 124 503 140 488L241 387C231 371 226 353 225 335L106 454ZM501 396L384 279C361 255 326 251 299 265L192 158L192 96L64 0L0 64L96 192L158 192L265 299C251 326 255 361 279 384L396 501C410 516 434 516 448 501L501 448C516 434 516 410 501 396Z"/></svg>