<svg xmlns="http://www.w3.org/2000/svg" viewBox="0 0 384 512"><!-- Font Awesome Pro 6.0.0-alpha1 by @fontawesome - https://fontawesome.com License - https://fontawesome.com/license (Commercial License) --><path d="M320 0H141C133 0 125 3 119 9L9 119C3 125 0 133 0 141V448C0 483 29 512 64 512H320C355 512 384 483 384 448V64C384 29 355 0 320 0ZM336 448C336 457 329 464 320 464H64C55 464 48 457 48 448V148L148 48H320C329 48 336 55 336 64V448ZM288 80C279 80 272 87 272 96V160C272 169 279 176 288 176S304 169 304 160V96C304 87 297 80 288 80ZM224 80C215 80 208 87 208 96V160C208 169 215 176 224 176S240 169 240 160V96C240 87 233 80 224 80ZM160 80C151 80 144 87 144 96V160C144 169 151 176 160 176S176 169 176 160V96C176 87 169 80 160 80Z"/></svg>