<svg xmlns="http://www.w3.org/2000/svg" viewBox="0 0 448 512"><!-- Font Awesome Pro 6.0.0-alpha1 by @fontawesome - https://fontawesome.com License - https://fontawesome.com/license (Commercial License) --><path d="M443 282C439 276 432 272 424 272H100L79 224H328C341 224 352 213 352 200C352 187 341 176 328 176H58L52 161C49 156 48 150 48 144V24C48 11 37 0 24 0S0 11 0 24V144C0 156 3 169 8 180L87 362C102 395 135 416 171 416H216V464H120C107 464 96 475 96 488C96 501 107 512 120 512H360C373 512 384 501 384 488C384 475 373 464 360 464H264V416H392C402 416 411 409 415 400L447 304C449 296 448 288 443 282ZM375 368H171C154 368 138 358 131 342L121 320H391L375 368Z"/></svg>