<svg xmlns="http://www.w3.org/2000/svg" viewBox="0 0 512 512"><!-- Font Awesome Pro 6.0.0-alpha1 by @fontawesome - https://fontawesome.com License - https://fontawesome.com/license (Commercial License) --><path d="M436 32C345 32 268 100 242 193C205 135 144 96 76 96H0V120C0 248 92 352 204 352H232V464C232 473 239 480 248 480H264C273 480 280 473 280 464V288H308C420 288 512 184 512 56V32H436ZM204 304C125 304 59 234 49 144H75C155 144 221 214 231 304H204ZM308 240H281C291 150 357 80 437 80H463C453 170 387 240 308 240Z"/></svg>