<svg xmlns="http://www.w3.org/2000/svg" viewBox="0 0 512 512"><!-- Font Awesome Pro 6.0.0-alpha1 by @fontawesome - https://fontawesome.com License - https://fontawesome.com/license (Commercial License) --><path d="M448 160H224C189 160 160 189 160 224V448C160 483 189 512 224 512H448C483 512 512 483 512 448V224C512 189 483 160 448 160ZM464 448C464 457 457 464 448 464H224C215 464 208 457 208 448V224C208 215 215 208 224 208H448C457 208 464 215 464 224V448ZM352 128V64C352 29 323 0 288 0H64C29 0 0 29 0 64V288C0 323 29 352 64 352H128V224C128 171 171 128 224 128H352Z"/></svg>