<svg xmlns="http://www.w3.org/2000/svg" viewBox="0 0 640 512"><!-- Font Awesome Pro 6.0.0-alpha1 by @fontawesome - https://fontawesome.com License - https://fontawesome.com/license (Commercial License) --><path d="M616 232H536C523 232 512 243 512 256C512 269 523 280 536 280H616C629 280 640 269 640 256C640 243 629 232 616 232ZM536 144C541 144 545 143 549 140L597 108C605 103 609 95 609 86C608 78 603 70 595 66C587 62 578 63 571 68L523 100C514 106 510 117 513 127C516 137 526 144 536 144ZM549 372C538 365 523 368 516 379C509 390 512 405 523 412L571 444C582 451 597 448 604 437C611 426 608 411 597 404L549 372ZM120 128C107 128 96 139 96 152V264C96 277 107 288 120 288S144 277 144 264V152C144 139 133 128 120 128ZM200 128C187 128 176 139 176 152V264C176 277 187 288 200 288S224 277 224 264V152C224 139 213 128 200 128ZM384 32H64C29 32 0 61 0 96V416C0 451 29 480 64 480H384C419 480 448 451 448 416V96C448 61 419 32 384 32ZM400 416C400 425 393 432 384 432H64C55 432 48 425 48 416V96C48 87 55 80 64 80H384C393 80 400 87 400 96V416Z"/></svg>