<svg xmlns="http://www.w3.org/2000/svg" viewBox="0 0 448 512"><!-- Font Awesome Pro 6.0.0-alpha1 by @fontawesome - https://fontawesome.com License - https://fontawesome.com/license (Commercial License) --><path d="M200 128C187 128 176 139 176 152V264C176 277 187 288 200 288S224 277 224 264V152C224 139 213 128 200 128ZM120 128C107 128 96 139 96 152V264C96 277 107 288 120 288S144 277 144 264V152C144 139 133 128 120 128ZM384 32H64C29 32 0 61 0 96V416C0 451 29 480 64 480H384C419 480 448 451 448 416V96C448 61 419 32 384 32ZM400 416C400 425 393 432 384 432H64C55 432 48 425 48 416V96C48 87 55 80 64 80H384C393 80 400 87 400 96V416Z"/></svg>