<svg xmlns="http://www.w3.org/2000/svg" viewBox="0 0 576 512"><!-- Font Awesome Pro 6.0.0-alpha1 by @fontawesome - https://fontawesome.com License - https://fontawesome.com/license (Commercial License) --><path d="M568 143L424 7C415 -3 400 -2 391 8C381 17 382 32 392 41L492 136H328C288 134 250 151 221 179C192 208 176 247 176 288V376C176 389 187 400 200 400S224 389 224 376V288C224 260 235 233 255 214C274 194 299 183 328 184H492L392 279C382 288 381 303 391 312C395 317 402 320 408 320C414 320 420 318 424 313L568 177C573 173 576 167 576 160S573 147 568 143ZM360 384C347 384 336 395 336 408V456C336 460 332 464 328 464H56C52 464 48 460 48 456V184C48 180 52 176 56 176H112C125 176 136 165 136 152S125 128 112 128H56C25 128 0 153 0 184V456C0 487 25 512 56 512H328C359 512 384 487 384 456V408C384 395 373 384 360 384Z"/></svg>