<svg xmlns="http://www.w3.org/2000/svg" viewBox="0 0 448 512"><!-- Font Awesome Pro 6.0.0-alpha1 by @fontawesome - https://fontawesome.com License - https://fontawesome.com/license (Commercial License) --><path d="M256 152V328C256 341 267 352 280 352S304 341 304 328V152C304 86 250 32 184 32H40C27 32 16 43 16 56V456C16 469 27 480 40 480S64 469 64 456V80H184C224 80 256 112 256 152ZM408 32C395 32 384 43 384 56V432H264C224 432 192 400 192 360V184C192 171 181 160 168 160S144 171 144 184V360C144 426 198 480 264 480H408C421 480 432 469 432 456V56C432 43 421 32 408 32Z"/></svg>