<svg xmlns="http://www.w3.org/2000/svg" viewBox="0 0 640 512"><!-- Font Awesome Pro 6.0.0-alpha1 by @fontawesome - https://fontawesome.com License - https://fontawesome.com/license (Commercial License) --><path d="M616 0C603 0 592 11 592 24V144H510C511 139 512 134 512 128V64C512 29 483 0 448 0H384C349 0 320 29 320 64V128C320 134 321 139 322 144H48V24C48 11 37 0 24 0S0 11 0 24V488C0 501 11 512 24 512S48 501 48 488V448H592V488C592 501 603 512 616 512S640 501 640 488V24C640 11 629 0 616 0ZM368 128V64C368 55 375 48 384 48H448C457 48 464 55 464 64V128C464 137 457 144 448 144H384C375 144 368 137 368 128ZM160 400C151 400 144 393 144 384V320C144 311 151 304 160 304H224C233 304 240 311 240 320V384C240 393 233 400 224 400H160ZM304 400C295 400 288 393 288 384V320C288 311 295 304 304 304H368C377 304 384 311 384 320V384C384 393 377 400 368 400H304ZM430 400C431 395 432 390 432 384V320C432 285 403 256 368 256H304C289 256 275 262 264 270C253 262 239 256 224 256H160C125 256 96 285 96 320V384C96 390 97 395 98 400H48V192H592V400H430Z"/></svg>