<svg xmlns="http://www.w3.org/2000/svg" viewBox="0 0 512 512"><!-- Font Awesome Pro 6.0.0-alpha1 by @fontawesome - https://fontawesome.com License - https://fontawesome.com/license (Commercial License) --><path d="M466 84L274 4C270 2 261 0 256 0C251 0 242 2 238 4L46 84C28 91 16 109 16 128C16 327 130 464 238 508C243 511 250 512 256 512S269 511 274 508C360 473 496 349 496 128C496 109 484 91 466 84ZM256 48L256 48C256 48 256 48 256 48L256 48ZM256 464C164 425 64 304 64 128L255 48C255 48 256 48 256 48L448 128C448 330 322 436 256 464ZM256 320C238 320 224 334 224 352S238 384 256 384S288 370 288 352S274 320 256 320ZM218 146L230 274C231 282 238 288 246 288H266C274 288 281 282 282 274L294 146C295 136 288 128 278 128H234C224 128 217 136 218 146Z"/></svg>