<svg xmlns="http://www.w3.org/2000/svg" viewBox="0 0 512 512"><!-- Font Awesome Pro 6.0.0-alpha1 by @fontawesome - https://fontawesome.com License - https://fontawesome.com/license (Commercial License) --><path d="M466 84L274 4C263 -1 249 -1 238 4L46 84C28 91 16 109 16 128C16 326 130 464 238 508C249 513 263 513 274 508C360 473 496 349 496 128C496 109 484 91 466 84ZM232 58V168H66C65 155 64 142 64 128L232 58ZM73 216H232V452C161 412 96 328 73 216ZM280 452V216H439C416 330 349 413 280 452ZM446 168H280V58L448 128C448 142 447 155 446 168Z"/></svg>