<svg xmlns="http://www.w3.org/2000/svg" viewBox="0 0 576 512"><!-- Font Awesome Pro 6.0.0-alpha1 by @fontawesome - https://fontawesome.com License - https://fontawesome.com/license (Commercial License) --><path d="M556 464C535 460 514 449 497 431C488 422 472 422 463 431C443 452 414 464 384 464S325 452 305 431C296 422 280 422 271 431C251 452 222 464 192 464C160 464 124 450 105 431C96 422 80 422 71 431C52 451 39 461 20 464C7 467 -2 479 0 492C3 505 15 514 28 512C54 507 73 495 89 480C117 500 155 512 192 512C227 512 261 500 288 480C342 521 425 521 480 480C500 496 524 507 548 512C549 512 551 512 552 512C563 512 574 504 576 492C578 479 569 467 556 464ZM133 410C138 414 143 416 149 416C156 416 162 413 167 408C176 398 175 383 165 374L83 299C78 295 80 288 86 286L288 217L490 286C496 288 498 295 493 299L411 374C401 383 400 398 409 408C414 413 420 416 427 416C433 416 438 414 443 410L526 334C540 321 547 301 543 282C539 262 525 247 506 240L480 232V120C480 89 455 64 424 64H384V32C384 14 370 0 352 0H224C206 0 192 14 192 32V64H152C121 64 96 89 96 120V232L70 240C51 247 37 262 33 282C29 301 35 321 50 334L133 410ZM144 120C144 116 148 112 152 112H424C428 112 432 116 432 120V215L296 169C295 169 294 169 293 169C291 169 290 168 288 168C286 168 285 169 283 169C282 169 281 169 280 169L144 215V120Z"/></svg>