<svg xmlns="http://www.w3.org/2000/svg" viewBox="0 0 512 512"><!-- Font Awesome Pro 6.0.0-alpha1 by @fontawesome - https://fontawesome.com License - https://fontawesome.com/license (Commercial License) --><path d="M503 72L440 9C428 -3 409 -3 397 9L373 33C359 47 351 66 351 86C351 91 351 96 352 101C354 107 356 114 359 119L262 216L221 175C211 165 198 160 185 160C175 160 164 163 155 170L19 275C-4 293 -7 328 15 350L162 497C172 507 185 512 198 512C212 512 227 505 237 493L342 357C357 337 355 309 337 292L296 250L393 153C399 156 405 158 411 160C436 165 461 157 479 139L503 115C515 103 515 84 503 72ZM303 326C304 326 304 327 304 328L199 463C199 463 199 464 198 464C198 464 197 464 196 463L49 316L49 313L184 208C184 208 185 208 185 208L187 209L303 326ZM445 105C438 112 429 114 421 113C410 110 402 102 399 91C398 83 400 74 407 67L418 55L457 93L445 105ZM154 266L122 298C112 307 112 322 122 332C126 336 133 339 139 339C145 339 151 336 156 332L188 300C197 290 197 275 188 266C178 256 163 256 154 266ZM180 390C185 395 191 397 197 397C204 397 210 395 214 390L246 358C256 349 256 334 246 324C237 315 222 315 213 324L181 356C171 366 171 381 180 390Z"/></svg>