<svg xmlns="http://www.w3.org/2000/svg" viewBox="0 0 384 512"><!-- Font Awesome Pro 6.0.0-alpha1 by @fontawesome - https://fontawesome.com License - https://fontawesome.com/license (Commercial License) --><path d="M360 208H352V192C352 112 293 46 216 34V24C216 11 205 0 192 0S168 11 168 24V34C91 46 32 112 32 192V208H24C11 208 0 219 0 232C0 245 11 256 24 256H360C373 256 384 245 384 232C384 219 373 208 360 208ZM304 208H80V192C80 130 130 80 192 80S304 130 304 192V208ZM69 291C67 287 61 287 59 291C54 298 32 333 32 350C32 369 46 384 64 384S96 369 96 350C96 333 74 298 69 291ZM197 291C195 287 189 287 187 291C182 298 160 333 160 350C160 369 174 384 192 384S224 369 224 350C224 333 202 298 197 291ZM315 291C310 298 288 333 288 350C288 369 302 384 320 384S352 369 352 350C352 333 330 298 325 291C323 287 317 287 315 291ZM251 419C246 426 224 461 224 478C224 497 238 512 256 512S288 497 288 478C288 461 266 426 261 419C259 415 253 415 251 419ZM123 419C118 426 96 461 96 478C96 497 110 512 128 512S160 497 160 478C160 461 138 426 133 419C131 415 125 415 123 419Z"/></svg>