<svg xmlns="http://www.w3.org/2000/svg" viewBox="0 0 512 512"><!-- Font Awesome Pro 6.0.0-alpha1 by @fontawesome - https://fontawesome.com License - https://fontawesome.com/license (Commercial License) --><path d="M345 87C336 78 320 78 311 87L310 88L303 81C281 59 253 48 224 48C202 48 181 54 162 67L145 53C129 39 109 32 89 32C40 32 0 72 0 121V456C0 469 11 480 24 480S48 469 48 456V121C48 98 66 80 89 80C98 80 107 83 115 89L129 101C102 145 107 202 145 239L152 246L151 247C142 256 142 272 151 281C156 286 162 288 168 288S180 286 185 281L345 121C354 112 354 96 345 87ZM186 212L179 205C154 180 154 140 179 115C191 103 207 96 224 96C241 96 257 103 269 115L276 122L186 212ZM480 192C462 192 448 206 448 224C448 242 462 256 480 256S512 242 512 224C512 206 498 192 480 192ZM288 384C270 384 256 398 256 416C256 434 270 448 288 448S320 434 320 416C320 398 306 384 288 384ZM352 320C334 320 320 334 320 352C320 370 334 384 352 384S384 370 384 352C384 334 370 320 352 320ZM416 256C398 256 384 270 384 288C384 306 398 320 416 320S448 306 448 288C448 270 434 256 416 256ZM288 320C288 302 274 288 256 288S224 302 224 320C224 338 238 352 256 352S288 338 288 320ZM320 224C302 224 288 238 288 256C288 274 302 288 320 288S352 274 352 256C352 238 338 224 320 224ZM384 224C402 224 416 210 416 192C416 174 402 160 384 160S352 174 352 192C352 210 366 224 384 224Z"/></svg>