<svg xmlns="http://www.w3.org/2000/svg" viewBox="0 0 512 512"><!-- Font Awesome Pro 6.0.0-alpha1 by @fontawesome - https://fontawesome.com License - https://fontawesome.com/license (Commercial License) --><path d="M472 192H432V120C432 98 414 80 392 80H320V40C320 18 302 0 280 0H245C229 0 215 9 209 23L95 266L31 331C-10 372 -10 440 31 481C72 522 139 522 181 481L246 416L489 303C503 297 512 282 512 267V232C512 210 494 192 472 192ZM384 128V190L293 219L321 128H384ZM85 345L106 324L188 406L167 427L85 345ZM250 48H272V98L210 134L250 48ZM261 160L235 243L164 314L138 288L175 210L261 160ZM65 447C43 425 43 390 63 368L144 449C121 470 86 468 65 447ZM224 374L198 348L269 277L352 251L301 337L224 374ZM464 262L378 302L414 240H464V262Z"/></svg>