<svg xmlns="http://www.w3.org/2000/svg" viewBox="0 0 512 512"><!-- Font Awesome Pro 6.0.0-alpha1 by @fontawesome - https://fontawesome.com License - https://fontawesome.com/license (Commercial License) --><path d="M130 309C124 302 113 302 107 309L85 331C78 337 78 348 85 354L87 357L9 435C-3 447 -3 468 9 480L32 503C45 515 65 515 77 503L155 425L158 427C164 434 175 434 181 427L203 405C210 398 210 388 203 382L130 309ZM511 154C501 101 447 0 318 0C228 0 152 62 132 150C119 210 140 276 189 324L217 350C222 354 227 356 233 356C239 356 245 354 250 349L281 318C289 311 291 298 285 289C256 241 270 182 319 152C350 133 390 132 422 149C435 157 447 167 456 179C465 190 480 194 494 188C507 182 514 168 511 154ZM293 111C229 151 205 230 235 297L233 299L222 289C186 253 169 204 179 160C191 106 240 48 318 48C378 48 414 75 435 102C390 82 336 85 293 111Z"/></svg>