<svg xmlns="http://www.w3.org/2000/svg" viewBox="0 0 512 512"><!-- Font Awesome Pro 6.0.0-alpha1 by @fontawesome - https://fontawesome.com License - https://fontawesome.com/license (Commercial License) --><path d="M400 136V80H148L313 239C317 243 320 249 320 256S317 269 313 273L148 432H400V376C400 363 411 352 424 352C437 352 448 363 448 376V456C448 469 437 480 424 480H88C78 480 69 474 66 465S64 446 71 439L261 256L71 73C64 66 62 56 66 47S78 32 88 32H424C437 32 448 43 448 56V136C448 149 437 160 424 160C411 160 400 149 400 136Z"/></svg>