<svg xmlns="http://www.w3.org/2000/svg" viewBox="0 0 640 512"><!-- Font Awesome Pro 6.0.0-alpha1 by @fontawesome - https://fontawesome.com License - https://fontawesome.com/license (Commercial License) --><path d="M192 288C179 288 168 299 168 312V488C168 501 179 512 192 512S216 501 216 488V312C216 299 205 288 192 288ZM64 384C51 384 40 395 40 408V488C40 501 51 512 64 512S88 501 88 488V408C88 395 77 384 64 384ZM296 488C296 501 307 512 320 512S344 501 344 488V366L296 328V488ZM424 488C424 501 435 512 448 512S472 501 472 488V466L424 429V488ZM631 469L600 445V24C600 11 589 0 576 0S552 11 552 24V407L472 345V120C472 107 461 96 448 96S424 107 424 120V307L344 244V216C344 203 333 192 320 192C310 192 301 199 298 208L39 5C28 -3 13 -1 5 9C-3 20 -1 35 9 43L601 507C606 510 611 512 616 512C623 512 630 509 635 503C643 492 641 477 631 469Z"/></svg>