<svg xmlns="http://www.w3.org/2000/svg" viewBox="0 0 512 512"><!-- Font Awesome Pro 6.0.0-alpha1 by @fontawesome - https://fontawesome.com License - https://fontawesome.com/license (Commercial License) --><path d="M441 192C450 192 458 188 464 180L507 126C514 118 514 106 507 98L464 44C458 36 450 32 441 32H280V24C280 11 269 0 256 0H256C243 0 232 11 232 24V32H56C43 32 32 45 32 62V162C32 179 43 192 56 192H232V224H71C62 224 54 228 48 236L5 290C-2 298 -2 310 5 318L48 372C54 380 62 384 71 384H232V488C232 501 243 512 256 512H256C269 512 280 501 280 488V384H456C469 384 480 371 480 354V254C480 237 469 224 456 224H280V192H441ZM432 336H80L55 304L80 272H432V336ZM80 80H432L457 112L432 144H80V80Z"/></svg>