<svg xmlns="http://www.w3.org/2000/svg" viewBox="0 0 576 512"><!-- Font Awesome Pro 6.0.0-alpha1 by @fontawesome - https://fontawesome.com License - https://fontawesome.com/license (Commercial License) --><path d="M506 72C497 62 482 61 472 70C462 79 461 94 470 104C548 188 548 324 470 408C461 418 462 433 472 442C477 446 482 448 488 448C495 448 501 445 506 440C599 339 599 173 506 72ZM392 150C382 159 381 174 390 184C425 224 425 288 390 328C381 338 382 353 392 362C397 366 402 368 408 368C415 368 421 365 426 360C476 303 476 209 426 152C417 142 402 141 392 150ZM104 70C94 61 79 62 70 72C-23 173 -23 339 70 440C75 445 81 448 88 448C94 448 99 446 104 442C114 433 114 418 105 408C28 324 28 188 105 104C114 94 114 79 104 70ZM184 150C174 141 159 142 150 152C100 209 100 303 150 360C155 365 161 368 168 368C173 368 179 366 184 362C194 353 195 338 186 328C151 288 151 224 186 184C195 174 194 159 184 150ZM288 216C266 216 248 234 248 256C248 278 266 296 288 296S328 278 328 256C328 234 310 216 288 216Z"/></svg>