<svg xmlns="http://www.w3.org/2000/svg" viewBox="0 0 640 512"><!-- Font Awesome Pro 6.0.0-alpha1 by @fontawesome - https://fontawesome.com License - https://fontawesome.com/license (Commercial License) --><path d="M416 464H384V397L336 360V480C336 498 350 512 368 512H432C450 512 464 498 464 480V460L416 422V464ZM184 288V480C184 498 198 512 216 512H280C298 512 312 498 312 480V341L206 258C193 262 184 274 184 288ZM232 304H264V464H232V304ZM128 384H64C46 384 32 398 32 416V480C32 498 46 512 64 512H128C146 512 160 498 160 480V416C160 398 146 384 128 384ZM112 464H80V432H112V464ZM631 469L616 458V32C616 14 602 0 584 0H520C502 0 488 14 488 32V357L464 338V160C464 142 450 128 432 128H368C350 128 336 142 336 160V238L39 5C28 -3 13 -1 5 9C-3 20 -1 35 9 43L601 507C606 510 611 512 616 512C623 512 630 509 635 503C643 492 641 477 631 469ZM416 301L384 276V176H416V301ZM568 420L536 395V48H568V420Z"/></svg>