<svg xmlns="http://www.w3.org/2000/svg" viewBox="0 0 576 512"><!-- Font Awesome Pro 6.0.0-alpha1 by @fontawesome - https://fontawesome.com License - https://fontawesome.com/license (Commercial License) --><path d="M400 128H336C318 128 304 142 304 160V480C304 498 318 512 336 512H400C418 512 432 498 432 480V160C432 142 418 128 400 128ZM384 464H352V176H384V464ZM96 384H32C14 384 0 398 0 416V480C0 498 14 512 32 512H96C114 512 128 498 128 480V416C128 398 114 384 96 384ZM80 464H48V432H80V464ZM248 256H184C166 256 152 270 152 288V480C152 498 166 512 184 512H248C266 512 280 498 280 480V288C280 270 266 256 248 256ZM232 464H200V304H232V464Z"/></svg>