<svg xmlns="http://www.w3.org/2000/svg" viewBox="0 0 512 512"><!-- Font Awesome Pro 6.0.0-alpha1 by @fontawesome - https://fontawesome.com License - https://fontawesome.com/license (Commercial License) --><path d="M488 64H112V24C112 11 101 0 88 0H88C75 0 64 11 64 24V64H24C11 64 0 75 0 88V88C0 101 11 112 24 112H64V488C64 501 75 512 88 512H88C101 512 112 501 112 488V112H192V160C174 160 160 174 160 192V352C160 370 174 384 192 384H448C466 384 480 370 480 352V192C480 174 466 160 448 160V112H488C501 112 512 101 512 88V88C512 75 501 64 488 64ZM432 336H208V208H432V336ZM416 160H224V112H416V160Z"/></svg>