<svg xmlns="http://www.w3.org/2000/svg" viewBox="0 0 640 512"><!-- Font Awesome Pro 6.0.0-alpha1 by @fontawesome - https://fontawesome.com License - https://fontawesome.com/license (Commercial License) --><path d="M112 224C112 211 101 200 88 200H24C11 200 0 211 0 224S11 248 24 248H88C101 248 112 237 112 224ZM91 108C98 113 107 114 115 110C123 106 128 98 129 90S125 73 117 68L69 36C62 31 53 30 45 34C37 38 32 46 31 54S35 71 43 76L91 108ZM536 112C541 112 545 111 549 108L597 76C605 71 609 63 608 54S603 38 595 34C587 30 578 31 571 36L523 68C514 74 510 85 513 95C516 105 526 112 536 112ZM616 200H552C539 200 528 211 528 224S539 248 552 248H616C629 248 640 237 640 224S629 200 616 200ZM497 336L460 142C456 115 432 96 405 96H235C208 96 184 115 179 142L143 336C117 337 96 358 96 384V432C96 458 118 480 144 480H496C522 480 544 458 544 432V384C544 358 523 337 497 336ZM227 151C227 147 231 144 235 144H405C409 144 413 147 413 150L448 336H192L227 151ZM496 432H144V384H496V432ZM284 176C271 174 258 183 256 196L240 292C238 305 247 318 260 320C261 320 263 320 264 320C276 320 286 312 288 300L304 204C306 191 297 178 284 176Z"/></svg>