<svg xmlns="http://www.w3.org/2000/svg" viewBox="0 0 512 512"><!-- Font Awesome Pro 6.0.0-alpha1 by @fontawesome - https://fontawesome.com License - https://fontawesome.com/license (Commercial License) --><path d="M344 200C313 200 288 225 288 256S313 312 344 312S400 287 400 256S375 200 344 200ZM168 200C137 200 112 225 112 256S137 312 168 312S224 287 224 256S199 200 168 200ZM256 0C115 0 0 100 0 224C0 294 37 357 94 398C104 405 110 416 108 428L101 476C98 495 113 512 133 512H379C399 512 414 495 411 475L404 428C402 416 408 405 418 398C475 357 512 294 512 224C512 100 397 0 256 0ZM390 359C365 376 352 405 357 434L361 464H320V440C320 427 309 416 296 416H296C283 416 272 427 272 440V464H240V440C240 427 229 416 216 416H216C203 416 192 427 192 440V464H151L156 434C160 405 147 376 122 359C75 325 48 276 48 224C48 127 141 48 256 48S464 127 464 224C464 276 437 325 390 359Z"/></svg>