<svg xmlns="http://www.w3.org/2000/svg" viewBox="0 0 640 512"><!-- Font Awesome Pro 6.0.0-alpha1 by @fontawesome - https://fontawesome.com License - https://fontawesome.com/license (Commercial License) --><path d="M256 224C238 224 224 238 224 256C224 274 238 288 256 288S288 274 288 256C288 238 274 224 256 224ZM384 224C366 224 352 238 352 256C352 274 366 288 384 288S416 274 416 256C416 238 402 224 384 224ZM603 5C598 -1 590 -1 583 3C577 7 574 15 577 22C583 38 597 89 580 113C573 123 561 128 544 128L471 128C460 108 439 96 416 96H224C201 96 180 108 169 128H96C79 128 67 123 60 113C43 89 57 39 63 22C66 15 63 7 57 3C50 -1 42 -1 37 5C13 28 0 60 0 96C0 166 57 224 128 224H160V304C160 336 183 362 215 367L249 489C253 502 266 512 280 512H360C374 512 387 502 390 489L425 367C457 362 480 336 480 304V224L512 224C582 224 640 166 640 96C640 60 627 28 603 5ZM432 304C432 312 426 319 418 320L388 324L379 354L348 464H292L261 354L252 324L222 320C214 319 208 312 208 304V160C208 151 215 144 224 144H416C425 144 432 151 432 160V304Z"/></svg>