<svg xmlns="http://www.w3.org/2000/svg" viewBox="0 0 640 512"><!-- Font Awesome Pro 6.0.0-alpha1 by @fontawesome - https://fontawesome.com License - https://fontawesome.com/license (Commercial License) --><path d="M613 351L610 348C599 340 584 342 576 352L576 352C568 362 569 377 580 386L583 388C589 393 592 401 592 409C591 422 579 432 566 432L440 432V384C506 384 560 330 560 264V144H584C597 144 608 133 608 120V120C608 107 597 96 584 96H432C423 96 416 103 416 112V184C416 249 282 236 235 141C202 74 135 32 60 32H24C11 32 0 43 0 56V56C0 69 11 80 24 80H32V232C32 299 76 355 136 375V432H56C43 432 32 443 32 456V456C32 469 43 480 56 480H564C603 480 638 451 640 412C641 388 631 365 613 351ZM80 232V81C128 88 170 118 192 163C260 302 464 308 464 184V144H512V264C512 304 480 336 440 336H184C127 336 80 289 80 232ZM392 432H184V384H392V432Z"/></svg>