<svg xmlns="http://www.w3.org/2000/svg" viewBox="0 0 448 512"><!-- Font Awesome Pro 6.0.0-alpha1 by @fontawesome - https://fontawesome.com License - https://fontawesome.com/license (Commercial License) --><path d="M40 192V488C40 501 51 512 64 512H64C77 512 88 501 88 488V192H40ZM200 24V368H184C171 368 160 379 160 392S171 416 184 416H264C277 416 288 405 288 392S277 368 264 368H248V24C248 11 237 0 224 0S200 11 200 24ZM360 24V240H344C331 240 320 251 320 264S331 288 344 288H424C437 288 448 277 448 264S437 240 424 240H408V24C408 11 397 0 384 0S360 11 360 24ZM200 448V488C200 501 211 512 224 512H224C237 512 248 501 248 488V448H200ZM408 488V320H360V488C360 501 371 512 384 512H384C397 512 408 501 408 488ZM128 136C128 123 117 112 104 112H88V24C88 11 77 0 64 0S40 11 40 24V112H24C11 112 0 123 0 136S11 160 24 160H104C117 160 128 149 128 136Z"/></svg>