<svg xmlns="http://www.w3.org/2000/svg" viewBox="0 0 640 512"><!-- Font Awesome Pro 6.0.0-alpha1 by @fontawesome - https://fontawesome.com License - https://fontawesome.com/license (Commercial License) --><path d="M616 368H88C75 368 64 379 64 392V392C64 405 75 416 88 416H616C629 416 640 405 640 392V392C640 379 629 368 616 368ZM136 464H24C11 464 0 475 0 488V488C0 501 11 512 24 512H136C149 512 160 501 160 488V488C160 475 149 464 136 464ZM552 464H232C219 464 208 475 208 488V488C208 501 219 512 232 512H552C565 512 576 501 576 488V488C576 475 565 464 552 464ZM144 288H257C285 309 318 320 352 320S419 309 447 288H512C583 288 640 231 640 160S583 32 512 32C494 32 477 36 460 43C431 15 392 0 352 0C312 0 274 15 245 42C218 15 182 0 144 0C65 0 0 65 0 144S65 288 144 288ZM144 48C169 48 193 58 211 76L244 108L277 77C298 58 324 48 352 48C380 48 407 59 428 78L451 100L480 87C490 82 501 80 512 80C556 80 592 116 592 160S556 240 512 240H431L418 250C398 265 376 272 352 272S306 265 286 250L273 240H144C91 240 48 197 48 144S91 48 144 48Z"/></svg>