<svg xmlns="http://www.w3.org/2000/svg" viewBox="0 0 640 512"><!-- Font Awesome Pro 6.0.0-alpha1 by @fontawesome - https://fontawesome.com License - https://fontawesome.com/license (Commercial License) --><path d="M504 142C480 125 464 99 464 70V24C464 11 453 0 440 0H440C427 0 416 11 416 24V74C416 118 441 156 476 181C499 197 512 222 512 250V264C512 277 523 288 536 288L536 288C549 288 560 277 560 264V250C560 206 539 166 504 142ZM553 87C548 83 544 77 544 70V24C544 11 533 0 520 0L520 0C507 0 496 11 496 24V70C496 92 506 114 525 126C567 153 592 199 592 250V264C592 277 603 288 616 288L616 288C629 288 640 277 640 264V250C640 184 608 123 553 87ZM616 352L616 352C603 352 592 363 592 376V488C592 501 603 512 616 512L616 512C629 512 640 501 640 488V376C640 363 629 352 616 352ZM536 352L536 352C523 352 512 363 512 376V488C512 501 523 512 536 512L536 512C549 512 560 501 560 488V376C560 363 549 352 536 352ZM456 352H48C22 352 0 374 0 400V464C0 490 22 512 48 512H456C469 512 480 501 480 488V376C480 363 469 352 456 352ZM432 464H224V400H432V464Z"/></svg>