<svg xmlns="http://www.w3.org/2000/svg" viewBox="0 0 640 512"><!-- Font Awesome Pro 6.0.0-alpha1 by @fontawesome - https://fontawesome.com License - https://fontawesome.com/license (Commercial License) --><path d="M200 376C187 376 176 387 176 400S187 424 200 424S224 413 224 400S213 376 200 376ZM120 376C107 376 96 387 96 400S107 424 120 424S144 413 144 400S133 376 120 376ZM280 376C267 376 256 387 256 400S267 424 280 424S304 413 304 400S293 376 280 376ZM360 376C347 376 336 387 336 400S347 424 360 424S384 413 384 400S373 376 360 376ZM578 418C571 410 566 400 566 390V251C566 240 571 230 578 222L633 169C642 160 642 144 633 135L633 135C624 126 608 126 599 135L544 188C528 205 518 227 518 250V296L432 296V237C432 228 430 220 427 212L349 29C341 11 324 0 304 0H160C134 0 112 22 112 48V128H96C70 128 48 150 48 176V308C19 329 0 362 0 400C0 462 50 512 112 512H368C430 512 480 462 480 400C480 379 474 361 465 344L518 344V390C518 413 528 435 544 452L599 505C609 514 624 514 633 505C642 496 642 480 633 471L578 418ZM160 48H304L370 200H221L160 113V48ZM96 176H146L188 238C193 244 200 248 208 248H384V290C379 289 374 288 368 288H112C106 288 101 289 96 290V176ZM368 464H112C77 464 48 435 48 400S77 336 112 336H368C403 336 432 365 432 400S403 464 368 464Z"/></svg>