<svg xmlns="http://www.w3.org/2000/svg" viewBox="0 0 512 512"><!-- Font Awesome Pro 6.0.0-alpha1 by @fontawesome - https://fontawesome.com License - https://fontawesome.com/license (Commercial License) --><path d="M485 294C486 301 485 307 482 313S474 322 468 324L436 332L469 351C481 358 485 373 478 384S457 399 445 393L412 374L421 405C424 418 416 431 404 435S378 430 374 418L353 340L280 298V382L337 439C347 448 347 464 337 473C332 478 326 480 320 480S308 478 303 473L280 450V488C280 501 269 512 256 512S232 501 232 488V450L209 473C200 482 185 482 175 473S166 448 175 439L232 382V298L159 340L138 418C135 430 122 438 109 435S88 418 92 405L100 374L67 393C56 399 41 395 35 384S32 358 43 351L76 332L45 324C32 320 24 307 28 294S44 274 57 277L135 298L208 256L135 214L57 235C44 238 31 230 28 218S32 192 45 188L76 180L43 161C32 154 28 139 35 128S56 113 67 119L100 138L92 107C88 94 96 81 109 77S135 82 138 94L159 172L232 214V130L175 73C166 64 166 48 175 39S200 30 209 39L232 62V24C232 11 243 0 256 0S280 11 280 24V62L303 39C313 30 328 30 337 39S347 64 337 73L280 130V214L353 172L374 94C378 82 391 74 404 77C410 79 415 83 418 89S422 100 421 107L412 138L445 119C457 113 471 117 478 128S481 154 469 161L436 180L468 188C480 192 488 205 485 218S468 238 455 235L377 214L304 256L377 298L455 277C468 274 481 282 485 294Z"/></svg>