<svg xmlns="http://www.w3.org/2000/svg" viewBox="0 0 640 512"><!-- Font Awesome Pro 6.0.0-alpha1 by @fontawesome - https://fontawesome.com License - https://fontawesome.com/license (Commercial License) --><path d="M401 240H529C587 240 633 193 633 136S587 32 529 32C484 32 444 61 430 105C426 117 433 131 446 135C459 139 472 132 476 119C483 96 505 80 529 80C560 80 585 105 585 136S560 192 529 192H401C388 192 377 203 377 216S388 240 401 240ZM529 272H401C388 272 377 283 377 296S388 320 401 320H529C560 320 585 345 585 376S560 432 529 432C505 432 483 416 476 393C472 380 459 373 446 377C433 381 426 395 430 407C444 451 484 480 529 480C587 480 633 433 633 376S587 272 529 272ZM321 159C315 148 300 144 289 150L272 160L272 158C275 147 269 136 258 133C248 130 237 137 234 147L223 188L177 214V156L208 126C215 118 215 106 208 98S187 90 179 98L177 100V88C177 75 167 64 153 64S129 75 129 88V100L128 98C120 90 107 90 99 98S92 118 99 126L129 156V214L79 185L68 144C65 133 54 127 44 130C33 133 27 144 29 155L30 157L20 151C9 145 -6 149 -13 160C-19 171 -15 186 -4 193L6 199L4 199C-7 202 -13 213 -11 224C-8 233 0 239 9 239C11 239 12 238 14 238L55 227L105 256L57 284L16 273C5 270 -6 276 -9 287C-12 298 -5 309 5 312L8 312L-2 318C-14 325 -18 340 -11 351C-7 359 1 363 10 363C14 363 18 362 22 360L32 354L31 356C28 367 35 378 45 381C47 381 49 382 51 382C59 382 67 376 70 367L81 326L129 298V348L99 378C92 386 92 398 99 406S120 414 128 406L129 404V424C129 437 140 448 153 448S177 437 177 424V404L179 406C183 410 188 412 193 412S204 410 208 406C215 398 215 386 208 378L177 348V298L221 323L232 364C234 373 242 379 251 379C253 379 255 378 256 378C267 375 273 364 271 354L270 351L287 361C291 363 295 364 299 364C307 364 315 360 320 352C326 341 322 326 311 319L294 309L296 309C307 306 313 295 311 284C308 274 297 267 286 270L245 281L201 256L247 230L288 241C290 241 291 242 293 242C302 242 310 236 312 227C315 216 309 205 298 202L296 202L313 192C324 185 328 170 321 159Z"/></svg>