<svg xmlns="http://www.w3.org/2000/svg" viewBox="0 0 512 512"><!-- Font Awesome Pro 6.0.0-alpha1 by @fontawesome - https://fontawesome.com License - https://fontawesome.com/license (Commercial License) --><path d="M256 288C247 288 240 295 240 304S247 320 256 320C265 320 272 313 272 304S265 288 256 288ZM256 224C247 224 240 231 240 240S247 256 256 256C265 256 272 249 272 240S265 224 256 224ZM224 88C215 88 208 95 208 104S215 120 224 120S240 113 240 104S233 88 224 88ZM256 352C247 352 240 359 240 368S247 384 256 384C265 384 272 377 272 368S265 352 256 352ZM511 184L505 170C502 162 492 158 484 161L456 173V144C456 135 449 128 440 128H424C415 128 408 135 408 144V191C408 191 408 192 408 192L382 203C378 194 374 184 368 176C376 160 380 142 380 124C380 56 324 0 256 0S132 56 132 124C132 142 136 160 144 176C138 185 133 194 130 203L104 192C104 192 104 191 104 191V144C104 135 97 128 88 128H72C63 128 56 135 56 144V173L28 161C20 158 10 162 7 170L1 184C-2 192 2 201 10 205L120 250C120 250 120 251 120 252C120 259 121 266 122 274C104 301 94 332 94 365C94 420 122 471 170 501C181 508 195 512 211 512H301C318 512 334 507 348 497C401 460 427 398 415 335C411 313 403 293 390 274C391 266 392 259 392 252C392 251 392 250 392 250L502 205C510 202 514 192 511 184ZM321 458C315 462 308 464 301 464H211C206 464 200 464 195 460C162 439 142 404 142 365C142 339 151 315 167 294L174 285L171 274C169 265 168 258 168 252C168 225 180 206 190 194L202 180L192 165C184 153 180 139 180 124C180 82 214 48 256 48S332 82 332 124C332 138 328 153 320 165L310 180L322 194C332 206 344 225 344 252C344 259 343 266 341 274L338 285L345 295C357 309 365 326 368 343C376 388 358 432 321 458ZM288 88C279 88 272 95 272 104S279 120 288 120C297 120 304 113 304 104S297 88 288 88ZM256 128C247 128 240 135 240 144S256 176 256 176S272 153 272 144S265 128 256 128Z"/></svg>