<svg xmlns="http://www.w3.org/2000/svg" viewBox="0 0 512 512"><!-- Font Awesome Pro 6.0.0-alpha1 by @fontawesome - https://fontawesome.com License - https://fontawesome.com/license (Commercial License) --><path d="M384 64C402 64 416 50 416 32C416 14 402 0 384 0S352 14 352 32C352 50 366 64 384 64ZM208 96C234 96 256 74 256 48S234 0 208 0S160 22 160 48S182 96 208 96ZM416 192H398C399 187 400 181 400 176C400 132 364 96 320 96S240 132 240 176C240 181 241 187 242 192H96C43 192 0 235 0 288V416C0 469 43 512 96 512H416C469 512 512 469 512 416V288C512 235 469 192 416 192ZM320 144C338 144 352 158 352 176S338 208 320 208S288 194 288 176S302 144 320 144ZM464 416C464 442 442 464 416 464H96C70 464 48 442 48 416V288C48 262 70 240 96 240H273C286 250 302 256 320 256S354 250 367 240H416C442 240 464 262 464 288V416ZM352 288H160C125 288 96 317 96 352S125 416 160 416H352C387 416 416 387 416 352S387 288 352 288ZM352 384H160C142 384 128 370 128 352S142 320 160 320H352C370 320 384 334 384 352S370 384 352 384Z"/></svg>