<svg xmlns="http://www.w3.org/2000/svg" viewBox="0 0 512 512"><!-- Font Awesome Pro 6.0.0-alpha1 by @fontawesome - https://fontawesome.com License - https://fontawesome.com/license (Commercial License) --><path d="M478 224L286 13C271 -4 241 -4 226 13L34 224C10 250 -2 283 0 318C2 353 18 384 45 407C69 428 100 440 132 440C170 440 206 424 231 397L232 396V464H184C171 464 160 475 160 488S171 512 184 512H328C341 512 352 501 352 488S341 464 328 464H280V395L281 397C305 423 344 440 382 440C413 440 443 429 467 407V407C494 384 510 353 512 318C514 283 502 250 478 224ZM436 371C420 385 401 392 382 392C357 392 332 381 317 364L274 317C269 312 263 310 256 310S243 312 238 317L195 364C166 397 110 400 76 371C59 357 49 337 48 315C47 294 54 273 69 257L256 52L443 256C458 273 465 294 464 315C463 337 453 357 436 371Z"/></svg>