<svg xmlns="http://www.w3.org/2000/svg" viewBox="0 0 640 512"><!-- Font Awesome Pro 6.0.0-alpha1 by @fontawesome - https://fontawesome.com License - https://fontawesome.com/license (Commercial License) --><path d="M625 348C592 335 567 352 549 364C532 376 526 378 518 375C510 372 507 366 502 346C499 333 495 317 484 303C486 300 488 298 490 295C501 304 514 312 532 312C566 312 583 286 594 269C605 253 609 248 616 248C629 248 640 237 640 224S629 200 616 200C582 200 565 226 554 243C543 259 539 264 532 264C514 264 492 197 428 158L443 127C445 128 446 128 448 128C483 128 512 99 512 64S483 0 448 0S384 29 384 64C384 80 390 95 400 106L384 138C365 132 344 128 320 128S275 132 256 138L240 106C250 95 256 80 256 64C256 29 227 0 192 0S128 29 128 64S157 128 192 128C194 128 195 128 197 127L212 158C148 197 126 264 108 264C101 264 97 259 86 243C75 226 58 200 24 200C11 200 0 211 0 224S11 248 24 248C31 248 35 253 46 269C57 286 74 312 108 312C126 312 139 305 150 295C152 298 154 301 156 304C146 317 142 333 138 346C133 366 130 372 122 376C114 379 108 376 91 364C73 352 48 335 15 348C3 352 -3 366 2 379C6 391 20 397 32 393C41 390 47 392 64 404C78 413 95 425 116 425C124 425 131 423 139 420C172 408 179 379 185 358C187 349 189 343 191 339C207 353 228 365 252 373C242 410 220 464 192 464C179 464 168 475 168 488S179 512 192 512C259 512 289 423 299 383C306 383 313 384 320 384S334 383 341 383C351 423 381 512 448 512C461 512 472 501 472 488S461 464 448 464C420 464 398 410 388 373C412 365 433 353 449 339C451 343 453 349 455 358C461 379 468 408 501 420C509 424 517 425 524 425C545 425 563 413 576 404C593 392 599 389 608 393C620 397 634 391 638 379C643 366 637 352 625 348ZM448 48C457 48 464 55 464 64S457 80 448 80C439 80 432 73 432 64S439 48 448 48ZM192 80C183 80 176 73 176 64S183 48 192 48C201 48 208 55 208 64S201 80 192 80ZM320 336C239 336 198 284 182 256C198 228 239 176 320 176C401 176 442 228 458 256C442 284 401 336 320 336Z"/></svg>