<svg xmlns="http://www.w3.org/2000/svg" viewBox="0 0 512 512"><!-- Font Awesome Pro 6.0.0-alpha1 by @fontawesome - https://fontawesome.com License - https://fontawesome.com/license (Commercial License) --><path d="M324 103L384 128L409 188C410 190 413 192 416 192S422 190 423 188L448 128L508 103C510 102 512 99 512 96S510 90 508 89L448 64L423 4C422 2 419 0 416 0S410 2 409 4L384 64L324 89C322 90 320 93 320 96S322 102 324 103ZM508 409L448 384L423 324C422 322 419 320 416 320S410 322 409 324L384 384L324 409C322 410 320 413 320 416S322 422 324 423L384 448L409 508C410 510 413 512 416 512S422 510 423 508L448 448L508 423C510 422 512 419 512 416S510 410 508 409ZM384 256C384 247 379 239 371 234L266 182L214 77C205 61 179 61 170 77L118 182L13 234C5 239 0 247 0 256S5 273 13 278L118 330L170 435C175 443 183 448 192 448S209 443 214 435L266 330L371 278C379 273 384 265 384 256ZM237 290C233 293 229 297 226 301L192 370L158 301C155 297 151 293 147 290L78 256L147 222C151 219 155 215 158 211L192 142L226 211C229 215 233 219 237 222L306 256L237 290Z"/></svg>