<svg xmlns="http://www.w3.org/2000/svg" viewBox="0 0 384 512"><!-- Font Awesome Pro 6.0.0-alpha1 by @fontawesome - https://fontawesome.com License - https://fontawesome.com/license (Commercial License) --><path d="M320 0H64C29 0 0 29 0 64V448C0 483 29 512 64 512H320C355 512 384 483 384 448V64C384 29 355 0 320 0ZM336 448C336 457 329 464 320 464H64C55 464 48 457 48 448V64C48 55 55 48 64 48H320C329 48 336 55 336 64V448ZM192 160C214 160 232 142 232 120S214 80 192 80S152 98 152 120S170 160 192 160ZM192 224C135 224 88 271 88 328S135 432 192 432S296 385 296 328S249 224 192 224ZM192 384C161 384 136 359 136 328C136 297 161 272 192 272S248 297 248 328C248 359 223 384 192 384Z"/></svg>