<svg xmlns="http://www.w3.org/2000/svg" viewBox="0 0 576 512"><!-- Font Awesome Pro 6.0.0-alpha1 by @fontawesome - https://fontawesome.com License - https://fontawesome.com/license (Commercial License) --><path d="M569 279C560 270 545 269 535 279L352 454L265 367C256 358 240 358 231 367S222 392 231 401L335 505C340 510 346 512 352 512C358 512 364 510 369 505L569 313C578 304 579 289 569 279ZM280 256H372C414 256 448 222 448 180C448 155 436 134 418 120C427 107 432 92 432 76C432 34 398 0 356 0H280C267 0 256 11 256 24V232C256 245 267 256 280 256ZM304 48H356C371 48 384 61 384 76S371 104 356 104H304V48ZM304 152H372C387 152 400 165 400 180S387 208 372 208H304V152ZM222 223L134 15C127 -3 97 -3 90 15L2 223C-3 235 2 249 15 254C27 259 41 254 46 241L57 216H167L178 241C182 250 191 256 200 256C203 256 206 255 209 254C222 249 227 235 222 223ZM77 168L112 86L147 168H77Z"/></svg>