<svg xmlns="http://www.w3.org/2000/svg" viewBox="0 0 576 512"><!-- Font Awesome Pro 6.0.0-alpha1 by @fontawesome - https://fontawesome.com License - https://fontawesome.com/license (Commercial License) --><path d="M569 240C510 177 467 101 443 18C439 5 427 -2 414 1C332 22 244 22 162 1C149 -2 137 5 133 18C109 101 66 177 7 240C-2 249 -2 263 7 273C66 335 109 412 133 494C137 507 149 514 162 511C244 490 332 490 414 511C416 512 418 512 420 512C430 512 440 505 443 494C467 411 510 335 569 273C578 263 578 249 569 240ZM501 232H455C427 200 406 162 393 122L415 83C436 136 465 187 501 232ZM247 232H182C195 214 205 196 214 176L247 232ZM254 149C277 151 299 151 322 149L288 208L254 149ZM247 280L214 336C205 317 195 298 182 280H247ZM288 304L322 363C311 362 299 362 288 362S265 362 254 363L288 304ZM329 280H393C381 298 371 317 362 336L329 280ZM329 232L362 176C371 195 381 214 393 232H329ZM375 57L353 95C310 105 266 105 223 95L201 57C259 66 317 66 375 57ZM161 83L183 122C170 162 149 200 121 232H75C111 187 140 136 161 83ZM75 280H121C149 312 170 350 183 390L161 430C140 376 111 325 75 280ZM201 455L223 417C266 407 310 407 353 417L375 455C346 451 317 448 288 448S230 451 201 455ZM415 430L393 390C406 350 427 312 455 280H501C465 325 436 376 415 430Z"/></svg>