<svg xmlns="http://www.w3.org/2000/svg" viewBox="0 0 576 512"><!-- Font Awesome Pro 6.0.0-alpha1 by @fontawesome - https://fontawesome.com License - https://fontawesome.com/license (Commercial License) --><path d="M567 407L535 312C533 306 527 300 521 298L417 256L521 214C527 212 533 206 535 199L567 102C571 90 564 76 552 72C539 68 525 75 521 87L493 174L423 202L467 142C471 137 473 130 471 123L447 19C444 6 432 -2 419 1C406 4 398 17 401 29L422 123L384 173V160C384 130 370 101 348 82C339 74 328 71 317 71C313 71 309 71 306 72C299 73 293 76 288 80C282 76 275 73 268 71C265 71 262 70 259 70C247 70 235 75 227 83C205 102 192 131 192 160V173L154 123L175 29C178 17 170 4 157 1C145 -2 132 6 129 19L105 123C103 130 105 137 109 142L153 202L83 174L55 87C51 75 37 68 25 72C12 76 5 90 9 102L41 199C43 206 49 212 55 214L159 256L55 298C49 300 44 306 41 312L9 407C5 420 12 433 24 438C27 438 29 439 32 439C42 439 51 433 55 422L83 338L153 310L109 370C105 375 103 382 105 389L129 493C131 505 141 512 152 512C154 512 156 512 157 511C170 508 178 496 175 483L154 389L164 376C182 427 231 464 288 464S394 427 412 376L422 389L401 483C398 496 406 508 419 511C420 512 422 512 424 512C435 512 445 505 447 493L471 389C473 382 471 375 467 370L423 310L493 338L521 422C525 432 534 439 544 439C547 439 549 438 552 438C564 433 571 420 567 407ZM288 416C242 416 204 378 204 332C204 308 214 286 232 270L235 267C238 264 240 260 240 256V160C240 144 247 128 259 118L273 151C276 156 282 160 288 160H288C294 160 300 156 303 151L317 119C328 128 336 144 336 160V256C336 260 338 264 341 268L344 270C362 286 372 308 372 332C372 378 334 416 288 416ZM320 288H256C249 288 245 295 249 301L276 336L250 371C245 377 249 384 256 384H320C327 384 331 377 327 371L300 336L327 301C331 295 327 288 320 288Z"/></svg>