<svg xmlns="http://www.w3.org/2000/svg" viewBox="0 0 448 512"><!-- Font Awesome Pro 6.0.0-alpha1 by @fontawesome - https://fontawesome.com License - https://fontawesome.com/license (Commercial License) --><path d="M384 32H64C29 32 0 61 0 96V416C0 451 29 480 64 480H384C419 480 448 451 448 416V96C448 61 419 32 384 32ZM400 416C400 425 393 432 384 432H64C55 432 48 425 48 416V96C48 87 55 80 64 80H384C393 80 400 87 400 96V416ZM222 128H152C139 128 128 139 128 152V360C128 373 139 384 152 384H222C294 384 352 327 352 256C352 185 294 128 222 128ZM222 336H176V176H222C267 176 304 212 304 256C304 300 267 336 222 336Z"/></svg>