<svg xmlns="http://www.w3.org/2000/svg" viewBox="0 0 448 512"><!-- Font Awesome Pro 6.0.0-alpha1 by @fontawesome - https://fontawesome.com License - https://fontawesome.com/license (Commercial License) --><path d="M121 112C108 111 97 122 96 135C95 148 106 159 119 160C225 164 316 255 320 361C321 374 331 384 344 384C344 384 345 384 345 384C358 383 369 372 368 359C363 228 252 118 121 112ZM122 208C108 208 97 217 96 230C95 244 105 255 118 256C173 259 221 307 224 362C225 374 235 384 248 384C249 384 249 384 250 384C263 383 273 372 272 358C267 281 199 213 122 208ZM128 320C120 320 112 323 105 329C93 342 93 362 105 375C112 381 120 384 128 384S144 381 151 375C163 362 163 342 151 329C144 323 136 320 128 320ZM384 32H64C29 32 0 61 0 96V416C0 451 29 480 64 480H384C419 480 448 451 448 416V96C448 61 419 32 384 32ZM400 416C400 425 393 432 384 432H64C55 432 48 425 48 416V96C48 87 55 80 64 80H384C393 80 400 87 400 96V416Z"/></svg>