<svg xmlns="http://www.w3.org/2000/svg" viewBox="0 0 576 512"><!-- Font Awesome Pro 6.0.0-alpha1 by @fontawesome - https://fontawesome.com License - https://fontawesome.com/license (Commercial License) --><path d="M563 241C554 232 539 231 529 241L480 288L433 239C424 230 409 230 399 239C390 248 390 263 399 273L446 321L397 369C388 378 388 393 397 403C402 407 408 410 414 410C420 410 426 408 431 403L479 356L527 404C531 409 538 412 544 412C550 412 556 409 561 405C570 396 570 380 561 371L514 322L563 275C572 266 572 251 563 241ZM576 24C576 11 565 0 552 0H320C309 0 299 8 297 18L201 416L118 238C114 229 105 224 96 224H24C11 224 0 235 0 248S11 272 24 272H81L186 498C190 507 199 512 208 512C209 512 210 512 210 512C221 511 229 504 231 494L339 48H552C565 48 576 37 576 24Z"/></svg>