<svg xmlns="http://www.w3.org/2000/svg" viewBox="0 0 448 512"><!-- Font Awesome Pro 6.0.0-alpha1 by @fontawesome - https://fontawesome.com License - https://fontawesome.com/license (Commercial License) --><path d="M384 32H64C29 32 0 61 0 96V416C0 451 29 480 64 480H384C419 480 448 451 448 416V96C448 61 419 32 384 32ZM384 80C393 80 400 87 400 96V416C400 425 393 432 384 432H64C55 432 48 425 48 416V96C48 87 55 80 64 80H384ZM144 112C131 112 120 123 120 136V160H104C91 160 80 171 80 184S91 208 104 208H120V376C120 389 131 400 144 400C157 400 168 389 168 376V208H184C197 208 208 197 208 184S197 160 184 160H168V136C168 123 157 112 144 112ZM304 112C291 112 280 123 280 136V288H264C251 288 240 299 240 312S251 336 264 336H280V376C280 389 291 400 304 400C317 400 328 389 328 376V336H344C357 336 368 325 368 312S357 288 344 288H328V136C328 123 317 112 304 112Z"/></svg>