<svg xmlns="http://www.w3.org/2000/svg" viewBox="0 0 448 512"><!-- Font Awesome Pro 6.0.0-alpha1 by @fontawesome - https://fontawesome.com License - https://fontawesome.com/license (Commercial License) --><path d="M384 32H64C29 32 0 61 0 96V416C0 451 29 480 64 480H384C419 480 448 451 448 416V96C448 61 419 32 384 32ZM400 416C400 425 393 432 384 432H64C55 432 48 425 48 416V96C48 87 55 80 64 80H384C393 80 400 87 400 96V416ZM306 248C315 235 320 220 320 204C320 162 286 128 244 128H152C139 128 128 139 128 152V360C128 373 139 384 152 384H260C302 384 336 350 336 308C336 283 324 262 306 248ZM176 176H244C259 176 272 189 272 204S259 232 244 232H176V176ZM260 336H176V280H260C275 280 288 293 288 308S275 336 260 336Z"/></svg>