<svg xmlns="http://www.w3.org/2000/svg" viewBox="0 0 448 512"><!-- Font Awesome Pro 6.0.0-alpha1 by @fontawesome - https://fontawesome.com License - https://fontawesome.com/license (Commercial License) --><path d="M384 32H64C29 32 0 61 0 96V416C0 451 29 480 64 480H384C419 480 448 451 448 416V96C448 61 419 32 384 32ZM400 416C400 425 393 432 384 432H64C55 432 48 425 48 416V96C48 87 55 80 64 80H384C393 80 400 87 400 96V416ZM224 155C193 130 148 130 118 155C100 170 89 192 88 216C87 239 96 262 112 279L197 365C204 372 214 376 224 376H224C234 376 244 372 251 365L336 279C352 262 361 239 360 216C359 192 348 170 330 155C300 130 255 130 224 155ZM302 245L224 324L146 245C139 238 136 228 136 218C137 208 141 198 149 192C155 187 163 184 170 184C180 184 191 188 198 196L224 221L250 196C264 182 285 180 299 192C307 198 312 208 312 218C312 228 309 238 302 245Z"/></svg>