<svg xmlns="http://www.w3.org/2000/svg" viewBox="0 0 448 512"><!-- Font Awesome Pro 6.0.0-alpha1 by @fontawesome - https://fontawesome.com License - https://fontawesome.com/license (Commercial License) --><path d="M258 128H206C167 128 136 159 136 198C136 211 147 222 160 222S184 211 184 198C184 186 194 176 206 176H258C270 176 280 186 280 198C280 206 276 213 269 217L212 251C204 256 200 264 200 272V288C200 301 211 312 224 312S248 301 248 288V286L294 258C315 245 328 222 328 198C328 159 297 128 258 128ZM224 336C206 336 192 350 192 368S206 400 224 400S256 386 256 368S242 336 224 336ZM384 32H64C29 32 0 61 0 96V416C0 451 29 480 64 480H384C419 480 448 451 448 416V96C448 61 419 32 384 32ZM400 416C400 425 393 432 384 432H64C55 432 48 425 48 416V96C48 87 55 80 64 80H384C393 80 400 87 400 96V416Z"/></svg>