<svg xmlns="http://www.w3.org/2000/svg" viewBox="0 0 448 512"><!-- Font Awesome Pro 6.0.0-alpha1 by @fontawesome - https://fontawesome.com License - https://fontawesome.com/license (Commercial License) --><path d="M328 128H208C195 128 183 136 178 148C174 159 176 173 185 182L219 216L113 321C101 334 101 354 113 367C120 373 128 376 136 376S152 373 159 367L264 261L298 295C304 301 312 304 320 304C324 304 328 303 332 302C344 297 352 285 352 272V152C352 139 341 128 328 128ZM384 32H64C29 32 0 61 0 96V416C0 451 29 480 64 480H384C419 480 448 451 448 416V96C448 61 419 32 384 32ZM400 416C400 425 393 432 384 432H64C55 432 48 425 48 416V96C48 87 55 80 64 80H384C393 80 400 87 400 96V416Z"/></svg>