<svg xmlns="http://www.w3.org/2000/svg" viewBox="0 0 448 512"><!-- Font Awesome Pro 6.0.0-alpha1 by @fontawesome - https://fontawesome.com License - https://fontawesome.com/license (Commercial License) --><path d="M384 32H64C29 32 0 61 0 96V416C0 451 29 480 64 480H384C419 480 448 451 448 416V96C448 61 419 32 384 32ZM400 416C400 425 393 432 384 432H64C55 432 48 425 48 416V96C48 87 55 80 64 80H384C393 80 400 87 400 96V416ZM299 315L328 274C335 263 332 248 321 241C310 233 295 236 288 247L266 279L236 246L256 230C270 219 278 203 278 186C278 154 252 128 220 128H197C165 128 139 154 139 186C139 202 145 218 156 230L167 241L137 265C121 278 112 297 112 317C112 354 142 384 179 384H211C235 384 257 374 271 356L290 376C295 381 301 384 308 384C314 384 319 382 324 378C334 369 334 354 326 344L299 315ZM197 176H220C225 176 230 180 230 186C230 189 228 191 226 193L204 211L192 197C189 194 187 190 187 186C187 180 191 176 197 176ZM236 323C231 331 221 336 211 336H179C168 336 160 328 160 317C160 311 163 306 167 302L199 277L238 320L236 323Z"/></svg>