<svg xmlns="http://www.w3.org/2000/svg" viewBox="0 0 448 512"><!-- Font Awesome Pro 6.0.0-alpha1 by @fontawesome - https://fontawesome.com License - https://fontawesome.com/license (Commercial License) --><path d="M84 259C80 263 79 270 82 276L106 314C109 319 116 321 122 319L170 300C175 298 179 292 178 286L175 256C207 245 241 245 273 256L270 286C269 292 273 298 278 300L326 319C332 321 339 319 342 314L366 276C369 270 368 263 364 259C287 182 161 182 84 259ZM384 32H64C29 32 0 61 0 96V416C0 451 29 480 64 480H384C419 480 448 451 448 416V96C448 61 419 32 384 32ZM400 416C400 425 393 432 384 432H64C55 432 48 425 48 416V96C48 87 55 80 64 80H384C393 80 400 87 400 96V416Z"/></svg>