<svg xmlns="http://www.w3.org/2000/svg" viewBox="0 0 448 512"><!-- Font Awesome Pro 6.0.0-alpha1 by @fontawesome - https://fontawesome.com License - https://fontawesome.com/license (Commercial License) --><path d="M312 240H256L256 152C256 139 245 128 232 128H216C203 128 192 139 192 152L192 240H136C126 240 118 246 114 254C110 263 112 273 118 280L207 376C212 381 218 384 225 384C233 384 238 381 243 376L330 280C336 273 338 263 334 254S322 240 312 240ZM384 32H64C29 32 0 61 0 96V416C0 451 29 480 64 480H384C419 480 448 451 448 416V96C448 61 419 32 384 32ZM400 416C400 425 393 432 384 432H64C55 432 48 425 48 416V96C48 87 55 80 64 80H384C393 80 400 87 400 96V416Z"/></svg>