<svg xmlns="http://www.w3.org/2000/svg" viewBox="0 0 512 512"><!--! Font Awesome Pro 6.0.0 by @fontawesome - https://fontawesome.com License - https://fontawesome.com/license (Commercial License) Copyright 2022 Fonticons, Inc. --><path d="M256 121C262.1 121 267.7 124.5 270.3 129.9L301.6 193.2L371.5 203.4C377.5 204.3 382.5 208.5 384.4 214.3C386.3 220.1 384.7 226.4 380.3 230.7L329.8 279.1L341.7 349.6C342.7 355.6 340.3 361.6 335.4 365.2C330.4 368.8 323.9 369.3 318.5 366.4L256 333.6L193.5 366.4C188.1 369.3 181.6 368.8 176.6 365.2C171.7 361.6 169.3 355.6 170.3 349.6L182.2 279.1L131.7 230.7C127.3 226.4 125.7 220.1 127.6 214.3C129.5 208.5 134.5 204.3 140.5 203.4L210.4 193.2L241.7 129.9C244.3 124.5 249.9 121 256 121V121zM32 96C32 60.65 60.65 32 96 32H416C451.3 32 480 60.65 480 96V416C480 451.3 451.3 480 416 480H96C60.65 480 32 451.3 32 416V96zM80 96V416C80 424.8 87.16 432 96 432H416C424.8 432 432 424.8 432 416V96C432 87.16 424.8 80 416 80H96C87.16 80 80 87.16 80 96z"/></svg>