<svg xmlns="http://www.w3.org/2000/svg" viewBox="0 0 448 512"><!-- Font Awesome Pro 6.0.0-alpha1 by @fontawesome - https://fontawesome.com License - https://fontawesome.com/license (Commercial License) --><path d="M384 32H64C29 32 0 61 0 96V416C0 451 29 480 64 480H384C419 480 448 451 448 416V96C448 61 419 32 384 32ZM400 416C400 425 393 432 384 432H64C55 432 48 425 48 416V96C48 87 55 80 64 80H384C393 80 400 87 400 96V416ZM359 200L277 188L240 114C237 107 230 104 224 104C218 104 211 107 208 114L171 188L89 200C74 203 68 221 79 231L138 289L124 371C122 383 132 392 142 392C145 392 148 391 150 390L224 351L298 390C300 391 303 392 306 392C316 392 326 383 324 371L310 289L369 231C380 221 374 203 359 200ZM264 266C260 270 259 275 260 281L266 319L231 301C227 298 221 298 217 301L182 319L188 281C189 275 188 270 184 266L156 239L195 234C200 233 204 230 207 225L224 190L241 225C244 230 248 233 253 234L292 239L264 266Z"/></svg>