<svg xmlns="http://www.w3.org/2000/svg" viewBox="0 0 640 512"><!-- Font Awesome Pro 6.0.0-alpha1 by @fontawesome - https://fontawesome.com License - https://fontawesome.com/license (Commercial License) --><path d="M480 32H160C125 32 96 61 96 96V416C96 451 125 480 160 480H480C515 480 544 451 544 416V96C544 61 515 32 480 32ZM496 416C496 425 489 432 480 432H160C151 432 144 425 144 416V96C144 87 151 80 160 80H480C489 80 496 87 496 96V416ZM408 128C395 128 384 139 384 152V232H256V152C256 139 245 128 232 128S208 139 208 152V360C208 373 219 384 232 384S256 373 256 360V280H384V360C384 373 395 384 408 384S432 373 432 360V152C432 139 421 128 408 128Z"/></svg>