<svg xmlns="http://www.w3.org/2000/svg" viewBox="0 0 448 512"><!-- Font Awesome Pro 6.0.0-alpha1 by @fontawesome - https://fontawesome.com License - https://fontawesome.com/license (Commercial License) --><path d="M311 152C306 147 299 144 292 144S277 147 272 152L132 292C128 296 125 301 124 306L112 360C111 364 115 368 119 368C119 368 120 368 120 368C120 368 157 360 174 356C179 355 184 352 187 349C209 327 290 246 328 208C339 197 339 180 328 169L311 152ZM384 32H64C29 32 0 61 0 96V416C0 451 29 480 64 480H384C419 480 448 451 448 416V96C448 61 419 32 384 32ZM400 416C400 425 393 432 384 432H64C55 432 48 425 48 416V96C48 87 55 80 64 80H384C393 80 400 87 400 96V416Z"/></svg>