<svg xmlns="http://www.w3.org/2000/svg" viewBox="0 0 448 512"><!-- Font Awesome Pro 6.0.0-alpha1 by @fontawesome - https://fontawesome.com License - https://fontawesome.com/license (Commercial License) --><path d="M328 232H181L248 170C258 161 259 145 250 136C241 126 225 125 216 134L104 238C99 243 96 249 96 256S99 269 104 274L216 378C225 387 241 386 250 376C259 367 258 351 248 342L181 280H328C341 280 352 269 352 256S341 232 328 232ZM384 32H64C29 32 0 61 0 96V416C0 451 29 480 64 480H384C419 480 448 451 448 416V96C448 61 419 32 384 32ZM400 416C400 425 393 432 384 432H64C55 432 48 425 48 416V96C48 87 55 80 64 80H384C393 80 400 87 400 96V416Z"/></svg>