<svg xmlns="http://www.w3.org/2000/svg" viewBox="0 0 448 512"><!-- Font Awesome Pro 6.0.0-alpha1 by @fontawesome - https://fontawesome.com License - https://fontawesome.com/license (Commercial License) --><path d="M384 32H64C29 32 0 61 0 96V416C0 451 29 480 64 480H384C419 480 448 451 448 416V96C448 61 419 32 384 32ZM400 416C400 425 393 432 384 432H64C55 432 48 425 48 416V96C48 87 55 80 64 80H384C393 80 400 87 400 96V416ZM313 135C304 126 289 126 279 135L176 237V152C176 139 165 128 152 128S128 139 128 152V360C128 373 139 384 152 384S176 373 176 360V304L207 273L276 374C281 380 288 384 296 384C301 384 305 383 310 380C321 372 323 357 316 346L244 242C243 241 242 241 241 240L313 169C322 160 322 145 313 135Z"/></svg>