<svg xmlns="http://www.w3.org/2000/svg" viewBox="0 0 448 512"><!-- Font Awesome Pro 6.0.0-alpha1 by @fontawesome - https://fontawesome.com License - https://fontawesome.com/license (Commercial License) --><path d="M384 32H64C29 32 0 61 0 96V416C0 451 29 480 64 480H384C419 480 448 451 448 416V96C448 61 419 32 384 32ZM400 416C400 425 393 432 384 432H64C55 432 48 425 48 416V96C48 87 55 80 64 80H384C393 80 400 87 400 96V416ZM336 368H112C103 368 96 375 96 384S103 400 112 400H336C345 400 352 393 352 384S345 368 336 368ZM120 296C120 309 131 320 144 320S168 309 168 296V192H194C202 192 208 186 208 178C208 174 207 171 204 168C201 165 155 112 155 112C149 105 139 105 133 112L83 168C80 173 79 179 81 184C84 189 89 192 94 192H120V296ZM315 112C309 105 299 105 293 112L243 168C240 173 239 179 241 184C244 189 249 192 254 192H280V296C280 309 291 320 304 320S328 309 328 296V192H354C362 192 368 186 368 178C368 174 367 171 364 168C361 165 315 112 315 112Z"/></svg>