<svg xmlns="http://www.w3.org/2000/svg" viewBox="0 0 448 512"><!-- Font Awesome Pro 6.0.0-alpha1 by @fontawesome - https://fontawesome.com License - https://fontawesome.com/license (Commercial License) --><path d="M384 32H64C29 32 0 61 0 96V416C0 451 29 480 64 480H384C419 480 448 451 448 416V96C448 61 419 32 384 32ZM400 416C400 425 393 432 384 432H64C55 432 48 425 48 416V96C48 87 55 80 64 80H384C393 80 400 87 400 96V416ZM224 128C171 128 128 171 128 224V288C128 341 171 384 224 384S320 341 320 288V224C320 171 277 128 224 128ZM272 288C272 314 250 336 224 336S176 314 176 288V224C176 198 198 176 224 176S272 198 272 224V288Z"/></svg>