<svg xmlns="http://www.w3.org/2000/svg" viewBox="0 0 448 512"><!-- Font Awesome Pro 6.0.0-alpha1 by @fontawesome - https://fontawesome.com License - https://fontawesome.com/license (Commercial License) --><path d="M384 32H64C29 32 0 61 0 96V416C0 451 29 480 64 480H384C419 480 448 451 448 416V96C448 61 419 32 384 32ZM400 416C400 425 393 432 384 432H64C55 432 48 425 48 416V96C48 87 55 80 64 80H384C393 80 400 87 400 96V416ZM344 312H320V296C320 283 309 272 296 272S272 283 272 296V312H104C91 312 80 323 80 336C80 349 91 360 104 360H272V376C272 389 283 400 296 400S320 389 320 376V360H344C357 360 368 349 368 336S357 312 344 312ZM344 152H192V136C192 123 181 112 168 112S144 123 144 136V152H104C91 152 80 163 80 176C80 189 91 200 104 200H144V216C144 229 155 240 168 240S192 229 192 216V200H344C357 200 368 189 368 176S357 152 344 152Z"/></svg>