<svg xmlns="http://www.w3.org/2000/svg" viewBox="0 0 448 512"><!-- Font Awesome Pro 6.0.0-alpha1 by @fontawesome - https://fontawesome.com License - https://fontawesome.com/license (Commercial License) --><path d="M64 480H384C419 480 448 451 448 416V96C448 61 419 32 384 32H64C29 32 0 61 0 96V416C0 451 29 480 64 480ZM48 96C48 87 55 80 64 80H384C393 80 400 87 400 96V416C400 425 393 432 384 432H64C55 432 48 425 48 416V96ZM129 305L224 210L319 305C328 314 344 314 353 305S362 280 353 271L241 159C236 154 230 152 224 152S212 154 207 159L95 271C86 280 86 296 95 305S120 314 129 305Z"/></svg>