<svg xmlns="http://www.w3.org/2000/svg" viewBox="0 0 448 512"><!-- Font Awesome Pro 6.0.0-alpha1 by @fontawesome - https://fontawesome.com License - https://fontawesome.com/license (Commercial License) --><path d="M384 32H64C29 32 0 61 0 96V416C0 451 29 480 64 480H384C419 480 448 451 448 416V96C448 61 419 32 384 32ZM400 416C400 425 393 432 384 432H64C55 432 48 425 48 416V96C48 87 55 80 64 80H384C393 80 400 87 400 96V416ZM336 208C336 164 300 128 256 128H152C139 128 128 139 128 152V360C128 373 139 384 152 384S176 373 176 360V288H222L285 374C289 381 297 384 304 384C309 384 314 383 318 379C329 372 331 357 323 346L279 284C312 274 336 244 336 208ZM256 240H176V176H256C274 176 288 190 288 208S274 240 256 240Z"/></svg>