<svg xmlns="http://www.w3.org/2000/svg" viewBox="0 0 448 512"><!-- Font Awesome Pro 6.0.0-alpha1 by @fontawesome - https://fontawesome.com License - https://fontawesome.com/license (Commercial License) --><path d="M384 32H64C29 32 0 61 0 96V416C0 451 29 480 64 480H384C419 480 448 451 448 416V96C448 61 419 32 384 32ZM400 416C400 425 393 432 384 432H64C55 432 48 425 48 416V96C48 87 55 80 64 80H384C393 80 400 87 400 96V416ZM232 134C223 125 207 126 198 136C189 145 190 161 200 170L267 232H120C107 232 96 243 96 256S107 280 120 280H267L200 342C190 351 189 367 198 376C207 386 223 387 232 378L344 274C349 269 352 263 352 256S349 243 344 238L232 134Z"/></svg>