<svg xmlns="http://www.w3.org/2000/svg" viewBox="0 0 448 512"><!-- Font Awesome Pro 6.0.0-alpha1 by @fontawesome - https://fontawesome.com License - https://fontawesome.com/license (Commercial License) --><path d="M241 136C236 131 230 128 223 128C215 128 210 131 206 136L118 232C112 239 110 249 114 258S126 272 136 272H192L192 360C192 373 203 384 216 384H232C245 384 256 373 256 360L256 272H312C322 272 330 266 334 258C338 249 336 239 330 232L241 136ZM384 32H64C29 32 0 61 0 96V416C0 451 29 480 64 480H384C419 480 448 451 448 416V96C448 61 419 32 384 32ZM400 416C400 425 393 432 384 432H64C55 432 48 425 48 416V96C48 87 55 80 64 80H384C393 80 400 87 400 96V416Z"/></svg>