<svg xmlns="http://www.w3.org/2000/svg" viewBox="0 0 448 512"><!-- Font Awesome Pro 6.0.0-alpha1 by @fontawesome - https://fontawesome.com License - https://fontawesome.com/license (Commercial License) --><path d="M340 140L290 128C282 127 275 131 272 137L248 192C246 198 247 206 253 210L280 232C263 267 235 295 200 312L178 285C174 279 166 278 160 280L105 304C98 307 95 314 96 322L108 372C110 379 116 384 123 384C249 384 352 281 352 155C352 148 347 142 340 140ZM384 32H64C29 32 0 61 0 96V416C0 451 29 480 64 480H384C419 480 448 451 448 416V96C448 61 419 32 384 32ZM400 416C400 425 393 432 384 432H64C55 432 48 425 48 416V96C48 87 55 80 64 80H384C393 80 400 87 400 96V416Z"/></svg>