<svg xmlns="http://www.w3.org/2000/svg" viewBox="0 0 640 512"><!-- Font Awesome Pro 6.0.0-alpha1 by @fontawesome - https://fontawesome.com License - https://fontawesome.com/license (Commercial License) --><path d="M480 32H160C125 32 96 61 96 96V416C96 451 125 480 160 480H480C515 480 544 451 544 416V96C544 61 515 32 480 32ZM496 416C496 425 489 432 480 432H160C151 432 144 425 144 416V96C144 87 151 80 160 80H480C489 80 496 87 496 96V416ZM400 200C400 160 368 128 328 128H312C272 128 240 160 240 200C240 216 245 230 254 242C236 257 224 279 224 304C224 348 260 384 304 384H336C380 384 416 348 416 304C416 279 404 257 386 242C395 230 400 216 400 200ZM312 176H328C341 176 352 187 352 200S341 224 328 224H312C299 224 288 213 288 200S299 176 312 176ZM336 336H304C286 336 272 322 272 304S286 272 304 272H336C354 272 368 286 368 304S354 336 336 336Z"/></svg>