<svg xmlns="http://www.w3.org/2000/svg" viewBox="0 0 640 512"><!-- Font Awesome Pro 6.0.0-alpha1 by @fontawesome - https://fontawesome.com License - https://fontawesome.com/license (Commercial License) --><path d="M631 469L544 401V96C544 61 515 32 480 32H160C138 32 119 43 108 59L39 5C34 2 29 0 24 0C17 0 10 3 5 9C-3 20 -1 35 9 43L601 507C612 515 627 513 635 503C643 492 641 477 631 469ZM366 261L272 188V176H336C362 176 384 198 384 224C384 239 377 253 366 261ZM496 363L404 291C421 274 432 250 432 224C432 171 389 128 336 128H248C235 128 225 138 224 150L146 89C148 84 154 80 160 80H480C489 80 496 87 496 96V363ZM160 432C151 432 144 425 144 416V210L96 172V416C96 451 125 480 160 480H480C483 480 485 480 488 479L428 432H160ZM272 360V320H285L224 272V360C224 373 235 384 248 384S272 373 272 360Z"/></svg>