<svg xmlns="http://www.w3.org/2000/svg" viewBox="0 0 512 512"><!-- Font Awesome Pro 6.0.0-alpha1 by @fontawesome - https://fontawesome.com License - https://fontawesome.com/license (Commercial License) --><path d="M415 0H346C310 0 276 21 260 53L246 82C241 91 240 102 244 112C247 122 254 129 263 134L315 160C334 169 357 162 366 143L370 135H377V162L252 197C222 206 194 222 173 244L145 272H112C103 272 96 279 96 288V321L13 403C5 412 0 423 0 435S5 459 13 468L44 499C53 507 64 512 77 512S100 507 109 499L268 339C274 334 281 329 289 327L377 302L403 317C411 322 421 319 425 311L441 284L442 283C483 272 512 234 512 191V97C512 43 469 0 415 0ZM464 191C464 212 450 231 429 237L276 281C260 285 246 294 234 306L77 463L49 435L207 278C223 262 243 250 265 243L408 203C418 200 425 190 425 180V111C425 98 414 87 401 87H355C346 87 338 92 334 100L328 113L293 95L303 75C311 58 328 48 346 48H415C442 48 464 70 464 97V191Z"/></svg>