<svg xmlns="http://www.w3.org/2000/svg" viewBox="0 0 576 512"><!-- Font Awesome Pro 6.0.0-alpha1 by @fontawesome - https://fontawesome.com License - https://fontawesome.com/license (Commercial License) --><path d="M128 336C119 336 112 343 112 352S119 368 128 368C137 368 144 361 144 352S137 336 128 336ZM96 240C87 240 80 247 80 256C80 265 87 272 96 272S112 265 112 256C112 247 105 240 96 240ZM128 144C119 144 112 151 112 160S119 176 128 176C137 176 144 169 144 160S137 144 128 144ZM555 136L311 48C284 37 254 32 224 32C195 32 166 37 139 49C-4 111 0 256 0 256S-4 401 139 463C166 475 195 480 224 480C250 480 275 476 300 468L309 481C322 501 344 512 368 512H440C467 512 492 497 505 472C517 448 514 418 497 397L555 376C568 371 576 359 576 346V166C576 153 568 141 555 136ZM224 432C121 432 47 342 48 256C47 163 127 80 224 80C257 80 400 107 400 256C400 283 394 309 382 333L328 256C328 256 328 256 328 256C328 207 289 168 240 168S152 207 152 256C152 294 176 326 210 338L271 426C255 430 240 432 224 432ZM280 256C280 278 262 296 240 296S200 278 200 256S218 216 240 216S280 234 280 256ZM440 464H368C360 464 353 460 348 454L268 339C284 334 298 324 308 311L381 416H440C453 416 464 427 464 440S453 464 440 464ZM528 334L436 368H417C432 343 441 316 446 288H528V334ZM528 224H446C441 192 430 162 412 135L528 178V224Z"/></svg>