<svg xmlns="http://www.w3.org/2000/svg" viewBox="0 0 512 512"><!-- Font Awesome Pro 6.0.0-alpha1 by @fontawesome - https://fontawesome.com License - https://fontawesome.com/license (Commercial License) --><path d="M436 256L491 167C506 142 487 112 458 112H347L289 18C282 6 269 0 256 0S230 6 223 18L165 112H54C25 112 6 142 21 167L76 256L21 345C6 370 25 400 54 400H165L223 494C230 506 243 512 256 512S282 506 289 494L347 400H458C487 400 506 370 491 345L436 256ZM437 160L407 209L376 160H437ZM378 256L319 352H193L134 256L193 160H319L378 256ZM256 58L289 112H223L256 58ZM75 160H135L105 209L75 160ZM75 352L105 303L136 352H75ZM256 454L223 400H289L256 454ZM376 352L407 303L437 352H376Z"/></svg>