<svg xmlns="http://www.w3.org/2000/svg" viewBox="0 0 576 512"><!-- Font Awesome Pro 6.0.0-alpha1 by @fontawesome - https://fontawesome.com License - https://fontawesome.com/license (Commercial License) --><path d="M538 182H360L305 13C303 4 295 0 288 0S273 4 271 13L216 182H38C21 182 13 204 28 215L171 319L116 488C112 501 122 512 134 512C137 512 141 511 144 508L288 404L432 508C435 511 439 512 442 512C454 512 464 501 460 488L405 319L548 215C563 204 555 182 538 182ZM352 312L386 416L288 345V115L322 219C324 225 330 230 337 230H446L358 294C352 298 350 305 352 312Z"/></svg>