<svg xmlns="http://www.w3.org/2000/svg" viewBox="0 0 512 512"><!-- Font Awesome Pro 6.0.0-alpha1 by @fontawesome - https://fontawesome.com License - https://fontawesome.com/license (Commercial License) --><path d="M477 384C472 392 464 396 456 396C452 396 448 395 444 393L280 298V488C280 501 269 512 256 512S232 501 232 488V298L68 393C64 395 60 396 56 396C48 396 40 392 35 384C29 373 33 358 44 351L208 256L44 161C32 154 29 139 35 128C42 116 57 113 68 119L232 214V24C232 11 243 0 256 0S280 11 280 24V214L444 119C455 113 470 116 477 128C483 139 479 154 468 161L304 256L468 351C479 358 483 373 477 384Z"/></svg>