<svg xmlns="http://www.w3.org/2000/svg" viewBox="0 0 576 512"><!-- Font Awesome Pro 6.0.0-alpha1 by @fontawesome - https://fontawesome.com License - https://fontawesome.com/license (Commercial License) --><path d="M369 96C342 96 317 120 306 156C300 178 280 263 133 326C51 362 123 415 229 415C302 415 390 390 454 317C493 273 487 191 443 140C418 112 392 96 369 96ZM384 256C366 256 352 242 352 224C352 206 366 192 384 192S416 206 416 224C416 242 402 256 384 256ZM515 77C468 23 416 0 369 0C298 0 237 51 214 129C165 269 1 212 0 352C-1 467 126 512 239 512C245 512 251 512 256 512C344 508 443 475 527 380C597 300 592 164 515 77ZM490 348C411 439 318 461 254 464C249 464 244 464 239 464C168 464 104 444 72 412C56 396 48 376 48 352C48 313 63 305 114 282C162 261 229 232 259 145L260 144L260 143C277 85 320 48 369 48C406 48 444 69 479 108C539 177 544 287 490 348Z"/></svg>