<svg xmlns="http://www.w3.org/2000/svg" viewBox="0 0 320 512"><!-- Font Awesome Pro 6.0.0-alpha1 by @fontawesome - https://fontawesome.com License - https://fontawesome.com/license (Commercial License) --><path d="M320 456C320 469 309 480 296 480H24C15 480 7 475 3 467S-1 449 5 442C33 404 48 358 48 312V280H24C11 280 0 269 0 256S11 232 24 232H48V159C48 89 105 32 175 32C189 32 203 34 216 39L296 65C308 69 315 83 311 96C307 108 293 115 280 111L200 84C192 81 184 80 175 80C132 80 96 116 96 159V232H232C245 232 256 243 256 256S245 280 232 280H96V312C96 354 86 395 67 432H296C309 432 320 443 320 456Z"/></svg>