<svg xmlns="http://www.w3.org/2000/svg" viewBox="0 0 576 512"><!-- Font Awesome Pro 6.0.0-alpha1 by @fontawesome - https://fontawesome.com License - https://fontawesome.com/license (Commercial License) --><path d="M480 128C445 128 416 157 416 192C416 219 433 242 456 251V344C456 410 402 464 336 464C272 464 220 413 217 350C293 338 352 272 352 192V58C352 49 347 41 339 37L271 3C259 -3 244 1 239 13C233 25 237 40 249 45L304 73V192C304 254 254 304 192 304S80 254 80 192V73L135 45C147 40 151 25 145 13C140 1 125 -3 113 3L45 37C37 41 32 49 32 58V192C32 272 92 338 169 350C172 440 245 512 336 512C429 512 504 437 504 344V251C527 242 544 219 544 192C544 157 515 128 480 128ZM480 208C471 208 464 201 464 192S471 176 480 176S496 183 496 192S489 208 480 208Z"/></svg>