<svg xmlns="http://www.w3.org/2000/svg" viewBox="0 0 512 512"><!-- Font Awesome Pro 6.0.0-alpha1 by @fontawesome - https://fontawesome.com License - https://fontawesome.com/license (Commercial License) --><path d="M398 97C342 91 292 122 269 168H256C216 168 184 136 184 96V24C184 11 173 0 160 0H160C147 0 136 11 136 24V96C136 162 190 216 256 216H257C257 219 256 221 256 224V288C256 328 224 360 184 360H120C54 360 0 414 0 480V488C0 501 11 512 24 512H24C37 512 48 501 48 488V479C48 427 108 399 148 431L189 465C218 488 251 505 287 510C408 527 512 434 512 317L512 230C512 163 464 104 398 97ZM317 464C283 464 250 452 224 431L195 408C242 403 280 372 296 330L297 331C321 322 351 325 370 339C390 354 416 362 443 362C448 362 452 362 456 361C438 421 382 464 317 464ZM464 311C441 317 415 314 398 301C373 282 338 274 304 279V224C304 180 340 144 384 144S464 180 464 224V311Z"/></svg>