<svg xmlns="http://www.w3.org/2000/svg" viewBox="0 0 448 512"><!-- Font Awesome Pro 6.0.0-alpha1 by @fontawesome - https://fontawesome.com License - https://fontawesome.com/license (Commercial License) --><path d="M425 153C434 144 434 128 425 119S400 110 391 119L362 148C331 121 291 102 248 97V48H280C293 48 304 37 304 24S293 0 280 0H168C155 0 144 11 144 24S155 48 168 48H200V98C96 109 16 197 16 304C16 419 109 512 224 512S432 419 432 304C432 259 418 218 394 184L425 153ZM224 464C136 464 64 392 64 304S136 144 224 144S384 216 384 304S312 464 224 464ZM288 204C259 204 236 227 236 256V352C236 381 259 404 288 404S340 381 340 352V256C340 227 317 204 288 204ZM300 352C300 359 295 364 288 364S276 359 276 352V256C276 249 281 244 288 244S300 249 300 256V352ZM212 252C212 226 190 204 164 204S116 226 116 252C116 263 125 272 136 272S156 263 156 252C156 243 172 241 172 254C172 270 165 286 154 298C135 317 124 343 124 370V384C124 395 133 404 144 404H192C203 404 212 395 212 384S203 364 192 364H164C166 350 172 336 182 326C201 307 212 281 212 252Z"/></svg>