<svg xmlns="http://www.w3.org/2000/svg" viewBox="0 0 512 512"><!-- Font Awesome Pro 6.0.0-alpha1 by @fontawesome - https://fontawesome.com License - https://fontawesome.com/license (Commercial License) --><path d="M256 16C123 16 16 123 16 256S123 496 256 496S496 389 496 256S389 16 256 16ZM256 448C150 448 64 362 64 256S150 64 256 64S448 150 448 256S362 448 256 448ZM417 223C408 214 394 214 384 222L354 192L369 177C378 168 378 152 369 143S344 134 335 143L320 158L290 128C298 118 298 104 289 95C280 86 265 86 256 94C247 86 232 86 223 95C214 104 214 118 222 128L192 158L177 143C168 134 152 134 143 143S134 168 143 177L158 192L128 222C118 214 104 214 95 223C86 232 86 247 94 256C86 265 86 280 95 289C100 294 106 296 112 296C118 296 123 294 128 290L158 320L143 335C134 344 134 360 143 369C148 374 154 376 160 376S172 374 177 369L192 354L222 384C214 394 214 408 223 417C228 422 234 424 240 424C246 424 251 422 256 418C261 422 266 424 272 424C278 424 284 422 289 417C298 408 298 394 290 384L320 354L335 369C340 374 346 376 352 376S364 374 369 369C378 360 378 344 369 335L354 320L384 290C389 294 394 296 400 296C406 296 412 294 417 289C426 280 426 265 418 256C426 247 426 232 417 223ZM192 286L162 256L192 226L222 256L192 286ZM256 350L226 320L256 290L286 320L256 350ZM256 222L226 192L256 162L286 192L256 222ZM320 286L290 256L320 226L350 256L320 286Z"/></svg>