<svg xmlns="http://www.w3.org/2000/svg" viewBox="0 0 512 512"><!-- Font Awesome Pro 6.0.0-alpha1 by @fontawesome - https://fontawesome.com License - https://fontawesome.com/license (Commercial License) --><path d="M176 320H224V368C224 377 231 384 240 384H272C281 384 288 377 288 368V320H336C345 320 352 313 352 304V272C352 263 345 256 336 256H288V208C288 199 281 192 272 192H240C231 192 224 199 224 208V256H176C167 256 160 263 160 272V304C160 313 167 320 176 320ZM448 96H384V64C384 29 355 0 320 0H192C157 0 128 29 128 64V96H64C29 96 0 125 0 160V416C0 451 29 480 64 480H448C483 480 512 451 512 416V160C512 125 483 96 448 96ZM176 64C176 55 183 48 192 48H320C329 48 336 55 336 64V96H176V64ZM80 432H64C55 432 48 425 48 416V160C48 151 55 144 64 144H80V432ZM384 432H128V144H384V432ZM464 416C464 425 457 432 448 432H432V144H448C457 144 464 151 464 160V416Z"/></svg>