<svg xmlns="http://www.w3.org/2000/svg" viewBox="0 0 448 512"><!-- Font Awesome Pro 6.0.0-alpha1 by @fontawesome - https://fontawesome.com License - https://fontawesome.com/license (Commercial License) --><path d="M296 336H152C139 336 128 347 128 360C128 373 139 384 152 384H296C309 384 320 373 320 360C320 347 309 336 296 336ZM296 224H152C139 224 128 235 128 248C128 261 139 272 152 272H296C309 272 320 261 320 248C320 235 309 224 296 224ZM352 128H320V48C320 22 298 0 272 0H176C150 0 128 22 128 48V128H96C61 128 32 157 32 192V416C32 451 61 480 96 480C96 498 110 512 128 512S160 498 160 480H288C288 498 302 512 320 512S352 498 352 480C387 480 416 451 416 416V192C416 157 387 128 352 128ZM176 48H272V128H176V48ZM368 416C368 425 361 432 352 432H96C87 432 80 425 80 416V192C80 183 87 176 96 176H352C361 176 368 183 368 192V416Z"/></svg>