<svg xmlns="http://www.w3.org/2000/svg" viewBox="0 0 640 512"><!-- Font Awesome Pro 6.0.0-alpha1 by @fontawesome - https://fontawesome.com License - https://fontawesome.com/license (Commercial License) --><path d="M353 378L339 457L256 399L173 457L155 357L55 339L113 256L55 173L155 155L173 55L256 113L339 55L357 155L386 160C403 144 424 132 448 128L398 114L384 31C381 18 373 8 361 3C349 -2 335 -1 325 7L256 54L187 7C177 -1 163 -2 151 3C139 8 131 18 128 31L114 114L31 128C18 131 8 139 3 151C-2 163 -1 177 7 187L54 256L7 325C-1 335 -2 349 3 361C8 373 18 381 31 384L114 398L128 481C131 494 139 504 151 509C163 514 177 513 187 505L256 458L325 505C331 510 339 512 346 512C351 512 356 511 361 509C373 504 381 494 384 481L401 384H384C373 384 363 382 353 378ZM256 192C280 192 301 206 312 225C322 213 336 204 351 198C332 166 297 144 256 144C194 144 144 194 144 256C144 318 194 368 256 368C277 368 296 362 313 352C302 340 294 326 291 310C281 316 269 320 256 320C221 320 192 291 192 256S221 192 256 192ZM576 224C564 224 553 227 543 233C540 192 506 160 464 160C425 160 393 188 386 224C385 224 385 224 384 224C349 224 320 253 320 288S349 352 384 352H576C611 352 640 323 640 288S611 224 576 224Z"/></svg>