<svg xmlns="http://www.w3.org/2000/svg" viewBox="0 0 512 512"><!-- Font Awesome Pro 6.0.0-alpha1 by @fontawesome - https://fontawesome.com License - https://fontawesome.com/license (Commercial License) --><path d="M401 73L330 87L289 27C274 4 238 4 222 27L182 87L111 73C98 70 85 74 75 84C66 94 61 107 64 120L78 191L18 232C7 239 0 252 0 265C0 279 7 291 18 299L78 339L64 410C61 424 66 437 75 447L75 447L113 409L113 409L131 317L54 265L131 213L113 122L204 140L256 63L308 140L399 122L399 123L438 84C437 84 437 84 437 84C427 74 414 70 401 73ZM256 210C271 210 285 216 296 226L330 192C311 174 285 162 256 162C199 162 152 209 152 266C152 295 164 321 182 339L216 306C206 295 200 281 200 266C200 235 225 210 256 210ZM160 458C142 458 128 472 128 490S142 522 160 522S192 508 192 490S178 458 160 458ZM480 202C498 202 512 188 512 170S498 138 480 138S448 152 448 170S462 202 480 202ZM320 298C302 298 288 312 288 330S302 362 320 362S352 348 352 330S338 298 320 298ZM400 218C382 218 368 232 368 250S382 282 400 282S432 268 432 250S418 218 400 218ZM240 378C222 378 208 392 208 410S222 442 240 442S272 428 272 410S258 378 240 378ZM480 458C462 458 448 472 448 490S462 522 480 522S512 508 512 490S498 458 480 458ZM400 378C382 378 368 392 368 410S382 442 400 442S432 428 432 410S418 378 400 378ZM320 458C302 458 288 472 288 490S302 522 320 522S352 508 352 490S338 458 320 458ZM480 298C462 298 448 312 448 330S462 362 480 362S512 348 512 330S498 298 480 298Z"/></svg>