<svg xmlns="http://www.w3.org/2000/svg" viewBox="0 0 576 512"><!-- Font Awesome Pro 6.0.0-alpha1 by @fontawesome - https://fontawesome.com License - https://fontawesome.com/license (Commercial License) --><path d="M552 464H491L521 419C528 408 530 394 524 382C519 369 508 360 495 357L424 343L410 272C407 259 398 248 386 243C373 237 359 239 348 246L288 286L228 246C205 231 171 245 166 272L151 343L81 357C67 360 57 369 51 381C46 394 48 408 55 419L85 464H24C11 464 0 475 0 488V488C0 501 11 512 24 512H552C565 512 576 501 576 488V488C576 475 565 464 552 464ZM235 464C239 448 251 435 267 428C295 417 328 430 340 459C341 460 341 462 342 464H235ZM434 464H391C389 456 388 448 384 440C362 387 301 362 248 384C214 398 191 429 186 464H142L101 402L192 383L211 292L288 344L365 293L384 383L475 402L434 464ZM225 121L264 82V200C264 213 275 224 288 224S312 213 312 200V82L351 121C356 126 362 128 368 128S380 126 385 121C394 112 394 96 385 87L305 7C296 -2 280 -2 271 7L191 87C182 96 182 112 191 121S216 130 225 121Z"/></svg>