<svg xmlns="http://www.w3.org/2000/svg" viewBox="0 0 576 512"><!-- Font Awesome Pro 6.0.0-alpha1 by @fontawesome - https://fontawesome.com License - https://fontawesome.com/license (Commercial License) --><path d="M552 464H491L521 419C528 408 530 394 524 382C519 369 508 360 495 357L424 343L410 272C407 259 398 248 386 243C373 237 359 239 348 246L288 286L228 246C205 231 171 245 166 272L151 343L81 357C67 360 57 369 51 381C46 394 48 408 55 419L85 464H24C11 464 0 475 0 488V488C0 501 11 512 24 512H552C565 512 576 501 576 488V488C576 475 565 464 552 464ZM235 464C239 448 251 435 267 428C295 417 328 430 340 459C341 460 341 462 342 464H235ZM434 464H391C389 456 388 448 384 440C362 387 301 362 248 384C214 398 191 429 186 464H142L101 402L192 383L211 292L288 344L365 293L384 383L475 402L434 464ZM271 217C280 226 296 226 305 217L385 137C394 128 394 112 385 103S360 94 351 103L312 142V24C312 11 301 0 288 0S264 11 264 24V142L225 103C220 98 214 96 208 96S196 98 191 103C182 112 182 128 191 137L271 217Z"/></svg>