<svg xmlns="http://www.w3.org/2000/svg" viewBox="0 0 640 512"><!-- Font Awesome Pro 6.0.0-alpha1 by @fontawesome - https://fontawesome.com License - https://fontawesome.com/license (Commercial License) --><path d="M121 9C109 20 109 38 120 50L336 285V168L162 8C150 -3 132 -3 121 9ZM608 393L395 182C391 177 384 176 378 178C372 181 368 186 368 193V352C368 357 370 361 373 364L505 496C526 517 561 517 582 496L608 470C629 449 629 414 608 393ZM416 339V269L486 339L451 374L416 339ZM548 462C547 463 545 464 544 464C542 464 540 463 539 462L474 397L484 386L554 456L548 462ZM574 436L568 442L498 372L509 362L574 427C577 429 577 434 574 436ZM399 147L488 50C499 38 498 20 487 9C476 -3 458 -3 446 8L328 117L358 144L363 150C370 146 377 145 384 145C389 145 394 146 399 147ZM225 211L185 248L160 224C157 220 152 220 149 224L138 235C135 238 135 243 138 246L142 251L0 393C-21 414 -21 449 0 470L26 496C47 517 82 517 103 496L245 354L251 359C254 362 259 362 262 359L274 348C277 345 277 340 274 337L248 311L282 274L225 211ZM69 462C66 465 62 465 60 462L34 436C31 434 31 430 34 427L97 364L132 399L69 462ZM143 387L108 352L120 341L155 376L143 387ZM166 365L131 330L142 318L178 354L166 365ZM189 342L154 307L165 296L200 331L189 342Z"/></svg>