<svg xmlns="http://www.w3.org/2000/svg" viewBox="0 0 512 512"><!-- Font Awesome Pro 6.0.0-alpha1 by @fontawesome - https://fontawesome.com License - https://fontawesome.com/license (Commercial License) --><path d="M177 224C173 220 168 220 165 224L154 235C151 238 151 243 154 246L158 251L16 393C-5 414 -5 449 16 470L42 496C63 517 98 517 119 496L261 354L267 359C270 362 275 362 278 359L290 348C293 345 293 340 290 337L177 224ZM85 462C83 465 78 465 76 462L50 436C47 434 47 430 50 427L113 364L148 399L85 462ZM160 387L125 352L136 341L171 376L160 387ZM182 365L147 330L158 318L194 354L182 365ZM205 342L170 307L181 296L216 331L205 342ZM503 9C492 -3 474 -3 462 8L224 226L286 288L504 50C515 38 515 20 503 9Z"/></svg>