<svg xmlns="http://www.w3.org/2000/svg" viewBox="0 0 512 512"><!-- Font Awesome Pro 6.0.0-alpha1 by @fontawesome - https://fontawesome.com License - https://fontawesome.com/license (Commercial License) --><path d="M507 462L448 403L480 344C483 338 482 330 477 325L459 307C453 301 443 301 437 307L420 324L112 16L18 0C8 -1 -1 7 0 18L16 112L324 420L307 437C301 443 301 453 307 459L325 477C330 482 337 483 344 480L403 448L462 507C468 514 479 514 485 507L507 485C513 479 513 468 507 462ZM358 386L61 89L55 55L89 61L386 358L358 386ZM423 61L457 55L451 89L341 199L375 233L496 112L512 18C513 8 505 -1 494 0L400 16L279 137L313 171L423 61ZM200 341L154 386L126 358L171 313L137 279L92 324L75 307C69 301 59 301 53 307L35 325C30 330 29 338 32 344L64 403L5 462C-1 468 -1 479 5 485L27 507C33 514 44 514 50 507L109 448L168 480C174 483 182 482 187 477L205 459C211 453 211 443 205 437L188 420L233 375L200 341Z"/></svg>