<svg xmlns="http://www.w3.org/2000/svg" viewBox="0 0 512 512"><!-- Font Awesome Pro 6.0.0-alpha1 by @fontawesome - https://fontawesome.com License - https://fontawesome.com/license (Commercial License) --><path d="M119 496L330 283C340 273 333 256 319 256H160C155 256 151 258 148 261L16 393C-5 414 -5 449 16 470L42 496C63 517 98 517 119 496ZM173 304H243L173 374L138 339L173 304ZM50 436C47 434 47 429 50 427L115 362L126 372L56 442L50 436ZM76 462L70 456L140 386L150 397L85 462C83 465 78 465 76 462ZM503 9C492 -3 474 -3 462 8L227 224H344L504 50C515 38 515 20 503 9Z"/></svg>