<svg xmlns="http://www.w3.org/2000/svg" viewBox="0 0 512 512"><!-- Font Awesome Pro 6.0.0-alpha1 by @fontawesome - https://fontawesome.com License - https://fontawesome.com/license (Commercial License) --><path d="M512 18C513 9 506 0 496 0C495 0 494 0 494 0L400 16L149 267L110 229C104 223 93 223 87 229L68 247C63 253 62 261 67 267L120 347L66 400L37 386C36 385 28 382 21 388L4 406C-1 411 -1 420 4 425L87 508C89 511 93 512 97 512C100 512 104 511 106 508L124 491C128 486 129 480 126 475L112 446L165 392L245 446C251 450 259 449 265 444L283 425C290 419 290 408 283 402L245 363L496 112L512 18ZM451 89L211 330L182 301L423 61L457 55L451 89Z"/></svg>