<svg xmlns="http://www.w3.org/2000/svg" viewBox="0 0 512 512"><!-- Font Awesome Pro 6.0.0-alpha1 by @fontawesome - https://fontawesome.com License - https://fontawesome.com/license (Commercial License) --><path d="M24 128H88V200C88 214 99 224 112 224H112C125 224 136 214 136 200V128H200C213 128 224 118 224 104V104C224 91 213 80 200 80H24C11 80 0 91 0 104V104C0 118 11 128 24 128ZM502 298C492 289 477 289 468 298L298 468C289 477 289 492 298 502L298 502C308 511 323 511 332 502L502 332C511 323 511 308 502 298L502 298ZM24 48H200C213 48 224 37 224 24V24C224 11 213 0 200 0H24C11 0 0 11 0 24V24C0 37 11 48 24 48ZM482 0C481 0 479 0 478 0L330 23C315 26 304 39 304 55V162C299 161 293 160 288 160C253 160 224 182 224 208C224 235 253 256 288 256S352 235 352 208V68L464 51V130C459 129 453 128 448 128C413 128 384 150 384 176S413 224 448 224S512 202 512 176V32C512 14 498 0 482 0ZM328 368C350 368 368 350 368 328S350 288 328 288C306 288 288 306 288 328S306 368 328 368ZM472 432C450 432 432 450 432 472S450 512 472 512C494 512 512 494 512 472S494 432 472 432ZM205 443L233 427C240 422 242 413 238 405L229 392C224 384 215 382 207 386L170 408L147 385C173 370 189 340 180 307C174 283 154 263 129 258C85 248 45 282 45 325C45 341 51 356 61 368L35 384C19 393 7 408 2 426C-2 444 0 463 10 479C22 500 45 512 69 512C82 512 95 508 106 501L162 468L196 502C205 511 220 511 230 502L230 502C239 492 239 477 230 468L205 443ZM81 461C70 467 57 464 51 454C46 446 48 432 60 425L97 403L127 433L81 461ZM114 346C102 346 93 336 93 325C93 313 102 304 114 304C125 304 135 313 135 325C135 336 125 346 114 346Z"/></svg>