<svg xmlns="http://www.w3.org/2000/svg" viewBox="0 0 640 512"><!-- Font Awesome Pro 6.0.0-alpha1 by @fontawesome - https://fontawesome.com License - https://fontawesome.com/license (Commercial License) --><path d="M319 320C274 321 256 362 256 387V480C256 498 270 512 288 512H352C370 512 384 498 384 480L384 386C384 350 355 319 319 320ZM632 268L556 197C553 194 548 192 544 192S535 194 532 197L496 230V148C496 137 491 127 483 120L342 8C336 3 328 0 320 0C312 0 305 3 298 8L157 120C149 127 144 137 144 148V230L108 197C105 194 100 192 96 192S87 194 84 197L8 268C3 273 0 279 0 286V488C0 501 11 512 24 512H24C37 512 48 501 48 488V297L96 251L144 297V488C144 501 155 512 168 512H168C181 512 192 501 192 488V154L320 52L448 154V488C448 501 459 512 472 512H472C485 512 496 501 496 488V297L544 251L592 297V488C592 501 603 512 616 512L616 512C629 512 640 501 640 488V286C640 279 637 273 632 268ZM388 154H349L324 114C322 111 318 111 316 114L291 154H252C248 154 246 158 248 161L267 192L248 222C246 226 248 230 252 230H291L316 270C318 273 322 273 324 270L349 230H388C392 230 394 226 392 223L373 192L392 162C394 158 392 154 388 154Z"/></svg>