<svg xmlns="http://www.w3.org/2000/svg" viewBox="0 0 448 512"><!-- Font Awesome Pro 6.0.0-alpha1 by @fontawesome - https://fontawesome.com License - https://fontawesome.com/license (Commercial License) --><path d="M384 0H64C29 0 0 29 0 64V448C0 483 29 512 64 512H384C419 512 448 483 448 448V64C448 29 419 0 384 0ZM400 448C400 457 393 464 384 464H64C55 464 48 457 48 448V64C48 55 55 48 64 48H384C393 48 400 55 400 64V448ZM224 392C211 392 200 403 200 416C200 429 211 440 224 440S248 429 248 416C248 403 237 392 224 392Z"/></svg>