<svg xmlns="http://www.w3.org/2000/svg" viewBox="0 0 512 512"><!-- Font Awesome Pro 6.0.0-alpha1 by @fontawesome - https://fontawesome.com License - https://fontawesome.com/license (Commercial License) --><path d="M471 164C477 162 480 156 480 150V74C480 68 477 62 471 60L448 48C448 22 426 0 400 0H112C86 0 64 22 64 48L41 60C35 62 32 68 32 74V150C32 156 35 162 41 164L64 176V192L41 204C35 206 32 212 32 218V294C32 300 35 306 41 308L64 320V336L41 348C35 350 32 356 32 362V438C32 444 35 450 41 452L64 464C64 490 86 512 112 512H400C426 512 448 490 448 464L471 452C477 450 480 444 480 438V362C480 356 477 350 471 348L448 336V320L471 308C477 306 480 300 480 294V218C480 212 477 206 471 204L448 192V176L471 164ZM400 448C400 457 393 464 384 464H128C119 464 112 457 112 448V64C112 55 119 48 128 48H384C393 48 400 55 400 64V448Z"/></svg>