<svg xmlns="http://www.w3.org/2000/svg" viewBox="0 0 512 512"><!-- Font Awesome Pro 6.0.0-alpha1 by @fontawesome - https://fontawesome.com License - https://fontawesome.com/license (Commercial License) --><path d="M448 32H64C29 32 0 61 0 96V416C0 451 29 480 64 480H448C483 480 512 451 512 416V96C512 61 483 32 448 32ZM464 416C464 425 457 432 448 432H64C55 432 48 425 48 416V144H96V328C96 350 114 368 136 368H256V336H136C132 336 128 332 128 328V270C131 271 133 272 136 272H192V240H136C132 240 128 236 128 232V144H464V416ZM288 384H416V320H288V384ZM416 224H224V288H416V224Z"/></svg>