<svg xmlns="http://www.w3.org/2000/svg" viewBox="0 0 640 512"><!-- Font Awesome Pro 6.0.0-alpha1 by @fontawesome - https://fontawesome.com License - https://fontawesome.com/license (Commercial License) --><path d="M593 47C531 -16 429 -16 367 47S304 211 367 273C429 336 531 336 593 273S656 109 593 47ZM386 100L540 254C440 319 321 200 386 100ZM574 220L420 66C520 1 639 119 574 220ZM160 192C72 192 0 264 0 352S72 512 160 512S320 440 320 352S248 192 160 192ZM51 376H269C244 493 76 493 51 376ZM51 328C76 211 244 211 269 328H51Z"/></svg>