<svg xmlns="http://www.w3.org/2000/svg" viewBox="0 0 640 512"><!-- Font Awesome Pro 6.0.0-alpha1 by @fontawesome - https://fontawesome.com License - https://fontawesome.com/license (Commercial License) --><path d="M576 64H64C29 64 0 93 0 128V384C0 419 29 448 64 448H576C611 448 640 419 640 384V128C640 93 611 64 576 64ZM592 384C592 393 585 400 576 400H64C55 400 48 393 48 384V128C48 119 55 112 64 112H576C585 112 592 119 592 128V384ZM336 144H112C94 144 80 158 80 176V208C80 226 94 240 112 240H336C354 240 368 226 368 208V176C368 158 354 144 336 144ZM352 336H96C87 336 80 343 80 352S87 368 96 368H352C361 368 368 361 368 352S361 336 352 336ZM544 336H416C407 336 400 343 400 352S407 368 416 368H544C553 368 560 361 560 352S553 336 544 336ZM88 304H104C108 304 112 300 112 296V280C112 276 108 272 104 272H88C84 272 80 276 80 280V296C80 300 84 304 88 304ZM168 304C172 304 176 300 176 296V280C176 276 172 272 168 272H152C148 272 144 276 144 280V296C144 300 148 304 152 304H168ZM232 304C236 304 240 300 240 296V280C240 276 236 272 232 272H216C212 272 208 276 208 280V296C208 300 212 304 216 304H232ZM296 304C300 304 304 300 304 296V280C304 276 300 272 296 272H280C276 272 272 276 272 280V296C272 300 276 304 280 304H296ZM360 272H344C340 272 336 276 336 280V296C336 300 340 304 344 304H360C364 304 368 300 368 296V280C368 276 364 272 360 272Z"/></svg>