<svg xmlns="http://www.w3.org/2000/svg" viewBox="0 0 512 512"><!-- Font Awesome Pro 6.0.0-alpha1 by @fontawesome - https://fontawesome.com License - https://fontawesome.com/license (Commercial License) --><path d="M208 280C195 280 184 291 184 304S195 328 208 328S232 317 232 304S221 280 208 280ZM144 344C131 344 120 355 120 368C120 381 131 392 144 392S168 381 168 368C168 355 157 344 144 344ZM512 408C509 386 504 366 497 346C500 338 501 331 501 323C501 314 502 305 504 296C510 277 517 252 507 226C494 190 459 177 447 168C442 152 441 113 412 89C385 67 356 74 331 74C317 63 294 32 257 32C220 32 193 65 182 74C165 74 129 66 100 89C71 113 70 152 64 168C52 178 18 191 5 226C-5 252 2 277 8 295C10 305 11 314 11 323C11 331 12 338 15 345C8 366 3 386 0 408C-4 443 21 480 61 480H452C491 480 516 443 512 408ZM452 432H61C52 432 47 422 48 414C63 296 152 208 256 208S449 296 464 414C465 422 460 432 452 432Z"/></svg>