<svg xmlns="http://www.w3.org/2000/svg" viewBox="0 0 576 512"><!-- Font Awesome Pro 6.0.0-alpha1 by @fontawesome - https://fontawesome.com License - https://fontawesome.com/license (Commercial License) --><path d="M426 212L268 54C256 41 234 32 216 32H49C22 32 0 54 0 81V248C0 266 9 288 22 300L180 458C194 473 213 480 232 480S270 473 285 458L426 317C455 288 455 241 426 212ZM392 283L251 424C241 435 224 435 214 424L56 266C52 263 48 253 48 248V81L49 80H216C221 80 231 84 234 88L392 246C403 256 403 272 392 283ZM136 144C136 157 125 168 112 168S88 157 88 144S99 120 112 120S136 131 136 144ZM560 305L401 464C390 475 376 480 361 480C351 480 341 477 332 472L517 288C529 275 529 255 517 243L306 32H343C356 32 373 39 382 48L560 226C582 247 582 283 560 305Z"/></svg>