<svg xmlns="http://www.w3.org/2000/svg" viewBox="0 0 640 512"><!-- Font Awesome Pro 6.0.0-alpha1 by @fontawesome - https://fontawesome.com License - https://fontawesome.com/license (Commercial License) --><path d="M256 144C194 144 144 194 144 256S194 368 256 368C318 368 368 318 368 256S318 144 256 144ZM256 320C221 320 192 291 192 256S221 192 256 192C291 192 320 221 320 256S291 320 256 320ZM600 448H399C458 404 496 335 496 256C496 124 388 16 256 16S16 124 16 256S124 496 256 496H600C613 496 624 485 624 472S613 448 600 448ZM256 448C150 448 64 362 64 256S150 64 256 64S448 150 448 256S362 448 256 448Z"/></svg>