<svg xmlns="http://www.w3.org/2000/svg" viewBox="0 0 576 512"><!-- Font Awesome Pro 6.0.0-alpha1 by @fontawesome - https://fontawesome.com License - https://fontawesome.com/license (Commercial License) --><path d="M480 32H96C43 32 0 75 0 128V384C0 437 43 480 96 480H480C533 480 576 437 576 384V128C576 75 533 32 480 32ZM528 384C528 410 506 432 480 432H96C70 432 48 410 48 384V363C64 385 90 400 120 400C141 400 161 392 176 380C191 392 211 400 232 400S273 392 288 380C303 392 323 400 344 400S385 392 400 380C415 392 435 400 456 400C486 400 512 385 528 363V384ZM93 288H147C154 288 160 294 160 301V312C160 334 142 352 120 352S80 334 80 312V301C80 294 86 288 93 288ZM80 243V227C80 205 98 187 120 187S160 205 160 227V243C160 250 154 256 147 256H93C86 256 80 250 80 243ZM205 288H259C266 288 272 294 272 301V312C272 334 254 352 232 352S192 334 192 312V301C192 294 198 288 205 288ZM192 245V200C192 178 210 160 232 160S272 178 272 200V245C272 251 267 256 261 256H203C197 256 192 251 192 245ZM317 288H371C378 288 384 294 384 301V312C384 334 366 352 344 352S304 334 304 312V301C304 294 310 288 317 288ZM304 245V200C304 178 322 160 344 160S384 178 384 200V245C384 251 379 256 373 256H315C309 256 304 251 304 245ZM429 288H483C490 288 496 294 496 301V312C496 334 478 352 456 352S416 334 416 312V301C416 294 422 288 429 288ZM416 243V227C416 205 434 187 456 187S496 205 496 227V243C496 250 490 256 483 256H429C422 256 416 250 416 243ZM528 176C512 154 486 139 456 139C441 139 428 142 415 149C399 126 373 112 344 112C323 112 303 120 288 132C273 120 253 112 232 112C203 112 177 126 161 149C148 142 135 139 120 139C90 139 64 153 48 176V128C48 102 70 80 96 80H480C506 80 528 102 528 128V176Z"/></svg>