<svg xmlns="http://www.w3.org/2000/svg" viewBox="0 0 640 512"><!-- Font Awesome Pro 6.0.0-alpha1 by @fontawesome - https://fontawesome.com License - https://fontawesome.com/license (Commercial License) --><path d="M224 160C189 160 160 189 160 224S189 288 224 288C259 288 288 259 288 224S259 160 224 160ZM512 323V112C512 103 505 96 496 96S480 103 480 112V323C461 330 448 347 448 368C448 394 470 416 496 416S544 394 544 368C544 347 531 330 512 323ZM608 278V112C608 50 558 0 496 0S384 50 384 112V278C364 303 352 334 352 368C352 447 417 512 496 512S640 447 640 368C640 334 628 303 608 278ZM496 464C443 464 400 421 400 368C400 341 412 321 422 309L432 295V112C432 77 461 48 496 48S560 77 560 112V295L571 308C580 321 592 341 592 368C592 421 549 464 496 464ZM279 91L238 8C232 -3 216 -3 210 8L169 91L81 62C69 58 58 69 62 81L91 169L8 210C-3 216 -3 232 8 238L91 279L62 367C58 379 69 390 81 386L169 357L210 440C216 451 232 451 238 440L279 357L320 370C320 370 320 369 320 368C320 332 331 298 352 268V112C352 95 356 79 361 64L279 91ZM292 292C255 329 194 329 156 292S119 194 156 156S254 119 292 156C329 194 329 254 292 292Z"/></svg>