<svg xmlns="http://www.w3.org/2000/svg" viewBox="0 0 512 512"><!-- Font Awesome Pro 6.0.0-alpha1 by @fontawesome - https://fontawesome.com License - https://fontawesome.com/license (Commercial License) --><path d="M192 368C192 394 170 416 144 416S96 394 96 368C96 347 109 330 128 323V112C128 103 135 96 144 96S160 103 160 112V323C179 330 192 347 192 368ZM256 278C276 303 288 334 288 368C288 447 223 512 144 512S0 447 0 368C0 334 12 303 32 278V112C32 50 82 0 144 0S256 50 256 112V278ZM240 368C240 341 228 321 218 308L208 295V112C208 77 179 48 144 48S80 77 80 112V295L70 308C60 321 48 341 48 368C48 421 91 464 144 464S240 421 240 368ZM504 154C494 163 479 162 470 152L440 119V456C440 469 429 480 416 480S392 469 392 456V119L362 152C353 162 338 163 328 154C318 145 317 130 326 120L398 40C403 35 409 32 416 32S429 35 434 40L506 120C515 130 514 145 504 154Z"/></svg>