<svg xmlns="http://www.w3.org/2000/svg" viewBox="0 0 320 512"><!-- Font Awesome Pro 6.0.0-alpha1 by @fontawesome - https://fontawesome.com License - https://fontawesome.com/license (Commercial License) --><path d="M272 112C272 50 222 0 160 0S48 50 48 112V278C28 303 16 334 16 368C16 447 81 512 160 512S304 447 304 368C304 334 292 303 272 278V112ZM160 464C107 464 64 421 64 368C64 341 76 321 86 309L96 295V112C96 77 125 48 160 48S224 77 224 112V295L234 308C244 321 256 341 256 368C256 421 213 464 160 464ZM176 323V208C176 199 169 192 160 192S144 199 144 208V323C125 330 112 347 112 368C112 394 134 416 160 416S208 394 208 368C208 347 195 330 176 323Z"/></svg>