<svg xmlns="http://www.w3.org/2000/svg" viewBox="0 0 512 512"><!-- Font Awesome Pro 6.0.0-alpha1 by @fontawesome - https://fontawesome.com License - https://fontawesome.com/license (Commercial License) --><path d="M192 368C192 394 170 416 144 416S96 394 96 368C96 347 109 330 128 323V304C128 295 135 288 144 288S160 295 160 304V323C179 330 192 347 192 368ZM256 278C276 303 288 334 288 368C288 447 223 512 144 512S0 447 0 368C0 334 12 303 32 278V112C32 50 82 0 144 0S256 50 256 112V278ZM240 368C240 341 228 321 218 308L208 295V112C208 77 179 48 144 48S80 77 80 112V295L70 308C60 321 48 341 48 368C48 421 91 464 144 464S240 421 240 368ZM504 358C494 349 479 350 470 360L440 393V56C440 43 429 32 416 32S392 43 392 56V393L362 360C353 350 338 349 328 358C318 367 317 382 326 392L398 472C403 477 409 480 416 480S429 477 434 472L506 392C515 382 514 367 504 358Z"/></svg>