<svg xmlns="http://www.w3.org/2000/svg" viewBox="0 0 576 512"><!-- Font Awesome Pro 6.0.0-alpha1 by @fontawesome - https://fontawesome.com License - https://fontawesome.com/license (Commercial License) --><path d="M296 32H24C11 32 0 43 0 56V136C0 149 11 160 24 160S48 149 48 136V80H136V432H88C75 432 64 443 64 456S75 480 88 480H232C245 480 256 469 256 456S245 432 232 432H184V80H272V136C272 149 283 160 296 160S320 149 320 136V56C320 43 309 32 296 32ZM535 367L504 398V114L535 145C540 150 546 152 552 152S564 150 569 145C578 136 578 120 569 111L497 39C488 30 472 30 463 39L391 111C382 120 382 136 391 145S416 154 425 145L456 114V398L425 367C416 358 400 358 391 367S382 392 391 401L463 473C468 478 474 480 480 480S492 478 497 473L569 401C578 392 578 376 569 367S544 358 535 367Z"/></svg>