<svg xmlns="http://www.w3.org/2000/svg" viewBox="0 0 512 512"><!-- Font Awesome Pro 6.0.0-alpha1 by @fontawesome - https://fontawesome.com License - https://fontawesome.com/license (Commercial License) --><path d="M477 20C439 -10 381 -6 345 31L105 272C99 278 96 286 96 294V382L7 471C-2 480 -2 496 7 505C16 514 32 514 41 505L130 416H217C225 416 233 413 239 407L484 163C519 128 526 61 477 20ZM450 129L210 368H144V301L179 266L213 299C216 302 220 304 224 304S232 302 235 299C242 293 242 283 235 277L202 243L243 201L277 235C280 238 284 240 288 240S296 238 299 235C306 229 306 219 299 213L265 179L307 137L341 171C344 174 348 176 352 176S360 174 363 171C370 165 370 155 363 149L329 114L379 64C398 45 428 42 446 57C472 78 467 111 450 129Z"/></svg>