<svg xmlns="http://www.w3.org/2000/svg" viewBox="0 0 512 512"><!-- Font Awesome Pro 6.0.0-alpha1 by @fontawesome - https://fontawesome.com License - https://fontawesome.com/license (Commercial License) --><path d="M474 166C481 141 475 113 455 93L419 57C405 43 386 35 366 35C359 35 353 36 346 38C334 15 310 0 282 0H230C202 0 178 15 166 38C159 36 152 35 146 35C126 35 107 43 93 57L57 93C37 113 31 141 38 166C15 178 0 202 0 230V282C0 310 15 334 38 347C31 371 37 399 57 419L93 455C107 469 126 477 146 477C153 477 159 476 166 474C178 497 202 512 230 512H282C310 512 334 497 346 474C353 476 360 477 366 477C386 477 405 469 419 455L455 419C475 399 481 371 474 346C497 334 512 310 512 282V230C512 202 497 178 474 166ZM464 282C464 296 452 308 438 308H430C427 320 422 332 416 343L422 348C432 358 432 374 422 385L385 421C380 426 373 429 366 429C360 429 353 426 348 421L343 416C332 422 320 427 308 430V438C308 452 296 464 282 464H230C216 464 204 452 204 438V430C192 427 180 422 169 416L164 421C159 426 152 429 146 429C139 429 132 426 127 421L91 385C80 374 80 358 91 348L96 343C90 332 85 320 82 308H74C60 308 48 296 48 282V230C48 216 60 204 74 204H82C85 192 90 180 96 169L90 164C80 154 80 138 90 127L127 91C132 86 139 83 146 83C152 83 159 86 164 90L169 96C180 90 192 85 204 82V74C204 60 216 48 230 48H282C296 48 308 60 308 74V82C320 85 332 90 343 96L348 90C353 85 360 83 366 83C373 83 380 85 385 90L421 127C432 137 432 154 421 164L416 169C422 180 427 192 430 204H438C452 204 464 216 464 230V282ZM256 128C185 128 128 185 128 256C128 327 185 384 256 384S384 327 384 256C384 185 327 128 256 128ZM180 257C167 252 161 239 165 226S182 207 195 211C208 215 214 229 210 241C206 254 193 261 180 257ZM233 328C225 339 210 341 200 334C189 326 186 311 194 300C202 289 217 287 228 295C238 303 241 318 233 328ZM256 208C243 208 232 197 232 184C232 171 243 160 256 160S280 171 280 184C280 197 269 208 256 208ZM312 334C302 341 287 339 279 328S273 303 284 295C295 287 310 289 318 300C326 311 323 326 312 334ZM332 257C319 261 306 254 302 241C298 229 304 215 317 211C330 207 343 214 347 226S345 252 332 257Z"/></svg>