<svg xmlns="http://www.w3.org/2000/svg" viewBox="0 0 512 512"><!-- Font Awesome Pro 6.0.0-alpha1 by @fontawesome - https://fontawesome.com License - https://fontawesome.com/license (Commercial License) --><path d="M256 116C161 116 84 193 84 288S161 460 256 460S428 383 428 288S351 116 256 116ZM256 164C275 164 292 168 308 176L281 212C273 210 265 208 256 208S239 210 231 213L204 176C220 168 237 164 256 164ZM134 302C133 298 132 293 132 288C132 255 145 226 165 204L192 241C182 254 176 270 176 288C176 288 176 289 176 289L134 302ZM232 410C196 402 166 379 148 348L191 334C201 348 215 359 232 364V410ZM256 320C238 320 224 306 224 288S238 256 256 256S288 270 288 288S274 320 256 320ZM280 410V364C297 359 311 348 321 334L364 348C346 379 316 402 280 410ZM378 302L336 289C336 289 336 288 336 288C336 270 330 254 320 241L347 204C367 226 380 255 380 288C380 293 379 298 378 302ZM476 418C499 380 512 335 512 288C512 147 397 32 256 32S0 147 0 288C0 335 13 380 36 418C15 423 0 442 0 464C0 490 22 512 48 512H464C490 512 512 490 512 464C512 442 497 423 476 418ZM432 436C438 450 449 460 464 464L48 464C63 460 74 450 80 436C86 422 85 406 77 393C58 361 48 325 48 288C48 173 141 80 256 80S464 173 464 288C464 325 454 361 435 393C427 406 426 422 432 436Z"/></svg>