<svg xmlns="http://www.w3.org/2000/svg" viewBox="0 0 512 512"><!-- Font Awesome Pro 6.0.0-alpha1 by @fontawesome - https://fontawesome.com License - https://fontawesome.com/license (Commercial License) --><path d="M256 352C274 352 288 338 288 320C288 302 274 288 256 288S224 302 224 320C224 338 238 352 256 352ZM504 216C498 187 485 161 470 136C456 111 448 85 448 59V24C448 11 437 0 424 0C411 0 400 11 400 24V59C400 148 456 172 463 266C468 325 452 371 410 419C403 427 392 432 380 432H132C120 432 109 427 101 418C60 370 44 324 49 266C56 174 112 147 112 59V24C112 11 101 0 88 0C75 0 64 11 64 24V59C64 85 57 111 42 136C27 161 14 187 8 216C-12 309 5 381 66 450C70 455 75 459 80 463V496C80 505 87 512 96 512H128C137 512 144 505 144 496V480H176V496C176 505 183 512 192 512H224C233 512 240 505 240 496V480H272V496C272 505 279 512 288 512H320C329 512 336 505 336 496V480H368V496C368 505 375 512 384 512H416C425 512 432 505 432 496V463C437 459 442 455 446 450C507 381 524 309 504 216ZM256 256C269 256 280 245 280 232V96C280 83 269 72 256 72S232 83 232 96V232C232 245 243 256 256 256Z"/></svg>