<svg xmlns="http://www.w3.org/2000/svg" viewBox="0 0 576 512"><!-- Font Awesome Pro 6.0.0-alpha1 by @fontawesome - https://fontawesome.com License - https://fontawesome.com/license (Commercial License) --><path d="M384 64H192C86 64 0 150 0 256S86 448 192 448H384C490 448 576 362 576 256S490 64 384 64ZM384 400H192C113 400 48 335 48 256S113 112 192 112H384C463 112 528 177 528 256S463 400 384 400ZM192 160C139 160 96 203 96 256S139 352 192 352S288 309 288 256S245 160 192 160ZM192 304C166 304 144 282 144 256S166 208 192 208S240 230 240 256S218 304 192 304Z"/></svg>