<svg xmlns="http://www.w3.org/2000/svg" viewBox="0 0 576 512"><!-- Font Awesome Pro 6.0.0-alpha1 by @fontawesome - https://fontawesome.com License - https://fontawesome.com/license (Commercial License) --><path d="M464 144C451 144 440 166 440 192S451 240 464 240C477 240 488 218 488 192S477 144 464 144ZM464 0H144C82 0 32 86 32 192V364C32 405 22 427 1 491C-3 501 5 512 16 512H345C359 512 371 503 375 490C386 457 397 427 399 384H464C526 384 576 298 576 192C576 86 526 0 464 0ZM352 192V364C352 405 344 432 333 464H61C73 426 80 402 80 364V192C80 105 118 48 144 48H390C367 83 352 135 352 192ZM464 336C438 336 400 279 400 192S438 48 464 48S528 105 528 192S489 336 464 336ZM208 224C217 224 224 217 224 208S217 192 208 192C199 192 192 199 192 208S199 224 208 224ZM272 224C281 224 288 217 288 208S281 192 272 192S256 199 256 208S263 224 272 224ZM128 208C128 217 135 224 144 224S160 217 160 208C160 199 153 192 144 192S128 199 128 208Z"/></svg>