<svg xmlns="http://www.w3.org/2000/svg" viewBox="0 0 640 512"><!-- Font Awesome Pro 6.0.0-alpha1 by @fontawesome - https://fontawesome.com License - https://fontawesome.com/license (Commercial License) --><path d="M631 469L518 380C569 363 608 285 608 192C608 86 558 0 496 0H176C146 0 119 20 99 53L39 5C34 2 29 0 24 0C17 0 10 3 5 9C-3 20 -1 35 9 43L119 129L601 507C612 515 627 513 635 503C643 492 641 477 631 469ZM384 192V276L137 82C150 60 164 48 176 48H422C399 83 384 135 384 192ZM496 336C471 336 432 279 432 192S471 48 496 48C522 48 560 105 560 192S522 336 496 336ZM365 464H93C105 426 112 402 112 364V192C112 189 112 187 112 185L67 149C65 163 64 177 64 192V364C64 405 54 427 33 491C29 501 37 512 48 512H377C391 512 403 503 407 490C414 470 420 451 425 430L382 396C379 421 373 441 365 464ZM496 144C483 144 472 166 472 192S483 240 496 240C509 240 520 218 520 192S509 144 496 144Z"/></svg>