<svg xmlns="http://www.w3.org/2000/svg" viewBox="0 0 448 512"><!-- Font Awesome Pro 6.0.0-alpha1 by @fontawesome - https://fontawesome.com License - https://fontawesome.com/license (Commercial License) --><path d="M428 116C417 69 381 31 335 19C305 11 274 19 242 44C240 45 231 52 225 56L185 30C160 16 136 13 113 19C67 31 31 69 20 116C10 156 18 196 42 228C56 248 64 273 67 307C70 343 75 386 85 429L91 457C96 480 116 496 139 496C161 496 181 480 186 458L215 341C217 332 231 332 233 341L262 458C267 480 287 496 309 496C332 496 352 480 357 457L363 429C373 385 378 341 381 307C384 273 392 248 407 228C430 196 438 155 428 116ZM368 200C348 227 337 260 333 303C330 335 326 377 317 418L308 447L280 330C274 304 250 285 224 285C197 285 174 304 168 330L138 447L131 418C122 378 118 337 115 303C111 260 100 228 80 200C65 179 60 153 67 127C74 97 97 73 125 65C136 62 149 65 161 71L243 125C254 133 269 130 276 119S281 93 270 85L268 84C268 83 269 83 270 82C291 67 308 61 323 65C351 73 374 97 381 127C388 153 383 179 368 200Z"/></svg>