<svg xmlns="http://www.w3.org/2000/svg" viewBox="0 0 512 512"><!-- Font Awesome Pro 6.0.0-alpha1 by @fontawesome - https://fontawesome.com License - https://fontawesome.com/license (Commercial License) --><path d="M429 25C436 15 429 0 416 0L16 0C7 0 0 8 0 17C13 369 452 236 332 489C327 500 334 512 346 512L373 512C381 512 389 509 395 504C716 217 256 274 429 25ZM360 48C347 78 341 104 341 128L76 128C64 106 55 80 51 48L360 48ZM115 176L349 176C361 209 384 235 404 256L257 256C253 254 249 252 244 250C197 229 150 209 115 176ZM399 434C402 409 400 387 392 366C383 340 365 320 344 304L452 304C460 314 464 323 464 333C464 347 454 378 399 434Z"/></svg>