<svg xmlns="http://www.w3.org/2000/svg" viewBox="0 0 448 512"><!-- Font Awesome Pro 6.0.0-alpha1 by @fontawesome - https://fontawesome.com License - https://fontawesome.com/license (Commercial License) --><path d="M416 128H320C320 110 306 96 288 96H248V48H264C277 48 288 37 288 24C288 11 277 0 264 0H184C171 0 160 11 160 24C160 37 171 48 184 48H200V96H160C142 96 128 110 128 128H32C11 128 -5 148 1 169L41 309C36 314 32 320 32 328C32 341 43 352 56 352H80V488C80 501 91 512 104 512C117 512 128 501 128 488V352H320V488C320 501 331 512 344 512C357 512 368 501 368 488V352H392C405 352 416 341 416 328C416 320 412 314 407 309L447 169C453 148 437 128 416 128ZM395 176L358 304H320V176H395ZM272 176V304H176V176H272ZM128 176V304H90L53 176H128Z"/></svg>