<svg xmlns="http://www.w3.org/2000/svg" viewBox="0 0 640 512"><!-- Font Awesome Pro 6.0.0-alpha1 by @fontawesome - https://fontawesome.com License - https://fontawesome.com/license (Commercial License) --><path d="M584 160H520C520 132 530 103 548 78C555 67 553 52 542 44C531 37 516 39 508 50C485 84 472 122 472 160H374C374 159 374 159 374 158L318 32C309 13 289 0 268 0H152C121 0 96 25 96 56V194C87 188 75 188 67 196L36 227C27 236 27 250 36 258L41 263C36 273 32 282 29 292H22C10 292 0 302 0 314V358C0 370 10 380 22 380H29C32 390 36 399 41 409L36 414C27 422 27 436 36 445L67 476C76 485 90 485 98 476L103 471C113 476 122 480 132 483V490C132 502 142 512 154 512H198C210 512 220 502 220 490V483C230 480 239 476 249 471L254 476C262 485 276 485 285 476L316 445C325 436 325 422 316 414L311 409C316 399 320 390 323 380H330C342 380 352 370 352 358V314C352 302 342 292 330 292H323C320 282 316 273 311 263L316 258C325 250 325 236 316 227L297 208H584C588 208 592 212 592 216V275C592 277 591 279 590 280L536 334C535 335 533 336 531 336H408C395 336 384 347 384 360S395 384 408 384H450C444 396 440 410 440 424C440 473 479 512 528 512S616 473 616 424C616 396 603 372 583 355L624 314C634 304 640 290 640 275V216C640 185 615 160 584 160ZM152 48H268C271 48 274 50 275 52L322 160H144V56C144 52 148 48 152 48ZM176 416C132 416 96 380 96 336S132 256 176 256S256 292 256 336S220 416 176 416ZM528 464C506 464 488 446 488 424C488 402 506 384 528 384S568 402 568 424C568 446 550 464 528 464Z"/></svg>