<svg xmlns="http://www.w3.org/2000/svg" viewBox="0 0 640 512"><!-- Font Awesome Pro 6.0.0-alpha1 by @fontawesome - https://fontawesome.com License - https://fontawesome.com/license (Commercial License) --><path d="M232 96H24C11 96 0 107 0 120S11 144 24 144H105C104 145 104 146 104 147V392C104 405 115 416 128 416S152 405 152 392V147C152 146 152 145 151 144H232C245 144 256 133 256 120S245 96 232 96ZM624 97C614 94 603 97 597 106L464 284L331 106C325 97 314 94 304 97C295 100 288 110 288 120V392C288 405 299 416 312 416S336 405 336 392V192L445 338C454 350 474 350 483 338L592 192V392C592 405 603 416 616 416S640 405 640 392V120C640 110 633 100 624 97Z"/></svg>