<svg xmlns="http://www.w3.org/2000/svg" viewBox="0 0 512 512"><!-- Font Awesome Pro 6.0.0-alpha1 by @fontawesome - https://fontawesome.com License - https://fontawesome.com/license (Commercial License) --><path d="M488 464L475 464L294 12C292 5 285 0 277 0L234 0C227 0 220 5 217 12L37 464L24 464C11 464 0 475 0 488V488C0 501 11 512 24 512L488 512C501 512 512 501 512 488V488C512 475 501 464 488 464ZM366 320L146 320L191 208L321 208L366 320ZM256 48L302 160L210 160L256 48ZM127 368L385 368L423 464L89 464L127 368Z"/></svg>