<svg xmlns="http://www.w3.org/2000/svg" viewBox="0 0 384 512"><!-- Font Awesome Pro 6.0.0-alpha1 by @fontawesome - https://fontawesome.com License - https://fontawesome.com/license (Commercial License) --><path d="M192 304C218 304 240 282 240 256C240 230 218 208 192 208C166 208 144 230 144 256S166 304 192 304ZM192 176C218 176 240 154 240 128C240 102 218 80 192 80C165 80 144 102 144 128C144 154 166 176 192 176ZM192 336C166 336 144 358 144 384C144 410 166 432 192 432C218 432 240 410 240 384S218 336 192 336ZM336 320L336 275C365 258 384 227 384 192L336 192L336 147C365 130 384 99 384 64L336 64V64C336 29 307 0 272 0L112 0C77 0 48 29 48 64V64L0 64C0 100 19 130 48 147L48 192L0 192C0 227 19 258 48 275L48 320L0 320C0 358 22 390 54 406C70 467 126 512 192 512S314 467 330 406C362 390 384 358 384 320L336 320ZM173 462C127 453 96 411 96 364L96 64C96 55 103 48 112 48L272 48C281 48 288 55 288 64L288 368C288 427 234 474 173 462Z"/></svg>