<svg xmlns="http://www.w3.org/2000/svg" viewBox="0 0 448 512"><!-- Font Awesome Pro 6.0.0-alpha1 by @fontawesome - https://fontawesome.com License - https://fontawesome.com/license (Commercial License) --><path d="M352 0H96C43 0 0 43 0 96V352C0 395 28 431 67 443L39 471C30 480 30 496 39 505C44 510 50 512 56 512S68 510 73 505L130 448H318L375 505C380 510 386 512 392 512S404 510 409 505C418 496 418 480 409 471L381 443C420 431 448 395 448 352V96C448 43 405 0 352 0ZM400 352C400 378 378 400 352 400H96C70 400 48 378 48 352V224H400V352ZM400 176H48V96C48 70 70 48 96 48H352C378 48 400 70 400 96V176ZM224 360C246 360 264 342 264 320S246 280 224 280S184 298 184 320S202 360 224 360Z"/></svg>