<svg xmlns="http://www.w3.org/2000/svg" viewBox="0 0 640 512"><!-- Font Awesome Pro 6.0.0-alpha1 by @fontawesome - https://fontawesome.com License - https://fontawesome.com/license (Commercial License) --><path d="M616 336H576V96C576 61 547 32 512 32H64C29 32 0 61 0 96V320C0 355 29 384 64 384H96C96 437 139 480 192 480S288 437 288 384H616C629 384 640 373 640 360C640 347 629 336 616 336ZM192 432C166 432 144 410 144 384S166 336 192 336S240 358 240 384S218 432 192 432ZM528 336H275C258 307 227 288 192 288S126 307 109 336H64C55 336 48 329 48 320V96C48 87 55 80 64 80H512C521 80 528 87 528 96V336ZM336 112C323 112 312 123 312 136V280C312 293 323 304 336 304S360 293 360 280V136C360 123 349 112 336 112ZM240 112C227 112 216 123 216 136V232C216 245 227 256 240 256S264 245 264 232V136C264 123 253 112 240 112ZM144 112C131 112 120 123 120 136V232C120 245 131 256 144 256S168 245 168 232V136C168 123 157 112 144 112ZM432 112C419 112 408 123 408 136V280C408 293 419 304 432 304S456 293 456 280V136C456 123 445 112 432 112Z"/></svg>