<svg xmlns="http://www.w3.org/2000/svg" viewBox="0 0 448 512"><!-- Font Awesome Pro 6.0.0-alpha1 by @fontawesome - https://fontawesome.com License - https://fontawesome.com/license (Commercial License) --><path d="M201 355C205 358 211 360 216 360C223 360 230 357 235 351C243 341 241 326 231 317L204 296H240C262 296 280 314 280 336V360C280 373 291 384 304 384S328 373 328 360V336C328 287 289 248 240 248H204L231 227C241 218 243 203 235 193C226 183 211 181 201 189L121 253C115 258 112 265 112 272S115 286 121 291L201 355ZM424 80H350L316 23C307 9 291 0 274 0H174C157 0 141 9 132 23L98 80H24C11 80 0 91 0 104C0 117 11 128 24 128H32L53 467C55 492 76 512 101 512H347C372 512 393 492 395 467L416 128H424C437 128 448 117 448 104C448 91 437 80 424 80ZM174 48H274L294 80H154L174 48ZM347 464H101L80 128H368L347 464Z"/></svg>