<svg xmlns="http://www.w3.org/2000/svg" viewBox="0 0 448 512"><!-- Font Awesome Pro 6.0.0-alpha1 by @fontawesome - https://fontawesome.com License - https://fontawesome.com/license (Commercial License) --><path d="M432 80H350L316 23C307 9 291 0 275 0H173C157 0 141 9 132 23L98 80H16C7 80 0 87 0 96V112C0 121 7 128 16 128H32V448C32 483 61 512 96 512H352C387 512 416 483 416 448V128H432C441 128 448 121 448 112V96C448 87 441 80 432 80ZM172 51C173 49 175 48 177 48H271C273 48 275 49 276 51L294 80H154L172 51ZM352 464H96C87 464 80 457 80 448V128H368V448C368 457 361 464 352 464ZM224 416C233 416 240 409 240 400V192C240 183 233 176 224 176S208 183 208 192V400C208 409 215 416 224 416ZM144 416C153 416 160 409 160 400V192C160 183 153 176 144 176S128 183 128 192V400C128 409 135 416 144 416ZM304 416C313 416 320 409 320 400V192C320 183 313 176 304 176S288 183 288 192V400C288 409 295 416 304 416Z"/></svg>