<svg xmlns="http://www.w3.org/2000/svg" viewBox="0 0 640 512"><!-- Font Awesome Pro 6.0.0-alpha1 by @fontawesome - https://fontawesome.com License - https://fontawesome.com/license (Commercial License) --><path d="M631 469L512 376V128H528C537 128 544 121 544 112V96C544 87 537 80 528 80H446L412 23C403 9 387 0 371 0H269C253 0 237 9 228 23L194 80H134L39 5C34 2 29 0 24 0C17 0 10 3 5 9C-3 20 -1 35 9 43L601 507C612 515 627 513 635 503C643 492 641 477 631 469ZM268 51C269 49 271 48 273 48H367C369 48 371 49 372 51L390 80H250L268 51ZM464 338L416 301V192C416 183 409 176 400 176S384 183 384 192V276L336 238V192C336 183 329 176 320 176S304 183 304 192V213L196 128H464V338ZM256 400V297L224 272V400C224 409 231 416 240 416S256 409 256 400ZM448 464H192C183 464 176 457 176 448V235L128 197V448C128 483 157 512 192 512H448C469 512 487 502 498 487L460 458C458 461 453 464 448 464ZM336 400V360L304 335V400C304 409 311 416 320 416S336 409 336 400Z"/></svg>