<svg xmlns="http://www.w3.org/2000/svg" viewBox="0 0 576 512"><!-- Font Awesome Pro 6.0.0-alpha1 by @fontawesome - https://fontawesome.com License - https://fontawesome.com/license (Commercial License) --><path d="M448 32H128C57 32 0 89 0 160V416C0 451 29 480 64 480H512C547 480 576 451 576 416V160C576 89 519 32 448 32ZM96 432H64C55 432 48 425 48 416V288H96V432ZM96 240H48V160C48 127 68 99 96 87V240ZM432 432H144V288H224V320C224 338 238 352 256 352H320C338 352 352 338 352 320V288H432V432ZM272 288V256C272 247 279 240 288 240S304 247 304 256V288C304 297 297 304 288 304S272 297 272 288ZM432 240H352V224C352 206 338 192 320 192H256C238 192 224 206 224 224V240H144V80H432V240ZM512 432H480V288H528V416C528 425 521 432 512 432ZM528 240H480V87C508 99 528 127 528 160V240Z"/></svg>