<svg xmlns="http://www.w3.org/2000/svg" viewBox="0 0 640 512"><!-- Font Awesome Pro 6.0.0-alpha1 by @fontawesome - https://fontawesome.com License - https://fontawesome.com/license (Commercial License) --><path d="M627 358L591 317C598 312 603 305 607 297C615 279 612 259 599 244L568 207C573 203 577 198 579 192C586 176 583 159 571 146L451 15C442 5 429 0 416 0H416C403 0 390 6 381 15L342 58L374 93L416 48L530 171H475L560 279H494L590 389C593 392 592 395 591 397C590 399 589 400 586 400H447C449 385 445 370 435 358L399 317C406 312 411 305 415 297C423 279 420 259 407 244L376 207C381 203 385 198 387 192C394 177 391 159 379 146L259 15C250 5 237 0 224 0H224C211 0 198 6 189 15L69 146C57 159 54 176 61 192C63 198 67 203 72 207L41 244C28 259 25 279 33 297C37 305 42 312 49 317L13 358C-1 374 -4 397 5 417C14 436 32 448 54 448H200L200 488C200 501 211 512 224 512C224 512 224 512 224 512C238 512 248 501 248 488L248 448H392L392 488C392 501 403 512 416 512C416 512 416 512 416 512C430 512 440 501 440 488L440 448H586C607 448 626 436 635 417C644 397 641 374 627 358ZM248 400L248 378L289 337C298 328 298 312 289 303C280 294 264 294 255 303L248 310L248 184C248 171 237 160 224 160C224 160 224 160 224 160C211 160 200 171 200 184L200 230L193 223C184 214 168 214 159 223S150 248 159 257L200 298L200 367C200 368 200 368 200 369L200 400H54C51 400 50 399 49 397C48 395 47 392 50 389L146 279H80L165 171H110L224 48L338 171H283L368 279H302L398 389C401 392 400 395 399 397C398 399 397 400 394 400H248Z"/></svg>