<svg xmlns="http://www.w3.org/2000/svg" viewBox="0 0 512 512"><!-- Font Awesome Pro 6.0.0-alpha1 by @fontawesome - https://fontawesome.com License - https://fontawesome.com/license (Commercial License) --><path d="M232 256C219 256 208 267 208 280S219 304 232 304S256 293 256 280S245 256 232 256ZM502 435L436 348C446 343 455 335 460 323C468 306 464 286 451 272L322 128L310 134L293 168L416 304H342L464 464H48L170 304H96L219 168L202 134L190 128L60 272C48 286 44 306 52 323C57 335 66 343 76 348L10 435C-1 449 -3 469 5 485S30 512 48 512H464C482 512 499 502 507 485C515 469 513 449 502 435ZM336 376C336 363 325 352 312 352S288 363 288 376S299 400 312 400S336 389 336 376ZM181 88L225 110L248 155C250 158 253 160 256 160S262 158 264 155L286 110L331 88C338 85 338 75 331 72L286 50L264 5C261 -2 251 -2 248 5L226 50L181 72C174 75 174 85 181 88Z"/></svg>