<svg xmlns="http://www.w3.org/2000/svg" viewBox="0 0 512 512"><!-- Font Awesome Pro 6.0.0-alpha1 by @fontawesome - https://fontawesome.com License - https://fontawesome.com/license (Commercial License) --><path d="M256 264C231 263 209 279 201 303C194 327 202 353 222 367C243 381 270 381 290 366C309 351 317 325 309 301L502 108C511 99 511 84 502 74V74C492 65 477 65 468 74L275 267C269 265 262 264 256 264ZM498 368L417 238L382 273L457 393C466 408 466 425 458 439C449 455 433 464 416 464H96C79 464 63 455 54 440C46 425 46 408 55 393L215 134C224 120 239 112 256 112C273 112 288 120 297 134L322 175L357 140L338 109C325 88 304 73 280 67V24C280 11 269 0 256 0H256C243 0 232 11 232 24V67C208 73 187 88 174 109L14 368C-4 397 -5 434 12 463C29 493 61 512 96 512H416C451 512 483 493 500 463C517 433 516 398 498 368Z"/></svg>