<svg xmlns="http://www.w3.org/2000/svg" viewBox="0 0 512 512"><!-- Font Awesome Pro 6.0.0-alpha1 by @fontawesome - https://fontawesome.com License - https://fontawesome.com/license (Commercial License) --><path d="M506 417L293 53C285 39 270 32 256 32C242 32 227 39 219 53L6 417C-11 445 10 480 43 480H469C502 480 523 445 506 417ZM53 432L256 85L459 432H53ZM256 337C239 337 225 351 225 369C225 386 239 400 256 400S287 386 287 369C287 351 273 337 256 337ZM232 184V280C232 293 243 304 256 304S280 293 280 280V184C280 171 269 160 256 160S232 171 232 184Z"/></svg>