<svg xmlns="http://www.w3.org/2000/svg" viewBox="0 0 640 512"><!-- Font Awesome Pro 6.0.0-alpha1 by @fontawesome - https://fontawesome.com License - https://fontawesome.com/license (Commercial License) --><path d="M616 368H608V252C608 233 600 215 587 201L503 117C489 104 471 96 452 96H416V56C416 25 391 0 360 0H56C25 0 0 25 0 56V360C0 391 25 416 56 416H64C64 469 107 512 160 512S256 469 256 416H384C384 469 427 512 480 512S576 469 576 416H616C629 416 640 405 640 392V392C640 379 629 368 616 368ZM160 464C134 464 112 442 112 416S134 368 160 368S208 390 208 416S186 464 160 464ZM368 368H243C226 339 195 320 160 320S94 339 77 368H56C52 368 48 364 48 360V56C48 52 52 48 56 48H360C364 48 368 52 368 56V368ZM416 144H452C458 144 465 147 469 151L542 224H416V144ZM480 464C454 464 432 442 432 416S454 368 480 368S528 390 528 416S506 464 480 464ZM560 363C543 337 513 320 480 320C455 320 433 330 416 345V272H560V363Z"/></svg>