<svg xmlns="http://www.w3.org/2000/svg" viewBox="0 0 640 512"><!-- Font Awesome Pro 6.0.0-alpha1 by @fontawesome - https://fontawesome.com License - https://fontawesome.com/license (Commercial License) --><path d="M616 368H608V252C608 233 600 214 587 201L503 117C489 104 471 96 452 96H416V56C416 25 391 0 360 0H120C89 0 64 25 64 56V96H16C7 96 0 103 0 112V112C0 121 7 128 16 128H240C249 128 256 121 256 112V112C256 103 249 96 240 96H112V56C112 52 116 48 120 48H360C364 48 368 52 368 56V368H243C226 339 195 320 160 320C142 320 126 325 112 333V288H64L64 413C64 466 105 511 158 512C212 513 256 470 256 416H384C384 469 427 512 480 512S576 469 576 416H616C629 416 640 405 640 392V392C640 379 629 368 616 368ZM160 464C134 464 112 442 112 416S134 368 160 368S208 390 208 416S186 464 160 464ZM416 144H452C458 144 465 147 469 151L542 224H416V144ZM480 464C454 464 432 442 432 416S454 368 480 368S528 390 528 416S506 464 480 464ZM560 363C543 337 513 320 480 320C455 320 433 330 416 345V272H560V363ZM256 240L256 240C256 231 249 224 240 224H16C7 224 0 231 0 240V240C0 249 7 256 16 256H240C249 256 256 249 256 240ZM272 192C281 192 288 185 288 176V176C288 167 281 160 272 160H48C39 160 32 167 32 176V176C32 185 39 192 48 192H272Z"/></svg>