<svg xmlns="http://www.w3.org/2000/svg" viewBox="0 0 640 512"><!-- Font Awesome Pro 6.0.0-alpha1 by @fontawesome - https://fontawesome.com License - https://fontawesome.com/license (Commercial License) --><path d="M8 338L24 400L102 379L287 330L302 326L320 321V199C312 195 302 193 293 196C271 201 259 223 264 245L270 268L127 306L116 309L85 318L79 294C73 273 51 260 30 266C8 272 -4 294 1 315L8 338ZM14 238C16 237 19 236 21 235C28 234 34 233 40 233C70 233 96 251 107 278L232 245C229 229 232 212 240 198C250 182 266 170 284 165C287 164 289 164 292 164L292 163C283 128 248 108 213 117L59 159C25 168 5 203 14 237L14 238ZM528 288C483 288 445 314 427 352H400V64C400 55 407 48 416 48H616C629 48 640 37 640 24C640 11 629 0 616 0H416C381 0 352 29 352 64V362L17 465C4 469 -3 482 1 495C4 505 14 512 24 512C26 512 29 512 31 511L388 400H416C416 462 466 512 528 512S640 462 640 400S590 288 528 288ZM528 464C493 464 464 435 464 400C464 365 493 336 528 336S592 365 592 400C592 435 563 464 528 464Z"/></svg>