<svg xmlns="http://www.w3.org/2000/svg" viewBox="0 0 512 512"><!-- Font Awesome Pro 6.0.0-alpha1 by @fontawesome - https://fontawesome.com License - https://fontawesome.com/license (Commercial License) --><path d="M112 320C94 320 80 334 80 352C80 370 94 384 112 384S144 370 144 352C144 334 130 320 112 320ZM400 320C382 320 368 334 368 352C368 370 382 384 400 384S432 370 432 352C432 334 418 320 400 320ZM424 0H88C39 0 0 39 0 88V400C0 424 13 444 32 455V512C32 530 46 544 64 544S96 530 96 512V464H416V512C416 530 430 544 448 544S480 530 480 512V455C499 444 512 424 512 400V88C512 39 473 0 424 0ZM464 352V400C464 409 457 416 448 416H64C55 416 48 409 48 400V352V336C48 310 70 288 96 288H416C442 288 464 310 464 336V352ZM106 240L134 169C140 154 155 144 171 144H341C357 144 372 154 378 169L406 240H106ZM464 253C464 253 463 253 463 253L422 151C409 118 377 96 341 96H171C135 96 103 118 90 151L49 253C49 253 48 253 48 253V88C48 66 66 48 88 48H424C446 48 464 66 464 88V253Z"/></svg>