<svg xmlns="http://www.w3.org/2000/svg" viewBox="0 0 640 512"><!-- Font Awesome Pro 6.0.0-alpha1 by @fontawesome - https://fontawesome.com License - https://fontawesome.com/license (Commercial License) --><path d="M578 386C571 378 566 368 566 358V219C566 208 571 198 578 190L633 137C642 128 642 112 633 103L633 103C624 94 608 94 599 103L544 156C528 173 518 195 518 218V320H480V232C480 201 455 176 424 176H386L317 59C307 43 289 32 269 32H184C153 32 128 57 128 88V176H56C25 176 0 201 0 232V344C0 357 11 368 24 368H34C33 373 32 379 32 384C32 437 75 480 128 480S224 437 224 384C224 379 223 373 222 368H274C273 373 272 379 272 384C272 437 315 480 368 480S464 437 464 384C464 379 463 373 462 368H519C522 388 530 406 544 420L599 473C609 482 624 482 633 473C642 464 642 448 633 439L578 386ZM176 88C176 84 180 80 184 80H269C272 80 274 81 276 84L331 176H176V88ZM128 432C102 432 80 410 80 384S102 336 128 336S176 358 176 384S154 432 128 432ZM199 320C182 300 156 288 128 288S74 300 57 320H48V232C48 228 52 224 56 224H424C428 224 432 228 432 232V313C415 298 393 288 368 288C340 288 314 300 297 320H199ZM368 432C342 432 320 410 320 384S342 336 368 336S416 358 416 384S394 432 368 432Z"/></svg>