<svg xmlns="http://www.w3.org/2000/svg" viewBox="0 0 640 512"><!-- Font Awesome Pro 6.0.0-alpha1 by @fontawesome - https://fontawesome.com License - https://fontawesome.com/license (Commercial License) --><path d="M608 48C597 48 587 53 581 62C581 63 536 129 469 164C454 172 437 176 418 176H400V168C400 155 389 144 376 144S352 155 352 168V176H312V168C312 155 301 144 288 144S264 155 264 168V176H224V168C224 155 213 144 200 144S176 155 176 168V176H48V168C48 155 37 144 24 144S0 155 0 168V312C0 325 11 336 24 336S48 325 48 312V304H81C60 336 59 377 77 410C95 443 130 464 168 464H408C439 465 468 451 488 428C508 404 516 373 510 343C554 378 581 417 581 418C587 427 597 432 608 432C618 432 640 424 640 400V80C640 70 632 48 608 48ZM176 416H168C137 416 112 391 112 360S137 304 168 304H176V416ZM264 416H224V304H264V416ZM352 416H312V304H352V416ZM408 416H400V304H408C439 304 464 329 464 360S439 416 408 416ZM592 354C569 329 534 296 491 273C470 262 445 256 418 256H48V224H418C445 224 470 218 491 207C535 184 569 151 592 126V354Z"/></svg>