<svg xmlns="http://www.w3.org/2000/svg" viewBox="0 0 640 512"><!-- Font Awesome Pro 6.0.0-alpha1 by @fontawesome - https://fontawesome.com License - https://fontawesome.com/license (Commercial License) --><path d="M637 123C633 109 623 98 611 92L436 3C425 -3 412 0 405 10C394 26 363 43 320 43C277 43 246 26 235 10C228 0 215 -3 204 3L29 92C17 98 7 109 3 123C-2 136 -1 150 6 163L44 240C57 266 89 277 114 265L160 244L160 459C160 488 184 512 213 512H427C456 512 480 488 480 459L480 244L525 264C551 277 583 266 596 240L634 163C641 150 642 136 637 123ZM591 142L553 219C552 221 549 222 545 221L466 186C458 182 450 183 443 188C436 192 432 200 432 208L432 459C432 462 430 464 427 464H213C210 464 208 462 208 459L208 208C208 200 204 192 197 188C193 185 189 184 184 184C181 184 178 184 174 186L94 221C91 222 88 221 87 219L49 142C48 140 48 139 48 138C49 137 49 136 51 135L210 54C236 77 276 90 320 90C364 90 404 77 430 54L589 135C591 136 591 137 592 138C592 139 592 140 591 142Z"/></svg>