<svg xmlns="http://www.w3.org/2000/svg" viewBox="0 0 640 512"><!-- Font Awesome Pro 6.0.0-alpha1 by @fontawesome - https://fontawesome.com License - https://fontawesome.com/license (Commercial License) --><path d="M497 242C493 250 488 258 485 265C512 305 528 349 528 384C528 435 489 464 288 464C288 464 288 464 288 464S288 464 288 464C87 464 48 435 48 384C48 294 151 153 276 145C292 140 305 139 318 137C335 135 354 133 385 121C386 121 387 120 388 119C357 105 323 96 288 96C288 96 288 96 288 96S288 96 288 96C129 96 0 269 0 384S129 512 288 512C288 512 288 512 288 512S288 512 288 512C447 512 576 499 576 384C576 335 552 275 512 222C507 228 502 235 497 242ZM567 79C589 43 562 -1 520 0C485 1 460 34 470 67C474 81 471 94 462 107C450 123 427 139 396 151C330 177 313 162 269 182C190 217 185 313 235 364C296 427 412 404 434 305C437 293 449 258 471 225C481 208 493 195 504 185C518 174 537 164 559 173C592 187 636 178 640 132C643 93 603 65 567 79Z"/></svg>