<svg xmlns="http://www.w3.org/2000/svg" viewBox="0 0 640 512"><!-- Font Awesome Pro 6.0.0-alpha1 by @fontawesome - https://fontawesome.com License - https://fontawesome.com/license (Commercial License) --><path d="M520 464H120C107 464 96 475 96 488C96 501 107 512 120 512H520C533 512 544 501 544 488C544 475 533 464 520 464ZM576 0H64C29 0 0 29 0 64V352C0 387 29 416 64 416H576C611 416 640 387 640 352V64C640 29 611 0 576 0ZM592 352C592 361 585 368 576 368H64C55 368 48 361 48 352V64C48 55 55 48 64 48H576C585 48 592 55 592 64V352Z"/></svg>