<svg xmlns="http://www.w3.org/2000/svg" viewBox="0 0 512 512"><!-- Font Awesome Pro 6.0.0-alpha1 by @fontawesome - https://fontawesome.com License - https://fontawesome.com/license (Commercial License) --><path d="M356 356H372C379 356 384 351 384 344V328C384 321 379 316 372 316H356C349 316 344 321 344 328V344C344 351 349 356 356 356ZM212 356H228C235 356 240 351 240 344V328C240 321 235 316 228 316H212C205 316 200 321 200 328V344C200 351 205 356 212 356ZM284 356H300C307 356 312 351 312 344V328C312 321 307 316 300 316H284C277 316 272 321 272 328V344C272 351 277 356 284 356ZM140 356H156C163 356 168 351 168 344V328C168 321 163 316 156 316H140C133 316 128 321 128 328V344C128 351 133 356 140 356ZM144 432H368C377 432 384 425 384 416V400C384 391 377 384 368 384H144C135 384 128 391 128 400V416C128 425 135 432 144 432ZM480 192H365C357 192 349 195 343 201L329 215C323 221 315 224 307 224H205C197 224 189 221 183 215L169 201C163 195 155 192 147 192H32C14 192 0 206 0 224V256C0 274 14 288 32 288V448C32 483 61 512 96 512H416C451 512 480 483 480 448V288C498 288 512 274 512 256V224C512 206 498 192 480 192ZM432 448C432 457 425 464 416 464H96C87 464 80 457 80 448V288H432V448ZM128 48H350L384 82V160H432V82C432 69 427 57 418 48L384 14C375 5 363 0 350 0H128C102 0 80 21 80 48L80 130C80 130 80 160 80 160H128L128 48Z"/></svg>