<svg xmlns="http://www.w3.org/2000/svg" viewBox="0 0 576 512"><!-- Font Awesome Pro 6.0.0-alpha1 by @fontawesome - https://fontawesome.com License - https://fontawesome.com/license (Commercial License) --><path d="M107 331C96 325 81 329 75 341L3 477C-3 488 1 503 13 509C16 511 20 512 24 512C33 512 41 507 45 499L117 363C123 352 119 337 107 331ZM501 341C495 329 480 325 469 331C457 337 453 351 459 363L531 499C535 507 543 512 552 512C556 512 560 511 563 509C575 503 579 489 573 477L501 341ZM576 196C576 142 512 105 428 87C401 35 349 0 288 0S175 35 148 87C64 105 0 142 0 196C0 277 145 320 288 320S576 277 576 196ZM288 48C347 48 395 95 399 156C331 182 245 182 177 156C180 96 229 48 288 48ZM288 272C142 272 48 227 48 196C48 178 78 156 131 141C130 148 129 155 129 163C129 166 129 168 130 173C130 182 135 190 143 194C187 213 237 224 288 224S389 213 433 194C441 190 446 180 447 171C447 168 447 166 447 163C447 155 446 148 445 141C498 156 528 178 528 196C528 227 434 272 288 272Z"/></svg>