<svg xmlns="http://www.w3.org/2000/svg" viewBox="0 0 576 512"><!-- Font Awesome Pro 6.0.0-alpha1 by @fontawesome - https://fontawesome.com License - https://fontawesome.com/license (Commercial License) --><path d="M288 301C282 301 276 303 264 319V440C264 453 253 464 240 464C227 464 216 453 216 440C216 427 205 416 192 416S168 427 168 440C168 480 200 512 240 512S312 480 312 440V318C304 307 295 301 288 301ZM575 260C552 160 475 84 368 57C351 52 333 50 312 49V24C312 11 301 0 288 0S264 11 264 24V49C243 50 225 52 208 57C102 84 24 160 1 260C-3 275 4 290 17 298C30 305 46 304 58 293C76 275 94 267 109 269C127 271 147 288 166 319C173 330 184 336 196 336C208 336 219 330 225 319C246 286 262 269 288 269C319 269 340 299 351 319C357 330 368 336 380 336H380C392 336 403 330 410 319C429 289 448 271 467 269C483 267 500 275 519 293C530 304 546 306 559 298C572 290 578 275 575 260ZM461 221C432 225 405 243 381 276C356 240 324 221 288 221C241 221 213 251 196 276C171 243 144 225 115 221C111 221 108 220 104 220C90 220 75 224 61 231C89 169 146 122 219 103C239 98 260 96 288 96C316 96 337 98 356 103C430 122 487 169 515 231C497 222 480 219 461 221Z"/></svg>