<svg xmlns="http://www.w3.org/2000/svg" viewBox="0 0 512 512"><!-- Font Awesome Pro 6.0.0-alpha1 by @fontawesome - https://fontawesome.com License - https://fontawesome.com/license (Commercial License) --><path d="M232 440C232 453 221 464 208 464S184 453 184 440C184 427 173 416 160 416S136 427 136 440C136 480 168 512 208 512S280 480 280 440V320H232V440ZM280 33V24C280 11 269 0 256 0H256C243 0 232 11 232 24V33C113 44 17 135 0 252C-2 271 13 288 33 288H479C499 288 514 271 512 252C495 135 399 44 280 33ZM51 240C73 148 158 80 256 80S439 148 461 240H51Z"/></svg>