<svg xmlns="http://www.w3.org/2000/svg" viewBox="0 0 640 512"><!-- Font Awesome Pro 6.0.0-alpha1 by @fontawesome - https://fontawesome.com License - https://fontawesome.com/license (Commercial License) --><path d="M632 64H527L511 45C528 40 540 27 544 10C545 5 541 0 536 0L400 0C332 0 274 48 260 112H176C138 112 104 131 84 160C37 162 0 201 0 248V296C0 309 11 320 24 320H24C37 320 48 309 48 296V248C48 235 55 224 65 216C65 219 64 221 64 224C64 254 76 282 96 303L83 346C79 360 79 374 82 387L106 487C110 502 123 512 137 512H212C233 512 248 492 243 472L218 371L226 348L256 356V480C256 498 270 512 288 512H368C386 512 400 498 400 480V324C421 301 432 272 432 240V234C453 241 470 235 473 234L504 224C528 215 544 193 544 168V115L636 79C643 74 640 64 632 64ZM489 178L458 189C456 189 448 192 441 185L416 160H384V240C384 266 371 289 352 304V464H304V320L196 289L167 369L191 464H150L129 376C128 371 128 365 129 360L152 283C129 274 112 251 112 224C112 189 141 160 176 160H304V144C304 91 347 48 400 48H451L496 102V168C496 172 493 177 489 178ZM432 80C423 80 416 87 416 96S423 112 432 112C441 112 448 105 448 96S441 80 432 80Z"/></svg>