<svg xmlns="http://www.w3.org/2000/svg" viewBox="0 0 512 512"><!-- Font Awesome Pro 6.0.0-alpha1 by @fontawesome - https://fontawesome.com License - https://fontawesome.com/license (Commercial License) --><path d="M391 193C387 181 374 173 361 177L302 194C272 202 240 202 210 194L151 177C138 173 125 181 121 193S125 219 137 223L197 240C200 241 204 242 208 242V289L177 376C173 389 180 402 192 407C195 408 197 408 200 408C210 408 219 402 223 392L249 321C251 314 261 314 264 321L289 392C293 402 302 408 312 408C315 408 317 408 320 407C333 402 339 389 335 376L304 289V242C308 242 312 241 315 240L375 223C387 219 395 206 391 193ZM256 176C278 176 296 158 296 136S278 96 256 96S216 114 216 136S234 176 256 176ZM256 16C123 16 16 123 16 256C16 389 123 496 256 496S496 389 496 256C496 123 389 16 256 16ZM256 448C150 448 64 362 64 256S150 64 256 64S448 150 448 256S362 448 256 448Z"/></svg>