<svg xmlns="http://www.w3.org/2000/svg" viewBox="0 0 448 512"><!-- Font Awesome Pro 6.0.0-alpha1 by @fontawesome - https://fontawesome.com License - https://fontawesome.com/license (Commercial License) --><path d="M384 192H144V128C144 84 180 48 224 48C259 48 289 70 300 103C304 116 318 123 330 119C343 115 350 101 346 89C329 36 280 0 224 0C153 0 96 57 96 128V192H64C29 192 0 221 0 256V448C0 483 29 512 64 512H384C419 512 448 483 448 448V256C448 221 419 192 384 192ZM400 448C400 457 393 464 384 464H64C55 464 48 457 48 448V256C48 247 55 240 64 240H384C393 240 400 247 400 256V448Z"/></svg>