<svg xmlns="http://www.w3.org/2000/svg" viewBox="0 0 256 512"><!-- Font Awesome Pro 6.0.0-alpha1 by @fontawesome - https://fontawesome.com License - https://fontawesome.com/license (Commercial License) --><path d="M254 366C250 358 242 352 232 352H152V160H232C242 160 250 154 254 146C258 137 256 127 250 120L146 8C141 3 135 0 128 0S115 3 110 8L6 120C0 127 -2 137 2 146C6 154 14 160 24 160H104V352H24C14 352 6 358 2 366S0 385 6 392L110 504C115 509 121 512 128 512S141 509 146 504L250 392C256 385 258 375 254 366Z"/></svg>