<svg xmlns="http://www.w3.org/2000/svg" viewBox="0 0 512 512"><!-- Font Awesome Pro 6.0.0-alpha1 by @fontawesome - https://fontawesome.com License - https://fontawesome.com/license (Commercial License) --><path d="M512 248C512 255 509 262 504 266L424 338C420 342 414 344 408 344C405 344 401 344 398 342C390 338 384 330 384 320V272H280V376H328C337 376 346 382 350 391S352 409 346 417L274 497C269 502 263 504 256 504S243 502 238 497L166 417C160 409 158 399 162 391S175 376 184 376H232V272H128V320C128 330 122 338 114 342C111 344 107 344 104 344C98 344 92 342 88 338L8 266C3 262 0 255 0 248S3 235 8 231L88 159C95 152 105 151 114 155C122 158 128 167 128 176V224H232V120H184C175 120 166 115 162 106S160 87 166 80L238 0C247 -10 265 -10 274 0L346 80C352 87 354 98 350 106S337 120 328 120H280V224H384V176C384 167 390 158 398 155C407 151 417 152 424 159L504 231C509 235 512 242 512 248Z"/></svg>