<svg xmlns="http://www.w3.org/2000/svg" viewBox="0 0 512 512"><!-- Font Awesome Pro 6.0.0-alpha1 by @fontawesome - https://fontawesome.com License - https://fontawesome.com/license (Commercial License) --><path d="M183 295L102 376L55 329C49 323 40 320 32 320C28 320 24 321 20 322C8 327 0 339 0 352V488C0 501 11 512 24 512H160C173 512 185 504 190 492C195 480 192 467 183 457L136 410L217 329C226 320 226 304 217 295S192 286 183 295ZM488 0H352C339 0 327 8 322 20C317 32 320 45 329 55L376 102L295 183C286 192 286 208 295 217S320 226 329 217L410 136L457 183C463 189 472 192 480 192C484 192 488 191 492 190C504 185 512 173 512 160V24C512 11 501 0 488 0Z"/></svg>