<svg xmlns="http://www.w3.org/2000/svg" viewBox="0 0 512 512"><!-- Font Awesome Pro 6.0.0-alpha1 by @fontawesome - https://fontawesome.com License - https://fontawesome.com/license (Commercial License) --><path d="M488 0H353C339 0 328 8 322 20C317 32 320 46 330 56L370 96L177 289C165 302 165 322 177 335C184 341 192 344 200 344S216 341 223 335L416 142L456 182C462 189 471 192 479 192C484 192 488 191 492 190C504 184 512 173 512 159V24C512 11 501 0 488 0ZM392 320C379 320 368 331 368 344V456C368 460 364 464 360 464H56C52 464 48 460 48 456V152C48 148 52 144 56 144H168C181 144 192 133 192 120S181 96 168 96H56C25 96 0 121 0 152V456C0 487 25 512 56 512H360C391 512 416 487 416 456V344C416 331 405 320 392 320Z"/></svg>