<svg xmlns="http://www.w3.org/2000/svg" viewBox="0 0 512 512"><!-- Font Awesome Pro 6.0.0-alpha1 by @fontawesome - https://fontawesome.com License - https://fontawesome.com/license (Commercial License) --><path d="M448 304H320V352H448C457 352 464 359 464 368V448C464 457 457 464 448 464H64C55 464 48 457 48 448V368C48 359 55 352 64 352H192V304H64C29 304 0 333 0 368V448C0 483 29 512 64 512H448C483 512 512 483 512 448V368C512 333 483 304 448 304ZM137 177L232 82V352C232 365 243 376 256 376S280 365 280 352V82L375 177C380 182 386 184 392 184S404 182 409 177C418 168 418 152 409 143L273 7C264 -2 248 -2 239 7L103 143C94 152 94 168 103 177S128 186 137 177ZM432 408C432 395 421 384 408 384S384 395 384 408C384 421 395 432 408 432S432 421 432 408Z"/></svg>