<svg xmlns="http://www.w3.org/2000/svg" viewBox="0 0 448 512"><!-- Font Awesome Pro 6.0.0-alpha1 by @fontawesome - https://fontawesome.com License - https://fontawesome.com/license (Commercial License) --><path d="M224 272C295 272 352 215 352 144V0L288 32L224 0L160 32L96 0V144C96 215 153 272 224 272ZM144 128H304V144C304 188 268 224 224 224S144 188 144 144V128ZM272 304H176C79 304 0 383 0 480C0 498 14 512 32 512H416C434 512 448 498 448 480C448 383 369 304 272 304ZM49 464C57 401 111 352 176 352H272C337 352 391 401 399 464H49Z"/></svg>