<svg xmlns="http://www.w3.org/2000/svg" viewBox="0 0 640 512"><!-- Font Awesome Pro 6.0.0-alpha1 by @fontawesome - https://fontawesome.com License - https://fontawesome.com/license (Commercial License) --><path d="M224 256C295 256 352 199 352 128S295 0 224 0C153 0 96 57 96 128S153 256 224 256ZM224 48C268 48 304 84 304 128C304 172 268 208 224 208S144 172 144 128C144 84 180 48 224 48ZM275 304H173C78 304 0 382 0 477C0 496 16 512 35 512H413C432 512 448 496 448 477C448 382 370 304 275 304ZM49 464C55 401 109 352 173 352H275C339 352 393 401 399 464H49ZM480 320H406C451 358 480 414 480 477C480 490 476 502 470 512H608C626 512 640 498 640 480C640 392 568 320 480 320ZM432 256C494 256 544 206 544 144S494 32 432 32C407 32 384 41 365 54C377 77 384 101 384 128C384 164 372 196 352 223C373 243 401 256 432 256Z"/></svg>