<svg xmlns="http://www.w3.org/2000/svg" viewBox="0 0 640 512"><!-- Font Awesome Pro 6.0.0-alpha1 by @fontawesome - https://fontawesome.com License - https://fontawesome.com/license (Commercial License) --><path d="M496 224C416 224 352 288 352 368S416 512 496 512S640 448 640 368S576 224 496 224ZM544 384H490C484 384 480 380 480 374V304C480 295 487 288 496 288C505 288 512 295 512 304V352H544C553 352 560 359 560 368S553 384 544 384ZM224 256C295 256 352 199 352 128C352 57 295 0 224 0S96 57 96 128C96 199 153 256 224 256ZM224 48C268 48 304 84 304 128C304 172 268 208 224 208S144 172 144 128C144 84 180 48 224 48ZM395 512H32C14 512 0 498 0 480C0 383 79 304 176 304H272C292 304 311 307 329 314C324 329 321 345 320 362C305 356 289 352 272 352H176C111 352 57 401 49 464H349C361 483 377 499 395 512Z"/></svg>