<svg xmlns="http://www.w3.org/2000/svg" viewBox="0 0 640 512"><!-- Font Awesome Pro 6.0.0-alpha1 by @fontawesome - https://fontawesome.com License - https://fontawesome.com/license (Commercial License) --><path d="M275 304H173C78 304 0 382 0 477C0 496 16 512 35 512H413C432 512 448 496 448 477C448 382 370 304 275 304ZM49 464C55 401 109 352 173 352H275C339 352 393 401 399 464H49ZM224 256C295 256 352 199 352 128S295 0 224 0C153 0 96 57 96 128S153 256 224 256ZM224 48C268 48 304 84 304 128C304 172 268 208 224 208S144 172 144 128C144 84 180 48 224 48ZM632 134C623 125 607 126 598 136L511 229L473 191C464 182 448 182 439 191S430 216 439 225L495 281C500 285 506 288 512 288H512C519 288 525 285 530 280L634 168C643 159 642 143 632 134Z"/></svg>