<svg xmlns="http://www.w3.org/2000/svg" viewBox="0 0 448 512"><!-- Font Awesome Pro 6.0.0-alpha1 by @fontawesome - https://fontawesome.com License - https://fontawesome.com/license (Commercial License) --><path d="M280 200C298 200 312 186 312 168C312 150 298 136 280 136C262 136 248 150 248 168C248 186 262 200 280 200ZM128 320H320C355 320 384 291 384 256V128C384 93 355 64 320 64H248V24C248 11 237 0 224 0S200 11 200 24V64H128C93 64 64 93 64 128V256C64 291 93 320 128 320ZM112 128C112 119 119 112 128 112H320C329 112 336 119 336 128V256C336 265 329 272 320 272H304V240H272V272H240V240H208V272H176V240H144V272H128C119 272 112 265 112 256V128ZM168 200C186 200 200 186 200 168C200 150 186 136 168 136C150 136 136 150 136 168C136 186 150 200 168 200ZM416 128V256C434 256 448 242 448 224V160C448 142 434 128 416 128ZM32 256V128C14 128 0 142 0 160V224C0 242 14 256 32 256ZM352 352H96C43 352 0 395 0 448V480C0 498 14 512 32 512H416C434 512 448 498 448 480V448C448 395 405 352 352 352ZM400 464H320C320 446 306 432 288 432H160C142 432 128 446 128 464H48V448C48 422 70 400 96 400H352C378 400 400 422 400 448V464Z"/></svg>