<svg xmlns="http://www.w3.org/2000/svg" viewBox="0 0 448 512"><!-- Font Awesome Pro 6.0.0-alpha1 by @fontawesome - https://fontawesome.com License - https://fontawesome.com/license (Commercial License) --><path d="M79 102V146C119 165 169 176 224 176S329 165 369 146V102L391 80C396 75 399 69 399 63C399 51 391 41 380 39L232 1C227 0 221 0 216 1L68 39C57 41 49 51 49 63C49 69 52 75 57 80L79 102ZM162 73C166 65 175 62 183 66L224 86L265 66C273 62 282 65 286 73C290 81 287 90 279 94L231 118C229 119 226 120 224 120S219 119 217 118L169 94C161 90 158 81 162 73ZM320 353L253 464L240 408L272 352H176L208 408L195 464L128 353C57 355 0 413 0 485C0 500 12 512 27 512H421C436 512 448 500 448 485C448 413 391 355 320 353ZM51 464C58 437 78 415 104 406L139 464H51ZM309 464L344 406C370 415 390 437 397 464H309ZM224 272C183 272 149 240 145 200C128 197 112 193 96 188C96 189 96 190 96 192C96 263 153 320 224 320S352 263 352 192C352 190 352 189 352 188C336 193 320 197 303 200C299 240 265 272 224 272Z"/></svg>