<svg xmlns="http://www.w3.org/2000/svg" viewBox="0 0 448 512"><!-- Font Awesome Pro 6.0.0-alpha1 by @fontawesome - https://fontawesome.com License - https://fontawesome.com/license (Commercial License) --><path d="M88 176H360C364 176 368 172 368 168V136C368 132 364 128 360 128H352C352 82 323 42 283 26L256 80V16C256 7 249 0 240 0H208C199 0 192 7 192 16V80L165 26C125 42 96 82 96 128H88C84 128 80 132 80 136V168C80 172 84 176 88 176ZM224 272C186 272 153 245 146 208H98C106 271 159 320 224 320S342 271 350 208H302C295 245 262 272 224 272ZM315 352H133C60 352 0 412 0 485C0 500 12 512 27 512H421C436 512 448 500 448 485C448 412 388 352 315 352ZM51 464C60 427 94 400 133 400H315C354 400 388 427 397 464H51Z"/></svg>