<svg xmlns="http://www.w3.org/2000/svg" viewBox="0 0 448 512"><!-- Font Awesome Pro 6.0.0-alpha1 by @fontawesome - https://fontawesome.com License - https://fontawesome.com/license (Commercial License) --><path d="M250 232H270C298 232 320 210 320 184V178C320 172 316 168 310 168H290C262 168 240 190 240 216V222C240 228 244 232 250 232ZM198 232C204 232 208 228 208 222V216C208 190 186 168 158 168H138C132 168 128 172 128 178V184C128 210 150 232 178 232H198ZM330 354C313 371 296 387 279 400H315C354 400 388 427 397 464H51C60 427 94 400 133 400H169C152 387 135 371 118 354C51 361 0 417 0 485C0 500 12 512 27 512H421C436 512 448 500 448 485C448 417 397 361 330 354ZM209 392C214 395 219 397 224 397S234 395 239 392C285 356 392 264 392 179C392 73 323 0 224 0S56 73 56 179C56 264 163 356 209 392ZM224 48C297 48 344 99 344 179C344 219 297 282 224 342C151 282 104 219 104 179C104 99 151 48 224 48Z"/></svg>