<svg xmlns="http://www.w3.org/2000/svg" viewBox="0 0 640 512"><!-- Font Awesome Pro 6.0.0-alpha1 by @fontawesome - https://fontawesome.com License - https://fontawesome.com/license (Commercial License) --><path d="M622 271L507 226C503 224 494 222 485 226L370 271C359 275 352 285 352 296C352 408 421 485 485 510C494 514 503 512 507 510C558 490 640 421 640 296C640 285 633 275 622 271ZM496 462V273L591 311C586 398 531 446 496 462ZM224 256C295 256 352 199 352 128C352 57 295 0 224 0S96 57 96 128C96 199 153 256 224 256ZM224 48C268 48 304 84 304 128C304 172 268 208 224 208S144 172 144 128C144 84 180 48 224 48ZM423 511C421 511 418 512 416 512H32C14 512 0 498 0 480C0 383 79 304 176 304H272C289 304 305 307 321 311C322 330 324 349 329 366C311 357 292 352 272 352H176C111 352 57 401 49 464H376C390 482 406 498 423 511Z"/></svg>