<svg xmlns="http://www.w3.org/2000/svg" viewBox="0 0 448 512"><!-- Font Awesome Pro 6.0.0-alpha1 by @fontawesome - https://fontawesome.com License - https://fontawesome.com/license (Commercial License) --><path d="M97 183C97 186 96 189 96 192C96 263 153 320 224 320C295 320 352 263 352 192C352 189 351 187 351 184C420 154 445 106 446 103C450 96 448 87 441 83C434 78 425 79 420 86C418 87 397 106 344 119C333 69 312 0 278 0C268 0 259 5 251 10C236 22 214 22 199 10C191 5 182 0 172 0C138 0 117 69 106 119C51 106 30 88 30 88C26 80 16 77 8 82C1 86 -2 96 2 103C3 106 29 154 97 183ZM224 208C251 208 277 205 303 199C299 240 266 272 224 272S149 240 145 199C171 205 198 208 224 208ZM315 352H133C60 352 0 412 0 485C0 500 12 512 27 512H421C436 512 448 500 448 485C448 412 388 352 315 352ZM51 464C60 427 94 400 133 400H315C354 400 388 427 397 464H51Z"/></svg>