<svg xmlns="http://www.w3.org/2000/svg" viewBox="0 0 448 512"><!-- Font Awesome Pro 6.0.0-alpha1 by @fontawesome - https://fontawesome.com License - https://fontawesome.com/license (Commercial License) --><path d="M303 307L257 397L240 336L272 288H176L208 336L191 397L145 307C63 321 0 393 0 480C0 498 14 512 32 512H416C434 512 448 498 448 480C448 393 385 321 303 307ZM49 464C54 420 82 383 121 365L170 464H49ZM278 464L327 365C366 383 394 420 399 464H278ZM224 256C295 256 352 199 352 128C352 57 295 0 224 0S96 57 96 128C96 199 153 256 224 256ZM224 48C268 48 304 84 304 128C304 172 268 208 224 208S144 172 144 128C144 84 180 48 224 48Z"/></svg>