<svg xmlns="http://www.w3.org/2000/svg" viewBox="0 0 448 512"><!-- Font Awesome Pro 6.0.0-alpha1 by @fontawesome - https://fontawesome.com License - https://fontawesome.com/license (Commercial License) --><path d="M32 192C59 192 84 181 101 162C116 216 165 256 224 256C295 256 352 199 352 128S295 0 224 0C174 0 130 29 110 72C92 48 64 32 32 32C32 65 49 95 75 112C49 129 32 159 32 192ZM176 96H272C290 96 304 110 304 128H144C144 110 158 96 176 96ZM448 464C450 376 388 303 306 288L224 397L142 288C60 303 -2 376 0 464H0C0 490 22 512 48 512H400C426 512 448 490 448 464H448ZM48 464L48 462C47 410 77 363 124 343L186 426L214 464H48ZM400 464H234L262 426L324 343C371 363 401 410 400 462L400 464Z"/></svg>