<svg xmlns="http://www.w3.org/2000/svg" viewBox="0 0 448 512"><!-- Font Awesome Pro 6.0.0-alpha1 by @fontawesome - https://fontawesome.com License - https://fontawesome.com/license (Commercial License) --><path d="M327 313L224 416L121 313C51 335 0 400 0 477C0 496 16 512 35 512H413C432 512 448 496 448 477C448 400 397 335 327 313ZM49 464C53 424 76 390 110 370L190 450L204 464H49ZM244 464L338 370C372 390 395 424 399 464H244ZM224 304C295 304 352 247 352 176V66C352 53 344 41 331 36L247 4C239 1 232 0 224 0S209 1 202 4L117 36C104 41 96 53 96 66V176C96 247 153 304 224 304ZM184 72C184 69 186 67 189 67H211V45C211 42 213 40 216 40H232C235 40 237 42 237 45V67H259C262 67 264 69 264 72V88C264 91 262 93 259 93H237V115C237 118 235 120 232 120H216C213 120 211 118 211 115V93H189C186 93 184 91 184 88V72ZM144 160H304V176C304 220 268 256 224 256S144 220 144 176V160Z"/></svg>