<svg xmlns="http://www.w3.org/2000/svg" viewBox="0 0 640 512"><!-- Font Awesome Pro 6.0.0-alpha1 by @fontawesome - https://fontawesome.com License - https://fontawesome.com/license (Commercial License) --><path d="M497 295L569 367L542 394H542L443 493C441 495 438 497 434 498L363 512C356 513 351 508 352 501L366 430C367 426 369 423 371 421L497 295ZM629 256L608 235C594 220 572 220 557 235L519 273L591 345L629 307C644 293 644 270 629 256ZM361 512C362 512 362 512 363 512C362 512 360 512 359 512C360 512 360 512 361 512ZM96 128C96 57 153 0 224 0S352 57 352 128C352 199 295 256 224 256S96 199 96 128ZM144 128C144 172 180 208 224 208S304 172 304 128C304 84 268 48 224 48S144 84 144 128ZM327 464H49C57 401 111 352 176 352H272C306 352 337 365 360 387L394 353C362 323 319 304 272 304H176C79 304 0 383 0 480C0 498 14 512 32 512H321C320 506 320 501 321 495L327 464Z"/></svg>