<svg xmlns="http://www.w3.org/2000/svg" viewBox="0 0 448 512"><!-- Font Awesome Pro 6.0.0-alpha1 by @fontawesome - https://fontawesome.com License - https://fontawesome.com/license (Commercial License) --><path d="M275 304H173C78 304 0 382 0 477C0 496 16 512 35 512H413C432 512 448 496 448 477C448 382 370 304 275 304ZM49 464C55 401 109 352 173 352H275C339 352 393 401 399 464H49ZM105 175C124 222 170 256 224 256S324 222 343 175C357 171 368 159 368 144V96C368 78 354 64 336 64H334C312 26 271 0 224 0S136 26 114 64H112C94 64 80 78 80 96V144C80 159 91 171 105 175ZM224 208C198 208 175 195 160 176H288C273 195 250 208 224 208ZM224 48C242 48 258 54 272 64H176C190 54 206 48 224 48ZM128 112H320V128H128V112ZM309 369C326 390 335 415 336 445C336 446 335 447 334 448C333 448 333 448 332 448C331 448 330 447 330 447C319 432 314 427 312 426C311 426 311 426 311 426C308 427 300 431 278 447C277 448 275 448 274 447C273 446 272 445 272 444C275 413 286 388 304 369C304 369 305 368 307 368C308 368 309 369 309 369Z"/></svg>