<svg xmlns="http://www.w3.org/2000/svg" viewBox="0 0 640 512"><!-- Font Awesome Pro 6.0.0-alpha1 by @fontawesome - https://fontawesome.com License - https://fontawesome.com/license (Commercial License) --><path d="M80 96C106 96 128 74 128 48S106 0 80 0S32 22 32 48S54 96 80 96ZM0 488C0 501 11 512 24 512S48 501 48 488V392C36 383 1 354 0 354V488ZM608 0H512C494 0 480 14 480 32V54C480 60 481 67 483 74L524 197L282 240H158L126 162C118 142 97 128 75 128H48C22 128 0 150 0 176V288C0 306 8 322 21 332L109 401C111 403 112 405 112 408V488C112 501 123 512 136 512S160 501 160 488V408C160 390 152 374 139 364L96 330V215L118 268C123 280 135 288 148 288H192V496C192 505 199 512 208 512H224C233 512 240 505 240 496V400H592V496C592 505 599 512 608 512H624C633 512 640 505 640 496V32C640 14 626 0 608 0ZM592 352H240V296L273 290C273 292 272 294 272 296C272 309 283 320 296 320S320 309 320 296C320 291 318 287 315 283L592 233V352ZM592 185L572 188L529 59C528 57 528 55 528 54V48H592V185Z"/></svg>