<svg xmlns="http://www.w3.org/2000/svg" viewBox="0 0 512 512"><!-- Font Awesome Pro 6.0.0-alpha1 by @fontawesome - https://fontawesome.com License - https://fontawesome.com/license (Commercial License) --><path d="M256 288C336 288 400 224 400 144S336 0 256 0C176 0 112 64 112 144S176 288 256 288ZM256 48C309 48 352 91 352 144C352 197 309 240 256 240C203 240 160 197 160 144C160 91 203 48 256 48ZM352 320H160C72 320 0 392 0 480C0 498 14 512 32 512H480C498 512 512 498 512 480C512 392 440 320 352 320ZM49 464C57 410 104 368 160 368H352C408 368 455 410 463 464H49Z"/></svg>