<svg xmlns="http://www.w3.org/2000/svg" viewBox="0 0 448 512"><!-- Font Awesome Pro 6.0.0-alpha1 by @fontawesome - https://fontawesome.com License - https://fontawesome.com/license (Commercial License) --><path d="M224 256C295 256 352 199 352 128C352 57 295 0 224 0S96 57 96 128C96 199 153 256 224 256ZM224 48C268 48 304 84 304 128C304 172 268 208 224 208S144 172 144 128C144 84 180 48 224 48ZM272 304H176C79 304 0 383 0 480V488C0 501 11 512 24 512S48 501 48 488V480C48 423 85 376 136 359V403C110 411 91 437 97 467C101 488 118 506 139 510C175 519 208 491 208 456C208 431 191 410 168 403V353C171 353 173 352 176 352H272C275 352 277 353 280 353V403C257 410 240 431 240 456V496C240 505 247 512 256 512S272 505 272 496V456C272 443 283 432 296 432S320 443 320 456V496C320 505 327 512 336 512S352 505 352 496V456C352 431 335 410 312 403V359C363 376 400 423 400 480V488C400 501 411 512 424 512S448 501 448 488V480C448 383 369 304 272 304ZM176 456C176 469 165 480 152 480C139 480 128 469 128 456C128 443 139 432 152 432C165 432 176 443 176 456Z"/></svg>