<svg xmlns="http://www.w3.org/2000/svg" viewBox="0 0 640 512"><!-- Font Awesome Pro 6.0.0-alpha1 by @fontawesome - https://fontawesome.com License - https://fontawesome.com/license (Commercial License) --><path d="M640 120C640 54 586 0 520 0H310C253 0 204 40 192 95L130 384H96C43 384 0 427 0 480V496C0 505 7 512 16 512H224C242 512 256 498 256 480V416C256 398 242 384 224 384H179L239 105C246 72 276 48 310 48H520C554 48 582 71 590 103C598 136 582 169 552 184C516 148 467 128 416 128H384C366 128 352 142 352 160V331C367 324 383 320 400 320V176H416C495 176 560 241 560 320V448C560 457 553 464 544 464H507C502 482 492 499 478 512H544C579 512 608 483 608 448V320C608 286 599 252 581 222C616 201 640 164 640 120ZM208 432V464H51C58 445 76 432 96 432H208ZM400 352C356 352 320 388 320 432S356 512 400 512S480 476 480 432S444 352 400 352ZM400 448C391 448 384 441 384 432S391 416 400 416S416 423 416 432S409 448 400 448Z"/></svg>