<svg xmlns="http://www.w3.org/2000/svg" viewBox="0 0 512 512"><!-- Font Awesome Pro 6.0.0-alpha1 by @fontawesome - https://fontawesome.com License - https://fontawesome.com/license (Commercial License) --><path d="M256 16C123 16 16 123 16 256S123 496 256 496S496 389 496 256S389 16 256 16ZM256 448C150 448 64 362 64 256S150 64 256 64S448 150 448 256S362 448 256 448ZM256 96C213 96 173 113 143 143C133 152 133 168 143 177C152 186 167 186 177 177C198 156 226 144 256 144C318 144 368 194 368 256C368 286 356 314 335 335C326 345 326 360 335 369C340 374 346 376 352 376C358 376 364 374 369 369C399 339 416 299 416 256C416 168 344 96 256 96ZM155 229C149 222 139 222 133 229S126 245 133 251L261 379C264 382 268 384 272 384S280 382 283 379C290 373 290 363 283 357L155 229ZM139 309C133 302 123 302 117 309S110 325 117 331L181 395C184 398 188 400 192 400S200 398 203 395C210 389 210 379 203 373L139 309ZM235 213C229 206 219 206 213 213S206 229 213 235L277 299C280 302 284 304 288 304S296 302 299 299C306 293 306 283 299 277L235 213Z"/></svg>