<svg xmlns="http://www.w3.org/2000/svg" viewBox="0 0 512 512"><!-- Font Awesome Pro 6.0.0-alpha1 by @fontawesome - https://fontawesome.com License - https://fontawesome.com/license (Commercial License) --><path d="M24 32C11 32 0 43 0 56V456C0 469 11 480 24 480S48 469 48 456V56C48 43 37 32 24 32ZM369 143C360 134 344 134 335 143L256 222L177 143C168 134 152 134 143 143S134 168 143 177L222 256L143 335C134 344 134 360 143 369C148 374 154 376 160 376S172 374 177 369L256 290L335 369C340 374 346 376 352 376S364 374 369 369C378 360 378 344 369 335L290 256L369 177C378 168 378 152 369 143ZM488 32C475 32 464 43 464 56V456C464 469 475 480 488 480S512 469 512 456V56C512 43 501 32 488 32Z"/></svg>