<svg xmlns="http://www.w3.org/2000/svg" viewBox="0 0 640 512"><!-- Font Awesome Pro 6.0.0-alpha1 by @fontawesome - https://fontawesome.com License - https://fontawesome.com/license (Commercial License) --><path d="M625 206L499 55C487 40 469 32 450 32H64C29 32 0 61 0 96V320C0 355 29 384 64 384C64 437 107 480 160 480S256 437 256 384H384C384 437 427 480 480 480S576 437 576 384C611 384 640 355 640 320V247C640 232 635 218 625 206ZM462 86L556 192H376V80H450C455 80 459 82 462 86ZM328 192H216V80H328V192ZM64 80H168V192H48V96C48 87 55 80 64 80ZM160 432C134 432 112 410 112 384S134 336 160 336S208 358 208 384S186 432 160 432ZM480 432C454 432 432 410 432 384S454 336 480 336S528 358 528 384S506 432 480 432ZM576 336H563C546 307 515 288 480 288S414 307 397 336H243C226 307 195 288 160 288S94 307 77 336H64C55 336 48 329 48 320V240H592V320C592 329 585 336 576 336Z"/></svg>