<svg xmlns="http://www.w3.org/2000/svg" viewBox="0 0 448 512"><!-- Font Awesome Pro 6.0.0-alpha1 by @fontawesome - https://fontawesome.com License - https://fontawesome.com/license (Commercial License) --><path d="M416 160C434 160 448 146 448 128V64C448 46 434 32 416 32H352C334 32 320 46 320 64V72H128V64C128 46 114 32 96 32H32C14 32 0 46 0 64V128C0 146 14 160 32 160H40V352H32C14 352 0 366 0 384V448C0 466 14 480 32 480H96C114 480 128 466 128 448V440H320V448C320 466 334 480 352 480H416C434 480 448 466 448 448V384C448 366 434 352 416 352H374L346 306C349 301 352 295 352 288V224C352 217 349 211 346 206L374 160H416ZM80 432H48V400H80V432ZM80 112H48V80H80V112ZM298 192H256C238 192 224 206 224 224V288C224 306 238 320 256 320H298L326 366C323 371 320 377 320 384V392H128V384C128 366 114 352 96 352H88V160H96C114 160 128 146 128 128V120H320V128C320 135 323 141 326 146L298 192ZM304 240V272H272V240H304ZM368 400H400V432H368V400ZM368 80H400V112H368V80Z"/></svg>