<svg xmlns="http://www.w3.org/2000/svg" viewBox="0 0 512 512"><!-- Font Awesome Pro 6.0.0-alpha1 by @fontawesome - https://fontawesome.com License - https://fontawesome.com/license (Commercial License) --><path d="M480 192H462C441 124 388 71 320 50V32C320 14 306 0 288 0H224C206 0 192 14 192 32V50C124 71 71 124 50 192H32C14 192 0 206 0 224V288C0 306 14 320 32 320H50C71 388 124 441 192 462V480C192 498 206 512 224 512H288C306 512 320 498 320 480V462C388 441 441 388 462 320H480C498 320 512 306 512 288V224C512 206 498 192 480 192ZM240 48H272V80H240V48ZM80 272H48V240H80V272ZM272 464H240V432H272V464ZM411 319C394 361 361 394 319 411C317 396 304 384 288 384H224C208 384 195 396 193 411C151 394 118 361 101 319C116 317 128 304 128 288V224C128 208 116 195 101 193C118 151 151 118 193 101C195 116 208 128 224 128H288C304 128 317 116 319 101C361 118 394 151 411 193C396 195 384 208 384 224V288C384 304 396 317 411 319ZM464 272H432V240H464V272Z"/></svg>