<svg xmlns="http://www.w3.org/2000/svg" viewBox="0 0 640 512"><!-- Font Awesome Pro 6.0.0-alpha1 by @fontawesome - https://fontawesome.com License - https://fontawesome.com/license (Commercial License) --><path d="M624 176C624 79 545 0 448 0C409 0 373 13 344 34C355 46 365 59 373 73C394 58 420 48 448 48C519 48 576 105 576 176S519 304 448 304C420 304 394 294 373 279C365 293 355 306 344 318C367 335 394 346 424 350V392H376C363 392 352 403 352 416S363 440 376 440H424V488C424 501 435 512 448 512S472 501 472 488V440H520C533 440 544 429 544 416S533 392 520 392H472V350C558 338 624 265 624 176ZM368 176C368 79 289 0 192 0C95 0 16 79 16 176C16 265 82 338 168 350V392H120C107 392 96 403 96 416S107 440 120 440H168V488C168 501 179 512 192 512S216 501 216 488V440H264C277 440 288 429 288 416S277 392 264 392H216V350C302 338 368 265 368 176ZM192 304C121 304 64 247 64 176S121 48 192 48C263 48 320 105 320 176S263 304 192 304Z"/></svg>