<svg xmlns="http://www.w3.org/2000/svg" viewBox="0 0 384 512"><!-- Font Awesome Pro 6.0.0-alpha1 by @fontawesome - https://fontawesome.com License - https://fontawesome.com/license (Commercial License) --><path d="M368 176C368 79 289 0 192 0C95 0 16 79 16 176C16 265 82 338 168 350V392H120C107 392 96 403 96 416S107 440 120 440H168V488C168 501 179 512 192 512S216 501 216 488V440H264C277 440 288 429 288 416S277 392 264 392H216V350C302 338 368 265 368 176ZM64 176C64 105 121 48 192 48C263 48 320 105 320 176S263 304 192 304C121 304 64 247 64 176Z"/></svg>