<svg xmlns="http://www.w3.org/2000/svg" viewBox="0 0 640 512"><!-- Font Awesome Pro 6.0.0-alpha1 by @fontawesome - https://fontawesome.com License - https://fontawesome.com/license (Commercial License) --><path d="M248 392H200V350C286 338 352 265 352 176C352 79 273 0 176 0C79 0 0 79 0 176C0 265 66 338 152 350V392H104C91 392 80 403 80 416S91 440 104 440H152V488C152 501 163 512 176 512S200 501 200 488V440H248C261 440 272 429 272 416S261 392 248 392ZM176 304C105 304 48 247 48 176S105 48 176 48C247 48 304 105 304 176S247 304 176 304ZM616 0H504C491 0 480 11 480 24S491 48 504 48H558L506 100C474 77 437 64 400 64C385 64 370 67 355 71C363 84 370 99 375 114C383 113 391 112 400 112C434 112 466 125 490 150C540 199 540 281 490 331C466 355 434 368 400 368C367 368 336 355 312 333C300 343 287 353 272 360C273 362 274 363 276 364C310 399 355 416 400 416C445 416 490 399 524 364C587 302 592 203 540 134L592 82V136C592 149 603 160 616 160S640 149 640 136V24C640 11 629 0 616 0Z"/></svg>