<svg xmlns="http://www.w3.org/2000/svg" viewBox="0 0 576 512"><!-- Font Awesome Pro 6.0.0-alpha1 by @fontawesome - https://fontawesome.com License - https://fontawesome.com/license (Commercial License) --><path d="M558 102C546 95 532 94 519 100L416 147V128C416 93 387 64 352 64H64C29 64 0 93 0 128V384C0 419 29 448 64 448H352C387 448 416 419 416 384V365L519 412C525 415 530 416 536 416C544 416 551 414 558 410C569 402 576 390 576 376V136C576 122 569 110 558 102ZM368 384C368 393 361 400 352 400H64C55 400 48 393 48 384V128C48 119 55 112 64 112H352C361 112 368 119 368 128V384ZM528 364L416 312V200L528 148V364ZM280 232H232V184C232 171 221 160 208 160S184 171 184 184V232H136C123 232 112 243 112 256S123 280 136 280H184V328C184 341 195 352 208 352S232 341 232 328V280H280C293 280 304 269 304 256S293 232 280 232Z"/></svg>