<svg xmlns="http://www.w3.org/2000/svg" viewBox="0 0 640 512"><!-- Font Awesome Pro 6.0.0-alpha1 by @fontawesome - https://fontawesome.com License - https://fontawesome.com/license (Commercial License) --><path d="M633 385L544 320V288L599 264C611 257 611 234 599 226L480 160V128L507 112C515 104 513 91 503 86L320 0L137 86C127 91 125 104 133 112L160 128V160L41 226C29 234 29 256 41 264L96 288V320L7 385C-3 394 -2 414 9 422L64 448V488C64 501 75 512 88 512H88C101 512 112 501 112 488V448H296V488C296 501 307 512 320 512H320C333 512 344 501 344 488V448H528V488C528 501 539 512 552 512H552C565 512 576 501 576 488V448L631 422C642 414 643 394 633 385ZM320 53L377 80H263L320 53ZM208 128H432V160H208V128ZM172 208H468L525 240H115L172 208ZM144 288H496V320H144V288ZM112 368H528L576 400H64L112 368Z"/></svg>