<svg xmlns="http://www.w3.org/2000/svg" viewBox="0 0 640 512"><!-- Font Awesome Pro 6.0.0-alpha1 by @fontawesome - https://fontawesome.com License - https://fontawesome.com/license (Commercial License) --><path d="M513 48C526 48 537 37 537 24S526 0 513 0S489 11 489 24S500 48 513 48ZM465 96C478 96 489 85 489 72S478 48 465 48C452 48 441 59 441 72S452 96 465 96ZM474 193L628 39C634 32 634 22 628 16L617 5C611 -1 601 -1 594 5L440 159C425 146 407 136 388 131C369 127 324 121 290 155C286 159 283 163 280 167C287 216 239 253 194 236C179 241 165 249 153 261C111 303 111 374 150 432L128 446C124 449 121 453 121 458C120 463 122 468 126 471L162 507C165 511 170 512 175 512C180 512 184 509 187 505L201 483C229 502 261 512 290 512C322 512 351 501 372 480C384 468 392 454 397 439C380 394 417 346 465 353C469 350 474 347 478 343C502 318 510 282 502 245C497 226 487 208 474 193ZM448 304C386 309 334 367 347 435C342 444 326 464 291 464C269 464 247 457 228 443L233 436C237 430 236 421 231 416L217 402C212 397 203 396 197 400L190 405C176 385 169 363 169 342C169 316 180 296 198 286C266 299 324 247 329 185C339 178 350 176 359 176C365 176 371 177 377 178C388 181 398 187 406 193L318 281C311 288 311 298 318 304L329 315C335 321 345 321 351 315L440 227C446 235 452 245 455 256C459 275 457 292 448 304ZM609 96C596 96 585 107 585 120S596 144 609 144C622 144 633 133 633 120S622 96 609 96ZM561 144C548 144 537 155 537 168S548 192 561 192S585 181 585 168S574 144 561 144ZM338 7C329 -2 313 -2 304 7L0 311C-9 320 -9 336 0 345C5 350 11 352 17 352S29 350 34 345L338 41C347 32 347 16 338 7Z"/></svg>