<svg xmlns="http://www.w3.org/2000/svg" viewBox="0 0 512 512"><!-- Font Awesome Pro 6.0.0-alpha1 by @fontawesome - https://fontawesome.com License - https://fontawesome.com/license (Commercial License) --><path d="M160 144C173 144 185 140 195 134L224 192H288L317 134C327 140 339 144 352 144C387 144 416 115 416 80S387 16 352 16C336 16 322 22 311 31C300 13 279 0 256 0S212 13 201 31C190 22 176 16 160 16C125 16 96 45 96 80S125 144 160 144ZM506 461L385 306L385 306L330 236C323 229 314 224 304 224H208C198 224 188 229 182 236L127 307L127 307L6 461C-9 482 6 512 32 512H480C506 512 521 482 506 461ZM65 464L182 315C192 304 209 302 224 302C241 301 258 309 269 322L301 359C310 370 330 370 340 359L353 344L447 464H65Z"/></svg>