<svg xmlns="http://www.w3.org/2000/svg" viewBox="0 0 640 512"><!-- Font Awesome Pro 6.0.0-alpha1 by @fontawesome - https://fontawesome.com License - https://fontawesome.com/license (Commercial License) --><path d="M631 469L542 400C584 363 608 311 608 256C608 199 582 145 537 108C533 104 527 103 522 103C515 103 508 106 503 111C495 122 496 137 507 145C541 173 560 213 560 256C560 299 541 339 507 367C506 368 505 369 504 370L460 335C460 335 461 335 461 335C467 335 472 334 477 330C499 312 512 285 512 256C512 227 499 200 477 182C472 178 467 177 461 177C454 177 448 180 443 185C434 196 436 211 446 219C458 228 464 242 464 256S458 284 446 293C438 299 436 309 438 318L384 276V64C384 51 377 40 365 35C361 33 356 32 352 32C344 32 337 35 331 40L215 143L39 5C28 -3 13 -1 5 9C-3 20 -1 35 9 43L601 507C606 510 611 512 616 512C623 512 630 509 635 503C643 492 641 477 631 469ZM336 238L253 173L336 100V238ZM336 412L214 304H112V208H142L89 166C74 174 64 190 64 208V304C64 330 86 352 112 352H196L331 472C337 477 344 480 352 480C356 480 361 479 365 477C377 472 384 461 384 448V398L336 360V412Z"/></svg>