<svg xmlns="http://www.w3.org/2000/svg" viewBox="0 0 640 512"><!-- Font Awesome Pro 6.0.0-alpha1 by @fontawesome - https://fontawesome.com License - https://fontawesome.com/license (Commercial License) --><path d="M584 320H544V368H584C588 368 592 372 592 376V424C592 428 588 432 584 432H56C52 432 48 428 48 424V376C48 372 52 368 56 368H96V320H56C25 320 0 345 0 376V424C0 455 25 480 56 480H584C615 480 640 455 640 424V376C640 345 615 320 584 320ZM160 384H480C498 384 512 370 512 352V96C512 61 483 32 448 32H192C157 32 128 61 128 96V352C128 370 142 384 160 384ZM176 96C176 87 183 80 192 80H448C457 80 464 87 464 96V336H176V96ZM393 135C384 126 368 126 359 135L320 174L281 135C272 126 256 126 247 135S238 160 247 169L286 208L247 247C238 256 238 272 247 281C252 286 258 288 264 288S276 286 281 281L320 242L359 281C364 286 370 288 376 288S388 286 393 281C402 272 402 256 393 247L354 208L393 169C402 160 402 144 393 135Z"/></svg>