<svg xmlns="http://www.w3.org/2000/svg" viewBox="0 0 640 512"><!-- Font Awesome Pro 6.0.0-alpha1 by @fontawesome - https://fontawesome.com License - https://fontawesome.com/license (Commercial License) --><path d="M584 320H544V368H584C588 368 592 372 592 376V424C592 428 588 432 584 432H56C52 432 48 428 48 424V376C48 372 52 368 56 368H96V320H56C25 320 0 345 0 376V424C0 455 25 480 56 480H584C615 480 640 455 640 424V376C640 345 615 320 584 320ZM160 384H480C498 384 512 370 512 352V96C512 61 483 32 448 32H192C157 32 128 61 128 96V352C128 370 142 384 160 384ZM176 96C176 87 183 80 192 80H448C457 80 464 87 464 96V336H176V96ZM375 135L296 214L265 183C256 174 240 174 231 183S222 208 231 217L279 265C284 270 290 272 296 272S308 270 313 265L409 169C418 160 418 144 409 135S384 126 375 135Z"/></svg>