<svg xmlns="http://www.w3.org/2000/svg" viewBox="0 0 640 512"><!-- Font Awesome Pro 6.0.0-alpha1 by @fontawesome - https://fontawesome.com License - https://fontawesome.com/license (Commercial License) --><path d="M576 64H64C29 64 0 93 0 128V384C0 419 29 448 64 448H209C237 448 263 431 274 406L289 373C295 360 307 352 320 352S345 360 351 373L366 406C377 431 403 448 431 448H576C611 448 640 419 640 384V128C640 93 611 64 576 64ZM592 384C592 393 585 400 576 400H431C422 400 413 394 409 386L395 354C381 324 352 304 320 304S259 324 245 354L231 386C227 394 218 400 209 400H64C55 400 48 393 48 384V128C48 119 55 112 64 112H576C585 112 592 119 592 128V384ZM176 176C141 176 112 205 112 240S141 304 176 304S240 275 240 240S211 176 176 176ZM464 176C429 176 400 205 400 240S429 304 464 304S528 275 528 240S499 176 464 176Z"/></svg>