<svg xmlns="http://www.w3.org/2000/svg" viewBox="0 0 640 512"><!-- Font Awesome Pro 6.0.0-alpha1 by @fontawesome - https://fontawesome.com License - https://fontawesome.com/license (Commercial License) --><path d="M624 26C608 6 582 -4 556 1L407 29H398C387 21 374 16 360 16H280C266 16 253 21 242 29H233L84 1C59 -4 32 6 16 26C-1 46 -5 74 5 98L69 260C66 263 64 267 64 272V304C64 313 71 320 80 320H98C97 320 97 320 97 320C62 355 54 408 76 451C98 495 146 519 194 510C242 502 280 464 286 416H354C361 464 398 502 446 510C494 518 542 494 564 451C586 408 578 355 543 320C543 320 543 320 542 320H560C569 320 576 313 576 304V272C576 267 574 263 571 260L634 99C645 75 641 47 624 26ZM160 461C137 456 120 438 114 416H160V461ZM160 384H114C120 361 137 343 160 338V384ZM119 256L50 80C46 72 48 63 53 57C58 50 67 47 75 48L216 75C216 77 216 78 216 80V256H119ZM221 445C213 453 203 459 192 461V416H238C235 427 229 437 221 445ZM192 384V338C215 343 232 361 238 384H192ZM376 256H264V80C264 71 271 64 280 64H360C369 64 376 71 376 80V256ZM448 461C426 456 408 438 402 416H448V461ZM448 384H402C408 361 426 343 448 338V384ZM509 445C501 453 491 459 480 461V416H526C523 427 517 437 509 445ZM480 384V338C503 343 520 361 526 384H480ZM590 81L521 256H424V80C424 78 424 76 423 74L565 48C573 47 582 50 587 57C590 60 595 69 590 81Z"/></svg>