<svg xmlns="http://www.w3.org/2000/svg" viewBox="0 0 448 512"><!-- Font Awesome Pro 6.0.0-alpha1 by @fontawesome - https://fontawesome.com License - https://fontawesome.com/license (Commercial License) --><path d="M408 389V88C408 39 368 0 320 0H186C145 0 110 27 100 67L1 482C-2 495 5 508 18 511C31 514 44 506 47 493L101 272H360V389C331 400 315 430 321 460C327 490 353 512 384 512S441 490 447 460C453 430 436 400 408 389ZM360 224H112L147 78C151 60 167 48 186 48H320C342 48 360 66 360 88V224ZM384 464C375 464 368 457 368 448S375 432 384 432S400 439 400 448S393 464 384 464Z"/></svg>