<svg xmlns="http://www.w3.org/2000/svg" viewBox="0 0 512 512"><!-- Font Awesome Pro 6.0.0-alpha1 by @fontawesome - https://fontawesome.com License - https://fontawesome.com/license (Commercial License) --><path d="M440 128H120C107 128 96 139 96 152S107 176 120 176H440C453 176 464 187 464 200V408C464 421 453 432 440 432H88C66 432 48 414 48 392V120C48 98 66 80 88 80H456C469 80 480 69 480 56S469 32 456 32H88C39 32 0 71 0 120V392C0 441 39 480 88 480H440C480 480 512 448 512 408V200C512 160 480 128 440 128ZM416 304C416 286 402 272 384 272S352 286 352 304C352 322 366 336 384 336S416 322 416 304Z"/></svg>