<svg xmlns="http://www.w3.org/2000/svg" viewBox="0 0 640 512"><!-- Font Awesome Pro 6.0.0-alpha1 by @fontawesome - https://fontawesome.com License - https://fontawesome.com/license (Commercial License) --><path d="M598 113L346 9C330 2 310 2 294 9L42 113C17 124 0 149 0 177V491C0 505 11 515 24 515C37 515 48 505 48 491V177C48 168 53 161 61 158L312 53C317 51 323 51 328 53L579 158C587 161 592 168 592 177V491C592 505 603 515 616 515C629 515 640 505 640 491V177C640 149 623 124 598 113ZM512 355H352V275C352 258 338 243 320 243H128C110 243 96 258 96 275V483C96 501 110 515 112 515H496C530 515 544 501 544 483V387C544 370 530 355 512 355ZM304 467H144V403H304V467ZM304 355H144V291H304V355ZM496 467H352V403H496V467Z"/></svg>