<svg xmlns="http://www.w3.org/2000/svg" viewBox="0 0 384 512"><!-- Font Awesome Pro 6.0.0-alpha1 by @fontawesome - https://fontawesome.com License - https://fontawesome.com/license (Commercial License) --><path d="M320 74V48C320 22 298 0 272 0H112C86 0 64 22 64 48V74C27 81 0 113 0 152V360C0 399 27 431 64 438V464C64 490 86 512 112 512H272C298 512 320 490 320 464V438C357 431 384 399 384 360V152C384 113 357 81 320 74ZM336 360C336 378 322 392 304 392H80C62 392 48 378 48 360V152C48 134 62 120 80 120H304C322 120 336 134 336 152V360ZM199 192L192 199L185 192C166 173 137 170 117 187C94 206 93 240 113 261L184 333C186 335 189 336 192 336S198 335 200 333L271 261C291 240 290 206 267 187C247 170 218 173 199 192Z"/></svg>