<svg xmlns="http://www.w3.org/2000/svg" viewBox="0 0 576 512"><!-- Font Awesome Pro 6.0.0-alpha1 by @fontawesome - https://fontawesome.com License - https://fontawesome.com/license (Commercial License) --><path d="M556 464C535 460 514 449 497 431C488 422 472 422 463 431C443 452 414 464 384 464S325 452 305 431C296 422 280 422 271 431C251 452 222 464 192 464C160 464 124 450 105 431C96 422 80 422 71 431C52 451 39 461 20 464C7 467 -2 479 0 492C3 505 15 514 28 512C54 507 73 495 89 480C117 500 155 512 192 512C227 512 261 500 288 480C342 521 425 521 480 480C500 496 524 507 548 512C549 512 551 512 552 512C563 512 574 504 576 492C578 479 569 467 556 464ZM28 368C54 363 73 351 89 336C117 356 155 368 192 368C227 368 261 356 288 336C342 377 425 377 480 336C500 352 524 363 548 368C549 368 551 368 552 368C563 368 574 360 576 348C578 335 569 323 556 320C535 316 514 305 497 287C488 278 472 278 463 287C443 308 414 320 384 320S325 308 305 287C296 278 280 278 271 287C251 308 222 320 192 320C160 320 124 306 105 287C96 278 80 278 71 287C52 307 39 317 20 320C7 323 -2 335 0 348C3 361 15 370 28 368ZM225 121L264 82V200C264 213 275 224 288 224S312 213 312 200V82L351 121C356 126 362 128 368 128S380 126 385 121C394 112 394 96 385 87L305 7C296 -2 280 -2 271 7L191 87C182 96 182 112 191 121S216 130 225 121Z"/></svg>