<svg xmlns="http://www.w3.org/2000/svg" viewBox="0 0 640 512"><!-- Font Awesome Pro 6.0.0-alpha1 by @fontawesome - https://fontawesome.com License - https://fontawesome.com/license (Commercial License) --><path d="M640 256L640 256C640 269 629 280 616 280H495L438 402C433 411 424 417 414 416C404 415 395 408 393 398L323 129L247 493C245 504 236 512 225 512C225 512 224 512 224 512C213 512 204 505 201 494L142 280H24C11 280 0 269 0 256V256C0 243 11 232 24 232H160C171 232 180 239 183 250L221 386L297 19C299 8 308 0 319 0C320 0 320 0 320 0C331 0 341 7 343 18L423 322L458 246C462 237 471 232 480 232H616C629 232 640 243 640 256Z"/></svg>