<svg xmlns="http://www.w3.org/2000/svg" viewBox="0 0 640 512"><!-- Font Awesome Pro 6.0.0-alpha1 by @fontawesome - https://fontawesome.com License - https://fontawesome.com/license (Commercial License) --><path d="M320 0L320 0C307 0 296 11 296 24V488C296 501 307 512 320 512H320C333 512 344 501 344 488V24C344 11 333 0 320 0ZM224 96L224 96C211 96 200 107 200 120V392C200 405 211 416 224 416H224C237 416 248 405 248 392V120C248 107 237 96 224 96ZM416 128L416 128C403 128 392 139 392 152V360C392 373 403 384 416 384H416C429 384 440 373 440 360V152C440 139 429 128 416 128ZM512 64L512 64C499 64 488 75 488 88V424C488 437 499 448 512 448H512C525 448 536 437 536 424V88C536 75 525 64 512 64ZM128 192L128 192C115 192 104 203 104 216V296C104 309 115 320 128 320H128C141 320 152 309 152 296V216C152 203 141 192 128 192ZM32 224L32 224C19 224 8 235 8 248V264C8 277 19 288 32 288H32C45 288 56 277 56 264V248C56 235 45 224 32 224ZM608 224L608 224C595 224 584 235 584 248V264C584 277 595 288 608 288L608 288C621 288 632 277 632 264V248C632 235 621 224 608 224Z"/></svg>