<svg xmlns="http://www.w3.org/2000/svg" viewBox="0 0 640 512"><!-- Font Awesome Pro 6.0.0-alpha1 by @fontawesome - https://fontawesome.com License - https://fontawesome.com/license (Commercial License) --><path d="M488 128H424C366 128 312 150 271 191L119 343C114 348 112 354 112 360C112 366 114 372 119 377C124 382 130 384 136 384S148 382 153 377L305 225C336 194 379 176 424 176H488C545 176 592 223 592 280V376C592 416 560 448 520 448H164C100 448 48 396 48 332C48 304 58 277 76 256L124 201L186 223C190 224 192 224 195 224C206 224 216 220 223 212L281 155C287 148 290 139 287 131C284 122 277 116 269 114L190 98L174 19C172 8 162 0 150 0C144 0 138 2 133 7L76 65C66 74 62 88 65 101L89 168L40 225C14 255 0 293 0 332C0 422 74 496 164 496H520C586 496 640 442 640 376V280C640 196 572 128 488 128ZM136 72L144 113L148 133L149 139L155 140L175 144L216 152L193 174L135 153L114 95L136 72ZM408 304C408 291 397 280 384 280S360 291 360 304C360 317 371 328 384 328S408 317 408 304Z"/></svg>