<svg xmlns="http://www.w3.org/2000/svg" viewBox="0 0 640 512"><!-- Font Awesome Pro 6.0.0-alpha1 by @fontawesome - https://fontawesome.com License - https://fontawesome.com/license (Commercial License) --><path d="M628 327L340 103L340 103C307 79 267 64 224 64C185 64 149 76 119 95C108 77 87 64 64 64C29 64 0 93 0 128C0 156 19 180 44 189C37 210 32 232 32 256C32 362 118 448 224 448C288 448 344 417 379 369L530 445C534 447 539 448 544 448C552 448 560 445 567 439L631 375C637 368 641 359 640 350C639 341 635 332 628 327ZM69 143C67 144 66 144 64 144C55 144 48 137 48 128S55 112 64 112S80 119 80 128C80 129 80 129 80 130C76 134 72 138 69 143ZM541 397L400 326L364 308L344 336C343 337 343 337 342 338L340 341C336 346 332 351 328 355C326 357 324 359 322 361C317 366 312 370 306 374C305 375 305 375 304 376C297 380 290 384 282 388C281 388 280 389 278 389C271 392 263 395 254 397C253 397 252 397 251 397C242 399 233 400 224 400C144 400 80 336 80 256C80 176 144 112 224 112C256 112 285 123 309 140C310 141 310 141 311 141L319 148L391 204L381 218C373 228 375 243 386 251C390 254 395 256 400 256C407 256 414 253 419 246L429 233L584 354L541 397ZM224 208C198 208 176 230 176 256C176 282 198 304 224 304C250 304 272 282 272 256C272 230 250 208 224 208Z"/></svg>