<svg xmlns="http://www.w3.org/2000/svg" viewBox="0 0 640 512"><!-- Font Awesome Pro 6.0.0-alpha1 by @fontawesome - https://fontawesome.com License - https://fontawesome.com/license (Commercial License) --><path d="M119 287C110 296 110 311 119 321C128 330 143 330 153 321C174 301 199 285 227 274L184 241C160 253 139 268 119 287ZM7 151C-2 160 -2 175 7 185C16 194 31 195 41 185C52 175 64 165 76 156L37 125C27 133 17 142 7 151ZM320 368C289 368 264 393 264 424S289 480 320 480S376 455 376 424S351 368 320 368ZM364 260C411 268 454 289 487 321C492 326 498 328 504 328C510 328 517 326 521 321C531 311 530 296 521 287C468 236 397 208 320 208C313 208 306 209 300 209L169 107C216 90 267 80 320 80C427 80 529 118 599 185C604 190 610 192 616 192C622 192 629 190 633 185C643 175 642 160 633 151C553 75 439 32 320 32C251 32 185 47 126 73L39 5C28 -3 13 -1 5 9C-3 20 -1 35 9 43L601 507C606 510 611 512 616 512C623 512 630 509 635 503C643 492 641 477 631 469L364 260Z"/></svg>