<svg xmlns="http://www.w3.org/2000/svg" viewBox="0 0 512 512"><!-- Font Awesome Pro 6.0.0-alpha1 by @fontawesome - https://fontawesome.com License - https://fontawesome.com/license (Commercial License) --><path d="M320 128H64C29 128 0 157 0 192V448C0 483 29 512 64 512H320C355 512 384 483 384 448V192C384 157 355 128 320 128ZM336 448C336 457 329 464 320 464H64C55 464 48 457 48 448V256H336V448ZM448 0H192C157 0 128 29 128 64V96H176V64C176 55 183 48 192 48H448C457 48 464 55 464 64V320C464 329 457 336 448 336H416V384H448C483 384 512 355 512 320V64C512 29 483 0 448 0Z"/></svg>