<svg xmlns="http://www.w3.org/2000/svg" viewBox="0 0 512 512"><!-- Font Awesome Pro 6.0.0-alpha1 by @fontawesome - https://fontawesome.com License - https://fontawesome.com/license (Commercial License) --><path d="M24 240H344C401 240 448 193 448 136S401 32 344 32C298 32 258 61 245 105C241 117 248 131 260 135C273 139 287 132 291 119C298 96 319 80 344 80C375 80 400 105 400 136S375 192 344 192H24C11 192 0 203 0 216S11 240 24 240ZM408 272H296C283 272 272 283 272 296S283 320 296 320H408C439 320 464 345 464 376S439 432 408 432C383 432 362 416 355 393C351 380 337 373 324 377C312 381 305 395 309 407C322 451 362 480 408 480C465 480 512 433 512 376S465 272 408 272ZM152 272H24C11 272 0 283 0 296S11 320 24 320H152C183 320 208 345 208 376S183 432 152 432C127 432 106 416 99 393C95 380 81 373 68 377C56 381 49 395 53 407C66 451 106 480 152 480C209 480 256 433 256 376S209 272 152 272Z"/></svg>