<svg xmlns="http://www.w3.org/2000/svg" viewBox="0 0 512 512"><!-- Font Awesome Pro 6.0.0-alpha1 by @fontawesome - https://fontawesome.com License - https://fontawesome.com/license (Commercial License) --><path d="M487 123L167 56C164 56 162 55 160 55C143 55 128 69 128 87V104H48V24C48 11 37 0 24 0S0 11 0 24V488C0 501 11 512 24 512S48 501 48 488V312H128V329C128 347 143 361 160 361C162 361 164 360 167 360L487 293C501 290 512 277 512 262V154C512 139 501 126 487 123ZM128 264H48V152H128V264ZM368 147V269L272 289V127L368 147ZM176 107L224 117V299L176 309V107ZM464 249L416 259V157L464 167V249Z"/></svg>