<svg xmlns="http://www.w3.org/2000/svg" viewBox="0 0 640 512"><!-- Font Awesome Pro 6.0.0-alpha1 by @fontawesome - https://fontawesome.com License - https://fontawesome.com/license (Commercial License) --><path d="M452 135C465 139 479 132 483 119C490 96 511 80 536 80C567 80 592 105 592 136S567 192 536 192H472C459 192 448 203 448 216S459 240 472 240H536C593 240 640 193 640 136S593 32 536 32C490 32 450 61 437 105C433 117 440 131 452 135ZM536 272H328C315 272 304 283 304 296S315 320 328 320H536C567 320 592 345 592 376S567 432 536 432C511 432 490 416 483 393C479 380 465 373 452 377C440 381 433 395 437 407C450 451 490 480 536 480C593 480 640 433 640 376S593 272 536 272ZM323 367C293 399 252 416 208 416C120 416 48 344 48 256S120 96 208 96C280 96 344 145 362 214C366 227 379 235 392 231C405 228 412 215 409 202C384 111 302 48 208 48C93 48 0 141 0 256S93 464 208 464C265 464 318 442 357 401C367 391 366 376 357 367S332 358 323 367ZM208 384C226 384 240 370 240 352C240 334 226 320 208 320S176 334 176 352C176 370 190 384 208 384ZM208 288C221 288 232 277 232 264V152C232 139 221 128 208 128S184 139 184 152V264C184 277 195 288 208 288Z"/></svg>