<svg xmlns="http://www.w3.org/2000/svg" viewBox="0 0 512 512"><!-- Font Awesome Pro 6.0.0-alpha1 by @fontawesome - https://fontawesome.com License - https://fontawesome.com/license (Commercial License) --><path d="M505 80L425 0C416 -9 400 -9 391 0C385 6 383 15 385 24L308 101C259 86 206 100 169 136L24 281C9 297 0 318 0 340C0 362 9 382 24 398L107 481C123 496 143 505 165 505C187 505 208 496 224 481L369 336C405 299 419 246 404 197L481 120C484 120 486 121 488 121C494 121 500 119 505 114C514 105 514 89 505 80ZM141 447L58 364C52 358 48 349 48 340S52 322 58 315L78 295L210 427L190 447C177 460 154 460 141 447ZM348 185L354 200C369 235 362 275 335 302L322 315L190 183L203 170C230 143 270 136 305 151L320 157L417 60L445 88L348 185Z"/></svg>