<svg xmlns="http://www.w3.org/2000/svg" viewBox="0 0 512 512"><!-- Font Awesome Pro 6.0.0-alpha1 by @fontawesome - https://fontawesome.com License - https://fontawesome.com/license (Commercial License) --><path d="M488 256H433L487 62C491 50 483 36 470 33C458 29 444 37 441 50L383 256H329L279 50C277 40 267 32 256 32S235 40 233 50L183 256H129L71 50C68 37 54 29 42 33C29 36 21 50 25 62L79 256H24C11 256 0 267 0 280S11 304 24 304H92L136 462C139 473 149 480 160 480C171 480 180 472 183 462L221 304H291L329 462C332 472 341 480 352 480H353C363 480 373 473 376 462L420 304H488C501 304 512 293 512 280S501 256 488 256ZM158 361L142 304H171L158 361ZM232 256L256 158L280 256H232ZM354 361L341 304H370L354 361Z"/></svg>