<svg xmlns="http://www.w3.org/2000/svg" viewBox="0 0 512 512"><!-- Font Awesome Pro 6.0.0-alpha1 by @fontawesome - https://fontawesome.com License - https://fontawesome.com/license (Commercial License) --><path d="M128 192H240V224H160C151 224 144 231 144 240C144 249 151 256 160 256H240V288H171C145 288 130 316 144 338L165 370C171 379 181 384 192 384H320C331 384 341 379 347 370L368 338C382 316 367 288 341 288H272V256H352C361 256 368 249 368 240C368 231 361 224 352 224H272V192H384C393 192 400 185 400 176C400 167 393 160 384 160H272V128C272 119 265 112 256 112S240 119 240 128V160H128C119 160 112 167 112 176C112 185 119 192 128 192ZM200 352C191 352 184 345 184 336C184 327 191 320 200 320S216 327 216 336C216 345 209 352 200 352ZM312 320C321 320 328 327 328 336C328 345 321 352 312 352S296 345 296 336C296 327 303 320 312 320ZM488 432H480V80H488C501 80 512 69 512 56S501 32 488 32H24C11 32 0 43 0 56S11 80 24 80H32V432H24C11 432 0 443 0 456S11 480 24 480H488C501 480 512 469 512 456S501 432 488 432ZM432 432H80V80H432V432Z"/></svg>