<svg xmlns="http://www.w3.org/2000/svg" viewBox="0 0 512 512"><!-- Font Awesome Pro 6.0.0-alpha1 by @fontawesome - https://fontawesome.com License - https://fontawesome.com/license (Commercial License) --><path d="M256 16C124 16 16 124 16 256S124 496 256 496S496 388 496 256S388 16 256 16ZM130 400C90 365 64 314 64 256C64 150 150 64 256 64C302 64 340 102 340 148S302 232 256 232C183 232 124 291 124 364C124 377 126 389 130 400ZM256 448C210 448 172 410 172 364S210 280 256 280C329 280 388 221 388 148C388 135 386 123 382 112C422 147 448 198 448 256C448 362 362 448 256 448ZM224 144C224 126 238 112 256 112S288 126 288 144S274 176 256 176S224 162 224 144ZM288 368C288 386 274 400 256 400S224 386 224 368S238 336 256 336S288 350 288 368Z"/></svg>