<svg xmlns="http://www.w3.org/2000/svg" viewBox="0 0 320 512"><!-- Font Awesome Pro 6.0.0-alpha1 by @fontawesome - https://fontawesome.com License - https://fontawesome.com/license (Commercial License) --><path d="M196 231H18L62 48H280C284 48 288 44 288 40S284 32 280 32H56C52 32 49 35 48 38L0 237C0 240 0 242 2 244C3 246 6 247 8 247H196C255 247 304 296 304 356S255 464 196 464H90C56 464 26 443 16 411C14 406 10 404 5 406C1 407 -1 411 0 416C13 454 49 480 90 480H196C264 480 320 424 320 356S264 231 196 231Z"/></svg>