<svg xmlns="http://www.w3.org/2000/svg" viewBox="0 0 448 512"><!-- Font Awesome Pro 6.0.0-alpha1 by @fontawesome - https://fontawesome.com License - https://fontawesome.com/license (Commercial License) --><path d="M0 160C0 160 0 160 0 160C0 160 0 160 0 160L0 160ZM448 160C448 160 448 160 448 160L448 160C448 160 448 160 448 160ZM352 64H232C232 63 233 36 261 14C264 12 265 7 262 3C260 0 255 -1 251 2C216 28 216 63 216 64C216 64 216 64 216 64H96C43 64 0 107 0 160C0 178 14 192 32 192H48V228C48 310 97 419 178 458L220 479C222 480 223 480 224 480S226 480 227 479L270 458C351 419 400 310 400 228V192H416C434 192 448 178 448 160C448 107 405 64 352 64ZM384 228C384 305 339 407 263 444L224 463L185 444C109 407 64 305 64 228V192H384V228ZM416 176H32C23 176 16 169 16 160C16 116 52 80 96 80H352C396 80 432 116 432 160C432 169 425 176 416 176Z"/></svg>