<svg xmlns="http://www.w3.org/2000/svg" viewBox="0 0 576 512"><!-- Font Awesome Pro 6.0.0-alpha1 by @fontawesome - https://fontawesome.com License - https://fontawesome.com/license (Commercial License) --><path d="M504 312H360C356 312 352 316 352 320S356 328 360 328H504C508 328 512 324 512 320S508 312 504 312ZM176 256C211 256 240 227 240 192S211 128 176 128C141 128 112 157 112 192S141 256 176 256ZM176 144C202 144 224 166 224 192S202 240 176 240S128 218 128 192S150 144 176 144ZM512 32H64C29 32 0 61 0 96V416C0 451 29 480 64 480H512C547 480 576 451 576 416V96C576 61 547 32 512 32ZM560 416C560 442 538 464 512 464H64C38 464 16 442 16 416V96C16 70 38 48 64 48H512C538 48 560 70 560 96V416ZM504 248H360C356 248 352 252 352 256S356 264 360 264H504C508 264 512 260 512 256S508 248 504 248ZM504 184H360C356 184 352 188 352 192S356 200 360 200H504C508 200 512 196 512 192S508 184 504 184ZM208 288H144C100 288 64 324 64 368V376C64 380 68 384 72 384S80 380 80 376V368C80 333 109 304 144 304H208C243 304 272 333 272 368V376C272 380 276 384 280 384S288 380 288 376V368C288 324 252 288 208 288Z"/></svg>