<svg xmlns="http://www.w3.org/2000/svg" viewBox="0 0 576 512"><!-- Font Awesome Pro 6.0.0-alpha1 by @fontawesome - https://fontawesome.com License - https://fontawesome.com/license (Commercial License) --><path d="M512 0H64C29 0 0 29 0 64V160C0 195 29 224 64 224H512C547 224 576 195 576 160V64C576 29 547 0 512 0ZM560 160C560 186 538 208 512 208H64C38 208 16 186 16 160V64C16 38 38 16 64 16H512C538 16 560 38 560 64V160ZM504 128H72C68 128 64 132 64 136S68 144 72 144H504C508 144 512 140 512 136S508 128 504 128ZM248 256C244 256 240 260 240 264V424C240 464 208 496 168 496S96 464 96 424V416C96 381 125 352 160 352C164 352 168 348 168 344S164 336 160 336C116 336 80 372 80 416V424C80 473 119 512 168 512S256 473 256 424V264C256 260 252 256 248 256ZM416 304C412 304 408 308 408 312S412 320 416 320C451 320 480 349 480 384V392C480 432 448 464 408 464S336 432 336 392V264C336 260 332 256 328 256S320 260 320 264V392C320 441 359 480 408 480S496 441 496 392V384C496 340 460 304 416 304Z"/></svg>