<svg xmlns="http://www.w3.org/2000/svg" viewBox="0 0 384 512"><!-- Font Awesome Pro 6.0.0-alpha1 by @fontawesome - https://fontawesome.com License - https://fontawesome.com/license (Commercial License) --><path d="M288 440H96C92 440 88 444 88 448S92 456 96 456H288C292 456 296 452 296 448S292 440 288 440ZM216 96C216 83 205 72 192 72C179 72 168 83 168 96C168 109 179 120 192 120C205 120 216 109 216 96ZM184 96C184 92 188 88 192 88S200 92 200 96C200 100 196 104 192 104S184 100 184 96ZM320 384H64C46 384 32 398 32 416V480C32 498 46 512 64 512H320C338 512 352 498 352 480V416C352 398 338 384 320 384ZM336 480C336 489 329 496 320 496H64C55 496 48 489 48 480V416C48 407 55 400 64 400H320C329 400 336 407 336 416V480ZM377 306L306 224H342C364 224 376 198 362 182L212 9C206 3 199 0 192 0C185 0 178 3 172 9L22 182C8 198 20 224 42 224H78L7 306C-9 324 4 352 28 352H136C140 352 144 348 144 344S140 336 136 336H28C18 336 12 324 19 316L90 234L113 208H42C33 208 29 199 34 192L184 19C187 16 194 14 199 19L350 192C355 199 351 208 342 208H271L294 234L365 316C371 324 366 336 356 336H248C244 336 240 340 240 344S244 352 248 352H356C380 352 393 324 377 306Z"/></svg>