<svg xmlns="http://www.w3.org/2000/svg" viewBox="0 0 512 512"><!-- Font Awesome Pro 6.0.0-alpha1 by @fontawesome - https://fontawesome.com License - https://fontawesome.com/license (Commercial License) --><path d="M16 101C16 54 54 16 101 16C119 16 146 26 159 39C162 42 167 42 170 38C173 35 173 30 170 27C153 12 123 0 101 0C45 0 0 45 0 101C0 118 7 141 16 155C19 159 24 160 27 157C31 155 32 150 30 146C22 135 16 114 16 101ZM256 64C132 64 32 164 32 288C32 347 55 400 92 440L34 498C31 502 31 507 34 510C37 513 43 513 46 510L104 452C144 489 197 512 256 512S368 489 408 452L466 510C470 513 475 513 478 510C481 507 481 501 478 498L420 440C457 400 480 347 480 288C480 164 380 64 256 64ZM256 496C141 496 48 403 48 288S141 80 256 80S464 173 464 288S371 496 256 496ZM411 0C389 0 359 12 342 27C339 30 339 35 342 38C345 42 350 42 353 39C367 26 393 16 411 16C458 16 496 54 496 101C496 114 490 135 482 146C480 150 481 155 485 157C489 160 494 158 496 155C505 141 512 117 512 101C512 45 467 0 411 0ZM320 368H208L326 205C328 202 328 199 327 196C326 194 323 192 320 192H192C188 192 184 196 184 200S188 208 192 208H304L186 371C184 374 184 377 185 380C186 382 189 384 192 384H320C324 384 328 380 328 376S324 368 320 368Z"/></svg>