<svg xmlns="http://www.w3.org/2000/svg" viewBox="0 0 512 512"><!-- Font Awesome Pro 6.0.0-alpha1 by @fontawesome - https://fontawesome.com License - https://fontawesome.com/license (Commercial License) --><path d="M24 128C28 128 32 124 32 120V112C32 103 39 96 48 96H464C473 96 480 103 480 112V120C480 124 484 128 488 128S496 124 496 120V112C496 94 482 80 464 80H48C30 80 16 94 16 112V120C16 124 20 128 24 128ZM40 48C44 48 48 44 48 40V32C48 23 55 16 64 16H448C457 16 464 23 464 32V40C464 44 468 48 472 48S480 44 480 40V32C480 14 466 0 448 0H64C46 0 32 14 32 32V40C32 44 36 48 40 48ZM502 173C494 165 484 160 473 160H39C28 160 17 165 10 172C3 180 -1 191 0 202L26 477C27 497 44 512 64 512H448C468 512 485 497 486 477L512 202C513 191 509 180 502 173ZM470 475C469 487 460 496 448 496H64C52 496 43 487 41 475L16 201C16 194 18 188 22 183C26 179 32 176 39 176H473C480 176 486 179 490 183C494 188 496 194 496 201L470 475ZM256 209C152 209 72 273 77 348C82 418 162 473 256 473S430 418 435 348C440 273 360 209 256 209ZM256 457C170 457 97 407 93 347C91 322 100 298 120 277C150 245 201 225 256 225S362 245 392 277C412 298 421 322 419 347C415 407 342 457 256 457ZM232 330C227 335 224 341 224 348C224 364 238 376 256 376S288 364 288 348C288 341 285 335 280 330C268 317 244 317 232 330ZM256 360C247 360 240 355 240 348C240 345 242 342 243 341C246 338 251 336 256 336C261 336 266 338 269 341C270 342 272 345 272 348C272 355 265 360 256 360Z"/></svg>