<svg xmlns="http://www.w3.org/2000/svg" viewBox="0 0 640 512"><!-- Font Awesome Pro 6.0.0-alpha1 by @fontawesome - https://fontawesome.com License - https://fontawesome.com/license (Commercial License) --><path d="M464 65C455 65 448 72 448 81S455 97 464 97S480 90 480 81S473 65 464 65ZM632 32H539C541 28 543 24 544 19C545 14 543 10 540 6C537 2 533 0 528 0H404C335 0 276 58 272 128C183 126 165 42 164 38C163 35 161 32 157 32C154 32 151 33 149 37C148 39 127 84 128 134C113 139 100 148 89 160H74V160C73 160 72 160 72 160C32 160 0 192 0 232V312C0 316 4 320 8 320S16 316 16 312V232C16 201 41 176 72 176H77C69 190 64 206 64 224C64 253 78 279 98 297L87 319C68 357 64 364 64 381C64 386 65 393 66 398L90 494C93 504 103 512 113 512H176C183 512 190 509 195 503C199 497 201 489 199 482L169 385L196 329L280 358V488C280 501 291 512 304 512H360C373 512 384 501 384 488V327C404 310 416 284 416 256C416 256 416 256 416 256C416 256 416 152 416 152L422 154L439 188C445 201 459 209 474 209C478 209 483 208 488 206L519 194C533 188 544 172 544 157L544 85L635 47C639 46 641 42 640 38C639 35 636 32 632 32ZM514 179L482 191C471 196 458 191 453 180L436 147C433 140 417 131 407 139C403 142 400 147 400 152C400 152 400 256 400 256C400 279 390 300 373 315C370 318 368 323 368 327V488C368 492 364 496 360 496H304C300 496 296 492 296 488V358C296 351 291 345 284 343L200 314C194 312 186 315 182 322L154 378C152 381 152 386 153 389L184 486C185 492 181 496 176 496H113C110 496 106 493 106 490L82 394C81 391 80 385 80 381C80 368 82 364 102 326L113 304C116 298 114 290 109 285C90 269 80 247 80 224C80 191 100 163 129 150C131 165 135 179 142 193C162 230 201 254 258 264C258 264 259 264 259 264C263 264 266 261 267 257C268 253 265 249 260 248C209 239 174 218 156 185C135 144 146 91 156 63C168 93 200 142 272 144L288 144V128H288C292 66 344 16 404 16H528C526 24 522 31 516 36C508 43 509 53 515 59C522 67 528 71 528 82L528 157C528 166 521 176 514 179ZM541 69C540 64 537 60 533 56L526 48C526 48 526 48 526 48H592L541 69Z"/></svg>