<svg xmlns="http://www.w3.org/2000/svg" viewBox="0 0 448 512"><!-- Font Awesome Pro 6.0.0-alpha1 by @fontawesome - https://fontawesome.com License - https://fontawesome.com/license (Commercial License) --><path d="M118 212H82C72 212 64 220 64 230C64 280 104 320 154 320H190C200 320 208 312 208 302C208 252 168 212 118 212ZM190 304H154C113 304 80 271 80 230C80 229 81 228 82 228H118C159 228 192 261 192 302C192 303 191 304 190 304ZM366 212H330C280 212 240 252 240 302C240 312 248 320 258 320H294C344 320 384 280 384 230C384 220 376 212 366 212ZM294 304H258C257 304 256 303 256 302C256 261 289 228 330 228H366C367 228 368 229 368 230C368 271 335 304 294 304ZM224 0C100 0 0 88 0 232C0 344 134 457 195 502C203 509 214 512 224 512S245 509 253 502C314 457 448 344 448 232C448 88 348 0 224 0ZM244 490C238 494 231 496 224 496S210 494 204 490C148 447 16 337 16 232C16 105 102 16 224 16S432 105 432 232C432 337 300 447 244 490Z"/></svg>