<svg xmlns="http://www.w3.org/2000/svg" viewBox="0 0 448 512"><!-- Font Awesome Pro 6.0.0-alpha1 by @fontawesome - https://fontawesome.com License - https://fontawesome.com/license (Commercial License) --><path d="M344 56H104C100 56 96 60 96 64V64C96 68 100 72 104 72H344C348 72 352 68 352 64V64C352 60 348 56 344 56ZM0 192L0 192C0 196 4 200 8 200H440C444 200 448 196 448 192V192C448 188 444 184 440 184H8C4 184 0 188 0 192ZM96 320L96 320C96 324 100 328 104 328H344C348 328 352 324 352 320L352 320C352 316 348 312 344 312H104C100 312 96 316 96 320ZM8 456H440C444 456 448 452 448 448L448 448C448 444 444 440 440 440H8C4 440 0 444 0 448L0 448C0 452 4 456 8 456Z"/></svg>