<svg xmlns="http://www.w3.org/2000/svg" viewBox="0 0 448 512"><!-- Font Awesome Pro 6.0.0-alpha1 by @fontawesome - https://fontawesome.com License - https://fontawesome.com/license (Commercial License) --><path d="M440 56H8C4 56 0 60 0 64V64C0 68 4 72 8 72H440C444 72 448 68 448 64V64C448 60 444 56 440 56ZM0 192L0 192C0 196 4 200 8 200H440C444 200 448 196 448 192V192C448 188 444 184 440 184H8C4 184 0 188 0 192ZM0 320L0 320C0 324 4 328 8 328H440C444 328 448 324 448 320L448 320C448 316 444 312 440 312H8C4 312 0 316 0 320ZM8 456H440C444 456 448 452 448 448L448 448C448 444 444 440 440 440H8C4 440 0 444 0 448L0 448C0 452 4 456 8 456Z"/></svg>