<svg xmlns="http://www.w3.org/2000/svg" viewBox="0 0 640 512"><!-- Font Awesome Pro 6.0.0-alpha1 by @fontawesome - https://fontawesome.com License - https://fontawesome.com/license (Commercial License) --><path d="M104 440C100 440 96 444 96 448S100 456 104 456H456L436 440H104ZM536 312H506L526 328H536C540 328 544 324 544 320S540 312 536 312ZM536 184H345L365 200H536C540 200 544 196 544 192S540 184 536 184ZM536 72C540 72 544 68 544 64S540 56 536 56H184L204 72H536ZM104 200H134L114 184H104C100 184 96 188 96 192S100 200 104 200ZM104 328H295L275 312H104C100 312 96 316 96 320S100 328 104 328ZM637 498L13 2C12 1 10 0 8 0C6 0 3 1 2 3C-1 6 0 12 3 14L627 510C629 511 630 512 632 512C634 512 637 511 638 509C641 506 640 500 637 498Z"/></svg>