<svg xmlns="http://www.w3.org/2000/svg" viewBox="0 0 576 512"><!-- Font Awesome Pro 6.0.0-alpha1 by @fontawesome - https://fontawesome.com License - https://fontawesome.com/license (Commercial License) --><path d="M574 339L502 259C499 255 493 255 490 259L418 339C415 342 415 347 419 350C422 353 427 353 430 349L488 285V296C488 404 403 491 296 496V216H376C380 216 384 212 384 208S380 200 376 200H296V159C336 155 368 121 368 80C368 36 332 0 288 0S208 36 208 80C208 121 240 155 280 159V200H200C196 200 192 204 192 208S196 216 200 216H280V496C173 491 88 404 88 296V285L146 349C148 351 150 352 152 352C154 352 156 351 157 350C161 347 161 342 158 339L86 259C83 255 77 255 74 259L2 339C-1 342 -1 347 3 350C6 353 11 353 14 349L72 285V296C72 412 165 507 280 512V512H296V512C411 507 504 412 504 296V285L562 349C564 351 566 352 568 352C570 352 572 351 573 350C577 347 577 342 574 339ZM224 80C224 45 253 16 288 16S352 45 352 80C352 115 323 144 288 144S224 115 224 80Z"/></svg>