<svg xmlns="http://www.w3.org/2000/svg" viewBox="0 0 576 512"><!-- Font Awesome Pro 6.0.0-alpha1 by @fontawesome - https://fontawesome.com License - https://fontawesome.com/license (Commercial License) --><path d="M181 90C185 87 185 82 182 79C178 74 176 69 176 64C176 41 222 16 288 16C354 16 400 41 400 64C400 69 398 74 394 79C391 82 392 87 395 90C396 92 398 92 400 92C402 92 405 91 406 89C413 81 416 73 416 64C416 28 360 0 288 0S160 28 160 64C160 73 163 81 170 89C173 93 178 93 181 90ZM572 453L534 374C527 361 527 345 534 331C538 322 542 315 546 309C555 293 560 283 560 256C560 205 513 160 460 160C435 160 411 170 393 188L321 262C308 257 296 256 288 256C280 256 268 257 256 261L183 188C166 170 141 160 117 160C63 160 16 205 16 256C16 283 21 293 30 309C34 315 38 322 42 331C49 345 49 361 42 374L4 453C-2 466 -1 481 6 493C14 505 26 512 41 512H536C550 512 562 505 570 493C577 481 578 466 572 453ZM41 496C32 496 24 492 20 485C15 477 15 468 19 460L57 381C66 364 66 342 57 324C52 314 48 307 44 301C36 286 32 279 32 256C32 213 71 176 117 176C137 176 157 185 172 200L240 268C221 278 205 294 195 313L104 496H41ZM122 496L210 320C230 280 270 272 288 272C306 272 346 280 366 320L454 496H122ZM556 484C552 492 544 496 536 496H472L381 313C371 294 355 278 336 268L405 199C419 184 439 176 460 176C505 176 544 213 544 256C544 279 540 286 532 301C528 307 524 314 519 324C510 342 510 364 519 382L557 460C561 468 561 477 556 484ZM208 144C208 188 244 224 288 224S368 188 368 144S332 64 288 64S208 100 208 144ZM352 144C352 179 323 208 288 208S224 179 224 144C224 109 253 80 288 80S352 109 352 144Z"/></svg>