<svg xmlns="http://www.w3.org/2000/svg" viewBox="0 0 384 512"><!-- Font Awesome Pro 6.0.0-alpha1 by @fontawesome - https://fontawesome.com License - https://fontawesome.com/license (Commercial License) --><path d="M338 290L192 429L46 290C42 287 37 287 34 290C31 294 31 299 34 302L186 446C188 447 190 448 192 448S196 447 198 446L350 302C353 299 353 294 350 290C347 287 342 287 338 290ZM186 254C188 255 190 256 192 256S196 255 198 254L350 110C353 107 353 102 350 98C347 95 342 95 338 98L192 237L46 98C42 95 37 95 34 98C31 102 31 107 34 110L186 254Z"/></svg>