<svg xmlns="http://www.w3.org/2000/svg" viewBox="0 0 320 512"><!-- Font Awesome Pro 6.0.0-alpha1 by @fontawesome - https://fontawesome.com License - https://fontawesome.com/license (Commercial License) --><path d="M280 280H179C222 235 263 170 263 117C263 45 224 0 160 0S57 45 57 117C57 170 98 235 141 280H40C36 280 32 284 32 288S36 296 40 296H152V504C152 508 156 512 160 512S168 508 168 504V296H280C284 296 288 292 288 288S284 280 280 280ZM160 16C215 16 247 54 247 117C247 172 197 240 160 277C123 240 73 172 73 117C73 54 105 16 160 16Z"/></svg>