<svg xmlns="http://www.w3.org/2000/svg" viewBox="0 0 448 512"><!-- Font Awesome Pro 6.0.0-alpha1 by @fontawesome - https://fontawesome.com License - https://fontawesome.com/license (Commercial License) --><path d="M445 249C440 218 430 192 415 171C398 148 377 134 351 129C319 124 260 140 224 160C188 140 129 124 97 129C71 134 50 148 33 171C18 192 8 218 3 249C-9 323 15 405 52 454C125 552 206 496 224 496C241 496 323 553 396 454C434 404 457 321 445 249ZM383 445C317 534 251 479 224 479C196 479 131 534 65 445C30 398 8 320 19 252C26 210 47 154 100 145C116 142 166 146 224 178C282 146 331 142 348 145C401 154 422 209 429 252C440 320 418 398 383 445ZM224 112C301 112 320 62 320 16L320 16C319 7 313 1 304 0L304 0C216 0 208 63 208 95C208 104 215 111 224 112ZM303 16C305 16 311 96 225 96C223 96 215 16 303 16Z"/></svg>