<svg xmlns="http://www.w3.org/2000/svg" viewBox="0 0 512 512"><!-- Font Awesome Pro 6.0.0-alpha1 by @fontawesome - https://fontawesome.com License - https://fontawesome.com/license (Commercial License) --><path d="M168 64C170 64 172 64 174 64C186 64 201 62 211 52C211 52 212 51 212 51C224 38 225 18 224 8C224 4 220 0 216 0C206 0 186 0 173 12C157 28 160 54 160 57C161 61 164 64 168 64ZM184 24C190 18 200 16 208 16C208 26 205 35 200 40C195 45 186 48 176 48C176 40 178 30 184 24ZM360 64C362 64 364 64 367 64C379 64 393 62 404 52C404 52 404 51 404 51C416 38 417 18 416 8C416 4 413 0 409 0C398 0 378 0 365 12C350 28 353 54 353 57C353 61 357 64 360 64ZM376 24C383 18 393 16 401 16C400 26 397 35 393 40C387 45 379 48 369 48C369 40 370 30 376 24ZM80 448C89 448 96 441 96 432C96 423 89 416 80 416S64 423 64 432C64 441 71 448 80 448ZM480 224H32C14 224 0 238 0 256V480C0 498 14 512 32 512H480C498 512 512 498 512 480V256C512 238 498 224 480 224ZM496 480C496 489 489 496 480 496H32C23 496 16 489 16 480V376H496V480ZM496 360H16V256C16 247 23 240 32 240H480C489 240 496 247 496 256V360ZM432 288C423 288 416 295 416 304S423 320 432 320S448 313 448 304S441 288 432 288ZM80 288C71 288 64 295 64 304S71 320 80 320S96 313 96 304S89 288 80 288ZM432 448C441 448 448 441 448 432C448 423 441 416 432 416S416 423 416 432C416 441 423 448 432 448ZM303 90C318 93 336 98 348 105L352 107L356 105C376 94 408 86 423 89C460 95 472 140 471 176C471 180 475 184 479 184H479C484 184 487 181 487 176C488 134 472 81 425 73C406 69 373 78 352 89C338 82 321 77 305 74C301 73 297 76 296 81C295 85 298 89 303 90ZM33 184C37 184 41 180 41 176C40 140 52 95 89 89C104 86 136 94 156 105L160 107L164 105C184 94 216 86 231 88C268 95 280 140 279 176C279 180 283 184 287 184H287C292 184 295 181 295 176C296 134 281 81 234 73C214 69 181 78 160 89C139 78 106 70 86 73C39 81 24 134 25 176C25 181 28 184 33 184Z"/></svg>