<svg xmlns="http://www.w3.org/2000/svg" viewBox="0 0 576 512"><!-- Font Awesome Pro 6.0.0-alpha1 by @fontawesome - https://fontawesome.com License - https://fontawesome.com/license (Commercial License) --><path d="M560 96C569 96 576 89 576 80V16C576 7 569 0 560 0H16C7 0 0 7 0 16V80C0 89 7 96 16 96H24V496H8C4 496 0 500 0 504S4 512 8 512H192C196 512 200 508 200 504V328C200 279 239 240 288 240S376 279 376 328V504C376 508 380 512 384 512H568C572 512 576 508 576 504S572 496 568 496H552V96H560ZM16 80V16H560V80H16ZM536 496H392V328C392 271 345 224 288 224S184 271 184 328V496H40V96H536V496Z"/></svg>