<svg xmlns="http://www.w3.org/2000/svg" viewBox="0 0 512 512"><!-- Font Awesome Pro 6.0.0-alpha1 by @fontawesome - https://fontawesome.com License - https://fontawesome.com/license (Commercial License) --><path d="M440 279C436 279 432 283 432 287V440C432 471 407 496 376 496H72C41 496 16 471 16 440V136C16 105 41 80 72 80H224C229 80 232 76 232 72S229 64 224 64H72C32 64 0 96 0 136V440C0 480 32 512 72 512H376C416 512 448 480 448 440V287C448 283 444 279 440 279ZM504 0H296C294 0 292 1 290 2C289 4 288 6 288 8C288 12 292 16 296 16H485L162 338C159 341 159 347 162 350C165 353 171 353 174 350L496 27V216C496 220 500 224 504 224C508 224 512 220 512 216V8C512 4 508 0 504 0Z"/></svg>