<svg xmlns="http://www.w3.org/2000/svg" viewBox="0 0 384 512"><!-- Font Awesome Pro 6.0.0-alpha1 by @fontawesome - https://fontawesome.com License - https://fontawesome.com/license (Commercial License) --><path d="M195 370C191 373 191 378 194 382L282 478C285 481 291 481 294 478L382 382C385 378 385 373 381 370C380 369 378 368 376 368C374 368 372 369 370 371L296 452V40C296 36 292 32 288 32S280 36 280 40V452L206 371C203 367 198 367 195 370ZM3 142C4 143 6 144 8 144C10 144 12 143 14 141L88 60V472C88 476 92 480 96 480S104 476 104 472V60L178 141C181 145 186 145 189 142C193 139 193 134 190 131L102 34C99 31 93 31 90 34L2 131C-1 134 -1 139 3 142Z"/></svg>