<svg xmlns="http://www.w3.org/2000/svg" viewBox="0 0 512 512"><!-- Font Awesome Pro 6.0.0-alpha1 by @fontawesome - https://fontawesome.com License - https://fontawesome.com/license (Commercial License) --><path d="M504 376H30L157 270C161 267 161 262 158 259C155 255 150 255 147 258L3 378C1 379 0 382 0 384S1 389 3 390L147 510C148 511 150 512 152 512C154 512 157 511 158 509C161 506 161 501 157 498L30 392H504C508 392 512 388 512 384C512 380 508 376 504 376ZM8 136H482L355 242C351 245 351 250 354 253C355 255 358 256 360 256C362 256 364 255 365 254L509 134C511 133 512 130 512 128C512 126 511 123 509 122L365 2C362 -1 357 -1 354 3C351 6 351 11 355 14L482 120H8C4 120 0 124 0 128C0 132 4 136 8 136Z"/></svg>