<svg xmlns="http://www.w3.org/2000/svg" viewBox="0 0 448 512"><!-- Font Awesome Pro 6.0.0-alpha1 by @fontawesome - https://fontawesome.com License - https://fontawesome.com/license (Commercial License) --><path d="M98 250C95 253 95 259 98 262L250 414C252 415 254 416 256 416S260 415 262 414C265 411 265 405 262 402L123 264H440C444 264 448 260 448 256S444 248 440 248H123L262 110C265 107 265 101 262 98S253 95 250 98L98 250ZM0 72V440C0 444 4 448 8 448S16 444 16 440V72C16 68 12 64 8 64S0 68 0 72Z"/></svg>