<svg xmlns="http://www.w3.org/2000/svg" viewBox="0 0 384 512"><!-- Font Awesome Pro 6.0.0-alpha1 by @fontawesome - https://fontawesome.com License - https://fontawesome.com/license (Commercial License) --><path d="M198 34C195 31 189 31 186 34L34 186C33 188 32 190 32 192S33 196 34 198C37 201 43 201 46 198L184 59V376C184 380 188 384 192 384S200 380 200 376V59L338 198C341 201 347 201 350 198S353 189 350 186L198 34ZM376 464H8C4 464 0 468 0 472S4 480 8 480H376C380 480 384 476 384 472S380 464 376 464Z"/></svg>