<svg xmlns="http://www.w3.org/2000/svg" viewBox="0 0 448 512"><!-- Font Awesome Pro 6.0.0-alpha1 by @fontawesome - https://fontawesome.com License - https://fontawesome.com/license (Commercial License) --><path d="M178 371L104 452V40C104 36 100 32 96 32S88 36 88 40V452L14 371C12 369 10 368 8 368C6 368 4 369 3 370C-1 373 -1 378 2 381L90 478C93 481 99 481 102 478L190 381C193 378 193 373 189 370C186 367 181 367 178 371ZM424 464H297L430 301C432 299 433 295 431 293C430 290 427 288 424 288H280C276 288 272 292 272 296S276 304 280 304H407L274 467C272 469 271 473 273 475C274 478 277 480 280 480H424C428 480 432 476 432 472S428 464 424 464ZM447 212L359 36C357 31 348 31 345 36L257 212C255 216 257 221 260 223C264 225 269 224 271 220L297 168H407L433 220C434 222 437 224 440 224C441 224 442 224 444 223C448 221 449 216 447 212ZM305 152L352 58L399 152H305Z"/></svg>