<svg xmlns="http://www.w3.org/2000/svg" viewBox="0 0 448 512"><!-- Font Awesome Pro 6.0.0-alpha1 by @fontawesome - https://fontawesome.com License - https://fontawesome.com/license (Commercial License) --><path d="M320 208C316 208 312 212 312 216S316 224 320 224H384C388 224 392 220 392 216S388 208 384 208H360V40C360 37 359 35 356 33C354 32 351 32 348 33L316 49C312 51 311 56 313 60C315 64 320 65 324 63L344 53V208H320ZM102 34C99 31 93 31 90 34L2 131C-1 134 -1 139 3 142C6 145 11 145 14 141L88 60V472C88 476 92 480 96 480S104 476 104 472V60L178 141C180 143 182 144 184 144C186 144 188 143 189 142C193 139 193 134 190 130L102 34ZM344 264C304 264 272 296 272 336S304 408 344 408C367 408 387 397 400 381V408C400 439 375 464 344 464H320C316 464 312 468 312 472S316 480 320 480H344C384 480 416 448 416 408V336C416 296 384 264 344 264ZM344 392C313 392 288 367 288 336S313 280 344 280S400 305 400 336S375 392 344 392Z"/></svg>