<svg xmlns="http://www.w3.org/2000/svg" viewBox="0 0 512 512"><!-- Font Awesome Pro 6.0.0-alpha1 by @fontawesome - https://fontawesome.com License - https://fontawesome.com/license (Commercial License) --><path d="M46 478L208 315V456C208 460 212 464 216 464C221 464 224 460 224 456V296C224 291 221 288 216 288H56C52 288 48 291 48 296C48 300 52 304 56 304H197L34 466C27 474 38 485 46 478ZM296 224H456C460 224 464 221 464 216C464 212 460 208 456 208H315L478 46C485 38 474 27 466 34L304 197V56C304 52 300 48 296 48C291 48 288 52 288 56V216C288 221 291 224 296 224Z"/></svg>