<svg xmlns="http://www.w3.org/2000/svg" viewBox="0 0 448 512"><!-- Font Awesome Pro 6.0.0-alpha1 by @fontawesome - https://fontawesome.com License - https://fontawesome.com/license (Commercial License) --><path d="M178 371L104 452V40C104 36 100 32 96 32S88 36 88 40V452L14 371C12 369 10 368 8 368C6 368 4 369 3 370C-1 373 -1 378 2 381L90 478C93 481 99 481 102 478L190 381C193 378 193 373 189 370C186 367 181 367 178 371ZM424 208H297L430 45C432 43 433 39 431 37C430 34 427 32 424 32H280C276 32 272 36 272 40S276 48 280 48H407L274 211C272 213 271 217 273 219C274 222 277 224 280 224H424C428 224 432 220 432 216S428 208 424 208ZM447 468L359 292C357 287 348 287 345 292L257 468C255 472 257 477 260 479C264 481 269 480 271 476L297 424H407L433 476C434 478 437 480 440 480C441 480 442 480 444 479C448 477 449 472 447 468ZM305 408L352 314L399 408H305Z"/></svg>