<svg xmlns="http://www.w3.org/2000/svg" viewBox="0 0 512 512"><!-- Font Awesome Pro 6.0.0-alpha1 by @fontawesome - https://fontawesome.com License - https://fontawesome.com/license (Commercial License) --><path d="M510 262L414 366C411 369 405 369 402 366C399 362 399 357 402 354L485 264H27L110 354C113 357 113 362 110 366C108 367 106 368 104 368S100 367 98 366L2 262C-1 259 -1 253 2 250L98 146C101 143 107 143 110 146S113 155 110 158L27 248H485L402 158C399 155 399 150 402 146C404 145 406 144 408 144S412 145 414 146L510 250C513 253 513 259 510 262Z"/></svg>