<svg xmlns="http://www.w3.org/2000/svg" viewBox="0 0 640 512"><!-- Font Awesome Pro 6.0.0-alpha1 by @fontawesome - https://fontawesome.com License - https://fontawesome.com/license (Commercial License) --><path d="M540 439L457 302C451 293 442 288 432 288S413 293 407 302L324 439C313 457 327 480 349 480H515C537 480 551 457 540 439ZM527 458C524 462 520 464 515 464H349C344 464 340 462 337 458C336 456 335 452 338 447L421 310C424 305 430 304 432 304C434 304 440 305 443 310L526 447C529 452 528 456 527 458ZM368 224H496C514 224 528 210 528 192V64C528 46 514 32 496 32H368C350 32 336 46 336 64V192C336 210 350 224 368 224ZM352 64C352 55 359 48 368 48H496C505 48 512 55 512 64V192C512 201 505 208 496 208H368C359 208 352 201 352 192V64ZM198 34C195 31 189 31 186 34L98 131C95 134 95 139 99 142C102 145 107 145 110 141L184 60V472C184 476 188 480 192 480S200 476 200 472V60L274 141C276 143 278 144 280 144C282 144 284 143 285 142C289 139 289 134 286 130L198 34Z"/></svg>