<svg xmlns="http://www.w3.org/2000/svg" viewBox="0 0 640 512"><!-- Font Awesome Pro 6.0.0-alpha1 by @fontawesome - https://fontawesome.com License - https://fontawesome.com/license (Commercial License) --><path d="M352 400H160C147 400 136 389 136 376V90L243 190C244 191 246 192 248 192C250 192 252 191 254 189C257 186 257 181 253 178L133 66C130 63 126 63 123 66L3 178C-1 181 -1 186 2 189C5 193 10 193 13 190L120 90V376C120 398 138 416 160 416H352C356 416 360 412 360 408S356 400 352 400ZM638 323C635 319 630 319 627 322L520 422V136C520 114 502 96 480 96H288C284 96 280 100 280 104S284 112 288 112H480C493 112 504 123 504 136V422L397 322C394 319 389 319 386 323C383 326 383 331 387 334L507 446C508 447 510 448 512 448S516 447 517 446L637 334C641 331 641 326 638 323Z"/></svg>