<svg xmlns="http://www.w3.org/2000/svg" viewBox="0 0 448 512"><!-- Font Awesome Pro 6.0.0-alpha1 by @fontawesome - https://fontawesome.com License - https://fontawesome.com/license (Commercial License) --><path d="M2 250C-1 253 -1 259 2 262L154 414C156 415 158 416 160 416S164 415 166 414C169 411 169 405 166 402L27 264H344C348 264 352 260 352 256S348 248 344 248H27L166 110C169 107 169 101 166 98S157 95 154 98L2 250ZM432 72V440C432 444 436 448 440 448S448 444 448 440V72C448 68 444 64 440 64S432 68 432 72Z"/></svg>