<svg xmlns="http://www.w3.org/2000/svg" viewBox="0 0 448 512"><!-- Font Awesome Pro 6.0.0-alpha1 by @fontawesome - https://fontawesome.com License - https://fontawesome.com/license (Commercial License) --><path d="M350 262C353 259 353 253 350 250L198 98C196 97 194 96 192 96S188 97 186 98C183 101 183 107 186 110L325 248H8C4 248 0 252 0 256S4 264 8 264H325L186 402C183 405 183 411 186 414S195 417 198 414L350 262ZM448 440V72C448 68 444 64 440 64S432 68 432 72V440C432 444 436 448 440 448S448 444 448 440Z"/></svg>