<svg xmlns="http://www.w3.org/2000/svg" viewBox="0 0 320 512"><!-- Font Awesome Pro 6.0.0-alpha1 by @fontawesome - https://fontawesome.com License - https://fontawesome.com/license (Commercial License) --><path d="M154 507L50 411C47 408 47 403 50 400S59 397 62 400L152 482V25L62 107C59 110 54 110 50 107C49 106 48 104 48 102S49 98 50 96L154 0C157 -3 163 -3 166 0L270 96C273 99 273 104 270 107C266 110 261 110 258 107L168 25V482L258 400C261 397 266 397 270 400C271 402 272 404 272 406S271 410 270 411L166 507C163 510 157 510 154 507Z"/></svg>