<svg xmlns="http://www.w3.org/2000/svg" viewBox="0 0 448 512"><!-- Font Awesome Pro 6.0.0-alpha1 by @fontawesome - https://fontawesome.com License - https://fontawesome.com/license (Commercial License) --><path d="M14 141L88 60V472C88 476 92 480 96 480S104 476 104 472V60L178 141C180 143 182 144 184 144C186 144 188 143 189 142C193 139 193 134 190 130L102 34C99 31 93 31 90 34L2 130C-1 134 -1 139 3 142C6 145 11 145 14 141ZM424 208H297L430 45C432 43 433 39 431 37C430 34 427 32 424 32H280C276 32 272 36 272 40S276 48 280 48H407L274 211C272 213 271 217 273 219C274 222 277 224 280 224H424C428 224 432 220 432 216S428 208 424 208ZM447 468L359 292C356 287 348 287 345 292L257 468C255 472 256 477 260 479C264 481 269 480 271 476L297 424H407L433 476C434 478 437 480 440 480C441 480 442 480 444 479C448 477 449 472 447 468ZM305 408L352 314L399 408H305Z"/></svg>