<svg xmlns="http://www.w3.org/2000/svg" viewBox="0 0 640 512"><!-- Font Awesome Pro 6.0.0-alpha1 by @fontawesome - https://fontawesome.com License - https://fontawesome.com/license (Commercial License) --><path d="M496 288H368C350 288 336 302 336 320V448C336 466 350 480 368 480H496C514 480 528 466 528 448V320C528 302 514 288 496 288ZM512 448C512 457 505 464 496 464H368C359 464 352 457 352 448V320C352 311 359 304 368 304H496C505 304 512 311 512 320V448ZM540 183L457 46C451 37 442 32 432 32S413 37 407 46L324 183C313 201 327 224 349 224H515C537 224 551 201 540 183ZM527 202C524 206 520 208 515 208H349C344 208 340 206 337 202C336 200 335 196 338 191L421 54C424 49 430 48 432 48C434 48 440 49 443 54L526 191C529 196 528 200 527 202ZM198 34C195 31 189 31 186 34L98 131C95 134 95 139 99 142C102 145 107 145 110 141L184 60V472C184 476 188 480 192 480S200 476 200 472V60L274 141C276 143 278 144 280 144C282 144 284 143 285 142C289 139 289 134 286 130L198 34Z"/></svg>