<svg xmlns="http://www.w3.org/2000/svg" viewBox="0 0 512 512"><!-- Font Awesome Pro 6.0.0-alpha1 by @fontawesome - https://fontawesome.com License - https://fontawesome.com/license (Commercial License) --><path d="M178 371L104 452V40C104 36 100 32 96 32S88 36 88 40V452L14 371C12 369 10 368 8 368C6 368 4 369 3 370C-1 373 -1 378 2 381L90 478C93 481 99 481 102 478L190 381C193 378 193 373 189 370C186 367 181 367 178 371ZM232 192H376C380 192 384 188 384 184S380 176 376 176H232C228 176 224 180 224 184S228 192 232 192ZM232 64H312C316 64 320 60 320 56S316 48 312 48H232C228 48 224 52 224 56S228 64 232 64ZM232 320H440C444 320 448 316 448 312S444 304 440 304H232C228 304 224 308 224 312S228 320 232 320ZM504 432H232C228 432 224 436 224 440S228 448 232 448H504C508 448 512 444 512 440S508 432 504 432Z"/></svg>