<svg xmlns="http://www.w3.org/2000/svg" viewBox="0 0 384 512"><!-- Font Awesome Pro 6.0.0-alpha1 by @fontawesome - https://fontawesome.com License - https://fontawesome.com/license (Commercial License) --><path d="M186 382C189 385 195 385 198 382L350 230C351 228 352 226 352 224S351 220 350 218C347 215 341 215 338 218L200 357V40C200 36 196 32 192 32S184 36 184 40V357L46 218C43 215 37 215 34 218S31 227 34 230L186 382ZM8 480H376C380 480 384 476 384 472S380 464 376 464H8C4 464 0 468 0 472S4 480 8 480Z"/></svg>