<svg xmlns="http://www.w3.org/2000/svg" viewBox="0 0 448 512"><!-- Font Awesome Pro 6.0.0-alpha1 by @fontawesome - https://fontawesome.com License - https://fontawesome.com/license (Commercial License) --><path d="M400 288H272C254 288 240 302 240 320V448C240 466 254 480 272 480H400C418 480 432 466 432 448V320C432 302 418 288 400 288ZM416 448C416 457 409 464 400 464H272C263 464 256 457 256 448V320C256 311 263 304 272 304H400C409 304 416 311 416 320V448ZM444 183L361 46C355 37 346 32 336 32S317 37 311 46L228 183C217 201 231 224 253 224H419C441 224 455 201 444 183ZM431 202C428 206 424 208 419 208H253C248 208 244 206 241 202C240 200 239 196 242 191L325 54C328 49 334 48 336 48C338 48 344 49 347 54L430 191C433 196 432 200 431 202ZM178 371L104 452V40C104 36 100 32 96 32S88 36 88 40V452L14 371C12 369 10 368 8 368C6 368 4 369 3 370C-1 373 -1 378 2 381L90 478C93 481 99 481 102 478L190 381C193 378 193 373 189 370C186 367 181 367 178 371Z"/></svg>