<svg xmlns="http://www.w3.org/2000/svg" viewBox="0 0 512 512"><!-- Font Awesome Pro 6.0.0-alpha1 by @fontawesome - https://fontawesome.com License - https://fontawesome.com/license (Commercial License) --><path d="M14 141L88 60V472C88 476 92 480 96 480S104 476 104 472V60L178 141C180 143 182 144 184 144C186 144 188 143 189 142C193 139 193 134 190 130L102 34C99 31 93 31 90 34L2 130C-1 134 -1 139 3 142C6 145 11 145 14 141ZM232 192H376C380 192 384 188 384 184S380 176 376 176H232C228 176 224 180 224 184S228 192 232 192ZM232 64H312C316 64 320 60 320 56S316 48 312 48H232C228 48 224 52 224 56S228 64 232 64ZM232 320H440C444 320 448 316 448 312S444 304 440 304H232C228 304 224 308 224 312S228 320 232 320ZM504 432H232C228 432 224 436 224 440S228 448 232 448H504C508 448 512 444 512 440S508 432 504 432Z"/></svg>