<svg xmlns="http://www.w3.org/2000/svg" viewBox="0 0 448 512"><!-- Font Awesome Pro 6.0.0-alpha1 by @fontawesome - https://fontawesome.com License - https://fontawesome.com/license (Commercial License) --><path d="M408 128H328C324 128 320 132 320 136S324 144 328 144H408C421 144 432 155 432 168V472C432 485 421 496 408 496H40C27 496 16 485 16 472V168C16 155 27 144 40 144H120C124 144 128 140 128 136S124 128 120 128H40C18 128 0 146 0 168V472C0 494 18 512 40 512H408C430 512 448 494 448 472V168C448 146 430 128 408 128ZM122 274C119 277 119 283 122 286L218 382C220 383 222 384 224 384S228 383 230 382L326 286C329 283 329 277 326 274S317 271 314 274L232 357V8C232 4 228 0 224 0S216 4 216 8V357L134 274C131 271 125 271 122 274Z"/></svg>