<svg xmlns="http://www.w3.org/2000/svg" viewBox="0 0 448 512"><!-- Font Awesome Pro 6.0.0-alpha1 by @fontawesome - https://fontawesome.com License - https://fontawesome.com/license (Commercial License) --><path d="M412 357C416 359 417 364 415 368C413 371 411 372 408 372C407 372 405 372 404 371L232 270V472C232 476 228 480 224 480S216 476 216 472V270L44 371C43 372 41 372 40 372C37 372 35 371 33 368C31 364 32 359 36 357L208 256L36 155C32 153 31 148 33 144C35 140 40 139 44 141L216 242V40C216 36 220 32 224 32S232 36 232 40V242L404 141C408 139 413 140 415 144C417 148 416 153 412 155L240 256L412 357Z"/></svg>