<svg xmlns="http://www.w3.org/2000/svg" viewBox="0 0 448 512"><!-- Font Awesome Pro 6.0.0-alpha1 by @fontawesome - https://fontawesome.com License - https://fontawesome.com/license (Commercial License) --><path d="M320 80H304V40C304 18 286 0 264 0H184C162 0 144 18 144 40V80H128C57 80 0 137 0 208V448C0 483 29 512 64 512H384C419 512 448 483 448 448V208C448 137 391 80 320 80ZM160 40C160 27 171 16 184 16H264C277 16 288 27 288 40V80H160V40ZM352 496H96V392H352V496ZM352 376H96V352C96 326 118 304 144 304H304C330 304 352 326 352 352V376ZM432 448C432 474 410 496 384 496H368V352C368 317 339 288 304 288H144C109 288 80 317 80 352V496H64C38 496 16 474 16 448V208C16 146 66 96 128 96H320C382 96 432 146 432 208V448ZM312 184H136C132 184 128 188 128 192S132 200 136 200H312C316 200 320 196 320 192S316 184 312 184Z"/></svg>