<svg xmlns="http://www.w3.org/2000/svg" viewBox="0 0 576 512"><!-- Font Awesome Pro 6.0.0-alpha1 by @fontawesome - https://fontawesome.com License - https://fontawesome.com/license (Commercial License) --><path d="M565 100L487 13C476 0 458 -3 443 3L351 46C299 70 257 110 228 163L208 201C181 250 141 288 93 310L24 342C12 348 4 359 1 373C-2 387 2 402 11 412L89 499C97 508 107 512 117 512C123 512 128 511 133 509L226 466C277 442 319 402 348 349L368 311C395 262 435 224 483 202L552 170C564 164 572 153 575 139C578 125 574 110 565 100ZM17 376C18 367 24 360 31 357L100 325C151 301 193 261 222 208L242 171C269 121 309 83 357 61L450 18C458 14 468 16 475 24L514 67L412 115C360 138 318 179 290 231L269 269C242 319 202 357 154 379L47 428L23 402C17 395 15 385 17 376ZM545 155L476 187C425 211 383 251 354 304L334 341C307 391 267 429 219 451L126 494C118 498 108 496 101 488L58 441L161 393C212 370 254 329 283 277L304 239C331 190 370 152 418 129L525 80L553 110C559 117 561 127 559 136C558 145 552 152 545 155Z"/></svg>