<svg xmlns="http://www.w3.org/2000/svg" viewBox="0 0 576 512"><!-- Font Awesome Pro 6.0.0-alpha1 by @fontawesome - https://fontawesome.com License - https://fontawesome.com/license (Commercial License) --><path d="M528 256H240C214 256 192 278 192 304V464C192 490 214 512 240 512H528C554 512 576 490 576 464V304C576 278 554 256 528 256ZM560 464C560 482 546 496 528 496H240C222 496 208 482 208 464V304C208 286 222 272 240 272H528C546 272 560 286 560 304V464ZM16 432V208C16 190 30 176 48 176H400C418 176 432 190 432 208V216C432 220 436 224 440 224L440 224C444 224 448 220 448 216V208C448 182 426 160 400 160H320V99C320 49 283 5 233 0C176 -5 128 40 128 96V160H48C22 160 0 182 0 208V432C0 458 22 480 48 480H152C156 480 160 476 160 472L160 472C160 468 156 464 152 464H48C30 464 16 450 16 432ZM144 96C144 52 180 16 224 16S304 52 304 96V160H144V96ZM456 320C452 320 448 324 448 328V368C448 403 419 432 384 432S320 403 320 368V328C320 324 316 320 312 320S304 324 304 328V368C304 412 340 448 384 448S464 412 464 368V328C464 324 460 320 456 320Z"/></svg>