<svg xmlns="http://www.w3.org/2000/svg" viewBox="0 0 512 512"><!-- Font Awesome Pro 6.0.0-alpha1 by @fontawesome - https://fontawesome.com License - https://fontawesome.com/license (Commercial License) --><path d="M496 202L386 187L428 83C433 70 423 57 411 57C408 57 405 58 402 60L308 120L273 13C271 4 263 0 256 0S241 4 239 13L204 120L110 60C107 58 104 57 101 57C89 57 79 70 84 83L126 187L16 202C-2 205 -6 229 10 237L108 290L33 373C22 386 32 404 47 404C48 404 49 404 51 404L159 380L155 493C155 504 164 512 174 512C179 512 184 510 188 505L256 416L324 505C328 510 333 512 338 512C348 512 357 504 357 493L353 380L461 404C463 404 464 404 465 404C480 404 490 386 479 373L404 290L502 237C518 229 514 205 496 202ZM495 223L397 276C392 278 389 282 388 287C388 292 389 297 392 301L467 384C467 384 468 385 467 387C467 387 466 388 465 388C465 388 465 388 465 388L356 365C355 364 354 364 353 364C349 364 345 366 343 368C339 371 337 376 337 381L341 493C341 494 341 495 340 495C340 496 339 496 338 496L337 495L269 406C266 402 261 400 256 400H256C251 400 246 402 243 406L175 495C174 496 174 496 174 496C173 496 172 496 172 495C171 495 171 494 171 493L175 381C176 376 173 371 170 368C167 366 163 364 159 364C158 364 157 364 156 365L47 388C46 388 45 387 45 387C44 385 45 384 45 384L120 301C123 297 124 292 124 287C123 282 120 278 115 276L17 223C17 223 16 222 16 220C16 219 17 218 18 218L128 203C133 202 137 199 140 195C142 191 142 186 141 181L99 77C98 76 98 75 99 74C99 74 100 74 101 74C101 74 101 74 102 74L196 134C199 135 201 136 204 136C206 136 208 136 210 135C215 133 218 130 220 125L254 18C254 17 255 16 256 16S258 17 258 18L292 125C294 130 297 133 302 135C304 136 306 136 308 136C311 136 314 135 316 134L411 73C412 73 413 74 413 74C414 75 414 76 413 77L371 181C370 186 370 191 372 195C375 199 379 202 384 203L494 218C495 218 496 219 496 220C496 222 495 223 495 223Z"/></svg>