<svg xmlns="http://www.w3.org/2000/svg" viewBox="0 0 320 512"><!-- Font Awesome Pro 6.0.0-alpha1 by @fontawesome - https://fontawesome.com License - https://fontawesome.com/license (Commercial License) --><path d="M232 229C256 215 272 189 272 160C272 116 236 80 192 80H136V8C136 4 132 0 128 0S120 4 120 8V80H56C34 80 16 98 16 120V392C16 414 34 432 56 432H120V504C120 508 124 512 128 512S136 508 136 504V432H200C257 432 304 385 304 328C304 282 274 243 232 229ZM192 96C227 96 256 125 256 160S227 224 192 224H136V96H192ZM32 120C32 107 43 96 56 96H120V224H32V120ZM56 416C43 416 32 405 32 392V240H120V416H56ZM200 416H136V240H200C249 240 288 279 288 328S249 416 200 416Z"/></svg>