<svg xmlns="http://www.w3.org/2000/svg" viewBox="0 0 576 512"><!-- Font Awesome Pro 6.0.0-alpha1 by @fontawesome - https://fontawesome.com License - https://fontawesome.com/license (Commercial License) --><path d="M480 320C470 320 460 322 450 325C469 308 480 283 480 256C480 203 437 160 384 160C374 160 364 162 354 165C373 148 384 123 384 96C384 43 341 0 288 0S192 43 192 96C192 123 203 148 222 165C212 162 202 160 192 160C139 160 96 203 96 256C96 283 107 308 126 325C116 322 106 320 96 320C43 320 0 363 0 416S43 512 96 512S192 469 192 416C192 389 181 364 162 347C172 350 182 352 192 352S212 350 222 347C203 364 192 389 192 416C192 469 235 512 288 512S384 469 384 416C384 389 373 364 354 347C364 350 374 352 384 352S404 350 414 347C395 364 384 389 384 416C384 469 427 512 480 512S576 469 576 416S533 320 480 320ZM176 416C176 460 140 496 96 496C52 496 16 460 16 416S52 336 96 336C140 336 176 372 176 416ZM208 96C208 52 244 16 288 16C332 16 368 52 368 96S332 176 288 176C244 176 208 140 208 96ZM112 256C112 212 148 176 192 176C236 176 272 212 272 256S236 336 192 336C148 336 112 300 112 256ZM368 416C368 460 332 496 288 496C244 496 208 460 208 416S244 336 288 336C332 336 368 372 368 416ZM288 320C278 320 268 322 258 325C277 308 288 283 288 256S277 204 258 187C268 190 278 192 288 192S308 190 318 187C299 204 288 229 288 256S299 308 318 325C308 322 298 320 288 320ZM304 256C304 212 340 176 384 176C428 176 464 212 464 256S428 336 384 336C340 336 304 300 304 256ZM480 496C436 496 400 460 400 416S436 336 480 336C524 336 560 372 560 416S524 496 480 496Z"/></svg>