<svg xmlns="http://www.w3.org/2000/svg" viewBox="0 0 448 512"><!-- Font Awesome Pro 6.0.0-alpha1 by @fontawesome - https://fontawesome.com License - https://fontawesome.com/license (Commercial License) --><path d="M384 0H64C29 0 0 29 0 64V448C0 483 29 512 64 512H384C419 512 448 483 448 448V64C448 29 419 0 384 0ZM432 448C432 474 410 496 384 496H64C38 496 16 474 16 448V64C16 38 38 16 64 16H384C410 16 432 38 432 64V448ZM376 120H200C196 120 192 124 192 128S196 136 200 136H376C380 136 384 132 384 128S380 120 376 120ZM376 248H200C196 248 192 252 192 256S196 264 200 264H376C380 264 384 260 384 256S380 248 376 248ZM376 376H200C196 376 192 380 192 384S196 392 200 392H376C380 392 384 388 384 384S380 376 376 376ZM104 88H88C70 88 56 102 56 120V136C56 154 70 168 88 168H104C122 168 136 154 136 136V120C136 102 122 88 104 88ZM120 136C120 145 113 152 104 152H88C79 152 72 145 72 136V120C72 111 79 104 88 104H104C113 104 120 111 120 120V136ZM104 216H88C70 216 56 230 56 248V264C56 282 70 296 88 296H104C122 296 136 282 136 264V248C136 230 122 216 104 216ZM120 264C120 273 113 280 104 280H88C79 280 72 273 72 264V248C72 239 79 232 88 232H104C113 232 120 239 120 248V264ZM104 344H88C70 344 56 358 56 376V392C56 410 70 424 88 424H104C122 424 136 410 136 392V376C136 358 122 344 104 344ZM120 392C120 401 113 408 104 408H88C79 408 72 401 72 392V376C72 367 79 360 88 360H104C113 360 120 367 120 376V392Z"/></svg>