<svg xmlns="http://www.w3.org/2000/svg" viewBox="0 0 512 512"><!-- Font Awesome Pro 6.0.0-alpha1 by @fontawesome - https://fontawesome.com License - https://fontawesome.com/license (Commercial License) --><path d="M256 16C123 16 16 123 16 256S123 496 256 496S496 389 496 256S389 16 256 16ZM256 480C132 480 32 380 32 256C32 206 49 160 76 123L426 402C384 450 324 480 256 480ZM192 195V144H288C332 144 368 180 368 224C368 257 348 284 320 297L192 195ZM334 308C363 292 384 260 384 224C384 171 341 128 288 128H184C180 128 176 132 176 136V182L86 110C128 62 188 32 256 32C380 32 480 132 480 256C480 306 463 352 436 389L334 308ZM184 384C188 384 192 380 192 376V320H237L217 304H192V284L176 272V376C176 380 180 384 184 384Z"/></svg>