<svg xmlns="http://www.w3.org/2000/svg" viewBox="0 0 512 512"><!-- Font Awesome Pro 6.0.0-alpha1 by @fontawesome - https://fontawesome.com License - https://fontawesome.com/license (Commercial License) --><path d="M378 232C382 231 385 227 384 222C383 218 379 215 374 216L328 225V200C328 192 326 184 324 177L356 159C360 157 361 152 359 148C357 144 352 143 348 145L317 163C305 142 282 128 256 128C233 128 213 139 200 155L212 166C222 153 238 144 256 144C287 144 312 169 312 200V267L333 288L374 296C375 296 376 296 376 296C380 296 383 293 384 290C385 285 382 281 378 280L328 270V242L378 232ZM134 280C130 281 127 285 128 290C129 293 132 296 136 296C137 296 137 296 138 296L184 287V312C184 320 186 328 188 335L156 353C152 355 151 360 153 364C155 367 157 368 160 368C161 368 163 368 164 367L195 349C207 370 230 384 256 384C279 384 299 373 312 357L300 346C290 359 274 368 256 368C225 368 200 343 200 312V245L179 224L138 216C133 215 129 218 128 222C127 227 130 231 134 232L184 242V270L134 280ZM256 16C123 16 16 123 16 256S123 496 256 496S496 389 496 256S389 16 256 16ZM256 480C132 480 32 380 32 256C32 197 55 144 92 104L408 420C368 457 315 480 256 480ZM420 408L104 92C144 55 197 32 256 32C380 32 480 132 480 256C480 315 457 368 420 408Z"/></svg>