<svg xmlns="http://www.w3.org/2000/svg" viewBox="0 0 640 512"><!-- Font Awesome Pro 6.0.0-alpha1 by @fontawesome - https://fontawesome.com License - https://fontawesome.com/license (Commercial License) --><path d="M632 248H8C4 248 0 252 0 256S4 264 8 264H632C636 264 640 260 640 256S636 248 632 248ZM264 40C264 36 260 32 256 32S248 36 248 40V192H264V40ZM80 40C80 36 76 32 72 32S64 36 64 40V192H80V40ZM128 40C128 36 124 32 120 32S112 36 112 40V192H128V40ZM192 40C192 36 188 32 184 32S176 36 176 40V192H192V40ZM336 40C336 36 332 32 328 32S320 36 320 40V192H336V40ZM384 40C384 36 380 32 376 32S368 36 368 40V192H384V40ZM528 40C528 36 524 32 520 32S512 36 512 40V192H528V40ZM576 40C576 36 572 32 568 32S560 36 560 40V192H576V40ZM464 40C464 36 460 32 456 32S448 36 448 40V192H464V40ZM320 472C320 476 324 480 328 480S336 476 336 472V320H320V472ZM512 472C512 476 516 480 520 480S528 476 528 472V320H512V472ZM64 472C64 476 68 480 72 480S80 476 80 472V320H64V472ZM560 472C560 476 564 480 568 480S576 476 576 472V320H560V472ZM368 472C368 476 372 480 376 480S384 476 384 472V320H368V472ZM448 472C448 476 452 480 456 480S464 476 464 472V320H448V472ZM112 472C112 476 116 480 120 480S128 476 128 472V320H112V472ZM248 472C248 476 252 480 256 480S264 476 264 472V320H248V472ZM176 472C176 476 180 480 184 480S192 476 192 472V320H176V472Z"/></svg>