<svg xmlns="http://www.w3.org/2000/svg" viewBox="0 0 512 512"><!-- Font Awesome Pro 6.0.0-alpha1 by @fontawesome - https://fontawesome.com License - https://fontawesome.com/license (Commercial License) --><path d="M8 32C4 32 0 36 0 40V472C0 476 4 480 8 480S16 476 16 472V40C16 36 12 32 8 32ZM120 32C116 32 112 36 112 40V472C112 476 116 480 120 480S128 476 128 472V40C128 36 124 32 120 32ZM56 32C52 32 48 36 48 40V472C48 476 52 480 56 480S64 476 64 472V40C64 36 60 32 56 32ZM192 32C188 32 184 36 184 40V472C184 476 188 480 192 480S200 476 200 472V40C200 36 196 32 192 32ZM264 32C260 32 256 36 256 40V472C256 476 260 480 264 480S272 476 272 472V40C272 36 268 32 264 32ZM312 32C308 32 304 36 304 40V472C304 476 308 480 312 480S320 476 320 472V40C320 36 316 32 312 32ZM392 32C388 32 384 36 384 40V472C384 476 388 480 392 480S400 476 400 472V40C400 36 396 32 392 32ZM456 32C452 32 448 36 448 40V472C448 476 452 480 456 480S464 476 464 472V40C464 36 460 32 456 32ZM504 32C500 32 496 36 496 40V472C496 476 500 480 504 480S512 476 512 472V40C512 36 508 32 504 32Z"/></svg>