<svg xmlns="http://www.w3.org/2000/svg" viewBox="0 0 512 512"><!-- Font Awesome Pro 6.0.0-alpha1 by @fontawesome - https://fontawesome.com License - https://fontawesome.com/license (Commercial License) --><path d="M488 192H24C11 192 0 203 0 216V296C0 309 11 320 24 320H488C501 320 512 309 512 296V216C512 203 501 192 488 192ZM176 304H24C20 304 16 300 16 296V216C16 212 20 208 24 208H176V304ZM496 296C496 300 492 304 488 304H192V208H488C492 208 496 212 496 216V296ZM488 32H24C11 32 0 43 0 56V136C0 149 11 160 24 160H488C501 160 512 149 512 136V56C512 43 501 32 488 32ZM368 144H24C20 144 16 140 16 136V56C16 52 20 48 24 48H368V144ZM496 136C496 140 492 144 488 144H384V48H488C492 48 496 52 496 56V136ZM488 352H24C11 352 0 363 0 376V456C0 469 11 480 24 480H488C501 480 512 469 512 456V376C512 363 501 352 488 352ZM304 464H24C20 464 16 460 16 456V376C16 372 20 368 24 368H304V464ZM496 456C496 460 492 464 488 464H320V368H488C492 368 496 372 496 376V456Z"/></svg>