<svg xmlns="http://www.w3.org/2000/svg" viewBox="0 0 512 512"><!-- Font Awesome Pro 6.0.0-alpha1 by @fontawesome - https://fontawesome.com License - https://fontawesome.com/license (Commercial License) --><path d="M418 86C324 -7 172 -7 78 86S-15 332 78 426S324 519 418 426S512 180 418 86ZM450 284C457 284 463 285 470 287C463 333 442 379 407 414C371 450 326 471 279 478C278 471 276 464 276 457C276 452 272 449 268 449C264 449 260 453 260 457C260 465 262 472 263 479C201 483 137 462 90 414C42 367 21 304 25 242C32 243 39 244 46 244C50 244 54 241 54 236C54 232 51 228 46 228C40 228 33 227 27 225C33 179 54 134 90 98C126 62 171 41 218 34C219 41 220 48 220 55C220 60 224 63 228 63C233 63 236 59 236 55C236 47 235 40 233 33C296 29 359 50 407 98C454 145 475 208 471 271C465 269 458 268 451 268C446 268 442 271 442 276C442 280 446 284 450 284ZM226 89C222 88 218 91 217 95C212 117 203 137 191 155C188 159 189 164 193 166C196 169 201 168 204 164C218 144 227 122 232 98C233 95 232 93 230 91C229 90 228 89 226 89ZM158 199C155 197 151 196 147 199C129 211 109 220 87 225C83 225 80 230 81 234C82 238 86 241 90 240C114 235 136 226 157 212C160 209 161 204 159 201C158 200 158 200 158 199ZM406 272C382 277 360 286 340 300C336 303 335 308 338 311C338 312 338 312 339 313C341 315 346 316 349 314C367 301 388 292 409 288C414 287 416 282 416 278C415 274 410 271 406 272ZM293 348C279 368 269 390 264 414C264 417 264 419 266 421C267 422 269 423 270 423C275 424 279 421 280 417C284 395 293 375 306 357C308 353 307 348 304 346C300 343 295 344 293 348Z"/></svg>