<svg xmlns="http://www.w3.org/2000/svg" viewBox="0 0 512 512"><!-- Font Awesome Pro 6.0.0-alpha1 by @fontawesome - https://fontawesome.com License - https://fontawesome.com/license (Commercial License) --><path d="M504 272H48V53C48 33 65 16 85 16C95 16 105 20 112 27L144 59C134 72 128 87 128 104C128 123 135 141 149 155L167 173L162 178C159 181 159 187 162 190C164 191 166 192 168 192S172 191 174 190L286 78C289 75 289 69 286 66S277 63 274 66L269 71L251 53C225 27 184 26 155 48L123 16C113 6 99 0 85 0C56 0 32 24 32 53V272H8C4 272 0 276 0 280S4 288 8 288H504C508 288 512 284 512 280S508 272 504 272ZM160 64C182 43 218 43 240 64L258 83L179 162L160 144C150 133 144 119 144 104S150 75 160 64ZM472 320C468 320 464 324 464 328V376C464 425 425 464 376 464H136C87 464 48 425 48 376V328C48 324 44 320 40 320S32 324 32 328V376C32 413 51 445 80 463C80 464 80 464 80 464V504C80 508 84 512 88 512S96 508 96 504V472C108 477 122 480 136 480H376C390 480 404 477 416 472V504C416 508 420 512 424 512S432 508 432 504V464C432 464 432 464 432 463C461 445 480 413 480 376V328C480 324 476 320 472 320Z"/></svg>