<svg xmlns="http://www.w3.org/2000/svg" viewBox="0 0 576 512"><!-- Font Awesome Pro 6.0.0-alpha1 by @fontawesome - https://fontawesome.com License - https://fontawesome.com/license (Commercial License) --><path d="M216 400H64C38 400 16 378 16 352V160C16 134 38 112 64 112H152C156 112 160 108 160 104S156 96 152 96H64C29 96 0 125 0 160V352C0 387 29 416 64 416H216C220 416 224 412 224 408S220 400 216 400ZM544 192H528V160C528 125 499 96 464 96H328C324 96 320 100 320 104S324 112 328 112H464C490 112 512 134 512 160V352C512 378 490 400 464 400H360C356 400 352 404 352 408S356 416 360 416H464C499 416 528 387 528 352V320H544C562 320 576 306 576 288V224C576 206 562 192 544 192ZM560 288C560 297 553 304 544 304H528V208H544C553 208 560 215 560 224V288ZM383 252C381 250 379 248 376 248H180L263 43C265 39 263 34 259 33C255 31 250 33 249 37L161 253C160 255 160 258 161 260C163 263 165 264 168 264H362L249 468C247 472 248 477 252 479C253 480 255 480 256 480C259 480 262 479 263 476L383 260C384 257 384 254 383 252Z"/></svg>