<svg xmlns="http://www.w3.org/2000/svg" viewBox="0 0 640 512"><!-- Font Awesome Pro 6.0.0-alpha1 by @fontawesome - https://fontawesome.com License - https://fontawesome.com/license (Commercial License) --><path d="M496 112C523 112 544 134 544 160V342L560 355C560 354 560 353 560 352V320H576C594 320 608 306 608 288V224C608 206 594 192 576 192H560V160C560 125 531 96 496 96H234L255 112H496ZM560 208H576C585 208 592 215 592 224V288C592 297 585 304 576 304H560V208ZM96 400C70 400 48 378 48 352V160C48 152 50 144 54 137L42 127C36 136 32 148 32 160V352C32 387 61 416 96 416H406L385 400H96ZM637 498L13 2C12 1 10 0 8 0C6 0 3 1 2 3C-1 6 0 12 3 14L627 510C629 511 630 512 632 512C634 512 637 511 638 509C641 506 640 500 637 498Z"/></svg>