<svg xmlns="http://www.w3.org/2000/svg" viewBox="0 0 576 512"><!-- Font Awesome Pro 6.0.0-alpha1 by @fontawesome - https://fontawesome.com License - https://fontawesome.com/license (Commercial License) --><path d="M272 416C263 416 256 423 256 432C256 441 263 448 272 448S288 441 288 432C288 423 281 416 272 416ZM272 352C276 352 280 348 280 344V72C280 68 276 64 272 64S264 68 264 72V344C264 348 268 352 272 352ZM544 192H528V160C528 125 499 96 464 96H328C324 96 320 100 320 104S324 112 328 112H464C490 112 512 134 512 160V352C512 378 490 400 464 400H352C348 400 344 404 344 408S348 416 352 416H464C499 416 528 387 528 352V320H544C562 320 576 306 576 288V224C576 206 562 192 544 192ZM560 288C560 297 553 304 544 304H528V208H544C553 208 560 215 560 224V288ZM216 96H64C29 96 0 125 0 160V352C0 387 29 416 64 416H192C196 416 200 412 200 408S196 400 192 400H64C38 400 16 378 16 352V160C16 134 38 112 64 112H216C220 112 224 108 224 104S220 96 216 96Z"/></svg>