<svg xmlns="http://www.w3.org/2000/svg" viewBox="0 0 576 512"><!-- Font Awesome Pro 6.0.0-alpha1 by @fontawesome - https://fontawesome.com License - https://fontawesome.com/license (Commercial License) --><path d="M544 192H528V160C528 125 499 96 464 96H64C29 96 0 125 0 160V352C0 387 29 416 64 416H464C499 416 528 387 528 352V320H544C562 320 576 306 576 288V224C576 206 562 192 544 192ZM512 352C512 378 490 400 464 400H64C38 400 16 378 16 352V160C16 134 38 112 64 112H464C490 112 512 134 512 160V352ZM560 288C560 297 553 304 544 304H528V208H544C553 208 560 215 560 224V288ZM352 160H96C78 160 64 174 64 192V320C64 338 78 352 96 352H352C370 352 384 338 384 320V192C384 174 370 160 352 160ZM368 320C368 329 361 336 352 336H96C87 336 80 329 80 320V192C80 183 87 176 96 176H352C361 176 368 183 368 192V320Z"/></svg>