<svg xmlns="http://www.w3.org/2000/svg" viewBox="0 0 640 512"><!-- Font Awesome Pro 6.0.0-alpha1 by @fontawesome - https://fontawesome.com License - https://fontawesome.com/license (Commercial License) --><path d="M224 80H347L393 172C394 174 397 176 400 176H400C403 176 406 174 407 171L465 28L489 76C490 78 493 80 496 80H632C636 80 640 76 640 72S636 64 632 64H501L471 4C470 2 467 0 464 0C461 0 458 2 457 5L399 148L359 68C358 66 355 64 352 64C352 64 284 64 239 64C216 64 200 64 200 64C198 64 196 65 194 66C193 68 192 70 192 72C192 80 192 80 224 80ZM144 320C188 320 224 284 224 240S188 160 144 160S64 196 64 240S100 320 144 320ZM144 176C179 176 208 205 208 240S179 304 144 304S80 275 80 240S109 176 144 176ZM528 160H456C452 160 448 164 448 168S452 176 456 176H528C581 176 624 219 624 272V352H288V176H344C348 176 352 172 352 168S348 160 344 160H288C279 160 272 167 272 176V352H16V72C16 68 12 64 8 64S0 68 0 72V504C0 508 4 512 8 512S16 508 16 504V448H624V504C624 508 628 512 632 512S640 508 640 504V272C640 210 590 160 528 160ZM624 432H16V368H624V432Z"/></svg>