<svg xmlns="http://www.w3.org/2000/svg" viewBox="0 0 512 512"><!-- Font Awesome Pro 6.0.0-alpha1 by @fontawesome - https://fontawesome.com License - https://fontawesome.com/license (Commercial License) --><path d="M115 133C120 130 125 129 130 129C139 129 147 132 154 138C168 152 187 160 208 160S248 152 263 138C269 132 277 129 286 129C291 129 296 130 301 133C311 140 323 144 336 144C376 144 407 108 399 66C394 43 375 24 352 18C347 17 341 16 336 16C324 16 313 19 303 25C297 29 291 30 285 30C277 30 269 28 262 22C248 8 229 0 208 0S168 8 154 22C147 27 139 30 131 30C125 30 119 29 113 25C103 19 92 16 80 16C75 16 69 17 64 18C41 24 22 43 17 66C9 108 40 144 80 144C93 144 105 140 115 133ZM33 69C37 52 51 38 68 34C72 33 76 32 80 32C89 32 97 34 104 39C113 44 122 46 131 46C144 46 155 42 164 33C176 22 192 16 208 16S240 22 252 33C261 42 272 46 285 46C294 46 303 44 312 39C319 34 327 32 336 32C340 32 344 33 348 34C365 38 379 52 383 69C386 84 383 99 373 110C364 122 351 128 336 128C327 128 318 125 310 120C303 115 294 113 286 113C274 113 261 118 252 127C240 138 224 144 208 144S176 138 164 127C155 118 142 113 130 113C122 113 113 115 106 120C99 125 89 128 80 128C65 128 52 122 43 110C33 99 30 84 33 69ZM136 232V440C136 444 140 448 144 448S152 444 152 440V232C152 228 148 224 144 224S136 228 136 232ZM440 160H376C372 160 368 164 368 168V448C368 474 347 496 320 496H96C70 496 48 474 48 448V168C48 164 44 160 40 160S32 164 32 168V448C32 483 61 512 96 512H320C355 512 384 483 384 448V437L440 409C465 397 480 372 480 344V200C480 178 462 160 440 160ZM464 344C464 366 452 385 433 395L384 419V176H440C453 176 464 187 464 200V344ZM200 232V440C200 444 204 448 208 448S216 444 216 440V232C216 228 212 224 208 224S200 228 200 232ZM264 232V440C264 444 268 448 272 448S280 444 280 440V232C280 228 276 224 272 224S264 228 264 232Z"/></svg>