<svg xmlns="http://www.w3.org/2000/svg" viewBox="0 0 512 512"><!-- Font Awesome Pro 6.0.0-alpha1 by @fontawesome - https://fontawesome.com License - https://fontawesome.com/license (Commercial License) --><path d="M144 128C140 128 136 132 136 136V376C136 380 140 384 144 384S152 380 152 376V136C152 132 148 128 144 128ZM208 128C204 128 200 132 200 136V376C200 380 204 384 208 384S216 380 216 376V136C216 132 212 128 208 128ZM272 128C268 128 264 132 264 136V376C264 380 268 384 272 384S280 380 280 376V136C280 132 276 128 272 128ZM440 96H384V64C384 46 370 32 352 32H64C46 32 32 46 32 64V416C32 451 61 480 96 480H320C355 480 384 451 384 416V373L440 345C465 333 480 308 480 280V136C480 114 462 96 440 96ZM368 416C368 442 346 464 320 464H96C70 464 48 442 48 416V64C48 55 55 48 64 48H352C361 48 368 55 368 64V416ZM464 280C464 302 452 321 433 331L384 355V112H440C453 112 464 123 464 136V280Z"/></svg>