<svg xmlns="http://www.w3.org/2000/svg" viewBox="0 0 640 512"><!-- Font Awesome Pro 6.0.0-alpha1 by @fontawesome - https://fontawesome.com License - https://fontawesome.com/license (Commercial License) --><path d="M637 498L13 2C12 1 10 0 8 0C6 0 3 1 2 3C-1 6 0 12 3 14L627 510C629 511 630 512 632 512C634 512 637 511 638 509C641 506 640 500 637 498ZM272 16C378 16 464 102 464 208C464 230 460 251 453 270L467 281C475 258 480 234 480 208C480 93 387 0 272 0C230 0 190 13 157 35L171 45C200 27 235 16 272 16ZM496 496H407C412 489 416 481 416 472V424L400 412V472C400 485 389 496 376 496H168C155 496 144 485 144 472V372C179 399 224 416 272 416C309 416 343 406 373 390L359 379C333 392 303 400 272 400C166 400 80 314 80 208C80 192 82 177 86 162L72 151C67 169 64 188 64 208C64 267 89 320 128 358V472C128 494 146 512 168 512H496C504 512 511 509 517 505L504 494C502 495 499 496 496 496Z"/></svg>