<svg xmlns="http://www.w3.org/2000/svg" viewBox="0 0 448 512"><!-- Font Awesome Pro 6.0.0-alpha1 by @fontawesome - https://fontawesome.com License - https://fontawesome.com/license (Commercial License) --><path d="M280 440C276 440 272 444 272 448C272 474 250 496 224 496S176 474 176 448C176 444 172 440 168 440S160 444 160 448C160 483 189 512 224 512S288 483 288 448C288 444 284 440 280 440ZM439 362C420 342 384 310 384 208C384 130 330 68 256 53V32C256 14 242 0 224 0S192 14 192 32V53C118 68 64 130 64 208C64 310 28 342 9 362C3 369 0 377 0 384C0 400 13 416 32 416H416C435 416 448 400 448 384C448 377 445 369 439 362ZM416 400H32C22 400 16 392 16 384C16 377 20 374 24 369C45 347 80 310 80 208C80 143 120 84 208 66V32C208 23 215 16 224 16S240 23 240 32V66C329 84 368 144 368 208C368 310 403 347 424 369C428 373 432 377 432 384C432 392 426 400 416 400ZM224 304C215 304 208 311 208 320S215 336 224 336S240 329 240 320S233 304 224 304ZM224 272C228 272 232 268 232 264V136C232 132 228 128 224 128S216 132 216 136V264C216 268 220 272 224 272Z"/></svg>