<svg xmlns="http://www.w3.org/2000/svg" viewBox="0 0 512 512"><!-- Font Awesome Pro 6.0.0-alpha1 by @fontawesome - https://fontawesome.com License - https://fontawesome.com/license (Commercial License) --><path d="M288 208C288 164 252 128 208 128S128 164 128 208C128 252 164 288 208 288S288 252 288 208ZM144 208C144 173 173 144 208 144S272 173 272 208S243 272 208 272S144 243 144 208ZM464 352C438 352 416 374 416 400C416 424 433 443 456 447V472C456 485 445 496 432 496H343C348 489 352 481 352 472V358C391 320 416 267 416 208C416 93 323 0 208 0S0 93 0 208C0 267 25 320 64 358V472C64 494 82 512 104 512H432C454 512 472 494 472 472V447C495 443 512 424 512 400C512 374 490 352 464 352ZM16 208C16 102 102 16 208 16S400 102 400 208S314 400 208 400S16 314 16 208ZM336 472C336 485 325 496 312 496H104C91 496 80 485 80 472V372C115 399 160 416 208 416S301 399 336 372V472ZM464 432C446 432 432 418 432 400S446 368 464 368S496 382 496 400S482 432 464 432Z"/></svg>