<svg xmlns="http://www.w3.org/2000/svg" viewBox="0 0 320 512"><!-- Font Awesome Pro 6.0.0-alpha1 by @fontawesome - https://fontawesome.com License - https://fontawesome.com/license (Commercial License) --><path d="M232 229C256 215 272 189 272 160C272 116 236 80 192 80H176V8C176 4 172 0 168 0S160 4 160 8V80H96V8C96 4 92 0 88 0S80 4 80 8V80H56C34 80 16 98 16 120V392C16 414 34 432 56 432H80V504C80 508 84 512 88 512S96 508 96 504V432H160V504C160 508 164 512 168 512S176 508 176 504V432H200C257 432 304 385 304 328C304 282 274 243 232 229ZM32 120C32 107 43 96 56 96H192C227 96 256 125 256 160S227 224 192 224H32V120ZM200 416H56C43 416 32 405 32 392V240H200C249 240 288 279 288 328S249 416 200 416Z"/></svg>