<svg xmlns="http://www.w3.org/2000/svg" viewBox="0 0 448 512"><!-- Font Awesome Pro 6.0.0-alpha1 by @fontawesome - https://fontawesome.com License - https://fontawesome.com/license (Commercial License) --><path d="M400 384H88C84 384 80 388 80 392S84 400 88 400H400C426 400 448 378 448 352V104C448 64 416 32 376 32H72C32 32 0 64 0 104C0 104 0 390 0 392C0 441 39 480 88 480H440C444 480 448 476 448 472S444 464 440 464H88C48 464 16 432 16 392S48 320 88 320H400C418 320 432 334 432 352S418 384 400 384ZM400 304H88C58 304 32 319 16 342V104C16 73 41 48 72 48H376C407 48 432 73 432 104V316C423 309 412 304 400 304Z"/></svg>