<svg xmlns="http://www.w3.org/2000/svg" viewBox="0 0 576 512"><!-- Font Awesome Pro 6.0.0-alpha1 by @fontawesome - https://fontawesome.com License - https://fontawesome.com/license (Commercial License) --><path d="M480 384H224C189 384 160 413 160 448V480C160 498 174 512 192 512H512C530 512 544 498 544 480V448C544 413 515 384 480 384ZM528 480C528 489 521 496 512 496H192C183 496 176 489 176 480V448C176 422 198 400 224 400H480C506 400 528 422 528 448V480ZM225 360C229 360 232 356 232 351L201 16H558L541 80H392C388 80 384 84 384 88S388 96 392 96H537L517 176H392C388 176 384 180 384 184S388 192 392 192H513L492 272H392C388 272 384 276 384 280S388 288 392 288H488L472 350C471 354 474 359 478 360C483 361 487 358 488 354L576 10C577 5 573 0 568 0H192C186 0 184 6 184 9L216 353C216 357 220 360 225 360ZM167 326L143 265C139 256 129 250 118 251L81 254C68 214 68 170 81 130L118 134C129 135 139 128 143 119L167 58C172 48 168 35 158 29L120 6C103 -4 82 -1 68 14C-23 117 -23 271 70 372C77 380 88 384 99 384C106 384 114 382 120 378L158 355C168 349 172 337 167 326ZM150 342L112 365C103 370 89 369 82 362C-5 266 -6 121 80 25C89 15 102 14 112 19L149 43C153 45 154 49 153 52L128 113C127 116 123 118 120 118L70 113C64 130 40 189 70 271L120 267C123 266 127 268 128 271L153 332C154 336 153 340 150 342ZM352 416C334 416 320 430 320 448S334 480 352 480C370 480 384 466 384 448S370 416 352 416ZM352 464C343 464 336 457 336 448S343 432 352 432C361 432 368 439 368 448S361 464 352 464Z"/></svg>