<svg xmlns="http://www.w3.org/2000/svg" viewBox="0 0 512 512"><!-- Font Awesome Pro 6.0.0-alpha1 by @fontawesome - https://fontawesome.com License - https://fontawesome.com/license (Commercial License) --><path d="M480 0H32C14 0 0 14 0 32V64C0 82 14 96 32 96H136V257C113 261 96 280 96 304C96 330 118 352 144 352S192 330 192 304C192 280 175 261 152 257V96H480C498 96 512 82 512 64V32C512 14 498 0 480 0ZM176 304C176 322 162 336 144 336S112 322 112 304S126 272 144 272S176 286 176 304ZM496 64C496 73 489 80 480 80H32C23 80 16 73 16 64V32C16 23 23 16 32 16H480C489 16 496 23 496 32V64ZM184 216C184 220 188 224 192 224H504C506 224 509 223 510 221S512 216 512 214L488 126C487 122 482 119 478 120C474 121 471 126 472 130L494 208H192C188 208 184 212 184 216ZM34 120C30 119 25 122 24 126L0 214C0 216 0 219 2 221S6 224 8 224H96C100 224 104 220 104 216S100 208 96 208H18L40 130C41 126 38 121 34 120ZM487 253C486 249 481 247 477 249C473 250 471 255 473 259L492 304H224C220 304 216 308 216 312S220 320 224 320H504C507 320 509 319 511 316C512 314 512 311 511 309L487 253ZM1 316C3 319 5 320 8 320H64C68 320 72 316 72 312S68 304 64 304H20L39 259C41 255 39 250 35 249C31 247 26 249 25 253L1 309C0 311 0 314 1 316ZM487 349C486 345 481 343 477 345C473 346 471 351 473 355L492 400H20L39 355C41 351 39 346 35 345C31 343 26 345 25 349L1 405C0 407 0 410 1 412C3 415 5 416 8 416H504C507 416 509 415 511 412C512 410 512 407 511 405L487 349ZM487 445C486 441 481 439 477 441C473 442 471 447 473 451L492 496H20L39 451C41 447 39 442 35 441C31 439 26 441 25 445L1 501C0 503 0 506 1 508C3 511 5 512 8 512H504C507 512 509 511 511 508C512 506 512 503 511 501L487 445Z"/></svg>