<svg xmlns="http://www.w3.org/2000/svg" viewBox="0 0 512 512"><!-- Font Awesome Pro 6.0.0-alpha1 by @fontawesome - https://fontawesome.com License - https://fontawesome.com/license (Commercial License) --><path d="M200 32C196 32 192 36 192 40S196 48 200 48C346 48 464 166 464 312C464 316 468 320 472 320S480 316 480 312C480 158 354 32 200 32ZM200 128C196 128 192 132 192 136S196 144 200 144C293 144 368 219 368 312C368 316 372 320 376 320S384 316 384 312C384 211 301 128 200 128ZM160 224C156 224 152 228 152 232S156 240 160 240C222 240 272 290 272 352S222 464 160 464S48 414 48 352V104C48 100 44 96 40 96S32 100 32 104V352C32 423 89 480 160 480S288 423 288 352S231 224 160 224Z"/></svg>