<svg xmlns="http://www.w3.org/2000/svg" viewBox="0 0 384 512"><!-- Font Awesome Pro 6.0.0-alpha1 by @fontawesome - https://fontawesome.com License - https://fontawesome.com/license (Commercial License) --><path d="M275 243C311 225 336 187 336 144C336 82 286 32 224 32H8C4 32 0 36 0 40S4 48 8 48H48V464H8C4 464 0 468 0 472S4 480 8 480H248C314 480 368 426 368 360C368 303 328 255 275 243ZM224 48C277 48 320 91 320 144S277 240 224 240H64V48H224ZM248 464H64V256H248C305 256 352 303 352 360S305 464 248 464Z"/></svg>