<svg xmlns="http://www.w3.org/2000/svg" viewBox="0 0 512 512"><!-- Font Awesome Pro 6.0.0-alpha1 by @fontawesome - https://fontawesome.com License - https://fontawesome.com/license (Commercial License) --><path d="M385 138L406 118C409 115 409 109 406 106C403 103 397 103 394 106L374 127L333 86C328 82 323 80 317 80C312 80 306 82 302 86L280 109C257 101 233 96 208 96C93 96 0 189 0 304S93 512 208 512S416 419 416 304C416 279 411 255 403 232L426 210C434 201 434 188 426 179L385 138ZM414 199L392 221C387 226 386 232 388 238C401 277 400 297 400 304C400 423 290 518 167 492C94 476 36 418 20 345C-6 222 89 112 208 112C216 112 235 111 274 124C280 126 286 125 291 120L313 98C316 95 319 96 321 98L414 191C416 193 417 196 414 199ZM208 152C124 152 56 220 56 304C56 308 60 312 64 312S72 308 72 304C72 229 133 168 208 168C212 168 216 164 216 160S212 152 208 152ZM504 56H456V8C456 4 452 0 448 0C444 0 440 4 440 8V56H392C388 56 384 60 384 64S388 72 392 72H440V120C440 124 444 128 448 128C452 128 456 124 456 120V72H504C508 72 512 68 512 64S508 56 504 56Z"/></svg>