<svg xmlns="http://www.w3.org/2000/svg" viewBox="0 0 512 512"><!-- Font Awesome Pro 6.0.0-alpha1 by @fontawesome - https://fontawesome.com License - https://fontawesome.com/license (Commercial License) --><path d="M478 226L414 162C411 159 405 159 402 162S399 171 402 174L429 200L369 259C348 234 320 214 288 203V16H312C316 16 320 12 320 8S316 0 312 0H136C132 0 128 4 128 8S132 16 136 16H160V203C85 230 32 300 32 384C32 428 47 468 72 500C77 508 87 512 96 512H352C361 512 371 508 376 500C401 468 416 428 416 384C416 342 402 303 380 272L440 211L466 238C468 239 470 240 472 240S476 239 478 238C481 235 481 229 478 226ZM165 218C172 216 176 210 176 203V16H272V203C272 210 276 216 283 218C332 236 369 274 387 320H61C79 274 116 236 165 218ZM364 491C361 494 357 496 352 496H96C91 496 87 494 84 491C61 460 48 423 48 384C48 367 51 351 55 336C55 336 56 336 56 336H392C392 336 393 336 393 336C397 351 400 367 400 384C400 423 387 460 364 491Z"/></svg>