<svg xmlns="http://www.w3.org/2000/svg" viewBox="0 0 640 512"><!-- Font Awesome Pro 6.0.0-alpha1 by @fontawesome - https://fontawesome.com License - https://fontawesome.com/license (Commercial License) --><path d="M192 16H448C474 16 496 38 496 64V304L512 317V64C512 29 483 0 448 0H192C172 0 155 9 143 23L155 33C164 23 177 16 192 16ZM144 496V208L128 195V496C128 508 141 516 152 510L320 412L488 510C496 515 505 511 509 503L320 393L144 496ZM637 498L13 2C12 1 10 0 8 0C6 0 3 1 2 3C-1 6 0 12 3 14L627 510C629 511 630 512 632 512C634 512 637 511 638 509C641 506 640 500 637 498Z"/></svg>