<svg xmlns="http://www.w3.org/2000/svg" viewBox="0 0 448 512"><!-- Font Awesome Pro 6.0.0-alpha1 by @fontawesome - https://fontawesome.com License - https://fontawesome.com/license (Commercial License) --><path d="M240 72C165 72 104 133 104 208C104 283 165 344 240 344S376 283 376 208C376 133 315 72 240 72ZM240 88C262 88 286 134 288 200H192C194 134 218 88 240 88ZM205 94C188 116 178 155 176 200H121C124 150 158 108 205 94ZM121 216H176C178 261 188 299 205 322C158 308 124 266 121 216ZM240 328C218 328 194 282 192 216H288C286 282 262 328 240 328ZM275 322C292 299 302 261 304 216H359C356 266 322 308 275 322ZM304 200C302 155 292 117 275 94C322 108 356 150 359 200H304ZM448 384V32C448 14 434 0 416 0H64C29 0 0 29 0 64V456C0 487 25 512 56 512L440 512C444 512 448 508 448 504C448 500 444 496 440 496H416V416C434 416 448 402 448 384ZM400 496H56C33 496 14 476 16 452C18 431 37 416 58 416L400 416V496ZM56 400C40 400 26 407 16 417V64C16 38 38 16 64 16H416C425 16 432 23 432 32V384C432 393 425 400 416 400L56 400Z"/></svg>