<svg xmlns="http://www.w3.org/2000/svg" viewBox="0 0 448 512"><!-- Font Awesome Pro 6.0.0-alpha1 by @fontawesome - https://fontawesome.com License - https://fontawesome.com/license (Commercial License) --><path d="M231 100C228 95 220 95 217 100L113 308C111 312 112 317 116 319C120 321 125 320 127 316L157 256H291L321 316C322 318 325 320 328 320C329 320 330 320 332 319C336 317 337 312 335 308L231 100ZM165 240L224 122L283 240H165ZM448 384V32C448 14 434 0 416 0H64C29 0 0 29 0 64V456C0 487 25 512 56 512L440 512C444 512 448 508 448 504C448 500 444 496 440 496H416V416C434 416 448 402 448 384ZM400 496H56C33 496 14 476 16 452C18 431 37 416 58 416L400 416V496ZM56 400C40 400 26 407 16 417V64C16 38 38 16 64 16H416C425 16 432 23 432 32V384C432 393 425 400 416 400L56 400Z"/></svg>