<svg xmlns="http://www.w3.org/2000/svg" viewBox="0 0 448 512"><!-- Font Awesome Pro 6.0.0-alpha1 by @fontawesome - https://fontawesome.com License - https://fontawesome.com/license (Commercial License) --><path d="M342 144C339 139 334 136 328 136H268L238 88C232 78 216 78 210 88L180 136H120C114 136 109 139 106 144C103 149 103 155 106 160L136 208L106 256C103 261 103 267 106 272C109 277 114 280 120 280H180L210 328C213 333 218 336 224 336S235 333 238 328L268 280H328C334 280 339 277 342 272C345 267 345 261 342 256L312 208L342 160C345 155 345 149 342 144ZM224 96L249 136H200L224 96ZM120 152C120 152 120 152 120 152L170 152L145 193L120 152ZM120 264L145 223L170 264L120 264ZM224 320L199 280H248L224 320ZM258 264L189 264L155 208L190 152L259 152L293 208L258 264ZM328 264C328 264 328 264 328 264L278 264L303 223L328 264ZM303 193L278 152L328 152L303 193ZM384 0H32C14 0 0 14 0 32V384C0 402 14 416 32 416V496H8C4 496 0 500 0 504C0 508 4 512 8 512L392 512C423 512 448 487 448 456V64C448 29 419 0 384 0ZM392 496H48V416L390 416C411 416 430 431 432 452C434 476 415 496 392 496ZM432 417C422 406 408 400 392 400L32 400C23 400 16 393 16 384V32C16 23 23 16 32 16H384C410 16 432 38 432 64V417Z"/></svg>