<svg xmlns="http://www.w3.org/2000/svg" viewBox="0 0 512 512"><!-- Font Awesome Pro 6.0.0-alpha1 by @fontawesome - https://fontawesome.com License - https://fontawesome.com/license (Commercial License) --><path d="M511 445L398 30C393 12 377 0 359 0C355 0 352 0 348 1L286 18C279 20 274 23 269 27C264 12 250 0 232 0H168C155 0 143 7 136 17C129 7 117 0 104 0H40C18 0 0 18 0 40V472C0 494 18 512 40 512H104C117 512 129 505 136 495C143 505 155 512 168 512H232C254 512 272 494 272 472V121L370 482C375 500 391 512 409 512C413 512 416 512 420 511L482 494C504 488 516 467 511 445ZM367 409L292 132L401 103L476 380L367 409ZM168 16H232C245 16 256 27 256 40V96H144V40C144 27 155 16 168 16ZM256 400H144V112H256V400ZM16 112H128V400H16V112ZM16 40C16 27 27 16 40 16H104C117 16 128 27 128 40V96H16V40ZM104 496H40C27 496 16 485 16 472V416H128V472C128 485 117 496 104 496ZM256 472C256 485 245 496 232 496H168C155 496 144 485 144 472V416H256V472ZM275 45C278 39 284 35 290 33L352 17C354 16 357 16 359 16C370 16 380 23 382 34L397 88L397 88V88L340 103L287 116L273 62C271 56 272 50 275 45ZM493 467C490 473 484 477 478 479L416 495C414 496 411 496 409 496C398 496 389 489 386 478L371 424L371 424V424L397 418L481 396L495 450C497 456 496 462 493 467Z"/></svg>