<svg xmlns="http://www.w3.org/2000/svg" viewBox="0 0 448 512"><!-- Font Awesome Pro 6.0.0-alpha1 by @fontawesome - https://fontawesome.com License - https://fontawesome.com/license (Commercial License) --><path d="M448 384V32C448 14 434 0 416 0H64C29 0 0 29 0 64V456C0 487 25 512 56 512L440 512C444 512 448 508 448 504C448 500 444 496 440 496H416V416C434 416 448 402 448 384ZM16 64C16 38 38 16 64 16H112V400L56 400C40 400 26 407 16 417V64ZM400 496H56C33 496 14 476 16 452C18 431 37 416 58 416L400 416V496ZM128 400V16H416C425 16 432 23 432 32V384C432 393 425 400 416 400L128 400Z"/></svg>