<svg xmlns="http://www.w3.org/2000/svg" viewBox="0 0 448 512"><!-- Font Awesome Pro 6.0.0-alpha1 by @fontawesome - https://fontawesome.com License - https://fontawesome.com/license (Commercial License) --><path d="M320 160H272V112C272 103 265 96 256 96H208C199 96 192 103 192 112V160H144C135 160 128 167 128 176V224C128 233 135 240 144 240H192V288C192 297 199 304 208 304H256C265 304 272 297 272 288V240H320C329 240 336 233 336 224V176C336 167 329 160 320 160ZM320 224H256V288H208V224H144V176H208V112H256V176H320V224ZM448 384V32C448 14 434 0 416 0H64C29 0 0 29 0 64V456C0 487 25 512 56 512L440 512C444 512 448 508 448 504C448 500 444 496 440 496H416V416C434 416 448 402 448 384ZM400 496H56C33 496 14 476 16 452C18 431 37 416 58 416L400 416V496ZM56 400C40 400 26 407 16 417V64C16 38 38 16 64 16H416C425 16 432 23 432 32V384C432 393 425 400 416 400L56 400Z"/></svg>