<svg xmlns="http://www.w3.org/2000/svg" viewBox="0 0 448 512"><!-- Font Awesome Pro 6.0.0-alpha1 by @fontawesome - https://fontawesome.com License - https://fontawesome.com/license (Commercial License) --><path d="M200 120H168V88C168 84 164 80 160 80S152 84 152 88V120H120C116 120 112 124 112 128S116 136 120 136H152V168C152 172 156 176 160 176S168 172 168 168V136H200C204 136 208 132 208 128S204 120 200 120ZM344 248H296V200C296 196 292 192 288 192S280 196 280 200V248H232C228 248 224 252 224 256S228 264 232 264H280V312C280 316 284 320 288 320S296 316 296 312V264H344C348 264 352 260 352 256S348 248 344 248ZM448 384V32C448 14 434 0 416 0H64C29 0 0 29 0 64V456C0 487 25 512 56 512L440 512C444 512 448 508 448 504C448 500 444 496 440 496H416V416C434 416 448 402 448 384ZM400 496H56C33 496 14 476 16 452C18 431 37 416 58 416L400 416V496ZM56 400C40 400 26 407 16 417V64C16 38 38 16 64 16H416C425 16 432 23 432 32V384C432 393 425 400 416 400L56 400Z"/></svg>