<svg xmlns="http://www.w3.org/2000/svg" viewBox="0 0 448 512"><!-- Font Awesome Pro 6.0.0-alpha1 by @fontawesome - https://fontawesome.com License - https://fontawesome.com/license (Commercial License) --><path d="M282 270C276 271 270 272 264 272C220 272 184 236 184 192S220 112 264 112C270 112 276 113 282 114C290 116 298 112 301 105C304 98 301 90 295 85C274 71 249 64 224 64C153 64 96 121 96 192S153 320 224 320C249 320 274 313 295 299C301 294 304 286 301 279C298 272 290 268 282 270ZM224 304C162 304 112 254 112 192S162 80 224 80C246 80 267 86 286 99C278 97 271 96 264 96C211 96 168 139 168 192S211 288 264 288C271 288 278 287 286 285H286L286 285C267 298 246 304 224 304ZM334 162L309 159L299 137C295 129 280 129 278 137L267 159L242 162C238 163 234 166 233 170C231 175 232 179 236 182L253 200L249 224C248 227 249 231 252 234C254 236 257 238 261 238L264 237L288 225L310 237L314 238H315C319 238 322 236 324 234C327 231 328 227 327 224L323 200L340 183C344 179 345 175 343 171C342 166 338 163 334 162ZM306 194L310 218L288 207L266 218L270 194L253 177L277 174L288 152L299 174L323 177L306 194ZM384 0H32C14 0 0 14 0 32V384C0 402 14 416 32 416V496H8C4 496 0 500 0 504C0 508 4 512 8 512L392 512C423 512 448 487 448 456V64C448 29 419 0 384 0ZM392 496H48V416L390 416C411 416 430 431 432 452C434 476 415 496 392 496ZM432 417C422 406 408 400 392 400L32 400C23 400 16 393 16 384V32C16 23 23 16 32 16H384C410 16 432 38 432 64V417Z"/></svg>