<svg xmlns="http://www.w3.org/2000/svg" viewBox="0 0 448 512"><!-- Font Awesome Pro 6.0.0-alpha1 by @fontawesome - https://fontawesome.com License - https://fontawesome.com/license (Commercial License) --><path d="M314 104C312 102 310 101 308 101C304 102 300 103 298 106C296 110 296 114 297 117C300 124 301 131 301 139C301 157 293 174 278 186C289 196 295 210 295 225C295 253 274 275 248 279V247L264 255C265 256 266 256 267 256C270 256 273 254 275 252C277 248 275 243 271 241L258 234L271 228C275 226 277 221 275 217S268 212 264 213L248 221V104C248 100 244 96 240 96S232 100 232 104V221L216 213C212 211 207 213 205 217C203 221 205 226 209 228L222 234L209 241C205 243 203 248 205 252C207 254 210 256 213 256C214 256 215 256 216 255L232 247V279C206 275 185 253 185 225C185 210 191 196 202 186C187 174 179 157 179 139C179 131 180 124 183 117C184 114 184 110 182 106C180 103 176 102 172 101C170 101 168 102 166 104C130 129 110 170 112 213C115 280 171 335 240 335C309 335 365 280 368 213C370 170 350 129 314 104ZM330 214C332 215 334 216 336 216S340 215 342 214L351 204C351 207 352 210 352 213C349 271 299 319 240 319C181 319 131 271 128 213C128 210 129 207 129 204L138 214C140 215 142 216 144 216S148 215 150 214C153 211 153 205 150 202L131 184C136 162 147 141 164 126C163 130 163 134 163 139C163 157 169 174 180 187C173 198 169 211 169 225C169 264 201 296 240 296S311 264 311 225C311 211 307 198 300 187C311 174 317 157 317 139C317 135 317 130 316 126C333 141 344 162 349 184L330 202C327 205 327 211 330 214ZM448 384V32C448 14 434 0 416 0H64C29 0 0 29 0 64V456C0 487 25 512 56 512L440 512C444 512 448 508 448 504C448 500 444 496 440 496H416V416C434 416 448 402 448 384ZM400 496H56C33 496 14 476 16 452C18 431 37 416 58 416L400 416V496ZM56 400C40 400 26 407 16 417V64C16 38 38 16 64 16H416C425 16 432 23 432 32V384C432 393 425 400 416 400L56 400Z"/></svg>