<svg xmlns="http://www.w3.org/2000/svg" viewBox="0 0 640 512"><!-- Font Awesome Pro 6.0.0-alpha1 by @fontawesome - https://fontawesome.com License - https://fontawesome.com/license (Commercial License) --><path d="M632 32C628 32 624 36 624 40V410C624 421 617 431 606 433L325 495C322 496 318 496 315 495L34 433C23 431 16 421 16 410V40C16 36 12 32 8 32S0 36 0 40V410C0 429 13 445 31 449L311 511C314 512 317 512 320 512S326 512 329 511L609 449C627 445 640 429 640 410V40C640 36 636 32 632 32ZM89 397L320 448L551 397C566 393 576 380 576 365V39C576 17 558 0 537 0C535 0 533 0 531 0L320 33L109 0C107 0 105 0 103 0C82 0 64 17 64 39V365C64 380 74 393 89 397ZM328 48L533 16C534 16 535 16 537 16C550 16 560 26 560 39V365C560 373 555 379 547 381L328 430V48ZM80 39C80 33 82 27 87 23C91 18 97 16 103 16C105 16 106 16 107 16L312 48V430L93 381C85 379 80 373 80 365V39Z"/></svg>