<svg xmlns="http://www.w3.org/2000/svg" viewBox="0 0 512 512"><!-- Font Awesome Pro 6.0.0-alpha1 by @fontawesome - https://fontawesome.com License - https://fontawesome.com/license (Commercial License) --><path d="M256 192C309 192 352 149 352 96S309 0 256 0S160 43 160 96S203 192 256 192ZM256 16C300 16 336 52 336 96S300 176 256 176C212 176 176 140 176 96S212 16 256 16ZM482 192C481 192 481 192 480 192C427 195 319 209 256 249C194 209 85 195 32 192C31 192 31 192 30 192C14 192 0 204 0 219V428C0 442 12 454 28 455C77 458 177 474 242 508C246 511 251 512 256 512C261 512 266 511 270 508C335 474 435 458 484 455C500 454 512 442 512 428V219C512 204 498 192 482 192ZM248 494C180 459 78 442 29 439C22 439 16 434 16 428V219C16 216 18 213 20 212C22 209 26 208 31 208H31C97 212 194 228 248 262L248 263V494ZM496 428C496 434 490 439 483 439C434 442 332 459 264 494V263L265 262C319 228 415 212 481 208L482 208C490 208 496 213 496 219V428Z"/></svg>