<svg xmlns="http://www.w3.org/2000/svg" viewBox="0 0 640 512"><!-- Font Awesome Pro 6.0.0-alpha1 by @fontawesome - https://fontawesome.com License - https://fontawesome.com/license (Commercial License) --><path d="M576 160V72C576 32 544 0 504 0H136C96 0 64 32 64 72V160C29 160 0 189 0 224V448C0 483 29 512 64 512H576C611 512 640 483 640 448V224C640 189 611 160 576 160ZM80 72C80 41 105 16 136 16H504C535 16 560 41 560 72V160H80V72ZM624 448C624 474 602 496 576 496H64C38 496 16 474 16 448V224C16 198 38 176 64 176H576C602 176 624 198 624 224V448ZM176 224C114 224 64 274 64 336S114 448 176 448S288 398 288 336S238 224 176 224ZM176 432C123 432 80 389 80 336S123 240 176 240S272 283 272 336S229 432 176 432ZM464 224C402 224 352 274 352 336S402 448 464 448S576 398 576 336S526 224 464 224ZM464 432C411 432 368 389 368 336S411 240 464 240S560 283 560 336S517 432 464 432ZM248 120H200C196 120 192 124 192 128S196 136 200 136H248C252 136 256 132 256 128S252 120 248 120ZM344 120H296C292 120 288 124 288 128S292 136 296 136H344C348 136 352 132 352 128S348 120 344 120ZM440 120H392C388 120 384 124 384 128S388 136 392 136H440C444 136 448 132 448 128S444 120 440 120Z"/></svg>