<svg xmlns="http://www.w3.org/2000/svg" viewBox="0 0 512 512"><!-- Font Awesome Pro 6.0.0-alpha1 by @fontawesome - https://fontawesome.com License - https://fontawesome.com/license (Commercial License) --><path d="M472 0H40C18 0 0 18 0 40V504C0 508 4 512 8 512S16 508 16 504V40C16 27 27 16 40 16H96V400C96 426 118 448 144 448C161 448 175 439 184 426C193 439 207 448 224 448S255 439 264 426C273 439 287 448 304 448S335 439 344 426C353 439 367 448 384 448S415 439 424 426C433 439 447 448 464 448C476 448 487 443 496 436V504C496 508 500 512 504 512S512 508 512 504V40C512 18 494 0 472 0ZM176 400C176 418 162 432 144 432S112 418 112 400V16H176V400ZM256 400C256 418 242 432 224 432S192 418 192 400V16H256V400ZM336 400C336 418 322 432 304 432S272 418 272 400V16H336V400ZM416 400C416 418 402 432 384 432S352 418 352 400V16H416V400ZM496 400C496 418 482 432 464 432S432 418 432 400V16H472C485 16 496 27 496 40V400Z"/></svg>