<svg xmlns="http://www.w3.org/2000/svg" viewBox="0 0 448 512"><!-- Font Awesome Pro 6.0.0-alpha1 by @fontawesome - https://fontawesome.com License - https://fontawesome.com/license (Commercial License) --><path d="M224 144C215 144 208 151 208 160S215 176 224 176S240 169 240 160S233 144 224 144ZM224 432C215 432 208 439 208 448S215 464 224 464S240 457 240 448S233 432 224 432ZM224 240C215 240 208 247 208 256S215 272 224 272S240 265 240 256S233 240 224 240ZM416 80C425 80 432 73 432 64S425 48 416 48S400 55 400 64S407 80 416 80ZM128 432C119 432 112 439 112 448S119 464 128 464S144 457 144 448S137 432 128 432ZM128 240C119 240 112 247 112 256S119 272 128 272S144 265 144 256S137 240 128 240ZM128 48C119 48 112 55 112 64S119 80 128 80S144 73 144 64S137 48 128 48ZM224 336C215 336 208 343 208 352S215 368 224 368S240 361 240 352S233 336 224 336ZM416 432C407 432 400 439 400 448S407 464 416 464S432 457 432 448S425 432 416 432ZM416 336C407 336 400 343 400 352S407 368 416 368S432 361 432 352S425 336 416 336ZM416 240C407 240 400 247 400 256S407 272 416 272S432 265 432 256S425 240 416 240ZM224 48C215 48 208 55 208 64S215 80 224 80S240 73 240 64S233 48 224 48ZM416 144C407 144 400 151 400 160S407 176 416 176S432 169 432 160S425 144 416 144ZM320 432C311 432 304 439 304 448S311 464 320 464S336 457 336 448S329 432 320 432ZM320 48C311 48 304 55 304 64S311 80 320 80S336 73 336 64S329 48 320 48ZM320 240C311 240 304 247 304 256S311 272 320 272S336 265 336 256S329 240 320 240ZM8 32C4 32 0 36 0 40V472C0 476 4 480 8 480S16 476 16 472V40C16 36 12 32 8 32Z"/></svg>