<svg xmlns="http://www.w3.org/2000/svg" viewBox="0 0 448 512"><!-- Font Awesome Pro 6.0.0-alpha1 by @fontawesome - https://fontawesome.com License - https://fontawesome.com/license (Commercial License) --><path d="M128 240C119 240 112 247 112 256S119 272 128 272S144 265 144 256S137 240 128 240ZM224 240C215 240 208 247 208 256S215 272 224 272S240 265 240 256S233 240 224 240ZM224 336C215 336 208 343 208 352S215 368 224 368S240 361 240 352S233 336 224 336ZM224 144C215 144 208 151 208 160S215 176 224 176S240 169 240 160S233 144 224 144ZM320 240C311 240 304 247 304 256S311 272 320 272S336 265 336 256S329 240 320 240ZM416 32H32C14 32 0 46 0 64V448C0 466 14 480 32 480H416C434 480 448 466 448 448V64C448 46 434 32 416 32ZM432 448C432 457 425 464 416 464H32C23 464 16 457 16 448V64C16 55 23 48 32 48H416C425 48 432 55 432 64V448Z"/></svg>