<svg xmlns="http://www.w3.org/2000/svg" viewBox="0 0 448 512"><!-- Font Awesome Pro 6.0.0-alpha1 by @fontawesome - https://fontawesome.com License - https://fontawesome.com/license (Commercial License) --><path d="M416 32H32C14 32 0 46 0 64V448C0 466 14 480 32 480H416C434 480 448 466 448 448V64C448 46 434 32 416 32ZM16 64C16 55 23 48 32 48H216V248H16V64ZM32 464C23 464 16 457 16 448V264H216V464H32ZM432 448C432 457 425 464 416 464H232V264H432V448ZM232 248V48H416C425 48 432 55 432 64V248H232Z"/></svg>