<svg xmlns="http://www.w3.org/2000/svg" viewBox="0 0 512 512"><!-- Font Awesome Pro 6.0.0-alpha1 by @fontawesome - https://fontawesome.com License - https://fontawesome.com/license (Commercial License) --><path d="M404 188C402 184 397 183 393 185C390 187 388 192 391 196C446 286 432 400 358 474C358 474 358 474 358 474L238 354C235 351 229 351 226 354C223 357 223 362 226 366L370 510C372 511 374 512 376 512C378 512 380 511 382 510C385 507 385 501 382 498L369 486C369 486 369 486 369 486C449 406 463 284 404 188ZM146 286C148 287 150 288 152 288S156 287 158 286C161 283 161 277 158 274L38 154C38 154 38 154 38 154C112 80 226 66 316 121C320 124 325 122 327 119C329 115 328 110 324 108C228 49 106 63 26 143C26 143 26 143 26 143L14 130C11 127 5 127 2 130C-1 134 -1 139 2 142L146 286ZM510 2C508 0 505 0 502 0L358 29C352 30 350 38 354 42L406 94L165 335L81 320C81 320 80 320 80 320C78 320 76 321 74 322L2 394C0 396 0 399 0 402C1 405 3 407 6 408L82 430L104 506C105 509 107 511 110 512C113 512 116 512 118 510L190 438C192 436 192 433 192 431L177 347L418 106L470 158C474 162 482 160 483 154L512 10C512 7 512 4 510 2ZM23 396L83 337L152 349L86 415L23 396ZM116 489L97 426L163 360L175 429L116 489ZM470 136L376 42L494 18L470 136Z"/></svg>