<svg xmlns="http://www.w3.org/2000/svg" viewBox="0 0 512 512"><!-- Font Awesome Pro 6.0.0-alpha1 by @fontawesome - https://fontawesome.com License - https://fontawesome.com/license (Commercial License) --><path d="M424 176C424 144 448 120 448 72S416 0 384 0H384C352 0 320 24 320 72C320 120 344 144 344 176C344 240 288 304 288 368C288 421 310 464 326 495C332 505 343 512 355 512H413C425 512 436 505 442 495C458 464 480 421 480 368C480 304 424 240 424 176ZM336 72C336 33 360 16 384 16H384C408 16 432 33 432 72C432 96 426 113 419 129C415 141 410 154 409 168H359C358 154 353 141 349 129C342 113 336 96 336 72ZM428 486L427 487C425 493 419 496 413 496H355C349 496 343 493 340 486C324 455 304 417 304 368C304 339 317 310 331 278C344 248 357 217 359 184H409C411 217 424 248 437 278C451 310 464 339 464 368C464 417 444 455 428 486ZM192 72C192 24 160 0 128 0H128C96 0 64 24 64 72C64 120 88 144 88 176C88 240 32 304 32 368C32 421 54 464 70 495C76 505 87 512 99 512H157C169 512 180 505 186 495C202 464 224 421 224 368C224 304 168 240 168 176C168 144 192 120 192 72ZM80 72C80 33 104 16 128 16H128C152 16 176 33 176 72C176 96 170 113 163 129C159 141 154 154 153 168H103C102 154 97 141 93 129C86 113 80 96 80 72ZM181 278C195 310 208 339 208 368C208 417 188 455 172 486L171 487C169 493 163 496 157 496H99C93 496 87 493 84 486C68 455 48 417 48 368C48 339 61 310 75 278C88 248 101 217 103 184H153C155 217 168 248 181 278Z"/></svg>