<svg xmlns="http://www.w3.org/2000/svg" viewBox="0 0 512 512"><!-- Font Awesome Pro 6.0.0-alpha1 by @fontawesome - https://fontawesome.com License - https://fontawesome.com/license (Commercial License) --><path d="M144 136C122 136 104 154 104 176S122 216 144 216S184 198 184 176S166 136 144 136ZM144 200C131 200 120 189 120 176C120 163 131 152 144 152C157 152 168 163 168 176C168 189 157 200 144 200ZM240 72C218 72 200 90 200 112S218 152 240 152S280 134 280 112S262 72 240 72ZM240 136C227 136 216 125 216 112C216 99 227 88 240 88C253 88 264 99 264 112C264 125 253 136 240 136ZM240 168C218 168 200 186 200 208S218 248 240 248S280 230 280 208S262 168 240 168ZM240 232C227 232 216 221 216 208C216 195 227 184 240 184C253 184 264 195 264 208C264 221 253 232 240 232ZM256 16C123 16 16 123 16 256S123 496 256 496S496 389 496 256S389 16 256 16ZM256 480C132 480 32 380 32 256S132 32 256 32S480 132 480 256S380 480 256 480Z"/></svg>