<svg xmlns="http://www.w3.org/2000/svg" viewBox="0 0 640 512"><!-- Font Awesome Pro 6.0.0-alpha1 by @fontawesome - https://fontawesome.com License - https://fontawesome.com/license (Commercial License) --><path d="M568 352C564 352 560 356 560 360V419C560 429 553 438 543 441L328 495V296C328 292 324 288 320 288S312 292 312 296V495L97 441C87 438 80 429 80 419V360C80 356 76 352 72 352S64 356 64 360V419C64 437 76 452 94 457L311 511C314 512 317 512 320 512S326 512 329 511L546 457C564 452 576 437 576 419V360C576 356 572 352 568 352ZM638 272L587 169C584 163 578 160 572 160C572 160 571 160 570 160L320 191L412 344C415 349 420 352 426 352C427 352 429 352 430 351L628 295C638 292 643 281 638 272ZM425 336L346 204L572 176L572 176L573 176L624 279L425 336ZM68 160C62 160 56 163 53 169L2 272C-3 281 2 292 12 295L210 351C211 352 213 352 214 352C220 352 225 349 228 344L320 191L70 160C69 160 68 160 68 160ZM214 336L16 279L67 176C68 176 68 176 68 176L68 176L294 204L214 336ZM308 167C309 168 311 168 312 168C315 168 318 167 319 164C325 153 328 142 328 131C328 92 297 61 259 61C220 61 189 92 189 131C189 136 190 142 192 148C193 152 197 155 202 154C206 152 208 148 207 144C206 139 205 135 205 131C205 101 229 77 259 77S312 101 312 131C312 139 310 148 305 156C303 160 304 165 308 167ZM129 138C129 143 133 146 137 146C142 146 145 142 145 137C145 136 144 135 144 133C144 133 144 132 144 131C144 67 195 16 259 16C321 16 372 65 373 128C373 132 376 135 380 136C384 136 387 134 389 131L429 21C429 19 431 18 432 17C434 16 436 16 438 16L491 36C493 37 494 38 495 40C496 41 496 43 496 45L461 139C460 144 462 148 466 150C467 150 468 150 469 150C472 150 475 148 476 145L511 51C513 45 512 38 510 33C507 27 502 23 497 21L443 1C438 -1 431 0 425 2C420 5 416 10 413 15L384 95C369 40 319 0 259 0C187 0 128 59 128 131C128 132 128 134 128 136C129 137 129 137 129 138Z"/></svg>