<svg xmlns="http://www.w3.org/2000/svg" viewBox="0 0 640 512"><!-- Font Awesome Pro 6.0.0-alpha1 by @fontawesome - https://fontawesome.com License - https://fontawesome.com/license (Commercial License) --><path d="M68 32C62 32 56 35 53 41L2 144C-3 153 2 164 12 167L210 223C211 224 213 224 214 224C220 224 225 221 228 216L320 63L70 32C69 32 68 32 68 32ZM214 208L16 151L67 48C68 48 68 48 68 48L68 48L294 76L214 208ZM638 144L587 41C584 35 578 32 572 32C572 32 571 32 570 32L320 63L412 216C415 221 420 224 426 224C427 224 429 224 430 223L628 167C638 164 643 153 638 144ZM425 208L346 76L572 48L572 48L573 48L624 151L425 208ZM568 224C564 224 560 228 560 232V387C560 397 553 406 543 409L328 463V168C328 164 324 160 320 160S312 164 312 168V463L97 409C87 406 80 397 80 387V232C80 228 76 224 72 224S64 228 64 232V387C64 405 76 420 94 425L311 479C314 480 317 480 320 480S326 480 329 479L546 425C564 420 576 405 576 387V232C576 228 572 224 568 224Z"/></svg>