<svg xmlns="http://www.w3.org/2000/svg" viewBox="0 0 448 512"><!-- Font Awesome Pro 6.0.0-alpha1 by @fontawesome - https://fontawesome.com License - https://fontawesome.com/license (Commercial License) --><path d="M441 146L393 50C387 39 376 32 364 32H84C72 32 61 39 55 50L7 146C2 155 0 165 0 175V448C0 466 14 480 32 480H416C434 480 448 466 448 448V175C448 165 446 155 441 146ZM232 48H364C370 48 376 51 379 57L427 154C428 156 429 158 429 160H232V48ZM21 154L69 57C72 51 78 48 84 48H216V160H19C19 158 20 156 21 154ZM432 448C432 457 425 464 416 464H32C23 464 16 457 16 448V176H432V448ZM242 384H208C197 384 187 380 179 372C176 369 171 369 168 372S165 380 168 383C179 394 193 400 208 400H216V424C216 428 220 432 224 432S232 428 232 424V400H242C264 400 282 382 282 359C282 341 270 325 253 320L200 305C189 302 182 292 182 281C182 267 193 256 206 256H240C251 256 261 260 269 268C272 271 277 271 280 268S283 260 280 257C269 246 255 240 240 240H232V216C232 212 228 208 224 208S216 212 216 216V240H206C184 240 166 258 166 281C166 299 178 315 195 320L248 335C259 338 266 348 266 359C266 373 255 384 242 384Z"/></svg>