<svg xmlns="http://www.w3.org/2000/svg" viewBox="0 0 512 512"><!-- Font Awesome Pro 6.0.0-alpha1 by @fontawesome - https://fontawesome.com License - https://fontawesome.com/license (Commercial License) --><path d="M464 224H448C444 224 440 228 440 232S444 240 448 240H464C482 240 496 254 496 272V384H16V272C16 254 30 240 48 240H64C68 240 72 236 72 232S68 224 64 224H48C22 224 0 246 0 272V480C0 498 14 512 32 512H480C498 512 512 498 512 480V272C512 246 490 224 464 224ZM496 480C496 489 489 496 480 496H32C23 496 16 489 16 480V400H496V480ZM128 304H384C387 304 390 302 392 299L456 107C456 104 456 101 454 99C453 97 451 96 448 96H339C312 96 288 79 280 53C269 21 239 0 205 0H64C62 0 59 1 58 3C56 5 56 7 56 10L120 298C121 301 124 304 128 304ZM205 16C232 16 256 33 264 59C275 91 305 112 339 112H437L378 288H134L74 16H205Z"/></svg>