<svg xmlns="http://www.w3.org/2000/svg" viewBox="0 0 640 512"><!-- Font Awesome Pro 6.0.0-alpha1 by @fontawesome - https://fontawesome.com License - https://fontawesome.com/license (Commercial License) --><path d="M32 464C23 464 16 457 16 448V176H273C275 176 277 175 279 173C279 173 279 173 279 173C283 168 280 160 273 160H232V48H364C370 48 376 51 379 57L398 96C400 99 403 101 406 100C407 100 407 100 407 100C412 99 415 93 412 89L393 50C387 39 376 32 364 32H84C72 32 61 39 55 50L7 146C2 155 0 165 0 175V448C0 466 14 480 32 480H273C280 480 283 472 279 467C279 467 279 467 279 467C277 465 275 464 273 464H32ZM21 154L69 57C72 51 78 48 84 48H216V160H19C19 158 20 156 21 154ZM538 258L424 373L366 314C363 311 357 311 354 314S351 323 354 326L418 390C420 391 422 392 424 392S428 391 430 390L550 270C553 267 553 261 550 258S541 255 538 258ZM448 128C342 128 256 214 256 320S342 512 448 512S640 426 640 320S554 128 448 128ZM448 496C351 496 272 417 272 320S351 144 448 144S624 223 624 320S545 496 448 496Z"/></svg>