<svg xmlns="http://www.w3.org/2000/svg" viewBox="0 0 512 512"><!-- Font Awesome Pro 6.0.0-alpha1 by @fontawesome - https://fontawesome.com License - https://fontawesome.com/license (Commercial License) --><path d="M270 355C268 352 263 351 259 353L208 390L157 353C153 351 148 352 145 355C143 359 144 364 147 366L194 400L147 433C144 436 143 441 146 445C147 447 150 448 152 448C154 448 155 448 157 447L208 410L259 447C261 448 262 448 264 448C266 448 269 447 270 445C273 441 272 436 269 434L222 400L269 367C272 364 273 359 270 355ZM416 152L416 104C416 47 369 0 312 0H120C63 0 16 46 16 102V296C16 324 28 351 48 371V456C48 487 73 512 104 512H328C359 512 384 487 384 456V387L440 331C450 321 481 291 480 224C480 187 452 156 416 152ZM429 320L368 381V456C368 478 350 496 328 496H104C82 496 64 478 64 456V364C42 344 32 322 32 296V102C32 55 72 16 120 16H312C360 16 400 55 400 104V152H368C343 152 322 165 309 184H173C139 184 109 164 95 133C94 129 89 127 85 129C81 130 79 135 81 139C97 176 133 200 173 200H300C298 208 296 216 296 224C296 264 328 296 368 296C372 296 376 292 376 288S372 280 368 280C337 280 312 255 312 224S337 168 368 168H408C439 168 464 193 464 224C465 285 438 310 429 320Z"/></svg>