<svg xmlns="http://www.w3.org/2000/svg" viewBox="0 0 512 512"><!-- Font Awesome Pro 6.0.0-alpha1 by @fontawesome - https://fontawesome.com License - https://fontawesome.com/license (Commercial License) --><path d="M141 54C144 52 145 47 142 43C140 40 135 39 131 42C127 44 32 115 32 256S127 468 131 470C133 471 134 472 136 472C138 472 141 471 142 469C145 465 144 460 141 458C140 457 48 389 48 256S140 55 141 54ZM381 42C377 39 372 40 370 43C367 47 368 52 371 54C372 55 464 123 464 256S372 457 371 458C368 460 367 465 370 469C371 471 374 472 376 472C378 472 379 472 381 471C385 468 480 397 480 256S385 44 381 42Z"/></svg>