<svg xmlns="http://www.w3.org/2000/svg" viewBox="0 0 576 512"><!-- Font Awesome Pro 6.0.0-alpha1 by @fontawesome - https://fontawesome.com License - https://fontawesome.com/license (Commercial License) --><path d="M112 152V104C112 73 137 48 168 48H216C220 48 224 44 224 40S220 32 216 32H168C128 32 96 64 96 104V152C96 194 73 230 36 249C34 250 32 253 32 256S34 262 36 263C73 282 96 318 96 360V408C96 448 128 480 168 480H216C220 480 224 476 224 472S220 464 216 464H168C137 464 112 439 112 408V360C112 317 91 279 56 256C91 233 112 195 112 152ZM540 249C503 230 480 194 480 152V104C480 64 448 32 408 32H360C356 32 352 36 352 40S356 48 360 48H408C439 48 464 73 464 104V152C464 195 485 233 520 256C485 279 464 317 464 360V408C464 439 439 464 408 464H360C356 464 352 468 352 472S356 480 360 480H408C448 480 480 448 480 408V360C480 318 503 282 540 263C542 262 544 259 544 256S542 250 540 249Z"/></svg>