<svg xmlns="http://www.w3.org/2000/svg" viewBox="0 0 512 512"><!-- Font Awesome Pro 6.0.0-alpha1 by @fontawesome - https://fontawesome.com License - https://fontawesome.com/license (Commercial License) --><path d="M256 32C96 32 0 112 0 177C0 203 22 224 57 224H64V448C64 466 78 480 96 480H416C434 480 448 466 448 448V224H455C490 224 512 203 512 177C512 112 416 32 256 32ZM455 208H432V448C432 457 425 464 416 464H96C87 464 80 457 80 448V208H57C32 208 16 196 16 177C16 124 101 48 256 48C411 48 496 124 496 177C496 196 480 208 455 208Z"/></svg>