<svg xmlns="http://www.w3.org/2000/svg" viewBox="0 0 640 512"><!-- Font Awesome Pro 6.0.0-alpha1 by @fontawesome - https://fontawesome.com License - https://fontawesome.com/license (Commercial License) --><path d="M16 144C16 126 30 112 48 112H464C482 112 496 126 496 144V160H512V144C512 118 490 96 464 96H384V40C384 18 366 0 344 0H168C146 0 128 18 128 40V96H48C22 96 0 118 0 144V432C0 458 22 480 48 480H320V464H48C30 464 16 450 16 432V272H176V328C176 341 187 352 200 352H288V336H200C196 336 192 332 192 328V272H320V256H16V144ZM144 40C144 27 155 16 168 16H344C357 16 368 27 368 40V96H144V40ZM552 368H496V296C496 292 492 288 488 288S480 292 480 296V376C480 380 484 384 488 384H552C556 384 560 380 560 376S556 368 552 368ZM496 224C416 224 352 288 352 368S416 512 496 512S640 448 640 368S576 224 496 224ZM496 496C425 496 368 439 368 368S425 240 496 240C567 240 624 297 624 368S567 496 496 496Z"/></svg>