<svg xmlns="http://www.w3.org/2000/svg" viewBox="0 0 640 512"><!-- Font Awesome Pro 6.0.0-alpha1 by @fontawesome - https://fontawesome.com License - https://fontawesome.com/license (Commercial License) --><path d="M330 340C322 370 303 430 262 463C214 501 57 497 17 495C19 486 22 470 26 452L117 344C121 339 121 332 118 327C114 322 107 320 102 322L59 338C73 300 88 275 104 263C144 230 207 225 238 224C245 224 248 216 244 211C243 209 240 208 238 208C205 209 138 214 94 250C74 266 55 299 38 348C37 351 38 355 40 357C42 359 45 360 48 359L99 340L13 443C12 444 11 445 11 446C4 478 0 501 0 501C0 503 0 505 2 507S5 510 7 510C10 510 36 512 71 512C137 512 233 506 272 475C317 440 338 376 346 344C346 341 346 339 344 337C340 332 332 334 330 340ZM638 3C636 0 631 -1 627 2L380 194L336 138C336 138 336 138 336 138C332 133 326 131 319 131C313 132 308 136 305 142L281 193C280 196 280 199 282 201L364 304C365 306 368 307 370 307C371 307 371 307 372 307L427 295C433 294 438 290 440 284C442 278 441 271 437 266L390 206L637 14C640 12 641 7 638 3ZM425 276C426 277 425 278 425 278C425 279 425 279 424 279L373 290L298 195L319 149C320 147 321 147 321 147C322 147 323 147 324 148L425 276Z"/></svg>