<svg xmlns="http://www.w3.org/2000/svg" viewBox="0 0 576 512"><!-- Font Awesome Pro 6.0.0-alpha1 by @fontawesome - https://fontawesome.com License - https://fontawesome.com/license (Commercial License) --><path d="M472 448C468 448 464 452 464 456C464 478 446 496 424 496H72C41 496 16 471 16 440V152C16 130 34 112 56 112C60 112 64 108 64 104S60 96 56 96C25 96 0 121 0 152V440C0 480 32 512 72 512H424C455 512 480 487 480 456C480 452 476 448 472 448ZM528 0H144C118 0 96 22 96 48V368C96 394 118 416 144 416H528C554 416 576 394 576 368V48C576 22 554 0 528 0ZM112 48C112 30 126 16 144 16H184V96H112V48ZM560 368C560 386 546 400 528 400H144C126 400 112 386 112 368V112H560V368ZM560 96H200V16H528C546 16 560 30 560 48V96Z"/></svg>