<svg xmlns="http://www.w3.org/2000/svg" viewBox="0 0 576 512"><!-- Font Awesome Pro 6.0.0-alpha1 by @fontawesome - https://fontawesome.com License - https://fontawesome.com/license (Commercial License) --><path d="M200 128C204 128 208 124 208 120V96C208 52 244 16 288 16S368 52 368 96V120C368 124 372 128 376 128S384 124 384 120V96C384 43 341 0 288 0S192 43 192 96V120C192 124 196 128 200 128ZM536 280H424V195L510 110C513 107 513 101 510 98S501 95 498 98L420 177C414 167 404 160 392 160H184C172 160 162 167 156 177L78 98C75 95 69 95 66 98S63 107 66 110L152 195V280H40C36 280 32 284 32 288S36 296 40 296H152V368C152 381 155 394 159 406L66 498C63 502 63 507 66 510C68 511 70 512 72 512S76 511 78 510L166 421C185 456 222 480 264 480H312C354 480 391 456 410 421L498 510C500 511 502 512 504 512S508 511 510 510C513 507 513 501 510 498L417 406C421 394 424 381 424 368V296H536C540 296 544 292 544 288S540 280 536 280ZM408 368C408 421 365 464 312 464H296V232C296 228 292 224 288 224S280 228 280 232V464H264C211 464 168 421 168 368V192C168 183 175 176 184 176H392C401 176 408 183 408 192V368Z"/></svg>