<svg xmlns="http://www.w3.org/2000/svg" viewBox="0 0 448 512"><!-- Font Awesome Pro 6.0.0-alpha1 by @fontawesome - https://fontawesome.com License - https://fontawesome.com/license (Commercial License) --><path d="M184 216H136C127 216 120 223 120 232V280C120 289 127 296 136 296H184C193 296 200 289 200 280V232C200 223 193 216 184 216ZM184 280C184 280 184 280 184 280L136 280V232H184V280ZM440 496H416V32C416 14 402 0 384 0H64C46 0 32 14 32 32V496H8C4 496 0 500 0 504S4 512 8 512H176C185 512 192 505 192 496V384H256V496C256 505 263 512 272 512H440C444 512 448 508 448 504S444 496 440 496ZM400 496H272V384C272 375 265 368 256 368H192C183 368 176 375 176 384V496H48V32C48 23 55 16 64 16H384C393 16 400 23 400 32V496ZM312 88H264C255 88 248 95 248 104V152C248 161 255 168 264 168H312C321 168 328 161 328 152V104C328 95 321 88 312 88ZM312 152C312 152 312 152 312 152L264 152V104H312V152ZM312 216H264C255 216 248 223 248 232V280C248 289 255 296 264 296H312C321 296 328 289 328 280V232C328 223 321 216 312 216ZM312 280C312 280 312 280 312 280L264 280V232H312V280ZM184 88H136C127 88 120 95 120 104V152C120 161 127 168 136 168H184C193 168 200 161 200 152V104C200 95 193 88 184 88ZM184 152C184 152 184 152 184 152L136 152V104H184V152Z"/></svg>