<svg xmlns="http://www.w3.org/2000/svg" viewBox="0 0 512 512"><!-- Font Awesome Pro 6.0.0-alpha1 by @fontawesome - https://fontawesome.com License - https://fontawesome.com/license (Commercial License) --><path d="M262 251C260 249 257 248 254 249L30 312C26 313 24 316 24 320C24 323 27 326 30 327L144 356L2 498C-1 501 -1 507 2 510C4 511 6 512 8 512S12 511 14 510L156 367L184 482C185 485 188 488 192 488H192C196 488 199 486 200 482L264 259C265 256 264 253 262 251ZM193 449L168 350C168 350 167 345 162 344L63 319L244 268L193 449ZM293 309C289 312 288 317 291 320C292 322 295 324 297 324C299 324 301 323 302 322C323 307 336 283 336 257C336 212 300 176 256 176C230 176 206 189 191 210C189 214 189 219 193 221C196 224 202 223 204 219C216 203 236 192 256 192C291 192 320 221 320 257C320 277 310 297 293 309ZM271 416C271 416 272 416 272 416C354 407 416 339 416 257C416 168 344 96 256 96C174 96 106 158 98 240C97 244 100 248 105 249C109 249 113 246 114 241C121 168 183 112 256 112C335 112 400 177 400 257C400 331 344 392 270 400C266 400 263 404 263 408C263 412 267 416 271 416ZM256 16C124 16 16 124 16 257C16 258 16 260 16 261L16 264C16 268 20 271 24 271H25C29 271 32 268 32 263L32 260C32 259 32 258 32 257C32 133 133 32 256 32S480 133 480 257S380 481 256 481C254 481 253 481 252 481L248 481C243 481 240 484 240 489C240 493 243 497 247 497L250 497C252 497 254 497 256 497C388 497 496 389 496 257S388 16 256 16Z"/></svg>