<svg xmlns="http://www.w3.org/2000/svg" viewBox="0 0 640 512"><!-- Font Awesome Pro 6.0.0-alpha1 by @fontawesome - https://fontawesome.com License - https://fontawesome.com/license (Commercial License) --><path d="M248 496H109C96 496 86 487 85 475L48 144H344C348 144 352 140 352 136S348 128 344 128H186L210 34C212 23 222 16 233 16H280C284 16 288 12 288 8S284 0 280 0H233C215 0 199 12 194 30L170 128H8C4 128 0 132 0 136S4 144 8 144H32C32 144 32 145 32 145L69 476C71 497 88 512 109 512H248C252 512 256 508 256 504S252 496 248 496ZM448 268C455 268 460 263 460 256S455 244 448 244S436 249 436 256S441 268 448 268ZM364 288C371 288 376 283 376 276S371 264 364 264S352 269 352 276S357 288 364 288ZM532 288C539 288 544 283 544 276S539 264 532 264S520 269 520 276S525 288 532 288ZM616 343V304C616 282 607 261 589 243C558 213 502 192 448 192C448 192 448 192 448 192C394 192 338 213 307 243C289 261 280 282 280 304V343C266 351 256 366 256 384S266 417 280 425V468C280 492 300 512 324 512H572C596 512 616 492 616 468V425C630 417 640 402 640 384S630 351 616 343ZM296 304C296 286 304 270 319 255C347 227 398 208 448 208C448 208 448 208 448 208C498 208 549 227 577 255C592 270 600 286 600 304V337C597 336 595 336 592 336H304C301 336 299 336 296 337V304ZM600 468C600 483 587 496 572 496H324C309 496 296 483 296 468V431C299 432 301 432 304 432H592C595 432 597 432 600 431V468ZM592 416H304C286 416 272 402 272 384S286 352 304 352H592C610 352 624 366 624 384S610 416 592 416Z"/></svg>