<svg xmlns="http://www.w3.org/2000/svg" viewBox="0 0 640 512"><!-- Font Awesome Pro 6.0.0-alpha1 by @fontawesome - https://fontawesome.com License - https://fontawesome.com/license (Commercial License) --><path d="M263 63C265 59 267 59 267 59L302 48C304 48 307 48 309 50C311 52 312 55 312 57L290 179C288 186 296 191 302 187C302 187 302 187 302 186C304 185 305 183 305 181L328 60C329 52 326 44 320 38C314 33 305 31 297 33L263 43C257 45 252 49 249 55C247 59 248 64 252 66C256 68 261 67 263 63ZM93 239C94 243 97 246 101 246C102 246 102 246 103 246C107 245 110 241 109 236L72 47C72 44 73 41 75 39L104 18C106 16 109 16 111 17C114 18 116 20 116 23L120 43C121 47 125 50 130 49C134 48 137 44 136 40L132 20C131 11 125 5 117 2C109 -1 100 0 94 5L66 26C58 32 55 41 56 50L93 239ZM239 501C237 498 235 496 231 496H86C78 496 72 491 70 483L16 240L50 240C61 286 121 320 192 320C204 320 215 319 226 317C229 316 232 313 232 310C232 310 232 309 232 309C232 304 228 301 223 301C213 303 203 304 192 304C127 304 74 274 65 235C64 228 57 224 50 224H16C11 224 6 226 3 230C0 234 -1 239 0 243L54 487C58 502 71 512 86 512H231C237 512 241 507 239 501C239 501 239 501 239 501ZM16 194C17 197 20 200 24 200C25 200 25 200 26 200C30 199 33 195 32 190L16 112C15 107 17 101 21 97C25 94 30 93 35 94C40 95 44 92 45 88C46 84 43 80 39 79C29 76 18 79 11 85C2 93 -1 104 1 115L16 194ZM160 277C164 277 168 273 168 269V24C168 21 169 19 172 17C174 16 177 16 180 17L212 33C214 34 216 37 216 40V269C216 273 220 277 224 277S232 273 232 269V40C232 31 227 22 219 19L187 3C179 -1 170 -1 163 4C156 8 152 16 152 24V269C152 273 156 277 160 277ZM350 97C353 96 358 96 363 100C367 104 369 109 368 115L361 146C360 152 366 157 371 155L371 155C374 154 376 152 377 149L383 118C385 107 382 96 373 88C367 82 357 79 347 81C343 82 340 86 340 90C341 95 345 97 350 97ZM364 288C371 288 376 283 376 276S371 264 364 264S352 269 352 276S357 288 364 288ZM616 343V304C616 282 607 261 589 243C558 213 502 192 448 192C448 192 448 192 448 192C394 192 338 213 307 243C289 261 280 282 280 304V343C266 351 256 366 256 384C256 402 266 417 280 425V468C280 492 300 512 324 512H572C596 512 616 492 616 468V425C630 417 640 402 640 384C640 366 630 351 616 343ZM296 304C296 286 304 270 319 255C347 227 398 208 448 208C448 208 448 208 448 208C498 208 549 227 577 255C592 270 600 286 600 304V337C597 336 595 336 592 336H304C301 336 299 336 296 337V304ZM600 468C600 483 587 496 572 496H324C309 496 296 483 296 468V431C299 432 301 432 304 432H592C595 432 597 432 600 431V468ZM592 416H304C286 416 272 402 272 384C272 366 286 352 304 352H592C610 352 624 366 624 384C624 402 610 416 592 416ZM448 268C455 268 460 263 460 256C460 249 455 244 448 244S436 249 436 256C436 263 441 268 448 268ZM532 288C539 288 544 283 544 276S539 264 532 264S520 269 520 276S525 288 532 288Z"/></svg>