<svg xmlns="http://www.w3.org/2000/svg" viewBox="0 0 512 512"><!-- Font Awesome Pro 6.0.0-alpha1 by @fontawesome - https://fontawesome.com License - https://fontawesome.com/license (Commercial License) --><path d="M384 192C393 192 400 185 400 176S393 160 384 160S368 167 368 176S375 192 384 192ZM256 160C265 160 272 153 272 144S265 128 256 128S240 135 240 144S247 160 256 160ZM128 192C137 192 144 185 144 176S137 160 128 160S112 167 112 176S119 192 128 192ZM496 304C496 281 482 261 462 252C466 249 469 245 472 240C483 222 483 198 472 179C431 109 347 64 256 64C166 64 81 109 40 179C29 198 29 222 40 240C43 245 46 249 50 252C30 261 16 281 16 304C16 324 27 342 43 352C37 358 32 367 32 377C32 416 61 448 98 448H414C451 448 480 416 480 377C480 367 475 358 469 352C485 342 496 324 496 304ZM54 187C91 123 172 80 256 80C340 80 421 123 458 187C466 201 466 219 458 232C452 242 443 248 434 248H78C69 248 60 242 54 232C46 219 46 201 54 187ZM386 264L320 303L254 264H386ZM414 432H98C70 432 48 407 48 377C48 367 54 360 62 360H450C458 360 464 367 464 377C464 407 442 432 414 432ZM440 344H72C50 344 32 326 32 304S50 264 72 264H222L316 319C317 320 319 320 320 320S323 320 324 319L418 264H440C462 264 480 282 480 304S462 344 440 344Z"/></svg>