<svg xmlns="http://www.w3.org/2000/svg" viewBox="0 0 512 512"><!-- Font Awesome Pro 6.0.0-alpha1 by @fontawesome - https://fontawesome.com License - https://fontawesome.com/license (Commercial License) --><path d="M505 154C510 144 512 134 512 123C512 91 491 62 460 52C453 32 439 15 419 7C410 2 399 0 389 0C378 0 368 2 358 7C348 2 337 0 326 0C295 0 265 18 252 48L34 267C-11 312 -11 385 34 431L81 478C104 501 134 512 163 512C193 512 223 501 245 478L464 260C504 242 523 195 505 154ZM45 278L259 64C287 96 304 138 304 184C304 285 221 368 120 368C82 368 47 356 17 336C20 315 29 294 45 278ZM234 467C215 486 190 496 163 496C137 496 112 486 93 467L45 419C27 401 18 378 17 354C47 373 82 384 120 384C216 384 296 317 315 227C325 225 334 224 344 224C382 224 417 236 446 255L234 467ZM492 210C485 225 474 238 458 245C426 222 387 208 344 208C335 208 327 209 318 210C319 202 320 193 320 184C320 133 301 86 269 51C280 30 302 16 326 16C335 16 343 18 352 21C354 22 356 23 358 23C360 23 363 22 365 21C372 18 380 16 389 16C397 16 405 18 413 21C428 28 439 41 444 57C446 62 450 66 455 68C479 75 496 98 496 123C496 131 494 140 491 147C489 151 489 156 490 160C497 176 498 194 492 210ZM316 61C312 63 311 68 313 72C315 76 320 77 324 75C333 70 345 71 353 79C362 88 362 101 355 111C352 115 353 120 356 122C358 123 359 124 361 124C364 124 366 123 367 121C380 105 379 82 364 68C351 55 332 52 316 61ZM404 101C400 103 399 108 401 112C403 116 408 117 412 115C421 110 433 111 441 119C450 128 450 141 443 151C440 155 441 160 444 162C446 163 447 164 449 164C452 164 454 163 455 161C468 145 467 122 452 108C439 95 420 92 404 101Z"/></svg>