<svg xmlns="http://www.w3.org/2000/svg" viewBox="0 0 576 512"><!-- Font Awesome Pro 6.0.0-alpha1 by @fontawesome - https://fontawesome.com License - https://fontawesome.com/license (Commercial License) --><path d="M360 48H216C212 48 208 52 208 56S212 64 216 64H360C364 64 368 60 368 56S364 48 360 48ZM72 248C72 244 68 240 64 240H56C52 240 48 236 48 232V120C48 116 52 112 56 112H64C68 112 72 108 72 104S68 96 64 96H56C43 96 32 107 32 120V232C32 245 43 256 56 256H64C68 256 72 252 72 248ZM520 96H512C508 96 504 100 504 104S508 112 512 112H520C524 112 528 116 528 120V232C528 236 524 240 520 240H512C508 240 504 244 504 248S508 256 512 256H520C533 256 544 245 544 232V120C544 107 533 96 520 96ZM160 312C138 312 120 330 120 352S138 392 160 392S200 374 200 352S182 312 160 312ZM160 376C147 376 136 365 136 352C136 339 147 328 160 328S184 339 184 352C184 365 173 376 160 376ZM480 259V74C480 33 395 0 288 0C181 0 96 33 96 74V259C77 266 64 283 64 304V400C64 426 86 448 112 448V504C112 508 116 512 120 512S128 508 128 504V448H448V504C448 508 452 512 456 512S464 508 464 504V448C490 448 512 426 512 400V304C512 283 499 266 480 259ZM112 74C112 50 179 16 288 16C397 16 464 50 464 74V96H112V74ZM464 112V256H296V112H464ZM112 112H280V256H112V112ZM496 400C496 418 482 432 464 432H112C94 432 80 418 80 400V304C80 286 94 272 112 272H464C482 272 496 286 496 304V400ZM416 312C394 312 376 330 376 352S394 392 416 392S456 374 456 352S438 312 416 312ZM416 376C403 376 392 365 392 352C392 339 403 328 416 328S440 339 440 352C440 365 429 376 416 376Z"/></svg>