<svg xmlns="http://www.w3.org/2000/svg" viewBox="0 0 448 512"><!-- Font Awesome Pro 6.0.0-alpha1 by @fontawesome - https://fontawesome.com License - https://fontawesome.com/license (Commercial License) --><path d="M352 392C374 392 392 374 392 352S374 312 352 312S312 330 312 352S330 392 352 392ZM352 328C365 328 376 339 376 352C376 365 365 376 352 376S328 365 328 352C328 339 339 328 352 328ZM224 0C99 0 0 35 0 80V416C0 434 14 448 32 448H48V504C48 508 52 512 56 512H56C60 512 64 508 64 504V448H384V504C384 508 388 512 392 512L392 512C396 512 400 508 400 504V448H422C438 448 448 435 448 422V80C448 35 349 0 224 0ZM432 422C432 426 430 432 422 432H32C23 432 16 425 16 416V272H432V422ZM432 256H16V112H432V256ZM432 96H16V80C16 53 95 16 224 16S432 53 432 80V96ZM96 392C118 392 136 374 136 352S118 312 96 312S56 330 56 352S74 392 96 392ZM96 328C109 328 120 339 120 352C120 365 109 376 96 376S72 365 72 352C72 339 83 328 96 328Z"/></svg>