<svg xmlns="http://www.w3.org/2000/svg" viewBox="0 0 576 512"><!-- Font Awesome Pro 6.0.0-alpha1 by @fontawesome - https://fontawesome.com License - https://fontawesome.com/license (Commercial License) --><path d="M416 392C438 392 456 374 456 352S438 312 416 312S376 330 376 352S394 392 416 392ZM416 328C429 328 440 339 440 352C440 365 429 376 416 376S392 365 392 352C392 339 403 328 416 328ZM24 128H32C36 128 40 124 40 120S36 112 32 112H24C11 112 0 123 0 136V248C0 261 11 272 24 272H32C36 272 40 268 40 264S36 256 32 256H24C20 256 16 252 16 248V136C16 132 20 128 24 128ZM552 112H544C540 112 536 116 536 120S540 128 544 128H552C556 128 560 132 560 136V248C560 252 556 256 552 256H544C540 256 536 260 536 264S540 272 544 272H552C565 272 576 261 576 248V136C576 123 565 112 552 112ZM288 0C163 0 64 35 64 80V416C64 434 78 448 96 448H112V504C112 508 116 512 120 512S128 508 128 504V448H448V504C448 508 452 512 456 512S464 508 464 504V448H486C502 448 512 435 512 422V80C512 35 413 0 288 0ZM80 112H280V256H80V112ZM496 422C496 426 494 432 486 432H96C87 432 80 425 80 416V272H496V422ZM496 256H296V112H496V256ZM496 96H80V80C80 53 159 16 288 16S496 53 496 80V96ZM160 392C182 392 200 374 200 352S182 312 160 312S120 330 120 352S138 392 160 392ZM160 328C173 328 184 339 184 352C184 365 173 376 160 376S136 365 136 352C136 339 147 328 160 328ZM360 48H216C212 48 208 52 208 56S212 64 216 64H360C364 64 368 60 368 56S364 48 360 48Z"/></svg>