<svg xmlns="http://www.w3.org/2000/svg" viewBox="0 0 448 512"><!-- Font Awesome Pro 6.0.0-alpha1 by @fontawesome - https://fontawesome.com License - https://fontawesome.com/license (Commercial License) --><path d="M136 400C140 400 144 396 144 392V376C144 372 148 368 152 368H296C300 368 304 372 304 376V392C304 396 308 400 312 400S320 396 320 392V376C320 363 309 352 296 352H152C139 352 128 363 128 376V392C128 396 132 400 136 400ZM296 96H152C139 96 128 107 128 120V136C128 140 132 144 136 144S144 140 144 136V120C144 116 148 112 152 112H296C300 112 304 116 304 120V136C304 140 308 144 312 144S320 140 320 136V120C320 107 309 96 296 96ZM384 0H64C29 0 0 29 0 64V448C0 483 29 512 64 512H384C419 512 448 483 448 448V64C448 29 419 0 384 0ZM432 448C432 474 410 496 384 496H64C38 496 16 474 16 448V264H432V448ZM432 248H16V64C16 38 38 16 64 16H384C410 16 432 38 432 64V248Z"/></svg>