<svg xmlns="http://www.w3.org/2000/svg" viewBox="0 0 512 512"><!-- Font Awesome Pro 6.0.0-alpha1 by @fontawesome - https://fontawesome.com License - https://fontawesome.com/license (Commercial License) --><path d="M240 384H272C290 384 304 370 304 352V320C304 302 290 288 272 288H240C222 288 208 302 208 320V352C208 370 222 384 240 384ZM224 320C224 311 231 304 240 304H272C281 304 288 311 288 320V352C288 361 281 368 272 368H240C231 368 224 361 224 352V320ZM80 320V352C80 370 94 384 112 384H144C162 384 176 370 176 352V320C176 302 162 288 144 288H112C94 288 80 302 80 320ZM96 320C96 311 103 304 112 304H144C153 304 160 311 160 320V352C160 361 153 368 144 368H112C103 368 96 361 96 352V320ZM368 384H400C418 384 432 370 432 352V320C432 302 418 288 400 288H368C350 288 336 302 336 320V352C336 370 350 384 368 384ZM352 320C352 311 359 304 368 304H400C409 304 416 311 416 320V352C416 361 409 368 400 368H368C359 368 352 361 352 352V320ZM502 40L6 168C2 169 -1 174 0 178C1 182 4 184 8 184C9 184 9 184 10 184L248 122V224H96C61 224 32 253 32 288V448C32 483 61 512 96 512H416C451 512 480 483 480 448V288C480 253 451 224 416 224H264V118L506 56C510 55 513 50 512 46C511 42 506 39 502 40ZM416 240C442 240 464 262 464 288V448C464 474 442 496 416 496H96C70 496 48 474 48 448V288C48 262 70 240 96 240H416ZM192 96C210 96 224 82 224 64C224 46 210 32 192 32S160 46 160 64C160 82 174 96 192 96ZM192 48C201 48 208 55 208 64S201 80 192 80S176 73 176 64S183 48 192 48ZM288 64C306 64 320 50 320 32C320 14 306 0 288 0S256 14 256 32C256 50 270 64 288 64ZM288 16C297 16 304 23 304 32S297 48 288 48S272 41 272 32S279 16 288 16Z"/></svg>