<svg xmlns="http://www.w3.org/2000/svg" viewBox="0 0 512 512"><!-- Font Awesome Pro 6.0.0-alpha1 by @fontawesome - https://fontawesome.com License - https://fontawesome.com/license (Commercial License) --><path d="M464 224C438 224 416 246 416 272V304C416 313 409 320 400 320H352V144H376C380 144 384 140 384 136S380 128 376 128H352V101C352 49 313 3 261 0C259 0 258 0 256 0C232 0 208 9 190 26C171 45 160 70 160 96V224H112C103 224 96 217 96 208V176C96 150 74 128 48 128S0 150 0 176V208C0 270 50 320 112 320H160V384H136C132 384 128 388 128 392S132 400 136 400H160V480C160 498 174 512 192 512H320C338 512 352 498 352 480V416H400C462 416 512 366 512 304V272C512 246 490 224 464 224ZM160 304H112C59 304 16 261 16 208V176C16 158 30 144 48 144S80 158 80 176V208C80 226 94 240 112 240H160V304ZM336 480C336 489 329 496 320 496H192C183 496 176 489 176 480V96C176 74 185 53 201 38C216 24 236 16 256 16C258 16 259 16 260 16C302 18 336 57 336 101V480ZM496 304C496 357 453 400 400 400H352V336H400C418 336 432 322 432 304V272C432 254 446 240 464 240S496 254 496 272V304ZM224 144C215 144 208 151 208 160S215 176 224 176S240 169 240 160S233 144 224 144ZM288 368C279 368 272 375 272 384S279 400 288 400S304 393 304 384S297 368 288 368Z"/></svg>