<svg xmlns="http://www.w3.org/2000/svg" viewBox="0 0 384 512"><!-- Font Awesome Pro 6.0.0-alpha1 by @fontawesome - https://fontawesome.com License - https://fontawesome.com/license (Commercial License) --><path d="M80 256H112C121 256 128 249 128 240V208C128 199 121 192 112 192H80C71 192 64 199 64 208V240C64 249 71 256 80 256ZM80 208H112V240H80V208ZM64 336C64 345 71 352 80 352H112C121 352 128 345 128 336V304C128 295 121 288 112 288H80C71 288 64 295 64 304V336ZM80 304H112V336H80V304ZM208 384H80C71 384 64 391 64 400V432C64 441 71 448 80 448H208C217 448 224 441 224 432V400C224 391 217 384 208 384ZM208 432H80V400H208V432ZM304 288H272C263 288 256 295 256 304V336C256 345 263 352 272 352H304C313 352 320 345 320 336V304C320 295 313 288 304 288ZM304 336H272V304H304V336ZM288 64H96C78 64 64 78 64 96V128C64 146 78 160 96 160H288C306 160 320 146 320 128V96C320 78 306 64 288 64ZM304 128C304 137 297 144 288 144H96C87 144 80 137 80 128V96C80 87 87 80 96 80H288C297 80 304 87 304 96V128ZM304 192H272C263 192 256 199 256 208V240C256 249 263 256 272 256H304C313 256 320 249 320 240V208C320 199 313 192 304 192ZM304 240H272V208H304V240ZM320 0H64C29 0 0 29 0 64V448C0 483 29 512 64 512H320C355 512 384 483 384 448V64C384 29 355 0 320 0ZM368 448C368 474 346 496 320 496H64C38 496 16 474 16 448V64C16 38 38 16 64 16H320C346 16 368 38 368 64V448ZM208 192H176C167 192 160 199 160 208V240C160 249 167 256 176 256H208C217 256 224 249 224 240V208C224 199 217 192 208 192ZM208 240H176V208H208V240ZM208 288H176C167 288 160 295 160 304V336C160 345 167 352 176 352H208C217 352 224 345 224 336V304C224 295 217 288 208 288ZM208 336H176V304H208V336ZM304 384H272C263 384 256 391 256 400V432C256 441 263 448 272 448H304C313 448 320 441 320 432V400C320 391 313 384 304 384ZM304 432H272V400H304V432Z"/></svg>