<svg xmlns="http://www.w3.org/2000/svg" viewBox="0 0 448 512"><!-- Font Awesome Pro 6.0.0-alpha1 by @fontawesome - https://fontawesome.com License - https://fontawesome.com/license (Commercial License) --><path d="M400 64H336V8C336 4 332 0 328 0S320 4 320 8V64H128V8C128 4 124 0 120 0S112 4 112 8V64H48C22 64 0 86 0 112V464C0 490 22 512 48 512H400C426 512 448 490 448 464V112C448 86 426 64 400 64ZM432 464C432 482 418 496 400 496H48C30 496 16 482 16 464V208H432V464ZM432 192H16V112C16 94 30 80 48 80H112V128C112 132 116 136 120 136S128 132 128 128V80H320V128C320 132 324 136 328 136S336 132 336 128V80H400C418 80 432 94 432 112V192ZM96 384H160C178 384 192 370 192 352V288C192 270 178 256 160 256H96C78 256 64 270 64 288V352C64 370 78 384 96 384ZM80 288C80 279 87 272 96 272H160C169 272 176 279 176 288V352C176 361 169 368 160 368H96C87 368 80 361 80 352V288Z"/></svg>