<svg xmlns="http://www.w3.org/2000/svg" viewBox="0 0 448 512"><!-- Font Awesome Pro 6.0.0-alpha1 by @fontawesome - https://fontawesome.com License - https://fontawesome.com/license (Commercial License) --><path d="M400 64H336V8C336 4 332 0 328 0S320 4 320 8V64H128V8C128 4 124 0 120 0S112 4 112 8V64H48C22 64 0 86 0 112V464C0 490 22 512 48 512H400C426 512 448 490 448 464V112C448 86 426 64 400 64ZM432 464C432 482 418 496 400 496H48C30 496 16 482 16 464V208H432V464ZM432 192H16V112C16 94 30 80 48 80H112V128C112 132 116 136 120 136S128 132 128 128V80H320V128C320 132 324 136 328 136S336 132 336 128V80H400C418 80 432 94 432 112V192ZM169 379L160 434C159 442 165 448 172 448C174 448 175 448 177 447L224 421L271 447C273 448 274 448 276 448C283 448 289 442 288 434L279 379L317 341C323 334 320 322 310 320L258 312L234 263C232 258 228 256 224 256C220 256 216 258 214 263L190 312L138 320C128 322 125 334 131 341L169 379ZM193 328L201 327L205 319L224 278L243 319L247 327L255 328L300 335L267 368L261 374L263 382L270 428L232 407L224 403L216 407L178 428L185 382L187 374L181 368L148 335L193 328Z"/></svg>