<svg xmlns="http://www.w3.org/2000/svg" viewBox="0 0 576 512"><!-- Font Awesome Pro 6.0.0-alpha1 by @fontawesome - https://fontawesome.com License - https://fontawesome.com/license (Commercial License) --><path d="M488 368H432V296C432 292 428 288 424 288S416 292 416 296V376C416 380 420 384 424 384H488C492 384 496 380 496 376S492 368 488 368ZM432 224C352 224 288 288 288 368S352 512 432 512S576 448 576 368S512 224 432 224ZM432 496C361 496 304 439 304 368S361 240 432 240C503 240 560 297 560 368S503 496 432 496ZM16 464V208H288V192H16V112C16 94 30 80 48 80H112V128C112 132 116 136 120 136S128 132 128 128V80H320V128C320 132 324 136 328 136S336 132 336 128V80H400C418 80 432 94 432 112V160H448V112C448 86 426 64 400 64H336V8C336 4 332 0 328 0S320 4 320 8V64H128V8C128 4 124 0 120 0S112 4 112 8V64H48C22 64 0 86 0 112V464C0 490 22 512 48 512H288V496H48C30 496 16 482 16 464Z"/></svg>