<svg xmlns="http://www.w3.org/2000/svg" viewBox="0 0 448 512"><!-- Font Awesome Pro 6.0.0-alpha1 by @fontawesome - https://fontawesome.com License - https://fontawesome.com/license (Commercial License) --><path d="M139 354L93 418C87 425 87 435 91 443C95 451 103 456 112 456H336C345 456 353 451 357 443C361 436 361 426 356 419L271 291C262 277 240 277 231 291L184 361L178 354C169 341 148 341 139 354ZM184 389L244 300C247 295 254 295 257 300L343 428C344 430 344 433 343 436C342 438 339 440 336 440H112C109 440 106 438 105 436C103 433 104 430 106 427L152 363C154 361 156 360 159 360C161 360 164 361 165 363L184 389ZM400 64H336V8C336 4 332 0 328 0S320 4 320 8V64H128V8C128 4 124 0 120 0S112 4 112 8V64H48C22 64 0 86 0 112V464C0 490 22 512 48 512H400C426 512 448 490 448 464V112C448 86 426 64 400 64ZM432 464C432 482 418 496 400 496H48C30 496 16 482 16 464V208H432V464ZM432 192H16V112C16 94 30 80 48 80H112V128C112 132 116 136 120 136S128 132 128 128V80H320V128C320 132 324 136 328 136S336 132 336 128V80H400C418 80 432 94 432 112V192ZM128 328C150 328 168 310 168 288S150 248 128 248S88 266 88 288S106 328 128 328ZM128 264C141 264 152 275 152 288S141 312 128 312S104 301 104 288S115 264 128 264Z"/></svg>