<svg xmlns="http://www.w3.org/2000/svg" viewBox="0 0 448 512"><!-- Font Awesome Pro 6.0.0-alpha1 by @fontawesome - https://fontawesome.com License - https://fontawesome.com/license (Commercial License) --><path d="M400 64H336V8C336 4 332 0 328 0S320 4 320 8V64H128V8C128 4 124 0 120 0S112 4 112 8V64H48C22 64 0 86 0 112V464C0 490 22 512 48 512H400C426 512 448 490 448 464V112C448 86 426 64 400 64ZM432 464C432 482 418 496 400 496H48C30 496 16 482 16 464V208H432V464ZM432 192H16V112C16 94 30 80 48 80H112V128C112 132 116 136 120 136S128 132 128 128V80H320V128C320 132 324 136 328 136S336 132 336 128V80H400C418 80 432 94 432 112V192ZM133 359C134 360 135 360 136 360C141 360 151 350 216 284V440C216 444 220 448 224 448S232 444 232 440V283L306 358C309 361 315 361 318 358S321 349 318 346L230 258C228 257 226 256 224 256H224C222 256 220 257 218 258C188 289 138 340 132 345C130 346 129 347 129 349C127 353 129 358 133 359Z"/></svg>