<svg xmlns="http://www.w3.org/2000/svg" viewBox="0 0 448 512"><!-- Font Awesome Pro 6.0.0-alpha1 by @fontawesome - https://fontawesome.com License - https://fontawesome.com/license (Commercial License) --><path d="M352 384C334 384 320 398 320 416S334 448 352 448C370 448 384 434 384 416S370 384 352 384ZM352 432C343 432 336 425 336 416S343 400 352 400S368 407 368 416S361 432 352 432ZM168 296H376C380 296 384 292 384 288S380 280 376 280H168C164 280 160 284 160 288S164 296 168 296ZM96 320C114 320 128 306 128 288S114 256 96 256C78 256 64 270 64 288S78 320 96 320ZM96 272C105 272 112 279 112 288S105 304 96 304S80 297 80 288S87 272 96 272ZM400 64H336V8C336 4 332 0 328 0S320 4 320 8V64H128V8C128 4 124 0 120 0S112 4 112 8V64H48C22 64 0 86 0 112V464C0 490 22 512 48 512H400C426 512 448 490 448 464V112C448 86 426 64 400 64ZM432 464C432 482 418 496 400 496H48C30 496 16 482 16 464V208H432V464ZM432 192H16V112C16 94 30 80 48 80H112V128C112 132 116 136 120 136S128 132 128 128V80H320V128C320 132 324 136 328 136S336 132 336 128V80H400C418 80 432 94 432 112V192ZM72 424H280C284 424 288 420 288 416S284 408 280 408H72C68 408 64 412 64 416S68 424 72 424Z"/></svg>