<svg xmlns="http://www.w3.org/2000/svg" viewBox="0 0 512 512"><!-- Font Awesome Pro 6.0.0-alpha1 by @fontawesome - https://fontawesome.com License - https://fontawesome.com/license (Commercial License) --><path d="M464 96H376L364 63C357 44 339 32 319 32H193C173 32 155 44 148 63L136 96H48C22 96 0 118 0 144V432C0 458 22 480 48 480H464C490 480 512 458 512 432V144C512 118 490 96 464 96ZM496 432C496 450 482 464 464 464H48C30 464 16 450 16 432V144C16 126 30 112 48 112H147L163 69C168 56 180 48 193 48H319C332 48 344 56 349 69L365 112H464C482 112 496 126 496 144V432ZM256 176C194 176 144 226 144 288C144 350 194 400 256 400S368 350 368 288C368 226 318 176 256 176ZM256 384C203 384 160 341 160 288S203 192 256 192S352 235 352 288S309 384 256 384Z"/></svg>