<svg xmlns="http://www.w3.org/2000/svg" viewBox="0 0 640 512"><!-- Font Awesome Pro 6.0.0-alpha1 by @fontawesome - https://fontawesome.com License - https://fontawesome.com/license (Commercial License) --><path d="M320 16C435 16 528 109 528 224C528 256 521 286 508 313L520 323C535 293 544 260 544 224C544 101 443 0 320 0C266 0 217 19 178 51L191 61C226 33 271 16 320 16ZM102 174C98 190 96 207 96 224C96 347 197 448 320 448C355 448 388 440 417 425L404 414C378 426 350 432 320 432C205 432 112 339 112 224C112 211 113 198 116 186L102 174ZM455 272C461 257 464 241 464 224C464 145 399 80 320 80C292 80 265 89 243 103L256 114C275 103 297 96 320 96C391 96 448 153 448 224C448 237 446 249 442 261L455 272ZM637 498L13 2C12 1 10 0 8 0C6 0 3 1 2 3C-1 6 0 12 3 14L627 510C629 511 630 512 632 512C634 512 637 511 638 509C641 506 640 500 637 498ZM342 366L324 352C323 352 322 352 320 352C258 352 206 307 194 248L177 234C182 309 244 368 320 368C328 368 335 367 342 366ZM504 496H153L190 453C193 450 193 445 189 442C186 439 181 439 178 443L130 499C128 501 127 504 129 507C130 510 133 512 136 512H504C508 512 512 508 512 504S508 496 504 496Z"/></svg>