<svg xmlns="http://www.w3.org/2000/svg" viewBox="0 0 576 512"><!-- Font Awesome Pro 6.0.0-alpha1 by @fontawesome - https://fontawesome.com License - https://fontawesome.com/license (Commercial License) --><path d="M534 196C533 181 523 169 510 163L145 3C127 -4 107 3 97 20L5 180C-1 190 -2 202 2 213C6 224 15 232 25 236L201 309L155 424H16V360C16 356 12 352 8 352S0 356 0 360V504C0 508 4 512 8 512S16 508 16 504V440H160C163 440 166 438 167 435L215 315L300 350C304 351 308 352 313 352C320 352 327 350 333 346L516 232C528 224 535 210 534 196ZM325 333C319 336 312 337 305 335L31 221C25 219 20 214 17 208C15 201 16 194 19 188L111 28C115 20 123 16 131 16C134 16 136 16 139 18L504 178L504 178C512 181 517 188 518 197C519 206 515 214 507 218L325 333ZM574 283C572 277 568 272 562 270L530 255C526 254 521 255 519 259C517 264 519 268 523 270L555 284C557 285 559 286 559 288C560 290 560 292 559 294L522 378C521 380 520 381 518 382C516 383 514 383 512 382L404 334C400 332 395 334 393 338C391 342 393 347 397 349L506 397C509 398 512 399 515 399C518 399 521 398 524 397C530 395 534 390 537 385L574 300C577 294 577 288 574 283Z"/></svg>