<svg xmlns="http://www.w3.org/2000/svg" viewBox="0 0 512 512"><!-- Font Awesome Pro 6.0.0-alpha1 by @fontawesome - https://fontawesome.com License - https://fontawesome.com/license (Commercial License) --><path d="M256 318C335 318 400 253 400 173C400 139 368 72 322 30C319 28 314 28 311 30C301 39 292 49 283 59C267 39 248 19 227 0C224 -3 220 -3 217 0C156 55 112 128 112 173C112 253 177 318 256 318ZM299 288C258 318 187 298 187 232C187 212 198 195 223 163C235 179 264 217 276 233C277 235 279 236 282 236C283 236 287 235 288 233L316 201C316 201 316 202 317 203C332 233 325 270 299 288ZM222 17C242 36 261 57 276 77C277 79 280 80 282 80C285 80 287 79 289 77C297 67 307 57 316 47C355 85 384 144 384 173C384 217 362 255 329 279C343 255 345 223 331 195C329 191 327 187 324 183C323 180 321 179 318 179C315 178 313 179 311 181L282 215C268 196 233 149 229 145C228 143 225 142 223 142C221 142 218 143 217 145C189 179 171 204 171 232C171 250 177 267 186 281C151 257 128 218 128 173C128 134 168 68 222 17ZM277 398L507 301C511 300 513 295 511 291C510 287 505 285 501 287L256 389L11 287C7 285 2 287 1 291C-1 295 1 300 5 301L235 398L5 495C1 496 -1 501 1 505C2 508 5 510 8 510C9 510 10 510 11 509L256 407L501 509C502 510 503 510 504 510C507 510 510 508 511 505C513 501 511 496 507 495L277 398Z"/></svg>