<svg xmlns="http://www.w3.org/2000/svg" viewBox="0 0 640 512"><!-- Font Awesome Pro 6.0.0-alpha1 by @fontawesome - https://fontawesome.com License - https://fontawesome.com/license (Commercial License) --><path d="M480 0C314 2 315 39 322 73C353 224 416 416 480 416H480C544 416 607 224 638 73C645 39 646 2 480 0ZM480 400C456 400 425 352 397 278C455 270 505 270 563 278C535 352 504 400 480 400ZM569 262C507 254 453 254 391 262C378 226 365 185 354 140C454 120 543 128 606 140C595 185 582 226 569 262ZM622 69C618 88 614 107 610 125C507 104 415 112 350 125C346 107 342 88 338 69C335 57 335 49 340 43C349 31 381 17 480 16C579 17 611 31 620 43C625 49 625 57 622 69ZM81 214C-31 333 -3 358 25 376C152 458 330 545 373 500L373 499C416 454 325 277 239 152C220 124 195 97 81 214ZM362 489C346 505 291 494 219 464C253 417 288 381 332 345C365 417 378 472 362 489ZM326 331C278 369 241 408 204 457C170 442 133 422 94 400C128 347 183 278 265 221C289 259 309 297 326 331ZM80 392C65 382 49 373 33 362C22 355 17 350 16 342C14 328 26 295 92 225C160 156 191 143 206 144C214 145 219 150 226 161C237 176 247 192 257 207C173 266 115 337 80 392Z"/></svg>