<svg xmlns="http://www.w3.org/2000/svg" viewBox="0 0 512 512"><!-- Font Awesome Pro 6.0.0-alpha1 by @fontawesome - https://fontawesome.com License - https://fontawesome.com/license (Commercial License) --><path d="M497 92C470 33 412 0 352 0C324 0 296 7 271 23L243 39C228 48 223 68 232 83L265 138C271 148 282 153 292 153C298 153 304 152 309 149L336 132C342 129 348 127 353 127C381 127 400 169 369 187L16 398C0 407 -5 426 5 442L37 496C43 506 54 512 65 512C70 512 76 510 81 507L429 301C500 258 533 167 497 92ZM328 119L300 135C298 137 295 137 292 137C287 137 281 134 279 130L246 75C244 71 243 67 244 63C245 58 248 55 251 53L279 36C299 24 321 18 344 17V113C339 114 333 116 328 119ZM360 113V17C413 19 460 50 483 99C488 108 490 118 493 128H388C380 120 371 114 360 113ZM217 297L314 351L212 411L115 357L217 297ZM73 494C71 495 68 496 65 496C59 496 54 493 51 488L18 433C14 426 16 416 24 411L99 366L196 420L73 494ZM330 341L233 287L331 229L427 282C425 284 423 286 420 287L330 341ZM442 272L347 219L377 201C397 189 405 169 399 148C399 147 398 145 397 144H495C499 191 480 239 442 272Z"/></svg>