<svg xmlns="http://www.w3.org/2000/svg" viewBox="0 0 512 512"><!-- Font Awesome Pro 6.0.0-alpha1 by @fontawesome - https://fontawesome.com License - https://fontawesome.com/license (Commercial License) --><path d="M500 349C499 349 474 335 436 326C493 254 511 176 511 172C513 165 511 157 505 151C499 145 492 143 484 144C483 145 409 160 337 213C334 105 282 20 276 10C267 -3 245 -4 236 10C230 20 178 105 175 213C105 162 32 145 28 145C20 143 13 145 7 151C1 156 -1 165 1 172C1 176 19 254 76 326C38 335 13 349 13 349C5 353 0 361 0 370C0 379 5 386 12 390C13 391 74 423 150 422C142 438 139 449 139 449C136 458 138 467 144 473C149 478 155 480 161 480C163 480 166 480 168 479C168 479 192 472 222 454C226 452 228 447 225 443S218 438 214 440C186 456 164 463 163 464C161 464 158 464 156 462C154 460 153 457 154 454C154 454 159 439 170 418C171 415 171 412 169 410C168 407 165 406 162 406C157 406 151 406 146 406C76 406 21 377 20 376C17 375 16 373 16 370C16 367 18 364 20 363C20 363 50 347 92 339C95 338 97 336 98 334C99 331 99 328 97 326C35 254 17 172 16 169C16 166 16 164 18 162C20 161 21 160 25 160C28 161 107 178 177 236C180 238 183 238 186 237C189 235 190 233 190 230V225C190 116 244 29 250 19C253 15 260 15 262 19C268 29 322 116 322 225V230C322 233 323 235 326 237C329 238 332 238 335 236C406 178 486 160 489 160C491 160 492 161 494 162C496 164 496 167 496 169C495 173 477 254 415 326C413 328 413 331 414 334C415 336 417 338 420 339C462 348 492 363 492 363C494 364 496 367 496 370C496 373 495 375 492 376C491 377 436 406 366 406C361 406 355 406 350 406C347 406 344 407 343 410S341 415 342 418C353 439 358 454 358 454C359 457 358 460 356 462C354 464 352 465 349 464C348 464 326 456 298 440C294 438 289 439 287 443C284 447 286 452 290 454C320 472 344 479 344 479C353 482 362 479 368 473C374 467 376 458 373 450C373 449 370 439 362 422C364 422 365 422 366 422C440 422 499 391 499 391C507 386 512 379 512 370C512 361 507 353 500 349ZM256 192C252 192 248 195 248 200V504C248 508 252 512 256 512S264 508 264 504V200C264 195 260 192 256 192Z"/></svg>