<svg xmlns="http://www.w3.org/2000/svg" viewBox="0 0 576 512"><!-- Font Awesome Pro 6.0.0-alpha1 by @fontawesome - https://fontawesome.com License - https://fontawesome.com/license (Commercial License) --><path d="M112 48C59 48 16 91 16 144V368C16 421 59 464 112 464S208 421 208 368V144C208 91 165 48 112 48ZM192 368C192 412 156 448 112 448S32 412 32 368V264H192V368ZM192 248H32V144C32 100 68 64 112 64S192 100 192 144V248ZM541 308L405 121C373 77 310 67 266 98C244 114 230 137 225 163C221 189 227 215 243 236L379 423C399 450 429 464 460 464C480 464 501 458 518 446C540 430 554 407 559 381C563 355 557 329 541 308ZM256 227C243 209 238 187 241 165C245 144 257 124 275 112C290 101 307 96 324 96C350 96 376 108 392 130L455 217L319 314L256 227ZM543 379C539 400 527 420 509 432C472 459 419 451 392 414L329 327L465 230L528 317C541 335 546 357 543 379Z"/></svg>