<svg xmlns="http://www.w3.org/2000/svg" viewBox="0 0 640 512"><!-- Font Awesome Pro 6.0.0-alpha1 by @fontawesome - https://fontawesome.com License - https://fontawesome.com/license (Commercial License) --><path d="M636 176L324 0C321 -1 319 -1 316 0L4 176C0 178 -1 183 1 187C3 191 8 192 12 190L320 16L628 190C629 191 631 191 632 191C635 191 638 189 639 187C641 183 640 178 636 176ZM448 335C430 335 416 349 416 367C416 385 430 399 448 399S480 385 480 367C480 349 466 335 448 335ZM448 383C439 383 432 376 432 367S439 351 448 351S464 358 464 367S457 383 448 383ZM192 335C174 335 160 349 160 367C160 385 174 399 192 399S224 385 224 367C224 349 210 335 192 335ZM192 383C183 383 176 376 176 367S183 351 192 351S208 358 208 367S201 383 192 383ZM474 288L449 215C441 191 419 175 394 175H246C221 175 199 191 191 215L166 288C136 293 112 319 112 351V394C112 416 125 435 144 443V503C144 507 148 511 152 511S160 507 160 503V446C162 447 163 447 165 447H475C477 447 478 447 480 446V503C480 507 484 511 488 511S496 507 496 503V443C515 435 528 416 528 394V351C528 319 504 293 474 288ZM206 220C212 203 228 191 246 191H394C412 191 428 203 434 220L457 287H183L206 220ZM512 394C512 415 496 431 475 431H165C144 431 128 415 128 394V351C128 325 150 303 176 303H464C490 303 512 325 512 351V394Z"/></svg>