<svg xmlns="http://www.w3.org/2000/svg" viewBox="0 0 512 512"><!-- Font Awesome Pro 6.0.0-alpha1 by @fontawesome - https://fontawesome.com License - https://fontawesome.com/license (Commercial License) --><path d="M184 248H72C68 248 64 252 64 256S68 264 72 264H184C188 264 192 260 192 256S188 248 184 248ZM440 248H392V200C392 196 388 192 384 192S376 196 376 200V248H328C324 248 320 252 320 256S324 264 328 264H376V312C376 316 380 320 384 320S392 316 392 312V264H440C444 264 448 260 448 256S444 248 440 248ZM480 128H448V88C448 75 437 64 424 64H344C331 64 320 75 320 88V128H192V88C192 75 181 64 168 64H88C75 64 64 75 64 88V128H32C14 128 0 142 0 160V416C0 434 14 448 32 448H480C498 448 512 434 512 416V160C512 142 498 128 480 128ZM336 88C336 84 340 80 344 80H424C428 80 432 84 432 88V128H336V88ZM80 88C80 84 84 80 88 80H168C172 80 176 84 176 88V128H80V88ZM496 416C496 425 489 432 480 432H32C23 432 16 425 16 416V160C16 151 23 144 32 144H480C489 144 496 151 496 160V416Z"/></svg>