<svg xmlns="http://www.w3.org/2000/svg" viewBox="0 0 640 512"><!-- Font Awesome Pro 6.0.0-alpha1 by @fontawesome - https://fontawesome.com License - https://fontawesome.com/license (Commercial License) --><path d="M516 224L409 91C396 74 375 64 353 64H171C142 64 115 82 104 109L59 224H48C22 224 0 246 0 272V384C0 410 22 432 48 432H66C73 477 112 512 160 512S247 477 254 432H386C393 477 432 512 480 512S567 477 574 432H592C618 432 640 410 640 384V352C640 283 585 227 516 224ZM264 80H353C370 80 386 88 397 101L495 224H264V80ZM119 115C128 94 148 80 171 80H248V224H76L119 115ZM160 496C116 496 80 460 80 416S116 336 160 336C204 336 240 372 240 416S204 496 160 496ZM480 496C436 496 400 460 400 416S436 336 480 336C524 336 560 372 560 416S524 496 480 496ZM624 384C624 402 610 416 592 416H576C576 363 533 320 480 320S384 363 384 416H256C256 363 213 320 160 320S64 363 64 416H48C30 416 16 402 16 384V272C16 254 30 240 48 240H512C574 240 624 290 624 352V384Z"/></svg>