<svg xmlns="http://www.w3.org/2000/svg" viewBox="0 0 640 512"><!-- Font Awesome Pro 6.0.0-alpha1 by @fontawesome - https://fontawesome.com License - https://fontawesome.com/license (Commercial License) --><path d="M208 72C204 72 200 76 200 80V144C200 148 204 152 208 152H272C276 152 280 148 280 144V80C280 76 276 72 272 72H208ZM264 136H216V88H264V136ZM256 208C256 204 252 200 248 200H208C204 200 200 204 200 208V272C200 276 204 280 208 280S216 276 216 272V216H248C252 216 256 212 256 208ZM336 40V120C336 124 340 128 344 128S352 124 352 120V40C352 18 334 0 312 0H40C18 0 0 18 0 40V472C0 476 4 480 8 480S16 476 16 472V40C16 27 27 16 40 16H312C325 16 336 27 336 40ZM144 328H80C76 328 72 332 72 336V400C72 404 76 408 80 408H144C148 408 152 404 152 400V336C152 332 148 328 144 328ZM136 392H88V344H136V392ZM144 200H80C76 200 72 204 72 208V272C72 276 76 280 80 280H144C148 280 152 276 152 272V208C152 204 148 200 144 200ZM136 264H88V216H136V264ZM144 72H80C76 72 72 76 72 80V144C72 148 76 152 80 152H144C148 152 152 148 152 144V80C152 76 148 72 144 72ZM136 136H88V88H136V136ZM560 336C542 336 528 350 528 368C528 386 542 400 560 400S592 386 592 368C592 350 578 336 560 336ZM560 384C551 384 544 377 544 368S551 352 560 352S576 359 576 368S569 384 560 384ZM304 336C286 336 272 350 272 368C272 386 286 400 304 400S336 386 336 368C336 350 322 336 304 336ZM304 384C295 384 288 377 288 368S295 352 304 352S320 359 320 368S313 384 304 384ZM591 290L561 200C553 176 531 160 506 160H358C333 160 311 176 303 200L273 290C245 297 224 322 224 352V395C224 417 237 436 256 444V504C256 508 260 512 264 512S272 508 272 504V448C274 448 275 448 277 448H587C589 448 590 448 592 448V504C592 508 596 512 600 512S608 508 608 504V444C627 436 640 417 640 395V352C640 322 619 297 591 290ZM318 205C324 188 340 176 358 176H506C524 176 540 188 546 205L574 288H290L318 205ZM624 395C624 416 608 432 587 432H277C256 432 240 416 240 395V352C240 326 262 304 288 304H576C602 304 624 326 624 352V395Z"/></svg>