<svg xmlns="http://www.w3.org/2000/svg" viewBox="0 0 640 512"><!-- Font Awesome Pro 6.0.0-alpha1 by @fontawesome - https://fontawesome.com License - https://fontawesome.com/license (Commercial License) --><path d="M632 400H571C574 395 576 390 576 384V192C576 104 504 32 416 32H64C29 32 0 61 0 96V352C0 387 29 416 64 416H96C96 469 139 512 192 512S288 469 288 416H632C636 416 640 412 640 408S636 400 632 400ZM192 496C148 496 112 460 112 416S148 336 192 336S272 372 272 416S236 496 192 496ZM560 384C560 393 553 400 544 400H286C279 355 240 320 192 320S105 355 98 400H64C38 400 16 378 16 352V96C16 70 38 48 64 48H416C495 48 560 113 560 192V384ZM224 128H96C78 128 64 142 64 160V224C64 242 78 256 96 256H224C242 256 256 242 256 224V160C256 142 242 128 224 128ZM240 224C240 233 233 240 224 240H96C87 240 80 233 80 224V160C80 151 87 144 96 144H224C233 144 240 151 240 160V224ZM416 128H352C334 128 320 142 320 160V224C320 242 334 256 352 256H416C434 256 448 242 448 224V160C448 142 434 128 416 128ZM432 224C432 233 425 240 416 240H352C343 240 336 233 336 224V160C336 151 343 144 352 144H416C425 144 432 151 432 160V224Z"/></svg>