<svg xmlns="http://www.w3.org/2000/svg" viewBox="0 0 320 512"><!-- Font Awesome Pro 6.0.0-alpha1 by @fontawesome - https://fontawesome.com License - https://fontawesome.com/license (Commercial License) --><path d="M296 192H24C11 192 0 203 0 216C0 222 2 228 7 232L143 376C147 381 153 384 160 384S173 381 177 376L313 232C318 228 320 222 320 216C320 203 309 192 296 192ZM302 222L166 366C164 367 162 368 160 368S156 367 154 366L18 222C17 220 16 218 16 216C16 212 20 208 24 208H296C300 208 304 212 304 216C304 218 303 220 302 222Z"/></svg>