<svg xmlns="http://www.w3.org/2000/svg" viewBox="0 0 320 512"><!-- Font Awesome Pro 6.0.0-alpha1 by @fontawesome - https://fontawesome.com License - https://fontawesome.com/license (Commercial License) --><path d="M313 280L177 136C173 131 167 128 160 128S147 131 143 136L7 280C2 284 0 290 0 296C0 309 11 320 24 320H296C309 320 320 309 320 296C320 290 318 284 313 280ZM296 304H24C20 304 16 300 16 296C16 294 17 292 18 290L154 146C156 145 158 144 160 144S164 145 166 146L302 290C303 292 304 294 304 296C304 300 300 304 296 304Z"/></svg>