<svg xmlns="http://www.w3.org/2000/svg" viewBox="0 0 512 512"><!-- Font Awesome Pro 6.0.0-alpha1 by @fontawesome - https://fontawesome.com License - https://fontawesome.com/license (Commercial License) --><path d="M243 144C225 144 207 148 189 157C164 169 144 190 132 214L2 480C-1 486 -1 493 2 499C6 507 14 512 23 512C26 512 29 511 32 510L298 380C322 368 343 349 355 323C379 274 368 217 331 181C308 157 276 144 243 144ZM341 316C330 337 313 355 291 365L177 421L134 378C131 375 125 375 122 378C119 382 119 387 122 390L162 429L25 495C24 496 23 496 23 496C21 496 18 495 17 493C16 491 16 488 17 487L146 222L186 262C188 263 190 264 192 264S196 263 198 262C201 259 201 253 198 250L155 207C165 192 179 179 196 171C211 164 227 160 243 160C272 160 300 172 320 192C353 225 361 275 341 316ZM510 155C480 119 437 105 396 116C407 75 393 32 357 2C354 -1 350 -1 347 2C321 23 306 52 304 83C303 113 315 143 338 166L346 174C368 196 396 208 424 208C426 208 428 208 429 208C460 206 489 191 510 165C513 162 513 158 510 155ZM428 192C402 193 377 183 357 162L350 155C329 135 319 109 320 84C321 60 332 37 352 19C383 48 392 90 375 126C373 129 374 133 376 136C379 138 383 139 386 137C422 120 464 129 493 160C475 180 452 191 428 192Z"/></svg>