<svg xmlns="http://www.w3.org/2000/svg" viewBox="0 0 640 512"><!-- Font Awesome Pro 6.0.0-alpha1 by @fontawesome - https://fontawesome.com License - https://fontawesome.com/license (Commercial License) --><path d="M560 336C542 336 528 350 528 368C528 386 542 400 560 400S592 386 592 368C592 350 578 336 560 336ZM560 384C551 384 544 377 544 368S551 352 560 352S576 359 576 368S569 384 560 384ZM304 336C286 336 272 350 272 368C272 386 286 400 304 400S336 386 336 368C336 350 322 336 304 336ZM304 384C295 384 288 377 288 368S295 352 304 352S320 359 320 368S313 384 304 384ZM591 290L561 200C553 176 531 160 506 160H358C333 160 311 176 303 200L273 290C245 297 224 322 224 352V395C224 417 237 436 256 444V504C256 508 260 512 264 512S272 508 272 504V448C274 448 275 448 277 448H587C589 448 590 448 592 448V504C592 508 596 512 600 512S608 508 608 504V444C627 436 640 417 640 395V352C640 322 619 297 591 290ZM318 205C324 188 340 176 358 176H506C524 176 540 188 546 205L574 288H290L318 205ZM624 395C624 416 608 432 587 432H277C256 432 240 416 240 395V352C240 326 262 304 288 304H576C602 304 624 326 624 352V395ZM48 208C48 226 62 240 80 240S112 226 112 208C112 190 98 176 80 176S48 190 48 208ZM96 208C96 217 89 224 80 224S64 217 64 208S71 192 80 192S96 199 96 208ZM208 272H53C32 272 16 256 16 235V192C16 166 38 144 64 144H272C276 144 280 140 280 136S276 128 272 128H66L94 45C100 28 116 16 134 16H282C300 16 316 28 322 45L345 115C347 119 351 121 355 120C360 118 362 114 361 109L337 40C329 16 307 0 282 0H134C109 0 87 16 79 40L49 130C21 137 0 162 0 192V235C0 257 13 276 32 284V344C32 348 36 352 40 352S48 348 48 344V288C50 288 51 288 53 288H208C212 288 216 284 216 280S212 272 208 272Z"/></svg>