<svg xmlns="http://www.w3.org/2000/svg" viewBox="0 0 640 512"><!-- Font Awesome Pro 6.0.0-alpha1 by @fontawesome - https://fontawesome.com License - https://fontawesome.com/license (Commercial License) --><path d="M632 416H128V72C128 30 102 0 64 0H8C4 0 0 4 0 8S4 16 8 16H64C97 16 112 44 112 72V424C112 428 116 432 120 432H172C165 441 160 452 160 464C160 490 182 512 208 512S256 490 256 464C256 452 251 441 244 432H460C453 441 448 452 448 464C448 490 470 512 496 512S544 490 544 464C544 452 539 441 532 432H632C636 432 640 428 640 424S636 416 632 416ZM208 496C190 496 176 482 176 464S190 432 208 432S240 446 240 464S226 496 208 496ZM496 496C478 496 464 482 464 464S478 432 496 432S528 446 528 464S514 496 496 496ZM224 352H352C370 352 384 338 384 320V96C384 78 370 64 352 64H224C206 64 192 78 192 96V320C192 338 206 352 224 352ZM208 96C208 87 215 80 224 80H352C361 80 368 87 368 96V320C368 329 361 336 352 336H224C215 336 208 329 208 320V96ZM448 352H576C594 352 608 338 608 320V256C608 238 594 224 576 224H448C430 224 416 238 416 256V320C416 338 430 352 448 352ZM432 256C432 247 439 240 448 240H576C585 240 592 247 592 256V320C592 329 585 336 576 336H448C439 336 432 329 432 320V256ZM448 192H512C530 192 544 178 544 160V96C544 78 530 64 512 64H448C430 64 416 78 416 96V160C416 178 430 192 448 192ZM432 96C432 87 439 80 448 80H512C521 80 528 87 528 96V160C528 169 521 176 512 176H448C439 176 432 169 432 160V96Z"/></svg>