<svg xmlns="http://www.w3.org/2000/svg" viewBox="0 0 576 512"><!-- Font Awesome Pro 6.0.0-alpha1 by @fontawesome - https://fontawesome.com License - https://fontawesome.com/license (Commercial License) --><path d="M176 416C150 416 128 438 128 464S150 512 176 512S224 490 224 464S202 416 176 416ZM176 496C158 496 144 482 144 464S158 432 176 432S208 446 208 464S194 496 176 496ZM464 416C438 416 416 438 416 464S438 512 464 512C490 512 512 490 512 464S490 416 464 416ZM464 496C446 496 432 482 432 464S446 432 464 432S496 446 496 464S482 496 464 496ZM571 73C566 67 559 64 552 64H100L88 6C87 3 84 0 80 0H8C4 0 0 4 0 8S4 16 8 16H74L152 378C153 381 156 384 160 384H504C508 384 512 380 512 376S508 368 504 368H166L156 320H484C502 320 518 308 523 290L575 94C577 87 576 79 571 73ZM507 286C505 297 495 304 484 304H153L104 80H312V221L262 170C259 167 253 167 250 170C247 173 247 179 250 182L314 246C316 247 318 248 320 248S324 247 326 246L390 182C393 179 393 173 390 170C387 167 381 167 378 170L328 221V80H552C554 80 557 81 558 83C560 85 560 88 560 90L507 286Z"/></svg>