<svg xmlns="http://www.w3.org/2000/svg" viewBox="0 0 576 512"><!-- Font Awesome Pro 6.0.0-alpha1 by @fontawesome - https://fontawesome.com License - https://fontawesome.com/license (Commercial License) --><path d="M176 416C150 416 128 438 128 464S150 512 176 512S224 490 224 464S202 416 176 416ZM176 496C158 496 144 482 144 464S158 432 176 432S208 446 208 464S194 496 176 496ZM571 74C567 68 560 64 552 64H87L72 6C71 2 68 0 64 0H8C4 0 0 4 0 8S4 16 8 16H58L152 378C153 382 156 384 160 384H504C508 384 512 380 512 376S508 368 504 368H166L154 320H478C495 320 511 309 516 291L575 95C577 88 576 80 571 74ZM501 287C498 297 488 304 478 304H150V304L91 80H552C555 80 557 81 558 83C560 85 560 88 560 90L501 287ZM464 416C438 416 416 438 416 464S438 512 464 512S512 490 512 464S490 416 464 416ZM464 496C446 496 432 482 432 464S446 432 464 432C482 432 496 446 496 464S482 496 464 496Z"/></svg>