<svg xmlns="http://www.w3.org/2000/svg" viewBox="0 0 640 512"><!-- Font Awesome Pro 6.0.0-alpha1 by @fontawesome - https://fontawesome.com License - https://fontawesome.com/license (Commercial License) --><path d="M632 416H128V72C128 30 102 0 64 0H8C4 0 0 4 0 8S4 16 8 16H64C97 16 112 44 112 72V424C112 428 116 432 120 432H172C165 441 160 452 160 464C160 490 182 512 208 512S256 490 256 464C256 452 251 441 244 432H460C453 441 448 452 448 464C448 490 470 512 496 512S544 490 544 464C544 452 539 441 532 432H632C636 432 640 428 640 424S636 416 632 416ZM240 464C240 482 226 496 208 496S176 482 176 464S190 432 208 432S240 446 240 464ZM528 464C528 482 514 496 496 496S464 482 464 464S478 432 496 432S528 446 528 464Z"/></svg>