<svg xmlns="http://www.w3.org/2000/svg" viewBox="0 0 640 512"><!-- Font Awesome Pro 6.0.0-alpha1 by @fontawesome - https://fontawesome.com License - https://fontawesome.com/license (Commercial License) --><path d="M632 416H128V72C128 30 102 0 64 0H8C4 0 0 4 0 8S4 16 8 16H64C97 16 112 44 112 72V424C112 428 116 432 120 432H172C165 441 160 452 160 464C160 490 182 512 208 512S256 490 256 464C256 452 251 441 244 432H460C453 441 448 452 448 464C448 490 470 512 496 512S544 490 544 464C544 452 539 441 532 432H632C636 432 640 428 640 424S636 416 632 416ZM208 496C190 496 176 482 176 464S190 432 208 432S240 446 240 464S226 496 208 496ZM496 496C478 496 464 482 464 464S478 432 496 432S528 446 528 464S514 496 496 496ZM224 352H576C594 352 608 338 608 320V96C608 78 594 64 576 64H224C206 64 192 78 192 96V320C192 338 206 352 224 352ZM352 80H448V178L404 153C402 152 398 152 396 153L352 178V80ZM208 96C208 87 215 80 224 80H336V192C336 195 338 198 340 199C342 200 346 200 348 199L400 169L452 199C453 200 455 200 456 200S459 200 460 199C462 198 464 195 464 192V80H576C585 80 592 87 592 96V320C592 329 585 336 576 336H224C215 336 208 329 208 320V96Z"/></svg>