<svg xmlns="http://www.w3.org/2000/svg" viewBox="0 0 512 512"><!-- Font Awesome Pro 6.0.0-alpha1 by @fontawesome - https://fontawesome.com License - https://fontawesome.com/license (Commercial License) --><path d="M160 320C151 320 144 327 144 336C144 345 151 352 160 352S176 345 176 336C176 327 169 320 160 320ZM208 256C199 256 192 263 192 272C192 281 199 288 208 288S224 281 224 272C224 263 217 256 208 256ZM272 56H80C76 56 72 60 72 64S76 72 80 72H272C276 72 280 68 280 64S276 56 272 56ZM112 256C103 256 96 263 96 272C96 281 103 288 112 288S128 281 128 272C128 263 121 256 112 256ZM304 256C295 256 288 263 288 272C288 281 295 288 304 288S320 281 320 272C320 263 313 256 304 256ZM256 320C247 320 240 327 240 336C240 345 247 352 256 352S272 345 272 336C272 327 265 320 256 320ZM511 379L484 219C482 203 469 192 453 192L184 192V128H304C313 128 320 121 320 112V16C320 7 313 0 304 0H48C39 0 32 7 32 16V112C32 121 39 128 48 128H168V192L59 192C44 192 30 203 28 219L1 379C0 382 0 386 0 389V480C0 498 14 512 32 512H480C498 512 512 498 512 480V389C512 386 512 382 511 379ZM48 112V16H304V112H48ZM17 381L43 221C45 214 51 208 59 208L453 208C461 208 467 214 469 221L495 382C496 382 496 383 496 384H16C17 383 17 382 17 381ZM496 480C496 489 489 496 480 496H32C23 496 16 489 16 480V400H496V480ZM400 256C391 256 384 263 384 272C384 281 391 288 400 288S416 281 416 272C416 263 409 256 400 256ZM352 320C343 320 336 327 336 336C336 345 343 352 352 352S368 345 368 336C368 327 361 320 352 320Z"/></svg>