<svg xmlns="http://www.w3.org/2000/svg" viewBox="0 0 640 512"><!-- Font Awesome Pro 6.0.0-alpha1 by @fontawesome - https://fontawesome.com License - https://fontawesome.com/license (Commercial License) --><path d="M440 144C431 144 424 151 424 160S431 176 440 176S456 169 456 160S449 144 440 144ZM504 160C504 169 511 176 520 176S536 169 536 160S529 144 520 144S504 151 504 160ZM480 0C392 0 320 72 320 160C320 165 321 171 322 176H296C214 176 143 226 112 298V200C112 143 65 96 8 96C4 96 0 100 0 104S4 112 8 112C57 112 96 151 96 200V424C96 473 135 512 184 512H360C364 512 368 508 368 504V472C368 450 350 432 328 432H307L408 367V480C408 498 422 512 440 512H472C490 512 504 498 504 480V318C581 306 640 240 640 160C640 72 568 0 480 0ZM480 16C511 16 539 26 562 42L506 96H454L398 42C421 26 449 16 480 16ZM560 66V176C560 220 524 256 480 256S400 220 400 176V66L445 110C447 111 449 112 451 112H509C511 112 513 111 515 110L560 66ZM488 480C488 489 481 496 472 496H440C431 496 424 489 424 480V352C424 346 417 342 412 345L288 425V416C288 363 245 320 192 320C188 320 184 324 184 328S188 336 192 336C236 336 272 372 272 416V440C272 444 276 448 280 448H328C341 448 352 459 352 472V496H184C144 496 112 464 112 424V376C112 275 195 192 296 192H323C338 265 403 320 480 320C483 320 485 319 488 319V480ZM480 304C401 304 336 239 336 160C336 118 355 80 384 53V176C384 229 427 272 480 272S576 229 576 176V53C605 80 624 118 624 160C624 239 559 304 480 304ZM168 72H216V120C216 124 220 128 224 128S232 124 232 120V72H280C284 72 288 68 288 64S284 56 280 56H232V8C232 4 228 0 224 0S216 4 216 8V56H168C164 56 160 60 160 64S164 72 168 72Z"/></svg>