<svg xmlns="http://www.w3.org/2000/svg" viewBox="0 0 576 512"><!-- Font Awesome Pro 6.0.0-alpha1 by @fontawesome - https://fontawesome.com License - https://fontawesome.com/license (Commercial License) --><path d="M416 128C407 128 400 135 400 144S407 160 416 160S432 153 432 144S425 128 416 128ZM571 1C568 -1 565 0 563 2L496 64H432L365 2C363 0 360 -1 357 1C354 2 352 5 352 8V160C352 165 353 171 354 176H296C214 176 143 226 112 298V200C112 143 65 96 8 96C4 96 0 100 0 104S4 112 8 112C57 112 96 151 96 200V424C96 473 135 512 184 512H360C364 512 368 508 368 504V472C368 450 350 432 328 432H307L408 367V480C408 498 422 512 440 512H472C490 512 504 498 504 480V264C546 248 576 208 576 160V8C576 5 574 2 571 1ZM488 480C488 489 481 496 472 496H440C431 496 424 489 424 480V352C424 346 417 342 412 345L288 425V416C288 363 245 320 192 320C188 320 184 324 184 328S188 336 192 336C236 336 272 372 272 416V440C272 444 276 448 280 448H328C341 448 352 459 352 472V496H184C144 496 112 464 112 424V376C112 275 195 192 296 192H357C371 238 413 272 464 272C472 272 480 271 488 269V480ZM560 160C560 213 517 256 464 256S368 213 368 160V26L424 78C425 79 427 80 429 80H499C501 80 503 79 504 78L560 26V160ZM496 144C496 153 503 160 512 160S528 153 528 144S521 128 512 128S496 135 496 144Z"/></svg>