<svg xmlns="http://www.w3.org/2000/svg" viewBox="0 0 448 512"><!-- Font Awesome Pro 6.0.0-alpha1 by @fontawesome - https://fontawesome.com License - https://fontawesome.com/license (Commercial License) --><path d="M393 176H440C444 176 448 172 448 168S444 160 440 160H8C4 160 0 164 0 168S4 176 8 176H55C21 239 0 309 0 352C0 385 12 415 32 439C32 439 32 440 32 440V504C32 508 36 512 40 512S48 508 48 504V455C88 491 151 512 224 512S360 491 400 455V504C400 508 404 512 408 512S416 508 416 504V440C416 440 416 439 416 439C436 415 448 385 448 352C448 309 427 239 393 176ZM224 496C102 496 16 437 16 352C16 307 39 236 73 176H375C409 236 432 307 432 352C432 437 346 496 224 496ZM160 64C178 64 192 50 192 32C192 14 178 0 160 0S128 14 128 32C128 50 142 64 160 64ZM160 16C169 16 176 23 176 32S169 48 160 48S144 41 144 32S151 16 160 16ZM272 128C298 128 320 106 320 80S298 32 272 32S224 54 224 80S246 128 272 128ZM272 48C290 48 304 62 304 80S290 112 272 112S240 98 240 80S254 48 272 48Z"/></svg>