<svg xmlns="http://www.w3.org/2000/svg" viewBox="0 0 384 512"><!-- Font Awesome Pro 6.0.0-alpha1 by @fontawesome - https://fontawesome.com License - https://fontawesome.com/license (Commercial License) --><path d="M338 380C305 414 261 432 215 432C207 432 200 431 192 430V82C200 81 207 80 215 80C261 80 305 98 338 132C341 135 346 135 350 132C353 128 353 123 350 120C314 84 266 64 215 64C207 64 199 65 192 66V8C192 4 188 0 184 0C180 0 176 4 176 8V68C140 75 106 93 80 120C5 195 5 317 80 392C106 419 140 437 176 444V504C176 508 180 512 184 512C188 512 192 508 192 504V446C199 447 207 448 215 448C266 448 314 428 350 392C353 389 353 384 350 380C346 377 341 377 338 380ZM91 380C23 312 23 200 91 132C115 108 144 92 176 85V427C144 420 115 404 91 380Z"/></svg>