<svg xmlns="http://www.w3.org/2000/svg" viewBox="0 0 448 512"><!-- Font Awesome Pro 6.0.0-alpha1 by @fontawesome - https://fontawesome.com License - https://fontawesome.com/license (Commercial License) --><path d="M398 307C393 295 382 288 369 288H79C66 288 55 295 50 307L35 339C30 349 31 360 37 369S53 384 64 384H216V448C166 451 128 474 128 504C128 508 132 512 136 512S144 508 144 504C144 484 176 467 216 464V504C216 508 220 512 224 512S232 508 232 504V464C272 467 304 484 304 504C304 508 308 512 312 512S320 508 320 504C320 474 282 451 232 448V384H384C395 384 405 378 411 369S418 349 413 339L398 307ZM397 361C395 365 389 368 384 368H64C59 368 53 365 51 361C48 356 47 350 49 345L64 313C67 308 73 304 79 304H369C375 304 381 308 384 313L398 345C401 350 400 356 397 361ZM104 264C108 264 112 260 112 256V72C112 41 137 16 168 16H280C311 16 336 41 336 72V256C336 260 340 264 344 264S352 260 352 256V72C352 32 320 0 280 0H168C128 0 96 32 96 72V256C96 260 100 264 104 264ZM40 256C44 256 48 252 48 248V136C48 132 44 128 40 128S32 132 32 136V248C32 252 36 256 40 256ZM408 128C404 128 400 132 400 136V248C400 252 404 256 408 256S416 252 416 248V136C416 132 412 128 408 128Z"/></svg>