<svg xmlns="http://www.w3.org/2000/svg" viewBox="0 0 576 512"><!-- Font Awesome Pro 6.0.0-alpha1 by @fontawesome - https://fontawesome.com License - https://fontawesome.com/license (Commercial License) --><path d="M568 464H544V56C544 43 533 32 520 32H56C43 32 32 43 32 56V464H8C4 464 0 468 0 472S4 480 8 480H568C572 480 576 476 576 472S572 464 568 464ZM272 464V400H432V464H272ZM432 384H272C263 384 256 391 256 400V464H48V56C48 52 52 48 56 48H520C524 48 528 52 528 56V464H448V400C448 391 441 384 432 384Z"/></svg>