<svg xmlns="http://www.w3.org/2000/svg" viewBox="0 0 256 512"><!-- Font Awesome Pro 6.0.0-alpha1 by @fontawesome - https://fontawesome.com License - https://fontawesome.com/license (Commercial License) --><path d="M224 496H136V352C136 352 136 352 136 351C203 347 256 291 256 222C256 187 243 92 223 6C222 3 219 0 215 0H41C37 0 34 3 33 6C13 92 0 187 0 222C0 291 53 347 120 351C120 352 120 352 120 352V496H32C28 496 24 500 24 504S28 512 32 512H224C228 512 232 508 232 504S228 496 224 496ZM47 16H209C218 56 225 94 230 128H26C31 94 38 56 47 16ZM16 222C16 208 19 179 24 144C24 144 24 144 24 144H232C232 144 232 144 232 144C237 179 240 208 240 222C240 285 190 336 128 336S16 285 16 222Z"/></svg>