<svg xmlns="http://www.w3.org/2000/svg" viewBox="0 0 512 512"><!-- Font Awesome Pro 6.0.0-alpha1 by @fontawesome - https://fontawesome.com License - https://fontawesome.com/license (Commercial License) --><path d="M192 200C214 200 232 182 232 160S214 120 192 120S152 138 152 160S170 200 192 200ZM192 136C205 136 216 147 216 160S205 184 192 184S168 173 168 160S179 136 192 136ZM416 168C438 168 456 150 456 128S438 88 416 88S376 106 376 128S394 168 416 168ZM416 104C429 104 440 115 440 128S429 152 416 152S392 141 392 128S403 104 416 104ZM384 360C406 360 424 342 424 320S406 280 384 280S344 298 344 320S362 360 384 360ZM384 296C397 296 408 307 408 320S397 344 384 344S360 333 360 320S371 296 384 296ZM288 296C310 296 328 278 328 256S310 216 288 216S248 234 248 256S266 296 288 296ZM288 232C301 232 312 243 312 256S301 280 288 280S264 269 264 256S275 232 288 232ZM160 360C182 360 200 342 200 320S182 280 160 280S120 298 120 320S138 360 160 360ZM160 296C173 296 184 307 184 320S173 344 160 344S136 333 136 320S147 296 160 296ZM504 464H72C41 464 16 439 16 408V40C16 36 12 32 8 32S0 36 0 40V408C0 448 32 480 72 480H504C508 480 512 476 512 472S508 464 504 464Z"/></svg>