<svg xmlns="http://www.w3.org/2000/svg" viewBox="0 0 512 512"><!-- Font Awesome Pro 6.0.0-alpha1 by @fontawesome - https://fontawesome.com License - https://fontawesome.com/license (Commercial License) --><path d="M72 416H472C476 416 480 412 480 408V288C480 286 479 285 478 283L386 163C383 159 376 159 373 163L302 256L201 131C198 127 192 127 189 131L66 283C65 284 64 286 64 288V408C64 412 68 416 72 416ZM80 291L195 149L296 274C298 275 300 277 302 277C305 276 307 275 309 273L380 181L464 291V400H80V291ZM504 464H72C41 464 16 439 16 408V40C16 36 12 32 8 32S0 36 0 40V408C0 448 32 480 72 480H504C508 480 512 476 512 472S508 464 504 464Z"/></svg>