<svg xmlns="http://www.w3.org/2000/svg" viewBox="0 0 512 512"><!-- Font Awesome Pro 6.0.0-alpha1 by @fontawesome - https://fontawesome.com License - https://fontawesome.com/license (Commercial License) --><path d="M104 320C106 320 108 319 110 318L218 211L309 302C312 305 317 305 320 302L478 142C481 139 481 134 478 130C475 127 469 127 466 130L314 285L224 194C221 191 216 191 213 194L98 306C95 310 95 315 98 318C100 319 102 320 104 320ZM504 464H72C41 464 16 439 16 408V40C16 36 12 32 8 32S0 36 0 40V408C0 448 32 480 72 480H504C508 480 512 476 512 472S508 464 504 464Z"/></svg>