<svg xmlns="http://www.w3.org/2000/svg" viewBox="0 0 512 512"><!-- Font Awesome Pro 6.0.0-alpha1 by @fontawesome - https://fontawesome.com License - https://fontawesome.com/license (Commercial License) --><path d="M186 262C189 265 195 265 198 262L288 171L453 336H352C348 336 344 340 344 344S348 352 352 352H472C476 352 480 348 480 344V224C480 220 476 216 472 216S464 220 464 224V325L294 154C291 151 285 151 282 154L192 245L110 162C108 161 106 160 104 160S100 161 98 162C95 165 95 171 98 174L186 262ZM504 464H72C41 464 16 439 16 408V40C16 36 12 32 8 32S0 36 0 40V408C0 448 32 480 72 480H504C508 480 512 476 512 472S508 464 504 464Z"/></svg>