<svg xmlns="http://www.w3.org/2000/svg" viewBox="0 0 640 512"><!-- Font Awesome Pro 6.0.0-alpha1 by @fontawesome - https://fontawesome.com License - https://fontawesome.com/license (Commercial License) --><path d="M160 320C213 320 256 277 256 224C256 171 213 128 160 128C107 128 64 171 64 224C64 277 107 320 160 320ZM160 144C204 144 240 180 240 224C240 268 204 304 160 304S80 268 80 224C80 180 116 144 160 144ZM584 0H216C185 0 160 25 160 56V88C160 92 164 96 168 96S176 92 176 88V56C176 34 194 16 216 16H584C606 16 624 34 624 56V360C624 382 606 400 584 400H344C340 400 336 404 336 408S340 416 344 416H584C615 416 640 391 640 360V56C640 25 615 0 584 0ZM192 352H128C57 352 0 409 0 480C0 498 14 512 32 512H288C306 512 320 498 320 480C320 409 263 352 192 352ZM288 496H32C23 496 16 489 16 480C16 418 66 368 128 368H192C254 368 304 418 304 480C304 489 297 496 288 496ZM310 170C307 167 301 167 298 170S295 179 298 182L378 262C380 263 382 264 384 264S388 263 390 262L512 139V216C512 220 516 224 520 224S528 220 528 216V120C528 116 524 112 520 112H424C420 112 416 116 416 120S420 128 424 128H501L384 245L310 170Z"/></svg>