<svg xmlns="http://www.w3.org/2000/svg" viewBox="0 0 512 512"><!-- Font Awesome Pro 6.0.0-alpha1 by @fontawesome - https://fontawesome.com License - https://fontawesome.com/license (Commercial License) --><path d="M461 288H224V51C224 42 217 35 208 35C207 35 207 35 206 35C87 52 -4 155 0 280C4 404 108 508 232 512C235 512 237 512 240 512C361 512 461 422 477 306C479 296 471 288 461 288ZM240 496C237 496 235 496 232 496C117 492 20 395 16 280C12 165 95 67 208 51L208 51V288C208 297 215 304 224 304L462 304C446 413 351 496 240 496ZM289 0C288 0 288 0 288 0C279 0 272 7 272 16V224C272 233 279 240 288 240H496C505 240 513 232 512 223C504 104 408 8 289 0ZM288 224L288 16C399 24 488 113 496 224H288Z"/></svg>