<svg xmlns="http://www.w3.org/2000/svg" viewBox="0 0 512 512"><!-- Font Awesome Pro 6.0.0-alpha1 by @fontawesome - https://fontawesome.com License - https://fontawesome.com/license (Commercial License) --><path d="M408 320H424V376C424 380 428 384 432 384S440 380 440 376V320H456C469 320 480 309 480 296V216C480 203 469 192 456 192H440V136C440 132 436 128 432 128S424 132 424 136V192H408C395 192 384 203 384 216V296C384 309 395 320 408 320ZM400 216C400 212 404 208 408 208H456C460 208 464 212 464 216V296C464 300 460 304 456 304H408C404 304 400 300 400 296V216ZM504 464H72C41 464 16 439 16 408V40C16 36 12 32 8 32S0 36 0 40V408C0 448 32 480 72 480H504C508 480 512 476 512 472S508 464 504 464ZM280 256H296V312C296 316 300 320 304 320S312 316 312 312V256H328C341 256 352 245 352 232V120C352 107 341 96 328 96H312V40C312 36 308 32 304 32S296 36 296 40V96H280C267 96 256 107 256 120V232C256 245 267 256 280 256ZM272 120C272 116 276 112 280 112H328C332 112 336 116 336 120V232C336 236 332 240 328 240H280C276 240 272 236 272 232V120ZM152 320H168V376C168 380 172 384 176 384S184 380 184 376V320H200C213 320 224 309 224 296V152C224 139 213 128 200 128H184V72C184 68 180 64 176 64S168 68 168 72V128H152C139 128 128 139 128 152V296C128 309 139 320 152 320ZM144 152C144 148 148 144 152 144H200C204 144 208 148 208 152V296C208 300 204 304 200 304H152C148 304 144 300 144 296V152Z"/></svg>