<svg xmlns="http://www.w3.org/2000/svg" viewBox="0 0 512 512"><!-- Font Awesome Pro 6.0.0-alpha1 by @fontawesome - https://fontawesome.com License - https://fontawesome.com/license (Commercial License) --><path d="M392 448H120C89 448 64 473 64 504C64 508 68 512 72 512S80 508 80 504C80 482 98 464 120 464H392C414 464 432 482 432 504C432 508 436 512 440 512C444 512 448 508 448 504C448 473 423 448 392 448ZM256 112C287 112 312 87 312 56S287 0 256 0S200 25 200 56S225 112 256 112ZM256 16C278 16 296 34 296 56S278 96 256 96S216 78 216 56S234 16 256 16ZM501 183L474 168C464 161 450 164 442 175C433 186 418 192 404 189C386 186 373 169 373 149C373 137 363 128 352 128H314C304 128 296 135 294 144C290 162 274 175 256 175S222 162 218 144C216 135 208 128 198 128H160C149 128 140 137 140 149C140 171 124 189 104 190C91 191 78 185 70 175C63 164 48 161 39 168L11 184C1 190 -3 203 3 214L102 412C104 416 109 417 113 415C117 413 118 408 116 404L17 207C15 203 16 199 19 197L47 182C51 179 55 181 58 184C69 199 87 207 105 206C133 204 156 179 156 149C156 146 158 144 160 144H198C200 144 202 145 203 147C208 173 230 190 256 190S304 173 309 147C310 145 312 144 314 144H352C354 144 357 146 357 149C357 176 376 200 401 205C421 209 442 201 454 184C457 181 461 179 466 182L493 197C496 199 497 203 495 207L396 404C394 408 396 413 399 415C401 416 402 416 403 416C406 416 409 414 410 412L510 214C515 203 511 190 501 183Z"/></svg>