<svg xmlns="http://www.w3.org/2000/svg" viewBox="0 0 256 512"><!-- Font Awesome Pro 6.0.0-alpha1 by @fontawesome - https://fontawesome.com License - https://fontawesome.com/license (Commercial License) --><path d="M243 452L224 443V432C224 419 213 408 200 408H56C43 408 32 419 32 432V443L13 452C5 456 0 465 0 474V488C0 501 11 512 24 512H232C245 512 256 501 256 488V474C256 465 251 456 243 452ZM240 488C240 492 236 496 232 496H24C20 496 16 492 16 488V474C16 471 18 468 20 467L48 453V432C48 428 52 424 56 424H200C204 424 208 428 208 432V453L236 467C238 468 240 471 240 474V488ZM80 240H64C60 240 56 244 56 248S60 256 64 256H79L64 375C64 379 67 383 71 384C71 384 72 384 72 384C76 384 79 381 80 377L95 256H161L176 377C177 381 180 384 184 384C184 384 185 384 185 384C189 383 193 379 192 375L177 256H192C196 256 200 252 200 248S196 240 192 240H176C195 225 208 202 208 176C208 132 172 96 128 96C84 96 48 132 48 176C48 202 61 225 80 240ZM128 112C163 112 192 141 192 176C192 211 163 240 128 240C93 240 64 211 64 176C64 141 93 112 128 112Z"/></svg>