<svg xmlns="http://www.w3.org/2000/svg" viewBox="0 0 512 512"><!-- Font Awesome Pro 6.0.0-alpha1 by @fontawesome - https://fontawesome.com License - https://fontawesome.com/license (Commercial License) --><path d="M243 452L224 443V432C224 419 213 408 200 408H56C43 408 32 419 32 432V443L13 452C5 456 0 465 0 474V488C0 501 11 512 24 512H232C245 512 256 501 256 488V474C256 465 251 456 243 452ZM240 488C240 492 237 496 232 496H24C19 496 16 492 16 488V474C16 471 18 468 20 467L48 453V432C48 428 51 424 56 424H200C205 424 208 428 208 432V453L236 467L236 467C238 468 240 471 240 474V488ZM499 452L480 443V432C480 419 469 408 456 408H344C331 408 320 419 320 432V443L301 452C293 456 288 465 288 474V488C288 501 299 512 312 512H488C501 512 512 501 512 488V474C512 465 507 456 499 452ZM496 488C496 492 493 496 488 496H312C307 496 304 492 304 488V474C304 471 306 468 308 467L336 453V432C336 428 339 424 344 424H456C461 424 464 428 464 432V453L492 467L492 467C494 468 496 471 496 474V488ZM76 224H64C60 224 56 228 56 232S60 240 64 240H76L64 375C64 380 67 384 71 384C76 385 80 381 80 377L92 240H164L176 377C176 381 180 384 184 384C184 384 184 384 185 384C189 384 192 380 192 375L180 240H192C196 240 200 236 200 232S196 224 192 224H180L218 127C221 120 220 112 216 106C211 100 205 96 197 96H136V48H168C172 48 176 44 176 40S172 32 168 32H136V8C136 4 132 0 128 0S120 4 120 8V32H88C84 32 80 36 80 40S84 48 88 48H120V96H59C51 96 44 100 40 106C36 112 35 120 38 127L76 224ZM53 115C55 113 57 112 59 112H197C200 112 202 114 203 115C204 117 204 120 204 121L163 224H93L52 122C51 119 52 116 53 115ZM336 299V376C336 380 340 384 344 384S352 380 352 376V296C352 294 351 292 350 290L320 261V208H344V232C344 236 348 240 352 240H384C388 240 392 236 392 232V208H408V232C408 236 412 240 416 240H448C452 240 456 236 456 232V208H480V261L450 290C449 292 448 294 448 296V376C448 380 452 384 456 384S464 380 464 376V299L494 270C495 268 496 266 496 264V200C496 196 492 192 488 192H448C444 192 440 196 440 200V224H424V200C424 196 420 192 416 192H384C380 192 376 196 376 200V224H360V200C360 196 356 192 352 192H312C308 192 304 196 304 200V264C304 266 305 268 306 270L336 299ZM376 312V344C376 348 380 352 384 352H416C420 352 424 348 424 344V312C424 299 413 288 400 288S376 299 376 312ZM408 312V336H392V312C392 308 396 304 400 304S408 308 408 312Z"/></svg>