<svg xmlns="http://www.w3.org/2000/svg" viewBox="0 0 384 512"><!-- Font Awesome Pro 6.0.0-alpha1 by @fontawesome - https://fontawesome.com License - https://fontawesome.com/license (Commercial License) --><path d="M328 448H56C25 448 0 473 0 504C0 508 4 512 8 512S16 508 16 504C16 482 34 464 56 464H328C350 464 368 482 368 504C368 508 372 512 376 512S384 508 384 504C384 473 359 448 328 448ZM216 328C225 328 232 321 232 312V256C232 234 214 216 192 216S152 234 152 256V312C152 321 159 328 168 328H216ZM168 256C168 243 179 232 192 232S216 243 216 256V312H168V256ZM368 32H304C295 32 288 39 288 48V80C288 89 281 96 272 96S256 89 256 80V48C256 39 249 32 240 32H144C135 32 128 39 128 48V80C128 89 121 96 112 96S96 89 96 80V48C96 39 89 32 80 32H16C7 32 0 39 0 48V203C0 219 9 233 24 240L71 261L56 407C56 412 59 416 63 416C68 416 71 413 72 409L89 251L30 225C22 221 16 213 16 203V48H80V80C80 98 94 112 112 112S144 98 144 80V48H240V80C240 98 254 112 272 112S304 98 304 80V48H368V203C368 213 362 221 354 225L295 251L312 409C312 413 316 416 320 416C320 416 321 416 321 416C325 416 328 412 328 407L313 261L360 240C375 233 384 219 384 203V48C384 39 377 32 368 32Z"/></svg>