<svg xmlns="http://www.w3.org/2000/svg" viewBox="0 0 640 512"><!-- Font Awesome Pro 6.0.0-alpha1 by @fontawesome - https://fontawesome.com License - https://fontawesome.com/license (Commercial License) --><path d="M352 304C352 366 402 416 464 416S576 366 576 304S526 192 464 192S352 242 352 304ZM368 304C368 251 411 208 464 208S560 251 560 304C560 357 517 400 464 400S368 357 368 304ZM176 192C114 192 64 242 64 304S114 416 176 416S288 366 288 304S238 192 176 192ZM176 400C123 400 80 357 80 304C80 251 123 208 176 208S272 251 272 304C272 357 229 400 176 400ZM0 192L0 416C0 451 29 480 64 480H576C611 480 640 451 640 416V192C640 157 611 128 576 128H472V48H536C540 48 544 44 544 40S540 32 536 32H392C388 32 384 36 384 40S388 48 392 48H456V128H64C29 128 0 157 0 192ZM16 192C16 166 38 144 64 144H576C602 144 624 166 624 192V416C624 442 602 464 576 464H64C38 464 16 442 16 416V192ZM256 88C256 84 252 80 248 80H104C100 80 96 84 96 88S100 96 104 96H248C252 96 256 92 256 88ZM456 240V304C456 308 460 312 464 312S472 308 472 304V240C472 236 468 232 464 232S456 236 456 240ZM216 253L170 298C167 301 167 307 170 310C172 311 174 312 176 312S180 311 182 310L227 264C230 261 230 256 227 253S219 250 216 253Z"/></svg>