<svg xmlns="http://www.w3.org/2000/svg" viewBox="0 0 384 512"><!-- Font Awesome Pro 6.0.0-alpha1 by @fontawesome - https://fontawesome.com License - https://fontawesome.com/license (Commercial License) --><path d="M24 275L65 293C74 297 86 297 96 293L108 288C120 283 128 274 132 262L141 231C142 227 145 223 150 221L160 216V266C160 281 151 295 138 302L81 331C50 346 32 375 32 408C32 412 36 416 40 416S48 412 48 408C48 381 63 358 88 345L145 316C164 307 176 287 176 266V203C176 200 175 197 172 196C170 194 167 194 164 196L142 207C134 211 128 218 126 227L116 258C114 265 109 270 102 273L90 278C84 281 77 281 71 278L30 260C22 256 16 247 16 238V114C16 110 18 106 21 103L30 94C32 91 33 88 31 84L17 56C16 55 16 53 16 52C16 50 18 48 20 48H160C259 48 336 129 336 232V408C336 412 340 416 344 416S352 412 352 408V232C352 120 268 32 160 32H20C9 32 0 41 0 52C0 56 1 60 3 63L14 86L9 91C3 97 0 105 0 114V238C0 254 9 268 24 275ZM64 144C64 153 71 160 80 160S96 153 96 144C96 135 89 128 80 128S64 135 64 144ZM328 448H56C25 448 0 473 0 504C0 508 4 512 8 512S16 508 16 504C16 482 34 464 56 464H328C350 464 368 482 368 504C368 508 372 512 376 512S384 508 384 504C384 473 359 448 328 448Z"/></svg>