<svg xmlns="http://www.w3.org/2000/svg" viewBox="0 0 320 512"><!-- Font Awesome Pro 6.0.0-alpha1 by @fontawesome - https://fontawesome.com License - https://fontawesome.com/license (Commercial License) --><path d="M307 452L288 443V432C288 419 277 408 264 408H56C43 408 32 419 32 432V443L13 452C5 456 0 465 0 474V488C0 501 11 512 24 512H296C309 512 320 501 320 488V474C320 465 315 456 307 452ZM304 488C304 492 300 496 296 496H24C20 496 16 492 16 488V474C16 471 18 468 20 467L48 453V432C48 428 52 424 56 424H264C268 424 272 428 272 432V453L300 467C302 468 304 471 304 474V488ZM50 235L79 248C87 251 95 251 103 248L112 245C121 241 127 234 130 225L137 203C137 200 139 198 140 197L144 196V230C144 242 141 244 103 265C95 270 87 274 77 280C54 291 40 308 37 328C34 346 42 365 58 382C61 385 67 385 70 382S73 373 70 370C57 357 51 344 53 330C55 316 66 303 85 294C94 288 103 284 110 279C149 258 160 252 160 230V185C160 182 159 180 157 178C155 177 152 176 150 177L134 182C128 186 123 192 121 198L115 220C114 225 110 228 106 230L97 233C93 235 89 235 86 233L57 220C51 218 48 213 48 207V125C48 122 49 120 51 118L57 112C59 109 60 106 59 103L48 82L49 80H141C213 80 272 139 272 211V344C272 354 266 362 258 371C255 374 255 379 259 382C260 383 262 384 264 384C266 384 268 383 270 381C277 373 288 361 288 344V211C288 130 222 64 141 64H49C39 64 32 71 32 81C32 84 33 87 34 90L42 105L39 107C35 112 32 118 32 125V207C32 219 39 230 50 235ZM80 144C80 153 87 160 96 160C105 160 112 153 112 144C112 135 105 128 96 128C87 128 80 135 80 144Z"/></svg>