<svg xmlns="http://www.w3.org/2000/svg" viewBox="0 0 256 512"><!-- Font Awesome Pro 6.0.0-alpha1 by @fontawesome - https://fontawesome.com License - https://fontawesome.com/license (Commercial License) --><path d="M243 452L224 443V432C224 419 213 408 200 408H56C43 408 32 419 32 432V443L13 452C5 456 0 465 0 474V488C0 501 11 512 24 512H232C245 512 256 501 256 488V474C256 465 251 456 243 452ZM240 488C240 492 236 496 232 496H24C20 496 16 492 16 488V474C16 471 18 468 20 467L48 453V432C48 428 52 424 56 424H200C204 424 208 428 208 432V453L236 467C238 468 240 471 240 474V488ZM73 192H64C60 192 56 196 56 200S60 208 64 208H76L64 375C64 380 67 384 71 384C72 384 72 384 72 384C76 384 80 381 80 377L92 208H164L176 377C176 381 180 384 184 384C184 384 184 384 185 384C189 384 192 380 192 375L180 208H192C196 208 200 204 200 200S196 192 192 192H183L233 112C235 109 234 106 231 104L221 97C220 96 218 96 217 96C215 96 213 97 211 99C208 104 202 107 195 107C194 107 193 107 192 107C182 105 175 96 175 86C175 82 173 80 170 80H153C151 80 148 82 148 84C146 94 138 100 128 100S110 94 108 84C108 82 105 80 103 80H86C83 80 81 82 81 86C81 97 73 106 62 107C62 107 61 107 61 107C54 107 48 104 44 99C43 97 41 96 39 96C38 96 36 96 35 97L25 104C22 106 21 109 23 112L73 192ZM61 123L63 123L63 123C79 122 91 111 95 96H96C102 108 114 116 128 116C142 116 155 108 161 96H161C164 109 175 120 188 122C191 123 193 123 195 123C200 123 205 122 209 120L164 192H92L47 120C51 122 56 123 61 123ZM128 64C146 64 160 50 160 32S146 0 128 0S96 14 96 32S110 64 128 64ZM128 16C137 16 144 23 144 32S137 48 128 48S112 41 112 32S119 16 128 16Z"/></svg>