<svg xmlns="http://www.w3.org/2000/svg" viewBox="0 0 448 512"><!-- Font Awesome Pro 6.0.0-alpha1 by @fontawesome - https://fontawesome.com License - https://fontawesome.com/license (Commercial License) --><path d="M253 466L20 256L253 46C255 44 256 42 256 40C256 38 255 36 254 35C251 31 246 31 242 34L2 250C-1 253 -1 259 2 262L242 478C246 481 251 481 254 477C257 474 257 469 253 466ZM195 250C191 253 191 259 195 262L435 478C438 481 443 481 446 477C449 474 449 469 445 466L212 256L445 46C447 44 448 42 448 40C448 38 447 36 446 35C443 31 438 31 435 34L195 250Z"/></svg>