<svg xmlns="http://www.w3.org/2000/svg" viewBox="0 0 448 512"><!-- Font Awesome Pro 6.0.0-alpha1 by @fontawesome - https://fontawesome.com License - https://fontawesome.com/license (Commercial License) --><path d="M195 46L428 256L195 466C193 468 192 470 192 472C192 474 193 476 194 477C197 481 202 481 206 478L446 262C449 259 449 253 446 250L206 34C202 31 197 31 194 35C191 38 191 43 195 46ZM253 262C257 259 257 253 253 250L13 34C10 31 5 31 2 35C-1 38 -1 43 3 46L236 256L3 466C1 468 0 470 0 472C0 474 1 476 2 477C5 481 10 481 13 478L253 262Z"/></svg>