<svg xmlns="http://www.w3.org/2000/svg" viewBox="0 0 448 512"><!-- Font Awesome Pro 6.0.0-alpha1 by @fontawesome - https://fontawesome.com License - https://fontawesome.com/license (Commercial License) --><path d="M434 227L224 460L14 227C12 225 10 224 8 224C6 224 4 225 3 226C-1 229 -1 234 2 238L218 478C221 481 227 481 230 478L446 238C449 234 449 229 445 226C442 223 437 223 434 227ZM218 285C221 289 227 289 230 285L446 45C449 42 449 37 445 34C442 31 437 31 434 35L224 268L14 35C12 33 10 32 8 32C6 32 4 33 3 34C-1 37 -1 42 2 45L218 285Z"/></svg>