<svg xmlns="http://www.w3.org/2000/svg" viewBox="0 0 640 512"><!-- Font Awesome Pro 6.0.0-alpha1 by @fontawesome - https://fontawesome.com License - https://fontawesome.com/license (Commercial License) --><path d="M461 232L328 155V104H408C412 104 416 100 416 96S412 88 408 88H328V8C328 4 324 0 320 0S312 4 312 8V88H232C228 88 224 92 224 96S228 104 232 104H312V155L178 236C167 243 160 255 160 268V503C160 507 164 511 168 511S176 507 176 503V268C176 260 180 253 186 250L320 169L453 245C460 249 464 256 464 264V503C464 507 468 511 472 511S480 507 480 503V264C480 250 473 238 461 232ZM116 321L22 368C8 375 0 389 0 404V504C0 508 4 512 8 512S16 508 16 504V404C16 395 21 386 29 382L124 335C128 333 129 328 127 324C125 320 120 319 116 321ZM618 368L524 321C520 319 515 320 513 324C511 328 512 333 516 335L611 382C619 386 624 395 624 404V504C624 508 628 512 632 512S640 508 640 504V404C640 389 632 375 618 368ZM320 352C276 352 240 388 240 432V504C240 508 244 512 248 512S256 508 256 504V432C256 397 285 368 320 368S384 397 384 432V504C384 508 388 512 392 512S400 508 400 504V432C400 388 364 352 320 352Z"/></svg>