<svg xmlns="http://www.w3.org/2000/svg" viewBox="0 0 512 512"><!-- Font Awesome Pro 6.0.0-alpha1 by @fontawesome - https://fontawesome.com License - https://fontawesome.com/license (Commercial License) --><path d="M256 16C123 16 16 123 16 256S123 496 256 496S496 389 496 256S389 16 256 16ZM256 480C132 480 32 380 32 256S132 32 256 32S480 132 480 256S380 480 256 480ZM376 248H264V136C264 132 260 128 256 128S248 132 248 136V248H136C132 248 128 252 128 256S132 264 136 264H248V376C248 380 252 384 256 384S264 380 264 376V264H376C380 264 384 260 384 256S380 248 376 248Z"/></svg>