<svg xmlns="http://www.w3.org/2000/svg" viewBox="0 0 512 512"><!-- Font Awesome Pro 6.0.0-alpha1 by @fontawesome - https://fontawesome.com License - https://fontawesome.com/license (Commercial License) --><path d="M232 479C188 474 147 456 115 430C111 427 107 427 104 430L104 430C100 434 101 439 104 442C140 471 183 490 231 494C235 495 240 491 240 486C240 482 236 479 232 479ZM33 279C33 275 29 272 25 272C20 272 17 276 17 281C22 328 41 372 69 407C72 411 78 411 81 408L81 408C84 405 84 400 82 397C55 364 38 324 33 279ZM231 18C183 22 140 41 104 70C101 73 100 78 104 82L104 82C107 85 111 85 115 82C147 56 188 38 232 33C236 33 240 30 240 26C240 21 235 17 231 18ZM81 104C78 101 72 101 69 105C41 140 22 184 17 231C17 236 20 240 25 240C29 240 33 237 33 233C38 188 55 148 82 115C84 112 84 107 81 104L81 104ZM407 430C404 427 400 427 396 430C364 456 323 474 279 479C275 479 272 482 272 486C272 491 276 495 280 494C328 490 371 471 407 442C410 439 410 434 407 430L407 430ZM486 272C482 272 478 275 478 279C473 324 456 364 429 397C427 400 427 405 430 408L430 408C433 411 439 411 442 407C470 372 489 328 494 281C494 276 491 272 486 272ZM478 233C478 237 482 240 486 240C491 240 494 236 494 231C489 184 470 140 442 105C439 101 433 101 430 104L430 104C427 107 427 112 429 115C456 148 473 188 478 233ZM280 18C276 17 272 21 272 26C272 30 275 33 279 33C323 38 364 56 396 82C400 85 404 85 407 82L407 82C411 78 410 73 407 70C371 41 328 22 280 18Z"/></svg>