<svg xmlns="http://www.w3.org/2000/svg" viewBox="0 0 512 512"><!-- Font Awesome Pro 6.0.0-alpha1 by @fontawesome - https://fontawesome.com License - https://fontawesome.com/license (Commercial License) --><path d="M256 16C123 16 16 123 16 256S123 496 256 496S496 389 496 256S389 16 256 16ZM256 480C132 480 32 380 32 256S132 32 256 32S480 132 480 256S380 480 256 480ZM240 145C235 140 228 138 221 138C217 138 213 138 209 140C199 145 192 155 192 166V346C192 357 199 367 209 372C213 374 217 374 221 374C228 374 235 372 240 367L342 278C348 272 352 264 352 256S348 240 342 234L240 145ZM332 266L229 355C227 357 224 358 221 358C219 358 217 358 215 357C211 355 208 351 208 346V166C208 161 211 157 215 155C217 154 219 154 221 154C224 154 227 155 229 157L332 246C334 249 336 252 336 256C336 260 334 263 332 266Z"/></svg>