<svg xmlns="http://www.w3.org/2000/svg" viewBox="0 0 512 512"><!-- Font Awesome Pro 6.0.0-alpha1 by @fontawesome - https://fontawesome.com License - https://fontawesome.com/license (Commercial License) --><path d="M344 128H168C164 128 160 132 160 136S164 144 168 144H330L193 372C191 376 192 381 196 383C197 384 199 384 200 384C203 384 205 383 207 380L351 140C352 138 352 135 351 132C350 130 347 128 344 128ZM256 16C123 16 16 123 16 256S123 496 256 496S496 389 496 256S389 16 256 16ZM256 480C132 480 32 380 32 256S132 32 256 32S480 132 480 256S380 480 256 480Z"/></svg>