<svg xmlns="http://www.w3.org/2000/svg" viewBox="0 0 512 512"><!-- Font Awesome Pro 6.0.0-alpha1 by @fontawesome - https://fontawesome.com License - https://fontawesome.com/license (Commercial License) --><path d="M496 256C496 123 389 16 256 16S16 123 16 256S123 496 256 496S496 389 496 256ZM32 256C32 132 132 32 256 32S480 132 480 256S380 480 256 480S32 380 32 256ZM382 262C385 259 385 253 382 250L262 130C260 129 258 128 256 128S252 129 250 130C247 133 247 139 250 142L357 248H136C132 248 128 252 128 256S132 264 136 264H357L250 370C247 373 247 379 250 382S259 385 262 382L382 262Z"/></svg>