<svg xmlns="http://www.w3.org/2000/svg" viewBox="0 0 512 512"><!-- Font Awesome Pro 6.0.0-alpha1 by @fontawesome - https://fontawesome.com License - https://fontawesome.com/license (Commercial License) --><path d="M352 160H160C142 160 128 174 128 192V320C128 338 142 352 160 352H352C370 352 384 338 384 320V192C384 174 370 160 352 160ZM368 320C368 329 361 336 352 336H160C151 336 144 329 144 320V237L238 284C244 287 250 288 256 288S268 287 274 284L368 237V320ZM368 219L267 269C260 273 252 273 245 269L144 219V192C144 183 151 176 160 176H352C361 176 368 183 368 192V219ZM256 16C123 16 16 123 16 256S123 496 256 496S496 389 496 256S389 16 256 16ZM256 480C132 480 32 380 32 256S132 32 256 32S480 132 480 256S380 480 256 480Z"/></svg>