<svg xmlns="http://www.w3.org/2000/svg" viewBox="0 0 512 512"><!-- Font Awesome Pro 6.0.0-alpha1 by @fontawesome - https://fontawesome.com License - https://fontawesome.com/license (Commercial License) --><path d="M370 147L256 280L142 147C139 143 134 143 131 146C127 149 127 154 130 157L248 295V392C248 396 252 400 256 400S264 396 264 392V295L382 157C385 154 385 149 381 146C378 143 373 143 370 147ZM256 16C123 16 16 123 16 256S123 496 256 496S496 389 496 256S389 16 256 16ZM256 480C132 480 32 380 32 256S132 32 256 32S480 132 480 256S380 480 256 480Z"/></svg>