<svg xmlns="http://www.w3.org/2000/svg" viewBox="0 0 640 512"><!-- Font Awesome Pro 6.0.0-alpha1 by @fontawesome - https://fontawesome.com License - https://fontawesome.com/license (Commercial License) --><path d="M440 255H352C348 255 344 259 344 263S348 271 352 271H432C431 281 429 290 425 298C419 311 411 323 400 334C359 376 292 379 248 341C223 320 209 292 208 260C207 229 219 198 241 176C283 134 350 132 395 172C398 175 403 175 406 171C409 168 409 163 405 160C355 115 278 117 230 165C204 190 191 225 192 261C194 297 210 330 237 353C261 373 290 383 320 383C353 383 386 370 411 345C423 333 433 319 439 305C445 293 448 279 448 263C448 259 444 255 440 255ZM320 16C187 16 80 123 80 256S187 496 320 496S560 389 560 256S453 16 320 16ZM320 480C196 480 96 380 96 256S196 32 320 32S544 132 544 256S444 480 320 480Z"/></svg>