<svg xmlns="http://www.w3.org/2000/svg" viewBox="0 0 512 512"><!-- Font Awesome Pro 6.0.0-alpha1 by @fontawesome - https://fontawesome.com License - https://fontawesome.com/license (Commercial License) --><path d="M258 248C203 234 170 222 177 184C179 173 186 163 196 156C213 146 247 137 317 153C321 154 326 152 327 147S325 139 321 138C260 123 215 125 188 143C173 152 164 165 161 181C151 237 206 251 254 264C309 278 342 290 335 328C332 342 325 352 314 358C280 377 218 365 171 348C167 346 162 349 161 353S161 361 165 363C182 369 226 384 268 384C288 384 306 381 321 372C337 363 347 349 351 331C361 275 306 261 258 248ZM256 16C123 16 16 123 16 256S123 496 256 496S496 389 496 256S389 16 256 16ZM256 480C132 480 32 380 32 256S132 32 256 32S480 132 480 256S380 480 256 480Z"/></svg>