<svg xmlns="http://www.w3.org/2000/svg" viewBox="0 0 512 512"><!-- Font Awesome Pro 6.0.0-alpha1 by @fontawesome - https://fontawesome.com License - https://fontawesome.com/license (Commercial License) --><path d="M256 16C123 16 16 123 16 256C16 389 123 496 256 496S496 389 496 256C496 123 389 16 256 16ZM256 480C132 480 32 380 32 256S132 32 256 32S480 132 480 256S380 480 256 480ZM328 160H184C171 160 160 171 160 184V328C160 341 171 352 184 352H328C341 352 352 341 352 328V184C352 171 341 160 328 160ZM336 328C336 332 332 336 328 336H184C180 336 176 332 176 328V184C176 180 180 176 184 176H328C332 176 336 180 336 184V328Z"/></svg>