<svg xmlns="http://www.w3.org/2000/svg" viewBox="0 0 512 512"><!-- Font Awesome Pro 6.0.0-alpha1 by @fontawesome - https://fontawesome.com License - https://fontawesome.com/license (Commercial License) --><path d="M256 16C123 16 16 123 16 256S123 496 256 496S496 389 496 256S389 16 256 16ZM256 480C132 480 32 380 32 256S132 32 256 32S480 132 480 256S380 480 256 480ZM224 160H176C167 160 160 167 160 176V336C160 345 167 352 176 352H224C233 352 240 345 240 336V176C240 167 233 160 224 160ZM224 336H176V176H224V336ZM336 160H288C279 160 272 167 272 176V336C272 345 279 352 288 352H336C345 352 352 345 352 336V176C352 167 345 160 336 160ZM336 336H288V176H336V336Z"/></svg>