<svg xmlns="http://www.w3.org/2000/svg" viewBox="0 0 512 512"><!-- Font Awesome Pro 6.0.0-alpha1 by @fontawesome - https://fontawesome.com License - https://fontawesome.com/license (Commercial License) --><path d="M323 326L365 266C368 262 367 257 363 255C360 252 355 253 352 257L312 314L243 241L280 211C292 202 298 189 298 175C298 149 277 128 250 128H228C201 128 179 149 179 175C179 189 185 202 195 213L220 239L167 282C153 293 145 309 145 327C145 358 172 384 204 384H243C267 384 290 373 304 353L313 339L353 381C356 385 361 385 364 382C368 379 368 374 365 370L323 326ZM206 202C199 194 195 185 195 175C195 158 210 144 228 144H250C268 144 282 158 282 175C282 184 278 193 270 199L232 229L206 202ZM290 344C280 359 262 368 243 368H204C181 368 161 349 161 327C161 314 167 302 177 294L231 251L302 327L290 344ZM256 16C123 16 16 123 16 256S123 496 256 496S496 389 496 256S389 16 256 16ZM256 480C132 480 32 380 32 256S132 32 256 32S480 132 480 256S380 480 256 480Z"/></svg>