<svg xmlns="http://www.w3.org/2000/svg" viewBox="0 0 512 512"><!-- Font Awesome Pro 6.0.0-alpha1 by @fontawesome - https://fontawesome.com License - https://fontawesome.com/license (Commercial License) --><path d="M320 368H264V136C264 133 262 130 260 129C258 128 255 128 252 129L196 161C192 163 191 168 193 172C195 176 200 177 204 175L248 150V368H192C188 368 184 372 184 376S188 384 192 384H320C324 384 328 380 328 376S324 368 320 368ZM256 16C123 16 16 123 16 256S123 496 256 496S496 389 496 256S389 16 256 16ZM256 480C132 480 32 380 32 256S132 32 256 32S480 132 480 256S380 480 256 480Z"/></svg>