<svg xmlns="http://www.w3.org/2000/svg" viewBox="0 0 512 512"><!-- Font Awesome Pro 6.0.0-alpha1 by @fontawesome - https://fontawesome.com License - https://fontawesome.com/license (Commercial License) --><path d="M208 256C208 252 204 248 200 248H121C119 248 117 247 115 245C114 243 113 241 113 238C118 202 136 168 166 144C168 143 170 142 173 143C175 143 177 144 178 146L220 213C222 217 227 218 231 215C234 213 236 208 233 204L192 138C188 132 182 128 175 127C168 126 161 127 156 132C123 158 102 195 97 236C96 244 99 251 103 256C108 261 114 264 121 264H200C204 264 208 260 208 256ZM224 256C224 274 238 288 256 288S288 274 288 256S274 224 256 224S224 238 224 256ZM256 240C265 240 272 247 272 256S265 272 256 272S240 265 240 256S247 240 256 240ZM256 16C123 16 16 123 16 256S123 496 256 496S496 389 496 256S389 16 256 16ZM256 480C132 480 32 380 32 256S132 32 256 32S480 132 480 256S380 480 256 480ZM356 132C351 128 344 126 337 127C330 128 324 132 321 138L279 204C276 208 278 213 281 215C285 218 290 217 292 213L334 146C335 144 337 143 340 143C342 142 344 143 346 144C376 168 394 202 399 238C399 241 398 244 397 245C395 247 393 248 391 248H312C308 248 304 252 304 256S308 264 312 264H391C398 264 404 261 409 256C413 251 416 244 415 236C410 195 389 158 356 132ZM292 299C290 295 285 294 281 297C278 299 276 304 279 308L321 374C322 376 322 379 321 381C321 383 319 385 317 386C278 405 234 405 195 386C193 385 191 383 191 381C190 379 190 376 191 374L233 308C236 304 234 299 231 297C227 294 222 295 220 299L178 366C174 372 173 379 175 385C177 392 182 398 189 401C210 411 233 416 256 416C279 416 302 411 324 401C330 398 335 392 337 385C339 379 338 372 334 366L292 299Z"/></svg>