<svg xmlns="http://www.w3.org/2000/svg" viewBox="0 0 512 512"><!-- Font Awesome Pro 6.0.0-alpha1 by @fontawesome - https://fontawesome.com License - https://fontawesome.com/license (Commercial License) --><path d="M256 320C291 320 320 291 320 256V160C320 125 291 96 256 96S192 125 192 160V256C192 291 221 320 256 320ZM208 160C208 134 230 112 256 112S304 134 304 160H256C252 160 248 164 248 168S252 176 256 176H304V224H256C252 224 248 228 248 232S252 240 256 240H304V256C304 282 282 304 256 304S208 282 208 256V160ZM360 216C356 216 352 220 352 224V256C352 309 309 352 256 352S160 309 160 256V224C160 220 156 216 152 216S144 220 144 224V256C144 315 190 363 248 367V416C248 420 252 424 256 424S264 420 264 416V367C322 363 368 315 368 256V224C368 220 364 216 360 216ZM256 16C123 16 16 123 16 256S123 496 256 496S496 389 496 256S389 16 256 16ZM256 480C132 480 32 380 32 256S132 32 256 32S480 132 480 256S380 480 256 480Z"/></svg>