<svg xmlns="http://www.w3.org/2000/svg" viewBox="0 0 512 512"><!-- Font Awesome Pro 6.0.0-alpha1 by @fontawesome - https://fontawesome.com License - https://fontawesome.com/license (Commercial License) --><path d="M344 128C340 128 336 132 336 136V296C336 336 300 368 256 368S176 336 176 296C176 292 172 288 168 288S160 292 160 296C160 345 203 384 256 384S352 345 352 296V136C352 132 348 128 344 128ZM256 16C123 16 16 123 16 256S123 496 256 496S496 389 496 256S389 16 256 16ZM256 480C132 480 32 380 32 256S132 32 256 32S480 132 480 256S380 480 256 480Z"/></svg>