<svg xmlns="http://www.w3.org/2000/svg" viewBox="0 0 512 512"><!-- Font Awesome Pro 6.0.0-alpha1 by @fontawesome - https://fontawesome.com License - https://fontawesome.com/license (Commercial License) --><path d="M461 256H256V51C256 33 241 18 224 18C223 18 221 19 219 19C89 39 -7 163 21 304C39 398 114 473 208 491C224 494 240 496 256 496C376 496 476 408 493 293C496 273 481 256 461 256ZM256 480C241 480 226 479 211 476C124 459 53 389 36 301C24 239 37 178 73 127C108 78 162 44 222 35C223 34 223 34 224 34C233 34 240 42 240 51V256C240 265 247 272 256 272H461C466 272 471 274 474 278C475 280 478 284 477 290C461 398 366 480 256 480Z"/></svg>