<svg xmlns="http://www.w3.org/2000/svg" viewBox="0 0 512 512"><!-- Font Awesome Pro 6.0.0-alpha1 by @fontawesome - https://fontawesome.com License - https://fontawesome.com/license (Commercial License) --><path d="M256 16C123 16 16 123 16 256S123 496 256 496C389 496 496 389 496 256S389 16 256 16ZM256 480C132 480 32 380 32 256S132 32 256 32S480 132 480 256S380 480 256 480ZM336 288H176C166 288 158 294 154 303C150 312 152 322 159 329L239 409C244 414 250 416 256 416C262 416 268 413 273 409L353 329C360 322 362 312 358 303C354 294 346 288 336 288ZM342 318L262 398C259 401 253 401 250 398L170 318C167 314 168 310 169 309C169 308 171 304 176 304H336C341 304 343 308 343 309C344 310 345 314 342 318ZM273 103C264 94 249 94 239 103L154 186C151 189 151 194 154 198C157 201 162 201 166 198L250 114C254 111 259 111 262 114L346 198C348 199 350 200 352 200C354 200 356 199 358 198C361 194 361 189 358 186L273 103Z"/></svg>