<svg xmlns="http://www.w3.org/2000/svg" viewBox="0 0 640 512"><!-- Font Awesome Pro 6.0.0-alpha1 by @fontawesome - https://fontawesome.com License - https://fontawesome.com/license (Commercial License) --><path d="M320 192C315 192 311 193 307 193L365 142C369 139 369 134 366 131C364 129 362 128 360 128C358 128 356 129 355 130C355 130 256 217 255 218C236 235 224 260 224 288C224 341 267 384 320 384S416 341 416 288S373 192 320 192ZM320 368C276 368 240 332 240 288S276 208 320 208S400 244 400 288S364 368 320 368ZM320 16C187 16 80 123 80 256S187 496 320 496S560 389 560 256S453 16 320 16ZM320 480C196 480 96 380 96 256S196 32 320 32S544 132 544 256S444 480 320 480Z"/></svg>