<svg xmlns="http://www.w3.org/2000/svg" viewBox="0 0 512 512"><!-- Font Awesome Pro 6.0.0-alpha1 by @fontawesome - https://fontawesome.com License - https://fontawesome.com/license (Commercial License) --><path d="M256 16C123 16 16 123 16 256S123 496 256 496S496 389 496 256S389 16 256 16ZM256 480C132 480 32 380 32 256S132 32 256 32S480 132 480 256S380 480 256 480ZM312 128H200C178 128 160 146 160 168V376C160 379 162 382 165 383C167 385 171 384 173 382L256 314L339 382C340 383 342 384 344 384C345 384 346 384 347 383C350 382 352 379 352 376V168C352 146 334 128 312 128ZM336 359L261 298C260 297 258 296 256 296S252 297 251 298L176 359V168C176 155 187 144 200 144H312C325 144 336 155 336 168V359Z"/></svg>