<svg xmlns="http://www.w3.org/2000/svg" viewBox="0 0 512 512"><!-- Font Awesome Pro 6.0.0-alpha1 by @fontawesome - https://fontawesome.com License - https://fontawesome.com/license (Commercial License) --><path d="M256 16C123 16 16 123 16 256S123 496 256 496S496 389 496 256S389 16 256 16ZM256 480C132 480 32 380 32 256S132 32 256 32S480 132 480 256S380 480 256 480ZM256 160C203 160 160 203 160 256S203 352 256 352S352 309 352 256S309 160 256 160ZM256 336C212 336 176 300 176 256S212 176 256 176C300 176 336 212 336 256S300 336 256 336Z"/></svg>