<svg xmlns="http://www.w3.org/2000/svg" viewBox="0 0 512 512"><!-- Font Awesome Pro 6.0.0-alpha1 by @fontawesome - https://fontawesome.com License - https://fontawesome.com/license (Commercial License) --><path d="M256 16C123 16 16 123 16 256C16 388 123 496 256 496S496 388 496 256C496 123 389 16 256 16ZM256 480C132 480 32 380 32 256S132 32 256 32S480 132 480 256S380 480 256 480ZM256 176C265 176 272 169 272 160S265 144 256 144S240 151 240 160S247 176 256 176ZM288 352H264V216C264 216 264 216 264 216C264 212 260 208 256 208H224C220 208 216 212 216 216S220 224 224 224H248V352H224C220 352 216 356 216 360S220 368 224 368H288C292 368 296 364 296 360S292 352 288 352Z"/></svg>