<svg xmlns="http://www.w3.org/2000/svg" viewBox="0 0 512 512"><!-- Font Awesome Pro 6.0.0-alpha1 by @fontawesome - https://fontawesome.com License - https://fontawesome.com/license (Commercial License) --><path d="M350 131C347 127 342 127 339 130L176 281V136C176 132 172 128 168 128S160 132 160 136V376C160 380 164 384 168 384S176 380 176 376V303L236 248L338 381C339 383 342 384 344 384C346 384 347 383 349 382C352 380 353 375 350 371L248 237L349 142C353 139 353 134 350 131ZM256 16C123 16 16 123 16 256S123 496 256 496S496 389 496 256S389 16 256 16ZM256 480C132 480 32 380 32 256S132 32 256 32S480 132 480 256S380 480 256 480Z"/></svg>