<svg xmlns="http://www.w3.org/2000/svg" viewBox="0 0 512 512"><!-- Font Awesome Pro 6.0.0-alpha1 by @fontawesome - https://fontawesome.com License - https://fontawesome.com/license (Commercial License) --><path d="M256 16C123 16 16 123 16 256S123 496 256 496S496 389 496 256S389 16 256 16ZM256 480C132 480 32 380 32 256S132 32 256 32S480 132 480 256S380 480 256 480ZM346 192H166C155 192 145 199 140 209C136 219 137 231 145 240L234 342C240 348 248 352 256 352S272 348 278 342L367 240C375 231 376 219 372 209C367 199 357 192 346 192ZM355 229L266 332C263 334 260 336 256 336S249 334 246 332L157 229C153 225 153 220 155 215C157 211 161 208 166 208H346C351 208 355 211 357 215C359 220 359 225 355 229Z"/></svg>