<svg xmlns="http://www.w3.org/2000/svg" viewBox="0 0 512 512"><!-- Font Awesome Pro 6.0.0-alpha1 by @fontawesome - https://fontawesome.com License - https://fontawesome.com/license (Commercial License) --><path d="M256 16C123 16 16 123 16 256S123 496 256 496S496 389 496 256S389 16 256 16ZM256 480C132 480 32 380 32 256S132 32 256 32S480 132 480 256S380 480 256 480ZM374 132L323 121C312 118 301 124 296 134L273 189C269 198 272 210 280 216L302 234C286 263 263 286 234 302L216 280C210 272 198 269 189 273L134 296L134 296C124 301 118 312 121 323L132 374C135 384 144 392 155 392C286 392 392 286 392 155C392 144 384 135 374 132ZM155 376C152 376 149 374 148 370L136 320C135 316 137 312 141 311L195 288C198 286 202 287 204 290L230 322L235 319C272 301 301 272 319 236L322 230L290 204C287 202 286 198 288 195L311 141C312 137 316 135 320 136L370 148C374 149 376 152 376 155C376 277 277 376 155 376Z"/></svg>