<svg xmlns="http://www.w3.org/2000/svg" viewBox="0 0 512 512"><!-- Font Awesome Pro 6.0.0-alpha1 by @fontawesome - https://fontawesome.com License - https://fontawesome.com/license (Commercial License) --><path d="M360 144C356 144 352 148 352 152V294C352 344 309 384 256 384S160 344 160 294V152C160 148 156 144 152 144S144 148 144 152V294C144 352 194 400 256 400S368 352 368 294V152C368 148 364 144 360 144ZM256 16C123 16 16 123 16 256S123 496 256 496S496 389 496 256S389 16 256 16ZM256 480C132 480 32 380 32 256S132 32 256 32S480 132 480 256S380 480 256 480Z"/></svg>