<svg xmlns="http://www.w3.org/2000/svg" viewBox="0 0 512 512"><!-- Font Awesome Pro 6.0.0-alpha1 by @fontawesome - https://fontawesome.com License - https://fontawesome.com/license (Commercial License) --><path d="M360 128C356 128 352 132 352 136V355L158 131C156 128 152 127 149 129C146 130 144 133 144 136V376C144 380 148 384 152 384S160 380 160 376V157L354 381C355 383 358 384 360 384C361 384 362 384 363 383C366 382 368 379 368 376V136C368 132 364 128 360 128ZM256 16C123 16 16 123 16 256S123 496 256 496S496 389 496 256S389 16 256 16ZM256 480C132 480 32 380 32 256S132 32 256 32S480 132 480 256S380 480 256 480Z"/></svg>