<svg xmlns="http://www.w3.org/2000/svg" viewBox="0 0 512 512"><!-- Font Awesome Pro 6.0.0-alpha1 by @fontawesome - https://fontawesome.com License - https://fontawesome.com/license (Commercial License) --><path d="M256 16C123 16 16 123 16 256S123 496 256 496S496 389 496 256S389 16 256 16ZM256 480C132 480 32 380 32 256S132 32 256 32S480 132 480 256S380 480 256 480ZM362 170L224 309L150 234C147 231 141 231 138 234S135 243 138 246L218 326C220 327 222 328 224 328S228 327 230 326L374 182C377 179 377 173 374 170S365 167 362 170Z"/></svg>