<svg xmlns="http://www.w3.org/2000/svg" viewBox="0 0 512 512"><!-- Font Awesome Pro 6.0.0-alpha1 by @fontawesome - https://fontawesome.com License - https://fontawesome.com/license (Commercial License) --><path d="M256 16C123 16 16 123 16 256S123 496 256 496S496 389 496 256S389 16 256 16ZM256 480C132 480 32 380 32 256S132 32 256 32S480 132 480 256S380 480 256 480ZM144 160C140 160 136 164 136 168V344C136 348 140 352 144 352S152 348 152 344V168C152 164 148 160 144 160ZM208 208C204 208 200 212 200 216V296C200 300 204 304 208 304S216 300 216 296V216C216 212 212 208 208 208ZM272 128C268 128 264 132 264 136V376C264 380 268 384 272 384S280 380 280 376V136C280 132 276 128 272 128ZM336 176C332 176 328 180 328 184V328C328 332 332 336 336 336S344 332 344 328V184C344 180 340 176 336 176ZM400 216C396 216 392 220 392 224V288C392 292 396 296 400 296S408 292 408 288V224C408 220 404 216 400 216Z"/></svg>