<svg xmlns="http://www.w3.org/2000/svg" viewBox="0 0 512 512"><!-- Font Awesome Pro 6.0.0-alpha1 by @fontawesome - https://fontawesome.com License - https://fontawesome.com/license (Commercial License) --><path d="M256 16C123 16 16 123 16 256S123 496 256 496S496 389 496 256S389 16 256 16ZM256 480C132 480 32 380 32 256S132 32 256 32S480 132 480 256S380 480 256 480ZM391 200L309 188L272 114C269 107 262 104 256 104C250 104 243 107 240 114L203 188L121 200C106 203 100 221 111 231L170 289L156 371C154 383 164 392 174 392C177 392 180 391 182 390L256 351L330 390C332 391 335 392 338 392C348 392 358 383 356 371L342 289L401 231C412 221 406 203 391 200ZM390 220L331 278L325 284L326 292L340 375C339 376 339 376 338 376C338 376 337 376 337 376L263 337L256 333L249 337L174 376C173 376 173 376 172 374L186 292L187 284L181 278L122 220C122 219 121 219 121 218C122 216 123 216 123 216L205 204L214 203L217 196L254 121C254 121 255 120 256 120C257 120 258 121 258 121L295 196L298 203L307 204L389 216C389 216 390 216 391 218C391 219 390 219 390 220Z"/></svg>