<svg xmlns="http://www.w3.org/2000/svg" viewBox="0 0 512 512"><!-- Font Awesome Pro 6.0.0-alpha1 by @fontawesome - https://fontawesome.com License - https://fontawesome.com/license (Commercial License) --><path d="M288 128H184C180 128 176 132 176 136V376C176 380 180 384 184 384S192 380 192 376V320H288C341 320 384 277 384 224S341 128 288 128ZM288 304H192V144H288C332 144 368 180 368 224S332 304 288 304ZM256 16C123 16 16 123 16 256S123 496 256 496S496 389 496 256S389 16 256 16ZM256 480C132 480 32 380 32 256S132 32 256 32S480 132 480 256S380 480 256 480Z"/></svg>