<svg xmlns="http://www.w3.org/2000/svg" viewBox="0 0 512 512"><!-- Font Awesome Pro 6.0.0-alpha1 by @fontawesome - https://fontawesome.com License - https://fontawesome.com/license (Commercial License) --><path d="M240 352C231 352 224 359 224 368S231 384 240 384S256 377 256 368S249 352 240 352ZM289 128H223C188 128 160 156 160 191V202C160 206 164 210 168 210S176 206 176 202V191C176 165 197 144 223 144H289C315 144 336 165 336 191C336 209 327 224 312 233L246 266C236 271 230 281 230 292V312C230 316 234 320 238 320S246 316 246 312V292C246 287 249 282 253 280L319 247C339 236 352 214 352 191C352 156 324 128 289 128ZM256 16C123 16 16 123 16 256S123 496 256 496S496 389 496 256S389 16 256 16ZM256 480C132 480 32 380 32 256S132 32 256 32S480 132 480 256S380 480 256 480Z"/></svg>