<svg xmlns="http://www.w3.org/2000/svg" viewBox="0 0 512 512"><!-- Font Awesome Pro 6.0.0-alpha1 by @fontawesome - https://fontawesome.com License - https://fontawesome.com/license (Commercial License) --><path d="M273 122C268 118 262 115 256 115S244 118 239 122L146 215C131 230 142 256 163 256H208V360C208 373 219 384 232 384H280C293 384 304 373 304 360V256H349C370 256 381 230 366 215L273 122ZM356 235C355 237 354 240 349 240H288V360C288 364 284 368 280 368H232C228 368 224 364 224 360V240H163C158 240 157 237 156 235C155 234 154 230 158 226L250 134C252 132 255 131 256 131S260 132 262 134L354 226C358 230 357 234 356 235ZM256 16C123 16 16 123 16 256S123 496 256 496S496 389 496 256S389 16 256 16ZM256 480C132 480 32 380 32 256S132 32 256 32S480 132 480 256S380 480 256 480Z"/></svg>