<svg xmlns="http://www.w3.org/2000/svg" viewBox="0 0 512 512"><!-- Font Awesome Pro 6.0.0-alpha1 by @fontawesome - https://fontawesome.com License - https://fontawesome.com/license (Commercial License) --><path d="M256 128C185 128 128 185 128 256S185 384 256 384S384 327 384 256S327 128 256 128ZM256 368C194 368 144 318 144 256S194 144 256 144S368 194 368 256S318 368 256 368ZM256 16C123 16 16 123 16 256S123 496 256 496S496 389 496 256S389 16 256 16ZM256 480C132 480 32 380 32 256S132 32 256 32S480 132 480 256S380 480 256 480Z"/></svg>