<svg xmlns="http://www.w3.org/2000/svg" viewBox="0 0 512 512"><!--! Font Awesome Pro 6.0.0 by @fontawesome - https://fontawesome.com License - https://fontawesome.com/license (Commercial License) Copyright 2022 Fonticons, Inc. --><path d="M224.1 .2176C241.6-1.965 256 12.57 256 30.24V254.2H480C497.7 254.2 512.2 268.6 510 286.2C494.3 412.5 386.6 510.2 256 510.2C114.6 510.2 0 395.6 0 254.2C0 123.7 97.75 15.94 224.1 .2176V.2176zM240 270.2V30.24C240 20.8 232.7 15.27 226 16.1C107.6 30.83 16 131.8 16 254.2C16 386.8 123.5 494.2 256 494.2C378.4 494.2 479.4 402.6 494.2 284.2C494.1 277.5 489.4 270.2 480 270.2H240z"/></svg>