<svg xmlns="http://www.w3.org/2000/svg" viewBox="0 0 512 512"><!-- Font Awesome Pro 6.0.0-alpha1 by @fontawesome - https://fontawesome.com License - https://fontawesome.com/license (Commercial License) --><path d="M350 162C347 159 341 159 338 162L256 245L174 162C171 159 165 159 162 162S159 171 162 174L245 256L162 338C159 341 159 347 162 350C164 351 166 352 168 352S172 351 174 350L256 267L338 350C340 351 342 352 344 352S348 351 350 350C353 347 353 341 350 338L267 256L350 174C353 171 353 165 350 162ZM256 16C123 16 16 123 16 256S123 496 256 496S496 389 496 256S389 16 256 16ZM256 480C132 480 32 380 32 256S132 32 256 32S480 132 480 256S380 480 256 480Z"/></svg>