<svg xmlns="http://www.w3.org/2000/svg" viewBox="0 0 512 512"><!-- Font Awesome Pro 6.0.0-alpha1 by @fontawesome - https://fontawesome.com License - https://fontawesome.com/license (Commercial License) --><path d="M256 352C247 352 240 359 240 368S247 384 256 384S272 377 272 368S265 352 256 352ZM256 304C260 304 264 300 264 296V120C264 116 260 112 256 112S248 116 248 120V296C248 300 252 304 256 304ZM256 16C123 16 16 123 16 256S123 496 256 496S496 389 496 256S389 16 256 16ZM256 480C132 480 32 380 32 256S132 32 256 32S480 132 480 256S380 480 256 480Z"/></svg>