<svg xmlns="http://www.w3.org/2000/svg" viewBox="0 0 512 512"><!-- Font Awesome Pro 6.0.0-alpha1 by @fontawesome - https://fontawesome.com License - https://fontawesome.com/license (Commercial License) --><path d="M256 496C389 496 496 389 496 256S389 16 256 16S16 123 16 256S123 496 256 496ZM256 32C380 32 480 132 480 256S380 480 256 480S32 380 32 256S132 32 256 32ZM250 341C253 345 259 345 262 341L374 221C377 218 377 213 373 210C370 207 365 207 362 211L256 324L150 211C148 209 146 208 144 208C142 208 140 209 139 210C135 213 135 218 138 221L250 341Z"/></svg>