<svg xmlns="http://www.w3.org/2000/svg" viewBox="0 0 512 512"><!-- Font Awesome Pro 6.0.0-alpha1 by @fontawesome - https://fontawesome.com License - https://fontawesome.com/license (Commercial License) --><path d="M256 16C123 16 16 123 16 256S123 496 256 496S496 389 496 256S389 16 256 16ZM256 480C132 480 32 380 32 256S132 32 256 32S480 132 480 256S380 480 256 480ZM278 170C272 164 264 160 256 160S240 164 234 170L145 272C137 281 136 293 140 303C145 313 155 320 166 320H346C357 320 367 313 372 303C376 293 375 281 367 272L278 170ZM357 297C355 301 351 304 346 304H166C161 304 157 301 155 297C153 292 153 287 157 283L246 180C249 178 252 176 256 176S263 178 266 180L355 283C359 287 359 292 357 297Z"/></svg>