<svg xmlns="http://www.w3.org/2000/svg" viewBox="0 0 512 512"><!-- Font Awesome Pro 6.0.0-alpha1 by @fontawesome - https://fontawesome.com License - https://fontawesome.com/license (Commercial License) --><path d="M280 128H168C164 128 160 132 160 136V376C160 380 164 384 168 384S176 380 176 376V304H280C329 304 368 265 368 216S329 128 280 128ZM280 288H176V144H280C320 144 352 176 352 216S320 288 280 288ZM256 16C123 16 16 123 16 256S123 496 256 496S496 389 496 256S389 16 256 16ZM256 480C132 480 32 380 32 256S132 32 256 32S480 132 480 256S380 480 256 480Z"/></svg>