<svg xmlns="http://www.w3.org/2000/svg" viewBox="0 0 512 512"><!-- Font Awesome Pro 6.0.0-alpha1 by @fontawesome - https://fontawesome.com License - https://fontawesome.com/license (Commercial License) --><path d="M280 240H221L333 142C336 140 337 136 335 133S331 128 328 128H168C164 128 160 132 160 136S164 144 168 144H307L195 242C192 244 191 248 193 251S197 256 200 256H280C311 256 336 281 336 312S311 368 280 368H212C196 368 181 357 176 341C174 337 170 335 165 336C161 338 159 342 160 346C168 369 189 384 212 384H280C320 384 352 352 352 312S320 240 280 240ZM256 16C123 16 16 123 16 256S123 496 256 496S496 389 496 256S389 16 256 16ZM256 480C132 480 32 380 32 256S132 32 256 32S480 132 480 256S380 480 256 480Z"/></svg>