<svg xmlns="http://www.w3.org/2000/svg" viewBox="0 0 640 512"><!-- Font Awesome Pro 6.0.0-alpha1 by @fontawesome - https://fontawesome.com License - https://fontawesome.com/license (Commercial License) --><path d="M320 16C187 16 80 123 80 256S187 496 320 496S560 389 560 256S453 16 320 16ZM320 480C196 480 96 380 96 256S196 32 320 32S544 132 544 256S444 480 320 480ZM408 128C404 128 400 132 400 136V248H240V136C240 132 236 128 232 128S224 132 224 136V376C224 380 228 384 232 384S240 380 240 376V264H400V376C400 380 404 384 408 384S416 380 416 376V136C416 132 412 128 408 128Z"/></svg>