<svg xmlns="http://www.w3.org/2000/svg" viewBox="0 0 512 512"><!-- Font Awesome Pro 6.0.0-alpha1 by @fontawesome - https://fontawesome.com License - https://fontawesome.com/license (Commercial License) --><path d="M307 245C324 234 336 214 336 192C336 157 307 128 272 128H240C205 128 176 157 176 192C176 214 188 234 205 245C179 256 160 282 160 312C160 352 192 384 232 384H280C320 384 352 352 352 312C352 282 333 256 307 245ZM192 192C192 166 214 144 240 144H272C298 144 320 166 320 192S298 240 272 240H240C214 240 192 218 192 192ZM280 368H232C201 368 176 343 176 312S201 256 232 256H280C311 256 336 281 336 312S311 368 280 368ZM256 16C123 16 16 123 16 256S123 496 256 496S496 389 496 256S389 16 256 16ZM256 480C132 480 32 380 32 256S132 32 256 32S480 132 480 256S380 480 256 480Z"/></svg>