<svg xmlns="http://www.w3.org/2000/svg" viewBox="0 0 640 512"><!-- Font Awesome Pro 6.0.0-alpha1 by @fontawesome - https://fontawesome.com License - https://fontawesome.com/license (Commercial License) --><path d="M632 130C629 129 627 128 624 128C621 128 618 129 615 131L571 160H480V112H504C508 112 512 108 512 104S508 96 504 96H232C228 96 224 100 224 104S228 112 232 112H272V160H101C98 160 94 161 91 162L11 188C4 190 0 197 0 203V276C0 283 4 289 11 292L91 318C94 319 98 320 101 320H571L615 349C618 351 621 352 624 352C627 352 629 351 632 350C637 347 640 342 640 336V144C640 138 637 133 632 130ZM384 112H464V160H384V112ZM288 112H368V160H288V112ZM624 336L580 307L576 304H101C99 304 98 304 96 303L16 277L16 204L96 177C98 176 99 176 101 176H576L624 144V336ZM272 224C263 224 256 231 256 240C256 249 263 256 272 256S288 249 288 240C288 231 281 224 272 224ZM368 224C359 224 352 231 352 240C352 249 359 256 368 256S384 249 384 240C384 231 377 224 368 224ZM464 224C455 224 448 231 448 240C448 249 455 256 464 256S480 249 480 240C480 231 473 224 464 224Z"/></svg>