<svg xmlns="http://www.w3.org/2000/svg" viewBox="0 0 512 512"><!-- Font Awesome Pro 6.0.0-alpha1 by @fontawesome - https://fontawesome.com License - https://fontawesome.com/license (Commercial License) --><path d="M249 27C253 32 256 38 256 44V96H308C314 96 320 99 325 103L377 155C381 160 384 166 384 172V224H436C442 224 448 227 452 231L498 285C499 287 502 288 504 288C506 288 508 287 509 286C513 283 513 278 510 275L464 220C456 212 446 208 436 208H400V172C400 162 396 152 388 144L336 92C328 84 318 80 308 80H272V44C272 34 268 24 259 15L236 1C232 -1 227 0 225 4C223 8 224 13 228 15L249 27ZM510 498L427 412C419 404 409 400 398 400H368V370C368 359 364 349 356 342L267 252C259 244 249 240 238 240H208V210C208 199 204 189 196 181L14 2C10 -1 5 -1 2 2C-1 6 -1 11 2 14L185 193C189 197 192 203 192 210V256H238C245 256 251 258 255 263L345 353C349 357 352 363 352 370V416H398C405 416 411 418 415 423L498 510C500 511 502 512 504 512C506 512 508 511 510 510C513 507 513 502 510 498ZM176 380C168 372 158 368 148 368H112V332C112 322 108 312 100 304L13 226C10 223 5 223 2 227C-1 230 -1 235 3 238L89 315C93 320 96 326 96 332V384H148C154 384 160 386 164 391L274 509C276 511 278 512 280 512C282 512 284 511 285 510C289 507 289 502 286 499L176 380Z"/></svg>