<svg xmlns="http://www.w3.org/2000/svg" viewBox="0 0 384 512"><!-- Font Awesome Pro 6.0.0-alpha1 by @fontawesome - https://fontawesome.com License - https://fontawesome.com/license (Commercial License) --><path d="M192 96C201 96 208 89 208 80C208 71 201 64 192 64S176 71 176 80C176 89 183 96 192 96ZM96 160H288C306 160 320 146 320 128V114C320 86 298 64 270 64H270C263 27 231 0 192 0S121 27 114 64H114C86 64 64 86 64 114V128C64 146 78 160 96 160ZM80 114C80 95 95 80 114 80H127L129 71C134 46 151 25 175 18C212 8 248 32 255 67L257 80H270C289 80 304 95 304 114V128C304 137 297 144 288 144H96C87 144 80 137 80 128V114ZM355 100C351 98 346 100 345 104C343 108 345 113 349 115C360 120 368 131 368 144V464C368 482 354 496 336 496H48C30 496 16 482 16 464V144C16 131 24 120 35 115C39 113 41 108 39 104C38 100 33 98 29 100C11 108 0 125 0 144V464C0 490 22 512 48 512H336C362 512 384 490 384 464V144C384 125 373 108 355 100Z"/></svg>