<svg xmlns="http://www.w3.org/2000/svg" viewBox="0 0 512 512"><!-- Font Awesome Pro 6.0.0-alpha1 by @fontawesome - https://fontawesome.com License - https://fontawesome.com/license (Commercial License) --><path d="M256 24C161 24 75 84 41 172L21 72C20 67 16 65 11 65C7 66 4 70 5 75L30 200C31 204 34 207 38 207C39 207 39 207 40 207L165 182C170 181 172 176 171 172C171 168 166 165 162 166L52 188C81 101 164 40 256 40C375 40 472 137 472 256S375 472 256 472C212 472 169 459 133 433C129 431 124 432 122 435C119 439 120 444 124 446C163 474 209 488 256 488C384 488 488 384 488 256S384 24 256 24ZM256 128C252 128 248 132 248 136V256C248 258 249 260 251 262L339 350C340 351 342 352 344 352S348 351 350 350C353 347 353 341 350 338L264 253V136C264 132 261 128 256 128Z"/></svg>