<svg xmlns="http://www.w3.org/2000/svg" viewBox="0 0 512 512"><!-- Font Awesome Pro 6.0.0-alpha1 by @fontawesome - https://fontawesome.com License - https://fontawesome.com/license (Commercial License) --><path d="M456 0H216C185 0 160 25 160 56V296C160 327 185 352 216 352H456C487 352 512 327 512 296V56C512 25 487 0 456 0ZM496 296C496 318 478 336 456 336H216C194 336 176 318 176 296V56C176 34 194 16 216 16H456C478 16 496 34 496 56V296ZM344 384C340 384 336 388 336 392V456C336 478 318 496 296 496H56C34 496 16 478 16 456V216C16 194 34 176 56 176H120C124 176 128 172 128 168S124 160 120 160H56C25 160 0 185 0 216V456C0 487 25 512 56 512H296C327 512 352 487 352 456V392C352 388 348 384 344 384Z"/></svg>