<svg xmlns="http://www.w3.org/2000/svg" viewBox="0 0 512 512"><!-- Font Awesome Pro 6.0.0-alpha1 by @fontawesome - https://fontawesome.com License - https://fontawesome.com/license (Commercial License) --><path d="M65 372L1 500C-1 504 0 509 4 511C6 512 7 512 8 512C11 512 14 510 15 508L79 380C81 376 80 371 76 369C72 367 67 368 65 372ZM231 384C229 380 224 379 220 381L184 402V360C184 356 180 352 176 352S168 356 168 360V402L131 381C127 379 122 380 120 384C118 388 119 393 123 395L160 416L123 437C119 439 118 444 120 448C122 451 124 452 127 452C128 452 130 452 131 451L168 430V472C168 476 171 480 176 480S184 476 184 472V430L220 451C221 452 223 452 224 452C227 452 229 451 231 448C233 444 232 439 228 437L192 416L228 395C232 393 233 388 231 384ZM321 372L257 500C255 504 256 509 260 511C262 512 263 512 264 512C267 512 270 510 271 508L335 380C337 376 336 371 332 369C328 367 323 368 321 372ZM487 384C485 380 480 379 476 381L440 402V360C440 356 436 352 432 352S424 356 424 360V402L387 381C383 379 378 380 376 384C374 388 375 393 379 395L416 416L379 437C375 439 374 444 376 448C378 451 380 452 383 452C384 452 386 452 387 451L424 430V472C424 476 427 480 432 480S440 476 440 472V430L476 451C477 452 479 452 480 452C483 452 485 451 487 448C489 444 488 439 484 437L448 416L484 395C488 393 489 388 487 384ZM512 224C512 171 469 128 416 128C415 128 415 128 414 128C416 123 416 118 416 112C416 68 380 32 336 32C311 32 290 43 275 61C256 25 219 0 176 0C114 0 64 50 64 112C64 119 65 126 66 133C28 146 0 182 0 224C0 277 43 320 96 320H416C469 320 512 277 512 224ZM16 224C16 190 38 159 71 148L85 144L82 130C81 124 80 118 80 112C80 59 123 16 176 16C212 16 244 36 261 68L272 89L287 71C300 56 317 48 336 48C371 48 400 77 400 112C400 117 400 121 399 125L395 144H414C415 144 416 144 417 144C461 145 496 180 496 224C496 268 460 304 416 304H96C52 304 16 268 16 224Z"/></svg>