<svg xmlns="http://www.w3.org/2000/svg" viewBox="0 0 640 512"><!-- Font Awesome Pro 6.0.0-alpha1 by @fontawesome - https://fontawesome.com License - https://fontawesome.com/license (Commercial License) --><path d="M160 320H480C533 320 576 277 576 224S533 128 480 128C479 128 479 128 478 128C479 123 480 118 480 112C480 68 444 32 400 32C375 32 354 43 339 61C320 25 283 0 240 0C178 0 128 50 128 112C128 119 129 126 130 133C92 146 64 182 64 224C64 277 107 320 160 320ZM135 148L149 144L146 130C145 124 144 118 144 112C144 59 187 16 240 16C276 16 308 36 325 68L336 89L351 71C364 56 381 48 400 48C435 48 464 77 464 112C464 117 464 121 463 125L459 144H478C479 144 480 144 481 144C525 145 560 180 560 224C560 268 524 304 480 304H160C116 304 80 268 80 224C80 190 102 159 135 148ZM576 408C576 404 572 400 568 400H8C4 400 0 404 0 408S4 416 8 416H568C572 416 576 412 576 408ZM632 496H296C292 496 288 500 288 504S292 512 296 512H632C636 512 640 508 640 504S636 496 632 496ZM216 496H72C68 496 64 500 64 504S68 512 72 512H216C220 512 224 508 224 504S220 496 216 496Z"/></svg>