<svg xmlns="http://www.w3.org/2000/svg" viewBox="0 0 512 512"><!-- Font Awesome Pro 6.0.0-alpha1 by @fontawesome - https://fontawesome.com License - https://fontawesome.com/license (Commercial License) --><path d="M96 368C93 368 89 370 88 374C75 419 48 431 48 462C48 490 70 512 96 512S144 490 144 462C144 431 117 419 104 374C103 370 99 368 96 368ZM128 462C128 481 114 496 96 496S64 481 64 462C64 451 69 443 78 430C83 422 90 412 96 399C102 412 109 422 114 430C123 443 128 451 128 462ZM416 368C413 368 409 370 408 374C395 419 368 431 368 462C368 490 390 512 416 512S464 490 464 462C464 431 437 419 424 374C423 370 419 368 416 368ZM448 462C448 481 434 496 416 496S384 481 384 462C384 451 389 443 398 430C403 422 410 412 416 399C422 412 429 422 434 430C443 443 448 451 448 462ZM256 368C253 368 249 370 248 374C235 419 208 431 208 462C208 490 230 512 256 512S304 490 304 462C304 431 277 419 264 374C263 370 259 368 256 368ZM288 462C288 481 274 496 256 496S224 481 224 462C224 451 229 443 238 430C243 422 250 412 256 399C262 412 269 422 274 430C283 443 288 451 288 462ZM416 128C415 128 415 128 414 128C415 123 416 118 416 112C416 68 380 32 336 32C311 32 290 43 275 61C256 25 219 0 176 0C114 0 64 50 64 112C64 119 65 126 66 133C28 146 0 182 0 224C0 277 43 320 96 320H416C469 320 512 277 512 224S469 128 416 128ZM416 304H96C52 304 16 268 16 224C16 190 38 159 71 148L85 144L82 130C81 124 80 118 80 112C80 59 123 16 176 16C212 16 244 36 261 68L272 89L287 71C300 56 317 48 336 48C371 48 400 77 400 112C400 117 400 121 399 125L395 144H414C415 144 416 144 417 144C461 145 496 180 496 224C496 268 460 304 416 304Z"/></svg>