<svg xmlns="http://www.w3.org/2000/svg" viewBox="0 0 512 512"><!-- Font Awesome Pro 6.0.0-alpha1 by @fontawesome - https://fontawesome.com License - https://fontawesome.com/license (Commercial License) --><path d="M177 372L97 500C95 503 96 508 100 511C101 512 103 512 104 512C107 512 109 511 111 508L191 380C193 376 192 372 188 369C185 367 180 368 177 372ZM32 448C14 448 0 462 0 480S14 512 32 512S64 498 64 480S50 448 32 448ZM32 496C23 496 16 489 16 480C16 471 23 464 32 464S48 471 48 480C48 489 41 496 32 496ZM81 372L56 412C54 416 55 420 59 423C60 424 62 424 63 424C66 424 68 423 70 420L95 380C97 376 96 372 92 369C89 367 84 368 81 372ZM369 372L289 500C287 504 288 508 292 511C293 512 295 512 296 512C299 512 301 511 303 508L383 380C385 376 384 372 380 369C377 367 372 368 369 372ZM465 372L441 410C439 414 440 419 444 421C445 422 447 422 448 422C451 422 453 421 455 419L479 380C481 376 480 372 476 369C473 367 468 368 465 372ZM224 448C206 448 192 462 192 480S206 512 224 512S256 498 256 480S242 448 224 448ZM224 496C215 496 208 489 208 480C208 471 215 464 224 464S240 471 240 480C240 489 233 496 224 496ZM416 448C398 448 384 462 384 480S398 512 416 512S448 498 448 480S434 448 416 448ZM416 496C407 496 400 489 400 480C400 471 407 464 416 464S432 471 432 480C432 489 425 496 416 496ZM273 372L249 410C247 414 248 419 252 421C253 422 255 422 256 422C259 422 261 421 263 419L287 380C289 376 288 372 284 369C281 367 276 368 273 372ZM416 128C415 128 415 128 414 128C415 123 416 118 416 112C416 68 380 32 336 32C311 32 290 43 275 61C256 25 219 0 176 0C114 0 64 50 64 112C64 119 65 126 66 133C28 146 0 182 0 224C0 277 43 320 96 320H416C469 320 512 277 512 224S469 128 416 128ZM416 304H96C52 304 16 268 16 224C16 190 38 159 71 148L85 144L82 130C81 124 80 118 80 112C80 59 123 16 176 16C212 16 244 36 261 68L272 89L287 71C300 56 317 48 336 48C371 48 400 77 400 112C400 117 400 121 399 125L395 144H414C415 144 416 144 417 144C461 145 496 180 496 224C496 268 460 304 416 304Z"/></svg>