<svg xmlns="http://www.w3.org/2000/svg" viewBox="0 0 512 512"><!-- Font Awesome Pro 6.0.0-alpha1 by @fontawesome - https://fontawesome.com License - https://fontawesome.com/license (Commercial License) --><path d="M419 125C419 123 419 120 419 117C419 70 381 31 334 31C312 31 292 39 276 54C255 20 218 0 178 0C114 0 62 53 62 117C62 122 62 127 63 133C25 148 0 185 0 226C0 282 45 328 101 328H128C133 328 136 324 136 320S133 312 128 312H101C54 312 16 274 16 226C16 190 40 157 75 146L81 143L80 136C79 130 78 123 78 117C78 61 123 16 179 16C216 16 250 37 267 71L273 82L281 72C294 56 313 47 334 47C372 47 403 79 403 117C403 122 403 127 402 131L401 141H411C458 141 496 179 496 226S458 312 411 312H352C348 312 344 316 344 320S348 328 352 328H411C467 328 512 282 512 226C512 173 471 130 419 125ZM304 344H191L287 205C289 201 288 196 285 193C281 191 276 192 273 195L169 347C168 350 168 353 169 356C170 358 173 360 176 360H289L193 499C191 503 192 508 195 511C197 512 198 512 200 512C203 512 205 511 207 509L311 357C312 354 312 351 311 348C310 346 307 344 304 344Z"/></svg>