<svg xmlns="http://www.w3.org/2000/svg" viewBox="0 0 640 512"><!-- Font Awesome Pro 6.0.0-alpha1 by @fontawesome - https://fontawesome.com License - https://fontawesome.com/license (Commercial License) --><path d="M155 280C155 276 151 272 147 272H101C54 272 16 235 16 189S54 107 100 107L109 107L110 100C117 52 159 16 209 16C250 16 287 42 302 80L305 87L313 84C324 79 336 76 347 76C394 76 432 114 432 159C432 165 431 170 430 177C428 181 431 186 435 187C440 188 444 185 445 181C447 173 448 166 448 159C448 105 403 60 347 60C336 60 325 62 314 66C295 26 254 0 209 0C154 0 106 39 95 91C42 93 0 137 0 189C0 244 45 288 101 288H147C151 288 155 284 155 280ZM544 320C543 320 543 320 542 320C543 315 544 310 544 304C544 260 508 224 464 224C439 224 418 235 403 253C384 217 347 192 304 192C242 192 192 242 192 304C192 311 193 318 194 325C156 338 128 374 128 416C128 469 171 512 224 512H544C597 512 640 469 640 416S597 320 544 320ZM544 496H224C180 496 144 460 144 416C144 382 166 351 199 340L213 336L210 322C209 316 208 310 208 304C208 251 251 208 304 208C340 208 372 228 389 260L400 281L415 263C428 248 445 240 464 240C499 240 528 269 528 304C528 309 528 313 527 317L523 336H542C543 336 544 336 545 336C589 337 624 372 624 416C624 460 588 496 544 496Z"/></svg>