<svg xmlns="http://www.w3.org/2000/svg" viewBox="0 0 576 512"><!-- Font Awesome Pro 6.0.0-alpha1 by @fontawesome - https://fontawesome.com License - https://fontawesome.com/license (Commercial License) --><path d="M80 352C54 352 32 374 32 400S54 448 80 448S128 426 128 400S107 352 80 352ZM80 432C62 432 48 418 48 400S62 368 80 368S112 382 112 400S98 432 80 432ZM496 352C470 352 448 374 448 400S470 448 496 448S544 426 544 400S523 352 496 352ZM496 432C478 432 464 418 464 400S478 368 496 368S528 382 528 400S514 432 496 432ZM377 363C382 349 379 332 367 321C359 313 349 309 338 309C334 309 329 310 325 311C318 297 304 288 288 288S258 297 251 311C247 310 242 309 238 309C227 309 217 313 209 321C197 332 194 349 199 363C185 370 176 384 176 400S185 430 199 437C194 451 197 468 209 479C217 487 228 491 239 491C243 491 247 490 251 489C258 502 272 512 288 512S318 502 325 489C329 490 333 491 338 491C348 491 359 487 367 479C379 468 382 451 377 437C391 430 400 416 400 400S391 370 377 363ZM370 423C363 426 359 434 362 442C365 451 363 461 356 468C343 481 331 473 325 473C319 473 314 476 311 482C306 491 298 496 288 496S270 491 265 482C263 476 257 473 251 473C246 473 233 481 220 468C213 461 211 451 214 442C216 434 213 426 206 423C197 418 192 410 192 400C192 390 197 382 206 377C213 374 216 366 214 358C211 349 213 339 220 332C232 320 247 327 251 327C257 327 263 324 265 318C270 309 278 304 288 304S306 309 311 318C313 324 319 327 325 327C329 327 344 320 356 332C363 339 365 349 362 358C359 366 363 374 370 377C379 382 384 390 384 400C384 410 379 418 370 423ZM544 226C545 172 502 128 448 128C447 128 447 128 446 128C447 123 448 118 448 112C448 77 426 46 393 36C358 25 327 38 307 61C286 20 242 -6 192 1C140 9 100 52 96 104C96 114 96 124 98 133C59 146 31 183 32 227C34 279 79 320 131 320H152C156 320 160 316 160 312S156 304 152 304H130C92 304 57 277 49 239C42 199 65 161 103 148L117 144L114 130C113 124 112 118 112 112C112 72 137 35 175 22C222 5 271 26 293 68L304 89L319 71C334 54 355 45 378 49C411 54 434 84 432 117C432 120 431 122 431 125L427 144H446C447 144 448 144 449 144C495 145 531 184 528 230C525 272 488 304 445 304H424C420 304 416 308 416 312S420 320 424 320H445C498 320 543 279 544 226Z"/></svg>