<svg xmlns="http://www.w3.org/2000/svg" viewBox="0 0 640 512"><!-- Font Awesome Pro 6.0.0-alpha1 by @fontawesome - https://fontawesome.com License - https://fontawesome.com/license (Commercial License) --><path d="M186 304C189 304 192 301 192 298C195 294 192 291 189 288C160 275 144 250 144 221C144 179 179 144 221 144C246 144 269 157 282 176C285 179 288 182 294 179S298 173 298 170C278 144 250 128 221 128C170 128 128 170 128 221C128 256 150 288 182 304C182 304 182 304 186 304ZM138 355L86 371C83 371 80 371 80 368C80 368 77 365 80 362L112 269L19 230C16 227 16 224 16 224S16 221 19 218L106 176L74 86C74 83 74 80 77 80C77 80 80 77 83 77L176 109L218 22C221 16 224 16 224 16H224C224 16 227 16 230 19L272 106L365 74C368 74 371 74 371 77C371 77 374 80 374 83L352 150C352 154 352 160 358 160C362 160 368 160 368 154L390 86C394 77 390 70 384 64C378 58 368 54 362 58L282 86L243 13C240 3 234 0 224 0C224 0 224 0 224 0C214 0 208 3 205 13L166 86L90 61C80 58 70 61 64 64C61 70 58 80 61 90L86 166L13 205C3 208 0 214 0 224S3 240 13 243L86 282L61 358C58 368 61 374 67 381C70 384 77 387 83 387C86 387 90 387 90 387L141 371C144 371 147 365 147 362C144 355 141 355 138 355ZM576 326C579 266 525 256 512 256C499 256 486 259 477 266C458 227 419 198 374 198C352 198 259 218 266 320C214 323 176 365 176 416C176 470 218 512 272 512H544C598 512 640 470 640 416C640 374 611 339 576 326ZM544 496H272C227 496 192 461 192 416C192 374 224 339 266 336L282 336C282 336 282 314 282 314C282 259 323 218 378 218C416 218 448 240 464 275L470 288C496 272 499 272 512 272C538 272 560 294 560 320C560 320 560 336 560 336L573 339C605 352 627 381 627 416C624 461 589 496 544 496Z "></path></svg>