<svg xmlns="http://www.w3.org/2000/svg" viewBox="0 0 512 512"><!-- Font Awesome Pro 6.0.0-alpha1 by @fontawesome - https://fontawesome.com License - https://fontawesome.com/license (Commercial License) --><path d="M384 352C366 352 352 366 352 384S366 416 384 416S416 402 416 384S402 352 384 352ZM384 400C375 400 368 393 368 384C368 375 375 368 384 368S400 375 400 384C400 393 393 400 384 400ZM192 448C174 448 160 462 160 480S174 512 192 512S224 498 224 480S210 448 192 448ZM192 496C183 496 176 489 176 480C176 471 183 464 192 464S208 471 208 480C208 489 201 496 192 496ZM320 448C302 448 288 462 288 480S302 512 320 512S352 498 352 480S338 448 320 448ZM320 496C311 496 304 489 304 480C304 471 311 464 320 464S336 471 336 480C336 489 329 496 320 496ZM256 352C238 352 224 366 224 384S238 416 256 416S288 402 288 384S274 352 256 352ZM256 400C247 400 240 393 240 384C240 375 247 368 256 368S272 375 272 384C272 393 265 400 256 400ZM64 448C46 448 32 462 32 480S46 512 64 512S96 498 96 480S82 448 64 448ZM64 496C55 496 48 489 48 480C48 471 55 464 64 464S80 471 80 480C80 489 73 496 64 496ZM128 352C110 352 96 366 96 384S110 416 128 416S160 402 160 384S146 352 128 352ZM128 400C119 400 112 393 112 384C112 375 119 368 128 368S144 375 144 384C144 393 137 400 128 400ZM416 128C415 128 415 128 414 128C415 123 416 118 416 112C416 68 380 32 336 32C311 32 290 43 275 61C256 25 219 0 176 0C114 0 64 50 64 112C64 119 65 126 66 133C28 146 0 182 0 224C0 277 43 320 96 320H416C469 320 512 277 512 224S469 128 416 128ZM416 304H96C52 304 16 268 16 224C16 190 38 159 71 148L85 144L82 130C81 124 80 118 80 112C80 59 123 16 176 16C212 16 244 36 261 68L272 89L287 71C300 56 317 48 336 48C371 48 400 77 400 112C400 117 400 121 399 125L395 144H414C415 144 416 144 417 144C461 145 496 180 496 224C496 268 460 304 416 304Z"/></svg>