<svg xmlns="http://www.w3.org/2000/svg" viewBox="0 0 640 512"><!-- Font Awesome Pro 6.0.0-alpha1 by @fontawesome - https://fontawesome.com License - https://fontawesome.com/license (Commercial License) --><path d="M538 227C542 216 544 204 544 192C544 139 501 96 448 96C428 96 410 102 395 112C367 64 315 32 256 32C168 32 96 104 96 192C96 195 96 197 96 200C40 220 0 273 0 336C0 415 65 480 144 480H512C583 480 640 423 640 352C640 290 596 238 538 227ZM512 464H144C73 464 16 407 16 336C16 282 50 233 102 215L113 211L112 200C112 197 112 195 112 192C112 113 177 48 256 48C307 48 355 76 381 120L389 135L404 125C417 117 432 112 448 112C492 112 528 148 528 192C528 202 526 212 523 221L516 239L534 242C586 253 624 299 624 352C624 414 574 464 512 464ZM288 312C288 308 284 304 280 304H136C132 304 128 308 128 312S132 320 136 320H280C284 320 288 316 288 312ZM216 368H168C164 368 160 372 160 376S164 384 168 384H216C220 384 224 380 224 376S220 368 216 368ZM472 368H424C420 368 416 372 416 376S420 384 424 384H472C476 384 480 380 480 376S476 368 472 368ZM376 368H264C260 368 256 372 256 376S260 384 264 384H376C380 384 384 380 384 376S380 368 376 368ZM504 304H328C324 304 320 308 320 312S324 320 328 320H504C508 320 512 316 512 312S508 304 504 304Z"/></svg>