<svg xmlns="http://www.w3.org/2000/svg" viewBox="0 0 512 512"><!-- Font Awesome Pro 6.0.0-alpha1 by @fontawesome - https://fontawesome.com License - https://fontawesome.com/license (Commercial License) --><path d="M311 416C309 412 304 411 300 413L264 434V392C264 388 260 384 256 384S248 388 248 392V434L211 413C208 411 203 412 201 416C198 420 200 425 204 427L240 448L203 469C200 471 198 476 201 480C202 483 205 484 208 484C209 484 210 484 212 483L248 462V504C248 508 252 512 256 512S264 508 264 504V462L301 483C302 484 303 484 305 484C307 484 310 483 311 480C314 476 312 471 309 469L272 448L309 427C312 425 314 420 311 416ZM503 384C501 380 496 379 492 381L455 402V360C455 356 452 352 447 352S439 356 439 360V402L403 381C399 379 394 380 392 384C390 388 391 393 395 395L432 416L395 437C391 439 390 444 392 448C394 451 396 452 399 452C400 452 402 452 403 451L440 430V472C440 476 443 480 448 480S456 476 456 472V430L492 451C493 452 495 452 496 452C499 452 501 451 503 448C505 444 504 439 500 437L463 416L500 395C504 393 505 388 503 384ZM120 384C118 380 113 379 109 381L72 402V360C72 356 69 352 64 352S56 356 56 360V402L20 381C16 379 11 380 9 384C7 388 8 393 12 395L49 416L12 437C8 439 7 444 9 448C11 451 13 452 16 452C17 452 19 452 20 451L57 430V472C57 476 60 480 65 480S73 476 73 472V430L109 451C110 452 112 452 113 452C116 452 118 451 120 448C122 444 121 439 117 437L80 416L117 395C121 393 122 388 120 384ZM96 320H416C469 320 512 277 512 224S469 128 416 128C415 128 415 128 414 128C415 123 416 118 416 112C416 68 380 32 336 32C311 32 290 43 275 61C256 25 219 0 176 0C114 0 64 50 64 112C64 119 65 126 66 133C28 146 0 182 0 224C0 277 43 320 96 320ZM71 148L85 144L82 130C81 124 80 118 80 112C80 59 123 16 176 16C212 16 244 36 261 68L272 89L287 71C300 56 317 48 336 48C371 48 400 77 400 112C400 117 400 121 399 125L395 144C395 144 416 144 417 144C461 145 496 180 496 224C496 268 460 304 416 304H96C52 304 16 268 16 224C16 190 38 159 71 148Z"/></svg>