<svg xmlns="http://www.w3.org/2000/svg" viewBox="0 0 576 512"><!-- Font Awesome Pro 6.0.0-alpha1 by @fontawesome - https://fontawesome.com License - https://fontawesome.com/license (Commercial License) --><path d="M574 219C571 213 565 210 559 212C530 217 499 209 477 190C454 172 441 144 441 115C441 79 460 47 491 29C496 26 499 20 498 14C497 8 493 3 487 2C478 1 469 0 460 0C383 0 319 61 316 138C315 142 319 146 323 146C328 146 331 143 332 139C335 70 391 16 460 16C467 16 473 16 479 17C446 38 425 75 425 115C425 149 440 181 466 203C492 224 526 233 558 227C556 229 517 279 446 271C442 270 438 273 438 278C437 282 440 286 445 286C452 287 456 288 460 288C504 288 545 269 572 235C576 230 577 224 574 219ZM352 219C343 180 309 152 270 152C259 152 249 154 239 158C220 134 192 120 162 120C109 120 65 163 62 219C26 230 0 264 0 304C0 353 38 392 85 392C89 392 93 388 93 384S89 376 85 376C47 376 16 344 16 304C16 270 39 240 71 233L78 230V224C78 175 115 136 162 136C194 136 216 153 234 178C255 168 263 168 270 168C282 168 328 173 338 232L344 233C376 240 400 269 400 304C400 344 369 376 331 376H302C298 376 294 380 294 384S298 392 302 392H331C378 392 416 353 416 304C416 263 389 228 352 219ZM248 368H150L223 252C225 248 224 244 220 241C217 239 212 240 209 244L129 372C128 374 128 377 129 380S133 384 136 384H234L161 500C159 503 160 508 164 511C165 512 167 512 168 512C171 512 173 511 175 508L255 380C256 378 256 375 255 372S251 368 248 368Z"/></svg>