<svg xmlns="http://www.w3.org/2000/svg" viewBox="0 0 640 512"><!-- Font Awesome Pro 6.0.0-alpha1 by @fontawesome - https://fontawesome.com License - https://fontawesome.com/license (Commercial License) --><path d="M373 193L245 249C242 250 240 253 240 256V360C231 355 220 352 208 352C182 352 160 366 160 384S182 416 208 416S256 402 256 384V261L368 212V328C359 323 348 320 336 320C310 320 288 334 288 352S310 384 336 384S384 370 384 352V200C384 197 383 195 380 193C378 192 375 192 373 193ZM208 400C188 400 176 391 176 384S188 368 208 368C228 368 240 377 240 384S228 400 208 400ZM336 368C316 368 304 359 304 352S316 336 336 336C356 336 368 345 368 352S356 368 336 368ZM538 227C542 216 544 204 544 192C544 139 501 96 448 96C428 96 410 102 395 112C367 64 315 32 256 32C168 32 96 104 96 192C96 195 96 197 96 200C40 220 0 273 0 336C0 415 65 480 144 480H512C583 480 640 423 640 352C640 290 596 238 538 227ZM512 464H144C73 464 16 407 16 336C16 282 50 233 102 215L113 211L112 200C112 197 112 195 112 192C112 113 177 48 256 48C307 48 355 76 381 120L389 135L404 125C417 117 432 112 448 112C492 112 528 148 528 192C528 202 526 212 523 221L516 239L534 242C586 253 624 299 624 352C624 414 574 464 512 464Z"/></svg>