<svg xmlns="http://www.w3.org/2000/svg" viewBox="0 0 576 512"><!-- Font Awesome Pro 6.0.0-alpha1 by @fontawesome - https://fontawesome.com License - https://fontawesome.com/license (Commercial License) --><path d="M574 294C570 288 563 285 556 287C516 294 475 284 444 258C412 232 394 194 394 153C394 104 421 58 463 34C469 31 473 24 472 17C470 10 465 5 458 3C336 -19 231 75 231 192C231 194 231 196 231 198L231 201C232 205 235 209 240 209C244 208 248 205 247 200L247 197C247 195 247 194 247 192C247 95 326 16 423 16C434 16 444 17 455 20C408 47 378 98 378 153C378 198 398 241 434 270C469 299 514 311 560 303C532 338 493 360 449 366C445 367 441 371 442 375C443 379 446 382 450 382C450 382 451 382 451 382C499 375 542 351 572 313C577 308 577 300 574 294ZM343 353C348 343 352 332 352 320C352 285 323 256 288 256C271 256 255 263 244 274C227 244 196 224 160 224C107 224 64 267 64 320C64 322 65 324 65 326C27 339 0 374 0 416C0 469 43 512 96 512H336C380 512 416 476 416 432C416 390 384 356 343 353ZM336 496H96C52 496 16 460 16 416C16 382 38 352 70 341L81 337L81 325C81 323 80 322 80 320C80 276 116 240 160 240C189 240 216 256 230 282L240 300L255 285C264 277 276 272 288 272C314 272 336 294 336 320C336 329 334 337 329 345L316 367L341 369C375 372 400 399 400 432C400 467 371 496 336 496Z"/></svg>