<svg xmlns="http://www.w3.org/2000/svg" viewBox="0 0 512 512"><!-- Font Awesome Pro 6.0.0-alpha1 by @fontawesome - https://fontawesome.com License - https://fontawesome.com/license (Commercial License) --><path d="M376 176C375 176 375 176 374 176C381 161 384 145 384 128C384 57 327 0 256 0S128 57 128 128C128 145 131 161 138 176C137 176 137 176 136 176C61 176 0 237 0 312C0 387 61 448 136 448C183 448 224 424 248 388V496H168C164 496 160 500 160 504S164 512 168 512H344C348 512 352 508 352 504S348 496 344 496H264V388C288 424 329 448 376 448C451 448 512 387 512 312C512 237 451 176 376 176ZM405 429C350 442 296 416 270 367V367C264 356 248 356 242 367V367C216 416 162 442 107 429C57 416 20 372 16 321C11 251 67 192 135 192L161 192L152 170C147 157 144 142 144 128C144 66 194 16 256 16S368 66 368 128C368 142 365 157 360 170L351 192L377 192C446 193 501 251 496 321C492 372 455 416 405 429Z"/></svg>