<svg xmlns="http://www.w3.org/2000/svg" viewBox="0 0 384 512"><!-- Font Awesome Pro 6.0.0-alpha1 by @fontawesome - https://fontawesome.com License - https://fontawesome.com/license (Commercial License) --><path d="M320 224C287 224 261 248 257 280H232C146 280 77 212 73 127C104 123 128 96 128 64C128 29 99 0 64 0S0 29 0 64C0 97 24 123 56 127V385C24 389 0 415 0 448C0 483 29 512 64 512S128 483 128 448C128 415 104 389 72 385V193C100 254 161 296 232 296H257C261 328 287 352 320 352C355 352 384 323 384 288S355 224 320 224ZM16 64C16 38 38 16 64 16S112 38 112 64S90 112 64 112S16 90 16 64ZM112 448C112 474 90 496 64 496S16 474 16 448S38 400 64 400S112 422 112 448ZM320 336C294 336 272 314 272 288S294 240 320 240S368 262 368 288S346 336 320 336Z"/></svg>