<svg xmlns="http://www.w3.org/2000/svg" viewBox="0 0 512 512"><!-- Font Awesome Pro 6.0.0-alpha1 by @fontawesome - https://fontawesome.com License - https://fontawesome.com/license (Commercial License) --><path d="M431 178L480 32H72C32 32 0 64 0 104V216C0 220 4 224 8 224S16 220 16 216V104C16 73 41 48 72 48H101L145 178C95 218 64 278 64 345C64 396 83 429 114 462C125 474 139 480 155 480H421C437 480 452 474 462 462C493 430 512 396 512 345C512 278 481 218 431 178ZM118 48H458L416 173L415 176H161L160 173L118 48ZM153 192H424C459 221 482 261 492 304H84C94 261 118 221 153 192ZM451 451C443 459 432 464 421 464H155C144 464 133 459 125 451C98 422 80 393 80 345C80 336 81 328 82 320H494C495 328 496 336 496 345C496 393 478 422 451 451Z"/></svg>