<svg xmlns="http://www.w3.org/2000/svg" viewBox="0 0 384 512"><!-- Font Awesome Pro 6.0.0-alpha1 by @fontawesome - https://fontawesome.com License - https://fontawesome.com/license (Commercial License) --><path d="M375 115L267 9C261 3 252 0 244 0H140C132 0 123 3 117 9L9 115C1 123 -2 135 1 146L88 488C92 502 105 512 120 512H264C279 512 292 502 296 488L383 146C386 135 383 123 375 115ZM280 484C279 491 272 496 264 496H120C112 496 105 491 104 484L16 142C15 136 17 131 21 127L128 21C132 18 136 16 140 16H244C248 16 252 18 256 21L363 127C367 131 369 136 368 142L280 484ZM280 184H200V104C200 100 196 96 192 96S184 100 184 104V184H104C100 184 96 188 96 192S100 200 104 200H184V344C184 348 188 352 192 352S200 348 200 344V200H280C284 200 288 196 288 192S284 184 280 184Z"/></svg>