<svg xmlns="http://www.w3.org/2000/svg" viewBox="0 0 448 512"><!-- Font Awesome Pro 6.0.0-alpha1 by @fontawesome - https://fontawesome.com License - https://fontawesome.com/license (Commercial License) --><path d="M436 130C426 107 370 53 353 46C332 36 310 32 287 32C220 32 148 70 94 125C21 197 -23 300 12 382C22 405 78 459 95 466C116 476 138 480 161 480C228 480 300 442 354 387C427 315 471 212 436 130ZM105 136C160 81 228 48 287 48C308 48 328 52 347 60C353 63 366 74 380 88C356 182 299 240 217 256C131 272 74 324 50 406C39 394 30 382 27 375C-2 307 28 213 105 136ZM343 376C288 431 220 464 161 464C140 464 120 460 101 452C95 449 78 435 62 419C84 338 138 287 220 272C306 255 366 196 393 101C406 114 418 128 421 137C450 205 420 299 343 376Z"/></svg>