<svg xmlns="http://www.w3.org/2000/svg" viewBox="0 0 512 512"><!-- Font Awesome Pro 6.0.0-alpha1 by @fontawesome - https://fontawesome.com License - https://fontawesome.com/license (Commercial License) --><path d="M170 196C162 193 144 192 127 192C110 192 94 193 88 195C29 217 0 284 0 352C0 418 29 486 86 508C94 511 112 512 129 512C146 512 162 511 168 509C227 487 256 420 256 352C256 286 227 218 170 196ZM126 496C108 496 96 494 91 493C36 471 16 403 16 352C16 300 36 231 94 211C96 210 105 209 117 208C88 263 89 316 121 363C150 405 151 451 126 496ZM162 494C160 494 154 495 144 496C168 448 165 399 134 354C97 300 114 246 135 208C150 209 161 210 164 211C220 233 240 301 240 352C240 404 220 473 162 494ZM456 57C422 23 377 0 334 0C319 0 305 3 291 9C275 16 239 53 234 64C209 119 234 185 280 231C314 265 359 288 402 288C417 288 431 285 445 279C461 272 497 235 502 224C527 169 502 103 456 57ZM439 264C427 269 415 272 402 272C366 272 325 252 292 220C256 184 224 124 249 71C250 68 256 61 262 54C280 111 317 147 370 157C419 166 451 196 464 243C455 253 444 262 439 264ZM487 217C486 219 482 224 477 230C461 182 425 151 373 141C312 129 286 81 275 41C284 33 292 26 297 24C309 19 321 16 334 16C370 16 412 36 444 68C480 104 512 164 487 217Z"/></svg>