<svg xmlns="http://www.w3.org/2000/svg" viewBox="0 0 512 512"><!-- Font Awesome Pro 6.0.0-alpha1 by @fontawesome - https://fontawesome.com License - https://fontawesome.com/license (Commercial License) --><path d="M256 64C115 64 0 129 0 208V304C0 383 115 448 256 448S512 383 512 304V208C512 129 397 64 256 64ZM256 80C388 80 496 137 496 208S388 336 256 336S16 279 16 208S124 80 256 80ZM440 308V386C411 405 372 419 328 426V346C371 339 410 326 440 308ZM184 346V426C140 419 101 405 72 386V308C102 326 141 339 184 346ZM16 304V258C26 272 39 286 56 298V375C31 354 16 330 16 304ZM200 428V348C218 351 237 352 256 352S294 351 312 348V428C294 431 275 432 256 432S218 431 200 428ZM496 304C496 330 481 354 456 375V298C473 286 486 272 496 258V304Z"/></svg>