<svg xmlns="http://www.w3.org/2000/svg" viewBox="0 0 512 512"><!-- Font Awesome Pro 6.0.0-alpha1 by @fontawesome - https://fontawesome.com License - https://fontawesome.com/license (Commercial License) --><path d="M256 32C115 32 0 125 0 240C0 290 21 335 57 371C44 421 3 466 2 466C0 469 -1 472 1 475C2 478 5 480 8 480C74 480 124 448 149 429C181 441 218 448 256 448C397 448 512 355 512 240S397 32 256 32ZM256 432C221 432 187 426 154 414L146 410L139 416C118 432 78 458 26 463C40 445 63 411 73 375L75 366L68 359C34 325 16 284 16 240C16 134 124 48 256 48S496 134 496 240S388 432 256 432ZM192 208C201 208 208 201 208 192S201 176 192 176C183 176 176 183 176 192S183 208 192 208ZM320 208C329 208 336 201 336 192S329 176 320 176S304 183 304 192S311 208 320 208ZM345 284C327 316 293 336 256 336S185 316 167 284C165 280 160 279 156 281C152 283 151 288 153 292C174 329 214 352 256 352S338 329 359 292C361 288 360 283 356 281S347 280 345 284Z"/></svg>