<svg xmlns="http://www.w3.org/2000/svg" viewBox="0 0 512 512"><!-- Font Awesome Pro 6.0.0-alpha1 by @fontawesome - https://fontawesome.com License - https://fontawesome.com/license (Commercial License) --><path d="M256 32C115 32 0 125 0 240C0 290 21 335 57 371C44 421 3 466 2 466C0 469 -1 472 1 475C2 478 5 480 8 480C74 480 124 448 149 429C181 441 218 448 256 448C397 448 512 355 512 240S397 32 256 32ZM256 432C221 432 187 426 154 414L146 410L139 416C118 432 78 458 26 463C40 445 63 411 73 375L75 366L68 359C34 325 16 284 16 240C16 134 124 48 256 48S496 134 496 240S388 432 256 432ZM341 129L213 185C210 186 208 189 208 192V296C199 291 188 288 176 288C150 288 128 302 128 320S150 352 176 352S224 338 224 320V197L336 148V264C327 259 316 256 304 256C278 256 256 270 256 288S278 320 304 320S352 306 352 288V136C352 133 351 131 348 129C346 128 343 128 341 129ZM176 336C156 336 144 327 144 320S156 304 176 304C196 304 208 313 208 320S196 336 176 336ZM304 304C284 304 272 295 272 288S284 272 304 272C324 272 336 281 336 288S324 304 304 304Z"/></svg>