<svg xmlns="http://www.w3.org/2000/svg" viewBox="0 0 512 512"><!-- Font Awesome Pro 6.0.0-alpha1 by @fontawesome - https://fontawesome.com License - https://fontawesome.com/license (Commercial License) --><path d="M184 144C153 144 128 169 128 200S153 256 184 256C200 256 214 249 224 239V264C224 295 199 320 168 320H160C156 320 152 324 152 328S156 336 160 336H168C208 336 240 304 240 264V200C240 169 215 144 184 144ZM184 240C162 240 144 222 144 200S162 160 184 160S224 178 224 200S206 240 184 240ZM328 144C297 144 272 169 272 200S297 256 328 256C344 256 358 249 368 239V264C368 295 343 320 312 320H304C300 320 296 324 296 328S300 336 304 336H312C352 336 384 304 384 264V200C384 169 359 144 328 144ZM328 240C306 240 288 222 288 200S306 160 328 160S368 178 368 200S350 240 328 240ZM256 32C115 32 0 125 0 240C0 290 21 335 57 371C44 421 3 466 2 466C0 469 -1 472 1 475C2 478 5 480 8 480C74 480 124 448 149 429C181 441 218 448 256 448C397 448 512 355 512 240S397 32 256 32ZM256 432C221 432 187 426 154 414L146 410L139 416C118 432 78 458 26 463C40 445 63 411 73 375L75 366L68 359C34 325 16 284 16 240C16 134 124 48 256 48S496 134 496 240S388 432 256 432Z"/></svg>