<svg xmlns="http://www.w3.org/2000/svg" viewBox="0 0 512 512"><!-- Font Awesome Pro 6.0.0-alpha1 by @fontawesome - https://fontawesome.com License - https://fontawesome.com/license (Commercial License) --><path d="M256 32C115 32 0 125 0 240C0 290 21 335 57 371C44 421 3 466 2 466C0 469 -1 472 1 475C2 478 5 480 8 480C74 480 124 448 149 429C181 441 218 448 256 448C397 448 512 355 512 240S397 32 256 32ZM256 432C221 432 187 426 154 414L146 410L139 416C118 432 78 458 26 463C40 445 63 411 73 375L75 366L68 359C34 325 16 284 16 240C16 134 124 48 256 48S496 134 496 240S388 432 256 432ZM160 200C182 200 200 182 200 160S182 120 160 120S120 138 120 160S138 200 160 200ZM160 136C173 136 184 147 184 160S173 184 160 184S136 173 136 160S147 136 160 136ZM313 154C304 142 283 142 274 154L202 251L186 232C177 222 159 222 150 232L94 296C88 303 86 313 90 322C94 330 103 336 112 336H400C409 336 417 331 421 323C426 315 425 305 419 298L313 154ZM407 316L407 316C406 318 403 320 400 320H112C109 320 106 318 105 315C103 312 104 309 106 307L162 243C163 241 166 240 168 240S173 241 174 243L203 276L287 163C290 159 297 159 300 163L406 307C408 310 409 313 407 316Z"/></svg>