<svg xmlns="http://www.w3.org/2000/svg" viewBox="0 0 512 512"><!-- Font Awesome Pro 6.0.0-alpha1 by @fontawesome - https://fontawesome.com License - https://fontawesome.com/license (Commercial License) --><path d="M256 32C115 32 0 125 0 240C0 290 21 335 57 371C44 421 3 466 2 466C0 469 -1 472 1 475C2 478 5 480 8 480C74 480 124 448 149 429C181 441 218 448 256 448C397 448 512 355 512 240S397 32 256 32ZM256 432C221 432 187 426 154 414L146 410L139 416C118 432 78 458 26 463C40 445 63 411 73 375L75 366L68 359C34 325 16 284 16 240C16 134 124 48 256 48S496 134 496 240S388 432 256 432ZM346 170L232 285L174 226C171 223 165 223 162 226S159 235 162 238L226 302C228 303 230 304 232 304S236 303 238 302L358 182C361 179 361 173 358 170S349 167 346 170Z"/></svg>