<svg xmlns="http://www.w3.org/2000/svg" viewBox="0 0 512 512"><!-- Font Awesome Pro 6.0.0-alpha1 by @fontawesome - https://fontawesome.com License - https://fontawesome.com/license (Commercial License) --><path d="M256 32C115 32 0 125 0 240C0 290 21 335 57 371C44 421 3 466 2 466C0 469 -1 472 1 475C2 478 5 480 8 480C74 480 124 448 149 429C181 441 218 448 256 448C397 448 512 355 512 240S397 32 256 32ZM256 432C221 432 187 426 154 414L146 410L139 416C118 432 78 458 26 463C40 445 63 411 73 375L75 366L68 359C34 325 16 284 16 240C16 134 124 48 256 48S496 134 496 240S388 432 256 432ZM262 146C260 145 258 144 256 144H256C254 144 252 145 250 146C220 177 170 228 164 233C162 234 161 235 161 237C159 241 161 246 165 247C166 248 167 248 168 248C173 248 183 238 248 172V328C248 332 252 336 256 336S264 332 264 328V171L338 246C341 249 347 249 350 246S353 237 350 234L262 146Z"/></svg>