<svg xmlns="http://www.w3.org/2000/svg" viewBox="0 0 512 512"><!-- Font Awesome Pro 6.0.0-alpha1 by @fontawesome - https://fontawesome.com License - https://fontawesome.com/license (Commercial License) --><path d="M152 304H104C100 304 96 308 96 312S100 320 104 320H152C156 320 160 316 160 312S156 304 152 304ZM224 248C224 244 220 240 216 240H72C68 240 64 244 64 248S68 256 72 256H216C220 256 224 252 224 248ZM312 304H200C196 304 192 308 192 312S196 320 200 320H312C316 320 320 316 320 312S316 304 312 304ZM408 304H360C356 304 352 308 352 312S356 320 360 320H408C412 320 416 316 416 312S412 304 408 304ZM440 240H264C260 240 256 244 256 248S260 256 264 256H440C444 256 448 252 448 248S444 240 440 240ZM256 32C115 32 0 125 0 240C0 290 21 335 57 371C44 421 3 466 2 466C0 469 -1 472 1 475C2 478 5 480 8 480C74 480 124 448 149 429C181 441 218 448 256 448C397 448 512 355 512 240S397 32 256 32ZM256 432C221 432 187 426 154 414L146 410L139 416C118 432 78 458 26 463C40 445 63 411 73 375L75 366L68 359C34 325 16 284 16 240C16 134 124 48 256 48S496 134 496 240S388 432 256 432Z"/></svg>