<svg xmlns="http://www.w3.org/2000/svg" viewBox="0 0 448 512"><!-- Font Awesome Pro 6.0.0-alpha1 by @fontawesome - https://fontawesome.com License - https://fontawesome.com/license (Commercial License) --><path d="M368 320H304V192H368C412 192 448 156 448 112S412 32 368 32S288 68 288 112V176H160V112C160 68 124 32 80 32S0 68 0 112S36 192 80 192H144V320H80C36 320 0 356 0 400S36 480 80 480S160 444 160 400V336H288V400C288 444 324 480 368 480S448 444 448 400S412 320 368 320ZM304 112C304 77 333 48 368 48S432 77 432 112S403 176 368 176H304V112ZM80 176C45 176 16 147 16 112S45 48 80 48S144 77 144 112V176H80ZM144 400C144 435 115 464 80 464S16 435 16 400S45 336 80 336H144V400ZM160 320V192H288V320H160ZM368 464C333 464 304 435 304 400V336H368C403 336 432 365 432 400S403 464 368 464Z"/></svg>