<svg xmlns="http://www.w3.org/2000/svg" viewBox="0 0 576 512"><!-- Font Awesome Pro 6.0.0-alpha1 by @fontawesome - https://fontawesome.com License - https://fontawesome.com/license (Commercial License) --><path d="M538 412C562 386 576 354 576 320C576 265 540 214 479 185C475 183 471 185 469 188C467 192 468 197 472 199C527 226 560 271 560 320C560 333 560 364 519 409C527 426 533 440 550 463C521 459 501 449 480 437C457 448 422 464 368 464C310 464 255 444 218 410C215 407 210 407 207 411S204 419 207 422C247 459 306 480 368 480C409 480 447 471 479 455C501 468 531 480 568 480C571 480 574 478 575 475C577 472 576 469 574 466C574 466 551 442 538 412ZM416 192C416 104 323 32 208 32S0 104 0 192C0 226 14 258 38 284C25 314 2 338 2 338C0 341 -1 344 1 347C2 350 5 352 8 352C45 352 75 340 97 327C129 343 167 352 208 352C323 352 416 280 416 192ZM96 309C74 321 55 331 26 335C43 312 50 297 57 281C16 236 16 206 16 192C16 113 102 48 208 48C314 48 400 113 400 192S314 336 208 336C154 336 119 320 96 309ZM216 288V272H226C248 272 266 254 266 231C266 213 254 197 237 192L184 177C173 174 166 164 166 153C166 139 177 128 190 128H224C235 128 245 132 253 140C256 143 261 143 264 140S267 132 264 129C253 118 239 112 224 112H216V96C216 92 212 88 208 88S200 92 200 96V112H190C168 112 150 130 150 153C150 171 162 187 179 192L232 207C243 210 250 220 250 231C250 245 239 256 226 256H192C181 256 171 252 163 244C160 241 155 241 152 244S149 252 152 255C163 266 177 272 192 272H200V288C200 292 204 296 208 296S216 292 216 288Z"/></svg>