<svg xmlns="http://www.w3.org/2000/svg" viewBox="0 0 512 512"><!-- Font Awesome Pro 6.0.0-alpha1 by @fontawesome - https://fontawesome.com License - https://fontawesome.com/license (Commercial License) --><path d="M256 32C115 32 0 125 0 240C0 290 21 335 57 371C44 421 3 466 2 466C0 469 -1 472 1 475C2 478 5 480 8 480C74 480 124 448 149 429C181 441 218 448 256 448C397 448 512 355 512 240S397 32 256 32ZM256 432C221 432 187 426 154 414L146 410L139 416C118 432 78 458 26 463C40 445 63 411 73 375L75 366L68 359C34 325 16 284 16 240C16 134 124 48 256 48S496 134 496 240S388 432 256 432ZM138 232L134 231C116 226 111 221 112 212C114 201 129 199 143 201C147 201 151 203 157 205C162 206 166 204 168 200S167 191 163 190C156 187 150 186 145 185C119 181 100 191 97 209C92 235 116 243 130 246L134 248C155 254 162 257 160 268C158 279 143 281 129 279C123 278 116 276 110 274L107 272C102 271 98 273 96 277C95 281 97 286 101 288L104 289C111 291 119 294 127 295C130 296 134 296 138 296C158 296 173 286 175 271C180 244 156 237 138 232ZM378 232L374 231C356 226 351 221 352 212C354 201 369 199 383 201C387 201 391 203 397 205C402 206 406 204 408 200S407 191 403 190C396 187 390 186 385 185C359 181 340 191 337 210C332 235 356 243 369 246L374 248C395 254 402 257 400 268C398 279 383 281 369 279C363 278 356 276 350 274L347 272C342 271 338 273 336 277C335 281 337 286 341 288L344 289C351 291 359 294 367 295C370 296 374 296 378 296C398 296 413 286 415 270C420 244 396 237 378 232ZM307 184C303 183 300 184 298 187L256 243L214 187C212 184 209 183 205 184C202 186 200 189 200 192V288C200 292 204 296 208 296S216 292 216 288V216L250 261C253 265 259 265 262 261L296 216V288C296 292 300 296 304 296S312 292 312 288V192C312 189 310 186 307 184Z"/></svg>