<svg xmlns="http://www.w3.org/2000/svg" viewBox="0 0 512 512"><!-- Font Awesome Pro 6.0.0-alpha1 by @fontawesome - https://fontawesome.com License - https://fontawesome.com/license (Commercial License) --><path d="M256 32C115 32 0 125 0 240C0 290 21 335 57 371C44 421 3 466 2 466C0 469 -1 472 1 475C2 478 5 480 8 480C74 480 124 448 149 429C181 441 218 448 256 448C397 448 512 355 512 240S397 32 256 32ZM256 432C221 432 187 426 154 414L146 410L139 416C118 432 78 458 26 463C40 445 63 411 73 375L75 366L68 359C34 325 16 284 16 240C16 134 124 48 256 48S496 134 496 240S388 432 256 432ZM346 140C339 133 331 130 323 130C315 130 307 133 300 140L160 280C159 281 159 282 158 284L146 341C145 346 149 350 153 350C154 350 154 350 155 350L212 338C214 337 215 337 216 336L356 196C369 183 369 163 356 150L346 140ZM206 323L165 331L173 290L276 187L309 220L206 323ZM345 184L321 209L287 175L312 151C315 148 319 146 323 146S331 148 334 151L345 162C348 165 350 169 350 173S348 181 345 184Z"/></svg>