<svg xmlns="http://www.w3.org/2000/svg" viewBox="0 0 512 512"><!-- Font Awesome Pro 6.0.0-alpha1 by @fontawesome - https://fontawesome.com License - https://fontawesome.com/license (Commercial License) --><path d="M323 103L274 10C271 3 263 0 256 0S241 3 238 10L189 103C80 127 0 208 0 304C0 419 115 512 256 512S512 419 512 304C512 208 432 127 323 103ZM256 496C124 496 16 410 16 304C16 286 23 157 200 118L252 18C252 17 254 16 256 16S260 17 260 18L312 118C489 157 496 286 496 304C496 410 388 496 256 496Z"/></svg>