<svg xmlns="http://www.w3.org/2000/svg" viewBox="0 0 512 512"><!-- Font Awesome Pro 6.0.0-alpha1 by @fontawesome - https://fontawesome.com License - https://fontawesome.com/license (Commercial License) --><path d="M256 16C123 16 16 123 16 256S123 496 256 496S496 389 496 256S389 16 256 16ZM256 480C132 480 32 380 32 256S132 32 256 32S480 132 480 256S380 480 256 480ZM353 123L208 189C201 192 192 201 189 208L123 353C118 363 120 376 128 384C134 389 141 392 148 392C152 392 156 391 159 389L304 323C311 320 320 311 323 304L389 159C394 149 392 137 384 128C375 120 363 118 353 123ZM375 153L309 297C307 301 301 307 297 309L153 375C146 378 141 374 140 373C138 371 134 366 137 359L203 215C205 211 211 205 215 203L359 137C366 134 371 138 373 140C374 141 378 146 375 153ZM256 224C248 224 240 227 233 233C221 246 221 266 233 279C240 285 248 288 256 288S272 285 279 279C291 266 291 246 279 233C272 227 264 224 256 224ZM267 267C264 270 260 272 256 272S248 270 245 267S240 260 240 256C240 252 242 248 245 245S252 240 256 240S264 242 267 245C270 248 272 252 272 256C272 260 270 264 267 267Z"/></svg>