<svg xmlns="http://www.w3.org/2000/svg" viewBox="0 0 384 512"><!-- Font Awesome Pro 6.0.0-alpha1 by @fontawesome - https://fontawesome.com License - https://fontawesome.com/license (Commercial License) --><path d="M224 0H160C72 0 0 72 0 160V352C0 440 72 512 160 512H224C312 512 384 440 384 352V160C384 72 312 0 224 0ZM368 352C368 431 303 496 224 496H160C81 496 16 431 16 352V160C16 81 81 16 160 16H224C303 16 368 81 368 160V352ZM192 96C174 96 160 110 160 128V160C160 178 174 192 192 192S224 178 224 160V128C224 110 210 96 192 96ZM208 160C208 169 201 176 192 176S176 169 176 160V128C176 119 183 112 192 112S208 119 208 128V160Z"/></svg>