<svg xmlns="http://www.w3.org/2000/svg" viewBox="0 0 512 512"><!-- Font Awesome Pro 6.0.0-alpha1 by @fontawesome - https://fontawesome.com License - https://fontawesome.com/license (Commercial License) --><path d="M152 64C148 64 144 68 144 72V208H8C4 208 0 212 0 216S4 224 8 224H152C156 224 160 220 160 216V72C160 68 156 64 152 64ZM360 224H504C508 224 512 220 512 216S508 208 504 208H368V72C368 68 364 64 360 64S352 68 352 72V216C352 220 356 224 360 224ZM504 288H360C356 288 352 292 352 296V440C352 444 356 448 360 448S368 444 368 440V304H504C508 304 512 300 512 296S508 288 504 288ZM152 288H8C4 288 0 292 0 296S4 304 8 304H144V440C144 444 148 448 152 448S160 444 160 440V296C160 292 156 288 152 288Z"/></svg>