<svg xmlns="http://www.w3.org/2000/svg" viewBox="0 0 640 512"><!-- Font Awesome Pro 6.0.0-alpha1 by @fontawesome - https://fontawesome.com License - https://fontawesome.com/license (Commercial License) --><path d="M416 416C420 416 424 412 424 408V104C424 100 420 96 416 96S408 100 408 104V408C408 412 412 416 416 416ZM512 416C516 416 520 412 520 408V104C520 100 516 96 512 96S504 100 504 104V408C504 412 508 416 512 416ZM320 416C324 416 328 412 328 408V104C328 100 324 96 320 96S312 100 312 104V408C312 412 316 416 320 416ZM128 416C132 416 136 412 136 408V104C136 100 132 96 128 96S120 100 120 104V408C120 412 124 416 128 416ZM224 416C228 416 232 412 232 408V104C232 100 228 96 224 96S216 100 216 104V408C216 412 220 416 224 416ZM632 464H624V48H632C636 48 640 44 640 40S636 32 632 32H8C4 32 0 36 0 40S4 48 8 48H16V464H8C4 464 0 468 0 472S4 480 8 480H632C636 480 640 476 640 472S636 464 632 464ZM608 464H32V48H608V464Z"/></svg>