<svg xmlns="http://www.w3.org/2000/svg" viewBox="0 0 512 512"><!-- Font Awesome Pro 6.0.0-alpha1 by @fontawesome - https://fontawesome.com License - https://fontawesome.com/license (Commercial License) --><path d="M488 256C428 252 380 203 376 143C376 139 373 136 369 136C309 132 260 84 256 24C256 20 253 17 249 17C245 16 241 16 237 16C218 16 199 21 181 29L117 62C93 74 74 93 62 117L30 181C18 205 13 231 18 257L29 329C33 355 45 378 64 397L115 448C134 467 157 479 183 483L255 494C262 496 268 496 274 496C294 496 313 491 331 483L395 450C419 438 438 419 450 395L483 331C493 310 498 286 495 263C495 259 492 256 488 256ZM468 323L435 388C425 408 408 425 388 435L323 468C308 476 291 480 274 480C269 480 263 480 258 479L186 467C163 464 143 453 126 437L75 386C59 369 48 349 45 326L33 255C30 232 33 209 44 188L77 124C87 103 104 87 124 77L189 44C204 36 220 32 237 32C239 32 240 32 241 32C249 94 299 144 361 151C368 213 418 263 480 271C480 289 476 307 468 323ZM176 304C158 304 144 318 144 336C144 354 158 368 176 368S208 354 208 336C208 318 194 304 176 304ZM176 352C167 352 160 345 160 336C160 327 167 320 176 320S192 327 192 336C192 345 185 352 176 352ZM208 144C190 144 176 158 176 176S190 208 208 208S240 194 240 176S226 144 208 144ZM208 192C199 192 192 185 192 176C192 167 199 160 208 160S224 167 224 176C224 185 217 192 208 192ZM368 272C350 272 336 286 336 304S350 336 368 336S400 322 400 304S386 272 368 272ZM368 320C359 320 352 313 352 304C352 295 359 288 368 288S384 295 384 304C384 313 377 320 368 320Z"/></svg>