<svg xmlns="http://www.w3.org/2000/svg" viewBox="0 0 576 512"><!-- Font Awesome Pro 6.0.0-alpha1 by @fontawesome - https://fontawesome.com License - https://fontawesome.com/license (Commercial License) --><path d="M526 255L515 183C511 157 499 134 480 115L429 64C410 45 387 33 361 29L289 18C283 17 276 16 270 16C250 16 231 21 213 29L149 63C125 74 106 93 94 117L61 181C50 205 45 231 50 257L61 329C65 355 77 378 96 397L147 448C166 467 189 479 215 483L287 494C293 496 300 496 306 496C326 496 345 491 363 483L427 450C451 438 470 419 482 395L514 331C526 307 531 281 526 255ZM500 324L467 388C457 409 440 425 420 435L355 468C340 476 323 480 306 480C301 480 295 480 290 479L218 467C195 464 175 453 158 437L107 386C91 369 80 349 77 326L65 255C62 232 65 209 76 188L109 124C119 103 136 87 156 77L221 44C236 36 253 32 270 32C275 32 281 32 286 33L358 45C381 48 401 59 418 75L469 126C485 143 496 163 499 186L511 257C514 280 511 303 500 324ZM208 304C190 304 176 318 176 336C176 354 190 368 208 368S240 354 240 336C240 318 226 304 208 304ZM208 352C199 352 192 345 192 336C192 327 199 320 208 320S224 327 224 336C224 345 217 352 208 352ZM240 144C222 144 208 158 208 176S222 208 240 208S272 194 272 176S258 144 240 144ZM240 192C231 192 224 185 224 176C224 167 231 160 240 160S256 167 256 176C256 185 249 192 240 192ZM400 272C382 272 368 286 368 304C368 322 382 336 400 336S432 322 432 304C432 286 418 272 400 272ZM400 320C391 320 384 313 384 304C384 295 391 288 400 288S416 295 416 304C416 313 409 320 400 320Z"/></svg>