<svg xmlns="http://www.w3.org/2000/svg" viewBox="0 0 512 512"><!-- Font Awesome Pro 6.0.0-alpha1 by @fontawesome - https://fontawesome.com License - https://fontawesome.com/license (Commercial License) --><path d="M512 52L512 49C514 24 495 2 469 0C454 -1 439 5 429 17C418 10 404 8 391 12C379 15 369 23 363 34C352 30 339 30 327 35C316 40 307 49 302 61C291 58 278 59 267 66C257 72 249 82 246 93C234 91 222 94 212 101C208 104 205 107 202 111C199 114 200 119 203 122C207 125 212 124 215 120C216 118 219 116 221 114C229 108 240 107 249 110C252 111 254 111 257 110C259 108 260 106 260 104C261 94 267 85 275 80C284 74 295 74 304 78C307 79 309 79 311 78C314 77 315 75 316 72C317 62 324 54 334 50C343 46 354 46 363 52C365 53 367 54 370 53C372 52 374 50 375 48C378 38 386 30 396 27C406 24 417 27 425 34C427 36 430 37 432 36C435 36 437 34 438 32C444 21 456 15 468 16C485 18 497 32 496 49V51C496 63 489 73 479 78C477 79 475 81 475 84C474 86 475 89 477 91C484 99 487 110 484 120C481 130 473 138 463 141C460 142 458 144 458 146C457 148 457 151 458 153C464 162 465 173 461 182C456 192 448 198 437 200C435 200 433 202 431 204C430 206 430 209 431 211C436 220 435 231 430 240C425 249 416 255 406 255C403 255 401 257 400 259C398 261 398 264 399 266C403 276 401 286 395 294C394 295 393 297 392 298C392 298 391 298 391 298C388 302 389 306 392 309C393 311 395 311 397 311C400 311 402 311 403 309C405 307 407 306 408 304C415 294 418 281 416 270C428 266 438 259 444 248C450 237 452 225 449 213C461 209 470 200 475 189C480 177 480 164 476 153C487 147 495 137 499 125C503 112 501 99 494 87C505 79 511 66 512 52ZM202 310L208 289C224 219 206 146 159 93C156 89 150 87 144 89C138 90 134 95 132 101L114 192L29 277C-10 316 -10 379 29 418L94 483C114 502 139 512 165 512C190 512 216 502 235 483L320 398L411 380C417 378 422 374 423 368C425 362 423 356 419 353C358 299 274 286 202 310ZM41 407C8 374 8 321 41 288L127 201C128 200 129 199 129 197L147 104C190 153 207 221 193 284L183 317C158 328 136 343 116 363L56 423L41 407ZM315 383C313 383 312 384 311 385L224 471C191 504 138 504 105 471L68 434L127 375C203 298 327 294 408 364L315 383Z"/></svg>