<svg xmlns="http://www.w3.org/2000/svg" viewBox="0 0 640 512"><!-- Font Awesome Pro 6.0.0-alpha1 by @fontawesome - https://fontawesome.com License - https://fontawesome.com/license (Commercial License) --><path d="M633 264L624 252V178C624 170 620 162 613 157C605 153 597 153 589 156C581 161 573 167 566 174L507 107C488 80 456 64 423 64H120C80 64 48 96 48 136V233C21 237 0 260 0 288V312C0 316 4 320 8 320C39 320 64 295 64 264V136C64 107 86 83 114 81C98 94 88 113 88 136C88 237 88 424 88 424C88 437 99 448 112 448H168C181 448 192 437 192 424V336C192 333 193 331 193 328C205 337 218 343 232 347V376C232 380 236 384 240 384C244 384 248 380 248 376V350C253 351 259 352 264 352S275 351 280 350V376C280 380 284 384 288 384S296 380 296 376V347C310 343 323 337 335 328C335 331 336 333 336 336V424C336 437 347 448 360 448H416C429 448 440 437 440 424V269L472 285V322C472 336 476 350 484 361L517 423C528 439 545 448 563 448C590 448 612 429 617 404L639 295C641 284 639 273 633 264ZM48 264C48 283 34 299 16 303V288C16 269 30 253 48 249V264ZM161 91C163 86 170 80 181 80H347C358 80 365 86 367 91C369 96 368 101 364 106L341 128C320 149 293 160 264 160C235 160 208 149 187 128L164 106C160 101 159 96 161 91ZM264 336C239 336 216 327 197 311C207 284 233 264 264 264S321 283 331 311C312 327 289 336 264 336ZM602 400C598 419 582 432 563 432C550 432 538 425 531 415L497 353C491 343 488 333 488 322V280C488 277 486 274 484 273L436 249C434 248 433 248 432 248C431 248 429 248 428 249C425 251 424 253 424 256V424C424 428 420 432 416 432H360C356 432 352 428 352 424V336C352 329 351 323 350 316C350 316 350 316 350 316L349 316C340 277 306 248 264 248S188 277 179 316L178 316C178 316 178 316 178 316C177 323 176 329 176 336V424C176 428 172 432 168 432H112C108 432 104 428 104 424C104 424 104 237 104 136C104 109 123 86 149 81C148 82 147 84 146 85C142 96 144 108 153 117L176 140C200 163 231 176 264 176C297 176 328 163 352 140L375 117C384 108 386 96 382 85C381 83 380 82 379 80H423C451 80 478 94 495 117L561 192C562 194 565 195 567 195C569 194 572 193 573 191C580 182 588 175 596 171C600 169 603 170 604 171C605 172 608 174 608 178V255C608 257 609 258 610 260L620 273C623 279 625 285 624 292L602 400ZM568 320C559 320 552 327 552 336S559 352 568 352S584 345 584 336S577 320 568 320Z"/></svg>