<svg xmlns="http://www.w3.org/2000/svg" viewBox="0 0 448 512"><!-- Font Awesome Pro 6.0.0-alpha1 by @fontawesome - https://fontawesome.com License - https://fontawesome.com/license (Commercial License) --><path d="M447 465L389 129C385 110 369 96 349 96H320V40C320 18 302 0 280 0H168C146 0 128 18 128 40V96H99C79 96 63 110 59 129L1 465C-1 477 2 489 9 498C17 507 28 512 40 512H408C420 512 431 507 439 498C446 489 449 477 447 465ZM144 40C144 27 155 16 168 16H280C293 16 304 27 304 40V96H144V40ZM426 487C422 493 415 496 408 496H40C33 496 26 493 22 487C17 482 15 475 16 468L75 132C77 120 87 112 99 112H349C361 112 371 120 373 132L432 468C433 475 431 482 426 487Z"/></svg>