<svg xmlns="http://www.w3.org/2000/svg" viewBox="0 0 512 512"><!-- Font Awesome Pro 6.0.0-alpha1 by @fontawesome - https://fontawesome.com License - https://fontawesome.com/license (Commercial License) --><path d="M432 352C388 352 352 388 352 432S388 512 432 512C476 512 512 476 512 432S476 352 432 352ZM432 496C397 496 368 467 368 432S397 368 432 368C467 368 496 397 496 432S467 496 432 496ZM419 238C419 229 415 220 409 213L381 186L505 62C514 53 514 38 505 29L483 7C474 -2 459 -2 450 7L326 131L298 103C285 89 263 89 249 103L208 144H208V144L160 192H160V192L12 341C3 349 -1 360 0 371C7 446 66 505 141 512C142 512 143 512 144 512C154 512 164 508 171 500L409 263C415 256 419 247 419 238ZM312 337L160 489C155 494 148 496 143 496C75 490 22 436 16 369C15 363 18 357 23 352L208 167V296C208 300 212 304 216 304H345L312 337ZM398 251L360 289V288H224V151L261 114C264 111 269 109 274 109S283 111 287 114L326 153L461 18C464 15 469 15 472 18L494 40C497 43 497 48 494 51L359 186L398 225C401 228 403 233 403 238S401 248 398 251Z"/></svg>