<svg xmlns="http://www.w3.org/2000/svg" viewBox="0 0 512 512"><!-- Font Awesome Pro 6.0.0-alpha1 by @fontawesome - https://fontawesome.com License - https://fontawesome.com/license (Commercial License) --><path d="M512 408C512 412 508 416 504 416H416V504C416 508 412 512 408 512S400 508 400 504V123L123 400H344C348 400 352 404 352 408S348 416 344 416H104C100 416 96 412 96 408V112H8C4 112 0 108 0 104S4 96 8 96H96V8C96 4 100 0 104 0S112 4 112 8V389L389 112H168C164 112 160 108 160 104S164 96 168 96H405L474 26C477 23 483 23 486 26S489 35 486 38L416 107V400H504C508 400 512 404 512 408Z"/></svg>