<svg xmlns="http://www.w3.org/2000/svg" viewBox="0 0 640 512"><!-- Font Awesome Pro 6.0.0-alpha1 by @fontawesome - https://fontawesome.com License - https://fontawesome.com/license (Commercial License) --><path d="M416 80C407 80 400 87 400 96C400 105 407 112 416 112S432 105 432 96C432 87 425 80 416 80ZM506 64C493 27 458 0 416 0C363 0 320 43 320 96V126L12 394C5 399 0 408 0 418C0 435 14 448 30 448C35 448 39 447 44 445L192 384H290L337 507C338 510 341 512 344 512C345 512 346 512 347 511C351 510 353 505 351 501L308 384H320C342 384 363 380 382 373L433 507C434 510 437 512 440 512C441 512 442 512 443 511C447 510 449 505 447 501L397 368C465 338 512 270 512 192V159L630 142C636 141 641 137 640 132C632 94 575 64 506 64ZM496 192C496 289 417 368 320 368H235L334 330C380 312 413 273 424 226C425 221 422 217 418 216C413 215 409 218 408 222C399 265 369 299 328 315L37 430C35 431 32 432 30 432C23 432 16 427 16 418C16 413 18 409 23 406L330 138L336 133V96C336 52 372 16 416 16S496 52 496 96V192ZM512 143V96C512 91 511 85 510 80C568 82 610 104 621 127L512 143Z"/></svg>