<svg xmlns="http://www.w3.org/2000/svg" viewBox="0 0 640 512"><!-- Font Awesome Pro 6.0.0-alpha1 by @fontawesome - https://fontawesome.com License - https://fontawesome.com/license (Commercial License) --><path d="M398 387L380 392L498 510C500 511 502 512 504 512S508 511 510 510C513 507 513 501 510 498L398 387ZM224 348L229 332C216 328 205 322 196 312L76 193L193 76L287 170C289 167 291 164 294 162L297 158L204 65L215 55C227 42 227 22 214 9C208 3 200 0 192 0C184 0 175 3 169 9L9 169C-3 182 -3 202 9 214L9 215C16 221 24 224 32 224C40 224 49 221 55 215L65 204L184 324C196 335 209 343 224 348ZM44 203C41 206 37 208 32 208C28 208 24 206 21 203C14 197 14 187 21 180L180 21C183 18 187 16 192 16C196 16 200 18 203 21C206 24 208 28 208 32S206 41 203 44L44 203ZM631 169L471 9C465 3 456 0 448 0C440 0 432 3 426 9C413 22 413 42 425 55L436 65L316 184C304 197 294 213 290 230L249 380L130 498C127 501 127 507 130 510C132 511 134 512 136 512S140 511 142 510L260 391L410 350C427 346 443 336 456 324L575 204L585 215C591 221 600 224 608 224C616 224 624 221 631 214L631 214C643 202 643 182 631 169ZM444 312C434 323 420 331 405 335L267 373L305 235C309 220 317 206 328 196L336 187L453 304L444 312ZM464 293L347 176L447 76L564 193L464 293ZM619 203C613 210 603 210 596 203L437 44C430 37 430 27 437 21C443 14 453 14 460 21L619 180C626 187 626 197 619 203Z"/></svg>