<svg xmlns="http://www.w3.org/2000/svg" viewBox="0 0 448 512"><!-- Font Awesome Pro 6.0.0-alpha1 by @fontawesome - https://fontawesome.com License - https://fontawesome.com/license (Commercial License) --><path d="M432 64H416L393 18C387 7 376 0 364 0H84C72 0 61 7 55 18L32 64H16C7 64 0 71 0 80V112C0 121 7 128 16 128H432C441 128 448 121 448 112V80C448 71 441 64 432 64ZM432 112H16V80H42L46 71L69 25C72 19 78 16 84 16H364C370 16 376 19 379 25L406 80H432V112ZM393 160C388 160 384 163 384 167L378 240H70L64 167C64 163 60 160 55 160C51 160 48 164 48 169L74 477C75 496 92 512 112 512H336C356 512 373 496 374 477L400 169C400 164 397 160 393 160ZM358 475C357 487 348 496 336 496H112C100 496 91 487 90 475L85 416H363L358 475ZM365 400H83L71 256H377L365 400Z"/></svg>