<svg xmlns="http://www.w3.org/2000/svg" viewBox="0 0 448 512"><!-- Font Awesome Pro 6.0.0-alpha1 by @fontawesome - https://fontawesome.com License - https://fontawesome.com/license (Commercial License) --><path d="M224 0C100 0 0 36 0 80V432C0 476 100 512 224 512S448 476 448 432V80C448 36 348 0 224 0ZM432 326C407 348 326 368 224 368S41 348 16 326V185C56 210 142 224 224 224S392 210 432 185V326ZM224 16C351 16 432 54 432 80V166C407 188 326 208 224 208S41 188 16 166V80C16 54 97 16 224 16ZM224 496C97 496 16 458 16 432V345C56 370 142 384 224 384S392 370 432 345V432C432 458 351 496 224 496Z"/></svg>