<svg xmlns="http://www.w3.org/2000/svg" viewBox="0 0 576 512"><!-- Font Awesome Pro 6.0.0-alpha1 by @fontawesome - https://fontawesome.com License - https://fontawesome.com/license (Commercial License) --><path d="M0 128V384C0 419 29 448 64 448H371C388 448 404 441 416 429L567 279C579 266 579 246 567 233L416 83C404 71 388 64 371 64H64C29 64 0 93 0 128ZM16 128C16 102 38 80 64 80H371C384 80 396 85 405 94L555 245C558 248 560 252 560 256C560 260 558 264 555 267L405 418C396 427 384 432 371 432H64C38 432 16 410 16 384V128ZM130 174L213 256L130 338C127 341 127 347 130 350C132 351 134 352 136 352S140 351 142 350L224 267L306 350C308 351 310 352 312 352S316 351 318 350C321 347 321 341 318 338L235 256L318 174C321 171 321 165 318 162S309 159 306 162L224 245L142 162C139 159 133 159 130 162S127 171 130 174Z"/></svg>