<svg xmlns="http://www.w3.org/2000/svg" viewBox="0 0 640 512"><!-- Font Awesome Pro 6.0.0-alpha1 by @fontawesome - https://fontawesome.com License - https://fontawesome.com/license (Commercial License) --><path d="M639 276L603 212C584 180 550 160 512 160H260L188 84C205 62 207 32 191 8C188 4 184 1 178 1C173 0 168 2 164 6L129 40L93 5C90 1 86 0 81 0C76 1 72 3 69 7C55 29 58 57 76 76C78 77 79 78 81 79L8 174C-1 186 -3 202 4 215L18 243C25 256 38 264 53 264H83C93 264 103 260 110 253L139 226L192 328V473C192 494 210 512 231 512H257C279 512 296 494 296 473V416H441V473C441 494 459 512 480 512H504C526 512 543 494 543 473L544 232C544 213 536 195 523 181C521 179 519 178 517 177C547 178 574 194 589 220L625 284C627 287 629 288 632 288C633 288 635 288 636 287C640 285 641 280 639 276ZM527 473C527 486 517 496 504 496H480C467 496 457 486 457 473V400H280V473C280 486 270 496 257 496H231C218 496 208 486 208 473V336H527L527 473ZM528 232L528 320H205L144 200L99 241C95 246 89 248 83 248H53C44 248 36 243 33 235L18 208C15 200 15 191 21 184L99 82L103 74L95 69C92 68 89 66 87 64C75 51 73 31 82 16L129 63L176 17L178 17C191 36 188 62 172 79L166 84L253 176H472C487 176 501 182 511 192C522 203 528 217 528 232ZM304 248H280V224C280 220 276 216 272 216S264 220 264 224V248H240C236 248 232 252 232 256S236 264 240 264H264V288C264 292 268 296 272 296S280 292 280 288V264H304C308 264 312 260 312 256S308 248 304 248ZM400 248H376V224C376 220 372 216 368 216S360 220 360 224V248H336C332 248 328 252 328 256S332 264 336 264H360V288C360 292 364 296 368 296S376 292 376 288V264H400C404 264 408 260 408 256S404 248 400 248ZM496 248H472V224C472 220 468 216 464 216S456 220 456 224V248H432C428 248 424 252 424 256S428 264 432 264H456V288C456 292 460 296 464 296S472 292 472 288V264H496C500 264 504 260 504 256S500 248 496 248Z"/></svg>