<svg xmlns="http://www.w3.org/2000/svg" viewBox="0 0 640 512"><!-- Font Awesome Pro 6.0.0-alpha1 by @fontawesome - https://fontawesome.com License - https://fontawesome.com/license (Commercial License) --><path d="M416 32C382 32 349 40 320 54C291 40 258 32 224 32C100 32 0 132 0 256S100 480 224 480C258 480 291 472 320 458C349 472 382 480 416 480C540 480 640 380 640 256S540 32 416 32ZM399 144H241C261 114 288 89 320 72C352 89 379 114 399 144ZM408 352H232C218 325 210 296 209 264H431C430 296 422 325 408 352ZM209 248C210 216 218 187 232 160H408C422 187 430 216 431 248H209ZM224 464C109 464 16 371 16 256S109 48 224 48C252 48 278 54 302 63C236 102 192 174 192 256S236 410 302 449C278 458 252 464 224 464ZM241 368H399C379 398 352 423 320 440C288 423 261 398 241 368ZM416 464C388 464 362 458 338 449C404 410 448 338 448 256S404 102 338 63C362 54 388 48 416 48C531 48 624 141 624 256S531 464 416 464Z"/></svg>