<svg xmlns="http://www.w3.org/2000/svg" viewBox="0 0 576 512"><!-- Font Awesome Pro 6.0.0-alpha1 by @fontawesome - https://fontawesome.com License - https://fontawesome.com/license (Commercial License) --><path d="M107 139A32 32 0 1 0 84 130A32 32 0 0 0 107 139ZM96 96A16 16 0 0 1 118 96A16 16 0 1 1 91 107A16 16 0 0 1 96 96ZM288 64A32 32 0 1 0 256 32A32 32 0 0 0 288 64ZM288 16A16 16 0 1 1 272 32A16 16 0 0 1 288 16ZM544 256A32 32 0 1 0 576 288A32 32 0 0 0 544 256ZM544 304A16 16 0 1 1 560 288A16 16 0 0 1 544 304ZM469 437A32 32 0 1 0 492 446A32 32 0 0 0 469 437ZM480 480A16 16 0 0 1 453 469A16 16 0 0 1 485 469A16 16 0 0 1 480 480ZM32 256A32 32 0 1 0 64 288A32 32 0 0 0 32 256ZM32 304A16 16 0 1 1 48 288A16 16 0 0 1 32 304ZM107 437A32 32 0 1 0 130 446A32 32 0 0 0 107 437ZM118 480A16 16 0 1 1 118 458A16 16 0 0 1 118 480ZM401 175A160 160 0 1 0 401 401A160 160 0 0 0 401 175ZM390 390A144 144 0 0 1 193 395L294 294A8 8 0 0 0 282 282L181 384A144 144 0 1 1 390 390ZM469 75A32 32 0 1 0 492 84A32 32 0 0 0 469 75ZM480 118A16 16 0 1 1 485 107A16 16 0 0 1 480 118Z"/></svg>