<svg xmlns="http://www.w3.org/2000/svg" viewBox="0 0 640 512"><!-- Font Awesome Pro 6.0.0-alpha1 by @fontawesome - https://fontawesome.com License - https://fontawesome.com/license (Commercial License) --><path d="M600 192H488C484 192 480 196 480 200S484 208 488 208H600C613 208 624 219 624 232V472C624 485 613 496 600 496H360C347 496 336 485 336 472V424C336 420 332 416 328 416S320 420 320 424V472C320 494 338 512 360 512H600C622 512 640 494 640 472V232C640 210 622 192 600 192ZM480 384C498 384 512 370 512 352S498 320 480 320S448 334 448 352S462 384 480 384ZM480 336C489 336 496 343 496 352S489 368 480 368S464 361 464 352S471 336 480 336ZM434 189L259 14C249 5 237 0 224 0S199 5 189 14L14 189C-5 209 -5 239 14 259L189 434C199 443 211 448 224 448S249 443 259 434L434 259C453 239 453 209 434 189ZM422 247L248 422C241 429 233 432 224 432S207 429 201 422L26 247C13 235 13 213 26 201L201 26C207 19 215 16 224 16S241 19 247 26L422 201C435 213 435 235 422 247ZM112 192C94 192 80 206 80 224S94 256 112 256S144 242 144 224S130 192 112 192ZM112 240C103 240 96 233 96 224S103 208 112 208S128 215 128 224S121 240 112 240ZM224 304C206 304 192 318 192 336S206 368 224 368S256 354 256 336S242 304 224 304ZM224 352C215 352 208 345 208 336S215 320 224 320S240 327 240 336S233 352 224 352ZM224 192C206 192 192 206 192 224S206 256 224 256S256 242 256 224S242 192 224 192ZM224 240C215 240 208 233 208 224S215 208 224 208S240 215 240 224S233 240 224 240ZM224 80C206 80 192 94 192 112S206 144 224 144S256 130 256 112S242 80 224 80ZM224 128C215 128 208 121 208 112S215 96 224 96S240 103 240 112S233 128 224 128ZM336 192C318 192 304 206 304 224S318 256 336 256S368 242 368 224S354 192 336 192ZM336 240C327 240 320 233 320 224S327 208 336 208S352 215 352 224S345 240 336 240Z"/></svg>