<svg xmlns="http://www.w3.org/2000/svg" viewBox="0 0 512 512"><!-- Font Awesome Pro 6.0.0-alpha1 by @fontawesome - https://fontawesome.com License - https://fontawesome.com/license (Commercial License) --><path d="M502 232L280 10C273 3 265 0 256 0S239 3 232 10L10 232C-3 245 -3 267 10 280L232 502C239 509 247 512 256 512S273 509 280 502L502 280C515 267 515 245 502 232ZM248 494C246 493 245 492 243 491L23 270L248 358V494ZM248 340L17 251C18 248 19 246 21 243L243 21C245 20 246 19 248 18V340ZM269 491C267 492 266 493 264 494V358L489 271L269 491ZM264 340V18C266 19 267 20 269 21L491 243C493 246 494 248 495 251L264 340Z"/></svg>