<svg xmlns="http://www.w3.org/2000/svg" viewBox="0 0 512 512"><!-- Font Awesome Pro 6.0.0-alpha1 by @fontawesome - https://fontawesome.com License - https://fontawesome.com/license (Commercial License) --><path d="M505 289L281 12C274 4 265 0 256 0S238 4 231 12L7 289C-4 303 -2 324 13 335L237 505C242 510 249 512 256 512S270 510 275 505L499 335C514 324 516 303 505 289ZM248 493C247 493 247 493 246 493L22 322C19 319 17 315 16 311C16 307 17 302 20 299L244 22C245 20 246 19 248 18V493ZM490 322L266 493C265 493 265 493 264 493V18C266 19 267 20 268 22L492 299C495 302 496 307 496 311C495 315 493 319 490 322Z"/></svg>