<svg xmlns="http://www.w3.org/2000/svg" viewBox="0 0 512 512"><!-- Font Awesome Pro 6.0.0-alpha1 by @fontawesome - https://fontawesome.com License - https://fontawesome.com/license (Commercial License) --><path d="M472 196L405 173C386 166 372 152 367 135L351 74C344 47 317 32 289 32C272 32 254 38 241 52L195 99C183 112 165 119 147 119C145 119 143 119 141 119L69 113C67 113 65 113 63 113C14 113 -17 159 10 196L48 248C59 263 61 282 53 298L25 355C6 392 39 431 82 431C87 431 93 430 98 429L168 414C173 413 179 412 184 412C199 412 213 417 225 426L279 466C292 476 306 480 321 480C352 480 382 460 384 429L389 367C390 350 401 334 419 324L481 293C526 270 521 213 472 196ZM474 278L412 310C389 322 374 343 373 366L368 428C366 451 343 464 321 464C309 464 298 460 289 454L235 413C220 402 202 396 184 396C177 396 171 397 165 398L95 414C91 414 86 415 82 415C65 415 48 406 40 393C36 387 32 376 39 363L67 306C78 284 76 259 61 239L23 186C12 172 16 159 20 153C27 138 44 129 63 129C64 129 66 129 68 129L139 135C142 135 144 135 147 135C170 135 192 126 206 110L253 63C262 53 275 48 289 48C308 48 330 57 336 78L352 139C358 161 376 180 400 188L467 211C484 217 495 229 496 244C497 258 489 271 474 278ZM160 184C138 184 120 202 120 224C120 246 138 264 160 264S200 246 200 224C200 202 182 184 160 184ZM160 248C147 248 136 237 136 224S147 200 160 200S184 211 184 224S173 248 160 248ZM288 280C266 280 248 298 248 320C248 342 266 360 288 360S328 342 328 320C328 298 310 280 288 280ZM288 344C275 344 264 333 264 320S275 296 288 296S312 307 312 320S301 344 288 344ZM304 224C313 224 320 217 320 208S313 192 304 192S288 199 288 208S295 224 304 224Z"/></svg>