<svg xmlns="http://www.w3.org/2000/svg" viewBox="0 0 640 512"><!-- Font Awesome Pro 6.0.0-alpha1 by @fontawesome - https://fontawesome.com License - https://fontawesome.com/license (Commercial License) --><path d="M544 342V64H194L214 80H528V329L544 342ZM560 16C578 16 592 30 592 48V368C592 372 591 375 590 379L603 389C606 383 608 376 608 368V48C608 22 587 0 560 0H114L134 16H560ZM472 496H406L379 416H406L385 400H80C62 400 48 386 48 368V132L32 119V368C32 394 54 416 80 416H261L234 496H168C164 496 160 500 160 504S164 512 168 512H472C476 512 480 508 480 504S476 496 472 496ZM251 496L278 416H362L389 496H251ZM96 170V352H325L305 336H112V183L96 170ZM637 498L13 2C12 1 10 0 8 0C6 0 3 1 2 3C-1 6 0 12 3 14L627 510C629 511 630 512 632 512C634 512 637 511 638 509C641 506 640 500 637 498Z"/></svg>