<svg xmlns="http://www.w3.org/2000/svg" viewBox="0 0 576 512"><!-- Font Awesome Pro 6.0.0-alpha1 by @fontawesome - https://fontawesome.com License - https://fontawesome.com/license (Commercial License) --><path d="M64 352H512V64H64V352ZM80 80H496V336H80V80ZM528 0H48C22 0 0 22 0 48V368C0 394 22 416 48 416H229L202 496H136C132 496 128 500 128 504S132 512 136 512H440C444 512 448 508 448 504S444 496 440 496H374L347 416H528C554 416 576 394 576 368V48C576 22 554 0 528 0ZM357 496H219L246 416H330L357 496ZM560 368C560 386 546 400 528 400H48C30 400 16 386 16 368V48C16 30 30 16 48 16H528C546 16 560 30 560 48V368ZM368 168H328V128C328 115 317 104 304 104H272C259 104 248 115 248 128V168H208C195 168 184 179 184 192V224C184 237 195 248 208 248H248V288C248 301 259 312 272 312H304C317 312 328 301 328 288V248H368C381 248 392 237 392 224V192C392 179 381 168 368 168ZM376 224C376 228 372 232 368 232H312V288C312 292 308 296 304 296H272C268 296 264 292 264 288V232H208C204 232 200 228 200 224V192C200 188 204 184 208 184H264V128C264 124 268 120 272 120H304C308 120 312 124 312 128V184H368C372 184 376 188 376 192V224Z"/></svg>