<svg xmlns="http://www.w3.org/2000/svg" viewBox="0 0 320 512"><!-- Font Awesome Pro 6.0.0-alpha1 by @fontawesome - https://fontawesome.com License - https://fontawesome.com/license (Commercial License) --><path d="M288 348C288 394 250 432 204 432H168V504C168 508 164 512 160 512S152 508 152 504V432H133C107 432 82 425 61 411C57 409 56 404 58 400C60 397 65 395 69 398C88 410 110 416 133 416H204C241 416 272 385 272 348C272 316 251 289 220 281L96 246C58 237 32 203 32 164C32 118 70 80 116 80H152V8C152 4 156 0 160 0S168 4 168 8V80H187C213 80 238 87 259 101C263 103 264 108 262 112C260 115 255 117 251 114C232 102 210 96 187 96H116C79 96 48 127 48 164C48 196 69 223 100 231L224 266C262 275 288 309 288 348Z"/></svg>