<svg xmlns="http://www.w3.org/2000/svg" viewBox="0 0 576 512"><!-- Font Awesome Pro 6.0.0-alpha1 by @fontawesome - https://fontawesome.com License - https://fontawesome.com/license (Commercial License) --><path d="M568 496H480V56C480 25 455 0 424 0H152C121 0 96 25 96 56V496H8C4 496 0 500 0 504S4 512 8 512H568C572 512 576 508 576 504S572 496 568 496ZM464 496H112V56C112 34 130 16 152 16H424C446 16 464 34 464 56V496ZM384 216C362 216 344 234 344 256S362 296 384 296S424 278 424 256S406 216 384 216ZM384 280C371 280 360 269 360 256S371 232 384 232S408 243 408 256S397 280 384 280Z"/></svg>