<svg xmlns="http://www.w3.org/2000/svg" viewBox="0 0 512 512"><!-- Font Awesome Pro 6.0.0-alpha1 by @fontawesome - https://fontawesome.com License - https://fontawesome.com/license (Commercial License) --><path d="M165 95C169 97 174 94 176 90C185 63 198 39 216 18C218 16 220 16 221 16C222 16 225 18 226 21C232 62 248 100 274 133C275 135 278 136 280 136C282 136 283 135 285 134C288 132 289 127 286 123C263 93 247 56 242 19C240 10 234 3 226 1C217 -2 209 1 204 8C185 30 170 56 160 85C159 89 161 94 165 95ZM496 64H400C356 64 320 100 320 144V203C216 197 127 133 87 42C84 35 78 32 72 32C66 32 61 35 58 41C42 74 33 111 32 150C31 208 52 265 88 311C111 339 134 359 156 375L12 411C1 414 -3 426 3 436C20 463 63 508 156 512C156 512 156 512 157 512C164 512 172 509 178 504L243 448H320C408 448 480 376 480 288V128L510 87C516 76 508 64 496 64ZM464 124V288C464 367 399 432 320 432H237L233 436L167 492C164 495 161 496 156 496H156C71 493 32 451 16 427L160 391L193 383L166 362C151 352 139 342 128 331C77 282 48 218 48 157C48 119 56 82 72 48C72 48 72 48 72 48L72 48C116 147 210 213 319 219L336 220V144C336 109 365 80 400 80H496L464 124ZM384 144C384 153 391 160 400 160S416 153 416 144C416 135 409 128 400 128S384 135 384 144Z"/></svg>