<svg xmlns="http://www.w3.org/2000/svg" viewBox="0 0 512 512"><!-- Font Awesome Pro 6.0.0-alpha1 by @fontawesome - https://fontawesome.com License - https://fontawesome.com/license (Commercial License) --><path d="M292 240H405C428 240 442 212 424 194L376 147L486 37C489 34 489 29 486 26S477 23 474 26L365 135L318 88C300 70 272 84 272 107V220C272 231 281 240 292 240ZM288 107C288 98 299 92 306 99L413 206C420 213 414 224 405 224H292C290 224 288 222 288 220V107ZM220 272H107C84 272 70 300 88 317L136 365L26 474C23 477 23 482 26 485C28 487 30 488 32 488S36 487 38 485L112 411L147 376L195 424C212 442 240 427 240 405V292C240 281 231 272 220 272ZM224 405C224 414 213 419 206 412L99 306C92 299 98 288 107 288H220C222 288 224 289 224 292V405Z"/></svg>