<svg xmlns="http://www.w3.org/2000/svg" viewBox="0 0 640 512"><!-- Font Awesome Pro 6.0.0-alpha1 by @fontawesome - https://fontawesome.com License - https://fontawesome.com/license (Commercial License) --><path d="M27 260L158 237L98 281C91 287 89 297 93 306C96 314 105 320 114 320H328C332 320 336 316 336 312S332 304 328 304H114C108 304 105 296 108 293L195 229C198 227 199 223 198 220C196 216 193 214 189 215L24 244C18 245 13 237 19 232L130 124C148 109 174 108 194 121L307 200C311 202 316 201 319 198C321 194 320 189 317 187L203 107C177 91 143 93 120 112L8 220C0 227 -2 237 2 247C6 256 16 262 27 260ZM485 72L533 88C534 88 535 88 536 88C539 88 542 86 544 83C545 78 543 74 539 72L491 56C486 55 482 57 480 61C479 66 481 70 485 72ZM575 290L474 240C458 231 448 215 448 197V160H512L540 183C546 189 554 192 563 192H594C606 192 617 185 622 174L637 146C642 135 641 122 634 112L559 13C553 5 543 0 533 0H296C289 0 285 9 290 14L352 64L292 89C286 92 286 100 292 103L352 128V237C352 309 388 376 448 416C252 423 104 457 14 477C6 479 0 486 0 494C0 504 8 512 18 512H517C580 512 636 465 640 401C642 354 617 311 575 290ZM517 496H18C16 496 15 493 17 493L26 491C114 471 260 438 449 432L498 430L457 403C401 366 368 304 368 237V117L317 96L383 69L319 16H533C538 16 543 18 546 22L621 122C624 127 625 133 622 138L608 167C605 173 600 176 594 176H563C558 176 554 174 551 171L518 144H443L422 122C418 119 413 119 410 122S407 131 410 134L432 155V197C432 221 446 243 467 254L568 304C605 323 626 359 624 400C621 453 573 496 517 496Z"/></svg>