<svg xmlns="http://www.w3.org/2000/svg" viewBox="0 0 448 512"><!-- Font Awesome Pro 6.0.0-alpha1 by @fontawesome - https://fontawesome.com License - https://fontawesome.com/license (Commercial License) --><path d="M408 385V127C431 123 448 104 448 80C448 54 426 32 400 32C376 32 357 49 353 72H95C91 49 72 32 48 32C22 32 0 54 0 80C0 104 17 123 40 127V385C17 389 0 408 0 432C0 458 22 480 48 480C72 480 91 463 95 440H353C357 463 376 480 400 480C426 480 448 458 448 432C448 408 431 389 408 385ZM400 48C418 48 432 62 432 80S418 112 400 112S368 98 368 80S382 48 400 48ZM16 80C16 62 30 48 48 48S80 62 80 80S66 112 48 112S16 98 16 80ZM48 464C30 464 16 450 16 432S30 400 48 400S80 414 80 432S66 464 48 464ZM353 424H95C92 404 76 388 56 385V127C76 124 92 108 95 88H353C356 108 372 124 392 127V385C372 388 356 404 353 424ZM400 464C382 464 368 450 368 432S382 400 400 400S432 414 432 432S418 464 400 464Z"/></svg>