<svg xmlns="http://www.w3.org/2000/svg" viewBox="0 0 512 512"><!-- Font Awesome Pro 6.0.0-alpha1 by @fontawesome - https://fontawesome.com License - https://fontawesome.com/license (Commercial License) --><path d="M400 152C422 152 440 134 440 112S422 72 400 72S360 90 360 112C360 120 363 127 367 134L336 165C331 162 326 160 320 160H192C186 160 181 162 176 165L145 134C149 127 152 120 152 112C152 90 134 72 112 72S72 90 72 112S90 152 112 152C120 152 127 149 134 145L165 176C162 181 160 186 160 192V320C160 326 162 331 165 336L134 367C127 363 120 360 112 360C90 360 72 378 72 400S90 440 112 440S152 422 152 400C152 392 149 385 145 378L176 347C181 350 186 352 192 352H320C326 352 331 350 336 347L367 378C363 385 360 392 360 400C360 422 378 440 400 440S440 422 440 400S422 360 400 360C392 360 385 363 379 367L347 336C350 331 352 326 352 320V192C352 186 350 181 347 176L378 145C385 149 392 152 400 152ZM112 136C99 136 88 125 88 112S99 88 112 88S136 99 136 112S125 136 112 136ZM112 424C99 424 88 413 88 400S99 376 112 376S136 387 136 400S125 424 112 424ZM400 376C413 376 424 387 424 400S413 424 400 424S376 413 376 400S387 376 400 376ZM336 320C336 329 329 336 320 336H192C183 336 176 329 176 320V192C176 183 183 176 192 176H320C329 176 336 183 336 192V320ZM400 88C413 88 424 99 424 112S413 136 400 136S376 125 376 112S387 88 400 88ZM296 112C300 112 304 109 304 105C308 54 352 14 404 16C453 18 494 59 496 108C498 160 458 204 407 208C403 208 400 212 400 216C400 220 404 224 409 224C471 219 518 164 511 99C506 48 464 6 413 1C348 -6 293 41 288 103C288 108 292 112 296 112ZM103 224C108 224 112 220 112 216C112 212 109 208 105 208C54 204 14 160 16 108C18 59 59 18 108 16C160 14 204 54 208 105C208 109 212 112 216 112C220 112 224 108 224 103C219 41 164 -6 99 1C48 6 6 48 1 99C-6 164 41 219 103 224ZM409 288C404 288 400 292 400 296C400 300 403 304 407 304C458 308 498 352 496 404C494 453 453 494 404 496C352 498 308 458 304 407C304 403 300 400 296 400C292 400 288 404 288 409C293 471 348 518 413 511C464 506 506 464 511 413C518 348 471 293 409 288ZM216 400C212 400 208 403 208 407C204 458 160 498 108 496C59 494 18 453 16 404C14 352 54 308 105 304C109 304 112 300 112 296C112 292 108 288 103 288C41 293 -6 348 1 413C6 464 48 506 99 511C164 518 219 471 224 409C224 404 220 400 216 400Z"/></svg>