<svg xmlns="http://www.w3.org/2000/svg" viewBox="0 0 640 512"><!-- Font Awesome Pro 6.0.0-alpha1 by @fontawesome - https://fontawesome.com License - https://fontawesome.com/license (Commercial License) --><path d="M306 27C309 17 317 16 320 16C325 16 332 19 334 27C357 104 392 154 422 198C444 229 462 255 472 285L493 301C476 212 391 164 349 22C345 8 333 0 320 0C308 0 295 7 291 22C280 57 268 86 254 111L267 122C281 95 295 64 306 27ZM320 496C232 496 160 423 160 334C160 299 171 271 188 243L175 233C157 263 144 294 144 334C144 432 223 512 320 512C372 512 419 489 451 452L438 442C409 475 367 496 320 496ZM637 498L13 2C12 1 10 0 8 0C6 0 3 1 2 3C-1 6 0 12 3 14L627 510C629 511 630 512 632 512C634 512 637 511 638 509C641 506 640 500 637 498Z"/></svg>