<svg xmlns="http://www.w3.org/2000/svg" viewBox="0 0 576 512"><!-- Font Awesome Pro 6.0.0-alpha1 by @fontawesome - https://fontawesome.com License - https://fontawesome.com/license (Commercial License) --><path d="M288 32C129 32 0 82 0 144V368C0 430 129 480 288 480S576 430 576 368V144C576 82 447 32 288 32ZM560 144C560 178 496 216 395 232C378 206 368 176 368 144S378 82 395 56C496 72 560 110 560 144ZM224 143C238 163 262 176 288 176S338 163 352 143C352 143 352 144 352 144C352 177 362 208 378 234C350 238 320 240 288 240S226 238 198 234C214 208 224 177 224 144C224 144 224 143 224 143ZM373 53L346 120C337 144 314 160 288 160S239 144 230 120L203 53C200 53 254 48 288 48S376 53 373 53ZM181 56C198 82 208 112 208 144S198 206 181 232C80 216 16 178 16 144S80 72 181 56ZM560 368C560 413 448 464 288 464S16 413 16 368V261C55 304 162 336 288 336S521 304 560 261V368ZM560 224C560 269 448 320 288 320S16 269 16 224V181C55 224 162 256 288 256S521 224 560 181V224Z"/></svg>