<svg xmlns="http://www.w3.org/2000/svg" viewBox="0 0 512 512"><!-- Font Awesome Pro 6.0.0-alpha1 by @fontawesome - https://fontawesome.com License - https://fontawesome.com/license (Commercial License) --><path d="M463 50C430 17 386 0 343 0C300 0 256 17 223 50C188 85 160 128 160 192V278L119 318C113 324 105 327 97 327C92 327 87 326 83 324C75 321 68 320 60 320C41 320 21 330 10 347C-6 371 -3 403 18 423C29 435 44 440 59 440C64 440 69 439 74 438C69 458 74 479 89 494C101 506 116 512 132 512C143 512 155 509 165 502C189 486 198 456 188 429C183 417 184 402 194 392L234 352H320C321 352 321 352 321 352C338 352 354 350 370 346C376 344 378 338 375 333C343 289 345 229 383 191C404 170 431 160 458 160C473 160 487 163 501 169C506 171 512 167 512 161C510 120 494 81 463 50ZM458 144C425 144 395 157 372 180C331 220 325 284 355 333C344 335 332 336 320 336L208 336C204 336 200 340 200 344C200 344 200 344 200 344C200 348 204 352 208 352L212 352L182 381C169 395 165 416 173 435C181 455 174 477 156 489C149 493 140 496 132 496C120 496 109 491 100 483C90 472 86 458 89 442C91 436 89 431 85 427C82 424 78 422 74 422C73 422 71 422 70 423C67 423 63 424 59 424C51 424 39 422 29 412C14 397 12 374 23 356C32 344 45 336 60 336C66 336 72 337 77 339C84 342 90 343 97 343C110 343 122 338 131 330L160 301V304C160 308 164 312 168 312H168C173 312 176 308 176 304L176 192C176 142 194 101 235 61C264 32 302 16 343 16C384 16 423 32 452 61C476 85 491 116 495 150C483 146 471 144 458 144Z"/></svg>