<svg xmlns="http://www.w3.org/2000/svg" viewBox="0 0 448 512"><!-- Font Awesome Pro 6.0.0-alpha1 by @fontawesome - https://fontawesome.com License - https://fontawesome.com/license (Commercial License) --><path d="M160 112C169 112 176 105 176 96C176 87 169 80 160 80S144 87 144 96C144 105 151 112 160 112ZM112 96C112 87 105 80 96 80S80 87 80 96C80 105 87 112 96 112S112 105 112 96ZM384 0H64C29 0 0 29 0 64V448C0 483 29 512 64 512H384C419 512 448 483 448 448V64C448 29 419 0 384 0ZM432 448C432 474 410 496 384 496H64C38 496 16 474 16 448V64C16 38 38 16 64 16H384C410 16 432 38 432 64V448ZM224 168C149 168 88 229 88 304S149 440 224 440S360 379 360 304S299 168 224 168ZM224 424C158 424 104 370 104 304S158 184 224 184S344 238 344 304S290 424 224 424ZM265 310C274 303 284 294 284 277C284 260 274 252 265 245C259 239 255 236 253 230C252 227 249 224 245 224H245C240 224 236 229 237 234C240 245 248 251 255 257C263 264 268 268 268 277C268 287 263 291 255 298C246 305 236 314 236 331S246 357 255 364C261 369 265 373 267 378C268 381 271 384 275 384H275C280 384 284 379 283 374C280 363 272 357 265 351C257 344 252 340 252 331C252 322 257 317 265 310ZM193 310C202 303 212 294 212 277C212 260 202 252 193 245C187 239 183 236 181 230C180 227 177 224 173 224H173C168 224 164 229 165 234C168 245 176 251 183 257C191 264 196 268 196 277C196 287 191 291 183 298C174 305 164 314 164 331S174 357 183 364C189 369 193 373 195 378C196 381 199 384 203 384H203C208 384 212 379 211 374C208 363 200 357 193 351C185 344 180 340 180 331C180 322 185 317 193 310Z"/></svg>