<svg xmlns="http://www.w3.org/2000/svg" viewBox="0 0 448 512"><!-- Font Awesome Pro 6.0.0-alpha1 by @fontawesome - https://fontawesome.com License - https://fontawesome.com/license (Commercial License) --><path d="M384 0H64C29 0 0 29 0 64V448C0 483 29 512 64 512H384C419 512 448 483 448 448V64C448 29 419 0 384 0ZM432 448C432 474 410 496 384 496H64C38 496 16 474 16 448V64C16 38 38 16 64 16H384C410 16 432 38 432 64V448ZM112 96C112 87 105 80 96 80S80 87 80 96C80 105 87 112 96 112S112 105 112 96ZM160 112C169 112 176 105 176 96C176 87 169 80 160 80S144 87 144 96C144 105 151 112 160 112ZM224 168C149 168 88 229 88 304S149 440 224 440S360 379 360 304S299 168 224 168ZM224 424C161 424 109 374 105 312H184C188 312 192 308 192 304S188 296 184 296H105C109 234 161 184 224 184C290 184 344 238 344 304S290 424 224 424Z"/></svg>