<svg xmlns="http://www.w3.org/2000/svg" viewBox="0 0 576 512"><!-- Font Awesome Pro 6.0.0-alpha1 by @fontawesome - https://fontawesome.com License - https://fontawesome.com/license (Commercial License) --><path d="M24 160H552C560 160 567 157 571 150C576 144 577 137 575 129L552 49C549 39 540 32 529 32H47C36 32 27 39 24 49L1 129C-1 137 0 144 5 150C9 157 16 160 24 160ZM529 48C533 48 536 50 537 54L560 134C560 136 560 139 558 141C557 143 555 144 552 144H452L428 48H529ZM296 48H412L436 144H296V48ZM280 48V144H140L164 48H280ZM39 54C40 50 43 48 47 48H148L124 144H24C21 144 19 143 18 141C16 139 16 136 16 134L39 54ZM568 248H537L544 201C545 197 541 193 537 192C532 192 529 195 528 199L498 416H78L48 199C47 195 44 192 39 192C35 193 31 197 32 201L39 248H8C4 248 0 252 0 256S4 264 8 264H40C40 264 40 264 41 264L63 425C64 429 67 432 71 432H96V472C96 476 100 480 104 480C108 480 112 476 112 472V432H464V472C464 476 468 480 472 480S480 476 480 472V432H505C509 432 512 429 513 425L535 264C536 264 536 264 536 264H568C572 264 576 260 576 256S572 248 568 248Z"/></svg>