<svg xmlns="http://www.w3.org/2000/svg" viewBox="0 0 512 512"><!-- Font Awesome Pro 6.0.0-alpha1 by @fontawesome - https://fontawesome.com License - https://fontawesome.com/license (Commercial License) --><path d="M360 254C364 254 368 250 368 246V230C368 163 314 110 248 110S128 163 128 230V246C128 250 132 254 136 254S144 250 144 246V230C144 172 191 126 248 126S352 172 352 230V246C352 250 356 254 360 254ZM248 46C147 46 64 128 64 230V246C64 250 68 254 72 254S80 250 80 246V230C80 137 155 62 248 62S416 137 416 230C416 287 394 341 354 382L352 384L351 387C345 448 293 494 232 494C228 494 224 497 224 502S228 510 232 510C301 510 358 459 367 391C409 348 432 290 432 230C432 128 349 46 248 46ZM178 320L2 496C-1 499 -1 504 2 507C4 509 6 510 8 510S12 509 14 507L190 331C193 328 193 323 190 320S181 317 178 320ZM510 0C507 -3 501 -3 498 0L418 80C415 83 415 88 418 91C420 93 422 94 424 94S428 93 430 91L510 11C513 8 513 3 510 0Z"/></svg>