<svg xmlns="http://www.w3.org/2000/svg" viewBox="0 0 384 512"><!-- Font Awesome Pro 6.0.0-alpha1 by @fontawesome - https://fontawesome.com License - https://fontawesome.com/license (Commercial License) --><path d="M192 0C86 0 0 86 0 192V368C0 447 65 512 144 512S288 447 288 368V358C345 325 384 263 384 192C384 86 298 0 192 0ZM280 344L272 349V368C272 439 215 496 144 496C73 496 16 439 16 368V192C16 95 95 16 192 16S368 95 368 192C368 254 334 313 280 344ZM280 99C254 75 221 62 185 64C118 68 64 128 64 199V256H86C100 256 112 268 112 282C112 289 109 295 104 300L66 338C63 341 63 347 66 350C68 351 70 352 72 352S76 351 78 350L116 312C124 304 128 293 128 282C128 259 109 240 86 240H80V199C80 136 128 83 186 80C217 78 247 89 269 111C292 132 304 161 304 192C304 196 308 200 312 200S320 196 320 192C320 157 306 124 280 99Z"/></svg>