<svg xmlns="http://www.w3.org/2000/svg" viewBox="0 0 512 512"><!-- Font Awesome Pro 6.0.0-alpha1 by @fontawesome - https://fontawesome.com License - https://fontawesome.com/license (Commercial License) --><path d="M256 16C123 16 16 123 16 256S123 496 256 496S496 389 496 256S389 16 256 16ZM256 480C132 480 32 380 32 256S132 32 256 32S480 132 480 256S380 480 256 480ZM422 344H418C415 344 412 343 410 341L393 324C386 317 375 312 365 312H349L309 277C299 269 286 264 274 264H243C233 264 224 267 215 272L172 298C156 307 146 325 146 344V368C146 384 154 400 167 410L190 427C200 435 217 440 230 440H250C254 440 258 444 258 448S262 455 266 455H266C271 455 274 451 274 447C273 434 263 424 250 424H230C221 424 207 420 199 414L177 397C168 390 162 379 162 367V344C162 330 169 318 180 311L223 286C229 282 236 280 243 280H274C283 280 291 284 298 289L341 326C343 328 345 328 346 328H365C371 328 377 331 382 335L399 353C404 358 411 360 418 360H422C426 360 430 357 430 352S426 344 422 344ZM165 168C171 168 176 166 179 163L189 153C192 150 194 145 194 140V124C194 113 185 104 175 104C170 104 165 106 161 110L136 135C132 139 130 144 130 149C130 160 139 168 149 168H165ZM146 149C146 148 146 147 147 147C147 147 147 147 147 147L172 122C173 121 174 120 175 120C177 120 178 122 178 124V140C178 141 178 142 177 142L168 152C167 152 166 152 165 152H149C148 152 146 151 146 149ZM437 312H425C423 312 421 312 419 310L387 277C386 276 386 273 387 272L400 259C401 258 402 256 402 254V245C402 240 400 235 396 231L387 222C383 218 378 216 373 216H357C356 216 354 215 354 213C354 212 354 211 355 211L365 201C365 201 366 200 367 200H399C409 200 418 192 418 181V172C418 161 409 152 399 152H362C349 152 338 163 338 176V181C338 184 336 187 333 189L301 199C294 201 290 207 290 214L290 216H274C274 208 267 200 258 200H255C249 200 244 204 241 209L231 228C230 231 227 232 224 232H202C198 232 194 229 194 224V199C194 197 195 195 196 193L216 173C223 167 226 159 226 150L266 137C269 136 272 134 274 132L300 105C304 102 306 97 306 92C306 81 297 72 287 72H266C264 72 262 73 260 75L244 91C243 92 242 94 242 96L242 104H226L226 84L243 71C247 69 248 64 245 60C242 57 237 56 234 58L217 72C212 75 210 79 210 84V104C210 113 217 120 226 120H242C251 120 258 113 258 104V100L269 88H287C289 88 290 90 290 92C290 93 290 94 289 94L261 122L221 135C214 137 210 143 210 150C210 155 208 159 205 162L185 182C181 187 178 193 178 199V224C178 237 189 248 202 248H224C233 248 241 243 246 235L255 216H258C258 225 265 232 274 232H290C299 232 306 225 306 216L306 214L338 204C339 203 340 203 342 202C339 205 338 209 338 213C338 224 347 232 357 232H373C374 232 375 233 376 233L385 243C386 244 386 245 386 245V250L376 261C368 268 368 281 376 289L408 321C412 326 418 328 425 328H437C441 328 445 325 445 320S441 312 437 312ZM352 192C353 188 354 185 354 181V176C354 172 358 168 362 168H399C401 168 402 170 402 172V181C402 183 401 184 399 184H367C362 184 357 186 353 190L352 192Z"/></svg>