<svg xmlns="http://www.w3.org/2000/svg" viewBox="0 0 512 512"><!-- Font Awesome Pro 6.0.0-alpha1 by @fontawesome - https://fontawesome.com License - https://fontawesome.com/license (Commercial License) --><path d="M478 150C439 110 378 104 334 68C290 32 256 0 200 0C193 0 184 1 175 2C89 16 64 82 50 159C39 224 -4 286 0 352C5 418 53 481 115 503C133 509 149 512 164 512C229 512 273 461 320 417C364 375 413 379 461 342C517 300 533 202 478 150ZM451 330C431 345 411 353 389 361C362 370 335 380 309 405C303 410 298 415 292 421C253 459 215 496 164 496C150 496 136 493 121 488C64 468 20 410 16 351C14 315 27 280 41 242C51 216 61 189 66 162C79 84 104 30 178 18C186 17 193 16 200 16C246 16 276 41 314 73L324 81C346 99 371 109 395 120C422 131 448 142 467 162C487 181 498 209 496 241C494 276 477 310 451 330ZM224 128C162 128 112 178 112 240C112 302 162 352 224 352S336 302 336 240C336 178 286 128 224 128ZM224 336C171 336 128 293 128 240C128 187 171 144 224 144S320 187 320 240C320 293 277 336 224 336ZM224 176C189 176 160 205 160 240C160 245 164 248 168 248S176 245 176 240C176 214 197 192 224 192C228 192 232 189 232 184S228 176 224 176Z"/></svg>