<svg xmlns="http://www.w3.org/2000/svg" viewBox="0 0 640 512"><!-- Font Awesome Pro 6.0.0-alpha1 by @fontawesome - https://fontawesome.com License - https://fontawesome.com/license (Commercial License) --><path d="M528 128C519 128 512 135 512 144C512 153 519 160 528 160S544 153 544 144C544 135 537 128 528 128ZM512 32H455C438 12 412 0 384 0C378 0 372 1 366 2C345 5 327 17 313 32C312 32 312 32 312 32H200C90 32 0 122 0 232V360C0 364 4 368 8 368S16 364 16 360V232C16 130 98 48 200 48H301C296 57 292 67 290 77C280 127 309 171 352 186V192C352 210 366 224 384 224C384 254 404 279 432 286V480C432 489 425 496 416 496H368C359 496 352 489 352 480V377C359 374 366 371 372 367C376 365 377 360 375 356C373 352 368 351 364 353C295 393 201 393 132 353C128 351 123 352 121 356C119 360 120 365 124 367C130 371 137 374 144 377V480C144 489 137 496 128 496H80C71 496 64 489 64 480V232C64 228 60 224 56 224S48 228 48 232V480C48 498 62 512 80 512H128C146 512 160 498 160 480V384C188 394 218 400 248 400S308 394 336 384V480C336 498 350 512 368 512H416C434 512 448 498 448 480V288H512C535 288 557 281 576 270V367C576 376 570 383 561 384C553 385 546 379 544 371C542 360 532 352 521 352H505C490 352 479 365 481 380C486 418 520 448 560 448C566 448 573 447 580 446C616 437 640 403 640 366V160C640 89 583 32 512 32ZM624 364C624 395 604 423 577 430C572 431 566 432 560 432C528 432 501 408 497 377C496 372 500 368 505 368H521C525 368 528 371 529 375C532 390 546 402 563 400C580 398 592 383 592 367V270C592 265 589 259 584 256C582 255 579 254 576 254C573 254 570 255 568 256C550 267 531 272 512 272H448C422 272 400 250 400 224H424C428 224 432 220 432 216S428 208 424 208H384C375 208 368 201 368 192V186C368 179 364 173 357 171C320 157 298 119 306 80C312 49 338 23 369 17C374 16 379 16 384 16C407 16 428 26 444 43C446 46 451 48 455 48H512C574 48 624 98 624 160V364Z"/></svg>