<svg xmlns="http://www.w3.org/2000/svg" viewBox="0 0 512 512"><!-- Font Awesome Pro 6.0.0-alpha1 by @fontawesome - https://fontawesome.com License - https://fontawesome.com/license (Commercial License) --><path d="M448 208C474 208 496 230 496 256S474 304 448 304S400 282 400 256S422 208 448 208M256 208C282 208 304 230 304 256S282 304 256 304S208 282 208 256S230 208 256 208M64 208C90 208 112 230 112 256S90 304 64 304S16 282 16 256S38 208 64 208M448 192C413 192 384 221 384 256S413 320 448 320S512 291 512 256S483 192 448 192L448 192ZM256 192C221 192 192 221 192 256S221 320 256 320S320 291 320 256S291 192 256 192L256 192ZM64 192C29 192 0 221 0 256S29 320 64 320S128 291 128 256S99 192 64 192L64 192Z"/></svg>