<svg xmlns="http://www.w3.org/2000/svg" viewBox="0 0 256 512"><!-- Font Awesome Pro 6.0.0-alpha1 by @fontawesome - https://fontawesome.com License - https://fontawesome.com/license (Commercial License) --><path d="M128 16C154 16 176 38 176 64S154 112 128 112S80 90 80 64S102 16 128 16M128 208C154 208 176 230 176 256S154 304 128 304S80 282 80 256S102 208 128 208M128 400C154 400 176 422 176 448S154 496 128 496S80 474 80 448S102 400 128 400M128 0C93 0 64 29 64 64S93 128 128 128S192 99 192 64S163 0 128 0L128 0ZM128 192C93 192 64 221 64 256S93 320 128 320S192 291 192 256S163 192 128 192L128 192ZM128 384C93 384 64 413 64 448S93 512 128 512S192 483 192 448S163 384 128 384L128 384Z"/></svg>