<svg xmlns="http://www.w3.org/2000/svg" viewBox="0 0 512 512"><!-- Font Awesome Pro 6.0.0-alpha1 by @fontawesome - https://fontawesome.com License - https://fontawesome.com/license (Commercial License) --><path d="M486 26C483 23 477 23 474 26L397 104C360 69 311 48 256 48C141 48 48 141 48 256C48 311 69 360 104 397L26 474C23 477 23 483 26 486C28 487 30 488 32 488S36 487 38 486L115 408C152 443 201 464 256 464C371 464 464 371 464 256C464 201 443 152 408 115L486 38C489 35 489 29 486 26ZM64 256C64 150 150 64 256 64C306 64 352 83 386 115L115 386C83 352 64 306 64 256ZM448 256C448 362 362 448 256 448C206 448 160 429 126 397L397 126C429 160 448 206 448 256Z"/></svg>