<svg xmlns="http://www.w3.org/2000/svg" viewBox="0 0 640 512"><!-- Font Awesome Pro 6.0.0-alpha1 by @fontawesome - https://fontawesome.com License - https://fontawesome.com/license (Commercial License) --><path d="M192 224A32 32 0 1 0 224 256A32 32 0 0 0 192 224ZM192 272A16 16 0 1 1 208 256A16 16 0 0 1 192 272ZM384 224A32 32 0 1 0 416 256A32 32 0 0 0 384 224ZM384 272A16 16 0 1 1 400 256A16 16 0 0 1 384 272ZM608 192H592A32 32 0 0 0 560 224V256H512V208A16 16 0 0 0 506 195L435 139A48 48 0 0 0 405 128H296V80H392A8 8 0 0 0 392 64H184A8 8 0 0 0 184 80H280V128H112A48 48 0 0 0 64 176V248H16V136A8 8 0 0 0 0 136V376A8 8 0 0 0 16 376V264H64V336A48 48 0 0 0 112 384H185L235 434A48 48 0 0 0 269 448H464A48 48 0 0 0 512 400V384H560V416A32 32 0 0 0 592 448H608A32 32 0 0 0 640 416V224A32 32 0 0 0 608 192ZM496 400A32 32 0 0 1 464 432H269A32 32 0 0 1 247 423L197 373L192 368H112A32 32 0 0 1 80 336V176A32 32 0 0 1 112 144H405A32 32 0 0 1 425 151L496 208ZM624 416A16 16 0 0 1 608 432H592A16 16 0 0 1 576 416V368H512V272H576V224A16 16 0 0 1 592 208H608A16 16 0 0 1 624 224ZM288 224A32 32 0 1 0 320 256A32 32 0 0 0 288 224ZM288 272A16 16 0 1 1 304 256A16 16 0 0 1 288 272Z"/></svg>