<svg xmlns="http://www.w3.org/2000/svg" viewBox="0 0 512 512"><!-- Font Awesome Pro 6.0.0-alpha1 by @fontawesome - https://fontawesome.com License - https://fontawesome.com/license (Commercial License) --><path d="M491 178L448 143V104C448 82 430 64 408 64H353L292 13C282 5 269 0 256 0S230 5 220 13L159 64H104C82 64 64 82 64 104V143L21 178C8 189 0 206 0 224V448C0 483 29 512 64 512H448C483 512 512 483 512 448V224C512 206 504 189 491 178ZM448 163L481 191C490 198 499 210 481 225L448 253V163ZM230 25C238 19 247 16 256 16S274 19 282 25L328 64H184L230 25ZM80 104C80 91 91 80 104 80H408C421 80 432 91 432 104V266L282 391C274 397 265 400 256 400S238 397 230 391L80 266V104ZM31 191L64 163V252L31 225C12 210 22 198 31 191ZM496 448C496 474 474 496 448 496H64C38 496 16 474 16 448V232C18 234 19 236 21 238L220 403C230 411 243 416 256 416C269 416 282 411 292 403L491 238C493 236 494 234 496 232V448ZM248 304V320C248 324 252 328 256 328S264 324 264 320V304H274C296 304 314 286 314 263C314 245 302 229 285 224L232 209C221 206 214 196 214 185C214 171 225 160 238 160H272C283 160 293 164 301 172C304 175 309 175 312 172S315 164 312 161C301 150 287 144 272 144H264V128C264 124 260 120 256 120S248 124 248 128V144H238C216 144 198 162 198 185C198 203 210 219 227 224L280 239C291 242 298 252 298 263C298 277 287 288 274 288H240C229 288 219 284 211 276C208 273 203 273 200 276S197 284 200 287C211 298 225 304 240 304H248Z"/></svg>