<svg xmlns="http://www.w3.org/2000/svg" viewBox="0 0 512 512"><!-- Font Awesome Pro 6.0.0-alpha1 by @fontawesome - https://fontawesome.com License - https://fontawesome.com/license (Commercial License) --><path d="M491 178L448 143V104C448 82 430 64 408 64H353L292 13C282 5 269 0 256 0S230 5 220 13L159 64H104C82 64 64 82 64 104V143L21 178C8 189 0 206 0 224V448C0 483 29 512 64 512H448C483 512 512 483 512 448V224C512 206 504 189 491 178ZM448 163L481 191C490 198 499 210 481 225L448 253V163ZM230 25C238 19 247 16 256 16S274 19 282 25L328 64H184L230 25ZM80 104C80 91 91 80 104 80H408C421 80 432 91 432 104V266L282 391C274 397 265 400 256 400S238 397 230 391L80 266V104ZM31 191L64 163V252L31 225C12 210 22 198 31 191ZM496 448C496 474 474 496 448 496H64C38 496 16 474 16 448V232C18 234 19 236 21 238L220 403C230 411 243 416 256 416C269 416 282 411 292 403L491 238C493 236 494 234 496 232V448ZM168 176H344C348 176 352 172 352 168S348 160 344 160H168C164 160 160 164 160 168S164 176 168 176ZM352 248C352 244 348 240 344 240H168C164 240 160 244 160 248S164 256 168 256H344C348 256 352 252 352 248Z"/></svg>