<svg xmlns="http://www.w3.org/2000/svg" viewBox="0 0 576 512"><!-- Font Awesome Pro 6.0.0-alpha1 by @fontawesome - https://fontawesome.com License - https://fontawesome.com/license (Commercial License) --><path d="M495 160C491 160 488 161 485 164L279 328C266 338 246 338 232 328L16 155V128C16 102 38 80 64 80H376C380 80 384 76 384 72S380 64 376 64H64C29 64 0 93 0 128V384C0 419 29 448 64 448H448C483 448 512 419 512 384V177C512 168 504 160 495 160ZM496 384C496 410 474 432 448 432H64C38 432 16 410 16 384V175L222 340C232 348 244 352 256 352S280 348 290 340L496 175V384ZM480 0C445 0 416 29 416 64S445 128 480 128S544 99 544 64S515 0 480 0ZM480 112C454 112 432 90 432 64S454 16 480 16S528 38 528 64S506 112 480 112Z"/></svg>