<svg xmlns="http://www.w3.org/2000/svg" viewBox="0 0 512 512"><!-- Font Awesome Pro 6.0.0-alpha1 by @fontawesome - https://fontawesome.com License - https://fontawesome.com/license (Commercial License) --><path d="M491 178L292 13C282 5 269 0 256 0S230 5 220 13L21 178C8 189 0 206 0 224V448C0 483 29 512 64 512H448C483 512 512 483 512 448V224C512 206 504 189 491 178ZM31 191L230 25C238 19 247 16 256 16S274 19 282 25L481 191C490 198 499 210 481 225L282 391C274 397 265 400 256 400S238 397 230 391L31 225C12 210 22 198 31 191ZM496 448C496 474 474 496 448 496H64C38 496 16 474 16 448V232C18 234 19 236 21 238L220 403C230 411 243 416 256 416C269 416 282 411 292 403L491 238C493 236 494 234 496 232V448Z"/></svg>