<svg xmlns="http://www.w3.org/2000/svg" viewBox="0 0 512 512"><!-- Font Awesome Pro 6.0.0-alpha1 by @fontawesome - https://fontawesome.com License - https://fontawesome.com/license (Commercial License) --><path d="M504 464H120C116 464 112 468 112 472C112 476 116 480 120 480H504C508 480 512 476 512 472C512 468 508 464 504 464ZM27 360C12 345 12 321 27 306L162 172C162 173 162 173 162 174L370 382C371 382 371 382 372 382L344 410C341 414 341 419 344 422C346 423 348 424 350 424C352 424 354 423 355 422L496 279C517 258 517 223 496 202L341 48C320 27 285 27 264 48L16 295C-5 316 -5 350 16 372L66 422C69 425 74 425 77 422C81 418 81 413 77 410L27 360ZM275 59C290 44 315 44 330 59L485 213C500 228 500 253 485 268L382 372C382 371 382 371 382 370L174 162C173 162 173 162 172 162L275 59Z"/></svg>