<svg xmlns="http://www.w3.org/2000/svg" viewBox="0 0 512 512"><!-- Font Awesome Pro 6.0.0-alpha1 by @fontawesome - https://fontawesome.com License - https://fontawesome.com/license (Commercial License) --><path d="M120 64H8C4 64 0 68 0 72V184C0 188 4 192 8 192S16 188 16 184V80H120C124 80 128 76 128 72S124 64 120 64ZM504 64H392C388 64 384 68 384 72S388 80 392 80H496V184C496 188 500 192 504 192S512 188 512 184V72C512 68 508 64 504 64ZM504 320C500 320 496 324 496 328V432H392C388 432 384 436 384 440S388 448 392 448H504C508 448 512 444 512 440V328C512 324 508 320 504 320ZM120 432H16V328C16 324 12 320 8 320S0 324 0 328V440C0 444 4 448 8 448H120C124 448 128 444 128 440S124 432 120 432Z"/></svg>