<svg xmlns="http://www.w3.org/2000/svg" viewBox="0 0 448 512"><!-- Font Awesome Pro 6.0.0-alpha1 by @fontawesome - https://fontawesome.com License - https://fontawesome.com/license (Commercial License) --><path d="M152 32H8C4 32 0 36 0 40V184C0 188 4 192 8 192S16 188 16 184V48H152C156 48 160 44 160 40S156 32 152 32ZM440 32H296C292 32 288 36 288 40S292 48 296 48H432V184C432 188 436 192 440 192S448 188 448 184V40C448 36 444 32 440 32ZM440 320C436 320 432 324 432 328V464H296C292 464 288 468 288 472S292 480 296 480H440C444 480 448 476 448 472V328C448 324 444 320 440 320ZM152 464H16V328C16 324 12 320 8 320S0 324 0 328V472C0 476 4 480 8 480H152C156 480 160 476 160 472S156 464 152 464Z"/></svg>