<svg xmlns="http://www.w3.org/2000/svg" viewBox="0 0 640 512"><!-- Font Awesome Pro 6.0.0-alpha1 by @fontawesome - https://fontawesome.com License - https://fontawesome.com/license (Commercial License) --><path d="M320 48C433 48 536 124 590 245C591 248 592 253 592 256C592 259 591 264 590 267C578 295 562 320 545 343L558 353C576 329 592 302 605 273C606 269 608 261 608 256C608 251 606 243 605 239C550 116 443 32 320 32C275 32 232 43 193 63L208 75C243 58 281 48 320 48ZM298 146L315 160C317 160 318 160 320 160C367 160 406 194 414 239L432 253C430 193 381 144 320 144C312 144 305 145 298 146ZM637 498L13 2C12 1 10 0 8 0C6 0 3 1 2 3C-1 6 0 12 3 14L627 510C629 511 630 512 632 512C634 512 637 511 638 509C641 506 640 500 637 498ZM56 202C52 199 47 199 45 203C42 206 42 211 46 214L380 478C382 479 384 480 385 480C388 480 390 479 392 477C394 473 394 468 390 466L56 202ZM90 149C87 146 82 147 79 150C76 154 77 159 80 161L448 452C449 453 451 453 453 453C455 453 458 452 459 450C462 447 461 442 458 439L90 149ZM43 271C39 268 34 269 31 272C29 276 29 281 33 284L287 485C289 486 290 486 292 486C295 486 297 485 298 483C301 480 301 475 297 472L43 271Z"/></svg>