<svg xmlns="http://www.w3.org/2000/svg" viewBox="0 0 512 512"><!-- Font Awesome Pro 6.0.0-alpha1 by @fontawesome - https://fontawesome.com License - https://fontawesome.com/license (Commercial License) --><path d="M483 29C465 10 440 0 413 0C387 0 362 10 344 29L224 149L198 122C195 119 190 119 186 122C183 125 183 131 186 134L378 326C380 327 382 328 384 328C386 328 388 327 390 326C393 323 393 317 390 314L363 288L483 168C522 130 522 67 483 29ZM352 277L235 160L355 40C371 25 391 16 413 16C435 16 456 25 472 40C504 72 504 125 472 157L352 277ZM307 322L190 205C187 202 181 202 178 205L52 334C39 347 32 364 32 382V421L1 475C-1 478 0 482 2 484L28 510C29 511 31 512 33 512C35 512 36 512 37 511L91 480H130C148 480 165 473 178 461L307 334C310 331 310 326 307 322C307 322 307 322 307 322ZM166 449C157 459 144 464 130 464H89C87 464 86 464 85 465L35 494L18 477L47 427C48 426 48 425 48 423V382C48 368 53 355 63 346L184 222L290 328L166 449Z"/></svg>