<svg xmlns="http://www.w3.org/2000/svg" viewBox="0 0 576 512"><!-- Font Awesome Pro 6.0.0-alpha1 by @fontawesome - https://fontawesome.com License - https://fontawesome.com/license (Commercial License) --><path d="M573 239C518 116 411 32 288 32S58 116 3 239C2 243 0 251 0 256C0 261 2 269 3 273C58 396 165 480 288 480S518 396 573 273C574 269 576 261 576 256C576 251 574 243 573 239ZM558 267C504 388 401 464 288 464C175 464 72 388 18 267C17 264 16 259 16 256C16 253 17 248 18 245C72 124 175 48 288 48C401 48 504 124 558 245C559 248 560 253 560 256C560 259 559 264 558 267ZM288 144C226 144 176 194 176 256S226 368 288 368S400 318 400 256S350 144 288 144ZM288 352C235 352 192 309 192 256S235 160 288 160S384 203 384 256S341 352 288 352Z"/></svg>