<svg xmlns="http://www.w3.org/2000/svg" viewBox="0 0 512 512"><!-- Font Awesome Pro 6.0.0-alpha1 by @fontawesome - https://fontawesome.com License - https://fontawesome.com/license (Commercial License) --><path d="M256 16C123 16 16 123 16 256S123 496 256 496S496 389 496 256S389 16 256 16ZM256 480C132 480 32 380 32 256S132 32 256 32S480 132 480 256S380 480 256 480ZM176 192C167 192 160 199 160 208C160 217 167 224 176 224S192 217 192 208C192 199 185 192 176 192ZM336 192C327 192 320 199 320 208C320 217 327 224 336 224S352 217 352 208C352 199 345 192 336 192ZM256 288C221 288 192 317 192 352C192 387 221 416 256 416S320 387 320 352C320 317 291 288 256 288ZM256 400C230 400 208 378 208 352S230 304 256 304S304 326 304 352S282 400 256 400Z"/></svg>