<svg xmlns="http://www.w3.org/2000/svg" viewBox="0 0 512 512"><!-- Font Awesome Pro 6.0.0-alpha1 by @fontawesome - https://fontawesome.com License - https://fontawesome.com/license (Commercial License) --><path d="M336 184C313 184 292 198 281 220C279 224 280 229 284 231C288 233 293 232 295 228C304 211 319 200 336 200S368 211 377 228C378 230 381 232 384 232C385 232 386 232 388 231C392 229 393 224 391 220C380 198 359 184 336 184ZM176 224C185 224 192 217 192 208S185 192 176 192S160 199 160 208S167 224 176 224ZM256 16C123 16 16 123 16 256S123 496 256 496S496 389 496 256S389 16 256 16ZM256 480C132 480 32 380 32 256S132 32 256 32S480 132 480 256S380 480 256 480ZM360 324C339 361 299 384 256 384S173 361 152 324C150 320 145 319 141 321C137 323 136 328 138 332C162 374 208 400 256 400S350 374 374 332C376 328 375 323 371 321C367 319 362 320 360 324Z"/></svg>