<svg xmlns="http://www.w3.org/2000/svg" viewBox="0 0 512 512"><!-- Font Awesome Pro 6.0.0-alpha1 by @fontawesome - https://fontawesome.com License - https://fontawesome.com/license (Commercial License) --><path d="M256 288C211 288 155 326 148 381C147 391 153 400 160 400C161 400 162 400 164 399C186 390 220 384 256 384S326 390 348 399C350 400 351 400 352 400C359 400 365 391 364 381C357 326 301 288 256 288ZM256 368C221 368 188 373 164 382C171 337 218 304 256 304C294 304 341 337 348 382C324 373 291 368 256 368ZM256 16C123 16 16 123 16 256S123 496 256 496S496 389 496 256S389 16 256 16ZM256 480C132 480 32 380 32 256S132 32 256 32S480 132 480 256S380 480 256 480ZM224 208C224 205 223 203 220 201L140 153C136 151 131 152 129 156C127 160 128 165 132 167L200 208L132 249C128 251 127 256 129 260C131 263 133 264 136 264C137 264 139 264 140 263L220 215C223 213 224 211 224 208ZM383 156C381 152 376 151 372 153L292 201C289 203 288 205 288 208S289 213 292 215L372 263C373 264 375 264 376 264C379 264 381 263 383 260C385 256 384 251 380 249L312 208L380 167C384 165 385 160 383 156Z"/></svg>