<svg xmlns="http://www.w3.org/2000/svg" viewBox="0 0 512 512"><!-- Font Awesome Pro 6.0.0-alpha1 by @fontawesome - https://fontawesome.com License - https://fontawesome.com/license (Commercial License) --><path d="M256 16C123 16 16 123 16 256S123 496 256 496S496 389 496 256S389 16 256 16ZM256 480C132 480 32 380 32 256S132 32 256 32S480 132 480 256S380 480 256 480ZM286 232C290 233 295 230 296 226C300 211 315 168 336 168S372 211 376 226C377 230 380 232 384 232C385 232 385 232 386 232C390 231 393 226 392 222C390 215 373 152 336 152S282 215 280 222C279 226 282 231 286 232ZM126 232C130 233 135 230 136 226C140 211 155 168 176 168S212 211 216 226C217 230 220 232 224 232C225 232 225 232 226 232C230 231 233 226 232 222C230 215 213 152 176 152S122 215 120 222C119 226 122 231 126 232ZM384 320C382 320 381 320 379 321C349 331 304 336 256 336S163 330 133 321C131 320 130 320 128 320C119 320 111 329 112 339C122 394 195 432 256 432S391 394 400 339C401 329 393 320 384 320ZM256 416C202 416 136 382 128 336C160 346 206 352 256 352C306 352 352 346 384 336L384 336C376 382 310 416 256 416Z"/></svg>