<svg xmlns="http://www.w3.org/2000/svg" viewBox="0 0 512 512"><!-- Font Awesome Pro 6.0.0-alpha1 by @fontawesome - https://fontawesome.com License - https://fontawesome.com/license (Commercial License) --><path d="M336 192C345 192 352 199 352 208S345 224 336 224S320 217 320 208S327 192 336 192ZM256 16C123 16 16 123 16 256S123 496 256 496S496 389 496 256S389 16 256 16ZM256 480C132 480 32 380 32 256S132 32 256 32S480 132 480 256S380 480 256 480ZM176 192C185 192 192 199 192 208S185 224 176 224S160 217 160 208S167 192 176 192ZM256 320C208 320 162 346 138 388C136 392 137 397 141 399C145 401 150 400 152 396C173 359 213 336 256 336S339 359 360 396C361 399 364 400 367 400C368 400 370 400 371 399C375 397 376 392 374 388C350 346 304 320 256 320Z"/></svg>