<svg xmlns="http://www.w3.org/2000/svg" viewBox="0 0 640 512"><!-- Font Awesome Pro 6.0.0-alpha1 by @fontawesome - https://fontawesome.com License - https://fontawesome.com/license (Commercial License) --><path d="M320 16C187 16 80 123 80 256S187 496 320 496S560 389 560 256S453 16 320 16ZM320 480C196 480 96 380 96 256S196 32 320 32S544 132 544 256S444 480 320 480ZM448 320C447 320 445 320 443 321C413 331 368 336 320 336S227 330 197 321C195 320 194 320 192 320C183 320 175 329 176 339C186 394 260 432 320 432S455 394 464 339C466 329 458 320 448 320ZM320 416C266 416 200 382 192 336C224 346 270 352 320 352C370 352 417 346 448 336L448 336C441 382 374 416 320 416ZM240 264C263 264 280 233 280 192S263 120 240 120S200 151 200 192S217 264 240 264ZM240 136C251 136 264 160 264 192S251 248 240 248S216 224 216 192S229 136 240 136ZM400 264C423 264 440 233 440 192S423 120 400 120S360 151 360 192S377 264 400 264ZM400 136C411 136 424 160 424 192S411 248 400 248S376 224 376 192S389 136 400 136Z"/></svg>