<svg xmlns="http://www.w3.org/2000/svg" viewBox="0 0 512 512"><!-- Font Awesome Pro 6.0.0-alpha1 by @fontawesome - https://fontawesome.com License - https://fontawesome.com/license (Commercial License) --><path d="M384 320C382 320 381 320 379 321C349 330 304 336 256 336S163 330 133 321C131 320 130 320 128 320C118 320 110 328 112 339C121 394 195 432 256 432S391 394 400 339C401 329 393 320 384 320ZM256 416C202 416 136 382 128 336C160 346 206 352 256 352C306 352 352 346 384 336L384 336C376 382 310 416 256 416ZM256 16C123 16 16 123 16 256S123 496 256 496S496 389 496 256S389 16 256 16ZM256 480C132 480 32 380 32 256S132 32 256 32S480 132 480 256S380 480 256 480ZM421 181C413 160 390 148 367 154C361 132 339 117 317 121C305 123 294 130 287 140S278 163 282 175L301 245C303 252 310 257 317 257C318 257 320 257 321 257L391 238H391C403 235 414 227 419 216C425 205 426 192 421 181ZM405 209C401 216 395 221 387 223L316 241L297 171C295 163 296 155 300 149C305 142 311 138 319 136C321 136 322 136 323 136C336 136 348 145 352 158L356 173L371 169C385 166 401 173 406 186C409 194 409 202 405 209ZM191 257C192 257 194 257 195 257C198 257 201 257 203 255C207 253 210 249 211 245L230 175C234 163 232 150 225 140C218 130 208 123 195 121C173 117 151 132 145 154C122 148 99 160 91 181C87 192 87 205 93 216C98 227 109 235 121 238L191 257ZM107 209C103 202 103 194 106 186V186C110 175 121 168 133 168C136 168 139 169 141 170L156 173L160 159C164 144 179 134 193 137C201 138 207 142 212 149C216 155 217 163 215 171L195 241L125 223C117 221 111 216 107 209Z"/></svg>