<svg xmlns="http://www.w3.org/2000/svg" viewBox="0 0 512 512"><!-- Font Awesome Pro 6.0.0-alpha1 by @fontawesome - https://fontawesome.com License - https://fontawesome.com/license (Commercial License) --><path d="M256 16C123 16 16 123 16 256S123 496 256 496S496 389 496 256S389 16 256 16ZM256 480C132 480 32 380 32 256S132 32 256 32S480 132 480 256S380 480 256 480ZM295 212C304 195 319 184 336 184S368 195 377 212C378 214 381 216 384 216C385 216 386 216 388 215C392 213 393 208 391 204C380 182 359 168 336 168S292 182 281 204C279 208 280 213 284 215C288 217 293 216 295 212ZM176 176C185 176 192 183 192 192S185 208 176 208S160 201 160 192S167 176 176 176ZM392 288H120C110 288 103 297 104 306C113 377 174 432 248 432H264C338 432 399 377 408 306C409 296 402 288 392 288ZM264 416H248C183 416 128 368 120 304H392L392 304C384 368 329 416 264 416Z"/></svg>