<svg xmlns="http://www.w3.org/2000/svg" viewBox="0 0 512 512"><!-- Font Awesome Pro 6.0.0-alpha1 by @fontawesome - https://fontawesome.com License - https://fontawesome.com/license (Commercial License) --><path d="M352 192C334 192 320 206 320 224S334 256 352 256S384 242 384 224S370 192 352 192ZM352 240C343 240 336 233 336 224S343 208 352 208S368 215 368 224S361 240 352 240ZM160 192C142 192 128 206 128 224S142 256 160 256S192 242 192 224S178 192 160 192ZM160 240C151 240 144 233 144 224S151 208 160 208S176 215 176 224S169 240 160 240ZM256 16C123 16 16 123 16 256S123 496 256 496S496 389 496 256S389 16 256 16ZM256 480C132 480 32 380 32 256S132 32 256 32S480 132 480 256S380 480 256 480ZM240 224C240 180 204 144 160 144C116 144 80 180 80 224S116 304 160 304C204 304 240 268 240 224ZM160 288C125 288 96 259 96 224S125 160 160 160C195 160 224 189 224 224S195 288 160 288ZM320 368H192C181 368 181 384 192 384H320C331 384 331 368 320 368ZM352 144C308 144 272 180 272 224S308 304 352 304C396 304 432 268 432 224S396 144 352 144ZM352 288C317 288 288 259 288 224S317 160 352 160C387 160 416 189 416 224S387 288 352 288Z"/></svg>