<svg xmlns="http://www.w3.org/2000/svg" viewBox="0 0 512 512"><!-- Font Awesome Pro 6.0.0-alpha1 by @fontawesome - https://fontawesome.com License - https://fontawesome.com/license (Commercial License) --><path d="M336 224C345 224 352 217 352 208S345 192 336 192S320 199 320 208S327 224 336 224ZM256 16C123 16 16 123 16 256S123 496 256 496S496 389 496 256S389 16 256 16ZM256 480C132 480 32 380 32 256S132 32 256 32S480 132 480 256S380 480 256 480ZM176 224C185 224 192 217 192 208S185 192 176 192S160 199 160 208S167 224 176 224ZM176 288C174 288 171 289 170 291C156 309 128 349 128 369C128 395 149 416 176 416S224 395 224 369C224 349 195 309 182 291C181 289 178 288 176 288ZM176 400C158 400 144 386 144 369C144 361 154 340 176 310C198 340 208 361 208 369C208 386 194 400 176 400ZM265 320C260 320 256 323 256 328V328C256 332 259 336 264 336C304 339 341 361 361 396C362 399 365 400 368 400C369 400 371 400 372 399C376 397 377 392 375 388C352 348 310 323 265 320Z"/></svg>