<svg xmlns="http://www.w3.org/2000/svg" viewBox="0 0 512 512"><!-- Font Awesome Pro 6.0.0-alpha1 by @fontawesome - https://fontawesome.com License - https://fontawesome.com/license (Commercial License) --><path d="M192 207C192 198 185 191 176 191S160 198 160 207C160 216 167 223 176 223S192 216 192 207ZM128 335C160 345 206 351 256 351C306 351 352 345 384 335L384 335C381 352 370 367 355 379C353 381 352 383 352 386C352 392 360 396 365 392C383 377 396 359 400 338C401 327 393 319 384 319C382 319 381 319 379 320C349 329 304 335 256 335S163 329 133 320C131 319 129 319 128 319C118 319 110 327 112 338C116 359 129 377 147 392C152 396 160 392 160 386V386C160 383 159 381 157 379C142 367 131 352 128 335ZM289 377C286 377 283 377 280 378L256 384L232 378C229 377 226 377 223 377C214 377 205 381 199 388C195 394 192 401 192 408V448C192 483 221 512 256 512C291 512 320 483 320 448V408C320 401 317 394 313 388C307 381 298 377 289 377ZM304 448C304 474 282 496 256 496S208 475 208 448V408C208 403 210 400 212 398C214 395 218 393 223 393C225 393 226 393 228 394L248 399C248 399 248 399 248 399V431C248 435 252 439 256 439S264 435 264 431V399C264 399 264 399 264 399L284 394C286 393 287 393 289 393C294 393 298 395 301 398C302 400 304 403 304 408V448ZM352 207C352 198 345 191 336 191S320 198 320 207C320 216 327 223 336 223S352 216 352 207ZM240 8C122 16 25 112 17 230C9 331 65 420 148 462C154 465 160 461 160 455C160 452 158 449 156 448C77 408 25 324 33 229C42 119 132 32 241 25C371 16 480 119 480 248C480 335 430 411 356 448C354 449 352 452 352 455C352 461 358 465 364 462C442 422 496 341 496 248C496 110 380 0 240 8Z"/></svg>