<svg xmlns="http://www.w3.org/2000/svg" viewBox="0 0 512 512"><!-- Font Awesome Pro 6.0.0-alpha1 by @fontawesome - https://fontawesome.com License - https://fontawesome.com/license (Commercial License) --><path d="M336 458C307 472 274 480 240 480C108 480 2 365 17 230C29 128 112 45 214 33C349 18 464 124 464 256C464 279 460 301 454 321C453 324 454 327 456 329C456 329 456 329 456 329C460 333 468 332 469 326C480 291 483 253 476 213C456 105 363 22 253 16C104 9 -17 136 2 287C15 392 98 477 203 493C254 501 302 492 343 473C347 471 348 467 347 463L347 463C346 458 341 456 336 458ZM288 300C288 271 220 257 218 256C213 255 209 258 208 262C207 267 210 271 214 272C240 277 272 291 272 300S240 323 214 328C211 329 208 332 208 336S211 343 214 344C240 349 272 363 272 372S240 395 214 400C210 401 207 405 208 410C209 413 212 416 216 416C217 416 217 416 218 416C220 415 288 401 288 372C288 355 265 343 245 336C265 329 288 317 288 300ZM128 208C128 217 135 224 144 224S160 217 160 208S153 192 144 192S128 199 128 208ZM368 216C369 216 370 216 372 215C376 213 377 208 375 204C364 182 343 168 320 168S276 182 265 204C263 208 264 213 268 215C272 217 277 216 279 212C288 195 303 184 320 184S352 195 361 212C362 214 365 216 368 216ZM509 402C502 385 485 375 467 375C463 375 459 376 455 377L447 379L444 370C439 351 421 337 401 337C399 337 397 337 395 337C369 341 353 366 360 390L383 473C385 477 389 480 393 480C394 480 395 480 396 480L480 458C505 452 518 426 509 402ZM493 429C490 436 484 441 476 443L397 463L375 386C373 379 374 371 379 365C383 359 389 354 397 353C398 353 400 353 401 353C414 353 425 362 429 375L436 398L451 394L459 392C462 391 464 391 467 391C479 391 490 398 494 408C497 415 497 423 493 429Z"/></svg>