<svg xmlns="http://www.w3.org/2000/svg" viewBox="0 0 512 512"><!-- Font Awesome Pro 6.0.0-alpha1 by @fontawesome - https://fontawesome.com License - https://fontawesome.com/license (Commercial License) --><path d="M286 216C290 217 295 214 296 210C300 195 315 152 336 152S372 195 376 210C377 214 380 216 384 216C385 216 385 216 386 216C390 215 393 210 392 206C390 199 373 136 336 136S282 199 280 206C279 210 282 215 286 216ZM126 216C130 217 135 214 136 210C140 195 155 152 176 152S212 195 216 210C217 214 220 216 224 216C225 216 225 216 226 216C230 215 233 210 232 206C230 199 213 136 176 136S122 199 120 206C119 210 122 215 126 216ZM256 16C123 16 16 123 16 256S123 496 256 496S496 389 496 256S389 16 256 16ZM256 480C132 480 32 380 32 256S132 32 256 32S480 132 480 256S380 480 256 480ZM392 288H120C110 288 103 297 104 306C113 377 174 432 248 432H264C338 432 399 377 408 306C409 296 402 288 392 288ZM264 416H248C183 416 128 368 120 304H392L392 304C384 368 329 416 264 416Z"/></svg>