<svg xmlns="http://www.w3.org/2000/svg" viewBox="0 0 512 512"><!-- Font Awesome Pro 6.0.0-alpha1 by @fontawesome - https://fontawesome.com License - https://fontawesome.com/license (Commercial License) --><path d="M372 231C373 232 375 232 376 232C379 232 381 231 383 228C385 224 384 219 380 217L312 176L380 135C384 133 385 128 383 124C381 120 376 119 372 121L292 169C289 171 288 173 288 176S289 181 292 183L372 231ZM129 228C131 231 133 232 136 232C137 232 139 232 140 231L220 183C223 181 224 179 224 176S223 171 220 169L140 121C136 119 131 120 129 124C127 128 128 133 132 135L200 176L132 217C128 219 127 224 129 228ZM256 16C123 16 16 123 16 256S123 496 256 496S496 389 496 256S389 16 256 16ZM256 480C132 480 32 380 32 256S132 32 256 32S480 132 480 256S380 480 256 480ZM392 288H120C110 288 103 297 104 306C113 377 174 432 248 432H264C338 432 399 377 408 306C409 296 402 288 392 288ZM264 416H248C183 416 128 368 120 304H392L392 304C384 368 329 416 264 416Z"/></svg>