<svg xmlns="http://www.w3.org/2000/svg" viewBox="0 0 512 512"><!-- Font Awesome Pro 6.0.0-alpha1 by @fontawesome - https://fontawesome.com License - https://fontawesome.com/license (Commercial License) --><path d="M360 324C339 361 299 384 256 384S173 361 152 324C150 320 145 319 141 321C137 323 136 328 138 332C162 374 208 400 256 400S350 374 374 332C376 328 375 323 371 321C367 319 362 320 360 324ZM176 168C197 168 212 211 216 226C217 230 220 232 224 232C225 232 225 232 226 232C230 231 233 226 232 222C230 215 213 152 176 152S122 215 120 222C119 226 122 231 126 232C130 233 135 230 136 226C140 211 155 168 176 168ZM336 152C299 152 282 215 280 222C279 226 282 231 286 232C290 233 295 230 296 226C300 211 315 168 336 168S372 211 376 226C377 230 380 232 384 232C385 232 385 232 386 232C390 231 393 226 392 222C390 215 373 152 336 152ZM256 16C123 16 16 123 16 256S123 496 256 496S496 389 496 256S389 16 256 16ZM256 480C132 480 32 380 32 256S132 32 256 32S480 132 480 256S380 480 256 480Z"/></svg>