<svg xmlns="http://www.w3.org/2000/svg" viewBox="0 0 512 512"><!-- Font Awesome Pro 6.0.0-alpha1 by @fontawesome - https://fontawesome.com License - https://fontawesome.com/license (Commercial License) --><path d="M256 344C226 344 198 357 178 379C176 382 176 387 179 390C182 393 187 393 190 389C207 371 231 360 256 360S305 371 322 389C323 391 325 392 328 392C330 392 331 391 333 390C336 387 336 382 334 379C314 357 286 344 256 344ZM232 211C233 206 231 202 227 200L131 168C126 167 122 169 120 173C119 178 121 182 125 184L221 216C227 218 231 213 232 211ZM381 168L285 200C281 202 279 206 280 211C281 213 285 218 291 216L387 184C391 182 393 178 392 173C390 169 386 167 381 168ZM256 16C123 16 16 123 16 256S123 496 256 496S496 389 496 256S389 16 256 16ZM256 480C132 480 32 380 32 256S132 32 256 32S480 132 480 256S380 480 256 480ZM336 224C327 224 320 231 320 240C320 249 327 256 336 256S352 249 352 240C352 231 345 224 336 224ZM192 240C192 231 185 224 176 224S160 231 160 240S167 256 176 256S192 249 192 240Z"/></svg>