<svg xmlns="http://www.w3.org/2000/svg" viewBox="0 0 512 512"><!-- Font Awesome Pro 6.0.0-alpha1 by @fontawesome - https://fontawesome.com License - https://fontawesome.com/license (Commercial License) --><path d="M176 192C185 192 192 199 192 208S185 224 176 224S160 217 160 208S167 192 176 192ZM336 224C327 224 320 217 320 208S327 192 336 192S352 199 352 208S345 224 336 224ZM256 16C123 16 16 123 16 256S123 496 256 496S496 389 496 256S389 16 256 16ZM256 480C132 480 32 380 32 256S132 32 256 32S480 132 480 256S380 480 256 480ZM256 304C219 304 160 326 152 372C151 380 154 388 160 394C166 399 175 401 183 399C214 390 241 384 256 384S298 390 329 399C331 400 334 400 336 400C342 400 347 398 352 394C358 388 361 380 360 372C352 326 293 304 256 304ZM341 382C339 384 336 384 334 384H334C302 374 273 368 256 368S210 374 178 384C176 384 173 384 171 382C169 380 168 377 168 375C174 339 224 320 256 320S338 339 344 375C345 379 342 381 341 382Z"/></svg>