<svg xmlns="http://www.w3.org/2000/svg" viewBox="0 0 640 512"><!-- Font Awesome Pro 6.0.0-alpha1 by @fontawesome - https://fontawesome.com License - https://fontawesome.com/license (Commercial License) --><path d="M304 256C313 256 320 249 320 240S313 224 304 224S288 231 288 240S295 256 304 256ZM328 356C307 393 267 416 224 416S141 393 120 356C118 352 113 351 109 353C105 355 104 360 106 364C130 406 176 432 224 432S318 406 342 364C344 360 343 355 339 353C335 351 330 352 328 356ZM144 256C153 256 160 249 160 240S153 224 144 224S128 231 128 240S135 256 144 256ZM224 64C100 64 0 164 0 288C0 412 100 512 224 512S448 412 448 288C448 164 348 64 224 64ZM224 496C109 496 16 403 16 288S109 80 224 80S432 173 432 288S339 496 224 496ZM632 88H552V8C552 4 548 0 544 0S536 4 536 8V88H456C452 88 448 92 448 96S452 104 456 104H536V184C536 188 540 192 544 192S552 188 552 184V104H632C636 104 640 100 640 96S636 88 632 88Z"/></svg>