<svg xmlns="http://www.w3.org/2000/svg" viewBox="0 0 448 512"><!-- Font Awesome Pro 6.0.0-alpha1 by @fontawesome - https://fontawesome.com License - https://fontawesome.com/license (Commercial License) --><path d="M224 212C217 212 212 217 212 224S217 236 224 236S236 231 236 224S231 212 224 212ZM381 270C387 265 390 258 390 250C390 211 368 176 333 159C301 144 263 148 235 167L202 81C200 74 193 68 186 65C179 62 172 63 165 67C142 80 125 102 118 128C107 168 123 220 171 243L112 315C105 322 105 330 106 335C108 343 113 350 119 354C135 363 152 367 169 367C204 367 237 349 256 318C266 300 270 281 268 261L360 276C367 277 375 275 381 270ZM249 241L251 253C255 272 252 292 242 310C219 350 167 363 127 340H127C125 339 123 336 122 333C122 330 122 327 124 325L197 236L186 232C133 214 126 161 133 132C139 111 153 92 173 81C174 80 176 79 178 79C179 79 180 80 181 80C184 81 187 84 187 86L227 193L236 186C261 165 296 160 326 174C355 187 374 217 374 250C374 253 373 256 371 258C368 260 365 261 362 260L249 241ZM448 224C448 100 348 0 224 0S0 100 0 224C0 345 96 443 216 448V496H72C68 496 64 500 64 504S68 512 72 512H376C380 512 384 508 384 504S380 496 376 496H232V448C352 443 448 345 448 224ZM224 432C109 432 16 339 16 224S109 16 224 16S432 109 432 224S339 432 224 432Z"/></svg>