<svg xmlns="http://www.w3.org/2000/svg" viewBox="0 0 512 512"><!-- Font Awesome Pro 6.0.0-alpha1 by @fontawesome - https://fontawesome.com License - https://fontawesome.com/license (Commercial License) --><path d="M441 419C437 426 413 461 413 477C413 496 429 512 448 512S483 496 483 477C483 461 459 426 455 419C452 415 444 415 441 419ZM448 496C438 496 429 488 429 477C429 471 439 453 448 439C457 453 467 471 467 477C467 488 458 496 448 496ZM352 192H313C292 174 263 162 232 161C232 160 232 160 232 160V114L366 128C367 128 367 128 368 128C377 128 384 121 384 111V49C384 40 377 32 368 32C367 32 367 32 366 32L232 47V8C232 4 228 0 224 0S216 4 216 8V47L82 32C81 32 81 32 80 32C71 32 64 39 64 49V111C64 121 71 128 80 128C81 128 81 128 82 128L216 114V160C216 160 216 160 216 161C185 162 156 174 135 192H32C14 192 0 206 0 224V288C0 306 14 320 32 320H109C129 358 173 384 224 384S319 358 339 320H352C370 320 384 334 384 352C384 369 398 384 416 384H480C497 384 512 370 512 353C513 264 441 192 352 192ZM232 63L368 48L368 49L368 112L232 98V63ZM216 98L80 111L80 48L216 63V98ZM480 368H416C412 368 408 366 405 363C402 360 400 356 400 352C400 339 395 327 386 318C377 309 365 304 352 304H330L325 312C307 346 267 368 224 368S141 346 123 312L118 304H32C23 304 16 297 16 288V224C16 215 23 208 32 208H141L145 204C166 186 194 176 224 176S282 186 303 204L307 208H352C391 208 427 223 454 251C482 278 496 315 496 353C496 361 489 368 480 368Z"/></svg>