<svg xmlns="http://www.w3.org/2000/svg" viewBox="0 0 512 512"><!-- Font Awesome Pro 6.0.0-alpha1 by @fontawesome - https://fontawesome.com License - https://fontawesome.com/license (Commercial License) --><path d="M432 368H416C403 368 392 379 392 392V408C392 421 403 432 416 432H432C445 432 456 421 456 408V392C456 379 445 368 432 368ZM440 408C440 412 436 416 432 416H416C412 416 408 412 408 408V392C408 388 412 384 416 384H432C436 384 440 388 440 392V408ZM240 368H224C211 368 200 379 200 392V408C200 421 211 432 224 432H240C253 432 264 421 264 408V392C264 379 253 368 240 368ZM248 408C248 412 244 416 240 416H224C220 416 216 412 216 408V392C216 388 220 384 224 384H240C244 384 248 388 248 392V408ZM240 272H224C211 272 200 283 200 296V312C200 325 211 336 224 336H240C253 336 264 325 264 312V296C264 283 253 272 240 272ZM248 312C248 316 244 320 240 320H224C220 320 216 316 216 312V296C216 292 220 288 224 288H240C244 288 248 292 248 296V312ZM336 272H320C307 272 296 283 296 296V312C296 325 307 336 320 336H336C349 336 360 325 360 312V296C360 283 349 272 336 272ZM344 312C344 316 340 320 336 320H320C316 320 312 316 312 312V296C312 292 316 288 320 288H336C340 288 344 292 344 296V312ZM432 272H416C403 272 392 283 392 296V312C392 325 403 336 416 336H432C445 336 456 325 456 312V296C456 283 445 272 432 272ZM440 312C440 316 436 320 432 320H416C412 320 408 316 408 312V296C408 292 412 288 416 288H432C436 288 440 292 440 296V312ZM336 368H320C307 368 296 379 296 392V408C296 421 307 432 320 432H336C349 432 360 421 360 408V392C360 379 349 368 336 368ZM344 408C344 412 340 416 336 416H320C316 416 312 412 312 408V392C312 388 316 384 320 384H336C340 384 344 388 344 392V408ZM464 192H192C180 192 169 197 160 204V112C160 86 138 64 112 64H48C22 64 0 86 0 112V464C0 490 22 512 48 512H112C129 512 143 503 152 490C161 503 175 512 192 512H464C490 512 512 490 512 464V240C512 214 490 192 464 192ZM144 464C144 482 130 496 112 496H48C30 496 16 482 16 464V112C16 94 30 80 48 80H112C130 80 144 94 144 112V464ZM496 464C496 482 482 496 464 496H192C174 496 160 482 160 464V240C160 222 174 208 192 208H464C482 208 496 222 496 240V464ZM176 152C176 156 180 160 184 160S192 156 192 152V40C192 27 203 16 216 16H395C401 16 407 19 412 23L457 68C461 73 464 79 464 85V152C464 156 468 160 472 160S480 156 480 152V85C480 75 476 64 468 57L423 12C416 4 405 0 395 0H216C194 0 176 18 176 40C176 40 176 57 176 84V152Z"/></svg>