<svg xmlns="http://www.w3.org/2000/svg" viewBox="0 0 512 512"><!-- Font Awesome Pro 6.0.0-alpha1 by @fontawesome - https://fontawesome.com License - https://fontawesome.com/license (Commercial License) --><path d="M432 352C388 352 352 388 352 432C352 476 388 512 432 512S512 476 512 432C512 388 476 352 432 352ZM432 496C397 496 368 467 368 432S397 368 432 368C467 368 496 397 496 432S467 496 432 496ZM498 23L471 5C466 2 460 0 453 0C443 0 433 5 427 14L167 397C153 417 129 420 115 412C100 403 95 388 96 376C97 365 100 361 112 343C128 321 122 291 101 276C69 254 41 278 34 288L24 302C10 322 2 345 0 369C-3 421 23 470 68 496C88 507 109 512 131 512C199 512 236 466 246 452L506 68C516 53 513 33 498 23ZM232 443C224 455 191 496 131 496C112 496 93 491 76 482C36 459 13 416 16 370C18 349 25 329 37 311L47 297C57 283 77 279 91 289C106 299 109 320 99 334C81 361 81 364 80 375C79 391 85 413 107 426C136 442 167 424 180 406L364 135L417 170L232 443ZM493 59L426 157L373 122L440 23C442 20 452 12 462 19L489 36C496 41 498 51 493 59Z"/></svg>