<svg xmlns="http://www.w3.org/2000/svg" viewBox="0 0 384 512"><!-- Font Awesome Pro 6.0.0-alpha1 by @fontawesome - https://fontawesome.com License - https://fontawesome.com/license (Commercial License) --><path d="M200 246C198 239 186 239 184 246L136 411L88 246C86 242 82 239 78 240C74 242 71 246 72 250L128 442C130 449 142 449 144 442L192 277L240 442C241 446 244 448 248 448S255 446 256 442L312 250C313 246 310 242 306 240C302 239 298 242 296 246L248 411L200 246ZM375 151L233 9C227 3 219 0 211 0H64C29 0 0 29 0 64V448C0 483 29 512 64 512H320C355 512 384 483 384 448V173C384 165 381 157 375 151ZM224 23L361 160H248C235 160 224 149 224 136V23ZM368 448C368 474 346 496 320 496H64C38 496 16 474 16 448V64C16 38 38 16 64 16H208V136C208 158 226 176 248 176H368V448Z"/></svg>