<svg xmlns="http://www.w3.org/2000/svg" viewBox="0 0 384 512"><!-- Font Awesome Pro 6.0.0-alpha1 by @fontawesome - https://fontawesome.com License - https://fontawesome.com/license (Commercial License) --><path d="M375 151L233 9C227 3 219 0 211 0H64C29 0 0 29 0 64V448C0 483 29 512 64 512H320C355 512 384 483 384 448V173C384 165 381 157 375 151ZM224 23L361 160H248C235 160 224 149 224 136V23ZM368 448C368 474 346 496 320 496H64C38 496 16 474 16 448V64C16 38 38 16 64 16H208V136C208 158 226 176 248 176H368V448ZM160 352C116 352 80 388 80 432C80 441 87 448 96 448H288C297 448 304 441 304 432C304 388 268 352 224 352H160ZM288 432H96C96 397 125 368 160 368H224C259 368 288 397 288 432ZM192 192C157 192 128 221 128 256S157 320 192 320C227 320 256 291 256 256S227 192 192 192ZM192 304C166 304 144 282 144 256S166 208 192 208S240 230 240 256S218 304 192 304Z"/></svg>