<svg xmlns="http://www.w3.org/2000/svg" viewBox="0 0 384 512"><!-- Font Awesome Pro 6.0.0-alpha1 by @fontawesome - https://fontawesome.com License - https://fontawesome.com/license (Commercial License) --><path d="M375 151L233 9C227 3 219 0 211 0H64C29 0 0 29 0 64V448C0 483 29 512 64 512H320C355 512 384 483 384 448V173C384 165 381 157 375 151ZM224 23L361 160H248C235 160 224 149 224 136V23ZM368 448C368 474 346 496 320 496H64C38 496 16 474 16 448V64C16 38 38 16 64 16H208V136C208 158 226 176 248 176H368V448ZM96 264C96 268 100 272 104 272H280C284 272 288 268 288 264S284 256 280 256H104C100 256 96 260 96 264ZM280 320H104C100 320 96 324 96 328S100 336 104 336H280C284 336 288 332 288 328S284 320 280 320ZM280 384H104C100 384 96 388 96 392S100 400 104 400H280C284 400 288 396 288 392S284 384 280 384Z"/></svg>