<svg xmlns="http://www.w3.org/2000/svg" viewBox="0 0 384 512"><!-- Font Awesome Pro 6.0.0-alpha1 by @fontawesome - https://fontawesome.com License - https://fontawesome.com/license (Commercial License) --><path d="M72 80H152C156 80 160 76 160 72S156 64 152 64H72C68 64 64 68 64 72S68 80 72 80ZM72 144H152C156 144 160 140 160 136S156 128 152 128H72C68 128 64 132 64 136S68 144 72 144ZM375 151L233 9C227 3 219 0 211 0H64C29 0 0 29 0 64V448C0 483 29 512 64 512H320C355 512 384 483 384 448V173C384 165 381 157 375 151ZM224 23L361 160H248C235 160 224 149 224 136V23ZM368 448C368 474 346 496 320 496H64C38 496 16 474 16 448V64C16 38 38 16 64 16H208V136C208 158 226 176 248 176H368V448ZM312 432H232C228 432 224 436 224 440S228 448 232 448H312C316 448 320 444 320 440S316 432 312 432ZM64 240V336C64 345 71 352 80 352H304C313 352 320 345 320 336V240C320 231 313 224 304 224H80C71 224 64 231 64 240ZM304 336H80V240H304V336Z"/></svg>