<svg xmlns="http://www.w3.org/2000/svg" viewBox="0 0 384 512"><!-- Font Awesome Pro 6.0.0-alpha1 by @fontawesome - https://fontawesome.com License - https://fontawesome.com/license (Commercial License) --><path d="M375 151L233 9C227 3 219 0 211 0H64C29 0 0 29 0 64V448C0 483 29 512 64 512H320C355 512 384 483 384 448V173C384 165 381 157 375 151ZM224 23L361 160H248C235 160 224 149 224 136V23ZM368 448C368 474 346 496 320 496H64C38 496 16 474 16 448V64C16 38 38 16 64 16H208V136C208 158 226 176 248 176H368V448ZM135 252C132 249 127 249 124 252C121 255 121 260 124 263L181 320L124 377C121 380 121 385 124 388C127 391 132 391 135 388L192 331L249 388C252 391 257 391 260 388S263 380 260 377L203 320L260 263C263 260 263 255 260 252S252 249 249 252L192 309L135 252Z"/></svg>