<svg xmlns="http://www.w3.org/2000/svg" viewBox="0 0 384 512"><!-- Font Awesome Pro 6.0.0-alpha1 by @fontawesome - https://fontawesome.com License - https://fontawesome.com/license (Commercial License) --><path d="M375 151L233 9C227 3 219 0 211 0H64C29 0 0 29 0 64V448C0 483 29 512 64 512H320C355 512 384 483 384 448V173C384 165 381 157 375 151ZM224 23L361 160H248C235 160 224 149 224 136V23ZM368 448C368 474 346 496 320 496H64C38 496 16 474 16 448V64C16 38 38 16 64 16H208V136C208 158 226 176 248 176H368V448ZM190 315C210 306 224 287 224 264C224 233 199 208 168 208H104C100 208 96 212 96 216V376C96 380 100 384 104 384S112 380 112 376V320H168C169 320 171 320 172 320L229 376L178 426C175 429 175 435 178 438C181 441 187 441 190 438L240 387L290 438C293 441 299 441 302 438C305 435 305 429 302 426L251 376L286 342C289 339 289 333 286 330S277 327 274 330L240 365L190 315ZM168 304H112V224H168C190 224 208 242 208 264S190 304 168 304Z"/></svg>