<svg xmlns="http://www.w3.org/2000/svg" viewBox="0 0 384 512"><!-- Font Awesome Pro 6.0.0-alpha1 by @fontawesome - https://fontawesome.com License - https://fontawesome.com/license (Commercial License) --><path d="M118 314C115 311 109 311 106 314S103 323 106 326L170 390C172 391 174 392 176 392C176 392 176 392 176 392C179 392 181 391 182 389L278 269C281 266 280 260 277 258C274 255 269 256 266 259L175 372L118 314ZM375 151L233 9C227 3 219 0 211 0H64C29 0 0 29 0 64V448C0 483 29 512 64 512H320C355 512 384 483 384 448V173C384 165 381 157 375 151ZM224 23L361 160H248C235 160 224 149 224 136V23ZM368 448C368 474 346 496 320 496H64C38 496 16 474 16 448V64C16 38 38 16 64 16H208V136C208 158 226 176 248 176H368V448Z"/></svg>