<svg xmlns="http://www.w3.org/2000/svg" viewBox="0 0 384 512"><!-- Font Awesome Pro 6.0.0-alpha1 by @fontawesome - https://fontawesome.com License - https://fontawesome.com/license (Commercial License) --><path d="M375 151L233 9C227 3 219 0 211 0H64C29 0 0 29 0 64V448C0 483 29 512 64 512H320C355 512 384 483 384 448V173C384 165 381 157 375 151ZM224 23L361 160H248C235 160 224 149 224 136V23ZM368 448C368 474 346 496 320 496H64C38 496 16 474 16 448V64C16 38 38 16 64 16H208V136C208 158 226 176 248 176H368V448ZM144 288V392C135 387 124 384 112 384C86 384 64 398 64 416S86 448 112 448S160 434 160 416V293L272 244V360C263 355 252 352 240 352C214 352 192 366 192 384S214 416 240 416S288 402 288 384V232C288 229 287 227 284 225C282 224 279 224 277 225L149 281C146 282 144 285 144 288ZM112 432C92 432 80 423 80 416S92 400 112 400C132 400 144 409 144 416S132 432 112 432ZM240 400C220 400 208 391 208 384S220 368 240 368C260 368 272 377 272 384S260 400 240 400Z"/></svg>