<svg xmlns="http://www.w3.org/2000/svg" viewBox="0 0 384 512"><!-- Font Awesome Pro 6.0.0-alpha1 by @fontawesome - https://fontawesome.com License - https://fontawesome.com/license (Commercial License) --><path d="M375 151L233 9C227 3 219 0 211 0H64C29 0 0 29 0 64V448C0 483 29 512 64 512H320C355 512 384 483 384 448V173C384 165 381 157 375 151ZM224 23L361 160H248C235 160 224 149 224 136V23ZM368 448C368 474 346 496 320 496H64C38 496 16 474 16 448V64C16 38 38 16 64 16H208V136C208 158 226 176 248 176H368V448ZM180 250C172 246 164 248 158 254L125 288H100C89 288 80 297 80 308V364C80 375 89 384 100 384H125L158 418C162 422 167 424 172 424C175 424 177 424 180 422C187 419 192 412 192 404V268C192 260 187 253 180 250ZM176 404C176 406 174 407 174 408C173 408 171 409 169 407L131 368H100C98 368 96 366 96 364V308C96 306 98 304 100 304H131L169 265C171 263 173 264 174 264C174 265 176 266 176 268V404ZM258 406C260 408 262 409 265 409C266 409 268 408 270 407C292 388 304 363 304 336S292 284 270 265C266 262 261 263 258 266C256 270 256 275 259 278C278 293 288 314 288 336S278 379 259 394C256 397 256 402 258 406ZM227 302C224 305 223 310 226 313C232 320 235 328 235 336S232 352 226 359C223 362 224 367 227 370C229 371 231 372 232 372C235 372 237 371 239 369C246 359 251 348 251 336S246 313 239 303C236 300 231 299 227 302Z"/></svg>