<svg xmlns="http://www.w3.org/2000/svg" viewBox="0 0 384 512"><!-- Font Awesome Pro 6.0.0-alpha1 by @fontawesome - https://fontawesome.com License - https://fontawesome.com/license (Commercial License) --><path d="M375 151L233 9C227 3 219 0 211 0H64C29 0 0 29 0 64V448C0 483 29 512 64 512H320C355 512 384 483 384 448V173C384 165 381 157 375 151ZM224 23L361 160H248C235 160 224 149 224 136V23ZM368 448C368 474 346 496 320 496H64C38 496 16 474 16 448V64C16 38 38 16 64 16H208V136C208 158 226 176 248 176H368V448ZM240 288C240 270 226 256 208 256H112C94 256 80 270 80 288V384C80 402 94 416 112 416H208C226 416 240 402 240 384V376L279 398C281 399 284 400 287 400C290 400 293 399 296 398C301 395 304 389 304 383V289C304 283 301 277 296 274C290 271 284 271 279 274L240 296V288ZM224 384C224 393 217 400 208 400H112C103 400 96 393 96 384V288C96 279 103 272 112 272H208C217 272 224 279 224 288V384ZM288 289L287 384L240 357V315L288 289Z"/></svg>