<svg xmlns="http://www.w3.org/2000/svg" viewBox="0 0 384 512"><!-- Font Awesome Pro 6.0.0-alpha1 by @fontawesome - https://fontawesome.com License - https://fontawesome.com/license (Commercial License) --><path d="M187 287C199 252 200 223 200 215C200 203 189 192 176 192S152 203 152 215C152 216 152 249 170 287C159 317 146 344 134 366C110 376 88 389 71 407C66 411 64 417 64 425C64 438 75 448 88 448C96 448 103 444 107 438C116 427 130 407 145 379C172 368 200 360 225 356C232 361 270 386 293 386C308 386 320 374 320 359C320 344 307 331 292 331C271 331 233 338 229 339C209 323 196 304 187 287ZM94 429C91 434 80 432 80 423C80 421 81 419 82 418C93 407 106 398 120 391C109 409 99 422 94 429ZM168 215C168 211 172 208 176 208S184 211 184 215C184 233 179 256 177 264C168 238 168 217 168 215ZM157 357C165 342 172 324 180 306C187 318 197 331 209 342C192 346 175 351 157 357ZM292 347C299 347 304 352 304 360C304 365 299 370 293 370C283 370 259 358 248 352C248 352 278 347 292 347ZM375 151L233 9C227 3 219 0 211 0H64C29 0 0 29 0 64V448C0 483 29 512 64 512H320C355 512 384 483 384 448V173C384 165 381 157 375 151ZM224 23L361 160H248C235 160 224 149 224 136V23ZM368 448C368 474 346 496 320 496H64C38 496 16 474 16 448V64C16 38 38 16 64 16H208V136C208 158 226 176 248 176H368V448Z"/></svg>