<svg xmlns="http://www.w3.org/2000/svg" viewBox="0 0 512 512"><!-- Font Awesome Pro 6.0.0-alpha1 by @fontawesome - https://fontawesome.com License - https://fontawesome.com/license (Commercial License) --><path d="M231 360C234 348 234 348 243 339L246 337C255 328 258 314 255 302L254 299C253 294 252 291 251 288C252 285 253 282 254 277L255 274C258 262 255 248 246 240L243 237C234 228 234 228 231 216L230 212C227 200 217 190 205 187L201 186C189 182 189 182 180 173L178 171C169 162 156 158 144 161L140 162C128 166 128 166 116 162L112 161C100 158 87 162 78 171L76 173C67 182 67 182 55 186L51 187C39 190 29 200 26 212L25 216C22 228 22 228 13 237L10 239C1 248 -2 262 1 274L2 277C3 282 4 286 5 287C4 290 3 294 2 299L1 302C-2 314 1 328 10 336L13 339C22 348 22 348 25 360L26 364C29 376 39 386 51 389L55 390C59 392 62 393 64 393V504C64 507 66 510 68 511C69 512 71 512 72 512C73 512 75 512 76 511L128 481L180 511C182 512 185 512 188 511C190 510 192 507 192 504L192 394C194 393 197 392 201 390L205 390C217 386 227 376 230 364L231 360ZM176 490L132 465C130 464 126 464 124 465L80 490V407C89 415 101 418 112 415L116 414C128 410 128 410 140 414L144 415C147 416 150 416 153 416C161 416 169 413 176 407L176 490ZM215 356L214 360C213 367 207 372 201 374L197 375C182 379 180 380 169 392L166 394C162 399 154 401 148 399L144 398C137 396 132 395 128 395C124 395 120 396 112 398L108 399C102 401 94 399 90 394L87 392C76 380 74 379 59 375L55 374C49 372 43 367 42 360L41 356C36 341 36 339 24 328L22 325C17 320 15 313 17 306L17 304C19 296 20 292 21 287C20 284 19 280 17 272L17 270C15 263 17 256 22 251L24 248C36 237 36 235 41 220L42 216C43 209 49 204 55 202L59 201C74 197 76 196 87 184L90 182C94 177 101 175 108 177L112 178C127 182 129 182 144 178L148 177C154 175 162 177 166 182L169 184C180 196 182 197 197 201L201 202C207 204 213 209 214 216L216 220C220 235 220 237 232 248L234 251C239 256 241 263 239 270L239 272C237 280 236 284 235 287L235 288L235 289C236 292 237 296 239 304L239 306C241 313 239 320 234 325L232 328C220 339 220 341 215 356ZM503 151L361 9C355 3 347 0 339 0H192C157 0 128 29 128 64V120C128 124 132 128 136 128S144 124 144 120V64C144 38 165 16 192 16H336V136C336 158 354 176 376 176H496V448C496 474 474 496 448 496H232C228 496 224 500 224 504S228 512 232 512H448C483 512 512 483 512 448V173C512 165 509 157 503 151ZM376 160C363 160 352 149 352 136V23L489 160H376Z"/></svg>