<svg xmlns="http://www.w3.org/2000/svg" viewBox="0 0 384 512"><!-- Font Awesome Pro 6.0.0-alpha1 by @fontawesome - https://fontawesome.com License - https://fontawesome.com/license (Commercial License) --><path d="M375 151L233 9C227 3 219 0 211 0H64C29 0 0 29 0 64V448C0 483 29 512 64 512H320C355 512 384 483 384 448V173C384 165 381 157 375 151ZM224 23L361 160H248C235 160 224 149 224 136V23ZM368 448C368 474 346 496 320 496H64C38 496 16 474 16 448V64C16 38 38 16 64 16H208V136C208 158 226 176 248 176H368V448ZM104 288H120C124 288 128 284 128 280S124 272 120 272H104C82 272 64 290 64 312V360C64 382 82 400 104 400H120C124 400 128 396 128 392S124 384 120 384H104C91 384 80 373 80 360V312C80 299 91 288 104 288ZM202 334L172 323C165 320 160 313 160 306C160 296 168 288 178 288H208C212 288 216 284 216 280S212 272 208 272H178C159 272 144 287 144 306C144 320 153 333 166 338L196 349C203 352 208 359 208 366C208 376 200 384 190 384H160C156 384 152 388 152 392S156 400 160 400H190C209 400 224 385 224 366C224 352 215 339 202 334ZM240 280V305C240 332 248 358 263 381L273 396C275 399 277 400 280 400S285 399 287 396L297 381C312 358 320 332 320 305V280C320 276 316 272 312 272S304 276 304 280V305C304 329 297 352 284 372L280 378L276 372C263 352 256 329 256 305V280C256 276 252 272 248 272S240 276 240 280Z"/></svg>