<svg xmlns="http://www.w3.org/2000/svg" viewBox="0 0 384 512"><!-- Font Awesome Pro 6.0.0-alpha1 by @fontawesome - https://fontawesome.com License - https://fontawesome.com/license (Commercial License) --><path d="M375 151L233 9C227 3 219 0 211 0H64C29 0 0 29 0 64V448C0 483 29 512 64 512H320C355 512 384 483 384 448V173C384 165 381 157 375 151ZM224 23L361 160H248C235 160 224 149 224 136V23ZM368 448C368 474 346 496 320 496H64C38 496 16 474 16 448V64C16 38 38 16 64 16H208V136C208 158 226 176 248 176H368V448ZM135 244C132 240 127 239 124 241C120 244 119 249 121 252L182 344L121 436C119 439 120 444 124 447C125 448 126 448 128 448C131 448 133 447 135 444L192 358L249 444C251 447 253 448 256 448C258 448 259 448 260 447C264 444 265 439 263 436L202 344L263 252C265 249 264 244 260 241C257 239 252 240 249 244L192 330L135 244Z"/></svg>