<svg xmlns="http://www.w3.org/2000/svg" viewBox="0 0 384 512"><!-- Font Awesome Pro 6.0.0-alpha1 by @fontawesome - https://fontawesome.com License - https://fontawesome.com/license (Commercial License) --><path d="M375 151L233 9C227 3 219 0 211 0H64C29 0 0 29 0 64V448C0 483 29 512 64 512H320C355 512 384 483 384 448V173C384 165 381 157 375 151ZM224 23L361 160H248C235 160 224 149 224 136V23ZM368 448C368 474 346 496 320 496H64C38 496 16 474 16 448V64C16 38 38 16 64 16H208V136C208 158 226 176 248 176H368V448ZM134 259C131 255 126 255 123 258L59 314C57 315 56 318 56 320S57 325 59 326L123 382C124 383 126 384 128 384C130 384 132 383 134 381C137 378 137 373 133 370L76 320L133 270C137 267 137 262 134 259ZM250 259C247 262 247 267 251 270L308 320L251 370C247 373 247 378 250 381C252 383 254 384 256 384C258 384 260 383 261 382L325 326C327 324 328 322 328 320S327 315 325 314L261 258C258 255 253 255 250 259ZM227 216C222 215 218 217 216 221L152 413C151 418 153 422 157 424C158 424 159 424 160 424C163 424 166 422 168 419L232 227C233 222 231 218 227 216Z"/></svg>