<svg xmlns="http://www.w3.org/2000/svg" viewBox="0 0 384 512"><!-- Font Awesome Pro 6.0.0-alpha1 by @fontawesome - https://fontawesome.com License - https://fontawesome.com/license (Commercial License) --><path d="M375 151L233 9C227 3 219 0 211 0H64C29 0 0 29 0 64V448C0 483 29 512 64 512H320C355 512 384 483 384 448V173C384 165 381 157 375 151ZM224 23L361 160H248C235 160 224 149 224 136V23ZM61 496C36 494 16 473 16 448V419L95 339L156 400L61 496ZM368 448C368 474 346 496 320 496H83L272 307L368 403V448ZM368 381L283 296C277 290 267 290 261 296L168 389L107 328C100 322 90 322 84 328L16 396V64C16 38 38 16 64 16H208V136C208 158 226 176 248 176H368V381ZM96 184C74 184 56 202 56 224S74 264 96 264S136 246 136 224S118 184 96 184ZM96 248C83 248 72 237 72 224S83 200 96 200S120 211 120 224S109 248 96 248Z"/></svg>