<svg xmlns="http://www.w3.org/2000/svg" viewBox="0 0 384 512"><!-- Font Awesome Pro 6.0.0-alpha1 by @fontawesome - https://fontawesome.com License - https://fontawesome.com/license (Commercial License) --><path d="M375 151L233 9C227 3 219 0 211 0H64C29 0 0 29 0 64V448C0 483 29 512 64 512H320C355 512 384 483 384 448V173C384 165 381 157 375 151ZM224 23L361 160H248C235 160 224 149 224 136V23ZM368 448C368 474 346 496 320 496H64C38 496 16 474 16 448V64C16 38 38 16 64 16H208V136C208 158 226 176 248 176H368V448ZM232 232C232 223 225 216 216 216H168C159 216 152 223 152 232V280H104C95 280 88 287 88 296V344C88 353 95 360 104 360H152V408C152 417 159 424 168 424H216C225 424 232 417 232 408V360H280C289 360 296 353 296 344V296C296 287 289 280 280 280H232V232ZM280 296V344H216V408H168V344H104V296H168V232H216V296H280Z"/></svg>