<svg xmlns="http://www.w3.org/2000/svg" viewBox="0 0 384 512"><!-- Font Awesome Pro 6.0.0-alpha1 by @fontawesome - https://fontawesome.com License - https://fontawesome.com/license (Commercial License) --><path d="M375 151L233 9C227 3 219 0 211 0H64C29 0 0 29 0 64V448C0 483 29 512 64 512H320C355 512 384 483 384 448V173C384 165 381 157 375 151ZM224 23L361 160H248C235 160 224 149 224 136V23ZM368 448C368 474 346 496 320 496H64C38 496 16 474 16 448V64C16 38 38 16 64 16H208V136C208 158 226 176 248 176H368V448ZM64 256V416C64 434 78 448 96 448H288C306 448 320 434 320 416V256C320 238 306 224 288 224H96C78 224 64 238 64 256ZM120 432H96C87 432 80 425 80 416V384H120V432ZM120 368H80V320H120V368ZM184 432H136V384H184V432ZM184 368H136V320H184V368ZM248 432H200V384H248V432ZM248 368H200V320H248V368ZM304 416C304 425 297 432 288 432H264V384H304V416ZM304 368H264V320H304V368ZM304 256V304H80V256C80 247 87 240 96 240H288C297 240 304 247 304 256Z"/></svg>