<svg xmlns="http://www.w3.org/2000/svg" viewBox="0 0 576 512"><!-- Font Awesome Pro 6.0.0-alpha1 by @fontawesome - https://fontawesome.com License - https://fontawesome.com/license (Commercial License) --><path d="M503 217L295 9C289 3 281 0 272 0S256 3 250 9L151 108L46 2C43 -1 37 -1 34 2S31 10 34 14L140 119L28 230C-9 268 -9 329 28 366L145 483C164 502 189 511 213 511S262 502 281 483L503 262C515 249 515 229 503 217ZM270 472C255 487 235 495 213 495C192 495 172 487 157 472L39 355C26 341 18 323 16 303H438L270 472ZM491 250L454 287H17C19 270 27 254 39 242L151 130L242 221C244 223 246 224 248 224S252 223 254 221C257 218 257 213 254 210L162 119L261 21C264 18 268 16 272 16S281 18 284 21L491 228C494 231 496 235 496 239C496 243 494 247 491 250ZM512 320C512 320 448 413 448 448S477 512 512 512S576 483 576 448S512 320 512 320ZM512 496C486 496 464 475 464 448C464 431 489 385 512 349C535 385 560 431 560 448C560 475 538 496 512 496Z"/></svg>