<svg xmlns="http://www.w3.org/2000/svg" viewBox="0 0 512 512"><!-- Font Awesome Pro 6.0.0-alpha1 by @fontawesome - https://fontawesome.com License - https://fontawesome.com/license (Commercial License) --><path d="M123 158C100 187 87 223 88 260C89 298 86 337 79 375C77 384 92 389 95 377C102 338 105 299 104 259C104 226 114 194 136 168C142 160 130 150 123 158ZM248 270C249 343 240 414 220 486C217 497 232 500 235 490C256 417 265 345 264 270C264 259 248 260 248 270ZM255 180C230 180 208 189 192 206C176 222 168 243 168 265C169 314 164 363 154 411C152 421 168 425 170 414C180 366 185 315 184 265C184 247 191 229 204 217C217 203 235 196 254 196C295 197 328 229 328 268C329 316 325 365 317 414C316 423 330 428 333 416C341 367 345 317 344 267C343 220 303 181 255 180ZM253 16C184 16 125 41 82 84C39 128 15 185 16 246L16 268C16 279 32 280 32 269L32 246C31 189 53 136 93 96C157 32 234 32 252 32C327 33 397 70 440 131C446 140 459 131 453 122C407 57 332 17 253 16ZM254 98C231 98 217 101 212 103C202 105 205 121 216 118C220 117 234 114 254 114C337 115 407 183 408 265C409 303 407 342 402 380C401 390 417 393 418 382C423 343 425 303 424 264C423 174 346 99 254 98ZM490 207C488 196 473 200 475 210C480 233 480 250 480 276C480 286 496 286 496 276C496 253 496 233 490 207Z"/></svg>