<svg xmlns="http://www.w3.org/2000/svg" viewBox="0 0 384 512"><!-- Font Awesome Pro 6.0.0-alpha1 by @fontawesome - https://fontawesome.com License - https://fontawesome.com/license (Commercial License) --><path d="M192 16C195 16 200 18 200 24C200 76 236 109 274 144C320 187 368 231 368 320C368 417 289 496 192 496S16 417 16 320C16 254 54 208 66 196C68 194 70 194 72 194C75 194 80 196 80 202V287C80 331 115 367 160 368C204 368 240 332 240 288C240 250 215 226 191 202C149 162 112 126 185 20C187 17 189 16 192 16M192 0C185 0 177 3 172 11C48 192 224 200 224 288C224 323 195 352 160 352C160 352 159 352 159 352C124 352 96 322 96 287V202C96 187 84 178 72 178C66 178 60 180 55 185C28 213 0 261 0 320C0 426 86 512 192 512S384 426 384 320C384 150 216 127 216 24C216 9 204 0 192 0L192 0Z"/></svg>