<svg xmlns="http://www.w3.org/2000/svg" viewBox="0 0 512 512"><!-- Font Awesome Pro 6.0.0-alpha1 by @fontawesome - https://fontawesome.com License - https://fontawesome.com/license (Commercial License) --><path d="M503 6C499 2 494 0 488 0C487 0 485 0 484 0L308 32C296 34 288 44 288 56V72H224V32C224 14 210 0 192 0H160C142 0 128 14 128 32V72H112C50 72 0 122 0 184C0 188 4 192 8 192S16 188 16 184C16 131 59 88 112 88H128V139C90 157 64 195 64 240V480C64 498 78 512 96 512H256C274 512 288 498 288 480V240C288 195 262 157 224 139V88H288V104C288 116 296 126 308 128L484 160C485 160 487 160 488 160C494 160 499 158 503 154C509 150 512 143 512 136V24C512 17 509 10 503 6ZM272 480C272 489 265 496 256 496H96C87 496 80 489 80 480V432H272V480ZM272 240V416H80V240C80 187 123 144 176 144C229 144 272 187 272 240ZM176 128C165 128 154 130 144 133V32C144 23 151 16 160 16H192C201 16 208 23 208 32V133C198 130 187 128 176 128ZM496 136C496 138 495 141 493 142C492 143 490 144 487 144C487 144 487 144 487 144L311 112C307 111 304 108 304 104V56C304 52 307 49 311 48L486 16C487 16 487 16 488 16C490 16 492 17 493 18C495 19 496 22 496 24V136Z"/></svg>