<svg xmlns="http://www.w3.org/2000/svg" viewBox="0 0 512 512"><!-- Font Awesome Pro 6.0.0-alpha1 by @fontawesome - https://fontawesome.com License - https://fontawesome.com/license (Commercial License) --><path d="M499 6C492 2 484 0 476 0C470 0 463 1 457 4C415 23 381 32 349 32C320 32 297 25 273 17C247 9 221 0 185 0C157 0 120 3 32 39L16 45V8C16 4 12 0 8 0S0 4 0 8V504C0 508 4 512 8 512S16 508 16 504V398L22 395L32 391L37 389C56 380 116 352 181 352C218 352 248 360 280 368C311 376 343 384 379 384C415 384 451 376 491 361C504 356 512 344 512 331L512 32C512 21 507 11 499 6ZM496 263C457 277 422 284 387 284C386 284 385 284 384 284V216C385 216 386 216 387 216C422 216 458 209 496 196L496 263ZM256 177C232 172 208 168 180 168C168 168 156 169 144 171V103C156 101 168 100 180 100C208 100 232 104 256 110V177ZM272 113C275 114 279 115 282 116C309 122 337 129 368 131V199C338 197 312 190 285 184C281 183 276 182 272 181V113ZM128 173C80 181 39 199 16 210V143L21 141C43 131 82 114 128 105V173ZM16 227L21 225C43 215 82 198 128 189V257C80 265 39 283 16 294V227ZM144 187C156 185 168 184 180 184C208 184 232 188 256 194V261C232 256 208 252 180 252C168 252 156 253 144 255V187ZM272 197C275 198 279 199 282 200C309 206 337 213 368 215V283C338 281 312 274 285 268C281 267 276 266 272 265V197ZM496 179C457 193 422 200 387 200C386 200 385 200 384 200V132C385 132 386 132 387 132C422 132 458 125 496 112L496 179ZM464 19C468 17 472 16 476 16C481 16 486 17 490 20C494 22 496 27 496 32L496 95C457 109 422 116 387 116C386 116 385 116 384 116V45C408 40 434 32 464 19ZM349 48C355 48 362 48 368 47V115C338 113 312 106 285 100C281 99 276 98 272 97V33C295 41 319 48 349 48ZM256 28V93C232 88 208 84 180 84C168 84 156 85 144 87V20C161 17 174 16 185 16C213 16 235 22 256 28ZM38 54C77 38 106 29 128 23V89C80 97 39 115 16 126V63L38 54ZM30 374L25 376L16 381V311L21 309C43 299 82 282 128 273V342C82 350 45 367 30 374ZM144 339V271C156 269 168 268 180 268C208 268 232 272 256 278V346C233 340 209 336 181 336C168 336 156 337 144 339ZM272 350V281C275 282 279 283 282 284C309 290 337 297 368 299V367C338 366 310 359 284 353C280 352 276 351 272 350ZM486 346C449 360 416 367 384 368V300C385 300 386 300 387 300C422 300 458 293 496 280L496 331C496 338 492 344 486 346Z"/></svg>