<svg xmlns="http://www.w3.org/2000/svg" viewBox="0 0 512 512"><!-- Font Awesome Pro 6.0.0-alpha1 by @fontawesome - https://fontawesome.com License - https://fontawesome.com/license (Commercial License) --><path d="M401 208L504 85C512 75 514 62 509 50C504 39 492 32 480 32H16V8C16 4 12 0 8 0S0 4 0 8V504C0 508 4 512 8 512S16 508 16 504V384H480C492 384 504 377 509 366C514 354 512 341 504 331L401 208ZM494 359C492 364 486 368 480 368H16V48H480C486 48 492 52 494 57C497 63 496 70 492 74L388 198L380 208L388 218L492 342C496 346 497 353 494 359Z"/></svg>