<svg xmlns="http://www.w3.org/2000/svg" viewBox="0 0 448 512"><!-- Font Awesome Pro 6.0.0-alpha1 by @fontawesome - https://fontawesome.com License - https://fontawesome.com/license (Commercial License) --><path d="M288 154V16H312C316 16 320 12 320 8S316 0 312 0H136C132 0 128 4 128 8S132 16 136 16H160V154C76 181 16 259 16 352C16 412 41 466 82 504C88 509 96 512 103 512H345C352 512 360 509 366 504C407 466 432 412 432 352C432 259 372 181 288 154ZM165 169L176 166V16H272V166L283 169C362 195 416 268 416 352L413 352C380 352 336 352 281 324C203 286 118 286 34 326C44 253 94 192 165 169ZM355 492C353 495 349 496 345 496H103C99 496 95 495 93 492C54 455 32 406 32 352C32 349 33 346 33 344C116 302 197 301 274 339C327 366 373 368 405 368C408 368 410 368 413 368L415 368C411 415 391 459 355 492Z"/></svg>