<svg xmlns="http://www.w3.org/2000/svg" viewBox="0 0 512 512"><!-- Font Awesome Pro 6.0.0-alpha1 by @fontawesome - https://fontawesome.com License - https://fontawesome.com/license (Commercial License) --><path d="M480 160C480 89 423 32 352 32C314 32 279 49 256 76C233 49 198 32 160 32C89 32 32 89 32 160C32 198 49 233 76 256C49 279 32 314 32 352C32 423 89 480 160 480C198 480 233 463 256 436C279 463 314 480 352 480C423 480 480 423 480 352C480 314 463 279 436 256C463 233 480 198 480 160ZM464 352C464 414 414 464 352 464C320 464 290 450 268 425L256 412L244 425C222 450 192 464 160 464C98 464 48 414 48 352C48 320 62 290 87 268L100 256L87 244C62 222 48 192 48 160C48 98 98 48 160 48C192 48 222 62 244 87L256 100L268 87C290 62 320 48 352 48C414 48 464 98 464 160C464 192 450 222 425 244L412 256L425 268C450 290 464 320 464 352ZM256 176C212 176 176 212 176 256S212 336 256 336S336 300 336 256S300 176 256 176ZM256 320C221 320 192 291 192 256S221 192 256 192C291 192 320 221 320 256S291 320 256 320Z"/></svg>