<svg xmlns="http://www.w3.org/2000/svg" viewBox="0 0 512 512"><!-- Font Awesome Pro 6.0.0-alpha1 by @fontawesome - https://fontawesome.com License - https://fontawesome.com/license (Commercial License) --><path d="M464 96H272L217 41C211 35 203 32 195 32H48C22 32 0 54 0 80V432C0 458 22 480 48 480H464C490 480 512 458 512 432V144C512 118 490 96 464 96ZM496 432C496 450 482 464 464 464H48C30 464 16 450 16 432V80C16 62 30 48 48 48H188C197 48 205 51 211 57L265 112H464C482 112 496 126 496 144V432ZM256 288C291 288 320 259 320 224S291 160 256 160C221 160 192 189 192 224S221 288 256 288ZM256 176C282 176 304 198 304 224S282 272 256 272S208 250 208 224S230 176 256 176ZM288 320H224C180 320 144 356 144 400C144 409 151 416 160 416H352C361 416 368 409 368 400C368 356 332 320 288 320ZM160 400C160 365 189 336 224 336H288C323 336 352 365 352 400H160Z"/></svg>