<svg xmlns="http://www.w3.org/2000/svg" viewBox="0 0 512 512"><!-- Font Awesome Pro 6.0.0-alpha1 by @fontawesome - https://fontawesome.com License - https://fontawesome.com/license (Commercial License) --><path d="M464 96H272L217 41C211 35 203 32 195 32H48C22 32 0 54 0 80V432C0 458 22 480 48 480H464C490 480 512 458 512 432V144C512 118 490 96 464 96ZM496 432C496 450 482 464 464 464H48C30 464 16 450 16 432V80C16 62 30 48 48 48H188C197 48 205 51 211 57L265 112H464C482 112 496 126 496 144V432ZM250 390C252 391 254 392 256 392S260 391 262 390L358 294C361 291 361 285 358 282S349 279 346 282L264 365V192C264 188 260 184 256 184S248 188 248 192V365L166 282C164 281 162 280 160 280S156 281 154 282C151 285 151 291 154 294L250 390Z"/></svg>