<svg xmlns="http://www.w3.org/2000/svg" viewBox="0 0 512 512"><!-- Font Awesome Pro 6.0.0-alpha1 by @fontawesome - https://fontawesome.com License - https://fontawesome.com/license (Commercial License) --><path d="M464 96H272L217 41C211 35 203 32 195 32H48C22 32 0 54 0 80V432C0 458 22 480 48 480H464C490 480 512 458 512 432V144C512 118 490 96 464 96ZM496 432C496 450 482 464 464 464H48C30 464 16 450 16 432V80C16 62 30 48 48 48H188C197 48 205 51 211 57L265 112H464C482 112 496 126 496 144V432ZM313 219C304 205 282 205 273 219L217 303L201 282C192 270 172 270 163 282L93 378C87 385 86 395 91 403C95 411 103 416 112 416H400C409 416 417 411 421 403C425 396 425 386 420 379L313 219ZM407 396L407 396C406 398 403 400 400 400H112C109 400 106 398 105 396C103 393 104 390 106 387L176 291C177 289 179 288 182 288C185 288 187 289 188 291L218 331L287 228C290 223 297 223 300 228L407 388C408 390 408 393 407 396ZM128 248C150 248 168 230 168 208S150 168 128 168S88 186 88 208S106 248 128 248ZM128 184C141 184 152 195 152 208S141 232 128 232S104 221 104 208S115 184 128 184Z"/></svg>