<svg xmlns="http://www.w3.org/2000/svg" viewBox="0 0 512 512"><!-- Font Awesome Pro 6.0.0-alpha1 by @fontawesome - https://fontawesome.com License - https://fontawesome.com/license (Commercial License) --><path d="M464 96H272L217 41C211 35 203 32 195 32H48C22 32 0 54 0 80V432C0 458 22 480 48 480H464C490 480 512 458 512 432V144C512 118 490 96 464 96ZM496 432C496 450 482 464 464 464H48C30 464 16 450 16 432V80C16 62 30 48 48 48H188C197 48 205 51 211 57L265 112H464C482 112 496 126 496 144V432ZM144 240H112C94 240 80 254 80 272V304C80 322 94 336 112 336H144C162 336 176 322 176 304V272C176 254 162 240 144 240ZM160 304C160 313 153 320 144 320H112C103 320 96 313 96 304V272C96 263 103 256 112 256H144C153 256 160 263 160 272V304ZM272 240H240C222 240 208 254 208 272V304C208 322 222 336 240 336H272C290 336 304 322 304 304V272C304 254 290 240 272 240ZM288 304C288 313 281 320 272 320H240C231 320 224 313 224 304V272C224 263 231 256 240 256H272C281 256 288 263 288 272V304ZM400 240H368C350 240 336 254 336 272V304C336 322 350 336 368 336H400C418 336 432 322 432 304V272C432 254 418 240 400 240ZM416 304C416 313 409 320 400 320H368C359 320 352 313 352 304V272C352 263 359 256 368 256H400C409 256 416 263 416 272V304Z"/></svg>