<svg xmlns="http://www.w3.org/2000/svg" viewBox="0 0 512 512"><!-- Font Awesome Pro 6.0.0-alpha1 by @fontawesome - https://fontawesome.com License - https://fontawesome.com/license (Commercial License) --><path d="M464 96H272L217 41C211 35 203 32 195 32H48C22 32 0 54 0 80V432C0 458 22 480 48 480H464C490 480 512 458 512 432V144C512 118 490 96 464 96ZM496 432C496 450 482 464 464 464H48C30 464 16 450 16 432V80C16 62 30 48 48 48H188C197 48 205 51 211 57L265 112H464C482 112 496 126 496 144V432ZM338 248H296V206C296 194 286 184 274 184H238C226 184 216 194 216 206V248H174C162 248 152 258 152 270V306C152 318 162 328 174 328H216V370C216 382 226 392 238 392H274C286 392 296 382 296 370V328H338C350 328 360 318 360 306V270C360 258 350 248 338 248ZM344 306C344 309 341 312 338 312H280V370C280 373 277 376 274 376H238C235 376 232 373 232 370V312H174C171 312 168 309 168 306V270C168 267 171 264 174 264H232V206C232 203 235 200 238 200H274C277 200 280 203 280 206V264H338C341 264 344 267 344 270V306Z"/></svg>