<svg xmlns="http://www.w3.org/2000/svg" viewBox="0 0 576 512"><!-- Font Awesome Pro 6.0.0-alpha1 by @fontawesome - https://fontawesome.com License - https://fontawesome.com/license (Commercial License) --><path d="M544 32H432L405 5C402 2 398 0 393 0H320C302 0 288 14 288 32V192C288 210 302 224 320 224H544C562 224 576 210 576 192V64C576 46 562 32 544 32ZM560 192C560 201 553 208 544 208H320C311 208 304 201 304 192V32C304 23 311 16 320 16H393L421 43L425 48H544C553 48 560 55 560 64V192ZM544 320H432L405 293C402 290 398 288 393 288H320C302 288 288 302 288 320V480C288 498 302 512 320 512H544C562 512 576 498 576 480V352C576 334 562 320 544 320ZM560 480C560 489 553 496 544 496H320C311 496 304 489 304 480V320C304 311 311 304 320 304H393L421 331L425 336H544C553 336 560 343 560 352V480ZM248 136C252 136 256 132 256 128S252 120 248 120H16V8C16 4 12 0 8 0S0 4 0 8V384C0 406 18 424 40 424H248C252 424 256 420 256 416S252 408 248 408H40C27 408 16 397 16 384V136H248Z"/></svg>