<svg xmlns="http://www.w3.org/2000/svg" viewBox="0 0 512 512"><!-- Font Awesome Pro 6.0.0-alpha1 by @fontawesome - https://fontawesome.com License - https://fontawesome.com/license (Commercial License) --><path d="M464 96H272L217 41C211 35 203 32 195 32H48C22 32 0 54 0 80V432C0 458 22 480 48 480H464C490 480 512 458 512 432V144C512 118 490 96 464 96ZM496 432C496 450 482 464 464 464H48C30 464 16 450 16 432V80C16 62 30 48 48 48H188C197 48 205 51 211 57L265 112H464C482 112 496 126 496 144V432ZM324 345L267 288L324 231C327 228 327 223 324 220S316 217 313 220L256 277L199 220C196 217 191 217 188 220S185 228 188 231L245 288L188 345C185 348 185 353 188 356S196 359 199 356L256 299L313 356C316 359 321 359 324 356S327 348 324 345Z"/></svg>