<svg xmlns="http://www.w3.org/2000/svg" viewBox="0 0 512 512"><!-- Font Awesome Pro 6.0.0-alpha1 by @fontawesome - https://fontawesome.com License - https://fontawesome.com/license (Commercial License) --><path d="M464 96H272L217 41C211 35 203 32 195 32H48C22 32 0 54 0 80V432C0 458 22 480 48 480H464C490 480 512 458 512 432V144C512 118 490 96 464 96ZM424 112V327L357 274C354 271 350 271 347 274L280 327V112H424ZM496 432C496 450 482 464 464 464H48C30 464 16 450 16 432V80C16 62 30 48 48 48H188C197 48 205 51 211 57L264 111V344C264 347 266 350 269 351C271 353 275 352 277 350L352 290L427 350C428 351 430 352 432 352C433 352 434 352 435 351C438 350 440 347 440 344V112H464C482 112 496 126 496 144V432Z"/></svg>