<svg xmlns="http://www.w3.org/2000/svg" viewBox="0 0 448 512"><!-- Font Awesome Pro 6.0.0-alpha1 by @fontawesome - https://fontawesome.com License - https://fontawesome.com/license (Commercial License) --><path d="M440 464H390L231 37C229 30 219 30 216 37L58 464H8C4 464 0 468 0 472C0 476 4 480 8 480H136C140 480 144 476 144 472C144 468 140 464 136 464H75L126 327C127 327 127 328 128 328H320C321 328 321 327 322 327L373 464H312C308 464 304 468 304 472C304 476 308 480 312 480H440C444 480 448 476 448 472C448 468 444 464 440 464ZM132 312L224 63L316 312H132Z"/></svg>