<svg xmlns="http://www.w3.org/2000/svg" viewBox="0 0 512 512"><!-- Font Awesome Pro 6.0.0-alpha1 by @fontawesome - https://fontawesome.com License - https://fontawesome.com/license (Commercial License) --><path d="M456 320H329L315 245L461 226C470 225 476 217 475 209C443 62 317 16 240 16C107 16 0 123 0 256C0 312 19 364 52 404C58 412 67 416 77 416H104L190 461C199 466 209 468 219 468C236 468 253 461 265 449C302 412 276 367 270 352L264 336H315L327 398C338 455 387 496 445 496H456C478 496 496 478 496 456V360C496 338 478 320 456 320ZM254 437C245 447 232 452 219 452C211 452 204 450 197 447L108 400H77C72 400 67 398 64 394C33 355 16 307 16 256C16 132 116 32 240 32C307 32 428 70 459 210L271 235C256 237 243 245 236 258C228 271 227 286 232 300C232 300 257 361 258 363C269 389 276 415 254 437ZM258 320L247 294C239 275 252 253 273 251L299 247L312 320H258ZM480 456C480 469 469 480 456 480H445C397 480 355 447 344 400H480V456ZM480 384H341L332 336H456C469 336 480 347 480 360V384ZM160 304C142 304 128 318 128 336S142 368 160 368S192 354 192 336S178 304 160 304ZM160 352C151 352 144 345 144 336S151 320 160 320S176 327 176 336S169 352 160 352Z"/></svg>