<svg xmlns="http://www.w3.org/2000/svg" viewBox="0 0 576 512"><!-- Font Awesome Pro 6.0.0-alpha1 by @fontawesome - https://fontawesome.com License - https://fontawesome.com/license (Commercial License) --><path d="M403 330C402 329 400 328 398 328L398 328C391 328 387 336 392 341L491 440C497 446 497 455 492 461L461 492C456 497 447 498 441 492L327 374C324 370 319 370 316 374L315 374C312 377 312 382 315 385L429 503C435 509 442 512 450 512H451C459 512 466 509 472 503L503 472C509 466 512 458 512 450C512 442 508 435 503 429L403 330ZM153 308L153 308C158 304 156 296 150 295C80 277 47 234 31 197C1 125 22 43 43 22C50 14 63 14 70 22L235 186C240 191 249 187 249 180C249 179 249 179 249 179C249 177 248 176 246 174L82 10C68 -3 45 -3 31 10C4 38 -15 126 16 203C33 244 70 291 145 310C148 311 151 310 153 308ZM410 214C413 217 419 217 422 214L550 86C553 83 553 78 550 74C547 71 541 71 538 74L410 203C407 206 407 211 410 214ZM572 122C568 120 563 121 561 125L500 230C481 258 451 276 418 280C398 282 372 278 355 271C352 270 349 270 346 273L135 492C129 498 120 496 115 492L84 461C79 456 78 447 84 441L304 230C306 228 307 224 305 221C298 204 295 178 297 158C300 125 319 95 347 76L452 15C456 13 457 8 455 4C453 0 448 -1 444 1L339 63C306 84 285 118 281 157C279 177 282 203 289 222L73 429C67 434 64 442 64 450S67 466 73 472L104 503C110 509 117 512 125 512H126C134 512 141 508 147 503L354 288C373 295 399 298 419 296C458 292 492 271 513 238L575 133C577 129 576 124 572 122ZM362 166C365 169 371 169 374 166L502 38C505 35 505 30 502 26S493 23 490 26L362 155C359 158 359 163 362 166Z"/></svg>