<svg xmlns="http://www.w3.org/2000/svg" viewBox="0 0 320 512"><!-- Font Awesome Pro 6.0.0-alpha1 by @fontawesome - https://fontawesome.com License - https://fontawesome.com/license (Commercial License) --><path d="M320 40C320 44 316 48 312 48H104C91 48 80 59 80 72V208H280C284 208 288 212 288 216S284 224 280 224H80V336H216C220 336 224 340 224 344S220 352 216 352H80V472C80 476 76 480 72 480S64 476 64 472V352H8C4 352 0 348 0 344S4 336 8 336H64V72C64 50 82 32 104 32H312C316 32 320 36 320 40Z"/></svg>