<svg xmlns="http://www.w3.org/2000/svg" viewBox="0 0 384 512"><!-- Font Awesome Pro 6.0.0-alpha1 by @fontawesome - https://fontawesome.com License - https://fontawesome.com/license (Commercial License) --><path d="M368 224H334C327 224 320 228 319 235C310 274 257 304 192 304C127 304 74 274 65 235C64 228 57 224 50 224H16C11 224 6 226 3 230C0 234 -1 239 0 243L54 487C58 502 71 512 86 512H298C313 512 326 502 330 487L384 243C385 239 384 234 381 230C378 226 373 224 368 224ZM314 484C312 491 306 496 298 496H86C78 496 72 491 70 484L16 240L50 240C61 286 121 320 192 320C263 320 323 286 334 240H368L368 240L314 484ZM160 277C164 277 168 273 168 269V24C168 21 169 19 172 17C174 16 177 16 180 17L212 33C214 34 216 37 216 40V269C216 273 220 277 224 277S232 273 232 269V40C232 31 227 22 219 19L187 3C179 -1 170 -1 163 4C156 8 152 16 152 24V269C152 273 156 277 160 277ZM93 239C94 243 97 246 101 246C102 246 102 246 103 246C107 245 110 241 109 236L72 47C72 44 73 41 75 39L104 18C106 16 109 16 111 17C114 18 116 20 116 23L120 43C121 47 125 50 130 49C134 48 137 44 136 40L132 20C131 11 125 5 117 2C109 -1 100 0 94 5L66 26C58 32 55 41 56 50L93 239ZM263 63C265 59 267 59 267 59L302 48C304 48 307 48 309 50C311 52 312 55 312 57L282 222C281 223 280 224 280 226C279 230 281 234 286 235C286 235 287 235 287 235C291 235 295 232 296 229C296 228 297 227 297 225L328 60C329 52 326 44 320 38C314 33 305 31 297 33L263 43C257 45 252 49 249 55C247 59 248 64 252 66C256 68 261 67 263 63ZM16 194C17 197 20 200 24 200C25 200 25 200 26 200C30 199 33 195 32 190L16 112C15 107 17 101 21 97C25 94 30 93 35 94C40 95 44 92 45 88C46 84 43 80 39 79C29 76 18 79 11 85C2 93 -1 104 1 115L16 194ZM350 97C353 96 358 96 363 100C367 104 369 109 368 115L352 190C351 195 354 199 358 200C359 200 359 200 360 200C364 200 367 197 368 194L383 118C385 107 382 96 373 88C367 82 357 79 347 81C343 82 340 86 340 90C341 95 345 97 350 97Z"/></svg>