<svg xmlns="http://www.w3.org/2000/svg" viewBox="0 0 640 512"><!-- Font Awesome Pro 6.0.0-alpha1 by @fontawesome - https://fontawesome.com License - https://fontawesome.com/license (Commercial License) --><path d="M639 368L605 157C596 106 557 66 505 53H504C454 42 372 32 320 32C268 32 186 42 135 53C83 66 44 106 35 157L1 368C-9 427 39 480 102 480C151 480 195 450 211 405L218 384H422L429 405C445 450 489 480 538 480C601 480 649 427 639 368ZM606 433C589 453 565 464 538 464C496 464 458 438 444 400L433 368H207L196 400C182 438 144 464 102 464C75 464 51 453 34 433C19 416 13 393 17 371L51 159C58 115 93 80 139 69C188 57 269 48 320 48C370 48 452 57 501 69L502 69C548 81 582 116 589 159L623 371C627 393 621 416 606 433ZM256 216H200V160C200 156 196 152 192 152S184 156 184 160V216H128C124 216 120 220 120 224S124 232 128 232H184V288C184 292 188 296 192 296S200 292 200 288V232H256C260 232 264 228 264 224S260 216 256 216ZM496 136C474 136 456 154 456 176S474 216 496 216C518 216 536 198 536 176S518 136 496 136ZM496 200C483 200 472 189 472 176S483 152 496 152S520 163 520 176S509 200 496 200ZM432 232C410 232 392 250 392 272C392 294 410 312 432 312S472 294 472 272C472 250 454 232 432 232ZM432 296C419 296 408 285 408 272S419 248 432 248S456 259 456 272S445 296 432 296Z"/></svg>