<svg xmlns="http://www.w3.org/2000/svg" viewBox="0 0 384 512"><!-- Font Awesome Pro 6.0.0-alpha1 by @fontawesome - https://fontawesome.com License - https://fontawesome.com/license (Commercial License) --><path d="M304 272C286 272 272 286 272 304S286 336 304 336S336 322 336 304S322 272 304 272ZM304 320C295 320 288 313 288 304S295 288 304 288S320 295 320 304S313 320 304 320ZM336 0H48C22 0 0 22 0 48V464C0 490 22 512 48 512H288C341 512 384 469 384 416V48C384 22 362 0 336 0ZM368 416C368 460 332 496 288 496H48C30 496 16 482 16 464V48C16 30 30 16 48 16H336C354 16 368 30 368 48V416ZM240 336C222 336 208 350 208 368S222 400 240 400S272 386 272 368S258 336 240 336ZM240 384C231 384 224 377 224 368S231 352 240 352S256 359 256 368S249 384 240 384ZM96 240H256C282 240 304 218 304 192V80C304 71 297 64 288 64H96C87 64 80 71 80 80V224C80 233 87 240 96 240ZM96 80H288V192C288 210 274 224 256 224H96V80ZM152 328H120V296C120 292 116 288 112 288S104 292 104 296V328H72C68 328 64 332 64 336S68 344 72 344H104V376C104 380 108 384 112 384S120 380 120 376V344H152C156 344 160 340 160 336S156 328 152 328Z"/></svg>