<svg xmlns="http://www.w3.org/2000/svg" viewBox="0 0 448 512"><!-- Font Awesome Pro 6.0.0-alpha1 by @fontawesome - https://fontawesome.com License - https://fontawesome.com/license (Commercial License) --><path d="M384 32H64C29 32 0 61 0 96V416C0 451 29 480 64 480H384C419 480 448 451 448 416V96C448 61 419 32 384 32ZM432 416C432 442 410 464 384 464H64C38 464 16 442 16 416V96C16 70 38 48 64 48H384C410 48 432 70 432 96V416ZM384 168C388 168 392 164 392 160S388 152 384 152H328V96C328 92 324 88 320 88S312 92 312 96V152H232V96C232 92 228 88 224 88S216 92 216 96V152H136V96C136 92 132 88 128 88S120 92 120 96V152H64C60 152 56 156 56 160S60 168 64 168H120V248H64C60 248 56 252 56 256S60 264 64 264H120V344H64C60 344 56 348 56 352S60 360 64 360H120V416C120 420 124 424 128 424S136 420 136 416V360H216V416C216 420 220 424 224 424S232 420 232 416V360H312V416C312 420 316 424 320 424S328 420 328 416V360H384C388 360 392 356 392 352S388 344 384 344H328V264H384C388 264 392 260 392 256S388 248 384 248H328V168H384ZM216 344H136V264H216V344ZM216 248H136V168H216V248ZM312 344H232V264H312V344ZM312 248H232V168H312V248Z"/></svg>