<svg xmlns="http://www.w3.org/2000/svg" viewBox="0 0 640 512"><!-- Font Awesome Pro 6.0.0-alpha1 by @fontawesome - https://fontawesome.com License - https://fontawesome.com/license (Commercial License) --><path d="M224 383C215 383 208 391 208 399S215 415 224 415S240 408 240 399S233 383 224 383ZM452 340L421 264C415 249 400 239 384 239H256C240 239 225 249 219 264L188 340C172 347 160 364 160 383V487C160 501 171 511 184 511H200C213 511 224 501 224 487V463H416V487C416 501 427 511 440 511H456C469 511 480 501 480 487V383C480 364 468 347 452 340ZM234 270C238 261 246 255 256 255H384C394 255 402 261 406 270L433 336C433 336 432 335 432 335H208C208 335 207 336 207 336L234 270ZM208 487C208 492 204 495 200 495H184C180 495 176 492 176 487V463H208V487ZM464 487C464 492 460 495 456 495H440C436 495 432 492 432 487V463H464V487ZM464 447H176V383C176 366 190 351 208 351H432C450 351 464 366 464 383V447ZM614 112L323 0C321 -1 319 -1 317 0L26 112C10 118 0 133 0 149V503C0 508 4 511 8 511S16 508 16 503V149C16 140 22 131 31 127L320 16L609 127C618 131 624 140 624 149V503C624 508 628 511 632 511S640 508 640 503V149C640 133 630 118 614 112ZM520 191H120C107 191 96 202 96 215V503C96 508 100 511 104 511S112 508 112 503V215C112 211 116 207 120 207H520C524 207 528 211 528 215V503C528 508 532 511 536 511S544 508 544 503V215C544 202 533 191 520 191ZM416 383C407 383 400 391 400 399S407 415 416 415S432 408 432 399S425 383 416 383Z"/></svg>