<svg xmlns="http://www.w3.org/2000/svg" viewBox="0 0 640 512"><!-- Font Awesome Pro 6.0.0-alpha1 by @fontawesome - https://fontawesome.com License - https://fontawesome.com/license (Commercial License) --><path d="M637 498L13 2C12 1 10 0 8 0C6 0 3 1 2 3C-1 6 0 12 3 14L627 510C629 511 630 512 632 512C634 512 637 511 638 509C641 506 640 500 637 498ZM408 496H384V399L368 386V416H112V183L96 170V496H72C68 496 64 500 64 504S68 512 72 512H408C412 512 416 508 416 504S412 496 408 496ZM368 496H112V432H368V496ZM168 16H312C343 16 368 41 368 72V202L384 215V72C384 32 352 0 312 0H168C153 0 140 4 129 12L142 23C150 19 159 16 168 16ZM496 67V168C496 190 514 208 536 208H560V355L576 367V141C576 131 572 120 564 113L478 26C475 23 469 23 466 26S463 35 466 38L496 67ZM512 83L553 124C557 129 560 135 560 141V192H536C523 192 512 181 512 168V83Z"/></svg>