<svg xmlns="http://www.w3.org/2000/svg" viewBox="0 0 576 512"><!-- Font Awesome Pro 6.0.0-alpha1 by @fontawesome - https://fontawesome.com License - https://fontawesome.com/license (Commercial License) --><path d="M464 352C464 361 471 368 480 368S496 361 496 352C496 343 489 336 480 336S464 343 464 352ZM304 128C304 119 297 112 288 112S272 119 272 128C272 137 279 144 288 144S304 137 304 128ZM416 192C416 201 423 208 432 208S448 201 448 192C448 183 441 176 432 176S416 183 416 192ZM160 192C160 183 153 176 144 176S128 183 128 192C128 201 135 208 144 208S160 201 160 192ZM72 342C71 347 74 351 78 352L206 376C202 386 200 397 200 408C200 412 204 416 208 416S216 412 216 408C216 368 248 336 288 336S360 368 360 408C360 412 364 416 368 416S376 412 376 408C376 359 337 320 288 320C257 320 229 337 214 362L82 336C77 335 73 338 72 342ZM0 320C0 375 16 429 47 476C48 479 51 480 54 480H522C525 480 528 479 529 476C560 429 576 375 576 320C576 161 447 32 288 32S0 161 0 320ZM16 320C16 170 138 48 288 48S560 170 560 320C560 371 545 420 518 464H58C31 420 16 371 16 320Z"/></svg>