<svg xmlns="http://www.w3.org/2000/svg" viewBox="0 0 640 512"><!-- Font Awesome Pro 6.0.0-alpha1 by @fontawesome - https://fontawesome.com License - https://fontawesome.com/license (Commercial License) --><path d="M160 128C134 128 112 150 112 176S134 224 160 224S208 202 208 176S186 128 160 128ZM160 208C142 208 128 194 128 176S142 144 160 144S192 158 192 176S178 208 160 208ZM311 208L288 194C290 182 290 171 288 157L311 144C318 140 322 131 319 123C312 101 301 81 285 64C282 61 277 59 272 59C269 59 266 59 263 61L240 74C230 67 219 61 208 56V29C208 21 202 13 194 11C181 9 170 8 160 8C144 8 132 10 126 11C118 13 112 21 112 29V56C101 61 90 67 80 74L57 61C54 59 51 59 48 59C43 59 38 60 34 64C19 81 8 101 1 123C-2 131 2 140 9 144L32 157C30 171 30 182 32 194L9 208C2 212 -2 221 1 229C8 250 19 270 35 287C37 290 42 293 48 293C51 293 54 292 57 291L80 277C90 285 101 291 112 296V322C112 331 118 338 126 340C139 343 150 344 160 344C176 344 188 341 194 340C202 338 208 331 208 322V296C219 291 230 285 240 277L263 291C266 292 269 293 272 293C277 293 282 291 285 287C301 270 312 251 319 229C322 221 318 212 311 208ZM271 277L239 258C218 274 216 276 192 285V322C192 329 128 329 128 322V285C104 276 102 274 81 258L48 277C42 277 11 225 17 221L49 203C45 177 45 176 49 149L17 130C12 127 41 74 49 75L82 94C102 78 104 76 128 67V29C128 22 192 22 192 29V67C216 76 218 78 238 94L272 75C278 75 309 127 303 130L271 149C275 176 275 177 271 203L303 221C308 225 279 278 271 277ZM628 318C627 310 619 304 611 304H584C579 293 573 282 565 272L579 249C580 246 581 243 581 240C581 235 579 230 575 226C558 211 539 200 517 193C509 190 500 194 496 201L483 224C469 222 458 222 445 224L432 201C428 194 419 190 411 193C389 200 370 211 352 227C350 229 347 234 347 240C347 243 347 246 349 249L362 272C355 282 348 293 344 304H317C309 304 301 310 300 318C297 331 296 342 296 352C296 368 298 380 300 386C301 394 309 400 317 400H344C348 411 355 422 362 432L349 455C348 458 347 461 347 464C347 469 349 474 353 477C370 493 389 504 411 511C419 514 428 510 432 503L445 480C458 482 469 482 483 480L496 503C500 510 509 514 517 511C539 504 558 493 576 477C579 474 581 469 581 464C581 461 581 458 579 455L565 432C573 422 579 411 584 400H611C619 400 627 394 628 386C631 373 632 362 632 352C632 336 630 324 628 318ZM611 384H573C563 408 562 410 546 430L565 464C565 470 513 501 510 495L491 463C464 467 462 467 437 463L418 495C415 500 362 471 363 463L382 431C365 410 364 408 355 384H317C310 384 310 320 317 320H355C364 296 365 294 382 273L363 240C363 234 415 203 418 209L437 241C462 237 464 237 491 241L510 209C513 204 566 233 565 241L546 274C562 294 563 296 573 320H611C618 320 618 384 611 384ZM464 304C437 304 416 326 416 352S437 400 464 400S512 378 512 352S490 304 464 304ZM464 384C446 384 432 370 432 352S446 320 464 320S496 334 496 352S481 384 464 384Z"/></svg>