<svg xmlns="http://www.w3.org/2000/svg" viewBox="0 0 384 512"><!-- Font Awesome Pro 6.0.0-alpha1 by @fontawesome - https://fontawesome.com License - https://fontawesome.com/license (Commercial License) --><path d="M256 152C234 152 216 170 216 192S234 232 256 232C278 232 296 214 296 192S278 152 256 152ZM256 216C243 216 232 205 232 192S243 168 256 168S280 179 280 192S269 216 256 216ZM192 0C190 0 188 0 186 0C81 3 0 95 0 200V464C0 474 8 480 16 480C20 480 24 479 27 475L52 457C55 455 58 454 62 454C66 454 71 455 74 459L117 507C120 510 124 512 128 512S136 510 139 507L180 462C183 458 188 456 192 456S201 458 204 462L245 507C248 510 252 512 256 512S264 510 267 507L310 459C313 455 318 454 322 454C326 454 329 455 332 457L357 475C360 479 364 480 368 480C376 480 384 474 384 464V192C384 86 298 0 192 0ZM367 463L366 462L341 444C336 440 329 438 322 438C313 438 304 442 298 448L257 497L216 451C210 444 201 440 192 440C183 440 174 444 168 451L129 497L86 448C80 442 71 438 62 438C55 438 48 440 43 444L18 462L17 463L16 464V200C16 101 93 19 187 16C188 16 190 16 192 16C289 16 368 95 368 192L368 464L367 463ZM128 152C106 152 88 170 88 192S106 232 128 232C150 232 168 214 168 192S150 152 128 152ZM128 216C115 216 104 205 104 192S115 168 128 168S152 179 152 192S141 216 128 216Z"/></svg>