<svg xmlns="http://www.w3.org/2000/svg" viewBox="0 0 576 512"><!-- Font Awesome Pro 6.0.0-alpha1 by @fontawesome - https://fontawesome.com License - https://fontawesome.com/license (Commercial License) --><path d="M512 128H455C470 115 480 95 480 72C480 32 450 0 414 0C383 0 359 6 288 120C288 120 288 120 288 120C217 6 193 0 162 0C126 0 96 32 96 72C96 95 106 115 121 128H64C29 128 0 157 0 192V448C0 483 29 512 64 512H512C547 512 576 483 576 448V192C576 157 547 128 512 128ZM414 16C441 16 464 41 464 72S441 128 414 128H302C372 16 391 16 414 16ZM112 72C112 41 135 16 162 16C185 16 204 16 274 128H162C135 128 112 103 112 72ZM560 448C560 474 538 496 512 496H64C38 496 16 474 16 448V416H560V448ZM560 400H16V320H560V400ZM16 304V192C16 166 38 144 64 144H261L186 218C183 221 183 227 186 230C188 231 190 232 192 232S196 231 198 230L283 144H293L378 230C380 231 382 232 384 232S388 231 390 230C393 227 393 221 390 218L315 144H512C538 144 560 166 560 192V304H16Z"/></svg>