<svg xmlns="http://www.w3.org/2000/svg" viewBox="0 0 512 512"><!-- Font Awesome Pro 6.0.0-alpha1 by @fontawesome - https://fontawesome.com License - https://fontawesome.com/license (Commercial License) --><path d="M480 128H423C438 115 448 95 448 72C448 32 418 0 382 0C351 0 327 6 256 121C185 6 161 0 130 0C94 0 64 32 64 72C64 95 74 115 89 128H32C14 128 0 142 0 160V224C0 242 14 256 32 256V448C32 483 61 512 96 512H416C451 512 480 483 480 448V256C498 256 512 242 512 224V160C512 142 498 128 480 128ZM382 16C409 16 432 41 432 72S409 128 382 128H270C340 16 359 16 382 16ZM80 72C80 41 103 16 130 16C153 16 172 16 242 128H130C103 128 80 103 80 72ZM16 224V160C16 151 23 144 32 144H248V240H32C23 240 16 233 16 224ZM96 496C70 496 48 474 48 448V256H248V496H96ZM464 448C464 474 442 496 416 496H264V256H464V448ZM496 224C496 233 489 240 480 240H264V144H480C489 144 496 151 496 160V224Z"/></svg>