<svg xmlns="http://www.w3.org/2000/svg" viewBox="0 0 448 512"><!-- Font Awesome Pro 6.0.0-alpha1 by @fontawesome - https://fontawesome.com License - https://fontawesome.com/license (Commercial License) --><path d="M192 80C183 80 176 87 176 96S183 112 192 112C201 112 208 105 208 96S201 80 192 80ZM224 336C224 336 224 336 224 336C224 336 224 336 224 336C215 336 208 343 208 352C208 361 215 368 224 368C224 368 224 368 224 368S224 368 224 368C233 368 240 361 240 352C240 343 233 336 224 336ZM224 272C224 272 224 272 224 272C224 272 224 272 224 272C215 272 208 279 208 288S215 304 224 304C224 304 224 304 224 304S224 304 224 304C233 304 240 297 240 288S233 272 224 272ZM224 208C224 208 224 208 224 208C224 208 224 208 224 208C215 208 208 215 208 224S215 240 224 240C224 240 224 240 224 240S224 240 224 240C233 240 240 233 240 224S233 208 224 208ZM414 290C428 273 435 251 431 228C425 192 392 165 353 165H312C324 148 330 127 330 106C330 78 319 51 299 31C279 11 252 0 224 0C196 0 169 11 149 31C129 51 118 78 118 106C118 127 124 148 136 165H95C56 165 23 192 17 228C13 251 20 273 34 290C49 307 70 317 92 317H117L117 317L118 319L63 384C49 401 42 423 45 445C47 466 57 484 72 496C85 506 102 512 119 512C142 512 163 502 177 485L213 442C217 437 222 437 224 437C226 437 231 437 235 442L271 485C285 502 306 512 329 512C346 512 363 506 376 496C391 484 401 466 403 445C406 423 399 401 385 384L330 319L331 317L331 317H356C378 317 399 307 414 290ZM314 318C314 322 315 326 318 329L373 395C394 421 393 462 366 483C355 492 342 496 329 496C312 496 295 489 283 474L247 431C241 424 233 421 224 421C216 421 207 424 201 431L165 474C153 489 136 496 119 496C106 496 93 492 82 483C55 462 54 421 76 395L130 329C133 326 134 322 134 318C134 309 126 301 117 301H92C56 301 27 268 33 231C38 201 65 181 95 181H154C161 181 164 173 159 168C144 152 134 130 134 106C134 56 174 16 224 16C274 16 314 56 314 106C314 130 304 152 289 168C284 173 287 181 294 181H353C383 181 410 201 415 231C421 268 392 301 356 301H331C322 301 314 309 314 318ZM256 80C247 80 240 87 240 96S247 112 256 112C265 112 272 105 272 96S265 80 256 80Z"/></svg>