<svg xmlns="http://www.w3.org/2000/svg" viewBox="0 0 384 512"><!-- Font Awesome Pro 6.0.0-alpha1 by @fontawesome - https://fontawesome.com License - https://fontawesome.com/license (Commercial License) --><path d="M344 41C339 35 332 32 324 32H60C52 32 45 35 40 41C34 46 32 54 32 62L60 454C61 469 73 480 88 480H296C311 480 323 469 324 454L352 62C352 54 350 46 344 41ZM51 52C54 49 57 48 60 48H324C327 48 330 49 333 52C335 54 336 58 336 61L331 128H53L48 61C48 58 49 54 51 52ZM308 453C308 459 302 464 296 464H88C82 464 76 459 76 453L54 144H330L308 453Z"/></svg>