<svg xmlns="http://www.w3.org/2000/svg" viewBox="0 0 512 512"><!-- Font Awesome Pro 6.0.0-alpha1 by @fontawesome - https://fontawesome.com License - https://fontawesome.com/license (Commercial License) --><path d="M368 0C315 0 266 29 241 76C239 80 241 85 244 87C248 89 253 88 255 84C278 42 321 16 368 16C439 16 496 73 496 144C496 207 450 260 387 270C383 271 380 275 381 279C381 283 385 286 389 286C389 286 389 286 390 286C461 275 512 215 512 144C512 65 447 0 368 0ZM320 128H32C23 128 14 132 8 138C2 145 -1 154 0 163L32 483C34 499 48 512 64 512H288C304 512 318 499 320 483L352 163C353 154 350 145 344 138C338 132 329 128 320 128ZM304 482C303 490 296 496 288 496H64C56 496 49 490 48 482L25 256H326L304 482ZM328 240H24L16 162C15 152 23 144 32 144H320C333 144 336 157 336 162L328 240Z"/></svg>