<svg xmlns="http://www.w3.org/2000/svg" viewBox="0 0 576 512"><!-- Font Awesome Pro 6.0.0-alpha1 by @fontawesome - https://fontawesome.com License - https://fontawesome.com/license (Commercial License) --><path d="M560 212C560 212 542 158 533 133C528 117 522 100 515 80C503 44 464 24 426 35L406 41C402 42 399 47 400 51C402 55 406 58 410 56L431 50C460 42 490 57 500 85L540 202C550 233 556 255 558 281C554 277 549 274 543 272C511 261 478 256 446 256C408 256 370 263 334 278C329 280 324 284 320 288V288H256V288C252 284 247 280 242 278C206 263 168 256 130 256C98 256 65 261 33 272C27 274 22 277 18 281C20 255 26 233 36 203L76 85C86 57 116 42 145 50L166 56C170 58 174 55 176 51C177 47 174 42 170 41L150 35C112 24 73 44 61 80C54 100 48 117 43 133C34 158 16 212 16 212C5 242 0 273 0 305V369C0 430 50 480 112 480H155C213 480 262 435 266 378L270 326C271 318 269 311 266 304H310C307 311 305 318 306 326L310 378C314 435 363 480 421 480H464C526 480 576 430 576 369V305C576 273 571 242 560 212ZM250 376C247 426 205 464 155 464H112C59 464 16 422 16 369C16 369 16 318 16 317C16 303 25 291 38 287C62 279 93 272 130 272C166 272 202 279 235 293C248 298 255 311 254 325L250 376ZM464 464H421C371 464 329 426 326 376L322 325C321 311 328 298 341 293C374 279 410 272 446 272C483 272 514 279 538 287C551 291 560 303 560 317C560 318 560 369 560 369C560 422 517 464 464 464Z"/></svg>