<svg xmlns="http://www.w3.org/2000/svg" viewBox="0 0 576 512"><!-- Font Awesome Pro 6.0.0-alpha1 by @fontawesome - https://fontawesome.com License - https://fontawesome.com/license (Commercial License) --><path d="M533 141C528 124 522 105 515 84C509 64 496 49 479 40C462 31 444 30 426 35L406 42C401 43 399 48 400 52C402 56 406 58 410 57L431 50C444 46 459 47 471 54C485 61 495 73 500 89C507 110 513 129 518 146C536 202 547 237 554 269C529 232 488 208 440 208C382 208 333 245 313 296H263C243 245 194 208 136 208C88 208 47 232 22 269C29 237 40 202 58 146C63 129 69 110 76 89C81 73 91 61 105 54C117 47 132 46 145 50L166 57C170 58 174 56 176 52C177 48 175 43 170 42L150 35C132 30 114 31 97 40C80 49 67 64 61 84C54 105 48 124 43 141C12 236 0 272 0 344C0 419 61 480 136 480S272 419 272 344C272 333 270 322 268 312H308C306 322 304 333 304 344C304 419 365 480 440 480S576 419 576 344C576 272 564 236 533 141ZM136 464C70 464 16 410 16 344S70 224 136 224S256 278 256 344S202 464 136 464ZM440 464C374 464 320 410 320 344S374 224 440 224S560 278 560 344S506 464 440 464Z"/></svg>