<svg xmlns="http://www.w3.org/2000/svg" viewBox="0 0 448 512"><!-- Font Awesome Pro 6.0.0-alpha1 by @fontawesome - https://fontawesome.com License - https://fontawesome.com/license (Commercial License) --><path d="M376 496H232V415C344 403 432 307 432 192C432 132 407 74 364 32L382 14C385 11 385 5 382 2S373 -1 370 2L306 67C277 44 243 32 208 32C167 32 126 48 95 79C37 137 33 227 83 290C83 290 82 290 82 290L18 354C15 357 15 363 18 366C20 367 22 368 24 368S28 367 30 366L48 348C90 391 148 416 208 416C211 416 213 416 216 416V496H72C68 496 64 500 64 504S68 512 72 512H376C380 512 384 508 384 504S380 496 376 496ZM106 90C133 63 170 48 208 48C246 48 283 63 310 90C366 146 366 238 310 294C283 321 246 336 208 336C170 336 133 321 106 294C50 238 50 146 106 90ZM59 336L93 303C94 303 94 304 95 305C126 336 167 352 208 352S290 336 321 305C384 243 384 141 321 79C320 78 319 78 319 77L326 70H326L352 43C393 82 416 136 416 192C416 307 323 400 208 400C152 400 98 377 59 336Z"/></svg>