<svg xmlns="http://www.w3.org/2000/svg" viewBox="0 0 640 512"><!-- Font Awesome Pro 6.0.0-alpha1 by @fontawesome - https://fontawesome.com License - https://fontawesome.com/license (Commercial License) --><path d="M624 137L341 36C334 33 327 32 320 32S306 33 299 36L16 137C6 140 0 150 0 160S6 180 16 183L80 206C71 221 64 237 60 254C60 255 60 256 60 257C44 259 32 272 32 288C32 300 39 311 50 316C49 317 48 318 48 319L24 471C23 475 26 479 31 480C31 480 32 480 32 480C36 480 39 477 40 473L64 321C64 321 64 320 64 320C64 320 64 320 64 320S64 320 64 320C64 320 64 321 64 321L88 473C89 477 92 480 96 480C96 480 97 480 97 480C102 479 105 475 104 471L80 319C80 318 79 317 78 316C89 311 96 300 96 288C96 274 87 263 75 258C75 258 75 258 75 258C79 241 86 225 96 212L299 284C306 287 313 288 320 288S334 287 341 284L624 183C634 180 640 170 640 160S634 140 624 137ZM80 288C80 297 73 304 64 304S48 297 48 288S55 272 64 272S80 279 80 288ZM619 168L336 269C331 271 325 272 320 272S309 271 304 269L106 198C128 173 158 156 192 152L321 136C325 135 328 131 328 127C327 123 323 120 319 120L190 136C150 141 114 162 90 192L21 168C18 167 16 164 16 160S18 153 21 152L304 51C309 49 315 48 320 48S331 49 336 51L619 152C622 153 624 156 624 160S622 167 619 168ZM496 264C492 265 489 269 489 273L504 397C504 430 430 464 320 464S136 430 136 398L151 273C151 269 148 265 144 264C139 264 135 267 135 271L120 397C120 444 208 480 320 480S520 444 520 396L505 271C505 267 501 263 496 264Z"/></svg>