<svg xmlns="http://www.w3.org/2000/svg" viewBox="0 0 640 512"><!-- Font Awesome Pro 6.0.0-alpha1 by @fontawesome - https://fontawesome.com License - https://fontawesome.com/license (Commercial License) --><path d="M536 440H104C100 440 96 444 96 448S100 456 104 456H536C540 456 544 452 544 448S540 440 536 440ZM153 323C154 326 157 328 160 328C161 328 162 328 163 327L483 199C486 198 488 195 488 192C488 189 486 186 483 185L163 57C159 55 154 57 153 61C151 65 153 70 157 71L458 192L157 313C153 314 151 319 153 323Z"/></svg>