<svg xmlns="http://www.w3.org/2000/svg" viewBox="0 0 320 512"><!-- Font Awesome Pro 6.0.0-alpha1 by @fontawesome - https://fontawesome.com License - https://fontawesome.com/license (Commercial License) --><path d="M96 32H32C14 32 0 46 0 64V128C0 146 14 160 32 160H96C114 160 128 146 128 128V64C128 46 114 32 96 32ZM112 128C112 137 105 144 96 144H32C23 144 16 137 16 128V64C16 55 23 48 32 48H96C105 48 112 55 112 64V128ZM288 32H224C206 32 192 46 192 64V128C192 146 206 160 224 160H288C306 160 320 146 320 128V64C320 46 306 32 288 32ZM304 128C304 137 297 144 288 144H224C215 144 208 137 208 128V64C208 55 215 48 224 48H288C297 48 304 55 304 64V128ZM288 192H224C206 192 192 206 192 224V288C192 306 206 320 224 320H288C306 320 320 306 320 288V224C320 206 306 192 288 192ZM304 288C304 297 297 304 288 304H224C215 304 208 297 208 288V224C208 215 215 208 224 208H288C297 208 304 215 304 224V288ZM96 192H32C14 192 0 206 0 224V288C0 306 14 320 32 320H96C114 320 128 306 128 288V224C128 206 114 192 96 192ZM112 288C112 297 105 304 96 304H32C23 304 16 297 16 288V224C16 215 23 208 32 208H96C105 208 112 215 112 224V288ZM288 352H224C206 352 192 366 192 384V448C192 466 206 480 224 480H288C306 480 320 466 320 448V384C320 366 306 352 288 352ZM304 448C304 457 297 464 288 464H224C215 464 208 457 208 448V384C208 375 215 368 224 368H288C297 368 304 375 304 384V448ZM96 352H32C14 352 0 366 0 384V448C0 466 14 480 32 480H96C114 480 128 466 128 448V384C128 366 114 352 96 352ZM112 448C112 457 105 464 96 464H32C23 464 16 457 16 448V384C16 375 23 368 32 368H96C105 368 112 375 112 384V448Z"/></svg>