<svg xmlns="http://www.w3.org/2000/svg" viewBox="0 0 448 512"><!-- Font Awesome Pro 6.0.0-alpha1 by @fontawesome - https://fontawesome.com License - https://fontawesome.com/license (Commercial License) --><path d="M448 192V128C448 110 434 96 416 96H352C334 96 320 110 320 128V192C320 210 334 224 352 224H416C434 224 448 210 448 192ZM352 208C343 208 336 201 336 192V128C336 119 343 112 352 112H416C425 112 432 119 432 128V192C432 201 425 208 416 208H352ZM448 384V320C448 302 434 288 416 288H352C334 288 320 302 320 320V384C320 402 334 416 352 416H416C434 416 448 402 448 384ZM352 400C343 400 336 393 336 384V320C336 311 343 304 352 304H416C425 304 432 311 432 320V384C432 393 425 400 416 400H352ZM288 384V320C288 302 274 288 256 288H192C174 288 160 302 160 320V384C160 402 174 416 192 416H256C274 416 288 402 288 384ZM192 400C183 400 176 393 176 384V320C176 311 183 304 192 304H256C265 304 272 311 272 320V384C272 393 265 400 256 400H192ZM288 192V128C288 110 274 96 256 96H192C174 96 160 110 160 128V192C160 210 174 224 192 224H256C274 224 288 210 288 192ZM192 208C183 208 176 201 176 192V128C176 119 183 112 192 112H256C265 112 272 119 272 128V192C272 201 265 208 256 208H192ZM128 384V320C128 302 114 288 96 288H32C14 288 0 302 0 320V384C0 402 14 416 32 416H96C114 416 128 402 128 384ZM32 400C23 400 16 393 16 384V320C16 311 23 304 32 304H96C105 304 112 311 112 320V384C112 393 105 400 96 400H32ZM128 192V128C128 110 114 96 96 96H32C14 96 0 110 0 128V192C0 210 14 224 32 224H96C114 224 128 210 128 192ZM32 208C23 208 16 201 16 192V128C16 119 23 112 32 112H96C105 112 112 119 112 128V192C112 201 105 208 96 208H32Z"/></svg>