<svg xmlns="http://www.w3.org/2000/svg" viewBox="0 0 384 512"><!-- Font Awesome Pro 6.0.0-alpha1 by @fontawesome - https://fontawesome.com License - https://fontawesome.com/license (Commercial License) --><path d="M321 248H200V81C248 78 295 96 329 131C332 135 337 135 340 132C344 129 344 124 341 120C303 82 253 62 200 65V8C200 4 197 0 192 0S184 4 184 8V66C131 74 83 105 53 153C15 215 14 294 52 356C82 406 128 437 182 446C183 446 183 446 184 446V504C184 508 188 512 192 512S200 508 200 504V447C203 447 207 448 210 448C253 448 295 432 329 403C337 396 343 387 349 375C356 361 360 346 360 330V288C360 266 343 248 321 248ZM65 348C31 291 32 218 67 162C94 118 136 90 184 82V248H136C132 248 128 252 128 256S132 264 136 264H184V430C135 422 93 393 65 348ZM344 330C344 343 341 356 335 368C330 378 325 385 318 391C285 420 243 434 200 432V264H321C334 264 344 275 344 288V330Z"/></svg>