<svg xmlns="http://www.w3.org/2000/svg" viewBox="0 0 512 512"><!-- Font Awesome Pro 6.0.0-alpha1 by @fontawesome - https://fontawesome.com License - https://fontawesome.com/license (Commercial License) --><path d="M416 320H352C348 320 344 324 344 328S348 336 352 336H416C420 336 424 332 424 328S420 320 416 320ZM416 384H352C348 384 344 388 344 392S348 400 352 400H416C420 400 424 396 424 392S420 384 416 384ZM195 198C187 194 179 191 169 188C165 187 160 191 160 195V196C160 200 162 203 166 204C173 206 180 208 186 212C192 215 197 220 202 225C216 238 223 255 223 272C223 282 220 292 216 301C209 314 209 329 214 342C216 347 222 349 226 345C229 343 230 339 229 336C226 327 226 317 230 308C236 297 239 285 239 272C239 251 230 230 213 213C208 207 201 202 195 198ZM216 474C215 470 209 468 205 471C184 487 157 496 128 496C94 496 62 484 41 462C25 446 16 426 16 405C16 387 22 370 35 355C47 341 49 318 40 301C36 292 33 282 33 272C33 255 40 238 54 224C59 220 64 215 70 212C76 208 83 205 90 203C94 203 96 200 96 196V195C96 190 91 187 87 188C77 190 69 194 61 198C55 202 48 207 43 213C26 230 17 251 17 272C17 285 20 297 26 308C32 320 30 335 22 345C8 363 0 384 0 405C0 430 10 454 30 474C54 498 90 512 128 512C160 512 191 501 214 483C217 481 218 478 216 475C216 475 216 474 216 474ZM505 397L480 328C475 313 475 297 482 283C487 273 490 261 490 250L490 223C490 211 482 201 470 198C459 196 447 201 442 211L432 231C429 236 425 239 420 242C418 243 416 246 416 248V249C416 255 422 259 427 256C435 253 442 246 446 238L456 219C458 215 462 213 466 214C471 215 474 219 474 223L474 251C474 260 471 268 468 276C459 294 458 314 465 334L491 403C501 428 496 457 476 477C463 490 445 496 427 496L339 496C316 496 295 485 283 466C271 447 269 424 278 403L303 334C310 314 309 294 300 275C297 267 295 259 295 250V202C295 198 297 195 302 194C306 193 310 196 311 200L323 233C326 242 332 249 341 254C346 257 352 253 352 247L352 246C352 243 351 241 349 240C344 237 340 233 338 228L326 194C322 183 310 176 299 178C287 180 279 190 279 202V250C279 261 281 272 286 282C293 297 294 313 288 328L263 397C250 426 255 460 277 484C293 503 317 512 341 512H427C451 512 475 503 491 485C513 460 518 426 505 397ZM88 320C88 342 106 360 128 360S168 342 168 320S150 280 128 280S88 298 88 320ZM152 320C152 333 141 344 128 344S104 333 104 320S115 296 128 296S152 307 152 320ZM120 147V248C120 252 124 256 128 256S136 252 136 248V147L167 110C173 103 176 94 176 84V40C176 18 158 0 136 0H120C98 0 80 18 80 40V84C80 94 83 103 89 110L120 147ZM96 40C96 27 107 16 120 16H136C149 16 160 27 160 40V84C160 90 158 95 154 100L128 131L102 100C98 95 96 90 96 84V40ZM376 171V280C376 284 380 288 384 288C388 288 392 284 392 280V79C410 75 424 59 424 40C424 18 406 0 384 0C361 0 341 14 334 36L319 83C314 97 318 113 328 124L376 171ZM334 88L349 41C354 26 368 16 384 16C397 16 408 27 408 40S397 64 384 64C380 64 376 68 376 72V149L340 112C333 106 331 96 334 88Z"/></svg>