<svg xmlns="http://www.w3.org/2000/svg" viewBox="0 0 576 512"><!-- Font Awesome Pro 6.0.0-alpha1 by @fontawesome - https://fontawesome.com License - https://fontawesome.com/license (Commercial License) --><path d="M280 64C276 64 272 68 272 72V248H48V72C48 68 44 64 40 64S32 68 32 72V440C32 444 36 448 40 448S48 444 48 440V264H272V440C272 444 276 448 280 448S288 444 288 440V72C288 68 284 64 280 64ZM536 432H480V72C480 69 478 66 475 65C472 63 469 64 467 66L411 114C407 117 407 122 410 125C413 129 418 129 421 126L464 89V432H408C404 432 400 436 400 440S404 448 408 448H536C540 448 544 444 544 440S540 432 536 432Z"/></svg>