<svg xmlns="http://www.w3.org/2000/svg" viewBox="0 0 640 512"><!-- Font Awesome Pro 6.0.0-alpha1 by @fontawesome - https://fontawesome.com License - https://fontawesome.com/license (Commercial License) --><path d="M280 64C276 64 272 68 272 72V248H48V72C48 68 44 64 40 64S32 68 32 72V440C32 444 36 448 40 448S48 444 48 440V264H272V440C272 444 276 448 280 448S288 444 288 440V72C288 68 284 64 280 64ZM600 64C596 64 592 68 592 72V272H400V72C400 68 396 64 392 64S384 68 384 72V280C384 284 388 288 392 288H592V440C592 444 596 448 600 448S608 444 608 440V72C608 68 604 64 600 64Z"/></svg>