<svg xmlns="http://www.w3.org/2000/svg" viewBox="0 0 384 512"><!-- Font Awesome Pro 6.0.0-alpha1 by @fontawesome - https://fontawesome.com License - https://fontawesome.com/license (Commercial License) --><path d="M352 32C348 32 357 30 224 56V32C224 14 210 0 192 0S160 14 160 32V56C27 30 36 32 32 32C15 32 0 46 0 64V256C0 274 15 288 32 288C34 288 18 290 192 264C366 290 350 288 352 288C369 288 384 274 384 256V64C384 46 369 32 352 32ZM176 32C176 23 183 16 192 16S208 23 208 32V56H176V32ZM368 256C368 265 360 274 349 272L192 248L35 272C24 273 16 265 16 256V64C16 54 25 47 34 48L158 72H226L349 48C360 47 368 55 368 64V256ZM216 304C212 304 208 308 208 312V496H176V312C176 308 172 304 168 304S160 308 160 312V496C160 505 167 512 176 512H208C217 512 224 505 224 496V312C224 308 220 304 216 304Z"/></svg>