<svg xmlns="http://www.w3.org/2000/svg" viewBox="0 0 512 512"><!-- Font Awesome Pro 6.0.0-alpha1 by @fontawesome - https://fontawesome.com License - https://fontawesome.com/license (Commercial License) --><path d="M509 296C509 296 509 296 509 296C502 281 488 272 472 272H416V80C416 54 394 32 368 32C342 32 320 54 320 80V206C320 207 319 208 318 208H306C305 208 304 207 304 206V48C304 22 282 0 256 0C230 0 208 22 208 48V206C208 207 207 208 206 208H194C193 208 192 207 192 206V80C192 54 170 32 144 32S96 54 96 80V272H40C24 272 10 281 3 296C-3 311 0 328 11 339L113 449C152 491 200 512 256 512S360 491 399 449L501 339C512 328 515 311 509 296ZM490 328L387 438C351 477 308 496 256 496S161 477 125 438L22 328C16 321 14 311 18 302C22 294 30 288 40 288H104C108 288 112 284 112 280V80C112 62 126 48 144 48S176 62 176 80V206C176 216 184 224 194 224H206C216 224 224 216 224 206V48C224 30 238 16 256 16C274 16 288 30 288 48V206C288 216 296 224 306 224H318C328 224 336 216 336 206V80C336 62 350 48 368 48C386 48 400 62 400 80V280C400 284 404 288 408 288H472C482 288 490 294 494 302C498 311 496 321 490 328ZM256 280C199 280 155 345 153 348C152 350 152 354 153 356C155 359 199 424 256 424S357 359 359 356C360 354 360 350 359 348C357 345 313 280 256 280ZM256 408C216 408 180 366 170 352C180 338 216 296 256 296S331 338 342 352C331 366 296 408 256 408ZM256 336C247 336 240 343 240 352S247 368 256 368S272 361 272 352S265 336 256 336Z"/></svg>