<svg xmlns="http://www.w3.org/2000/svg" viewBox="0 0 448 512"><!-- Font Awesome Pro 6.0.0-alpha1 by @fontawesome - https://fontawesome.com License - https://fontawesome.com/license (Commercial License) --><path d="M285 512H162C141 512 119 506 100 496L36 462C14 450 0 426 0 401V323C0 302 10 282 26 269L40 258C43 255 48 256 51 259C54 262 53 268 50 270L36 281C23 292 16 307 16 323V401C16 420 27 438 44 448L107 482C124 491 143 496 162 496H285C348 496 400 444 400 381V278C400 257 383 240 362 240H347C347 240 344 240 344 240C341 241 337 238 336 235C331 219 316 208 300 208H285C278 208 272 210 266 213C263 215 258 213 256 210C248 199 236 192 223 192H215C205 192 196 196 189 202C187 204 184 205 181 203C178 202 176 199 176 196V56C176 34 158 16 136 16S96 34 96 56V344C96 348 92 352 88 352S80 348 80 344V56C80 25 105 0 136 0S192 25 192 56V181C199 178 207 176 215 176H223C240 176 255 183 265 195C271 193 278 192 285 192H300C321 192 340 205 349 224H362C392 224 416 248 416 278V381C416 453 357 512 285 512Z"/></svg>