<svg xmlns="http://www.w3.org/2000/svg" viewBox="0 0 576 512"><!-- Font Awesome Pro 6.0.0-alpha1 by @fontawesome - https://fontawesome.com License - https://fontawesome.com/license (Commercial License) --><path d="M567 324C559 313 548 306 535 305C522 303 510 306 499 313L382 400H264C260 400 256 396 256 392C256 388 260 384 264 384H342C363 384 380 370 383 351C385 339 382 327 374 318C367 309 356 304 344 304H184C155 304 127 314 105 332L61 368H8C4 368 0 372 0 376S4 384 8 384H66L115 345C134 329 159 320 184 320H344C351 320 358 323 362 329C367 334 369 341 368 348C366 359 355 368 342 368H264C251 368 240 379 240 392S251 416 264 416H387L509 326C516 321 524 319 533 320C541 322 549 326 554 333C559 340 561 348 560 357C558 365 554 373 547 378L412 477C396 489 375 496 355 496H8C4 496 0 500 0 504S4 512 8 512H355C379 512 402 504 421 490L556 391C567 383 574 372 575 359C577 347 574 334 567 324ZM176 176H224V224C224 242 238 256 256 256H288C306 256 320 242 320 224V176H368C386 176 400 162 400 144V112C400 94 386 80 368 80H320V32C320 14 306 0 288 0H256C238 0 224 14 224 32V80H176C158 80 144 94 144 112V144C144 162 158 176 176 176ZM160 112C160 103 167 96 176 96H240V32C240 23 247 16 256 16H288C297 16 304 23 304 32V96H368C377 96 384 103 384 112V144C384 153 377 160 368 160H304V224C304 233 297 240 288 240H256C247 240 240 233 240 224V160H176C167 160 160 153 160 144V112Z"/></svg>