<svg xmlns="http://www.w3.org/2000/svg" viewBox="0 0 576 512"><!-- Font Awesome Pro 6.0.0-alpha1 by @fontawesome - https://fontawesome.com License - https://fontawesome.com/license (Commercial License) --><path d="M448 160C448 186 470 208 496 208S544 186 544 160S522 112 496 112S448 134 448 160ZM496 128C514 128 528 142 528 160S514 192 496 192S464 178 464 160S478 128 496 128ZM112 416C86 416 64 438 64 464S86 512 112 512S160 490 160 464S138 416 112 416ZM112 496C94 496 80 482 80 464S94 432 112 432S144 446 144 464S130 496 112 496ZM504 304C511 295 513 283 511 272C508 254 491 240 471 240H344C351 230 354 217 350 204C345 187 330 176 312 176C308 176 304 177 300 178L192 211C135 230 96 284 96 344V377C96 381 100 385 105 384C105 384 105 384 105 384C109 384 112 381 112 376V344C112 291 146 243 197 226L305 193C307 192 310 192 312 192C322 192 332 199 335 209C339 222 332 235 319 239L272 256H471C483 256 493 264 496 275C498 291 487 304 472 304H344C340 304 336 308 336 312S340 320 344 320H503C515 320 525 328 528 339C530 355 519 368 504 368H344C340 368 336 372 336 376S340 384 344 384H471C483 384 493 392 496 403C498 419 487 432 472 432H344C340 432 336 436 336 440S340 448 344 448H439C451 448 461 456 464 467C466 483 455 496 440 496H232C219 496 207 494 195 490C191 488 187 491 186 494C186 494 186 494 186 494C184 499 186 504 190 505C204 510 218 512 232 512H439C447 512 455 510 462 505C476 496 482 480 479 464C478 458 476 453 472 448H472C484 448 495 443 503 433C510 424 514 412 511 400C510 394 508 389 504 384H504C516 384 527 379 535 369C542 360 546 348 543 336C540 318 523 304 504 304ZM63 354C54 337 48 318 48 297V184C48 171 60 161 73 161H73C86 161 97 171 97 185L99 235L159 45C162 35 171 27 182 27C183 27 184 27 185 27C200 29 209 44 205 58L170 170C168 175 172 181 177 180C181 180 184 178 185 175L229 34C233 23 242 16 253 16C253 16 254 16 255 16C271 18 280 33 276 47L244 149C242 155 247 161 254 159C256 158 258 156 259 153L281 83C284 73 293 66 304 66C305 66 306 66 307 66C322 68 331 83 327 97L315 135C314 139 317 144 322 145C322 145 322 145 322 145C326 145 329 143 330 139L332 133C335 123 345 116 355 116C356 116 357 116 358 116C373 118 383 133 378 147L371 170C370 172 371 174 372 176C372 177 372 177 372 177C376 182 384 181 386 175L393 153C396 145 396 137 394 129C389 113 376 102 360 100C358 100 357 100 355 100C351 100 346 100 342 102L342 102C346 90 344 78 338 68C331 58 320 51 308 50C307 50 305 50 304 50C299 50 295 51 291 52L291 52C293 46 293 39 292 33C288 15 274 2 257 0C256 0 254 0 253 0C236 0 220 11 214 28C208 19 198 13 186 11C185 11 183 11 182 11C165 11 149 23 144 40L105 161C98 151 86 145 73 145C51 145 32 162 32 184L32 297C32 320 38 342 49 362C53 369 64 366 64 358C64 357 64 355 63 354ZM432 96C458 96 480 74 480 48S458 0 432 0S384 22 384 48S406 96 432 96ZM432 16C450 16 464 30 464 48S450 80 432 80S400 66 400 48S414 16 432 16Z"/></svg>