<svg xmlns="http://www.w3.org/2000/svg" viewBox="0 0 640 512"><!-- Font Awesome Pro 6.0.0-alpha1 by @fontawesome - https://fontawesome.com License - https://fontawesome.com/license (Commercial License) --><path d="M217 236C211 228 201 224 192 224C185 224 178 226 172 231C158 242 156 262 167 276L186 307C195 318 194 334 184 344C178 349 171 352 164 352C156 352 148 348 142 342L80 257V104C80 82 62 64 40 64S0 82 0 104V309C0 323 5 337 14 349L135 500C141 508 150 512 160 512H256C274 512 288 498 288 480V358C288 337 281 316 267 298L217 236ZM272 480C272 489 265 496 256 496H160C155 496 151 494 147 490L26 339C20 330 16 320 16 309V104C16 91 27 80 40 80S64 91 64 104V262L130 352C138 362 151 368 164 368C176 368 187 363 195 355C211 340 212 315 199 297L181 268L180 267C173 258 176 249 182 243C191 236 201 242 204 246L254 309C266 323 272 340 272 358V480ZM384 177C384 159 373 142 356 135L291 107C279 102 272 91 272 79C272 62 286 48 303 48H334C345 48 355 50 364 55C368 57 373 56 375 52C377 48 376 43 372 41C360 35 347 32 334 32H328V8C328 4 324 0 320 0S312 4 312 8V32H303C277 32 256 53 256 79C256 97 267 114 284 121L349 149C361 154 368 165 368 177C368 194 354 208 337 208H306C295 208 285 206 276 201C272 199 267 200 265 204C263 208 264 213 268 215C280 221 293 224 306 224H312V248C312 252 316 256 320 256S328 252 328 248V224H337C363 224 384 203 384 177ZM600 64C578 64 560 82 560 104V257L498 342C492 348 484 352 476 352C469 352 462 349 456 344C446 334 445 318 454 307L473 276C484 262 482 242 468 231C462 226 455 224 448 224C439 224 429 228 423 236L373 298C359 316 352 337 352 358V480C352 498 366 512 384 512H480C490 512 499 508 505 500L626 349C635 337 640 323 640 309V104C640 82 622 64 600 64ZM624 309C624 320 620 330 613 339L492 490C489 494 485 496 480 496H384C375 496 368 489 368 480V358C368 340 374 323 386 308L435 246C439 242 449 236 458 243C464 249 467 258 460 267L459 268L441 297C428 315 429 340 445 355C453 363 464 368 476 368C489 368 502 362 510 351L576 262V104C576 91 587 80 600 80S624 91 624 104V309Z"/></svg>