<svg xmlns="http://www.w3.org/2000/svg" viewBox="0 0 576 512"><!-- Font Awesome Pro 6.0.0-alpha1 by @fontawesome - https://fontawesome.com License - https://fontawesome.com/license (Commercial License) --><path d="M160 256H416C451 256 480 227 480 192V64C480 29 451 0 416 0H160C125 0 96 29 96 64V192C96 227 125 256 160 256ZM232 16H344V115L292 89C289 88 287 88 284 89L232 115V16ZM112 64C112 38 134 16 160 16H216V128C216 131 217 133 220 135C222 136 225 136 228 135L288 105L348 135C350 136 351 136 352 136C353 136 355 136 356 135C359 133 360 131 360 128V16H416C442 16 464 38 464 64V192C464 218 442 240 416 240H160C134 240 112 218 112 192V64ZM567 324C559 313 548 306 535 305C522 303 510 306 499 313L382 400H264C260 400 256 396 256 392C256 388 260 384 264 384H342C363 384 380 370 383 351C385 339 382 327 374 318C367 309 356 304 344 304H184C155 304 127 314 105 332L61 368H8C4 368 0 372 0 376S4 384 8 384H66L115 345C134 329 159 320 184 320H344C351 320 358 323 362 329C367 334 369 341 368 348C366 359 355 368 342 368H264C251 368 240 379 240 392S251 416 264 416H387L509 326C516 321 524 319 533 320C541 322 549 326 554 333C559 340 561 348 560 357C558 365 554 373 547 378L412 477C396 489 375 496 355 496H8C4 496 0 500 0 504S4 512 8 512H355C379 512 402 504 421 490L556 391C567 383 574 372 575 359C577 347 574 334 567 324Z"/></svg>