<svg xmlns="http://www.w3.org/2000/svg" viewBox="0 0 640 512"><!-- Font Awesome Pro 6.0.0-alpha1 by @fontawesome - https://fontawesome.com License - https://fontawesome.com/license (Commercial License) --><path d="M269 191C252 192 240 207 240 224V301C240 309 234 316 227 317C217 319 208 311 208 302V226C208 209 213 192 222 177L300 48C309 33 304 14 289 5C283 1 278 0 272 0C262 0 252 5 246 14C246 14 246 14 245 14L128 189C118 204 112 223 112 242V321L37 346C34 347 32 350 32 353V353C32 359 37 363 43 361L128 333V242C128 226 133 211 141 198L256 27L258 26L260 22C263 18 268 16 272 16C275 16 278 17 280 18C288 23 290 32 286 40L208 169C198 186 192 206 192 226V300C192 317 204 332 221 333C240 335 256 320 256 302V223C256 215 261 208 269 207C279 205 288 213 288 222V358C288 403 258 442 215 455L38 496C34 497 32 500 32 504C32 509 37 513 42 512L219 470C269 456 304 410 304 358V222C304 204 288 189 269 191ZM597 361C603 363 608 359 608 354V354C608 350 606 347 603 346L528 321V242C528 223 522 205 512 189L395 14C394 14 394 14 394 14C388 5 378 0 368 0C362 0 357 1 352 4C336 14 332 33 341 48L418 177C427 192 432 209 432 226V301C432 309 427 316 419 318C409 319 400 312 400 302V224C400 207 388 193 371 191C352 189 336 204 336 222V358C336 410 371 456 421 470L598 512C603 513 608 509 608 504V504C608 500 606 497 602 496L425 455C382 443 352 403 352 358V223C352 215 357 208 365 207C375 205 384 213 384 222V301C384 317 396 332 413 334C432 335 448 321 448 302V226C448 206 442 186 432 169L354 40C350 33 352 23 360 18C362 17 365 16 368 16C373 16 377 18 380 22L383 26L384 27L499 198C507 211 512 226 512 242V333L597 361Z"/></svg>