<svg xmlns="http://www.w3.org/2000/svg" viewBox="0 0 512 512"><!-- Font Awesome Pro 6.0.0-alpha1 by @fontawesome - https://fontawesome.com License - https://fontawesome.com/license (Commercial License) --><path d="M0 349V226C0 205 6 183 16 164L50 100C62 78 86 64 111 64H189C210 64 230 74 243 90L254 104C257 107 256 112 253 115C250 118 245 117 242 114L231 100C220 87 205 80 189 80H111C92 80 74 91 64 108L30 171C21 188 16 207 16 226V349C16 412 68 464 131 464H234C255 464 272 447 272 426V411C272 411 272 408 272 408C271 405 274 401 277 400C293 395 304 380 304 364V349C304 342 302 336 299 330C297 327 299 322 302 320C313 312 320 300 320 287V279C320 270 316 260 310 253C308 251 307 248 309 245C310 242 313 240 316 240H456C478 240 496 222 496 200S478 160 456 160H168C164 160 160 156 160 152S164 144 168 144H456C487 144 512 169 512 200S487 256 456 256H331C334 263 336 271 336 279V287C336 304 329 319 317 329C319 335 320 342 320 349V364C320 385 307 404 288 413V426C288 456 264 480 234 480H131C59 480 0 421 0 349Z"/></svg>