<svg xmlns="http://www.w3.org/2000/svg" viewBox="0 0 640 512"><!-- Font Awesome Pro 6.0.0-alpha1 by @fontawesome - https://fontawesome.com License - https://fontawesome.com/license (Commercial License) --><path d="M72 216C72 220 76 224 80 224S88 220 88 216V152H152C156 152 160 148 160 144S156 136 152 136H88V72C88 68 84 64 80 64S72 68 72 72V136H8C4 136 0 140 0 144S4 152 8 152H72V216ZM632 424H568V360C568 356 564 352 560 352C556 352 552 356 552 360V424H488C484 424 480 428 480 432S484 440 488 440H552V504C552 508 556 512 560 512C564 512 568 508 568 504V440H632C636 440 640 436 640 432S636 424 632 424ZM304 416C308 416 312 412 312 408V376H344C348 376 352 372 352 368S348 360 344 360H312V328C312 324 308 320 304 320S296 324 296 328V360H264C260 360 256 364 256 368S260 376 264 376H296V408C296 412 300 416 304 416ZM456 264C460 264 464 260 464 256V144C464 126 478 112 496 112C514 112 528 126 528 144V319C528 323 532 327 536 327S544 323 544 319V144C544 117 522 96 496 96C484 96 473 101 464 108V80C464 53 442 32 416 32C404 32 392 37 384 44C382 20 361 0 336 0C310 0 288 22 288 48L288 148C284 125 281 104 278 90C275 64 252 45 226 48C214 49 202 56 194 65C187 75 183 87 184 99L190 150C196 206 199 262 200 318L155 260C138 238 106 233 84 250C73 258 66 270 64 284C63 297 66 310 74 321L171 447C199 488 246 511 295 511L376 512C408 512 439 503 466 486C470 483 471 478 469 475C466 471 462 470 458 472C433 488 405 496 376 496L295 495C251 495 210 474 184 438L87 311C82 304 79 295 80 286C82 277 86 268 94 263C109 251 131 254 142 269L202 346C204 349 208 350 211 349C214 348 216 345 216 341C216 277 213 212 206 149L200 97C199 89 202 82 207 75C212 69 219 65 228 64C245 62 260 75 262 92C272 140 288 256 288 257C288 261 292 264 296 264C300 263 304 260 304 256L304 48C304 30 318 16 336 16S368 30 368 48V256C368 260 372 264 376 264S384 260 384 256V80C384 62 398 48 416 48C434 48 448 62 448 80V256C448 260 452 264 456 264Z"/></svg>