<svg xmlns="http://www.w3.org/2000/svg" viewBox="0 0 512 512"><!-- Font Awesome Pro 6.0.0-alpha1 by @fontawesome - https://fontawesome.com License - https://fontawesome.com/license (Commercial License) --><path d="M352 211L244 178C240 177 236 176 232 176C214 176 199 187 194 204C190 217 193 230 200 240H73C53 240 36 254 33 272C31 283 33 295 40 304C21 304 4 318 1 336C-2 348 2 360 9 369C17 379 28 384 40 384H40C36 389 34 394 33 400C30 412 34 424 41 433C49 443 60 448 72 448H72C68 453 66 458 65 464C62 480 68 496 82 505C89 510 97 512 105 512H328C394 512 448 458 448 392L448 344C448 284 409 230 352 211ZM328 496H104C89 496 78 483 80 467C83 456 93 448 105 448H200C204 448 208 444 208 440S204 432 200 432H72C57 432 46 419 48 403C51 392 61 384 73 384H200C204 384 208 380 208 376S204 368 200 368H40C25 368 14 355 16 339C19 328 29 320 41 320H200C204 320 208 316 208 312S204 304 200 304H72C57 304 46 291 48 275C51 264 61 256 73 256H272L225 239C212 235 205 222 209 209C212 199 222 192 232 192C234 192 237 192 239 193L347 226C398 243 432 291 432 344L432 392C432 449 385 496 328 496ZM512 184C512 162 493 145 471 145C458 145 446 151 439 161L400 40C395 23 379 11 362 11C361 11 359 11 358 11C346 13 336 19 330 28C324 11 308 0 291 0C290 0 288 0 287 0C270 2 256 15 252 33C251 39 251 46 253 52L253 52C249 51 245 50 240 50C239 50 237 50 236 50C224 51 213 58 206 68C200 78 198 90 202 102L202 102C198 100 193 100 189 100C187 100 186 100 184 100C168 102 155 113 150 129C148 136 148 145 151 153L158 175C160 181 168 182 172 177C172 177 172 177 172 176C173 174 174 172 173 170L166 147C161 133 171 118 186 116C187 116 188 116 189 116C199 116 208 123 212 133L214 139C215 143 218 145 222 145C222 145 222 145 222 145C227 144 230 139 229 135L217 97C213 83 222 68 237 66C238 66 239 66 240 66C250 66 260 73 263 83L285 153C286 156 288 158 290 159C297 161 302 155 300 149L268 47C264 33 273 18 289 16C290 16 291 16 291 16C302 16 311 23 314 34L359 175C360 178 363 180 367 180C372 181 376 175 374 170L339 59C335 44 344 29 359 27C360 27 361 27 362 27C373 27 382 35 385 45L445 235L447 185C447 171 458 161 471 161H471C484 161 496 171 496 184V297C496 318 490 337 481 354C480 355 480 357 480 358C480 366 491 369 495 362C506 342 512 320 512 297L512 184Z"/></svg>