<svg xmlns="http://www.w3.org/2000/svg" viewBox="0 0 576 512"><!-- Font Awesome Pro 6.0.0-alpha1 by @fontawesome - https://fontawesome.com License - https://fontawesome.com/license (Commercial License) --><path d="M575 359C574 372 567 383 556 391L421 490C402 504 379 512 355 512H8C4 512 0 508 0 504C0 500 4 496 8 496H355C375 496 396 489 412 477L547 378C554 373 558 365 560 357C561 348 559 340 554 333C549 326 541 322 533 320C524 319 516 321 509 326L387 416H264C251 416 240 405 240 392C240 379 251 368 264 368H342C355 368 366 359 368 348C369 341 367 334 362 329C358 323 351 320 344 320H184C159 320 134 329 115 345L66 384H8C4 384 0 380 0 376S4 368 8 368H61L105 332C127 314 155 304 184 304H344C356 304 367 309 374 318C382 327 385 339 383 351C380 370 363 384 342 384H264C260 384 256 388 256 392C256 396 260 400 264 400H382L499 313C510 306 522 303 535 305C548 306 559 313 567 324C574 334 577 347 575 359Z"/></svg>