<svg xmlns="http://www.w3.org/2000/svg" viewBox="0 0 640 512"><!-- Font Awesome Pro 6.0.0-alpha1 by @fontawesome - https://fontawesome.com License - https://fontawesome.com/license (Commercial License) --><path d="M436 18C422 6 406 0 389 0C368 0 347 9 331 25L320 37L309 25C293 9 272 0 251 0C234 0 218 6 204 18C169 48 167 103 198 137L307 251C311 255 315 257 320 257S329 255 333 251L442 137C473 103 471 48 436 18ZM321 240L319 240L319 240L210 126C198 113 191 95 192 77C193 58 201 42 214 30C225 21 237 16 251 16C268 16 285 23 297 36L320 60L343 36C355 23 372 16 389 16C403 16 415 21 426 30C439 41 447 58 448 77C449 95 442 113 430 126L321 240ZM600 63C578 63 560 81 560 103V256L498 341C492 348 484 352 476 352C469 352 462 349 456 343C446 333 445 317 454 306L473 275C484 262 482 241 468 230C462 226 455 223 448 223C439 223 429 227 423 235L373 298C359 315 352 336 352 358V480C352 498 366 512 384 512H480C490 512 499 508 505 500L626 348C635 337 640 323 640 308V103C640 81 622 63 600 63ZM624 308C624 319 620 330 613 338L492 490C489 494 485 496 480 496H384C375 496 368 489 368 480V358C368 340 374 322 386 308L435 245C439 241 449 236 458 243C464 248 467 258 460 266L459 267L441 297C428 314 429 339 445 355C453 363 464 368 476 368C489 368 502 362 510 351L576 261V103C576 90 587 79 600 79S624 90 624 103V308ZM217 235C211 227 201 223 192 223C185 223 178 226 172 230C158 241 156 262 167 275L186 306C195 317 194 333 184 343C178 349 171 352 164 352C156 352 148 348 142 341L80 256V103C80 81 62 63 40 63S0 81 0 103V308C0 323 5 337 14 348L135 500C141 508 150 512 160 512H256C274 512 288 498 288 480V358C288 336 281 315 267 298L217 235ZM272 480C272 489 265 496 256 496H160C155 496 151 494 147 490L26 338C20 330 16 319 16 308V103C16 90 27 79 40 79S64 90 64 103V261L130 351C138 362 151 368 164 368C176 368 187 363 195 355C211 339 212 314 199 297L181 267L180 266C173 258 176 248 182 243C191 236 201 241 204 245L254 308C266 322 272 340 272 358V480Z"/></svg>