<svg xmlns="http://www.w3.org/2000/svg" viewBox="0 0 512 512"><!-- Font Awesome Pro 6.0.0-alpha1 by @fontawesome - https://fontawesome.com License - https://fontawesome.com/license (Commercial License) --><path d="M208 324C201 324 196 329 196 336C196 343 201 348 208 348S220 343 220 336C220 329 215 324 208 324ZM272 356C265 356 260 361 260 368C260 375 265 380 272 380S284 375 284 368C284 361 279 356 272 356ZM176 388C169 388 164 393 164 400C164 407 169 412 176 412S188 407 188 400C188 393 183 388 176 388ZM272 420C265 420 260 425 260 432C260 439 265 444 272 444S284 439 284 432C284 425 279 420 272 420ZM400 356C393 356 388 361 388 368C388 375 393 380 400 380S412 375 412 368C412 361 407 356 400 356ZM368 420C361 420 356 425 356 432C356 439 361 444 368 444S380 439 380 432C380 425 375 420 368 420ZM336 324C329 324 324 329 324 336C324 343 329 348 336 348S348 343 348 336C348 329 343 324 336 324ZM432 96C420 96 409 101 400 108V80C400 53 378 32 352 32C340 32 328 37 320 44C318 20 297 0 272 0C246 0 224 22 224 48L224 148C220 125 217 104 214 90C211 64 188 45 162 48C150 49 138 56 130 65C123 75 119 87 120 99L126 150C132 206 135 262 136 318L91 260C74 238 42 233 20 250C9 258 2 270 0 284C-1 297 2 310 10 321L107 447C136 488 182 511 231 511L312 512C405 512 480 437 480 344V144C480 117 458 96 432 96ZM464 344C464 428 396 496 312 496L231 495C187 495 146 474 120 438L23 311C18 304 15 295 16 286C18 277 22 268 30 263C36 258 43 256 51 256C61 256 71 260 78 269L138 346C140 349 144 350 147 349C150 348 152 345 152 341C152 277 149 212 142 149L136 97C135 89 138 82 143 75C148 69 156 65 164 64C181 62 196 75 198 92C208 140 224 256 224 257C224 261 228 264 232 264C236 263 240 260 240 256L240 120V48C240 30 254 16 272 16S304 30 304 48V256C304 260 308 264 312 264S320 260 320 256V80C320 62 334 48 352 48C370 48 384 62 384 80V256C384 260 388 264 392 264S400 260 400 256V144C400 126 414 112 432 112C450 112 464 126 464 144V344Z"/></svg>