<svg xmlns="http://www.w3.org/2000/svg" viewBox="0 0 640 512"><!-- Font Awesome Pro 6.0.0-alpha1 by @fontawesome - https://fontawesome.com License - https://fontawesome.com/license (Commercial License) --><path d="M632 128L515 128C473 87 417 64 357 64H349C339 64 329 68 322 74L223 165L222 166C204 184 203 213 221 232C228 240 242 248 257 248C267 248 278 244 287 236L368 162C372 159 372 154 369 151C366 147 361 147 358 150C270 230 280 221 275 226C258 238 239 228 233 221C221 208 221 189 234 177L333 86C337 82 343 80 349 80H357C414 80 467 102 506 142L509 144H536V352H526C522 352 518 355 518 360S522 368 526 368H538C541 386 557 400 576 400H632C636 400 640 396 640 392V136C640 132 636 128 632 128ZM624 384H576C563 384 552 373 552 360V144L624 144V384ZM340 219C336 216 331 217 328 220C326 224 326 229 330 232L479 353C489 361 491 376 482 387L473 398C465 409 449 410 439 402L428 392L391 437C386 443 379 447 371 448C364 449 356 446 350 442L326 422L321 427C311 439 298 446 283 448C268 449 253 445 242 436L149 352H104V144H128L131 144L134 141C174 102 226 80 283 80C287 80 291 76 291 72S287 64 283 64C223 64 167 87 125 128L8 128C4 128 0 131 0 136V392C0 396 4 400 8 400H64C83 400 99 386 102 368H143L232 448C245 458 261 464 277 464C279 464 282 464 285 464C301 462 316 455 328 443L340 454C349 461 361 465 373 464C385 462 396 457 403 447L430 415C447 428 472 425 485 408L495 397C509 379 506 354 489 340L340 219ZM88 360C88 373 77 384 64 384H16V144L88 144V360Z"/></svg>