<svg xmlns="http://www.w3.org/2000/svg" viewBox="0 0 448 512"><!-- Font Awesome Pro 6.0.0-alpha1 by @fontawesome - https://fontawesome.com License - https://fontawesome.com/license (Commercial License) --><path d="M416 131V234C416 264 392 288 362 288H349C340 307 321 320 300 320H285C278 320 271 319 265 317C255 329 240 336 223 336H215C207 336 199 334 192 331V456C192 487 167 512 136 512S80 487 80 456V168C80 164 84 160 88 160S96 164 96 168V456C96 478 114 496 136 496S176 478 176 456V316C176 313 178 310 181 309C184 307 187 308 189 310C196 316 206 320 215 320H223C236 320 248 313 256 302C258 299 263 297 266 299C272 302 278 304 285 304H300C316 304 331 293 336 277C337 274 341 271 344 272C344 272 346 272 347 272H362C383 272 400 255 400 234V131C400 68 348 16 285 16H162C143 16 124 21 107 30L44 64C27 74 16 92 16 111V189C16 205 23 220 36 231L50 242C53 245 54 250 51 253C48 256 43 257 40 254L26 243C10 230 0 210 0 189V111C0 86 14 62 36 50L100 16C119 6 141 0 162 0H285C357 0 416 59 416 131Z"/></svg>