<svg xmlns="http://www.w3.org/2000/svg" viewBox="0 0 640 512"><!-- Font Awesome Pro 6.0.0-alpha1 by @fontawesome - https://fontawesome.com License - https://fontawesome.com/license (Commercial License) --><path d="M608 148C604 148 600 152 600 156V284C600 315 575 340 544 340H328V124C328 120 324 116 320 116S312 120 312 124V340H96C65 340 40 315 40 284V156C40 152 36 148 32 148S24 152 24 156V284C24 324 56 356 96 356H312V444H152C121 444 96 470 96 500C96 505 100 508 104 508S112 505 112 500C112 478 130 460 152 460H488C510 460 528 478 528 500C528 505 532 508 536 508S544 505 544 500C544 470 519 444 488 444H328V356H544C584 356 616 324 616 284V156C616 152 612 148 608 148ZM88 156V284C88 289 92 292 96 292S104 289 104 284V156C104 152 100 148 96 148S88 152 88 156ZM152 156V284C152 289 156 292 160 292S168 289 168 284V156C168 152 164 148 160 148S152 152 152 156ZM216 156V284C216 289 220 292 224 292S232 289 232 284V156C232 152 228 148 224 148S216 152 216 156ZM424 284V156C424 152 420 148 416 148S408 152 408 156V284C408 289 412 292 416 292S424 289 424 284ZM488 284V156C488 152 484 148 480 148S472 152 472 156V284C472 289 476 292 480 292S488 289 488 284ZM552 284V156C552 152 548 148 544 148S536 152 536 156V284C536 289 540 292 544 292S552 289 552 284ZM320 92C338 92 352 77 352 58C352 41 331 7 327 0C324 -5 316 -5 313 0C309 7 288 41 288 58C288 77 302 92 320 92ZM320 20C328 34 336 51 336 58C336 68 329 76 320 76S304 68 304 58C304 51 312 34 320 20ZM64 90C64 73 43 39 39 32C36 27 28 27 25 32C21 39 0 73 0 90C0 109 14 124 32 124S64 109 64 90ZM16 90C16 83 24 66 32 52C40 66 48 83 48 90C48 100 41 108 32 108S16 100 16 90ZM96 124C114 124 128 109 128 90C128 73 107 39 103 32C100 27 92 27 89 32C85 39 64 73 64 90C64 109 78 124 96 124ZM96 52C104 66 112 83 112 90C112 100 105 108 96 108S80 100 80 90C80 83 88 66 96 52ZM160 124C178 124 192 109 192 90C192 73 171 39 167 32C164 27 156 27 153 32C149 39 128 73 128 90C128 109 142 124 160 124ZM160 52C168 66 176 83 176 90C176 100 169 108 160 108S144 100 144 90C144 83 152 66 160 52ZM224 124C242 124 256 109 256 90C256 73 235 39 231 32C228 27 220 27 217 32C213 39 192 73 192 90C192 109 206 124 224 124ZM224 52C232 66 240 83 240 90C240 100 233 108 224 108S208 100 208 90C208 83 216 66 224 52ZM409 32C405 39 384 73 384 90C384 109 398 124 416 124S448 109 448 90C448 73 427 39 423 32C420 27 412 27 409 32ZM416 108C407 108 400 100 400 90C400 83 408 66 416 52C424 66 432 83 432 90C432 100 425 108 416 108ZM473 32C469 39 448 73 448 90C448 109 462 124 480 124S512 109 512 90C512 73 491 39 487 32C484 27 476 27 473 32ZM480 108C471 108 464 100 464 90C464 83 472 66 480 52C488 66 496 83 496 90C496 100 489 108 480 108ZM537 32C533 39 512 73 512 90C512 109 526 124 544 124S576 109 576 90C576 73 555 39 551 32C548 27 540 27 537 32ZM544 108C535 108 528 100 528 90C528 83 536 66 544 52C552 66 560 83 560 90C560 100 553 108 544 108ZM615 32C612 27 604 27 601 32C597 39 576 73 576 90C576 109 590 124 608 124S640 109 640 90C640 73 619 39 615 32ZM608 108C599 108 592 100 592 90C592 83 600 66 608 52C616 66 624 83 624 90C624 100 617 108 608 108Z"/></svg>