<svg xmlns="http://www.w3.org/2000/svg" viewBox="0 0 448 512"><!-- Font Awesome Pro 6.0.0-alpha1 by @fontawesome - https://fontawesome.com License - https://fontawesome.com/license (Commercial License) --><path d="M440 152H331L352 42C353 37 350 33 345 32C341 31 337 34 336 39L315 152H163L184 42C185 37 182 33 177 32C173 31 169 34 168 39L147 152H40C36 152 32 156 32 160S36 168 40 168H144L112 344H8C4 344 0 348 0 352C0 356 4 360 8 360H109L88 471C87 475 90 479 95 480C95 480 96 480 96 480C100 480 103 477 104 473L125 360H277L256 471C255 475 258 479 263 480C263 480 264 480 264 480C268 480 271 477 272 473L293 360H408C412 360 416 356 416 352C416 348 412 344 408 344H296L328 168H440C444 168 448 164 448 160S444 152 440 152ZM280 344H128L160 168H312L280 344Z"/></svg>