<svg xmlns="http://www.w3.org/2000/svg" viewBox="0 0 640 512"><!-- Font Awesome Pro 6.0.0-alpha1 by @fontawesome - https://fontawesome.com License - https://fontawesome.com/license (Commercial License) --><path d="M639 375C620 291 563 233 495 226L469 92C465 73 454 55 438 44C422 33 402 29 383 34L192 74C161 81 138 106 135 137L128 215C67 234 19 292 2 370C-2 389 1 409 11 424C22 439 37 448 54 448H592C607 448 619 441 629 425C639 411 642 393 639 375ZM151 139C153 114 171 95 195 90L386 49C401 46 417 49 429 58C442 66 450 80 453 95L490 288H324L274 245C274 245 274 245 274 245C244 221 209 208 172 208C163 208 154 209 145 211L151 139ZM54 432C43 432 32 426 25 415C17 403 14 388 17 374C37 284 99 224 172 224C205 224 236 235 264 257L362 342C410 383 446 414 493 432H54ZM616 416C609 427 601 432 592 432C491 432 449 396 372 329L342 304H493L508 378C508 381 512 384 516 384L516 384C521 384 524 379 523 374L498 242C557 252 607 303 623 378C626 392 623 406 616 416Z"/></svg>