<svg xmlns="http://www.w3.org/2000/svg" viewBox="0 0 512 512"><!-- Font Awesome Pro 6.0.0-alpha1 by @fontawesome - https://fontawesome.com License - https://fontawesome.com/license (Commercial License) --><path d="M72 352H440C443 352 446 350 447 347C450 340 512 173 512 132C512 76 467 31 411 31C392 31 373 37 357 47C331 17 295 0 256 0S181 17 155 47C126 28 88 25 56 42C21 59 0 93 0 132C0 173 62 340 65 347C66 350 69 352 72 352ZM63 56C92 41 126 45 152 64C154 66 156 66 158 66C160 66 162 65 163 63C186 33 219 16 256 16S326 33 349 63C350 65 352 66 354 66C356 66 358 66 360 64C374 53 393 47 411 47C458 47 496 85 496 132C496 162 457 276 434 336H362L392 161C393 157 390 153 385 152C381 151 377 154 376 159L345 336H264V160C264 156 260 152 256 152S248 156 248 160V336H167L136 159C135 154 131 151 127 152C122 153 119 157 120 161L150 336H78C55 276 16 162 16 132C16 99 34 70 63 56ZM440 384C436 384 432 388 432 392V473C432 486 422 496 409 496H103C90 496 80 486 80 473V392C80 388 76 384 72 384S64 388 64 392V473C64 495 81 512 103 512H409C431 512 448 495 448 473V392C448 388 444 384 440 384Z"/></svg>