<svg xmlns="http://www.w3.org/2000/svg" viewBox="0 0 512 512"><!-- Font Awesome Pro 6.0.0-alpha1 by @fontawesome - https://fontawesome.com License - https://fontawesome.com/license (Commercial License) --><path d="M191 107C189 117 191 129 199 137C207 144 218 148 229 145C235 154 245 160 256 160S277 154 283 145C294 148 304 144 313 137C321 129 323 117 321 107C330 101 336 91 336 80S330 59 321 53C323 43 321 31 313 23C305 15 294 12 283 15C277 6 267 0 256 0S235 6 229 15C218 12 207 15 199 23C191 31 189 43 191 53C182 59 176 69 176 80S182 101 191 107ZM204 65C206 64 208 63 209 60C210 58 209 56 208 53C205 47 206 40 211 35C216 30 223 29 229 32C232 33 234 34 236 33C239 32 240 30 241 28C243 21 249 16 256 16S269 21 271 28C272 30 273 32 276 33C278 34 281 33 283 32C289 29 296 30 301 35C306 40 307 47 304 53C303 55 302 58 303 60C304 62 306 64 308 65C315 67 320 73 320 80S315 93 308 95C306 96 304 97 303 100C302 102 303 104 304 107C307 113 306 120 302 125C297 130 291 132 282 128C280 126 278 126 276 127C273 128 272 130 271 132C269 139 263 144 256 144S243 139 241 132C240 130 239 128 236 127C235 127 234 127 233 127C232 127 231 127 229 128C221 132 215 130 211 125C206 120 205 113 208 107C209 104 210 102 209 100C208 97 206 96 204 95C197 93 192 87 192 80S197 67 204 65ZM488 416H24C11 416 0 427 0 440V488C0 501 11 512 24 512H488C501 512 512 501 512 488V440C512 427 501 416 488 416ZM496 488C496 492 492 496 488 496H24C20 496 16 492 16 488V440C16 436 20 432 24 432H488C492 432 496 436 496 440V488ZM40 384C44 384 48 380 48 376C48 358 50 341 54 324L60 327C63 328 65 328 68 327L128 297L188 327C191 328 193 328 196 327L256 297L316 327C319 328 321 328 324 327L384 297L444 327C446 328 447 328 448 328S450 328 452 327L458 324C462 341 464 358 464 376C464 380 468 384 472 384S480 380 480 376C480 271 423 175 339 137C335 135 331 137 329 141S329 149 333 151C392 179 437 238 455 307L448 311L388 281C385 280 383 280 380 281L320 311L260 281C257 280 255 280 252 281L192 311L132 281C129 280 127 280 124 281L64 311L57 307C75 238 120 179 179 151C183 149 185 145 183 141C181 137 177 135 173 137C89 175 32 271 32 376C32 380 36 384 40 384Z"/></svg>