<svg xmlns="http://www.w3.org/2000/svg" viewBox="0 0 512 512"><!-- Font Awesome Pro 6.0.0-alpha1 by @fontawesome - https://fontawesome.com License - https://fontawesome.com/license (Commercial License) --><path d="M344 216V168C344 155 333 144 320 144H272V96C272 83 261 72 248 72H200C187 72 176 83 176 96V144H128C115 144 104 155 104 168V216C104 229 115 240 128 240H176V288C176 301 187 312 200 312H248C261 312 272 301 272 288V240H320C333 240 344 229 344 216ZM256 224V288C256 292 252 296 248 296H200C196 296 192 292 192 288V224H128C124 224 120 220 120 216V168C120 164 124 160 128 160H192V96C192 92 196 88 200 88H248C252 88 256 92 256 96V160H320C324 160 328 164 328 168V216C328 220 324 224 320 224H256ZM509 272C501 255 492 231 483 206C467 161 451 115 435 92C394 34 328 0 258 0H200C90 0 0 90 0 200C0 256 23 309 64 347V504C64 508 68 512 72 512S80 508 80 504V340L77 337C38 302 16 252 16 200C16 99 99 16 200 16H258C323 16 384 48 421 101C436 122 453 169 468 211C477 237 486 261 494 278C497 286 497 294 492 301C488 308 480 312 472 312H432V376C432 407 407 432 376 432H304V504C304 508 308 512 312 512S320 508 320 504V448H376C416 448 448 416 448 376V328H472C486 328 498 321 505 310C513 299 514 284 509 272Z"/></svg>