<svg xmlns="http://www.w3.org/2000/svg" viewBox="0 0 512 512"><!-- Font Awesome Pro 6.0.0-alpha1 by @fontawesome - https://fontawesome.com License - https://fontawesome.com/license (Commercial License) --><path d="M160 176C160 177 160 178 160 179C160 179 160 179 160 179V176ZM336 216C367 216 392 191 392 160C392 130 368 105 338 104C332 91 321 81 308 75C294 71 280 71 267 76C256 63 241 56 224 56S192 63 181 76C174 73 167 72 160 72C132 72 108 93 105 121C81 124 61 142 57 167C53 192 66 216 88 226C89 256 114 280 144 280C147 280 149 280 152 279V312C152 316 156 320 160 320S168 316 168 312V269C168 266 167 264 165 262C162 261 160 261 157 262C153 263 149 264 144 264C122 264 104 246 104 224C104 223 104 221 104 221C104 218 102 215 99 214C80 207 69 189 73 169C76 150 92 136 112 136C116 136 120 132 120 128C120 106 138 88 160 88C167 88 174 90 179 93C183 95 188 94 190 91C198 79 210 72 224 72S250 79 258 91C260 94 265 95 269 93C279 87 291 86 302 90C313 95 322 103 325 115C326 118 330 120 333 120H336C358 120 376 138 376 160S358 200 336 200H285C282 200 280 201 278 203C277 206 277 208 278 211C279 215 280 219 280 224C280 246 262 264 240 264C235 264 231 263 227 262C224 261 222 261 219 262C217 264 216 266 216 269V312C216 316 220 320 224 320S232 316 232 312V279C235 280 237 280 240 280C271 280 296 255 296 224C296 221 296 219 295 216H336ZM509 272C501 255 492 231 483 206C467 161 451 115 435 92C394 34 328 0 258 0H200C90 0 0 90 0 200C0 256 23 309 64 347V504C64 508 68 512 72 512S80 508 80 504V340L77 337C38 302 16 252 16 200C16 99 99 16 200 16H258C323 16 384 48 421 101C436 122 453 169 468 211C477 237 486 261 494 278C497 286 497 294 492 301C488 308 480 312 472 312H432V376C432 407 407 432 376 432H304V504C304 508 308 512 312 512S320 508 320 504V448H376C416 448 448 416 448 376V328H472C486 328 498 321 505 310C513 299 514 284 509 272Z"/></svg>