<svg xmlns="http://www.w3.org/2000/svg" viewBox="0 0 512 512"><!-- Font Awesome Pro 6.0.0-alpha1 by @fontawesome - https://fontawesome.com License - https://fontawesome.com/license (Commercial License) --><path d="M256 0C124 0 16 108 16 240V312C16 316 20 320 24 320S32 316 32 312V240C32 117 132 16 256 16S480 117 480 240V400C480 431 455 456 424 456H320C320 456 320 456 319 456C316 433 296 416 272 416H240C214 416 192 438 192 464S214 512 240 512H272C296 512 316 495 319 472C320 472 320 472 320 472H424C464 472 496 440 496 400V240C496 108 388 0 256 0ZM272 496H240C222 496 208 482 208 464S222 432 240 432H272C290 432 304 446 304 464S290 496 272 496ZM144 192H128C93 192 64 221 64 256V320C64 355 93 384 128 384H144C162 384 176 370 176 352V224C176 206 162 192 144 192ZM160 352C160 361 153 368 144 368H128C102 368 80 346 80 320V256C80 230 102 208 128 208H144C153 208 160 215 160 224V352ZM384 384C419 384 448 355 448 320V256C448 221 419 192 384 192H368C350 192 336 206 336 224V352C336 370 350 384 368 384H384ZM352 352V224C352 215 359 208 368 208H384C410 208 432 230 432 256V320C432 346 410 368 384 368H368C359 368 352 361 352 352Z"/></svg>