<svg xmlns="http://www.w3.org/2000/svg" viewBox="0 0 512 512"><!-- Font Awesome Pro 6.0.0-alpha1 by @fontawesome - https://fontawesome.com License - https://fontawesome.com/license (Commercial License) --><path d="M512 208V80C512 62 498 48 480 48H393C355 18 308 0 258 0H216C144 0 81 39 46 96H24C11 96 0 107 0 120V168C0 178 7 187 16 190C16 194 16 199 16 200C16 256 39 309 80 347V504C80 508 84 512 88 512S96 508 96 504V340L93 337C54 302 32 252 32 200C32 197 32 195 32 192H222C239 221 272 240 308 240H479C484 254 489 268 494 278C497 286 497 294 492 301C488 308 480 312 472 312H432V376C432 407 407 432 376 432H304V504C304 508 308 512 312 512S320 508 320 504V448H376C416 448 448 416 448 376V328H472C486 328 498 321 505 310C513 299 514 284 509 272C504 262 499 250 494 236C505 231 512 220 512 208ZM24 176C20 176 16 172 16 168V120C16 116 20 112 24 112H214C209 125 207 139 208 154C209 162 211 169 214 176H24ZM221 96H64C98 48 153 16 216 16H258C296 16 333 28 365 48H304C277 48 251 60 233 80C228 85 224 90 221 96ZM416 224H309C267 224 229 194 224 152C220 104 257 64 304 64H416V224ZM496 208C496 217 489 224 480 224H432V64H480C489 64 496 71 496 80V208Z"/></svg>