<svg xmlns="http://www.w3.org/2000/svg" viewBox="0 0 512 512"><!-- Font Awesome Pro 6.0.0-alpha1 by @fontawesome - https://fontawesome.com License - https://fontawesome.com/license (Commercial License) --><path d="M509 272C501 255 492 231 483 206C467 161 451 115 435 92C394 34 328 0 258 0H200C90 0 0 90 0 200C0 256 23 309 64 347V504C64 508 68 512 72 512S80 508 80 504V340L77 337C38 302 16 252 16 200C16 99 99 16 200 16H258C323 16 384 48 421 101C436 122 453 169 468 211C477 237 486 261 494 278C497 286 497 294 492 301C488 308 480 312 472 312H432V376C432 407 407 432 376 432H304V504C304 508 308 512 312 512S320 508 320 504V448H376C416 448 448 416 448 376V328H472C486 328 498 321 505 310C513 299 514 284 509 272ZM355 152C354 133 346 116 331 103C305 81 265 84 240 109L238 112L235 109C210 84 170 81 144 103C130 116 121 133 120 152C119 171 126 190 139 204L222 289C226 294 232 296 238 296S249 294 253 289L336 204C349 190 356 171 355 152ZM242 278C240 280 236 280 234 278L151 193C141 182 135 168 136 153C137 138 143 125 155 115C163 108 174 104 185 104C199 104 213 110 223 120L238 135L252 120C271 101 301 98 321 115C332 125 339 138 339 153C340 168 335 182 325 193L242 278Z"/></svg>