<svg xmlns="http://www.w3.org/2000/svg" viewBox="0 0 512 512"><!-- Font Awesome Pro 6.0.0-alpha1 by @fontawesome - https://fontawesome.com License - https://fontawesome.com/license (Commercial License) --><path d="M509 272C501 255 492 231 483 206C467 161 451 115 435 92C394 34 328 0 258 0H200C90 0 0 90 0 200C0 256 23 309 64 347V504C64 508 68 512 72 512S80 508 80 504V340L77 337C38 302 16 252 16 200C16 99 99 16 200 16H258C323 16 384 48 421 101C436 122 453 169 468 211C477 237 486 261 494 278C497 286 497 294 492 301C488 308 480 312 472 312H432V376C432 407 407 432 376 432H304V504C304 508 308 512 312 512S320 508 320 504V448H376C416 448 448 416 448 376V328H472C486 328 498 321 505 310C513 299 514 284 509 272ZM400 192C400 170 382 152 360 152C338 152 320 170 320 192S338 232 360 232C382 232 400 214 400 192ZM336 192C336 179 347 168 360 168C373 168 384 179 384 192S373 216 360 216C347 216 336 205 336 192Z"/></svg>