<svg xmlns="http://www.w3.org/2000/svg" viewBox="0 0 512 512"><!-- Font Awesome Pro 6.0.0-alpha1 by @fontawesome - https://fontawesome.com License - https://fontawesome.com/license (Commercial License) --><path d="M509 272C501 255 492 231 483 206C467 161 451 115 435 92C394 34 328 0 258 0H200C90 0 0 90 0 200C0 256 23 309 64 347V504C64 508 68 512 72 512S80 508 80 504V340L77 337C38 302 16 252 16 200C16 115 74 44 152 23V112C119 131 96 167 96 208C96 270 146 320 208 320S320 270 320 208C320 167 297 131 264 112V16C327 18 385 49 421 101C436 122 453 169 468 211C477 237 486 261 494 278C497 286 497 294 492 301C488 308 480 312 472 312H432V376C432 407 407 432 376 432H304V504C304 508 308 512 312 512S320 508 320 504V448H376C416 448 448 416 448 376V328H472C486 328 498 321 505 310C513 299 514 284 509 272ZM168 19C178 17 189 16 200 16H248V104C236 99 222 96 208 96C194 96 180 99 168 104V19ZM304 208C304 261 261 304 208 304C155 304 112 261 112 208S155 112 208 112C261 112 304 155 304 208ZM160 176C160 177 160 178 160 179C160 179 160 179 160 179V176ZM160 208C160 234 181 256 208 256S256 234 256 208S234 160 208 160S160 182 160 208ZM240 208C240 226 226 240 208 240S176 226 176 208S190 176 208 176S240 190 240 208Z"/></svg>