<svg xmlns="http://www.w3.org/2000/svg" viewBox="0 0 512 512"><!-- Font Awesome Pro 6.0.0-alpha1 by @fontawesome - https://fontawesome.com License - https://fontawesome.com/license (Commercial License) --><path d="M463 63C439 42 409 32 379 32C341 32 303 47 276 76L256 96L236 76C209 47 171 32 133 32C103 32 73 42 49 63C-13 117 -16 213 40 270L233 470C239 477 248 480 256 480C264 480 273 477 279 470L472 270C528 213 525 117 463 63ZM248 462C247 461 245 460 244 459L51 259C27 235 15 200 16 165C18 130 33 98 60 75C80 57 105 48 133 48C167 48 201 62 225 87C243 106 242 105 248 111V462ZM461 259L267 459C266 460 265 461 264 461V111C270 105 269 105 287 87C311 62 345 48 379 48C407 48 432 57 452 75C479 98 494 130 496 165C497 200 485 235 461 259Z"/></svg>