<svg xmlns="http://www.w3.org/2000/svg" viewBox="0 0 512 512"><!-- Font Awesome Pro 6.0.0-alpha1 by @fontawesome - https://fontawesome.com License - https://fontawesome.com/license (Commercial License) --><path d="M256 102C256 98 254 94 251 91L236 76C209 47 171 32 133 32C103 32 73 42 49 63C-13 117 -16 213 40 270L233 470C233 470 233 470 233 470C241 479 256 472 256 460C256 389 256 145 256 102ZM51 259C27 235 15 200 16 165C18 130 33 98 60 75C80 57 105 48 133 48C167 48 201 62 225 87C233 95 237 100 240 103V454L51 259Z"/></svg>