<svg xmlns="http://www.w3.org/2000/svg" viewBox="0 0 640 512"><!-- Font Awesome Pro 6.0.0-alpha1 by @fontawesome - https://fontawesome.com License - https://fontawesome.com/license (Commercial License) --><path d="M304 384H576C594 384 608 370 608 352C608 228 508 128 384 128H360V16H568C572 16 576 12 576 8S572 0 568 0H136C132 0 128 4 128 8S132 16 136 16H344V128H108L64 70C61 66 57 64 52 64H16C6 64 -2 74 0 84L24 176C26 186 33 194 43 198L192 256L278 371C284 379 294 384 304 384ZM416 147C516 162 592 248 592 352C592 361 585 368 576 368H416V147ZM202 243L198 241L49 183C44 181 40 177 39 172L16 80H52L95 138L100 144H384C389 144 395 144 400 145V368H304C299 368 294 366 291 362L205 246L202 243ZM632 432C628 432 624 436 624 440C624 471 599 496 568 496H232C228 496 224 500 224 504S228 512 232 512H568C608 512 640 480 640 440C640 436 636 432 632 432Z"/></svg>