<svg xmlns="http://www.w3.org/2000/svg" viewBox="0 0 576 512"><!-- Font Awesome Pro 6.0.0-alpha1 by @fontawesome - https://fontawesome.com License - https://fontawesome.com/license (Commercial License) --><path d="M224 288C228 288 232 284 232 280V56C232 52 236 48 240 48H336C340 48 344 52 344 56V280C344 284 348 288 352 288C356 288 360 284 360 280V56C360 43 349 32 336 32H240C227 32 216 43 216 56V280C216 284 220 288 224 288ZM574 383L574 383C570 374 562 368 552 368H24C14 368 6 374 2 383C-2 391 0 401 6 408C9 411 75 480 288 480S567 411 570 408C576 401 578 391 574 383ZM558 398C555 400 494 464 288 464S21 400 18 398C16 395 15 392 17 389C18 386 21 384 24 384H552C555 384 558 386 559 389C561 392 560 395 558 398ZM40 344C44 344 48 340 48 336V296C48 203 107 121 195 91C199 90 201 85 200 81C198 77 194 75 189 76C95 108 32 197 32 296V336C32 340 36 344 40 344ZM381 91C469 121 528 203 528 296V336C528 340 532 344 536 344S544 340 544 336V296C544 197 481 108 387 76C382 75 378 77 376 81C375 85 377 90 381 91Z"/></svg>