<svg xmlns="http://www.w3.org/2000/svg" viewBox="0 0 512 512"><!-- Font Awesome Pro 6.0.0-alpha1 by @fontawesome - https://fontawesome.com License - https://fontawesome.com/license (Commercial License) --><path d="M506 233L400 54C392 41 377 32 361 32H151C134 32 120 41 112 54L6 233C-2 247 -2 265 6 279L112 458C120 471 134 480 151 480H361C378 480 392 471 400 458L506 279C514 265 514 247 506 233ZM492 271L387 450C381 458 372 464 361 464H151C140 464 131 458 125 450L20 271C15 262 15 250 20 241L125 62C131 54 140 48 151 48H361C372 48 381 54 387 62L492 241C497 250 497 262 492 271ZM350 162C347 159 341 159 338 162L256 245L174 162C171 159 165 159 162 162S159 171 162 174L245 256L162 338C159 341 159 347 162 350C164 351 166 352 168 352S172 351 174 350L256 267L338 350C340 351 342 352 344 352S348 351 350 350C353 347 353 341 350 338L267 256L350 174C353 171 353 165 350 162Z"/></svg>