<svg xmlns="http://www.w3.org/2000/svg" viewBox="0 0 512 512"><!-- Font Awesome Pro 6.0.0-alpha1 by @fontawesome - https://fontawesome.com License - https://fontawesome.com/license (Commercial License) --><path d="M506 233L400 54C392 41 377 32 361 32H151C134 32 120 41 112 54L6 233C-2 247 -2 265 6 279L112 458C120 471 134 480 151 480H361C378 480 392 471 400 458L506 279C514 265 514 247 506 233ZM492 271L387 450C381 458 372 464 361 464H151C140 464 131 458 125 450L20 271C15 262 15 250 20 241L125 62C131 54 140 48 151 48H361C372 48 381 54 387 62L492 241C497 250 497 262 492 271Z"/></svg>