<svg xmlns="http://www.w3.org/2000/svg" viewBox="0 0 448 512"><!-- Font Awesome Pro 6.0.0-alpha1 by @fontawesome - https://fontawesome.com License - https://fontawesome.com/license (Commercial License) --><path d="M377 54C335 18 280 0 224 0C168 0 113 18 71 54C7 110 -31 224 33 416C65 512 224 512 224 512S383 512 415 416C479 224 441 110 377 54ZM400 411C372 495 225 496 224 496C223 496 76 495 48 411C-23 199 39 104 82 66C119 34 170 16 224 16C278 16 329 34 366 66C409 104 471 199 400 411ZM288 96C297 96 304 89 304 80S297 64 288 64S272 71 272 80S279 96 288 96ZM160 96C169 96 176 89 176 80S169 64 160 64S144 71 144 80S151 96 160 96ZM160 168H96C74 168 56 186 56 208C56 248 88 280 128 280S200 248 200 208C200 186 182 168 160 168ZM128 264C97 264 72 239 72 208C72 195 83 184 96 184H160C173 184 184 195 184 208C184 239 159 264 128 264ZM176 432C167 432 160 439 160 448S167 464 176 464S192 457 192 448S185 432 176 432ZM176 368C167 368 160 375 160 384S167 400 176 400S192 393 192 384S185 368 176 368ZM176 304C167 304 160 311 160 320S167 336 176 336S192 329 192 320S185 304 176 304ZM224 112C215 112 208 119 208 128S215 144 224 144S240 137 240 128S233 112 224 112ZM272 432C263 432 256 439 256 448S263 464 272 464S288 457 288 448S281 432 272 432ZM272 368C263 368 256 375 256 384S263 400 272 400S288 393 288 384S281 368 272 368ZM272 304C263 304 256 311 256 320S263 336 272 336S288 329 288 320S281 304 272 304ZM352 168H288C266 168 248 186 248 208C248 248 280 280 320 280S392 248 392 208C392 186 374 168 352 168ZM320 264C289 264 264 239 264 208C264 195 275 184 288 184H352C365 184 376 195 376 208C376 239 351 264 320 264Z"/></svg>