<svg xmlns="http://www.w3.org/2000/svg" viewBox="0 0 512 512"><!-- Font Awesome Pro 6.0.0-alpha1 by @fontawesome - https://fontawesome.com License - https://fontawesome.com/license (Commercial License) --><path d="M256 96C282 96 304 74 304 48S282 0 256 0C229 0 208 22 208 48S229 96 256 96ZM256 16C274 16 288 30 288 48S274 80 256 80S224 66 224 48S238 16 256 16ZM508 355C503 349 496 345 489 345H489C473 345 457 344 441 341C429 339 421 328 422 317C424 302 428 287 432 272C435 266 433 258 429 252C425 246 418 243 410 243C376 244 341 237 307 224C303 222 298 224 297 228C295 232 297 237 301 239C338 253 374 259 410 259C412 259 415 260 416 262C417 263 418 265 417 267C412 283 409 298 407 315C404 335 418 353 438 357C454 360 470 361 486 361C487 361 487 362 489 361C491 361 493 362 495 364C496 365 497 367 496 369C483 405 479 445 484 484C484 488 483 491 480 494C476 496 472 497 468 495C429 479 390 472 350 472C347 472 345 471 344 469C343 468 342 466 343 463C348 449 352 433 354 416C356 396 342 378 322 374C317 373 313 373 309 372L305 372C301 371 297 374 296 379S299 387 303 388L307 388C311 389 315 389 319 390C331 392 339 403 338 414C336 430 332 444 328 458C325 465 326 472 331 478C335 484 343 487 350 488C388 488 425 495 461 510C465 511 469 512 472 512C478 512 484 510 489 506C497 501 501 492 499 482C495 445 499 408 511 375C513 368 512 361 508 355ZM176 192C202 192 224 170 224 144S202 96 176 96S128 118 128 144S149 192 176 192ZM176 112C194 112 208 126 208 144S194 176 176 176C158 176 144 162 144 144S158 112 176 112ZM336 192C362 192 384 170 384 144S362 96 336 96S288 118 288 144S309 192 336 192ZM336 112C354 112 368 126 368 144S354 176 336 176C318 176 304 162 304 144S318 112 336 112ZM252 244C253 235 250 227 243 222C235 217 226 215 217 219C180 235 140 244 102 243C94 242 87 246 83 252C79 258 77 266 80 272C84 287 88 302 90 317C91 328 83 339 71 341C56 344 41 345 26 345C25 345 24 345 23 345C16 345 9 349 4 355C0 361 -1 368 1 375C13 409 17 445 13 482C11 492 15 501 23 506C28 510 34 512 40 512C43 512 47 511 51 510C87 495 124 487 162 488C170 487 177 484 181 478C185 472 187 465 184 458C180 444 176 430 174 414C173 403 181 392 193 390C208 387 223 386 238 386C239 386 240 386 241 386C248 386 255 382 260 376C264 370 265 363 263 356C251 321 247 283 252 244ZM247 367C245 369 243 370 241 370H241C224 370 207 371 190 374C170 378 156 396 158 416C161 433 164 449 169 463C170 466 169 468 168 469C167 471 164 471 162 472C122 471 83 479 45 495C40 497 36 496 32 494C29 491 28 488 28 484C33 444 29 406 16 370C15 367 17 365 17 364C19 362 21 361 23 361H23C40 361 57 360 74 357C94 353 108 335 105 315C103 299 100 283 95 267C94 265 95 263 96 262C97 260 99 259 102 259C142 260 185 251 224 234C227 232 230 233 233 235C234 236 237 238 236 242C231 283 235 324 248 361C249 364 247 366 247 367Z"/></svg>