<svg xmlns="http://www.w3.org/2000/svg" viewBox="0 0 576 512"><!-- Font Awesome Pro 6.0.0-alpha1 by @fontawesome - https://fontawesome.com License - https://fontawesome.com/license (Commercial License) --><path d="M573 252L293 4C290 1 286 1 283 4L3 252C-1 255 -1 260 2 263C5 267 10 267 13 264L64 220V482C64 500 78 514 96 514H192C210 514 224 500 224 482V338H352V482C352 500 366 514 384 514H480C498 514 512 500 512 482V220L563 264C564 265 566 266 568 266C570 266 572 265 574 263C577 260 577 255 573 252ZM480 498H384C375 498 368 491 368 482V338C368 329 361 322 352 322H224C215 322 208 329 208 338V482C208 491 201 498 192 498H96C87 498 80 491 80 482V206L288 21L496 206V482C496 491 489 498 480 498Z"/></svg>