<svg xmlns="http://www.w3.org/2000/svg" viewBox="0 0 576 512"><!-- Font Awesome Pro 6.0.0-alpha1 by @fontawesome - https://fontawesome.com License - https://fontawesome.com/license (Commercial License) --><path d="M573 252L293 4C290 1 286 1 283 4L3 252C-1 255 -1 260 2 263C5 267 10 267 13 264L64 220V450C64 485 93 514 128 514H448C483 514 512 485 512 450V220L563 264C564 265 566 266 568 266C570 266 572 265 574 263C577 260 577 255 573 252ZM448 498H128C102 498 80 477 80 450V206L288 21L496 206V450C496 477 474 498 448 498Z"/></svg>