<svg xmlns="http://www.w3.org/2000/svg" viewBox="0 0 576 512"><!-- Font Awesome Pro 6.0.0-alpha1 by @fontawesome - https://fontawesome.com License - https://fontawesome.com/license (Commercial License) --><path d="M280 245C268 233 251 226 235 226C222 226 210 230 199 239C173 262 171 303 195 328L278 414C281 417 284 418 288 418C292 418 295 417 298 414L381 328C405 303 403 262 377 239C366 230 354 226 341 226C325 226 308 233 296 245L288 254L280 245ZM308 256C317 247 328 242 341 242C350 242 359 245 366 251C376 259 381 271 382 284C382 296 378 308 369 317L288 401L207 317C198 308 194 296 194 284C195 271 200 259 210 251C217 245 226 242 235 242C248 242 259 247 268 256L288 277L308 256ZM573 252L293 4C290 1 286 1 283 4L3 252C-1 255 -1 260 2 263C5 267 10 267 13 264L64 220V450C64 485 93 514 128 514H448C483 514 512 485 512 450V220L563 264C564 265 566 266 568 266C570 266 572 265 574 263C577 260 577 255 573 252ZM496 450C496 477 474 498 448 498H128C102 498 80 477 80 450V206L288 21L496 206V450Z"/></svg>