<svg xmlns="http://www.w3.org/2000/svg" viewBox="0 0 512 512"><!-- Font Awesome Pro 6.0.0-alpha1 by @fontawesome - https://fontawesome.com License - https://fontawesome.com/license (Commercial License) --><path d="M509 324L442 168C429 132 399 103 362 91C378 77 395 52 385 12C384 8 381 4 376 2C372 0 367 -1 363 1L167 74C50 116 0 212 0 394V473C0 494 18 512 39 512H268C282 512 294 505 301 493C308 482 309 468 303 455L263 380C261 376 256 375 252 377C248 379 247 384 249 388L288 463C292 470 292 478 287 485S276 496 268 496H39C26 496 16 486 16 473V394C16 220 63 129 172 89L370 16C380 57 356 78 340 87L322 98L343 102C381 109 413 137 427 174L494 330C498 338 496 348 490 354L445 393C441 398 435 400 429 400H380C373 400 366 396 362 390L317 332C317 332 317 332 317 332C320 330 322 328 325 326C328 323 328 318 325 315C322 311 317 311 314 314C298 328 277 336 256 336C211 336 172 301 168 255C168 251 164 247 160 248C155 248 152 252 152 257C157 310 202 352 256 352C273 352 289 348 304 340C304 340 304 341 304 341L349 400C356 410 368 416 381 416H429C440 416 449 412 456 405L501 366C512 355 515 338 509 324ZM368 208C368 190 354 176 336 176C318 176 304 190 304 208S318 240 336 240C354 240 368 226 368 208ZM320 208C320 199 327 192 336 192S352 199 352 208C352 217 345 224 336 224S320 217 320 208Z"/></svg>