<svg xmlns="http://www.w3.org/2000/svg" viewBox="0 0 576 512"><!-- Font Awesome Pro 6.0.0-alpha1 by @fontawesome - https://fontawesome.com License - https://fontawesome.com/license (Commercial License) --><path d="M148 280H108C97 280 88 289 88 300V340C88 351 97 360 108 360H148C159 360 168 351 168 340V300C168 289 159 280 148 280ZM152 340C152 342 150 344 148 344H108C106 344 104 342 104 340V300C104 298 106 296 108 296H148C150 296 152 298 152 300V340ZM308 280H268C257 280 248 289 248 300V340C248 351 257 360 268 360H308C319 360 328 351 328 340V300C328 289 319 280 308 280ZM312 340C312 342 310 344 308 344H268C266 344 264 342 264 340V300C264 298 266 296 268 296H308C310 296 312 298 312 300V340ZM148 376H108C97 376 88 385 88 396V436C88 447 97 456 108 456H148C159 456 168 447 168 436V396C168 385 159 376 148 376ZM152 436C152 438 150 440 148 440H108C106 440 104 438 104 436V396C104 394 106 392 108 392H148C150 392 152 394 152 396V436ZM536 96H448V40C448 18 430 0 408 0H168C146 0 128 18 128 40V96H40C18 96 0 114 0 136V504C0 508 4 512 8 512S16 508 16 504V136C16 123 27 112 40 112H144V40C144 27 155 16 168 16H408C421 16 432 27 432 40V112H536C549 112 560 123 560 136V504C560 508 564 512 568 512S576 508 576 504V136C576 114 558 96 536 96ZM468 280H428C417 280 408 289 408 300V340C408 351 417 360 428 360H468C479 360 488 351 488 340V300C488 289 479 280 468 280ZM472 340C472 342 470 344 468 344H428C426 344 424 342 424 340V300C424 298 426 296 428 296H468C470 296 472 298 472 300V340ZM468 376H428C417 376 408 385 408 396V436C408 447 417 456 428 456H468C479 456 488 447 488 436V396C488 385 479 376 468 376ZM472 436C472 438 470 440 468 440H428C426 440 424 438 424 436V396C424 394 426 392 428 392H468C470 392 472 394 472 396V436ZM344 96H320V72C320 63 313 56 304 56H272C263 56 256 63 256 72V96H232C223 96 216 103 216 112V144C216 153 223 160 232 160H256L256 184C256 193 263 200 272 200H304C313 200 320 193 320 184V160L344 160C353 160 360 153 360 144V112C360 103 353 96 344 96ZM344 144L304 144L304 184L272 184L272 144L232 144L232 112H272L272 72L304 72V112L344 112L344 144ZM308 376H268C257 376 248 385 248 396V436C248 447 257 456 268 456H308C319 456 328 447 328 436V396C328 385 319 376 308 376ZM312 436C312 438 310 440 308 440H268C266 440 264 438 264 436V396C264 394 266 392 268 392H308C310 392 312 394 312 396V436Z"/></svg>