<svg xmlns="http://www.w3.org/2000/svg" viewBox="0 0 512 512"><!-- Font Awesome Pro 6.0.0-alpha1 by @fontawesome - https://fontawesome.com License - https://fontawesome.com/license (Commercial License) --><path d="M277 99L291 107C319 123 336 152 336 184C336 188 340 192 344 192S352 188 352 184C352 147 332 112 299 93L285 85C257 69 240 40 240 8C240 4 236 0 232 0S224 4 224 8C224 45 244 80 277 99ZM373 99L387 107C415 123 432 152 432 184C432 188 436 192 440 192S448 188 448 184C448 147 428 112 395 93L381 85C353 69 336 40 336 8C336 4 332 0 328 0S320 4 320 8C320 45 340 80 373 99ZM480 256H32C14 256 0 270 0 288V448C0 483 29 512 64 512H448C483 512 512 483 512 448V288C512 270 498 256 480 256ZM496 448C496 474 474 496 448 496H64C38 496 16 474 16 448V288C16 279 23 272 32 272H480C489 272 496 279 496 288V448ZM112 312C108 312 104 316 104 320V448C104 452 108 456 112 456S120 452 120 448V320C120 316 116 312 112 312ZM208 312C204 312 200 316 200 320V448C200 452 204 456 208 456S216 452 216 448V320C216 316 212 312 208 312ZM304 312C300 312 296 316 296 320V448C296 452 300 456 304 456S312 452 312 448V320C312 316 308 312 304 312ZM400 312C396 312 392 316 392 320V448C392 452 396 456 400 456S408 452 408 448V320C408 316 404 312 400 312ZM64 128C99 128 128 99 128 64S99 0 64 0C29 0 0 29 0 64S29 128 64 128ZM64 16C90 16 112 38 112 64S90 112 64 112S16 90 16 64S38 16 64 16ZM8 232C12 232 16 228 16 224C16 198 38 176 64 176H120C129 176 138 179 145 183L220 231C221 232 223 232 224 232C227 232 229 231 231 228C233 225 232 220 228 217L154 170C144 163 132 160 120 160H64C29 160 0 189 0 224C0 228 4 232 8 232Z"/></svg>