<svg xmlns="http://www.w3.org/2000/svg" viewBox="0 0 512 512"><!-- Font Awesome Pro 6.0.0-alpha1 by @fontawesome - https://fontawesome.com License - https://fontawesome.com/license (Commercial License) --><path d="M27 320C30 320 32 319 33 318C36 315 36 309 33 306C12 285 10 252 29 233L233 29C252 10 285 12 306 33C309 36 315 36 318 33C321 30 321 25 318 22C290 -6 247 -7 221 18L18 221C-7 247 -6 290 22 318C23 319 25 320 27 320ZM422 102C407 116 396 118 383 120C369 123 353 125 335 143S314 177 312 191C310 204 308 216 294 230C279 244 268 246 255 248C241 251 225 253 207 271C189 289 186 305 184 319C182 332 180 344 166 358C151 372 140 374 127 376C113 379 97 381 79 399C76 402 76 407 79 410C81 412 83 413 85 413S89 412 90 410C105 396 116 394 129 392C143 390 159 387 177 369C195 351 197 335 200 321C202 308 204 297 218 282C232 268 244 266 257 264C271 262 287 259 305 241C323 223 325 207 328 193C330 180 332 169 346 154C360 140 372 138 385 136C399 134 415 131 433 113C436 110 436 105 433 102C430 99 425 99 422 102ZM489 23C473 8 453 0 432 0C412 0 391 8 376 23L24 375C4 395 -5 424 3 452C10 480 32 502 60 509C66 511 73 512 80 512C101 512 122 503 137 488L489 136C520 105 520 55 489 23ZM126 476C114 489 97 496 80 496C75 496 69 495 64 494C41 488 24 471 18 448C12 426 19 402 36 386L387 35C399 23 415 16 432 16C449 16 465 23 477 35C489 47 496 63 496 80C496 97 489 113 477 125L126 476ZM479 194C476 197 476 203 479 206C500 227 502 260 483 279L279 483C260 502 227 500 206 479C203 476 197 476 194 479C191 482 191 487 194 490C209 505 228 512 246 512C262 512 278 506 291 494L494 291C519 265 518 222 490 194C487 191 482 191 479 194Z"/></svg>