<svg xmlns="http://www.w3.org/2000/svg" viewBox="0 0 384 512"><!-- Font Awesome Pro 6.0.0-alpha1 by @fontawesome - https://fontawesome.com License - https://fontawesome.com/license (Commercial License) --><path d="M352 77V56C352 52 348 48 344 48S336 52 336 56V77C336 105 326 133 309 155L234 251C231 254 231 258 234 261L309 357C326 379 336 407 336 435V456C336 460 340 464 344 464S352 460 352 456V435C352 403 341 372 322 347L250 256L322 165C341 140 352 109 352 77ZM8 16H376C380 16 384 12 384 8S380 0 376 0H8C4 0 0 4 0 8S4 16 8 16ZM376 496H8C4 496 0 500 0 504S4 512 8 512H376C380 512 384 508 384 504S380 496 376 496ZM32 435V456C32 460 36 464 40 464S48 460 48 456V435C48 407 58 379 75 357L150 261C153 258 153 254 150 251L75 155C58 133 48 105 48 77V56C48 52 44 48 40 48S32 52 32 56V77C32 109 43 140 62 165L134 256L62 347C43 372 32 403 32 435Z"/></svg>