<svg xmlns="http://www.w3.org/2000/svg" viewBox="0 0 576 512"><!-- Font Awesome Pro 6.0.0-alpha1 by @fontawesome - https://fontawesome.com License - https://fontawesome.com/license (Commercial License) --><path d="M573 250L512 196V48C512 39 505 32 496 32H400C391 32 384 39 384 48V82L293 2C290 -1 286 -1 283 2L3 250C-1 253 -1 258 2 261C5 265 10 265 13 262L64 218V448C64 483 93 512 128 512H448C483 512 512 483 512 448V218L563 262C564 263 566 264 568 264C570 264 572 263 574 261C577 258 577 253 573 250ZM303 367L257 294L370 387L276 444C274 445 272 447 272 449S272 453 273 455L304 496H234L203 437L300 378C302 377 303 376 304 373C304 371 304 369 303 367ZM496 448C496 474 474 496 448 496H324L292 453L388 395C390 394 392 392 392 389C392 386 391 384 389 382L229 250C226 247 222 247 219 250C216 253 215 257 217 260L285 369L188 427C184 429 183 434 185 437L216 496H128C102 496 80 474 80 448V204L288 19L496 204V448ZM496 182L400 97V48H496V182Z"/></svg>