<svg xmlns="http://www.w3.org/2000/svg" viewBox="0 0 640 512"><!-- Font Awesome Pro 6.0.0-alpha1 by @fontawesome - https://fontawesome.com License - https://fontawesome.com/license (Commercial License) --><path d="M637 306L405 98C402 95 398 95 395 98L163 306C159 309 159 314 162 317C165 321 170 321 173 318L224 273V472C224 494 242 512 264 512H536C558 512 576 494 576 472V273L627 318C628 319 630 320 632 320C634 320 636 319 638 317C641 314 641 309 637 306ZM560 472C560 485 549 496 536 496H264C251 496 240 485 240 472V258L400 115L560 258V472ZM344 304V368C344 381 355 392 368 392H432C445 392 456 381 456 368V304C456 291 445 280 432 280H368C355 280 344 291 344 304ZM440 304V368C440 372 436 376 432 376H368C364 376 360 372 360 368V304C360 300 364 296 368 296H432C436 296 440 300 440 304ZM111 224C145 224 176 209 197 183C201 178 201 172 198 168C195 163 190 161 185 162C150 169 115 149 103 115C91 81 104 43 135 26C140 23 142 18 141 12C140 7 136 3 131 2C125 1 118 0 111 0C50 0 0 50 0 112S50 224 111 224ZM111 16C114 16 117 16 120 17C87 40 74 82 88 121C102 159 140 182 179 179C161 197 137 208 111 208C59 208 16 165 16 112S59 16 111 16ZM200 72H248V120C248 124 252 128 256 128S264 124 264 120V72H312C316 72 320 68 320 64S316 56 312 56H264V8C264 4 260 0 256 0S248 4 248 8V56H200C196 56 192 60 192 64S196 72 200 72ZM152 376H104V328C104 324 100 320 96 320S88 324 88 328V376H40C36 376 32 380 32 384S36 392 40 392H88V440C88 444 92 448 96 448S104 444 104 440V392H152C156 392 160 388 160 384S156 376 152 376Z"/></svg>