<svg xmlns="http://www.w3.org/2000/svg" viewBox="0 0 640 512"><!-- Font Awesome Pro 6.0.0-alpha1 by @fontawesome - https://fontawesome.com License - https://fontawesome.com/license (Commercial License) --><path d="M291 400H104C91 400 80 389 80 376V162L240 19L343 111C345 113 349 113 352 112C352 112 352 111 352 111C357 109 357 103 354 99L245 2C242 -1 238 -1 235 2L3 210C-1 213 -1 218 2 221C5 225 10 225 13 222L64 177V376C64 398 82 416 104 416H290C292 416 294 415 296 414C296 413 296 413 296 413C301 408 298 400 291 400ZM144 184C131 184 120 195 120 208V272C120 285 131 296 144 296H208C221 296 232 285 232 272V208C232 195 221 184 208 184H144ZM216 208V272C216 276 212 280 208 280H144C140 280 136 276 136 272V208C136 204 140 200 144 200H208C212 200 216 204 216 208ZM459 394C455 393 450 395 449 399L443 414C440 421 436 427 431 432L374 490C365 498 351 498 343 489C334 480 334 466 342 457L390 409C397 402 402 394 405 385L418 354C419 350 417 345 413 344C409 342 404 344 403 348L390 379C388 386 384 392 379 398L331 446C316 462 317 485 331 500C339 508 349 512 359 512C368 512 378 508 385 501L442 444C449 437 454 429 457 420L463 405C465 401 463 396 459 394ZM524 104C553 104 576 81 576 52C576 23 553 0 524 0C495 0 472 23 472 52C472 81 495 104 524 104ZM524 16C544 16 560 32 560 52C560 72 544 88 524 88C504 88 488 72 488 52C488 32 504 16 524 16ZM619 235C619 235 619 235 619 235L599 225L591 200C575 152 532 120 484 120H483C452 120 432 128 403 140L391 145C368 155 349 172 338 194L332 208C322 227 330 251 349 260C358 265 369 266 379 262C389 259 397 252 401 243L408 229C410 224 414 220 420 218L431 214L420 258C414 281 420 305 436 323L494 387C500 393 505 402 507 410L524 482C527 492 533 501 542 506C548 510 555 512 562 512C565 512 568 511 572 511C593 505 605 484 600 463L579 376C576 365 570 354 562 345L521 300L530 262C537 276 548 287 561 294L584 306C593 310 604 311 613 308C623 305 631 298 636 288C645 269 638 245 619 235ZM622 281C616 292 603 297 591 292L569 280C556 273 546 262 542 248L537 232C534 225 523 225 521 233L505 300C504 303 505 305 506 307L551 356C557 363 561 371 563 380L585 467C588 479 580 492 568 495C555 498 543 491 540 478L522 407C520 395 514 385 506 376L448 312C436 298 431 279 436 262L450 202C451 197 448 192 442 192C441 192 414 203 414 203C405 207 397 214 393 222L387 236C381 247 368 252 356 246C345 240 341 226 346 215L353 201C362 183 378 168 397 160C438 143 453 136 484 136C525 136 562 164 575 205L585 234C585 236 587 237 589 238L611 250C623 256 627 270 622 281Z"/></svg>