<svg xmlns="http://www.w3.org/2000/svg" viewBox="0 0 576 512"><!-- Font Awesome Pro 6.0.0-alpha1 by @fontawesome - https://fontawesome.com License - https://fontawesome.com/license (Commercial License) --><path d="M573 250L512 196V48C512 39 505 32 496 32H400C391 32 384 39 384 48V82L293 2C290 -1 286 -1 283 2L3 250C-1 253 -1 258 2 261C5 265 10 265 13 262L64 218V448C64 483 93 512 128 512H448C483 512 512 483 512 448V218L563 262C564 263 566 264 568 264C570 264 572 263 574 261C577 258 577 253 573 250ZM496 448C496 474 474 496 448 496H128C101 496 80 474 80 448V204L288 19L496 204V448ZM496 182L400 97V48H496V182ZM224 256C224 291 253 320 288 320S352 291 352 256S323 192 288 192S224 221 224 256ZM336 256C336 282 314 304 288 304S240 282 240 256C240 230 262 208 288 208S336 230 336 256ZM256 352C212 352 176 388 176 432C176 441 183 448 192 448H384C393 448 400 441 400 432C400 388 364 352 320 352H256ZM384 432H192C192 397 221 368 256 368H320C355 368 384 397 384 432Z"/></svg>