<svg xmlns="http://www.w3.org/2000/svg" viewBox="0 0 640 512"><!-- Font Awesome Pro 6.0.0-alpha1 by @fontawesome - https://fontawesome.com License - https://fontawesome.com/license (Commercial License) --><path d="M637 306L405 97C402 95 398 95 395 97L163 306C159 309 159 314 162 317C165 320 170 321 173 318L224 272V472C224 494 242 512 264 512H536C558 512 576 494 576 472V272L627 318C628 319 630 320 632 320C634 320 636 319 638 317C641 314 641 309 637 306ZM560 472C560 485 549 496 536 496H264C251 496 240 485 240 472V258L400 114L560 258V472ZM344 304V368C344 381 355 392 368 392H432C445 392 456 381 456 368V304C456 290 445 280 432 280H368C355 280 344 290 344 304ZM440 304V368C440 372 436 376 432 376H368C364 376 360 372 360 368V304C360 299 364 296 368 296H432C436 296 440 299 440 304ZM131 266L66 287C65 288 63 288 63 287C62 286 61 285 62 283L86 211L18 177C17 177 16 175 16 174C16 173 17 172 18 171L86 137L62 65C61 64 62 63 63 62C63 61 65 61 66 61L138 85L172 17C173 15 177 15 178 17L212 85L284 61C285 61 286 61 287 62C288 63 288 64 288 65L266 131C265 135 267 139 271 141C275 142 280 140 281 136L303 70C305 63 304 56 298 51C293 46 285 44 279 46L220 65L192 10C186 -3 164 -3 158 10L130 65L71 46C64 44 56 45 51 50C46 56 44 63 46 70L66 129L11 157C4 160 0 167 0 174C0 182 4 188 11 191L66 219L47 278C44 285 46 293 51 298C55 302 60 304 65 304C67 304 69 303 71 303L136 281C141 279 143 275 141 271C140 267 135 264 131 266ZM176 127C202 127 224 149 224 175C224 180 228 183 232 183S240 180 240 175C240 140 211 111 176 111S112 140 112 175S141 240 176 240C180 240 184 236 184 232S180 224 176 224C150 224 128 202 128 175S150 127 176 127Z"/></svg>