<svg xmlns="http://www.w3.org/2000/svg" viewBox="0 0 448 512"><!-- Font Awesome Pro 6.0.0-alpha1 by @fontawesome - https://fontawesome.com License - https://fontawesome.com/license (Commercial License) --><path d="M224 224C206 224 192 238 192 256S206 288 224 288S256 274 256 256S242 224 224 224ZM224 272C215 272 208 265 208 256S215 240 224 240S240 247 240 256S233 272 224 272ZM224 160C171 160 128 203 128 256S171 352 224 352S320 309 320 256S277 160 224 160ZM224 336C180 336 144 300 144 256S180 176 224 176S304 212 304 256S268 336 224 336ZM220 93L240 31C242 23 241 15 236 9C230 2 222 -1 215 0C110 13 32 103 32 210C32 321 119 413 228 419L208 481C206 489 207 497 212 503C217 509 224 512 231 512C232 512 233 512 233 512C338 499 416 409 416 302C416 191 329 99 220 93ZM232 496C228 496 226 494 225 493C224 492 222 490 223 486L250 403H239C134 403 48 316 48 209C48 111 120 28 216 16C217 16 217 16 217 16C221 16 222 18 223 19C224 20 226 22 225 26L198 109H209C314 109 400 196 400 303C400 401 328 484 232 496Z"/></svg>