<svg xmlns="http://www.w3.org/2000/svg" viewBox="0 0 448 512"><!-- Font Awesome Pro 6.0.0-alpha1 by @fontawesome - https://fontawesome.com License - https://fontawesome.com/license (Commercial License) --><path d="M337 292L244 484C240 491 232 496 224 496S208 491 204 484L111 292C109 288 104 287 101 289C97 291 95 295 97 299L190 490C196 504 209 512 224 512S252 504 258 491L351 299C353 295 351 291 347 289C344 287 339 288 337 292ZM370 151C373 99 347 49 302 22C254 -7 193 -7 146 22C101 49 75 99 78 151C52 154 32 176 32 203C32 232 56 256 86 256H362C392 256 416 232 416 203C416 176 396 154 370 151ZM362 240H86C65 240 48 223 48 203S65 166 87 166H96L95 157C89 109 113 61 155 35C197 10 251 10 293 35C335 61 359 109 353 157L352 166H362C383 166 400 183 400 203S383 240 362 240Z"/></svg>