<svg xmlns="http://www.w3.org/2000/svg" viewBox="0 0 576 512"><!-- Font Awesome Pro 6.0.0-alpha1 by @fontawesome - https://fontawesome.com License - https://fontawesome.com/license (Commercial License) --><path d="M72 384H472C494 384 512 366 512 344V302C512 256 481 216 435 205L320 178V8C320 4 316 0 312 0S304 4 304 8V26L83 81C53 89 32 117 32 148V344C32 366 50 384 72 384ZM48 148C48 124 64 103 87 96L304 42V112H264C260 112 256 116 256 120S260 128 264 128H304V176H264C260 176 256 180 256 184S260 192 264 192H311L432 220C470 230 496 263 496 302V344C496 357 485 368 472 368H72C59 368 48 357 48 344V148ZM568 416C564 416 560 420 560 424V440C560 471 535 496 504 496H424V424C424 420 420 416 416 416S408 420 408 424V496H136V424C136 420 132 416 128 416S120 420 120 424V496H8C4 496 0 500 0 504S4 512 8 512H504C544 512 576 480 576 440V424C576 420 572 416 568 416Z"/></svg>