<svg xmlns="http://www.w3.org/2000/svg" viewBox="0 0 512 512"><!-- Font Awesome Pro 6.0.0-alpha1 by @fontawesome - https://fontawesome.com License - https://fontawesome.com/license (Commercial License) --><path d="M510 3C509 1 506 0 504 0H8C5 0 3 1 2 3C0 5 0 8 0 10L88 314C89 318 92 320 96 320H96C100 320 103 318 104 314L139 198L184 378C186 385 198 385 200 378L245 198L280 314C282 321 294 321 296 314L344 156L408 505C409 509 412 512 416 512H416C420 512 423 509 424 505L512 9C512 7 512 5 510 3ZM416 459L354 121C353 117 350 114 346 114H346C343 114 339 116 338 120L288 285L252 166C251 162 247 160 244 160C240 160 237 163 236 166L192 343L148 166C147 163 144 160 140 160C137 160 133 162 132 166L96 284L19 16H494L416 459Z"/></svg>