<svg xmlns="http://www.w3.org/2000/svg" viewBox="0 0 576 512"><!-- Font Awesome Pro 6.0.0-alpha1 by @fontawesome - https://fontawesome.com License - https://fontawesome.com/license (Commercial License) --><path d="M528 64H392C388 64 384 68 384 72S388 80 392 80H528C546 80 560 94 560 112V464C560 482 546 496 528 496H48C30 496 16 482 16 464V112C16 94 30 80 48 80H184C188 80 192 76 192 72S188 64 184 64H48C22 64 0 86 0 112V464C0 490 22 512 48 512H528C554 512 576 490 576 464V112C576 86 554 64 528 64ZM256 128H320C338 128 352 114 352 96V32C352 14 338 0 320 0H256C238 0 224 14 224 32V96C224 114 238 128 256 128ZM240 32C240 23 247 16 256 16H320C329 16 336 23 336 32V96C336 105 329 112 320 112H256C247 112 240 105 240 96V32ZM288 320C323 320 352 291 352 256S323 192 288 192S224 221 224 256S253 320 288 320ZM288 208C314 208 336 230 336 256S314 304 288 304S240 282 240 256S262 208 288 208ZM176 440C176 444 180 448 184 448S192 444 192 440V432C192 397 221 368 256 368H320C355 368 384 397 384 432V440C384 444 388 448 392 448S400 444 400 440V432C400 388 364 352 320 352H256C212 352 176 388 176 432V440Z"/></svg>