<svg xmlns="http://www.w3.org/2000/svg" viewBox="0 0 576 512"><!-- Font Awesome Pro 6.0.0-alpha1 by @fontawesome - https://fontawesome.com License - https://fontawesome.com/license (Commercial License) --><path d="M344 224H488C492 224 496 220 496 216S492 208 488 208H344C340 208 336 212 336 216S340 224 344 224ZM344 288H488C492 288 496 284 496 280S492 272 488 272H344C340 272 336 276 336 280S340 288 344 288ZM344 352H488C492 352 496 348 496 344S492 336 488 336H344C340 336 336 340 336 344S340 352 344 352ZM176 320C211 320 240 291 240 256S211 192 176 192S112 221 112 256S141 320 176 320ZM176 208C202 208 224 230 224 256S202 304 176 304S128 282 128 256S150 208 176 208ZM528 32H48C22 32 0 54 0 80V432C0 458 22 480 48 480H528C554 480 576 458 576 432V80C576 54 554 32 528 32ZM560 432C560 450 546 464 528 464H48C30 464 16 450 16 432V144H560V432ZM560 128H16V80C16 62 30 48 48 48H528C546 48 560 62 560 80V128ZM72 424C76 425 81 422 82 418C88 388 114 368 144 368H208C238 368 264 388 270 418C271 421 275 424 278 424C279 424 279 424 280 424C284 423 287 419 286 414C278 378 246 352 208 352H144C106 352 74 378 66 414C65 419 68 423 72 424Z"/></svg>