<svg xmlns="http://www.w3.org/2000/svg" viewBox="0 0 576 512"><!-- Font Awesome Pro 6.0.0-alpha1 by @fontawesome - https://fontawesome.com License - https://fontawesome.com/license (Commercial License) --><path d="M288 32C129 32 0 161 0 320V416C0 451 29 480 64 480H512C547 480 576 451 576 416V320C576 161 447 32 288 32ZM518 176H336V53C413 66 478 112 518 176ZM448 336H389C371 298 333 272 288 272S205 298 187 336H128V192H448V336ZM288 288C341 288 384 331 384 384V464H192V384C192 331 235 288 288 288ZM288 48C299 48 309 49 320 50V176H58C106 99 191 48 288 48ZM16 320C16 274 28 230 48 192H112V336H16V320ZM16 416V352H181C178 362 176 373 176 384V464H64C38 464 16 442 16 416ZM560 416C560 442 538 464 512 464H400V384C400 373 398 362 395 352H560V416ZM464 336V192H528C548 230 560 274 560 320V336H464Z"/></svg>