<svg xmlns="http://www.w3.org/2000/svg" viewBox="0 0 448 512"><!-- Font Awesome Pro 6.0.0-alpha1 by @fontawesome - https://fontawesome.com License - https://fontawesome.com/license (Commercial License) --><path d="M400 32H48C22 32 0 54 0 80V432C0 458 22 480 48 480H400C426 480 448 458 448 432V80C448 54 426 32 400 32ZM432 432C432 450 418 464 400 464H48C30 464 16 450 16 432V352H432V432ZM141 336H35L125 241C127 240 129 240 131 241L181 294L141 336ZM282 210C285 207 291 207 294 210L413 336H163L282 210ZM432 332L305 199C296 190 280 190 271 199L192 282L143 230C135 222 121 222 113 230L16 332V80C16 62 30 48 48 48H400C418 48 432 62 432 80V332ZM112 104C90 104 72 122 72 144S90 184 112 184S152 166 152 144S134 104 112 104ZM112 168C99 168 88 157 88 144S99 120 112 120S136 131 136 144S125 168 112 168Z"/></svg>