<svg xmlns="http://www.w3.org/2000/svg" viewBox="0 0 448 512"><!-- Font Awesome Pro 6.0.0-alpha1 by @fontawesome - https://fontawesome.com License - https://fontawesome.com/license (Commercial License) --><path d="M400 32H48C22 32 0 54 0 80V432C0 458 22 480 48 480H400C426 480 448 458 448 432V80C448 54 426 32 400 32ZM432 432C432 450 418 464 400 464H48C30 464 16 450 16 432V352H432V432ZM131 336C138 309 162 288 192 288H256C286 288 310 309 317 336H131ZM432 336H334C326 300 295 272 256 272H192C153 272 122 300 114 336H16V80C16 62 30 48 48 48H400C418 48 432 62 432 80V336ZM224 112C189 112 160 141 160 176S189 240 224 240C259 240 288 211 288 176S259 112 224 112ZM224 224C198 224 176 202 176 176S198 128 224 128S272 150 272 176S250 224 224 224Z"/></svg>