<svg xmlns="http://www.w3.org/2000/svg" viewBox="0 0 576 512"><!-- Font Awesome Pro 6.0.0-alpha1 by @fontawesome - https://fontawesome.com License - https://fontawesome.com/license (Commercial License) --><path d="M472 416C468 416 464 420 464 424C464 446 446 464 424 464H72C41 464 16 439 16 408V152C16 130 34 112 56 112C60 112 64 108 64 104S60 96 56 96C25 96 0 121 0 152V408C0 448 32 480 72 480H424C455 480 480 455 480 424C480 420 476 416 472 416ZM528 32H144C118 32 96 54 96 80V336C96 362 118 384 144 384H528C554 384 576 362 576 336V80C576 54 554 32 528 32ZM560 336C560 354 546 368 528 368H144C126 368 112 354 112 336V80C112 62 126 48 144 48H528C546 48 560 62 560 80V336ZM336 224C371 224 400 195 400 160S371 96 336 96C301 96 272 125 272 160S301 224 336 224ZM336 112C362 112 384 134 384 160S362 208 336 208S288 186 288 160S310 112 336 112ZM368 256H304C269 256 240 278 229 309C227 315 231 320 236 320C240 320 243 318 244 315C253 290 276 272 304 272H368C396 272 419 290 428 315C429 318 432 320 436 320C441 320 445 315 443 309C432 278 403 256 368 256Z"/></svg>