<svg xmlns="http://www.w3.org/2000/svg" viewBox="0 0 512 512"><!-- Font Awesome Pro 6.0.0-alpha1 by @fontawesome - https://fontawesome.com License - https://fontawesome.com/license (Commercial License) --><path d="M250 286C253 289 259 289 262 286L384 163C386 161 387 159 387 157S386 153 384 152C381 148 376 148 373 152L264 261V8C264 4 260 0 256 0S248 4 248 8V261L139 152C136 148 131 148 127 152S124 160 127 163L250 286ZM472 320H352C349 320 346 322 345 324L315 384H197L167 324C166 322 163 320 160 320H40C18 320 0 338 0 360V472C0 494 18 512 40 512H472C494 512 512 494 512 472V360C512 338 494 320 472 320ZM496 472C496 485 485 496 472 496H40C27 496 16 485 16 472V360C16 347 27 336 40 336H155L185 396C186 398 189 400 192 400H320C323 400 326 398 327 396L357 336H472C485 336 496 347 496 360V472Z"/></svg>