<svg xmlns="http://www.w3.org/2000/svg" viewBox="0 0 512 512"><!-- Font Awesome Pro 6.0.0-alpha1 by @fontawesome - https://fontawesome.com License - https://fontawesome.com/license (Commercial License) --><path d="M508 305L447 56C443 42 431 32 416 32H96C81 32 69 42 65 56L4 305C1 315 0 325 0 336V432C0 458 22 480 48 480H464C490 480 512 458 512 432V336C512 325 511 315 508 305ZM496 432C496 450 482 464 464 464H48C30 464 16 450 16 432V336C16 326 17 318 19 309L81 60C82 53 89 48 96 48H416C423 48 430 53 431 60L493 309C495 318 496 326 496 336V432ZM439 304H384C381 304 378 306 377 308L347 368H165L135 308C134 306 131 304 128 304H73C69 304 65 308 65 312S69 320 73 320H123L153 380C154 382 157 384 160 384H352C355 384 358 382 359 380L389 320H439C443 320 447 316 447 312S443 304 439 304Z"/></svg>