<svg xmlns="http://www.w3.org/2000/svg" viewBox="0 0 448 512"><!-- Font Awesome Pro 6.0.0-alpha1 by @fontawesome - https://fontawesome.com License - https://fontawesome.com/license (Commercial License) --><path d="M8 72H440C444 72 448 68 448 64S444 56 440 56H8C4 56 0 60 0 64S4 72 8 72ZM440 312H200C196 312 192 316 192 320S196 328 200 328H440C444 328 448 324 448 320S444 312 440 312ZM440 184H200C196 184 192 188 192 192S196 200 200 200H440C444 200 448 196 448 192S444 184 440 184ZM13 350C15 351 19 352 22 352C27 352 32 350 36 347L120 273C125 269 128 263 128 256S125 243 120 239L36 165C30 160 20 158 13 162C5 166 0 174 0 183V329C0 338 5 346 13 350ZM16 183C16 180 17 178 19 177C22 175 25 176 26 177L110 251C111 252 112 254 112 256S111 260 110 261L26 335C23 337 21 336 20 335C17 334 16 332 16 329V183ZM440 440H8C4 440 0 444 0 448S4 456 8 456H440C444 456 448 452 448 448S444 440 440 440Z"/></svg>