<svg xmlns="http://www.w3.org/2000/svg" viewBox="0 0 320 512"><!-- Font Awesome Pro 6.0.0-alpha1 by @fontawesome - https://fontawesome.com License - https://fontawesome.com/license (Commercial License) --><path d="M320 176C320 180 316 184 312 184H255C251 258 191 318 116 320L270 466C273 469 273 474 270 478C268 479 266 480 264 480C262 480 260 479 258 478L93 320H8C4 320 0 316 0 312S4 304 8 304H112C180 304 235 251 239 184H8C4 184 0 180 0 176S4 168 8 168H239C235 101 180 48 112 48H8C4 48 0 44 0 40S4 32 8 32H312C316 32 320 36 320 40S316 48 312 48H177C221 71 252 115 255 168H312C316 168 320 172 320 176Z"/></svg>