<svg xmlns="http://www.w3.org/2000/svg" viewBox="0 0 640 512"><!-- Font Awesome Pro 6.0.0-alpha1 by @fontawesome - https://fontawesome.com License - https://fontawesome.com/license (Commercial License) --><path d="M482 120C411 120 349 198 320 241C287 192 227 120 158 120C84 120 24 181 24 256S84 392 158 392C229 392 291 314 320 271C353 320 413 392 482 392C556 392 616 331 616 256S556 120 482 120ZM158 376C93 376 40 322 40 256S93 136 158 136C224 136 285 217 310 256C285 295 224 376 158 376ZM482 376C416 376 355 295 330 256C355 217 416 136 482 136C547 136 600 190 600 256S547 376 482 376Z"/></svg>