<svg xmlns="http://www.w3.org/2000/svg" viewBox="0 0 256 512"><!-- Font Awesome Pro 6.0.0-alpha1 by @fontawesome - https://fontawesome.com License - https://fontawesome.com/license (Commercial License) --><path d="M216 464H136V200C136 196 132 192 128 192H72C68 192 64 196 64 200S68 208 72 208H120V464H40C36 464 32 468 32 472S36 480 40 480H216C220 480 224 476 224 472S220 464 216 464ZM112 128C138 128 160 106 160 80S138 32 112 32S64 54 64 80S86 128 112 128ZM112 48C130 48 144 62 144 80S130 112 112 112S80 98 80 80S94 48 112 48Z"/></svg>