<svg xmlns="http://www.w3.org/2000/svg" viewBox="0 0 576 512"><!-- Font Awesome Pro 6.0.0-alpha1 by @fontawesome - https://fontawesome.com License - https://fontawesome.com/license (Commercial License) --><path d="M372 116C368 113 364 111 360 111C354 111 347 116 345 123L320 224H240C213 224 192 246 192 272V432C192 458 213 480 240 480H438C466 480 490 462 499 436L542 307C546 295 543 283 534 274L372 116ZM527 302L484 431C477 451 459 464 438 464H240C222 464 208 450 208 432V272C208 254 222 240 240 240H332L335 228L360 127C360 127 360 127 360 127L361 127L523 285C527 290 529 296 527 302ZM572 66C569 61 564 58 557 57L431 32C418 30 407 38 404 50L395 95C394 100 397 104 401 105C405 106 409 103 410 99L420 54C421 50 424 48 428 48L554 72C556 73 558 74 559 75C560 77 560 79 560 81L530 214C529 219 532 223 536 224C537 224 537 224 538 224C542 224 545 221 546 218L575 84C577 78 576 72 572 66ZM32 224C14 224 0 238 0 256S14 288 32 288C50 288 64 274 64 256S50 224 32 224ZM32 272C23 272 16 265 16 256C16 247 23 240 32 240S48 247 48 256C48 265 41 272 32 272ZM128 272C110 272 96 286 96 304C96 322 110 336 128 336C146 336 160 322 160 304C160 286 146 272 128 272ZM128 320C119 320 112 313 112 304C112 295 119 288 128 288S144 295 144 304C144 313 137 320 128 320ZM32 320C14 320 0 334 0 352C0 370 14 384 32 384C50 384 64 370 64 352C64 334 50 320 32 320ZM32 368C23 368 16 361 16 352C16 343 23 336 32 336S48 343 48 352C48 361 41 368 32 368ZM32 416C14 416 0 430 0 448C0 466 14 480 32 480C50 480 64 466 64 448C64 430 50 416 32 416ZM32 464C23 464 16 457 16 448C16 439 23 432 32 432S48 439 48 448C48 457 41 464 32 464ZM128 368C110 368 96 382 96 400C96 418 110 432 128 432C146 432 160 418 160 400C160 382 146 368 128 368ZM128 416C119 416 112 409 112 400S119 384 128 384S144 391 144 400S137 416 128 416Z"/></svg>