<svg xmlns="http://www.w3.org/2000/svg" viewBox="0 0 640 512"><!-- Font Awesome Pro 6.0.0-alpha1 by @fontawesome - https://fontawesome.com License - https://fontawesome.com/license (Commercial License) --><path d="M576 64H64C29 64 0 93 0 128V384C0 419 29 448 64 448H576C611 448 640 419 640 384V128C640 93 611 64 576 64ZM624 384C624 410 602 432 576 432H64C38 432 16 410 16 384V128C16 102 38 80 64 80H576C602 80 624 102 624 128V384ZM336 328H258L321 260C337 244 340 221 331 200C323 180 304 168 282 168C264 168 248 179 238 197C236 201 238 206 242 208C246 210 250 209 252 205C259 192 270 184 282 184C297 184 311 193 317 207C322 218 322 235 310 249L234 331C232 333 231 336 233 339C234 342 237 344 240 344H336C340 344 344 340 344 336S340 328 336 328ZM176 328H152V176C152 172 148 168 144 168H112C108 168 104 172 104 176S108 184 112 184H136V328H112C108 328 104 332 104 336S108 344 112 344H176C180 344 184 340 184 336S180 328 176 328Z"/></svg>