<svg xmlns="http://www.w3.org/2000/svg" viewBox="0 0 448 512"><!-- Font Awesome Pro 6.0.0-alpha1 by @fontawesome - https://fontawesome.com License - https://fontawesome.com/license (Commercial License) --><path d="M329 32C303 32 277 39 256 53C235 21 195 0 152 0C92 0 42 37 33 89C32 95 34 101 37 105C41 109 47 112 53 112H121C92 153 88 205 114 242C117 247 123 250 129 250C129 250 130 250 130 250C136 250 141 248 145 244L216 173C218 240 207 306 197 350C197 351 197 351 197 352H136C69 352 10 402 0 469C-1 480 2 491 9 499C16 507 26 512 37 512H347C358 512 368 507 375 499C382 491 385 480 384 469C377 421 344 382 301 364C310 280 296 194 285 144H427C434 144 439 141 443 137C447 133 449 127 448 120C439 69 389 32 329 32ZM368 472C369 478 367 484 363 489C359 493 353 496 347 496H37C31 496 25 493 21 489C17 484 15 478 16 472C25 413 77 368 136 368H248C307 368 359 413 368 472ZM286 358C274 354 261 352 248 352H213C224 304 235 232 232 160C232 159 231 159 231 158L245 144H268C279 192 294 276 286 358ZM431 127C430 127 429 128 427 128H384V104C384 100 381 96 376 96S368 100 368 104V128H238L189 177L174 162C171 159 166 159 163 162S160 171 163 174L178 189L133 233C132 234 131 234 130 234C129 234 127 234 127 233C102 198 110 146 144 109L157 96H112V72C112 68 109 64 104 64C100 64 96 68 96 72V96H53C52 96 50 95 49 95C49 94 48 92 48 91C56 48 100 16 152 16C193 16 230 36 247 68L251 76L259 71C278 56 303 48 329 48C380 48 425 80 432 123C432 124 432 126 431 127Z"/></svg>