<svg xmlns="http://www.w3.org/2000/svg" viewBox="0 0 576 512"><!-- Font Awesome Pro 6.0.0-alpha1 by @fontawesome - https://fontawesome.com License - https://fontawesome.com/license (Commercial License) --><path d="M428 323C386 348 338 361 288 361H280V382C280 386 277 388 273 388H259C255 388 252 386 252 382V359L246 358C211 352 178 341 148 323C140 318 130 319 122 325C115 331 112 341 115 350C120 363 126 375 134 386C142 397 153 408 167 417L180 425L180 411C180 407 183 404 186 404H201C204 404 207 407 207 411V436L213 438C235 445 261 448 288 448S341 445 363 438L369 436V411C369 407 372 404 375 404H390C393 404 396 407 396 411L397 425L409 417C423 408 434 397 443 385C450 375 456 363 461 350C464 341 461 331 454 325C446 319 436 318 428 323ZM446 344C441 356 436 367 430 376C424 384 417 391 408 398C404 392 397 388 390 388H375C363 388 353 398 353 411V424C314 434 262 434 223 424V411C223 398 213 388 201 388H186C179 388 172 392 168 398C159 391 152 384 147 376C142 370 136 360 130 344C129 341 131 338 132 338C133 337 136 335 140 337C169 354 202 366 236 372V382C236 394 247 404 259 404H274C286 404 296 394 296 382V377C346 375 394 362 436 337C440 335 443 337 444 338C445 338 447 341 446 344L446 344ZM248 104C251 104 254 102 255 99L289 21C290 19 291 17 294 16C296 16 298 16 300 17L340 37C342 38 344 41 344 44V96C344 100 348 104 352 104S360 100 360 96V44C360 35 355 26 347 22L307 3C301 0 294 -1 288 2C282 4 277 9 274 15L241 93C239 97 241 102 245 103C246 104 247 104 248 104ZM495 154C465 128 424 123 389 140C389 141 389 141 388 142C360 127 326 120 288 120S216 127 188 142C187 141 187 141 187 140C152 123 111 128 81 154C29 198 0 257 0 320C0 383 29 442 81 486C120 519 181 521 223 491C241 505 263 512 288 512C313 512 335 505 354 491C373 505 397 512 421 512C447 512 474 503 495 486C547 442 576 383 576 320C576 257 547 198 495 154ZM484 474C450 503 394 503 358 475C355 472 351 472 348 475C332 489 312 496 288 496C264 496 244 489 228 475C225 473 221 472 218 475C182 503 126 503 92 474C43 433 16 378 16 320S43 207 92 166C114 147 143 142 170 152C159 159 148 168 138 178C135 182 135 187 139 190C142 193 147 193 150 189C183 154 230 136 288 136S393 154 426 189C428 191 430 192 432 192C434 192 436 191 437 190C441 187 441 182 438 179C428 168 417 159 406 152C433 142 462 147 484 166C533 207 560 262 560 320S533 433 484 474ZM168 296H242C247 296 251 294 254 290C256 286 257 280 254 275L217 214C213 210 208 208 203 208C199 208 195 211 193 215L156 275L156 275C153 279 153 285 156 289C158 294 163 296 168 296ZM205 226L239 280H171L205 226ZM331 296H405C410 296 414 294 417 290C420 286 420 280 417 275L380 214C377 210 372 208 366 208C362 208 358 211 356 215L319 275L319 275C316 279 316 285 319 289C321 294 326 296 331 296ZM368 226L402 280H334L368 226Z"/></svg>