<svg xmlns="http://www.w3.org/2000/svg" viewBox="0 0 576 512"><!-- Font Awesome Pro 6.0.0-alpha1 by @fontawesome - https://fontawesome.com License - https://fontawesome.com/license (Commercial License) --><path d="M445 21C441 18 437 16 432 16C424 16 416 20 412 27C407 33 406 42 409 49C415 64 418 80 418 96C418 137 399 174 366 199C360 204 356 210 356 218S358 232 364 237C388 258 401 288 401 320C401 347 381 425 296 430V355L338 398C340 399 342 400 344 400S348 399 350 398C353 394 353 389 350 386L307 344H368C372 344 376 340 376 336S372 328 368 328H307L350 286C353 282 353 277 350 274S341 271 338 274L296 317V8C296 4 292 0 288 0S280 4 280 8V317L238 274C235 271 229 271 226 274S223 283 226 286L269 328H208C204 328 200 332 200 336S204 344 208 344H269L226 386C223 389 223 395 226 398C228 399 230 400 232 400S236 399 238 398L280 355V430C195 425 175 347 175 320C175 288 188 258 212 237C218 232 221 225 220 218S216 204 210 199C177 174 158 137 158 96C158 80 161 64 167 49C170 42 169 33 164 27C160 20 152 16 144 16C139 16 135 18 131 21C55 74 12 161 16 254C23 395 142 512 288 512C434 512 553 395 560 254C564 161 521 74 445 21ZM288 496C153 496 38 387 32 253C32 247 32 242 33 236L90 294C92 295 94 296 96 296S100 295 102 294C105 291 105 285 102 282L34 214C36 194 40 174 47 155L122 230C124 231 126 232 128 232S132 231 134 230C137 227 137 221 134 218L54 139C72 97 101 61 140 34C141 33 142 32 144 32C147 32 150 33 151 35C152 38 153 41 152 43C145 60 142 78 142 96C142 142 163 184 201 212C203 214 204 216 204 218C204 221 203 223 202 225C174 249 159 284 159 320C159 361 190 446 288 446C386 446 417 361 417 320C417 284 402 249 375 225C373 223 372 221 372 218C372 216 373 214 375 212C413 184 434 142 434 96C434 78 431 60 424 43C423 41 424 38 425 36C426 33 429 32 432 32C434 32 435 33 436 34C475 61 504 97 522 139L442 218C439 222 439 227 442 230C444 231 446 232 448 232S452 231 454 230L529 155C536 174 540 194 542 214L474 282C471 286 471 291 474 294C476 295 478 296 480 296S484 295 486 294L543 236C544 242 544 247 544 253C538 387 423 496 288 496Z"/></svg>