<svg xmlns="http://www.w3.org/2000/svg" viewBox="0 0 640 512"><!-- Font Awesome Pro 6.0.0-alpha1 by @fontawesome - https://fontawesome.com License - https://fontawesome.com/license (Commercial License) --><path d="M608 352H255C166 352 78 375 0 418C-11 424 -11 440 0 446C78 489 166 512 255 512H608C621 512 632 501 632 488V376C632 363 621 352 608 352ZM255 496C169 496 83 474 8 432C82 391 166 369 251 368L353 496H255ZM373 496L271 368H410L513 496H373ZM616 488C616 492 612 496 608 496H533L431 368H608C612 368 616 372 616 376V488ZM452 151C494 179 520 227 520 281C520 285 524 288 528 288S536 283 536 279C536 222 508 169 460 137C418 109 392 61 392 9V7C392 3 388 0 384 0S376 5 376 9C376 66 404 119 452 151ZM548 151C590 179 616 227 616 281C616 285 620 288 624 288S632 283 632 279C632 222 604 169 556 137C514 109 488 61 488 9V7C488 3 484 0 480 0S472 5 472 9C472 66 500 119 548 151Z"/></svg>