<svg xmlns="http://www.w3.org/2000/svg" viewBox="0 0 576 512"><!-- Font Awesome Pro 6.0.0-alpha1 by @fontawesome - https://fontawesome.com License - https://fontawesome.com/license (Commercial License) --><path d="M554 83L318 5C309 2 298 0 288 0S267 2 258 5L22 83C9 88 0 100 0 114V425C0 440 10 453 25 456L267 510C274 511 281 512 288 512S302 511 309 510L551 456C566 453 576 440 576 425V114C576 100 567 88 554 83ZM560 425C560 432 555 439 548 440L305 494C300 495 294 496 288 496S276 495 271 494L28 440C21 439 16 432 16 425V182L267 107C281 103 295 103 309 107L560 182V425ZM560 166L313 92C297 87 279 87 263 92L16 166V114C16 107 20 101 27 99L263 20C271 17 279 16 288 16S305 17 313 20L549 99C556 101 560 107 560 114V166ZM116 217L46 236C42 237 39 242 40 246C41 249 44 252 48 252C49 252 49 252 50 251L120 232C124 231 127 227 126 223S120 216 116 217ZM260 178L164 204C159 205 157 210 158 214C159 217 162 220 166 220C167 220 167 220 168 219L264 193C268 192 271 188 270 183C268 179 264 177 260 178ZM456 232L526 252C527 252 527 252 528 252C532 252 535 249 536 246C537 242 534 237 530 236L460 217C456 216 452 218 450 223S452 231 456 232ZM312 193L408 219C409 220 409 220 410 220C414 220 417 217 418 214C419 210 416 205 412 204L316 178C312 177 308 179 306 183C305 188 308 192 312 193Z"/></svg>