<svg xmlns="http://www.w3.org/2000/svg" viewBox="0 0 640 512"><!-- Font Awesome Pro 6.0.0-alpha1 by @fontawesome - https://fontawesome.com License - https://fontawesome.com/license (Commercial License) --><path d="M344 288H360C373 288 384 277 384 264V248C384 235 373 224 360 224H344C331 224 320 235 320 248V264C320 277 331 288 344 288ZM336 248C336 244 340 240 344 240H360C364 240 368 244 368 248V264C368 268 364 272 360 272H344C340 272 336 268 336 264V248ZM264 320H248C235 320 224 331 224 344V360C224 373 235 384 248 384H264C277 384 288 373 288 360V344C288 331 277 320 264 320ZM272 360C272 364 268 368 264 368H248C244 368 240 364 240 360V344C240 340 244 336 248 336H264C268 336 272 340 272 344V360ZM344 192H360C373 192 384 181 384 168V152C384 139 373 128 360 128H344C331 128 320 139 320 152V168C320 181 331 192 344 192ZM336 152C336 148 340 144 344 144H360C364 144 368 148 368 152V168C368 172 364 176 360 176H344C340 176 336 172 336 168V152ZM456 224H440C427 224 416 235 416 248V264C416 277 427 288 440 288H456C469 288 480 277 480 264V248C480 235 469 224 456 224ZM464 264C464 268 460 272 456 272H440C436 272 432 268 432 264V248C432 244 436 240 440 240H456C460 240 464 244 464 248V264ZM552 320H536C523 320 512 331 512 344V360C512 373 523 384 536 384H552C565 384 576 373 576 360V344C576 331 565 320 552 320ZM560 360C560 364 556 368 552 368H536C532 368 528 364 528 360V344C528 340 532 336 536 336H552C556 336 560 340 560 344V360ZM552 224H536C523 224 512 235 512 248V264C512 277 523 288 536 288H552C565 288 576 277 576 264V248C576 235 565 224 552 224ZM560 264C560 268 556 272 552 272H536C532 272 528 268 528 264V248C528 244 532 240 536 240H552C556 240 560 244 560 248V264ZM552 128H536C523 128 512 139 512 152V168C512 181 523 192 536 192H552C565 192 576 181 576 168V152C576 139 565 128 552 128ZM560 168C560 172 556 176 552 176H536C532 176 528 172 528 168V152C528 148 532 144 536 144H552C556 144 560 148 560 152V168ZM576 64H224C189 64 160 93 160 128V384C160 419 189 448 224 448H576C611 448 640 419 640 384V128C640 93 611 64 576 64ZM624 384C624 410 602 432 576 432H224C198 432 176 410 176 384V128C176 102 198 80 224 80H576C602 80 624 102 624 128V384ZM264 128H248C235 128 224 139 224 152V168C224 181 235 192 248 192H264C277 192 288 181 288 168V152C288 139 277 128 264 128ZM272 168C272 172 268 176 264 176H248C244 176 240 172 240 168V152C240 148 244 144 248 144H264C268 144 272 148 272 152V168ZM264 224H248C235 224 224 235 224 248V264C224 277 235 288 248 288H264C277 288 288 277 288 264V248C288 235 277 224 264 224ZM272 264C272 268 268 272 264 272H248C244 272 240 268 240 264V248C240 244 244 240 248 240H264C268 240 272 244 272 248V264ZM456 320H344C331 320 320 331 320 344V360C320 373 331 384 344 384H456C469 384 480 373 480 360V344C480 331 469 320 456 320ZM464 360C464 364 460 368 456 368H344C340 368 336 364 336 360V344C336 340 340 336 344 336H456C460 336 464 340 464 344V360ZM456 128H440C427 128 416 139 416 152V168C416 181 427 192 440 192H456C469 192 480 181 480 168V152C480 139 469 128 456 128ZM464 168C464 172 460 176 456 176H440C436 176 432 172 432 168V152C432 148 436 144 440 144H456C460 144 464 148 464 152V168ZM116 155C114 154 111 154 109 154C104 154 99 155 96 159L6 242C-2 250 -2 262 6 270L96 353C99 357 104 358 109 358C111 358 114 358 116 357C123 354 128 347 128 339V173C128 165 123 158 116 155ZM112 339C112 340 111 342 109 342C108 342 107 342 107 342L17 258C16 258 16 257 16 256S16 254 17 254L107 170C107 170 108 170 109 170L110 170C111 170 112 172 112 173V339Z"/></svg>