<svg xmlns="http://www.w3.org/2000/svg" viewBox="0 0 576 512"><!-- Font Awesome Pro 6.0.0-alpha1 by @fontawesome - https://fontawesome.com License - https://fontawesome.com/license (Commercial License) --><path d="M280 128H296C309 128 320 117 320 104V88C320 75 309 64 296 64H280C267 64 256 75 256 88V104C256 117 267 128 280 128ZM272 88C272 84 276 80 280 80H296C300 80 304 84 304 88V104C304 108 300 112 296 112H280C276 112 272 108 272 104V88ZM512 0H64C29 0 0 29 0 64V224C0 259 29 288 64 288H512C547 288 576 259 576 224V64C576 29 547 0 512 0ZM560 224C560 250 538 272 512 272H64C38 272 16 250 16 224V64C16 38 38 16 64 16H512C538 16 560 38 560 64V224ZM488 160H472C459 160 448 171 448 184V200C448 213 459 224 472 224H488C501 224 512 213 512 200V184C512 171 501 160 488 160ZM496 200C496 204 492 208 488 208H472C468 208 464 204 464 200V184C464 180 468 176 472 176H488C492 176 496 180 496 184V200ZM392 160H184C171 160 160 171 160 184V200C160 213 171 224 184 224H392C405 224 416 213 416 200V184C416 171 405 160 392 160ZM400 200C400 204 396 208 392 208H184C180 208 176 204 176 200V184C176 180 180 176 184 176H392C396 176 400 180 400 184V200ZM104 160H88C75 160 64 171 64 184V200C64 213 75 224 88 224H104C117 224 128 213 128 200V184C128 171 117 160 104 160ZM112 200C112 204 108 208 104 208H88C84 208 80 204 80 200V184C80 180 84 176 88 176H104C108 176 112 180 112 184V200ZM392 64H376C363 64 352 75 352 88V104C352 117 363 128 376 128H392C405 128 416 117 416 104V88C416 75 405 64 392 64ZM400 104C400 108 396 112 392 112H376C372 112 368 108 368 104V88C368 84 372 80 376 80H392C396 80 400 84 400 88V104ZM184 128H200C213 128 224 117 224 104V88C224 75 213 64 200 64H184C171 64 160 75 160 88V104C160 117 171 128 184 128ZM176 88C176 84 180 80 184 80H200C204 80 208 84 208 88V104C208 108 204 112 200 112H184C180 112 176 108 176 104V88ZM104 64H88C75 64 64 75 64 88V104C64 117 75 128 88 128H104C117 128 128 117 128 104V88C128 75 117 64 104 64ZM112 104C112 108 108 112 104 112H88C84 112 80 108 80 104V88C80 84 84 80 88 80H104C108 80 112 84 112 88V104ZM488 64H472C459 64 448 75 448 88V104C448 117 459 128 472 128H488C501 128 512 117 512 104V88C512 75 501 64 488 64ZM496 104C496 108 492 112 488 112H472C468 112 464 108 464 104V88C464 84 468 80 472 80H488C492 80 496 84 496 88V104ZM392 352H184C174 352 166 358 162 366C158 375 160 385 166 392L270 504C275 509 282 512 288 512S301 509 306 504L410 392C416 385 418 375 414 366C410 358 402 352 392 352ZM398 381L294 493C292 496 289 496 288 496S284 496 282 493L178 381C176 379 175 376 177 373C178 370 181 368 184 368H392C395 368 398 370 399 373C401 376 400 379 398 381Z"/></svg>