<svg xmlns="http://www.w3.org/2000/svg" viewBox="0 0 512 512"><!-- Font Awesome Pro 6.0.0-alpha1 by @fontawesome - https://fontawesome.com License - https://fontawesome.com/license (Commercial License) --><path d="M179 248C183 251 188 250 190 247C193 243 192 238 189 235C171 221 160 199 160 176S171 131 189 117C192 114 193 109 190 105C188 102 183 101 179 104C157 121 144 148 144 176S157 231 179 248ZM323 235C320 238 319 243 322 247C324 250 329 251 333 248C355 231 368 204 368 176S355 121 333 104C329 101 324 102 322 105C319 109 320 114 323 117C341 131 352 153 352 176S341 221 323 235ZM416 66C410 63 402 63 396 69C391 74 391 82 394 89C411 115 420 145 420 176C419 229 393 279 348 309L264 366V348C265 347 314 307 314 307C318 304 323 294 318 286C312 275 303 254 286 217C277 192 277 166 286 140C289 135 303 105 319 70C322 64 320 57 315 52L267 4C264 1 260 0 256 0C256 0 256 0 256 0S256 0 256 0C252 0 248 1 245 4L197 52C192 57 191 64 193 70C209 105 223 135 226 140C235 166 235 192 226 217C209 254 200 275 194 286C190 294 194 304 198 307C198 307 247 347 248 348V366L164 309C119 279 93 229 92 176C92 145 101 115 118 89C121 82 121 74 116 69C110 63 102 63 96 66C21 107 -15 191 6 274C13 300 27 325 47 349L100 410C103 414 108 416 112 416C115 416 117 415 120 414L207 367C210 366 212 364 213 362L242 381L172 428C168 426 165 424 160 424C147 424 136 435 136 448S147 472 160 472S184 461 184 448C184 445 183 443 182 440L248 396V450C234 453 224 465 224 480C224 498 238 512 256 512S288 498 288 480C288 465 278 453 264 450V396L330 440C329 443 328 445 328 448C328 461 339 472 352 472S376 461 376 448S365 424 352 424C348 424 344 426 340 428L270 381L299 362C301 364 302 366 305 367L392 414C395 415 397 416 400 416C404 416 409 414 412 410L465 349C485 325 499 300 506 274C527 191 491 107 416 66ZM112 400L59 339C40 317 28 293 22 270C2 194 35 118 104 80C86 109 76 142 76 176C77 235 106 289 155 322L200 353L112 400ZM160 456C156 456 152 452 152 448S156 440 160 440C164 440 168 444 168 448S164 456 160 456ZM272 480C272 489 265 496 256 496S240 489 240 480S247 464 256 464S272 471 272 480ZM256 334L256 334L256 334L208 294C214 283 224 262 241 222C251 195 251 164 241 135C240 134 225 102 208 64L256 16L256 16L256 16L304 64C287 102 272 134 271 135C261 164 261 195 271 222C288 262 298 283 304 294L256 334ZM352 440C356 440 360 444 360 448S356 456 352 456C348 456 344 452 344 448S348 440 352 440ZM490 270C484 293 472 317 453 339L400 400L312 353L357 322C406 289 435 235 436 176C436 142 426 109 408 80C477 118 510 194 490 270Z"/></svg>