<svg xmlns="http://www.w3.org/2000/svg" viewBox="0 0 640 512"><!-- Font Awesome Pro 6.0.0-alpha1 by @fontawesome - https://fontawesome.com License - https://fontawesome.com/license (Commercial License) --><path d="M528 24C510 8 487 0 464 0C438 0 411 11 392 32C357 72 361 132 400 168C413 179 421 191 426 202L384 230C364 244 352 266 352 290V504C352 508 356 512 360 512S368 508 368 504V290C368 271 377 254 393 244L431 219C435 242 426 260 426 261C409 322 454 384 518 384C560 384 598 357 610 314C616 295 625 266 624 224C622 150 588 78 528 24ZM596 308L595 310C585 344 554 368 518 368C493 368 470 356 454 336C439 316 434 290 441 266C457 228 445 186 411 156C395 142 385 122 384 101C383 79 390 59 404 43C419 26 441 16 464 16C484 16 503 23 517 36C574 86 606 153 608 224C609 263 601 289 596 308ZM256 230L214 202C219 191 227 179 240 168C279 132 283 72 248 32C229 11 202 0 176 0C153 0 130 8 112 24C52 78 18 150 16 224C15 266 24 295 29 314C41 356 79 384 121 384C186 384 231 322 214 262C213 260 205 242 209 219L247 244C263 254 272 271 272 290V504C272 508 276 512 280 512S288 508 288 504V290C288 266 276 244 256 230ZM198 266C205 290 200 316 185 336C170 356 147 368 121 368C86 368 54 344 44 310L44 307C38 288 31 262 32 224C34 153 66 87 123 36C137 23 156 16 176 16C199 16 220 26 236 43C265 76 262 126 229 156C195 186 184 227 198 266Z"/></svg>