<svg xmlns="http://www.w3.org/2000/svg" viewBox="0 0 384 512"><!-- Font Awesome Pro 6.0.0-alpha1 by @fontawesome - https://fontawesome.com License - https://fontawesome.com/license (Commercial License) --><path d="M384 256C384 260 380 264 376 264H110L325 442C329 445 329 450 326 453C325 455 322 456 320 456C318 456 316 455 315 454L96 273V472C96 476 92 480 88 480S80 476 80 472V264H8C4 264 0 260 0 256S4 248 8 248H80V40C80 36 84 32 88 32S96 36 96 40V239L315 58C318 55 323 56 326 59C329 62 329 67 325 70L110 248H376C380 248 384 252 384 256Z"/></svg>