<svg xmlns="http://www.w3.org/2000/svg" viewBox="0 0 576 512"><!-- Font Awesome Pro 6.0.0-alpha1 by @fontawesome - https://fontawesome.com License - https://fontawesome.com/license (Commercial License) --><path d="M464 192C446 192 432 206 432 224S446 256 464 256S496 242 496 224S482 192 464 192ZM464 240C455 240 448 233 448 224S455 208 464 208S480 215 480 224S473 240 464 240ZM576 216H575C571 156 518 112 458 112H448C395 112 344 96 300 66C270 44 232 32 192 32C177 32 162 34 147 37C129 41 0 78 0 224C0 330 68 378 112 398V472C112 476 116 480 120 480S128 476 128 472V405C137 408 144 410 147 411C162 414 177 416 192 416C203 416 214 415 224 413V472C224 476 228 480 232 480S240 476 240 472V409C262 404 282 395 300 382C344 352 395 336 448 336H458C465 336 472 335 479 334L561 476C563 479 565 480 568 480C569 480 569 480 570 480C574 479 576 476 576 472L576 216ZM458 320H448C392 320 338 337 291 369C262 389 228 400 192 400C178 400 164 398 151 395C148 395 139 392 128 388V328C128 324 124 320 120 320S112 324 112 328V381C72 361 16 317 16 224C16 87 137 56 151 53C164 50 178 48 192 48C228 48 262 59 291 79C338 111 392 128 448 128H458C511 128 557 169 560 219L560 224L560 229C557 279 511 320 458 320ZM495 330C522 321 545 303 560 279L560 442L495 330Z"/></svg>