<svg xmlns="http://www.w3.org/2000/svg" viewBox="0 0 512 512"><!-- Font Awesome Pro 6.0.0-alpha1 by @fontawesome - https://fontawesome.com License - https://fontawesome.com/license (Commercial License) --><path d="M481 16C467 2 444 2 430 16L9 435C4 440 0 448 0 456C0 464 3 472 9 478L40 509C46 514 53 518 61 518H62C70 518 77 514 83 508L259 326H288C419 326 473 262 496 209C527 132 508 43 481 16ZM481 202C461 251 411 310 288 310L256 309C254 309 252 310 250 312L71 497C65 504 56 502 51 498L20 466C15 461 15 452 21 446L442 27C449 20 462 20 469 27C490 48 511 131 481 202Z"/></svg>