<svg xmlns="http://www.w3.org/2000/svg" viewBox="0 0 448 512"><!-- Font Awesome Pro 6.0.0-alpha1 by @fontawesome - https://fontawesome.com License - https://fontawesome.com/license (Commercial License) --><path d="M445 211L368 19C363 8 352 0 340 0H121C109 0 99 7 94 18L3 210C-7 231 8 256 30 256H418C439 256 454 233 445 211ZM429 234C428 236 424 240 418 240H30C24 240 20 236 19 233C15 228 15 222 18 217L108 25C111 19 115 16 121 16H340C346 16 351 20 353 25L431 217C433 223 432 229 429 234ZM280 290C277 294 277 299 280 302C315 336 336 393 336 427C336 450 327 472 310 490C306 494 301 496 294 496H153C147 496 142 494 138 490C121 472 112 450 112 427C112 393 133 336 168 302C171 299 171 294 168 290C165 287 160 287 157 290C122 325 96 383 96 427C96 454 107 481 127 501C133 508 143 512 153 512H294C305 512 314 508 321 501C341 480 352 454 352 427C352 383 326 325 291 290C288 287 283 287 280 290Z"/></svg>