<svg xmlns="http://www.w3.org/2000/svg" viewBox="0 0 512 512"><!-- Font Awesome Pro 6.0.0-alpha1 by @fontawesome - https://fontawesome.com License - https://fontawesome.com/license (Commercial License) --><path d="M504 496H8C4 496 0 500 0 504S4 512 8 512H504C508 512 512 508 512 504S508 496 504 496ZM502 92L267 2C264 1 259 0 256 0C253 0 248 1 245 2L10 92C5 94 0 101 0 107V144C0 153 7 160 16 160H496C505 160 512 153 512 144V107C512 100 508 94 502 92ZM496 144H16L16 107L250 17C252 17 255 16 256 16C257 16 260 17 262 17L496 107V144ZM72 192C68 192 64 196 64 200V376C64 380 68 384 72 384H440C444 384 448 380 448 376V200C448 196 444 192 440 192S432 196 432 200V368H328V200C328 196 324 192 320 192S312 196 312 200V368H200V200C200 196 196 192 192 192S184 196 184 200V368H80V200C80 196 76 192 72 192ZM32 440C32 444 36 448 40 448H472C476 448 480 444 480 440S476 432 472 432H40C36 432 32 436 32 440Z"/></svg>