<svg xmlns="http://www.w3.org/2000/svg" viewBox="0 0 640 512"><!-- Font Awesome Pro 6.0.0-alpha1 by @fontawesome - https://fontawesome.com License - https://fontawesome.com/license (Commercial License) --><path d="M576 64H64C29 64 0 93 0 128V384C0 419 29 448 64 448H576C611 448 640 419 640 384V128C640 93 611 64 576 64ZM312 432H64C38 432 16 410 16 384V128C16 102 38 80 64 80H312V432ZM624 384C624 410 602 432 576 432H328V80H576C602 80 624 102 624 128V384ZM85 351C89 353 94 351 95 347L120 288C120 288 120 288 120 288H200C200 288 200 288 200 288L225 347C226 350 229 352 232 352C233 352 234 352 235 351C239 350 241 345 239 341L167 165C165 159 155 159 153 165L81 341C79 345 81 350 85 351ZM160 189L194 272H126L160 189ZM560 192H488V168C488 164 484 160 480 160S472 164 472 168V192H400C396 192 392 196 392 200S396 208 400 208H527C524 245 498 277 472 299C459 287 447 274 439 260C437 256 432 255 428 257C424 259 423 264 425 268C434 283 446 297 460 309C437 327 418 337 417 337C413 339 412 344 414 348C415 350 418 352 421 352C422 352 423 352 424 351C426 350 448 339 472 320C488 333 505 343 525 351C526 352 527 352 528 352C531 352 534 350 535 347C537 343 535 338 531 337C514 330 499 320 485 310C513 285 540 250 543 208H560C564 208 568 204 568 200S564 192 560 192Z"/></svg>