<svg xmlns="http://www.w3.org/2000/svg" viewBox="0 0 640 512"><!-- Font Awesome Pro 6.0.0-alpha1 by @fontawesome - https://fontawesome.com License - https://fontawesome.com/license (Commercial License) --><path d="M72 352C76 352 80 348 80 344V80C80 62 94 48 112 48H528C546 48 560 62 560 80V344C560 348 564 352 568 352S576 348 576 344V80C576 54 554 32 528 32H112C86 32 64 54 64 80V344C64 348 68 352 72 352ZM624 384H16C7 384 0 391 0 400V416C0 451 29 480 64 480H576C611 480 640 451 640 416V400C640 391 633 384 624 384ZM624 416C624 442 602 464 576 464H64C38 464 16 442 16 416V400H624V416Z"/></svg>