<svg xmlns="http://www.w3.org/2000/svg" viewBox="0 0 576 512"><!-- Font Awesome Pro 6.0.0-alpha1 by @fontawesome - https://fontawesome.com License - https://fontawesome.com/license (Commercial License) --><path d="M288 0C129 0 0 79 0 176C0 245 65 304 159 333C193 345 216 377 216 412C216 458 177 496 130 496H40C36 496 32 500 32 504S36 512 40 512H130C186 512 232 467 232 412C232 386 222 362 205 344C231 349 259 352 288 352C447 352 576 273 576 176S447 0 288 0ZM288 336C138 336 16 264 16 176S138 16 288 16C438 16 560 88 560 176S438 336 288 336Z"/></svg>