<svg xmlns="http://www.w3.org/2000/svg" viewBox="0 0 512 512"><!-- Font Awesome Pro 6.0.0-alpha1 by @fontawesome - https://fontawesome.com License - https://fontawesome.com/license (Commercial License) --><path d="M17 175L243 267C247 269 251 270 256 270C261 270 265 269 270 267L495 175C506 171 512 162 512 151C512 140 506 131 495 127L269 34C261 31 251 31 242 35L17 127C6 131 0 140 0 151C0 162 6 171 17 175ZM23 140L249 48C253 46 259 46 263 48L489 140C493 142 496 146 496 151C496 156 493 160 489 161L263 254C259 255 253 255 249 254L23 161C19 160 16 156 16 151C16 146 19 142 23 140ZM495 216C491 214 486 216 485 220C483 223 485 228 489 229C493 231 496 235 496 240S493 249 489 251L263 343C259 344 253 345 249 343L23 251C19 249 16 245 16 240S19 231 23 229C27 228 29 223 27 220S21 214 17 216C6 220 0 229 0 240S6 260 17 264L243 356C247 358 251 359 256 359C261 359 265 358 270 356L495 264C506 260 512 251 512 240S506 220 495 216ZM495 305C491 303 486 305 485 309C483 313 485 317 489 319C493 320 496 324 496 329S493 338 489 340L263 432C259 434 253 434 249 432L23 340C19 338 16 334 16 329S19 320 23 319C27 317 29 312 27 309S21 303 17 305C6 309 0 318 0 329S6 349 17 353L243 445C247 447 251 448 256 448C261 448 265 447 270 445L495 353C506 349 512 340 512 329S506 309 495 305Z"/></svg>