<svg xmlns="http://www.w3.org/2000/svg" viewBox="0 0 512 512"><!-- Font Awesome Pro 6.0.0-alpha1 by @fontawesome - https://fontawesome.com License - https://fontawesome.com/license (Commercial License) --><path d="M512 183C512 175 507 167 500 162H500L468 143L477 62C478 55 476 47 470 42C465 36 457 34 450 35L369 44L350 12C345 5 337 0 329 0H328C320 0 312 4 307 11L247 106L251 91C253 83 250 74 244 68C238 62 229 60 219 62L200 73L160 28C151 16 131 17 122 28L82 73L63 62C62 62 61 62 61 62C52 60 43 62 37 68C31 74 28 83 30 91L61 240L31 253C22 257 16 266 16 276C16 286 22 295 31 299L149 351L2 498C-1 502 -1 507 2 510C4 511 6 512 8 512S12 511 14 510L161 363L213 481C217 490 226 496 236 496C236 496 236 496 236 496C246 496 255 490 259 481L272 451L421 482C429 483 438 481 444 475C450 469 452 460 450 451C450 451 450 450 450 450L439 430L484 391C490 386 493 379 493 371S490 357 484 352L439 312L450 291C452 283 450 274 444 268C438 262 429 259 421 261L406 265L501 205C508 200 512 192 512 183ZM492 191L355 278C352 280 351 284 352 288C354 292 358 293 361 293L424 276C427 276 430 277 433 279C435 281 436 284 435 285L422 310C420 314 421 318 424 320L474 364C476 366 477 369 477 371S476 376 474 378L424 422C421 425 420 429 422 432L435 456C435 459 434 462 432 464C430 466 427 467 424 466L269 434C265 433 261 435 260 439L244 475C242 480 237 480 236 480C236 480 230 480 228 475L173 350L318 206C321 203 321 197 318 194S309 191 306 194L162 339L37 284C32 282 32 277 32 276C32 275 32 270 37 268L73 252C77 251 79 247 78 243L46 88C45 85 46 82 48 80C50 78 52 77 55 77C55 77 55 77 56 77L80 90C83 92 87 91 90 88L134 38C137 34 144 34 148 38L192 88C194 91 198 92 202 90L225 77C228 77 231 77 233 80C235 82 236 85 236 88L219 151C219 154 220 158 224 160C228 161 232 160 234 157L321 20C323 16 327 16 328 16C329 16 334 16 336 20L358 56C359 59 362 61 365 60L452 51C454 50 457 51 459 53C461 55 462 58 461 61L452 147C451 150 453 153 456 154L492 176C496 178 496 182 496 183C496 185 496 189 492 191Z"/></svg>