<svg xmlns="http://www.w3.org/2000/svg" viewBox="0 0 512 512"><!-- Font Awesome Pro 6.0.0-alpha1 by @fontawesome - https://fontawesome.com License - https://fontawesome.com/license (Commercial License) --><path d="M512 198C512 182 504 166 488 155C477 147 463 144 468 128C471 118 472 108 472 99C472 81 466 66 456 57L455 57L455 57L455 57L455 56C446 46 431 40 413 40C404 40 394 41 384 44C368 49 365 35 357 24C346 8 330 0 314 0C302 0 289 5 279 14C271 22 264 34 240 76C234 72 230 68 226 65C215 56 202 52 190 52C172 52 154 62 144 81C132 103 134 126 137 150C138 163 139 176 141 192C135 188 132 186 130 184C122 180 114 178 106 178C88 178 72 189 67 209C64 221 63 235 66 247C70 264 79 280 83 297C89 318 84 327 82 333C74 358 80 385 96 405L2 498C-1 501 -1 507 2 510C2 510 2 510 2 510C2 510 2 510 2 510C5 513 11 513 14 510L107 416C127 432 154 438 179 430C185 428 194 423 215 429C232 433 248 442 265 446C277 449 291 449 303 445C323 440 334 424 334 406C334 398 332 390 328 382C326 380 324 377 320 371C336 373 349 374 362 375C386 378 409 380 431 368C450 358 460 341 460 322C460 310 456 297 447 286C444 282 440 278 436 272C478 248 490 241 498 233C508 223 512 210 512 198ZM486 222C482 226 478 230 428 259C419 263 417 275 423 283C434 296 444 305 444 322C444 335 437 347 424 354C406 364 385 362 364 359C356 358 328 356 322 355C308 354 299 369 307 380C318 397 318 401 318 406C318 418 311 427 299 430C276 436 259 428 244 422C236 419 228 416 219 413C193 406 179 413 174 415C155 421 135 417 119 405L350 174C353 170 353 165 350 162C350 162 350 162 350 162C350 162 350 162 350 162C347 159 342 159 338 162L107 393C95 377 91 357 97 338C99 333 106 319 99 293C96 284 93 276 90 268C84 253 76 236 82 213C85 201 94 194 106 194C111 194 115 194 132 205C143 213 158 204 157 191C156 184 154 156 153 148C150 127 148 106 158 88C165 75 177 68 190 68C207 68 216 78 229 89C237 95 249 93 253 84C282 34 286 30 290 26C297 19 305 16 314 16C326 16 337 22 345 34C349 41 359 68 389 59C397 57 405 56 413 56C417 56 433 57 444 68C455 79 456 95 456 99C456 107 455 115 453 123C444 153 471 162 478 167C490 175 496 186 496 198C496 207 493 215 486 222Z"/></svg>