<svg xmlns="http://www.w3.org/2000/svg" viewBox="0 0 512 512"><!-- Font Awesome Pro 6.0.0-alpha1 by @fontawesome - https://fontawesome.com License - https://fontawesome.com/license (Commercial License) --><path d="M486 40C484 35 479 32 474 32C469 32 464 34 462 39C437 82 391 104 346 104C334 104 323 103 312 100C299 97 286 96 272 96V96C175 96 96 175 96 272C96 282 97 292 99 302C14 374 0 469 0 471C-1 475 3 479 7 480C7 480 8 480 8 480C12 480 15 477 16 473C17 467 29 384 103 319C123 393 191 448 272 448V448H272C295 448 317 443 337 436C442 401 512 293 512 165C512 122 503 77 486 40ZM331 421C312 428 292 432 272 432C196 432 133 379 116 307C165 270 237 240 344 240C348 240 352 236 352 232S348 224 344 224C238 224 165 253 114 291C113 285 112 278 112 272C112 184 184 112 272 112L279 112C289 112 299 114 308 116C321 119 333 120 346 120C399 120 447 94 473 51C488 84 496 126 496 165C496 285 430 388 331 421Z"/></svg>