<svg xmlns="http://www.w3.org/2000/svg" viewBox="0 0 448 512"><!-- Font Awesome Pro 6.0.0-alpha1 by @fontawesome - https://fontawesome.com License - https://fontawesome.com/license (Commercial License) --><path d="M16 440V72C16 68 12 64 8 64S0 68 0 72V440C0 444 4 448 8 448S16 444 16 440ZM288 392V320H416C434 320 448 306 448 288V224C448 206 434 192 416 192H288V120C288 110 282 102 273 98C265 94 254 96 247 103L103 239C98 243 96 250 96 256S98 269 103 273L247 409C254 416 264 418 273 414C282 410 288 402 288 392ZM258 398L114 262C113 261 112 258 112 256S113 251 114 250L258 114C261 112 264 111 267 113C270 114 272 117 272 120V208H416C425 208 432 215 432 224V288C432 297 425 304 416 304H272V392C272 395 270 398 267 399C264 401 261 400 258 398Z"/></svg>