<svg xmlns="http://www.w3.org/2000/svg" viewBox="0 0 448 512"><!-- Font Awesome Pro 6.0.0-alpha1 by @fontawesome - https://fontawesome.com License - https://fontawesome.com/license (Commercial License) --><path d="M448 440V72C448 68 444 64 440 64S432 68 432 72V440C432 444 436 448 440 448S448 444 448 440ZM192 392V320H320C338 320 352 306 352 288V224C352 206 338 192 320 192H192V120C192 110 186 102 177 98C169 94 158 96 151 103L7 239C2 243 0 250 0 256S2 269 7 273L151 409C158 416 168 418 177 414C186 410 192 402 192 392ZM162 398L18 262C17 261 16 258 16 256S17 251 18 250L162 114C165 112 168 111 171 113C174 114 176 117 176 120V208H320C329 208 336 215 336 224V288C336 297 329 304 320 304H176V392C176 395 174 398 171 399C168 401 165 400 162 398Z"/></svg>