<svg xmlns="http://www.w3.org/2000/svg" viewBox="0 0 448 512"><!-- Font Awesome Pro 6.0.0-alpha1 by @fontawesome - https://fontawesome.com License - https://fontawesome.com/license (Commercial License) --><path d="M440 440H8C4 440 0 444 0 448S4 456 8 456H440C444 456 448 452 448 448S444 440 440 440ZM61 199L381 327C382 328 383 328 384 328C387 328 390 326 391 323C393 319 391 314 387 313L86 192L387 71C391 70 393 65 391 61C390 57 385 55 381 57L61 185C58 186 56 189 56 192C56 195 58 198 61 199Z"/></svg>