<svg xmlns="http://www.w3.org/2000/svg" viewBox="0 0 512 512"><!-- Font Awesome Pro 6.0.0-alpha1 by @fontawesome - https://fontawesome.com License - https://fontawesome.com/license (Commercial License) --><path d="M431 420C471 377 496 319 496 256S471 135 431 92L446 78C449 75 449 69 446 66S437 63 434 66L420 81C377 41 319 16 256 16S135 41 92 81L78 66C75 63 69 63 66 66S63 75 66 78L81 92C41 135 16 193 16 256S41 377 81 420L66 434C63 437 63 443 66 446C68 447 70 448 72 448S76 447 78 446L92 431C135 471 193 496 256 496S377 471 420 431L434 446C436 447 438 448 440 448S444 447 446 446C449 443 449 437 446 434L431 420ZM480 256C480 315 457 368 420 408L318 306C329 293 336 275 336 256S329 219 318 206L420 104C457 144 480 197 480 256ZM192 256C192 221 221 192 256 192S320 221 320 256S291 320 256 320S192 291 192 256ZM256 32C315 32 368 55 408 92L306 194C293 183 275 176 256 176S219 183 206 194L104 92C144 55 197 32 256 32ZM32 256C32 197 55 144 92 104L194 206C183 219 176 237 176 256S183 293 194 306L92 408C55 368 32 315 32 256ZM256 480C197 480 144 457 104 420L206 318C219 329 237 336 256 336S293 329 306 318L408 420C368 457 315 480 256 480Z"/></svg>