<svg xmlns="http://www.w3.org/2000/svg" viewBox="0 0 512 512"><!-- Font Awesome Pro 6.0.0-alpha1 by @fontawesome - https://fontawesome.com License - https://fontawesome.com/license (Commercial License) --><path d="M264 160V8C264 4 260 0 256 0S248 4 248 8V160C121 164 18 258 0 380C-2 399 13 416 33 416H479C499 416 514 399 512 380C494 258 391 164 264 160ZM492 394C489 398 484 400 479 400H33C28 400 23 398 20 394C18 392 15 388 16 382C33 265 136 176 256 176C376 176 479 265 496 382C497 388 494 392 492 394ZM312 440C308 440 304 444 304 448C304 474 282 496 256 496S208 474 208 448C208 444 204 440 200 440S192 444 192 448C192 483 221 512 256 512S320 483 320 448C320 444 316 440 312 440Z"/></svg>