<svg xmlns="http://www.w3.org/2000/svg" viewBox="0 0 384 512"><!-- Font Awesome Pro 6.0.0-alpha1 by @fontawesome - https://fontawesome.com License - https://fontawesome.com/license (Commercial License) --><path d="M200 232V88C200 84 196 80 192 80S184 84 184 88V232C184 236 188 240 192 240S200 236 200 232ZM176 288C176 297 183 304 192 304S208 297 208 288S201 272 192 272S176 279 176 288ZM316 52C283 18 239 0 192 0H191C95 0 16 80 16 177C16 219 31 261 60 293C73 308 98 345 108 377C108 381 112 384 116 384C121 383 124 379 123 375L123 373C113 338 86 299 72 282C46 253 32 216 32 177C32 87 102 16 191 16H192C235 16 275 33 305 63C335 93 352 134 352 177C352 216 338 253 312 282C298 299 271 338 261 374C261 374 261 375 261 375C260 379 263 384 267 384C268 384 268 384 268 384C272 384 276 382 276 378C286 345 311 308 324 293C353 261 368 219 368 177C368 129 350 85 316 52ZM256 416H128C119 416 112 423 112 432L112 454C112 461 114 467 118 472L135 498C140 506 152 512 161 512H223C232 512 244 506 249 498L266 472C269 468 272 460 272 454L272 432C272 423 265 416 256 416ZM256 454C256 457 254 461 253 463L236 489C234 492 227 496 223 496H161C157 496 150 492 148 489L131 463C129 461 128 458 128 454L128 432H256L256 454Z"/></svg>