<svg xmlns="http://www.w3.org/2000/svg" viewBox="0 0 640 512"><!-- Font Awesome Pro 6.0.0-alpha1 by @fontawesome - https://fontawesome.com License - https://fontawesome.com/license (Commercial License) --><path d="M328 72C328 68 324 64 320 64C254 64 200 118 200 184C200 188 204 192 208 192S216 188 216 184C216 127 263 80 320 80C324 80 328 76 328 72ZM384 416H256C247 416 240 423 240 432L240 454C240 461 242 467 245 472L262 498C268 506 280 512 289 512H351C360 512 372 506 378 498L395 472C398 468 400 460 400 454L400 432C400 423 393 416 384 416ZM384 454C384 457 382 461 381 463L364 489C362 492 355 496 351 496H289C285 496 278 492 276 489L259 463C257 461 256 458 256 454L256 432H384L384 454ZM320 0H319C222 0 143 80 143 177C143 219 159 261 187 293C201 308 226 345 235 377C236 381 240 384 244 384C249 383 252 379 251 375L251 373C240 338 214 299 199 282C173 253 159 216 159 177C159 87 230 16 319 16H320C363 16 403 33 433 63C464 93 481 134 481 177C481 216 467 253 441 282C426 299 400 338 389 374C389 374 389 375 389 375C388 379 391 384 396 384C396 384 396 384 397 384C401 384 404 382 405 378C414 345 439 308 453 293C481 261 497 219 497 177C497 129 478 85 445 52C411 18 367 0 320 0ZM44 1C40 -1 35 0 33 4C31 8 32 13 36 15L116 55C118 56 119 56 120 56C123 56 126 54 127 52C129 48 128 43 124 41L44 1ZM112 152C112 148 108 144 104 144H8C4 144 0 148 0 152S4 160 8 160H104C108 160 112 156 112 152ZM520 56C521 56 522 56 524 55L604 15C608 13 609 8 607 4C605 0 600 -1 596 1L516 41C512 43 511 48 513 52C514 54 517 56 520 56ZM632 144H536C532 144 528 148 528 152S532 160 536 160H632C636 160 640 156 640 152S636 144 632 144ZM524 249C522 248 521 248 520 248C517 248 514 250 513 252C511 256 512 261 516 263L596 303C600 305 605 303 607 300C609 296 608 291 604 289L524 249ZM120 248C119 248 118 248 116 249L36 289C32 291 31 296 33 300C35 304 40 305 44 303L124 263C128 261 129 256 127 252C126 250 123 248 120 248Z"/></svg>