<svg xmlns="http://www.w3.org/2000/svg" viewBox="0 0 576 512"><!-- Font Awesome Pro 6.0.0-alpha1 by @fontawesome - https://fontawesome.com License - https://fontawesome.com/license (Commercial License) --><path d="M264 104H568C572 104 576 100 576 96S572 88 568 88H264C260 88 256 92 256 96S260 104 264 104ZM568 248H264C260 248 256 252 256 256S260 264 264 264H568C572 264 576 260 576 256S572 248 568 248ZM568 408H264C260 408 256 412 256 416S260 424 264 424H568C572 424 576 420 576 416S572 408 568 408ZM178 134C180 135 182 136 184 136S188 135 190 134C193 131 193 125 190 122L102 34C99 31 93 31 90 34L2 122C-1 125 -1 131 2 134S11 137 14 134L88 59V453L14 378C11 375 5 375 2 378S-1 387 2 390L90 478C92 479 94 480 96 480S100 479 102 478L190 390C193 387 193 381 190 378S181 375 178 378L104 453V59L178 134Z"/></svg>