<svg xmlns="http://www.w3.org/2000/svg" viewBox="0 0 640 512"><!-- Font Awesome Pro 6.0.0-alpha1 by @fontawesome - https://fontawesome.com License - https://fontawesome.com/license (Commercial License) --><path d="M128 320C66 320 16 270 16 208S66 96 128 96H320C382 96 432 146 432 208S382 320 320 320H272C268 320 264 324 264 328S268 336 272 336H320C391 336 448 279 448 208S391 80 320 80H128C57 80 0 137 0 208S57 336 128 336C132 336 136 332 136 328S132 320 128 320ZM512 176C508 176 504 180 504 184S508 192 512 192C574 192 624 242 624 304S574 416 512 416H320C258 416 208 366 208 304S258 192 320 192H368C372 192 376 188 376 184S372 176 368 176H320C249 176 192 233 192 304S249 432 320 432H512C583 432 640 375 640 304S583 176 512 176Z"/></svg>