<svg xmlns="http://www.w3.org/2000/svg" viewBox="0 0 640 512"><!-- Font Awesome Pro 6.0.0-alpha1 by @fontawesome - https://fontawesome.com License - https://fontawesome.com/license (Commercial License) --><path d="M512 192C574 192 624 242 624 304C624 334 612 361 593 381L605 391C627 368 640 338 640 304C640 233 583 176 512 176C508 176 504 180 504 184S508 192 512 192ZM320 96C382 96 432 146 432 208C432 222 429 235 425 247L438 258C444 242 448 226 448 208C448 137 391 80 320 80H214L234 96H320ZM320 416C258 416 208 366 208 304C208 290 211 277 215 265L202 254C196 270 192 286 192 304C192 375 249 432 320 432H426L406 416H320ZM128 320C66 320 16 270 16 208C16 178 28 151 47 131L35 121C13 144 0 174 0 208C0 279 57 336 128 336C132 336 136 332 136 328S132 320 128 320ZM13 2C12 1 10 0 8 0C6 0 3 1 2 3C-1 6 0 12 3 14L627 510C629 511 630 512 632 512C634 512 637 511 638 509C641 506 640 500 637 498L13 2Z"/></svg>