<svg xmlns="http://www.w3.org/2000/svg" viewBox="0 0 576 512"><!-- Font Awesome Pro 6.0.0-alpha1 by @fontawesome - https://fontawesome.com License - https://fontawesome.com/license (Commercial License) --><path d="M568 202C522 125 420 64 376 64C376 64 347 64 288 109C229 64 200 64 200 64C156 64 54 125 8 202C-1 217 -2 236 4 252C30 312 106 448 251 448H325C470 448 546 312 571 252C578 236 577 217 568 202ZM557 246C538 290 467 432 325 432H251C109 432 38 290 19 246C14 234 15 221 22 210C67 135 166 80 200 80C200 80 226 82 278 122C281 124 285 125 288 125S295 124 298 122C348 83 374 80 376 80C411 80 509 135 554 210C561 221 562 234 557 246ZM372 184C371 184 370 184 370 184L339 193C307 202 269 202 237 193L206 184C205 184 205 184 204 184C119 184 62 216 60 217C58 218 57 220 56 222C56 225 56 227 58 229C61 233 137 328 288 328S515 233 518 229C520 227 520 225 520 222C519 220 518 218 516 217C514 216 457 184 372 184ZM288 312C169 312 98 249 77 226C95 218 142 200 203 200L233 209C267 218 308 218 343 209L373 200C434 200 480 218 499 226C478 249 407 312 288 312Z"/></svg>