<svg xmlns="http://www.w3.org/2000/svg" viewBox="0 0 320 512"><!-- Font Awesome Pro 6.0.0-alpha1 by @fontawesome - https://fontawesome.com License - https://fontawesome.com/license (Commercial License) --><path d="M320 472C320 476 316 480 312 480H8C5 480 2 478 1 475C-1 472 0 469 2 467C40 425 65 374 75 320H8C4 320 0 316 0 312S4 304 8 304H77C79 291 80 278 80 265V224H8C4 224 0 220 0 216S4 208 8 208H80V129C80 76 124 32 177 32C188 32 198 34 208 37L291 64C295 66 297 70 296 74C294 79 290 81 285 80L203 52C195 49 186 48 177 48C133 48 96 85 96 129V208H248C252 208 256 212 256 216S252 224 248 224H96V265C96 278 95 291 93 304H248C252 304 256 308 256 312S252 320 248 320H91C82 373 59 422 25 464H312C316 464 320 468 320 472Z"/></svg>