<svg xmlns="http://www.w3.org/2000/svg" viewBox="0 0 512 512"><!-- Font Awesome Pro 6.0.0-alpha1 by @fontawesome - https://fontawesome.com License - https://fontawesome.com/license (Commercial License) --><path d="M504 248H168C164 248 160 252 160 256S164 264 168 264H504C508 264 512 260 512 256S508 248 504 248ZM168 104H504C508 104 512 100 512 96S508 88 504 88H168C164 88 160 92 160 96S164 104 168 104ZM504 408H168C164 408 160 412 160 416S164 424 168 424H504C508 424 512 420 512 416S508 408 504 408ZM64 32C29 32 0 61 0 96C0 131 29 160 64 160C99 160 128 131 128 96C128 61 99 32 64 32ZM64 144C38 144 16 122 16 96S38 48 64 48S112 70 112 96S90 144 64 144ZM64 80C55 80 48 87 48 96C48 105 55 112 64 112C73 112 80 105 80 96C80 87 73 80 64 80ZM64 192C29 192 0 221 0 256S29 320 64 320C99 320 128 291 128 256S99 192 64 192ZM64 304C38 304 16 282 16 256S38 208 64 208S112 230 112 256S90 304 64 304ZM64 352C29 352 0 381 0 416S29 480 64 480C99 480 128 451 128 416S99 352 64 352ZM64 464C38 464 16 442 16 416S38 368 64 368S112 390 112 416S90 464 64 464Z"/></svg>