<svg xmlns="http://www.w3.org/2000/svg" viewBox="0 0 512 512"><!-- Font Awesome Pro 6.0.0-alpha1 by @fontawesome - https://fontawesome.com License - https://fontawesome.com/license (Commercial License) --><path d="M448 32H64C29 32 0 61 0 96V416C0 451 29 480 64 480H448C483 480 512 451 512 416V96C512 61 483 32 448 32ZM496 416C496 442 474 464 448 464H64C38 464 16 442 16 416V176H496V416ZM496 160H16V96C16 70 38 48 64 48H448C474 48 496 70 496 96V160ZM120 288H392C396 288 400 284 400 280S396 272 392 272H120C116 272 112 276 112 280S116 288 120 288ZM120 384H392C396 384 400 380 400 376S396 368 392 368H120C116 368 112 372 112 376S116 384 120 384ZM419 90L384 118L349 90C346 87 341 88 338 91C335 94 336 99 339 102L379 134C380 135 382 136 384 136S388 135 389 134L429 102C432 99 433 94 430 91C428 88 422 87 419 90Z"/></svg>