<svg xmlns="http://www.w3.org/2000/svg" viewBox="0 0 512 512"><!-- Font Awesome Pro 6.0.0-alpha1 by @fontawesome - https://fontawesome.com License - https://fontawesome.com/license (Commercial License) --><path d="M48 368C22 368 0 390 0 416S22 464 48 464S96 442 96 416S74 368 48 368ZM48 448C30 448 16 434 16 416S30 384 48 384S80 398 80 416S66 448 48 448ZM59 134C60 135 62 136 64 136C66 136 68 135 70 134L158 46C161 43 161 37 158 34S149 31 146 34L64 117L13 74C10 71 5 71 2 75C-1 78 -1 83 3 86L59 134ZM200 104H504C508 104 512 100 512 96S508 88 504 88H200C196 88 192 92 192 96S196 104 200 104ZM504 248H200C196 248 192 252 192 256S196 264 200 264H504C508 264 512 260 512 256S508 248 504 248ZM504 408H168C164 408 160 412 160 416S164 424 168 424H504C508 424 512 420 512 416S508 408 504 408ZM158 194C155 191 149 191 146 194L64 277L13 234C10 231 5 231 2 235C-1 238 -1 243 3 246L59 294C60 295 62 296 64 296C66 296 68 295 70 294L158 206C161 203 161 197 158 194Z"/></svg>