<svg xmlns="http://www.w3.org/2000/svg" viewBox="0 0 512 512"><!-- Font Awesome Pro 6.0.0-alpha1 by @fontawesome - https://fontawesome.com License - https://fontawesome.com/license (Commercial License) --><path d="M504 248H296C292 248 288 252 288 256S292 264 296 264H504C508 264 512 260 512 256S508 248 504 248ZM168 104H504C508 104 512 100 512 96S508 88 504 88H168C164 88 160 92 160 96S164 104 168 104ZM200 208H152C139 208 128 219 128 232V248H56V144H72C85 144 96 133 96 120V72C96 59 85 48 72 48H24C11 48 0 59 0 72V120C0 133 11 144 24 144H40V384C40 406 58 424 80 424H128V440C128 453 139 464 152 464H200C213 464 224 453 224 440V392C224 379 213 368 200 368H152C139 368 128 379 128 392V408H80C67 408 56 397 56 384V264H128V280C128 293 139 304 152 304H200C213 304 224 293 224 280V232C224 219 213 208 200 208ZM144 392C144 388 148 384 152 384H200C204 384 208 388 208 392V440C208 444 204 448 200 448H152C148 448 144 444 144 440V392ZM24 128C20 128 16 124 16 120V72C16 68 20 64 24 64H72C76 64 80 68 80 72V120C80 124 76 128 72 128H24ZM208 280C208 284 204 288 200 288H152C148 288 144 284 144 280V232C144 228 148 224 152 224H200C204 224 208 228 208 232V280ZM504 408H296C292 408 288 412 288 416S292 424 296 424H504C508 424 512 420 512 416S508 408 504 408Z"/></svg>