<svg xmlns="http://www.w3.org/2000/svg" viewBox="0 0 384 512"><!-- Font Awesome Pro 6.0.0-alpha1 by @fontawesome - https://fontawesome.com License - https://fontawesome.com/license (Commercial License) --><path d="M272 184H112C108 184 104 188 104 192S108 200 112 200H272C276 200 280 196 280 192S276 184 272 184ZM192 0C86 0 0 86 0 192C0 269 27 291 172 502C177 509 185 512 192 512S207 509 212 502C357 291 384 269 384 192C384 86 298 0 192 0ZM199 493C197 496 194 496 192 496S187 496 185 493C160 455 137 423 118 396C32 273 16 251 16 192C16 95 95 16 192 16S368 95 368 192C368 251 352 273 266 396C247 423 224 455 199 493Z"/></svg>