<svg xmlns="http://www.w3.org/2000/svg" viewBox="0 0 384 512"><!-- Font Awesome Pro 6.0.0-alpha1 by @fontawesome - https://fontawesome.com License - https://fontawesome.com/license (Commercial License) --><path d="M192 0C86 0 0 86 0 192C0 269 27 291 172 502C177 509 185 512 192 512S207 509 212 502C357 291 384 269 384 192C384 86 298 0 192 0ZM199 493C197 496 194 496 192 496S187 496 185 493C160 455 137 423 118 396C32 273 16 251 16 192C16 95 95 16 192 16S368 95 368 192C368 251 352 273 266 396C247 423 224 455 199 493ZM192 112C148 112 112 148 112 192C112 236 148 272 192 272S272 236 272 192C272 148 236 112 192 112ZM192 256C157 256 128 227 128 192C128 157 157 128 192 128S256 157 256 192C256 227 227 256 192 256Z"/></svg>