<svg xmlns="http://www.w3.org/2000/svg" viewBox="0 0 384 512"><!-- Font Awesome Pro 6.0.0-alpha1 by @fontawesome - https://fontawesome.com License - https://fontawesome.com/license (Commercial License) --><path d="M192 0C86 0 0 86 0 192C0 269 27 291 172 502C177 509 185 512 192 512S207 509 212 502C357 291 384 269 384 192C384 86 298 0 192 0ZM199 493C197 496 194 496 192 496S187 496 185 493C160 455 137 423 118 396C32 273 16 251 16 192C16 95 95 16 192 16S368 95 368 192C368 251 352 273 266 396C247 423 224 455 199 493ZM192 312C183 312 176 319 176 328C176 337 183 344 192 344S208 337 208 328C208 319 201 312 192 312ZM192 96C152 96 120 124 120 159C120 164 124 167 128 167S136 164 136 159C136 133 161 112 192 112S248 133 248 159C248 176 238 191 221 200C198 211 184 235 184 261C184 266 188 269 192 269S200 266 200 261C200 241 211 223 228 214C250 203 264 182 264 159C264 124 232 96 192 96Z"/></svg>