<svg xmlns="http://www.w3.org/2000/svg" viewBox="0 0 448 512"><!-- Font Awesome Pro 6.0.0-alpha1 by @fontawesome - https://fontawesome.com License - https://fontawesome.com/license (Commercial License) --><path d="M434 46C425 37 412 32 400 32C394 32 388 33 382 36L30 180C9 188 -4 211 1 233C5 256 25 272 48 272H208V432C208 456 227 480 256 480C275 480 293 468 300 450L444 98C452 80 448 60 434 46ZM430 92L286 444C281 456 269 464 256 464C236 464 224 447 224 432V256H48C33 256 20 245 17 230C14 215 22 200 36 194L388 50C392 49 396 48 400 48C408 48 417 51 423 57C432 67 435 80 430 92Z"/></svg>