<svg xmlns="http://www.w3.org/2000/svg" viewBox="0 0 384 512"><!-- Font Awesome Pro 6.0.0-alpha1 by @fontawesome - https://fontawesome.com License - https://fontawesome.com/license (Commercial License) --><path d="M192 256C196 256 200 252 200 248V104C200 100 196 96 192 96S184 100 184 104V248C184 252 188 256 192 256ZM192 288C183 288 176 295 176 304S183 320 192 320S208 313 208 304S201 288 192 288ZM192 0C86 0 0 86 0 192C0 269 27 291 172 502C177 509 185 512 192 512S207 509 212 502C357 291 384 269 384 192C384 86 298 0 192 0ZM199 493C197 496 194 496 192 496S187 496 185 493C160 455 137 423 118 396C32 273 16 251 16 192C16 95 95 16 192 16S368 95 368 192C368 251 352 273 266 396C247 423 224 455 199 493Z"/></svg>