<svg xmlns="http://www.w3.org/2000/svg" viewBox="0 0 384 512"><!-- Font Awesome Pro 6.0.0-alpha1 by @fontawesome - https://fontawesome.com License - https://fontawesome.com/license (Commercial License) --><path d="M254 130C251 127 246 127 243 130L192 181L141 130C138 127 133 127 130 130C127 133 127 138 130 141L181 192L130 243C127 246 127 251 130 254C133 257 138 257 141 254L192 203L243 254C246 257 251 257 254 254C257 251 257 246 254 243L203 192L254 141C257 138 257 133 254 130ZM192 0C86 0 0 86 0 192C0 269 27 291 172 502C177 509 185 512 192 512S207 509 212 502C357 291 384 269 384 192C384 86 298 0 192 0ZM199 493C197 496 194 496 192 496S187 496 185 493C160 455 137 423 118 396C32 273 16 251 16 192C16 95 95 16 192 16S368 95 368 192C368 251 352 273 266 396C247 423 224 455 199 493Z"/></svg>