<svg xmlns="http://www.w3.org/2000/svg" viewBox="0 0 576 512"><!-- Font Awesome Pro 6.0.0-alpha1 by @fontawesome - https://fontawesome.com License - https://fontawesome.com/license (Commercial License) --><path d="M442 0C373 4 320 63 320 132L320 224H64C29 224 0 253 0 288V448C0 483 29 512 64 512H384C419 512 448 483 448 448V288C448 253 419 224 384 224H336L336 131C336 71 382 19 442 16C507 13 560 64 560 128V216C560 220 564 224 568 224L568 224C572 224 576 220 576 216V128C576 55 515 -3 442 0ZM384 240C410 240 432 262 432 288V448C432 474 410 496 384 496H64C38 496 16 474 16 448V288C16 262 38 240 64 240H384Z"/></svg>