<svg xmlns="http://www.w3.org/2000/svg" viewBox="0 0 512 512"><!-- Font Awesome Pro 6.0.0-alpha1 by @fontawesome - https://fontawesome.com License - https://fontawesome.com/license (Commercial License) --><path d="M416 224H384V128C384 57 327 0 256 0S128 57 128 128V224H96C61 224 32 253 32 288V448C32 483 61 512 96 512H416C451 512 480 483 480 448V288C480 253 451 224 416 224ZM144 128C144 66 194 16 256 16S368 66 368 128V224H144V128ZM464 448C464 474 442 496 416 496H96C70 496 48 474 48 448V288C48 262 70 240 96 240H416C442 240 464 262 464 288V448Z"/></svg>