<svg xmlns="http://www.w3.org/2000/svg" viewBox="0 0 448 512"><!-- Font Awesome Pro 6.0.0-alpha1 by @fontawesome - https://fontawesome.com License - https://fontawesome.com/license (Commercial License) --><path d="M224 0C100 0 0 100 0 224V320C0 426 86 512 192 512H256C362 512 448 426 448 320V224C448 100 348 0 224 0ZM432 320C432 417 353 496 256 496H192C95 496 16 417 16 320V224C16 109 109 16 224 16S432 109 432 224V320ZM304 160C268 160 238 184 224 217C210 184 180 160 144 160C144 160 116 160 97 160C75 160 73 160 68 166C65 169 64 173 64 176V192C64 245 103 288 152 288H189C178 301 170 315 163 329C162 331 162 334 162 336H152C121 336 96 361 96 392S121 448 152 448H296C327 448 352 423 352 392S327 336 296 336H286C286 334 286 331 285 329C278 315 270 301 259 288C277 288 296 288 296 288C345 288 384 245 384 192V176C384 167 377 160 368 160H304ZM152 272C112 272 80 236 80 192V176C80 176 87 176 97 176C116 176 144 176 144 176C183 176 216 212 216 256V259C213 260 215 258 202 272H152ZM296 352C318 352 336 370 336 392S318 432 296 432H152C130 432 112 414 112 392S130 352 152 352H296ZM271 336H177C186 318 200 296 224 272C248 296 262 318 271 336ZM368 192C368 236 336 272 296 272C296 272 268 272 249 272C248 272 247 272 246 272C233 258 235 260 232 259V256C232 212 265 176 304 176H368V192Z"/></svg>