<svg xmlns="http://www.w3.org/2000/svg" viewBox="0 0 512 512"><!-- Font Awesome Pro 6.0.0-alpha1 by @fontawesome - https://fontawesome.com License - https://fontawesome.com/license (Commercial License) --><path d="M288 184C266 184 248 202 248 224S266 264 288 264S328 246 328 224S310 184 288 184ZM288 248C275 248 264 237 264 224S275 200 288 200S312 211 312 224S301 248 288 248ZM504 216H423C419 147 365 93 296 89V8C296 4 292 0 288 0S280 4 280 8V89C211 93 157 148 153 216H72C68 216 64 220 64 224S68 232 72 232H153C154 252 159 270 168 287L12 444C4 451 0 461 0 472S4 493 12 500C19 508 30 512 40 512C50 512 60 508 68 500L225 344C242 353 260 358 280 359V440C280 444 284 448 288 448S296 444 296 440V359C365 355 419 301 423 232H504C508 232 512 228 512 224S508 216 504 216ZM57 489C48 498 32 498 23 489C18 484 16 478 16 472C16 465 18 459 23 455L176 301C186 315 197 326 210 335L57 489ZM288 344C222 344 168 290 168 224S222 104 288 104S408 158 408 224S354 344 288 344Z"/></svg>