<svg xmlns="http://www.w3.org/2000/svg" viewBox="0 0 512 512"><!-- Font Awesome Pro 6.0.0-alpha1 by @fontawesome - https://fontawesome.com License - https://fontawesome.com/license (Commercial License) --><path d="M510 498L360 349C395 312 416 263 416 208C416 93 323 0 208 0S0 93 0 208S93 416 208 416C263 416 312 395 349 360L498 510C500 511 502 512 504 512S508 511 510 510C513 507 513 501 510 498ZM208 400C102 400 16 314 16 208S102 16 208 16S400 102 400 208S314 400 208 400ZM208 96C160 96 122 134 122 182C122 221 178 291 200 316C202 319 205 320 208 320C211 320 214 319 216 316C238 291 294 221 294 182C294 134 256 96 208 96ZM208 301C165 249 138 204 138 182C138 143 169 112 208 112C247 112 278 143 278 182C278 204 251 249 208 301ZM208 160C199 160 192 167 192 176S199 192 208 192S224 185 224 176S217 160 208 160Z"/></svg>