<svg xmlns="http://www.w3.org/2000/svg" viewBox="0 0 576 512"><!-- Font Awesome Pro 6.0.0-alpha1 by @fontawesome - https://fontawesome.com License - https://fontawesome.com/license (Commercial License) --><path d="M432 64H144C64 64 0 128 0 208V384C0 419 29 448 64 448H512C547 448 576 419 576 384V208C576 128 512 64 432 64ZM240 432H64C38 432 16 410 16 384V208C16 137 73 80 144 80H160C231 80 288 137 288 208V384C288 410 266 432 240 432ZM560 384C560 410 538 432 512 432H282C295 420 304 403 304 384V208C304 152 272 104 225 80H432C503 80 560 137 560 208V384ZM216 192H72C68 192 64 196 64 200S68 208 72 208H216C220 208 224 204 224 200S220 192 216 192ZM488 192H376C372 192 368 196 368 200S372 208 376 208H488C492 208 496 212 496 216V280H448V248C448 244 444 240 440 240S432 244 432 248V288C432 292 436 296 440 296H504C508 296 512 292 512 288V216C512 203 501 192 488 192Z"/></svg>