<svg xmlns="http://www.w3.org/2000/svg" viewBox="0 0 512 512"><!-- Font Awesome Pro 6.0.0-alpha1 by @fontawesome - https://fontawesome.com License - https://fontawesome.com/license (Commercial License) --><path d="M327 256C323 256 320 260 319 264C315 411 274 452 260 466L258 468C214 512 115 503 62 450C9 397 0 298 46 253C60 238 101 197 248 193C252 193 256 189 256 185V185C256 180 252 177 248 177C94 181 51 224 33 243C-18 293 -9 402 51 462C84 495 132 512 177 512C213 512 248 501 271 478C288 461 331 418 335 264C336 260 332 256 327 256ZM208 248C177 248 152 273 152 304S177 360 208 360C239 360 264 335 264 304S239 248 208 248ZM208 344C186 344 168 326 168 304C168 282 186 264 208 264C230 264 248 282 248 304C248 326 230 344 208 344ZM505 47L465 6C458 -1 446 -2 437 3L372 47C370 48 368 50 368 53L360 140L266 234C263 238 263 243 266 246C268 247 270 248 272 248C274 248 276 247 278 246L372 152L459 144C462 144 464 142 465 140L509 75C514 66 513 54 505 47ZM495 66L454 128L377 135L384 58L446 17C448 15 452 16 454 18L494 58C496 60 497 64 495 66Z"/></svg>