<svg xmlns="http://www.w3.org/2000/svg" viewBox="0 0 320 512"><!-- Font Awesome Pro 6.0.0-alpha1 by @fontawesome - https://fontawesome.com License - https://fontawesome.com/license (Commercial License) --><path d="M304 144C304 64 240 0 160 0S16 64 16 144C16 221 76 283 152 287C152 288 152 288 152 288V504C152 508 156 512 160 512S168 508 168 504V288C168 288 168 288 168 287C244 283 304 221 304 144ZM160 272C89 272 32 215 32 144C32 73 89 16 160 16S288 73 288 144C288 215 231 272 160 272ZM160 48C107 48 64 91 64 144C64 148 68 152 72 152S80 148 80 144C80 100 116 64 160 64C164 64 168 60 168 56S164 48 160 48Z"/></svg>