<svg xmlns="http://www.w3.org/2000/svg" viewBox="0 0 576 512"><!-- Font Awesome Pro 6.0.0-alpha1 by @fontawesome - https://fontawesome.com License - https://fontawesome.com/license (Commercial License) --><path d="M288 176C314 176 336 154 336 128S314 80 288 80C262 80 240 102 240 128S262 176 288 176ZM288 96C306 96 320 110 320 128S306 160 288 160S256 146 256 128S270 96 288 96ZM269 326C273 332 280 336 288 336S303 332 307 326C323 303 337 283 349 266C403 189 416 170 416 128C416 57 359 0 288 0S160 57 160 128C160 170 173 189 227 266C239 283 253 303 269 326ZM288 16C350 16 400 66 400 128C400 165 390 179 335 257C324 274 310 294 294 317C291 321 285 321 282 317C266 294 252 274 241 257C186 179 176 165 176 128C176 66 226 16 288 16ZM573 161C570 160 568 160 565 161L413 217C409 218 407 223 409 227S415 233 419 232L560 179V434L408 492V328C408 324 404 320 400 320S392 324 392 328V493L184 434V328C184 324 180 320 176 320S168 324 168 328V434L16 492V230L139 183C143 182 145 177 143 173C142 169 137 167 133 169L5 217C2 218 0 221 0 224V504C0 507 1 509 3 511C5 512 6 512 8 512C9 512 10 512 11 511L176 448L398 512C399 512 401 512 403 511L571 447C574 446 576 443 576 440V168C576 165 575 163 573 161Z"/></svg>