<svg xmlns="http://www.w3.org/2000/svg" viewBox="0 0 576 512"><!-- Font Awesome Pro 6.0.0-alpha1 by @fontawesome - https://fontawesome.com License - https://fontawesome.com/license (Commercial License) --><path d="M555 33L391 91L188 33C184 31 180 33 180 33L12 81C5 83 0 89 0 96V464C0 475 10 483 21 479L185 421L388 479C392 481 396 479 396 479L564 431C571 429 576 423 576 416V48C576 37 566 29 555 33ZM176 407L16 464C16 464 16 464 16 464L16 96L176 50V407ZM384 462L192 407V50L384 105V462ZM400 462V105L560 48C560 48 560 48 560 48L560 416L400 462Z"/></svg>