<svg xmlns="http://www.w3.org/2000/svg" viewBox="0 0 512 512"><!-- Font Awesome Pro 6.0.0-alpha1 by @fontawesome - https://fontawesome.com License - https://fontawesome.com/license (Commercial License) --><path d="M421 0C398 0 375 9 357 27L324 60L308 44C293 28 267 28 252 44L130 165C127 168 127 173 130 176C132 178 134 179 136 179S140 178 142 176L263 55C272 46 288 46 297 55L313 71L94 290C49 335 7 422 0 485L0 485C-1 500 10 512 24 512C25 512 26 512 27 512C90 505 177 463 222 418L485 155C543 97 501 0 421 0ZM211 407C168 449 85 489 24 496C21 496 19 494 18 493C17 492 16 490 16 487C23 427 63 344 105 301L182 225L287 330L211 407ZM474 143L298 319L193 214L369 38C383 24 402 16 421 16C458 16 481 40 490 62C499 84 500 117 474 143Z"/></svg>