<svg xmlns="http://www.w3.org/2000/svg" viewBox="0 0 640 512"><!-- Font Awesome Pro 6.0.0-alpha1 by @fontawesome - https://fontawesome.com License - https://fontawesome.com/license (Commercial License) --><path d="M606 250L504 149C501 145 496 145 493 149C489 152 489 157 493 160L581 248H456V188C456 184 452 180 448 180S440 184 440 188V248H384C382 206 365 164 332 132C264 63 152 63 84 132C15 200 15 312 84 380C152 449 264 449 332 380C365 348 382 306 384 264H440V324C440 326 441 328 442 330C444 331 446 332 448 332C452 332 456 328 456 324V264H581L493 352C489 355 489 360 493 363C496 367 501 367 504 363L606 262C609 259 609 253 606 250ZM321 369C259 431 157 432 95 369S33 205 95 143S259 80 321 143C384 205 384 307 321 369Z"/></svg>