<svg xmlns="http://www.w3.org/2000/svg" viewBox="0 0 576 512"><!-- Font Awesome Pro 6.0.0-alpha1 by @fontawesome - https://fontawesome.com License - https://fontawesome.com/license (Commercial License) --><path d="M466 4C397 -13 328 24 301 85C299 89 301 94 305 96C309 98 313 96 315 92C341 35 406 2 470 22C519 37 554 80 559 131C567 207 507 272 432 272C410 272 389 266 369 255C365 253 361 254 358 258L358 258C356 262 357 267 361 269C383 281 407 288 432 288C511 288 575 225 576 146C577 80 531 20 466 4ZM312 496H216V379L414 141C416 139 417 135 415 133C414 130 411 128 408 128H8C5 128 2 130 1 133C-1 135 0 139 2 141L200 379V496H104C100 496 96 500 96 504S100 512 104 512H312C316 512 320 508 320 504S316 496 312 496ZM25 144H391L208 363L25 144Z"/></svg>