<svg xmlns="http://www.w3.org/2000/svg" viewBox="0 0 512 512"><!-- Font Awesome Pro 6.0.0-alpha1 by @fontawesome - https://fontawesome.com License - https://fontawesome.com/license (Commercial License) --><path d="M364 96C364 96 364 96 364 96C356 96 349 99 344 104C344 104 344 104 344 104C331 117 335 141 353 159C364 170 377 176 389 176C396 176 403 173 409 168C422 155 418 131 400 113C389 102 376 96 364 96ZM397 157C392 163 376 160 364 148C352 136 349 121 355 115V115C358 113 361 112 364 112C364 112 364 112 364 112C372 112 381 117 388 124C401 136 403 151 397 157ZM444 68C386 10 284 -29 228 27C191 64 128 138 128 209V310L120 318C106 332 89 327 83 324C75 321 68 320 60 320C41 320 21 330 10 347C-6 371 -3 403 18 423C29 435 44 440 59 440C64 440 69 439 74 438C69 458 74 479 89 494C101 506 116 512 132 512C143 512 155 509 165 502C189 486 198 456 188 429C183 417 184 402 194 393L202 384H304C375 384 448 321 486 284C525 242 527 151 444 68ZM480 266C478 268 476 270 474 272C445 301 371 368 304 368H176C172 368 168 372 168 376S172 384 176 384H180C169 398 166 417 173 435C181 455 174 477 156 489C149 493 140 496 132 496C120 496 109 491 100 483C90 472 86 457 90 442C91 436 89 431 85 427C82 424 78 422 74 422C73 422 71 422 70 423C67 423 63 424 59 424C51 424 39 422 29 412C14 397 12 373 23 356C35 338 57 331 77 339C103 350 122 337 128 332V336C128 340 132 344 136 344C140 344 144 340 144 336V209C144 141 211 67 240 38C241 37 243 35 246 33C240 48 238 68 243 90C250 128 274 170 308 204C350 246 404 272 448 272C457 272 469 270 480 266L480 266ZM484 244C474 254 457 256 448 256C408 256 359 232 320 192C288 161 266 122 258 86C253 61 257 39 268 28C278 18 293 16 304 16C344 16 394 40 433 79C480 126 496 176 496 208C496 224 492 236 484 244Z"/></svg>