<svg xmlns="http://www.w3.org/2000/svg" viewBox="0 0 512 512"><!-- Font Awesome Pro 6.0.0-alpha1 by @fontawesome - https://fontawesome.com License - https://fontawesome.com/license (Commercial License) --><path d="M256 160C159 160 80 239 80 336S159 512 256 512S432 433 432 336S353 160 256 160ZM256 496C168 496 96 424 96 336S168 176 256 176S416 248 416 336S344 496 256 496ZM509 13C505 5 497 0 488 0H368C359 0 351 4 347 12L278 126C276 130 277 135 281 137C285 139 290 138 292 134L361 20C362 17 365 16 368 16H488C491 16 494 18 495 20C496 23 496 26 495 29L390 178C387 182 388 187 392 189C397 193 402 189 403 187L508 38C513 30 513 21 509 13ZM120 189C124 187 125 182 122 178L17 29C16 26 16 23 17 20C18 18 21 16 24 16H144C147 16 150 17 151 20L220 134C222 138 227 139 231 137C235 135 236 130 234 126L165 12C161 4 153 0 144 0H24C15 0 7 5 3 13S-1 30 4 38L109 187C110 189 115 193 120 189ZM342 298L290 290L266 242C264 238 260 236 256 236S248 238 246 242L222 290L170 298C160 299 157 311 163 317L201 354L193 406C191 414 197 420 204 420C206 420 207 419 209 418L256 394L303 419C305 419 306 420 308 420C315 420 321 414 319 407L311 354L349 317C355 311 352 299 342 298ZM293 349L302 400L256 376L210 400L219 349L181 312L233 305L256 258L279 305L331 312L293 349Z"/></svg>