<svg xmlns="http://www.w3.org/2000/svg" viewBox="0 0 576 512"><!-- Font Awesome Pro 6.0.0-alpha1 by @fontawesome - https://fontawesome.com License - https://fontawesome.com/license (Commercial License) --><path d="M8 160C4 160 0 164 0 168V344C0 348 4 352 8 352S16 348 16 344V168C16 164 12 160 8 160ZM544 32H512C497 32 484 43 481 58L54 171C50 172 48 176 48 179C48 184 53 188 58 187L480 74V438L173 356C173 356 172 355 172 355C172 355 172 356 172 355L58 325C53 324 48 328 48 333C48 336 50 340 54 341L162 369C161 374 160 379 160 384C160 437 203 480 256 480C296 480 331 455 345 418L481 454C484 469 497 480 512 480H544C562 480 576 466 576 448V64C576 46 562 32 544 32ZM256 464C212 464 176 428 176 384C176 380 177 377 177 373L330 414C318 444 288 464 256 464ZM560 448C560 457 553 464 544 464H512C503 464 496 457 496 448V64C496 55 503 48 512 48H544C553 48 560 55 560 64V448Z"/></svg>