<svg xmlns="http://www.w3.org/2000/svg" viewBox="0 0 640 512"><!-- Font Awesome Pro 6.0.0-alpha1 by @fontawesome - https://fontawesome.com License - https://fontawesome.com/license (Commercial License) --><path d="M608 128C604 128 600 132 600 136V312C600 343 575 368 544 368H520V136C520 132 516 128 512 128S504 132 504 136V368H424V136C424 132 420 128 416 128S408 132 408 136V368H328V136C328 132 324 128 320 128S312 132 312 136V368H232V136C232 132 228 128 224 128S216 132 216 136V368H136V136C136 132 132 128 128 128S120 132 120 136V368H96C65 368 40 343 40 312V136C40 132 36 128 32 128S24 132 24 136V312C24 352 56 384 96 384H312V496H136C132 496 128 500 128 504S132 512 136 512H504C508 512 512 508 512 504S508 496 504 496H328V384H544C584 384 616 352 616 312V136C616 132 612 128 608 128ZM64 61C64 45 43 10 39 4C36 -1 28 -1 25 4C21 10 0 45 0 61C0 80 14 96 32 96S64 80 64 61ZM16 61C16 55 24 38 32 24C40 38 48 55 48 61C48 72 41 80 32 80S16 72 16 61ZM128 96C146 96 160 80 160 61C160 45 139 10 135 4C132 -1 124 -1 121 4C117 10 96 45 96 61C96 80 110 96 128 96ZM128 24C136 38 144 55 144 61C144 72 137 80 128 80S112 72 112 61C112 55 120 38 128 24ZM224 96C242 96 256 80 256 61C256 45 235 10 231 4C228 -1 220 -1 217 4C213 10 192 45 192 61C192 80 206 96 224 96ZM224 24C232 38 240 55 240 61C240 72 233 80 224 80S208 72 208 61C208 55 216 38 224 24ZM320 96C338 96 352 80 352 61C352 45 331 10 327 4C324 -1 316 -1 313 4C309 10 288 45 288 61C288 80 302 96 320 96ZM320 24C328 38 336 55 336 61C336 72 329 80 320 80S304 72 304 61C304 55 312 38 320 24ZM416 96C434 96 448 80 448 61C448 45 427 10 423 4C420 -1 412 -1 409 4C405 10 384 45 384 61C384 80 398 96 416 96ZM416 24C424 38 432 55 432 61C432 72 425 80 416 80S400 72 400 61C400 55 408 38 416 24ZM512 96C530 96 544 80 544 61C544 45 523 10 519 4C516 -1 508 -1 505 4C501 10 480 45 480 61C480 80 494 96 512 96ZM512 24C520 38 528 55 528 61C528 72 521 80 512 80S496 72 496 61C496 55 504 38 512 24ZM615 4C612 -1 604 -1 601 4C597 10 576 45 576 61C576 80 590 96 608 96S640 80 640 61C640 45 619 10 615 4ZM608 80C599 80 592 72 592 61C592 55 600 38 608 24C616 38 624 55 624 61C624 72 617 80 608 80Z"/></svg>