<svg xmlns="http://www.w3.org/2000/svg" viewBox="0 0 512 512"><!-- Font Awesome Pro 6.0.0-alpha1 by @fontawesome - https://fontawesome.com License - https://fontawesome.com/license (Commercial License) --><path d="M329 134C326 131 321 131 318 134L256 197L194 134C191 131 186 131 182 134C179 138 179 143 182 146L245 208L182 270C179 273 179 278 182 282S191 285 194 282L256 219L318 282C321 285 326 285 330 282S333 273 330 270L267 208L330 146C333 143 333 138 329 134ZM448 0H64C29 0 0 29 0 64V352C0 387 29 416 64 416H160V500C160 507 166 512 172 512C175 512 177 511 179 510L304 416H448C483 416 512 387 512 352V64C512 29 483 0 448 0ZM496 352C496 378 474 400 448 400H299L294 403L176 492V400H64C38 400 16 378 16 352V64C16 38 38 16 64 16H448C474 16 496 38 496 64V352Z"/></svg>