<svg xmlns="http://www.w3.org/2000/svg" viewBox="0 0 512 512"><!-- Font Awesome Pro 6.0.0-alpha1 by @fontawesome - https://fontawesome.com License - https://fontawesome.com/license (Commercial License) --><path d="M346 138L232 253L174 194C171 191 165 191 162 194C159 197 159 203 162 206L226 270C228 271 230 272 232 272S236 271 238 270L358 150C361 146 361 141 358 138C355 135 349 135 346 138ZM448 0H64C29 0 0 29 0 64V352C0 387 29 416 64 416H160V500C160 507 166 512 172 512C175 512 177 511 179 510L304 416H448C483 416 512 387 512 352V64C512 29 483 0 448 0ZM496 352C496 378 474 400 448 400H299L294 403L176 492V400H64C38 400 16 378 16 352V64C16 38 38 16 64 16H448C474 16 496 38 496 64V352Z"/></svg>