<svg xmlns="http://www.w3.org/2000/svg" viewBox="0 0 512 512"><!-- Font Awesome Pro 6.0.0-alpha1 by @fontawesome - https://fontawesome.com License - https://fontawesome.com/license (Commercial License) --><path d="M256 256C260 256 264 252 264 248V104C264 100 260 96 256 96S248 100 248 104V248C248 252 252 256 256 256ZM256 288C247 288 240 295 240 304S247 320 256 320S272 313 272 304S265 288 256 288ZM448 0H64C29 0 0 29 0 64V352C0 387 29 416 64 416H160V500C160 507 166 512 172 512C175 512 177 511 179 510L304 416H448C483 416 512 387 512 352V64C512 29 483 0 448 0ZM496 352C496 378 474 400 448 400H299L294 403L176 492V400H64C38 400 16 378 16 352V64C16 38 38 16 64 16H448C474 16 496 38 496 64V352Z"/></svg>