<svg xmlns="http://www.w3.org/2000/svg" viewBox="0 0 576 512"><!-- Font Awesome Pro 6.0.0-alpha1 by @fontawesome - https://fontawesome.com License - https://fontawesome.com/license (Commercial License) --><path d="M190 80H224C235 80 245 84 253 92C256 95 261 95 264 92S267 84 264 81C253 70 239 64 224 64H216V48C216 44 212 40 208 40S200 44 200 48V64H190C168 64 150 82 150 105C150 123 162 139 179 144L232 159C243 162 250 172 250 183C250 197 239 208 226 208H192C181 208 171 204 163 196C160 193 155 193 152 196S149 204 152 207C163 218 177 224 192 224H200V240C200 244 204 248 208 248S216 244 216 240V224H226C248 224 266 206 266 183C266 165 254 149 237 144L184 129C173 126 166 116 166 105C166 91 177 80 190 80ZM416 224V64C416 29 387 0 352 0H64C29 0 0 29 0 64V224C0 259 29 288 64 288V342C64 348 69 352 74 352C76 352 78 351 79 350L162 288H352C387 288 416 259 416 224ZM157 272L153 275L80 330V272H64C38 272 16 250 16 224V64C16 38 38 16 64 16H352C378 16 400 38 400 64V224C400 250 379 272 352 272H157ZM512 160H472C468 160 464 164 464 168S468 176 472 176H512C538 176 560 198 560 224V384C560 410 538 432 512 432H464V490L391 435L387 432H256C230 432 208 410 208 384V344C208 340 204 336 200 336S192 340 192 344V384C192 419 221 448 256 448H382L465 510C466 511 468 512 470 512C475 512 480 508 480 502V448H512C547 448 576 419 576 384V224C576 189 547 160 512 160Z"/></svg>