<svg xmlns="http://www.w3.org/2000/svg" viewBox="0 0 512 512"><!-- Font Awesome Pro 6.0.0-alpha1 by @fontawesome - https://fontawesome.com License - https://fontawesome.com/license (Commercial License) --><path d="M184 112C153 112 128 137 128 168S153 224 184 224C200 224 214 217 224 207V232C224 263 199 288 168 288H160C156 288 152 292 152 296S156 304 160 304H168C208 304 240 272 240 232V168C240 137 215 112 184 112ZM184 208C162 208 144 190 144 168S162 128 184 128S224 146 224 168S206 208 184 208ZM328 112C297 112 272 137 272 168S297 224 328 224C344 224 358 217 368 207V232C368 263 343 288 312 288H304C300 288 296 292 296 296S300 304 304 304H312C352 304 384 272 384 232V168C384 137 359 112 328 112ZM328 208C306 208 288 190 288 168S306 128 328 128S368 146 368 168S350 208 328 208ZM448 0H64C29 0 0 29 0 64V352C0 387 29 416 64 416H160V500C160 507 166 512 172 512C175 512 177 511 179 510L304 416H448C483 416 512 387 512 352V64C512 29 483 0 448 0ZM496 352C496 378 474 400 448 400H299L294 403L176 492V400H64C38 400 16 378 16 352V64C16 38 38 16 64 16H448C474 16 496 38 496 64V352Z"/></svg>