<svg xmlns="http://www.w3.org/2000/svg" viewBox="0 0 512 512"><!-- Font Awesome Pro 6.0.0-alpha1 by @fontawesome - https://fontawesome.com License - https://fontawesome.com/license (Commercial License) --><path d="M352 200H264V112C264 108 260 104 256 104S248 108 248 112V200H160C156 200 152 204 152 208S156 216 160 216H248V304C248 308 252 312 256 312S264 308 264 304V216H352C356 216 360 212 360 208S356 200 352 200ZM448 0H64C29 0 0 29 0 64V352C0 387 29 416 64 416H160V500C160 507 166 512 172 512C175 512 177 511 179 510L304 416H448C483 416 512 387 512 352V64C512 29 483 0 448 0ZM496 352C496 378 474 400 448 400H299L294 403L176 492V400H64C38 400 16 378 16 352V64C16 38 38 16 64 16H448C474 16 496 38 496 64V352Z"/></svg>