<svg xmlns="http://www.w3.org/2000/svg" viewBox="0 0 512 512"><!-- Font Awesome Pro 6.0.0-alpha1 by @fontawesome - https://fontawesome.com License - https://fontawesome.com/license (Commercial License) --><path d="M448 0H64C29 0 0 29 0 64V352C0 387 29 416 64 416H160V500C160 507 166 512 172 512C175 512 177 511 179 510L304 416H448C483 416 512 387 512 352V64C512 29 483 0 448 0ZM496 352C496 378 474 400 448 400H299L294 403L176 492V400H64C38 400 16 378 16 352V64C16 38 38 16 64 16H448C474 16 496 38 496 64V352ZM224 248C224 244 220 240 216 240H72C68 240 64 244 64 248S68 256 72 256H216C220 256 224 252 224 248ZM440 240H264C260 240 256 244 256 248S260 256 264 256H440C444 256 448 252 448 248S444 240 440 240ZM152 304H72C68 304 64 308 64 312C64 316 68 320 72 320H152C156 320 160 316 160 312C160 308 156 304 152 304ZM440 304H360C356 304 352 308 352 312C352 316 356 320 360 320H440C444 320 448 316 448 312C448 308 444 304 440 304ZM312 304H200C196 304 192 308 192 312C192 316 196 320 200 320H312C316 320 320 316 320 312C320 308 316 304 312 304Z"/></svg>