<svg xmlns="http://www.w3.org/2000/svg" viewBox="0 0 512 512"><!-- Font Awesome Pro 6.0.0-alpha1 by @fontawesome - https://fontawesome.com License - https://fontawesome.com/license (Commercial License) --><path d="M238 144H272C283 144 293 148 301 156C304 159 309 159 312 156C315 153 315 148 312 145C301 134 287 128 272 128H264V104C264 100 260 96 256 96S248 100 248 104V128H238C216 128 198 146 198 169C198 187 210 203 227 208L280 223C291 226 298 236 298 247C298 261 287 272 274 272H240C229 272 219 268 211 260C208 257 203 257 200 260S197 268 200 271C211 282 225 288 240 288H248V312C248 316 252 320 256 320S264 316 264 312V288H274C296 288 314 270 314 247C314 229 302 213 285 208L232 193C221 190 214 180 214 169C214 155 225 144 238 144ZM448 0H64C29 0 0 29 0 64V352C0 387 29 416 64 416H160V500C160 507 166 512 172 512C175 512 177 511 179 510L304 416H448C483 416 512 387 512 352V64C512 29 483 0 448 0ZM496 352C496 378 474 400 448 400H299L294 403L176 492V400H64C38 400 16 378 16 352V64C16 38 38 16 64 16H448C474 16 496 38 496 64V352Z"/></svg>