<svg xmlns="http://www.w3.org/2000/svg" viewBox="0 0 512 512"><!-- Font Awesome Pro 6.0.0-alpha1 by @fontawesome - https://fontawesome.com License - https://fontawesome.com/license (Commercial License) --><path d="M448 96H336L269 6C266 2 261 0 256 0S246 2 243 6L176 96H64C29 96 0 125 0 160V448C0 483 29 512 64 512H448C483 512 512 483 512 448V160C512 125 483 96 448 96ZM496 448C496 474 474 496 448 496H64C38 496 16 474 16 448V160C16 134 38 112 64 112H184L256 16C256 16 256 16 256 16L328 112H448C474 112 496 134 496 160V448Z"/></svg>