<svg xmlns="http://www.w3.org/2000/svg" viewBox="0 0 512 512"><!-- Font Awesome Pro 6.0.0-alpha1 by @fontawesome - https://fontawesome.com License - https://fontawesome.com/license (Commercial License) --><path d="M128 176C110 176 96 190 96 208S110 240 128 240S160 226 160 208S146 176 128 176ZM128 224C119 224 112 217 112 208S119 192 128 192S144 199 144 208S137 224 128 224ZM256 176C238 176 224 190 224 208S238 240 256 240S288 226 288 208S274 176 256 176ZM256 224C247 224 240 217 240 208S247 192 256 192S272 199 272 208S265 224 256 224ZM384 176C366 176 352 190 352 208S366 240 384 240S416 226 416 208S402 176 384 176ZM384 224C375 224 368 217 368 208S375 192 384 192S400 199 400 208S393 224 384 224ZM448 0H64C29 0 0 29 0 64V352C0 387 29 416 64 416H160V500C160 507 166 512 172 512C175 512 177 511 179 510L304 416H448C483 416 512 387 512 352V64C512 29 483 0 448 0ZM496 352C496 378 474 400 448 400H299L294 403L176 492V400H64C38 400 16 378 16 352V64C16 38 38 16 64 16H448C474 16 496 38 496 64V352Z"/></svg>