<svg xmlns="http://www.w3.org/2000/svg" viewBox="0 0 512 512"><!-- Font Awesome Pro 6.0.0-alpha1 by @fontawesome - https://fontawesome.com License - https://fontawesome.com/license (Commercial License) --><path d="M479 33C457 11 429 0 400 0C371 0 343 11 321 33L277 76C259 95 249 119 246 143L13 406C-5 426 -4 456 15 475L37 497C47 507 60 512 73 512C85 512 97 508 106 499L248 374V504C248 508 252 512 256 512S264 508 264 504V360C264 360 264 360 264 359L369 266C393 263 417 253 436 234L479 191C523 147 523 77 479 33ZM95 487C89 493 81 496 73 496C63 496 55 492 48 486L26 463C13 451 13 430 25 417L254 158L354 258L95 487ZM468 180L425 223C410 238 390 247 369 250L262 143C265 122 274 102 289 87L332 44C350 26 374 16 400 16C426 16 450 26 468 44C505 82 505 142 468 180ZM310 66L446 202L458 190L322 54L310 66Z"/></svg>