<svg xmlns="http://www.w3.org/2000/svg" viewBox="0 0 576 512"><!-- Font Awesome Pro 6.0.0-alpha1 by @fontawesome - https://fontawesome.com License - https://fontawesome.com/license (Commercial License) --><path d="M528 32H48C22 32 0 54 0 80V400C0 426 22 448 48 448H528C554 448 576 426 576 400V80C576 54 554 32 528 32ZM560 400C560 418 546 432 528 432H48C30 432 16 418 16 400V80C16 62 30 48 48 48H528C546 48 560 62 560 80V400ZM390 120H122C103 120 88 135 88 154V326C88 345 103 360 122 360H390C409 360 424 345 424 326V154C424 135 409 120 390 120ZM408 326C408 336 400 344 390 344H122C112 344 104 336 104 326V154C104 144 112 136 122 136H390C400 136 408 144 408 154V326ZM496 224C478 224 464 238 464 256S478 288 496 288S528 274 528 256S514 224 496 224ZM496 272C487 272 480 265 480 256S487 240 496 240S512 247 512 256S505 272 496 272ZM496 128C478 128 464 142 464 160S478 192 496 192S528 178 528 160S514 128 496 128ZM496 176C487 176 480 169 480 160S487 144 496 144S512 151 512 160S505 176 496 176ZM128 464H64C60 464 56 468 56 472S60 480 64 480H128C132 480 136 476 136 472S132 464 128 464ZM512 464H448C444 464 440 468 440 472S444 480 448 480H512C516 480 520 476 520 472S516 464 512 464Z"/></svg>