<svg xmlns="http://www.w3.org/2000/svg" viewBox="0 0 512 512"><!-- Font Awesome Pro 6.0.0-alpha1 by @fontawesome - https://fontawesome.com License - https://fontawesome.com/license (Commercial License) --><path d="M160 320H256C274 320 288 306 288 288V64C288 46 274 32 256 32V16C256 7 249 0 240 0H176C167 0 160 7 160 16V32C142 32 128 46 128 64V288C128 306 142 320 160 320ZM144 64C144 55 151 48 160 48C169 48 176 41 176 32V16H240V32C240 41 247 48 256 48C265 48 272 55 272 64V288C272 297 265 304 256 304H160C151 304 144 297 144 288V64ZM104 416H312C316 416 320 412 320 408S316 400 312 400H104C100 400 96 404 96 408S100 416 104 416ZM168 336C164 336 160 340 160 344S164 352 168 352H248C252 352 256 348 256 344S252 336 248 336H168ZM456 448H390C448 421 488 363 488 296C488 203 413 128 320 128C316 128 312 132 312 136S316 144 320 144C404 144 472 212 472 296S404 448 320 448H56C25 448 0 473 0 504C0 508 4 512 8 512S16 508 16 504C16 482 34 464 56 464H456C478 464 496 482 496 504C496 508 500 512 504 512S512 508 512 504C512 473 487 448 456 448Z"/></svg>