<svg xmlns="http://www.w3.org/2000/svg" viewBox="0 0 640 512"><!-- Font Awesome Pro 6.0.0-alpha1 by @fontawesome - https://fontawesome.com License - https://fontawesome.com/license (Commercial License) --><path d="M480 256V200C480 196 476 192 472 192S464 196 464 200V256C464 263 463 270 462 277L477 288C479 278 480 267 480 256ZM240 96C240 52 276 16 320 16S400 52 400 96V112H328C324 112 320 116 320 120S324 128 328 128H400V176H335L355 192H400V228L416 240V96C416 43 373 0 320 0C270 0 229 39 225 88L240 100V96ZM324 352L302 334C279 328 259 312 248 291L226 273C234 318 273 352 320 352C322 352 323 352 324 352ZM440 496H328V415C349 414 369 409 387 401L373 390C356 396 339 400 320 400C241 400 176 335 176 256V234L160 221V256C160 341 228 411 312 415V496H200C196 496 192 500 192 504S196 512 200 512H440C444 512 448 508 448 504S444 496 440 496ZM637 498L13 2C12 1 10 0 8 0C6 0 3 1 2 3C-1 6 0 12 3 14L627 510C629 511 630 512 632 512C634 512 637 511 638 509C641 506 640 500 637 498Z"/></svg>