<svg xmlns="http://www.w3.org/2000/svg" viewBox="0 0 576 512"><!-- Font Awesome Pro 6.0.0-alpha1 by @fontawesome - https://fontawesome.com License - https://fontawesome.com/license (Commercial License) --><path d="M550 234C522 206 430 196 396 193L296 93V8C296 4 293 0 289 0C284 0 280 3 280 8V93L180 193C146 196 54 206 26 234C-9 268 -9 324 26 358C43 375 66 384 88 384C111 384 133 375 150 358C158 351 163 340 168 326C170 322 168 318 164 316C164 316 164 316 164 316C160 314 155 317 153 321C149 332 145 342 139 347C126 361 107 368 88 368S51 361 37 347C9 319 9 273 37 245C56 226 122 214 171 210C187 208 186 208 191 204L280 115V264C280 264 280 265 280 265C258 291 192 372 192 416C192 469 235 512 288 512S384 469 384 416C384 372 318 291 296 265C296 265 296 264 296 264V115L385 204C388 238 398 330 426 358C443 375 465 384 488 384S533 375 550 358C585 324 585 268 550 234ZM368 416C368 460 332 496 288 496C244 496 208 460 208 416C208 386 253 322 288 280C323 322 368 386 368 416ZM539 347C525 361 507 368 488 368S450 361 437 347C418 328 406 259 401 209C451 214 520 226 539 245C567 273 567 319 539 347ZM376 112C398 112 416 94 416 72S398 32 376 32S336 50 336 72S354 112 376 112ZM376 48C389 48 400 59 400 72S389 96 376 96C363 96 352 85 352 72S363 48 376 48ZM224 264C224 242 206 224 184 224S144 242 144 264S162 304 184 304S224 286 224 264ZM184 288C171 288 160 277 160 264S171 240 184 240C197 240 208 251 208 264S197 288 184 288Z"/></svg>