<svg xmlns="http://www.w3.org/2000/svg" viewBox="0 0 448 512"><!-- Font Awesome Pro 6.0.0-alpha1 by @fontawesome - https://fontawesome.com License - https://fontawesome.com/license (Commercial License) --><path d="M423 200C393 176 349 180 325 209L315 221L290 113C272 35 192 -14 114 4C75 13 43 36 22 69C1 102 -5 141 4 179L62 378C63 382 66 384 70 384C70 384 71 384 72 384C76 382 79 378 77 374L19 175C12 142 17 107 36 78C54 48 83 27 117 19C188 3 258 47 274 117L303 240C304 243 306 245 309 246C312 247 315 246 317 243L337 219C356 197 390 194 413 212C424 222 431 234 432 248C433 263 429 277 420 287L342 371C339 374 339 379 342 382C345 385 350 385 353 381L432 298C444 283 449 265 448 247C446 229 437 212 423 200ZM352 416H64C46 416 32 430 32 448V480C32 498 46 512 64 512H352C370 512 384 498 384 480V448C384 430 370 416 352 416ZM368 480C368 489 361 496 352 496H64C55 496 48 489 48 480V448C48 439 55 432 64 432H352C361 432 368 439 368 448V480Z"/></svg>