<svg xmlns="http://www.w3.org/2000/svg" viewBox="0 0 576 512"><!-- Font Awesome Pro 6.0.0-alpha1 by @fontawesome - https://fontawesome.com License - https://fontawesome.com/license (Commercial License) --><path d="M110 192H144C155 192 165 196 173 204C176 207 181 207 184 204S187 196 184 193C173 182 159 176 144 176H136V152C136 148 132 144 128 144S120 148 120 152V176H110C88 176 70 194 70 217C70 235 82 251 99 256L152 271C163 274 170 284 170 295C170 309 159 320 146 320H112C101 320 91 316 83 308C80 305 75 305 72 308S69 316 72 319C83 330 97 336 112 336H120V360C120 364 124 368 128 368S136 364 136 360V336H146C168 336 186 318 186 295C186 277 174 261 157 256L104 241C93 238 86 228 86 217C86 203 97 192 110 192ZM504 304H424C420 304 416 308 416 312S420 320 424 320H504C508 320 512 316 512 312S508 304 504 304ZM344 304H264C260 304 256 308 256 312S260 320 264 320H344C348 320 352 316 352 312S348 304 344 304ZM528 64H48C22 64 0 86 0 112V400C0 426 22 448 48 448H528C554 448 576 426 576 400V112C576 86 554 64 528 64ZM560 400C560 418 546 432 528 432H48C30 432 16 418 16 400V112C16 94 30 80 48 80H528C546 80 560 94 560 112V400ZM504 208H264C260 208 256 212 256 216S260 224 264 224H504C508 224 512 220 512 216S508 208 504 208Z"/></svg>