<svg xmlns="http://www.w3.org/2000/svg" viewBox="0 0 576 512"><!-- Font Awesome Pro 6.0.0-alpha1 by @fontawesome - https://fontawesome.com License - https://fontawesome.com/license (Commercial License) --><path d="M528 64H48C22 64 0 86 0 112V400C0 426 22 448 48 448H528C554 448 576 426 576 400V112C576 86 554 64 528 64ZM560 400C560 418 546 432 528 432H48C30 432 16 418 16 400V112C16 94 30 80 48 80H528C546 80 560 94 560 112V400ZM288 160C244 160 208 203 208 256C208 309 244 352 288 352S368 309 368 256C368 203 332 160 288 160ZM288 336C253 336 224 300 224 256S253 176 288 176C323 176 352 212 352 256S323 336 288 336Z"/></svg>