<svg xmlns="http://www.w3.org/2000/svg" viewBox="0 0 576 512"><!-- Font Awesome Pro 6.0.0-alpha1 by @fontawesome - https://fontawesome.com License - https://fontawesome.com/license (Commercial License) --><path d="M288 160C244 160 208 203 208 256S244 352 288 352C332 352 368 309 368 256C368 203 332 160 288 160ZM288 336C253 336 224 300 224 256C224 212 253 176 288 176S352 212 352 256C352 300 323 336 288 336ZM559 52C524 38 489 32 454 32H454C343 32 233 88 122 88C94 88 66 85 38 76C26 72 0 77 0 103V433C0 445 6 455 17 460C52 474 87 480 122 480C233 480 343 424 454 424C482 424 510 427 538 436C562 444 576 423 576 409V79C576 67 570 57 559 52ZM560 409C560 419 551 423 542 421C515 412 486 408 454 408C397 408 340 422 284 436C231 450 175 464 122 464C86 464 54 458 23 445C19 443 16 438 16 433V103C16 93 26 89 34 91C61 100 90 104 122 104C179 104 236 90 292 76C345 62 401 48 454 48H454C490 48 522 54 553 67C557 69 560 74 560 79V409ZM112 134C108 133 104 136 103 140C97 166 74 184 48 184C44 184 40 188 40 192S44 200 48 200C82 200 111 176 118 143C119 139 116 135 112 134ZM49 353C45 352 41 355 40 360C40 364 43 368 47 369C75 372 96 396 96 424C96 425 96 426 96 427L95 430C95 434 98 437 103 437C103 437 103 437 103 437C107 437 111 433 111 429C112 428 112 426 112 424C112 388 85 357 49 353ZM528 312C494 312 465 336 458 369C457 373 460 377 464 378C464 378 465 378 466 378C469 378 473 376 473 372C479 346 502 328 528 328C532 328 536 324 536 320S532 312 528 312ZM527 159C527 159 528 159 528 159C532 159 535 156 536 152C537 148 533 144 529 143C501 140 480 116 480 88C480 87 480 86 480 85L481 82C481 78 478 75 473 75C468 74 465 78 465 83C464 84 464 86 464 88C464 124 491 155 527 159Z"/></svg>