<svg xmlns="http://www.w3.org/2000/svg" viewBox="0 0 640 512"><!-- Font Awesome Pro 6.0.0-alpha1 by @fontawesome - https://fontawesome.com License - https://fontawesome.com/license (Commercial License) --><path d="M592 32H144C118 32 96 54 96 80V336C96 362 118 384 144 384H592C618 384 640 362 640 336V80C640 54 618 32 592 32ZM624 336C624 354 610 368 592 368H144C126 368 112 354 112 336V80C112 62 126 48 144 48H592C610 48 624 62 624 80V336ZM368 112C324 112 288 155 288 208C288 261 324 304 368 304S448 261 448 208C448 155 412 112 368 112ZM368 288C333 288 304 252 304 208S333 128 368 128S432 164 432 208S403 288 368 288ZM536 416C532 416 528 420 528 424C528 446 510 464 488 464H72C41 464 16 439 16 408V152C16 130 34 112 56 112C60 112 64 108 64 104S60 96 56 96C25 96 0 121 0 152V408C0 448 32 480 72 480H488C519 480 544 455 544 424C544 420 540 416 536 416Z"/></svg>