<svg xmlns="http://www.w3.org/2000/svg" viewBox="0 0 576 512"><!-- Font Awesome Pro 6.0.0-alpha1 by @fontawesome - https://fontawesome.com License - https://fontawesome.com/license (Commercial License) --><path d="M504 336H392C388 336 384 340 384 344S388 352 392 352H504C508 352 512 348 512 344S508 336 504 336ZM280 240H72C68 240 64 244 64 248S68 256 72 256H280C284 256 288 252 288 248S284 240 280 240ZM248 336H72C68 336 64 340 64 344S68 352 72 352H248C252 352 256 348 256 344S252 336 248 336ZM528 64H48C22 64 0 86 0 112V400C0 426 22 448 48 448H528C554 448 576 426 576 400V112C576 86 554 64 528 64ZM560 400C560 418 546 432 528 432H48C30 432 16 418 16 400V112C16 94 30 80 48 80H528C546 80 560 94 560 112V400ZM496 160H368C359 160 352 167 352 176V240C352 249 359 256 368 256H496C505 256 512 249 512 240V176C512 167 505 160 496 160ZM496 240H368V176H496V240Z"/></svg>