<svg xmlns="http://www.w3.org/2000/svg" viewBox="0 0 576 512"><!-- Font Awesome Pro 6.0.0-alpha1 by @fontawesome - https://fontawesome.com License - https://fontawesome.com/license (Commercial License) --><path d="M528 64H48C22 64 0 86 0 112V400C0 426 22 448 48 448H528C554 448 576 426 576 400V112C576 86 554 64 528 64ZM560 400C560 418 546 432 528 432H48C30 432 16 418 16 400V112C16 94 30 80 48 80H528C546 80 560 94 560 112V400ZM288 160C244 160 208 203 208 256C208 309 244 352 288 352S368 309 368 256C368 203 332 160 288 160ZM288 336C253 336 224 300 224 256S253 176 288 176C323 176 352 212 352 256S323 336 288 336ZM528 328C488 328 456 360 456 400C456 404 460 408 464 408S472 404 472 400C472 369 497 344 528 344C532 344 536 340 536 336S532 328 528 328ZM112 104C108 104 104 108 104 112C104 143 79 168 48 168C44 168 40 172 40 176S44 184 48 184C88 184 120 152 120 112C120 108 116 104 112 104ZM48 328C44 328 40 332 40 336S44 344 48 344C79 344 104 369 104 400C104 404 108 408 112 408S120 404 120 400C120 360 88 328 48 328ZM528 168C497 168 472 143 472 112C472 108 468 104 464 104S456 108 456 112C456 152 488 184 528 184C532 184 536 180 536 176S532 168 528 168Z"/></svg>