<svg xmlns="http://www.w3.org/2000/svg" viewBox="0 0 576 512"><!-- Font Awesome Pro 6.0.0-alpha1 by @fontawesome - https://fontawesome.com License - https://fontawesome.com/license (Commercial License) --><path d="M512 32H64C29 32 0 61 0 96V416C0 451 29 480 64 480H512C547 480 576 451 576 416V96C576 61 547 32 512 32ZM560 416C560 442 538 464 512 464H64C38 464 16 442 16 416V96C16 70 38 48 64 48H512C538 48 560 70 560 96V416ZM480 96H96C78 96 64 110 64 128V384C64 402 78 416 96 416H480C498 416 512 402 512 384V128C512 110 498 96 480 96ZM496 384C496 393 489 400 480 400H96C87 400 80 393 80 384V288H187L217 348C218 350 221 352 224 352H224C227 352 230 350 231 347L288 219L321 284C322 286 325 288 328 288H408C412 288 416 284 416 280S412 272 408 272H333L295 196C294 194 291 192 288 192C285 192 282 194 281 197L224 325L199 276C198 274 195 272 192 272H80V128C80 119 87 112 96 112H480C489 112 496 119 496 128V384Z"/></svg>