<svg xmlns="http://www.w3.org/2000/svg" viewBox="0 0 640 512"><!-- Font Awesome Pro 6.0.0-alpha1 by @fontawesome - https://fontawesome.com License - https://fontawesome.com/license (Commercial License) --><path d="M552 261C550 257 546 255 542 256C537 258 535 262 536 266L587 422C590 431 592 440 592 450V472C592 485 581 496 568 496S544 485 544 472L544 449L542 438L504 317C502 313 498 311 494 312C489 314 487 318 488 322L494 341L350 440H320C316 440 312 443 312 448C312 452 316 456 320 456H396C416 456 432 470 432 489C432 493 429 496 425 496H264C233 496 208 471 208 440V415C208 328 283 245 355 215C359 214 361 209 359 205C358 201 353 199 349 201C272 232 192 321 192 415V440C192 455 197 469 204 480C178 463 160 434 160 400V176C160 132 124 96 80 96S0 132 0 176V248C0 252 4 256 8 256S16 252 16 248V176C16 141 45 112 80 112S144 141 144 176V400C144 461 194 512 256 512C256 512 425 512 425 512C438 512 448 502 448 489C448 461 426 440 396 440H378L499 357L526 441L528 450V472C528 494 546 512 568 512S608 494 608 472V450C608 439 606 428 603 417L552 261ZM582 56C574 56 568 58 561 60C547 25 512 0 472 0S397 25 383 60C376 58 370 56 362 56C330 56 304 81 304 112C304 143 330 168 362 168C367 168 372 167 377 165C379 216 421 256 472 256S564 216 567 165C572 167 577 168 581 168C614 168 640 143 640 112C640 81 614 56 582 56ZM376 96V150C371 151 367 152 362 152C339 152 320 134 320 112C320 90 339 72 362 72C368 72 373 73 378 75C377 82 376 89 376 96ZM552 160C552 204 516 240 472 240S392 204 392 160V96C392 52 428 16 472 16S552 52 552 96V160ZM568 150V96C568 89 567 82 566 75C571 73 576 72 582 72C605 72 624 90 624 112C624 138 598 159 568 150ZM440 96C431 96 424 103 424 112C424 121 431 128 440 128S456 121 456 112C456 103 449 96 440 96ZM504 96C495 96 488 103 488 112C488 121 495 128 504 128S520 121 520 112C520 103 513 96 504 96Z"/></svg>