<svg xmlns="http://www.w3.org/2000/svg" viewBox="0 0 384 512"><!-- Font Awesome Pro 6.0.0-alpha1 by @fontawesome - https://fontawesome.com License - https://fontawesome.com/license (Commercial License) --><path d="M67 393C71 393 75 390 76 386L103 103C103 97 106 92 110 88L186 11C189 8 194 8 198 11L274 88C278 92 281 97 281 102L308 386C309 390 312 393 316 393C316 393 317 393 317 393C321 393 325 389 324 384L297 101C296 92 292 83 286 77L209 0C200 -9 184 -9 175 0L98 77C92 83 88 92 87 101L60 384C60 389 63 393 67 393ZM152 233C139 233 128 244 128 257V289C128 302 139 313 152 313H232C245 313 256 302 256 289V257C256 244 245 233 232 233H152ZM240 257V289C240 293 236 297 232 297H152C148 297 144 293 144 289V257C144 253 148 249 152 249H232C236 249 240 253 240 257ZM360 425H24C11 425 0 436 0 449V481C0 494 11 505 24 505H360C373 505 384 494 384 481V449C384 436 373 425 360 425ZM368 481C368 486 365 489 360 489H24C19 489 16 486 16 481V449C16 445 19 441 24 441H360C365 441 368 445 368 449V481Z"/></svg>