<svg xmlns="http://www.w3.org/2000/svg" viewBox="0 0 512 512"><!-- Font Awesome Pro 6.0.0-alpha1 by @fontawesome - https://fontawesome.com License - https://fontawesome.com/license (Commercial License) --><path d="M334 426C333 426 333 426 332 426C323 428 313 429 304 429C222 429 154 363 154 279C154 225 183 175 230 148C237 144 235 133 227 131C215 129 203 128 192 128C88 128 0 212 0 320C0 426 86 512 192 512C251 512 305 485 341 441C346 435 341 426 334 426ZM192 496C95 496 16 417 16 320C16 273 35 228 68 195C101 162 145 144 192 144C196 144 201 144 206 145C163 176 138 226 138 279C138 370 212 445 304 445C308 445 312 445 316 445C283 477 239 496 192 496ZM504 216H424V136C424 132 420 128 416 128S408 132 408 136V216H328C324 216 320 220 320 224S324 232 328 232H408V312C408 316 412 320 416 320S424 316 424 312V232H504C508 232 512 228 512 224S508 216 504 216ZM264 72H312V120C312 124 316 128 320 128S328 124 328 120V72H376C380 72 384 68 384 64S380 56 376 56H328V8C328 4 324 0 320 0S312 4 312 8V56H264C260 56 256 60 256 64S260 72 264 72Z"/></svg>