<svg xmlns="http://www.w3.org/2000/svg" viewBox="0 0 512 512"><!-- Font Awesome Pro 6.0.0-alpha1 by @fontawesome - https://fontawesome.com License - https://fontawesome.com/license (Commercial License) --><path d="M430 376C426 370 419 366 411 368C364 377 315 364 278 334C241 303 220 258 220 210C220 152 251 98 301 69C308 66 311 58 310 51C309 43 303 37 296 36C285 34 266 32 255 32C131 32 31 132 31 256S131 480 255 480C322 480 386 450 429 397C433 391 434 383 430 376ZM416 387C376 436 318 464 255 464C140 464 47 371 47 256S140 48 255 48C265 48 282 50 293 51C294 52 294 52 294 53C295 54 294 55 293 55C238 87 204 146 204 210C204 262 227 312 268 346C309 380 362 394 414 384C415 383 416 384 416 385C417 385 417 386 416 387Z"/></svg>