<svg xmlns="http://www.w3.org/2000/svg" viewBox="0 0 512 512"><!-- Font Awesome Pro 6.0.0-alpha1 by @fontawesome - https://fontawesome.com License - https://fontawesome.com/license (Commercial License) --><path d="M330 311C329 311 329 311 329 311C324 312 319 313 314 313C272 313 236 278 236 234C236 206 251 181 275 167C279 164 278 159 274 158C268 157 262 156 256 156C201 156 156 201 156 256C156 311 201 356 256 356C287 356 315 342 333 319C336 316 334 311 330 311ZM256 340C210 340 172 302 172 256C172 214 203 180 243 173C228 190 220 212 220 234C220 281 254 320 299 328C286 335 271 340 256 340ZM508 339L450 256L508 173C518 159 510 140 493 137L393 119L375 19C373 7 363 0 352 0C348 0 343 1 339 4L256 62L173 4C169 1 164 0 160 0C149 0 139 7 137 19L119 119L19 137C3 140 -6 159 4 173L62 256L4 339C-6 353 2 372 19 375L119 393L137 493C139 505 149 512 160 512C164 512 169 511 173 508L256 450L339 508C343 511 348 512 352 512C363 512 373 505 375 493L393 393L493 375C510 372 518 353 508 339ZM495 355C495 357 493 359 490 360L390 378L380 380L378 390L360 490C359 494 355 496 352 496C351 496 349 496 348 495L265 437L256 431L247 437L164 495C163 496 161 496 160 496C157 496 153 494 152 490L134 390L132 380L122 378L22 360C19 359 17 357 17 355C16 354 15 351 17 348L75 265L81 256L75 247L17 164C15 161 16 158 17 157C17 155 19 153 22 152L122 134L132 132L134 122L152 22C153 18 157 16 160 16C161 16 163 16 164 17L247 75L256 81L265 75L348 17C349 16 351 16 352 16C355 16 359 18 360 22L378 122L380 132L390 134L490 152C493 153 495 155 495 157C496 158 497 161 495 164L437 247L431 256L437 265L495 348C497 351 496 354 495 355ZM256 112C219 112 182 126 154 154C98 210 98 302 154 358C182 386 219 400 256 400S330 386 358 358C414 302 414 210 358 154C330 126 293 112 256 112ZM346 347C322 371 290 384 256 384S189 371 165 347C115 297 115 215 165 166C189 141 222 128 256 128S322 141 346 166C396 215 396 297 346 347Z"/></svg>