<svg xmlns="http://www.w3.org/2000/svg" viewBox="0 0 640 512"><!-- Font Awesome Pro 6.0.0-alpha1 by @fontawesome - https://fontawesome.com License - https://fontawesome.com/license (Commercial License) --><path d="M320 317C320 281 289 251 251 251C243 251 234 252 226 255C218 219 185 192 145 192C107 192 74 216 64 251C28 253 0 282 0 317C0 354 31 384 69 384H251C289 384 320 354 320 317ZM251 368H69C40 368 16 345 16 317S40 267 68 267C72 268 77 265 78 261C84 230 112 208 145 208C180 208 209 234 212 268C212 271 214 273 216 274C219 276 222 275 224 274C232 269 242 267 251 267C280 267 304 289 304 317S280 368 251 368ZM637 376C633 370 626 366 618 368C571 377 523 364 485 334C448 303 427 258 427 210C427 152 458 98 509 69C515 66 519 58 517 51C516 43 510 37 503 36C492 34 473 32 462 32C351 32 259 111 241 220C240 225 243 229 248 229C252 230 256 227 257 223C273 121 359 48 462 48C473 48 490 50 500 51C501 52 501 52 502 53C502 54 501 55 501 55C445 87 411 146 411 210C411 262 434 312 475 346C516 380 569 393 621 384C623 383 623 384 624 385C624 385 624 386 623 387C584 436 525 464 462 464C403 464 347 439 308 395C305 392 300 392 296 395C293 398 293 403 296 406C338 453 399 480 462 480C530 480 593 450 636 397C641 391 641 383 637 376Z"/></svg>