<svg xmlns="http://www.w3.org/2000/svg" viewBox="0 0 512 512"><!-- Font Awesome Pro 6.0.0-alpha1 by @fontawesome - https://fontawesome.com License - https://fontawesome.com/license (Commercial License) --><path d="M269 160C271 160 273 159 274 158L457 21C465 15 474 14 483 19C490 22 494 28 496 36C497 44 494 52 489 57L400 146C397 149 397 155 400 158C403 161 408 161 411 158L500 68C509 59 514 47 511 34C509 21 502 10 490 4C476 -3 460 -1 448 8L264 146C261 148 260 153 263 157C264 159 267 160 269 160ZM504 192H8C4 192 0 196 0 200S4 208 8 208H504C508 208 512 204 512 200S508 192 504 192ZM480 240C476 240 472 244 472 248C472 324 426 391 356 419C351 421 349 427 352 431C365 448 373 466 376 486C377 491 373 496 368 496H144C139 496 135 491 136 486C139 466 147 448 159 431C163 427 161 421 156 419C86 391 40 324 40 248C40 244 36 240 32 240S24 244 24 248C24 327 70 397 141 430C130 446 123 465 120 484C119 491 121 498 126 504C131 509 137 512 144 512H368C375 512 381 509 386 504C391 498 393 491 392 484C389 465 382 446 371 430C442 397 488 327 488 248C488 244 484 240 480 240Z"/></svg>