<svg xmlns="http://www.w3.org/2000/svg" viewBox="0 0 512 512"><!-- Font Awesome Pro 6.0.0-alpha1 by @fontawesome - https://fontawesome.com License - https://fontawesome.com/license (Commercial License) --><path d="M503 394L280 44C275 36 265 32 256 32C247 32 237 36 232 44L9 394C-2 411 -3 433 7 451C17 469 36 480 56 480H456C476 480 495 469 505 451C515 433 514 411 503 394ZM245 53C248 49 252 48 256 48C260 48 264 49 267 53L366 208H256C253 208 251 209 250 211L209 265L184 220C183 218 180 216 177 216H141L245 53ZM491 443C484 456 470 464 456 464H56C42 464 28 456 21 443C14 431 14 415 22 402L131 232H172L201 284C202 286 205 288 207 288C208 288 208 288 208 288C210 288 213 287 214 285L260 224H376V224L490 402C498 415 498 431 491 443Z"/></svg>