<svg xmlns="http://www.w3.org/2000/svg" viewBox="0 0 640 512"><!-- Font Awesome Pro 6.0.0-alpha1 by @fontawesome - https://fontawesome.com License - https://fontawesome.com/license (Commercial License) --><path d="M568 416C564 416 560 420 560 424C560 446 542 464 520 464H56C34 464 16 446 16 424C16 420 12 416 8 416S0 420 0 424C0 455 25 480 56 480H520C551 480 576 455 576 424C576 420 572 416 568 416ZM528 32H120C114 32 107 34 103 39S96 50 96 56V288C96 341 139 384 192 384H384C437 384 480 341 480 288V256H528C590 256 640 206 640 144S590 32 528 32ZM464 288C464 332 428 368 384 368H192C148 368 112 332 112 288V56C112 51 116 48 120 48H216V88L169 135C163 141 160 149 160 157V224C160 242 174 256 192 256H256C274 256 288 242 288 224V157C288 149 285 141 279 135L232 88V48H464V288ZM224 103L267 146C270 149 272 153 272 157V224C272 233 265 240 256 240H192C183 240 176 233 176 224V157C176 153 178 149 181 146L224 103ZM528 240H480V48H528C581 48 624 91 624 144S581 240 528 240Z"/></svg>