<svg xmlns="http://www.w3.org/2000/svg" viewBox="0 0 640 512"><!-- Font Awesome Pro 6.0.0-alpha1 by @fontawesome - https://fontawesome.com License - https://fontawesome.com/license (Commercial License) --><path d="M273 94L529 17C536 15 544 16 550 21C556 25 560 32 560 40V108L334 175L349 187L560 124V324C543 302 513 288 480 288C479 288 478 288 476 288L498 306C528 311 550 330 557 353L576 368V40C576 27 570 16 560 8C550 0 537 -2 525 2L269 78C257 82 247 91 243 103L257 114C258 105 264 97 273 94ZM240 388C223 366 193 352 160 352C107 352 64 388 64 432C64 476 107 512 160 512S256 476 256 432H256V297L240 285V388ZM160 496C116 496 80 467 80 432C80 397 116 368 160 368S240 397 240 432C240 467 204 496 160 496ZM637 498L13 2C12 1 10 0 8 0C6 0 3 1 2 3C-1 6 0 12 3 14L627 510C629 511 630 512 632 512C634 512 637 511 638 509C641 506 640 500 637 498Z"/></svg>