<svg xmlns="http://www.w3.org/2000/svg" viewBox="0 0 384 512"><!-- Font Awesome Pro 6.0.0-alpha1 by @fontawesome - https://fontawesome.com License - https://fontawesome.com/license (Commercial License) --><path d="M321 1L237 26C220 31 208 46 208 64V388C191 366 162 352 128 352C75 352 32 388 32 432C32 476 75 512 128 512S224 476 224 432H224V163L335 130C345 127 352 118 352 107V24C352 8 337 -4 321 1ZM128 496C84 496 48 467 48 432S84 368 128 368S208 397 208 432S172 496 128 496ZM336 107C336 111 334 114 330 115L224 146V64C224 54 231 44 241 41L326 16C331 15 336 19 336 24V107Z"/></svg>