<svg xmlns="http://www.w3.org/2000/svg" viewBox="0 0 448 512"><!-- Font Awesome Pro 6.0.0-alpha1 by @fontawesome - https://fontawesome.com License - https://fontawesome.com/license (Commercial License) --><path d="M440 272H384V40C384 36 380 32 376 32S368 36 368 40V272H245L79 35C77 33 73 31 70 32C66 33 64 37 64 40V272H8C4 272 0 276 0 280S4 288 8 288H64V472C64 476 68 480 72 480S80 476 80 472V288H237L369 477C371 479 373 480 376 480C377 480 378 480 378 480C382 479 384 475 384 472V288H440C444 288 448 284 448 280S444 272 440 272ZM80 272V65L225 272H80ZM368 447L256 288H368V447Z"/></svg>