<svg xmlns="http://www.w3.org/2000/svg" viewBox="0 0 640 512"><!-- Font Awesome Pro 6.0.0-alpha1 by @fontawesome - https://fontawesome.com License - https://fontawesome.com/license (Commercial License) --><path d="M526 141L619 35L592 183C591 187 594 191 599 192C599 192 599 192 600 192C604 192 607 189 608 185L640 9C640 6 639 2 635 1C632 -1 628 0 626 3L514 131C511 134 511 139 515 142C518 145 523 145 526 141ZM496 288C487 288 480 295 480 304S487 320 496 320S512 313 512 304S505 288 496 288ZM464 160C392 160 322 186 267 233L154 329C151 332 148 333 144 333C136 333 128 327 128 317V282L178 252C187 246 192 236 192 225V144C192 135 184 128 176 128C173 128 170 129 167 131L96 178H96L25 131C22 129 19 128 16 128C8 128 0 135 0 144V225C0 236 5 246 14 252L64 282V352C64 440 136 512 224 512H464C561 512 640 433 640 336C640 239 561 160 464 160ZM464 496H224C145 496 80 431 80 352V273L72 268L23 238C19 235 16 230 16 225L16 144L87 191L91 194H101L105 191L176 144V225C176 230 173 235 169 238L120 268L112 273V317C112 335 126 349 144 349C152 349 159 346 165 341L277 245C329 200 396 176 464 176C552 176 624 248 624 336C624 424 552 496 464 496Z"/></svg>