<svg xmlns="http://www.w3.org/2000/svg" viewBox="0 0 512 512"><!-- Font Awesome Pro 6.0.0-alpha1 by @fontawesome - https://fontawesome.com License - https://fontawesome.com/license (Commercial License) --><path d="M280 272H168C164 272 160 276 160 280S164 288 168 288H280C284 288 288 284 288 280S284 272 280 272ZM480 32H128C110 32 96 46 96 64V424C96 446 78 464 56 464S16 446 16 424V136C16 132 12 128 8 128S0 132 0 136V424C0 455 25 480 56 480H448C483 480 512 451 512 416V64C512 46 498 32 480 32ZM496 416C496 442 474 464 448 464H95C105 454 112 440 112 424V64C112 55 119 48 128 48H480C489 48 496 55 496 64V416ZM280 336H168C164 336 160 340 160 344S164 352 168 352H280C284 352 288 348 288 344S284 336 280 336ZM440 336H328C324 336 320 340 320 344S324 352 328 352H440C444 352 448 348 448 344S444 336 440 336ZM432 96H176C167 96 160 103 160 112V208C160 217 167 224 176 224H432C441 224 448 217 448 208V112C448 103 441 96 432 96ZM432 208H176V112H432V208ZM440 272H328C324 272 320 276 320 280S324 288 328 288H440C444 288 448 284 448 280S444 272 440 272Z"/></svg>