<svg xmlns="http://www.w3.org/2000/svg" viewBox="0 0 384 512"><!-- Font Awesome Pro 6.0.0-alpha1 by @fontawesome - https://fontawesome.com License - https://fontawesome.com/license (Commercial License) --><path d="M352 0H32C14 0 0 14 0 32V480C0 498 14 512 32 512H352C370 512 384 498 384 480V32C384 14 370 0 352 0ZM368 32V480C368 481 368 481 368 482L202 256L368 30C368 31 368 31 368 32ZM352 16C354 16 356 16 357 17L192 242L27 17C28 16 30 16 32 16H352ZM16 482C16 481 16 481 16 480V32C16 31 16 31 16 30L182 256L16 482ZM32 496C30 496 28 496 27 495L192 270L357 495C356 496 354 496 352 496H32Z"/></svg>