<svg xmlns="http://www.w3.org/2000/svg" viewBox="0 0 448 512"><!-- Font Awesome Pro 6.0.0-alpha1 by @fontawesome - https://fontawesome.com License - https://fontawesome.com/license (Commercial License) --><path d="M384 32H64C29 32 0 61 0 96V416C0 451 29 480 64 480H291C299 480 307 477 313 471L439 345C445 339 448 331 448 323V96C448 61 419 32 384 32ZM432 323C432 327 430 331 427 334L302 459C299 462 295 464 291 464H64C38 464 16 442 16 416V96C16 70 38 48 64 48H384C410 48 432 70 432 96V323ZM392 304H312C290 304 272 322 272 344V424C272 428 276 432 280 432S288 428 288 424V344C288 331 299 320 312 320H392C396 320 400 316 400 312S396 304 392 304Z"/></svg>