<svg xmlns="http://www.w3.org/2000/svg" viewBox="0 0 512 512"><!-- Font Awesome Pro 6.0.0-alpha1 by @fontawesome - https://fontawesome.com License - https://fontawesome.com/license (Commercial License) --><path d="M384 240H336V192C336 183 329 176 320 176H256C247 176 240 183 240 192V240H192C183 240 176 247 176 256V320C176 329 183 336 192 336H240V384C240 393 247 400 256 400H320C329 400 336 393 336 384V336H384C393 336 400 329 400 320V256C400 247 393 240 384 240ZM384 320H320V384H256V320H192V256H256V192H320V256H384V320ZM72 16H328C350 16 368 34 368 56C368 60 372 64 376 64S384 60 384 56C384 25 359 0 328 0H72C32 0 0 32 0 72V328C0 359 25 384 56 384C60 384 64 380 64 376S60 368 56 368C34 368 16 350 16 328V72C16 41 41 16 72 16ZM416 96H160C125 96 96 125 96 160V416C96 451 125 480 160 480H339C347 480 355 477 361 471L471 361C477 355 480 347 480 339V160C480 125 451 96 416 96ZM464 339C464 343 462 347 459 350L350 459C347 462 343 464 339 464H160C134 464 112 442 112 416V160C112 134 134 112 160 112H416C442 112 464 134 464 160V339Z"/></svg>