<svg xmlns="http://www.w3.org/2000/svg" viewBox="0 0 448 512"><!-- Font Awesome Pro 6.0.0-alpha1 by @fontawesome - https://fontawesome.com License - https://fontawesome.com/license (Commercial License) --><path d="M384 32H64C29 32 0 61 0 96V416C0 451 29 480 64 480H291C299 480 307 477 313 471L439 345C445 339 448 331 448 323V96C448 61 419 32 384 32ZM304 457V360C304 347 315 336 328 336H425L304 457ZM432 320H328C306 320 288 338 288 360V464H64C38 464 16 442 16 416V96C16 70 38 48 64 48H384C410 48 432 70 432 96V320ZM320 176H272V128C272 119 265 112 256 112H192C183 112 176 119 176 128V176H128C119 176 112 183 112 192V256C112 265 119 272 128 272H176V320C176 329 183 336 192 336H256C265 336 272 329 272 320V272H320C329 272 336 265 336 256V192C336 183 329 176 320 176ZM320 256H256V320H192V256H128V192H192V128H256V192H320V256Z"/></svg>