<svg xmlns="http://www.w3.org/2000/svg" viewBox="0 0 512 512"><!-- Font Awesome Pro 6.0.0-alpha1 by @fontawesome - https://fontawesome.com License - https://fontawesome.com/license (Commercial License) --><path d="M288 248V168C288 146 270 128 248 128H136C114 128 96 146 96 168V248C96 270 114 288 136 288H248C270 288 288 270 288 248ZM112 248V168C112 155 123 144 136 144H248C261 144 272 155 272 168V248C272 261 261 272 248 272H136C123 272 112 261 112 248ZM480 128C498 128 512 114 512 96V64C512 46 498 32 480 32H448C430 32 416 46 416 64V72H96V64C96 46 82 32 64 32H32C14 32 0 46 0 64V96C0 114 14 128 32 128H40V384H32C14 384 0 398 0 416V448C0 466 14 480 32 480H64C82 480 96 466 96 448V440H416V448C416 466 430 480 448 480H480C498 480 512 466 512 448V416C512 398 498 384 480 384H472V128H480ZM432 64C432 55 439 48 448 48H480C489 48 496 55 496 64V96C496 105 489 112 480 112H448C439 112 432 105 432 96V64ZM32 112C23 112 16 105 16 96V64C16 55 23 48 32 48H64C73 48 80 55 80 64V96C80 105 73 112 64 112H32ZM80 448C80 457 73 464 64 464H32C23 464 16 457 16 448V416C16 407 23 400 32 400H64C73 400 80 407 80 416V448ZM480 400C489 400 496 407 496 416V448C496 457 489 464 480 464H448C439 464 432 457 432 448V416C432 407 439 400 448 400H480ZM456 384H448C430 384 416 398 416 416V424H96V416C96 398 82 384 64 384H56V128H64C82 128 96 114 96 96V88H416V96C416 114 430 128 448 128H456V384ZM416 264V344C416 366 398 384 376 384H264C242 384 224 366 224 344V320C224 316 228 312 232 312S240 316 240 320V344C240 357 251 368 264 368H376C389 368 400 357 400 344V264C400 251 389 240 376 240H320C316 240 312 236 312 232S316 224 320 224H376C398 224 416 242 416 264Z"/></svg>