<svg xmlns="http://www.w3.org/2000/svg" viewBox="0 0 640 512"><!-- Font Awesome Pro 6.0.0-alpha1 by @fontawesome - https://fontawesome.com License - https://fontawesome.com/license (Commercial License) --><path d="M352 320C352 338 366 352 384 352H416C434 352 448 338 448 320V288C448 270 434 256 416 256H408V96H416C434 96 448 82 448 64V32C448 14 434 0 416 0H384C366 0 352 14 352 32V40H96V32C96 14 82 0 64 0H32C14 0 0 14 0 32V64C0 82 14 96 32 96H40V256H32C14 256 0 270 0 288V320C0 338 14 352 32 352H64C82 352 96 338 96 320V312H352V320ZM416 272C425 272 432 279 432 288V320C432 329 425 336 416 336H384C375 336 368 329 368 320V288C368 279 375 272 384 272H416ZM368 32C368 23 375 16 384 16H416C425 16 432 23 432 32V64C432 73 425 80 416 80H384C375 80 368 73 368 64V32ZM32 80C23 80 16 73 16 64V32C16 23 23 16 32 16H64C73 16 80 23 80 32V64C80 73 73 80 64 80H32ZM80 320C80 329 73 336 64 336H32C23 336 16 329 16 320V288C16 279 23 272 32 272H64C73 272 80 279 80 288V320ZM96 296V288C96 270 82 256 64 256H56V96H64C82 96 96 82 96 64V56H352V64C352 82 366 96 384 96H392V256H384C366 256 352 270 352 288V296H96ZM608 256C626 256 640 242 640 224V192C640 174 626 160 608 160H576C558 160 544 174 544 192V200H448C444 200 440 204 440 208S444 216 448 216H544V224C544 242 558 256 576 256H584V416H576C558 416 544 430 544 448V456H288V448C288 430 274 416 256 416H248V352C248 348 244 344 240 344S232 348 232 352V416H224C206 416 192 430 192 448V480C192 498 206 512 224 512H256C274 512 288 498 288 480V472H544V480C544 498 558 512 576 512H608C626 512 640 498 640 480V448C640 430 626 416 608 416H600V256H608ZM272 480C272 489 265 496 256 496H224C215 496 208 489 208 480V448C208 439 215 432 224 432H256C265 432 272 439 272 448V480ZM608 432C617 432 624 439 624 448V480C624 489 617 496 608 496H576C567 496 560 489 560 480V448C560 439 567 432 576 432H608ZM576 240C567 240 560 233 560 224V192C560 183 567 176 576 176H608C617 176 624 183 624 192V224C624 233 617 240 608 240H576Z"/></svg>