<svg xmlns="http://www.w3.org/2000/svg" viewBox="0 0 512 512"><!-- Font Awesome Pro 6.0.0-alpha1 by @fontawesome - https://fontawesome.com License - https://fontawesome.com/license (Commercial License) --><path d="M483 157L355 29C346 21 335 16 323 16H189C177 16 166 21 157 29L29 157C21 166 16 177 16 189V323C16 335 21 346 29 355L157 483C166 491 177 496 189 496H323C335 496 346 491 355 483L483 355C491 346 496 335 496 323V189C496 177 491 166 483 157ZM480 323C480 331 477 338 471 343L344 471C338 477 331 480 323 480H189C181 480 174 477 169 471L41 344C35 338 32 331 32 323V189C32 181 35 174 41 169L168 41C174 35 181 32 189 32H323C331 32 338 35 343 41L471 168C477 174 480 181 480 189V323ZM376 248H136C132 248 128 252 128 256S132 264 136 264H376C380 264 384 260 384 256S380 248 376 248Z"/></svg>