<svg xmlns="http://www.w3.org/2000/svg" viewBox="0 0 576 512"><!-- Font Awesome Pro 6.0.0-alpha1 by @fontawesome - https://fontawesome.com License - https://fontawesome.com/license (Commercial License) --><path d="M569 464C539 461 511 446 486 419C484 417 482 416 480 416H480C478 416 476 417 474 419C447 448 416 464 385 464H384C352 464 321 448 294 419C292 417 290 416 288 416H288C286 416 284 417 282 419C255 448 224 464 193 464H192C160 464 129 448 102 419C100 417 98 416 96 416H96C94 416 92 417 90 419C65 446 37 462 7 464C3 464 0 468 0 472C0 477 3 480 9 480C40 477 70 462 96 436C125 465 158 480 192 480H193C227 480 260 465 288 436C317 465 350 480 384 480H385C419 480 452 465 480 436C506 462 536 477 567 480C573 480 576 477 576 472C576 468 573 464 569 464ZM288 384C323 384 352 355 352 320C352 287 327 261 296 257C296 256 296 256 296 256V144H376C380 144 384 140 384 136S380 128 376 128H296V72C296 59 307 48 320 48H376C380 48 384 44 384 40S380 32 376 32H320C298 32 280 50 280 72V256C280 256 280 256 280 257C249 261 224 287 224 320C224 355 253 384 288 384ZM288 272C314 272 336 294 336 320S314 368 288 368S240 346 240 320S262 272 288 272ZM9 352C40 350 70 334 96 308C122 334 152 349 183 352C188 352 192 349 192 344C192 340 189 336 185 336C155 334 127 318 102 291C100 289 98 288 96 288H96C94 288 92 289 90 291C65 318 37 334 7 336C3 336 0 340 0 345C0 349 3 352 9 352ZM393 352C424 349 454 334 480 308C506 334 536 350 567 352C573 352 576 349 576 345C576 340 573 336 569 336C539 334 511 318 486 291C484 289 482 288 480 288H480C478 288 476 289 474 291C449 318 420 334 391 336C387 336 384 340 384 344C384 349 388 352 393 352Z"/></svg>