<svg xmlns="http://www.w3.org/2000/svg" viewBox="0 0 512 512"><!-- Font Awesome Pro 6.0.0-alpha1 by @fontawesome - https://fontawesome.com License - https://fontawesome.com/license (Commercial License) --><path d="M355 107C359 110 363 112 368 112C373 112 377 110 381 107L403 85C406 81 408 77 408 72C408 67 406 63 403 59L381 37C374 30 362 30 355 37L333 59C330 63 328 67 328 72C328 77 330 81 333 85L355 107ZM345 70L366 49C367 48 369 48 370 49L391 70C392 71 392 71 392 72S392 73 391 74L370 95C369 96 367 96 366 95L345 74C344 73 344 73 344 72S344 71 345 70ZM424 200H421C390 200 360 212 338 234C319 253 293 264 267 264H198C223 247 240 219 240 188C240 137 197 96 144 96C114 96 86 109 67 133C65 136 65 141 69 144C72 147 77 146 80 142C95 123 119 112 144 112C188 112 224 146 224 188C224 230 188 264 144 264C140 264 136 268 136 272C136 276 140 280 144 280H160C223 280 272 320 272 372C272 423 220 464 157 464C96 464 41 418 32 360C31 355 27 352 23 353C18 354 15 358 16 362C26 428 88 480 157 480C229 480 288 432 288 372C288 332 264 299 227 280H267C298 280 328 267 350 246C369 227 395 216 421 216H424C455 216 480 241 480 272V376C480 407 455 432 424 432H400C378 432 359 420 349 401L335 372C333 368 328 367 324 369C320 371 319 376 321 380L335 408C347 433 372 448 400 448H424C464 448 496 416 496 376V272C496 232 464 200 424 200ZM285 135L325 151C340 157 357 160 373 160C396 160 420 154 441 141L452 135C456 133 457 128 455 124C453 120 448 119 444 121L433 127C401 146 365 149 331 136L291 120C287 119 282 121 281 125C279 129 281 134 285 135Z"/></svg>