<svg xmlns="http://www.w3.org/2000/svg" viewBox="0 0 384 512"><!-- Font Awesome Pro 6.0.0-alpha1 by @fontawesome - https://fontawesome.com License - https://fontawesome.com/license (Commercial License) --><path d="M288 154V112C288 99 277 88 264 88H229C238 79 244 66 244 52C244 23 221 0 192 0S140 23 140 52C140 66 146 79 155 88H120C107 88 96 99 96 112V154C39 187 0 249 0 320C0 426 86 512 192 512S384 426 384 320C384 249 345 187 288 154ZM192 16C212 16 228 32 228 52S212 88 192 88C172 88 156 72 156 52S172 16 192 16ZM112 112C112 108 116 104 120 104H264C268 104 272 108 272 112V144H112V112ZM119 160H265C304 178 335 209 352 248H32C49 209 80 178 119 160ZM192 496C121 496 59 453 32 392H352C325 453 263 496 192 496ZM359 376H25C19 358 16 340 16 320C16 300 20 282 25 264H359C364 282 368 300 368 320C368 340 365 358 359 376Z"/></svg>