<svg xmlns="http://www.w3.org/2000/svg" viewBox="0 0 448 512"><!-- Font Awesome Pro 6.0.0-alpha1 by @fontawesome - https://fontawesome.com License - https://fontawesome.com/license (Commercial License) --><path d="M8 72H440C444 72 448 68 448 64S444 56 440 56H8C4 56 0 60 0 64S4 72 8 72ZM440 440H8C4 440 0 444 0 448S4 456 8 456H440C444 456 448 452 448 448S444 440 440 440ZM440 312H200C196 312 192 316 192 320S196 328 200 328H440C444 328 448 324 448 320S444 312 440 312ZM440 184H200C196 184 192 188 192 192S196 200 200 200H440C444 200 448 196 448 192S444 184 440 184ZM115 350C117 351 118 352 120 352C121 352 122 352 123 351C126 350 128 347 128 344V168C128 165 126 162 123 161C121 159 117 160 115 162L3 250C1 251 0 254 0 256S1 261 3 262L115 350ZM112 184V328L21 256L112 184Z"/></svg>