<svg xmlns="http://www.w3.org/2000/svg" viewBox="0 0 512 512"><!-- Font Awesome Pro 6.0.0-alpha1 by @fontawesome - https://fontawesome.com License - https://fontawesome.com/license (Commercial License) --><path d="M278 371C274 371 270 376 271 380C275 408 266 435 247 455C220 481 164 496 89 496H38C26 496 16 486 16 474C16 462 26 452 38 452C56 452 71 446 81 435C90 426 94 413 93 400C90 374 100 348 119 329C133 315 153 306 175 304C179 304 182 300 182 295C181 291 178 288 173 288C148 290 125 301 107 318C85 340 74 370 77 401C78 410 75 418 69 425C62 432 51 436 38 436C17 436 0 453 0 474C0 495 17 512 38 512H89C145 512 220 504 258 466C281 443 292 411 287 378C286 373 282 370 278 371ZM498 19C488 8 474 1 459 0C444 -1 430 4 418 14L223 187C217 193 211 200 206 207C201 215 197 225 195 235C191 249 197 265 209 274L286 336C293 342 302 345 311 345C317 345 323 343 329 340C343 333 355 322 364 308L503 87C517 66 514 38 498 19ZM490 79L351 299C343 311 333 320 321 326C313 330 303 329 296 323L219 262C212 256 208 247 210 238C212 230 215 222 220 215C224 209 229 204 234 199L429 26C437 20 446 16 455 16C456 16 457 16 458 16C469 17 479 22 486 30C498 43 499 63 490 79Z"/></svg>