<svg xmlns="http://www.w3.org/2000/svg" viewBox="0 0 576 512"><!-- Font Awesome Pro 6.0.0-alpha1 by @fontawesome - https://fontawesome.com License - https://fontawesome.com/license (Commercial License) --><path d="M576 62C576 45 570 30 558 18C534 -6 495 -6 471 18L199 289C165 284 131 295 107 319C85 341 74 371 77 402C77 411 75 419 69 425C62 432 51 437 38 437C17 437 0 453 0 474C0 495 17 512 38 512H89C145 512 219 504 257 466C281 443 292 409 287 377L558 105C570 94 576 78 576 62ZM246 455C219 481 163 496 89 496H38C26 496 16 486 16 474C16 462 26 453 38 453C56 453 71 447 81 436C90 426 94 414 92 400C90 374 100 349 118 330C135 313 158 304 182 304C187 304 193 305 198 306L270 378L270 378C275 406 266 434 246 455ZM278 363L213 298L282 229L347 294L278 363ZM358 283L293 218L482 29C500 12 529 12 547 29C564 47 564 76 547 94L358 283Z"/></svg>