<svg xmlns="http://www.w3.org/2000/svg" viewBox="0 0 512 512"><!-- Font Awesome Pro 6.0.0-alpha1 by @fontawesome - https://fontawesome.com License - https://fontawesome.com/license (Commercial License) --><path d="M256 0C239 0 222 2 204 5C105 24 25 104 5 203C-29 379 116 512 239 512C248 512 256 511 264 510C305 504 325 456 306 418C283 373 316 320 367 320H447C483 320 512 290 512 255C512 114 397 0 256 0ZM447 304H367C338 304 311 319 295 344C280 369 279 400 292 426C300 440 299 457 292 471C288 479 279 492 262 494C254 495 247 496 239 496C180 496 116 462 72 409C24 351 6 279 21 207C39 114 114 39 207 21C224 18 240 16 256 16C388 16 496 123 496 255C496 282 474 304 447 304ZM96 248C74 248 56 266 56 288S74 328 96 328S136 310 136 288S118 248 96 248ZM96 312C83 312 72 301 72 288S83 264 96 264S120 275 120 288S109 312 96 312ZM128 120C106 120 88 138 88 160S106 200 128 200S168 182 168 160S150 120 128 120ZM128 184C115 184 104 173 104 160S115 136 128 136S152 147 152 160S141 184 128 184ZM256 56C234 56 216 74 216 96S234 136 256 136S296 118 296 96S278 56 256 56ZM256 120C243 120 232 109 232 96S243 72 256 72S280 83 280 96S269 120 256 120ZM384 120C362 120 344 138 344 160S362 200 384 200S424 182 424 160S406 120 384 120ZM384 184C371 184 360 173 360 160S371 136 384 136S408 147 408 160S397 184 384 184Z"/></svg>