<svg xmlns="http://www.w3.org/2000/svg" viewBox="0 0 512 512"><!-- Font Awesome Pro 6.0.0-alpha1 by @fontawesome - https://fontawesome.com License - https://fontawesome.com/license (Commercial License) --><path d="M493 227L45 35C41 33 36 32 32 32C23 32 15 35 9 42C-1 52 -3 66 3 78L96 256L3 434C-3 446 0 460 9 470C15 477 23 480 32 480C36 480 41 479 45 477L493 285C504 280 512 269 512 256S504 232 493 227ZM18 71C15 65 16 58 20 53C23 50 28 48 32 48C34 48 36 48 38 49L486 241C490 243 492 245 494 248H110L18 71ZM486 271L38 463C36 464 34 464 32 464C28 464 23 462 20 459C16 454 15 447 18 441L110 264H494C492 267 490 269 486 271Z"/></svg>