<svg xmlns="http://www.w3.org/2000/svg" viewBox="0 0 512 512"><!-- Font Awesome Pro 6.0.0-alpha1 by @fontawesome - https://fontawesome.com License - https://fontawesome.com/license (Commercial License) --><path d="M498 6C493 2 486 0 480 0C475 0 469 1 464 4L16 260C6 266 -1 278 0 290S8 313 20 318L123 361L185 507L185 507C186 509 187 511 189 511C190 512 191 512 192 512C194 512 196 511 198 510L283 427L404 478C408 479 412 480 416 480C421 480 427 479 432 476C440 471 446 463 448 453L512 37C513 25 508 13 498 6ZM16 289C16 283 19 277 24 274L472 18C473 18 474 18 475 17L125 344L26 303C20 300 16 295 16 289ZM412 98L186 379C185 380 184 382 184 384V464L138 354L412 98ZM200 485V393L267 421L200 485ZM432 450C431 455 428 460 424 462C421 463 419 464 416 464C414 464 412 464 410 463L207 378L493 23C495 26 496 30 496 34L432 450Z"/></svg>