<svg xmlns="http://www.w3.org/2000/svg" viewBox="0 0 384 512"><!-- Font Awesome Pro 6.0.0-alpha1 by @fontawesome - https://fontawesome.com License - https://fontawesome.com/license (Commercial License) --><path d="M376 408H31L125 334C128 332 129 327 126 323C124 320 118 319 115 322L3 410C1 411 0 414 0 416S1 421 3 422L115 510C117 511 118 512 120 512C122 512 125 511 126 509C129 505 128 500 125 498L31 424H376C380 424 384 420 384 416S380 408 376 408ZM144 224H184V312C184 316 188 320 192 320S200 316 200 312V16H280V312C280 316 284 320 288 320S296 316 296 312V16H344C348 16 352 12 352 8S348 0 344 0H144C82 0 32 50 32 112S82 224 144 224ZM144 16H184V208H144C91 208 48 165 48 112S91 16 144 16Z"/></svg>