<svg xmlns="http://www.w3.org/2000/svg" viewBox="0 0 512 512"><!-- Font Awesome Pro 6.0.0-alpha1 by @fontawesome - https://fontawesome.com License - https://fontawesome.com/license (Commercial License) --><path d="M503 247L409 153C403 147 395 144 387 144H256C230 144 208 166 208 192V464C208 490 230 512 256 512H464C490 512 512 490 512 464V269C512 261 509 253 503 247ZM400 167L489 256H424C411 256 400 245 400 232V167ZM496 464C496 482 482 496 464 496H256C238 496 224 482 224 464V192C224 174 238 160 256 160H384V232C384 254 402 272 424 272H496V464ZM16 400V112C16 94 30 80 48 80H64V88C64 101 75 112 88 112H232C245 112 256 101 256 88V80H272C287 80 300 91 303 105C304 109 307 112 311 112H311C316 112 320 108 319 103C315 81 295 64 272 64H256V56C256 43 245 32 232 32H205C198 13 181 0 160 0S122 13 115 32H88C75 32 64 43 64 56V64H48C22 64 0 86 0 112V400C0 426 22 448 48 448H168C172 448 176 444 176 440L176 440C176 436 172 432 168 432H48C30 432 16 418 16 400ZM80 56C80 52 84 48 88 48H115H126L130 37C135 25 147 16 160 16S185 25 190 37L194 48H205H232C236 48 240 52 240 56V88C240 92 236 96 232 96H88C84 96 80 92 80 88V56Z"/></svg>