<svg xmlns="http://www.w3.org/2000/svg" viewBox="0 0 512 512"><!-- Font Awesome Pro 6.0.0-alpha1 by @fontawesome - https://fontawesome.com License - https://fontawesome.com/license (Commercial License) --><path d="M318 191C322 192 326 192 329 192C357 192 385 165 396 127C408 83 392 42 362 33C358 32 354 32 351 32C323 32 295 59 284 97C272 141 288 182 318 191ZM299 101C308 71 330 48 351 48C353 48 355 48 357 49C367 51 373 59 376 64C385 79 386 101 381 123C372 153 350 176 329 176C327 176 325 176 323 175C313 173 307 165 304 160C295 145 294 123 299 101ZM475 161C471 160 468 160 464 160C438 160 412 181 403 211C393 246 408 280 437 287C441 288 444 288 448 288C474 288 500 267 509 237C519 202 504 168 475 161ZM493 232C486 255 467 272 448 272C446 272 443 272 441 271C431 269 425 262 422 256C415 245 414 231 419 216C425 193 445 176 464 176C466 176 469 176 471 177C481 179 487 186 490 192C497 203 498 217 493 232ZM183 192C186 192 190 192 194 191C224 182 240 141 228 97C218 59 189 32 161 32C158 32 154 32 150 33C120 42 104 83 116 127C127 165 155 192 183 192ZM136 64C139 59 145 51 155 49C157 48 159 48 161 48C182 48 204 71 213 101C218 123 217 145 208 160C205 165 199 173 189 175C187 176 185 176 183 176C162 176 140 153 131 123C126 101 127 79 136 64ZM75 287C104 280 119 246 109 211C100 181 74 160 48 160C44 160 41 160 37 161C8 168 -7 202 3 237C12 267 38 288 64 288C68 288 71 288 75 287ZM19 232C14 217 15 203 22 192C25 186 31 179 41 177C43 176 46 176 48 176C67 176 87 193 93 216C98 231 97 245 90 256C87 262 81 269 71 271C69 272 66 272 64 272C45 272 25 255 19 232ZM256 224C177 224 64 347 64 424C64 459 91 480 136 480C185 480 217 455 256 455C295 455 328 480 376 480C421 480 448 459 448 424C448 347 335 224 256 224ZM376 464C353 464 334 458 315 451C296 445 277 439 256 439C235 439 216 445 198 451C179 458 159 464 136 464C115 464 80 459 80 424C80 354 189 240 256 240S432 354 432 424C432 459 397 464 376 464Z"/></svg>