<svg xmlns="http://www.w3.org/2000/svg" viewBox="0 0 512 512"><!-- Font Awesome Pro 6.0.0-alpha1 by @fontawesome - https://fontawesome.com License - https://fontawesome.com/license (Commercial License) --><path d="M427 0C408 0 387 8 369 28L160 256L95 278C76 284 60 300 54 319L1 488C-1 494 1 502 6 506H6C10 511 18 513 24 511L193 458C212 452 228 436 234 417L256 352L483 142C548 85 491 0 427 0ZM219 412C214 426 203 438 188 442L31 492L106 417C113 421 120 424 128 424C150 424 168 406 168 384S150 344 128 344S88 362 88 384C88 392 91 399 95 406L20 481L70 324C74 309 86 298 100 293L164 271L241 348L219 412ZM104 384C104 371 115 360 128 360C141 360 152 371 152 384S141 408 128 408C115 408 104 397 104 384ZM473 131L251 335L177 261L381 39C395 24 410 16 427 16C454 16 482 36 492 63C497 77 502 105 473 131Z"/></svg>