<svg xmlns="http://www.w3.org/2000/svg" viewBox="0 0 640 512"><!-- Font Awesome Pro 6.0.0-alpha1 by @fontawesome - https://fontawesome.com License - https://fontawesome.com/license (Commercial License) --><path d="M374 97L479 202L430 251L443 261L562 142C581 123 581 93 562 74L502 14C492 5 480 0 468 0C456 0 443 5 434 14L300 148L313 158L374 97ZM445 25C451 19 459 16 468 16C476 16 484 19 491 25L551 85C563 98 563 118 551 131L490 191L385 86L445 25ZM212 470L80 496L106 364L210 261L197 251L95 353C93 355 91 358 91 361L64 493C62 503 70 512 80 512C81 512 82 512 83 512L215 485C218 485 221 483 223 481L340 364L327 354L212 470ZM637 498L13 2C12 1 10 0 8 0C6 0 3 1 2 3C-1 6 0 12 3 14L627 510C629 511 630 512 632 512C634 512 637 511 638 509C641 506 640 500 637 498Z"/></svg>