<svg xmlns="http://www.w3.org/2000/svg" viewBox="0 0 640 512"><!-- Font Awesome Pro 6.0.0-alpha1 by @fontawesome - https://fontawesome.com License - https://fontawesome.com/license (Commercial License) --><path d="M303 60C312 51 328 51 337 60L362 86L300 148L313 158L374 97L479 202L430 251L443 261L562 142C581 123 581 93 562 74L502 14C492 5 480 0 468 0S443 5 434 14L374 74L348 49C333 33 307 33 292 49L240 101L253 111L303 60ZM445 25C451 19 459 16 468 16C476 16 484 19 491 25L551 86C557 92 560 100 560 108C560 117 557 125 551 131L490 191L385 86L445 25ZM275 407C225 457 159 488 88 496C85 496 83 494 82 493C81 492 80 490 80 487L80 486C88 417 120 351 169 301L210 261L197 251L158 290C106 342 72 411 64 485V485C63 500 74 512 88 512C89 512 90 512 91 512C164 504 233 471 286 418L340 364L327 354L275 407ZM637 498L13 2C12 1 10 0 8 0C6 0 3 1 2 3C-1 6 0 12 3 14L627 510C629 511 630 512 632 512C634 512 637 511 638 509C641 506 640 500 637 498Z"/></svg>