<svg xmlns="http://www.w3.org/2000/svg" viewBox="0 0 512 512"><!-- Font Awesome Pro 6.0.0-alpha1 by @fontawesome - https://fontawesome.com License - https://fontawesome.com/license (Commercial License) --><path d="M496 74L438 15C417 -5 381 -5 361 15L284 89L138 134C116 141 98 158 91 180L0 502C0 505 0 508 2 510C4 511 6 512 8 512C9 512 9 512 10 512L332 421C354 414 371 396 377 374L423 228L496 151C506 141 512 127 512 112S506 84 496 74ZM362 369C357 387 344 400 327 406L35 488L175 349C184 356 195 360 208 360C239 360 264 335 264 304S239 248 208 248S152 273 152 304C152 316 156 328 163 337L24 477L106 185C112 168 125 155 143 150C143 150 143 150 143 150L286 105L407 226L362 369ZM168 304C168 282 186 264 208 264C230 264 248 282 248 304C248 326 230 344 208 344C186 344 168 326 168 304ZM485 140L416 212L299 96L372 27C387 12 412 12 427 27L485 85C492 92 496 102 496 112C496 123 492 132 485 140Z"/></svg>