<svg xmlns="http://www.w3.org/2000/svg" viewBox="0 0 512 512"><!-- Font Awesome Pro 6.0.0-alpha1 by @fontawesome - https://fontawesome.com License - https://fontawesome.com/license (Commercial License) --><path d="M240 480C117 480 16 380 16 256S117 32 240 32C267 32 293 37 317 46L329 33C302 22 272 16 240 16C108 16 0 124 0 256S108 496 240 496C244 496 248 492 248 488S244 480 240 480ZM450 179C459 203 464 229 464 256C464 325 408 381 339 381C303 381 271 365 248 341L231 344C257 376 295 397 339 397C417 397 480 334 480 256C480 224 474 194 463 167L450 179ZM483 39L457 13C449 4 437 0 426 0C415 0 404 4 395 13L200 208C197 211 195 215 194 220L176 307C175 314 180 320 187 320C188 320 188 320 189 320L276 302C281 301 285 299 288 296L483 101C500 84 500 56 483 39ZM276 285C276 286 274 286 273 287L193 303L209 223C210 222 210 220 211 220L362 69L427 134L276 285ZM472 90L438 123L373 58L406 24C412 19 419 16 426 16C434 16 441 19 446 24L472 50C477 55 480 62 480 70C480 77 477 84 472 90Z"/></svg>