<svg xmlns="http://www.w3.org/2000/svg" viewBox="0 0 640 512"><!-- Font Awesome Pro 6.0.0-alpha1 by @fontawesome - https://fontawesome.com License - https://fontawesome.com/license (Commercial License) --><path d="M568 279C564 279 560 283 560 287V440C560 471 535 496 504 496H72C41 496 16 471 16 440V200C16 169 41 144 72 144H288C292 144 296 140 296 136S292 128 288 128H72C32 128 0 160 0 200V440C0 480 32 512 72 512H504C544 512 576 480 576 440V287C576 283 572 279 568 279ZM626 33L607 14C597 5 585 0 573 0C560 0 548 5 539 14L314 239C309 244 306 249 305 255C300 279 288 339 288 339C287 346 292 352 299 352C300 352 300 352 301 352L385 335C391 334 396 331 401 326L598 129L626 101C645 83 645 52 626 33ZM390 315C387 317 385 319 381 319L305 335L321 258C321 255 323 253 325 250L498 77L563 142L390 315ZM615 90L587 118L574 131L509 66L550 25C556 19 564 16 573 16C581 16 589 19 595 25L615 45C621 51 624 59 624 67C624 76 621 84 615 90ZM112 320C112 329 119 336 128 336S144 329 144 320C144 311 137 304 128 304S112 311 112 320ZM208 320C208 329 215 336 224 336C233 336 240 329 240 320C240 311 233 304 224 304C215 304 208 311 208 320Z"/></svg>