<svg xmlns="http://www.w3.org/2000/svg" viewBox="0 0 576 512"><!-- Font Awesome Pro 6.0.0-alpha1 by @fontawesome - https://fontawesome.com License - https://fontawesome.com/license (Commercial License) --><path d="M530 59L485 14C475 5 463 0 451 0S426 5 417 14L58 373C54 377 51 383 49 390L32 487C30 500 40 512 53 512C54 512 56 512 57 512L154 495C161 493 167 490 171 486L530 127C549 108 549 78 530 59ZM160 474C158 477 155 478 152 479L53 496C51 496 50 495 49 494C48 493 48 492 48 490L65 392C66 389 67 386 70 384L349 104L440 195L160 474ZM519 116L451 184L360 93L428 25C434 19 442 16 451 16S467 19 473 25L519 71C525 77 528 85 528 93S525 110 519 116ZM155 220L31 95C14 79 11 51 26 33C44 12 75 10 94 29L220 155C223 158 228 158 231 155L231 155C234 152 234 147 231 144L107 20C83 -5 42 -6 18 18C5 31 -1 48 0 66C1 81 9 96 20 107L144 231C147 234 152 234 155 231L155 231C158 228 158 223 155 220ZM538 437C525 437 514 432 507 425C501 419 499 411 499 402C502 371 491 341 469 319C454 304 436 295 416 291C414 290 411 291 409 293L409 293C405 297 407 305 413 306C433 310 451 321 464 337C479 355 485 378 483 401C483 414 487 426 495 436C505 447 520 453 538 453C550 453 560 462 560 474C560 486 550 496 538 496H487C413 496 357 481 330 455C318 443 310 428 307 413C305 407 298 405 294 409L294 409C292 411 291 414 291 416C296 435 305 452 319 466C357 504 431 512 487 512H538C559 512 576 495 576 474C576 453 559 437 538 437Z"/></svg>