<svg xmlns="http://www.w3.org/2000/svg" viewBox="0 0 512 512"><!-- Font Awesome Pro 6.0.0-alpha1 by @fontawesome - https://fontawesome.com License - https://fontawesome.com/license (Commercial License) --><path d="M498 59L453 14C443 5 431 0 419 0S394 5 385 14L26 373C22 377 19 383 17 390L0 487C-2 500 8 512 21 512C22 512 24 512 25 512L122 495C129 493 135 490 140 486L498 127C517 108 517 78 498 59ZM80 341L317 104L408 195L171 432H80V341ZM128 474C126 477 123 478 120 479L21 496C19 496 18 495 17 494C17 493 16 492 16 490L33 392C34 389 35 386 38 384L64 357V440C64 444 68 448 72 448H155L128 474ZM487 116L419 184L328 93L396 25C402 19 410 16 419 16S435 19 441 25L487 71C493 77 496 85 496 93C496 102 493 110 487 116Z"/></svg>