<svg xmlns="http://www.w3.org/2000/svg" viewBox="0 0 576 512"><!-- Font Awesome Pro 6.0.0-alpha1 by @fontawesome - https://fontawesome.com License - https://fontawesome.com/license (Commercial License) --><path d="M480 128C515 128 544 99 544 64S515 0 480 0S416 29 416 64S445 128 480 128ZM480 16C506 16 528 38 528 64S506 112 480 112S432 90 432 64S454 16 480 16ZM504 160H456C434 160 414 170 400 187C397 190 398 195 401 198C404 201 410 200 412 197C423 184 439 176 456 176H504C535 176 560 201 560 232V320C560 333 549 344 536 344C532 344 528 348 528 352V472C528 485 517 496 504 496H456C443 496 432 485 432 472V384C432 380 428 376 424 376S416 380 416 384V472C416 494 434 512 456 512H504C526 512 544 494 544 472V359C562 355 576 339 576 320V232C576 192 544 160 504 160ZM445 298L365 226C362 223 357 223 354 227C351 230 351 235 355 238L419 296H157L221 238C225 235 225 230 222 227C219 223 214 223 211 226L131 298C126 302 128 308 131 310L211 382C214 385 219 385 222 381C225 378 225 373 221 370L157 312H419L355 370C351 373 351 378 354 381C357 385 362 385 365 382L445 310C450 306 448 300 445 298ZM96 128C131 128 160 99 160 64S131 0 96 0S32 29 32 64S61 128 96 128ZM96 16C122 16 144 38 144 64S122 112 96 112S48 90 48 64S70 16 96 16ZM152 376C148 376 144 380 144 384V472C144 485 133 496 120 496H72C59 496 48 485 48 472V352C48 348 44 344 40 344C27 344 16 333 16 320V232C16 201 41 176 72 176H120C137 176 153 184 164 197C166 200 172 201 175 198C178 195 179 190 176 187C162 170 142 160 120 160H72C32 160 0 192 0 232V320C0 339 14 355 32 359V472C32 494 50 512 72 512H120C142 512 160 494 160 472V384C160 380 156 376 152 376Z"/></svg>