<svg xmlns="http://www.w3.org/2000/svg" viewBox="0 0 512 512"><!-- Font Awesome Pro 6.0.0-alpha1 by @fontawesome - https://fontawesome.com License - https://fontawesome.com/license (Commercial License) --><path d="M434 358C359 444 220 496 63 496C37 496 16 475 16 450S37 404 63 404C165 404 203 321 235 249C247 223 258 199 270 180C273 177 272 172 268 169C265 167 260 168 257 172C244 192 233 216 221 242C188 314 155 388 63 388C28 388 0 416 0 450S28 512 63 512C225 512 368 458 446 369C449 365 449 360 445 357C442 355 437 355 434 358ZM484 155C476 145 466 135 453 126C453 126 454 125 455 124C476 93 484 65 479 40C474 14 457 2 456 1C452 -1 447 0 445 3C442 7 443 12 447 15C449 16 489 45 441 115C441 116 441 117 441 118C422 106 402 99 383 97C345 93 305 105 275 132C273 134 272 136 272 139S274 144 277 145L345 175V254C345 259 349 262 353 262H433L463 331C464 334 466 335 469 336C469 336 470 336 470 336C472 336 475 335 476 333C499 307 512 274 512 239C512 209 502 180 484 155ZM472 312L446 251C445 248 442 246 439 246H362V169C362 166 360 163 357 162L296 136C321 118 352 110 382 113C399 114 417 121 435 133C435 133 435 133 435 133L440 137C454 146 464 155 471 165C487 186 496 212 496 239C496 265 488 291 472 312Z"/></svg>