<svg xmlns="http://www.w3.org/2000/svg" viewBox="0 0 384 512"><!-- Font Awesome Pro 6.0.0-alpha1 by @fontawesome - https://fontawesome.com License - https://fontawesome.com/license (Commercial License) --><path d="M382 66C379 63 373 63 370 66L2 434C-1 437 -1 443 2 446C4 447 6 448 8 448S12 447 14 446L382 78C385 75 385 69 382 66ZM64 192C99 192 128 163 128 128S99 64 64 64S0 93 0 128S29 192 64 192ZM64 80C90 80 112 102 112 128S90 176 64 176S16 154 16 128S38 80 64 80ZM320 320C285 320 256 349 256 384S285 448 320 448S384 419 384 384S355 320 320 320ZM320 432C294 432 272 410 272 384S294 336 320 336S368 358 368 384S346 432 320 432Z"/></svg>