<svg xmlns="http://www.w3.org/2000/svg" viewBox="0 0 448 512"><!-- Font Awesome Pro 6.0.0-alpha1 by @fontawesome - https://fontawesome.com License - https://fontawesome.com/license (Commercial License) --><path d="M352 288C299 288 256 331 256 384S299 480 352 480S448 437 448 384S405 288 352 288ZM352 464C308 464 272 428 272 384S308 304 352 304S432 340 432 384S396 464 352 464ZM112 128C112 119 105 112 96 112S80 119 80 128S87 144 96 144S112 137 112 128ZM192 128C192 75 149 32 96 32S0 75 0 128S43 224 96 224S192 181 192 128ZM16 128C16 84 52 48 96 48S176 84 176 128S140 208 96 208S16 172 16 128ZM414 66C411 63 405 63 402 66L34 434C31 437 31 443 34 446C36 447 38 448 40 448S44 447 46 446L414 78C417 75 417 69 414 66ZM352 368C343 368 336 375 336 384S343 400 352 400S368 393 368 384S361 368 352 368Z"/></svg>