<svg xmlns="http://www.w3.org/2000/svg" viewBox="0 0 512 512"><!-- Font Awesome Pro 6.0.0-alpha1 by @fontawesome - https://fontawesome.com License - https://fontawesome.com/license (Commercial License) --><path d="M56 400C52 400 48 404 48 408V480C48 489 41 496 32 496C23 496 16 488 16 479V360C16 356 12 352 8 352S0 356 0 360V478C0 496 13 511 30 512C49 513 64 498 64 480V408C64 404 60 400 56 400ZM331 361C333 368 340 372 347 372C348 372 349 372 351 372L468 341C476 338 481 329 479 321L448 204C446 197 439 192 432 192C431 192 429 192 428 193L311 224C303 226 297 235 300 244L331 361ZM432 208L464 325L347 356L315 240L432 208ZM80 104C109 104 132 81 132 52C132 23 109 0 80 0C51 0 28 23 28 52C28 81 51 104 80 104ZM80 16C100 16 116 32 116 52C116 72 100 88 80 88S44 72 44 52C44 32 60 16 80 16ZM502 384L347 424C338 401 315 384 288 384C285 384 283 384 280 385L224 166C223 162 218 159 214 160C210 161 207 166 208 170L222 224L167 224L133 162C122 141 101 128 77 128H48C22 128 0 150 0 176V279C0 298 8 315 22 328L98 393L112 485C113 490 121 512 143 512C145 512 147 512 149 511C167 509 178 492 176 475L162 382C159 367 151 354 140 344L96 306V228L119 271C125 282 135 288 147 288H239L264 389C241 398 224 421 224 448C224 483 253 512 288 512C323 512 352 483 352 448C352 445 352 443 351 440L506 400C510 399 513 394 512 390C511 386 506 383 502 384ZM147 272C141 272 136 269 133 264L110 221C107 215 102 212 96 212C93 212 91 213 88 214C83 217 80 223 80 229V306C80 311 82 315 86 319L130 356C138 364 144 374 146 385L160 477C161 482 160 486 157 489C155 493 151 495 147 496C145 496 144 496 143 496C132 496 128 483 128 483C128 483 128 483 128 483L114 390C114 387 112 383 109 381L33 316C22 306 16 293 16 279V176C16 158 30 144 48 144H77C95 144 111 154 119 170L153 232C155 237 161 240 167 240L226 240L234 272H147ZM288 496C262 496 240 474 240 448S262 400 288 400S336 422 336 448S314 496 288 496Z"/></svg>