<svg xmlns="http://www.w3.org/2000/svg" viewBox="0 0 448 512"><!-- Font Awesome Pro 6.0.0-alpha1 by @fontawesome - https://fontawesome.com License - https://fontawesome.com/license (Commercial License) --><path d="M300 104C329 104 352 81 352 52S329 0 300 0C271 0 248 23 248 52S271 104 300 104ZM300 16C320 16 336 32 336 52C336 72 320 88 300 88C280 88 264 72 264 52C264 32 280 16 300 16ZM162 365L147 389C142 396 135 400 127 400H48C39 400 32 393 32 384S39 368 48 368H111C114 368 116 367 118 364L143 324C145 320 144 316 140 313C137 311 132 312 129 316L107 352H48C30 352 16 366 16 384S30 416 48 416H127C140 416 153 409 160 398L176 373C178 369 177 365 173 362C170 360 165 361 162 365ZM400 224H356L330 171C317 145 295 126 268 120L197 99C190 97 182 96 174 96C154 96 133 103 116 116L77 146C62 157 60 177 71 191C77 199 86 204 96 204C103 204 110 201 116 197L155 167C161 162 168 160 175 160C177 160 179 160 180 160L195 165L158 252C145 282 156 316 184 333L269 383L242 470C236 487 246 505 262 510C266 511 269 512 272 512C286 512 298 503 302 490L334 389C340 368 331 345 312 334L251 298L283 220L303 261C311 277 328 288 346 288H400C418 288 432 274 432 256C432 238 418 224 400 224ZM400 272H346C334 272 322 265 317 254L297 213C294 207 289 204 283 204C282 204 282 204 282 204C276 204 270 208 268 214L236 292C234 299 236 308 243 312L304 348C317 355 323 370 319 384L287 485C285 491 279 496 272 496C270 496 269 496 267 495C263 494 260 491 258 487C256 484 256 479 257 475L284 387C286 380 284 373 277 369L192 319C171 306 163 281 172 259L210 171C212 167 212 162 210 158C208 154 204 151 200 149L184 145C181 144 178 144 175 144C164 144 154 147 145 154L106 184C103 186 100 188 96 188C91 188 86 185 83 181C78 174 79 164 86 159L126 128C140 118 157 112 174 112C181 112 187 113 192 114L264 135C286 141 305 157 315 178L342 231C344 237 350 240 356 240H400C409 240 416 247 416 256S409 272 400 272Z"/></svg>