<svg xmlns="http://www.w3.org/2000/svg" viewBox="0 0 576 512"><!-- Font Awesome Pro 6.0.0-alpha1 by @fontawesome - https://fontawesome.com License - https://fontawesome.com/license (Commercial License) --><path d="M575 500L478 309C472 296 460 288 445 288C431 287 418 294 411 306L372 372L45 190L83 152C93 142 108 136 122 136H168C182 136 197 139 210 146C235 158 253 181 260 208L280 290C281 294 285 297 290 296C294 295 297 290 296 286L275 204C267 173 246 146 217 132C202 124 185 120 168 120H122C104 120 85 128 72 141L26 186C25 188 24 191 24 193C24 196 26 198 28 199L364 386L351 408H316C300 408 285 418 280 434L256 501C256 504 256 506 257 509C259 511 261 512 264 512H568C571 512 573 510 575 508C576 506 576 503 575 500ZM275 496L295 439C298 430 307 424 316 424H355C358 424 361 422 362 420L425 314C429 308 437 304 445 304C453 304 460 309 464 316L555 496H275ZM264 112C295 112 320 87 320 56S295 0 264 0S208 25 208 56S233 112 264 112ZM264 16C286 16 304 34 304 56S286 96 264 96C242 96 224 78 224 56S242 16 264 16ZM190 358L68 281C66 280 63 280 61 281C59 282 57 284 56 286L0 502C-1 506 2 511 6 512C7 512 7 512 8 512C12 512 15 510 16 506L69 301L182 372C198 382 208 400 208 419V504C208 508 212 512 216 512S224 508 224 504V419C224 394 211 372 190 358Z"/></svg>