<svg xmlns="http://www.w3.org/2000/svg" viewBox="0 0 576 512"><!-- Font Awesome Pro 6.0.0-alpha1 by @fontawesome - https://fontawesome.com License - https://fontawesome.com/license (Commercial License) --><path d="M64 136C93 136 116 113 116 84S93 32 64 32S12 55 12 84S35 136 64 136ZM64 48C84 48 100 64 100 84S84 120 64 120C44 120 28 104 28 84S44 48 64 48ZM224 224H173L128 179C116 167 100 160 83 160H64C47 160 31 167 19 179C7 191 0 207 0 224L0 320L0 480C0 498 14 512 32 512S64 498 64 480L64 379C65 380 66 381 66 381L96 424V480C96 498 110 512 128 512C145 512 160 498 160 480V423C160 414 157 404 153 395L112 334V253L133 274C142 283 154 288 166 288H224C242 288 256 274 256 256S242 224 224 224ZM224 272H166C158 272 150 269 144 263L123 242C120 239 116 237 112 237C110 237 108 237 106 238C100 241 96 247 96 253V334C96 337 97 340 98 343L139 403C142 409 144 417 144 423V480C144 489 136 496 128 496C119 496 112 489 112 480V424C112 421 111 418 109 415L80 372C78 370 77 368 75 367C74 367 73 366 72 365C69 364 67 363 64 363C61 363 58 364 56 365C51 368 48 374 48 379L48 480C48 489 41 496 32 496C23 496 16 489 16 480L16 320L16 224C16 211 21 199 30 190C39 181 51 176 64 176H83C95 176 107 181 117 190L162 235C165 238 169 240 173 240H224C233 240 240 247 240 256S233 272 224 272ZM232 320C228 320 224 324 224 328V504C224 508 228 512 232 512S240 508 240 504V328C240 324 236 320 232 320ZM296 8C296 4 292 0 288 0H264C242 0 224 18 224 40V184C224 188 228 192 232 192S240 188 240 184V40C240 27 251 16 264 16H288C292 16 296 12 296 8ZM536 0H512C508 0 504 4 504 8V440C504 444 508 448 512 448S520 444 520 440V16H536C549 16 560 27 560 40V504C560 508 564 512 568 512S576 508 576 504V40C576 18 558 0 536 0ZM448 0C444 0 440 4 440 8V440C440 444 444 448 448 448S456 444 456 440V8C456 4 452 0 448 0ZM384 0C380 0 376 4 376 8V440C376 444 380 448 384 448S392 444 392 440V8C392 4 388 0 384 0ZM320 0C316 0 312 4 312 8L312 255L280 439C279 443 282 447 287 448C287 448 288 448 288 448C292 448 295 445 296 441L328 256V8C328 4 324 0 320 0Z"/></svg>