<svg xmlns="http://www.w3.org/2000/svg" viewBox="0 0 512 512"><!-- Font Awesome Pro 6.0.0-alpha1 by @fontawesome - https://fontawesome.com License - https://fontawesome.com/license (Commercial License) --><path d="M502 67L414 35C414 35 414 35 414 35L423 11C425 7 423 2 419 1S410 1 409 5L399 29C399 29 399 29 399 29L321 1C319 0 317 0 316 0C309 0 303 4 301 11L257 131C254 139 258 148 266 151L349 181L297 317C295 321 297 326 301 327C302 328 303 328 304 328C307 328 310 326 311 323L364 187L447 217C449 218 451 218 452 218C459 218 465 214 467 207L511 87C514 79 510 70 502 67ZM452 202L272 136L316 16L496 82L452 202ZM144 104C173 104 196 81 196 52S173 0 144 0C115 0 92 23 92 52S115 104 144 104ZM144 16C164 16 180 32 180 52S164 88 144 88S108 72 108 52S124 16 144 16ZM287 252C265 245 255 244 239 230L206 196C201 191 192 195 192 202V316L235 402C238 409 240 416 240 423V479C240 501 208 501 208 480V420L168 340C167 338 164 336 161 336H134C130 336 126 339 126 343L112 482C110 503 78 499 80 478L96 318V230C96 221 85 219 81 226L46 295C37 314 8 300 18 281L73 170C81 154 98 144 116 144H179C191 144 203 149 213 158C269 214 261 206 265 210C266 210 279 215 298 223C303 225 308 223 310 218C311 213 309 208 304 206L273 196L224 147C212 135 196 128 179 128H116C92 128 69 142 59 163L3 274C-5 290 2 309 18 317C22 319 27 320 32 320C44 320 55 314 61 302L80 264V318L64 477C62 494 75 510 93 512C94 512 95 512 96 512C112 512 126 500 128 483L141 352H156L192 423V478C192 496 205 511 222 512C241 513 256 498 256 480V423C256 414 254 404 249 395L208 312V221L228 241C235 248 244 254 253 257L282 266C286 268 290 266 292 262C294 258 291 253 287 252Z"/></svg>