<svg xmlns="http://www.w3.org/2000/svg" viewBox="0 0 256 512"><!-- Font Awesome Pro 6.0.0-alpha1 by @fontawesome - https://fontawesome.com License - https://fontawesome.com/license (Commercial License) --><path d="M128 128C163 128 192 99 192 64S163 0 128 0S64 29 64 64S93 128 128 128ZM128 16C154 16 176 38 176 64S154 112 128 112S80 90 80 64S102 16 128 16ZM192 160H64C29 160 0 189 0 224V320C0 338 14 352 32 352H56V480C56 498 70 512 88 512H168C186 512 200 498 200 480V352H224C242 352 256 338 256 320V224C256 189 227 160 192 160ZM240 320C240 329 233 336 224 336H200C191 336 184 343 184 352V480C184 489 177 496 168 496H88C79 496 72 489 72 480V352C72 343 65 336 56 336H32C23 336 16 329 16 320V224C16 198 38 176 64 176H192C218 176 240 198 240 224V320Z"/></svg>