<svg xmlns="http://www.w3.org/2000/svg" viewBox="0 0 512 512"><!-- Font Awesome Pro 6.0.0-alpha1 by @fontawesome - https://fontawesome.com License - https://fontawesome.com/license (Commercial License) --><path d="M432 96C459 96 480 75 480 48S459 0 432 0C406 0 384 22 384 48S406 96 432 96ZM432 16C450 16 464 30 464 48S450 80 432 80C414 80 400 66 400 48S414 16 432 16ZM250 359C252 368 259 376 267 380C288 391 305 376 310 369L344 321C356 302 354 278 339 262L307 230C304 227 299 227 295 230S292 238 295 241L327 274C337 284 339 300 331 312L297 360C284 380 255 359 268 341L296 302C299 298 298 294 295 291L212 215C203 205 198 192 200 178C201 174 198 170 194 169C189 168 185 171 185 176C182 194 188 213 201 226L279 298L255 332C249 340 248 350 250 359ZM125 92L113 116C111 120 112 125 116 127C121 130 126 127 127 124L139 99L434 253C438 255 443 256 448 256C460 256 471 250 477 238C485 223 478 203 462 195L410 169L393 118C387 99 364 74 333 74C325 74 317 75 309 79L261 98C245 104 230 113 216 122L146 85L159 60C161 56 160 51 156 49C152 47 147 48 145 52L132 78L108 65C104 63 99 64 97 68C95 72 96 77 100 79L125 92ZM267 113L315 94C321 91 327 90 333 90C356 90 373 109 378 123L395 174C396 178 399 182 403 184L455 210C463 214 466 223 462 231C457 242 445 240 441 238L359 197L343 157C342 153 337 151 333 153C329 154 327 159 329 163L338 186L232 130C243 124 255 118 267 113ZM510 480C507 477 501 477 498 480C482 497 456 501 435 490L12 270C8 268 3 270 1 274C-1 278 0 283 4 285L428 505C438 510 449 512 460 512C478 512 496 505 510 491C513 488 513 483 510 480Z"/></svg>