<svg xmlns="http://www.w3.org/2000/svg" viewBox="0 0 448 512"><!-- Font Awesome Pro 6.0.0-alpha1 by @fontawesome - https://fontawesome.com License - https://fontawesome.com/license (Commercial License) --><path d="M138 460C123 475 97 475 82 460L14 392C11 389 5 389 2 392S-1 401 2 404L70 472C81 482 95 488 110 488C125 488 139 482 149 472C153 468 153 463 149 460C146 457 141 457 138 460ZM128 160H234L213 177C200 189 192 206 191 223C190 241 197 258 210 271L288 349V432C288 450 302 464 320 464S352 450 352 432V343C352 330 347 318 338 309L277 248L361 164C372 153 376 136 370 121C363 106 349 96 333 96H128C110 96 96 110 96 128S110 160 128 160ZM128 112H333C342 112 351 118 355 127C359 136 356 146 350 153L269 234C257 244 261 254 266 259L327 320C333 326 336 334 336 343V432C336 453 304 453 304 432V349C304 345 302 341 299 338L221 260C212 250 207 237 207 224C208 211 214 198 224 189L244 172C249 168 251 161 249 154C246 148 240 144 234 144H128C119 144 112 137 112 128C112 119 119 112 128 112ZM203 318L117 403C103 418 80 396 95 381L182 294C185 291 185 286 182 283C178 280 173 280 170 283L84 369C71 382 71 402 84 415C90 421 98 424 106 424C115 424 123 421 129 415L214 329C217 326 217 321 214 318C211 315 206 315 203 318ZM408 448C404 448 400 452 400 456C400 478 382 496 360 496H264C260 496 256 500 256 504S260 512 264 512H360C391 512 416 487 416 456C416 452 412 448 408 448ZM400 0C374 0 352 22 352 48S374 96 400 96S448 74 448 48S427 0 400 0ZM400 80C382 80 368 66 368 48S382 16 400 16S432 30 432 48S418 80 400 80Z"/></svg>