<svg xmlns="http://www.w3.org/2000/svg" viewBox="0 0 256 512"><!-- Font Awesome Pro 6.0.0-alpha1 by @fontawesome - https://fontawesome.com License - https://fontawesome.com/license (Commercial License) --><path d="M128 128C163 128 192 99 192 64S163 0 128 0S64 29 64 64S93 128 128 128ZM128 16C154 16 176 38 176 64S154 112 128 112S80 90 80 64S102 16 128 16ZM255 364L204 183C200 169 187 160 173 160H83C69 160 56 169 52 183L1 364C-2 374 5 384 16 384H64V480C64 498 78 512 96 512H160C178 512 192 498 192 480V384H240C251 384 258 374 255 364ZM176 480C176 489 169 496 160 496H96C87 496 80 489 80 480V384H176V480ZM16 368L68 188C69 181 76 176 83 176H173C180 176 187 181 188 188L240 368H16Z"/></svg>