<svg xmlns="http://www.w3.org/2000/svg" viewBox="0 0 512 512"><!-- Font Awesome Pro 6.0.0-alpha1 by @fontawesome - https://fontawesome.com License - https://fontawesome.com/license (Commercial License) --><path d="M276 104C305 104 328 81 328 52S305 0 276 0C247 0 224 23 224 52S247 104 276 104ZM276 16C296 16 312 32 312 52C312 72 296 88 276 88C256 88 240 72 240 52C240 32 256 16 276 16ZM287 261C295 277 312 288 330 288H384C402 288 416 274 416 256C416 238 402 224 384 224H340L314 171C301 145 279 126 252 120L181 99C174 97 166 96 158 96C138 96 117 103 100 116L61 146C46 157 44 177 55 191C61 199 70 204 80 204C87 204 94 201 100 197L139 167C145 162 152 160 159 160C161 160 163 160 164 160L179 165L142 252C129 282 140 316 168 333L253 383L226 470C220 487 230 505 246 510C250 511 253 512 256 512C270 512 282 503 286 490L318 389C324 368 315 345 296 334L235 298L267 220L287 261ZM252 214L221 292C218 299 220 308 227 312L288 348C301 355 307 370 303 384L271 485C269 491 263 496 256 496C254 496 253 496 251 495C247 494 244 491 242 487C240 484 240 479 241 475L268 387C270 380 268 373 261 369L176 319C155 306 147 281 156 259L194 171C196 167 196 162 194 158C192 154 188 151 184 149L168 145C165 144 162 144 159 144C148 144 138 147 129 154L90 184C87 186 84 188 80 188C75 188 70 185 67 181C62 174 63 164 70 159L110 128C124 118 141 112 158 112C165 112 171 113 176 114L248 135C270 141 289 157 299 178L326 231C328 237 334 240 340 240H384C393 240 400 247 400 256S393 272 384 272H330C318 272 306 265 301 254L281 213C278 207 273 204 267 204C266 204 266 204 266 204C260 204 254 208 252 214ZM146 365L131 389C126 396 119 400 111 400H32C23 400 16 393 16 384S23 368 32 368H95C98 368 100 367 102 364L127 324C129 320 128 316 124 313C121 311 116 312 113 316L91 352H32C14 352 0 366 0 384S14 416 32 416H111C124 416 137 409 144 398L160 373C162 369 161 365 157 362C154 360 149 361 146 365ZM432 0C398 0 370 59 358 159C357 163 360 167 365 168C369 169 373 165 374 161C385 66 412 16 432 16C462 16 496 115 496 256S462 496 432 496C412 496 385 446 374 351C373 347 369 343 365 344C360 345 357 349 358 353C370 453 398 512 432 512C484 512 512 380 512 256S484 0 432 0Z"/></svg>