<svg xmlns="http://www.w3.org/2000/svg" viewBox="0 0 640 512"><!-- Font Awesome Pro 6.0.0-alpha1 by @fontawesome - https://fontawesome.com License - https://fontawesome.com/license (Commercial License) --><path d="M414 192H504C508 192 512 188 512 184S508 176 504 176H414C412 176 410 175 409 174L362 138C347 126 325 127 311 139L252 189C242 198 237 210 238 223C239 236 246 247 257 254L316 290C319 292 320 294 320 297V440C320 444 324 448 328 448S336 444 336 440V297C336 289 332 281 325 276L266 240C259 236 255 229 254 222C254 214 257 207 263 202L321 151C330 144 343 143 352 150L399 187C403 190 408 192 414 192ZM400 96C426 96 448 74 448 48S426 0 400 0S352 22 352 48S374 96 400 96ZM400 16C418 16 432 30 432 48S418 80 400 80S368 66 368 48S382 16 400 16ZM189 186C192 190 196 192 201 192C204 192 208 191 210 188L315 99C321 94 322 84 316 77C300 58 278 48 255 48C238 48 221 54 207 66L149 115C143 120 142 130 148 137L189 186ZM218 78C228 69 241 64 255 64C274 64 291 73 304 87L201 176L160 127L218 78ZM240 352H235C233 345 230 338 226 331L230 328C236 321 236 311 230 305L207 282C204 279 200 277 196 277S188 279 185 282L181 286C174 282 167 279 160 277V272C160 263 153 256 144 256H112C103 256 96 263 96 272V277C89 279 82 282 75 286L71 282C68 279 64 277 60 277S52 279 49 282L26 305C20 311 20 321 26 327L30 331C26 338 23 345 21 352H16C7 352 0 359 0 368V400C0 409 7 416 16 416H21C23 423 26 430 30 437L26 440C20 447 20 457 26 463L49 486C52 489 56 491 60 491S68 489 71 486L75 482C82 486 89 489 96 491V496C96 505 103 512 112 512H144C153 512 160 505 160 496V491C167 489 174 486 181 482L184 486C188 489 192 491 196 491S204 489 207 486L230 463C236 457 236 447 230 440L226 437C230 430 233 423 235 416H240C249 416 256 409 256 400V368C256 359 249 352 240 352ZM240 400H223L219 411C218 418 215 424 212 429L206 440L215 448L219 452L196 475L192 471L184 462L173 468C168 471 162 474 156 475L144 479V496H112V479L101 475C94 474 88 471 83 468L72 462L64 471L60 475L37 452L41 448L50 440L44 429C41 424 38 418 37 412L33 400H16V368H33L37 357C38 350 41 344 44 339L50 328L41 320L37 316L60 293L64 297L72 306L83 300C88 297 94 294 100 293L112 289V272H144V289L155 293C162 294 168 297 173 300L184 306L192 297L196 293L219 316L215 320L206 328L212 339C215 344 218 350 219 356L223 368H240V400ZM624 352H619C617 345 614 338 610 331L614 328C620 321 620 311 614 305L591 282C588 279 584 277 580 277S572 279 569 282L565 286C558 282 551 279 544 277V272C544 263 537 256 528 256H496C487 256 480 263 480 272V277C473 279 466 282 459 286L456 282C452 279 448 277 444 277S436 279 433 282L410 305C404 311 404 321 410 327L414 331C410 338 407 345 405 352H400C391 352 384 359 384 368V400C384 409 391 416 400 416H405C407 423 410 430 414 437L410 440C404 447 404 457 410 463L433 486C436 489 440 490 444 490S452 489 455 486L459 482C466 486 473 489 480 491V496C480 505 487 512 496 512H528C537 512 544 505 544 496V491C551 489 558 486 565 482L569 486C572 489 576 491 580 491S588 489 591 486L614 463C620 457 620 447 614 440L610 437C614 430 617 423 619 416H624C633 416 640 409 640 400V368C640 359 633 352 624 352ZM624 400H607L603 411C602 418 599 424 596 429L590 440L599 448L603 452L580 475L568 462L557 468C552 471 546 474 539 475L528 479V496H496V479L485 475C478 474 472 471 467 468L456 462L448 471L444 475L421 452L425 448L434 440L428 429C425 424 422 418 421 412L417 400H400V368H417L421 357C422 350 425 344 428 339L434 328L425 320L422 316L444 293L448 297L456 306L467 300C472 297 478 294 484 293L496 289V272H528V289L539 293C546 294 552 297 557 300L568 306L576 297L580 293L603 316L599 320L590 328L596 339C599 344 602 350 603 356L607 368H624V400ZM128 320C93 320 64 349 64 384S93 448 128 448S192 419 192 384S163 320 128 320ZM128 432C102 432 80 410 80 384S102 336 128 336S176 358 176 384S154 432 128 432ZM512 320C477 320 448 349 448 384S477 448 512 448S576 419 576 384S547 320 512 320ZM512 432C486 432 464 410 464 384S486 336 512 336S560 358 560 384S538 432 512 432Z"/></svg>