<svg xmlns="http://www.w3.org/2000/svg" viewBox="0 0 384 512"><!-- Font Awesome Pro 6.0.0-alpha1 by @fontawesome - https://fontawesome.com License - https://fontawesome.com/license (Commercial License) --><path d="M376 240H344C349 225 352 209 352 192C352 187 351 181 350 176H376C380 176 384 172 384 168S380 160 376 160H349C334 87 269 32 192 32H72C50 32 32 50 32 72V160H8C4 160 0 164 0 168S4 176 8 176H32V240H8C4 240 0 244 0 248S4 256 8 256H32V472C32 476 36 480 40 480S48 476 48 472V352H192C257 352 314 312 338 256H376C380 256 384 252 384 248S380 240 376 240ZM48 72C48 59 59 48 72 48H192C260 48 318 96 332 160H48V72ZM48 176H334C335 181 336 187 336 192C336 209 333 225 327 240H48V176ZM192 336H48V256H320C297 303 248 336 192 336Z"/></svg>