<svg xmlns="http://www.w3.org/2000/svg" viewBox="0 0 640 512"><!-- Font Awesome Pro 6.0.0-alpha1 by @fontawesome - https://fontawesome.com License - https://fontawesome.com/license (Commercial License) --><path d="M631 377C545 291 433 248 320 248C207 248 95 291 9 377C-1 386 -3 402 5 414L57 498C63 507 73 512 83 512C87 512 90 511 94 510L200 468C212 463 220 450 218 437L212 370C247 358 283 352 320 352C357 352 393 358 429 370L422 437C420 450 428 463 441 468L546 510C550 511 553 512 557 512C567 512 577 507 583 498L635 414C643 402 641 386 631 377ZM622 405L569 489C567 493 562 496 557 496C555 496 554 496 552 495L446 453C441 451 437 445 438 438L446 359C406 346 370 336 320 336C271 336 236 345 194 359L202 439C203 445 199 451 194 453L88 495C87 496 85 496 83 496C78 496 73 494 71 489L18 405C15 400 16 392 20 388C100 308 207 264 320 264C433 264 540 308 620 388C624 392 625 400 622 405ZM104 160C108 160 112 156 112 152V27L260 175C276 191 298 200 320 200S364 191 380 175L518 38C521 35 521 29 518 26S509 23 506 26L369 164C343 190 297 190 271 164L123 16H248C252 16 256 12 256 8S252 0 248 0H104C100 0 96 4 96 8V152C96 156 100 160 104 160Z"/></svg>