<svg xmlns="http://www.w3.org/2000/svg" viewBox="0 0 512 512"><!-- Font Awesome Pro 6.0.0-alpha1 by @fontawesome - https://fontawesome.com License - https://fontawesome.com/license (Commercial License) --><path d="M296 224H440A8 8 0 0 0 440 208H315L510 14A8 8 0 0 0 510 2A8 8 0 0 0 498 2L304 197V72A8 8 0 0 0 288 72V216A8 8 0 0 0 296 224ZM493 351L385 305A31 31 0 0 0 348 314L304 368A350 350 0 0 1 145 208L198 164A31 31 0 0 0 207 127L161 19A31 31 0 0 0 125 1L24 24A31 31 0 0 0 0 54A458 458 0 0 0 458 512A31 31 0 0 0 488 488L511 387A31 31 0 0 0 493 351ZM496 383L472 484A15 15 0 0 1 457 496A442 442 0 0 1 16 54A15 15 0 0 1 28 40C140 14 130 16 132 16A15 15 0 0 1 146 25L193 134A15 15 0 0 1 188 152L125 204A367 367 0 0 0 308 387L361 324A15 15 0 0 1 378 319L487 366A15 15 0 0 1 496 383Z"/></svg>