<svg xmlns="http://www.w3.org/2000/svg" viewBox="0 0 640 512"><!-- Font Awesome Pro 6.0.0-alpha1 by @fontawesome - https://fontawesome.com License - https://fontawesome.com/license (Commercial License) --><path d="M320 144C433 144 540 188 620 268C624 272 625 280 622 285L569 369C567 374 562 376 557 376C555 376 554 376 552 375L446 333C441 331 437 325 438 319L446 239C406 226 370 216 320 216C271 216 236 225 194 239L202 319C203 325 199 331 194 333L88 375C87 376 85 376 83 376C78 376 73 374 71 369L18 285C15 280 15 272 20 268C100 188 207 144 320 144M320 128C207 128 95 171 9 257C-1 266 -3 282 5 294L57 378C63 387 73 392 83 392C87 392 90 391 94 390L200 348C212 343 220 330 218 317L212 250C247 238 283 232 320 232C357 232 393 238 429 250L422 317C420 330 428 343 441 348L546 390C550 391 553 392 557 392C567 392 577 387 583 378L635 294C643 282 641 266 631 256C545 171 433 128 320 128L320 128Z"/></svg>