<svg xmlns="http://www.w3.org/2000/svg" viewBox="0 0 640 512"><!-- Font Awesome Pro 6.0.0-alpha1 by @fontawesome - https://fontawesome.com License - https://fontawesome.com/license (Commercial License) --><path d="M592 0H240C213 0 192 22 192 48V304C192 330 213 352 240 352H592C618 352 640 330 640 304V48C640 22 618 0 592 0ZM240 336C222 336 208 322 208 304V285L315 178C318 175 323 175 326 178L373 225L262 336H240ZM624 304C624 322 610 336 592 336H285L506 114C508 113 510 112 512 112H512C514 112 516 113 518 114L624 221V304ZM624 198L529 103C524 98 518 96 512 96C512 96 512 96 512 96C506 96 500 99 495 103L384 214L338 167C328 158 313 158 304 167L208 263V48C208 30 222 16 240 16H592C610 16 624 30 624 48V198ZM288 56C266 56 248 74 248 96S266 136 288 136C310 136 328 118 328 96S310 56 288 56ZM288 120C275 120 264 109 264 96S275 72 288 72C301 72 312 83 312 96S301 120 288 120ZM504 384C500 384 496 388 496 392V400H400V392C400 388 396 384 392 384C388 384 384 388 384 392V496H128V144H152C156 144 160 140 160 136S156 128 152 128H48C22 128 0 150 0 176V464C0 490 22 512 48 512H464C490 512 512 490 512 464V392C512 388 508 384 504 384ZM112 496H48C30 496 16 482 16 464V416H112V496ZM112 400H16V328H112V400ZM112 312H16V240H112V312ZM112 224H16V176C16 158 30 144 48 144H112V224ZM496 464C496 482 482 496 464 496H400V416H496V464Z"/></svg>