<svg xmlns="http://www.w3.org/2000/svg" viewBox="0 0 640 512"><!-- Font Awesome Pro 6.0.0-alpha1 by @fontawesome - https://fontawesome.com License - https://fontawesome.com/license (Commercial License) --><path d="M623 180C613 172 600 170 587 174L459 217C443 223 432 238 432 255V433C420 422 403 416 384 416C349 416 320 438 320 464S349 512 384 512S448 490 448 464V326L624 267V369C612 358 595 352 576 352C541 352 512 374 512 400S541 448 576 448S640 426 640 400V212C640 199 634 188 623 180ZM384 496C358 496 336 481 336 464S358 432 384 432C410 432 432 447 432 464S410 496 384 496ZM576 432C550 432 528 417 528 400S550 368 576 368C602 368 624 383 624 400S602 432 576 432ZM624 250L448 309V255C448 245 455 236 464 232L592 190C600 187 608 188 614 193S624 205 624 212V250ZM288 432H112V80H152C156 80 160 76 160 72S156 64 152 64H40C18 64 0 82 0 104V408C0 430 18 448 40 448H288C292 448 296 444 296 440S292 432 288 432ZM96 432H40C27 432 16 421 16 408V352H96V432ZM96 336H16V264H96V336ZM96 248H16V176H96V248ZM96 160H16V104C16 91 27 80 40 80H96V160ZM232 320H376C380 320 384 316 384 312S380 304 376 304H251L442 114C446 111 451 111 454 114L506 166C510 169 515 169 518 166C521 162 521 157 518 154L465 103C456 94 440 94 431 103L229 303C217 302 208 292 208 280V40C208 27 219 16 232 16H568C581 16 592 27 592 40V128C592 132 596 136 600 136S608 132 608 128V40C608 18 590 0 568 0H232C210 0 192 18 192 40V280C192 302 210 320 232 320ZM248 96C248 118 266 136 288 136S328 118 328 96S310 56 288 56S248 74 248 96ZM312 96C312 109 301 120 288 120S264 109 264 96S275 72 288 72S312 83 312 96Z"/></svg>