<svg xmlns="http://www.w3.org/2000/svg" viewBox="0 0 576 512"><!-- Font Awesome Pro 6.0.0-alpha1 by @fontawesome - https://fontawesome.com License - https://fontawesome.com/license (Commercial License) --><path d="M537 224C534 224 531 224 529 223C493 118 396 48 288 48C180 48 83 118 47 223C45 224 43 224 39 224C18 224 0 242 0 264S18 304 39 304C73 304 92 289 104 280C112 274 114 272 122 272C130 272 132 274 140 280C152 289 171 304 205 304C239 304 258 289 270 280C279 273 281 272 288 272C296 272 298 273 306 280C319 290 338 304 371 304C405 304 424 289 436 280C444 274 446 272 454 272C462 272 463 273 472 280C484 289 503 304 537 304C558 304 576 286 576 264S558 224 537 224ZM537 288C508 288 492 276 482 267C473 260 467 256 454 256C441 256 435 260 426 267C415 276 399 288 371 288C343 288 328 276 316 267C307 260 302 256 288 256C275 256 270 260 260 267C249 276 234 288 205 288C177 288 161 276 150 267C141 260 135 256 122 256C109 256 103 260 94 267C83 276 67 288 39 288C26 288 16 277 16 264S26 240 39 240C46 240 52 239 57 235L60 234L61 231C94 131 186 64 288 64C390 64 482 131 515 231L516 234L519 235C525 239 530 240 537 240C550 240 560 251 560 264S550 288 537 288ZM515 320C510 319 506 321 504 325L474 416C471 426 462 432 452 432H124C114 432 105 426 102 416L72 325C70 321 66 319 61 320C57 322 55 326 56 331L87 421C92 437 107 448 124 448H452C469 448 484 437 489 421L520 331C521 326 519 322 515 320ZM288 128C284 128 280 132 280 136V184C280 188 284 192 288 192S296 188 296 184V136C296 132 292 128 288 128ZM185 132L161 180C159 184 160 189 164 191C166 192 167 192 168 192C171 192 174 190 175 188L199 140C201 136 200 131 196 129C192 127 187 128 185 132ZM391 132C389 128 384 127 380 129C376 131 375 136 377 140L401 188C402 190 405 192 408 192C409 192 410 192 412 191C416 189 417 184 415 180L391 132Z"/></svg>