<svg xmlns="http://www.w3.org/2000/svg" viewBox="0 0 576 512"><!-- Font Awesome Pro 6.0.0-alpha1 by @fontawesome - https://fontawesome.com License - https://fontawesome.com/license (Commercial License) --><path d="M432 224C423 224 416 231 416 240S423 256 432 256C441 256 448 249 448 240S441 224 432 224ZM536 192H530C522 173 510 156 495 141L512 74C512 72 512 69 510 67C509 65 506 64 504 64H472C444 64 417 76 397 97C393 96 388 96 384 96H256C170 96 101 164 97 248C96 248 96 248 96 248H40C27 248 16 237 16 224V192C16 179 27 168 40 168S64 179 64 192C64 196 68 200 72 200S80 196 80 192C80 170 62 152 40 152S0 170 0 192V224C0 246 18 264 40 264H96C96 264 96 264 96 264C99 311 122 355 160 384V440C160 462 178 480 200 480H216C238 480 256 462 256 440V416H384V440C384 462 402 480 424 480H440C462 480 480 462 480 440V384C492 374 503 364 512 352H536C558 352 576 334 576 312V232C576 210 558 192 536 192ZM392 415C392 415 392 415 392 415C392 415 392 415 393 415C392 415 392 415 392 415ZM560 312C560 325 549 336 536 336H508C505 336 503 337 501 339C492 352 480 364 467 373C465 374 464 377 464 379V440C464 453 453 464 440 464H424C411 464 400 453 400 440V414C406 414 412 414 418 412C422 411 425 407 424 403C423 399 419 396 414 397C404 399 394 400 384 400H256C246 400 236 399 226 397C221 396 217 399 216 403C215 407 218 412 222 412C228 414 234 414 240 414V440C240 453 229 464 216 464H200C187 464 176 453 176 440V380C176 377 175 375 173 373C135 346 112 302 112 256C112 177 177 112 256 112H384C389 112 393 112 399 113C402 113 404 112 406 111C423 91 447 80 472 80H494L478 142C478 145 479 148 481 150C497 165 510 183 518 203C519 206 522 208 525 208H536C549 208 560 219 560 232V312Z"/></svg>