<svg xmlns="http://www.w3.org/2000/svg" viewBox="0 0 576 512"><!-- Font Awesome Pro 6.0.0-alpha1 by @fontawesome - https://fontawesome.com License - https://fontawesome.com/license (Commercial License) --><path d="M529 207C498 176 457 160 416 160S334 176 303 207C240 269 240 371 303 433C334 464 375 480 416 480S498 464 529 433C592 371 592 269 529 207ZM416 464C378 464 341 449 314 422C287 395 272 358 272 320C272 284 285 251 309 224L512 427C485 451 452 464 416 464ZM523 416L320 213C347 189 380 176 416 176C454 176 491 191 518 218C545 245 560 282 560 320C560 356 547 389 523 416ZM112 32C50 32 0 82 0 144V368C0 430 50 480 112 480S224 430 224 368V144C224 82 174 32 112 32ZM208 368C208 421 165 464 112 464S16 421 16 368V264H208V368ZM208 248H16V144C16 91 59 48 112 48S208 91 208 144V248Z"/></svg>