<svg xmlns="http://www.w3.org/2000/svg" viewBox="0 0 448 512"><!-- Font Awesome Pro 6.0.0-alpha1 by @fontawesome - https://fontawesome.com License - https://fontawesome.com/license (Commercial License) --><path d="M145 212C138 205 128 200 118 197C109 194 99 192 90 192C52 192 17 217 4 256C-11 305 15 358 62 374L372 478C376 479 379 480 383 480C393 480 402 475 409 467C420 452 418 430 403 419L145 212ZM396 457C393 461 388 464 383 464C381 464 379 464 378 463L67 358C28 345 7 302 20 261C30 229 58 208 90 208C98 208 106 209 113 212C121 214 129 219 135 224L393 431C401 437 402 449 396 457ZM96 256C79 256 64 270 64 288S79 320 96 320S128 306 128 288S114 256 96 256ZM96 304C87 304 80 297 80 288S87 272 96 272S112 279 112 288S105 304 96 304ZM352 32C299 32 256 75 256 128S299 224 352 224S448 181 448 128S405 32 352 32ZM352 208C308 208 272 172 272 128C272 84 308 48 352 48S432 84 432 128C432 172 396 208 352 208Z"/></svg>