<svg xmlns="http://www.w3.org/2000/svg" viewBox="0 0 512 512"><!-- Font Awesome Pro 6.0.0-alpha1 by @fontawesome - https://fontawesome.com License - https://fontawesome.com/license (Commercial License) --><path d="M382 397L26 496C23 496 20 496 18 494C16 492 16 489 16 486L110 130C111 126 109 121 104 120C100 119 96 122 95 126L1 482C-1 491 1 499 7 505C12 510 18 512 24 512C26 512 28 512 30 511L386 412C390 411 393 407 392 402C391 398 386 396 382 397ZM88 384C88 406 106 424 128 424S168 406 168 384C168 362 150 344 128 344S88 362 88 384ZM152 384C152 397 141 408 128 408S104 397 104 384S115 360 128 360S152 371 152 384ZM216 240C216 218 198 200 176 200S136 218 136 240S154 280 176 280S216 262 216 240ZM152 240C152 227 163 216 176 216S200 227 200 240C200 253 189 264 176 264S152 253 152 240ZM312 336C312 314 294 296 272 296C250 296 232 314 232 336C232 358 250 376 272 376C294 376 312 358 312 336ZM248 336C248 323 259 312 272 312C285 312 296 323 296 336C296 349 285 360 272 360C259 360 248 349 248 336ZM163 0C143 -2 125 11 120 30L106 84C105 86 105 89 107 91C108 93 111 94 113 94C291 99 410 217 418 393C418 396 419 398 421 400C422 401 424 401 426 401C426 401 427 401 428 401L483 386C502 380 514 362 512 342C491 164 341 17 163 0ZM479 370L433 383C421 206 301 88 124 78L135 34C138 22 149 15 161 16C332 32 476 173 496 344C497 356 490 367 479 370Z"/></svg>