<svg xmlns="http://www.w3.org/2000/svg" viewBox="0 0 576 512"><!-- Font Awesome Pro 6.0.0-alpha1 by @fontawesome - https://fontawesome.com License - https://fontawesome.com/license (Commercial License) --><path d="M390 393C387 390 382 390 379 393C342 429 293 450 241 450H240C188 449 139 428 102 391C31 318 31 194 102 121C139 84 188 63 240 62H241C293 62 342 83 379 119C382 122 387 122 390 119L411 98C416 93 418 87 418 80C418 73 415 68 410 63C355 15 282 -7 208 2C134 12 70 52 27 115C-30 199 -30 313 27 397C70 460 134 500 208 510C219 511 230 512 241 512C303 512 364 490 410 449C415 444 418 438 418 432C418 425 416 419 411 414L390 393ZM400 436C348 482 279 503 210 494C141 485 80 447 40 388C-13 309 -13 203 40 124C80 64 141 27 210 18C221 17 231 16 241 16C299 16 356 37 400 75C402 77 402 79 402 81C402 83 401 85 400 86L384 102C345 66 295 46 241 46H240C183 47 130 69 91 110C12 190 12 322 91 402C130 443 183 465 240 466H241C295 466 345 446 384 410L400 426C401 427 402 429 402 431C402 433 402 435 400 436ZM352 376C354 376 356 375 358 374C361 371 361 365 358 362L251 256L358 150C361 146 361 141 358 138C355 135 350 135 346 138L234 250C231 253 231 258 234 262L346 374C348 375 350 376 352 376ZM510 107C506 102 500 99 493 99C487 99 480 101 476 106L456 125C453 128 453 133 455 136C514 204 514 307 455 376C453 379 453 384 456 387L476 406C480 411 486 413 492 413C492 413 493 413 493 413C500 413 506 409 510 404C577 317 577 195 510 107ZM497 395C496 397 494 397 492 397C490 397 488 396 487 395L472 380C530 308 530 204 472 132L487 117C488 116 490 115 492 115C493 115 496 115 497 117C560 199 560 313 497 395ZM347 256L438 166C441 163 441 158 438 155C435 151 430 151 426 155L330 250C329 252 328 254 328 256S329 260 330 262L426 357C428 359 430 360 432 360C434 360 436 359 438 357C441 354 441 349 438 346L347 256ZM176 160C176 169 183 176 192 176C201 176 208 169 208 160C208 151 201 144 192 144C183 144 176 151 176 160ZM224 368C224 377 231 384 240 384S256 377 256 368C256 359 249 352 240 352S224 359 224 368ZM128 256C128 265 135 272 144 272C153 272 160 265 160 256C160 247 153 240 144 240C135 240 128 247 128 256ZM432 256C423 256 416 263 416 272C416 281 423 288 432 288C441 288 448 281 448 272C448 263 441 256 432 256Z"/></svg>