<svg xmlns="http://www.w3.org/2000/svg" viewBox="0 0 640 512"><!-- Font Awesome Pro 6.0.0-alpha1 by @fontawesome - https://fontawesome.com License - https://fontawesome.com/license (Commercial License) --><path d="M80 341C87 348 96 352 105 352L235 352C246 352 256 349 265 345L556 197C583 183 607 164 623 139C641 110 643 90 636 75C629 61 611 50 578 48C575 47 572 47 569 47C542 47 516 55 492 67L393 117L174 35C171 33 168 32 164 32C162 32 159 33 156 34L91 67C80 73 77 87 85 96L242 194L138 246L66 210C64 209 61 208 58 208S53 209 50 210L10 230C-1 236 -3 249 4 258L80 341ZM17 245L57 224L59 224L59 224L131 261L139 264L146 261L249 208L274 195L250 180L97 84C97 84 97 84 97 83C97 83 97 82 98 82L164 48C164 48 164 48 164 48L165 48L167 49L169 50L387 132L394 135L400 131L499 81C522 69 546 63 569 63C571 63 574 63 577 64C594 65 615 69 622 82C629 96 619 116 610 130C596 151 575 170 549 183L258 330C251 334 243 336 235 336L105 336C100 336 96 334 92 330L16 248C16 247 16 246 16 246C16 246 16 245 17 245ZM632 496H8C4 496 0 500 0 504S4 512 8 512H632C636 512 640 508 640 504S636 496 632 496Z"/></svg>