<svg xmlns="http://www.w3.org/2000/svg" viewBox="0 0 576 512"><!-- Font Awesome Pro 6.0.0-alpha1 by @fontawesome - https://fontawesome.com License - https://fontawesome.com/license (Commercial License) --><path d="M288 280H224C216 280 208 277 203 271C194 263 193 248 202 239L252 181C260 169 264 155 264 141C264 121 249 105 229 104C225 104 221 107 221 112C220 116 224 120 228 120C239 120 248 130 248 141C248 152 245 162 239 171L189 228C176 244 177 268 191 283C200 291 212 296 224 296H288C301 296 312 307 312 320V337C312 346 310 354 306 362L266 443C263 448 257 453 251 454C247 454 244 455 241 455C234 455 232 449 232 447V376H224C211 376 200 365 200 352V317L143 260C135 252 125 248 115 248H90C73 248 72 226 72 224C72 220 68 216 64 216C64 216 64 216 64 216C60 216 56 220 56 224C56 238 63 264 90 264H115C121 264 127 266 132 271L184 323V352C184 371 198 387 216 391V447C216 454 219 460 224 465C228 469 234 471 240 471C242 471 250 470 253 470C265 468 275 460 280 450L320 369C325 359 328 348 328 337V320C328 298 310 280 288 280ZM512 0C477 0 448 29 448 64S477 128 512 128S576 99 576 64S547 0 512 0ZM512 112C486 112 464 90 464 64S486 16 512 16S560 38 560 64S538 112 512 112ZM224 64C100 64 0 164 0 288S100 512 224 512C348 512 448 412 448 288S348 64 224 64ZM224 496C109 496 16 403 16 288S109 80 224 80S432 173 432 288S339 496 224 496Z"/></svg>