<svg xmlns="http://www.w3.org/2000/svg" viewBox="0 0 640 512"><!-- Font Awesome Pro 6.0.0-alpha1 by @fontawesome - https://fontawesome.com License - https://fontawesome.com/license (Commercial License) --><path d="M272 96C272 64 298 16 320 16C342 16 368 64 368 96V188L560 297L560 355L575 367C576 366 576 364 576 363V297C576 292 573 286 568 283L384 178V96C384 61 355 0 320 0S256 61 256 96V113L272 126V96ZM637 498L13 2C10 -1 5 0 2 3C-1 6 0 12 3 14L627 510C631 513 636 512 638 509C641 506 640 500 637 498ZM368 388V408L432 456L433 496L320 463L208 496L208 456L272 408V308L80 363V297L183 239L169 228L72 283C68 286 64 292 64 297V363C64 374 75 381 84 378L256 329V400L198 443C194 446 192 451 192 456V496C192 507 203 514 212 511L320 480L428 511C438 514 448 507 448 496V456C448 451 446 446 442 443L368 388Z"/></svg>