<svg xmlns="http://www.w3.org/2000/svg" viewBox="0 0 576 512"><!-- Font Awesome Pro 6.0.0-alpha1 by @fontawesome - https://fontawesome.com License - https://fontawesome.com/license (Commercial License) --><path d="M480 192H366L329 128H336C345 128 352 121 352 112V80C352 71 345 64 336 64H293L261 8C258 4 252 0 247 0H181C171 0 163 10 166 20L215 192H112L69 134C66 130 61 128 56 128H16C6 128 -2 138 0 148L23 226C10 230 0 241 0 256S10 282 23 286L1 364C-2 374 6 384 16 384H56C61 384 66 382 69 378L112 320H215L166 492C163 502 171 512 181 512H247C252 512 258 509 261 504L293 448H336C345 448 352 441 352 432V400C352 391 345 384 336 384H329L366 320H480C515 320 576 291 576 256S515 192 480 192ZM181 16H247L283 80H336V112H302L347 192H232L181 16ZM302 400H336V432H283L247 496L181 496L232 320H347L302 400ZM480 304H104L56 368L16 369L43 275L28 271C22 269 16 264 16 256S22 243 28 241L43 237L16 144L56 144L104 208H480C512 208 560 234 560 256S512 304 480 304Z"/></svg>