<svg xmlns="http://www.w3.org/2000/svg" viewBox="0 0 384 512"><!-- Font Awesome Pro 6.0.0-alpha1 by @fontawesome - https://fontawesome.com License - https://fontawesome.com/license (Commercial License) --><path d="M368 229L48 37C43 34 38 32 32 32C27 32 21 33 16 36C6 42 0 52 0 64V448C0 460 6 470 16 476C21 479 27 480 32 480C38 480 43 478 48 475L368 283C378 278 384 267 384 256S378 234 368 229ZM360 270L40 462C38 463 35 464 32 464C29 464 26 463 24 462C19 459 16 454 16 448V64C16 58 19 53 24 50C26 49 29 48 32 48C35 48 38 49 40 50L360 242C365 245 368 250 368 256C368 262 365 267 360 270Z"/></svg>