<svg xmlns="http://www.w3.org/2000/svg" viewBox="0 0 448 512"><!-- Font Awesome Pro 6.0.0-alpha1 by @fontawesome - https://fontawesome.com License - https://fontawesome.com/license (Commercial License) --><path d="M440 152H104V112C104 81 129 56 160 56H193C197 79 216 96 240 96H304C330 96 352 74 352 48S330 0 304 0H240C216 0 197 17 193 40H160C120 40 88 72 88 112V152H8C4 152 0 156 0 160S4 168 8 168H440C444 168 448 164 448 160S444 152 440 152ZM240 16H304C322 16 336 30 336 48S322 80 304 80H240C222 80 208 66 208 48S222 16 240 16ZM409 216C404 215 401 219 400 223L371 475C370 487 360 496 347 496H101C88 496 78 487 77 475L48 223C47 219 44 215 39 216C35 217 32 221 32 225L61 477C63 497 80 512 101 512H347C368 512 385 497 387 477L416 225C416 221 413 217 409 216Z"/></svg>