<svg xmlns="http://www.w3.org/2000/svg" viewBox="0 0 448 512"><!-- Font Awesome Pro 6.0.0-alpha1 by @fontawesome - https://fontawesome.com License - https://fontawesome.com/license (Commercial License) --><path d="M380 221C384 212 386 202 386 193C386 156 358 126 322 123C324 116 325 108 325 100C325 45 279 0 224 0C219 0 213 1 208 2C205 2 203 4 202 6C201 9 201 12 203 14C211 26 216 40 216 54C216 92 185 123 147 123H131C93 123 62 154 62 193C62 202 64 212 68 221C28 235 0 272 0 316C0 371 45 416 101 416H128C132 416 136 412 136 408S132 400 128 400H101C54 400 16 362 16 316C16 276 43 242 82 234C84 233 86 231 87 229C88 226 88 224 87 221C81 212 78 203 78 193C78 163 102 139 131 139H147C194 139 232 101 232 54C232 41 229 28 223 16C223 16 224 16 224 16C271 16 309 54 309 100C309 109 307 119 303 128C302 131 303 134 304 136C306 138 308 139 311 139H317C346 139 370 163 370 193C370 203 367 212 361 221C360 224 360 226 361 229C362 231 364 233 366 234C405 242 432 276 432 316C432 362 394 400 347 400H320C316 400 312 404 312 408S316 416 320 416H347C403 416 448 371 448 316C448 272 420 235 380 221ZM280 368H182L255 252C257 248 256 244 252 241C249 239 244 240 241 244L161 372C160 374 160 377 161 380S165 384 168 384H266L193 500C191 503 192 508 196 511C197 512 199 512 200 512C203 512 205 511 207 508L287 380C288 378 288 375 287 372S283 368 280 368Z"/></svg>