<svg xmlns="http://www.w3.org/2000/svg" viewBox="0 0 512 512"><!-- Font Awesome Pro 6.0.0-alpha1 by @fontawesome - https://fontawesome.com License - https://fontawesome.com/license (Commercial License) --><path d="M461 362C474 347 481 329 481 310C481 269 448 235 407 233C415 221 419 208 419 194C419 157 390 127 354 124C356 116 357 109 357 101C357 45 312 0 256 0C251 0 245 1 240 2C237 2 235 4 234 6C233 9 233 12 235 14C243 26 248 40 248 54C248 93 217 124 178 124H163C124 124 93 155 93 194C93 208 97 221 105 233C64 235 31 269 31 310C31 329 38 347 51 362C21 373 0 401 0 434C0 477 35 512 78 512H434C477 512 512 477 512 434C512 401 491 373 461 362ZM434 496H78C44 496 16 468 16 434C16 404 38 378 68 374C71 373 74 371 74 368C75 364 74 361 72 359C56 347 47 330 47 310C47 276 75 248 109 248H122C126 248 129 246 130 243C131 240 130 237 128 234C116 224 109 210 109 194C109 164 133 140 163 140H178C226 140 264 102 264 54C264 41 261 28 255 16C255 16 256 16 256 16C303 16 341 54 341 101C341 110 339 120 336 129C335 132 335 134 337 137S341 140 343 140H349C379 140 403 164 403 194C403 210 396 224 384 234C382 237 381 240 382 243C383 246 386 248 390 248H403C437 248 465 276 465 310C465 330 456 347 440 359C438 361 437 364 438 368C438 371 441 373 444 374C474 378 496 404 496 434C496 468 468 496 434 496Z"/></svg>