<svg xmlns="http://www.w3.org/2000/svg" viewBox="0 0 512 512"><!-- Font Awesome Pro 6.0.0-alpha1 by @fontawesome - https://fontawesome.com License - https://fontawesome.com/license (Commercial License) --><path d="M380 68C376 65 371 66 369 70C366 74 367 79 371 81C434 121 472 189 472 264C472 383 375 480 256 480S40 383 40 264C40 189 78 121 141 81C144 79 146 74 143 70C141 66 136 65 132 68C64 111 24 184 24 264C24 392 128 496 256 496S488 392 488 264C488 184 448 111 380 68ZM256 264C260 264 264 260 264 256V16C264 12 260 8 256 8S248 12 248 16V256C248 260 252 264 256 264Z"/></svg>