<svg xmlns="http://www.w3.org/2000/svg" viewBox="0 0 384 512"><!-- Font Awesome Pro 6.0.0-alpha1 by @fontawesome - https://fontawesome.com License - https://fontawesome.com/license (Commercial License) --><path d="M352 0H32C14 0 0 14 0 32V96C0 114 14 128 32 128H352C370 128 384 114 384 96V32C384 14 370 0 352 0ZM368 96C368 105 361 112 352 112H32C23 112 16 105 16 96V32C16 23 23 16 32 16H352C361 16 368 23 368 32V96ZM344 152C340 152 336 156 336 160V440C336 471 311 496 280 496H104C73 496 48 471 48 440V160C48 156 44 152 40 152S32 156 32 160V440C32 480 64 512 104 512H280C320 512 352 480 352 440V160C352 156 348 152 344 152ZM216 184H168C159 184 152 191 152 200V248H104C95 248 88 255 88 264V312C88 321 95 328 104 328H152V376C152 385 159 392 168 392H216C225 392 232 385 232 376V328H280C289 328 296 321 296 312V264C296 255 289 248 280 248H232V200C232 191 225 184 216 184ZM280 264V312H216V376H168V312H104V264H168V200H216V264H280Z"/></svg>