<svg xmlns="http://www.w3.org/2000/svg" viewBox="0 0 640 512"><!-- Font Awesome Pro 6.0.0-alpha1 by @fontawesome - https://fontawesome.com License - https://fontawesome.com/license (Commercial License) --><path d="M416 128C420 128 424 124 424 120V8C424 4 420 0 416 0S408 4 408 8V120C408 124 412 128 416 128ZM497 136C499 136 501 135 502 134L582 54C585 51 585 46 582 43S573 40 570 43L491 122C488 125 488 131 491 134C493 135 495 136 497 136ZM330 134C331 135 333 136 335 136S339 135 341 134C344 131 344 125 341 122L262 43C259 40 253 40 250 43S247 51 250 54L330 134ZM96 304C87 304 80 311 80 320S87 336 96 336C105 336 112 329 112 320S105 304 96 304ZM192 304C183 304 176 311 176 320S183 336 192 336C201 336 208 329 208 320S201 304 192 304ZM568 192H512C512 192 512 192 511 192C485 172 452 160 416 160S347 172 321 192C320 192 320 192 320 192H72C32 192 0 224 0 264V376C0 413 28 443 64 447C64 448 64 448 64 448V504C64 508 68 512 72 512S80 508 80 504V448H320C320 448 320 448 321 448C347 468 380 480 416 480S485 468 511 448C512 448 512 448 512 448H560V504C560 508 564 512 568 512S576 508 576 504V447C612 443 640 413 640 376V264C640 224 608 192 568 192ZM72 432C41 432 16 407 16 376V264C16 233 41 208 72 208H302C274 237 256 276 256 320S274 403 302 432H72ZM416 464C337 464 272 399 272 320S337 176 416 176S560 241 560 320S495 464 416 464ZM624 376C624 407 599 432 568 432H530C558 403 576 364 576 320S558 237 530 208H568C599 208 624 233 624 264V376Z"/></svg>