<svg xmlns="http://www.w3.org/2000/svg" viewBox="0 0 640 512"><!-- Font Awesome Pro 6.0.0-alpha1 by @fontawesome - https://fontawesome.com License - https://fontawesome.com/license (Commercial License) --><path d="M576 0H512C477 0 448 29 448 64V128C448 163 477 192 512 192H576C611 192 640 163 640 128V64C640 29 611 0 576 0ZM624 128C624 154 602 176 576 176H512C486 176 464 154 464 128V64C464 38 486 16 512 16H576C602 16 624 38 624 64V128ZM352 320H288C253 320 224 349 224 384V448C224 483 253 512 288 512H352C387 512 416 483 416 448V384C416 349 387 320 352 320ZM400 448C400 474 378 496 352 496H288C262 496 240 474 240 448V384C240 358 262 336 288 336H352C378 336 400 358 400 384V448ZM416 88H192V64C192 29 163 0 128 0H64C29 0 0 29 0 64V128C0 163 29 192 64 192H128C134 192 140 191 146 189L217 293C219 295 221 296 224 296C226 296 227 296 229 295C232 292 233 287 231 283L161 183C179 171 192 151 192 128V104H416C420 104 424 100 424 96S420 88 416 88ZM176 128C176 154 154 176 128 176H64C38 176 16 154 16 128V64C16 38 38 16 64 16H128C154 16 176 38 176 64V128Z"/></svg>