<svg xmlns="http://www.w3.org/2000/svg" viewBox="0 0 384 512"><!-- Font Awesome Pro 6.0.0-alpha1 by @fontawesome - https://fontawesome.com License - https://fontawesome.com/license (Commercial License) --><path d="M236 160H84C51 160 24 185 21 218L0 442C-3 480 26 512 64 512H256C294 512 323 480 320 442L299 218C296 185 269 160 236 160ZM291 480C282 490 270 496 256 496H64C50 496 38 490 29 480C19 470 15 457 16 444L37 220C39 195 59 176 84 176H236C261 176 281 195 283 220L304 444C305 457 301 470 291 480ZM366 114L319 68C311 60 301 56 291 56H224V32C224 14 210 0 192 0H128C110 0 96 14 96 32V120C96 124 100 128 104 128S112 124 112 120V32C112 23 119 16 128 16H192C201 16 208 23 208 32V120C208 124 212 128 216 128S224 124 224 120V72H291C297 72 303 75 308 79L354 126C356 127 358 128 360 128S364 127 366 126C369 123 369 117 366 114ZM232 280H200V248C200 239 193 232 184 232H136C127 232 120 239 120 248V280H88C79 280 72 287 72 296V344C72 353 79 360 88 360H120V392C120 401 127 408 136 408H184C193 408 200 401 200 392V360H232C241 360 248 353 248 344V296C248 287 241 280 232 280ZM232 344H184V392H136V344H88V296H136V248H184V296H232V344Z"/></svg>