<svg xmlns="http://www.w3.org/2000/svg" viewBox="0 0 384 512"><!-- Font Awesome Pro 6.0.0-alpha1 by @fontawesome - https://fontawesome.com License - https://fontawesome.com/license (Commercial License) --><path d="M145 255C119 288 88 332 88 357C88 394 120 424 160 424S232 394 232 357C232 332 201 288 175 255C168 246 152 246 145 255ZM160 408C129 408 104 385 104 357C104 342 124 307 158 265C158 264 160 264 160 264S162 264 162 265C196 307 216 342 216 357C216 385 191 408 160 408ZM236 160H84C51 160 24 185 21 218L0 442C-3 480 26 512 64 512H256C294 512 323 480 320 442L299 218C296 185 269 160 236 160ZM291 480C282 490 270 496 256 496H64C50 496 38 490 29 480C19 470 15 457 16 444L37 220C39 195 59 176 84 176H236C261 176 281 195 283 220L304 444C305 457 301 470 291 480ZM366 114L319 68C311 60 301 56 291 56H224V32C224 14 210 0 192 0H128C110 0 96 14 96 32V120C96 124 100 128 104 128S112 124 112 120V32C112 23 119 16 128 16H192C201 16 208 23 208 32V120C208 124 212 128 216 128S224 124 224 120V72H291C297 72 303 75 308 79L354 126C356 127 358 128 360 128S364 127 366 126C369 123 369 117 366 114Z"/></svg>