<svg xmlns="http://www.w3.org/2000/svg" viewBox="0 0 512 512"><!-- Font Awesome Pro 6.0.0-alpha1 by @fontawesome - https://fontawesome.com License - https://fontawesome.com/license (Commercial License) --><path d="M456 216C440 216 425 225 414 240C411 245 406 248 400 248C391 248 384 241 384 232V168C384 146 366 128 344 128H280C271 128 264 121 264 112C264 106 267 101 272 98C287 87 296 72 296 56C296 25 264 0 224 0S152 25 152 56C152 72 161 87 176 98C181 101 184 106 184 112C184 121 177 128 168 128H40C18 128 0 146 0 168V232C0 249 15 264 32 264C43 264 53 258 60 249C67 238 77 232 88 232C110 232 128 257 128 288S110 344 88 344C77 344 67 338 60 327C53 318 43 312 32 312C15 312 0 327 0 344V472C0 494 18 512 40 512H168C186 512 200 497 200 480C200 469 194 459 185 452C174 445 168 435 168 424C168 402 193 384 224 384S280 402 280 424C280 435 274 445 263 452C254 459 248 469 248 480C248 498 263 512 280 512H344C366 512 384 494 384 472V344C384 335 391 328 400 328C406 328 411 331 414 336C425 351 440 360 456 360C487 360 512 328 512 288S487 216 456 216ZM456 344C445 344 435 338 428 327C421 318 411 312 400 312C382 312 368 327 368 344V472C368 485 357 496 344 496H280C271 496 264 489 264 480C264 474 267 469 272 466C287 455 296 440 296 424C296 393 264 368 224 368S152 393 152 424C152 440 161 455 176 466C181 469 184 474 184 480C184 489 177 496 168 496H40C27 496 16 485 16 472V344C16 335 23 328 32 328C38 328 43 331 46 336C57 351 72 360 88 360C119 360 144 328 144 288S119 216 88 216C72 216 57 225 46 240C43 245 38 248 32 248C23 248 16 241 16 232V168C16 155 27 144 40 144H168C186 144 200 129 200 112C200 101 194 91 185 84C174 77 168 67 168 56C168 34 193 16 224 16S280 34 280 56C280 67 274 77 263 84C254 91 248 101 248 112C248 130 263 144 280 144H344C357 144 368 155 368 168V232C368 250 383 264 400 264C411 264 421 258 428 249C435 238 445 232 456 232C478 232 496 257 496 288S478 344 456 344Z"/></svg>