<svg xmlns="http://www.w3.org/2000/svg" viewBox="0 0 640 512"><!-- Font Awesome Pro 6.0.0-alpha1 by @fontawesome - https://fontawesome.com License - https://fontawesome.com/license (Commercial License) --><path d="M584 184C568 184 553 193 542 208C539 213 534 216 528 216C519 216 512 209 512 200V104C512 82 494 64 472 64H376C358 64 344 79 344 96C344 107 350 117 359 124C370 131 376 141 376 152C376 174 351 192 320 192S264 174 264 152C264 141 270 131 281 124C290 117 296 107 296 96C296 79 281 64 264 64H168C146 64 128 82 128 104V200C128 209 121 216 112 216C106 216 101 213 98 208C87 193 72 184 56 184C25 184 0 216 0 256S25 328 56 328C72 328 87 319 98 304C101 299 106 296 112 296C121 296 128 303 128 312V408C128 430 146 448 168 448H264C282 448 296 433 296 416C296 405 290 395 281 388C270 381 264 371 264 360C264 338 289 320 320 320S376 338 376 360C376 371 370 381 359 388C350 395 344 405 344 416C344 434 359 448 376 448H472C494 448 512 430 512 408V312C512 303 519 296 528 296C534 296 539 299 542 304C553 319 568 328 584 328C615 328 640 296 640 256S615 184 584 184ZM584 312C573 312 563 306 556 295C549 286 539 280 528 280C510 280 496 295 496 312V408C496 421 485 432 472 432H376C367 432 360 425 360 416C360 410 363 405 368 402C383 391 392 376 392 360C392 329 360 304 320 304S248 329 248 360C248 376 257 391 272 402C277 405 280 410 280 416C280 425 273 432 264 432H168C155 432 144 421 144 408V312C144 294 129 280 112 280C101 280 91 286 84 295C77 306 67 312 56 312C34 312 16 287 16 256S34 200 56 200C67 200 77 206 84 217C91 226 101 232 112 232C129 232 144 217 144 200V104C144 91 155 80 168 80H264C273 80 280 87 280 96C280 102 277 107 272 110C257 121 248 136 248 152C248 183 280 208 320 208S392 183 392 152C392 136 383 121 368 110C363 107 360 102 360 96C360 87 367 80 376 80H472C485 80 496 91 496 104V200C496 218 511 232 528 232C539 232 549 226 556 217C563 206 573 200 584 200C606 200 624 225 624 256S606 312 584 312Z"/></svg>