<svg xmlns="http://www.w3.org/2000/svg" viewBox="0 0 448 512"><!-- Font Awesome Pro 6.0.0-alpha1 by @fontawesome - https://fontawesome.com License - https://fontawesome.com/license (Commercial License) --><path d="M377 419C421 378 448 320 448 256C448 133 348 32 224 32S0 133 0 256S100 480 224 480C277 480 327 461 365 430L434 509C436 511 438 512 440 512C442 512 444 511 445 510C449 507 449 502 446 499L377 419ZM224 464C109 464 16 371 16 256S109 48 224 48S432 141 432 256C432 315 407 369 367 407L238 259C235 255 230 255 227 258C223 261 223 266 226 269L355 418C319 447 273 464 224 464Z"/></svg>