<svg xmlns="http://www.w3.org/2000/svg" viewBox="0 0 448 512"><!-- Font Awesome Pro 6.0.0-alpha1 by @fontawesome - https://fontawesome.com License - https://fontawesome.com/license (Commercial License) --><path d="M64 160H128V96H64V160ZM80 112H112V144H80V112ZM160 32H32C14 32 0 46 0 64V192C0 210 14 224 32 224H160C178 224 192 210 192 192V64C192 46 178 32 160 32ZM176 192C176 201 169 208 160 208H32C23 208 16 201 16 192V64C16 55 23 48 32 48H160C169 48 176 55 176 64V192ZM160 288H32C14 288 0 302 0 320V448C0 466 14 480 32 480H160C178 480 192 466 192 448V320C192 302 178 288 160 288ZM176 448C176 457 169 464 160 464H32C23 464 16 457 16 448V320C16 311 23 304 32 304H160C169 304 176 311 176 320V448ZM64 416H128V352H64V416ZM80 368H112V400H80V368ZM320 160H384V96H320V160ZM336 112H368V144H336V112ZM416 32H288C270 32 256 46 256 64V192C256 210 270 224 288 224H416C434 224 448 210 448 192V64C448 46 434 32 416 32ZM432 192C432 201 425 208 416 208H288C279 208 272 201 272 192V64C272 55 279 48 288 48H416C425 48 432 55 432 64V192ZM352 480H384V448H352V480ZM440 288H384C380 288 376 292 376 296V320H360V296C360 292 356 288 352 288H264C260 288 256 292 256 296V472C256 476 260 480 264 480H320C324 480 328 476 328 472V384H344V408C344 412 348 416 352 416H440C444 416 448 412 448 408V296C448 292 444 288 440 288ZM432 400H360V376C360 372 356 368 352 368H320C316 368 312 372 312 376V464H272V304H344V328C344 332 348 336 352 336H384C388 336 392 332 392 328V304H432V400ZM416 480H448V448H416V480Z"/></svg>