<svg xmlns="http://www.w3.org/2000/svg" viewBox="0 0 512 512"><!-- Font Awesome Pro 6.0.0-alpha1 by @fontawesome - https://fontawesome.com License - https://fontawesome.com/license (Commercial License) --><path d="M336 272H464C476 272 487 267 496 260V320H496V360C496 409 457 448 408 448H360C356 448 352 452 352 456S356 464 360 464H408C465 464 512 417 512 360L512 224C512 224 512 224 512 224V96C512 70 490 48 464 48H336C310 48 288 70 288 96V224C288 250 310 272 336 272ZM304 96C304 78 318 64 336 64H464C482 64 496 78 496 96V224C496 242 482 256 464 256H336C318 256 304 242 304 224V96ZM48 272H176C188 272 199 267 208 260V320H208V360C208 409 169 448 120 448H72C68 448 64 452 64 456S68 464 72 464H120C177 464 224 417 224 360L224 224C224 224 224 224 224 224V96C224 70 202 48 176 48H48C22 48 0 70 0 96V224C0 250 22 272 48 272ZM16 96C16 78 30 64 48 64H176C194 64 208 78 208 96V224C208 242 194 256 176 256H48C30 256 16 242 16 224V96Z"/></svg>