<svg xmlns="http://www.w3.org/2000/svg" viewBox="0 0 512 512"><!-- Font Awesome Pro 6.0.0-alpha1 by @fontawesome - https://fontawesome.com License - https://fontawesome.com/license (Commercial License) --><path d="M416 240H384C351 240 321 257 304 283V152C304 103 343 64 392 64H440C444 64 448 60 448 56S444 48 440 48H392C335 48 288 95 288 152L288 368C288 421 331 464 384 464H416C469 464 512 421 512 368V336C512 283 469 240 416 240ZM496 368C496 412 460 448 416 448H384C340 448 304 412 304 368L304 336C304 292 340 256 384 256H416C460 256 496 292 496 336V368ZM128 240H96C63 240 33 257 16 283V152C16 103 55 64 104 64H152C156 64 160 60 160 56S156 48 152 48H104C47 48 0 95 0 152L0 368C0 421 43 464 96 464H128C181 464 224 421 224 368V336C224 283 181 240 128 240ZM208 368C208 412 172 448 128 448H96C52 448 16 412 16 368L16 336C16 292 52 256 96 256H128C172 256 208 292 208 336V368Z"/></svg>