<svg xmlns="http://www.w3.org/2000/svg" viewBox="0 0 512 512"><!-- Font Awesome Pro 6.0.0-alpha1 by @fontawesome - https://fontawesome.com License - https://fontawesome.com/license (Commercial License) --><path d="M400 256C400 312 367 363 317 387C313 389 311 393 313 397C314 400 317 402 320 402C321 402 322 402 323 401C380 375 416 318 416 256C416 252 412 248 408 248S400 252 400 256ZM504 248C500 248 496 252 496 256C496 388 388 496 256 496S16 388 16 256S124 16 256 16C317 16 375 39 420 81L363 138C333 111 296 96 256 96C194 96 137 132 111 189C109 193 111 197 115 199C116 200 117 200 118 200C121 200 124 198 125 195C149 145 200 112 256 112C292 112 325 125 352 149L295 206C284 197 270 192 256 192C221 192 192 221 192 256S221 320 256 320S320 291 320 256C320 252 316 248 312 248S304 252 304 256C304 282 282 304 256 304S208 282 208 256S230 208 256 208C266 208 275 212 283 218L250 250C247 253 247 259 250 262C252 263 254 264 256 264S260 263 262 262L486 38C489 35 489 29 486 26S477 23 474 26L431 70C383 25 322 0 256 0C115 0 0 115 0 256S115 512 256 512S512 397 512 256C512 252 508 248 504 248ZM216 416C216 438 234 456 256 456S296 438 296 416S278 376 256 376S216 394 216 416ZM280 416C280 429 269 440 256 440S232 429 232 416S243 392 256 392S280 403 280 416ZM189 401C190 402 191 402 192 402C195 402 198 400 199 397C201 393 199 389 195 387C165 372 140 347 125 317C123 313 119 311 115 313C111 315 109 319 111 323C127 358 154 385 189 401ZM136 256C136 234 118 216 96 216S56 234 56 256S74 296 96 296S136 278 136 256ZM96 280C83 280 72 269 72 256S83 232 96 232S120 243 120 256S109 280 96 280Z"/></svg>