<svg xmlns="http://www.w3.org/2000/svg" viewBox="0 0 512 512"><!-- Font Awesome Pro 6.0.0-alpha1 by @fontawesome - https://fontawesome.com License - https://fontawesome.com/license (Commercial License) --><path d="M352 224C299 224 256 267 256 320S299 416 352 416S448 373 448 320S405 224 352 224ZM352 400C308 400 272 364 272 320S308 240 352 240S432 276 432 320S396 400 352 400ZM88 264H200C204 264 208 260 208 256S204 248 200 248H88C84 248 80 252 80 256S84 264 88 264ZM216 312H72C68 312 64 316 64 320S68 328 72 328H216C220 328 224 324 224 320S220 312 216 312ZM200 376H88C84 376 80 380 80 384S84 392 88 392H200C204 392 208 388 208 384S204 376 200 376ZM448 128H134L506 16C511 14 513 10 512 6C510 1 506 -1 502 0L79 128H64C29 128 0 157 0 192V448C0 483 29 512 64 512H448C483 512 512 483 512 448V192C512 157 483 128 448 128ZM496 448C496 474 474 496 448 496H64C38 496 16 474 16 448V192C16 166 38 144 64 144H448C474 144 496 166 496 192V448Z"/></svg>