<svg xmlns="http://www.w3.org/2000/svg" viewBox="0 0 640 512"><!-- Font Awesome Pro 6.0.0-alpha1 by @fontawesome - https://fontawesome.com License - https://fontawesome.com/license (Commercial License) --><path d="M320 32C144 32 0 176 0 352V472C0 476 4 480 8 480S16 476 16 472V352C16 184 152 48 320 48S624 184 624 352V472C624 476 628 480 632 480S640 476 640 472V352C640 176 496 32 320 32ZM320 128C192 128 88 232 88 360V472C88 476 92 480 96 480S104 476 104 472V360C104 241 201 144 320 144S536 241 536 360V472C536 476 540 480 544 480S552 476 552 472V360C552 232 448 128 320 128ZM320 224C249 224 192 281 192 352V472C192 476 196 480 200 480S208 476 208 472V352C208 290 258 240 320 240S432 290 432 352V472C432 476 436 480 440 480S448 476 448 472V352C448 281 391 224 320 224Z"/></svg>