<svg xmlns="http://www.w3.org/2000/svg" viewBox="0 0 640 512"><!-- Font Awesome Pro 6.0.0-alpha1 by @fontawesome - https://fontawesome.com License - https://fontawesome.com/license (Commercial License) --><path d="M216 431C212 431 208 434 208 439V478C208 488 200 496 191 496H182C175 496 169 492 166 485L141 421C140 417 135 415 131 417C127 418 125 423 127 427L151 490C156 504 169 512 182 512H191C209 512 224 497 224 478V439C224 434 220 431 216 431ZM413 417C409 415 404 417 403 421L378 485C375 492 369 496 362 496H353C344 496 336 488 336 478V439C336 434 332 431 328 431S320 434 320 439V478C320 497 335 512 353 512H362C375 512 388 504 393 490L417 427C419 423 417 418 413 417ZM528 96C528 87 521 80 512 80C503 80 496 87 496 96S503 112 512 112C521 112 528 105 528 96ZM624 101L571 48C561 38 548 32 533 32H450C431 12 404 0 376 0C319 0 272 47 272 104S319 208 376 208C423 208 465 176 477 130C478 126 475 121 471 120C467 119 462 122 461 126C451 165 416 192 376 192C327 192 288 153 288 104S327 16 376 16C401 16 425 27 442 46C444 48 446 48 449 48H533C543 48 553 52 560 59L612 111C623 122 627 138 621 153C615 167 602 176 587 176H520C516 176 512 180 512 184S516 192 520 192H585C602 192 619 184 630 170C646 149 643 119 624 101ZM494 194C493 190 492 186 491 183C488 178 481 177 477 181C477 181 477 182 477 182C475 184 475 187 476 190C477 192 478 195 479 197C480 203 485 208 491 209C518 216 535 244 525 274C519 289 506 299 490 303C486 304 482 307 480 310C477 314 477 319 478 323C481 332 481 338 479 346C474 363 462 377 444 382C433 386 421 384 409 378C407 377 404 376 402 376C397 376 392 378 389 382C380 393 366 400 352 400C344 400 337 398 329 394C327 393 324 392 322 392C317 392 312 394 309 398C300 409 286 416 272 416S244 409 235 398C232 394 227 392 222 392C220 392 217 393 215 394C207 398 200 400 192 400C178 400 164 393 155 382C152 378 147 376 142 376C140 376 137 377 135 378C123 384 111 386 100 382C82 377 70 363 65 346C63 338 63 332 66 323C67 319 67 314 64 310C62 307 59 304 55 303C43 300 32 295 25 284C4 252 23 216 54 209C58 208 62 206 64 202C67 198 67 193 66 189C63 180 63 174 65 167C70 149 82 135 100 130C111 126 123 128 135 134C137 135 140 136 142 136C147 136 152 134 155 130C164 119 178 112 192 112C200 112 207 114 215 118C217 119 220 120 222 120C227 120 232 118 235 114C238 110 241 108 245 105C247 104 248 101 248 99C248 99 248 99 248 99C249 92 241 88 236 91C231 95 226 99 222 104C213 99 203 96 192 96C172 96 154 105 142 120C133 115 122 112 110 112C96 112 82 119 72 130C45 156 46 175 51 193C22 200 0 225 0 256S22 312 51 319C46 337 45 356 72 382C82 393 96 400 110 400C122 400 133 397 142 392C154 407 172 416 192 416C203 416 213 413 222 408C234 423 252 432 272 432S310 423 322 408C331 413 341 416 352 416C372 416 390 407 402 392C411 397 422 400 434 400C448 400 462 393 472 382C499 356 498 337 493 319C522 312 544 287 544 256C544 226 523 200 494 194Z"/></svg>