<svg xmlns="http://www.w3.org/2000/svg" viewBox="0 0 448 512"><!-- Font Awesome Pro 6.0.0-alpha1 by @fontawesome - https://fontawesome.com License - https://fontawesome.com/license (Commercial License) --><path d="M400 0C397 0 393 1 390 3L352 48L298 3C295 1 291 0 288 0S281 1 278 3L224 48L170 3C167 1 163 0 160 0S153 1 150 3L96 48L58 3C55 1 51 0 48 0C40 0 32 7 32 16V496C32 505 40 512 48 512C51 512 55 511 58 509L96 464L150 509C153 511 157 512 160 512S167 511 170 509L224 464L278 509C281 511 285 512 288 512S295 511 298 509L352 464L390 509C393 511 397 512 400 512C408 512 416 505 416 496V16C416 7 408 0 400 0ZM364 454C361 450 357 448 352 448C348 448 345 449 342 452L289 496L234 452C231 449 228 448 224 448C220 448 217 449 214 452L161 496L106 452C103 449 100 448 96 448C91 448 87 450 84 454L48 495V17L84 58C87 62 91 64 96 64C100 64 103 63 106 60L159 16L214 60C217 63 220 64 224 64C228 64 231 63 234 60L287 16L342 60C345 63 348 64 352 64C357 64 361 62 364 58L400 17L400 495L364 454ZM344 152H104C100 152 96 156 96 160S100 168 104 168H344C348 168 352 164 352 160S348 152 344 152ZM344 248H104C100 248 96 252 96 256S100 264 104 264H344C348 264 352 260 352 256S348 248 344 248ZM344 344H104C100 344 96 348 96 352S100 360 104 360H344C348 360 352 356 352 352S348 344 344 344Z"/></svg>