<svg xmlns="http://www.w3.org/2000/svg" viewBox="0 0 576 512"><!-- Font Awesome Pro 6.0.0-alpha1 by @fontawesome - https://fontawesome.com License - https://fontawesome.com/license (Commercial License) --><path d="M512 32H64C29 32 0 61 0 96V416C0 451 29 480 64 480H512C547 480 576 451 576 416V96C576 61 547 32 512 32ZM560 416C560 442 538 464 512 464H64C38 464 16 442 16 416V96C16 70 38 48 64 48H512C538 48 560 70 560 96V416ZM199 164C198 162 195 160 192 160S186 162 185 164L97 340C95 344 96 349 100 351C102 352 103 352 104 352C107 352 110 350 111 348L141 288H243L273 348C275 352 280 353 284 351C288 349 289 344 287 340L199 164ZM149 272L192 186L235 272H149ZM440 160C436 160 432 164 432 168V241C420 226 401 216 380 216C342 216 312 246 312 284S342 352 380 352C401 352 420 342 432 327V344C432 348 436 352 440 352S448 348 448 344V168C448 164 444 160 440 160ZM380 336C351 336 328 313 328 284S351 232 380 232S432 255 432 284S409 336 380 336Z"/></svg>