<svg xmlns="http://www.w3.org/2000/svg" viewBox="0 0 384 512"><!-- Font Awesome Pro 6.0.0-alpha1 by @fontawesome - https://fontawesome.com License - https://fontawesome.com/license (Commercial License) --><path d="M320 0H64C29 0 0 29 0 64V480C0 498 14 512 32 512H352C370 512 384 498 384 480V64C384 29 355 0 320 0ZM368 480C368 489 361 496 352 496H32C23 496 16 489 16 480V192H288V376C288 380 292 384 296 384S304 380 304 376V192H368V480ZM368 176H304V72C304 68 300 64 296 64S288 68 288 72V176H16V64C16 38 38 16 64 16H320C346 16 368 38 368 64V176Z"/></svg>