<svg xmlns="http://www.w3.org/2000/svg" viewBox="0 0 512 512"><!-- Font Awesome Pro 6.0.0-alpha1 by @fontawesome - https://fontawesome.com License - https://fontawesome.com/license (Commercial License) --><path d="M256 16C123 16 16 123 16 256S123 496 256 496S496 389 496 256S389 16 256 16ZM256 480C132 480 32 380 32 256S132 32 256 32S480 132 480 256S380 480 256 480ZM360 208C360 164 324 128 280 128H184C171 128 160 139 160 152V376C160 380 164 384 168 384S176 380 176 376V288H280C281 288 282 288 283 288L345 380C347 383 352 386 356 383C360 380 361 375 359 372L301 285C335 276 360 245 360 208ZM280 272H176V152C176 148 180 144 184 144H280C315 144 344 173 344 208S315 272 280 272Z"/></svg>