<svg xmlns="http://www.w3.org/2000/svg" viewBox="0 0 640 512"><!-- Font Awesome Pro 6.0.0-alpha1 by @fontawesome - https://fontawesome.com License - https://fontawesome.com/license (Commercial License) --><path d="M464 0C384 0 320 64 320 144S384 288 464 288S608 224 608 144S544 0 464 0ZM464 272C393 272 336 215 336 144S393 16 464 16S592 73 592 144S535 272 464 272ZM520 144H464V72C464 68 460 64 456 64S448 68 448 72V152C448 156 452 160 456 160H520C524 160 528 156 528 152S524 144 520 144ZM522 310C522 310 522 310 522 310C518 312 516 316 518 321C524 335 528 351 528 368V440C528 444 532 448 536 448S544 444 544 440V368C544 349 540 331 532 314C531 310 526 309 522 310ZM314 236C313 233 310 232 307 232H61L237 78C241 75 241 70 238 67C235 63 230 63 227 66L35 234C33 235 32 238 32 240S33 245 35 246L227 414C228 415 230 416 232 416C234 416 236 415 238 413C241 410 241 405 237 402L61 248H307C314 248 317 241 314 236C314 236 314 236 314 236Z"/></svg>