<svg xmlns="http://www.w3.org/2000/svg" viewBox="0 0 576 512"><!-- Font Awesome Pro 6.0.0-alpha1 by @fontawesome - https://fontawesome.com License - https://fontawesome.com/license (Commercial License) --><path d="M20 240L205 78C209 75 209 70 206 67C203 63 198 63 195 66L3 234C1 235 0 238 0 240C0 242 1 245 3 246L195 414C196 415 198 416 200 416C202 416 204 415 206 413C209 410 209 405 205 402L20 240ZM440 232H157L333 78C337 75 337 70 334 67C331 63 326 63 323 66L131 234C129 235 128 238 128 240C128 242 129 245 131 246L323 414C324 415 326 416 328 416C330 416 332 415 334 413C337 410 337 405 333 402L157 248H440C506 248 560 302 560 368V440C560 444 564 448 568 448S576 444 576 440V368C576 293 515 232 440 232Z"/></svg>