<svg xmlns="http://www.w3.org/2000/svg" viewBox="0 0 640 512"><!-- Font Awesome Pro 6.0.0-alpha1 by @fontawesome - https://fontawesome.com License - https://fontawesome.com/license (Commercial License) --><path d="M312 400H144C131 400 120 389 120 376V208H199C209 208 218 202 222 193C226 184 224 173 217 166L130 72C121 62 103 62 94 72L7 166C0 173 -2 184 2 193C6 202 15 208 25 208H104V376C104 398 122 416 144 416H312C316 416 320 412 320 408S316 400 312 400ZM25 192C17 192 13 183 18 177L106 83C110 79 115 80 118 83L206 177C211 183 207 192 199 192H25ZM606 319C602 310 593 304 583 304H504V136C504 114 486 96 464 96H296C292 96 288 100 288 104S292 112 296 112H464C477 112 488 123 488 136V304H409C399 304 390 310 386 319C382 328 384 339 391 346L478 440C483 445 489 448 496 448S509 445 514 440L601 346C608 339 610 328 606 319ZM590 335L502 429C499 433 493 433 490 429L402 335C397 329 401 320 409 320H583C591 320 595 329 590 335Z"/></svg>