<svg xmlns="http://www.w3.org/2000/svg" viewBox="0 0 448 512"><!-- Font Awesome Pro 6.0.0-alpha1 by @fontawesome - https://fontawesome.com License - https://fontawesome.com/license (Commercial License) --><path d="M184 407L109 491C104 497 95 498 87 493L23 466C19 464 17 460 16 456C16 451 17 447 20 444L126 326C129 322 128 317 125 314C122 311 117 312 114 315L8 433C2 440 -1 449 0 458C1 467 6 475 15 480L80 507C85 510 91 512 97 512C106 512 115 508 121 502L196 417C199 414 199 409 196 406C192 403 187 403 184 407ZM440 433C376 362 227 195 175 136C189 131 206 128 224 128C242 128 259 131 274 136C267 143 260 152 250 163C247 166 247 171 250 174C252 176 254 176 256 176C258 176 260 176 262 174C303 128 305 124 306 123C308 119 307 114 303 112C299 109 294 111 292 114C291 115 289 118 285 123C267 116 247 112 224 112C201 112 181 116 163 123C159 118 157 115 156 114C154 111 149 109 145 112C141 114 140 119 142 123C146 128 343 349 428 444C431 447 432 451 432 456C431 460 429 464 427 465L359 493C353 497 344 496 339 491L100 224C57 177 88 123 90 121L132 50C135 44 140 39 146 35C184 9 264 9 302 35C308 39 312 44 316 50L358 121C377 154 373 195 348 224L328 246C325 249 325 254 329 257C332 260 337 260 340 257L360 235C390 201 395 152 372 113L330 42C325 34 319 27 311 22C268 -7 180 -7 137 22C129 27 123 34 118 42L76 113C75 116 38 178 88 235L327 502C334 508 342 512 351 512C357 512 362 510 367 507L434 479C442 474 447 467 448 458C449 449 446 440 440 433Z"/></svg>