<svg xmlns="http://www.w3.org/2000/svg" viewBox="0 0 512 512"><!-- Font Awesome Pro 6.0.0-alpha1 by @fontawesome - https://fontawesome.com License - https://fontawesome.com/license (Commercial License) --><path d="M40 480H120C124 480 128 476 128 472S124 464 120 464H40C27 464 16 453 16 440V72C16 59 27 48 40 48H120C124 48 128 44 128 40S124 32 120 32H40C18 32 0 50 0 72V440C0 462 18 480 40 480ZM503 233L375 105C365 96 352 93 340 98C328 103 320 115 320 128V192H160C142 192 128 206 128 224V288C128 306 142 320 160 320H320V384C320 397 328 409 340 414C352 419 365 416 375 407L503 279C509 272 512 264 512 256S509 240 503 233ZM491 267L363 395C359 400 352 401 346 399C340 396 336 390 336 384V304H160C151 304 144 297 144 288V224C144 215 151 208 160 208H336V128C336 122 340 116 346 113C352 111 359 112 363 117L491 245C494 248 496 252 496 256S494 264 491 267Z"/></svg>