<svg xmlns="http://www.w3.org/2000/svg" viewBox="0 0 512 512"><!-- Font Awesome Pro 6.0.0-alpha1 by @fontawesome - https://fontawesome.com License - https://fontawesome.com/license (Commercial License) --><path d="M504 376H160V264C160 261 158 258 155 257C153 255 149 256 147 258L3 378C1 379 0 382 0 384S1 389 3 390L147 510C148 511 150 512 152 512C153 512 154 512 155 511C158 510 160 507 160 504V392H504C508 392 512 388 512 384C512 380 508 376 504 376ZM144 487L21 384L144 281V487ZM8 136H352V248C352 251 354 254 357 255C358 256 359 256 360 256C362 256 364 255 365 254L509 134C511 133 512 130 512 128C512 126 511 123 509 122L365 2C363 0 359 -1 357 1C354 2 352 5 352 8V120H8C4 120 0 124 0 128C0 132 4 136 8 136ZM368 25L491 128L368 231V25Z"/></svg>