<svg xmlns="http://www.w3.org/2000/svg" viewBox="0 0 512 512"><!-- Font Awesome Pro 6.0.0-alpha1 by @fontawesome - https://fontawesome.com License - https://fontawesome.com/license (Commercial License) --><path d="M472 32H392C388 32 384 36 384 40S388 48 392 48H472C485 48 496 59 496 72V440C496 453 485 464 472 464H392C388 464 384 468 384 472S388 480 392 480H472C494 480 512 462 512 440V72C512 50 494 32 472 32ZM375 233L247 105C237 96 224 93 212 98C200 103 192 115 192 128V192H32C14 192 0 206 0 224V288C0 306 14 320 32 320H192V384C192 397 200 409 212 414C224 419 237 416 247 407L375 279C381 272 384 264 384 256S381 240 375 233ZM363 267L235 395C231 400 224 401 218 399C212 396 208 390 208 384V304H32C23 304 16 297 16 288V224C16 215 23 208 32 208H208V128C208 122 212 116 218 113C224 111 231 112 235 117L363 245C366 248 368 252 368 256S366 264 363 267Z"/></svg>