<svg xmlns="http://www.w3.org/2000/svg" viewBox="0 0 448 512"><!-- Font Awesome Pro 6.0.0-alpha1 by @fontawesome - https://fontawesome.com License - https://fontawesome.com/license (Commercial License) --><path d="M432 72V440C432 444 436 448 440 448S448 444 448 440V72C448 68 444 64 440 64S432 68 432 72ZM160 120V192H32C14 192 0 206 0 224V288C0 306 14 320 32 320H160V392C160 402 166 410 175 414C183 418 194 416 201 409L345 273C350 269 352 262 352 256S350 243 345 239L201 103C194 96 183 94 175 98C166 102 160 110 160 120ZM190 114L334 250C335 251 336 254 336 256S335 261 334 262L190 398C187 400 184 401 181 399C178 398 176 395 176 392V304H32C23 304 16 297 16 288V224C16 215 23 208 32 208H176V120C176 117 178 114 181 113C184 111 187 112 190 114Z"/></svg>