<svg xmlns="http://www.w3.org/2000/svg" viewBox="0 0 512 512"><!-- Font Awesome Pro 6.0.0-alpha1 by @fontawesome - https://fontawesome.com License - https://fontawesome.com/license (Commercial License) --><path d="M320 120V192H32C14 192 0 206 0 224V288C0 306 14 320 32 320H320V392C320 402 326 410 335 414C343 418 354 416 361 409L505 273C510 269 512 262 512 256S510 243 505 239L361 103C354 96 344 94 335 98C326 102 320 110 320 120ZM350 114L494 250C495 251 496 254 496 256S495 261 494 262L350 398C347 400 344 401 341 399C338 398 336 395 336 392V304H32C23 304 16 297 16 288V224C16 215 23 208 32 208H336V120C336 117 338 114 341 113C344 111 347 112 350 114Z"/></svg>