<svg xmlns="http://www.w3.org/2000/svg" viewBox="0 0 448 512"><!-- Font Awesome Pro 6.0.0-alpha1 by @fontawesome - https://fontawesome.com License - https://fontawesome.com/license (Commercial License) --><path d="M0 72V440C0 444 4 448 8 448S16 444 16 440V72C16 68 12 64 8 64S0 68 0 72ZM256 120V192H128C110 192 96 206 96 224V288C96 306 110 320 128 320H256V392C256 402 262 410 271 414C279 418 290 416 297 409L441 273C446 269 448 262 448 256S446 243 441 239L297 103C290 96 280 94 271 98C262 102 256 110 256 120ZM286 114L430 250C431 251 432 254 432 256S431 261 430 262L286 398C283 400 280 401 277 399C274 398 272 395 272 392V304H128C119 304 112 297 112 288V224C112 215 119 208 128 208H272V120C272 117 274 114 277 113C280 111 283 112 286 114Z"/></svg>