<svg xmlns="http://www.w3.org/2000/svg" viewBox="0 0 448 512"><!-- Font Awesome Pro 6.0.0-alpha1 by @fontawesome - https://fontawesome.com License - https://fontawesome.com/license (Commercial License) --><path d="M32 320H224V416C224 429 232 441 244 446C248 447 252 448 256 448C264 448 273 445 279 439L439 279C445 272 448 264 448 256S445 240 439 233L279 73C273 67 264 64 256 64C252 64 248 65 244 66C232 71 224 83 224 96V192H32C14 192 0 206 0 224V288C0 306 14 320 32 320ZM16 224C16 215 23 208 32 208H240V96C240 90 244 84 250 81C252 80 254 80 256 80C260 80 264 82 267 85L427 245C430 248 432 252 432 256C432 260 430 264 427 267L267 427C264 430 260 432 256 432C254 432 252 432 250 431C244 428 240 422 240 416V304H32C23 304 16 297 16 288V224Z"/></svg>