<svg xmlns="http://www.w3.org/2000/svg" viewBox="0 0 512 512"><!-- Font Awesome Pro 6.0.0-alpha1 by @fontawesome - https://fontawesome.com License - https://fontawesome.com/license (Commercial License) --><path d="M505 20C504 14 498 8 492 7C459 0 433 0 407 0C321 0 254 38 199 118C193 128 188 137 183 146C160 192 119 276 99 315C93 327 96 342 106 352L160 406C168 414 176 416 183 416C190 416 196 413 198 413L212 405C254 385 325 350 365 330C375 324 384 318 394 313C474 257 512 191 512 105C512 79 512 53 505 20ZM386 299L370 308L358 315C318 335 247 370 205 391L191 398C191 398 187 400 183 400C178 400 175 398 172 395L117 341C112 336 111 328 114 322C133 283 174 199 197 154L198 151L212 127C264 51 326 16 407 16C432 16 457 16 489 23C496 55 496 79 496 105C496 185 461 247 386 299ZM368 88C337 88 312 113 312 144S337 200 368 200S424 175 424 144S399 88 368 88ZM368 184C346 184 328 166 328 144S346 104 368 104S408 122 408 144S390 184 368 184ZM80 272H31C23 272 16 265 16 257C16 255 17 252 17 251L65 165C71 154 86 144 99 144H152C156 144 160 140 160 136S156 128 152 128H99C80 128 59 141 51 157L3 243C1 247 0 253 0 257C0 274 14 288 31 288H80C84 288 88 284 88 280S84 272 80 272ZM376 352C372 352 368 356 368 360V413C368 426 358 441 347 447L261 494C260 495 257 496 255 496C247 496 240 489 240 481V432C240 428 236 424 232 424C228 424 224 428 224 432V481C224 498 238 512 255 512C259 512 265 511 269 509L354 461C371 453 384 432 384 413V360C384 356 380 352 376 352Z"/></svg>