<svg xmlns="http://www.w3.org/2000/svg" viewBox="0 0 512 512"><!-- Font Awesome Pro 6.0.0-alpha1 by @fontawesome - https://fontawesome.com License - https://fontawesome.com/license (Commercial License) --><path d="M0 57V199C0 213 11 224 25 224H167C178 224 186 218 190 209S192 189 185 182L115 112L117 108C198 28 330 28 411 109C492 190 492 322 411 403C330 484 198 484 117 403C114 400 109 400 106 403C102 406 102 411 106 414C149 458 207 480 264 480S379 458 422 414C510 327 510 185 422 98C335 10 193 10 106 98L103 100L42 39C35 32 25 30 15 34C6 38 0 47 0 57ZM16 57C16 51 20 49 21 49C22 48 23 48 25 48C27 48 29 49 31 51L173 193C177 197 176 201 175 203C175 204 173 208 167 208H25C20 208 16 204 16 199V57Z"/></svg>