<svg xmlns="http://www.w3.org/2000/svg" viewBox="0 0 512 512"><!-- Font Awesome Pro 6.0.0-alpha1 by @fontawesome - https://fontawesome.com License - https://fontawesome.com/license (Commercial License) --><path d="M473 34C463 30 453 32 446 39L385 100L382 98C295 10 153 10 65 98C-22 185 -22 327 65 414C109 458 167 480 224 480S339 458 382 414C385 411 385 406 382 403C379 400 374 400 371 403C290 484 158 484 77 403C-4 322 -4 190 77 109C158 28 290 28 370 108L373 112L303 182C296 189 294 199 298 209S310 224 321 224H463C477 224 488 213 488 199V57C488 47 482 38 473 34ZM472 199C472 204 468 208 463 208H321C315 208 313 204 313 203C312 201 311 197 314 193L457 51C459 49 461 48 463 48C465 48 466 48 467 49C468 49 472 51 472 57V199Z"/></svg>