<svg xmlns="http://www.w3.org/2000/svg" viewBox="0 0 576 512"><!-- Font Awesome Pro 6.0.0-alpha1 by @fontawesome - https://fontawesome.com License - https://fontawesome.com/license (Commercial License) --><path d="M96 400C87 400 80 407 80 416S87 432 96 432S112 425 112 416S105 400 96 400ZM192 400C183 400 176 407 176 416S183 432 192 432S208 425 208 416S201 400 192 400ZM512 320H360V224C360 220 356 216 352 216S344 220 344 224V320H64C29 320 0 349 0 384V448C0 483 29 512 64 512H512C547 512 576 483 576 448V384C576 349 547 320 512 320ZM560 448C560 474 538 496 512 496H64C38 496 16 474 16 448V384C16 358 38 336 64 336H512C538 336 560 358 560 384V448ZM154 102C206 46 276 16 352 16S498 46 550 102C552 103 554 104 556 104C558 104 560 103 561 102C565 99 565 94 562 90C507 33 431 0 352 0S197 33 142 90C139 94 140 99 143 102C146 105 151 105 154 102ZM352 112C300 112 251 135 218 174C215 177 215 182 219 185C222 188 227 188 230 184C261 149 305 128 352 128S443 149 474 184C475 186 478 187 480 187C482 187 484 187 485 185C489 182 489 177 486 174C453 135 404 112 352 112Z"/></svg>