<svg xmlns="http://www.w3.org/2000/svg" viewBox="0 0 512 512"><!-- Font Awesome Pro 6.0.0-alpha1 by @fontawesome - https://fontawesome.com License - https://fontawesome.com/license (Commercial License) --><path d="M96 256C43 256 0 299 0 352S96 512 96 512S192 405 192 352S149 256 96 256ZM16 352C16 308 52 272 96 272S176 308 176 352C176 382 131 446 96 488C61 446 16 382 16 352ZM96 320C78 320 64 334 64 352S78 384 96 384S128 370 128 352S114 320 96 320ZM96 368C87 368 80 361 80 352S87 336 96 336C105 336 112 343 112 352S105 368 96 368ZM512 96C512 43 469 0 416 0S320 43 320 96S416 256 416 256S512 149 512 96ZM416 16C460 16 496 52 496 96C496 126 451 190 416 232C381 190 336 126 336 96C336 52 372 16 416 16ZM448 96C448 78 434 64 416 64S384 78 384 96S398 128 416 128S448 114 448 96ZM400 96C400 87 407 80 416 80C425 80 432 87 432 96S425 112 416 112C407 112 400 105 400 96ZM440 368H312C281 368 256 343 256 312S281 256 312 256H352C356 256 360 252 360 248S356 240 352 240H312C272 240 240 272 240 312S272 384 312 384H440C471 384 496 409 496 440S471 496 440 496H160C156 496 152 500 152 504S156 512 160 512H440C480 512 512 480 512 440S480 368 440 368Z"/></svg>