<svg xmlns="http://www.w3.org/2000/svg" viewBox="0 0 512 512"><!-- Font Awesome Pro 6.0.0-alpha1 by @fontawesome - https://fontawesome.com License - https://fontawesome.com/license (Commercial License) --><path d="M400 160H296C292 160 288 164 288 168V504C288 508 292 512 296 512S304 508 304 504V384H400C462 384 512 334 512 272S462 160 400 160ZM400 368H304V176H400C453 176 496 219 496 272S453 368 400 368ZM120 32H40C18 32 0 50 0 72V472C0 476 4 480 8 480S16 476 16 472V304H120C123 304 127 303 130 303L184 474C185 478 189 480 192 480C193 480 194 480 194 480C199 478 201 474 200 470L146 301C209 289 256 234 256 168C256 93 195 32 120 32ZM120 288H16V72C16 59 27 48 40 48H120C186 48 240 102 240 168S186 288 120 288Z"/></svg>