<svg xmlns="http://www.w3.org/2000/svg" viewBox="0 0 320 512"><!-- Font Awesome Pro 6.0.0-alpha1 by @fontawesome - https://fontawesome.com License - https://fontawesome.com/license (Commercial License) --><path d="M180 480C130 480 70 467 5 442C1 441 -1 436 1 432C2 428 7 426 11 428C92 459 200 481 260 447C283 434 297 414 302 387C317 307 239 286 158 264C73 241 -15 217 2 122C7 95 23 72 47 56C94 26 169 24 270 50C275 51 277 55 276 59C275 64 271 66 267 65C171 41 98 43 56 70C30 86 21 109 18 125C3 205 81 226 162 248C247 272 335 296 318 390C312 422 295 446 268 461C245 474 215 480 180 480Z"/></svg>