<svg xmlns="http://www.w3.org/2000/svg" viewBox="0 0 512 512"><!-- Font Awesome Pro 6.0.0-alpha1 by @fontawesome - https://fontawesome.com License - https://fontawesome.com/license (Commercial License) --><path d="M184 339L208 315C213 318 218 320 224 320C242 320 256 306 256 288C256 270 242 256 224 256C207 256 192 271 192 288C192 294 194 299 197 304L173 328L60 215C55 210 47 207 40 208C33 209 27 213 24 220C-18 297 -4 392 58 454C96 492 148 512 199 512C231 512 263 504 293 489C299 485 303 479 304 472C305 465 302 458 297 453L184 339ZM224 272C233 272 240 279 240 288S233 304 224 304C215 304 208 297 208 288S215 272 224 272ZM285 475C215 512 126 499 70 443C12 385 0 299 38 227C39 225 41 224 42 224C43 224 43 224 43 224C45 224 47 225 48 226L286 464C288 466 288 468 288 470C288 471 287 473 285 475ZM192 0C188 0 184 4 184 8S188 16 192 16C360 16 496 152 496 320C496 325 500 328 504 328C508 328 512 325 512 320C512 144 369 0 192 0ZM192 96C188 96 184 100 184 104S188 112 192 112C307 112 400 205 400 320C400 325 404 328 408 328C412 328 416 325 416 320C416 197 316 96 192 96Z"/></svg>