<svg xmlns="http://www.w3.org/2000/svg" viewBox="0 0 512 512"><!-- Font Awesome Pro 6.0.0-alpha1 by @fontawesome - https://fontawesome.com License - https://fontawesome.com/license (Commercial License) --><path d="M122 174C124 175 126 176 128 176S132 175 134 174C137 171 137 166 134 162L119 147C110 138 110 124 119 115L212 22C220 14 235 14 244 22L291 69C294 72 299 72 302 69C305 66 305 61 302 58L255 11C240 -4 214 -3 200 11L107 104C92 119 92 144 107 159L122 174ZM338 286L468 156C476 148 480 138 480 128S476 107 468 100L412 43C404 35 394 32 384 32C374 32 364 35 356 43L226 173L178 222C154 213 130 208 105 208C73 208 41 216 11 231C5 235 1 241 0 248C-1 255 2 262 7 267L120 381L96 405C91 402 86 400 80 400C62 400 48 414 48 432S62 464 80 464C98 464 112 450 112 432C112 426 110 421 107 416L131 392L244 505C249 510 257 513 264 512C271 511 277 507 280 501C309 448 311 387 290 334L338 286ZM80 448C71 448 64 441 64 432C64 423 71 416 80 416C89 416 96 423 96 432C96 441 89 448 80 448ZM237 185L367 55C372 50 378 48 384 48C390 48 396 50 401 55L457 111C462 115 464 121 464 128S461 140 457 145L327 275L283 318C274 299 261 282 246 266C230 250 212 238 193 229L237 185ZM266 493C265 495 263 496 262 496C261 496 261 496 261 496C259 496 257 495 256 494L18 256C16 254 16 252 16 250C16 249 17 247 19 245C89 207 178 221 234 277C292 335 305 421 266 493ZM501 257L454 210C451 207 445 207 442 210C439 213 439 218 442 221L489 268C494 272 496 278 496 284C496 290 494 296 489 300L396 393C388 402 373 402 364 393L349 378C346 375 341 375 338 378C335 381 335 386 338 390L353 405C361 412 370 416 380 416S400 412 408 405L501 312C508 304 512 294 512 284C512 274 508 264 501 257Z"/></svg>