<svg xmlns="http://www.w3.org/2000/svg" viewBox="0 0 512 512"><!-- Font Awesome Pro 6.0.0-alpha1 by @fontawesome - https://fontawesome.com License - https://fontawesome.com/license (Commercial License) --><path d="M430 65C425 64 421 64 416 64C369 64 328 99 321 146L316 180C306 250 250 306 180 316L146 321C94 328 58 377 65 430C72 477 113 512 160 512C164 512 169 512 174 511L208 506C361 484 484 361 506 208L511 174C519 121 482 72 430 65ZM495 171L490 205C469 352 352 469 205 490L171 495C167 496 164 496 160 496C120 496 86 466 81 427C75 384 105 343 149 337L183 332C260 321 321 260 332 183L337 149C342 110 376 80 416 80C420 80 424 80 427 81C471 87 501 128 495 171ZM384 152C380 152 376 156 376 160C376 279 279 376 160 376C156 376 152 380 152 384S156 392 160 392C288 392 392 288 392 160C392 156 388 152 384 152ZM45 391C49 393 54 391 55 387C57 383 55 378 51 377L11 361C8 360 6 360 3 361C1 363 0 365 0 368V464C0 467 1 469 3 471C5 472 6 472 8 472C9 472 10 472 11 471L51 455C55 454 57 449 55 445C54 441 49 439 45 441L16 452V380L45 391ZM377 51C378 55 383 57 387 55C391 54 393 49 391 45L380 16H452L441 45C439 49 441 54 445 55C446 56 447 56 448 56C451 56 454 54 455 51L471 11C472 9 472 6 471 4C469 1 467 0 464 0H368C365 0 363 1 361 3C360 6 360 8 361 11L377 51Z"/></svg>