<svg xmlns="http://www.w3.org/2000/svg" viewBox="0 0 448 512"><!-- Font Awesome Pro 6.0.0-alpha1 by @fontawesome - https://fontawesome.com License - https://fontawesome.com/license (Commercial License) --><path d="M434 130L350 46C342 38 327 32 316 32H48C22 32 0 53 0 80V432C0 459 22 480 48 480H400C426 480 448 459 448 432V164C448 153 442 138 434 130ZM80 48H304V176H80V48ZM432 432C432 450 418 464 400 464H48C30 464 16 450 16 432V80C16 62 30 48 48 48H64V176C64 185 71 192 80 192H304C313 192 320 185 320 176V49C327 50 335 53 339 57L423 141C427 146 432 157 432 164V432ZM208 240C159 240 120 279 120 328C120 377 159 416 208 416S296 377 296 328C296 279 257 240 208 240ZM208 400C168 400 136 368 136 328S168 256 208 256S280 288 280 328S248 400 208 400Z"/></svg>