<svg xmlns="http://www.w3.org/2000/svg" viewBox="0 0 640 512"><!-- Font Awesome Pro 6.0.0-alpha1 by @fontawesome - https://fontawesome.com License - https://fontawesome.com/license (Commercial License) --><path d="M166 183C167 184 169 184 171 184C173 184 176 183 177 181C185 169 189 156 189 142C189 136 185 125 179 113C178 111 175 109 173 109C170 109 167 110 166 112L146 135L108 83C107 81 104 79 102 79H102C99 79 97 81 95 83C76 109 67 132 67 142C67 156 71 170 79 181C81 184 86 185 90 182C94 180 94 175 92 171C86 163 83 153 83 142C83 139 87 123 102 101L140 153C141 155 143 157 146 157C148 156 151 156 152 154L170 132C172 138 173 141 173 142C173 153 170 163 164 171C162 175 162 180 166 183ZM633 102L606 75C599 68 589 64 579 64H533C514 64 497 71 483 84L433 134L422 122C418 119 413 119 410 122S407 131 410 134L422 145L385 182L374 170C370 167 365 167 362 170S359 179 362 182L374 193L337 229L326 218C322 215 317 215 314 218S311 227 314 230L325 241L207 358C201 363 192 364 185 359C178 354 177 345 181 338L231 260C233 257 232 252 228 249C225 247 220 248 217 252L167 329C159 343 162 361 175 371C188 381 207 380 218 369L337 252L346 262C348 263 350 264 352 264S356 263 358 262C361 259 361 253 358 250L348 241L385 204L394 214C396 215 398 216 400 216S404 215 406 214C409 211 409 205 406 202L396 193L433 156L442 166C444 167 446 168 448 168S452 167 454 166C457 163 457 157 454 154L445 145L495 96C505 86 518 80 533 80H579C585 80 591 82 595 87L622 113C625 116 624 120 623 121C623 122 621 126 616 126H553C541 126 530 131 523 140L283 437L280 440C267 455 230 496 164 496H163C139 496 116 490 95 478C46 453 16 404 16 350C16 327 24 290 32 258C33 254 30 249 26 248C22 247 17 250 16 254C8 287 0 325 0 350C0 410 34 464 88 493C111 505 137 512 163 512H164C238 512 277 467 292 451L535 150C540 145 546 142 553 142H616C626 142 635 136 638 127C642 118 640 108 633 102ZM8 224H248C252 224 256 220 256 216S252 208 248 208H8C4 208 0 212 0 216S4 224 8 224ZM29 184C33 182 36 178 34 174C31 163 29 153 29 142C29 112 60 59 101 19C117 34 130 49 142 66C144 68 146 69 148 69C151 69 153 68 155 66C161 58 168 51 175 44C205 74 227 120 227 142C227 153 225 163 222 174C220 178 223 182 227 184C228 184 229 184 229 184C233 184 236 182 237 178C241 167 243 155 243 142C243 115 217 60 181 27C178 24 173 24 170 27C163 33 156 41 149 48C137 32 122 17 107 2C104 -1 99 -1 96 2C48 47 13 106 13 142C13 155 15 167 19 178C20 183 25 185 29 184ZM72 376C72 385 79 392 88 392S104 385 104 376S97 360 88 360S72 367 72 376ZM104 280C104 289 111 296 120 296S136 289 136 280S129 264 120 264S104 271 104 280Z"/></svg>