<svg xmlns="http://www.w3.org/2000/svg" viewBox="0 0 640 512"><!-- Font Awesome Pro 6.0.0-alpha1 by @fontawesome - https://fontawesome.com License - https://fontawesome.com/license (Commercial License) --><path d="M112 224C112 233 119 240 128 240S144 233 144 224S137 208 128 208S112 215 112 224ZM8 144H280C284 144 288 140 288 136S284 128 280 128H8C4 128 0 132 0 136S4 144 8 144ZM80 320C80 329 87 336 96 336S112 329 112 320S105 304 96 304S80 311 80 320ZM633 70L606 43C599 36 589 32 579 32H533C514 32 497 39 483 52L433 102L422 90C418 87 413 87 410 90S407 99 410 102L422 113L385 150L374 138C370 135 365 135 362 138S359 147 362 150L374 161L337 197L326 186C322 183 317 183 314 186S311 195 314 198L325 209L207 326C201 331 192 332 185 327C178 322 177 313 181 305L255 172C257 168 256 163 252 161C248 159 243 160 241 164L167 297C159 311 162 329 175 339C188 349 207 348 218 337L337 220L346 230C348 231 350 232 352 232S356 231 358 230C361 227 361 221 358 218L348 209L385 172L394 182C396 183 398 184 400 184S404 183 406 182C409 178 409 173 406 170L396 161L433 124L442 134C444 135 446 136 448 136S452 135 454 134C457 131 457 125 454 122L445 113L495 64C505 54 518 48 533 48H579C585 48 591 50 595 55L622 81C625 84 624 88 623 89C623 90 621 94 616 94H553C541 94 530 99 523 108L283 405L280 408C267 423 230 464 164 464C140 465 116 458 95 446C46 421 16 372 16 318C16 282 33 204 42 170C44 166 41 162 37 160C33 159 28 162 27 166C18 198 0 279 0 318C0 378 34 432 88 461C111 473 137 480 163 480H164C238 480 277 435 292 419L535 118C540 113 546 110 553 110H616C626 110 635 104 638 95C642 86 640 76 633 70Z"/></svg>