<svg xmlns="http://www.w3.org/2000/svg" viewBox="0 0 576 512"><!-- Font Awesome Pro 6.0.0-alpha1 by @fontawesome - https://fontawesome.com License - https://fontawesome.com/license (Commercial License) --><path d="M246 431C276 407 296 363 296 320C296 316 292 312 288 312C284 312 280 316 280 320C280 358 263 397 236 419V419C235 419 235 419 235 419C177 465 104 492 27 496L188 326C191 322 191 317 188 314C185 311 180 311 177 314L2 498C0 501 -1 504 1 507C2 510 5 512 9 512C95 512 179 484 245 432C245 432 245 431 246 431ZM312 496H232C228 496 224 500 224 504S228 512 232 512H312C316 512 320 508 320 504S316 496 312 496ZM494 124C508 108 514 86 511 65C509 44 498 25 480 13C449 -9 405 -2 379 28L184 256C178 263 177 273 180 281S193 295 202 295H330C341 295 352 290 359 281L494 124ZM330 279H202C197 279 195 276 195 275S193 270 196 266L391 38C404 24 422 16 439 16C450 16 462 19 471 26C485 36 493 50 496 67C498 84 493 101 482 114L347 271C343 276 336 279 330 279ZM568 496H488C484 496 480 500 480 504S484 512 488 512H568C572 512 576 508 576 504S572 496 568 496ZM440 496H360C356 496 352 500 352 504S356 512 360 512H440C444 512 448 508 448 504S444 496 440 496Z"/></svg>