<svg xmlns="http://www.w3.org/2000/svg" viewBox="0 0 640 512"><!-- Font Awesome Pro 6.0.0-alpha1 by @fontawesome - https://fontawesome.com License - https://fontawesome.com/license (Commercial License) --><path d="M390 375C386 381 384 388 384 395C390 460 445 512 512 512S634 460 640 395C641 388 638 381 634 375L525 199C522 194 517 192 512 192C507 192 502 194 499 199L390 375ZM621 384H403L512 208L512 208C512 208 512 208 512 208L621 384C621 384 621 384 621 384ZM401 400H623C615 454 568 496 512 496C456 496 409 454 401 400ZM0 267C6 332 61 384 128 384S250 332 256 267C257 260 254 253 250 247L141 71C138 66 133 64 128 64C123 64 118 66 115 71L6 247C2 253 -1 260 0 267ZM237 256H19L128 80L128 80C128 80 128 80 128 80L237 256C237 256 237 256 237 256ZM17 272H239C231 326 184 368 128 368C72 368 25 326 17 272ZM96 504C96 508 100 512 104 512H320C324 512 328 508 328 504V127C344 125 359 117 369 105L533 160C534 160 535 160 536 160C539 160 542 158 544 155C545 150 543 146 539 144L378 91C382 83 384 74 384 64C384 29 355 0 320 0C289 0 264 22 257 51L107 0C102 -1 98 1 96 5S97 14 101 16L256 67C258 98 282 123 312 127V496H104C100 496 96 500 96 504ZM320 112C294 112 272 90 272 64S294 16 320 16C346 16 368 38 368 64S346 112 320 112Z"/></svg>