<svg xmlns="http://www.w3.org/2000/svg" viewBox="0 0 640 512"><!-- Font Awesome Pro 6.0.0-alpha1 by @fontawesome - https://fontawesome.com License - https://fontawesome.com/license (Commercial License) --><path d="M141 199C138 194 133 192 128 192C123 192 118 194 115 199L6 375C2 381 0 388 0 395C6 460 61 512 128 512S250 460 256 395C257 388 254 381 250 375L141 199ZM19 384L128 208C128 208 128 208 128 208L128 208L237 384H19C19 384 19 384 19 384ZM128 496C72 496 25 454 17 400H239C231 454 184 496 128 496ZM634 247L525 71C522 66 517 64 512 64S502 66 499 71L390 247C386 253 384 260 384 267C390 332 445 384 512 384S634 332 640 267C641 260 638 253 634 247ZM403 256L512 80C512 80 512 80 512 80L512 80L621 256H403C403 256 403 256 403 256ZM512 368C456 368 409 326 401 272H623C615 326 568 368 512 368ZM536 496H328V127C358 123 382 98 384 67L539 16C543 14 545 10 544 6S538 -1 533 0L383 51C376 22 351 0 320 0C285 0 256 29 256 64C256 74 258 83 262 91L101 144C97 146 95 150 96 155C98 158 101 160 104 160C105 160 106 160 107 160L271 105C281 117 296 125 312 127V504C312 508 316 512 320 512H536C540 512 544 508 544 504S540 496 536 496ZM272 64C272 38 294 16 320 16S368 38 368 64S346 112 320 112S272 90 272 64Z"/></svg>