<svg xmlns="http://www.w3.org/2000/svg" viewBox="0 0 640 512"><!-- Font Awesome Pro 6.0.0-alpha1 by @fontawesome - https://fontawesome.com License - https://fontawesome.com/license (Commercial License) --><path d="M634 279L525 103C522 98 517 96 512 96S502 98 499 103L390 279C386 285 384 292 384 299C390 364 445 416 512 416S634 364 640 299C641 292 638 285 634 279ZM403 288L512 112C512 112 512 112 512 112L512 112L621 288H403C403 288 403 288 403 288ZM512 400C456 400 409 358 401 304H623C615 358 568 400 512 400ZM256 299C257 292 254 285 250 279L141 103C138 98 133 96 128 96C123 96 118 98 115 103L6 279C2 285 0 292 0 299C6 364 61 416 128 416S250 364 256 299ZM19 288L128 112C128 112 128 112 128 112L128 112L237 288H19C19 288 19 288 19 288ZM17 304H239C231 358 184 400 128 400C72 400 25 358 17 304ZM536 496H328V128C328 128 328 128 328 127C359 123 384 97 384 64H536C540 64 544 60 544 56S540 48 536 48H384C383 48 383 49 382 49C375 21 350 0 320 0S265 21 258 49C257 49 257 48 256 48H104C100 48 96 52 96 56S100 64 104 64H256C256 97 281 123 312 127C312 128 312 128 312 128V496H104C100 496 96 500 96 504S100 512 104 512H312H328H536C540 512 544 508 544 504S540 496 536 496ZM272 64C272 38 294 16 320 16S368 38 368 64S346 112 320 112S272 90 272 64Z"/></svg>