<svg xmlns="http://www.w3.org/2000/svg" viewBox="0 0 576 512"><!-- Font Awesome Pro 6.0.0-alpha1 by @fontawesome - https://fontawesome.com License - https://fontawesome.com/license (Commercial License) --><path d="M320 32H112C50 32 0 82 0 144C0 192 31 233 74 249L8 364C-8 391 1 425 28 441L83 473C92 478 102 480 111 480C131 480 150 470 160 452L273 256H320C338 256 352 242 352 224V64C352 46 338 32 320 32ZM146 444C141 453 132 460 122 463C112 465 101 464 91 459L36 427C17 416 10 391 21 372L90 254C97 255 104 256 112 256H255L146 444ZM336 224C336 233 329 240 320 240H112C59 240 16 197 16 144C16 91 59 48 112 48H320C329 48 336 55 336 64V224ZM424 48H568C572 48 576 44 576 40S572 32 568 32H424C420 32 416 36 416 40S420 48 424 48ZM568 464H424C420 464 416 468 416 472S420 480 424 480H568C572 480 576 476 576 472S572 464 568 464ZM568 80H424C420 80 416 84 416 88S420 96 424 96H568C572 96 576 92 576 88S572 80 568 80ZM568 128H424C420 128 416 132 416 136S420 144 424 144H568C572 144 576 140 576 136S572 128 568 128ZM568 376H424C420 376 416 380 416 384S420 392 424 392H568C572 392 576 388 576 384S572 376 568 376ZM568 192H424C420 192 416 196 416 200S420 208 424 208H568C572 208 576 204 576 200S572 192 568 192ZM568 320H424C420 320 416 324 416 328S420 336 424 336H568C572 336 576 332 576 328S572 320 568 320ZM568 272H424C420 272 416 276 416 280S420 288 424 288H568C572 288 576 284 576 280S572 272 568 272Z"/></svg>