<svg xmlns="http://www.w3.org/2000/svg" viewBox="0 0 448 512"><!-- Font Awesome Pro 6.0.0-alpha1 by @fontawesome - https://fontawesome.com License - https://fontawesome.com/license (Commercial License) --><path d="M446 186L419 160L438 142C443 137 439 128 432 128H314C318 118 320 107 320 96C320 43 277 0 224 0S128 43 128 96C128 107 130 118 134 128H16C9 128 5 137 10 142L29 160L2 186C-1 189 -1 194 2 198L29 224L10 242C5 247 9 256 16 256H122L96 397C95 408 103 416 112 416C114 416 117 415 119 414L152 390C155 388 158 387 161 387C164 387 167 387 169 389L217 414C219 415 221 416 224 416S229 415 231 414L279 389C281 387 284 387 287 387C290 387 293 388 296 390L329 414C331 415 334 416 336 416C345 416 353 408 352 397L326 256H432C439 256 443 247 438 242L419 224L446 198C449 194 449 190 446 186ZM224 16C268 16 304 52 304 96C304 140 268 176 224 176C180 176 144 140 144 96C144 52 180 16 224 16ZM408 213C405 216 403 220 403 224C403 228 405 232 408 235L413 240H326C321 240 317 242 314 246C311 249 309 254 310 259L336 400L306 377C300 373 294 371 287 371C281 371 276 372 272 375L224 400L177 375C172 372 167 371 161 371C154 371 148 373 142 377L112 400L138 259C139 254 138 249 135 246C132 242 127 240 122 240H35L40 235C43 232 45 228 45 224S43 216 40 213L19 192L40 171C43 168 45 164 45 160C45 156 43 152 40 149L35 144H141L141 144C158 173 189 192 224 192S290 173 307 144L307 144H413L408 149C405 152 403 156 403 160C403 164 405 168 408 171L429 192L408 213ZM192 96C201 96 208 89 208 80C208 71 201 64 192 64C183 64 176 71 176 80C176 89 183 96 192 96ZM256 112C265 112 272 105 272 96C272 87 265 80 256 80C247 80 240 87 240 96C240 105 247 112 256 112ZM224 432C220 432 216 436 216 440V504C216 508 220 512 224 512S232 508 232 504V440C232 436 228 432 224 432Z"/></svg>