<svg xmlns="http://www.w3.org/2000/svg" viewBox="0 0 512 512"><!-- Font Awesome Pro 6.0.0-alpha1 by @fontawesome - https://fontawesome.com License - https://fontawesome.com/license (Commercial License) --><path d="M218 378L98 498C95 501 95 507 98 510C100 511 102 512 104 512S108 511 110 510L230 390C233 386 233 381 230 378S221 375 218 378ZM134 282C131 279 125 279 122 282L2 402C-1 405 -1 410 2 414C4 415 6 416 8 416S12 415 14 414L134 294C137 290 137 285 134 282ZM182 330C179 327 173 327 170 330L50 450C47 453 47 458 50 462C52 463 54 464 56 464S60 463 62 462L182 342C185 338 185 333 182 330ZM370 246L233 109C251 107 267 107 280 109L272 117C269 120 269 125 272 128C276 132 281 132 284 128L302 110C304 108 305 105 304 102C304 99 301 97 298 97C279 92 249 88 215 96C212 97 210 99 209 102C208 105 209 108 211 110L353 252L257 349L134 220C93 175 121 125 124 119L166 50C169 44 174 39 179 35C217 10 296 9 333 35C338 39 343 44 346 50L388 119C393 128 418 176 376 222C373 225 374 230 377 233C380 236 385 236 388 233C437 178 408 122 402 111L360 41C356 33 349 27 342 22C299 -7 213 -7 170 22C163 27 156 34 152 41L110 111C96 135 83 187 122 231L251 366C252 367 254 368 257 368C259 368 261 367 262 366L370 258C373 255 373 250 370 246ZM294 378C292 377 290 376 288 376S284 377 282 378C279 381 279 386 282 390L402 510C405 513 411 513 414 510C417 507 417 501 414 498L294 378ZM510 402L390 282C388 281 386 280 384 280S380 281 378 282C375 285 375 290 378 294L498 414C501 417 507 417 510 414C513 410 513 405 510 402ZM342 330C340 329 338 328 336 328S332 329 330 330C327 333 327 338 330 342L450 462C453 465 459 465 462 462C465 458 465 453 462 450L342 330Z"/></svg>