<svg xmlns="http://www.w3.org/2000/svg" viewBox="0 0 640 512"><!-- Font Awesome Pro 6.0.0-alpha1 by @fontawesome - https://fontawesome.com License - https://fontawesome.com/license (Commercial License) --><path d="M494 113L324 2C322 1 318 1 316 2L146 113C135 120 128 133 128 147V505C128 510 132 513 136 513S144 510 144 505V147C144 138 148 131 155 126L320 19L485 126C492 131 496 138 496 147V505C496 510 500 513 504 513S512 510 512 505V147C512 133 505 120 494 113ZM88 193H40C18 193 0 211 0 233V505C0 510 4 513 8 513S16 510 16 505V233C16 220 27 209 40 209H88C92 209 96 206 96 201S92 193 88 193ZM600 193H552C548 193 544 197 544 201S548 209 552 209H600C613 209 624 220 624 233V505C624 510 628 513 632 513S640 510 640 505V233C640 211 622 193 600 193ZM360 353H280C258 353 240 371 240 393V505C240 510 244 513 248 513S256 510 256 505V393C256 380 267 369 280 369H360C373 369 384 380 384 393V505C384 510 388 513 392 513S400 510 400 505V393C400 371 382 353 360 353ZM320 89C271 89 232 129 232 177S271 265 320 265S408 226 408 177S369 89 320 89ZM320 249C280 249 248 217 248 177S280 105 320 105S392 137 392 177S360 249 320 249ZM352 177H328V137C328 133 324 129 320 129S312 133 312 137V185C312 190 316 193 320 193H352C356 193 360 190 360 185S356 177 352 177Z"/></svg>