<svg xmlns="http://www.w3.org/2000/svg" viewBox="0 0 576 512"><!-- Font Awesome Pro 6.0.0-alpha1 by @fontawesome - https://fontawesome.com License - https://fontawesome.com/license (Commercial License) --><path d="M568 336H280C276 336 272 340 272 344V400C272 435 243 464 208 464S144 435 144 400V104C144 81 133 61 117 48H400C435 48 464 77 464 112V296C464 300 468 304 472 304S480 300 480 296V112C480 68 444 32 400 32H72C32 32 0 64 0 104V168C0 172 4 176 8 176H88C92 176 96 172 96 168S92 160 88 160H16V104C16 73 41 48 72 48S128 73 128 104V400C128 444 164 480 208 480H496C540 480 576 444 576 400V344C576 340 572 336 568 336ZM560 400C560 435 531 464 496 464H256C275 449 288 426 288 400V352H560V400Z"/></svg>