<svg xmlns="http://www.w3.org/2000/svg" viewBox="0 0 576 512"><!-- Font Awesome Pro 6.0.0-alpha1 by @fontawesome - https://fontawesome.com License - https://fontawesome.com/license (Commercial License) --><path d="M568 336H416C414 336 411 337 410 339L384 371L358 339C357 337 354 336 352 336H280C276 336 272 340 272 344V400C272 435 243 464 208 464S144 435 144 400V259L174 230C177 227 177 221 174 218L144 189V104C144 81 133 61 117 48H400C435 48 464 77 464 112V125L434 154C431 157 431 163 434 166L464 195V221L434 250C431 254 431 259 434 262L464 291V296C464 300 468 304 472 304S480 300 480 296V288C480 286 479 284 478 282L451 256L478 230C479 228 480 226 480 224V192C480 190 479 188 478 186L451 160L478 134C479 132 480 130 480 128V112C480 68 444 32 400 32H72C32 32 0 64 0 104V168C0 172 4 176 8 176H88C92 176 96 172 96 168S92 160 88 160H16V104C16 73 41 48 72 48S128 73 128 104V192C128 194 129 196 130 198L157 224L130 250C129 252 128 254 128 256V400C128 444 164 480 208 480H496C540 480 576 444 576 400V344C576 340 572 336 568 336ZM560 400C560 435 531 464 496 464H256C275 449 288 426 288 400V352H348L378 389C381 393 387 393 390 389L420 352H560V400Z"/></svg>