<svg xmlns="http://www.w3.org/2000/svg" viewBox="0 0 640 512"><!-- Font Awesome Pro 6.0.0-alpha1 by @fontawesome - https://fontawesome.com License - https://fontawesome.com/license (Commercial License) --><path d="M202 320C205 325 210 328 216 328H276L306 376C309 381 314 384 320 384S331 381 334 376L364 328H424C430 328 435 325 438 320C441 315 441 309 438 304L408 256L438 208C441 203 441 197 438 192C435 187 430 184 424 184H364L334 136C328 126 312 126 306 136L276 184H216C210 184 205 187 202 192C199 197 199 203 202 208L232 256L202 304C199 309 199 315 202 320ZM320 368L295 328H344L320 368ZM424 312C424 312 424 312 424 312L374 312L399 271L424 312ZM424 200L399 241L374 200L424 200ZM320 144L345 184H296L320 144ZM286 200L355 200L389 256L354 312L285 312L251 256L286 200ZM216 200C216 200 216 200 216 200L266 200L241 241L216 200ZM241 271L266 312L216 312L241 271ZM56 0C25 0 0 18 0 40V472C0 494 25 512 56 512S112 494 112 472V40C112 18 87 0 56 0ZM96 472C96 485 78 496 56 496S16 485 16 472V40C16 27 34 16 56 16S96 27 96 40V472ZM584 0C553 0 528 18 528 40V472C528 494 553 512 584 512S640 494 640 472V40C640 18 615 0 584 0ZM624 472C624 485 606 496 584 496S544 485 544 472V40C544 27 562 16 584 16S624 27 624 40V472ZM492 32H148C144 32 140 36 140 40S144 48 148 48H492C496 48 500 44 500 40S496 32 492 32ZM492 464H148C144 464 140 468 140 472S144 480 148 480H492C496 480 500 476 500 472S496 464 492 464Z"/></svg>