<svg xmlns="http://www.w3.org/2000/svg" viewBox="0 0 640 512"><!-- Font Awesome Pro 6.0.0-alpha1 by @fontawesome - https://fontawesome.com License - https://fontawesome.com/license (Commercial License) --><path d="M506 184C506 180 502 176 498 176H22C81 74 194 16 333 16H536C540 16 544 12 544 8S540 0 536 0H333C182 0 61 66 1 180C0 183 0 186 1 188C3 191 5 192 8 192H498C502 192 506 188 506 184ZM633 12C627 4 617 0 608 0H582L523 288H416C398 288 384 302 384 320S398 352 416 352H509L481 474C477 494 492 512 511 512C526 512 539 502 542 487L639 38C641 29 639 19 633 12ZM527 484C525 491 519 496 511 496C507 496 502 494 499 490C497 487 495 482 496 478L525 356L530 336H416C407 336 400 329 400 320S407 304 416 304H536L538 291L595 16H608C613 16 617 18 620 22C623 26 625 30 624 35L527 484Z"/></svg>