<svg xmlns="http://www.w3.org/2000/svg" viewBox="0 0 448 512"><!-- Font Awesome Pro 6.0.0-alpha1 by @fontawesome - https://fontawesome.com License - https://fontawesome.com/license (Commercial License) --><path d="M440 284C434 276 425 271 415 271H68L41 208H344C348 208 352 204 352 200S348 192 344 192H34L21 164C18 156 16 147 16 138V8C16 4 12 0 8 0C4 0 0 4 0 8V138C0 150 2 160 7 171L93 367C106 396 134 415 166 415H232C232 416 232 416 232 416V496H104C100 496 96 500 96 504S100 512 104 512H376C380 512 384 508 384 504S380 496 376 496H248V416C248 416 248 416 248 415H390C408 415 425 402 430 383L447 316C450 305 447 293 440 284ZM431 312L414 379C411 391 401 399 390 399H166C141 399 118 384 107 361L75 287H415C420 287 424 290 428 294C432 299 433 306 431 312Z"/></svg>