<svg xmlns="http://www.w3.org/2000/svg" viewBox="0 0 512 512"><!-- Font Awesome Pro 6.0.0-alpha1 by @fontawesome - https://fontawesome.com License - https://fontawesome.com/license (Commercial License) --><path d="M120 336H64C38 336 16 314 16 288V64C16 38 38 16 64 16H288C314 16 336 38 336 64V120C336 124 340 128 344 128S352 124 352 120V64C352 29 323 0 288 0H64C29 0 0 29 0 64V288C0 323 29 352 64 352H120C124 352 128 348 128 344S124 336 120 336ZM448 160H224C189 160 160 189 160 224V448C160 483 189 512 224 512H448C483 512 512 483 512 448V224C512 189 483 160 448 160ZM496 448C496 474 474 496 448 496H224C198 496 176 474 176 448V224C176 198 198 176 224 176H448C474 176 496 198 496 224V448ZM424 224H248C235 224 224 235 224 248V424C224 437 235 448 248 448H424C437 448 448 437 448 424V248C448 235 437 224 424 224ZM432 424C432 428 428 432 424 432H248C244 432 240 428 240 424V248C240 244 244 240 248 240H424C428 240 432 244 432 248V424Z"/></svg>