<svg xmlns="http://www.w3.org/2000/svg" viewBox="0 0 640 512"><!-- Font Awesome Pro 6.0.0-alpha1 by @fontawesome - https://fontawesome.com License - https://fontawesome.com/license (Commercial License) --><path d="M578 317C582 295 572 272 551 261C532 250 508 252 491 266C472 233 432 216 393 228C355 239 330 276 333 314C290 318 256 354 256 397C256 443 294 480 341 480H556C599 480 636 447 640 404C643 364 616 327 578 317ZM556 464H341C303 464 272 434 272 397C272 360 303 330 342 330C344 330 347 329 348 327C350 325 351 323 350 320C343 286 363 253 398 243C432 233 468 250 481 282C482 285 485 287 487 287C490 288 493 287 495 284C506 270 527 266 544 275C560 284 567 303 560 320C559 322 559 325 561 327S564 331 566 331C601 336 627 368 624 402C621 437 591 464 556 464ZM248 464H64C38 464 16 442 16 416V96C16 70 38 48 64 48H384C410 48 432 70 432 96V184C432 188 436 192 440 192S448 188 448 184V96C448 61 419 32 384 32H64C29 32 0 61 0 96V416C0 451 29 480 64 480H248C252 480 256 476 256 472S252 464 248 464ZM208 104V280C208 284 212 288 216 288S224 284 224 280V104C224 100 220 96 216 96S208 100 208 104ZM144 104V280C144 284 148 288 152 288S160 284 160 280V104C160 100 156 96 152 96S144 100 144 104ZM80 104V280C80 284 84 288 88 288S96 284 96 280V104C96 100 92 96 88 96S80 100 80 104Z"/></svg>