<svg xmlns="http://www.w3.org/2000/svg" viewBox="0 0 640 512"><!-- Font Awesome Pro 6.0.0-alpha1 by @fontawesome - https://fontawesome.com License - https://fontawesome.com/license (Commercial License) --><path d="M572 279C570 274 567 269 564 264C562 262 560 260 557 260C555 260 552 261 551 263L513 306C496 284 449 224 445 219C443 217 441 216 439 216H439C436 216 434 217 433 219C397 261 376 289 376 322C376 381 421 424 482 424C505 424 526 417 545 404C583 377 595 323 572 279ZM535 391C535 391 535 391 535 391C520 402 501 408 482 408C429 408 392 373 392 322C392 298 406 276 439 237C453 254 487 298 506 323C508 325 510 326 513 326C515 326 517 325 519 323L555 282C556 283 557 285 558 287C577 324 568 369 535 391ZM553 157C550 154 545 154 542 157C531 167 520 178 510 190C491 166 470 143 447 122C444 119 440 119 437 122C369 184 320 266 320 317C320 407 392 480 480 480S640 407 640 317C640 279 604 204 553 157ZM480 464C401 464 336 398 336 317C336 272 381 197 442 139C465 160 485 183 503 208C504 210 507 211 509 211C512 210 514 210 516 208C525 196 536 184 548 173C592 217 624 284 624 317C624 398 559 464 480 464ZM344 464H64C38 464 16 442 16 416V96C16 70 38 48 64 48H384C408 48 428 66 432 89C432 93 435 96 439 96C444 96 448 92 447 87C443 56 416 32 384 32H64C29 32 0 61 0 96V416C0 451 29 480 64 480H344C348 480 352 476 352 472S348 464 344 464ZM207 104V280C207 284 210 288 215 288S223 284 223 280V104C223 100 219 96 215 96S207 100 207 104ZM143 104V280C143 284 146 288 151 288S159 284 159 280V104C159 100 155 96 151 96S143 100 143 104ZM79 104V280C79 284 82 288 87 288S95 284 95 280V104C95 100 91 96 87 96S79 100 79 104Z"/></svg>