<svg xmlns="http://www.w3.org/2000/svg" viewBox="0 0 640 512"><!-- Font Awesome Pro 6.0.0-alpha1 by @fontawesome - https://fontawesome.com License - https://fontawesome.com/license (Commercial License) --><path d="M80 104V280C80 284 84 288 88 288S96 284 96 280V104C96 100 92 96 88 96S80 100 80 104ZM633 402L492 154C482 137 465 128 448 128S414 137 404 154L263 402C243 437 268 480 307 480H589C628 480 653 437 633 402ZM619 446C613 457 601 464 589 464H307C295 464 283 457 277 446C270 435 270 421 277 410L418 162C424 151 435 144 448 144C461 144 472 151 478 162L619 410C626 421 626 435 619 446ZM216 464H64C38 464 16 442 16 416V96C16 70 38 48 64 48H384C408 48 428 66 432 89C432 93 435 96 439 96C444 96 448 92 447 87C443 56 416 32 384 32H64C29 32 0 61 0 96V416C0 451 29 480 64 480H216C220 480 224 476 224 472S220 464 216 464ZM144 104V280C144 284 148 288 152 288S160 284 160 280V104C160 100 156 96 152 96S144 100 144 104ZM216 96C212 96 208 100 208 104V280C208 284 212 288 216 288S224 284 224 280V104C224 100 220 96 216 96ZM448 384C439 384 432 391 432 400S439 416 448 416S464 409 464 400S457 384 448 384ZM448 352C452 352 456 348 456 344V248C456 244 452 240 448 240S440 244 440 248V344C440 348 444 352 448 352Z"/></svg>