<svg xmlns="http://www.w3.org/2000/svg" viewBox="0 0 512 512"><!-- Font Awesome Pro 6.0.0-alpha1 by @fontawesome - https://fontawesome.com License - https://fontawesome.com/license (Commercial License) --><path d="M193 224H383C408 224 424 197 412 176L317 16C311 6 300 0 288 0S265 6 259 16L164 176C152 197 168 224 193 224ZM178 184L273 24C276 19 282 16 288 16S300 19 303 24L398 184C402 191 399 197 398 200C395 205 389 208 383 208H193C187 208 181 205 178 200C177 197 174 191 178 184ZM128 256C57 256 0 313 0 384S57 512 128 512S256 455 256 384S199 256 128 256ZM128 496C66 496 16 446 16 384C16 322 66 272 128 272S240 322 240 384C240 446 190 496 128 496ZM480 272H320C302 272 288 286 288 304V464C288 482 302 496 320 496H480C498 496 512 482 512 464V304C512 286 498 272 480 272ZM496 464C496 473 489 480 480 480H320C311 480 304 473 304 464V304C304 295 311 288 320 288H480C489 288 496 295 496 304V464Z"/></svg>