<svg xmlns="http://www.w3.org/2000/svg" viewBox="0 0 512 512"><!-- Font Awesome Pro 6.0.0-alpha1 by @fontawesome - https://fontawesome.com License - https://fontawesome.com/license (Commercial License) --><path d="M136 232H483L307 78C303 75 303 70 306 67C309 63 314 63 317 66L509 234C511 235 512 238 512 240C512 242 511 245 509 246L317 414C316 415 314 416 312 416C310 416 308 415 306 413C303 410 303 405 307 402L483 248H136C70 248 16 302 16 368V440C16 444 12 448 8 448S0 444 0 440V368C0 293 61 232 136 232Z"/></svg>