<svg xmlns="http://www.w3.org/2000/svg" viewBox="0 0 448 512"><!-- Font Awesome Pro 6.0.0-alpha1 by @fontawesome - https://fontawesome.com License - https://fontawesome.com/license (Commercial License) --><path d="M384 352C362 352 342 363 331 380L124 277C126 270 128 263 128 256S126 242 124 235L331 132C342 149 362 160 384 160C419 160 448 131 448 96S419 32 384 32C349 32 320 61 320 96C320 103 322 110 324 117L117 220C106 203 86 192 64 192C29 192 0 221 0 256S29 320 64 320C86 320 106 309 117 292L324 395C322 402 320 409 320 416C320 451 349 480 384 480C419 480 448 451 448 416S419 352 384 352ZM384 48C410 48 432 70 432 96S410 144 384 144S336 122 336 96S358 48 384 48ZM64 304C38 304 16 282 16 256S38 208 64 208S112 230 112 256S90 304 64 304ZM384 464C358 464 336 442 336 416S358 368 384 368S432 390 432 416S410 464 384 464Z"/></svg>