<svg xmlns="http://www.w3.org/2000/svg" viewBox="0 0 576 512"><!-- Font Awesome Pro 6.0.0-alpha1 by @fontawesome - https://fontawesome.com License - https://fontawesome.com/license (Commercial License) --><path d="M371 402C367 405 367 410 370 413C372 415 374 416 376 416C378 416 380 415 381 414L573 246C575 245 576 242 576 240C576 238 575 235 573 234L381 66C378 63 373 63 370 67C367 70 367 75 371 78L556 240L371 402ZM0 368V440C0 444 4 448 8 448S16 444 16 440V368C16 302 70 248 136 248H419L243 402C239 405 239 410 242 413C244 415 246 416 248 416C250 416 252 415 253 414L445 246C447 245 448 242 448 240C448 238 447 235 445 234L253 66C250 63 245 63 242 67C239 70 239 75 243 78L419 232H136C61 232 0 293 0 368Z"/></svg>