<svg xmlns="http://www.w3.org/2000/svg" viewBox="0 0 640 512"><!-- Font Awesome Pro 6.0.0-alpha1 by @fontawesome - https://fontawesome.com License - https://fontawesome.com/license (Commercial License) --><path d="M413 417C409 415 404 417 403 421L378 485C375 492 369 496 362 496H353C344 496 336 488 336 478V439C336 434 332 431 328 431S320 434 320 439V478C320 497 335 512 353 512H362C375 512 388 504 393 490L418 427C419 423 417 418 413 417ZM624 101L571 48C561 38 548 32 533 32H464C464 13 448 -2 429 0C412 2 400 17 400 33V88C400 92 404 96 408 96S416 92 416 88V33C416 25 421 18 429 16C439 15 448 22 448 32V48H533C543 48 553 52 560 59L612 111C623 122 627 138 621 153C615 167 602 176 587 176H536C532 176 528 180 528 184S532 192 536 192H585C602 192 619 184 630 170C646 149 643 119 624 101ZM216 431C212 431 208 434 208 439V478C208 488 200 496 191 496H182C175 496 169 492 166 485L141 421C140 417 135 415 131 417C127 418 125 423 126 427L151 490C156 504 169 512 182 512H191C209 512 224 497 224 478V439C224 434 220 431 216 431ZM528 96C528 87 521 80 512 80S496 87 496 96S503 112 512 112S528 105 528 96ZM494 194C488 165 462 144 432 144C426 144 420 145 415 147C408 118 383 96 352 96C341 96 331 99 322 104C310 89 292 80 272 80S234 89 222 104C213 99 203 96 192 96C172 96 154 105 142 120C133 115 123 112 112 112C77 112 48 141 48 176C48 182 49 188 51 193C22 200 0 225 0 256S22 312 51 319C49 324 48 330 48 336C48 371 77 400 112 400C123 400 133 397 142 392C154 407 172 416 192 416C203 416 213 413 222 408C234 423 252 432 272 432S310 423 322 408C331 413 341 416 352 416C372 416 390 407 402 392C411 397 421 400 432 400C467 400 496 371 496 336C496 330 495 324 493 319C522 312 544 287 544 256C544 226 523 200 494 194ZM490 303C486 304 482 306 480 310C477 314 477 319 478 323C479 328 480 332 480 336C480 362 458 384 432 384C424 384 417 382 409 378C407 377 404 376 402 376C397 376 392 378 389 382C380 393 366 400 352 400C344 400 337 398 329 394C327 393 324 392 322 392C317 392 312 394 309 398C300 409 286 416 272 416S244 409 235 398C232 394 227 392 222 392C220 392 217 393 215 394C207 398 200 400 192 400C178 400 164 393 155 382C152 378 147 376 142 376C140 376 137 377 135 378C127 382 120 384 112 384C86 384 64 362 64 336C64 332 65 328 66 323C67 319 67 314 64 310C62 307 58 304 54 303C32 298 16 279 16 256S32 214 54 209C58 208 62 206 64 202C67 198 67 193 66 189C65 184 64 180 64 176C64 150 86 128 112 128C120 128 127 130 135 134C137 135 140 136 142 136C147 136 152 134 155 130C164 119 178 112 192 112C200 112 207 114 215 118C217 119 220 120 222 120C227 120 232 118 235 114C244 103 258 96 272 96S300 103 309 114C312 118 317 120 322 120C324 120 327 119 329 118C337 114 344 112 352 112C375 112 394 128 399 150C400 154 402 158 406 160C409 162 412 163 415 163C416 163 418 163 419 162C424 161 428 160 432 160C454 160 474 175 479 197C480 203 485 208 491 209C513 214 528 234 528 256C528 279 512 298 490 303Z"/></svg>