<svg xmlns="http://www.w3.org/2000/svg" viewBox="0 0 448 512"><!-- Font Awesome Pro 6.0.0-alpha1 by @fontawesome - https://fontawesome.com License - https://fontawesome.com/license (Commercial License) --><path d="M288 136V312C288 316 292 320 296 320S304 316 304 312V136C304 79 257 32 200 32H72C50 32 32 50 32 72V472C32 476 36 480 40 480S48 476 48 472V72C48 59 59 48 72 48H200C249 48 288 87 288 136ZM408 32C404 32 400 36 400 40V440C400 453 389 464 376 464H248C199 464 160 425 160 376V200C160 196 156 192 152 192S144 196 144 200V376C144 433 191 480 248 480H376C398 480 416 462 416 440V40C416 36 412 32 408 32Z"/></svg>