<svg xmlns="http://www.w3.org/2000/svg" viewBox="0 0 512 512"><!-- Font Awesome Pro 6.0.0-alpha1 by @fontawesome - https://fontawesome.com License - https://fontawesome.com/license (Commercial License) --><path d="M466 84L274 4C270 2 261 0 256 0C251 0 242 2 238 4L46 84C28 91 16 109 16 128C16 326 130 464 238 508C243 511 250 512 256 512S269 511 274 508C360 473 496 349 496 128C496 109 484 91 466 84ZM268 494C264 495 260 496 256 496C252 496 248 495 244 494C142 451 32 319 32 128C32 115 40 103 52 98L244 18C247 17 253 16 256 16C259 16 265 17 268 18L460 98C472 103 480 115 480 128C480 222 454 309 404 378C367 430 317 473 268 494ZM416 184H264V64C264 60 260 56 256 56S248 60 248 64V184H96C92 184 88 188 88 192S92 200 96 200H248V448C248 452 252 456 256 456S264 452 264 448V200H416C420 200 424 196 424 192S420 184 416 184Z"/></svg>