<svg xmlns="http://www.w3.org/2000/svg" viewBox="0 0 512 512"><!-- Font Awesome Pro 6.0.0-alpha1 by @fontawesome - https://fontawesome.com License - https://fontawesome.com/license (Commercial License) --><path d="M344 232H264V152C264 148 260 144 256 144S248 148 248 152V232H168C164 232 160 236 160 240S164 248 168 248H248V328C248 332 252 336 256 336S264 332 264 328V248H344C348 248 352 244 352 240S348 232 344 232ZM466 84L274 4C270 2 261 0 256 0C251 0 242 2 238 4L46 84C28 91 16 109 16 128C16 327 130 464 238 508C243 511 250 512 256 512S269 511 274 508C360 473 496 349 496 128C496 109 484 91 466 84ZM268 494C264 495 260 496 256 496C252 496 248 495 244 494C142 451 32 319 32 128C32 115 40 103 52 98L244 18C247 17 253 16 256 16C259 16 265 17 268 18L460 98C472 103 480 115 480 128C480 222 454 309 404 378C367 430 317 473 268 494Z"/></svg>