<svg xmlns="http://www.w3.org/2000/svg" viewBox="0 0 512 512"><!-- Font Awesome Pro 6.0.0-alpha1 by @fontawesome - https://fontawesome.com License - https://fontawesome.com/license (Commercial License) --><path d="M466 84L274 4C270 2 261 0 256 0C251 0 242 2 238 4L46 84C28 91 16 109 16 128C16 326 130 464 238 508C243 511 250 512 256 512S269 511 274 508C360 473 496 349 496 128C496 109 484 91 466 84ZM32 128C32 115 40 103 52 98L244 18C245 18 246 18 248 17V494C247 494 245 494 244 494C142 451 32 319 32 128ZM268 494C267 494 265 494 264 494V17C266 18 267 18 268 18L460 98C472 103 480 115 480 128C480 403 275 491 268 494Z"/></svg>