<svg xmlns="http://www.w3.org/2000/svg" viewBox="0 0 576 512"><!-- Font Awesome Pro 6.0.0-alpha1 by @fontawesome - https://fontawesome.com License - https://fontawesome.com/license (Commercial License) --><path d="M113 412C116 416 121 417 124 415C128 412 129 407 127 404L51 286C48 280 47 272 50 266C52 258 58 253 66 251L280 186V408C280 412 284 416 288 416C292 416 296 412 296 408V186L510 251C518 253 524 258 526 266C529 272 528 280 525 286L449 404C447 407 448 412 452 415C453 416 455 416 456 416C459 416 461 415 463 412L538 294C545 284 546 271 541 260C537 248 527 239 515 236L480 225C480 225 480 224 480 224V104C480 82 462 64 440 64H384V23C384 10 374 0 361 0H215C202 0 192 10 192 23V64H136C114 64 96 82 96 104V224C96 224 96 224 96 225L61 235C49 239 39 248 35 260C30 271 31 284 38 294L113 412ZM208 23C208 19 211 16 215 16H361C365 16 368 19 368 23V64H208V23ZM112 104C112 91 123 80 136 80H440C453 80 464 91 464 104V220L295 169C290 168 285 168 281 169L112 220V104ZM569 496C539 493 511 478 486 451C484 449 482 448 480 448H480C478 448 476 449 474 451C447 480 416 496 385 496H384C352 496 321 480 294 451C292 449 290 448 288 448H288C286 448 284 449 282 451C255 480 224 496 193 496H192C160 496 129 480 102 451C100 449 98 448 96 448H96C94 448 92 449 90 451C65 478 37 494 7 496C3 496 0 500 0 504C0 509 3 512 9 512C40 509 70 494 96 468C125 497 158 512 192 512H193C227 512 260 497 288 468C317 497 350 512 384 512H385C419 512 452 497 480 468C506 494 536 509 567 512C573 512 576 509 576 504C576 500 573 496 569 496Z"/></svg>