<svg xmlns="http://www.w3.org/2000/svg" viewBox="0 0 640 512"><!-- Font Awesome Pro 6.0.0-alpha1 by @fontawesome - https://fontawesome.com License - https://fontawesome.com/license (Commercial License) --><path d="M368 464C368 482 354 496 336 496H112C94 496 80 482 80 464V192H124L104 176H32C23 176 19 170 18 168C17 165 14 158 19 151L37 123L25 113L5 142C-9 163 6 192 32 192H64V464C64 490 86 512 112 512H336C363 512 384 491 384 464V399L368 386V464ZM496 232V304L512 317V232C512 228 508 224 504 224S496 228 496 232ZM523 16C528 16 533 19 536 23L621 151C626 158 623 165 622 168C621 170 617 176 608 176H335L355 192H560V355L576 367V192H608C633 192 649 163 635 142L549 14C543 5 533 0 523 0H117C116 0 115 0 114 0L134 16H523ZM13 2C12 1 10 0 8 0C6 0 3 1 2 3C-1 6 0 12 3 14L627 510C629 511 630 512 632 512C634 512 637 511 638 509C641 506 640 500 637 498L13 2ZM136 224C132 224 128 228 128 232V376C128 380 132 384 136 384H312C316 384 320 380 320 376V348L304 335V368H144V232C144 228 140 224 136 224Z"/></svg>