<svg xmlns="http://www.w3.org/2000/svg" viewBox="0 0 512 512"><!-- Font Awesome Pro 6.0.0-alpha1 by @fontawesome - https://fontawesome.com License - https://fontawesome.com/license (Commercial License) --><path d="M510 88L424 2C421 -1 416 -1 413 2L378 37C365 50 358 67 358 85C358 101 364 115 373 127L214 286L152 224C146 218 138 215 129 215C121 215 113 218 107 224L39 292C-11 342 -6 473 16 496C26 506 57 512 92 512C138 512 192 501 220 473L288 405C300 393 300 372 288 360L226 298L385 139C396 148 411 153 427 153C445 153 463 146 475 134L510 99C511 98 512 96 512 94S511 89 510 88ZM277 371C280 374 281 378 281 382C281 387 280 391 277 394L209 462C183 487 132 496 92 496C53 496 31 488 28 484C23 479 14 450 16 405C19 360 31 322 50 303L118 235C121 232 125 231 129 231S138 232 141 235L277 371ZM464 122C464 122 464 122 464 122C445 141 409 141 390 122C380 112 374 99 374 85S380 58 390 48L418 19L493 94L464 122Z"/></svg>