<svg xmlns="http://www.w3.org/2000/svg" viewBox="0 0 512 512"><!-- Font Awesome Pro 6.0.0-alpha1 by @fontawesome - https://fontawesome.com License - https://fontawesome.com/license (Commercial License) --><path d="M162 414C164 415 166 416 168 416S172 415 174 414L270 318C273 314 273 309 270 306C267 303 261 303 258 306L162 402C159 405 159 410 162 414ZM510 88L424 2C421 -1 416 -1 413 2L378 37C365 50 358 67 358 85C358 101 364 115 373 127L271 230L210 169C204 163 196 160 188 160C181 160 174 162 168 166L12 287C-3 299 -4 321 9 335L177 503C184 509 192 512 200 512C209 512 219 508 225 500L345 344C355 331 354 313 343 302L282 241L385 139C396 148 411 153 427 153C445 153 463 146 475 134L510 99C511 98 512 96 512 94S511 89 510 88ZM331 313C337 319 338 328 333 334L212 490C209 494 205 496 200 496C196 496 192 494 189 491L21 323C17 320 16 316 16 311C16 306 19 302 22 300L178 179C181 177 184 176 188 176C192 176 196 177 199 180L331 313ZM464 122C464 122 464 122 464 122C445 141 409 141 390 122C380 112 374 99 374 85S380 58 390 48L418 19L493 94L464 122ZM98 338C95 341 95 346 98 350C100 351 102 352 104 352S108 351 110 350L206 254C209 250 209 245 206 242C203 239 197 239 194 242L98 338Z"/></svg>