<svg xmlns="http://www.w3.org/2000/svg" viewBox="0 0 640 512"><!-- Font Awesome Pro 6.0.0-alpha1 by @fontawesome - https://fontawesome.com License - https://fontawesome.com/license (Commercial License) --><path d="M577 192C533 172 474 160 416 160H407C291 109 231 32 112 32H80C54 32 32 54 32 80V128C14 128 0 142 0 160V352C0 370 14 384 32 384V432C32 458 54 480 80 480H112C231 480 291 403 407 352H416C474 352 533 340 577 320C616 301 640 277 640 256C640 235 616 211 577 192ZM136 49C196 55 241 83 292 115C316 130 341 145 369 160H176C167 145 153 134 136 130V49ZM48 80C48 62 62 48 80 48H112C115 48 117 48 120 48V128H48V80ZM120 464C117 464 115 464 112 464H80C62 464 48 450 48 432V384H120V464ZM292 397C241 429 196 457 136 463V382C153 378 167 367 176 352H369C341 367 316 382 292 397ZM570 305C528 325 472 336 416 336H167L162 344C153 359 138 368 121 368H32C23 368 16 361 16 352V264H224C228 264 232 260 232 256S228 248 224 248H16V160C16 151 23 144 32 144H121C138 144 153 153 162 168L167 176H416C472 176 528 187 570 207C607 224 624 244 624 256S607 288 570 305ZM488 216C484 216 480 220 480 224V288C480 292 484 296 488 296S496 292 496 288V224C496 220 492 216 488 216Z"/></svg>