<svg xmlns="http://www.w3.org/2000/svg" viewBox="0 0 512 512"><!-- Font Awesome Pro 6.0.0-alpha1 by @fontawesome - https://fontawesome.com License - https://fontawesome.com/license (Commercial License) --><path d="M501 153C490 100 436 0 308 0C218 0 142 61 122 149C112 197 124 249 155 293C157 296 162 297 166 295C169 292 170 287 168 283C139 244 129 196 138 153C156 72 226 16 308 16C426 16 475 108 486 156C473 139 456 125 438 115C392 90 335 91 290 119C224 160 202 242 239 309L210 338C207 341 206 346 210 350C211 351 213 352 215 352C217 352 219 351 221 350L255 316C258 314 258 310 256 306C219 246 238 170 299 132C338 108 390 107 430 129C447 138 461 150 473 166C477 172 485 174 492 170C499 167 502 160 501 153ZM186 377C186 377 186 377 186 377S186 377 186 377L107 298C104 295 99 295 95 298C92 302 92 307 95 310L107 321L0 428C-14 442 -14 466 0 481L21 501C28 508 37 512 47 512C56 512 66 508 73 501L180 394L192 406C193 407 195 408 197 408C199 408 201 407 203 406C206 403 206 397 203 394L186 377ZM62 490C54 498 40 498 32 490L11 469C3 461 3 448 11 439L118 332L169 383L62 490Z"/></svg>