<svg xmlns="http://www.w3.org/2000/svg" viewBox="0 0 576 512"><!-- Font Awesome Pro 6.0.0-alpha1 by @fontawesome - https://fontawesome.com License - https://fontawesome.com/license (Commercial License) --><path d="M64 384H32C14 384 0 398 0 416V480C0 498 14 512 32 512H64C82 512 96 498 96 480V416C96 398 82 384 64 384ZM80 480C80 489 73 496 64 496H32C23 496 16 489 16 480V416C16 407 23 400 32 400H64C73 400 80 407 80 416V480ZM224 256H192C174 256 160 270 160 288V480C160 498 174 512 192 512H224C242 512 256 498 256 480V288C256 270 242 256 224 256ZM240 480C240 489 233 496 224 496H192C183 496 176 489 176 480V288C176 279 183 272 192 272H224C233 272 240 279 240 288V480Z"/></svg>