<svg xmlns="http://www.w3.org/2000/svg" viewBox="0 0 512 512"><!-- Font Awesome Pro 6.0.0-alpha1 by @fontawesome - https://fontawesome.com License - https://fontawesome.com/license (Commercial License) --><path d="M441 160C450 160 458 157 464 151L507 107C514 101 514 91 507 85L464 41C458 35 450 32 441 32H264V8C264 4 260 0 256 0S248 4 248 8V32H56C43 32 32 43 32 56V136C32 149 43 160 56 160H248V224H71C62 224 54 227 48 233L5 277C-2 283 -2 293 5 299L48 343C54 349 62 352 71 352H248V504C248 508 252 512 256 512S264 508 264 504V352H456C469 352 480 341 480 328V248C480 235 469 224 456 224H264V160H441ZM456 240C460 240 464 244 464 248V328C464 332 460 336 456 336H71C66 336 62 334 59 331L16 288L59 245C62 242 66 240 71 240H456ZM56 144C52 144 48 140 48 136V56C48 52 52 48 56 48H441C446 48 450 50 453 53L496 96L453 139C450 142 446 144 441 144H56Z"/></svg>