<svg xmlns="http://www.w3.org/2000/svg" viewBox="0 0 640 512"><!-- Font Awesome Pro 6.0.0-alpha1 by @fontawesome - https://fontawesome.com License - https://fontawesome.com/license (Commercial License) --><path d="M432 480C432 489 425 496 416 496H384C375 496 368 489 368 480V386L352 373V480C352 498 366 512 384 512H416C434 512 448 498 448 480V450L432 437V480ZM637 498L13 2C12 1 10 0 8 0H8C6 0 3 1 2 3C-1 6 0 12 3 14L627 510C629 511 630 512 632 512C634 512 637 511 638 509C641 506 640 500 637 498ZM528 32C528 23 535 16 544 16H576C585 16 592 23 592 32V380L608 393V32C608 14 594 0 576 0H544C526 0 512 14 512 32V317L528 329V32ZM368 160C368 151 375 144 384 144H416C425 144 432 151 432 160V253L448 266V160C448 142 434 128 416 128H384C366 128 352 142 352 160V189L368 202V160ZM272 480C272 489 265 496 256 496H224C215 496 208 489 208 480V288C208 279 215 272 224 272H224L209 260C199 265 192 276 192 288V480C192 498 206 512 224 512H256C274 512 288 498 288 480V323L272 310V480ZM96 384H64C46 384 32 398 32 416V480C32 498 46 512 64 512H96C114 512 128 498 128 480V416C128 398 114 384 96 384ZM112 480C112 489 105 496 96 496H64C55 496 48 489 48 480V416C48 407 55 400 64 400H96C105 400 112 407 112 416V480Z"/></svg>