<svg xmlns="http://www.w3.org/2000/svg" viewBox="0 0 576 512"><!-- Font Awesome Pro 6.0.0-alpha1 by @fontawesome - https://fontawesome.com License - https://fontawesome.com/license (Commercial License) --><path d="M32 384C28 384 24 388 24 392V504C24 508 28 512 32 512S40 508 40 504V392C40 388 36 384 32 384ZM288 192C284 192 280 196 280 200V504C280 508 284 512 288 512S296 508 296 504V200C296 196 292 192 288 192ZM160 288C156 288 152 292 152 296V504C152 508 156 512 160 512S168 508 168 504V296C168 292 164 288 160 288Z"/></svg>