<svg xmlns="http://www.w3.org/2000/svg" viewBox="0 0 640 512"><!-- Font Awesome Pro 6.0.0-alpha1 by @fontawesome - https://fontawesome.com License - https://fontawesome.com/license (Commercial License) --><path d="M449 293C448 295 448 298 449 300C451 303 453 304 456 304H632C636 304 640 300 640 296S636 288 632 288H468L511 187C513 184 512 181 510 179C508 176 505 175 502 176L338 225C346 179 351 137 352 110C353 72 327 39 292 33C271 30 250 35 233 49C217 63 208 83 208 104V160C208 164 212 168 216 168S224 164 224 160V104C224 87 231 72 244 61C256 50 273 46 289 49C317 53 337 79 336 110C335 138 330 182 321 230L211 263C191 270 176 289 176 311V430C176 458 198 480 226 480C243 480 258 472 267 458C295 414 320 324 335 243L490 197L449 293ZM254 449C248 458 237 464 226 464C207 464 192 449 192 430V311C192 296 202 283 216 279L318 248C303 325 280 408 254 449ZM10 310C12 311 14 312 16 312S20 311 22 310L64 267L106 310C108 311 110 312 112 312S116 311 118 310C121 306 121 301 118 298L75 256L118 214C121 210 121 205 118 202C115 199 109 199 106 202L64 245L22 202C19 199 13 199 10 202C7 205 7 210 10 214L53 256L10 298C7 301 7 306 10 310ZM136 368H8C4 368 0 372 0 376S4 384 8 384H136C140 384 144 380 144 376S140 368 136 368ZM632 368H344C340 368 336 372 336 376S340 384 344 384H632C636 384 640 380 640 376S636 368 632 368Z"/></svg>