<svg xmlns="http://www.w3.org/2000/svg" viewBox="0 0 512 512"><!-- Font Awesome Pro 6.0.0-alpha1 by @fontawesome - https://fontawesome.com License - https://fontawesome.com/license (Commercial License) --><path d="M480 288H384V264C384 251 395 240 408 240H472C476 240 480 236 480 232S476 224 472 224H408C386 224 368 242 368 264V288H264V72C264 41 289 16 320 16S376 41 376 72V120C376 124 380 128 384 128S392 124 392 120V72C392 32 360 0 320 0S248 32 248 72V288H144V264C144 242 126 224 104 224H40C36 224 32 228 32 232S36 240 40 240H104C117 240 128 251 128 264V288H32C14 288 0 302 0 320C0 338 14 352 32 352H480C498 352 512 338 512 320C512 302 498 288 480 288ZM480 336H32C23 336 16 329 16 320S23 304 32 304H480C489 304 496 311 496 320S489 336 480 336ZM472 376C468 376 464 380 464 384V408C464 457 425 496 376 496H136C87 496 48 457 48 408V384C48 380 44 376 40 376S32 380 32 384V408C32 465 79 512 136 512H376C433 512 480 465 480 408V384C480 380 476 376 472 376Z"/></svg>