<svg xmlns="http://www.w3.org/2000/svg" viewBox="0 0 640 512"><!-- Font Awesome Pro 6.0.0-alpha1 by @fontawesome - https://fontawesome.com License - https://fontawesome.com/license (Commercial License) --><path d="M240 157L216 351C216 355 219 359 223 360C223 360 224 360 224 360C228 360 231 357 232 353L256 159C256 155 253 151 249 150C244 150 240 153 240 157ZM151 360C155 360 159 357 160 353L184 159C187 132 210 112 236 112H404C430 112 453 132 456 159L480 353C481 357 484 360 488 360C488 360 489 360 489 360C493 359 496 355 496 351L472 157C468 122 438 96 404 96H236C202 96 172 122 168 157L144 351C144 355 147 359 151 360ZM512 384H128C110 384 96 398 96 416V448C96 466 110 480 128 480H512C530 480 544 466 544 448V416C544 398 530 384 512 384ZM528 448C528 457 521 464 512 464H128C119 464 112 457 112 448V416C112 407 119 400 128 400H512C521 400 528 407 528 416V448ZM520 96C521 96 523 96 524 95L604 47C608 45 609 40 607 36C605 32 600 31 596 33L516 81C512 83 511 88 513 92C515 95 517 96 520 96ZM632 216H552C548 216 544 220 544 224S548 232 552 232H632C636 232 640 228 640 224S636 216 632 216ZM88 216H8C4 216 0 220 0 224S4 232 8 232H88C92 232 96 228 96 224S92 216 88 216ZM116 95C117 96 119 96 120 96C123 96 125 95 127 92C129 88 128 83 124 81L44 33C40 31 35 32 33 36C31 40 32 45 36 47L116 95Z"/></svg>