<svg xmlns="http://www.w3.org/2000/svg" viewBox="0 0 640 512"><!-- Font Awesome Pro 6.0.0-alpha1 by @fontawesome - https://fontawesome.com License - https://fontawesome.com/license (Commercial License) --><path d="M256 216C234 216 216 234 216 256C216 278 234 296 256 296S296 278 296 256C296 234 278 216 256 216ZM256 280C243 280 232 269 232 256C232 243 243 232 256 232C269 232 280 243 280 256C280 269 269 280 256 280ZM384 216C362 216 344 234 344 256C344 278 362 296 384 296S424 278 424 256C424 234 406 216 384 216ZM384 280C371 280 360 269 360 256C360 243 371 232 384 232C397 232 408 243 408 256C408 269 397 280 384 280ZM416 96H224C189 96 160 125 160 160V288C160 309 170 328 186 340C211 358 230 382 236 411L251 486C254 501 267 512 282 512H358C373 512 386 501 389 486L404 411C410 382 429 358 454 340C470 328 480 309 480 288V160C480 125 451 96 416 96ZM464 288C464 303 457 318 444 327C414 349 395 377 388 408L373 483C372 491 365 496 358 496H282C275 496 268 491 267 483L252 408C245 377 226 349 196 327C183 318 176 303 176 288V160C176 134 198 112 224 112H416C442 112 464 134 464 160V288ZM57 118C65 129 78 135 97 135H127C131 135 135 131 135 127C135 123 131 119 127 119H97C84 119 75 116 70 109C58 91 67 49 74 31C78 21 74 10 65 4C56 -2 44 -1 37 7C13 30 0 62 0 97C0 167 57 224 127 224C131 224 135 220 135 216C135 212 131 208 127 208C66 208 16 158 16 97C16 66 27 38 48 18C50 16 54 15 56 17C59 19 60 22 59 25C59 26 36 87 57 118ZM606 9L603 7C596 -1 584 -2 575 4C566 10 562 21 566 31C573 49 582 91 570 109C565 116 556 119 543 119H513C509 119 505 123 505 127C505 131 509 135 513 135H543C562 135 575 129 583 118C600 93 587 43 581 25C580 22 581 19 584 17C586 16 589 16 592 17L592 18C613 38 624 66 624 97C624 158 574 208 513 208C509 208 505 212 505 216C505 220 509 224 513 224C583 224 640 167 640 97C640 63 628 32 606 9Z"/></svg>