<svg xmlns="http://www.w3.org/2000/svg" viewBox="0 0 448 512"><!-- Font Awesome Pro 6.0.0-alpha1 by @fontawesome - https://fontawesome.com License - https://fontawesome.com/license (Commercial License) --><path d="M150 237L144 263C142 276 150 288 161 288H287C298 288 306 276 304 263L298 237C340 215 368 174 368 128C368 57 304 0 224 0C144 0 80 57 80 128C80 174 108 215 150 237ZM224 16C295 16 352 66 352 128C352 167 329 202 290 223C284 226 281 234 282 241L288 266C288 269 287 272 287 272L162 272C161 272 160 269 160 266L166 241C167 234 164 226 158 223C119 202 96 167 96 128C96 66 153 16 224 16ZM240 384L444 271C448 269 449 264 447 260C445 256 440 255 436 257L224 375L12 257C8 255 3 256 1 260C-1 264 0 269 4 271L208 384L4 497C0 499 -1 504 1 508C2 511 5 512 8 512C9 512 11 512 12 511L224 393L436 511C437 512 439 512 440 512C443 512 446 511 447 508C449 504 448 499 444 497L240 384ZM272 176C290 176 304 162 304 144C304 126 290 112 272 112S240 126 240 144C240 162 254 176 272 176ZM272 128C281 128 288 135 288 144C288 153 281 160 272 160C263 160 256 153 256 144C256 135 263 128 272 128ZM176 176C194 176 208 162 208 144C208 126 194 112 176 112S144 126 144 144C144 162 158 176 176 176ZM176 128C185 128 192 135 192 144C192 153 185 160 176 160C167 160 160 153 160 144C160 135 167 128 176 128Z"/></svg>