<svg xmlns="http://www.w3.org/2000/svg" viewBox="0 0 448 512"><!-- Font Awesome Pro 6.0.0-alpha1 by @fontawesome - https://fontawesome.com License - https://fontawesome.com/license (Commercial License) --><path d="M384 320C380 320 376 324 376 328V504C376 508 380 512 384 512S392 508 392 504V328C392 324 388 320 384 320ZM416 224H392V8C392 4 388 0 384 0S376 4 376 8V224H352C334 224 320 238 320 256S334 288 352 288H416C434 288 448 274 448 256S434 224 416 224ZM416 272H352C343 272 336 265 336 256S343 240 352 240H416C425 240 432 247 432 256S425 272 416 272ZM64 192C60 192 56 196 56 200V504C56 508 60 512 64 512S72 508 72 504V200C72 196 68 192 64 192ZM96 96H72V8C72 4 68 0 64 0S56 4 56 8V96H32C14 96 0 110 0 128S14 160 32 160H96C114 160 128 146 128 128S114 96 96 96ZM96 144H32C23 144 16 137 16 128S23 112 32 112H96C105 112 112 119 112 128S105 144 96 144ZM256 320H232C232 320 232 320 232 320V8C232 4 228 0 224 0S216 4 216 8V320C216 320 216 320 216 320H192C174 320 160 334 160 352S174 384 192 384H256C274 384 288 370 288 352S274 320 256 320ZM256 368H192C183 368 176 361 176 352S183 336 192 336H256C265 336 272 343 272 352S265 368 256 368ZM224 416C220 416 216 420 216 424V504C216 508 220 512 224 512S232 508 232 504V424C232 420 228 416 224 416Z"/></svg>