<svg xmlns="http://www.w3.org/2000/svg" viewBox="0 0 512 512"><!-- Font Awesome Pro 6.0.0-alpha1 by @fontawesome - https://fontawesome.com License - https://fontawesome.com/license (Commercial License) --><path d="M216 248H8C4 248 0 252 0 256S4 264 8 264H216C220 264 224 260 224 256S220 248 216 248ZM504 248H416V144C416 118 394 96 368 96H304C278 96 256 118 256 144V368C256 394 278 416 304 416H368C394 416 416 394 416 368V264H504C508 264 512 260 512 256S508 248 504 248ZM400 368C400 386 386 400 368 400H304C286 400 272 386 272 368V144C272 126 286 112 304 112H368C386 112 400 126 400 144V368Z"/></svg>