<svg xmlns="http://www.w3.org/2000/svg" viewBox="0 0 512 512"><!-- Font Awesome Pro 6.0.0-alpha1 by @fontawesome - https://fontawesome.com License - https://fontawesome.com/license (Commercial License) --><path d="M256 160C274 160 288 146 288 128V104H504C508 104 512 100 512 96S508 88 504 88H288V64C288 46 274 32 256 32S224 46 224 64V128C224 146 238 160 256 160ZM240 64C240 55 247 48 256 48S272 55 272 64V128C272 137 265 144 256 144S240 137 240 128V64ZM504 408H192V384C192 366 178 352 160 352S128 366 128 384V448C128 466 142 480 160 480S192 466 192 448V424H504C508 424 512 420 512 416S508 408 504 408ZM176 448C176 457 169 464 160 464S144 457 144 448V384C144 375 151 368 160 368S176 375 176 384V448ZM8 104H184C188 104 192 100 192 96S188 88 184 88H8C4 88 0 92 0 96S4 104 8 104ZM504 248H416C416 248 416 248 416 248V224C416 206 402 192 384 192S352 206 352 224V288C352 306 366 320 384 320S416 306 416 288V264C416 264 416 264 416 264H504C508 264 512 260 512 256S508 248 504 248ZM400 288C400 297 393 304 384 304S368 297 368 288V224C368 215 375 208 384 208S400 215 400 224V288ZM88 408H8C4 408 0 412 0 416S4 424 8 424H88C92 424 96 420 96 416S92 408 88 408ZM8 264H312C316 264 320 260 320 256S316 248 312 248H8C4 248 0 252 0 256S4 264 8 264Z"/></svg>