<svg xmlns="http://www.w3.org/2000/svg" viewBox="0 0 640 512"><!-- Font Awesome Pro 6.0.0-alpha1 by @fontawesome - https://fontawesome.com License - https://fontawesome.com/license (Commercial License) --><path d="M148 304H298C322 325 352 336 382 336C414 336 443 325 467 304H523C587 304 640 250 640 184S587 64 523 64C507 64 492 67 478 74C451 28 403 0 351 0C313 0 277 15 250 41C222 15 186 0 148 0C67 0 0 68 0 152S67 304 148 304ZM148 16C185 16 219 31 244 58C247 61 253 61 256 58C281 31 315 16 351 16C400 16 444 44 467 88C469 92 474 93 478 91C492 84 508 80 523 80C579 80 624 127 624 184S579 288 523 288H464C462 288 460 289 459 290C437 310 411 320 382 320C355 320 327 309 306 290C305 289 303 288 301 288H148C75 288 16 227 16 152S75 16 148 16ZM568 496H216C212 496 208 500 208 504S212 512 216 512H568C572 512 576 508 576 504S572 496 568 496ZM632 400H72C68 400 64 404 64 408S68 416 72 416H632C636 416 640 412 640 408S636 400 632 400ZM152 496H8C4 496 0 500 0 504S4 512 8 512H152C156 512 160 508 160 504S156 496 152 496Z"/></svg>