<svg xmlns="http://www.w3.org/2000/svg" viewBox="0 0 640 512"><!-- Font Awesome Pro 6.0.0-alpha1 by @fontawesome - https://fontawesome.com License - https://fontawesome.com/license (Commercial License) --><path d="M32 206C34 206 35 205 37 204C40 202 41 197 38 193C24 174 16 151 16 127C16 66 66 16 127 16C166 16 202 36 222 70C223 73 225 74 228 74S232 74 234 72C255 55 279 46 306 46C343 46 377 64 398 96C401 99 406 100 409 98C413 95 414 90 412 87C388 51 348 30 306 30C279 30 253 38 231 55C207 20 169 0 127 0C57 0 0 57 0 127C0 155 9 181 26 203C27 205 30 206 32 206ZM241 187C239 191 241 195 245 197C249 199 253 197 255 193C272 156 310 132 350 132C375 132 398 141 418 157L425 163L430 155C449 123 482 104 519 104C577 104 624 151 624 209C624 228 619 246 608 263C606 267 607 272 611 274C612 275 614 275 615 275C618 275 620 274 622 272C634 252 640 231 640 209C640 142 586 88 519 88C480 88 443 107 421 140C400 124 376 116 350 116C303 116 260 144 241 187ZM523 272C507 272 492 275 478 282C451 236 403 208 351 208C313 208 277 223 250 249C222 223 186 208 148 208C67 208 0 276 0 360S67 512 148 512H523C587 512 640 458 640 392S587 272 523 272ZM523 496H148C75 496 16 435 16 360S75 224 148 224C185 224 219 239 244 266L250 272L256 266C281 239 315 224 351 224C400 224 444 252 467 296L471 303L478 299C492 292 508 288 523 288C579 288 624 335 624 392S579 496 523 496Z"/></svg>