<svg xmlns="http://www.w3.org/2000/svg" viewBox="0 0 448 512"><!-- Font Awesome Pro 6.0.0-alpha1 by @fontawesome - https://fontawesome.com License - https://fontawesome.com/license (Commercial License) --><path d="M216 240H40C36 240 32 244 32 248S36 256 40 256H199L2 499C0 501 -1 505 1 507C2 510 5 512 8 512H200C204 512 208 508 208 504S204 496 200 496H25L222 253C224 251 225 247 223 245C222 242 219 240 216 240ZM440 416H313L446 253C448 251 449 247 447 245C446 242 443 240 440 240H312C308 240 304 244 304 248S308 256 312 256H423L290 419C288 421 287 425 289 427C290 430 293 432 296 432H440C444 432 448 428 448 424S444 416 440 416ZM168 176H312C316 176 320 172 320 168S316 160 312 160H186L318 13C320 11 321 8 319 5C318 2 315 0 312 0H184C180 0 176 4 176 8S180 16 184 16H294L162 163C160 165 159 168 161 171C162 174 165 176 168 176Z"/></svg>