<svg xmlns="http://www.w3.org/2000/svg" viewBox="0 0 640 512"><!-- Font Awesome Pro 6.0.0-alpha1 by @fontawesome - https://fontawesome.com License - https://fontawesome.com/license (Commercial License) --><path d="M447 128C445 124 440 122 436 125L348 175L367 106C367 104 367 102 366 100S363 97 361 96C357 95 352 98 351 102L329 186L232 242V131L294 70C297 67 297 61 294 58S285 55 282 58L232 109V8C232 4 228 0 224 0S216 4 216 8V109L166 58C163 55 157 55 154 58S151 67 154 70L216 131V242L119 186L97 102C96 98 91 95 87 96C83 97 80 102 81 106L100 175L12 125C8 122 3 124 1 128C-1 131 0 136 4 139L92 189L23 208C18 209 16 213 17 217C18 222 22 224 27 223L111 200L208 256L111 312L27 289C22 288 18 290 17 295C16 299 18 303 23 304L92 323L4 374C0 376 -1 381 1 384C3 388 8 390 12 387L100 337L81 406C80 410 83 415 87 416C91 417 96 414 97 410L119 326L216 270V381L154 442C151 446 151 451 154 454S163 457 166 454L216 403V504C216 508 220 512 224 512S232 508 232 504V403L282 454C284 455 286 456 288 456S292 455 294 454C297 451 297 445 294 442L232 381V270L329 326L351 410C352 414 357 417 361 416S368 410 367 406L348 337L436 387C440 390 445 388 447 384C449 381 448 376 444 373L356 323L425 304C428 304 429 302 430 301S432 297 431 295C430 290 426 288 421 289L337 312L240 256L337 200L421 223C426 224 430 222 431 217C432 213 430 209 425 208L356 189L444 139C448 136 449 131 447 128ZM536 120C536 124 540 128 544 128S552 124 552 120V78L588 99C590 100 591 100 592 100C595 100 598 99 599 96C602 92 600 87 596 85L560 64L596 43C600 41 602 36 599 32C597 28 592 27 588 29L552 50V8C552 4 548 0 544 0S536 4 536 8V50L499 29C496 27 491 28 489 32C486 36 488 41 491 43L528 64L491 85C488 87 486 92 489 96C490 99 493 100 495 100C497 100 498 100 499 99L536 78V120ZM592 256L628 235C632 233 634 228 631 224C629 220 624 219 620 221L584 242V200C584 196 580 192 576 192S568 196 568 200V242L531 221C528 219 523 220 521 224C518 228 520 233 523 235L560 256L523 277C520 279 518 284 521 288C522 291 525 292 527 292C529 292 530 292 531 291L568 270V312C568 316 572 320 576 320S584 316 584 312V270L620 291C622 292 623 292 624 292C627 292 630 291 631 288C634 284 632 279 628 277L592 256Z"/></svg>