<svg xmlns="http://www.w3.org/2000/svg" viewBox="0 0 640 512"><!-- Font Awesome Pro 6.0.0-alpha1 by @fontawesome - https://fontawesome.com License - https://fontawesome.com/license (Commercial License) --><path d="M331 225C335 226 340 224 341 220C342 215 339 211 335 210L288 197L334 171C338 169 339 164 337 160C335 156 330 155 326 157L280 183L293 137C293 134 293 132 292 130C291 129 289 127 287 127C283 126 279 128 277 132L261 195L179 242V147L224 102C227 99 227 93 224 90S216 87 213 90L179 125V72C179 68 175 64 171 64S163 68 163 72V125L128 90C125 87 120 87 117 90S114 99 117 102L163 147V242L80 195L64 132C63 128 58 126 54 127C50 128 47 132 48 137L61 183L15 157C11 155 7 156 4 160S3 169 7 171L53 197L6 210C2 211 -1 215 0 220C1 224 6 226 10 225L72 209L155 256L72 303L10 287C6 286 1 288 0 292C-1 297 2 301 6 302L53 315L7 341C3 343 2 348 4 352C7 356 11 357 15 355L61 329L48 376C47 380 50 384 54 385C58 386 63 384 64 380L80 317L163 270V365L117 410C114 413 114 419 117 422S125 425 128 422L163 387V440C163 444 166 448 171 448S179 444 179 440V387L213 422C214 423 217 424 219 424S223 423 224 422C227 419 227 413 224 410L179 365V270L261 317L277 380C279 384 283 386 287 385C291 384 294 380 293 376L280 329L326 355C330 357 335 356 337 352S338 343 334 341L288 315L335 302C337 302 339 300 340 298C341 297 341 294 341 292C340 288 335 286 331 287L269 303L187 256L269 209L331 225ZM411 224H547C595 224 635 185 635 136S595 48 547 48C517 48 489 63 473 88C470 92 471 97 475 99C479 102 484 100 486 97C500 76 522 64 547 64C586 64 619 96 619 136S586 208 547 208H411C406 208 403 212 403 216S406 224 411 224ZM547 288H411C406 288 403 292 403 296S406 304 411 304H547C586 304 619 336 619 376S586 448 547 448C522 448 500 436 486 415C484 412 479 410 475 413C471 415 470 420 473 424C489 449 517 464 547 464C595 464 635 425 635 376S595 288 547 288Z"/></svg>