<svg xmlns="http://www.w3.org/2000/svg" viewBox="0 0 640 512"><!-- Font Awesome Pro 6.0.0-alpha1 by @fontawesome - https://fontawesome.com License - https://fontawesome.com/license (Commercial License) --><path d="M96 384C87 384 80 391 80 400S87 416 96 416S112 409 112 400S105 384 96 384ZM384 384C375 384 368 391 368 400S375 416 384 416C393 416 400 409 400 400S393 384 384 384ZM288 384C279 384 272 391 272 400S279 416 288 416C297 416 304 409 304 400S297 384 288 384ZM192 384C183 384 176 391 176 400S183 416 192 416S208 409 208 400S201 384 192 384ZM448 320V264C448 242 430 224 408 224H259L207 172C199 164 189 160 179 160H104C82 160 64 178 64 200V299C26 317 0 355 0 400C0 462 50 512 112 512H368C430 512 480 462 480 400C480 369 468 342 447 321C448 321 448 320 448 320ZM80 200C80 187 91 176 104 176H179C185 176 191 179 196 183L250 238C252 239 254 240 256 240H408C421 240 432 251 432 264V308C414 296 392 288 368 288H112C101 288 90 290 80 293V200ZM464 400C464 453 421 496 368 496H112C59 496 16 453 16 400S59 304 112 304H368C421 304 464 347 464 400ZM136 136C140 136 144 132 144 128V16H315L409 196C410 198 413 200 416 200C417 200 419 200 420 199C424 197 425 192 423 188L327 4C326 2 323 0 320 0H136C132 0 128 4 128 8V128C128 132 132 136 136 136ZM587 448C564 425 552 395 552 363V277C552 245 564 215 587 192L638 142C641 139 641 133 638 130S629 127 626 130L576 181C550 207 536 241 536 277V312H480C476 312 472 316 472 320S476 328 480 328H536V363C536 399 550 433 576 459L626 510C628 511 630 512 632 512S636 511 638 510C641 507 641 501 638 498L587 448Z"/></svg>