<svg xmlns="http://www.w3.org/2000/svg" viewBox="0 0 448 512"><!-- Font Awesome Pro 6.0.0-alpha1 by @fontawesome - https://fontawesome.com License - https://fontawesome.com/license (Commercial License) --><path d="M88 176C92 176 96 172 96 168V40C96 27 107 16 120 16H328C341 16 352 27 352 40V168C352 172 356 176 360 176S368 172 368 168V40C368 18 350 0 328 0H120C98 0 80 18 80 40V168C80 172 84 176 88 176ZM440 208H356H92H8C4 208 0 212 0 216S4 224 8 224H75C48 258 32 300 32 344C32 406 62 464 113 501C124 508 137 512 152 512H295C311 512 327 507 339 497C399 452 427 379 412 305C406 276 393 248 374 224H440C444 224 448 220 448 216S444 208 440 208ZM396 308C410 376 384 443 330 484C320 492 308 496 296 496H152C144 496 132 495 122 487C76 454 48 401 48 344C48 299 65 257 95 224H353C375 248 390 277 396 308ZM144 320C135 320 128 313 128 304S135 288 144 288C153 288 160 295 160 304S153 320 144 320ZM304 320C295 320 288 313 288 304S295 288 304 288C313 288 320 295 320 304S313 320 304 320ZM224 336C198 336 176 358 176 384C176 405 200 442 211 457C214 461 219 464 224 464S234 461 237 457C248 442 272 405 272 384C272 358 250 336 224 336ZM224 448C224 448 192 402 192 384S206 352 224 352S256 366 256 384S224 448 224 448Z"/></svg>