<svg xmlns="http://www.w3.org/2000/svg" viewBox="0 0 640 512"><!-- Font Awesome Pro 6.0.0-alpha1 by @fontawesome - https://fontawesome.com License - https://fontawesome.com/license (Commercial License) --><path d="M639 335L566 31C562 13 546 0 527 0H113C94 0 78 13 74 31V31L1 335C-2 347 1 359 9 369C16 378 28 384 40 384H312V448H248C217 448 192 473 192 504C192 508 196 512 200 512C205 512 208 508 208 504C208 482 226 464 248 464H392C414 464 432 482 432 504C432 508 436 512 440 512C445 512 448 508 448 504C448 473 423 448 392 448H328V384H600C612 384 624 378 631 369C639 359 642 347 639 335ZM619 359C614 365 607 368 600 368H40C33 368 26 365 21 359C17 353 15 346 17 338L89 34V34C92 24 102 16 113 16H527C538 16 548 24 551 34L623 338C625 346 623 353 619 359ZM502 64H138C134 64 131 67 130 70L73 310C72 313 73 315 74 317C76 319 78 320 81 320H559C562 320 564 319 566 317C567 315 568 313 567 310L510 70C509 67 506 64 502 64ZM328 80H417C417 80 416 81 416 81L431 184H328V80ZM144 80H208L193 184H120L144 80ZM176 304H91L116 200H191L176 303C176 303 176 304 176 304ZM312 304H192L207 200H312V304ZM312 184H209L224 81C224 81 224 80 224 80H312V184ZM328 304V200H433L448 304H328ZM549 304H464C464 304 464 303 464 303L450 200H524L549 304ZM447 184L432 80H496L520 184H447Z"/></svg>