<svg xmlns="http://www.w3.org/2000/svg" viewBox="0 0 320 512"><!-- Font Awesome Pro 6.0.0-alpha1 by @fontawesome - https://fontawesome.com License - https://fontawesome.com/license (Commercial License) --><path d="M28 224H292C317 224 329 194 312 177L180 40C174 35 167 32 160 32C153 32 146 35 141 40L8 177C-9 194 3 224 28 224ZM20 188L152 51C154 49 157 48 160 48C163 48 166 49 168 51L301 188C306 193 304 199 303 201C302 203 299 208 292 208H28C21 208 18 203 17 201C16 199 15 193 20 188ZM292 288H28C3 288 -9 318 8 335L141 472C146 477 153 480 160 480C167 480 174 477 180 472L312 335C329 318 317 288 292 288ZM300 324L168 461C166 463 163 464 160 464C157 464 154 463 152 461L19 324C15 319 16 313 17 311C18 309 21 304 28 304H292C299 304 302 309 303 311C304 313 306 319 300 324Z"/></svg>