<svg xmlns="http://www.w3.org/2000/svg" viewBox="0 0 576 512"><!-- Font Awesome Pro 6.0.0-alpha1 by @fontawesome - https://fontawesome.com License - https://fontawesome.com/license (Commercial License) --><path d="M191 208C195 209 199 206 200 202C215 139 246 83 286 49C287 48 289 48 290 48C330 83 361 139 376 202C376 206 380 208 383 208C384 208 385 208 385 208C390 207 392 202 391 198C376 132 343 73 300 36C293 31 283 31 276 36C233 73 200 132 185 198C184 202 186 207 191 208ZM560 192L560 192C530 192 425 198 347 272C323 294 303 319 288 349C273 319 253 294 229 273C151 198 46 192 16 192C7 192 0 199 0 208C0 235 7 331 89 401C172 480 255 480 287 480V472L289 480H290C323 480 405 479 487 402C569 331 576 235 576 207C576 199 569 192 560 192ZM476 390C399 463 324 464 290 464H286C252 464 177 463 100 390C23 323 16 233 16 208C44 208 144 214 218 284C246 308 266 337 281 371C283 377 293 377 295 371C310 337 330 308 358 284C432 214 531 208 560 208C560 235 552 324 476 390Z"/></svg>