<svg xmlns="http://www.w3.org/2000/svg" viewBox="0 0 512 512"><!-- Font Awesome Pro 6.0.0-alpha1 by @fontawesome - https://fontawesome.com License - https://fontawesome.com/license (Commercial License) --><path d="M256 16C123 16 16 123 16 256S123 496 256 496S496 389 496 256S389 16 256 16ZM256 480C157 480 73 415 43 326C112 343 183 352 256 352S400 343 469 326C439 415 355 480 256 480ZM256 336C181 336 108 326 38 309C34 292 32 274 32 256C32 132 132 32 256 32S480 132 480 256C480 274 478 292 474 309C404 326 331 336 256 336ZM192 80C148 80 112 116 112 160C112 204 148 240 192 240C236 240 272 204 272 160C272 116 236 80 192 80ZM192 224C157 224 128 195 128 160S157 96 192 96C227 96 256 125 256 160S227 224 192 224ZM192 144C183 144 176 151 176 160S183 176 192 176C201 176 208 169 208 160S201 144 192 144Z"/></svg>