<svg xmlns="http://www.w3.org/2000/svg" viewBox="0 0 640 512"><!-- Font Awesome Pro 6.0.0-alpha1 by @fontawesome - https://fontawesome.com License - https://fontawesome.com/license (Commercial License) --><path d="M448 80C457 80 464 73 464 64S457 48 448 48S432 55 432 64S439 80 448 80ZM7 208C27 210 39 218 54 234L77 256C87 266 101 272 115 272C135 272 153 261 162 245C175 222 199 189 235 167L249 196C250 198 253 200 256 200C257 200 258 200 260 199C264 197 265 192 263 188L249 160C269 151 292 144 320 144S371 151 391 160L377 188C375 192 376 197 380 199C382 200 383 200 384 200C387 200 390 198 391 196L405 167C441 189 465 222 478 245C487 261 505 272 525 272C539 272 553 266 563 256L586 234C601 218 613 210 633 208C637 208 640 204 640 200C640 195 636 192 631 192C607 194 592 205 574 222L552 245C545 252 535 256 525 256C511 256 498 249 492 237C478 212 452 177 412 153L427 124C434 126 441 128 448 128C483 128 512 99 512 64S483 0 448 0S384 29 384 64C384 86 395 106 412 117L398 146C376 135 350 128 320 128S264 135 242 146L228 117C245 106 256 86 256 64C256 29 227 0 192 0S128 29 128 64S157 128 192 128C199 128 206 126 213 124L228 153C188 177 162 212 148 237C142 249 129 256 115 256C105 256 95 252 88 245L66 222C48 205 33 194 9 192C4 192 0 195 0 200C0 204 3 208 7 208ZM400 64C400 38 422 16 448 16S496 38 496 64S474 112 448 112S400 90 400 64ZM192 112C166 112 144 90 144 64S166 16 192 16S240 38 240 64S218 112 192 112ZM632 336H618C589 336 563 352 550 378C543 392 530 400 514 400C497 400 482 389 477 373C472 358 465 344 456 332C469 320 479 307 487 292C489 288 488 283 484 281C480 279 475 280 473 284C446 335 386 368 320 368S194 335 167 284C165 280 160 279 156 281C152 283 151 288 153 292C161 307 171 320 184 332C175 344 168 358 163 373C158 389 143 400 126 400C110 400 97 392 90 378C77 352 51 336 22 336H8C4 336 0 340 0 344S4 352 8 352H22C45 352 65 365 76 385C85 404 104 416 126 416C150 416 171 401 178 378C183 365 189 353 196 342C219 360 247 373 278 379L266 413C255 439 255 439 253 443C237 476 204 496 168 496C164 496 160 500 160 504S164 512 168 512C211 512 249 488 268 449C270 446 270 446 281 418L294 382C303 383 311 384 320 384S337 383 346 382L359 418C370 446 370 446 372 450C391 488 429 512 472 512C476 512 480 508 480 504S476 496 472 496C436 496 403 476 386 442C385 439 385 439 374 412L362 379C393 373 421 360 444 342C451 353 457 365 461 378C469 401 490 416 514 416C536 416 555 404 564 385C575 365 595 352 618 352H632C636 352 640 348 640 344S636 336 632 336ZM192 48C183 48 176 55 176 64S183 80 192 80S208 73 208 64S201 48 192 48Z"/></svg>