<svg xmlns="http://www.w3.org/2000/svg" viewBox="0 0 512 512"><!-- Font Awesome Pro 6.0.0-alpha1 by @fontawesome - https://fontawesome.com License - https://fontawesome.com/license (Commercial License) --><path d="M384 256C384 250 381 244 375 241L263 185L206 72C204 67 198 64 192 64S180 67 178 72L121 185L9 241C3 244 0 250 0 256C0 262 3 267 9 270L121 326L178 439C180 445 186 448 192 448C198 448 204 445 206 439L263 326L375 270C381 267 384 262 384 256ZM255 312L251 314L248 319L192 432L136 319L133 314L129 312L16 256L133 197L136 192L191 80C191 80 192 80 192 80L192 79L248 192L251 197L255 199L368 256L255 312ZM352 104H408V160C408 164 412 168 416 168S424 164 424 160V104H480C484 104 488 100 488 96S484 88 480 88H424V32C424 28 420 24 416 24S408 28 408 32V88H352C348 88 344 92 344 96S348 104 352 104ZM480 408H424V352C424 348 420 344 416 344S408 348 408 352V408H352C348 408 344 412 344 416S348 424 352 424H408V480C408 484 412 488 416 488S424 484 424 480V424H480C484 424 488 420 488 416S484 408 480 408Z"/></svg>