<svg xmlns="http://www.w3.org/2000/svg" viewBox="0 0 640 512"><!-- Font Awesome Pro 6.0.0-alpha1 by @fontawesome - https://fontawesome.com License - https://fontawesome.com/license (Commercial License) --><path d="M592 0H304C278 0 256 22 256 48V464C256 490 278 512 304 512H592C618 512 640 490 640 464V48C640 22 618 0 592 0ZM624 464C624 482 610 496 592 496H304C286 496 272 482 272 464V48C272 30 286 16 304 16H592C610 16 624 30 624 48V464ZM448 160C474 160 496 138 496 112S474 64 448 64S400 86 400 112S422 160 448 160ZM448 80C466 80 480 94 480 112S466 144 448 144S416 130 416 112S430 80 448 80ZM448 224C386 224 336 274 336 336S386 448 448 448S560 398 560 336S510 224 448 224ZM448 432C395 432 352 389 352 336C352 283 395 240 448 240S544 283 544 336C544 389 501 432 448 432ZM448 288C422 288 400 310 400 336S422 384 448 384S496 362 496 336S474 288 448 288ZM448 368C430 368 416 354 416 336S430 304 448 304S480 318 480 336S466 368 448 368ZM176 288C150 288 128 310 128 336S150 384 176 384S224 362 224 336S202 288 176 288ZM176 368C158 368 144 354 144 336S158 304 176 304S208 318 208 336S194 368 176 368ZM176 64C150 64 128 86 128 112S150 160 176 160S224 138 224 112S202 64 176 64ZM176 144C158 144 144 130 144 112S158 80 176 80S208 94 208 112S194 144 176 144ZM216 0H48C22 0 0 22 0 48V464C0 490 22 512 48 512H216C220 512 224 508 224 504S220 496 216 496H48C30 496 16 482 16 464V48C16 30 30 16 48 16H216C220 16 224 12 224 8S220 0 216 0ZM219 233C200 225 177 221 154 226C105 237 68 278 64 327C59 393 111 448 176 448C191 448 206 445 219 439C222 438 224 435 224 432V431C224 426 218 422 213 424C199 430 184 433 168 432C119 427 81 386 80 337C79 284 123 240 176 240C189 240 202 243 213 248C218 250 224 246 224 241V240C224 237 222 234 219 233Z"/></svg>