<svg xmlns="http://www.w3.org/2000/svg" viewBox="0 0 576 512"><!-- Font Awesome Pro 6.0.0-alpha1 by @fontawesome - https://fontawesome.com License - https://fontawesome.com/license (Commercial License) --><path d="M550 250L547 248C487 187 444 112 424 30C424 30 424 30 424 30C423 29 423 28 422 27C421 27 421 26 420 25C420 25 420 25 420 25C420 25 420 25 420 25C419 24 418 25 417 25C416 24 415 24 414 24L414 24C414 24 414 24 414 24L402 27C327 46 249 46 174 27L162 24C162 24 162 24 162 24L162 24C161 24 160 24 159 25C158 25 157 24 156 25C156 25 156 25 156 25C156 25 156 25 156 25C155 26 155 27 154 27C153 28 153 29 152 30C152 30 152 30 152 30C132 112 89 188 29 248L26 250C23 253 23 258 26 262L29 264C89 324 132 400 152 482C152 482 152 482 152 482C153 483 153 484 154 484C155 485 155 486 156 487C156 487 156 487 156 487C156 487 156 487 156 487C157 488 159 488 160 488C160 488 161 488 161 488C162 488 162 488 162 488L174 485C249 466 327 466 402 485L414 488C415 488 415 488 416 488C417 488 419 488 420 487C420 487 420 487 420 487C420 487 420 487 420 487C421 486 421 485 422 484C423 484 424 483 424 482C424 482 424 482 424 482C444 400 487 324 547 264L550 262C553 258 553 253 550 250ZM413 52C435 125 473 192 525 248H435C403 215 380 175 369 131L413 52ZM288 240L232 141C269 149 307 149 344 141L288 240ZM358 150C370 186 389 219 414 248H302L358 150ZM274 248H162C187 219 206 186 218 150L274 248ZM274 264L218 362C206 326 187 292 162 264H274ZM288 272L344 370C307 363 269 363 232 370L288 272ZM302 264H414C389 292 370 326 358 362L302 264ZM400 44L355 123L351 124C310 134 266 134 225 124L221 123L176 44C249 61 327 61 400 44ZM162 52L207 131C196 175 173 215 141 248H51C103 192 141 125 162 52ZM162 460C141 386 103 319 51 264H141C173 296 196 337 207 381L162 460ZM288 455C250 455 213 459 176 468L221 389L225 388C266 378 310 378 351 388L355 389L400 468C363 459 326 455 288 455ZM413 459L369 381C380 337 403 296 435 264H525C473 319 435 386 413 459Z"/></svg>