<svg xmlns="http://www.w3.org/2000/svg" viewBox="0 0 576 512"><!-- Font Awesome Pro 6.0.0-alpha1 by @fontawesome - https://fontawesome.com License - https://fontawesome.com/license (Commercial License) --><path d="M566 234C563 231 557 231 554 234L480 309L406 234C403 231 397 231 394 234S391 243 394 246L469 320L394 394C391 397 391 403 394 406C396 407 398 408 400 408S404 407 406 406L480 331L554 406C556 407 558 408 560 408S564 407 566 406C569 403 569 397 566 394L491 320L566 246C569 243 569 237 566 234ZM568 32H398C367 32 340 52 330 81L207 450L121 266C109 240 83 224 55 224H8C4 224 0 228 0 232S4 240 8 240H55C77 240 97 253 106 272L201 475C202 478 205 480 208 480H208C212 480 215 478 216 475L345 86C353 63 374 48 398 48H568C572 48 576 44 576 40S572 32 568 32Z"/></svg>