<svg xmlns="http://www.w3.org/2000/svg" viewBox="0 0 448 512"><!-- Font Awesome Pro 6.0.0-alpha1 by @fontawesome - https://fontawesome.com License - https://fontawesome.com/license (Commercial License) --><path d="M384 32H64C29 32 0 61 0 96V416C0 451 29 480 64 480H384C419 480 448 451 448 416V96C448 61 419 32 384 32ZM432 416C432 442 410 464 384 464H64C38 464 16 442 16 416V96C16 70 38 48 64 48H384C410 48 432 70 432 96V416ZM226 248C171 234 138 222 145 184C147 173 154 163 164 156C181 146 215 137 285 153C289 154 294 152 295 147S293 139 289 138C228 123 183 125 156 143C141 152 132 165 129 181C119 237 174 251 222 264C277 278 310 290 303 328C300 342 293 352 282 358C248 377 186 365 139 348C135 346 130 349 129 353S129 361 133 363C150 369 194 384 236 384C256 384 274 381 289 372C305 363 315 349 319 331C329 275 274 261 226 248Z"/></svg>