<svg xmlns="http://www.w3.org/2000/svg" viewBox="0 0 448 512"><!-- Font Awesome Pro 6.0.0-alpha1 by @fontawesome - https://fontawesome.com License - https://fontawesome.com/license (Commercial License) --><path d="M384 32H64C29 32 0 61 0 96V416C0 451 29 480 64 480H384C419 480 448 451 448 416V96C448 61 419 32 384 32ZM432 416C432 442 410 464 384 464H64C38 464 16 442 16 416V96C16 70 38 48 64 48H384C410 48 432 70 432 96V416ZM342 132L291 121C280 118 269 124 264 134L241 189C237 198 240 210 248 216L270 234C254 263 231 286 202 302L184 280C178 272 166 269 157 273L102 296L102 296C92 301 86 312 89 323L100 374C103 384 112 392 123 392C254 392 360 286 360 155C360 144 352 135 342 132ZM123 376C120 376 117 374 116 370L104 320C103 316 105 312 109 311L163 288C166 286 170 287 172 290L198 322L203 319C240 301 269 272 287 236L290 230L258 204C255 202 254 198 256 195L279 141C280 137 284 135 288 136L338 148C342 149 344 152 344 155C344 277 245 376 123 376Z"/></svg>