<svg xmlns="http://www.w3.org/2000/svg" viewBox="0 0 448 512"><!-- Font Awesome Pro 6.0.0-alpha1 by @fontawesome - https://fontawesome.com License - https://fontawesome.com/license (Commercial License) --><path d="M384 32H64C29 32 0 61 0 96V416C0 451 29 480 64 480H384C419 480 448 451 448 416V96C448 61 419 32 384 32ZM432 416C432 442 410 464 384 464H64C38 464 16 442 16 416V96C16 70 38 48 64 48H384C410 48 432 70 432 96V416ZM317 256H272V152C272 139 261 128 248 128H200C187 128 176 139 176 152V256H131C110 256 99 282 114 297L207 390C212 394 218 397 224 397S236 394 241 390L334 297C349 282 338 256 317 256ZM322 286L230 378C228 380 225 381 224 381S220 380 218 378L126 286C122 282 123 278 124 277C125 275 126 272 131 272H192V152C192 148 196 144 200 144H248C252 144 256 148 256 152V272H317C322 272 323 275 324 277C325 278 326 282 322 286Z"/></svg>