<svg xmlns="http://www.w3.org/2000/svg" viewBox="0 0 448 512"><!-- Font Awesome Pro 6.0.0-alpha1 by @fontawesome - https://fontawesome.com License - https://fontawesome.com/license (Commercial License) --><path d="M384 32H64C29 32 0 61 0 96V416C0 451 29 480 64 480H384C419 480 448 451 448 416V96C448 61 419 32 384 32ZM432 416C432 442 410 464 384 464H64C38 464 16 442 16 416V96C16 70 38 48 64 48H384C410 48 432 70 432 96V416ZM246 170C240 164 232 160 224 160S208 164 202 170L113 272C105 281 104 293 108 303C113 313 123 320 134 320H314C325 320 335 313 340 303C344 293 343 281 335 272L246 170ZM325 297C323 301 319 304 314 304H134C129 304 125 301 123 297C121 292 121 287 125 283L214 180C217 178 220 176 224 176S231 178 234 180L323 283C327 287 327 292 325 297Z"/></svg>