<svg xmlns="http://www.w3.org/2000/svg" viewBox="0 0 448 512"><!-- Font Awesome Pro 6.0.0-alpha1 by @fontawesome - https://fontawesome.com License - https://fontawesome.com/license (Commercial License) --><path d="M277 362L164 256L277 150C279 148 280 146 280 144C280 142 279 140 278 139C275 135 270 135 266 138L146 250C143 253 143 259 146 262L266 374C270 377 275 377 278 373C281 370 281 365 277 362ZM448 416V96C448 61 419 32 384 32H64C29 32 0 61 0 96V416C0 451 29 480 64 480H384C419 480 448 451 448 416ZM64 464C38 464 16 442 16 416V96C16 70 38 48 64 48H384C410 48 432 70 432 96V416C432 442 410 464 384 464H64Z"/></svg>