<svg xmlns="http://www.w3.org/2000/svg" viewBox="0 0 448 512"><!-- Font Awesome Pro 6.0.0-alpha1 by @fontawesome - https://fontawesome.com License - https://fontawesome.com/license (Commercial License) --><path d="M98 250C95 253 95 259 98 262L218 382C220 383 222 384 224 384S228 383 230 382C233 379 233 373 230 370L123 264H344C348 264 352 260 352 256S348 248 344 248H123L230 142C233 139 233 133 230 130S221 127 218 130L98 250ZM0 96V416C0 451 29 480 64 480H384C419 480 448 451 448 416V96C448 61 419 32 384 32H64C29 32 0 61 0 96ZM384 48C410 48 432 70 432 96V416C432 442 410 464 384 464H64C38 464 16 442 16 416V96C16 70 38 48 64 48H384Z"/></svg>