<svg xmlns="http://www.w3.org/2000/svg" viewBox="0 0 448 512"><!-- Font Awesome Pro 6.0.0-alpha1 by @fontawesome - https://fontawesome.com License - https://fontawesome.com/license (Commercial License) --><path d="M384 32H64C29 32 0 61 0 96V416C0 451 29 480 64 480H384C419 480 448 451 448 416V96C448 61 419 32 384 32ZM432 416C432 442 410 464 384 464H64C38 464 16 442 16 416V96C16 70 38 48 64 48H384C410 48 432 70 432 96V416ZM346 128C343 127 339 129 337 131L224 296L111 131C109 129 105 127 102 128C98 129 96 133 96 136V376C96 380 100 384 104 384S112 380 112 376V162L217 315C220 319 228 319 231 315L336 162V376C336 380 340 384 344 384S352 380 352 376V136C352 133 350 129 346 128Z"/></svg>