<svg xmlns="http://www.w3.org/2000/svg" viewBox="0 0 448 512"><!-- Font Awesome Pro 6.0.0-alpha1 by @fontawesome - https://fontawesome.com License - https://fontawesome.com/license (Commercial License) --><path d="M384 32H64C29 32 0 61 0 96V416C0 451 29 480 64 480H384C419 480 448 451 448 416V96C448 61 419 32 384 32ZM432 416C432 442 410 464 384 464H64C38 464 16 442 16 416V96C16 70 38 48 64 48H384C410 48 432 70 432 96V416ZM346 296L291 273C282 269 270 272 264 280L246 302C217 286 194 263 178 234L200 216C208 210 211 198 207 189L184 134C179 124 168 118 157 121L106 132C96 135 88 144 88 155C88 286 194 392 325 392C336 392 345 384 348 374L359 323C362 312 356 301 346 296ZM332 370C331 374 328 376 325 376C203 376 104 277 104 155C104 152 106 149 110 148L160 136C161 136 161 136 162 136C165 136 168 138 169 141L192 195C194 198 193 202 190 204L158 230L161 236C179 272 208 301 244 319L250 322L276 290C278 287 282 286 285 288L339 311C343 312 345 316 344 320L332 370Z"/></svg>