<svg xmlns="http://www.w3.org/2000/svg" viewBox="0 0 448 512"><!-- Font Awesome Pro 6.0.0-alpha1 by @fontawesome - https://fontawesome.com License - https://fontawesome.com/license (Commercial License) --><path d="M136 256C132 256 128 260 128 264V408C128 412 132 416 136 416S144 412 144 408V264C144 260 140 256 136 256ZM168 160H144C144 160 144 160 144 160V104C144 100 140 96 136 96S128 100 128 104V160C128 160 128 160 128 160H104C86 160 72 174 72 192S86 224 104 224H168C186 224 200 210 200 192S186 160 168 160ZM168 208H104C95 208 88 201 88 192S95 176 104 176H168C177 176 184 183 184 192S177 208 168 208ZM312 352C308 352 304 356 304 360V408C304 412 308 416 312 416S320 412 320 408V360C320 356 316 352 312 352ZM344 256H320V104C320 100 316 96 312 96S304 100 304 104V256H280C262 256 248 270 248 288S262 320 280 320H344C362 320 376 306 376 288S362 256 344 256ZM344 304H280C271 304 264 297 264 288S271 272 280 272H344C353 272 360 279 360 288S353 304 344 304ZM384 32H64C29 32 0 61 0 96V416C0 451 29 480 64 480H384C419 480 448 451 448 416V96C448 61 419 32 384 32ZM432 416C432 442 410 464 384 464H64C38 464 16 442 16 416V96C16 70 38 48 64 48H384C410 48 432 70 432 96V416Z"/></svg>