<svg xmlns="http://www.w3.org/2000/svg" viewBox="0 0 448 512"><!-- Font Awesome Pro 6.0.0-alpha1 by @fontawesome - https://fontawesome.com License - https://fontawesome.com/license (Commercial License) --><path d="M384 32H64C29 32 0 61 0 96V416C0 451 29 480 64 480H384C419 480 448 451 448 416V96C448 61 419 32 384 32ZM432 416C432 442 410 464 384 464H64C38 464 16 442 16 416V96C16 70 38 48 64 48H384C410 48 432 70 432 96V416ZM328 368H138L334 141C336 139 337 136 335 133C334 130 331 128 328 128H120C116 128 112 132 112 136S116 144 120 144H310L114 371C112 373 111 376 113 379C114 382 117 384 120 384H328C332 384 336 380 336 376S332 368 328 368Z"/></svg>