<svg xmlns="http://www.w3.org/2000/svg" viewBox="0 0 448 512"><!-- Font Awesome Pro 6.0.0-alpha1 by @fontawesome - https://fontawesome.com License - https://fontawesome.com/license (Commercial License) --><path d="M384 32H64C29 32 0 61 0 96V416C0 451 29 480 64 480H384C419 480 448 451 448 416V96C448 61 419 32 384 32ZM432 416C432 442 410 464 384 464H64C38 464 16 442 16 416V96C16 70 38 48 64 48H384C410 48 432 70 432 96V416ZM112 192H240C249 192 256 185 256 176V144C256 135 249 128 240 128H112C103 128 96 135 96 144V176C96 185 103 192 112 192ZM112 144H240V176H112V144ZM176 320H112C103 320 96 327 96 336V368C96 377 103 384 112 384H176C185 384 192 377 192 368V336C192 327 185 320 176 320ZM176 368H112V336H176V368ZM336 224H112C103 224 96 231 96 240V272C96 281 103 288 112 288H336C345 288 352 281 352 272V240C352 231 345 224 336 224ZM336 272H112V240H336V272Z"/></svg>