<svg xmlns="http://www.w3.org/2000/svg" viewBox="0 0 448 512"><!-- Font Awesome Pro 6.0.0-alpha1 by @fontawesome - https://fontawesome.com License - https://fontawesome.com/license (Commercial License) --><path d="M384 32H64C29 32 0 61 0 96V416C0 451 29 480 64 480H384C419 480 448 451 448 416V96C448 61 419 32 384 32ZM432 416C432 442 410 464 384 464H64C38 464 16 442 16 416V96C16 70 38 48 64 48H384C410 48 432 70 432 96V416ZM231 132C228 127 220 127 217 132L97 372C95 376 96 381 100 383C104 385 109 384 111 380L137 328H311L337 380C338 382 341 384 344 384C345 384 346 384 348 383C352 381 353 376 351 372L231 132ZM145 312L224 154L303 312H145Z"/></svg>