<svg xmlns="http://www.w3.org/2000/svg" viewBox="0 0 640 512"><!-- Font Awesome Pro 6.0.0-alpha1 by @fontawesome - https://fontawesome.com License - https://fontawesome.com/license (Commercial License) --><path d="M-2592 32H-2912C-2947 32 -2976 61 -2976 96V416C-2976 451 -2947 480 -2912 480H-2592C-2557 480 -2528 451 -2528 416V96C-2528 61 -2557 32 -2592 32ZM-2544 416C-2544 442 -2566 464 -2592 464H-2912C-2938 464 -2960 442 -2960 416V96C-2960 70 -2938 48 -2912 48H-2592C-2566 48 -2544 70 -2544 96V416ZM2016 32H1696C1661 32 1632 61 1632 96V416C1632 451 1661 480 1696 480H2016C2051 480 2080 451 2080 416V96C2080 61 2051 32 2016 32ZM2064 416C2064 442 2042 464 2016 464H1696C1670 464 1648 442 1648 416V96C1648 70 1670 48 1696 48H2016C2042 48 2064 70 2064 96V416ZM-1103 132L-1216 358L-1329 132C-1331 128 -1336 127 -1340 129C-1344 131 -1345 136 -1343 140L-1223 380C-1222 382 -1219 384 -1216 384S-1210 382 -1209 380L-1089 140C-1087 136 -1088 131 -1092 129C-1096 127 -1101 129 -1103 132ZM1965 130C1962 127 1957 127 1954 131L1856 244L1758 131C1755 127 1750 127 1747 130C1743 133 1743 138 1746 141L1845 256L1746 371C1743 374 1743 379 1747 382C1748 383 1750 384 1752 384C1754 384 1756 383 1758 381L1856 268L1954 381C1956 383 1958 384 1960 384C1962 384 1964 383 1965 382C1969 379 1969 374 1966 371L1867 256L1966 141C1969 138 1969 133 1965 130ZM480 32H160C125 32 96 61 96 96V416C96 451 125 480 160 480H480C515 480 544 451 544 416V96C544 61 515 32 480 32ZM528 416C528 442 506 464 480 464H160C134 464 112 442 112 416V96C112 70 134 48 160 48H480C506 48 528 70 528 96V416ZM458 128C454 127 450 129 448 134L384 347L328 134C326 127 314 127 312 134L256 347L192 134C190 129 186 127 182 128C178 130 175 134 176 138L248 378C249 382 253 385 256 384C260 384 263 382 264 378L320 167L376 378C377 382 380 384 384 384H384C388 384 391 382 392 378L464 138C465 134 463 130 458 128ZM-1056 32H-1376C-1411 32 -1440 61 -1440 96V416C-1440 451 -1411 480 -1376 480H-1056C-1021 480 -992 451 -992 416V96C-992 61 -1021 32 -1056 32ZM-1008 416C-1008 442 -1030 464 -1056 464H-1376C-1402 464 -1424 442 -1424 416V96C-1424 70 -1402 48 -1376 48H-1056C-1030 48 -1008 70 -1008 96V416ZM-2648 128C-2652 128 -2656 132 -2656 136V278C-2656 328 -2699 368 -2752 368S-2848 328 -2848 278V136C-2848 132 -2852 128 -2856 128S-2864 132 -2864 136V278C-2864 336 -2814 384 -2752 384S-2640 336 -2640 278V136C-2640 132 -2644 128 -2648 128Z"/></svg>