<svg xmlns="http://www.w3.org/2000/svg" viewBox="0 0 448 512"><!-- Font Awesome Pro 6.0.0-alpha1 by @fontawesome - https://fontawesome.com License - https://fontawesome.com/license (Commercial License) --><path d="M248 240H189L301 142C304 140 305 136 303 133S299 128 296 128H136C132 128 128 132 128 136S132 144 136 144H275L163 242C160 244 159 248 161 251S165 256 168 256H248C279 256 304 281 304 312S279 368 248 368H180C164 368 149 357 144 341C142 337 138 335 133 336C129 338 127 342 128 346C136 369 157 384 180 384H248C288 384 320 352 320 312S288 240 248 240ZM384 32H64C29 32 0 61 0 96V416C0 451 29 480 64 480H384C419 480 448 451 448 416V96C448 61 419 32 384 32ZM432 416C432 442 410 464 384 464H64C38 464 16 442 16 416V96C16 70 38 48 64 48H384C410 48 432 70 432 96V416Z"/></svg>