<svg xmlns="http://www.w3.org/2000/svg" viewBox="0 0 448 512"><!-- Font Awesome Pro 6.0.0-alpha1 by @fontawesome - https://fontawesome.com License - https://fontawesome.com/license (Commercial License) --><path d="M208 352C199 352 192 359 192 368S199 384 208 384S224 377 224 368S217 352 208 352ZM384 32H64C29 32 0 61 0 96V416C0 451 29 480 64 480H384C419 480 448 451 448 416V96C448 61 419 32 384 32ZM432 416C432 442 410 464 384 464H64C38 464 16 442 16 416V96C16 70 38 48 64 48H384C410 48 432 70 432 96V416ZM257 128H191C156 128 128 156 128 191V202C128 206 132 210 136 210S144 206 144 202V191C144 165 165 144 191 144H257C283 144 304 165 304 191C304 209 295 224 280 233L214 266C204 271 198 281 198 292V312C198 316 202 320 206 320S214 316 214 312V292C214 287 217 282 221 280L287 247C307 236 320 214 320 191C320 156 292 128 257 128Z"/></svg>