<svg xmlns="http://www.w3.org/2000/svg" viewBox="0 0 640 512"><!-- Font Awesome Pro 6.0.0-alpha1 by @fontawesome - https://fontawesome.com License - https://fontawesome.com/license (Commercial License) --><path d="M-1128 128H-1304C-1308 128 -1312 132 -1312 136S-1308 144 -1304 144H-1142L-1279 372C-1281 376 -1280 381 -1276 383C-1275 384 -1273 384 -1272 384C-1269 384 -1267 383 -1265 380L-1121 140C-1120 138 -1120 135 -1121 132C-1122 130 -1125 128 -1128 128ZM-1056 32H-1376C-1411 32 -1440 61 -1440 96V416C-1440 451 -1411 480 -1376 480H-1056C-1021 480 -992 451 -992 416V96C-992 61 -1021 32 -1056 32ZM-1008 416C-1008 442 -1030 464 -1056 464H-1376C-1402 464 -1424 442 -1424 416V96C-1424 70 -1402 48 -1376 48H-1056C-1030 48 -1008 70 -1008 96V416ZM371 245C388 234 400 214 400 192C400 157 371 128 336 128H304C269 128 240 157 240 192C240 214 252 234 269 245C243 256 224 282 224 312C224 352 256 384 296 384H344C384 384 416 352 416 312C416 282 397 256 371 245ZM256 192C256 166 278 144 304 144H336C362 144 384 166 384 192S362 240 336 240H304C278 240 256 218 256 192ZM344 368H296C265 368 240 343 240 312S265 256 296 256H344C375 256 400 281 400 312S375 368 344 368ZM480 32H160C125 32 96 61 96 96V416C96 451 125 480 160 480H480C515 480 544 451 544 416V96C544 61 515 32 480 32ZM528 416C528 442 506 464 480 464H160C134 464 112 442 112 416V96C112 70 134 48 160 48H480C506 48 528 70 528 96V416Z"/></svg>