<svg xmlns="http://www.w3.org/2000/svg" viewBox="0 0 448 512"><!-- Font Awesome Pro 6.0.0-alpha1 by @fontawesome - https://fontawesome.com License - https://fontawesome.com/license (Commercial License) --><path d="M384 32H64C29 32 0 61 0 96V416C0 451 29 480 64 480H384C419 480 448 451 448 416V96C448 61 419 32 384 32ZM432 416C432 442 410 464 384 464H64C38 464 16 442 16 416V96C16 70 38 48 64 48H384C410 48 432 70 432 96V416ZM271 140C267 138 263 138 259 138C252 138 245 140 240 145L138 234C132 240 128 248 128 256S132 272 138 278L240 367C245 372 252 374 259 374C263 374 267 374 271 372C281 367 288 357 288 346V166C288 155 281 145 271 140ZM272 346C272 351 269 355 265 357C263 358 261 358 259 358C256 358 253 357 251 355L148 266C146 263 144 260 144 256C144 252 146 249 148 246L251 157C253 155 256 154 259 154C261 154 263 154 265 155C269 157 272 161 272 166V346Z"/></svg>