<svg xmlns="http://www.w3.org/2000/svg" viewBox="0 0 448 512"><!-- Font Awesome Pro 6.0.0-alpha1 by @fontawesome - https://fontawesome.com License - https://fontawesome.com/license (Commercial License) --><path d="M384 32H64C29 32 0 61 0 96V416C0 451 29 480 64 480H384C419 480 448 451 448 416V96C448 61 419 32 384 32ZM432 416C432 442 410 464 384 464H64C38 464 16 442 16 416V96C16 70 38 48 64 48H384C410 48 432 70 432 96V416ZM294 144C273 144 251 153 235 169L224 181L213 169C197 153 175 144 154 144C137 144 120 150 106 162C70 192 68 247 100 280L211 394C214 398 219 400 224 400S234 398 237 394L347 280C380 247 378 192 342 162C328 150 311 144 294 144ZM336 269L226 383C225 384 223 384 222 383L112 269C100 256 93 239 94 220C95 202 103 186 116 174C127 165 140 160 154 160C172 160 189 167 201 180L224 204L247 180C259 167 276 160 294 160C308 160 321 165 332 174C345 186 353 202 354 220C355 239 348 256 336 269Z"/></svg>