<svg xmlns="http://www.w3.org/2000/svg" viewBox="0 0 448 512"><!-- Font Awesome Pro 6.0.0-alpha1 by @fontawesome - https://fontawesome.com License - https://fontawesome.com/license (Commercial License) --><path d="M359 200L277 188L240 114C237 107 230 104 224 104C218 104 211 107 208 114L171 188L89 200C74 203 68 221 79 231L138 289L124 371C122 383 132 392 142 392C145 392 148 391 150 390L224 351L298 390C300 391 303 392 306 392C316 392 326 383 324 371L310 289L369 231C380 221 374 203 359 200ZM358 220L299 278L293 284L294 292L308 375C307 376 307 376 306 376C306 376 305 376 305 376L231 337L224 333L217 337L142 376C141 376 141 376 140 374L154 292L155 284L149 278L90 220C90 219 89 219 89 218C90 216 91 216 91 216L173 204L182 203L185 196L222 121C222 121 223 120 224 120C225 120 226 121 226 121L263 196L266 203L275 204L357 216C357 216 358 216 359 218C359 219 358 219 358 220ZM384 32H64C29 32 0 61 0 96V416C0 451 29 480 64 480H384C419 480 448 451 448 416V96C448 61 419 32 384 32ZM432 416C432 442 410 464 384 464H64C38 464 16 442 16 416V96C16 70 38 48 64 48H384C410 48 432 70 432 96V416Z"/></svg>