<svg xmlns="http://www.w3.org/2000/svg" viewBox="0 0 448 512"><!-- Font Awesome Pro 6.0.0-alpha1 by @fontawesome - https://fontawesome.com License - https://fontawesome.com/license (Commercial License) --><path d="M224 192C219 192 215 193 211 193L269 142C273 139 273 134 270 131C268 129 266 128 264 128C262 128 260 129 259 130C259 130 160 217 159 218C140 235 128 260 128 288C128 341 171 384 224 384S320 341 320 288S277 192 224 192ZM224 368C180 368 144 332 144 288S180 208 224 208S304 244 304 288S268 368 224 368ZM384 32H64C29 32 0 61 0 96V416C0 451 29 480 64 480H384C419 480 448 451 448 416V96C448 61 419 32 384 32ZM432 416C432 442 410 464 384 464H64C38 464 16 442 16 416V96C16 70 38 48 64 48H384C410 48 432 70 432 96V416Z"/></svg>