<svg xmlns="http://www.w3.org/2000/svg" viewBox="0 0 448 512"><!-- Font Awesome Pro 6.0.0-alpha1 by @fontawesome - https://fontawesome.com License - https://fontawesome.com/license (Commercial License) --><path d="M312 304H288V200C288 196 284 192 280 192S272 196 272 200V304H140L207 139C209 135 207 130 203 129C199 127 194 129 193 133L121 309C120 311 120 314 121 316S125 320 128 320H272V376C272 380 276 384 280 384S288 380 288 376V320H312C316 320 320 316 320 312S316 304 312 304ZM384 32H64C29 32 0 61 0 96V416C0 451 29 480 64 480H384C419 480 448 451 448 416V96C448 61 419 32 384 32ZM432 416C432 442 410 464 384 464H64C38 464 16 442 16 416V96C16 70 38 48 64 48H384C410 48 432 70 432 96V416Z"/></svg>