<svg xmlns="http://www.w3.org/2000/svg" viewBox="0 0 448 512"><!-- Font Awesome Pro 6.0.0-alpha1 by @fontawesome - https://fontawesome.com License - https://fontawesome.com/license (Commercial License) --><path d="M384 32H64C29 32 0 61 0 96V416C0 451 29 480 64 480H384C419 480 448 451 448 416V96C448 61 419 32 384 32ZM432 416C432 442 410 464 384 464H64C38 464 16 442 16 416V96C16 70 38 48 64 48H384C410 48 432 70 432 96V416ZM328 128C324 128 320 132 320 136V355L126 131C124 128 120 127 117 129C114 130 112 133 112 136V376C112 380 116 384 120 384S128 380 128 376V157L322 381C323 383 326 384 328 384C329 384 330 384 331 383C334 382 336 379 336 376V136C336 132 332 128 328 128Z"/></svg>