<svg xmlns="http://www.w3.org/2000/svg" viewBox="0 0 448 512"><!-- Font Awesome Pro 6.0.0-alpha1 by @fontawesome - https://fontawesome.com License - https://fontawesome.com/license (Commercial License) --><path d="M384 32H64C29 32 0 61 0 96V416C0 451 29 480 64 480H384C419 480 448 451 448 416V96C448 61 419 32 384 32ZM432 416C432 442 410 464 384 464H64C38 464 16 442 16 416V96C16 70 38 48 64 48H384C410 48 432 70 432 96V416ZM328 144H168C164 144 160 148 160 152S164 160 168 160H309L122 346C119 349 119 355 122 358C124 359 126 360 128 360S132 359 134 358L320 171V312C320 316 324 320 328 320S336 316 336 312V152C336 148 332 144 328 144Z"/></svg>