<svg xmlns="http://www.w3.org/2000/svg" viewBox="0 0 448 512"><!-- Font Awesome Pro 6.0.0-alpha1 by @fontawesome - https://fontawesome.com License - https://fontawesome.com/license (Commercial License) --><path d="M384 32H64C29 32 0 61 0 96V416C0 451 29 480 64 480H384C419 480 448 451 448 416V96C448 61 419 32 384 32ZM432 416C432 442 410 464 384 464H64C38 464 16 442 16 416V96C16 70 38 48 64 48H384C410 48 432 70 432 96V416ZM336 208C336 164 300 128 256 128H136C132 128 128 132 128 136V376C128 380 132 384 136 384S144 380 144 376V288H244L322 381C323 383 326 384 328 384C330 384 332 383 333 382C337 379 337 374 334 371L264 287C305 283 336 249 336 208ZM256 272H144V144H256C291 144 320 173 320 208S291 272 256 272Z"/></svg>