<svg xmlns="http://www.w3.org/2000/svg" viewBox="0 0 512 512"><!-- Font Awesome Pro 6.0.0-alpha1 by @fontawesome - https://fontawesome.com License - https://fontawesome.com/license (Commercial License) --><path d="M432 0H356C325 0 298 17 284 44L268 76C264 84 268 94 275 98L333 126C335 127 337 128 340 128C346 128 351 125 354 119L366 96H416V172L259 217C230 225 204 240 183 261L156 288H112C103 288 96 295 96 304V348L7 437C-2 446 -2 462 7 471L41 505C46 510 52 512 58 512S70 510 75 505L250 329C260 320 272 313 285 309L370 285L402 303C405 305 407 306 410 306C416 306 421 303 424 298L443 264L454 261C488 251 512 220 512 184V80C512 36 476 0 432 0ZM496 184C496 212 477 238 450 245L433 250L410 290L372 267L281 294C265 298 251 306 239 318L64 494C61 497 55 497 52 494L18 460C15 457 15 452 18 448L112 355L112 304H163L194 273C213 254 237 240 263 232L420 187C427 185 432 179 432 172V96C432 87 425 80 416 80H366C360 80 354 83 351 89L340 112L283 83L299 51C309 30 332 16 356 16H432C467 16 496 45 496 80V184Z"/></svg>