<svg xmlns="http://www.w3.org/2000/svg" viewBox="0 0 512 512"><!-- Font Awesome Pro 6.0.0-alpha1 by @fontawesome - https://fontawesome.com License - https://fontawesome.com/license (Commercial License) --><path d="M472 440C468 440 464 444 464 448V472C464 485 453 496 440 496H72C59 496 48 485 48 472V448C48 444 44 440 40 440S32 444 32 448V472C32 494 50 512 72 512H440C462 512 480 494 480 472V448C480 444 476 440 472 440ZM416 256H350C333 256 320 243 320 226V217C320 190 329 164 341 140C351 122 354 101 350 78C343 40 312 8 273 1C267 0 262 0 256 0C203 0 160 43 160 96C160 110 163 123 169 136C182 165 192 195 192 227C192 243 178 256 162 256H96C43 256 0 299 0 352V384C0 402 14 416 32 416H480C498 416 512 402 512 384V352C512 299 469 256 416 256ZM496 384C496 393 489 400 480 400H32C23 400 16 393 16 384V352C16 308 52 272 96 272H162C187 272 208 252 208 227C208 197 200 166 183 129C178 118 176 107 176 96C176 75 184 55 199 39C215 24 235 16 256 16C261 16 266 16 270 17C302 23 329 49 335 81C338 99 335 117 327 132C312 162 304 190 304 217V226C304 252 324 272 350 272H416C460 272 496 308 496 352V384Z"/></svg>