<svg xmlns="http://www.w3.org/2000/svg" viewBox="0 0 512 512"><!-- Font Awesome Pro 6.0.0-alpha1 by @fontawesome - https://fontawesome.com License - https://fontawesome.com/license (Commercial License) --><path d="M440 256L489 177C498 164 498 148 491 134C483 120 469 112 454 112H350L292 20C284 7 271 0 256 0S228 7 221 20C221 20 221 20 221 20L163 112H58C43 112 29 120 21 134C14 148 14 164 23 177L72 256L23 335C14 348 14 364 21 378C29 392 43 400 58 400H163L221 492C228 505 242 512 256 512S284 505 292 492C292 492 292 492 292 492L350 400H454C469 400 483 392 491 378C498 364 498 348 489 335L440 256ZM454 128C464 128 472 133 477 142C481 150 481 160 476 169L431 241L360 128H454ZM421 256L341 384H171L91 256L171 128H341L421 256ZM234 28C244 13 268 13 278 28L331 112H181L234 28ZM36 169C31 160 31 150 35 142C40 133 49 128 58 128H153L82 241L36 169ZM58 384C49 384 40 379 35 370C31 362 31 352 36 343L82 271L153 384H58ZM278 484C268 499 244 499 234 484L181 400H331L278 484ZM477 370C472 379 463 384 454 384H360L431 271L476 343C481 352 481 362 477 370Z"/></svg>