<svg xmlns="http://www.w3.org/2000/svg" viewBox="0 0 512 512"><!-- Font Awesome Pro 6.0.0-alpha1 by @fontawesome - https://fontawesome.com License - https://fontawesome.com/license (Commercial License) --><path d="M494 232L322 190L280 18C277 7 267 0 256 0S235 7 232 18L190 190L18 232C7 235 0 245 0 256S7 277 18 280L190 322L232 494C235 505 245 512 256 512S277 505 279 494L322 322L494 280C505 277 512 267 512 256S505 235 494 232ZM490 264L318 307L309 309L307 319L264 490C263 494 260 496 256 496C252 496 249 494 248 490L205 319L203 309L193 307L22 264C18 263 16 260 16 256C16 252 18 249 22 248L193 205L203 203L205 193L248 22C249 18 252 16 256 16C260 16 263 18 264 22L307 193L309 203L319 205L490 248C494 249 496 252 496 256S494 263 490 264ZM146 158C148 159 150 160 152 160S156 159 158 158C161 155 161 149 158 146L78 66C75 63 69 63 66 66S63 75 66 78L146 158ZM360 160C362 160 364 159 366 158L446 78C449 75 449 69 446 66S437 63 434 66L354 146C351 149 351 155 354 158C356 159 358 160 360 160ZM366 354C363 351 357 351 354 354S351 363 354 366L434 446C436 447 438 448 440 448S444 447 446 446C449 443 449 437 446 434L366 354ZM146 354L66 434C63 437 63 443 66 446C68 447 70 448 72 448S76 447 78 446L158 366C161 363 161 357 158 354S149 351 146 354Z"/></svg>