<svg xmlns="http://www.w3.org/2000/svg" viewBox="0 0 576 512"><!-- Font Awesome Pro 6.0.0-alpha1 by @fontawesome - https://fontawesome.com License - https://fontawesome.com/license (Commercial License) --><path d="M112 160C121 160 128 153 128 144S121 128 112 128S96 135 96 144S103 160 112 160ZM112 352C103 352 96 359 96 368S103 384 112 384S128 377 128 368S121 352 112 352ZM64 240C55 240 48 247 48 256S55 272 64 272S80 265 80 256S73 240 64 240ZM560 240C569 240 576 233 576 224V166C576 153 568 141 555 136L311 48C284 37 254 32 224 32C224 32 224 32 224 32C224 32 224 32 224 32V32C69 32 -2 173 0 256C-2 337 68 480 224 480V480C224 480 224 480 224 480C224 480 224 480 224 480C254 480 284 475 311 464L322 461L336 479C343 490 355 496 368 496H424C446 496 464 478 464 456C464 439 453 424 437 419L555 376C568 371 576 359 576 346V288C576 279 569 272 560 272H448V240H560ZM224 464C109 464 16 371 16 256S109 48 224 48S432 141 432 256C432 311 410 361 375 398L311 308L307 303C315 289 320 273 320 256C320 203 277 160 224 160S128 203 128 256S171 352 224 352C230 352 237 351 243 350L246 355L311 445C284 457 255 464 224 464ZM304 256C304 300 268 336 224 336S144 300 144 256S180 176 224 176S304 212 304 256ZM448 456C448 469 437 480 424 480H368C360 480 353 476 349 470L259 345C274 339 287 329 298 317L380 432H424C437 432 448 443 448 456ZM560 288V346C560 352 556 358 550 361L397 416H388L385 411C416 378 439 336 445 288H560ZM445 224C438 169 410 120 369 86L550 151C556 154 560 160 560 166V224H445Z"/></svg>