<svg xmlns="http://www.w3.org/2000/svg" viewBox="0 0 576 512"><!-- Font Awesome Pro 6.0.0-alpha1 by @fontawesome - https://fontawesome.com License - https://fontawesome.com/license (Commercial License) --><path d="M554 194C550 183 541 176 530 176H363L312 18C309 7 299 0 288 0S267 7 263 18L212 176H46C34 176 25 183 21 194C18 204 21 216 31 222L165 320L114 478C111 486 112 495 117 501C125 512 142 515 153 507L288 409L422 507C427 510 432 512 437 512C445 512 453 508 458 501C463 495 464 486 462 478L410 320L545 222C554 216 557 204 554 194ZM288 16H288C288 16 288 16 288 16ZM144 494C136 499 126 492 129 483L184 314L40 209C32 204 36 192 46 192H224L279 23C279 22 279 22 280 21V395L144 494ZM535 209L391 314L446 483C449 493 439 499 432 494L296 395V21C296 22 297 22 297 23L352 192H530C539 192 543 204 535 209Z"/></svg>