<svg xmlns="http://www.w3.org/2000/svg" viewBox="0 0 512 512"><!-- Font Awesome Pro 6.0.0-alpha1 by @fontawesome - https://fontawesome.com License - https://fontawesome.com/license (Commercial License) --><path d="M364 267L259 252L213 157C208 148 200 144 192 144C184 144 176 148 171 157L124 252L20 267C1 270 -7 293 7 307L83 381L65 485C62 500 74 512 88 512C91 512 95 511 98 509L192 460L286 509C289 511 293 512 296 512C301 512 306 510 310 508C317 502 321 494 319 485L301 381L377 307C391 293 383 270 364 267ZM366 295L284 375L303 488C304 493 298 498 293 495L192 442L91 495C86 498 80 493 81 488L100 375L18 295C14 291 16 284 22 283L135 267L186 164C187 161 190 160 192 160L198 164L249 267L362 283C368 284 370 291 366 295ZM264 88H328V152C328 156 332 160 336 160S344 156 344 152V88H408C412 88 416 84 416 80S412 72 408 72H344V8C344 4 340 0 336 0S328 4 328 8V72H264C260 72 256 76 256 80S260 88 264 88ZM504 216H456V168C456 164 452 160 448 160S440 164 440 168V216H392C388 216 384 220 384 224S388 232 392 232H440V280C440 284 444 288 448 288S456 284 456 280V232H504C508 232 512 228 512 224S508 216 504 216Z"/></svg>