<svg xmlns="http://www.w3.org/2000/svg" viewBox="0 0 576 512"><!-- Font Awesome Pro 6.0.0-alpha1 by @fontawesome - https://fontawesome.com License - https://fontawesome.com/license (Commercial License) --><path d="M551 194C548 185 540 179 531 177L378 155L310 14C306 5 297 0 288 0C278 0 270 5 266 14L198 154L45 177C35 178 28 185 25 194C22 203 25 212 31 219L142 328L116 483C115 491 117 498 121 503C126 509 133 512 140 512C144 512 148 511 151 509L288 436L425 509C435 514 448 512 455 503C459 498 461 491 460 483L434 328L545 219C551 212 554 203 551 194ZM144 495C139 498 130 494 132 486L159 323L43 208C38 203 39 194 47 193L208 169L280 22V422L144 495ZM533 208L417 323L444 486C446 494 437 498 432 495L296 422V22L368 169L529 193C536 194 538 203 533 208Z"/></svg>