<svg xmlns="http://www.w3.org/2000/svg" viewBox="0 0 512 512"><!-- Font Awesome Pro 6.0.0-alpha1 by @fontawesome - https://fontawesome.com License - https://fontawesome.com/license (Commercial License) --><path d="M364 267L259 252L213 157C208 148 200 144 192 144C184 144 176 148 171 157L124 252L20 267C1 270 -7 293 7 307L83 381L65 485C62 500 74 512 88 512C91 512 95 511 98 509L192 460L286 509C289 511 293 512 296 512C301 512 306 510 310 508C317 502 321 494 319 485L301 381L377 307C391 293 383 270 364 267ZM366 295L290 369L284 375L285 383L303 488C304 490 303 493 301 495C299 495 298 496 296 496C295 496 294 496 293 495L199 446L192 442L185 446L91 495C90 496 89 496 88 496C86 496 84 495 82 493C81 492 80 490 81 488L99 383L100 375L94 369L18 295C15 292 16 289 16 288C17 287 18 284 22 283L127 268L135 267L139 259L186 164C187 161 190 160 192 160C193 160 197 160 198 164L245 259L249 267L257 268L362 283C366 284 367 287 368 288C368 290 369 292 366 295ZM232 96C234 96 236 95 238 94L318 14C321 11 321 5 318 2S309 -1 306 2L226 82C223 85 223 91 226 94C228 95 230 96 232 96ZM498 194L418 274C415 277 415 283 418 286C420 287 422 288 424 288S428 287 430 286L510 206C513 203 513 197 510 194S501 191 498 194ZM322 190C324 191 326 192 328 192S332 191 334 190L510 14C513 11 513 5 510 2S501 -1 498 2L322 178C319 181 319 187 322 190Z"/></svg>