<svg xmlns="http://www.w3.org/2000/svg" viewBox="0 0 512 512"><!-- Font Awesome Pro 6.0.0-alpha1 by @fontawesome - https://fontawesome.com License - https://fontawesome.com/license (Commercial License) --><path d="M503 214L427 203L393 134C391 130 387 128 384 128S377 130 375 134L341 203L265 214C256 215 253 225 259 231L314 285L301 361C300 367 305 373 311 373C313 373 314 372 316 371L384 335L452 371C454 372 455 372 457 372C463 372 468 367 467 361L454 285L509 231C515 225 512 215 503 214ZM437 279L449 351L384 317L319 351L331 279L279 228L352 217L384 152L417 217L489 228L437 279ZM341 466C339 466 334 467 331 467C215 467 121 372 121 256S215 45 331 45C334 45 339 46 341 46C348 46 354 41 355 34C357 26 353 19 346 17C317 6 286 0 256 0C115 0 0 115 0 256S115 512 256 512C286 512 316 506 345 496C351 494 356 488 356 481C356 473 349 466 341 466ZM256 496C124 496 16 388 16 256S124 16 256 16C282 16 309 20 334 29C333 29 332 29 331 29C206 29 105 131 105 256S206 483 331 483C332 483 333 483 334 483C308 492 282 496 256 496Z"/></svg>