<svg xmlns="http://www.w3.org/2000/svg" viewBox="0 0 320 512"><!-- Font Awesome Pro 6.0.0-alpha1 by @fontawesome - https://fontawesome.com License - https://fontawesome.com/license (Commercial License) --><path d="M320 472C320 476 316 480 312 480H8C5 480 2 478 1 475S0 469 2 467C52 411 80 340 80 265V256H8C4 256 0 252 0 248S4 240 8 240H80V129C80 76 124 32 177 32C188 32 198 34 208 37L291 64C295 66 297 70 296 74C294 79 290 81 285 80L203 52C195 49 186 48 177 48C133 48 96 85 96 129V240H248C252 240 256 244 256 248S252 256 248 256H96V265C96 338 71 408 25 464H312C316 464 320 468 320 472Z"/></svg>