<svg xmlns="http://www.w3.org/2000/svg" viewBox="0 0 576 512"><!-- Font Awesome Pro 6.0.0-alpha1 by @fontawesome - https://fontawesome.com License - https://fontawesome.com/license (Commercial License) --><path d="M528 192C528 157 499 128 464 128C429 128 400 157 400 192C400 225 425 251 456 255C456 256 456 256 456 256V360C456 435 395 496 320 496S184 435 184 360V336C184 336 184 336 184 335C259 331 320 269 320 192V55C320 38 309 23 293 17L243 0C238 -1 234 1 232 5S233 14 237 16L288 32C297 36 304 45 304 55V192C304 263 247 320 176 320S48 263 48 192V55C48 45 55 36 64 32L115 16C119 14 121 10 120 5S114 -1 109 0L59 17C43 23 32 38 32 55V192C32 269 93 331 168 335C168 336 168 336 168 336V360C168 444 236 512 320 512S472 444 472 360V256C472 256 472 256 472 255C503 251 528 225 528 192ZM464 240C438 240 416 218 416 192S438 144 464 144S512 166 512 192S490 240 464 240Z"/></svg>