<svg xmlns="http://www.w3.org/2000/svg" viewBox="0 0 384 512"><!-- Font Awesome Pro 6.0.0-alpha1 by @fontawesome - https://fontawesome.com License - https://fontawesome.com/license (Commercial License) --><path d="M344 144C339 144 336 148 336 152V304C336 353 312 398 272 425L194 477C175 489 153 496 130 496C92 496 56 477 35 445C0 393 14 322 66 287L112 260V152C112 148 108 144 104 144S96 148 96 152V251L58 273C-2 313 -18 394 22 454C46 490 87 512 130 512C156 512 181 504 202 490L280 438C325 408 352 358 352 304V152C352 148 348 144 344 144ZM352 0H96C78 0 64 14 64 32V80C64 98 78 112 96 112H352C370 112 384 98 384 80V32C384 14 370 0 352 0ZM368 80C368 89 361 96 352 96H96C87 96 80 89 80 80V32C80 23 87 16 96 16H352C361 16 368 23 368 32V80Z"/></svg>