<svg xmlns="http://www.w3.org/2000/svg" viewBox="0 0 448 512"><!-- Font Awesome Pro 6.0.0-alpha1 by @fontawesome - https://fontawesome.com License - https://fontawesome.com/license (Commercial License) --><path d="M384 171L422 134C425 131 425 125 422 122S413 119 410 122L373 159C337 122 287 98 232 96V16H288C292 16 296 12 296 8S292 0 288 0H160C156 0 152 4 152 8S156 16 160 16H216V96C105 101 16 192 16 304C16 419 109 512 224 512S432 419 432 304C432 254 414 207 384 171ZM224 496C118 496 32 410 32 304S118 112 224 112S416 198 416 304S330 496 224 496ZM197 274C204 264 208 252 208 240C208 214 186 192 160 192S112 214 112 240V248C112 252 116 256 120 256S128 252 128 248V240C128 222 142 208 160 208S192 222 192 240C192 249 189 257 184 264L143 317C123 343 112 375 112 408C112 412 116 416 120 416H200C204 416 208 412 208 408S204 400 200 400H128C130 374 139 348 156 327L197 274ZM288 192C262 192 240 214 240 240V368C240 394 262 416 288 416S336 394 336 368V240C336 214 314 192 288 192ZM320 368C320 386 306 400 288 400S256 386 256 368V240C256 222 270 208 288 208S320 222 320 240V368Z"/></svg>