<svg xmlns="http://www.w3.org/2000/svg" viewBox="0 0 576 512"><!-- Font Awesome Pro 6.0.0-alpha1 by @fontawesome - https://fontawesome.com License - https://fontawesome.com/license (Commercial License) --><path d="M440 248C436 248 432 252 432 256V368H144V256C144 252 140 248 136 248S128 252 128 256V376C128 380 132 384 136 384H440C444 384 448 380 448 376V256C448 252 444 248 440 248ZM548 104L490 13C485 5 476 0 466 0H110C100 0 91 5 86 13L28 104C14 127 12 156 24 181C32 199 46 212 64 219V464C64 490 86 512 112 512H464C490 512 512 490 512 464V219C530 212 544 199 552 181C564 156 562 127 548 104ZM496 464C496 482 482 496 464 496H112C94 496 80 482 80 464V223C80 223 80 223 80 223C84 224 88 224 92 224C117 224 141 213 158 195C174 213 198 224 223 224C247 224 271 213 288 195C305 213 328 224 353 224C378 224 402 213 418 195C435 213 459 224 483 224C488 224 492 224 495 223C496 223 496 223 496 223V464ZM538 174C529 193 513 205 493 207C490 208 487 208 483 208C463 208 444 199 430 184L418 171L406 184C393 199 373 208 353 208C333 208 313 199 300 184L288 171L276 184C262 199 243 208 223 208C202 208 183 199 169 184L158 171L146 184C132 199 113 208 92 208C89 208 86 208 82 207C63 205 47 193 38 174C29 154 30 131 42 112L99 22C101 18 105 16 110 16H466C471 16 475 18 477 22L534 112C546 131 547 154 538 174Z"/></svg>