<svg xmlns="http://www.w3.org/2000/svg" viewBox="0 0 512 512"><!-- Font Awesome Pro 6.0.0-alpha1 by @fontawesome - https://fontawesome.com License - https://fontawesome.com/license (Commercial License) --><path d="M177 203C180 200 180 194 177 191C160 176 150 154 151 130C152 100 169 73 196 59C210 52 226 48 243 48H291C331 48 369 69 390 103C392 107 397 108 401 106C405 103 405 98 403 94C379 56 337 32 291 32H243C224 32 205 36 188 45C155 61 135 95 135 133C135 160 146 185 166 203C169 206 174 206 177 203ZM392 336H392C386 336 382 342 385 347C392 363 394 380 390 398C385 423 367 444 342 455C329 461 314 464 300 464H234C199 464 168 443 154 411C153 408 149 406 145 406C140 407 137 413 139 417C155 455 192 480 234 480H300C317 480 334 476 349 470C380 456 403 427 407 394C410 375 407 357 399 341C398 338 395 336 392 336ZM504 264H8C4 264 0 268 0 272S4 280 8 280H504C508 280 512 276 512 272S508 264 504 264Z"/></svg>