<svg xmlns="http://www.w3.org/2000/svg" viewBox="0 0 512 512"><!-- Font Awesome Pro 6.0.0-alpha1 by @fontawesome - https://fontawesome.com License - https://fontawesome.com/license (Commercial License) --><path d="M256 16C123 16 16 123 16 256S123 496 256 496S496 389 496 256S389 16 256 16ZM256 480C132 480 32 380 32 256S132 32 256 32S480 132 480 256S380 480 256 480ZM395 256L422 230C425 227 425 221 422 218S413 215 410 218L384 245L331 192L390 134C393 131 393 125 390 122S381 119 378 122L320 181L267 128L294 102C297 99 297 93 294 90S285 87 282 90L256 117L230 90C227 87 221 87 218 90S215 99 218 102L245 128L192 181L134 122C131 119 125 119 122 122S119 131 122 134L181 192L128 245L102 218C99 215 93 215 90 218S87 227 90 230L117 256L90 282C87 285 87 291 90 294C92 295 94 296 96 296S100 295 102 294L128 267L181 320L122 378C119 381 119 387 122 390C124 391 126 392 128 392S132 391 134 390L192 331L245 384L218 410C215 413 215 419 218 422C220 423 222 424 224 424S228 423 230 422L256 395L282 422C284 423 286 424 288 424S292 423 294 422C297 419 297 413 294 410L267 384L320 331L378 390C380 391 382 392 384 392S388 391 390 390C393 387 393 381 390 378L331 320L384 267L410 294C412 295 414 296 416 296S420 295 422 294C425 291 425 285 422 282L395 256ZM256 139L309 192L256 245L203 192L256 139ZM139 256L192 203L245 256L192 309L139 256ZM256 373L203 320L256 267L309 320L256 373ZM320 309L267 256L320 203L373 256L320 309Z"/></svg>