<svg xmlns="http://www.w3.org/2000/svg" viewBox="0 0 448 512"><!-- Font Awesome Pro 6.0.0-alpha1 by @fontawesome - https://fontawesome.com License - https://fontawesome.com/license (Commercial License) --><path d="M368 128H320V40C320 18 302 0 280 0H168C146 0 128 18 128 40V128H80C54 128 32 150 32 176V432C32 458 54 480 80 480H96C96 498 110 512 128 512S160 498 160 480H288C288 498 302 512 320 512S352 498 352 480H368C394 480 416 458 416 432V176C416 150 394 128 368 128ZM144 40C144 27 155 16 168 16H280C293 16 304 27 304 40V128H144V40ZM128 496C119 496 112 489 112 480H144C144 489 137 496 128 496ZM320 496C311 496 304 489 304 480H336C336 489 329 496 320 496ZM400 432C400 450 386 464 368 464H80C62 464 48 450 48 432V176C48 158 62 144 80 144H368C386 144 400 158 400 176V432ZM344 352H104C100 352 96 356 96 360S100 368 104 368H344C348 368 352 364 352 360S348 352 344 352ZM344 224H104C100 224 96 228 96 232S100 240 104 240H344C348 240 352 236 352 232S348 224 344 224Z"/></svg>