<svg xmlns="http://www.w3.org/2000/svg" viewBox="0 0 640 512"><!-- Font Awesome Pro 6.0.0-alpha1 by @fontawesome - https://fontawesome.com License - https://fontawesome.com/license (Commercial License) --><path d="M571 219C563 219 554 220 546 223C538 187 505 160 465 160C427 160 394 184 384 219C348 221 320 250 320 285C320 322 351 352 389 352H571C609 352 640 322 640 285C640 249 609 219 571 219ZM571 336H389C360 336 336 313 336 285S360 235 388 235C392 236 397 233 398 228C404 198 432 176 465 176C500 176 529 202 532 236C532 239 534 241 536 242C539 243 542 243 544 242C553 237 562 235 571 235C600 235 624 257 624 285S600 336 571 336ZM388 378C383 378 379 380 378 385L359 490C359 494 356 495 355 495C354 496 351 497 349 495L261 434C258 432 254 432 251 434L163 495C161 497 158 496 157 495C156 495 153 494 153 490L134 385C133 382 130 379 127 378L22 359C18 359 17 356 17 355S15 351 17 349L78 261C80 258 80 254 78 251L17 163C15 161 16 158 17 157S18 153 22 153L127 134C130 133 133 130 134 127L153 22C153 18 156 17 157 17C158 16 161 15 163 17L251 78C254 80 258 80 261 78L349 17C351 15 354 16 355 17C356 17 359 18 359 22L378 127C379 132 383 134 388 134C392 133 395 129 394 124L375 19C374 11 369 5 361 2C354 -1 346 0 340 4L256 62L172 4C166 0 158 -1 151 2C143 5 138 11 137 19L119 119L19 137C11 138 5 143 2 151S0 166 4 172L62 256L4 340C0 346 -1 354 2 361S11 374 19 375L119 393L137 493C138 501 143 507 151 510C154 511 156 512 159 512C164 512 169 511 172 508L256 450L340 508C346 512 354 513 361 510C369 507 374 501 375 493L394 388C395 383 392 379 388 378ZM256 160C286 160 313 173 332 197C334 200 339 201 343 198C346 196 347 191 344 187C323 160 291 144 256 144C194 144 144 194 144 256S194 368 256 368C271 368 285 365 299 359C303 358 305 353 303 349S297 343 293 345C281 350 269 352 256 352C203 352 160 309 160 256S203 160 256 160Z"/></svg>