<svg xmlns="http://www.w3.org/2000/svg" viewBox="0 0 512 512"><!-- Font Awesome Pro 6.0.0-alpha1 by @fontawesome - https://fontawesome.com License - https://fontawesome.com/license (Commercial License) --><path d="M160 464C151 464 144 471 144 480S151 496 160 496S176 489 176 480S169 464 160 464ZM480 176C489 176 496 169 496 160S489 144 480 144S464 151 464 160S471 176 480 176ZM320 304C311 304 304 311 304 320S311 336 320 336S336 329 336 320S329 304 320 304ZM400 224C391 224 384 231 384 240S391 256 400 256S416 249 416 240S409 224 400 224ZM240 384C231 384 224 391 224 400S231 416 240 416S256 409 256 400S249 384 240 384ZM480 464C471 464 464 471 464 480S471 496 480 496S496 489 496 480S489 464 480 464ZM400 384C391 384 384 391 384 400S391 416 400 416S416 409 416 400S409 384 400 384ZM320 464C311 464 304 471 304 480S311 496 320 496S336 489 336 480S329 464 320 464ZM480 304C471 304 464 311 464 320S471 336 480 336S496 329 496 320S489 304 480 304ZM394 124L375 19C374 11 369 5 361 2C354 -1 346 0 340 4L256 62L172 4C166 0 158 -1 151 2C143 5 138 11 137 19L119 119L19 137C11 138 5 143 2 151S0 166 4 172L62 256L4 340C0 346 -1 354 2 361S11 374 19 375L124 394C125 394 125 394 126 394C130 394 133 392 134 388C134 383 132 379 127 378L22 359C18 359 17 356 17 355S15 351 17 349L78 261C80 258 80 254 78 251L17 163C15 161 16 158 17 157S18 153 22 153L127 134C130 133 133 130 134 127L153 22C153 18 156 17 157 17C158 16 161 15 163 17L251 78C254 80 258 80 261 78L349 17C351 15 354 16 355 17C356 17 359 18 359 22L378 127C379 132 383 134 388 134C392 133 395 129 394 124ZM256 144C226 144 198 156 177 177C133 220 133 292 177 335C178 337 180 338 182 338S187 337 188 335C191 332 191 327 188 324C151 286 151 226 188 188C206 170 230 160 256 160S306 170 324 188C327 191 332 191 335 188S338 180 335 177C314 156 286 144 256 144Z"/></svg>