<svg xmlns="http://www.w3.org/2000/svg" viewBox="0 0 512 512"><!-- Font Awesome Pro 6.0.0-alpha1 by @fontawesome - https://fontawesome.com License - https://fontawesome.com/license (Commercial License) --><path d="M96 384C78 384 64 398 64 416C64 434 78 448 96 448S128 434 128 416C128 398 114 384 96 384ZM96 432C87 432 80 425 80 416S87 400 96 400S112 407 112 416S105 432 96 432ZM128 48H64C55 48 48 55 48 64V128C48 137 55 144 64 144H128C137 144 144 137 144 128V64C144 55 137 48 128 48ZM128 128H64V64H128V128ZM192 32C192 14 178 0 160 0H32C14 0 0 14 0 32V416C0 469 43 512 96 512S192 469 192 416V32ZM176 416C176 460 140 496 96 496S16 460 16 416V32C16 23 23 16 32 16H160C169 16 176 23 176 32V416ZM128 176H64C55 176 48 183 48 192V256C48 265 55 272 64 272H128C137 272 144 265 144 256V192C144 183 137 176 128 176ZM128 256H64V192H128V256ZM475 320H384C380 320 376 324 376 328S380 336 384 336H475C486 336 496 346 496 357V475C496 486 486 496 475 496H192C188 496 184 500 184 504S188 512 192 512H475C495 512 512 495 512 475V357C512 337 495 320 475 320ZM218 407C215 410 215 415 218 418C220 420 222 420 224 420S228 420 230 418L437 211C444 204 448 194 448 184C448 174 444 165 437 158L354 75C340 61 315 61 301 75L218 158C215 161 215 166 218 169S227 172 230 169L313 86C321 78 335 78 343 86L426 169C430 173 432 179 432 184C432 190 430 195 426 199L218 407Z"/></svg>