<svg xmlns="http://www.w3.org/2000/svg" viewBox="0 0 512 512"><!-- Font Awesome Pro 6.0.0-alpha1 by @fontawesome - https://fontawesome.com License - https://fontawesome.com/license (Commercial License) --><path d="M117 231C108 222 94 222 85 231L67 248C59 256 58 268 64 278L111 347L69 389L47 378C39 374 29 375 22 382L6 398C2 402 0 407 0 413C0 419 2 424 6 428L84 506C88 510 93 512 99 512C105 512 110 510 114 506L130 490C137 483 138 473 134 465L123 443L165 401L234 448C244 454 256 453 264 445L281 427C290 418 290 404 281 395L117 231ZM270 416L252 434C250 436 246 436 243 434L163 381L104 440L120 472C121 474 121 477 119 478L103 494C101 496 98 496 96 494L17 416C17 415 16 414 16 413C16 412 17 410 18 409L34 393C35 392 36 392 37 392C38 392 39 392 40 392L72 408L131 349L77 269C76 266 76 262 78 260L96 242C99 239 103 239 106 242L270 406C273 409 273 413 270 416ZM505 7C500 1 493 -1 486 0L400 15L178 237C175 240 175 245 178 248S187 251 190 248L408 30L489 16C491 16 493 16 494 18C496 19 496 21 496 23L482 104L264 322C261 326 261 331 264 334C266 335 268 336 270 336S274 335 275 334L495 114L497 112L512 26C513 18 510 12 505 7Z"/></svg>