<svg xmlns="http://www.w3.org/2000/svg" viewBox="0 0 512 512"><!-- Font Awesome Pro 6.0.0-alpha1 by @fontawesome - https://fontawesome.com License - https://fontawesome.com/license (Commercial License) --><path d="M503 9C491 -3 472 -3 460 8L227 223C223 226 223 231 226 234C229 237 234 238 237 235L471 20C477 15 486 15 492 20C497 26 497 35 492 41L324 223C321 226 322 232 325 235C326 236 328 237 330 237C332 237 335 236 336 234L504 52C515 40 515 21 503 9ZM297 256H169C163 256 157 258 153 263L11 405C-4 420 -4 444 11 458L53 501C61 508 70 512 80 512S100 508 107 501L313 295C320 289 322 279 318 270C315 262 306 256 297 256ZM22 416L101 337L117 352L22 447C14 438 14 424 22 416ZM33 458L128 363L149 384L54 479L33 458ZM96 490C88 498 74 498 65 490L160 395L175 410L96 490ZM302 284L186 399L113 325L164 274C165 273 167 272 169 272H297C301 272 303 275 303 276C304 277 305 281 302 284Z"/></svg>