<svg xmlns="http://www.w3.org/2000/svg" viewBox="0 0 512 512"><!-- Font Awesome Pro 6.0.0-alpha1 by @fontawesome - https://fontawesome.com License - https://fontawesome.com/license (Commercial License) --><path d="M503 9C491 -3 472 -3 460 8L221 227C218 230 218 235 221 238C224 242 229 242 232 239L470 20C476 15 486 15 491 20C497 26 497 35 492 42L273 280C270 283 270 288 273 291C275 293 277 293 279 293C281 293 283 293 285 291L504 52C515 40 515 21 503 9ZM182 234C178 231 173 231 170 234C167 237 167 242 170 246L177 252L102 327L99 325C96 322 91 322 88 325L11 402C4 409 0 419 0 429C0 440 4 449 11 457L55 501C63 508 72 512 83 512S103 508 110 501L187 424C189 422 189 420 189 418C189 416 189 414 187 413L185 410L260 335L266 342C268 343 270 344 272 344C274 344 276 343 278 342C281 338 281 333 278 330L182 234ZM99 489C90 498 75 498 67 489L23 445C18 441 16 435 16 429C16 423 18 417 23 413L94 342L170 418L99 489ZM174 399L113 338L130 321L191 382L174 399ZM202 371L141 310L159 292L220 353L202 371ZM231 342L170 281L188 263L249 324L231 342Z"/></svg>