<svg xmlns="http://www.w3.org/2000/svg" viewBox="0 0 640 512"><!-- Font Awesome Pro 6.0.0-alpha1 by @fontawesome - https://fontawesome.com License - https://fontawesome.com/license (Commercial License) --><path d="M320 352C276 352 240 388 240 432V504C240 508 244 512 248 512S256 508 256 504V432C256 397 285 368 320 368S384 397 384 432V504C384 508 388 512 392 512S400 508 400 504V432C400 388 364 352 320 352ZM346 9C331 -3 309 -3 294 9L174 110C165 118 160 129 160 141V504C160 508 164 512 168 512S176 508 176 504V141C176 134 179 127 185 123L305 22C313 14 327 14 335 22L455 123C461 127 464 134 464 141V504C464 508 468 512 472 512S480 508 480 504V141C480 129 475 118 466 110L346 9ZM91 200C86 195 78 192 72 192C65 192 58 195 54 201L5 262C2 266 0 271 0 277V504C0 508 4 512 8 512S16 508 16 504V277C16 275 17 273 18 272L66 211C68 208 71 208 72 208C73 208 76 208 79 211L114 252C117 255 122 256 125 253C129 250 129 245 126 242L91 200ZM635 262L586 201C582 195 575 192 568 192C562 192 554 195 549 200L514 242C511 245 511 250 515 253C518 256 523 255 526 252L562 211C564 208 566 208 568 208C570 208 572 208 574 211L622 272C623 273 624 275 624 277V504C624 508 628 512 632 512S640 508 640 504V277C640 271 638 266 635 262ZM249 232C251 234 253 236 256 236H292L313 272C314 274 317 276 320 276S326 274 327 272L347 236H384C387 236 389 234 391 232C392 230 392 226 391 224L373 192L391 160C392 158 392 154 391 152C389 150 387 148 384 148H348L327 112C324 107 316 107 313 112L292 148H256C253 148 251 150 249 152C248 154 248 158 249 160L267 192L249 224C248 227 248 230 249 232ZM320 252L311 236H329L320 252ZM370 164L363 176L357 164H370ZM363 208L370 220H357L363 208ZM320 132L329 148H311L320 132ZM302 164H338L354 192L338 220H302L286 192L302 164ZM283 164L277 176L270 164H283ZM277 208L283 220H270L277 208Z"/></svg>