<svg xmlns="http://www.w3.org/2000/svg" viewBox="0 0 512 512"><!-- Font Awesome Pro 6.0.0-alpha1 by @fontawesome - https://fontawesome.com License - https://fontawesome.com/license (Commercial License) --><path d="M0 80V432C0 458 22 480 48 480H128H144H464C490 480 512 458 512 432V80C512 54 490 32 464 32H144H128H48C22 32 0 54 0 80ZM496 432C496 450 482 464 464 464H144V264H496V432ZM464 48C482 48 496 62 496 80V248H144V48H464ZM128 248V264V464H48C30 464 16 450 16 432V80C16 62 30 48 48 48H128V248Z"/></svg>