<svg xmlns="http://www.w3.org/2000/svg" viewBox="0 0 512 512"><!-- Font Awesome Pro 6.0.0-alpha1 by @fontawesome - https://fontawesome.com License - https://fontawesome.com/license (Commercial License) --><path d="M493 51C482 39 466 32 448 32H64C46 32 30 39 19 51C7 62 0 78 0 96V416C0 434 7 450 19 461C30 473 46 480 64 480H448C466 480 482 473 493 461C505 450 512 434 512 416V96C512 78 505 62 493 51ZM248 464H64C51 464 39 459 30 450C21 441 16 429 16 416V264H248V464ZM248 248H16V96C16 83 21 71 30 62C39 53 51 48 64 48H248V248ZM496 416C496 429 491 441 482 450C473 459 461 464 448 464H264V264H496V416ZM496 248H264V48H448C461 48 473 53 482 62C491 71 496 83 496 96V248Z"/></svg>