<svg xmlns="http://www.w3.org/2000/svg" viewBox="0 0 640 512"><!-- Font Awesome Pro 6.0.0-alpha1 by @fontawesome - https://fontawesome.com License - https://fontawesome.com/license (Commercial License) --><path d="M160 192C72 192 0 264 0 352S72 512 160 512S320 440 320 352S248 192 160 192ZM160 496C83 496 21 436 17 360H303C299 436 237 496 160 496ZM17 344C21 268 83 208 160 208S299 268 303 344H17ZM593 47C531 -16 429 -16 367 47C304 109 304 211 367 273C429 336 531 336 593 273C656 211 656 109 593 47ZM378 262C324 208 323 121 373 64L576 267C519 317 432 316 378 262ZM587 256L384 53C441 3 528 4 582 58C636 112 637 199 587 256Z"/></svg>