<svg xmlns="http://www.w3.org/2000/svg" viewBox="0 0 512 512"><!-- Font Awesome Pro 6.0.0-alpha1 by @fontawesome - https://fontawesome.com License - https://fontawesome.com/license (Commercial License) --><path d="M448 32H64C29 32 0 61 0 96V416C0 451 29 480 64 480H448C483 480 512 451 512 416V96C512 61 483 32 448 32ZM128 464H64C38 464 16 442 16 416V176H128V464ZM128 160H16V96C16 70 38 48 64 48H128V160ZM496 416C496 442 474 464 448 464H144V176H496V416ZM496 160H144V48H448C474 48 496 70 496 96V160ZM306 414C308 415 310 416 312 416S316 415 318 414C321 411 321 405 318 402L291 376H368C390 376 408 358 408 336V259L434 286C436 287 438 288 440 288S444 287 446 286C449 283 449 277 446 274L406 234C406 234 406 234 406 234C404 233 402 232 400 232S396 233 394 234C394 234 394 234 394 234L354 274C351 277 351 283 354 286S363 289 366 286L392 259V336C392 349 381 360 368 360H291L318 334C321 331 321 325 318 322S309 319 306 322L266 362C263 365 263 371 266 374L306 414Z"/></svg>