<svg xmlns="http://www.w3.org/2000/svg" viewBox="0 0 448 512"><!-- Font Awesome Pro 6.0.0-alpha1 by @fontawesome - https://fontawesome.com License - https://fontawesome.com/license (Commercial License) --><path d="M48 512H400C426 512 448 490 448 464V48C448 22 426 0 400 0H48C22 0 0 22 0 48V464C0 490 22 512 48 512ZM16 48C16 30 30 16 48 16H400C418 16 432 30 432 48V464C432 482 418 496 400 496H48C30 496 16 482 16 464V48ZM176 456H272C276 456 280 452 280 448S276 440 272 440H176C172 440 168 444 168 448S172 456 176 456Z"/></svg>