<svg xmlns="http://www.w3.org/2000/svg" viewBox="0 0 448 512"><!-- Font Awesome Pro 6.0.0-alpha1 by @fontawesome - https://fontawesome.com License - https://fontawesome.com/license (Commercial License) --><path d="M400 0H48C22 0 0 22 0 48V464C0 490 22 512 48 512H400C426 512 448 490 448 464V48C448 22 426 0 400 0ZM432 464C432 482 418 496 400 496H48C30 496 16 482 16 464V368H432V464ZM432 352H16V48C16 30 30 16 48 16H400C418 16 432 30 432 48V352ZM224 464C242 464 256 450 256 432S242 400 224 400C206 400 192 414 192 432S206 464 224 464ZM224 416C233 416 240 423 240 432S233 448 224 448S208 441 208 432S215 416 224 416Z"/></svg>