<svg xmlns="http://www.w3.org/2000/svg" viewBox="0 0 576 512"><!-- Font Awesome Pro 6.0.0-alpha1 by @fontawesome - https://fontawesome.com License - https://fontawesome.com/license (Commercial License) --><path d="M480 32H96C61 32 32 61 32 96V416C32 451 61 480 96 480H480C515 480 544 451 544 416V96C544 61 515 32 480 32ZM280 464H96C70 464 48 442 48 416V304H280V464ZM280 288H48V160H280V288ZM528 416C528 442 506 464 480 464H296V304H528V416ZM528 288H296V160H528V288ZM528 144H48V96C48 70 70 48 96 48H480C506 48 528 70 528 96V144Z"/></svg>