<svg xmlns="http://www.w3.org/2000/svg" viewBox="0 0 576 512"><!-- Font Awesome Pro 6.0.0-alpha1 by @fontawesome - https://fontawesome.com License - https://fontawesome.com/license (Commercial License) --><path d="M496 32H80C54 32 32 54 32 80V160V176V432C32 458 54 480 80 480H496C522 480 544 458 544 432V176V160V80C544 54 522 32 496 32ZM80 464C62 464 48 450 48 432V176H280V464H80ZM528 432C528 450 514 464 496 464H296V176H528V432ZM296 160H280H48V80C48 62 62 48 80 48H496C514 48 528 62 528 80V160H296Z"/></svg>