<svg xmlns="http://www.w3.org/2000/svg" viewBox="0 0 640 512"><!-- Font Awesome Pro 6.0.0-alpha1 by @fontawesome - https://fontawesome.com License - https://fontawesome.com/license (Commercial License) --><path d="M576 64H64C29 64 0 93 0 128V384C0 419 29 448 64 448H576C611 448 640 419 640 384V128C640 93 611 64 576 64ZM624 384C624 410 602 432 576 432H64C38 432 16 410 16 384V128C16 102 38 80 64 80H576C602 80 624 102 624 128V384ZM72 320H88C92 320 96 316 96 312V296C96 292 92 288 88 288H72C68 288 64 292 64 296V312C64 316 68 320 72 320ZM152 320C156 320 160 316 160 312V296C160 292 156 288 152 288H136C132 288 128 292 128 296V312C128 316 132 320 136 320H152ZM216 320C220 320 224 316 224 312V296C224 292 220 288 216 288H200C196 288 192 292 192 296V312C192 316 196 320 200 320H216ZM280 320C284 320 288 316 288 312V296C288 292 284 288 280 288H264C260 288 256 292 256 296V312C256 316 260 320 264 320H280ZM344 288H328C324 288 320 292 320 296V312C320 316 324 320 328 320H344C348 320 352 316 352 312V296C352 292 348 288 344 288ZM320 128H96C78 128 64 142 64 160V224C64 242 78 256 96 256H320C338 256 352 242 352 224V160C352 142 338 128 320 128ZM336 224C336 233 329 240 320 240H96C87 240 80 233 80 224V160C80 151 87 144 96 144H320C329 144 336 151 336 160V224ZM344 368H72C68 368 64 372 64 376S68 384 72 384H344C348 384 352 380 352 376S348 368 344 368ZM568 368H392C388 368 384 372 384 376S388 384 392 384H568C572 384 576 380 576 376S572 368 568 368Z"/></svg>