<svg xmlns="http://www.w3.org/2000/svg" viewBox="0 0 448 512"><!-- Font Awesome Pro 6.0.0-alpha1 by @fontawesome - https://fontawesome.com License - https://fontawesome.com/license (Commercial License) --><path d="M32 32C28 32 24 36 24 40V472C24 476 28 480 32 480S40 476 40 472V40C40 36 36 32 32 32ZM288 32C284 32 280 36 280 40V472C280 476 284 480 288 480S296 476 296 472V40C296 36 292 32 288 32ZM160 32C156 32 152 36 152 40V472C152 476 156 480 160 480S168 476 168 472V40C168 36 164 32 160 32Z"/></svg>