<svg xmlns="http://www.w3.org/2000/svg" viewBox="0 0 512 512"><!-- Font Awesome Pro 6.0.0-alpha1 by @fontawesome - https://fontawesome.com License - https://fontawesome.com/license (Commercial License) --><path d="M455 228L419 116C409 85 382 64 351 64H352V40C352 18 334 0 312 0H200C178 0 160 18 160 40V64H161C130 64 103 85 93 116L57 228C24 238 0 268 0 304V504C0 508 4 512 8 512S16 508 16 504V432H496V504C496 508 500 512 504 512S512 508 512 504V304C512 268 488 238 455 228ZM176 40C176 27 187 16 200 16H312C325 16 336 27 336 40V64H176V40ZM108 120C116 96 137 80 161 80H351C375 80 396 96 404 120L437 225C435 224 434 224 432 224H80C78 224 77 224 75 225L108 120ZM496 416H16V304C16 269 45 240 80 240H432C467 240 496 269 496 304V416ZM104 288C82 288 64 306 64 328C64 350 82 368 104 368S144 350 144 328C144 306 126 288 104 288ZM104 352C91 352 80 341 80 328C80 315 91 304 104 304S128 315 128 328C128 341 117 352 104 352ZM408 288C386 288 368 306 368 328C368 350 386 368 408 368S448 350 448 328C448 306 430 288 408 288ZM408 352C395 352 384 341 384 328C384 315 395 304 408 304S432 315 432 328C432 341 421 352 408 352Z"/></svg>