<svg xmlns="http://www.w3.org/2000/svg" viewBox="0 0 576 512"><!-- Font Awesome Pro 6.0.0-alpha1 by @fontawesome - https://fontawesome.com License - https://fontawesome.com/license (Commercial License) --><path d="M512 288H64C29 288 0 317 0 352V384C0 437 43 480 96 480H480C533 480 576 437 576 384V352C576 317 547 288 512 288ZM416 328C416 315 427 304 440 304H488C501 304 512 315 512 328V344C512 366 494 384 472 384H456C434 384 416 366 416 344V328ZM296 328C296 315 307 304 320 304H376C389 304 400 315 400 328V344C400 366 382 384 360 384H336C314 384 296 366 296 344V328ZM176 328C176 315 187 304 200 304H256C269 304 280 315 280 328V344C280 366 262 384 240 384H216C194 384 176 366 176 344V328ZM64 328C64 315 75 304 88 304H136C149 304 160 315 160 328V344C160 366 142 384 120 384H104C82 384 64 366 64 344V328ZM560 384C560 428 524 464 480 464H96C52 464 16 428 16 384V352C16 328 34 308 56 305C51 311 48 319 48 328V344C48 375 73 400 104 400H120C140 400 158 389 168 372C178 389 196 400 216 400H240C260 400 278 389 288 372C298 389 316 400 336 400H360C380 400 398 389 408 372C418 389 436 400 456 400H472C503 400 528 375 528 344V328C528 319 525 311 520 305C542 308 560 328 560 352V384ZM480 32H96C43 32 0 75 0 128V192C0 227 29 256 64 256H512C547 256 576 227 576 192V128C576 75 533 32 480 32ZM160 216C160 229 149 240 136 240H88C75 240 64 229 64 216V192C64 170 82 152 104 152H120C142 152 160 170 160 192V216ZM280 216C280 229 269 240 256 240H200C187 240 176 229 176 216V156C176 127 199 104 228 104S280 127 280 156V216ZM400 216C400 229 389 240 376 240H320C307 240 296 229 296 216V156C296 127 319 104 348 104S400 127 400 156V216ZM512 216C512 229 501 240 488 240H440C427 240 416 229 416 216V192C416 170 434 152 456 152H472C494 152 512 170 512 192V216ZM560 192C560 216 542 236 520 239C525 233 528 225 528 216V192C528 161 503 136 472 136H456C440 136 426 143 416 153C414 117 385 88 348 88C322 88 299 103 288 125C277 103 254 88 228 88C191 88 162 117 160 153C150 143 136 136 120 136H104C73 136 48 161 48 192V216C48 225 51 233 56 239C34 236 16 216 16 192V128C16 84 52 48 96 48H480C524 48 560 84 560 128V192Z"/></svg>