<svg xmlns="http://www.w3.org/2000/svg" viewBox="0 0 576 512"><!-- Font Awesome Pro 6.0.0-alpha1 by @fontawesome - https://fontawesome.com License - https://fontawesome.com/license (Commercial License) --><path d="M440 353V296C440 292 436 288 432 288S424 292 424 296V353C401 357 384 376 384 400C384 426 405 448 432 448S480 426 480 400C480 376 462 357 440 353ZM432 432C414 432 400 418 400 400S414 368 432 368S464 382 464 400S449 432 432 432ZM512 322V80C512 36 476 0 432 0S352 36 352 80V322C332 343 320 370 320 400C320 462 370 512 432 512S544 462 544 400C544 370 531 343 512 322ZM432 496C379 496 336 453 336 400C336 375 345 352 363 334L368 329V80C368 45 396 16 432 16S496 45 496 80V329L500 334C518 352 528 375 528 400C528 453 484 496 432 496ZM244 175L184 210V115L229 70C232 67 232 61 229 58S221 55 218 58L184 93V40C184 36 180 32 176 32S168 36 168 40V93L133 58C130 55 125 55 122 58S119 67 122 70L168 115V210L85 163L69 100C68 96 63 94 59 95C55 96 52 100 53 105L66 151L20 125C16 123 12 124 9 128S8 137 12 139L58 165L11 178C7 179 4 183 5 188C6 192 11 194 15 193L77 177L160 224L77 271L15 255C11 254 6 256 5 260C4 265 7 269 11 270L58 283L12 309C8 311 7 316 9 320C12 324 16 325 20 323L66 297L53 344C52 348 55 352 59 353C63 354 68 352 69 348L85 285L168 238V333L122 378C119 381 119 387 122 390S130 393 133 390L168 355V408C168 412 171 416 176 416S184 412 184 408V355L218 390C219 391 221 392 224 392S228 391 229 390C232 387 232 381 229 378L184 333V238L244 273C249 276 256 272 256 266C256 263 254 260 252 259L192 224L252 189C254 188 256 185 256 182V182C256 176 249 172 244 175Z"/></svg>