<svg xmlns="http://www.w3.org/2000/svg" viewBox="0 0 512 512"><!-- Font Awesome Pro 6.0.0-alpha1 by @fontawesome - https://fontawesome.com License - https://fontawesome.com/license (Commercial License) --><path d="M256 80C256 36 220 0 176 0S96 36 96 80V322C76 343 64 370 64 400C64 462 114 512 176 512S288 462 288 400C288 370 276 343 256 322V80ZM272 400C272 453 229 496 176 496S80 453 80 400C80 375 90 352 107 334L112 329V80C112 45 141 16 176 16S240 45 240 80V329L245 334C262 352 272 375 272 400ZM384 32C349 32 320 61 320 96C320 131 349 160 384 160S448 131 448 96C448 61 419 32 384 32ZM384 144C358 144 336 122 336 96S358 48 384 48S432 70 432 96S410 144 384 144ZM184 353V72C184 68 180 64 176 64S168 68 168 72V353C145 357 128 376 128 400C128 426 150 448 176 448S224 426 224 400C224 376 207 357 184 353ZM176 432C158 432 144 418 144 400S158 368 176 368S208 382 208 400S194 432 176 432Z"/></svg>