<svg xmlns="http://www.w3.org/2000/svg" viewBox="0 0 320 512"><!-- Font Awesome Pro 6.0.0-alpha1 by @fontawesome - https://fontawesome.com License - https://fontawesome.com/license (Commercial License) --><path d="M168 353V136C168 132 164 128 160 128S152 132 152 136V353C129 357 112 376 112 400C112 426 134 448 160 448S208 426 208 400C208 376 191 357 168 353ZM160 432C142 432 128 418 128 400S142 368 160 368S192 382 192 400S178 432 160 432ZM240 322V80C240 36 204 0 160 0S80 36 80 80V322C60 343 48 370 48 400C48 462 98 512 160 512S272 462 272 400C272 370 260 343 240 322ZM160 496C107 496 64 453 64 400C64 375 74 352 91 334L96 329V80C96 45 125 16 160 16S224 45 224 80V329L229 334C246 352 256 375 256 400C256 453 213 496 160 496Z"/></svg>