<svg xmlns="http://www.w3.org/2000/svg" viewBox="0 0 512 512"><!-- Font Awesome Pro 6.0.0-alpha1 by @fontawesome - https://fontawesome.com License - https://fontawesome.com/license (Commercial License) --><path d="M120 353V72C120 68 116 64 112 64S104 68 104 72V353C81 357 64 376 64 400C64 426 86 448 112 448S160 426 160 400C160 376 143 357 120 353ZM112 432C94 432 80 418 80 400S94 368 112 368S144 382 144 400S130 432 112 432ZM192 80C192 36 156 0 112 0S32 36 32 80V322C12 343 0 370 0 400C0 462 50 512 112 512S224 462 224 400C224 370 212 343 192 322V80ZM208 400C208 453 165 496 112 496S16 453 16 400C16 375 26 352 43 334L48 329V80C48 45 77 16 112 16S176 45 176 80V329L181 334C198 352 208 375 208 400ZM478 122L390 34C387 31 381 31 378 34L290 122C287 125 287 131 290 134S299 137 302 134L376 59V472C376 476 380 480 384 480S392 476 392 472V59L466 134C468 135 470 136 472 136S476 135 478 134C481 131 481 125 478 122Z"/></svg>