<svg xmlns="http://www.w3.org/2000/svg" viewBox="0 0 384 512"><!-- Font Awesome Pro 6.0.0-alpha1 by @fontawesome - https://fontawesome.com License - https://fontawesome.com/license (Commercial License) --><path d="M301 207L294 56C294 51 290 47 285 48C281 48 278 52 278 56L286 217L290 219C339 242 368 280 368 321C368 329 361 336 353 336H200V232C200 228 196 224 192 224S184 228 184 232V336H31C23 336 16 329 16 321C16 280 45 242 94 219L98 217L106 56C106 52 103 48 99 48C94 47 90 51 90 56L83 207C31 232 0 275 0 321C0 338 14 352 31 352H184V504C184 508 188 512 192 512S200 508 200 504V352H353C370 352 384 338 384 321C384 275 353 232 301 207ZM40 16H344C348 16 352 12 352 8S348 0 344 0H40C36 0 32 4 32 8S36 16 40 16Z"/></svg>