<svg xmlns="http://www.w3.org/2000/svg" viewBox="0 0 512 512"><!-- Font Awesome Pro 6.0.0-alpha1 by @fontawesome - https://fontawesome.com License - https://fontawesome.com/license (Commercial License) --><path d="M480 448H456C492 403 512 346 512 288C512 147 397 32 256 32S0 147 0 288C0 346 20 403 56 448H32C14 448 0 462 0 480S14 512 32 512H480C498 512 512 498 512 480S498 448 480 448ZM480 496H32C23 496 16 489 16 480S23 464 32 464H104C108 464 112 460 112 456S108 448 104 448H78C38 404 16 347 16 288C16 156 124 48 256 48S496 156 496 288C496 347 474 404 434 448H408C404 448 400 452 400 456S404 464 408 464H480C489 464 496 471 496 480S489 496 480 496ZM256 128C168 128 96 200 96 288S168 448 256 448S416 376 416 288S344 128 256 128ZM256 144C284 144 311 153 334 167L286 233C277 227 267 224 256 224C241 224 231 229 225 232L178 167C189 161 215 144 256 144ZM165 177L212 241C197 256 189 278 193 300L117 325C103 269 123 212 165 177ZM248 431C192 428 143 393 122 340L199 315C208 335 227 348 248 351V431ZM256 336C235 336 217 323 210 303C206 291 207 278 213 266C219 255 229 246 241 242C246 241 251 240 256 240C277 240 295 253 302 273C306 285 305 298 299 310C293 321 283 330 271 334C266 335 261 336 256 336ZM264 431V351C268 350 272 350 276 349C293 343 306 331 314 315L390 340C357 424 279 431 264 431ZM319 300C321 290 320 279 317 268C313 258 307 249 299 242L347 177C408 227 403 296 395 325L319 300Z"/></svg>