<svg xmlns="http://www.w3.org/2000/svg" viewBox="0 0 576 512"><!-- Font Awesome Pro 6.0.0-alpha1 by @fontawesome - https://fontawesome.com License - https://fontawesome.com/license (Commercial License) --><path d="M416 96H160C72 96 0 168 0 256S72 416 160 416H416C504 416 576 344 576 256S504 96 416 96ZM416 400H160C81 400 16 335 16 256S81 112 160 112H416C495 112 560 177 560 256S495 400 416 400ZM416 160C363 160 320 203 320 256S363 352 416 352S512 309 512 256S469 160 416 160ZM416 336C372 336 336 300 336 256S372 176 416 176S496 212 496 256S460 336 416 336ZM416 208C390 208 368 230 368 256S390 304 416 304S464 282 464 256S442 208 416 208ZM416 288C398 288 384 274 384 256S398 224 416 224S448 238 448 256S434 288 416 288Z"/></svg>