<svg xmlns="http://www.w3.org/2000/svg" viewBox="0 0 640 512"><!-- Font Awesome Pro 6.0.0-alpha1 by @fontawesome - https://fontawesome.com License - https://fontawesome.com/license (Commercial License) --><path d="M637 498L388 300C388 300 388 300 388 300L365 282C365 282 365 282 365 282L13 2C12 1 10 0 8 0C6 0 3 1 2 3C-1 6 0 12 3 14L627 510C629 511 630 512 632 512C634 512 637 511 638 509C641 506 640 500 637 498ZM176 16H419C380 45 353 112 352 190L368 202C368 199 368 196 368 192C368 95 411 16 464 16S560 95 560 192C560 246 547 295 525 327L537 337C546 323 554 308 560 290V355L576 367V192C576 86 526 0 464 0H176C161 0 146 5 133 15L145 25C155 19 165 16 176 16ZM560 437L576 449V449L560 437L560 437ZM464 120C441 120 424 151 424 192S441 264 464 264S504 233 504 192S487 120 464 120ZM464 248C453 248 440 224 440 192S453 136 464 136S488 160 488 192S475 248 464 248ZM345 368H176C123 368 80 289 80 192C80 181 81 169 82 159L67 147C65 162 64 177 64 192C64 298 114 384 176 384H365L345 368ZM232 496C219 496 208 485 208 472V424C208 420 204 416 200 416S192 420 192 424V472C192 494 210 512 232 512H526L506 496H232ZM473 367L488 379L473 367C473 367 473 367 473 367ZM105 75L92 65L105 75L105 75Z"/></svg>