<svg xmlns="http://www.w3.org/2000/svg" viewBox="0 0 576 512"><!-- Font Awesome Pro 6.0.0-alpha1 by @fontawesome - https://fontawesome.com License - https://fontawesome.com/license (Commercial License) --><path d="M464 0H132C75 0 32 85 32 194V361C32 393 24 413 10 456L1 481C-4 496 8 512 24 512H307C323 512 338 501 344 485C358 442 368 411 368 361V192C368 95 411 16 464 16S560 95 560 192S517 368 464 368H416C412 368 408 372 408 376S412 384 416 384H464C526 384 576 298 576 192S526 0 464 0ZM352 192V361C352 410 342 441 329 477C325 491 317 496 307 496H24C19 496 15 491 16 486L25 461C40 418 48 396 48 361V194C48 98 86 16 132 16H419C380 46 352 113 352 192ZM504 192C504 151 487 120 464 120S424 151 424 192S441 264 464 264S504 233 504 192ZM440 192C440 160 453 136 464 136S488 160 488 192S475 248 464 248S440 224 440 192ZM160 224C169 224 176 217 176 208C176 199 169 192 160 192S144 199 144 208C144 217 151 224 160 224ZM224 224C233 224 240 217 240 208C240 199 233 192 224 192S208 199 208 208C208 217 215 224 224 224ZM288 224C297 224 304 217 304 208C304 199 297 192 288 192S272 199 272 208C272 217 279 224 288 224ZM96 192C87 192 80 199 80 208C80 217 87 224 96 224S112 217 112 208C112 199 105 192 96 192Z"/></svg>