<svg xmlns="http://www.w3.org/2000/svg" viewBox="0 0 448 512"><!-- Font Awesome Pro 6.0.0-alpha1 by @fontawesome - https://fontawesome.com License - https://fontawesome.com/license (Commercial License) --><path d="M40 464C44 464 48 460 48 456V192C48 95 127 16 224 16S400 95 400 192V456C400 460 404 464 408 464S416 460 416 456V192C416 86 330 0 224 0S32 86 32 192V456C32 460 36 464 40 464ZM224 360C228 360 232 356 232 352V200H320C324 200 328 196 328 192S324 184 320 184H232V96C232 92 228 88 224 88S216 92 216 96V184H128C124 184 120 188 120 192S124 200 128 200H216V352C216 356 220 360 224 360ZM440 496H8C4 496 0 500 0 504S4 512 8 512H440C444 512 448 508 448 504S444 496 440 496Z"/></svg>