<svg xmlns="http://www.w3.org/2000/svg" viewBox="0 0 512 512"><!-- Font Awesome Pro 6.0.0-alpha1 by @fontawesome - https://fontawesome.com License - https://fontawesome.com/license (Commercial License) --><path d="M503 215L425 137C419 131 411 128 403 128H384V72C384 50 366 32 344 32H168C146 32 128 50 128 72V128H109C101 128 93 131 87 137L9 215C3 221 0 229 0 237V416C0 451 29 480 64 480H448C483 480 512 451 512 416V237C512 229 509 221 503 215ZM144 72C144 59 155 48 168 48H344C357 48 368 59 368 72V128H144V72ZM496 416C496 442 474 464 448 464H64C38 464 16 442 16 416V328H152V376C152 380 156 384 160 384S168 380 168 376V328H344V376C344 380 348 384 352 384S360 380 360 376V328H496V416ZM496 312H360V264C360 260 356 256 352 256S344 260 344 264V312H168V264C168 260 164 256 160 256S152 260 152 264V312H16V237C16 233 18 229 21 226L98 149C101 146 105 144 109 144H403C407 144 411 146 414 149L491 226C494 229 496 233 496 237V312Z"/></svg>