<svg xmlns="http://www.w3.org/2000/svg" viewBox="0 0 576 512"><!-- Font Awesome Pro 6.0.0-alpha1 by @fontawesome - https://fontawesome.com License - https://fontawesome.com/license (Commercial License) --><path d="M568 464H32C22 464 15 455 16 445C18 437 25 432 33 432H568C572 432 576 428 576 424S572 416 568 416H448V264C448 260 444 256 440 256S432 260 432 264V416H384V264C384 260 380 256 376 256S368 260 368 264V416H320V264C320 260 316 256 312 256S304 260 304 264V416H256V264C256 260 252 256 248 256S240 260 240 264V416H192V264C192 260 188 256 184 256S176 260 176 264V416H128V264C128 260 124 256 120 256S112 260 112 264V416H64V264C64 260 60 256 56 256S48 260 48 264V416H33C17 416 2 428 0 445C-2 464 13 480 32 480H568C572 480 576 476 576 472S572 464 568 464ZM64 224H410C449 224 480 194 480 157C480 88 421 32 348 32C345 32 342 34 341 37C340 40 340 44 343 46C353 55 352 68 349 77C345 86 336 96 323 96H64C29 96 0 125 0 160S29 224 64 224ZM64 112H323C341 112 356 101 363 83C368 72 368 60 364 49C420 56 464 102 464 157C464 185 440 208 410 208H64C38 208 16 186 16 160S38 112 64 112Z"/></svg>