<svg xmlns="http://www.w3.org/2000/svg" viewBox="0 0 512 512"><!-- Font Awesome Pro 6.0.0-alpha1 by @fontawesome - https://fontawesome.com License - https://fontawesome.com/license (Commercial License) --><path d="M8 40H424C428 40 432 36 432 32S428 24 424 24H8C4 24 0 28 0 32S4 40 8 40ZM408 96C408 92 404 88 400 88H8C4 88 0 92 0 96S4 104 8 104H400C404 104 408 100 408 96ZM392 160C392 156 388 152 384 152H40C36 152 32 156 32 160S36 168 40 168H384C388 168 392 164 392 160ZM448 224C448 220 444 216 440 216H96C92 216 88 220 88 224S92 232 96 232H440C444 232 448 228 448 224ZM496 288C496 284 492 280 488 280H224C220 280 216 284 216 288S220 296 224 296H488C492 296 496 292 496 288ZM504 344H328C324 344 320 348 320 352S324 360 328 360H504C508 360 512 356 512 352S508 344 504 344ZM480 408H352C348 408 344 412 344 416S348 424 352 424H480C484 424 488 420 488 416S484 408 480 408ZM416 472H344C340 472 336 476 336 480S340 488 344 488H416C420 488 424 484 424 480S420 472 416 472Z"/></svg>