<svg xmlns="http://www.w3.org/2000/svg" viewBox="0 0 640 512"><!-- Font Awesome Pro 6.0.0-alpha1 by @fontawesome - https://fontawesome.com License - https://fontawesome.com/license (Commercial License) --><path d="M176 256C132 256 96 292 96 336S132 416 176 416S256 380 256 336S220 256 176 256ZM176 400C141 400 112 371 112 336S141 272 176 272S240 301 240 336S211 400 176 400ZM321 278C320 277 320 276 319 275C324 268 326 261 326 253C326 243 322 233 314 225L287 198C279 190 269 186 259 186C251 186 244 188 237 193C236 192 235 192 234 191C230 173 214 160 196 160H156C138 160 122 173 118 191C117 192 116 192 115 193C108 188 101 186 93 186C83 186 73 190 65 198L38 225C30 233 26 243 26 253C26 261 29 268 33 275C32 276 32 277 31 278C13 282 0 298 0 316V356C0 374 13 390 31 394C32 395 32 396 33 397C23 413 24 433 38 447L65 474C73 482 83 486 93 486C101 486 108 483 115 479C116 480 117 480 118 481C122 499 138 512 156 512H196C214 512 230 499 234 481C235 480 236 480 237 479C244 483 251 486 259 486C269 486 279 482 287 474L314 447C328 433 329 412 319 397C320 396 320 395 321 394C339 390 352 374 352 356V316C352 298 339 282 321 278ZM336 356C336 366 328 376 318 378L309 380C305 391 306 388 301 399L306 406C312 415 311 428 303 435L275 463C271 467 265 470 259 470C254 470 250 468 246 466L239 461C228 466 231 465 220 469L218 478C216 488 206 496 196 496H156C146 496 136 488 134 478L132 469C121 465 124 466 113 461L106 466C102 468 98 470 93 470C87 470 81 467 77 463L49 435C41 428 40 415 46 406L51 399C46 388 47 391 43 380L34 378C24 376 16 366 16 356V316C16 306 24 296 34 294L43 292C47 281 46 284 51 273L46 266C44 262 42 258 42 253C42 247 45 241 49 237L77 209C81 205 87 202 93 202C98 202 102 203 106 206L113 211C124 206 121 207 132 203L134 194C136 184 146 176 156 176H196C206 176 216 184 218 194L220 203C231 207 228 206 239 211L246 206C250 204 254 202 259 202C265 202 271 205 275 209L303 237C307 241 310 247 310 253C310 258 309 262 306 266L301 273C306 284 305 281 309 292L318 294C328 296 336 306 336 316V356ZM528 352C484 352 448 388 448 432C448 476 484 512 528 512S608 476 608 432C608 388 572 352 528 352ZM528 496C493 496 464 467 464 432S493 368 528 368S592 397 592 432S563 496 528 496ZM600 160H512V141C512 124 517 107 527 92L543 68C545 65 544 60 540 57C537 55 532 56 529 60L513 83C502 101 496 120 496 141V160H373L312 24C305 9 291 0 275 0H136C114 0 96 18 96 40V144C96 148 100 152 104 152S112 148 112 144V40C112 27 123 16 136 16H275C285 16 293 22 297 30L356 160H320C316 160 312 164 312 168S316 176 320 176H600C613 176 624 187 624 200V244C624 250 622 255 618 260L580 304C575 309 568 312 561 312L391 312C387 312 383 315 383 320S387 328 391 328L561 328H562C573 328 584 323 592 314L630 270C637 263 640 254 640 244V200C640 178 622 160 600 160Z"/></svg>