<svg xmlns="http://www.w3.org/2000/svg" viewBox="0 0 512 512"><!-- Font Awesome Pro 6.0.0-alpha1 by @fontawesome - https://fontawesome.com License - https://fontawesome.com/license (Commercial License) --><path d="M504 496H8C4 496 0 500 0 504S4 512 8 512H504C508 512 512 508 512 504S508 496 504 496ZM37 463C41 465 46 463 47 459L99 328H413L465 459C466 462 469 464 472 464C473 464 474 464 475 463C479 462 481 457 479 453L311 25C305 10 291 0 274 0H238C221 0 207 10 201 25L33 453C31 457 33 462 37 463ZM215 31C219 22 228 16 238 16H274C284 16 293 22 297 31L344 152H168L215 31ZM162 168H350L407 312H105L162 168Z"/></svg>