<svg xmlns="http://www.w3.org/2000/svg" viewBox="0 0 384 512"><!-- Font Awesome Pro 6.0.0-alpha1 by @fontawesome - https://fontawesome.com License - https://fontawesome.com/license (Commercial License) --><path d="M15 60L28 41C38 25 56 16 74 16H184V64C184 68 188 72 192 72S200 68 200 64V16H310C329 16 346 25 356 41L369 60C371 63 373 64 376 64C378 64 379 64 380 63C384 60 385 55 383 52L370 32C356 12 334 0 310 0H74C50 0 28 12 14 32L1 52C-1 55 0 60 4 63C7 65 12 64 15 60ZM128 320C110 320 96 334 96 352S110 384 128 384S160 370 160 352S146 320 128 320ZM128 368C119 368 112 361 112 352C112 343 119 336 128 336C137 336 144 343 144 352C144 361 137 368 128 368ZM256 320C238 320 224 334 224 352S238 384 256 384S288 370 288 352S274 320 256 320ZM256 368C247 368 240 361 240 352C240 343 247 336 256 336C265 336 272 343 272 352C272 361 265 368 256 368ZM256 160H128C110 160 96 174 96 192V224C96 242 110 256 128 256H256C274 256 288 242 288 224V192C288 174 274 160 256 160ZM272 224C272 233 265 240 256 240H128C119 240 112 233 112 224V192C112 183 119 176 128 176H256C265 176 272 183 272 192V224ZM382 498L313 429C336 412 352 384 352 352V192C352 139 309 96 256 96H128C75 96 32 139 32 192V352C32 384 48 412 71 429L2 498C-1 502 -1 507 2 510C4 511 6 512 8 512S12 511 14 510L86 438C98 444 113 448 128 448H256C271 448 286 444 298 438L370 510C372 511 374 512 376 512S380 511 382 510C385 507 385 501 382 498ZM256 432H128C84 432 48 396 48 352V192C48 148 84 112 128 112H256C300 112 336 148 336 192V352C336 396 300 432 256 432Z"/></svg>