<svg xmlns="http://www.w3.org/2000/svg" viewBox="0 0 448 512"><!-- Font Awesome Pro 6.0.0-alpha1 by @fontawesome - https://fontawesome.com License - https://fontawesome.com/license (Commercial License) --><path d="M104 304C82 304 64 322 64 344S82 384 104 384S144 366 144 344S126 304 104 304ZM104 368C91 368 80 357 80 344S91 320 104 320S128 331 128 344S117 368 104 368ZM352 0H96C43 0 0 43 0 96V352C0 402 38 442 86 447L34 498C31 502 31 507 34 510C36 511 38 512 40 512S44 511 46 510L107 448H341L402 510C404 511 406 512 408 512S412 511 414 510C417 507 417 501 414 498L362 447C410 442 448 402 448 352V96C448 43 405 0 352 0ZM432 352C432 396 396 432 352 432H96C52 432 16 396 16 352V96C16 52 52 16 96 16H352C396 16 432 52 432 96V352ZM344 304C322 304 304 322 304 344S322 384 344 384S384 366 384 344S366 304 344 304ZM344 368C331 368 320 357 320 344S331 320 344 320S368 331 368 344S357 368 344 368ZM352 96H96C78 96 64 110 64 128V224C64 242 78 256 96 256H352C370 256 384 242 384 224V128C384 110 370 96 352 96ZM216 240H96C87 240 80 233 80 224V128C80 119 87 112 96 112H216V240ZM368 224C368 233 361 240 352 240H232V112H352C361 112 368 119 368 128V224Z"/></svg>