<svg xmlns="http://www.w3.org/2000/svg" viewBox="0 0 640 512"><!-- Font Awesome Pro 6.0.0-alpha1 by @fontawesome - https://fontawesome.com License - https://fontawesome.com/license (Commercial License) --><path d="M80 88C76 88 72 92 72 96V256C72 260 76 264 80 264S88 260 88 256V96C88 92 84 88 80 88ZM184 225V96C184 92 180 88 176 88S168 92 168 96V225C168 230 172 233 176 233S184 230 184 225ZM176 320C132 320 96 356 96 400C96 444 132 480 176 480C220 480 256 444 256 400C256 356 220 320 176 320ZM176 464C141 464 112 435 112 400C112 365 141 336 176 336S240 365 240 400C240 435 211 464 176 464ZM472 320V96C472 92 468 88 464 88S456 92 456 96V320C456 324 460 328 464 328S472 324 472 320ZM376 320V96C376 92 372 88 368 88S360 92 360 96V320C360 324 364 328 368 328S376 324 376 320ZM632 368H535C540 361 544 353 544 344V72C544 50 526 32 504 32H40C18 32 0 50 0 72V344C0 366 18 384 40 384H64C68 384 72 380 72 376S68 368 64 368H40C27 368 16 357 16 344V72C16 59 27 48 40 48H504C517 48 528 59 528 72V344C528 357 517 368 504 368H288C284 368 280 372 280 376S284 384 288 384H632C636 384 640 380 640 376S636 368 632 368ZM280 96C280 92 276 88 272 88S264 92 264 96V256C264 260 268 264 272 264S280 260 280 256V96Z"/></svg>