<svg xmlns="http://www.w3.org/2000/svg" viewBox="0 0 512 512"><!-- Font Awesome Pro 6.0.0-alpha1 by @fontawesome - https://fontawesome.com License - https://fontawesome.com/license (Commercial License) --><path d="M104 272H408C412 272 416 268 416 264S412 256 408 256H104C100 256 96 260 96 264S100 272 104 272ZM88 40H56V8C56 4 52 0 48 0S40 4 40 8V40H8C4 40 0 44 0 48S4 56 8 56H40V88C40 92 44 96 48 96S56 92 56 88V56H88C92 56 96 52 96 48S92 40 88 40ZM232 16H280C284 16 288 12 288 8S284 0 280 0H232C228 0 224 4 224 8S228 16 232 16ZM504 392H472V360C472 356 468 352 464 352S456 356 456 360V392H424C420 392 416 396 416 400S420 408 424 408H456V440C456 444 460 448 464 448S472 444 472 440V408H504C508 408 512 404 512 400S508 392 504 392ZM376 448H136C114 448 96 466 96 488V504C96 508 100 512 104 512S112 508 112 504V488C112 475 123 464 136 464H376C389 464 400 475 400 488V504C400 508 404 512 408 512S416 508 416 504V488C416 466 398 448 376 448Z"/></svg>