<svg xmlns="http://www.w3.org/2000/svg" viewBox="0 0 512 512"><!-- Font Awesome Pro 6.0.0-alpha1 by @fontawesome - https://fontawesome.com License - https://fontawesome.com/license (Commercial License) --><path d="M88 296H56V264C56 260 52 256 48 256S40 260 40 264V296H8C4 296 0 300 0 304S4 312 8 312H40V344C40 348 44 352 48 352S56 348 56 344V312H88C92 312 96 308 96 304S92 296 88 296ZM504 72H472V40C472 36 468 32 464 32S456 36 456 40V72H424C420 72 416 76 416 80S420 88 424 88H456V120C456 124 460 128 464 128S472 124 472 120V88H504C508 88 512 84 512 80S508 72 504 72ZM376 448H136C114 448 96 466 96 488V504C96 508 100 512 104 512S112 508 112 504V488C112 475 123 464 136 464H376C389 464 400 475 400 488V504C400 508 404 512 408 512S416 508 416 504V488C416 466 398 448 376 448Z"/></svg>