<svg xmlns="http://www.w3.org/2000/svg" viewBox="0 0 448 512"><!-- Font Awesome Pro 6.0.0-alpha1 by @fontawesome - https://fontawesome.com License - https://fontawesome.com/license (Commercial License) --><path d="M408 120C404 120 400 124 400 128V440C400 471 375 496 344 496H104C73 496 48 471 48 440V128C48 124 44 120 40 120S32 124 32 128V440C32 480 64 512 104 512H344C384 512 416 480 416 440V128C416 124 412 120 408 120ZM440 64H323L302 22C296 8 282 0 267 0H181C166 0 152 8 146 22L125 64H8C4 64 0 68 0 72S4 80 8 80H440C444 80 448 76 448 72S444 64 440 64ZM142 64L160 29C164 21 172 16 181 16H267C276 16 284 21 288 29L306 64H142ZM200 192C200 190 199 188 197 186C194 183 189 183 186 187L98 283C95 286 95 290 98 293L186 389C189 393 194 393 197 390C201 387 201 382 198 379L122 296H256C287 296 312 321 312 352V384C312 388 316 392 320 392S328 388 328 384V352C328 312 296 280 256 280H122L198 197C199 196 200 194 200 192Z"/></svg>