<svg xmlns="http://www.w3.org/2000/svg" viewBox="0 0 448 512"><!-- Font Awesome Pro 6.0.0-alpha1 by @fontawesome - https://fontawesome.com License - https://fontawesome.com/license (Commercial License) --><path d="M440 64H323L302 22C296 8 282 0 267 0H181C166 0 152 8 146 22L125 64H8C4 64 0 68 0 72S4 80 8 80H440C444 80 448 76 448 72S444 64 440 64ZM142 64L160 29C164 21 172 16 181 16H267C276 16 284 21 288 29L306 64H142ZM407 128C403 128 399 131 399 136L380 460C378 480 361 496 342 496H106C87 496 70 480 68 460L49 136C49 131 45 128 41 128C36 128 33 132 33 136L52 461C54 489 78 512 106 512H342C370 512 394 489 396 461L415 136C415 132 412 128 407 128Z"/></svg>