<svg xmlns="http://www.w3.org/2000/svg" viewBox="0 0 640 512"><!-- Font Awesome Pro 6.0.0-alpha1 by @fontawesome - https://fontawesome.com License - https://fontawesome.com/license (Commercial License) --><path d="M637 498L13 2C12 1 10 0 8 0C6 0 3 1 2 3C-1 6 0 12 3 14L627 510C629 511 630 512 632 512C634 512 637 511 638 509C641 506 640 500 637 498ZM536 80C540 80 544 76 544 72S540 64 536 64H419L398 22C392 8 378 0 363 0H277C262 0 248 8 242 22L221 64H194L214 80H536ZM256 29C260 21 268 16 277 16H363C372 16 380 21 384 29L402 64H239L256 29ZM496 128V304L512 317V128C512 124 508 120 504 120S496 124 496 128ZM440 496H200C169 496 144 471 144 440V208L128 195V440C128 480 160 512 200 512H440C462 512 481 502 494 487L482 477C472 488 457 496 440 496ZM232 432V278L216 265V432C216 436 220 440 224 440S232 436 232 432ZM328 432V354L312 342V432C312 436 316 440 320 440S328 436 328 432ZM408 176V234L424 247V176C424 172 420 168 416 168S408 172 408 176Z"/></svg>