<svg xmlns="http://www.w3.org/2000/svg" viewBox="0 0 448 512"><!-- Font Awesome Pro 6.0.0-alpha1 by @fontawesome - https://fontawesome.com License - https://fontawesome.com/license (Commercial License) --><path d="M408 120C404 120 400 124 400 128V440C400 471 375 496 344 496H104C73 496 48 471 48 440V128C48 124 44 120 40 120S32 124 32 128V440C32 480 64 512 104 512H344C384 512 416 480 416 440V128C416 124 412 120 408 120ZM440 64H323L302 22C296 8 282 0 267 0H181C166 0 152 8 146 22L125 64H8C4 64 0 68 0 72S4 80 8 80H440C444 80 448 76 448 72S444 64 440 64ZM142 64L160 29C164 21 172 16 181 16H267C276 16 284 21 288 29L306 64H142ZM224 448C228 448 232 444 232 440V218L315 294C316 295 318 296 320 296C322 296 324 295 326 293C329 290 329 285 325 282L229 194C226 191 222 191 219 194L123 282C119 285 119 290 122 293C125 297 130 297 133 294L216 218V440C216 444 220 448 224 448Z"/></svg>