<svg xmlns="http://www.w3.org/2000/svg" viewBox="0 0 576 512"><!-- Font Awesome Pro 6.0.0-alpha1 by @fontawesome - https://fontawesome.com License - https://fontawesome.com/license (Commercial License) --><path d="M448 32H128C57 32 0 89 0 160V416C0 451 29 480 64 480H512C547 480 576 451 576 416V160C576 89 519 32 448 32ZM120 464H64C38 464 16 442 16 416V288H120V464ZM120 272H16V160C16 101 62 53 120 49V272ZM440 464H136V288H216V328C216 350 234 368 256 368H320C342 368 360 350 360 328V288H440V464ZM232 328V216C232 203 243 192 256 192H320C333 192 344 203 344 216V328C344 341 333 352 320 352H256C243 352 232 341 232 328ZM440 272H360V216C360 194 342 176 320 176H256C234 176 216 194 216 216V272H136V48H440V272ZM560 416C560 442 538 464 512 464H456V288H560V416ZM560 272H456V49C514 53 560 101 560 160V272ZM288 320C292 320 296 316 296 312V232C296 228 292 224 288 224S280 228 280 232V312C280 316 284 320 288 320Z"/></svg>