<svg xmlns="http://www.w3.org/2000/svg" viewBox="0 0 448 512"><!-- Font Awesome Pro 6.0.0-alpha1 by @fontawesome - https://fontawesome.com License - https://fontawesome.com/license (Commercial License) --><path d="M440 392L371 312H386C411 312 425 283 409 263L348 192H359C380 192 392 169 378 155L243 8C238 3 231 0 224 0S210 3 205 8L70 155C56 169 68 192 89 192H100L39 263C23 283 37 312 62 312H77L8 392C-11 414 5 448 33 448H216V504C216 508 220 512 224 512S232 508 232 504V448H415C443 448 459 413 440 392ZM430 422C429 424 425 432 415 432H232V355L294 294C297 290 297 285 294 282C291 279 285 279 282 282L232 333V168C232 164 228 160 224 160S216 164 216 168V269L166 218C163 215 158 215 154 218C151 221 151 227 154 230L216 291V432H33C23 432 19 424 18 422C17 419 13 410 21 402L112 296H62C54 296 50 290 49 288C48 286 46 280 51 274L135 176H89C84 176 82 174 81 171C79 169 81 167 82 166L216 19C218 17 221 16 224 16C227 16 230 17 232 19L366 166C368 167 369 169 368 171C367 174 364 176 359 176H314L397 274C402 280 400 286 399 288C398 290 394 296 386 296H336L428 402C435 410 431 419 430 422Z"/></svg>