<svg xmlns="http://www.w3.org/2000/svg" viewBox="0 0 512 512"><!-- Font Awesome Pro 6.0.0-alpha1 by @fontawesome - https://fontawesome.com License - https://fontawesome.com/license (Commercial License) --><path d="M472 456L382 352H418C443 352 457 323 441 303L346 192H391C412 192 424 170 410 155L275 8C270 3 263 0 256 0S242 3 237 8L102 155C88 170 100 192 121 192H166L71 303C55 323 69 352 94 352H130L40 456C21 478 37 512 65 512H447C475 512 490 477 472 456ZM462 486C461 488 457 496 447 496H264V419L326 358C329 355 329 349 326 346C323 343 317 343 314 346L264 397V232C264 228 260 224 256 224S248 228 248 232V333L198 282C195 279 189 279 186 282C183 285 183 291 186 294L248 355V496H65C55 496 51 488 50 486C49 483 45 474 53 466L165 336H94C86 336 82 330 81 328C80 326 78 320 83 314L201 176H121C116 176 114 174 112 171C111 169 113 167 114 166L249 19C250 17 253 16 256 16S262 17 264 19L398 166C400 167 401 169 400 171C399 174 396 176 391 176H312L429 314C434 320 432 326 431 328C430 330 426 336 418 336H347L460 466C467 474 463 483 462 486Z"/></svg>