<svg xmlns="http://www.w3.org/2000/svg" viewBox="0 0 640 512"><!-- Font Awesome Pro 6.0.0-alpha1 by @fontawesome - https://fontawesome.com License - https://fontawesome.com/license (Commercial License) --><path d="M454 323C450 317 443 321 442 323L386 392L320 349V278C320 261 310 247 295 241L259 226C242 219 221 226 210 242L193 276C191 280 192 284 196 287L369 400H352C349 400 347 401 346 403L322 435C318 441 321 448 328 448H536C543 448 546 440 542 435L454 323ZM304 338L210 277L224 250C231 241 243 237 253 241L289 255C298 259 304 268 304 278V338ZM344 432L356 416H384C386 416 389 415 390 413L448 341L520 432H344ZM288 224C306 224 320 210 320 192S306 160 288 160S256 174 256 192S270 224 288 224ZM288 176C297 176 304 183 304 192S297 208 288 208C279 208 272 201 272 192S279 176 288 176ZM205 321C200 318 194 320 192 326L160 438C159 441 161 448 168 448C171 448 175 446 176 442L205 341L272 388V440C272 444 276 448 280 448C284 448 288 444 288 440V384C288 381 287 379 285 377L205 321ZM632 438L360 20C351 7 336 0 320 0S289 7 280 20L8 438C-2 452 -3 471 6 487C14 502 30 512 48 512H592C610 512 626 502 634 487C643 471 642 452 632 438ZM620 479C615 490 604 496 592 496H48C36 496 25 490 20 479C14 469 15 456 21 446L293 29C299 21 309 16 320 16C331 16 341 21 347 29L619 446C625 456 626 469 620 479Z"/></svg>