<svg xmlns="http://www.w3.org/2000/svg" viewBox="0 0 640 512"><!-- Font Awesome Pro 6.0.0-alpha1 by @fontawesome - https://fontawesome.com License - https://fontawesome.com/license (Commercial License) --><path d="M160 304C125 304 96 333 96 368C96 403 125 432 160 432S224 403 224 368C224 333 195 304 160 304ZM160 416C134 416 112 394 112 368S134 320 160 320S208 342 208 368S186 416 160 416ZM598 321C598 320 598 319 597 318C601 313 603 307 603 300C603 292 599 283 593 277L571 255C565 249 556 245 548 245C541 245 535 247 530 251C529 250 528 250 527 250C524 235 511 224 496 224H464C449 224 436 235 433 250C432 250 431 250 430 251C425 247 419 245 412 245C404 245 395 249 389 255L367 277C361 283 357 292 357 300C357 306 359 313 363 318C362 319 362 320 362 321C347 324 336 337 336 352V384C336 399 347 412 362 415C362 416 362 417 363 418C355 431 356 448 367 458L389 481C395 487 404 490 412 490C418 490 425 489 430 485C431 486 432 486 433 486C436 501 449 512 464 512H496C511 512 524 501 527 486C528 486 529 486 530 485C535 489 542 490 548 490C556 490 564 487 571 481L593 458C604 447 605 431 597 418C598 417 598 416 598 415C613 412 624 399 624 384V352C624 337 613 324 598 321ZM608 384C608 393 601 400 592 400H587C585 407 582 414 578 421L582 424C588 431 588 441 582 447L559 470C556 473 552 474 548 474S540 473 537 470L533 466C526 470 519 473 512 475V480C512 489 505 496 496 496H464C455 496 448 489 448 480V475C441 473 434 470 427 466L424 470C420 473 416 474 412 474S404 473 401 470L378 447C372 441 372 431 378 424L382 421C378 414 375 407 373 400H368C359 400 352 393 352 384V352C352 343 359 336 368 336H373C375 329 378 322 382 315L378 311C372 305 372 295 378 289L401 266C404 263 408 261 412 261S420 263 423 266L427 270C434 266 441 263 448 261V256C448 247 455 240 464 240H496C505 240 512 247 512 256V261C519 263 526 266 533 270L536 266C540 263 544 261 548 261S556 263 559 266L582 289C588 295 588 305 582 312L578 315C582 322 585 329 587 336H592C601 336 608 343 608 352V384ZM278 321C278 320 278 319 277 318C281 313 283 306 283 300C283 292 279 283 273 277L251 255C245 249 236 245 228 245C221 245 215 247 210 251C209 250 208 250 207 250C204 235 191 224 176 224H144C129 224 116 235 113 250C112 250 111 250 110 251C105 247 98 245 92 245C84 245 75 249 69 255L47 277C41 283 37 292 37 300C37 306 39 313 43 318C42 319 42 320 42 321C27 324 16 337 16 352V384C16 399 27 412 42 415C42 416 42 417 43 418C35 431 36 448 47 458L69 481C75 487 84 490 92 490C98 490 105 489 110 485C111 486 112 486 113 486C116 501 129 512 144 512H176C191 512 204 501 207 486C208 486 209 486 210 485C215 489 222 490 228 490C236 490 245 487 251 481L273 458C284 448 285 431 277 418C278 417 278 416 278 415C293 412 304 399 304 384V352C304 337 293 324 278 321ZM288 384C288 393 281 400 272 400H267C265 407 262 414 258 421L262 424C268 431 268 441 262 447L239 470C236 473 232 474 228 474S220 473 217 470L213 466C206 470 199 473 192 475V480C192 489 185 496 176 496H144C135 496 128 489 128 480V475C121 473 114 470 107 466L103 470C100 473 96 474 92 474S84 473 81 470L58 447C52 441 52 431 58 425L62 421C58 414 55 407 53 400H48C39 400 32 393 32 384V352C32 343 39 336 48 336H53C55 329 58 322 62 315L58 311C52 305 52 295 58 289L81 266C84 263 88 261 92 261S100 263 103 266L107 270C114 266 121 263 128 261V256C128 247 135 240 144 240H176C185 240 192 247 192 256V261C199 263 206 266 213 270L216 266C220 263 224 261 228 261S236 263 239 266L262 289C268 295 268 305 262 311L258 315C262 322 265 329 267 336H272C281 336 288 343 288 352V384ZM560 128H502L419 24C407 9 389 0 369 0H256C238 0 224 14 224 32V128H80C45 128 16 157 16 192V248C16 252 20 256 24 256S32 252 32 248V192C32 166 54 144 80 144H560C586 144 608 166 608 192V248C608 252 612 256 616 256S624 252 624 248V192C624 157 595 128 560 128ZM240 128V32C240 23 247 16 256 16H369C384 16 398 23 407 34L482 128H240ZM480 304C445 304 416 333 416 368C416 403 445 432 480 432S544 403 544 368C544 333 515 304 480 304ZM480 416C454 416 432 394 432 368S454 320 480 320S528 342 528 368S506 416 480 416Z"/></svg>