<svg xmlns="http://www.w3.org/2000/svg" viewBox="0 0 512 512"><!-- Font Awesome Pro 6.0.0-alpha1 by @fontawesome - https://fontawesome.com License - https://fontawesome.com/license (Commercial License) --><path d="M440 0H72C32 0 0 32 0 72V216C0 220 4 224 8 224S16 220 16 216V72C16 41 41 16 72 16H440C471 16 496 41 496 72V216C496 220 500 224 504 224S512 220 512 216V72C512 32 480 0 440 0ZM451 240L419 145C409 116 382 96 351 96H161C130 96 103 116 93 145L61 240C27 242 0 270 0 304V400C0 421 13 438 32 445V504C32 508 36 512 40 512S48 508 48 504V448H464V504C464 508 468 512 472 512S480 508 480 504V445C499 438 512 421 512 400V304C512 270 485 242 451 240ZM108 150C116 127 137 112 161 112H351C375 112 396 127 404 150L434 240H78L108 150ZM496 400C496 418 482 432 464 432H48C30 432 16 418 16 400V304C16 278 38 256 64 256H448C474 256 496 278 496 304V400ZM104 304C82 304 64 322 64 344C64 366 82 384 104 384S144 366 144 344C144 322 126 304 104 304ZM104 368C91 368 80 357 80 344C80 331 91 320 104 320S128 331 128 344C128 357 117 368 104 368ZM408 304C386 304 368 322 368 344C368 366 386 384 408 384S448 366 448 344C448 322 430 304 408 304ZM408 368C395 368 384 357 384 344C384 331 395 320 408 320S432 331 432 344C432 357 421 368 408 368Z"/></svg>