<svg xmlns="http://www.w3.org/2000/svg" viewBox="0 0 640 512"><!-- Font Awesome Pro 6.0.0-alpha1 by @fontawesome - https://fontawesome.com License - https://fontawesome.com/license (Commercial License) --><path d="M632 336H608V248C608 208 576 176 536 176H492L384 46C376 37 365 32 353 32H248C226 32 208 50 208 72V176H56C34 176 16 194 16 216V336H8C4 336 0 340 0 344S4 352 8 352H66C65 357 64 363 64 368C64 430 114 480 176 480S288 430 288 368C288 363 287 357 286 352H354C353 357 352 363 352 368C352 430 402 480 464 480S576 430 576 368C576 363 575 357 574 352H632C636 352 640 348 640 344S636 336 632 336ZM224 72C224 59 235 48 248 48H353C360 48 367 51 371 57L471 176H224V72ZM176 464C123 464 80 421 80 368C80 315 123 272 176 272S272 315 272 368C272 421 229 464 176 464ZM464 464C411 464 368 421 368 368C368 315 411 272 464 272S560 315 560 368C560 421 517 464 464 464ZM571 336C557 290 515 256 464 256S371 290 357 336H283C269 290 227 256 176 256S83 290 69 336H32V216C32 203 43 192 56 192H536C567 192 592 217 592 248V336H571Z"/></svg>