<svg xmlns="http://www.w3.org/2000/svg" viewBox="0 0 640 512"><!-- Font Awesome Pro 6.0.0-alpha1 by @fontawesome - https://fontawesome.com License - https://fontawesome.com/license (Commercial License) --><path d="M632 400H608V237C608 227 604 217 596 209L495 108C488 100 477 96 467 96H416V48C416 22 394 0 368 0H48C22 0 0 22 0 48V368C0 394 22 416 48 416H73C73 419 72 421 72 424C72 473 111 512 160 512S248 473 248 424C248 421 247 419 247 416H393C393 419 392 421 392 424C392 473 431 512 480 512S568 473 568 424C568 421 567 419 567 416H632C636 416 640 412 640 408S636 400 632 400ZM160 496C120 496 88 464 88 424S120 352 160 352S232 384 232 424S200 496 160 496ZM400 388C398 392 397 396 396 400H244C234 363 200 336 160 336S86 363 76 400H48C30 400 16 386 16 368V48C16 30 30 16 48 16H368C386 16 400 30 400 48V388ZM416 112H467C473 112 479 115 484 119L585 220C586 221 587 223 587 224H416V112ZM480 496C440 496 408 464 408 424S440 352 480 352S552 384 552 424S520 496 480 496ZM592 400H564C554 363 520 336 480 336C455 336 432 347 416 364V240H592V400Z"/></svg>