<svg xmlns="http://www.w3.org/2000/svg" viewBox="0 0 640 512"><!-- Font Awesome Pro 6.0.0-alpha1 by @fontawesome - https://fontawesome.com License - https://fontawesome.com/license (Commercial License) --><path d="M232 232C236 232 240 228 240 224V96C240 92 236 88 232 88S224 92 224 96V224C224 228 228 232 232 232ZM296 232C300 232 304 228 304 224V96C304 92 300 88 296 88S288 92 288 96V224C288 228 292 232 296 232ZM168 232C172 232 176 228 176 224V96C176 92 172 88 168 88S160 92 160 96V224C160 228 164 232 168 232ZM629 249L569 183C555 168 536 160 516 160H448C439 160 432 167 432 176V352C425 362 420 372 418 384H334C327 347 295 320 256 320C224 320 197 339 184 366C171 339 144 320 112 320C73 320 41 347 34 384H8C4 384 0 388 0 392S4 400 8 400H32C32 444 68 480 112 480C144 480 171 461 184 434C197 461 224 480 256 480C300 480 336 444 336 400H416C416 444 452 480 496 480S576 444 576 400H600C622 400 640 382 640 360V276C640 266 636 257 629 249ZM112 464C77 464 48 435 48 400C48 365 77 336 112 336S176 365 176 400C176 435 147 464 112 464ZM256 464C221 464 192 435 192 400C192 365 221 336 256 336S320 365 320 400C320 435 291 464 256 464ZM448 176H516C531 176 547 183 557 194L614 256H448V176ZM496 464C461 464 432 435 432 400C432 365 461 336 496 336S560 365 560 400C560 435 531 464 496 464ZM624 360C624 373 613 384 600 384H574C567 347 535 320 496 320C478 320 461 326 448 336V272H624V360ZM32 288H368C386 288 400 274 400 256V64C400 46 386 32 368 32H32C14 32 0 46 0 64V256C0 274 14 288 32 288ZM16 64C16 55 23 48 32 48H368C377 48 384 55 384 64V256C384 265 377 272 368 272H32C23 272 16 265 16 256V64ZM104 232C108 232 112 228 112 224V96C112 92 108 88 104 88S96 92 96 96V224C96 228 100 232 104 232Z"/></svg>