<svg xmlns="http://www.w3.org/2000/svg" viewBox="0 0 640 512"><!-- Font Awesome Pro 6.0.0-alpha1 by @fontawesome - https://fontawesome.com License - https://fontawesome.com/license (Commercial License) --><path d="M8 160C4 160 0 164 0 168V296C0 300 4 304 8 304S16 300 16 296V168C16 164 12 160 8 160ZM608 64C598 64 588 69 582 77C526 150 483 173 469 180C454 188 436 192 416 192H376V160C376 156 372 152 368 152S360 156 360 160V192H280V160C280 156 276 152 272 152S264 156 264 160V192H184V160C184 156 180 152 176 152S168 156 168 160V192H56C52 192 48 196 48 200S52 208 56 208H416C450 208 471 197 476 194C498 183 541 157 595 87C598 82 603 80 608 80C613 80 624 84 624 96V368C624 373 620 384 608 384C603 384 598 381 595 377C588 370 544 306 476 270C471 267 450 256 416 256H56C52 256 48 260 48 264S52 272 56 272H96C77 286 64 309 64 335C63 379 102 416 147 416H397C440 416 477 384 480 341C481 317 472 295 456 279C460 281 465 282 469 284C522 313 561 361 576 380C579 383 581 385 582 387C588 395 598 400 608 400C628 400 640 383 640 368V96C640 76 623 64 608 64ZM168 400H144C109 400 80 371 80 336C80 301 109 272 144 272H168V400ZM264 400H184V272H264V400ZM360 400H280V272H360V400ZM464 336C464 371 435 400 400 400H376V272H400C435 272 464 301 464 336Z"/></svg>