<svg xmlns="http://www.w3.org/2000/svg" viewBox="0 0 384 512"><!-- Font Awesome Pro 6.0.0-alpha1 by @fontawesome - https://fontawesome.com License - https://fontawesome.com/license (Commercial License) --><path d="M384 40C384 44 380 48 376 48H200V214L318 184C322 183 327 186 328 190C329 194 326 199 322 200L200 230V310L318 280C322 279 327 282 328 286C329 290 326 295 322 296L200 326V472C200 476 196 480 192 480S184 476 184 472V330L66 360C65 360 65 360 64 360C60 360 57 358 56 354C55 350 58 345 62 344L184 314V234L66 264C65 264 65 264 64 264C60 264 57 262 56 258C55 254 58 249 62 248L184 218V48H8C4 48 0 44 0 40S4 32 8 32H376C380 32 384 36 384 40Z"/></svg>