<svg xmlns="http://www.w3.org/2000/svg" viewBox="0 0 384 512"><!-- Font Awesome Pro 6.0.0-alpha1 by @fontawesome - https://fontawesome.com License - https://fontawesome.com/license (Commercial License) --><path d="M384 264C384 383 287 480 168 480H136C114 480 96 462 96 440V244L10 264C9 264 9 264 8 264C4 264 1 262 0 258C-1 254 2 249 6 248L96 227V148L10 168C9 168 9 168 8 168C4 168 1 166 0 162C-1 158 2 153 6 152L96 131V40C96 36 100 32 104 32C108 32 112 36 112 40V127L278 88C283 87 287 90 288 94C289 98 286 103 282 104L112 144V223L278 184C283 183 287 186 288 190C289 194 286 199 282 200L112 240V440C112 453 123 464 136 464H168C278 464 368 374 368 264C368 260 372 256 376 256C380 256 384 260 384 264Z"/></svg>