<svg xmlns="http://www.w3.org/2000/svg" viewBox="0 0 384 512"><!-- Font Awesome Pro 6.0.0-alpha1 by @fontawesome - https://fontawesome.com License - https://fontawesome.com/license (Commercial License) --><path d="M318 367C314 358 305 352 294 352H200V72C200 32 168 0 128 0H8C4 0 0 4 0 8S4 16 8 16H128C159 16 184 41 184 72V352H90C79 352 70 358 66 367C62 376 64 386 71 394L173 504C178 509 185 512 192 512C199 512 206 509 211 504L313 394C320 386 322 376 318 367ZM302 383L199 493C196 497 188 497 185 493L82 383C79 379 80 375 81 374C82 370 86 368 90 368H294C298 368 302 370 303 374C304 375 305 379 302 383Z"/></svg>