<svg xmlns="http://www.w3.org/2000/svg" viewBox="0 0 640 512"><!-- Font Awesome Pro 6.0.0-alpha1 by @fontawesome - https://fontawesome.com License - https://fontawesome.com/license (Commercial License) --><path d="M70 232C74 233 79 230 80 226C99 156 166 80 240 80C314 80 381 156 400 226C401 230 404 232 408 232C409 232 409 232 410 232C414 231 417 226 416 222C395 146 322 64 240 64C158 64 85 146 64 222C63 226 66 231 70 232ZM582 129L533 95C513 86 491 86 472 95C455 104 444 119 441 138C440 142 440 145 440 149V218C440 218 440 218 440 218C440 218 440 219 440 219C440 230 436 248 429 257C418 271 402 278 385 278L58 280C43 280 32 291 32 305C32 316 39 326 51 329L135 348L91 413C87 420 87 429 91 436C95 444 103 448 112 448H144C159 448 172 440 179 428L210 375C233 382 252 387 289 387C326 387 345 382 368 375L403 428C410 440 424 448 438 448H464C473 448 481 444 485 436C489 429 489 420 485 413L439 342C459 333 475 321 487 305C501 287 509 261 512 240H545C580 240 608 214 608 180C608 160 598 141 582 129ZM545 224H505C501 224 498 227 498 231C495 250 488 278 475 295C462 311 445 323 425 331C422 332 421 334 420 336C419 338 420 341 421 343L471 421C473 424 472 427 471 428C470 431 467 432 464 432H438C429 432 421 427 417 420L378 361C377 359 374 358 371 358C371 358 370 358 369 358C345 366 326 371 289 371S233 366 209 358C205 357 201 358 200 361L165 420C161 427 153 432 144 432H112C109 432 106 431 105 428C104 427 103 424 105 421L155 347C156 345 156 342 155 340C154 337 152 335 150 335L55 314C51 312 48 309 48 305C48 299 53 296 58 296L385 294C407 294 428 284 441 267C451 254 456 233 456 219C456 219 456 218 456 218C456 218 456 218 456 218V149C456 146 456 144 457 141C459 127 467 116 479 109C493 102 511 102 525 109L572 142C585 151 592 165 592 180C592 205 572 224 545 224ZM512 144C503 144 496 151 496 160C496 169 503 176 512 176S528 169 528 160C528 151 521 144 512 144Z"/></svg>