<svg xmlns="http://www.w3.org/2000/svg" viewBox="0 0 640 512"><!-- Font Awesome Pro 6.0.0-alpha1 by @fontawesome - https://fontawesome.com License - https://fontawesome.com/license (Commercial License) --><path d="M536 496H104C100 496 96 500 96 504S100 512 104 512H536C540 512 544 508 544 504S540 496 536 496ZM64 384H576V64H64V384ZM80 80H560V368H80V80ZM592 0H48C22 0 0 22 0 48V400C0 426 22 448 48 448H592C618 448 640 426 640 400V48C640 22 618 0 592 0ZM624 400C624 418 610 432 592 432H48C30 432 16 418 16 400V48C16 30 30 16 48 16H592C610 16 624 30 624 48V400ZM405 129L277 185C274 186 272 189 272 192V264C263 259 252 256 240 256C214 256 192 270 192 288S214 320 240 320S288 306 288 288V197L400 148V232C391 227 380 224 368 224C342 224 320 238 320 256S342 288 368 288S416 274 416 256V136C416 133 415 131 412 129C410 128 407 128 405 129ZM240 304C220 304 208 295 208 288S220 272 240 272C260 272 272 281 272 288S260 304 240 304ZM368 272C348 272 336 263 336 256S348 240 368 240C388 240 400 249 400 256S388 272 368 272Z"/></svg>