<svg xmlns="http://www.w3.org/2000/svg" viewBox="0 0 512 512"><!-- Font Awesome Pro 6.0.0-alpha1 by @fontawesome - https://fontawesome.com License - https://fontawesome.com/license (Commercial License) --><path d="M448 272C439 272 432 279 432 288C432 297 439 304 448 304S464 297 464 288C464 279 457 272 448 272ZM448 208C439 208 432 215 432 224C432 233 439 240 448 240S464 233 464 224C464 215 457 208 448 208ZM320 160H144C100 160 64 196 64 240V368C64 412 100 448 144 448H320C364 448 400 412 400 368V240C400 196 364 160 320 160ZM384 368C384 403 355 432 320 432H144C109 432 80 403 80 368V240C80 205 109 176 144 176H320C355 176 384 205 384 240V368ZM448 96H279L381 14C384 11 385 6 382 3C379 0 374 -1 371 2L256 94L141 2C138 -1 133 0 130 3C127 6 128 12 131 14L233 96H64C29 96 0 125 0 160V448C0 483 29 512 64 512H448C483 512 512 483 512 448V160C512 125 483 96 448 96ZM496 448C496 474 474 496 448 496H64C38 496 16 474 16 448V160C16 134 38 112 64 112H448C474 112 496 134 496 160V448Z"/></svg>