<svg xmlns="http://www.w3.org/2000/svg" viewBox="0 0 512 512"><!-- Font Awesome Pro 6.0.0-alpha1 by @fontawesome - https://fontawesome.com License - https://fontawesome.com/license (Commercial License) --><path d="M72 160C76 160 80 156 80 152V40C80 27 91 16 104 16H363C369 16 375 19 380 23L425 68C429 73 432 79 432 85V152C432 156 436 160 440 160S448 156 448 152V85C448 75 444 65 436 57L391 12C384 4 373 0 363 0H104C82 0 64 18 64 40V152C64 156 68 160 72 160ZM480 192H367C357 192 347 194 338 199L302 217C293 222 283 224 273 224H239C229 224 219 222 210 217L174 199C165 194 155 192 145 192H32C14 192 0 206 0 224V256C0 274 14 288 32 288V456C32 487 57 512 88 512H424C455 512 480 487 480 456V288C498 288 512 274 512 256V224C512 206 498 192 480 192ZM464 456C464 478 446 496 424 496H88C66 496 48 478 48 456V288H464V456ZM496 256C496 265 489 272 480 272H32C23 272 16 265 16 256V224C16 215 23 208 32 208H145C152 208 160 210 166 213L203 232C214 237 227 240 239 240H273C285 240 298 237 309 232L346 213C352 210 360 208 367 208H480C489 208 496 215 496 224V256ZM352 448H160C156 448 152 452 152 456S156 464 160 464H352C356 464 360 460 360 456S356 448 352 448ZM160 416C169 416 176 409 176 400C176 391 169 384 160 384S144 391 144 400C144 409 151 416 160 416ZM224 416C233 416 240 409 240 400C240 391 233 384 224 384S208 391 208 400C208 409 215 416 224 416ZM288 416C297 416 304 409 304 400C304 391 297 384 288 384S272 391 272 400C272 409 279 416 288 416ZM352 416C361 416 368 409 368 400C368 391 361 384 352 384S336 391 336 400C336 409 343 416 352 416ZM128 352C137 352 144 345 144 336C144 327 137 320 128 320S112 327 112 336C112 345 119 352 128 352ZM192 352C201 352 208 345 208 336C208 327 201 320 192 320S176 327 176 336C176 345 183 352 192 352ZM256 352C265 352 272 345 272 336C272 327 265 320 256 320S240 327 240 336C240 345 247 352 256 352ZM320 352C329 352 336 345 336 336C336 327 329 320 320 320S304 327 304 336C304 345 311 352 320 352ZM384 352C393 352 400 345 400 336C400 327 393 320 384 320S368 327 368 336C368 345 375 352 384 352Z"/></svg>