<svg xmlns="http://www.w3.org/2000/svg" viewBox="0 0 640 512"><!-- Font Awesome Pro 6.0.0-alpha1 by @fontawesome - https://fontawesome.com License - https://fontawesome.com/license (Commercial License) --><path d="M512 352C521 352 528 345 528 336C528 327 521 320 512 320S496 327 496 336C496 345 503 352 512 352ZM154 253C155 258 158 263 163 265C211 291 265 304 320 304C375 304 429 291 477 265C482 263 485 258 486 253L486 250C487 244 488 238 488 231C488 139 413 64 320 64C227 64 152 139 152 231C152 238 153 244 154 250L154 253ZM320 80C404 80 472 148 472 231C472 238 471 245 470 251C423 276 371 288 320 288C269 288 217 276 170 251C169 245 168 238 168 231C168 148 236 80 320 80ZM304 368C304 377 311 384 320 384S336 377 336 368C336 359 329 352 320 352S304 359 304 368ZM112 336C112 345 119 352 128 352S144 345 144 336C144 327 137 320 128 320S112 327 112 336ZM531 223C526 221 522 224 520 228C519 232 521 237 525 238C588 260 624 290 624 320C624 381 485 432 320 432S16 381 16 320C16 290 52 260 115 238C119 237 121 232 120 228C118 224 114 221 109 223C39 247 0 282 0 320C0 392 141 448 320 448S640 392 640 320C640 282 601 247 531 223Z"/></svg>