<svg xmlns="http://www.w3.org/2000/svg" viewBox="0 0 576 512"><!-- Font Awesome Pro 6.0.0-alpha1 by @fontawesome - https://fontawesome.com License - https://fontawesome.com/license (Commercial License) --><path d="M288 288C284 288 280 292 280 296V452C280 476 260 496 236 496S192 476 192 452V424C192 420 188 416 184 416S176 420 176 424V452C176 485 203 512 236 512S296 485 296 452V296C296 292 292 288 288 288ZM576 281C545 135 419 52 296 48C296 48 296 48 296 48V8C296 4 292 0 288 0S280 4 280 8V48C280 48 280 48 280 48C186 51 37 109 0 281C-1 288 4 296 11 296C13 296 16 295 19 292C41 269 64 256 87 256C118 256 149 278 178 329C180 334 184 336 187 336C191 336 195 334 197 329C218 294 242 256 288 256C346 256 376 325 379 329C381 334 385 336 389 336C392 336 396 334 398 329C427 278 458 256 489 256C512 256 535 269 557 292C560 295 563 296 565 296C572 296 577 288 576 281ZM489 240C452 240 419 265 389 314C363 266 328 240 288 240C234 240 205 284 187 314C158 265 124 240 87 240C65 240 42 250 19 269C62 107 212 64 288 64C393 64 520 128 557 270C534 250 511 240 489 240Z"/></svg>