<svg xmlns="http://www.w3.org/2000/svg" viewBox="0 0 448 512"><!-- Font Awesome Pro 6.0.0-alpha1 by @fontawesome - https://fontawesome.com License - https://fontawesome.com/license (Commercial License) --><path d="M8 16H72V264C72 348 140 416 224 416S376 348 376 264V16H440C444 16 448 12 448 8S444 0 440 0H296C292 0 288 4 288 8S292 16 296 16H360V264C360 339 299 400 224 400S88 339 88 264V16H152C156 16 160 12 160 8S156 0 152 0H8C4 0 0 4 0 8S4 16 8 16ZM440 496H8C4 496 0 500 0 504S4 512 8 512H440C444 512 448 508 448 504S444 496 440 496Z"/></svg>