<svg xmlns="http://www.w3.org/2000/svg" viewBox="0 0 512 512"><!-- Font Awesome Pro 6.0.0-alpha1 by @fontawesome - https://fontawesome.com License - https://fontawesome.com/license (Commercial License) --><path d="M256 184C282 184 304 162 304 136S282 88 256 88S208 110 208 136S230 184 256 184ZM256 104C274 104 288 118 288 136S274 168 256 168S224 154 224 136S238 104 256 104ZM256 16C123 16 16 123 16 256S123 496 256 496S496 389 496 256S389 16 256 16ZM256 480C132 480 32 380 32 256S132 32 256 32S480 132 480 256S380 480 256 480ZM365 184L339 194C286 213 226 213 173 194L147 184C143 183 138 185 136 189C135 193 137 198 141 200L167 209C183 214 199 218 216 221V311L184 405C183 410 185 414 189 416C194 417 198 415 200 410L230 320H282L312 411C314 414 317 416 320 416C321 416 322 416 323 416C327 414 329 410 328 405L296 311V221C313 218 329 214 345 209L371 200C375 198 377 194 376 189C374 185 369 183 365 184ZM280 304H232V223C240 224 248 224 256 224C264 224 272 224 280 223V304Z"/></svg>