<svg xmlns="http://www.w3.org/2000/svg" viewBox="0 0 448 512"><!-- Font Awesome Pro 6.0.0-alpha1 by @fontawesome - https://fontawesome.com License - https://fontawesome.com/license (Commercial License) --><path d="M384 224H112V128C112 66 162 16 224 16S336 66 336 128C336 132 340 136 344 136S352 132 352 128C352 57 295 0 224 0S96 57 96 128V224H64C29 224 0 253 0 288V448C0 483 29 512 64 512H384C419 512 448 483 448 448V288C448 253 419 224 384 224ZM432 448C432 474 410 496 384 496H64C38 496 16 474 16 448V288C16 262 38 240 64 240H384C410 240 432 262 432 288V448Z"/></svg>