<svg xmlns="http://www.w3.org/2000/svg" viewBox="0 0 512 512"><!-- Font Awesome Pro 6.0.0-alpha1 by @fontawesome - https://fontawesome.com License - https://fontawesome.com/license (Commercial License) --><path d="M492 0H379C356 0 342 28 360 45L408 93L298 202C295 205 295 211 298 214S307 217 310 214L419 104L467 152C484 170 512 155 512 133V20C512 9 503 0 492 0ZM496 133C496 142 485 148 478 141L371 34C364 27 370 16 379 16H492C494 16 496 18 496 20V133ZM20 512H133C156 512 170 484 152 467L104 419L214 310C217 307 217 301 214 298C212 297 210 296 208 296S204 297 202 298L128 373L93 408L46 360C28 342 0 357 0 379V492C0 503 9 512 20 512ZM16 379C16 370 27 364 34 371L141 478C148 485 142 496 133 496H20C18 496 16 494 16 492V379Z"/></svg>