<svg xmlns="http://www.w3.org/2000/svg" viewBox="0 0 384 512"><!-- Font Awesome Pro 6.0.0-alpha1 by @fontawesome - https://fontawesome.com License - https://fontawesome.com/license (Commercial License) --><path d="M8 48H376C380 48 384 44 384 40S380 32 376 32H8C4 32 0 36 0 40S4 48 8 48ZM56 320H128V448C128 466 142 480 160 480H224C242 480 256 466 256 448V320H328C338 320 346 314 350 305C354 297 352 286 345 279L209 135C205 130 198 128 192 128S179 130 175 135L39 279C32 286 30 297 34 305C38 314 46 320 56 320ZM50 290L186 146C187 145 190 144 192 144S197 145 198 146L334 290C336 293 337 296 335 299C334 302 331 304 328 304H240V448C240 457 233 464 224 464H160C151 464 144 457 144 448V304H56C53 304 50 302 49 299C47 296 48 293 50 290Z"/></svg>