<svg xmlns="http://www.w3.org/2000/svg" viewBox="0 0 384 512"><!-- Font Awesome Pro 6.0.0-alpha1 by @fontawesome - https://fontawesome.com License - https://fontawesome.com/license (Commercial License) --><path d="M256 448V256H352C365 256 377 248 382 236C383 232 384 228 384 224C384 216 381 207 375 201L215 41C208 35 200 32 192 32S176 35 169 41L9 201C3 207 0 216 0 224C0 228 1 232 2 236C7 248 19 256 32 256H128V448C128 466 142 480 160 480H224C242 480 256 466 256 448ZM160 464C151 464 144 457 144 448V240H32C26 240 20 236 17 230C16 228 16 226 16 224C16 220 18 216 21 213L181 53C184 50 188 48 192 48C196 48 200 50 203 53L363 213C366 216 368 220 368 224C368 226 368 228 367 230C364 236 358 240 352 240H240V448C240 457 233 464 224 464H160Z"/></svg>