<svg xmlns="http://www.w3.org/2000/svg" viewBox="0 0 512 512"><!-- Font Awesome Pro 6.0.0-alpha1 by @fontawesome - https://fontawesome.com License - https://fontawesome.com/license (Commercial License) --><path d="M480 350H328C324 350 320 353 320 358S324 366 328 366H480C489 366 496 373 496 382V478C496 486 489 494 480 494H32C23 494 16 486 16 478V382C16 373 23 366 32 366H184C188 366 192 362 192 358S188 350 184 350H32C14 350 0 364 0 382V478C0 495 14 510 32 510H480C498 510 512 495 512 478V382C512 364 498 350 480 350ZM464 430C464 412 450 398 432 398S400 412 400 430C400 447 414 462 432 462S464 447 464 430ZM416 430C416 421 423 414 432 414S448 421 448 430S441 446 432 446S416 438 416 430ZM110 163L248 25V406C248 410 252 414 256 414S264 410 264 406V25L402 163C405 166 411 166 414 163S417 155 414 152L262 0C259 -3 253 -3 250 0L98 152C97 154 96 156 96 158S97 162 98 163C101 166 107 166 110 163Z"/></svg>