<svg xmlns="http://www.w3.org/2000/svg" viewBox="0 0 640 512"><!-- Font Awesome Pro 6.0.0-alpha1 by @fontawesome - https://fontawesome.com License - https://fontawesome.com/license (Commercial License) --><path d="M224 256C295 256 352 199 352 128S295 0 224 0C153 0 96 57 96 128S153 256 224 256ZM224 16C286 16 336 66 336 128S286 240 224 240S112 190 112 128S162 16 224 16ZM416 496H41C27 496 16 485 16 472C16 388 87 320 175 320H273C299 320 325 326 348 338C352 340 357 339 359 335C361 331 360 326 356 324C330 311 302 304 273 304H175C79 304 0 379 0 472C0 494 19 512 41 512H416C420 512 424 508 424 504S420 496 416 496ZM631 365L540 275C528 263 512 256 495 256H416C398 256 384 270 384 288V367C384 384 391 400 403 412L493 503C499 509 507 512 515 512C524 512 532 509 538 503L630 410C643 398 643 377 631 365ZM619 399L527 491C524 494 520 496 515 496C511 496 507 494 504 491L414 401C405 392 400 380 400 367V288C400 279 407 272 416 272H495C508 272 520 277 529 286L619 376C622 379 624 383 624 387C624 392 622 396 619 399ZM448 304C439 304 432 311 432 320C432 329 439 336 448 336C457 336 464 329 464 320C464 311 457 304 448 304Z"/></svg>