<svg xmlns="http://www.w3.org/2000/svg" viewBox="0 0 640 512"><!-- Font Awesome Pro 6.0.0-alpha1 by @fontawesome - https://fontawesome.com License - https://fontawesome.com/license (Commercial License) --><path d="M617 331H565V279C565 266 555 256 542 256H482C469 256 459 266 459 279V331H407C394 331 384 341 384 354V414C384 427 394 437 407 437H459V489C459 502 469 512 482 512H542C555 512 565 502 565 489V437H617C630 437 640 427 640 414V354C640 341 630 331 617 331ZM624 414C624 418 621 421 617 421H549V489C549 493 546 496 542 496H482C478 496 475 493 475 489V421H407C403 421 400 418 400 414V354C400 350 403 347 407 347H475V279C475 275 478 272 482 272H542C546 272 549 275 549 279V347H617C621 347 624 350 624 354V414ZM288 320C345 320 392 273 392 216C392 159 345 112 288 112C230 112 184 159 184 216C184 273 230 320 288 320ZM288 128C336 128 376 167 376 216S336 304 288 304S200 265 200 216S239 128 288 128ZM168 296C168 292 164 288 160 288H23C19 288 16 284 16 280C16 240 46 208 83 208H128C133 208 138 209 142 210C146 211 151 208 152 204C153 199 150 195 146 194C140 193 134 192 128 192H83C37 192 0 231 0 280C0 293 10 304 23 304H160C164 304 168 300 168 296ZM124 496C118 496 112 491 112 485C112 421 169 368 238 368H338C343 368 347 369 352 369V354C352 354 352 354 352 353C347 353 343 352 338 352H238C160 352 96 412 96 485C96 500 109 512 124 512H432C430 507 428 502 428 496H124ZM112 160C156 160 192 124 192 80S156 0 112 0C68 0 32 36 32 80S68 160 112 160ZM112 16C147 16 176 45 176 80S147 144 112 144S48 115 48 80S77 16 112 16Z"/></svg>