<svg xmlns="http://www.w3.org/2000/svg" viewBox="0 0 448 512"><!-- Font Awesome Pro 6.0.0-alpha1 by @fontawesome - https://fontawesome.com License - https://fontawesome.com/license (Commercial License) --><path d="M315 352H133C60 352 0 412 0 485C0 500 12 512 27 512H421C436 512 448 500 448 485C448 412 388 352 315 352ZM421 496H27C21 496 16 491 16 485C16 421 69 368 133 368H315C379 368 432 421 432 485C432 491 427 496 421 496ZM64 176C64 86 139 13 230 16C317 19 384 93 384 180V216C384 265 345 304 296 304H267C272 296 274 288 270 277C264 264 251 256 237 256L209 256C193 256 178 268 176 285C174 304 189 320 208 320H296C353 320 400 273 400 216V180C400 85 326 4 231 0C131 -4 48 77 48 176V216C48 220 52 224 56 224H56C60 224 64 220 64 216V176ZM240 304H208C199 304 192 297 192 288S199 272 208 272H240C249 272 256 279 256 288S249 304 240 304ZM224 80C286 80 336 130 336 192C336 216 328 240 314 259C311 263 312 268 315 270C317 271 318 272 320 272C322 272 325 271 326 269C343 246 352 220 352 192C352 121 295 64 224 64S96 121 96 192C96 220 105 246 122 269C124 272 129 273 133 270C136 268 137 263 134 259C120 240 112 216 112 192C112 130 162 80 224 80Z"/></svg>