<svg xmlns="http://www.w3.org/2000/svg" viewBox="0 0 448 512"><!-- Font Awesome Pro 6.0.0-alpha1 by @fontawesome - https://fontawesome.com License - https://fontawesome.com/license (Commercial License) --><path d="M349 309C346 307 342 308 340 310L340 310C336 314 337 320 342 323C397 351 432 408 432 470C432 484 420 496 405 496H336V448C336 422 314 400 288 400H160C134 400 112 422 112 448V496H43C28 496 16 484 16 470C16 408 51 351 106 323C111 320 112 314 108 310C106 308 102 307 99 309C39 340 0 402 0 470C0 493 19 512 43 512H120C124 512 128 508 128 504V448C128 430 142 416 160 416H288C306 416 320 430 320 448V504C320 508 324 512 328 512H405C429 512 448 493 448 470C448 402 409 340 349 309ZM184 448C180 448 176 452 176 456V504C176 508 180 512 184 512S192 508 192 504V456C192 452 188 448 184 448ZM272 448C263 448 256 455 256 464S263 480 272 480S288 473 288 464S281 448 272 448ZM152 168H168V184C168 188 172 192 176 192S184 188 184 184V168H200C204 168 208 164 208 160S204 152 200 152H184V136C184 132 180 128 176 128S168 132 168 136V152H152C148 152 144 156 144 160S148 168 152 168ZM408 224C412 224 416 220 416 216V104C416 100 412 96 408 96S400 100 400 104V216C400 220 404 224 408 224ZM200 256H248C301 256 344 213 344 160V136C344 114 322 96 296 96H152C126 96 104 114 104 136V160C104 213 147 256 200 256ZM120 136C120 123 135 112 152 112H296C313 112 328 123 328 136V160C328 204 292 240 248 240H200C156 240 120 204 120 160V136ZM40 224C44 224 48 220 48 216V104C48 100 44 96 40 96S32 100 32 104V216C32 220 36 224 40 224ZM224 320C312 320 384 248 384 160S312 0 224 0S64 72 64 160S136 320 224 320ZM224 16C303 16 368 81 368 160S303 304 224 304S80 239 80 160S145 16 224 16Z"/></svg>