<svg xmlns="http://www.w3.org/2000/svg" viewBox="0 0 448 512"><!-- Font Awesome Pro 6.0.0-alpha1 by @fontawesome - https://fontawesome.com License - https://fontawesome.com/license (Commercial License) --><path d="M349 323C345 321 340 320 335 320C327 320 318 323 312 329L224 417L136 329C130 323 121 320 113 320C108 320 103 321 99 323C40 351 0 410 0 479C0 497 16 512 35 512H413C432 512 448 497 448 479C448 410 408 351 349 323ZM413 496H35C25 496 16 488 16 479C16 419 51 364 106 338C108 337 110 336 113 336C117 336 121 338 124 341L213 428C216 431 220 433 224 433C228 433 232 431 235 428L323 341C327 338 331 336 335 336C338 336 340 337 342 338C397 364 432 419 432 479C432 488 423 496 413 496ZM256 72H232V48C232 44 228 40 224 40S216 44 216 48V72H192C188 72 184 76 184 80S188 88 192 88H216V112C216 116 220 120 224 120S232 116 232 112V88H256C260 88 264 84 264 80S260 72 256 72ZM104 160H344C348 160 352 156 352 152V66C352 53 344 41 331 36L247 4C239 1 232 0 224 0S209 1 201 4L117 36C104 41 96 53 96 66V152C96 156 100 160 104 160ZM112 66C112 59 116 53 122 51L207 19C213 17 218 16 224 16C230 16 235 17 241 19L326 51C332 53 336 59 336 66V144H112V66ZM333 199C323 249 278 288 224 288C170 288 125 249 115 199C114 195 111 192 107 192C102 192 98 197 99 202C111 260 162 304 224 304S337 260 349 202C350 197 346 192 341 192C337 192 334 195 333 199Z"/></svg>