<svg xmlns="http://www.w3.org/2000/svg" viewBox="0 0 448 512"><!-- Font Awesome Pro 6.0.0-alpha1 by @fontawesome - https://fontawesome.com License - https://fontawesome.com/license (Commercial License) --><path d="M273 304H175C79 304 0 379 0 472C0 494 19 512 41 512H407C429 512 448 494 448 472C448 379 369 304 273 304ZM407 496H41C27 496 16 485 16 472C16 388 87 320 175 320H273C361 320 432 388 432 472C432 485 421 496 407 496ZM319 360C315 360 312 362 310 364C289 389 276 420 272 458C272 463 274 468 278 470C283 472 287 472 291 469C309 455 318 449 323 447C326 450 331 456 338 467C341 470 344 472 348 472L352 471C357 470 360 465 360 460C359 423 348 391 328 365C326 362 323 360 319 360ZM330 431L328 429L321 430C315 432 305 439 289 450C294 422 303 398 319 379C332 398 340 421 343 447C337 439 333 434 330 431ZM102 163C117 216 166 256 224 256C282 256 331 216 346 163C359 156 368 143 368 128V96C368 74 351 57 329 56C306 22 268 0 224 0C180 0 142 22 119 56C97 57 80 74 80 96V128C80 143 89 156 102 163ZM224 240C176 240 137 210 120 168H328C311 210 272 240 224 240ZM224 16C258 16 288 32 309 56H139C160 32 190 16 224 16ZM96 96C96 83 107 72 120 72H328C341 72 352 83 352 96V128C352 141 341 152 328 152H120C107 152 96 141 96 128V96ZM128 120H320C324 120 328 116 328 112S324 104 320 104H128C124 104 120 108 120 112S124 120 128 120Z"/></svg>