<svg xmlns="http://www.w3.org/2000/svg" viewBox="0 0 448 512"><!-- Font Awesome Pro 6.0.0-alpha1 by @fontawesome - https://fontawesome.com License - https://fontawesome.com/license (Commercial License) --><path d="M288 200C310 200 328 182 328 160S310 120 288 120S248 138 248 160S266 200 288 200ZM288 136C301 136 312 147 312 160S301 184 288 184S264 173 264 160S275 136 288 136ZM200 160C200 138 182 120 160 120S120 138 120 160S138 200 160 200S200 182 200 160ZM136 160C136 147 147 136 160 136S184 147 184 160S173 184 160 184S136 173 136 160ZM240 264H272C276 264 280 260 280 256S276 248 272 248H240C236 248 232 252 232 256S236 264 240 264ZM168 256C168 260 172 264 176 264H208C212 264 216 260 216 256S212 248 208 248H176C172 248 168 252 168 256ZM288 400H160C134 400 112 422 112 448V504C112 508 116 512 120 512S128 508 128 504V448C128 430 142 416 160 416H288C306 416 320 430 320 448V504C320 508 324 512 328 512S336 508 336 504V448C336 422 314 400 288 400ZM352 352H96C43 352 0 395 0 448V480C0 498 14 512 32 512H72C76 512 80 508 80 504S76 496 72 496H32C23 496 16 489 16 480V448C16 404 52 368 96 368H352C396 368 432 404 432 448V480C432 489 425 496 416 496H376C372 496 368 500 368 504S372 512 376 512H416C434 512 448 498 448 480V448C448 395 405 352 352 352ZM416 128H400C396 128 392 132 392 136S396 144 400 144H416C425 144 432 151 432 160V224C432 233 425 240 416 240H400C396 240 392 244 392 248S396 256 400 256H416C434 256 448 242 448 224V160C448 142 434 128 416 128ZM272 448C263 448 256 455 256 464S263 480 272 480S288 473 288 464S281 448 272 448ZM144 320H304C339 320 368 291 368 256V128C368 93 339 64 304 64H232V8C232 4 228 0 224 0S216 4 216 8V64H144C109 64 80 93 80 128V256C80 291 109 320 144 320ZM144 248H96V128C96 102 118 80 144 80H304C330 80 352 102 352 128V248H304C300 248 296 252 296 256S300 264 304 264H351C347 287 328 304 304 304H144C120 304 101 287 97 264H144C148 264 152 260 152 256S148 248 144 248ZM32 256H48C52 256 56 252 56 248S52 240 48 240H32C23 240 16 233 16 224V160C16 151 23 144 32 144H48C52 144 56 140 56 136S52 128 48 128H32C14 128 0 142 0 160V224C0 242 14 256 32 256ZM184 448C180 448 176 452 176 456V504C176 508 180 512 184 512S192 508 192 504V456C192 452 188 448 184 448Z"/></svg>