<svg xmlns="http://www.w3.org/2000/svg" viewBox="0 0 448 512"><!-- Font Awesome Pro 6.0.0-alpha1 by @fontawesome - https://fontawesome.com License - https://fontawesome.com/license (Commercial License) --><path d="M447 472C434 420 387 384 334 384H114C61 384 14 420 1 472C-4 492 11 512 32 512H416C437 512 452 492 447 472ZM416 496H32C22 496 14 486 17 476C28 431 68 400 114 400H334C380 400 420 431 431 476C434 487 426 496 416 496ZM111 124C112 124 112 125 113 125C116 125 120 122 121 118C135 53 155 16 174 16C181 16 188 19 195 24C213 38 237 38 254 24C262 19 269 16 275 16C295 16 315 53 329 118C330 122 334 125 338 124C343 123 345 119 344 114C328 38 304 0 275 0C265 0 255 4 245 12C233 21 217 21 205 12C195 4 185 0 174 0C145 0 122 39 105 115C104 119 107 123 111 124ZM224 181C396 181 446 109 447 108C449 104 448 100 444 97C441 95 436 96 433 99C433 100 384 165 224 165C64 165 15 100 15 99C12 96 7 95 3 97C0 100 -1 105 1 109C2 109 53 181 224 181ZM104 216C100 216 96 220 96 224C96 295 153 352 224 352S352 295 352 224C352 220 348 216 344 216S336 220 336 224C336 286 286 336 224 336S112 286 112 224V224C112 220 108 216 104 216Z"/></svg>