<svg xmlns="http://www.w3.org/2000/svg" viewBox="0 0 640 512"><!-- Font Awesome Pro 6.0.0-alpha1 by @fontawesome - https://fontawesome.com License - https://fontawesome.com/license (Commercial License) --><path d="M496 304C470 304 448 326 448 352S470 400 496 400S544 378 544 352S522 304 496 304ZM496 384C478 384 464 370 464 352S478 320 496 320S528 334 528 352S514 384 496 384ZM632 381L611 369C613 358 613 347 611 335L632 323C638 320 642 312 639 304C633 285 623 267 609 252C606 248 601 246 597 246C594 246 591 247 589 249L568 261C559 254 549 248 539 244V220C539 212 534 206 526 204C515 202 505 201 496 201C482 201 471 203 466 204C458 206 453 212 453 220V244C443 248 433 254 424 261L403 249C401 247 398 246 395 246H395C391 246 386 248 383 252C369 267 359 285 353 304C350 312 354 320 360 323L381 335C379 347 379 358 381 369L360 381C354 384 350 392 353 400C359 419 369 437 383 452C385 455 390 458 395 458C398 458 401 457 403 455L424 443C433 450 442 456 453 460V484C453 492 458 498 466 500C477 502 487 503 496 503C510 503 521 501 526 500C534 498 539 492 539 484V460C549 456 559 450 568 443L589 455C591 457 594 458 597 458C601 458 606 456 609 452C622 437 633 419 639 400C642 392 638 384 632 381ZM597 442L576 430L567 424L558 431C550 437 542 442 533 445L523 449V460L523 484C519 485 509 487 496 487C487 487 478 486 469 484V449L459 445C450 442 442 437 434 431L425 424L416 430L395 442C383 428 374 412 368 394L389 383L398 377L397 366C395 356 395 348 397 338L398 327L389 321L368 309C374 292 383 276 395 262L416 274L426 280L434 273C442 267 450 263 459 259L469 255V244L469 220C473 219 483 217 496 217C505 217 514 218 523 220V255L533 259C542 263 550 267 558 273L566 280L576 275L597 262C609 276 618 292 624 310L603 321L594 327L595 338C597 348 597 356 595 366L594 377L603 383L624 395C618 412 609 428 597 442ZM288 320C299 320 310 318 321 314C320 309 321 303 322 297C311 302 300 304 288 304C239 304 200 265 200 216S239 128 288 128S376 167 376 216C376 217 376 218 376 219C381 216 386 215 392 215C391 158 345 112 288 112C230 112 184 159 184 216C184 273 230 320 288 320ZM112 160C156 160 192 124 192 80S156 0 112 0C68 0 32 36 32 80S68 160 112 160ZM112 16C147 16 176 45 176 80S147 144 112 144S48 115 48 80S77 16 112 16ZM124 496C118 496 112 491 112 485C112 421 169 368 238 368H329C333 362 338 357 344 353L345 353C342 353 340 352 338 352H238C160 352 96 412 96 485C96 500 109 512 124 512H430C427 507 424 502 423 496H124ZM168 296C168 292 164 288 160 288H23C19 288 16 284 16 280C16 240 46 208 83 208H128C133 208 138 209 142 210C146 211 151 208 152 204C153 199 150 195 146 194C140 193 134 192 128 192H83C37 192 0 231 0 280C0 293 10 304 23 304H160C164 304 168 300 168 296Z"/></svg>