<svg xmlns="http://www.w3.org/2000/svg" viewBox="0 0 448 512"><!-- Font Awesome Pro 6.0.0-alpha1 by @fontawesome - https://fontawesome.com License - https://fontawesome.com/license (Commercial License) --><path d="M273 304H175C79 304 0 379 0 472C0 494 19 512 41 512H407C429 512 448 494 448 472C448 379 369 304 273 304ZM407 496H41C27 496 16 485 16 472C16 388 87 320 175 320H273C361 320 432 388 432 472C432 485 421 496 407 496ZM104 128H344C348 128 352 124 352 120V8C352 5 351 3 348 1C346 0 343 0 340 1L284 31L228 1C225 0 223 0 220 1L164 31L108 1C105 0 102 0 100 1C97 3 96 5 96 8V120C96 124 100 128 104 128ZM112 21L160 47C163 48 165 48 168 47L224 17L280 47C283 48 285 48 288 47L336 21V112H112V21ZM336 159C332 218 283 264 224 264S116 218 112 159C112 155 108 152 104 152C104 152 104 152 104 152C99 152 96 156 96 161C101 228 157 280 224 280S347 228 352 161C352 156 349 152 344 152C340 151 336 155 336 159Z"/></svg>