<svg xmlns="http://www.w3.org/2000/svg" viewBox="0 0 640 512"><!-- Font Awesome Pro 6.0.0-alpha1 by @fontawesome - https://fontawesome.com License - https://fontawesome.com/license (Commercial License) --><path d="M616 0H504C491 0 480 11 480 24V67C480 71 481 75 482 79L525 208L224 255C223 238 209 224 192 224H145L97 152C87 137 71 128 53 128C24 128 0 152 0 181V304C0 323 11 340 29 348C33 350 48 359 112 395L112 480C112 498 126 512 144 512S176 498 176 480V395C176 372 164 350 143 339L96 312V266L101 274C107 283 117 288 128 288H192C198 288 203 286 208 283V376V400V504C208 508 212 512 216 512S224 508 224 504V400H624V504C624 508 628 512 632 512S640 508 640 504V400V376V264V191V24C640 11 629 0 616 0ZM192 272H128C123 272 118 269 115 265L87 224C85 221 80 222 80 226V317C80 320 82 323 84 324L136 353C151 361 160 377 160 395V479C160 487 155 495 147 496C137 497 128 490 128 480V395C128 389 125 384 120 381C120 381 36 334 36 334C24 329 16 318 16 304V182C16 165 27 149 44 145C60 141 75 148 83 160L137 240H191C199 240 207 245 208 253C209 263 202 272 192 272ZM624 264V376V384H224V376V271L624 209V264ZM624 193L541 206L497 74C496 72 496 69 496 67V24C496 20 500 16 504 16H616C620 16 624 20 624 24V193ZM80 104C109 104 132 81 132 52C132 23 109 0 80 0S28 23 28 52C28 81 51 104 80 104ZM80 16C100 16 116 32 116 52C116 72 100 88 80 88S44 72 44 52C44 32 60 16 80 16ZM56 400C52 400 48 404 48 408V480C48 489 41 496 32 496C23 496 16 488 16 479V376C16 372 12 368 8 368S0 372 0 376V478C0 496 13 511 30 512C49 513 64 498 64 480V408C64 404 60 400 56 400ZM304 320C313 320 320 313 320 304C320 295 313 288 304 288S288 295 288 304C288 313 295 320 304 320Z"/></svg>