<svg xmlns="http://www.w3.org/2000/svg" viewBox="0 0 448 512"><!-- Font Awesome Pro 6.0.0-alpha1 by @fontawesome - https://fontawesome.com License - https://fontawesome.com/license (Commercial License) --><path d="M224 256C295 256 352 199 352 128S295 0 224 0C153 0 96 57 96 128S153 256 224 256ZM224 16C286 16 336 66 336 128C336 190 286 240 224 240S112 190 112 128C112 66 162 16 224 16ZM275 304H173C78 304 0 382 0 477C0 496 16 512 35 512H413C432 512 448 496 448 477C448 382 370 304 275 304ZM413 496H35C24 496 16 488 16 477C16 391 87 320 173 320H275C361 320 432 391 432 477C432 488 424 496 413 496Z"/></svg>