<svg xmlns="http://www.w3.org/2000/svg" viewBox="0 0 640 512"><!-- Font Awesome Pro 6.0.0-alpha1 by @fontawesome - https://fontawesome.com License - https://fontawesome.com/license (Commercial License) --><path d="M273 304H175C79 304 0 379 0 472C0 494 19 512 41 512H407C429 512 448 494 448 472C448 379 369 304 273 304ZM407 496H41C27 496 16 485 16 472C16 401 67 342 136 325V369C113 373 96 392 96 416C96 442 118 464 144 464S192 442 192 416C192 392 175 373 152 369V322C160 321 167 320 175 320H273C281 320 288 321 296 322V369C269 373 248 396 248 424V448C248 451 250 454 252 455L268 463C272 465 277 464 279 460C281 456 280 451 276 449L264 443V424C264 402 282 384 304 384S344 402 344 424V443L332 449C328 451 327 456 329 460C330 462 333 464 336 464C337 464 338 464 340 463L356 455C358 454 360 451 360 448V424C360 396 339 373 312 369V325C381 342 432 401 432 472C432 485 421 496 407 496ZM144 384C162 384 176 398 176 416S162 448 144 448S112 434 112 416S126 384 144 384ZM224 256C295 256 352 199 352 128S295 0 224 0C153 0 96 57 96 128S153 256 224 256ZM224 16C286 16 336 66 336 128S286 240 224 240S112 190 112 128S162 16 224 16ZM592 0H432C406 0 384 22 384 48V176C384 202 406 224 432 224H448V280C448 285 452 288 456 288C458 288 459 288 461 286L544 224H592C618 224 640 202 640 176V48C640 22 618 0 592 0ZM624 176C624 194 610 208 592 208H539L534 211L464 264V208H432C414 208 400 194 400 176V48C400 30 414 16 432 16H592C610 16 624 30 624 48V176Z"/></svg>