<svg xmlns="http://www.w3.org/2000/svg" viewBox="0 0 448 512"><!-- Font Awesome Pro 6.0.0-alpha1 by @fontawesome - https://fontawesome.com License - https://fontawesome.com/license (Commercial License) --><path d="M328 314C312 309 294 314 284 327L223 404L164 327C154 314 136 309 120 314C48 337 -1 401 0 474C0 495 19 512 41 512H407C429 512 448 495 448 474C449 401 400 337 328 314ZM41 496C28 496 16 486 16 474C15 408 59 350 125 329C140 325 150 335 151 337L273 496H41ZM407 496H293L233 417L297 337C303 329 313 326 323 329C389 350 433 408 432 474C432 486 420 496 407 496ZM34 181C35 183 38 184 40 184C42 184 43 183 45 182L98 143C105 206 158 256 224 256C295 256 352 199 352 128C352 57 295 0 224 0C158 0 105 50 98 113L45 74C41 71 36 72 34 75C31 79 32 84 35 86L91 128L35 170C32 172 31 177 34 181ZM224 16C283 16 331 62 335 120H312C312 98 294 80 272 80H176C154 80 136 98 136 120H113C117 62 165 16 224 16ZM296 120H152C152 107 163 96 176 96H272C285 96 296 107 296 120ZM335 136C331 194 283 240 224 240C165 240 117 194 113 136H335Z"/></svg>