<svg xmlns="http://www.w3.org/2000/svg" viewBox="0 0 448 512"><!-- Font Awesome Pro 6.0.0-alpha1 by @fontawesome - https://fontawesome.com License - https://fontawesome.com/license (Commercial License) --><path d="M252 256H276C309 256 336 229 336 196V188C336 181 331 176 324 176H300C267 176 240 203 240 236V244C240 251 245 256 252 256ZM256 236C256 212 276 192 300 192H320V196C320 220 300 240 276 240H256V236ZM196 256C203 256 208 251 208 244V236C208 203 181 176 148 176H124C117 176 112 181 112 188V196C112 229 139 256 172 256H196ZM128 196V192H148C172 192 192 212 192 236V240H172C148 240 128 220 128 196ZM207 378C212 382 218 384 224 384C230 384 236 382 241 378C283 346 384 260 384 174C384 66 312 0 224 0C136 0 64 66 64 174C64 260 165 346 207 378ZM224 16C309 16 368 81 368 174C368 254 264 341 232 365C229 367 227 368 224 368S219 367 216 365C184 341 80 254 80 174C80 81 139 16 224 16ZM317 352C312 352 308 355 308 360C308 364 312 368 316 368C381 370 432 419 432 480C432 489 424 496 414 496H34C24 496 16 489 16 480C16 419 67 370 132 368C136 368 140 364 140 360C140 355 135 352 131 352C58 355 0 411 0 480C0 498 15 512 34 512H414C433 512 448 498 448 480C448 411 390 355 317 352Z"/></svg>