<svg xmlns="http://www.w3.org/2000/svg" viewBox="0 0 640 512"><!-- Font Awesome Pro 6.0.0-alpha1 by @fontawesome - https://fontawesome.com License - https://fontawesome.com/license (Commercial License) --><path d="M131 496C120 496 112 488 112 477C112 391 183 320 269 320H285L265 304C171 307 96 383 96 477C96 496 112 512 131 512H509C514 512 519 511 523 509L506 496H131ZM320 16C382 16 432 66 432 128C432 165 414 197 387 217L400 227C429 204 448 168 448 128C448 57 391 0 320 0C269 0 226 30 205 73L218 83C235 43 274 16 320 16ZM637 498L13 2C12 1 10 0 8 0C6 0 3 1 2 3C-1 6 0 12 3 14L627 510C628 511 630 512 632 512C634 512 637 511 638 509C641 506 640 500 637 498Z"/></svg>