<svg xmlns="http://www.w3.org/2000/svg" viewBox="0 0 640 512"><!-- Font Awesome Pro 6.0.0-alpha1 by @fontawesome - https://fontawesome.com License - https://fontawesome.com/license (Commercial License) --><path d="M320 16C391 16 448 73 448 144C448 180 433 212 410 235L422 245C448 219 464 184 464 144C464 64 400 0 320 0C269 0 224 27 198 67L211 77C234 41 274 16 320 16ZM96 496C87 496 80 489 80 480C80 401 145 336 224 336H305L285 320H224C136 320 64 392 64 480C64 498 78 512 96 512H526L506 496H96ZM637 498L13 2C12 1 10 0 8 0C6 0 3 1 2 3C-1 6 0 12 3 14L627 510C629 511 630 512 632 512C634 512 637 511 638 509C641 506 640 500 637 498Z"/></svg>