<svg xmlns="http://www.w3.org/2000/svg" viewBox="0 0 640 512"><!-- Font Awesome Pro 6.0.0-alpha1 by @fontawesome - https://fontawesome.com License - https://fontawesome.com/license (Commercial License) --><path d="M224 256C295 256 352 199 352 128S295 0 224 0C153 0 96 57 96 128S153 256 224 256ZM224 16C286 16 336 66 336 128S286 240 224 240S112 190 112 128S162 16 224 16ZM273 304H175C79 304 0 379 0 472C0 494 19 512 41 512H407C429 512 448 494 448 472C448 379 369 304 273 304ZM407 496H41C27 496 16 485 16 472C16 388 87 320 175 320H273C361 320 432 388 432 472C432 485 421 496 407 496ZM638 146C635 143 629 143 626 146L504 269L446 210C443 207 437 207 434 210S431 219 434 222L498 286C500 287 502 288 504 288S508 287 510 286L638 158C641 155 641 149 638 146Z"/></svg>