<svg xmlns="http://www.w3.org/2000/svg" viewBox="0 0 512 512"><!-- Font Awesome Pro 6.0.0-alpha1 by @fontawesome - https://fontawesome.com License - https://fontawesome.com/license (Commercial License) --><path d="M352 320H160C72 320 0 392 0 480C0 498 14 512 32 512H480C498 512 512 498 512 480C512 392 440 320 352 320ZM480 496H32C23 496 16 489 16 480C16 401 81 336 160 336H352C431 336 496 401 496 480C496 489 489 496 480 496ZM256 288C336 288 400 224 400 144S336 0 256 0C176 0 112 64 112 144S176 288 256 288ZM256 16C327 16 384 73 384 144C384 215 327 272 256 272C185 272 128 215 128 144C128 73 185 16 256 16Z"/></svg>