<svg xmlns="http://www.w3.org/2000/svg" viewBox="0 0 640 512"><!-- Font Awesome Pro 6.0.0-alpha1 by @fontawesome - https://fontawesome.com License - https://fontawesome.com/license (Commercial License) --><path d="M557 192H480C474 192 468 193 462 194C458 195 455 199 456 204C457 208 461 211 466 210C470 209 475 208 480 208H557C594 208 624 240 624 280C624 284 621 288 617 288H448C444 288 440 292 440 296S444 304 448 304H617C630 304 640 293 640 280C640 231 603 192 557 192ZM512 160C556 160 592 124 592 80S556 0 512 0C468 0 432 36 432 80S468 160 512 160ZM512 16C547 16 576 45 576 80S547 144 512 144S448 115 448 80S477 16 512 16ZM128 160C172 160 208 124 208 80S172 0 128 0C84 0 48 36 48 80S84 160 128 160ZM128 16C163 16 192 45 192 80S163 144 128 144S64 115 64 80S93 16 128 16ZM200 296C200 292 196 288 192 288H23C19 288 16 284 16 280C16 240 46 208 83 208H160C165 208 170 209 174 210C178 211 183 208 184 204C185 199 182 195 178 194C172 193 166 192 160 192H83C37 192 0 231 0 280C0 293 10 304 23 304H192C196 304 200 300 200 296ZM320 320C377 320 424 273 424 216C424 159 377 112 320 112C262 112 216 159 216 216C216 273 262 320 320 320ZM320 128C368 128 408 167 408 216S368 304 320 304S232 265 232 216S271 128 320 128ZM370 352H270C192 352 128 412 128 485C128 500 141 512 156 512H484C499 512 512 500 512 485C512 412 448 352 370 352ZM484 496H156C150 496 144 491 144 485C144 421 201 368 270 368H370C439 368 496 421 496 485C496 491 490 496 484 496Z"/></svg>