<svg xmlns="http://www.w3.org/2000/svg" viewBox="0 0 640 512"><!-- Font Awesome Pro 6.0.0-alpha1 by @fontawesome - https://fontawesome.com License - https://fontawesome.com/license (Commercial License) --><path d="M368 352C324 352 288 388 288 432S324 512 368 512C412 512 448 476 448 432S412 352 368 352ZM368 496C333 496 304 467 304 432S333 368 368 368C403 368 432 397 432 432S403 496 368 496ZM640 112C640 50 590 0 528 0H335C270 0 216 44 202 106L130 432H56C25 432 0 457 0 488C0 501 11 512 24 512H176C189 512 200 501 200 488V456C200 443 189 432 176 432H146L218 110C230 55 278 16 335 16H528C581 16 624 59 624 112C624 157 593 196 549 206C519 159 467 128 408 128H392C370 128 352 146 352 168V320C352 324 356 328 360 328S368 324 368 320V168C368 155 379 144 392 144H408C492 144 560 212 560 296V472C560 485 549 496 536 496H448C444 496 440 500 440 504S444 512 448 512H536C558 512 576 494 576 472V296C576 268 569 243 557 220C605 207 640 163 640 112ZM176 448C180 448 184 452 184 456V488C184 492 180 496 176 496H24C20 496 16 492 16 488C16 466 34 448 56 448H176Z"/></svg>