<svg xmlns="http://www.w3.org/2000/svg" viewBox="0 0 448 512"><!-- Font Awesome Pro 6.0.0-alpha1 by @fontawesome - https://fontawesome.com License - https://fontawesome.com/license (Commercial License) --><path d="M384 128H416C434 128 448 114 448 96V64C448 46 434 32 416 32H384C366 32 352 46 352 64V72H96V64C96 46 82 32 64 32H32C14 32 0 46 0 64V96C0 114 14 128 32 128H40V384H32C14 384 0 398 0 416V448C0 466 14 480 32 480H64C82 480 96 466 96 448V440H352V448C352 466 366 480 384 480H416C434 480 448 466 448 448V416C448 398 434 384 416 384H384C382 384 381 385 380 385L323 297C331 291 336 282 336 272V240C336 230 331 221 323 215L379 127C381 127 382 128 384 128ZM368 64C368 55 375 48 384 48H416C425 48 432 55 432 64V96C432 105 425 112 416 112H384C375 112 368 105 368 96V64ZM32 112C23 112 16 105 16 96V64C16 55 23 48 32 48H64C73 48 80 55 80 64V96C80 105 73 112 64 112H32ZM80 448C80 457 73 464 64 464H32C23 464 16 457 16 448V416C16 407 23 400 32 400H64C73 400 80 407 80 416V448ZM416 400C425 400 432 407 432 416V448C432 457 425 464 416 464H384C375 464 368 457 368 448V416C368 407 375 400 384 400H416ZM320 240V272C320 281 313 288 304 288H272C263 288 256 281 256 272V240C256 231 263 224 272 224H304C313 224 320 231 320 240ZM308 209C307 209 306 208 304 208H272C254 208 240 222 240 240V272C240 290 254 304 272 304H304C306 304 307 303 308 303L365 391C357 397 352 406 352 416V424H96V416C96 398 82 384 64 384H56V128H64C82 128 96 114 96 96V88H352V96C352 106 357 115 365 121L308 209Z"/></svg>