<svg xmlns="http://www.w3.org/2000/svg" viewBox="0 0 512 512"><!-- Font Awesome Pro 6.0.0-alpha1 by @fontawesome - https://fontawesome.com License - https://fontawesome.com/license (Commercial License) --><path d="M480 208H466C448 127 385 64 304 46V32C304 14 290 0 272 0H240C222 0 208 14 208 32V46C127 64 64 127 46 208H32C14 208 0 222 0 240V272C0 290 14 304 32 304H46C64 385 127 448 208 466V480C208 498 222 512 240 512H272C290 512 304 498 304 480V466C385 448 448 385 466 304H480C498 304 512 290 512 272V240C512 222 498 208 480 208ZM224 32C224 23 231 16 240 16H272C281 16 288 23 288 32V64C288 73 281 80 272 80H240C231 80 224 73 224 64V32ZM32 288C23 288 16 281 16 272V240C16 231 23 224 32 224H64C73 224 80 231 80 240V272C80 281 73 288 64 288H32ZM288 480C288 489 281 496 272 496H240C231 496 224 489 224 480V448C224 439 231 432 240 432H272C281 432 288 439 288 448V480ZM304 450V448C304 430 290 416 272 416H240C222 416 208 430 208 448V450C136 432 80 376 62 304H64C82 304 96 290 96 272V240C96 222 82 208 64 208H62C80 136 136 80 208 62V64C208 82 222 96 240 96H272C290 96 304 82 304 64V62C376 80 432 136 450 208H448C430 208 416 222 416 240V272C416 290 430 304 448 304H450C432 376 376 432 304 450ZM496 272C496 281 489 288 480 288H448C439 288 432 281 432 272V240C432 231 439 224 448 224H480C489 224 496 231 496 240V272Z"/></svg>