<svg xmlns="http://www.w3.org/2000/svg" viewBox="0 0 640 512"><!-- Font Awesome Pro 6.0.0-alpha1 by @fontawesome - https://fontawesome.com License - https://fontawesome.com/license (Commercial License) --><path d="M264 408H184V352C277 347 352 270 352 176C352 79 273 0 176 0S0 79 0 176C0 270 75 347 168 352V408H88C84 408 80 412 80 416S84 424 88 424H168V504C168 508 172 512 176 512S184 508 184 504V424H264C268 424 272 420 272 416S268 408 264 408ZM176 336C88 336 16 264 16 176S88 16 176 16S336 88 336 176S264 336 176 336ZM632 0H488C484 0 480 4 480 8S484 16 488 16H613L518 110C487 82 446 64 400 64C394 64 389 64 383 65C379 65 376 69 376 73C376 78 380 81 385 81C390 80 395 80 400 80C488 80 560 152 560 240S488 400 400 400C361 400 323 386 293 359C290 356 285 357 282 360C279 363 279 368 283 371C315 400 357 416 400 416C497 416 576 337 576 240C576 194 558 153 530 122L624 27V152C624 156 628 160 632 160S640 156 640 152V8C640 4 636 0 632 0Z"/></svg>