<svg xmlns="http://www.w3.org/2000/svg" viewBox="0 0 576 512"><!-- Font Awesome Pro 6.0.0-alpha1 by @fontawesome - https://fontawesome.com License - https://fontawesome.com/license (Commercial License) --><path d="M336 64H48C22 64 0 86 0 112V400C0 426 22 448 48 448H336C362 448 384 426 384 400V112C384 86 362 64 336 64ZM368 400C368 418 354 432 336 432H48C30 432 16 418 16 400V112C16 94 30 80 48 80H336C354 80 368 94 368 112V400ZM556 100C543 94 527 95 516 103L420 167C416 169 415 174 417 178C420 181 425 182 428 180L525 116C532 111 541 111 548 115C556 119 560 126 560 134V378C560 386 556 393 548 397C541 401 532 401 525 396L428 332C425 330 420 331 417 334C415 338 416 343 420 345L516 409C522 414 530 416 538 416C544 416 550 414 556 411C568 405 576 392 576 378V134C576 120 568 107 556 100ZM280 248H200V168C200 164 196 160 192 160S184 164 184 168V248H104C100 248 96 252 96 256S100 264 104 264H184V344C184 348 188 352 192 352S200 348 200 344V264H280C284 264 288 260 288 256S284 248 280 248Z"/></svg>