<svg xmlns="http://www.w3.org/2000/svg" viewBox="0 0 640 512"><!-- Font Awesome Pro 6.0.0-alpha1 by @fontawesome - https://fontawesome.com License - https://fontawesome.com/license (Commercial License) --><path d="M460 180L557 116C564 111 573 111 580 115C588 119 592 126 592 134V378C592 379 592 379 591 380L605 391C607 387 608 383 608 378V134C608 120 600 107 588 100C575 94 559 95 548 103L452 167C448 169 447 174 449 178C452 181 457 182 460 180ZM368 80C386 80 400 94 400 112V228L416 240V112C416 86 395 64 368 64H194L214 80H368ZM368 432H80C62 432 48 418 48 400V132L32 119V400C32 426 54 448 80 448H368C387 448 404 437 411 420L398 410C394 423 382 432 368 432ZM637 498L13 2C12 1 10 0 8 0C6 0 3 1 2 3C-1 6 0 12 3 14L627 510C629 511 630 512 632 512C634 512 637 511 638 509C641 506 640 500 637 498Z"/></svg>