<svg xmlns="http://www.w3.org/2000/svg" viewBox="0 0 576 512"><!-- Font Awesome Pro 6.0.0-alpha1 by @fontawesome - https://fontawesome.com License - https://fontawesome.com/license (Commercial License) --><path d="M280 160H152C148 160 144 164 144 168S148 176 152 176H261L98 338C95 341 95 347 98 350S107 353 110 350L272 187V296C272 300 276 304 280 304S288 300 288 296V168C288 164 284 160 280 160ZM556 100C543 94 527 95 516 103L420 167C416 169 415 174 417 178C420 181 425 182 428 180L525 116C532 111 541 111 548 115C556 119 560 126 560 134V378C560 386 556 393 548 397C541 401 532 401 525 396L428 332C425 330 420 331 417 334C415 338 416 343 420 345L516 409C522 414 530 416 538 416C544 416 550 414 556 411C568 405 576 392 576 378V134C576 120 568 107 556 100ZM336 64H48C22 64 0 86 0 112V400C0 426 22 448 48 448H336C362 448 384 426 384 400V112C384 86 362 64 336 64ZM368 400C368 418 354 432 336 432H48C30 432 16 418 16 400V112C16 94 30 80 48 80H336C354 80 368 94 368 112V400Z"/></svg>