<svg xmlns="http://www.w3.org/2000/svg" viewBox="0 0 640 512"><!-- Font Awesome Pro 6.0.0-alpha1 by @fontawesome - https://fontawesome.com License - https://fontawesome.com/license (Commercial License) --><path d="M644 409L552 347V292L612 262C614 261 616 258 616 255S614 249 612 248L488 186V130L518 101C520 99 520 96 520 94S518 89 516 88L324 -8C321 -9 319 -9 316 -8L124 88C122 89 121 91 120 94S121 99 122 101L152 130V186L28 248C26 249 24 252 24 255S26 261 28 262L88 292V347L-4 409C-7 410 -8 413 -8 416C-8 419 -6 421 -4 422L56 452V503C56 508 60 511 64 511S72 508 72 503V455H312V503C312 508 316 511 320 511S328 508 328 503V455H568V503C568 508 572 511 576 511S584 508 584 503V452L644 422C646 421 648 418 648 416C648 413 647 410 644 409ZM104 295H536V343H104V295ZM168 135H472V183H168V135ZM320 8L499 97L477 119H163L142 97L320 8ZM162 199H478L590 255L542 279H98L50 255L162 199ZM574 439H66L16 414L98 359H542L624 414L574 439Z"/></svg>