<svg xmlns="http://www.w3.org/2000/svg" viewBox="0 0 640 512"><!-- Font Awesome Pro 6.0.0-alpha1 by @fontawesome - https://fontawesome.com License - https://fontawesome.com/license (Commercial License) --><path d="M144 160C100 160 64 196 64 240S100 320 144 320C188 320 224 284 224 240S188 160 144 160ZM144 304C109 304 80 275 80 240S109 176 144 176C179 176 208 205 208 240S179 304 144 304ZM496 96C417 96 352 161 352 240C352 296 385 344 431 368H209C255 344 288 296 288 240C288 161 223 96 144 96S0 161 0 240S65 384 144 384H496C575 384 640 319 640 240S575 96 496 96ZM16 240C16 169 73 112 144 112S272 169 272 240S215 368 144 368S16 311 16 240ZM496 368C425 368 368 311 368 240S425 112 496 112S624 169 624 240S567 368 496 368ZM496 160C452 160 416 196 416 240S452 320 496 320C540 320 576 284 576 240S540 160 496 160ZM496 304C461 304 432 275 432 240S461 176 496 176C531 176 560 205 560 240S531 304 496 304Z"/></svg>