<svg xmlns="http://www.w3.org/2000/svg" viewBox="0 0 512 512"><!-- Font Awesome Pro 6.0.0-alpha1 by @fontawesome - https://fontawesome.com License - https://fontawesome.com/license (Commercial License) --><path d="M256 16C123 16 16 123 16 256C16 389 123 496 256 496C389 496 496 389 496 256C496 123 389 16 256 16ZM256 32C264 32 271 32 278 33C391 135 375 258 370 284C315 279 275 258 264 252C264 229 260 129 174 48C199 38 227 32 256 32ZM32 256C32 168 83 92 158 55C184 79 203 104 216 129C186 140 81 188 42 323C36 302 32 279 32 256ZM52 348C84 200 198 152 223 143C246 194 248 238 248 251C229 262 145 316 117 432C89 409 67 381 52 348ZM256 480C210 480 167 466 131 442C139 407 151 378 166 354C185 370 250 418 346 418C369 418 394 415 420 408C379 452 321 480 256 480ZM437 387C293 433 195 358 175 341C207 295 244 272 256 265C270 274 322 301 395 301C420 301 448 297 477 288C472 325 458 358 437 387ZM386 285C392 254 402 139 305 38C405 60 480 149 480 256C480 261 480 266 479 271C446 282 414 286 386 285Z"/></svg>