<svg xmlns="http://www.w3.org/2000/svg" viewBox="0 0 640 512"><!-- Font Awesome Pro 6.0.0-alpha1 by @fontawesome - https://fontawesome.com License - https://fontawesome.com/license (Commercial License) --><path d="M136 376C140 376 144 372 144 368V72C144 59 155 48 168 48H472C485 48 496 59 496 72V368C496 372 500 376 504 376S512 372 512 368V72C512 50 494 32 472 32H168C146 32 128 50 128 72V368C128 372 132 376 136 376ZM600 320H552C548 320 544 324 544 328S548 336 552 336H600C613 336 624 347 624 360V440C624 453 613 464 600 464H40C27 464 16 453 16 440V360C16 347 27 336 40 336H88C92 336 96 332 96 328S92 320 88 320H40C18 320 0 338 0 360V440C0 462 18 480 40 480H600C622 480 640 462 640 440V360C640 338 622 320 600 320ZM64 408C64 412 68 416 72 416H568C572 416 576 412 576 408S572 400 568 400H72C68 400 64 404 64 408ZM288 296C290 296 292 295 294 294L422 166C425 163 425 157 422 154S413 151 410 154L288 277L230 218C227 215 221 215 218 218S215 227 218 230L282 294C284 295 286 296 288 296Z"/></svg>