<svg xmlns="http://www.w3.org/2000/svg" viewBox="0 0 640 512"><!-- Font Awesome Pro 6.0.0-alpha1 by @fontawesome - https://fontawesome.com License - https://fontawesome.com/license (Commercial License) --><path d="M560 248H80C67 248 56 259 56 272V304C56 308 60 312 64 312S72 308 72 304V272C72 267 75 264 80 264H560C565 264 568 267 568 272V304C568 308 572 312 576 312S584 308 584 304V272C584 259 573 248 560 248ZM176 288C114 288 64 338 64 400S114 512 176 512S288 462 288 400S238 288 176 288ZM168 495C122 491 85 454 81 408H168V495ZM168 392H81C85 346 122 309 168 305V392ZM184 495V408H271C267 454 230 491 184 495ZM184 392V305C230 309 267 346 271 392H184ZM464 288C402 288 352 338 352 400S402 512 464 512S576 462 576 400S526 288 464 288ZM456 495C410 491 373 454 369 408H456V495ZM456 392H369C373 346 410 309 456 305V392ZM472 495V408H559C555 454 518 491 472 495ZM472 392V305C518 309 555 346 559 392H472ZM561 0C528 0 495 5 463 15L392 37C390 16 373 0 352 0H288C267 0 250 16 248 37L177 15C145 5 112 0 79 0C36 0 0 36 0 79C0 91 3 104 8 115L65 228C67 232 72 233 76 231C80 229 81 224 79 220L23 107C18 99 16 89 16 79C16 44 44 16 79 16C111 16 142 21 172 30L248 54V224C248 228 252 232 256 232S264 228 264 224V40C264 27 275 16 288 16H352C365 16 376 27 376 40V224C376 228 380 232 384 232S392 228 392 224V54L468 30C498 21 529 16 561 16C596 16 624 44 624 79C624 89 622 99 617 107L561 220C559 224 560 229 564 231C566 232 567 232 568 232C571 232 574 230 575 228L632 115C637 104 640 91 640 79C640 36 604 0 561 0Z"/></svg>