<svg xmlns="http://www.w3.org/2000/svg" viewBox="0 0 384 512"><!-- Font Awesome Pro 6.0.0-alpha1 by @fontawesome - https://fontawesome.com License - https://fontawesome.com/license (Commercial License) --><path d="M328 96V80C328 67 317 56 304 56H272C259 56 248 67 248 80V96H232V80C232 67 221 56 208 56H176C163 56 152 67 152 80V96H96V8C96 4 92 0 88 0S80 4 80 8V96H56C34 96 16 114 16 136V289C16 311 26 332 43 345L56 356V472C56 494 74 512 96 512H288C310 512 328 494 328 472V356L341 345C358 332 368 311 368 289V136C368 114 350 96 328 96ZM264 80C264 76 268 72 272 72H304C308 72 312 76 312 80V96H264V80ZM168 80C168 76 172 72 176 72H208C212 72 216 76 216 80V96H168V80ZM352 289C352 306 344 322 331 333L315 346C313 347 312 350 312 352V472C312 485 301 496 288 496H96C83 496 72 485 72 472V352C72 350 71 347 69 346L53 333C40 322 32 306 32 289V136C32 123 43 112 56 112H328C341 112 352 123 352 136V289ZM280 160H104C100 160 96 164 96 168S100 176 104 176H280C284 176 288 172 288 168S284 160 280 160ZM280 224H104C100 224 96 228 96 232S100 240 104 240H280C284 240 288 236 288 232S284 224 280 224ZM280 288H104C100 288 96 292 96 296S100 304 104 304H280C284 304 288 300 288 296S284 288 280 288Z"/></svg>