<svg xmlns="http://www.w3.org/2000/svg" viewBox="0 0 512 512"><!-- Font Awesome Pro 6.0.0-alpha1 by @fontawesome - https://fontawesome.com License - https://fontawesome.com/license (Commercial License) --><path d="M440 112H72C68 112 64 116 64 120S68 128 72 128H440C471 128 496 153 496 184V408C496 439 471 464 440 464H72C41 464 16 439 16 408V104C16 73 41 48 72 48H472C476 48 480 44 480 40S476 32 472 32H72C32 32 0 64 0 104V408C0 448 32 480 72 480H440C480 480 512 448 512 408V184C512 144 480 112 440 112ZM440 296C440 274 422 256 400 256S360 274 360 296S378 336 400 336S440 318 440 296ZM376 296C376 283 387 272 400 272S424 283 424 296S413 320 400 320S376 309 376 296Z"/></svg>