<svg xmlns="http://www.w3.org/2000/svg" viewBox="0 0 512 512"><!-- Font Awesome Pro 6.0.0-alpha1 by @fontawesome - https://fontawesome.com License - https://fontawesome.com/license (Commercial License) --><path d="M503 9C497 3 489 0 481 0C473 0 466 3 460 8L187 256H144C135 256 128 263 128 272V309L11 415C-3 427 -4 448 9 461L51 503C57 509 65 512 73 512C82 512 91 508 97 502L376 192H400C409 192 416 185 416 176V148L504 52C515 40 515 21 503 9ZM492 42L404 137L400 142V148L400 176H369L364 181L85 491C82 494 78 496 73 496C69 496 65 494 62 491L21 450C17 447 16 443 16 438S18 430 21 427L139 321L144 316V309L144 272H193L197 268L470 20C473 17 477 16 481 16C485 16 489 18 491 20C497 26 498 36 492 42Z"/></svg>