<svg xmlns="http://www.w3.org/2000/svg" viewBox="0 0 576 512"><!-- Font Awesome Pro 6.0.0-alpha1 by @fontawesome - https://fontawesome.com License - https://fontawesome.com/license (Commercial License) --><path d="M40 136H88V184C88 188 92 192 96 192S104 188 104 184V136H152C156 136 160 132 160 128S156 120 152 120H104V72C104 67 100 64 96 64S88 67 88 72V120H40C36 120 32 124 32 128S36 136 40 136ZM184 72H216V104C216 108 220 112 224 112S232 108 232 104V72H264C268 72 272 68 272 64S268 56 264 56H232V24C232 19 228 16 224 16S216 19 216 24V56H184C180 56 176 59 176 64S180 72 184 72ZM536 376H488V328C488 324 484 320 480 320S472 324 472 328V376H424C420 376 416 380 416 384S420 392 424 392H472V440C472 444 476 448 480 448S488 444 488 440V392H536C540 392 544 388 544 384S540 376 536 376ZM533 39L505 11C497 4 487 0 477 0C467 0 457 4 450 11L43 418C28 433 28 458 43 473L71 501C79 508 89 512 99 512C109 512 119 508 126 501L533 94C548 79 548 54 533 39ZM115 489C110 494 105 496 99 496S87 494 82 489L55 462C46 453 46 438 55 429L316 168L376 228L115 489ZM521 83L388 216L328 156L461 23C466 18 471 16 477 16C484 16 489 18 494 23L521 50C530 59 530 74 521 83Z"/></svg>