<svg xmlns="http://www.w3.org/2000/svg" viewBox="0 0 640 512"><!-- Font Awesome Pro 6.0.0-alpha1 by @fontawesome - https://fontawesome.com License - https://fontawesome.com/license (Commercial License) --><path d="M614 112L323 0C321 -1 319 -1 317 0L26 112C10 118 0 133 0 149V503C0 508 4 511 8 511S16 508 16 503V149C16 140 22 131 31 127L320 16L609 127C618 131 624 140 624 149V503C624 508 628 511 632 511S640 508 640 503V149C640 133 630 118 614 112ZM520 191H120C107 191 96 202 96 215V503C96 508 100 511 104 511S112 508 112 503V215C112 211 116 207 120 207H520C524 207 528 211 528 215V503C528 508 532 511 536 511S544 508 544 503V215C544 202 533 191 520 191ZM280 415H168C155 415 144 426 144 439V487C144 501 155 511 168 511H280C293 511 304 501 304 487V439C304 426 293 415 280 415ZM288 487C288 492 284 495 280 495H168C164 495 160 492 160 487V439C160 435 164 431 168 431H280C284 431 288 435 288 439V487ZM280 287H168C155 287 144 298 144 311V359C144 373 155 383 168 383H280C293 383 304 373 304 359V311C304 298 293 287 280 287ZM288 359C288 364 284 367 280 367H168C164 367 160 364 160 359V311C160 307 164 303 168 303H280C284 303 288 307 288 311V359ZM472 415H360C347 415 336 426 336 439V487C336 501 347 511 360 511H472C485 511 496 501 496 487V439C496 426 485 415 472 415ZM480 487C480 492 476 495 472 495H360C356 495 352 492 352 487V439C352 435 356 431 360 431H472C476 431 480 435 480 439V487Z"/></svg>