<svg xmlns="http://www.w3.org/2000/svg" viewBox="0 0 448 512"><!-- Font Awesome Pro 6.0.0-alpha1 by @fontawesome - https://fontawesome.com License - https://fontawesome.com/license (Commercial License) --><path d="M160 112C169 112 176 105 176 96C176 87 169 80 160 80S144 87 144 96C144 105 151 112 160 112ZM112 96C112 87 105 80 96 80S80 87 80 96C80 105 87 112 96 112S112 105 112 96ZM384 0H64C29 0 0 29 0 64V448C0 483 29 512 64 512H384C419 512 448 483 448 448V64C448 29 419 0 384 0ZM432 448C432 474 410 496 384 496H64C38 496 16 474 16 448V64C16 38 38 16 64 16H384C410 16 432 38 432 64V448ZM224 168C149 168 88 229 88 304S149 440 224 440S360 379 360 304S299 168 224 168ZM224 424C164 424 114 379 106 321C130 328 156 322 175 304C202 330 246 330 273 304C287 317 305 324 323 324C329 324 336 323 342 321C334 379 284 424 224 424ZM279 287C278 285 275 284 273 284C271 284 268 285 267 287C256 300 240 308 224 308C208 308 192 300 181 287C180 285 177 284 175 284C175 284 175 284 175 284C173 284 170 285 169 287C152 307 126 313 104 303C105 237 158 184 224 184C290 184 343 237 344 303C322 313 296 307 279 287Z"/></svg>