<svg xmlns="http://www.w3.org/2000/svg" viewBox="0 0 384 512"><!-- Font Awesome Pro 6.0.0-alpha1 by @fontawesome - https://fontawesome.com License - https://fontawesome.com/license (Commercial License) --><path d="M192 64C86 64 0 150 0 256S86 448 192 448S384 362 384 256S298 64 192 64ZM192 432C95 432 16 353 16 256S95 80 192 80S368 159 368 256S289 432 192 432ZM200 252V160C200 156 196 152 192 152S184 156 184 160V256C184 259 185 261 187 262L251 310C253 311 254 312 256 312C258 312 261 311 262 309C265 305 264 300 261 298L200 252ZM72 80C76 80 80 76 80 72V40C80 27 91 16 104 16H280C293 16 304 27 304 40V72C304 76 308 80 312 80S320 76 320 72V40C320 18 302 0 280 0H104C82 0 64 18 64 40V72C64 76 68 80 72 80ZM312 432C308 432 304 436 304 440V472C304 485 293 496 280 496H104C91 496 80 485 80 472V440C80 436 76 432 72 432S64 436 64 440V472C64 494 82 512 104 512H280C302 512 320 494 320 472V440C320 436 316 432 312 432Z"/></svg>