<svg xmlns="http://www.w3.org/2000/svg" viewBox="0 0 384 512"><!-- Font Awesome Pro 6.0.0-alpha1 by @fontawesome - https://fontawesome.com License - https://fontawesome.com/license (Commercial License) --><path d="M312 448C308 448 304 452 304 456V472C304 485 293 496 280 496H104C91 496 80 485 80 472V456C80 452 76 448 72 448S64 452 64 456V472C64 494 82 512 104 512H280C302 512 320 494 320 472V456C320 452 316 448 312 448ZM312 80H72C32 80 0 112 0 152V360C0 400 32 432 72 432H312C352 432 384 400 384 360V152C384 112 352 80 312 80ZM368 360C368 391 343 416 312 416H72C41 416 16 391 16 360V152C16 121 41 96 72 96H312C343 96 368 121 368 152V360ZM72 64C76 64 80 60 80 56V40C80 27 91 16 104 16H280C293 16 304 27 304 40V56C304 60 308 64 312 64S320 60 320 56V40C320 18 302 0 280 0H104C82 0 64 18 64 40V56C64 60 68 64 72 64ZM288 128H96C78 128 64 142 64 160S78 192 96 192H288C306 192 320 178 320 160S306 128 288 128ZM288 176H96C87 176 80 169 80 160S87 144 96 144H288C297 144 304 151 304 160S297 176 288 176ZM112 320H80C71 320 64 327 64 336V368C64 377 71 384 80 384H112C121 384 128 377 128 368V336C128 327 121 320 112 320ZM112 368H80V336H112V368ZM208 320H176C167 320 160 327 160 336V368C160 377 167 384 176 384H208C217 384 224 377 224 368V336C224 327 217 320 208 320ZM208 368H176V336H208V368ZM304 320H272C263 320 256 327 256 336V368C256 377 263 384 272 384H304C313 384 320 377 320 368V336C320 327 313 320 304 320ZM304 368H272V336H304V368ZM112 224H80C71 224 64 231 64 240V272C64 281 71 288 80 288H112C121 288 128 281 128 272V240C128 231 121 224 112 224ZM112 272H80V240H112V272ZM208 224H176C167 224 160 231 160 240V272C160 281 167 288 176 288H208C217 288 224 281 224 272V240C224 231 217 224 208 224ZM208 272H176V240H208V272ZM304 224H272C263 224 256 231 256 240V272C256 281 263 288 272 288H304C313 288 320 281 320 272V240C320 231 313 224 304 224ZM304 272H272V240H304V272Z"/></svg>