<svg xmlns="http://www.w3.org/2000/svg" viewBox="0 0 384 512"><!-- Font Awesome Pro 6.0.0-alpha1 by @fontawesome - https://fontawesome.com License - https://fontawesome.com/license (Commercial License) --><path d="M200 260V160C200 156 196 152 192 152S184 156 184 160V264C184 267 185 269 187 270L251 318C253 319 254 320 256 320C258 320 261 319 262 317C265 313 264 308 261 306L200 260ZM312 448C308 448 304 452 304 456V472C304 485 293 496 280 496H104C91 496 80 485 80 472V456C80 452 76 448 72 448S64 452 64 456V472C64 494 82 512 104 512H280C302 512 320 494 320 472V456C320 452 316 448 312 448ZM72 64C76 64 80 60 80 56V40C80 27 91 16 104 16H280C293 16 304 27 304 40V56C304 60 308 64 312 64S320 60 320 56V40C320 18 302 0 280 0H104C82 0 64 18 64 40V56C64 60 68 64 72 64ZM312 80H72C32 80 0 112 0 152V360C0 400 32 432 72 432H312C352 432 384 400 384 360V152C384 112 352 80 312 80ZM368 360C368 391 343 416 312 416H72C41 416 16 391 16 360V152C16 121 41 96 72 96H312C343 96 368 121 368 152V360Z"/></svg>