<svg xmlns="http://www.w3.org/2000/svg" viewBox="0 0 384 512"><!-- Font Awesome Pro 6.0.0-alpha1 by @fontawesome - https://fontawesome.com License - https://fontawesome.com/license (Commercial License) --><path d="M312 80H72C32 80 0 112 0 152V360C0 400 32 432 72 432H312C352 432 384 400 384 360V152C384 112 352 80 312 80ZM368 360C368 391 343 416 312 416H72C41 416 16 391 16 360V152C16 121 41 96 72 96H312C343 96 368 121 368 152V360ZM312 448C308 448 304 452 304 456V472C304 485 293 496 280 496H104C91 496 80 485 80 472V456C80 452 76 448 72 448S64 452 64 456V472C64 494 82 512 104 512H280C302 512 320 494 320 472V456C320 452 316 448 312 448ZM72 64C76 64 80 60 80 56V40C80 27 91 16 104 16H280C293 16 304 27 304 40V56C304 60 308 64 312 64S320 60 320 56V40C320 18 302 0 280 0H104C82 0 64 18 64 40V56C64 60 68 64 72 64ZM232 256C232 234 214 216 192 216S152 234 152 256S170 296 192 296S232 278 232 256ZM192 280C179 280 168 269 168 256S179 232 192 232S216 243 216 256S205 280 192 280ZM280 224C262 224 248 238 248 256S262 288 280 288S312 274 312 256S298 224 280 224ZM280 272C271 272 264 265 264 256S271 240 280 240S296 247 296 256S289 272 280 272ZM136 256C136 238 122 224 104 224S72 238 72 256S86 288 104 288S136 274 136 256ZM104 272C95 272 88 265 88 256S95 240 104 240S120 247 120 256S113 272 104 272ZM144 200C162 200 176 186 176 168S162 136 144 136S112 150 112 168S126 200 144 200ZM144 152C153 152 160 159 160 168S153 184 144 184S128 177 128 168S135 152 144 152ZM240 200C258 200 272 186 272 168S258 136 240 136S208 150 208 168S222 200 240 200ZM240 152C249 152 256 159 256 168S249 184 240 184S224 177 224 168S231 152 240 152ZM144 312C126 312 112 326 112 344S126 376 144 376S176 362 176 344S162 312 144 312ZM144 360C135 360 128 353 128 344S135 328 144 328S160 335 160 344S153 360 144 360ZM240 312C222 312 208 326 208 344S222 376 240 376S272 362 272 344S258 312 240 312ZM240 360C231 360 224 353 224 344S231 328 240 328S256 335 256 344S249 360 240 360Z"/></svg>