<svg xmlns="http://www.w3.org/2000/svg" viewBox="0 0 576 512"><!-- Font Awesome Pro 6.0.0-alpha1 by @fontawesome - https://fontawesome.com License - https://fontawesome.com/license (Commercial License) --><path d="M282 254C285 257 291 257 294 254L414 134C415 132 416 130 416 128S415 124 414 122C411 119 405 119 402 122L296 229V8C296 4 292 0 288 0C284 0 280 4 280 8V229L174 122C170 119 165 119 162 122C159 125 159 131 162 134L282 254ZM569 496C539 493 511 478 486 451C484 449 482 448 480 448H480C478 448 476 449 474 451C447 480 416 496 385 496H384C352 496 321 480 294 451C292 449 290 448 288 448H288C286 448 284 449 282 451C255 480 224 496 193 496H192C160 496 129 480 102 451C100 449 98 448 96 448H96C94 448 92 449 90 451C65 478 37 494 7 496C3 496 0 500 0 504C0 509 3 512 9 512C40 509 70 494 96 468C125 497 158 512 192 512H193C227 512 260 497 288 468C317 497 350 512 384 512H385C419 512 452 497 480 468C506 494 536 509 567 512C573 512 576 509 576 504C576 500 573 496 569 496ZM9 384C40 381 70 366 96 340C125 369 158 384 192 384H193C227 384 260 369 288 340C317 369 350 384 384 384H385C419 384 452 369 480 340C506 366 536 381 567 384C573 384 576 381 576 376C576 372 573 368 569 368C539 365 511 350 486 323C484 321 482 320 480 320H480C478 320 476 321 474 323C447 352 416 368 385 368H384C352 368 321 352 294 323C292 321 290 320 288 320H288C286 320 284 321 282 323C255 352 224 368 193 368H192C160 368 129 352 102 323C100 321 98 320 96 320H96C94 320 92 321 90 323C65 350 37 366 7 368C3 368 0 372 0 376C0 381 3 384 9 384Z"/></svg>