<svg xmlns="http://www.w3.org/2000/svg" viewBox="0 0 640 512"><!-- Font Awesome Pro 6.0.0-alpha1 by @fontawesome - https://fontawesome.com License - https://fontawesome.com/license (Commercial License) --><path d="M616 272C610 290 558 456 463 456C382 456 345 351 312 259C282 171 247 72 177 72C109 72 59 181 40 245C38 249 34 252 30 250C25 249 23 245 24 240C30 222 82 56 177 56C258 56 295 161 328 253C358 341 393 440 463 440C531 440 581 331 600 267C602 263 606 260 610 262C615 263 617 267 616 272Z"/></svg>