<svg xmlns="http://www.w3.org/2000/svg" viewBox="0 0 640 512"><!-- Font Awesome Pro 6.0.0-alpha1 by @fontawesome - https://fontawesome.com License - https://fontawesome.com/license (Commercial License) --><path d="M640 248C640 252 636 256 632 256H485L423 380C422 383 418 384 415 384C412 384 409 381 408 378L321 73L232 474C231 477 228 480 224 480H224C220 480 217 478 216 474L154 256H8C4 256 0 252 0 248S4 240 8 240H160C164 240 167 242 168 246L223 440L312 38C313 35 316 32 320 32H320C324 32 327 34 328 38L418 354L473 244C474 242 477 240 480 240H632C636 240 640 244 640 248Z"/></svg>