<svg xmlns="http://www.w3.org/2000/svg" viewBox="0 0 512 512"><!-- Font Awesome Pro 6.0.0-alpha1 by @fontawesome - https://fontawesome.com License - https://fontawesome.com/license (Commercial License) --><path d="M192 104C221 104 244 81 244 52S221 0 192 0S140 23 140 52S163 104 192 104ZM192 16C212 16 228 32 228 52S212 88 192 88C172 88 156 72 156 52S172 16 192 16ZM310 376C306 375 302 378 301 382C287 448 227 496 160 496C81 496 16 431 16 352C16 285 64 225 130 211C134 210 137 206 136 202C135 197 131 195 126 196C53 211 0 277 0 352C0 440 72 512 160 512C235 512 301 459 316 386C317 381 315 377 310 376ZM510 422C506 409 494 400 480 400C477 400 473 401 470 402L450 408L409 308C404 296 392 288 379 288H281L271 240H336C354 240 368 226 368 208S354 176 336 176H257L256 169C252 145 231 128 208 128C206 128 204 128 201 128C175 132 157 157 161 183L184 323C186 340 200 352 216 352H357L402 460C407 472 419 480 432 480C435 480 439 479 442 478L490 462C507 457 516 439 510 422ZM494 439C492 443 489 446 485 447L437 463C435 464 434 464 432 464C425 464 420 460 417 454L372 346L368 336H216C208 336 201 330 200 321L176 181C174 163 186 147 204 144C205 144 206 144 208 144H208C224 144 237 156 240 173L241 179L244 192H336C345 192 352 199 352 208S345 224 336 224H251L255 243L266 291L268 304H379C386 304 391 308 394 314L436 414L441 428L456 423L475 417C477 416 478 416 480 416C487 416 493 420 495 427C497 431 496 435 494 439Z"/></svg>