<svg xmlns="http://www.w3.org/2000/svg" viewBox="0 0 448 512"><!-- Font Awesome Pro 6.0.0-alpha1 by @fontawesome - https://fontawesome.com License - https://fontawesome.com/license (Commercial License) --><path d="M364 104C393 104 416 81 416 52S393 0 364 0S312 23 312 52S335 104 364 104ZM364 16C384 16 400 32 400 52S384 88 364 88C344 88 328 72 328 52S344 16 364 16ZM432 228C426 225 421 224 415 224H299C343 178 339 183 341 180C344 175 347 171 349 165C356 139 340 114 322 108L206 51C202 49 197 48 192 48C185 48 178 50 173 54L109 102C95 113 92 133 102 147C109 156 118 160 128 160C135 160 141 158 147 154L196 117L245 141L220 167C216 171 217 177 221 179C224 181 228 181 231 178L257 153C264 145 262 132 252 127L203 103C199 101 192 100 186 105L138 141C132 145 121 146 115 138C110 131 111 121 118 115L182 67C183 67 190 61 199 66L315 122C335 132 341 154 327 172L288 213C281 219 284 229 284 230C287 236 293 240 299 240H416C426 240 434 249 432 259L400 419C396 440 364 434 368 413L393 291C395 281 387 272 377 272H344C340 272 336 276 336 280S340 288 344 288H377L353 410C348 431 365 448 384 448C399 448 412 438 415 422L447 262C450 249 444 235 432 228ZM160 192C72 192 0 264 0 352S72 512 160 512S320 440 320 352S248 192 160 192ZM160 496C81 496 16 431 16 352S81 208 160 208S304 273 304 352S239 496 160 496ZM160 248C103 248 56 295 56 352S103 456 160 456S264 409 264 352S217 248 160 248ZM160 440C111 440 72 401 72 352S111 264 160 264S248 303 248 352S209 440 160 440Z"/></svg>