<svg xmlns="http://www.w3.org/2000/svg" viewBox="0 0 512 512"><!-- Font Awesome Pro 6.0.0-alpha1 by @fontawesome - https://fontawesome.com License - https://fontawesome.com/license (Commercial License) --><path d="M348 249C333 233 307 233 292 249L246 294C231 310 231 335 246 351L292 396C299 404 310 408 320 408C330 408 341 404 348 396L394 351C409 335 409 310 394 294L348 249ZM382 340L337 385C328 394 312 394 303 385L258 340C248 330 248 315 258 306L303 260C308 256 314 253 320 253S332 256 337 260L382 306C392 315 392 330 382 340ZM160 216H224C237 216 248 227 248 240V248C248 252 252 256 256 256S264 252 264 248V240C264 218 246 200 224 200H160C138 200 120 218 120 240V304C120 326 138 344 160 344H208C212 344 216 340 216 336S212 328 208 328H160C147 328 136 317 136 304V240C136 227 147 216 160 216ZM453 64H59C43 64 30 79 32 95L80 401C84 428 107 448 135 448H378C405 448 428 428 432 401L480 95C482 79 469 64 453 64ZM436 272H424C420 272 416 276 416 280S420 288 424 288H434L416 399C414 418 397 432 378 432H135C115 432 99 418 96 398L79 288H88C92 288 96 284 96 280S92 272 88 272H76L48 93C47 89 50 85 51 84C52 82 55 80 59 80H453C457 80 460 82 461 84C462 85 465 89 464 93L436 272Z"/></svg>