<svg xmlns="http://www.w3.org/2000/svg" viewBox="0 0 512 512"><!-- Font Awesome Pro 6.0.0-alpha1 by @fontawesome - https://fontawesome.com License - https://fontawesome.com/license (Commercial License) --><path d="M453 64H59C43 64 30 79 32 95L80 401C84 428 107 448 135 448H378C405 448 428 428 432 401L480 95C482 79 469 64 453 64ZM416 399C414 418 397 432 378 432H135C115 432 99 418 96 398L79 288H434L416 399ZM436 272H76L48 93C47 89 50 85 51 84C52 82 55 80 59 80H453C457 80 460 82 461 84C462 85 465 89 464 93L436 272Z"/></svg>