<svg xmlns="http://www.w3.org/2000/svg" viewBox="0 0 640 512"><!-- Font Awesome Pro 6.0.0-alpha1 by @fontawesome - https://fontawesome.com License - https://fontawesome.com/license (Commercial License) --><path d="M28 92C43 77 69 77 84 92C87 95 92 95 96 92S99 84 96 80C74 59 38 59 16 80C6 91 0 105 0 120S6 149 16 160C18 161 20 162 22 162S26 161 28 160C31 156 31 151 28 148C12 133 12 107 28 92ZM628 327L500 228C496 224 489 223 482 227L448 248L416 224L432 191C436 184 434 176 428 171L340 103L340 103C307 79 267 64 224 64C210 64 197 65 182 68C110 84 51 143 36 215C11 339 105 448 224 448C288 448 344 417 379 369L530 445C534 447 539 448 544 448C552 448 560 445 567 439L631 375C637 368 641 359 640 350C639 341 635 332 628 327ZM619 363L555 427C550 433 542 433 537 430L386 355C376 350 368 357 366 360C333 405 280 432 224 432C171 432 121 408 88 367C54 326 41 272 52 219C65 152 119 98 186 84C198 81 211 80 224 80C262 80 299 92 330 116C331 116 331 117 332 117L418 184L402 217C398 224 400 232 406 237L438 261C443 264 450 266 456 262L490 240L618 339C626 345 626 357 619 363ZM224 192C189 192 160 221 160 256S189 320 224 320S288 291 288 256S259 192 224 192ZM224 304C198 304 176 282 176 256S198 208 224 208S272 230 272 256S250 304 224 304Z"/></svg>