<svg xmlns="http://www.w3.org/2000/svg" viewBox="0 0 640 512"><!-- Font Awesome Pro 6.0.0-alpha1 by @fontawesome - https://fontawesome.com License - https://fontawesome.com/license (Commercial License) --><path d="M121 274C118 277 118 282 121 286C124 289 129 289 133 286C149 269 168 255 188 243L175 233C156 244 138 258 121 274ZM2 163C-1 167 -1 172 2 175C5 178 11 178 14 175C27 161 41 149 56 138L43 128C29 139 15 150 2 163ZM386 216C431 228 473 251 507 286C509 287 511 288 513 288S517 287 519 286C522 282 522 277 519 274C475 230 419 203 359 195L386 216ZM626 175C628 176 630 177 632 177S636 176 638 175C641 172 641 167 638 163C515 40 337 4 182 54L196 66C344 22 510 59 626 175ZM13 2C12 1 10 0 8 0C6 0 3 1 2 3C-1 6 0 12 3 14L627 510C628 511 630 512 632 512C634 512 637 511 638 509C641 506 640 500 637 498L13 2ZM320 352C285 352 256 381 256 416S285 480 320 480S384 451 384 416S355 352 320 352ZM320 464C294 464 272 442 272 416C272 390 294 368 320 368S368 389 368 416C368 442 346 464 320 464Z"/></svg>