<svg xmlns="http://www.w3.org/2000/svg" viewBox="0 0 640 512"><!-- Font Awesome Pro 6.0.0-alpha1 by @fontawesome - https://fontawesome.com License - https://fontawesome.com/license (Commercial License) --><path d="M318 352C282 352 254 381 254 416C254 451 282 480 318 480S382 451 382 416C382 381 353 352 318 352ZM318 464C291 464 270 442 270 416C270 390 291 368 318 368S366 389 366 416C366 442 344 464 318 464ZM635 163C460 -12 175 -12 0 163C-3 167 -3 172 0 175S8 178 11 175C180 6 455 6 624 175C626 176 628 177 630 177S634 176 635 175C638 172 638 167 635 163ZM318 192C243 192 172 221 119 274C116 277 116 282 119 286C122 289 127 289 130 286C180 235 247 208 318 208S455 235 505 286C507 287 509 288 511 288S515 287 516 286C520 282 520 277 516 274C463 221 393 192 318 192Z"/></svg>