<svg xmlns="http://www.w3.org/2000/svg" viewBox="0 0 640 512"><!-- Font Awesome Pro 6.0.0-alpha1 by @fontawesome - https://fontawesome.com License - https://fontawesome.com/license (Commercial License) --><path d="M320 352C285 352 256 381 256 416C256 451 285 480 320 480S384 451 384 416C384 381 355 352 320 352ZM320 464C294 464 272 442 272 416C272 390 294 368 320 368S368 390 368 416C368 442 347 464 320 464ZM320 192C245 192 174 221 121 274C118 277 118 283 121 286C124 289 130 289 133 286C183 236 249 208 320 208S458 236 508 286C509 287 511 288 513 288S517 287 519 286C522 283 522 277 519 274C466 221 395 192 320 192Z"/></svg>