<svg xmlns="http://www.w3.org/2000/svg" viewBox="0 0 512 512"><!-- Font Awesome Pro 6.0.0-alpha1 by @fontawesome - https://fontawesome.com License - https://fontawesome.com/license (Commercial License) --><path d="M8 0C4 0 0 4 0 8V504C0 508 4 512 8 512S16 508 16 504V8C16 4 12 0 8 0ZM481 114L98 24C95 24 93 24 91 26C89 27 88 30 88 32V88H48C44 88 40 92 40 96S44 104 48 104H88V312H48C44 312 40 316 40 320S44 328 48 328H88V384C88 386 89 389 91 390C92 391 94 392 96 392C97 392 97 392 98 392L481 302C499 297 512 281 512 263V153C512 135 499 119 481 114ZM216 348L104 374V42L216 68V348ZM376 310L232 344V72L376 106V310ZM496 263C496 274 488 283 478 286L392 306V110L478 130C488 133 496 142 496 153V263Z"/></svg>