<svg xmlns="http://www.w3.org/2000/svg" viewBox="0 0 640 512"><!-- Font Awesome Pro 6.0.0-alpha1 by @fontawesome - https://fontawesome.com License - https://fontawesome.com/license (Commercial License) --><path d="M192 368C192 377 199 384 208 384S224 377 224 368S217 352 208 352S192 359 192 368ZM552 288H328C324 288 320 292 320 296S324 304 328 304H552C592 304 624 336 624 376S592 448 552 448C528 448 505 436 492 415C489 412 484 410 481 413C477 415 476 420 478 424C495 449 522 464 552 464C601 464 640 425 640 376S601 288 552 288ZM472 224H552C601 224 640 185 640 136S601 48 552 48C522 48 495 63 478 88C476 92 477 97 481 99C484 102 489 100 492 97C505 76 528 64 552 64C592 64 624 96 624 136S592 208 552 208H472C468 208 464 212 464 216S468 224 472 224ZM216 296V136C216 132 212 128 208 128S200 132 200 136V296C200 300 204 304 208 304S216 300 216 296ZM356 379C319 423 265 448 208 448C102 448 16 362 16 256S102 64 208 64C303 64 383 132 398 225C398 230 402 233 407 232C411 231 414 227 413 223C397 121 311 48 208 48C93 48 0 141 0 256S93 464 208 464C270 464 328 437 368 389C371 386 370 381 367 378C363 375 358 375 356 379Z"/></svg>