<svg xmlns="http://www.w3.org/2000/svg" viewBox="0 0 512 512"><!-- Font Awesome Pro 6.0.0-alpha1 by @fontawesome - https://fontawesome.com License - https://fontawesome.com/license (Commercial License) --><path d="M256 208C247 208 240 215 240 224C240 233 247 240 256 240C265 240 272 233 272 224C272 215 265 208 256 208ZM376 496H309L304 415C304 411 301 407 295 408C291 408 288 412 288 417L293 496H219L232 321C232 316 229 312 225 312C220 311 216 315 216 319L203 496H136C132 496 128 500 128 504S132 512 136 512H376C380 512 384 508 384 504S380 496 376 496ZM398 416L313 240C308 229 308 216 313 205L383 32C388 20 382 6 370 2C360 -2 349 1 343 10L233 161C226 171 215 177 203 179L20 208C8 210 0 220 0 232C0 244 9 253 21 255L203 274C215 276 226 282 234 291L359 439C368 451 382 449 389 445C399 439 403 426 398 416ZM371 429L246 281C236 269 221 260 205 259L22 239C14 238 14 226 22 224L206 195C222 192 236 184 246 170L356 19C361 12 371 18 368 26L298 199C292 214 292 231 299 246L383 422C387 430 376 436 371 429Z"/></svg>