<svg xmlns="http://www.w3.org/2000/svg" viewBox="0 0 512 512"><!-- Font Awesome Pro 6.0.0-alpha1 by @fontawesome - https://fontawesome.com License - https://fontawesome.com/license (Commercial License) --><path d="M448 32H64C29 32 0 61 0 96V416C0 451 29 480 64 480H448C483 480 512 451 512 416V96C512 61 483 32 448 32ZM496 416C496 442 474 464 448 464H64C38 464 16 442 16 416V96C16 70 38 48 64 48H448C474 48 496 70 496 96V416ZM224 112C215 112 208 119 208 128S215 144 224 144S240 137 240 128S233 112 224 112ZM320 112C311 112 304 119 304 128S311 144 320 144S336 137 336 128S329 112 320 112ZM416 112C407 112 400 119 400 128S407 144 416 144S432 137 432 128S425 112 416 112Z"/></svg>