<svg xmlns="http://www.w3.org/2000/svg" viewBox="0 0 320 512"><!-- Font Awesome Pro 6.0.0-alpha1 by @fontawesome - https://fontawesome.com License - https://fontawesome.com/license (Commercial License) --><path d="M303 193L289 29C287 13 274 0 257 0H63C46 0 33 13 31 29L17 193C9 276 71 347 152 351C152 351 152 352 152 352V496H64C60 496 56 500 56 504S60 512 64 512H256C260 512 264 508 264 504S260 496 256 496H168V352C168 352 168 351 168 351C249 347 311 276 303 193ZM160 336C124 336 91 321 66 294C42 267 29 231 33 194L47 31C48 22 55 16 63 16H154L182 92L124 121C122 122 121 124 120 127C120 129 121 132 122 134L186 198C188 199 190 200 192 200S196 199 198 198C201 195 201 189 198 186L141 130L196 103C199 101 201 97 200 93L171 16H257C265 16 272 22 273 31L287 194C291 231 278 267 254 294C229 321 196 336 160 336Z"/></svg>