<svg xmlns="http://www.w3.org/2000/svg" viewBox="0 0 448 512"><!-- Font Awesome Pro 6.0.0-alpha1 by @fontawesome - https://fontawesome.com License - https://fontawesome.com/license (Commercial License) --><path d="M290 385L224 408L158 385C151 383 143 384 137 388C131 393 128 399 128 406V490C128 497 131 503 137 507C143 512 151 513 158 511L224 489L290 511C293 512 295 512 297 512C302 512 307 510 311 508C317 503 320 497 320 490V406C320 399 317 393 311 389C305 384 297 383 290 385ZM304 490C304 493 302 494 301 495C300 496 297 496 295 496L224 472L153 496C151 496 148 496 146 495C146 494 144 492 144 490V406C144 404 146 402 147 401C148 400 151 400 153 400L224 425L295 400C297 400 300 400 302 401C302 402 304 404 304 406V490ZM448 224C448 208 441 193 429 183C436 169 437 153 431 138C425 123 412 112 397 107C399 92 393 76 382 66C371 55 356 50 341 51C336 35 325 23 310 17C295 11 279 12 265 19C255 7 240 0 224 0C208 0 193 7 183 19C169 12 153 11 138 17C123 23 112 36 108 51C92 49 77 55 66 66C55 76 49 92 51 107C36 112 23 123 17 138C11 153 12 169 19 183C7 193 0 208 0 224C0 240 7 254 19 265C12 279 11 295 17 310C23 324 36 335 51 340C49 356 55 371 66 382C75 391 87 397 101 398C101 398 101 398 101 398C105 398 109 394 109 390C109 386 106 382 102 382C95 381 85 379 77 371C68 362 65 349 68 336C68 334 68 331 66 330S63 327 61 326C48 324 37 316 32 304C27 292 28 278 36 267C37 266 37 263 37 261C37 259 35 257 34 256C23 249 16 237 16 224C16 211 23 199 34 192C35 191 37 189 37 187C37 185 37 182 36 181C28 170 27 156 32 144C37 132 48 124 61 121C63 121 65 120 66 118S68 114 68 112C65 98 68 86 77 77C86 68 99 65 112 67C114 68 116 67 118 66C120 65 121 63 121 61C124 48 132 37 144 32C156 27 170 28 181 36C182 37 185 37 187 37C189 37 191 35 192 34C199 23 211 16 224 16S249 23 256 34C257 35 259 37 261 37C263 37 266 37 267 36C278 28 292 27 304 32C316 37 324 48 327 61C327 63 328 65 330 66C332 67 334 68 336 67C349 65 362 68 371 77C380 86 383 98 381 112C380 114 381 116 382 118C383 120 385 121 387 121C400 124 411 132 416 144C421 156 420 170 412 181C411 182 411 185 411 187C411 189 413 191 414 192C425 199 432 211 432 224C432 237 426 249 415 256C413 257 412 259 411 261C411 263 411 265 413 267C420 278 421 291 416 303C411 315 401 324 387 326C385 327 383 328 382 330S380 334 381 336C384 349 380 362 371 371C363 379 353 381 347 382C342 382 339 386 339 390C339 394 343 398 348 398C361 397 373 391 383 382C394 371 399 356 398 340C413 335 425 324 431 310C437 295 437 279 430 265C441 254 448 240 448 224ZM316 193C315 190 315 186 314 182C314 175 313 167 308 161C304 154 296 151 290 148C287 146 284 145 281 143C279 141 276 138 274 135C269 130 264 124 256 121C249 119 241 121 234 122C227 124 221 124 214 122C207 120 199 119 192 121C184 124 179 130 174 135C172 138 169 141 167 143C165 145 161 146 158 148C152 151 144 154 140 161C135 167 134 175 134 182C133 186 133 190 132 193C131 196 129 199 127 202C124 208 120 216 120 224C120 232 124 240 127 246C129 249 131 252 132 255C133 258 133 262 134 266C134 273 135 281 140 287C144 294 152 297 158 301C161 302 164 303 167 305C169 307 172 310 174 313C179 318 184 324 192 327C195 328 197 328 200 328C205 328 209 327 214 326C221 324 227 324 234 326C241 328 249 329 256 327C264 324 269 318 274 313C276 310 279 307 281 305C283 303 287 302 290 300C296 297 304 294 308 287C313 281 314 273 314 266C315 262 315 258 316 255C317 252 319 249 321 246C324 240 328 232 328 224C328 216 324 208 321 202C319 199 317 196 316 193ZM307 238C304 242 302 246 301 250C301 250 301 250 301 250C300 255 299 260 299 264C298 270 297 275 295 278C293 281 288 284 283 286C279 288 275 290 271 293C268 295 265 299 262 302C258 306 255 310 251 312C248 313 243 312 238 310C229 309 219 309 210 310C205 312 200 313 197 312C193 310 190 306 186 302C183 299 180 295 177 292C173 290 169 288 165 286C160 284 155 281 153 278C151 275 150 270 149 264C149 260 149 255 147 250C146 246 144 242 141 238C139 233 136 228 136 224S139 215 141 210C144 206 146 202 147 198C149 193 149 189 149 184C150 178 151 173 153 170C155 167 160 165 165 162C169 160 173 158 177 155C180 153 183 149 186 146C190 142 193 138 197 136C198 136 199 136 200 136C203 136 207 137 210 138C219 139 229 139 238 138C243 136 248 135 251 136C255 138 258 142 262 146C265 149 268 153 271 156C275 158 279 160 283 162C288 164 293 167 295 170C297 173 298 178 298 184C299 189 299 193 301 198C302 202 304 206 307 210C309 215 312 220 312 224S309 233 307 238Z"/></svg>