<svg xmlns="http://www.w3.org/2000/svg" viewBox="0 0 512 512"><!-- Font Awesome Pro 6.0.0-alpha1 by @fontawesome - https://fontawesome.com License - https://fontawesome.com/license (Commercial License) --><path d="M208 384C217 384 224 377 224 368C224 359 217 352 208 352S192 359 192 368C192 377 199 384 208 384ZM304 384C313 384 320 377 320 368C320 359 313 352 304 352S288 359 288 368C288 377 295 384 304 384ZM416 216C420 216 424 212 424 208S420 200 416 200H264V152H384C388 152 392 148 392 144S388 136 384 136H264V96C264 92 260 88 256 88S248 92 248 96V136H128C124 136 120 140 120 144S124 152 128 152H248V200H96C92 200 88 204 88 208S92 216 96 216H248V264H128C124 264 120 268 120 272S124 280 128 280H248V312H171C156 312 142 320 135 333C128 346 129 362 137 374L159 406C166 417 179 424 192 424H320C333 424 346 417 353 406L375 374C383 362 384 346 377 333C370 320 356 312 341 312H264V280H384C388 280 392 276 392 272S388 264 384 264H264V216H416ZM341 328C350 328 358 333 363 341C367 349 366 358 361 365L340 397C335 404 328 408 320 408H192C184 408 177 404 172 397L151 365C146 358 145 349 149 341C154 333 162 328 171 328H341ZM8 48H504C508 48 512 44 512 40S508 32 504 32H8C4 32 0 36 0 40S4 48 8 48ZM504 464H8C4 464 0 468 0 472S4 480 8 480H504C508 480 512 476 512 472S508 464 504 464ZM32 80V432C32 436 36 440 40 440S48 436 48 432V80C48 76 44 72 40 72S32 76 32 80ZM464 80V432C464 436 468 440 472 440S480 436 480 432V80C480 76 476 72 472 72S464 76 464 80Z"/></svg>