<svg xmlns="http://www.w3.org/2000/svg" viewBox="0 0 320 512"><!-- Font Awesome Pro 6.0.0-alpha1 by @fontawesome - https://fontawesome.com License - https://fontawesome.com/license (Commercial License) --><path d="M320 464C320 473 313 480 304 480H16C9 480 3 476 1 470C-1 464 0 457 5 452L218 258C264 218 270 150 231 104C212 81 184 67 154 64C125 62 96 72 73 91L41 119C34 125 24 125 18 118C12 111 13 101 20 95L52 67C81 42 119 30 157 32C196 35 230 54 255 83C305 143 298 230 240 282L57 448H304C313 448 320 455 320 464Z"/></svg>