<svg xmlns="http://www.w3.org/2000/svg" viewBox="0 0 320 512"><!-- Font Awesome Pro 6.0.0-alpha1 by @fontawesome - https://fontawesome.com License - https://fontawesome.com/license (Commercial License) --><path d="M320 352C320 423 263 480 192 480H93C51 480 14 453 1 414C-2 405 3 396 11 393C19 390 28 395 31 403C40 430 65 448 93 448H192C245 448 288 405 288 352S245 256 192 256H80C73 256 67 252 65 246C63 240 64 233 69 228L247 64H16C7 64 0 57 0 48S7 32 16 32H288C295 32 301 36 303 42C305 48 304 55 299 60L121 224H192C263 224 320 281 320 352Z"/></svg>