<svg xmlns="http://www.w3.org/2000/svg" viewBox="0 0 448 512"><!-- Font Awesome Pro 6.0.0-alpha1 by @fontawesome - https://fontawesome.com License - https://fontawesome.com/license (Commercial License) --><path d="M352 64H245C250 50 257 38 267 27C274 21 274 11 267 5S251 -1 245 5C228 21 217 42 212 64H96C43 64 0 107 0 160V176C0 194 14 208 32 208V224C32 322 87 412 175 456L224 480L273 456C361 412 416 322 416 224V208C434 208 448 194 448 176V160C448 107 405 64 352 64ZM384 224C384 311 336 388 259 427L224 444L189 427C112 388 64 311 64 224V208H384V224ZM416 176H32V160C32 125 61 96 96 96H352C387 96 416 125 416 160V176Z"/></svg>