<svg xmlns="http://www.w3.org/2000/svg" viewBox="0 0 512 512"><!-- Font Awesome Pro 6.0.0-alpha1 by @fontawesome - https://fontawesome.com License - https://fontawesome.com/license (Commercial License) --><path d="M240 288H176C132 288 96 324 96 368C96 377 103 384 112 384C121 384 128 377 128 368C128 342 150 320 176 320H240C266 320 288 342 288 368C288 377 295 384 304 384C313 384 320 377 320 368C320 324 284 288 240 288ZM464 192H448V288H464C473 288 480 281 480 272V208C480 199 473 192 464 192ZM208 256C243 256 272 227 272 192S243 128 208 128S144 157 144 192S173 256 208 256ZM208 160C226 160 240 174 240 192S226 224 208 224S176 210 176 192S190 160 208 160ZM464 320H448V416H464C473 416 480 409 480 400V336C480 327 473 320 464 320ZM464 64H448V160H464C473 160 480 153 480 144V80C480 71 473 64 464 64ZM352 0H64C29 0 0 29 0 64V448C0 483 29 512 64 512H352C387 512 416 483 416 448V64C416 29 387 0 352 0ZM384 448C384 466 370 480 352 480H64C46 480 32 466 32 448V64C32 46 46 32 64 32H352C370 32 384 46 384 64V448Z"/></svg>