<svg xmlns="http://www.w3.org/2000/svg" viewBox="0 0 512 512"><!-- Font Awesome Pro 6.0.0-alpha1 by @fontawesome - https://fontawesome.com License - https://fontawesome.com/license (Commercial License) --><path d="M41 151C46 146 47 137 43 131C36 121 32 108 32 95C32 78 39 62 51 50C72 29 107 26 131 42C138 46 146 45 151 40C158 33 157 21 149 15C112 -9 60 -5 28 27C10 46 0 70 0 95C0 115 6 133 16 149C22 157 34 158 41 151L41 151ZM485 28C466 10 442 0 417 0C397 0 379 6 363 16C355 22 354 34 361 41C366 46 375 47 381 43C391 36 404 32 417 32C434 32 450 39 462 51C483 72 486 107 470 131C466 138 467 146 472 151C479 158 491 157 497 149C521 112 517 60 485 28ZM231 65C128 77 45 160 33 263C26 329 48 389 87 435L40 481C34 488 34 498 40 504V504C46 510 56 510 63 504L109 457C149 491 200 512 256 512S363 491 403 457L449 504C456 510 466 510 472 504V504C478 498 478 488 472 481L425 435C459 395 480 344 480 288C480 156 366 51 231 65ZM256 480C150 480 64 394 64 288S150 96 256 96S448 182 448 288S362 480 256 480ZM256 336C265 336 272 329 272 320V176C272 167 265 160 256 160S240 167 240 176V320C240 329 247 336 256 336ZM256 360C243 360 232 371 232 384C232 397 243 408 256 408S280 397 280 384C280 371 269 360 256 360Z"/></svg>