<svg xmlns="http://www.w3.org/2000/svg" viewBox="0 0 448 512"><!-- Font Awesome Pro 6.0.0-alpha1 by @fontawesome - https://fontawesome.com License - https://fontawesome.com/license (Commercial License) --><path d="M224 232C211 232 200 243 200 256S211 280 224 280S248 269 248 256S237 232 224 232ZM384 32H64C29 32 0 61 0 96V416C0 451 29 480 64 480H384C419 480 448 451 448 416V96C448 61 419 32 384 32ZM416 416C416 434 402 448 384 448H64C46 448 32 434 32 416V96C32 78 46 64 64 64H384C402 64 416 78 416 96V416ZM224 96C136 96 64 168 64 256S136 416 224 416S384 344 384 256S312 96 224 96ZM224 384C153 384 96 327 96 256C96 185 153 128 224 128S352 185 352 256C352 327 295 384 224 384Z"/></svg>