<svg xmlns="http://www.w3.org/2000/svg" viewBox="0 0 448 512"><!-- Font Awesome Pro 6.0.0-alpha1 by @fontawesome - https://fontawesome.com License - https://fontawesome.com/license (Commercial License) --><path d="M224 0C100 0 0 88 0 232C0 344 134 457 195 502C212 515 236 515 253 502C314 457 448 344 448 232C448 88 348 0 224 0ZM234 477C228 481 220 481 214 477C171 445 32 333 32 232C32 114 111 32 224 32S416 114 416 232C416 333 277 445 234 477ZM368 212H320C276 212 240 248 240 292V304C240 313 247 320 256 320H304C348 320 384 284 384 240V228C384 219 377 212 368 212ZM304 288H272C274 263 295 244 320 244H352C350 269 329 288 304 288ZM128 212H80C71 212 64 219 64 228V240C64 284 100 320 144 320H192C201 320 208 313 208 304V292C208 248 172 212 128 212ZM144 288C119 288 98 269 96 244H128C153 244 174 263 176 288H144Z"/></svg>