<svg xmlns="http://www.w3.org/2000/svg" viewBox="0 0 512 512"><!-- Font Awesome Pro 6.0.0-alpha1 by @fontawesome - https://fontawesome.com License - https://fontawesome.com/license (Commercial License) --><path d="M416 352C425 352 432 345 432 336S425 320 416 320S400 327 400 336S407 352 416 352ZM352 352C361 352 368 345 368 336S361 320 352 320S336 327 336 336S343 352 352 352ZM384 400C393 400 400 393 400 384S393 368 384 368S368 375 368 384S375 400 384 400ZM288 352C297 352 304 345 304 336S297 320 288 320S272 327 272 336S279 352 288 352ZM320 400C329 400 336 393 336 384S329 368 320 368S304 375 304 384S311 400 320 400ZM160 416C151 416 144 423 144 432S151 448 160 448S176 441 176 432S169 416 160 416ZM416 416C407 416 400 423 400 432S407 448 416 448S432 441 432 432S425 416 416 416ZM224 416C215 416 208 423 208 432S215 448 224 448S240 441 240 432S233 416 224 416ZM256 400C265 400 272 393 272 384S265 368 256 368S240 375 240 384S247 400 256 400ZM288 416C279 416 272 423 272 432S279 448 288 448S304 441 304 432S297 416 288 416ZM352 416C343 416 336 423 336 432S343 448 352 448S368 441 368 432S361 416 352 416ZM224 352C233 352 240 345 240 336S233 320 224 320S208 327 208 336S215 352 224 352ZM464 64H387C358 36 310 0 256 0S154 36 125 64H48C22 64 0 86 0 112V464C0 490 22 512 48 512H464C490 512 512 490 512 464V112C512 86 490 64 464 64ZM256 32C286 32 315 47 338 64H174C197 47 226 32 256 32ZM480 464C480 473 473 480 464 480H48C39 480 32 473 32 464V288H480V464ZM480 256H32V112C32 103 39 96 48 96H464C473 96 480 103 480 112V256ZM96 352C105 352 112 345 112 336S105 320 96 320S80 327 80 336S87 352 96 352ZM96 448C105 448 112 441 112 432S105 416 96 416S80 423 80 432S87 448 96 448ZM160 352C169 352 176 345 176 336S169 320 160 320S144 327 144 336S151 352 160 352ZM192 400C201 400 208 393 208 384S201 368 192 368S176 375 176 384S183 400 192 400ZM128 400C137 400 144 393 144 384S137 368 128 368S112 375 112 384S119 400 128 400ZM96 152C83 152 72 163 72 176S83 200 96 200C109 200 120 189 120 176S109 152 96 152ZM192 152C179 152 168 163 168 176S179 200 192 200C205 200 216 189 216 176S205 152 192 152ZM320 152C307 152 296 163 296 176S307 200 320 200C333 200 344 189 344 176S333 152 320 152ZM416 152C403 152 392 163 392 176S403 200 416 200C429 200 440 189 440 176S429 152 416 152Z"/></svg>