<svg xmlns="http://www.w3.org/2000/svg" viewBox="0 0 576 512"><!-- Font Awesome Pro 6.0.0-alpha1 by @fontawesome - https://fontawesome.com License - https://fontawesome.com/license (Commercial License) --><path d="M571 325L507 261C501 254 491 254 485 261L421 325C414 331 414 341 421 347S437 354 443 347L480 311V336C480 415 415 480 336 480H304V224H368C377 224 384 217 384 208S377 192 368 192H304V158C340 151 368 119 368 80C368 36 332 0 288 0S208 36 208 80C208 119 235 151 272 158V192H208C199 192 192 199 192 208S199 224 208 224H272V480H240C161 480 96 415 96 336V311L133 347C136 350 140 352 144 352S152 350 155 347C162 341 162 331 155 325L91 261C85 254 75 254 69 261L5 325C-2 331 -2 341 5 347S21 354 27 347L64 311V336C64 433 143 512 240 512H336C433 512 512 433 512 336V311L549 347C552 350 556 352 560 352S568 350 571 347C578 341 578 331 571 325ZM240 80C240 54 262 32 288 32S336 54 336 80S314 128 288 128S240 106 240 80Z"/></svg>