<svg xmlns="http://www.w3.org/2000/svg" viewBox="0 0 448 512"><!-- Font Awesome Pro 6.0.0-alpha1 by @fontawesome - https://fontawesome.com License - https://fontawesome.com/license (Commercial License) --><path d="M60 85C54 79 44 78 37 84C31 90 30 100 36 107L170 256L36 405C31 412 30 422 37 428C44 434 54 433 60 427L204 267C209 261 209 251 204 245L60 85ZM396 245L252 85C246 79 236 78 229 84C223 90 222 100 228 107L362 256L228 405C223 412 222 422 229 428C236 434 246 433 252 427L396 267C401 261 401 251 396 245Z"/></svg>