<svg xmlns="http://www.w3.org/2000/svg" viewBox="0 0 448 512"><!-- Font Awesome Pro 6.0.0-alpha1 by @fontawesome - https://fontawesome.com License - https://fontawesome.com/license (Commercial License) --><path d="M203 84C196 78 186 79 180 85L36 245C31 251 31 261 36 267L180 427C186 433 196 434 203 428C209 422 210 412 204 405L70 256L204 107C210 101 210 90 203 84ZM262 256L396 107C402 100 402 90 395 84C388 78 378 79 372 85L228 245C223 251 223 261 228 267L372 427C378 433 388 434 395 428C401 422 402 412 396 405L262 256Z"/></svg>