<svg xmlns="http://www.w3.org/2000/svg" viewBox="0 0 512 512"><!-- Font Awesome Pro 6.0.0-alpha1 by @fontawesome - https://fontawesome.com License - https://fontawesome.com/license (Commercial License) --><path d="M336 126L352 135V135L352 135L352 135V135L368 126C422 96 435 123 435 123C447 140 450 171 446 192H478C489 121 450 44 352 98C328 85 308 80 290 80C299 90 305 102 310 115C317 117 326 120 336 126ZM432 288C423 288 416 295 416 304S423 320 432 320S448 313 448 304S441 288 432 288ZM66 192C62 171 65 140 77 123C77 123 90 96 144 126L160 135V135L160 135L160 135V135L176 126C230 96 243 123 243 123C255 140 258 171 254 192H286C297 121 258 44 160 98C62 44 23 121 34 192H66ZM368 64C372 64 376 62 379 59L411 27C418 21 418 11 411 5S395 -2 389 5L357 37C350 43 350 53 357 59C360 62 364 64 368 64ZM176 64C180 64 184 62 187 59L219 27C226 21 226 11 219 5S203 -2 197 5L165 37C158 43 158 53 165 59C168 62 172 64 176 64ZM80 288C71 288 64 295 64 304S71 320 80 320S96 313 96 304S89 288 80 288ZM432 448C441 448 448 441 448 432S441 416 432 416S416 423 416 432S423 448 432 448ZM472 224H470V224H436V224H279V224H244V224H76V224H41V224H40C18 224 0 242 0 264V472C0 494 18 512 40 512H472C494 512 512 494 512 472V264C512 242 494 224 472 224ZM480 464C480 473 473 480 464 480H48C39 480 32 473 32 464V384H480V464ZM480 352H32V272C32 263 39 256 48 256H464C473 256 480 263 480 272V352ZM80 448C89 448 96 441 96 432S89 416 80 416S64 423 64 432S71 448 80 448Z"/></svg>