<svg xmlns="http://www.w3.org/2000/svg" viewBox="0 0 576 512"><!-- Font Awesome Pro 6.0.0-alpha1 by @fontawesome - https://fontawesome.com License - https://fontawesome.com/license (Commercial License) --><path d="M560 480H544V32H560C569 32 576 25 576 16S569 0 560 0H16C7 0 0 7 0 16S7 32 16 32H32V480H16C7 480 0 487 0 496S7 512 16 512H176C185 512 192 505 192 496V323C192 270 233 225 286 224C340 223 384 266 384 320V496C384 505 391 512 400 512H560C569 512 576 505 576 496S569 480 560 480ZM512 480H416V320C416 249 359 192 288 192S160 249 160 320V480H64V128H512V480ZM512 96H64V32H512V96Z"/></svg>