<svg xmlns="http://www.w3.org/2000/svg" viewBox="0 0 448 512"><!-- Font Awesome Pro 6.0.0-alpha1 by @fontawesome - https://fontawesome.com License - https://fontawesome.com/license (Commercial License) --><path d="M108 38C105 34 101 32 96 32S87 34 84 38L4 134C-2 141 -1 151 6 156C13 162 23 161 28 154L80 92V464C80 473 87 480 96 480S112 473 112 464V92L164 154C169 161 179 162 186 156C193 151 194 141 188 134L108 38ZM352 32C308 32 272 68 272 112S308 192 352 192C369 192 384 187 397 178C389 204 365 224 336 224C327 224 320 231 320 240S327 256 336 256C389 256 432 213 432 160V112C432 68 396 32 352 32ZM352 160C326 160 304 138 304 112S326 64 352 64S400 86 400 112S378 160 352 160ZM400 448H368V304C368 295 361 288 352 288H320C311 288 304 295 304 304S311 320 320 320H336V448H304C295 448 288 455 288 464S295 480 304 480H400C409 480 416 473 416 464S409 448 400 448Z"/></svg>