<svg xmlns="http://www.w3.org/2000/svg" viewBox="0 0 448 512"><!-- Font Awesome Pro 6.0.0-alpha1 by @fontawesome - https://fontawesome.com License - https://fontawesome.com/license (Commercial License) --><path d="M164 358L112 420V48C112 39 105 32 96 32S80 39 80 48V420L28 358C23 351 13 350 6 356C-1 361 -2 371 4 378L84 474C87 478 91 480 96 480S105 478 108 474L188 378C194 371 193 361 186 356C179 350 169 351 164 358ZM444 183L361 46C355 37 346 32 336 32S317 37 311 46L228 183C217 201 231 224 253 224H419C441 224 455 201 444 183ZM260 192L336 66L412 192H260ZM408 288H264C251 288 240 299 240 312V456C240 469 251 480 264 480H408C421 480 432 469 432 456V312C432 299 421 288 408 288ZM400 448H272V320H400V448Z"/></svg>