<svg xmlns="http://www.w3.org/2000/svg" viewBox="0 0 448 512"><!-- Font Awesome Pro 6.0.0-alpha1 by @fontawesome - https://fontawesome.com License - https://fontawesome.com/license (Commercial License) --><path d="M108 38C105 34 101 32 96 32S87 34 84 38L4 134C-2 141 -1 151 6 156C13 162 23 161 28 154L80 92V464C80 473 87 480 96 480S112 473 112 464V92L164 154C169 161 179 162 186 156C193 151 194 141 188 134L108 38ZM446 200L366 40C361 29 343 29 338 40L258 200C254 208 257 218 265 222C273 226 282 223 286 215L298 192H406L418 215C421 221 430 227 439 222C447 218 450 208 446 200ZM314 159L352 83L390 159H314ZM416 448H321L428 314C432 309 433 302 430 297C428 291 422 288 416 288H288C279 288 272 295 272 304S279 320 288 320H383L275 454C272 459 271 465 274 471C276 476 282 480 288 480H416C425 480 432 473 432 464C432 455 425 448 416 448Z"/></svg>