<svg xmlns="http://www.w3.org/2000/svg" viewBox="0 0 512 512"><!-- Font Awesome Pro 6.0.0-alpha1 by @fontawesome - https://fontawesome.com License - https://fontawesome.com/license (Commercial License) --><path d="M108 38C105 34 101 32 96 32S87 34 84 38L4 134C-2 141 -1 151 6 156C13 162 23 161 28 154L80 92V464C80 473 87 480 96 480S112 473 112 464V92L164 154C169 161 179 162 186 156C193 151 194 141 188 134L108 38ZM288 192H416C434 192 448 178 448 160V64C448 46 434 32 416 32H288C270 32 256 46 256 64V160C256 178 270 192 288 192ZM288 64H416V160H288V64ZM480 256H288C270 256 256 270 256 288V448C256 466 270 480 288 480H480C498 480 512 466 512 448V288C512 270 498 256 480 256ZM480 448H288V288H480V448Z"/></svg>