<svg xmlns="http://www.w3.org/2000/svg" viewBox="0 0 448 512"><!-- Font Awesome Pro 6.0.0-alpha1 by @fontawesome - https://fontawesome.com License - https://fontawesome.com/license (Commercial License) --><path d="M400 160H368C359 160 352 167 352 176S359 192 368 192H400C409 192 416 199 416 208V464C416 473 409 480 400 480H48C39 480 32 473 32 464V208C32 199 39 192 48 192H80C89 192 96 185 96 176S89 160 80 160H48C22 160 0 182 0 208V464C0 490 22 512 48 512H400C426 512 448 490 448 464V208C448 182 426 160 400 160ZM139 123L208 55V336C208 345 215 352 224 352S240 345 240 336V55L309 123C312 126 316 128 320 128S328 126 331 123C338 117 338 107 331 101L235 5C229 -2 219 -2 213 5L117 101C110 107 110 117 117 123S133 130 139 123Z"/></svg>