<svg xmlns="http://www.w3.org/2000/svg" viewBox="0 0 448 512"><!-- Font Awesome Pro 6.0.0-alpha1 by @fontawesome - https://fontawesome.com License - https://fontawesome.com/license (Commercial License) --><path d="M164 358L112 420V48C112 39 105 32 96 32S80 39 80 48V420L28 358C23 351 13 350 6 356C-1 361 -2 371 4 378L84 474C87 478 91 480 96 480S105 478 108 474L188 378C194 371 193 361 186 356C179 350 169 351 164 358ZM446 201L366 41C361 30 343 30 338 41L258 201C254 209 257 218 265 222C273 226 282 223 286 215L298 192H406L418 215C421 221 430 227 439 222C447 218 450 209 446 201ZM314 160L352 84L390 160H314ZM416 448H321L429 314C432 309 433 303 430 297C428 292 422 288 416 288H288C279 288 272 295 272 304S279 320 288 320H383L276 454C272 459 271 465 274 471C276 476 282 480 288 480H416C425 480 432 473 432 464S425 448 416 448Z"/></svg>