<svg xmlns="http://www.w3.org/2000/svg" viewBox="0 0 512 512"><!-- Font Awesome Pro 6.0.0-alpha1 by @fontawesome - https://fontawesome.com License - https://fontawesome.com/license (Commercial License) --><path d="M507 267L395 379C392 382 388 384 384 384S376 382 373 379C366 373 366 363 373 357L457 272H55L139 357C146 363 146 373 139 379C136 382 132 384 128 384S120 382 117 379L5 267C-2 261 -2 251 5 245L117 133C123 126 133 126 139 133S146 149 139 155L55 240H457L373 155C366 149 366 139 373 133S389 126 395 133L507 245C514 251 514 261 507 267Z"/></svg>