<svg xmlns="http://www.w3.org/2000/svg" viewBox="0 0 512 512"><!-- Font Awesome Pro 6.0.0-alpha1 by @fontawesome - https://fontawesome.com License - https://fontawesome.com/license (Commercial License) --><path d="M208 283H48C39 283 32 290 32 299S39 315 48 315H169L21 464C14 470 14 480 21 487S37 493 43 487L192 338V459C192 468 199 475 208 475S224 468 224 459V299C224 290 217 283 208 283ZM491 16C485 10 475 10 469 16L320 165V43C320 34 313 27 304 27S288 34 288 43V203C288 212 295 219 304 219H464C473 219 480 212 480 203S473 187 464 187H343L491 39C498 32 498 22 491 16Z"/></svg>