<svg xmlns="http://www.w3.org/2000/svg" viewBox="0 0 512 512"><!-- Font Awesome Pro 6.0.0-alpha1 by @fontawesome - https://fontawesome.com License - https://fontawesome.com/license (Commercial License) --><path d="M176 112H388L326 164C319 169 318 179 324 186C327 190 331 192 336 192C340 192 343 191 346 188L442 108C446 105 448 101 448 96S446 87 442 84L346 4C339 -2 329 -1 324 6C318 13 319 23 326 28L388 80H176C79 80 0 159 0 256C0 265 7 272 16 272S32 265 32 256C32 177 97 112 176 112ZM272 320C281 320 288 313 288 304V208C288 199 281 192 272 192H240C231 192 224 199 224 208S231 224 240 224H256V304C256 313 263 320 272 320ZM496 240C487 240 480 247 480 256C480 335 415 400 336 400H124L186 348C193 343 194 333 188 326C183 319 173 318 166 324L70 404C66 407 64 411 64 416S66 425 70 428L166 508C169 511 172 512 176 512C181 512 185 510 188 506C194 499 193 489 186 484L124 432H336C433 432 512 353 512 256C512 247 505 240 496 240Z"/></svg>