<svg xmlns="http://www.w3.org/2000/svg" viewBox="0 0 640 512"><!-- Font Awesome Pro 6.0.0-alpha1 by @fontawesome - https://fontawesome.com License - https://fontawesome.com/license (Commercial License) --><path d="M204 38C201 34 197 32 192 32S183 34 180 38L100 134C94 141 95 151 102 156C109 162 119 161 124 154L176 92V464C176 473 183 480 192 480S208 473 208 464V92L260 154C265 161 275 162 282 156C289 151 290 141 284 134L204 38ZM504 288H360C347 288 336 299 336 312V456C336 469 347 480 360 480H504C517 480 528 469 528 456V312C528 299 517 288 504 288ZM496 448H368V320H496V448ZM540 183L457 46C451 37 442 32 432 32S413 37 407 46L324 183C313 201 327 224 349 224H515C537 224 551 201 540 183ZM356 192L432 66L508 192H356Z"/></svg>