<svg xmlns="http://www.w3.org/2000/svg" viewBox="0 0 384 512"><!-- Font Awesome Pro 6.0.0-alpha1 by @fontawesome - https://fontawesome.com License - https://fontawesome.com/license (Commercial License) --><path d="M380 134L300 38C297 34 293 32 288 32S279 34 276 38L196 134C190 141 191 151 198 156C205 162 215 161 220 154L272 92V464C272 473 279 480 288 480S304 473 304 464V92L356 154C361 161 371 162 378 156C385 151 386 141 380 134ZM164 358L112 420V48C112 39 105 32 96 32S80 39 80 48V420L28 358C23 351 13 350 6 356C-1 361 -2 371 4 378L84 474C87 478 91 480 96 480S105 478 108 474L188 378C194 371 193 361 186 356C179 350 169 351 164 358Z"/></svg>