<svg xmlns="http://www.w3.org/2000/svg" viewBox="0 0 448 512"><!-- Font Awesome Pro 6.0.0-alpha1 by @fontawesome - https://fontawesome.com License - https://fontawesome.com/license (Commercial License) --><path d="M416 176V87L247 256L416 425V336C416 327 423 320 432 320S448 327 448 336V464C448 473 441 480 432 480H304C295 480 288 473 288 464S295 448 304 448H393L224 279L55 448H144C153 448 160 455 160 464S153 480 144 480H16C7 480 0 473 0 464V336C0 327 7 320 16 320S32 327 32 336V425L201 256L32 87V176C32 185 25 192 16 192S0 185 0 176V48C0 39 7 32 16 32H144C153 32 160 39 160 48S153 64 144 64H55L224 233L393 64H304C295 64 288 57 288 48S295 32 304 32H432C441 32 448 39 448 48V176C448 185 441 192 432 192S416 185 416 176Z"/></svg>