<svg xmlns="http://www.w3.org/2000/svg" viewBox="0 0 448 512"><!-- Font Awesome Pro 6.0.0-alpha1 by @fontawesome - https://fontawesome.com License - https://fontawesome.com/license (Commercial License) --><path d="M108 38C105 34 101 32 96 32S87 34 84 38L4 134C-2 141 -1 151 6 156C13 162 23 161 28 154L80 92V464C80 473 87 480 96 480S112 473 112 464V92L164 154C169 161 179 162 186 156C193 151 194 141 188 134L108 38ZM352 256C308 256 272 292 272 336S308 416 352 416C369 416 384 411 397 402C389 428 365 448 336 448C327 448 320 455 320 464S327 480 336 480C389 480 432 437 432 384V336C432 292 396 256 352 256ZM352 384C326 384 304 362 304 336S326 288 352 288S400 310 400 336S378 384 352 384ZM304 224H400C409 224 416 217 416 208S409 192 400 192H368V48C368 39 361 32 352 32H320C311 32 304 39 304 48S311 64 320 64H336V192H304C295 192 288 199 288 208S295 224 304 224Z"/></svg>