<svg xmlns="http://www.w3.org/2000/svg" viewBox="0 0 512 512"><!-- Font Awesome Pro 6.0.0-alpha1 by @fontawesome - https://fontawesome.com License - https://fontawesome.com/license (Commercial License) --><path d="M507 245L363 101C357 94 347 94 341 101S334 117 341 123L457 240H176C167 240 160 247 160 256S167 272 176 272H457L341 389C334 395 334 405 341 411S357 418 363 411L507 267C510 264 512 260 512 256S510 248 507 245ZM176 448H80C54 448 32 426 32 400V112C32 86 54 64 80 64H176C185 64 192 57 192 48S185 32 176 32H80C36 32 0 68 0 112V400C0 444 36 480 80 480H176C185 480 192 473 192 464S185 448 176 448Z"/></svg>