<svg xmlns="http://www.w3.org/2000/svg" viewBox="0 0 512 512"><!-- Font Awesome Pro 6.0.0-alpha1 by @fontawesome - https://fontawesome.com License - https://fontawesome.com/license (Commercial License) --><path d="M496 0H336C327 0 320 7 320 16S327 32 336 32H457L293 197C286 203 286 213 293 219S309 226 315 219L480 55V176C480 185 487 192 496 192S512 185 512 176V16C512 7 505 0 496 0ZM197 293L32 457V336C32 327 25 320 16 320S0 327 0 336V496C0 505 7 512 16 512H176C185 512 192 505 192 496S185 480 176 480H55L219 315C226 309 226 299 219 293S203 286 197 293Z"/></svg>