<svg xmlns="http://www.w3.org/2000/svg" viewBox="0 0 512 512"><!-- Font Awesome Pro 6.0.0-alpha1 by @fontawesome - https://fontawesome.com License - https://fontawesome.com/license (Commercial License) --><path d="M480 256C480 379 380 480 256 480C187 480 122 449 79 394C74 387 75 377 82 371C89 366 99 367 105 374C141 421 197 448 256 448C362 448 448 362 448 256S362 64 256 64C187 64 125 101 90 160H176C185 160 192 167 192 176S185 192 176 192H48C39 192 32 185 32 176V48C32 39 39 32 48 32S64 39 64 48V142C104 74 177 32 256 32C380 32 480 133 480 256Z"/></svg>