<svg xmlns="http://www.w3.org/2000/svg" viewBox="0 0 512 512"><!-- Font Awesome Pro 6.0.0-alpha1 by @fontawesome - https://fontawesome.com License - https://fontawesome.com/license (Commercial License) --><path d="M101 14C99 5 92 0 85 0C81 0 77 2 74 5C29 51 0 118 0 192S29 333 74 379C77 382 81 384 85 384C92 384 99 379 101 370C114 315 156 273 208 266V233C117 246 86 318 79 335C49 296 32 245 32 192S49 88 79 49C86 66 117 138 208 151V118C156 111 114 69 101 14ZM512 161C505 99 477 44 438 5C435 2 431 0 427 0C420 0 413 5 411 14C398 69 356 111 304 118V151C395 138 426 66 433 49C455 77 470 112 476 150L457 170L435 192L457 214L476 234C470 272 455 307 433 336C426 318 395 246 304 233V266C356 273 398 315 411 370C413 379 420 384 427 384C431 384 435 382 438 379C477 340 505 285 512 223L480 192L512 161ZM256 32C247 32 240 39 240 48V496C240 505 247 512 256 512S272 505 272 496V48C272 39 265 32 256 32Z"/></svg>