<svg xmlns="http://www.w3.org/2000/svg" viewBox="0 0 512 512"><!-- Font Awesome Pro 6.0.0-alpha1 by @fontawesome - https://fontawesome.com License - https://fontawesome.com/license (Commercial License) --><path d="M481 64C475 64 468 66 462 71L310 196C303 202 302 212 308 219C313 226 323 227 330 221L480 96V416L330 291C323 285 313 286 308 293C302 300 303 310 310 316L462 441C468 446 475 448 481 448C498 448 512 435 512 416V96C512 77 498 64 481 64ZM225 64C219 64 212 66 206 71L12 231C4 237 0 246 0 256S4 275 12 281L206 441C212 446 219 448 225 448C236 448 256 440 256 416V96C256 72 236 64 225 64ZM224 416L33 256L224 96V416Z"/></svg>