<svg xmlns="http://www.w3.org/2000/svg" viewBox="0 0 576 512"><!-- Font Awesome Pro 6.0.0-alpha1 by @fontawesome - https://fontawesome.com License - https://fontawesome.com/license (Commercial License) --><path d="M528 256H240C214 256 192 278 192 304V464C192 490 214 512 240 512H528C554 512 576 490 576 464V304C576 278 554 256 528 256ZM544 464C544 473 537 480 528 480H240C231 480 224 473 224 464V304C224 295 231 288 240 288H528C537 288 544 295 544 304V464ZM144 448H48C39 448 32 441 32 432V208C32 199 39 192 48 192H400C409 192 416 199 416 208C416 217 423 224 432 224S448 217 448 208C448 182 426 160 400 160H320V96C320 43 277 0 224 0S128 43 128 96V160H48C22 160 0 182 0 208V432C0 458 22 480 48 480H144C153 480 160 473 160 464S153 448 144 448ZM160 96C160 61 189 32 224 32S288 61 288 96V160H160V96ZM464 320C455 320 448 327 448 336V352C448 387 419 416 384 416S320 387 320 352V336C320 327 313 320 304 320S288 327 288 336V352C288 405 331 448 384 448S480 405 480 352V336C480 327 473 320 464 320Z"/></svg>