<svg xmlns="http://www.w3.org/2000/svg" viewBox="0 0 320 512"><!-- Font Awesome Pro 6.0.0-alpha1 by @fontawesome - https://fontawesome.com License - https://fontawesome.com/license (Commercial License) --><path d="M253 234C274 216 288 190 288 160C288 107 245 64 192 64H160V16C160 7 153 0 144 0S128 7 128 16V64H16C7 64 0 71 0 80V432C0 441 7 448 16 448H128V496C128 505 135 512 144 512S160 505 160 496V448H208C270 448 320 398 320 336C320 290 292 251 253 234ZM192 96C227 96 256 125 256 160S227 224 192 224H160V96H192ZM32 96H128V224H32V96ZM32 416V256H128V416H32ZM208 416H160V256H208C252 256 288 292 288 336S252 416 208 416Z"/></svg>