<svg xmlns="http://www.w3.org/2000/svg" viewBox="0 0 448 512"><!-- Font Awesome Pro 6.0.0-alpha1 by @fontawesome - https://fontawesome.com License - https://fontawesome.com/license (Commercial License) --><path d="M96 360C83 360 72 371 72 384C72 397 83 408 96 408C109 408 120 397 120 384C120 371 109 360 96 360ZM352 368H176C167 368 160 375 160 384S167 400 176 400H352C361 400 368 393 368 384S361 368 352 368ZM101 288C105 288 110 286 113 283L171 225C178 218 178 208 171 202S155 196 149 202L101 249L91 239C85 233 75 233 69 239S62 256 69 262L90 283C93 286 97 288 101 288ZM96 152C109 152 120 141 120 128C120 115 109 104 96 104C83 104 72 115 72 128C72 141 83 152 96 152ZM352 240H208C199 240 192 247 192 256S199 272 208 272H352C361 272 368 265 368 256S361 240 352 240ZM384 0H64C29 0 0 29 0 64V448C0 483 29 512 64 512H384C419 512 448 483 448 448V64C448 29 419 0 384 0ZM416 448C416 466 402 480 384 480H64C46 480 32 466 32 448V64C32 46 46 32 64 32H384C402 32 416 46 416 64V448ZM352 112H176C167 112 160 119 160 128S167 144 176 144H352C361 144 368 137 368 128S361 112 352 112Z"/></svg>