<svg xmlns="http://www.w3.org/2000/svg" viewBox="0 0 512 512"><!-- Font Awesome Pro 6.0.0-alpha1 by @fontawesome - https://fontawesome.com License - https://fontawesome.com/license (Commercial License) --><path d="M130 312L176 305C176 312 177 319 179 325L135 355C128 360 126 370 131 377C134 382 143 387 153 381L194 354C209 372 231 384 256 384C272 384 288 379 302 370L278 346C271 350 264 352 256 352C230 352 208 330 208 304V276L176 244V273L126 280C117 281 111 290 112 298C114 312 127 312 130 312ZM256 16C123 16 16 123 16 256S123 496 256 496S496 389 496 256S389 16 256 16ZM256 464C141 464 48 371 48 256C48 204 67 157 98 121L391 414C355 445 308 464 256 464ZM212 189C221 168 243 157 266 161C288 166 304 185 304 208V281L212 189ZM414 391L335 313C335 310 336 308 336 305L382 312C384 312 398 312 400 298C401 290 395 281 386 280L336 273V247L386 240C392 239 397 235 399 230C401 225 400 218 397 214C393 209 387 207 382 208L336 215C336 197 335 193 333 187L377 157C384 152 386 142 381 135C376 128 366 126 359 131L318 158C303 140 281 128 256 128C227 128 203 143 189 166L121 98C157 67 204 48 256 48C371 48 464 141 464 256C464 308 445 355 414 391Z"/></svg>