<svg xmlns="http://www.w3.org/2000/svg" viewBox="0 0 512 512"><!-- Font Awesome Pro 6.0.0-alpha1 by @fontawesome - https://fontawesome.com License - https://fontawesome.com/license (Commercial License) --><path d="M256 0C115 0 0 115 0 256S115 512 256 512S512 397 512 256S397 0 256 0ZM256 480C133 480 32 379 32 256C32 200 53 149 87 110L201 224H128C110 224 96 238 96 256V288C96 306 110 320 128 320H297L402 425C363 459 312 480 256 480ZM233 256L265 288H128V256H233ZM425 402L342 319C348 317 352 311 352 304C352 295 345 288 336 288H311L279 256H336C345 256 352 249 352 240S345 224 336 224H247L110 87C149 53 200 32 256 32C379 32 480 133 480 256C480 312 459 363 425 402ZM400 224C391 224 384 231 384 240V304C384 313 391 320 400 320S416 313 416 304V240C416 231 409 224 400 224ZM399 193C408 193 415 186 415 177C415 142 383 113 345 113H310C299 113 288 109 281 101C275 95 272 88 272 80L272 78L272 78C270 70 264 64 256 64H256C247 64 240 71 240 80C240 96 246 112 258 124C271 137 290 145 310 145H345C366 145 383 159 383 177C383 186 390 193 399 193Z"/></svg>