<svg xmlns="http://www.w3.org/2000/svg" viewBox="0 0 640 512"><!-- Font Awesome Pro 6.0.0-alpha1 by @fontawesome - https://fontawesome.com License - https://fontawesome.com/license (Commercial License) --><path d="M560 96H80C36 96 0 132 0 176V336C0 380 36 416 80 416H560C604 416 640 380 640 336V176C640 132 604 96 560 96ZM160 384H80C54 384 32 362 32 336V176C32 150 54 128 80 128H160V384ZM448 384H192V128H448V384ZM608 336C608 362 586 384 560 384H480V128H560C586 128 608 150 608 176V336ZM272 228C283 228 292 219 292 208S283 188 272 188S252 197 252 208S261 228 272 228ZM368 228C379 228 388 219 388 208S379 188 368 188S348 197 348 208S357 228 368 228ZM272 324C283 324 292 315 292 304S283 284 272 284S252 293 252 304S261 324 272 324ZM368 324C379 324 388 315 388 304S379 284 368 284S348 293 348 304S357 324 368 324Z"/></svg>