<svg xmlns="http://www.w3.org/2000/svg" viewBox="0 0 512 512"><!-- Font Awesome Pro 6.0.0-alpha1 by @fontawesome - https://fontawesome.com License - https://fontawesome.com/license (Commercial License) --><path d="M496 480H16C7 480 0 487 0 496C0 505 7 512 16 512H496C505 512 512 505 512 496C512 487 505 480 496 480ZM472 448C481 448 488 441 488 432C488 423 481 416 472 416H40C31 416 24 423 24 432C24 441 31 448 40 448H472ZM497 98L265 2C262 1 259 0 256 0S250 1 247 2L15 98C6 102 0 110 0 120V168C0 181 11 192 24 192H64V352C55 352 48 359 48 368C48 377 55 384 64 384H448C457 384 464 377 464 368C464 359 457 352 448 352V192H488C501 192 512 181 512 168V120C512 110 506 102 497 98ZM176 352H96V192H176V352ZM304 352H208V192H304V352ZM232 136C232 123 243 112 256 112S280 123 280 136S269 160 256 160S232 149 232 136ZM416 352H336V192H416V352ZM480 160H306C310 153 312 145 312 136C312 105 287 80 256 80S200 105 200 136C200 145 202 153 206 160H32V125L256 33L480 125V160Z"/></svg>