<svg xmlns="http://www.w3.org/2000/svg" viewBox="0 0 512 512"><!-- Font Awesome Pro 6.0.0-alpha1 by @fontawesome - https://fontawesome.com License - https://fontawesome.com/license (Commercial License) --><path d="M496 32C487 32 480 39 480 48V464C480 473 487 480 496 480S512 473 512 464V48C512 39 505 32 496 32ZM400 32C391 32 384 39 384 48V464C384 473 391 480 400 480S416 473 416 464V48C416 39 409 32 400 32ZM304 32C295 32 288 39 288 48V464C288 473 295 480 304 480S320 473 320 464V48C320 39 313 32 304 32ZM240 32C231 32 224 39 224 48V464C224 473 231 480 240 480S256 473 256 464V48C256 39 249 32 240 32ZM144 32C135 32 128 39 128 48V464C128 473 135 480 144 480S160 473 160 464V48C160 39 153 32 144 32ZM80 32C71 32 64 39 64 48V464C64 473 71 480 80 480S96 473 96 464V48C96 39 89 32 80 32ZM16 32C7 32 0 39 0 48V464C0 473 7 480 16 480S32 473 32 464V48C32 39 25 32 16 32Z"/></svg>