<svg xmlns="http://www.w3.org/2000/svg" viewBox="0 0 640 512"><!-- Font Awesome Pro 6.0.0-alpha1 by @fontawesome - https://fontawesome.com License - https://fontawesome.com/license (Commercial License) --><path d="M624 240H16C7 240 0 247 0 256S7 272 16 272H624C633 272 640 265 640 256S633 240 624 240ZM96 48C96 39 89 32 80 32S64 39 64 48V192H96V48ZM160 48C160 39 153 32 144 32S128 39 128 48V192H160V48ZM320 48C320 39 313 32 304 32S288 39 288 48V192H320V48ZM384 48C384 39 377 32 368 32S352 39 352 48V192H384V48ZM576 48C576 39 569 32 560 32S544 39 544 48V192H576V48ZM480 48C480 39 473 32 464 32S448 39 448 48V192H480V48ZM224 48C224 39 217 32 208 32S192 39 192 48V192H224V48ZM352 464C352 473 359 480 368 480S384 473 384 464V320H352V464ZM64 464C64 473 71 480 80 480S96 473 96 464V320H64V464ZM544 464C544 473 551 480 560 480S576 473 576 464V320H544V464ZM448 464C448 473 455 480 464 480S480 473 480 464V320H448V464ZM128 464C128 473 135 480 144 480S160 473 160 464V320H128V464ZM288 464C288 473 295 480 304 480S320 473 320 464V320H288V464ZM192 464C192 473 199 480 208 480S224 473 224 464V320H192V464Z"/></svg>