<svg xmlns="http://www.w3.org/2000/svg" viewBox="0 0 640 512"><!-- Font Awesome Pro 6.0.0-alpha1 by @fontawesome - https://fontawesome.com License - https://fontawesome.com/license (Commercial License) --><path d="M627 60L604 28C581 -3 539 -8 510 13L308 160C262 193 220 231 183 273C154 307 111 352 53 394L31 410C31 409 20 392 6 404C-1 409 -2 419 3 426L67 506C73 513 83 514 90 509C91 508 103 499 90 483L108 470C174 422 231 397 263 383C315 361 365 333 410 300L613 154C642 132 649 90 627 60ZM70 458L51 435C80 414 123 384 176 329L209 373C141 406 99 437 70 458ZM594 128C347 307 351 310 234 361L195 308C280 213 282 218 529 39C544 28 566 30 578 46L601 79C613 95 609 116 594 128ZM496 352C452 352 416 388 416 432C416 476 452 512 496 512S576 476 576 432C576 388 540 352 496 352ZM496 480C470 480 448 458 448 432C448 406 470 384 496 384C523 384 544 406 544 432C544 458 523 480 496 480Z"/></svg>