<svg xmlns="http://www.w3.org/2000/svg" viewBox="0 0 512 512"><!-- Font Awesome Pro 6.0.0-alpha1 by @fontawesome - https://fontawesome.com License - https://fontawesome.com/license (Commercial License) --><path d="M256 16C123 16 16 123 16 256S123 496 256 496S496 389 496 256S389 16 256 16ZM464 256C413 258 367 278 331 309L279 256L414 121C445 157 464 204 464 256C464 256 464 256 464 256ZM391 414C363 438 327 455 289 461C291 420 306 383 331 354L391 414ZM391 98L256 233L203 181C234 145 254 99 256 48C256 48 256 48 256 48C308 48 355 67 391 98ZM121 98C149 74 185 57 223 51C221 92 206 129 181 158L121 98ZM98 121L158 181C129 206 92 221 51 223C57 185 74 149 98 121ZM48 256C99 254 145 234 181 203L233 256L98 391C67 355 48 308 48 256C48 256 48 256 48 256ZM121 414L256 279L309 331C278 367 258 413 256 464C256 464 256 464 256 464C204 464 157 445 121 414ZM414 391L354 331C383 306 420 291 461 289C455 327 438 363 414 391Z"/></svg>