<svg xmlns="http://www.w3.org/2000/svg" viewBox="0 0 576 512"><!-- Font Awesome Pro 6.0.0-alpha1 by @fontawesome - https://fontawesome.com License - https://fontawesome.com/license (Commercial License) --><path d="M560 192H419L351 10C348 2 339 -2 330 1C322 4 318 13 321 22L385 192H191L255 22C258 13 254 4 246 1C237 -2 228 2 225 10L157 192H16C7 192 0 199 0 208C0 217 7 224 16 224H32L85 462C91 491 117 512 147 512H429C459 512 485 491 491 462L544 224H560C569 224 576 217 576 208C576 199 569 192 560 192ZM460 455C457 470 444 480 429 480H147C132 480 119 470 116 455L65 224H145L129 266C126 275 130 284 138 287C140 288 142 288 144 288C150 288 157 284 159 278L179 224H397L417 278C419 284 426 288 432 288C434 288 436 288 438 287C446 284 450 275 447 266L431 224H511L460 455Z"/></svg>