<svg xmlns="http://www.w3.org/2000/svg" viewBox="0 0 640 512"><!-- Font Awesome Pro 6.0.0-alpha1 by @fontawesome - https://fontawesome.com License - https://fontawesome.com/license (Commercial License) --><path d="M639 287L568 130C563 117 550 110 538 110C532 110 526 112 521 115L416 175L384 64L334 112H306L256 64L224 175L119 115C114 112 108 110 102 110C90 110 77 117 72 130L1 287C-4 300 8 313 22 309L39 304C45 301 52 300 60 300C81 300 102 311 115 329L153 384L166 372C179 360 196 353 213 353C233 353 253 362 266 379L320 448L374 379C387 362 407 353 427 353C444 353 461 360 474 372L487 384L525 329C538 311 559 300 580 300C587 300 595 301 601 303L618 309C632 313 644 300 639 287ZM581 268C547 268 516 284 497 311L480 336C464 326 446 322 427 322C395 322 366 336 347 360L320 395L293 360C274 335 245 322 213 322C194 322 176 326 160 336L143 311C124 284 93 268 59 268C55 268 50 269 46 269L102 142L246 225L272 125L293 144H347L368 125L394 225L538 142L594 269C590 269 585 268 581 268Z"/></svg>