<svg xmlns="http://www.w3.org/2000/svg" viewBox="0 0 576 512"><!-- Font Awesome Pro 6.0.0-alpha1 by @fontawesome - https://fontawesome.com License - https://fontawesome.com/license (Commercial License) --><path d="M272 336C281 336 288 329 288 320V80C288 71 281 64 272 64C263 64 256 71 256 80V320C256 329 263 336 272 336ZM272 368C254 368 240 382 240 400C240 418 254 432 272 432S304 418 304 400C304 382 290 368 272 368ZM64 128H176C185 128 192 121 192 112C192 103 185 96 176 96H64C29 96 0 125 0 160V352C0 387 29 416 64 416H176C185 416 192 409 192 400C192 391 185 384 176 384H64C46 384 32 370 32 352V160C32 142 46 128 64 128ZM560 192C551 192 544 199 544 208V304C544 313 551 320 560 320S576 313 576 304V208C576 199 569 192 560 192ZM448 96H368C359 96 352 103 352 112C352 121 359 128 368 128H448C466 128 480 142 480 160V352C480 370 466 384 448 384H368C359 384 352 391 352 400C352 409 359 416 368 416H448C483 416 512 387 512 352V160C512 125 483 96 448 96Z"/></svg>