<svg xmlns="http://www.w3.org/2000/svg" viewBox="0 0 640 512"><!-- Font Awesome Pro 6.0.0-alpha1 by @fontawesome - https://fontawesome.com License - https://fontawesome.com/license (Commercial License) --><path d="M592 320C601 320 608 313 608 304V208C608 199 601 192 592 192S576 199 576 208V304C576 313 583 320 592 320ZM480 128C498 128 512 142 512 160V326L544 351V160C544 125 515 96 480 96H221L261 128H480ZM96 384C78 384 64 370 64 352V160C64 153 67 146 71 141L46 121C37 132 32 145 32 160V352C32 387 61 416 96 416H419L379 384H96ZM634 483L26 3C19 -2 9 -1 3 6C-2 13 -1 23 6 29L614 509C617 511 621 512 624 512C629 512 633 510 637 506C642 499 641 489 634 483Z"/></svg>