<svg xmlns="http://www.w3.org/2000/svg" viewBox="0 0 576 512"><!-- Font Awesome Pro 6.0.0-alpha1 by @fontawesome - https://fontawesome.com License - https://fontawesome.com/license (Commercial License) --><path d="M560 192C551 192 544 199 544 208V304C544 313 551 320 560 320S576 313 576 304V208C576 199 569 192 560 192ZM448 96H64C29 96 0 125 0 160V352C0 387 29 416 64 416H448C483 416 512 387 512 352V160C512 125 483 96 448 96ZM480 352C480 370 466 384 448 384H64C46 384 32 370 32 352V160C32 142 46 128 64 128H448C466 128 480 142 480 160V352ZM160 160H96C78 160 64 174 64 192V320C64 338 78 352 96 352H160C178 352 192 338 192 320V192C192 174 178 160 160 160ZM160 320H96V192H160V320Z"/></svg>