<svg xmlns="http://www.w3.org/2000/svg" viewBox="0 0 576 512"><!-- Font Awesome Pro 6.0.0-alpha1 by @fontawesome - https://fontawesome.com License - https://fontawesome.com/license (Commercial License) --><path d="M128 128C163 128 192 99 192 64S163 0 128 0S64 29 64 64S93 128 128 128ZM128 32C146 32 160 46 160 64S146 96 128 96S96 82 96 64S110 32 128 32ZM128 384C163 384 192 355 192 320S163 256 128 256S64 285 64 320S93 384 128 384ZM128 288C146 288 160 302 160 320S146 352 128 352S96 338 96 320S110 288 128 288ZM464 0H240C231 0 224 7 224 16V160H32V16C32 7 25 0 16 0S0 7 0 16V496C0 505 7 512 16 512S32 505 32 496V448H544V496C544 505 551 512 560 512S576 505 576 496V112C576 50 526 0 464 0ZM544 416H256V288H464C508 288 544 324 544 368V416ZM544 290C523 268 494 256 464 256H240C231 256 224 263 224 272V416H32V192H544V290ZM544 160H256V32H464C508 32 544 68 544 112V160Z"/></svg>