<svg xmlns="http://www.w3.org/2000/svg" viewBox="0 0 640 512"><!-- Font Awesome Pro 6.0.0-alpha1 by @fontawesome - https://fontawesome.com License - https://fontawesome.com/license (Commercial License) --><path d="M208 96H342L386 183C388 189 394 192 400 192H401C407 192 413 188 415 182L466 55L482 87C484 93 490 96 496 96H624C633 96 640 89 640 80S633 64 624 64H506L478 9C475 3 470 -1 463 0C457 0 451 4 449 10L398 137L366 73C364 67 358 64 352 64H208C199 64 192 71 192 80S199 96 208 96ZM144 320C188 320 224 284 224 240S188 160 144 160S64 196 64 240S100 320 144 320ZM144 192C170 192 192 214 192 240S170 288 144 288S96 266 96 240S118 192 144 192ZM528 160H480C471 160 464 167 464 176C464 185 471 192 480 192H528C572 192 608 228 608 272V352H288V192H320C329 192 336 185 336 176C336 167 329 160 320 160H272C263 160 256 167 256 176V352H32V81C32 73 27 66 19 64C9 63 0 70 0 80V495C0 503 5 510 13 512C23 513 32 506 32 496V448H608V495C608 503 613 510 621 512C631 513 640 506 640 496V272C640 210 590 160 528 160ZM608 416H32V384H608V416Z"/></svg>