<svg xmlns="http://www.w3.org/2000/svg" viewBox="0 0 640 512"><!-- Font Awesome Pro 6.0.0-alpha1 by @fontawesome - https://fontawesome.com License - https://fontawesome.com/license (Commercial License) --><path d="M528 128H272C263 128 256 135 256 144V320H32V48C32 39 25 32 16 32S0 39 0 48V464C0 473 7 480 16 480S32 473 32 464V416H608V464C608 473 615 480 624 480S640 473 640 464V240C640 178 590 128 528 128ZM608 384H32V352H608V384ZM608 320H288V160H528C572 160 608 196 608 240V320ZM144 288C188 288 224 252 224 208S188 128 144 128S64 164 64 208S100 288 144 288ZM144 160C170 160 192 182 192 208S170 256 144 256S96 234 96 208S118 160 144 160Z"/></svg>