<svg xmlns="http://www.w3.org/2000/svg" viewBox="0 0 512 512"><!-- Font Awesome Pro 6.0.0-alpha1 by @fontawesome - https://fontawesome.com License - https://fontawesome.com/license (Commercial License) --><path d="M112 128C103 128 96 135 96 144V368C96 377 103 384 112 384S128 377 128 368V144C128 135 121 128 112 128ZM240 128C231 128 224 135 224 144V368C224 377 231 384 240 384S256 377 256 368V144C256 135 249 128 240 128ZM176 128C167 128 160 135 160 144V368C160 377 167 384 176 384S192 377 192 368V144C192 135 185 128 176 128ZM400 96H352V80C352 54 330 32 304 32H48C22 32 0 54 0 80V384C0 437 43 480 96 480H256C309 480 352 437 352 384V378L436 336C463 322 480 295 480 264V176C480 132 444 96 400 96ZM320 384C320 419 291 448 256 448H96C61 448 32 419 32 384V80C32 71 39 64 48 64H304C313 64 320 71 320 80V384ZM448 264C448 283 438 299 421 307L352 342V128H400C426 128 448 150 448 176V264Z"/></svg>