<svg xmlns="http://www.w3.org/2000/svg" viewBox="0 0 512 512"><!-- Font Awesome Pro 6.0.0-alpha1 by @fontawesome - https://fontawesome.com License - https://fontawesome.com/license (Commercial License) --><path d="M240 208V400C240 409 247 416 256 416S272 409 272 400V208C272 199 265 192 256 192S240 199 240 208ZM99 133C112 125 128 130 138 138C152 152 171 160 192 160S232 152 247 138C256 130 272 125 285 133C295 140 307 144 320 144C360 144 391 108 383 66C378 43 359 24 336 18C331 17 325 16 320 16C308 16 297 19 287 25C274 33 258 32 246 22C232 8 213 0 192 0S152 8 138 22C126 32 110 33 97 25C87 19 76 16 64 16H64C59 16 53 17 48 18C25 24 6 43 1 66C-7 108 24 144 64 144C77 144 89 140 99 133ZM33 73C37 52 62 41 80 53C91 59 103 62 115 62C132 62 147 56 159 45C178 28 206 28 225 45C237 56 252 62 269 62C281 62 293 59 304 52C322 41 347 52 351 73C354 86 348 96 345 100C321 129 299 97 270 97C254 97 237 103 225 115C206 132 178 132 159 115C147 103 131 97 114 97C102 97 91 100 81 107C58 122 27 102 33 73ZM176 208V400C176 409 183 416 192 416S208 409 208 400V208C208 199 201 192 192 192S176 199 176 208ZM416 160H352C343 160 336 167 336 176V416C336 451 307 480 272 480H112C77 480 48 451 48 416V176C48 167 41 160 32 160S16 167 16 176V416C16 469 59 512 112 512H272C315 512 351 483 363 444L452 400C479 386 496 359 496 328V240C496 196 460 160 416 160ZM464 328C464 347 454 363 437 371L368 406V192H416C442 192 464 214 464 240V328ZM112 208V400C112 409 119 416 128 416S144 409 144 400V208C144 199 137 192 128 192S112 199 112 208Z"/></svg>