<svg xmlns="http://www.w3.org/2000/svg" viewBox="0 0 640 512"><!-- Font Awesome Pro 6.0.0-alpha1 by @fontawesome - https://fontawesome.com License - https://fontawesome.com/license (Commercial License) --><path d="M272 32C369 32 448 111 448 208C448 229 444 249 438 267L464 288C479 252 484 212 477 169C462 87 396 20 314 4C253 -8 195 7 150 40L176 61C204 43 237 32 272 32ZM262 129L351 199C347 159 313 128 272 128C269 128 266 129 262 129ZM464 480H416V413L384 388V448C384 466 370 480 352 480H192C174 480 160 466 160 448V383C192 404 231 416 272 416C312 416 349 405 380 385L353 364C329 377 301 384 272 384C175 384 96 305 96 208C96 193 98 179 102 165L74 144C68 164 64 186 64 208C64 267 89 320 128 358V448C128 483 157 512 192 512H464C484 512 502 505 516 492L490 472C482 477 474 480 464 480ZM634 483L26 3C19 -2 9 -1 3 6C-2 13 -1 23 6 29L614 509C617 511 621 512 624 512C629 512 633 510 637 506C642 499 641 489 634 483Z"/></svg>