<svg xmlns="http://www.w3.org/2000/svg" viewBox="0 0 448 512"><!-- Font Awesome Pro 6.0.0-alpha1 by @fontawesome - https://fontawesome.com License - https://fontawesome.com/license (Commercial License) --><path d="M433 335C405 308 384 280 384 186C384 106 321 41 240 34V16C240 7 233 0 224 0S208 7 208 16V34C127 41 64 106 64 186C64 280 43 308 15 335C1 348 -4 368 3 386C11 404 28 416 48 416H400C420 416 437 404 445 386C452 368 447 348 433 335ZM400 384H48C34 384 27 367 37 358C71 325 96 288 96 186C96 118 153 64 224 64S352 118 352 186C352 287 376 325 411 358C421 368 414 384 400 384ZM272 448C265 448 258 452 255 459C251 471 238 480 224 480S197 471 193 459C190 452 183 448 176 448H176C165 448 157 458 161 468C169 493 195 512 224 512C253 512 279 493 287 468C290 458 283 448 272 448ZM288 224H240V176C240 167 233 160 224 160S208 167 208 176V224H160C151 224 144 231 144 240S151 256 160 256H208V304C208 313 215 320 224 320S240 313 240 304V256H288C297 256 304 249 304 240S297 224 288 224Z"/></svg>