<svg xmlns="http://www.w3.org/2000/svg" viewBox="0 0 640 512"><!-- Font Awesome Pro 6.0.0-alpha1 by @fontawesome - https://fontawesome.com License - https://fontawesome.com/license (Commercial License) --><path d="M512 224C496 224 481 227 467 233L366 41C363 35 358 32 352 32H304C295 32 288 39 288 48S295 64 304 64H342L393 160H226L189 103C187 99 181 96 176 96H112C103 96 96 103 96 112S103 128 112 128H167L202 182L175 233C160 227 145 224 128 224C57 224 0 281 0 352C0 423 57 480 128 480C193 480 246 431 254 368H320C326 368 331 365 334 360L417 207L439 247C406 270 384 309 384 352C384 423 441 480 512 480C583 480 640 423 640 352C640 281 583 224 512 224ZM128 448C75 448 32 405 32 352C32 299 75 256 128 256C139 256 149 258 159 262L114 344C108 355 116 368 128 368H222C215 413 175 448 128 448ZM155 336L222 213L301 336H155ZM324 312L246 192H389L324 312ZM512 448C459 448 416 405 416 352C416 321 431 294 454 276L498 359C508 378 536 364 526 345L482 261C492 258 502 256 512 256C565 256 608 299 608 352C608 405 565 448 512 448Z"/></svg>