<svg xmlns="http://www.w3.org/2000/svg" viewBox="0 0 512 512"><!-- Font Awesome Pro 6.0.0-alpha1 by @fontawesome - https://fontawesome.com License - https://fontawesome.com/license (Commercial License) --><path d="M288 400C275 400 264 411 264 424S275 448 288 448S312 437 312 424S301 400 288 400ZM471 0H48C22 0 0 22 0 48V208C0 234 22 256 48 256H150L158 342C122 356 96 391 96 432V480C96 498 110 512 128 512H448C466 512 480 498 480 480V432C480 393 456 359 422 344L502 40C507 20 492 0 471 0ZM48 224C39 224 32 217 32 208V48C32 39 39 32 48 32H131L147 224H48ZM448 432V480H128V432C128 397 157 368 192 368H384C419 368 448 397 448 432ZM454 96H304C295 96 288 103 288 112S295 128 304 128H446L429 192H304C295 192 288 199 288 208S295 224 304 224H421L391 336H189L163 32H471L454 96Z"/></svg>