<svg xmlns="http://www.w3.org/2000/svg" viewBox="0 0 512 512"><!-- Font Awesome Pro 6.0.0-alpha1 by @fontawesome - https://fontawesome.com License - https://fontawesome.com/license (Commercial License) --><path d="M160 224C151 224 144 231 144 240S151 256 160 256C213 256 256 299 256 352S213 448 160 448S64 405 64 352V112C64 103 57 96 48 96S32 103 32 112V352C32 423 89 480 160 480S288 423 288 352S231 224 160 224ZM208 32C199 32 192 39 192 48S199 64 208 64C340 64 448 172 448 304C448 313 455 320 464 320S480 313 480 304C480 154 358 32 208 32ZM208 128C199 128 192 135 192 144S199 160 208 160C287 160 352 225 352 304C352 313 359 320 368 320S384 313 384 304C384 207 305 128 208 128Z"/></svg>