<svg xmlns="http://www.w3.org/2000/svg" viewBox="0 0 384 512"><!-- Font Awesome Pro 6.0.0-alpha1 by @fontawesome - https://fontawesome.com License - https://fontawesome.com/license (Commercial License) --><path d="M292 244C319 222 336 189 336 152C336 86 282 32 216 32H16C7 32 0 39 0 48S7 64 16 64H32V448H16C7 448 0 455 0 464S7 480 16 480H264C330 480 384 426 384 360C384 304 345 257 292 244ZM216 64C265 64 304 103 304 152S265 240 216 240H64V64H216ZM264 448H64V272H264C313 272 352 311 352 360S313 448 264 448Z"/></svg>