<svg xmlns="http://www.w3.org/2000/svg" viewBox="0 0 512 512"><!-- Font Awesome Pro 6.0.0-alpha1 by @fontawesome - https://fontawesome.com License - https://fontawesome.com/license (Commercial License) --><path d="M208 160C129 160 64 225 64 304C64 313 71 320 80 320S96 313 96 304C96 242 146 192 208 192C217 192 224 185 224 176S217 160 208 160ZM390 144L403 131C410 125 410 115 403 109C397 102 387 102 381 109L368 122L333 86C328 82 323 80 317 80S306 82 302 86L280 109C257 101 233 96 208 96C93 96 0 189 0 304S93 512 208 512S416 419 416 304C416 279 411 255 403 232L426 210C434 201 434 188 426 179L390 144ZM384 304C384 401 305 480 208 480S32 401 32 304S111 128 208 128C242 128 264 137 288 146L317 116L396 195L366 224C375 250 384 270 384 304ZM496 48H464V16C464 7 457 0 448 0S432 7 432 16V48H400C391 48 384 55 384 64S391 80 400 80H432V112C432 121 439 128 448 128S464 121 464 112V80H496C505 80 512 73 512 64S505 48 496 48Z"/></svg>