<svg xmlns="http://www.w3.org/2000/svg" viewBox="0 0 576 512"><!-- Font Awesome Pro 6.0.0-alpha1 by @fontawesome - https://fontawesome.com License - https://fontawesome.com/license (Commercial License) --><path d="M537 256C565 238 576 212 576 179C576 133 538 96 491 96C455 96 422 119 411 153C403 175 404 176 392 176H184C172 176 173 175 165 153C154 119 121 96 85 96C38 96 0 133 0 179C0 212 11 238 39 256C11 274 0 300 0 333C0 379 38 416 85 416C121 416 154 393 165 359C173 337 172 336 184 336H392C404 336 403 337 411 359C422 393 455 416 491 416C538 416 576 379 576 333C576 300 565 274 537 256ZM491 384C468 384 448 370 441 349C432 322 425 304 392 304H184C151 304 144 322 135 349C128 370 108 384 85 384C56 384 32 361 32 333C32 310 39 291 61 281V281C71 276 77 266 77 256S71 236 61 231V231C39 221 32 202 32 179C32 151 56 128 85 128C108 128 128 142 135 163C144 190 151 208 184 208H392C425 208 432 190 441 163C448 142 468 128 491 128C520 128 544 151 544 179C544 202 537 221 515 231V231C505 236 499 246 499 256S505 276 515 281V281C537 291 544 310 544 333C544 361 520 384 491 384Z"/></svg>