<svg xmlns="http://www.w3.org/2000/svg" viewBox="0 0 640 512"><!-- Font Awesome Pro 6.0.0-alpha1 by @fontawesome - https://fontawesome.com License - https://fontawesome.com/license (Commercial License) --><path d="M278 359L209 378C177 385 173 405 170 433C168 455 151 473 129 478C101 485 72 467 66 440C61 416 64 397 83 382L83 382C92 375 96 364 93 354C91 343 83 335 73 333L73 333C49 327 38 311 33 288C27 260 45 232 74 226C96 221 119 230 130 249C145 274 156 290 188 283L274 264C282 262 288 253 286 245C284 236 276 230 267 232L181 251C170 254 170 253 158 232C139 202 102 186 67 194C21 204 -8 249 2 294C9 327 25 351 57 362C33 386 28 414 35 446C45 492 90 520 136 510C171 502 198 472 202 436C205 413 204 412 215 409L285 390C294 388 299 380 298 371C296 362 287 357 278 359ZM573 194C538 186 501 202 482 232C470 253 470 254 459 251L373 232C364 230 356 236 354 245C352 253 358 262 366 264L452 283C484 290 495 274 510 249C521 230 544 221 566 226C595 232 613 260 607 288C602 311 591 327 567 333L567 333C557 335 549 343 547 354C544 364 548 375 557 382L557 382C576 397 579 416 574 440C567 467 539 485 511 478C489 473 472 455 470 433C467 405 463 385 431 378L362 359C353 357 344 362 342 371V371C340 380 346 388 355 390L424 409C436 412 435 413 438 437C442 472 469 502 504 510C550 520 595 492 605 446C612 414 607 386 583 362C615 351 631 327 638 294C648 249 619 204 573 194ZM320 0C311 0 304 7 304 16V112C304 121 311 128 320 128S336 121 336 112V16C336 7 329 0 320 0ZM229 155C232 158 236 160 240 160S248 158 251 155C258 149 258 139 251 133L187 69C181 62 171 62 165 69S158 85 165 91L229 155ZM400 160C404 160 408 158 411 155L475 91C482 85 482 75 475 69S459 62 453 69L389 133C382 139 382 149 389 155C392 158 396 160 400 160Z"/></svg>