<svg xmlns="http://www.w3.org/2000/svg" viewBox="0 0 512 512"><!-- Font Awesome Pro 6.0.0-alpha1 by @fontawesome - https://fontawesome.com License - https://fontawesome.com/license (Commercial License) --><path d="M475 229L411 165C405 158 395 158 389 165S382 181 389 187L409 208L364 253C351 239 337 227 320 218V80C320 71 313 64 304 64S288 71 288 80V236L304 246C334 263 357 289 370 320H78C91 289 114 263 144 246L160 236V80C160 71 153 64 144 64S128 71 128 80V218C71 251 32 313 32 384C32 427 46 467 70 499C76 506 87 512 96 512H352C361 512 372 506 378 499C402 467 416 427 416 384C416 345 404 309 384 279L432 231L453 251C459 258 469 258 475 251C482 245 482 235 475 229ZM352 480H97C75 452 64 419 64 384C64 373 66 362 68 352H380C382 362 384 373 384 384C384 419 373 453 352 480ZM112 32H336C345 32 352 25 352 16V16C352 7 345 0 336 0H112C103 0 96 7 96 16V16C96 25 103 32 112 32Z"/></svg>