<svg xmlns="http://www.w3.org/2000/svg" viewBox="0 0 448 512"><!-- Font Awesome Pro 6.0.0-alpha1 by @fontawesome - https://fontawesome.com License - https://fontawesome.com/license (Commercial License) --><path d="M308 85C303 83 297 83 294 87C290 91 289 97 292 102C308 128 302 162 278 181C276 183 274 186 274 190C274 193 275 196 277 198C290 212 295 231 290 249S270 281 252 285V259L258 266C261 269 266 269 270 266S273 258 270 254L259 244H272C276 244 280 240 280 236S276 228 272 228H259L270 218C273 214 273 210 270 206S262 203 258 206L252 213V84C252 77 247 72 240 72S228 77 228 84V213L222 206C218 203 214 203 210 206S207 214 210 218L221 228H208C204 228 200 232 200 236S204 244 208 244H221L210 254C207 258 207 262 210 266S219 269 222 266L228 259V285C210 281 195 267 190 249S190 212 202 198C205 196 206 193 206 190C206 186 204 183 201 181C177 162 172 128 188 102C189 100 190 98 190 96C190 93 189 90 186 87C183 83 177 83 172 85C127 110 100 157 100 207C100 284 163 347 240 347S380 284 380 207C380 157 352 110 308 85ZM330 198C334 201 338 201 342 198L354 185C355 193 356 200 356 207C356 212 355 216 354 221L331 242C329 244 327 247 328 250C329 252 331 255 333 256C336 256 339 256 341 254L348 248C331 292 290 323 240 323S149 292 132 248L139 254C142 257 147 257 150 253C151 252 152 250 152 247S151 243 149 242L126 221C125 216 124 212 124 207C124 200 125 193 126 185L138 198C142 201 146 201 150 198S153 190 150 186L131 168C137 153 145 140 155 129C155 130 155 132 155 134C155 155 163 176 178 191C156 223 161 266 190 291C218 317 262 317 290 291C319 266 324 223 302 191C317 176 325 155 325 134C325 132 325 130 325 129C335 140 343 153 349 168L330 186C327 190 327 194 330 198ZM448 368V48C448 22 426 0 400 0H80C36 0 0 36 0 80V448C0 483 29 512 64 512H432C441 512 448 505 448 496S441 480 432 480H416V413C435 406 448 389 448 368ZM384 480H64C46 480 32 466 32 448S46 416 64 416H384V480ZM400 384H64C52 384 41 387 32 393V80C32 54 54 32 80 32H400C409 32 416 39 416 48V368C416 377 409 384 400 384Z"/></svg>