<svg xmlns="http://www.w3.org/2000/svg" viewBox="0 0 448 512"><!-- Font Awesome Pro 6.0.0-alpha1 by @fontawesome - https://fontawesome.com License - https://fontawesome.com/license (Commercial License) --><path d="M448 368V48C448 22 426 0 400 0H80C36 0 0 36 0 80V448C0 483 29 512 64 512H432C441 512 448 505 448 496S441 480 432 480H416V413C435 406 448 389 448 368ZM384 480H64C46 480 32 466 32 448S46 416 64 416H384V480ZM400 384H64C52 384 41 387 32 393V80C32 54 54 32 80 32H400C409 32 416 39 416 48V368C416 377 409 384 400 384ZM256 240H192C148 240 112 276 112 320C112 329 119 336 128 336S144 329 144 320C144 294 166 272 192 272H256C282 272 304 294 304 320C304 329 311 336 320 336S336 329 336 320C336 276 300 240 256 240ZM224 208C259 208 288 179 288 144S259 80 224 80S160 109 160 144S189 208 224 208ZM224 112C242 112 256 126 256 144S242 176 224 176S192 162 192 144S206 112 224 112Z"/></svg>