<svg xmlns="http://www.w3.org/2000/svg" viewBox="0 0 640 512"><!-- Font Awesome Pro 6.0.0-alpha1 by @fontawesome - https://fontawesome.com License - https://fontawesome.com/license (Commercial License) --><path d="M89 398L306 446C311 447 315 448 320 448S329 447 334 446L551 398C566 395 576 382 576 367V40C576 17 558 0 537 0C536 0 536 0 536 0C533 0 523 2 320 33C117 2 107 0 104 0C104 0 104 0 103 0C82 0 64 17 64 40V367C64 382 74 395 89 398ZM336 63L454 45C510 36 531 33 537 32H537C540 32 544 35 544 40L544 367L336 413V63ZM96 40C96 37 97 35 98 34C99 33 100 32 103 32C109 33 130 36 186 45L304 63V413L96 367V40ZM624 32C615 32 608 39 608 48V384C608 406 592 426 569 431L320 480L71 431C48 426 32 406 32 384V48C32 39 25 32 16 32S0 39 0 48V384C0 422 27 455 65 462L317 512C318 512 319 512 320 512S322 512 323 512L575 462C613 455 640 422 640 384V48C640 39 633 32 624 32Z"/></svg>