<svg xmlns="http://www.w3.org/2000/svg" viewBox="0 0 576 512"><!-- Font Awesome Pro 6.0.0-alpha1 by @fontawesome - https://fontawesome.com License - https://fontawesome.com/license (Commercial License) --><path d="M64 336C64 345 71 352 80 352H112C121 352 128 345 128 336V288H176C185 288 192 281 192 272V240C192 231 185 224 176 224H128V176C128 167 121 160 112 160H80C71 160 64 167 64 176V224H16C7 224 0 231 0 240V272C0 281 7 288 16 288H64V336ZM574 435L467 35C461 14 442 0 420 0C416 0 412 1 408 2L346 18C345 18 344 19 342 20C334 8 320 0 304 0H240C228 0 217 5 208 12C199 5 188 0 176 0H112C86 0 64 22 64 48V112C64 121 71 128 80 128H192V176C192 185 199 192 208 192S224 185 224 176V128H320V384H224V336C224 327 217 320 208 320S192 327 192 336V384H80C71 384 64 391 64 400V464C64 490 86 512 112 512H176C188 512 199 507 208 500C217 507 228 512 240 512H304C330 512 352 490 352 464V225L420 477C426 498 445 512 466 512C470 512 474 511 479 510L540 494C566 487 581 461 574 435ZM192 96H96V48C96 39 103 32 112 32H176C185 32 192 39 192 48V96ZM192 464C192 473 185 480 176 480H112C103 480 96 473 96 464V416H192V464ZM320 464C320 473 313 480 304 480H240C231 480 224 473 224 464V416H320V464ZM320 96H224V48C224 39 231 32 240 32H304C313 32 320 39 320 48V96ZM352 102V50C353 50 353 49 354 49L416 33C418 32 419 32 420 32C428 32 434 37 436 44L448 90L355 115L352 102ZM430 391L364 145L456 121L523 367L430 391ZM542 456C541 458 538 461 532 463L470 479C469 480 468 480 466 480C459 480 453 475 451 468L438 422L531 397L543 444C545 449 543 453 542 456Z"/></svg>