<svg xmlns="http://www.w3.org/2000/svg" viewBox="0 0 512 512"><!-- Font Awesome Pro 6.0.0-alpha1 by @fontawesome - https://fontawesome.com License - https://fontawesome.com/license (Commercial License) --><path d="M460 192C459 192 458 192 458 192C408 195 317 205 256 240C195 205 104 195 54 192C54 192 53 192 52 192C32 192 0 206 0 242V420C0 447 21 469 48 470C83 472 169 479 225 508C230 510 235 511 240 512V512H242C242 512 242 512 242 512H270C270 512 270 512 270 512H272V512C277 511 282 510 287 508C343 479 429 472 464 470C491 469 512 447 512 420V242C512 206 480 192 460 192ZM240 479C240 479 240 479 240 479C180 449 95 441 50 438C40 438 32 430 32 420V242C32 236 34 232 38 229C42 226 48 224 52 224C89 226 182 235 240 267V479ZM480 420C480 430 472 438 462 438C417 441 332 449 272 479C272 479 272 479 272 479V267C330 235 423 226 459 224H460C460 224 480 225 480 242V420ZM256 192C309 192 352 149 352 96S309 0 256 0S160 43 160 96S203 192 256 192ZM256 32C291 32 320 61 320 96S291 160 256 160S192 131 192 96S221 32 256 32Z"/></svg>