<svg xmlns="http://www.w3.org/2000/svg" viewBox="0 0 448 512"><!-- Font Awesome Pro 6.0.0-alpha1 by @fontawesome - https://fontawesome.com License - https://fontawesome.com/license (Commercial License) --><path d="M368 0H48C22 0 0 22 0 48V368C0 389 13 406 32 413V480H16C7 480 0 487 0 496S7 512 16 512H384C419 512 448 483 448 448V80C448 36 412 0 368 0ZM384 480H64V416H384C402 416 416 430 416 448S402 480 384 480ZM416 393C407 387 396 384 384 384H48C39 384 32 377 32 368V48C32 39 39 32 48 32H368C394 32 416 54 416 80V393ZM354 179L331 176L321 155C316 144 298 144 293 155L282 176L260 179C254 180 249 184 247 190C245 196 247 202 251 207L267 223L263 245C262 251 265 257 270 261C275 264 281 265 287 262L307 251L327 262C333 265 339 264 344 261C349 257 352 251 351 245L347 222L363 206C367 202 369 196 367 190C365 184 360 180 354 179ZM323 214L327 236L307 225L287 236L291 214L275 198L297 195L307 175L317 195L339 198L323 214ZM284 294L280 294C234 294 197 257 197 211C197 166 234 128 280 128L284 129C293 129 301 122 303 114C305 104 299 95 291 92C276 87 261 84 246 84C176 84 119 141 119 211S176 338 246 338C261 338 276 336 290 330C298 328 303 321 303 313C303 302 295 294 284 294ZM143 211C143 154 189 108 246 108C248 108 250 108 252 108C206 121 173 162 173 211C173 260 206 302 252 314C193 318 143 270 143 211Z"/></svg>