<svg xmlns="http://www.w3.org/2000/svg" viewBox="0 0 512 512"><!-- Font Awesome Pro 6.0.0-alpha1 by @fontawesome - https://fontawesome.com License - https://fontawesome.com/license (Commercial License) --><path d="M510 435L403 35C397 14 378 0 356 0C352 0 348 1 344 2L282 18C281 18 280 19 278 20C270 8 256 0 240 0H176C164 0 153 5 144 12C135 5 124 0 112 0H48C22 0 0 22 0 48V464C0 490 22 512 48 512H112C124 512 135 507 144 500C153 507 164 512 176 512H240C266 512 288 490 288 464V225L356 477C362 498 381 512 402 512C406 512 410 511 415 510L476 494C502 487 517 461 510 435ZM32 48C32 39 39 32 48 32H112C121 32 128 39 128 48V96H32V48ZM32 128H128V384H32V128ZM112 480H48C39 480 32 473 32 464V416H128V464C128 473 121 480 112 480ZM256 464C256 473 249 480 240 480H176C167 480 160 473 160 464V416H256V464ZM256 384H160V128H256V384ZM256 96H160V48C160 39 167 32 176 32H240C249 32 256 39 256 48V96ZM288 102V50C289 50 289 49 290 49L352 33C354 32 355 32 356 32C364 32 370 37 372 44L384 90L291 115L288 102ZM366 391L300 145L392 121L459 367L366 391ZM478 456C477 458 474 461 468 463L406 479C405 480 404 480 402 480C395 480 389 475 387 468L374 422L467 397L479 444C481 449 479 453 478 456Z"/></svg>