<svg xmlns="http://www.w3.org/2000/svg" viewBox="0 0 448 512"><!-- Font Awesome Pro 6.0.0-alpha1 by @fontawesome - https://fontawesome.com License - https://fontawesome.com/license (Commercial License) --><path d="M448 368V48C448 22 426 0 400 0H80C36 0 0 36 0 80V448C0 483 29 512 64 512H432C441 512 448 505 448 496S441 480 432 480H416V413C435 406 448 389 448 368ZM384 480H64C46 480 32 466 32 448S46 416 64 416H384V480ZM400 384H64C52 384 41 387 32 393V80C32 54 54 32 80 32H400C409 32 416 39 416 48V368C416 377 409 384 400 384ZM320 160H272V112C272 103 265 96 256 96H224C215 96 208 103 208 112V160H160C151 160 144 167 144 176V208C144 217 151 224 160 224H208V272C208 281 215 288 224 288H256C265 288 272 281 272 272V224H320C329 224 336 217 336 208V176C336 167 329 160 320 160Z"/></svg>