<svg xmlns="http://www.w3.org/2000/svg" viewBox="0 0 640 512"><!-- Font Awesome Pro 6.0.0-alpha1 by @fontawesome - https://fontawesome.com License - https://fontawesome.com/license (Commercial License) --><path d="M576 160V80C576 36 540 0 496 0H144C100 0 64 36 64 80V160C29 160 0 189 0 224V448C0 483 29 512 64 512H576C611 512 640 483 640 448V224C640 189 611 160 576 160ZM96 80C96 54 118 32 144 32H496C522 32 544 54 544 80V160H96V80ZM608 448C608 466 594 480 576 480H64C46 480 32 466 32 448V224C32 206 46 192 64 192H576C594 192 608 206 608 224V448ZM176 224C114 224 64 274 64 336S114 448 176 448S288 398 288 336S238 224 176 224ZM176 416C132 416 96 380 96 336S132 256 176 256S256 292 256 336S220 416 176 416ZM464 224C402 224 352 274 352 336S402 448 464 448S576 398 576 336S526 224 464 224ZM464 416C420 416 384 380 384 336S420 256 464 256S544 292 544 336S508 416 464 416ZM240 96H208C199 96 192 103 192 112S199 128 208 128H240C249 128 256 121 256 112S249 96 240 96ZM432 96H400C391 96 384 103 384 112S391 128 400 128H432C441 128 448 121 448 112S441 96 432 96ZM336 96H304C295 96 288 103 288 112S295 128 304 128H336C345 128 352 121 352 112S345 96 336 96Z"/></svg>