<svg xmlns="http://www.w3.org/2000/svg" viewBox="0 0 512 512"><!-- Font Awesome Pro 6.0.0-alpha1 by @fontawesome - https://fontawesome.com License - https://fontawesome.com/license (Commercial License) --><path d="M0 32V496C0 505 7 512 16 512H16C25 512 32 505 32 496V32H96L96 382C96 417 123 447 159 448C179 448 196 440 208 426C220 439 237 448 256 448S292 439 304 426C316 439 333 448 352 448S388 439 400 426C412 439 429 448 448 448C460 448 470 445 480 439V496C480 505 487 512 496 512L496 512C505 512 512 505 512 496V32C512 14 498 0 480 0H32C14 0 0 14 0 32ZM416 32H480V384C480 402 466 416 448 416C430 416 416 402 416 384V32ZM320 32H384V384C384 402 370 416 352 416S320 402 320 384V32ZM224 32H288V384C288 402 274 416 256 416S224 402 224 384V32ZM128 32H192V384C192 402 178 416 160 416S128 402 128 384V32Z"/></svg>