<svg xmlns="http://www.w3.org/2000/svg" viewBox="0 0 448 512"><!-- Font Awesome Pro 6.0.0-alpha1 by @fontawesome - https://fontawesome.com License - https://fontawesome.com/license (Commercial License) --><path d="M416 424C403 424 392 435 392 448C392 461 403 472 416 472S440 461 440 448C440 435 429 424 416 424ZM224 424C211 424 200 435 200 448C200 461 211 472 224 472S248 461 248 448C248 435 237 424 224 424ZM128 424C115 424 104 435 104 448C104 461 115 472 128 472S152 461 152 448C152 435 141 424 128 424ZM320 424C307 424 296 435 296 448C296 461 307 472 320 472S344 461 344 448C344 435 333 424 320 424ZM416 328C403 328 392 339 392 352C392 365 403 376 416 376S440 365 440 352C440 339 429 328 416 328ZM416 136C403 136 392 147 392 160C392 173 403 184 416 184S440 173 440 160C440 147 429 136 416 136ZM416 232C403 232 392 243 392 256C392 269 403 280 416 280S440 269 440 256C440 243 429 232 416 232ZM432 32H48C22 32 0 54 0 80V464C0 473 7 480 16 480S32 473 32 464V80C32 71 39 64 48 64H432C441 64 448 57 448 48S441 32 432 32Z"/></svg>