<svg xmlns="http://www.w3.org/2000/svg" viewBox="0 0 512 512"><!-- Font Awesome Pro 6.0.0-alpha1 by @fontawesome - https://fontawesome.com License - https://fontawesome.com/license (Commercial License) --><path d="M256 16C123 16 16 123 16 256S123 496 256 496S496 389 496 256S389 16 256 16ZM256 464C141 464 48 371 48 256S141 48 256 48S464 141 464 256S371 464 256 464ZM144 152C131 152 120 163 120 176C120 189 131 200 144 200C157 200 168 189 168 176C168 163 157 152 144 152ZM240 184C227 184 216 195 216 208C216 221 227 232 240 232C253 232 264 221 264 208C264 195 253 184 240 184ZM240 88C227 88 216 99 216 112C216 125 227 136 240 136C253 136 264 125 264 112C264 99 253 88 240 88Z"/></svg>