<svg xmlns="http://www.w3.org/2000/svg" viewBox="0 0 512 512"><!-- Font Awesome Pro 6.0.0-alpha1 by @fontawesome - https://fontawesome.com License - https://fontawesome.com/license (Commercial License) --><path d="M169 94C183 101 192 116 192 132V144C192 153 199 160 208 160S224 153 224 144V132C224 104 208 78 183 66C169 59 160 44 160 28V16C160 7 153 0 144 0S128 7 128 16V28C128 56 144 82 169 94ZM297 94C311 101 320 116 320 132V144C320 153 327 160 336 160S352 153 352 144V132C352 104 336 78 311 66C297 59 288 44 288 28V16C288 7 281 0 272 0S256 7 256 16V28C256 56 272 82 297 94ZM480 192H32C14 192 0 206 0 224C0 319 51 401 128 446V480C128 498 142 512 160 512H352C370 512 384 498 384 480V446C461 401 512 319 512 224C512 206 498 192 480 192ZM352 427V480H160V427C28 350 32 241 32 224H480C480 242 483 351 352 427Z"/></svg>