<svg xmlns="http://www.w3.org/2000/svg" viewBox="0 0 448 512"><!-- Font Awesome Pro 6.0.0-alpha1 by @fontawesome - https://fontawesome.com License - https://fontawesome.com/license (Commercial License) --><path d="M214 412C220 417 228 417 234 412L319 326C343 301 342 260 314 237C300 226 267 209 224 252C181 209 148 226 134 237C106 260 105 301 130 326L214 412ZM154 262C168 250 185 258 193 266L224 297L255 266C263 258 280 250 294 262C308 274 306 293 296 304L224 376L152 304C142 293 140 274 154 262ZM443 162L391 59C383 42 366 32 348 32H100C82 32 65 42 57 59L5 162C2 169 0 176 0 184V416C0 451 29 480 64 480H384C419 480 448 451 448 416V184C448 176 446 169 443 162ZM240 64H348C354 64 360 67 363 73L406 160H240V64ZM85 73C88 67 94 64 100 64H208V160H42L85 73ZM416 416C416 434 402 448 384 448H64C46 448 32 434 32 416V192H416V416Z"/></svg>