<svg xmlns="http://www.w3.org/2000/svg" viewBox="0 0 640 512"><!-- Font Awesome Pro 6.0.0-alpha1 by @fontawesome - https://fontawesome.com License - https://fontawesome.com/license (Commercial License) --><path d="M448 128C342 128 256 214 256 320S342 512 448 512S640 426 640 320S554 128 448 128ZM448 480C360 480 288 408 288 320S360 160 448 160S608 232 608 320S536 480 448 480ZM517 258L421 353L379 311C373 305 363 305 357 311S350 328 357 334L410 387C413 390 417 392 421 392S430 390 433 387L539 281C546 274 546 264 539 258S523 252 517 258ZM64 448C46 448 32 434 32 416V192H264C272 181 281 170 291 160H240V64H348C354 64 360 67 363 73L379 107C390 103 401 101 411 99L391 59C383 42 366 32 348 32H100C82 32 65 42 57 59L5 162C2 169 0 176 0 184V416C0 451 29 480 64 480H291C281 470 272 459 264 448H64ZM85 73C88 67 94 64 100 64H208V160H42L85 73Z"/></svg>