<svg xmlns="http://www.w3.org/2000/svg" viewBox="0 0 640 512"><!-- Font Awesome Pro 6.0.0-alpha1 by @fontawesome - https://fontawesome.com License - https://fontawesome.com/license (Commercial License) --><path d="M560 224C551 224 544 231 544 240V378C544 385 539 391 532 393L336 445V224C336 215 329 208 320 208S304 215 304 224V445L108 393C101 391 96 385 96 378V240C96 231 89 224 80 224S64 231 64 240V378C64 399 79 418 100 424L299 477C306 479 313 480 320 480S334 479 341 477L540 424C561 418 576 399 576 378V240C576 231 569 224 560 224ZM639 154L591 42C588 35 581 31 574 32L320 64L66 32C59 31 52 35 49 42L1 154C-1 158 0 163 2 167C4 171 8 175 12 176L220 224C222 224 223 224 224 224C229 224 234 222 237 218L320 107L403 218C406 222 411 224 416 224C417 224 418 224 420 224L628 176C632 175 636 171 638 167C640 163 641 158 639 154ZM217 190L38 149L74 65L291 92L217 190ZM423 190L349 92L566 65L602 149L423 190Z"/></svg>