<svg xmlns="http://www.w3.org/2000/svg" viewBox="0 0 640 512"><!-- Font Awesome Pro 6.0.0-alpha1 by @fontawesome - https://fontawesome.com License - https://fontawesome.com/license (Commercial License) --><path d="M560 352C551 352 544 359 544 368V410C544 417 539 423 532 425L336 477V352C336 343 329 336 320 336S304 343 304 352V477L108 425C101 423 96 417 96 410V368C96 359 89 352 80 352S64 359 64 368V410C64 431 79 450 100 456L299 509C306 511 313 512 320 512S334 511 341 509L540 456C561 450 576 431 576 410V368C576 359 569 352 560 352ZM639 282L591 170C588 163 581 159 574 160L320 192L66 160C59 159 52 163 49 170L1 282C-1 286 0 291 2 295C4 299 8 303 12 304L220 352C222 352 223 352 224 352C229 352 234 350 237 346L320 235L403 346C406 350 411 352 416 352C417 352 418 352 420 352L628 304C632 303 636 299 638 295C640 291 641 286 639 282ZM217 318L38 277L74 193L291 220L217 318ZM423 318L349 220L566 193L602 277L423 318ZM144 144C153 144 160 137 160 128C160 75 203 32 256 32S352 75 352 128C352 137 359 144 368 144S384 137 384 128C384 57 327 0 256 0S128 57 128 128C128 137 135 144 144 144ZM443 143C445 144 446 144 448 144C455 144 461 140 463 133L495 37C498 29 493 20 485 17C477 14 468 19 465 27L433 123C430 131 435 140 443 143Z"/></svg>