<svg xmlns="http://www.w3.org/2000/svg" viewBox="0 0 576 512"><!-- Font Awesome Pro 6.0.0-alpha1 by @fontawesome - https://fontawesome.com License - https://fontawesome.com/license (Commercial License) --><path d="M528 160H496C487 160 480 167 480 176S487 192 496 192H528C537 192 544 199 544 208V320H32V208C32 199 39 192 48 192H80C89 192 96 185 96 176S89 160 80 160H48C22 160 0 182 0 208V464C0 490 22 512 48 512H528C554 512 576 490 576 464V208C576 182 554 160 528 160ZM544 464C544 473 537 480 528 480H48C39 480 32 473 32 464V352H544V464ZM144 256H432C441 256 448 249 448 240V48C448 22 426 0 400 0H176C150 0 128 22 128 48V240C128 249 135 256 144 256ZM160 48C160 39 167 32 176 32H400C409 32 416 39 416 48V224H160V48Z"/></svg>