<svg xmlns="http://www.w3.org/2000/svg" viewBox="0 0 512 512"><!-- Font Awesome Pro 6.0.0-alpha1 by @fontawesome - https://fontawesome.com License - https://fontawesome.com/license (Commercial License) --><path d="M144 320H368C378 320 387 313 391 303L447 128C449 120 448 112 443 106C439 100 432 96 424 96H339C319 96 301 83 295 64C282 26 246 0 205 0H88C81 0 74 3 69 9C65 15 63 22 65 29L121 301C123 312 133 320 144 320ZM205 32C232 32 256 49 264 75C275 107 305 128 339 128H413L362 288H151L98 32H205ZM464 224H448C439 224 432 231 432 240S439 256 448 256H464C473 256 480 263 480 272V384H32V272C32 263 39 256 48 256H64C73 256 80 249 80 240S73 224 64 224H48C22 224 0 246 0 272V464C0 490 22 512 48 512H464C490 512 512 490 512 464V272C512 246 490 224 464 224ZM480 464C480 473 473 480 464 480H48C39 480 32 473 32 464V416H480V464Z"/></svg>