<svg xmlns="http://www.w3.org/2000/svg" viewBox="0 0 448 512"><!-- Font Awesome Pro 6.0.0-alpha1 by @fontawesome - https://fontawesome.com License - https://fontawesome.com/license (Commercial License) --><path d="M215 367C207 366 197 363 189 360L184 358C176 355 167 360 164 368S166 386 174 388L178 390C188 393 198 397 208 398C208 399 208 399 208 400V408C208 417 215 424 224 424S240 417 240 408V400C240 399 240 399 240 398C263 395 280 382 284 362C291 322 253 311 228 305L222 303C194 295 194 290 195 284C198 273 216 270 233 273C239 274 246 276 253 278C261 281 270 276 273 268C276 259 271 250 263 248C254 245 246 243 240 242V232C240 223 233 216 224 216S208 223 208 232V241C184 245 168 258 164 278C157 318 195 329 214 334L220 335C250 344 254 347 252 356C250 367 232 370 215 367ZM443 162L391 59C383 42 366 32 348 32H100C82 32 65 42 57 59L5 162C2 169 0 176 0 184V416C0 451 29 480 64 480H384C419 480 448 451 448 416V184C448 176 446 169 443 162ZM240 64H348C354 64 360 67 363 73L406 160H240V64ZM85 73C88 67 94 64 100 64H208V160H42L85 73ZM416 416C416 434 402 448 384 448H64C46 448 32 434 32 416V192H416V416Z"/></svg>