<svg xmlns="http://www.w3.org/2000/svg" viewBox="0 0 576 512"><!-- Font Awesome Pro 6.0.0-alpha1 by @fontawesome - https://fontawesome.com License - https://fontawesome.com/license (Commercial License) --><path d="M208 224H368C394 224 416 202 416 176V48C416 22 394 0 368 0H208C182 0 160 22 160 48V176C160 202 182 224 208 224ZM272 32H304V86L295 82C291 79 285 79 281 82L272 86V32ZM192 48C192 39 199 32 208 32H240V112C240 118 243 123 248 126S258 129 263 126L288 114L313 126C315 127 318 128 320 128C323 128 326 127 328 126C333 123 336 118 336 112V32H368C377 32 384 39 384 48V176C384 185 377 192 368 192H208C199 192 192 185 192 176V48ZM208 288H48C22 288 0 310 0 336V464C0 490 22 512 48 512H208C234 512 256 490 256 464V336C256 310 234 288 208 288ZM112 320H144V374L135 370C131 367 125 367 121 370L112 374V320ZM224 464C224 473 217 480 208 480H48C39 480 32 473 32 464V336C32 327 39 320 48 320H80V400C80 406 83 411 88 414S98 417 103 414L128 402L153 414C155 415 158 416 160 416C163 416 166 415 168 414C173 411 176 406 176 400V320H208C217 320 224 327 224 336V464ZM528 288H368C342 288 320 310 320 336V464C320 490 342 512 368 512H528C554 512 576 490 576 464V336C576 310 554 288 528 288ZM432 320H464V374L455 370C451 367 445 367 441 370L432 374V320ZM544 464C544 473 537 480 528 480H368C359 480 352 473 352 464V336C352 327 359 320 368 320H400V400C400 406 403 411 408 414S418 417 423 414L448 402L473 414C475 415 478 416 480 416C483 416 486 415 488 414C493 411 496 406 496 400V320H528C537 320 544 327 544 336V464Z"/></svg>