<svg xmlns="http://www.w3.org/2000/svg" viewBox="0 0 512 512"><!-- Font Awesome Pro 6.0.0-alpha1 by @fontawesome - https://fontawesome.com License - https://fontawesome.com/license (Commercial License) --><path d="M416 130V96C416 43 373 0 320 0H128C75 0 32 43 32 96V288C32 315 44 341 64 359V448C64 483 93 512 128 512H320C355 512 384 483 384 448V391L447 327C468 306 480 278 480 248V208C480 169 452 137 416 130ZM448 248C448 270 440 290 425 305L352 377V448C352 466 338 480 320 480H128C110 480 96 466 96 448V344L90 339C73 327 64 308 64 288V96C64 61 93 32 128 32H320C355 32 384 61 384 96V128H368C329 128 297 156 290 192H218C183 192 150 182 121 163C114 158 104 160 99 167C94 174 96 184 103 189C137 212 177 224 218 224H290C297 260 329 288 368 288C377 288 384 281 384 272S377 256 368 256C342 256 320 234 320 208S342 160 368 160H400C426 160 448 182 448 208V248ZM285 343C280 336 270 334 263 339L224 365L185 339C177 334 168 336 163 343C158 350 160 360 167 365L195 384L167 403C160 408 158 418 163 425C166 430 175 436 185 429L224 403L263 429C273 436 282 430 285 425C290 418 288 408 281 403L253 384L281 365C288 360 290 350 285 343Z"/></svg>