<svg xmlns="http://www.w3.org/2000/svg" viewBox="0 0 512 512"><!-- Font Awesome Pro 6.0.0-alpha1 by @fontawesome - https://fontawesome.com License - https://fontawesome.com/license (Commercial License) --><path d="M121 61C129 56 130 46 125 39C120 31 110 30 103 35C98 38 0 111 0 256S98 474 103 477C105 479 109 480 112 480C117 480 122 478 125 473C130 466 129 456 121 451C118 448 32 384 32 256S118 64 121 61ZM409 35C402 30 392 31 387 39C382 46 383 56 391 61C394 64 480 128 480 256S394 448 391 451C383 456 382 466 387 473C390 478 395 480 400 480C403 480 407 479 409 477C414 474 512 401 512 256S414 38 409 35Z"/></svg>