<svg xmlns="http://www.w3.org/2000/svg" viewBox="0 0 448 512"><!-- Font Awesome Pro 6.0.0-alpha1 by @fontawesome - https://fontawesome.com License - https://fontawesome.com/license (Commercial License) --><path d="M400 32H304C295 32 288 39 288 48S295 64 304 64H400C409 64 416 71 416 80V432C416 441 409 448 400 448H304C295 448 288 455 288 464S295 480 304 480H400C426 480 448 458 448 432V80C448 54 426 32 400 32ZM48 64H144C153 64 160 57 160 48S153 32 144 32H48C22 32 0 54 0 80V432C0 458 22 480 48 480H144C153 480 160 473 160 464S153 448 144 448H48C39 448 32 441 32 432V80C32 71 39 64 48 64Z"/></svg>