<svg xmlns="http://www.w3.org/2000/svg" viewBox="0 0 512 512"><!-- Font Awesome Pro 6.0.0-alpha1 by @fontawesome - https://fontawesome.com License - https://fontawesome.com/license (Commercial License) --><path d="M512 288C512 264 503 241 487 224C488 220 488 216 488 212C488 182 472 156 448 141C448 140 448 140 448 140C448 109 432 81 406 67C398 29 364 0 324 0C296 0 271 14 256 35C241 14 216 0 188 0C148 0 114 29 106 67C82 80 67 105 64 132C40 147 24 174 24 204C24 210 25 217 26 223C10 240 0 263 0 288C0 317 13 343 33 361C32 366 32 371 32 376C32 424 71 463 119 464C131 492 159 512 192 512C218 512 241 499 256 480C271 499 294 512 320 512C353 512 381 492 393 464C441 463 480 424 480 376C480 371 480 366 479 361C499 343 512 317 512 288ZM240 432C240 458 218 480 192 480S144 458 144 432C144 430 144 428 145 426C137 430 129 432 120 432C89 432 64 407 64 376C64 365 67 356 72 347C49 338 32 315 32 288C32 264 45 244 65 233C59 224 56 215 56 204C56 179 74 158 98 153C97 149 96 144 96 139C96 115 113 94 136 89C136 87 136 86 136 84C136 55 159 32 188 32S240 55 240 84V432ZM440 347C445 356 448 365 448 376C448 407 423 432 392 432C383 432 375 430 367 426C368 428 368 430 368 432C368 458 346 480 320 480S272 458 272 432V84C272 55 295 32 324 32S376 55 376 84C376 86 376 87 376 89C399 94 416 115 416 139C416 147 414 154 411 161C437 164 456 186 456 212C456 220 454 228 451 234C468 246 480 266 480 288C480 315 463 338 440 347Z"/></svg>