<svg xmlns="http://www.w3.org/2000/svg" viewBox="0 0 640 512"><!-- Font Awesome Pro 6.0.0-alpha1 by @fontawesome - https://fontawesome.com License - https://fontawesome.com/license (Commercial License) --><path d="M80 48C45 48 16 77 16 112S45 176 80 176S144 147 144 112S115 48 80 48ZM80 144C62 144 48 130 48 112S62 80 80 80S112 94 112 112S98 144 80 144ZM240 48C205 48 176 77 176 112S205 176 240 176S304 147 304 112S275 48 240 48ZM240 144C222 144 208 130 208 112S222 80 240 80S272 94 272 112S258 144 240 144ZM432 48C397 48 368 77 368 112S397 176 432 176S496 147 496 112S467 48 432 48ZM432 144C414 144 400 130 400 112S414 80 432 80S464 94 464 112S450 144 432 144ZM80 208C45 208 16 237 16 272S45 336 80 336S144 307 144 272S115 208 80 208ZM80 304C62 304 48 290 48 272S62 240 80 240S112 254 112 272S98 304 80 304ZM80 408C67 408 56 419 56 432C56 445 67 456 80 456S104 445 104 432C104 419 93 408 80 408ZM240 408C227 408 216 419 216 432C216 445 227 456 240 456S264 445 264 432C264 419 253 408 240 408ZM432 408C419 408 408 419 408 432C408 445 419 456 432 456S456 445 456 432C456 419 445 408 432 408ZM592 408C579 408 568 419 568 432C568 445 579 456 592 456S616 445 616 432C616 419 605 408 592 408ZM240 248C227 248 216 259 216 272C216 285 227 296 240 296S264 285 264 272C264 259 253 248 240 248ZM432 248C419 248 408 259 408 272C408 285 419 296 432 296S456 285 456 272C456 259 445 248 432 248ZM592 248C579 248 568 259 568 272C568 285 579 296 592 296S616 285 616 272C616 259 605 248 592 248ZM592 136C605 136 616 125 616 112C616 99 605 88 592 88S568 99 568 112C568 125 579 136 592 136Z"/></svg>