<svg xmlns="http://www.w3.org/2000/svg" viewBox="0 0 640 512"><!-- Font Awesome Pro 6.0.0-alpha1 by @fontawesome - https://fontawesome.com License - https://fontawesome.com/license (Commercial License) --><path d="M320 32C196 32 96 132 96 256S196 480 320 480C444 480 544 380 544 256S444 32 320 32ZM320 448C214 448 128 362 128 256S214 64 320 64S512 150 512 256S426 448 320 448ZM320 328C307 328 296 339 296 352S307 376 320 376C333 376 344 365 344 352S333 328 320 328ZM320 288C329 288 336 281 336 272V144C336 135 329 128 320 128S304 135 304 144V272C304 281 311 288 320 288ZM90 68C83 62 73 63 68 70C24 122 0 188 0 256S24 390 68 442C71 446 75 448 80 448C84 448 87 447 90 444C97 439 98 429 92 422C53 375 32 316 32 256S53 137 92 90C98 83 97 73 90 68ZM572 70C567 63 557 62 550 68C543 73 542 83 548 90C587 137 608 196 608 256S587 375 548 422C542 429 543 439 550 444C553 447 556 448 560 448C565 448 569 446 572 442C616 390 640 324 640 256S616 122 572 70Z"/></svg>