<svg xmlns="http://www.w3.org/2000/svg" viewBox="0 0 640 512"><!-- Font Awesome Pro 6.0.0-alpha1 by @fontawesome - https://fontawesome.com License - https://fontawesome.com/license (Commercial License) --><path d="M400 32H240C107 32 0 104 0 192C0 227 31 256 64 256V448C64 466 78 480 96 480H544C562 480 576 466 576 448V256C609 256 640 227 640 192C640 104 533 32 400 32ZM384 240V448H96V240C96 231 89 224 80 224H64C49 224 32 210 32 192C32 123 127 64 240 64S448 123 448 192C448 210 435 224 420 224H400C391 224 384 231 384 240ZM544 448H416V256H544V448ZM580 224H472C477 214 480 203 480 192C480 140 442 93 383 64H400C513 64 608 123 608 192C608 210 595 224 580 224Z"/></svg>