<svg xmlns="http://www.w3.org/2000/svg" viewBox="0 0 640 512"><!-- Font Awesome Pro 6.0.0-alpha1 by @fontawesome - https://fontawesome.com License - https://fontawesome.com/license (Commercial License) --><path d="M112 224H64C46 224 32 210 32 192V64C32 46 46 32 64 32H192C206 32 218 41 222 53C225 60 231 64 239 64H239C249 64 256 54 253 44C245 19 220 0 192 0H64C29 0 0 29 0 64V192C0 227 29 256 64 256H112C121 256 128 249 128 240S121 224 112 224ZM480 352V160C480 125 451 96 416 96H224C189 96 160 125 160 160V352C160 387 189 416 224 416H416C451 416 480 387 480 352ZM192 352V160C192 142 206 128 224 128H416C434 128 448 142 448 160V352C448 370 434 384 416 384H224C206 384 192 370 192 352ZM160 79C160 71 153 64 145 64H80C71 64 64 71 64 80V176C64 185 71 192 80 192H113C121 192 128 185 128 177V175C128 167 121 160 113 160H96V96H145C153 96 160 89 160 81V79ZM576 256H528C519 256 512 263 512 272S519 288 528 288H576C594 288 608 302 608 320V448C608 466 594 480 576 480H448C434 480 422 471 418 459C415 452 409 448 401 448H401C391 448 384 458 387 468C395 493 420 512 448 512H576C611 512 640 483 640 448V320C640 285 611 256 576 256ZM480 433C480 441 487 448 495 448H560C569 448 576 441 576 432V336C576 327 569 320 560 320H527C519 320 512 327 512 335V337C512 345 519 352 527 352H544V416H495C487 416 480 423 480 431V433Z"/></svg>