<svg xmlns="http://www.w3.org/2000/svg" viewBox="0 0 576 512"><!-- Font Awesome Pro 6.0.0-alpha1 by @fontawesome - https://fontawesome.com License - https://fontawesome.com/license (Commercial License) --><path d="M464 480H96C61 480 32 451 32 416V112C32 103 25 96 16 96S0 103 0 112V416C0 469 43 512 96 512H464C473 512 480 505 480 496S473 480 464 480ZM512 0H160C125 0 96 29 96 64V352C96 387 125 416 160 416H512C547 416 576 387 576 352V64C576 29 547 0 512 0ZM128 64C128 46 142 32 160 32H224V96H128V64ZM544 352C544 370 530 384 512 384H160C142 384 128 370 128 352V128H544V352ZM544 96H256V32H512C530 32 544 46 544 64V96Z"/></svg>