<svg xmlns="http://www.w3.org/2000/svg" viewBox="0 0 576 512"><!-- Font Awesome Pro 6.0.0-alpha1 by @fontawesome - https://fontawesome.com License - https://fontawesome.com/license (Commercial License) --><path d="M224 96C224 61 253 32 288 32S352 61 352 96V128H384V96C384 43 341 0 288 0S192 43 192 96V128H224V96ZM528 272H432V184L506 125C513 119 514 109 508 102C503 95 493 94 486 100L410 160H166L90 99C83 94 73 95 67 102C62 109 63 119 70 124L144 184V272H48C39 272 32 279 32 288S39 304 48 304H144V352C144 369 147 385 153 400L69 485C62 491 62 501 69 507C72 510 76 512 80 512S88 510 91 507L170 429C193 460 230 480 272 480H304C346 480 383 460 406 429L485 507C488 510 492 512 496 512S504 510 507 507C514 501 514 491 507 485L423 400C429 385 432 369 432 352V304H528C537 304 544 297 544 288S537 272 528 272ZM400 352C400 405 357 448 304 448V240C304 231 297 224 288 224S272 231 272 240V448C219 448 176 405 176 352V192H400V352Z"/></svg>