<svg xmlns="http://www.w3.org/2000/svg" viewBox="0 0 512 512"><!-- Font Awesome Pro 6.0.0-alpha1 by @fontawesome - https://fontawesome.com License - https://fontawesome.com/license (Commercial License) --><path d="M459 208C451 209 445 218 446 226C447 236 448 246 448 256C448 371 355 464 240 464C125 464 32 371 32 256S125 48 240 48C250 48 260 49 270 50C278 51 287 45 288 37S283 20 274 18C263 17 251 16 240 16C108 16 0 124 0 256S108 496 240 496C372 496 480 388 480 256C480 245 479 233 478 222C476 213 468 207 459 208ZM216 214C224 210 226 200 222 193C217 185 208 182 200 187C175 201 160 228 160 256C160 300 196 336 240 336C268 336 295 321 309 296C314 288 311 279 303 274C296 270 286 272 282 280C273 295 257 304 240 304C214 304 192 282 192 256C192 239 201 223 216 214ZM256 112C256 103 249 96 240 96C152 96 80 168 80 256S152 416 240 416S400 344 400 256C400 247 393 240 384 240S368 247 368 256C368 327 311 384 240 384S112 327 112 256S169 128 240 128C249 128 256 121 256 112ZM495 107C494 102 489 97 483 96L414 82L400 13C399 7 394 2 389 1C383 -1 377 1 373 5L309 69C305 72 303 78 304 83L319 155L229 245C222 251 222 261 229 267C235 274 245 274 251 267L341 177L413 192C414 192 415 192 416 192C420 192 424 190 427 187L491 123C495 119 497 113 495 107ZM337 85L374 48L383 91L346 128L337 85ZM411 159L368 150L405 113L448 122L411 159Z"/></svg>