<svg xmlns="http://www.w3.org/2000/svg" viewBox="0 0 512 512"><!-- Font Awesome Pro 6.0.0-alpha1 by @fontawesome - https://fontawesome.com License - https://fontawesome.com/license (Commercial License) --><path d="M267 245C263 240 256 239 251 241L27 321C20 323 16 329 16 336C16 342 20 349 26 351L107 382L5 485C-2 491 -2 501 5 507C8 510 12 512 16 512S24 510 27 507L130 405L161 486C163 492 169 496 176 496H176C183 496 189 492 191 485L271 261C273 256 272 249 267 245ZM175 434L151 370C149 366 146 363 142 361L78 337L230 282L175 434ZM256 16C124 16 16 124 16 256C16 265 23 272 32 272S48 265 48 256C48 141 141 48 256 48S464 141 464 256S371 464 256 464C247 464 240 471 240 480S247 496 256 496C388 496 496 388 496 256S388 16 256 16ZM288 412C289 412 290 412 292 412C365 395 416 331 416 256C416 168 344 96 256 96C181 96 117 147 100 220C98 229 103 238 112 240C121 241 129 236 131 228C144 169 196 128 256 128C327 128 384 185 384 256C384 316 343 368 284 381C276 383 270 391 272 400C274 407 281 412 288 412ZM303 302C306 303 309 304 311 304C317 304 322 301 325 296C332 284 336 270 336 256C336 212 300 176 256 176C242 176 228 180 216 187C208 191 206 201 210 209C215 216 224 219 232 214C239 210 248 208 256 208C282 208 304 230 304 256C304 264 302 273 298 280C293 288 296 297 303 302Z"/></svg>