<svg xmlns="http://www.w3.org/2000/svg" viewBox="0 0 512 512"><!-- Font Awesome Pro 6.0.0-alpha1 by @fontawesome - https://fontawesome.com License - https://fontawesome.com/license (Commercial License) --><path d="M256 176C212 176 176 212 176 256S212 336 256 336S336 300 336 256S300 176 256 176ZM256 304C230 304 208 282 208 256S230 208 256 208S304 230 304 256S282 304 256 304ZM256 96C168 96 96 168 96 256S168 416 256 416S416 344 416 256S344 96 256 96ZM256 384C185 384 128 327 128 256S185 128 256 128S384 185 384 256S327 384 256 384ZM256 16C124 16 16 124 16 256S124 496 256 496S496 388 496 256S388 16 256 16ZM256 464C141 464 48 371 48 256S141 48 256 48S464 141 464 256S371 464 256 464Z"/></svg>