<svg xmlns="http://www.w3.org/2000/svg" viewBox="0 0 640 512"><!-- Font Awesome Pro 6.0.0-alpha1 by @fontawesome - https://fontawesome.com License - https://fontawesome.com/license (Commercial License) --><path d="M448 272C457 272 464 265 464 256S457 240 448 240S432 247 432 256S439 272 448 272ZM528 288C537 288 544 281 544 272S537 256 528 256S512 263 512 272S519 288 528 288ZM224 480L96 479L64 160H336C345 160 352 153 352 144C352 135 345 128 336 128H212L236 32H272C281 32 288 25 288 16S281 0 272 0H236C222 0 209 10 205 24L179 128H16C7 128 0 135 0 144C0 153 7 160 16 160H32L64 482C65 499 79 512 96 512H224C233 512 240 505 240 496V496C240 487 233 480 224 480ZM368 288C377 288 384 281 384 272S377 256 368 256S352 263 352 272S359 288 368 288ZM640 376C640 361 634 347 624 337C624 336 624 336 624 336V296C624 272 614 249 594 230C523 158 373 158 302 230C282 249 272 272 272 296V336C272 336 272 336 272 337C262 347 256 361 256 376S262 405 272 415C272 416 272 416 272 416V460C272 489 295 512 324 512H572C601 512 624 489 624 460V416C624 416 624 416 624 415C634 405 640 391 640 376ZM304 296C304 280 311 266 324 252C381 196 510 191 572 252C585 266 592 280 592 296V321C589 320 587 320 584 320H312C309 320 307 320 304 321V296ZM592 460C592 471 583 480 572 480H324C313 480 304 471 304 460V431C307 432 309 432 312 432H584C587 432 589 432 592 431V460ZM584 400H312C299 400 288 389 288 376C288 363 299 352 312 352H584C597 352 608 363 608 376C608 389 597 400 584 400Z"/></svg>