<svg xmlns="http://www.w3.org/2000/svg" viewBox="0 0 512 512"><!-- Font Awesome Pro 6.0.0-alpha1 by @fontawesome - https://fontawesome.com License - https://fontawesome.com/license (Commercial License) --><path d="M512 123C512 91 491 62 460 52C453 32 439 15 419 7C400 -2 377 -2 358 7C317 -11 270 8 252 48L34 267C-11 312 -11 385 34 431L81 478C127 523 200 523 245 478L464 260C504 242 523 195 505 154C510 144 512 134 512 123ZM267 78C281 103 288 132 288 160C288 257 209 336 112 336C86 336 61 330 37 319C42 308 48 298 57 289L267 78ZM223 455C190 488 137 488 104 455L57 408C42 393 33 373 32 352C58 363 85 368 112 368C202 368 279 310 308 230C350 219 395 224 434 244L223 455ZM480 186C480 201 473 215 462 224C418 197 366 187 317 195C319 184 320 172 320 160C320 121 309 84 288 51C297 39 311 32 326 32C338 32 350 37 359 45C371 33 389 29 405 35C421 42 431 57 431 74C431 77 431 79 430 82C442 79 455 83 465 91C474 99 480 110 480 123C480 134 475 145 467 153C475 162 480 174 480 186Z"/></svg>