<svg xmlns="http://www.w3.org/2000/svg" viewBox="0 0 576 512"><!-- Font Awesome Pro 6.0.0-alpha1 by @fontawesome - https://fontawesome.com License - https://fontawesome.com/license (Commercial License) --><path d="M416 376C429 376 440 365 440 352S429 328 416 328S392 339 392 352S403 376 416 376ZM16 128C7 128 0 135 0 144V240C0 249 7 256 16 256S32 249 32 240V144C32 135 25 128 16 128ZM288 0C163 0 64 51 64 96V384C64 408 77 428 96 439V496C96 505 103 512 112 512S128 505 128 496V448H448V496C448 505 455 512 464 512S480 505 480 496V439C499 428 512 408 512 384V96C512 51 413 0 288 0ZM480 384C480 402 466 416 448 416H128C110 416 96 402 96 384L96 288H480V384ZM96 160H272V256H96L96 160ZM480 256H304V160H480V256ZM480 128H96V96C98 80 169 32 288 32S478 80 480 96V128ZM160 376C173 376 184 365 184 352S173 328 160 328S136 339 136 352S147 376 160 376ZM560 128C551 128 544 135 544 144V240C544 249 551 256 560 256S576 249 576 240V144C576 135 569 128 560 128ZM336 64H240C231 64 224 71 224 80S231 96 240 96H336C345 96 352 89 352 80S345 64 336 64Z"/></svg>