<svg xmlns="http://www.w3.org/2000/svg" viewBox="0 0 512 512"><!-- Font Awesome Pro 6.0.0-alpha1 by @fontawesome - https://fontawesome.com License - https://fontawesome.com/license (Commercial License) --><path d="M272 352C263 352 256 359 256 368S263 384 272 384S288 377 288 368S281 352 272 352ZM492 221C479 211 463 206 446 209C419 213 400 239 400 267V296C400 300 396 304 392 304H352V101C352 49 313 3 261 0C235 -1 209 8 190 26C171 45 160 70 160 96V192H120C116 192 112 188 112 184V155C112 127 93 101 66 97C49 94 33 99 20 109S0 135 0 152V184C0 250 54 304 120 304H160V496C160 505 167 512 176 512H336C345 512 352 505 352 496V416H392C458 416 512 362 512 296V264C512 247 505 232 492 221ZM160 272H120C71 272 32 233 32 184V152C32 139 43 128 56 128S80 139 80 152V184C80 206 98 224 120 224H160V272ZM320 480H192V96C192 61 221 32 256 32S320 61 320 96V480ZM480 296C480 345 441 384 392 384H352V336H392C414 336 432 318 432 296V264C432 251 443 240 456 240S480 251 480 264V296ZM240 128C231 128 224 135 224 144S231 160 240 160S256 153 256 144S249 128 240 128Z"/></svg>