<svg xmlns="http://www.w3.org/2000/svg" viewBox="0 0 448 512"><!-- Font Awesome Pro 6.0.0-alpha1 by @fontawesome - https://fontawesome.com License - https://fontawesome.com/license (Commercial License) --><path d="M352 128C378 128 400 106 400 80C400 56 363 8 358 3C357 1 354 0 352 0S347 1 346 3C341 8 304 56 304 80C304 106 326 128 352 128ZM352 49C361 63 367 75 368 80C368 89 361 96 352 96S336 89 336 80C337 75 343 63 352 49ZM224 128C250 128 272 106 272 80C272 56 235 8 230 3C229 1 226 0 224 0S219 1 218 3C213 8 176 56 176 80C176 106 198 128 224 128ZM224 49C233 63 239 75 240 80C240 89 233 96 224 96S208 89 208 80C209 75 215 63 224 49ZM96 128C122 128 144 106 144 80C144 56 107 8 102 3C101 1 98 0 96 0S91 1 90 3C85 8 48 56 48 80C48 106 70 128 96 128ZM96 49C105 63 111 75 112 80C112 89 105 96 96 96S80 89 80 80C81 75 87 63 96 49ZM384 224H368V176C368 167 361 160 352 160S336 167 336 176V224H240V176C240 167 233 160 224 160S208 167 208 176V224H112V176C112 167 105 160 96 160S80 167 80 176V224H64C29 224 0 253 0 288V464C0 490 22 512 48 512H400C426 512 448 490 448 464V288C448 253 419 224 384 224ZM416 464C416 473 409 480 400 480H48C39 480 32 473 32 464V400C58 400 82 384 96 373C110 384 134 400 160 400S210 384 224 373C238 384 262 400 288 400S338 384 352 373C366 384 390 400 416 400V464ZM416 368C395 368 371 348 363 341C357 334 347 334 341 341C333 348 309 368 288 368S243 348 235 341C229 334 219 334 213 341C205 348 181 368 160 368S115 348 107 341C101 334 91 334 85 341C77 348 53 368 32 368V288C32 270 46 256 64 256H80V272C80 281 87 288 96 288S112 281 112 272V256H208V272C208 281 215 288 224 288S240 281 240 272V256H336V272C336 281 343 288 352 288S368 281 368 272V256H384C402 256 416 270 416 288V368Z"/></svg>