<svg xmlns="http://www.w3.org/2000/svg" viewBox="0 0 448 512"><!-- Font Awesome Pro 6.0.0-alpha1 by @fontawesome - https://fontawesome.com License - https://fontawesome.com/license (Commercial License) --><path d="M384 64H352V16C352 7 345 0 336 0S320 7 320 16V64H128V16C128 7 121 0 112 0S96 7 96 16V64H64C29 64 0 93 0 128V448C0 483 29 512 64 512H384C419 512 448 483 448 448V128C448 93 419 64 384 64ZM416 448C416 466 402 480 384 480H64C46 480 32 466 32 448V192H416V448ZM416 160H32V128C32 110 46 96 64 96H384C402 96 416 110 416 128V160ZM157 403C160 406 164 408 168 408S176 406 179 403L224 359L269 403C272 406 276 408 280 408S288 406 291 403C298 397 298 387 291 381L247 336L291 291C298 285 298 275 291 269S275 262 269 269L224 313L179 269C173 262 163 262 157 269S150 285 157 291L201 336L157 381C150 387 150 397 157 403Z"/></svg>