<svg xmlns="http://www.w3.org/2000/svg" viewBox="0 0 448 512"><!-- Font Awesome Pro 6.0.0-alpha1 by @fontawesome - https://fontawesome.com License - https://fontawesome.com/license (Commercial License) --><path d="M384 64H352V16C352 7 345 0 336 0S320 7 320 16V64H128V16C128 7 121 0 112 0S96 7 96 16V64H64C29 64 0 93 0 128V448C0 483 29 512 64 512H384C419 512 448 483 448 448V128C448 93 419 64 384 64ZM416 448C416 466 402 480 384 480H64C46 480 32 466 32 448V192H416V448ZM416 160H32V128C32 110 46 96 64 96H384C402 96 416 110 416 128V160ZM131 448L192 436C195 435 198 433 200 431L322 309C330 301 335 292 336 281C337 268 332 255 323 246L315 238C307 230 298 225 287 224C274 223 261 228 252 237L129 360C127 362 125 365 124 368L112 429C110 440 120 450 131 448ZM275 259C279 255 287 255 291 259L301 269C305 273 305 281 301 285L290 297L263 270L275 259ZM155 379L241 293L267 319L181 405L148 412L155 379Z"/></svg>