<svg xmlns="http://www.w3.org/2000/svg" viewBox="0 0 448 512"><!-- Font Awesome Pro 6.0.0-alpha1 by @fontawesome - https://fontawesome.com License - https://fontawesome.com/license (Commercial License) --><path d="M384 64H352V16C352 7 345 0 336 0S320 7 320 16V64H128V16C128 7 121 0 112 0S96 7 96 16V64H64C29 64 0 93 0 128V448C0 483 29 512 64 512H384C419 512 448 483 448 448V128C448 93 419 64 384 64ZM416 448C416 466 402 480 384 480H64C46 480 32 466 32 448V192H416V448ZM416 160H32V128C32 110 46 96 64 96H384C402 96 416 110 416 128V160ZM163 348L208 308V416C208 425 215 432 224 432S240 425 240 416V308L285 348C288 351 292 352 296 352C300 352 305 350 308 347C314 340 313 330 307 324L235 260C229 255 219 255 213 260L141 324C135 330 134 340 140 347C146 353 156 354 163 348Z"/></svg>