<svg xmlns="http://www.w3.org/2000/svg" viewBox="0 0 448 512"><!-- Font Awesome Pro 6.0.0-alpha1 by @fontawesome - https://fontawesome.com License - https://fontawesome.com/license (Commercial License) --><path d="M384 64H352V16C352 7 345 0 336 0S320 7 320 16V64H128V16C128 7 121 0 112 0S96 7 96 16V64H64C29 64 0 93 0 128V448C0 483 29 512 64 512H384C419 512 448 483 448 448V128C448 93 419 64 384 64ZM416 448C416 466 402 480 384 480H64C46 480 32 466 32 448V192H416V448ZM416 160H32V128C32 110 46 96 64 96H384C402 96 416 110 416 128V160ZM181 411C184 414 188 416 192 416S200 414 203 411L331 283C338 277 338 267 331 261S315 254 309 261L192 377L139 325C133 318 123 318 117 325S110 341 117 347L181 411Z"/></svg>