<svg xmlns="http://www.w3.org/2000/svg" viewBox="0 0 448 512"><!-- Font Awesome Pro 6.0.0-alpha1 by @fontawesome - https://fontawesome.com License - https://fontawesome.com/license (Commercial License) --><path d="M384 64H352V16C352 7 345 0 336 0S320 7 320 16V64H128V16C128 7 121 0 112 0S96 7 96 16V64H64C29 64 0 93 0 128V448C0 483 29 512 64 512H384C419 512 448 483 448 448V128C448 93 419 64 384 64ZM416 448C416 466 402 480 384 480H64C46 480 32 466 32 448V192H416V448ZM416 160H32V128C32 110 46 96 64 96H384C402 96 416 110 416 128V160ZM112 304H336C345 304 352 297 352 288S345 272 336 272H112C103 272 96 279 96 288S103 304 112 304ZM112 400H240C249 400 256 393 256 384S249 368 240 368H112C103 368 96 375 96 384S103 400 112 400Z"/></svg>