<svg xmlns="http://www.w3.org/2000/svg" viewBox="0 0 448 512"><!-- Font Awesome Pro 6.0.0-alpha1 by @fontawesome - https://fontawesome.com License - https://fontawesome.com/license (Commercial License) --><path d="M384 64H352V16C352 7 345 0 336 0S320 7 320 16V64H128V16C128 7 121 0 112 0S96 7 96 16V64H64C29 64 0 93 0 128V448C0 483 29 512 64 512H384C419 512 448 483 448 448V128C448 93 419 64 384 64ZM416 448C416 466 402 480 384 480H64C46 480 32 466 32 448V192H416V448ZM416 160H32V128C32 110 46 96 64 96H384C402 96 416 110 416 128V160ZM150 369L142 415C140 426 144 436 153 443C162 449 173 450 183 445L224 423L266 445C270 447 274 448 279 448C284 448 290 446 295 443C304 436 308 426 306 415L298 369L332 336C339 329 342 318 339 308C336 297 327 290 316 288L270 282L249 240C244 230 235 224 224 224H224C213 224 204 230 199 240L178 282L132 288L132 288C121 290 112 297 109 308C106 318 109 329 116 336L150 369ZM199 311L224 261L249 311L304 319L264 358L273 413L224 387L175 413L184 358L144 319L199 311Z"/></svg>