<svg xmlns="http://www.w3.org/2000/svg" viewBox="0 0 576 512"><!-- Font Awesome Pro 6.0.0-alpha1 by @fontawesome - https://fontawesome.com License - https://fontawesome.com/license (Commercial License) --><path d="M304 224H80C71 224 64 231 64 240C64 249 71 256 80 256H304C313 256 320 249 320 240C320 231 313 224 304 224ZM559 164C548 158 535 159 526 166L423 238C416 243 414 253 419 260C424 267 434 269 441 264L544 192V448L441 376C434 371 424 373 419 380C414 387 416 397 423 402L526 474C531 478 538 480 544 480C549 480 554 479 559 476C569 471 576 460 576 448V192C576 180 569 169 559 164ZM320 160H96V112C96 86 118 64 144 64H304C313 64 320 57 320 48C320 39 313 32 304 32H144C100 32 64 68 64 112V160C29 160 0 189 0 224V416C0 451 29 480 64 480H320C355 480 384 451 384 416V224C384 189 355 160 320 160ZM352 416C352 434 338 448 320 448H64C46 448 32 434 32 416V224C32 206 46 192 64 192H320C338 192 352 206 352 224V416Z"/></svg>