<svg xmlns="http://www.w3.org/2000/svg" viewBox="0 0 576 512"><!-- Font Awesome Pro 6.0.0-alpha1 by @fontawesome - https://fontawesome.com License - https://fontawesome.com/license (Commercial License) --><path d="M288 112C244 112 208 148 208 192S244 272 288 272S368 236 368 192S332 112 288 112ZM288 240C262 240 240 218 240 192S262 144 288 144S336 166 336 192S314 240 288 240ZM562 318L512 256V96C512 61 483 32 448 32H128C93 32 64 61 64 96V256L14 318C5 330 0 344 0 358V416C0 451 29 480 64 480H512C547 480 576 451 576 416V358C576 344 571 330 562 318ZM96 267V96C96 78 110 64 128 64H448C466 64 480 78 480 96V267L522 320H54L96 267ZM544 416C544 434 530 448 512 448H64C46 448 32 434 32 416V352L32 352H544C544 352 544 352 544 352V416ZM464 384H112C103 384 96 391 96 400C96 409 103 416 112 416H464C473 416 480 409 480 400C480 391 473 384 464 384ZM416 104C403 104 392 115 392 128C392 141 403 152 416 152C429 152 440 141 440 128C440 115 429 104 416 104Z"/></svg>