<svg xmlns="http://www.w3.org/2000/svg" viewBox="0 0 512 512"><!-- Font Awesome Pro 6.0.0-alpha1 by @fontawesome - https://fontawesome.com License - https://fontawesome.com/license (Commercial License) --><path d="M256 320C336 320 400 255 400 176C400 143 367 74 320 32C307 44 295 57 284 70C266 46 245 22 220 0C157 57 112 131 112 176C112 255 177 320 256 320ZM220 44C234 59 247 74 258 89L282 121L308 90C312 86 316 82 319 78C350 114 368 159 368 176C368 238 318 288 256 288S144 238 144 176C144 148 172 94 220 44ZM501 481L302 408L501 335C510 332 514 323 511 314C508 306 499 302 490 305L256 391L21 305C13 302 4 306 1 314C-2 323 2 332 10 335L209 408L10 481C2 484 -2 493 1 502C3 508 9 512 16 512C18 512 20 512 21 511L256 425L490 511C492 512 494 512 496 512C503 512 509 508 511 502C514 493 510 484 501 481Z"/></svg>