<svg xmlns="http://www.w3.org/2000/svg" viewBox="0 0 512 512"><!-- Font Awesome Pro 6.0.0-alpha1 by @fontawesome - https://fontawesome.com License - https://fontawesome.com/license (Commercial License) --><path d="M256 224C247 224 240 231 240 240V496C240 505 247 512 256 512S272 505 272 496V240C272 231 265 224 256 224ZM494 323C493 323 475 314 446 306C495 241 510 176 511 172C514 162 510 151 503 143C497 137 489 133 480 133C478 133 476 134 473 134C470 135 407 148 343 190C334 92 285 18 283 14C277 5 267 0 256 0S235 5 229 14C227 18 178 92 169 190C105 148 42 135 39 134C36 134 34 133 32 133C23 133 15 137 9 143C2 151 -2 162 1 173C2 176 17 241 66 306C37 314 19 323 18 323C7 329 0 340 0 352C0 364 7 375 18 381C20 382 72 408 138 411C136 417 134 422 134 422C130 434 133 447 143 455C148 461 156 464 164 464C167 464 171 464 174 463C175 462 189 458 208 449V413C183 426 165 432 165 432C168 421 173 411 178 402C183 391 175 378 163 378C159 379 154 379 150 379C85 379 32 352 32 352S58 339 96 331C108 329 114 314 105 305C58 252 36 181 32 165C95 179 145 211 174 233C185 241 200 234 200 220C200 220 200 219 200 219C200 116 256 32 256 32S312 116 312 219C312 219 312 220 312 220C312 234 327 241 338 233C367 211 417 179 480 165C477 180 454 252 407 305C398 314 404 329 416 331C454 339 480 352 480 352S427 379 362 379C358 379 353 379 349 378C336 378 329 391 334 402C339 411 344 421 347 432C347 432 329 426 304 413V449C323 458 337 462 338 463C341 464 344 464 347 464C356 464 364 461 370 454C379 446 382 433 378 422C378 422 376 417 373 411C440 408 492 382 494 381C505 375 512 364 512 352C512 340 505 329 494 323Z"/></svg>