<svg xmlns="http://www.w3.org/2000/svg" viewBox="0 0 576 512"><!-- Font Awesome Pro 6.0.0-alpha1 by @fontawesome - https://fontawesome.com License - https://fontawesome.com/license (Commercial License) --><path d="M555 302L423 121C402 92 368 75 332 75H332C308 75 286 82 266 96C244 112 230 136 224 161V144C224 82 174 32 112 32S0 82 0 144V368C0 430 50 480 112 480S224 430 224 368V214C227 228 233 241 242 253L373 434C394 463 428 480 464 480C488 480 511 473 530 459C580 422 591 352 555 302ZM192 368C192 412 156 448 112 448C68 448 32 412 32 368V272H192V368ZM192 240H32V144C32 100 68 64 112 64C156 64 192 100 192 144V240ZM285 122C300 112 316 107 332 107C357 107 381 118 397 140L469 238L454 217L324 311L268 234C242 198 250 148 285 122ZM511 433C497 443 480 448 464 448C439 448 415 437 399 415L339 332L343 337L472 243L529 321C555 357 547 407 511 433Z"/></svg>