<svg xmlns="http://www.w3.org/2000/svg" viewBox="0 0 512 512"><!-- Font Awesome Pro 6.0.0-alpha1 by @fontawesome - https://fontawesome.com License - https://fontawesome.com/license (Commercial License) --><path d="M461 204L429 90C419 56 387 32 352 32H160C125 32 93 56 83 90L51 204C21 220 0 251 0 288V352C0 376 13 396 32 407V464C32 473 39 480 48 480C57 480 64 473 64 464V416H448V464C448 473 455 480 464 480C473 480 480 473 480 464V407C499 396 512 376 512 352V288C512 251 491 220 461 204ZM114 99C120 78 139 64 160 64H352C373 64 392 78 398 99L425 193C422 193 419 192 416 192H96C93 192 90 193 87 193L114 99ZM320 384H192V352H320V384ZM432 320H480V352C480 370 466 384 448 384H352V352C352 334 338 320 320 320H192C174 320 160 334 160 352V384H64C46 384 32 370 32 352V320H80C89 320 96 313 96 304C96 295 89 288 80 288H32C32 253 61 224 96 224H416C451 224 480 253 480 288H432C423 288 416 295 416 304C416 313 423 320 432 320Z"/></svg>