<svg xmlns="http://www.w3.org/2000/svg" viewBox="0 0 640 512"><!-- Font Awesome Pro 6.0.0-alpha1 by @fontawesome - https://fontawesome.com License - https://fontawesome.com/license (Commercial License) --><path d="M202 173C190 167 176 173 171 185C165 197 170 211 183 216S209 216 214 204C220 192 214 178 202 173ZM491 330C497 318 491 303 479 298S453 298 448 310C442 322 447 336 460 342C472 347 486 342 491 330ZM624 480H476L489 450C511 448 531 435 541 414L568 355C583 320 576 281 553 254L565 171C570 135 551 101 519 86L345 7C312 -8 274 1 251 28L199 89C196 89 192 88 189 88C152 88 117 109 101 144L75 203C65 224 68 248 81 266L58 318C54 326 58 335 66 339C68 340 70 340 72 340C78 340 84 337 87 331L107 287L456 446L441 480H16C7 480 0 487 0 496C0 505 7 512 16 512H624C633 512 640 505 640 496C640 487 633 480 624 480ZM275 49C289 33 312 27 331 36L506 115C525 124 537 145 534 166L524 231C522 230 521 229 520 228L233 99L275 49ZM120 258C112 255 106 248 103 240C100 232 100 224 104 216L130 158C141 135 163 120 189 120C198 120 206 122 215 126L506 258C522 265 534 277 540 293C546 309 545 327 538 342L512 401C507 412 495 419 483 419C478 419 474 418 470 417L120 258Z"/></svg>