<svg xmlns="http://www.w3.org/2000/svg" viewBox="0 0 640 512"><!-- Font Awesome Pro 6.0.0-alpha1 by @fontawesome - https://fontawesome.com License - https://fontawesome.com/license (Commercial License) --><path d="M595 294L579 226C573 197 547 176 517 176H344C314 176 288 197 282 226L265 296C241 309 224 334 224 363V418C224 438 237 455 256 462V496C256 505 263 512 272 512S288 505 288 496V464H576V496C576 505 583 512 592 512S608 505 608 496V462C627 455 640 438 640 418V363C640 333 622 306 595 294ZM313 233C316 218 329 208 344 208H517C532 208 545 218 548 233L561 288H300L313 233ZM608 418C608 426 602 432 594 432H270C262 432 256 426 256 418V363C256 339 275 320 299 320H565C589 320 608 339 608 363V418ZM320 352C307 352 296 363 296 376C296 389 307 400 320 400S344 389 344 376C344 363 333 352 320 352ZM544 352C531 352 520 363 520 376C520 389 531 400 544 400S568 389 568 376C568 363 557 352 544 352ZM80 312C80 325 91 336 104 336S128 325 128 312C128 299 117 288 104 288S80 299 80 312ZM176 384H64C46 384 32 370 32 352V256H224C233 256 240 249 240 240C240 231 233 224 224 224H208V128H352C352 137 359 144 368 144S384 137 384 128V90C384 48 299 0 192 0S0 48 0 90V352C0 376 13 396 32 407V464C32 473 39 480 48 480S64 473 64 464V416H176C185 416 192 409 192 400C192 391 185 384 176 384ZM32 90C33 76 93 32 192 32S351 76 352 90V96H32V90ZM32 128H176V224H32V128Z"/></svg>