<svg xmlns="http://www.w3.org/2000/svg" viewBox="0 0 448 512"><!-- Font Awesome Pro 6.0.0-alpha1 by @fontawesome - https://fontawesome.com License - https://fontawesome.com/license (Commercial License) --><path d="M224 128C250 128 272 106 272 80C272 59 248 22 237 6C231 -2 217 -2 211 6C200 22 176 59 176 80C176 106 198 128 224 128ZM224 45C233 61 240 75 240 80C240 89 233 96 224 96S208 89 208 80C208 75 215 61 224 45ZM368 128C394 128 416 106 416 80C416 59 392 22 381 6C375 -2 361 -2 355 6C344 22 320 59 320 80C320 106 342 128 368 128ZM368 45C377 61 384 75 384 80C384 89 377 96 368 96S352 89 352 80C352 75 359 61 368 45ZM80 128C106 128 128 106 128 80C128 59 104 22 93 6C87 -2 73 -2 67 6C56 22 32 59 32 80C32 106 54 128 80 128ZM80 45C89 61 96 75 96 80C96 89 89 96 80 96S64 89 64 80C64 75 71 61 80 45ZM336 352C323 352 312 363 312 376C312 389 323 400 336 400S360 389 360 376C360 363 349 352 336 352ZM387 295L371 226C365 197 339 176 309 176H136C106 176 80 197 74 226L57 296C33 309 16 334 16 363V418C16 438 29 455 48 462V496C48 505 55 512 64 512S80 505 80 496V464H368V496C368 505 375 512 384 512S400 505 400 496V462C419 455 432 438 432 418V363C432 333 414 306 387 295ZM105 233C108 218 121 208 136 208H309C324 208 337 218 340 233L353 288H92L105 233ZM400 418C400 426 394 432 386 432H62C54 432 48 426 48 418V363C48 339 67 320 91 320H357C381 320 400 339 400 363V418ZM112 352C99 352 88 363 88 376C88 389 99 400 112 400S136 389 136 376C136 363 125 352 112 352Z"/></svg>