<svg xmlns="http://www.w3.org/2000/svg" viewBox="0 0 640 512"><!-- Font Awesome Pro 6.0.0-alpha1 by @fontawesome - https://fontawesome.com License - https://fontawesome.com/license (Commercial License) --><path d="M520 224L411 88C399 73 381 64 361 64H155C129 64 106 80 96 104L48 226C21 233 0 258 0 288V400C0 418 14 432 32 432H66C73 477 112 512 160 512S247 477 254 432H386C393 477 432 512 480 512S567 477 574 432H608C626 432 640 418 640 400V344C640 278 586 224 520 224ZM361 96C371 96 380 100 386 108L479 224H256V96H361ZM126 116C130 104 142 96 155 96H224V224H83L126 116ZM160 480C125 480 96 451 96 416S125 352 160 352S224 381 224 416S195 480 160 480ZM480 480C445 480 416 451 416 416S445 352 480 352S544 381 544 416S515 480 480 480ZM608 400H574C567 355 528 320 480 320S393 355 386 400H254C247 355 208 320 160 320S73 355 66 400H32V288C32 270 46 256 64 256H520C569 256 608 295 608 344V400Z"/></svg>