<svg xmlns="http://www.w3.org/2000/svg" viewBox="0 0 640 512"><!-- Font Awesome Pro 6.0.0-alpha1 by @fontawesome - https://fontawesome.com License - https://fontawesome.com/license (Commercial License) --><path d="M432 128H368C350 128 336 142 336 160V224C336 242 350 256 368 256H432C450 256 464 242 464 224V160C464 142 450 128 432 128ZM432 224H368V160H432V224ZM240 128H112C94 128 80 142 80 160V224C80 242 94 256 112 256H240C258 256 272 242 272 224V160C272 142 258 128 240 128ZM240 224H112V160H240V224ZM624 384H576V192C576 104 504 32 416 32H96C43 32 0 75 0 128V320C0 373 43 416 96 416C96 469 139 512 192 512S288 469 288 416H624C633 416 640 409 640 400C640 391 633 384 624 384ZM192 480C157 480 128 451 128 416S157 352 192 352S256 381 256 416S227 480 192 480ZM544 384H282C269 347 234 320 192 320S115 347 102 384H96C61 384 32 355 32 320V128C32 93 61 64 96 64H416C487 64 544 121 544 192V384Z"/></svg>