<svg xmlns="http://www.w3.org/2000/svg" viewBox="0 0 512 512"><!-- Font Awesome Pro 6.0.0-alpha1 by @fontawesome - https://fontawesome.com License - https://fontawesome.com/license (Commercial License) --><path d="M505 139C482 111 451 95 418 94C417 62 401 30 373 7C357 -6 339 2 333 7C306 30 290 60 288 93C287 108 290 122 295 135C281 131 268 128 254 128C206 128 160 155 138 201L2 478C-7 498 14 519 34 510L311 374C336 362 358 341 371 314C386 283 387 248 377 217C389 221 401 224 414 224C448 224 481 208 505 179C514 168 514 150 505 139ZM342 301C332 320 317 336 297 345L173 406L139 373C133 367 123 367 117 373C111 379 111 389 117 395L142 421L42 470L154 241L181 267C187 274 197 274 203 267C210 261 210 251 203 245L169 211C186 179 218 160 254 160C269 160 284 163 297 170C320 181 338 201 347 226C355 251 353 277 342 301ZM414 192C392 192 371 183 353 166L346 159C309 122 311 67 353 32C386 60 395 100 378 134C390 128 401 126 413 126C437 126 462 137 480 159C462 181 438 192 414 192Z"/></svg>