<svg xmlns="http://www.w3.org/2000/svg" viewBox="0 0 640 512"><!-- Font Awesome Pro 6.0.0-alpha1 by @fontawesome - https://fontawesome.com License - https://fontawesome.com/license (Commercial License) --><path d="M72 200C72 213 83 224 96 224S120 213 120 200C120 187 109 176 96 176S72 187 72 200ZM242 256H46C38 256 32 250 32 242V187C32 163 51 144 75 144H341C342 144 342 144 342 144C343 144 343 144 344 144H402C394 133 384 124 371 118L355 50C349 21 323 0 293 0H120C90 0 64 21 58 50L41 120C17 133 0 158 0 187V242C0 262 13 279 32 286V320C32 329 39 336 48 336S64 329 64 320V288H224C228 284 232 279 237 276L242 256ZM89 57C92 42 105 32 120 32H293C308 32 321 42 324 57L337 112H76L89 57ZM544 352C531 352 520 363 520 376C520 389 531 400 544 400S568 389 568 376C568 363 557 352 544 352ZM320 352C307 352 296 363 296 376C296 389 307 400 320 400S344 389 344 376C344 363 333 352 320 352ZM595 294L579 226C573 197 547 176 517 176H344C314 176 288 197 282 226L265 296C241 309 224 334 224 363V418C224 438 237 455 256 462V496C256 505 263 512 272 512S288 505 288 496V464H576V496C576 505 583 512 592 512S608 505 608 496V462C627 455 640 438 640 418V363C640 333 622 306 595 294ZM313 233C316 218 329 208 344 208H517C532 208 545 218 548 233L561 288H300L313 233ZM608 418C608 426 602 432 594 432H270C262 432 256 426 256 418V363C256 339 275 320 299 320H565C589 320 608 339 608 363V418Z"/></svg>