<svg xmlns="http://www.w3.org/2000/svg" viewBox="0 0 576 512"><!-- Font Awesome Pro 6.0.0-alpha1 by @fontawesome - https://fontawesome.com License - https://fontawesome.com/license (Commercial License) --><path d="M184 400C169 400 155 406 144 416C134 427 128 441 128 456C128 471 134 485 144 496C155 506 169 512 184 512S213 506 224 496C234 485 240 471 240 456C240 441 234 427 224 416C213 406 199 400 184 400ZM201 473C196 478 190 480 184 480S172 478 167 473C162 468 160 462 160 456C160 450 162 444 167 439C172 434 178 432 184 432S196 434 201 439S208 450 208 456C208 462 206 468 201 473ZM456 400C441 400 427 406 416 416C406 427 400 441 400 456C400 471 406 485 416 496C427 506 441 512 456 512S485 506 496 496C506 485 512 471 512 456C512 441 506 427 496 416C485 406 471 400 456 400ZM473 473C468 478 462 480 456 480C450 480 444 478 439 473C435 468 432 462 432 456C432 450 435 444 439 439C444 434 450 432 456 432C462 432 468 434 473 439S480 450 480 456C480 462 478 468 473 473ZM569 76C563 68 554 64 544 64H107L96 12C94 5 87 0 80 0H16C7 0 0 7 0 16S7 32 16 32H67L144 372C146 379 153 384 160 384H496C505 384 512 377 512 368S505 352 496 352H173L166 320H476C487 320 497 317 505 311C514 305 520 296 523 286L575 103C578 94 575 83 569 76ZM492 277C491 280 489 283 486 285C484 287 480 288 476 288H160C159 288 159 288 158 288L115 96H320L544 94L492 277ZM304 144V176H272C263 176 256 183 256 192S263 208 272 208H304V240C304 249 311 256 320 256S336 249 336 240V208H368C377 208 384 201 384 192S377 176 368 176H336V144C336 135 329 128 320 128S304 135 304 144Z"/></svg>