<svg xmlns="http://www.w3.org/2000/svg" viewBox="0 0 640 512"><!-- Font Awesome Pro 6.0.0-alpha1 by @fontawesome - https://fontawesome.com License - https://fontawesome.com/license (Commercial License) --><path d="M624 384H96V48C96 22 74 0 48 0H0C-9 0 -16 7 -16 16S-9 32 0 32H48C57 32 64 39 64 48V400C64 409 71 416 80 416H153C147 425 144 436 144 448C144 483 173 512 208 512C243 512 272 483 272 448C272 436 269 425 263 416H441C435 425 432 436 432 448C432 483 461 512 496 512C531 512 560 483 560 448C560 436 557 425 551 416H624C633 416 640 409 640 400S633 384 624 384ZM240 448C240 466 226 480 208 480S176 466 176 448S190 416 208 416S240 430 240 448ZM528 448C528 466 514 480 496 480S464 466 464 448S478 416 496 416S528 430 528 448Z"/></svg>