<svg xmlns="http://www.w3.org/2000/svg" viewBox="0 0 576 512"><!-- Font Awesome Pro 6.0.0-alpha1 by @fontawesome - https://fontawesome.com License - https://fontawesome.com/license (Commercial License) --><path d="M512 32H64C29 32 0 61 0 96V416C0 451 29 480 64 480H512C547 480 576 451 576 416V96C576 61 547 32 512 32ZM544 416C544 434 530 448 512 448H64C46 448 32 434 32 416V160H544V416ZM544 128H32V96C32 78 46 64 64 64H512C530 64 544 78 544 96V128ZM125 400H451C456 400 461 398 464 394C485 368 496 337 496 304S485 240 464 214C461 210 456 208 451 208H125C120 208 115 210 112 214C91 240 80 271 80 304S91 368 112 394C115 398 120 400 125 400ZM384 336C402 336 416 322 416 304C416 286 402 272 384 272V240H443C457 259 464 281 464 304S457 349 443 368H384V336ZM224 240H352V368H224V240ZM133 240H192V272C174 272 160 286 160 304C160 322 174 336 192 336V368H133C119 349 112 327 112 304S119 259 133 240Z"/></svg>