<svg xmlns="http://www.w3.org/2000/svg" viewBox="0 0 576 512"><!-- Font Awesome Pro 6.0.0-alpha1 by @fontawesome - https://fontawesome.com License - https://fontawesome.com/license (Commercial License) --><path d="M512 32H64C29 32 0 61 0 96V416C0 451 29 480 64 480H512C547 480 576 451 576 416V96C576 61 547 32 512 32ZM544 416C544 434 530 448 512 448H64C46 448 32 434 32 416V160H544V416ZM544 128H32V96C32 78 46 64 64 64H512C530 64 544 78 544 96V128ZM352 384H448C466 384 480 370 480 352V256C480 238 466 224 448 224H352C334 224 320 238 320 256V352C320 370 334 384 352 384ZM352 256H448V352H352V256ZM176 400C229 400 272 357 272 304S229 208 176 208S80 251 80 304S123 400 176 400ZM176 240C211 240 240 269 240 304C240 339 211 368 176 368S112 339 112 304C112 269 141 240 176 240ZM176 328C189 328 200 317 200 304C200 291 189 280 176 280C163 280 152 291 152 304C152 317 163 328 176 328Z"/></svg>