<svg xmlns="http://www.w3.org/2000/svg" viewBox="0 0 512 512"><!-- Font Awesome Pro 6.0.0-alpha1 by @fontawesome - https://fontawesome.com License - https://fontawesome.com/license (Commercial License) --><path d="M511 379L488 215C483 184 456 160 425 160L192 160V128L288 128H288C306 128 320 114 320 96V32C320 14 306 0 288 0H64C47 0 32 14 32 32V96C32 113 47 128 64 128H160V160H88C56 160 29 183 24 215L1 379C0 382 0 386 0 389V448C0 483 29 512 64 512H448C483 512 512 483 512 448V388C512 385 512 381 511 379ZM64 96V32H288V96L192 96L160 96V96H64ZM56 219C58 204 72 192 88 192H192L425 192C440 192 454 204 456 220L480 382L480 384H32L56 219ZM480 448C480 466 466 480 448 480H64C46 480 32 466 32 448V416H480V448ZM112 232C99 232 88 243 88 256C88 269 99 280 112 280S136 269 136 256C136 243 125 232 112 232ZM208 232C195 232 184 243 184 256C184 269 195 280 208 280S232 269 232 256C232 243 221 232 208 232ZM304 232C291 232 280 243 280 256C280 269 291 280 304 280S328 269 328 256C328 243 317 232 304 232ZM400 232C387 232 376 243 376 256C376 269 387 280 400 280S424 269 424 256C424 243 413 232 400 232ZM352 312C339 312 328 323 328 336C328 349 339 360 352 360S376 349 376 336C376 323 365 312 352 312ZM256 312C243 312 232 323 232 336C232 349 243 360 256 360S280 349 280 336C280 323 269 312 256 312ZM160 312C147 312 136 323 136 336C136 349 147 360 160 360S184 349 184 336C184 323 173 312 160 312Z"/></svg>