<svg xmlns="http://www.w3.org/2000/svg" viewBox="0 0 576 512"><!-- Font Awesome Pro 6.0.0-alpha1 by @fontawesome - https://fontawesome.com License - https://fontawesome.com/license (Commercial License) --><path d="M512 32H64C29 32 0 61 0 96V416C0 451 29 480 64 480H512C547 480 576 451 576 416V96C576 61 547 32 512 32ZM134 448L152 395C154 388 160 384 167 384H409C416 384 422 388 424 395L442 448H134ZM544 416C544 434 530 448 512 448H476L454 385C448 365 430 352 409 352H167C146 352 128 365 122 385L100 448H64C46 448 32 434 32 416V96C32 78 46 64 64 64H512C530 64 544 78 544 96V416ZM416 160H160C125 160 96 189 96 224S125 288 160 288H416C451 288 480 259 480 224S451 160 416 160ZM160 256C142 256 128 242 128 224S142 192 160 192S192 206 192 224S178 256 160 256ZM361 256H215C221 247 224 236 224 224S221 201 215 192H361C355 201 352 212 352 224S355 247 361 256ZM416 256C398 256 384 242 384 224S398 192 416 192S448 206 448 224S434 256 416 256Z"/></svg>