<svg xmlns="http://www.w3.org/2000/svg" viewBox="0 0 576 512"><!-- Font Awesome Pro 6.0.0-alpha1 by @fontawesome - https://fontawesome.com License - https://fontawesome.com/license (Commercial License) --><path d="M544 0C535 0 526 4 519 11L476 64H452L409 11C400 1 384 -3 370 3C359 9 352 21 352 34V160H336C232 160 142 218 96 304V176C96 132 60 96 16 96C7 96 0 103 0 112S7 128 16 128C42 128 64 150 64 176V432C64 476 100 512 144 512H351C370 512 384 497 384 479C383 446 358 420 327 416L416 377V464C416 490 438 512 464 512S512 490 512 464V261C550 243 576 205 576 160V32C576 14 562 0 544 0ZM480 464C480 473 473 480 464 480S448 473 448 464V352C448 340 436 333 426 337L303 392C300 357 278 326 246 311C237 307 226 312 224 322C222 329 226 336 232 340C255 351 272 370 272 395L272 448H320C338 448 352 462 352 480L144 480C118 480 96 460 96 435C95 301 203 192 336 192H357C371 238 414 272 464 272C470 272 475 271 480 270V464ZM544 160C544 204 508 240 464 240S384 204 384 160V32L437 96H491L544 32V160ZM432 128C423 128 416 135 416 144S423 160 432 160S448 153 448 144S441 128 432 128ZM480 144C480 153 487 160 496 160S512 153 512 144S505 128 496 128S480 135 480 144Z"/></svg>