<svg xmlns="http://www.w3.org/2000/svg" viewBox="0 0 320 512"><!-- Font Awesome Pro 6.0.0-alpha1 by @fontawesome - https://fontawesome.com License - https://fontawesome.com/license (Commercial License) --><path d="M315 363C322 370 322 380 315 386C281 420 237 437 192 439V496C192 505 185 512 176 512S160 505 160 496V438C121 432 84 416 54 386C19 351 0 305 0 256S19 161 54 126C84 96 121 80 160 74V16C160 7 167 0 176 0S192 7 192 16V73C237 75 281 92 315 126C322 132 322 142 315 149C309 155 299 155 293 149C233 89 136 89 77 149C48 177 32 215 32 256S48 335 77 363C136 423 233 423 293 363C299 357 309 357 315 363Z"/></svg>