<svg xmlns="http://www.w3.org/2000/svg" viewBox="0 0 448 512"><!-- Font Awesome Pro 6.0.0-alpha1 by @fontawesome - https://fontawesome.com License - https://fontawesome.com/license (Commercial License) --><path d="M48 240C57 240 64 233 64 224V144C64 135 57 128 48 128S32 135 32 144V224C32 233 39 240 48 240ZM397 284C389 267 372 256 353 256H352V80C352 36 316 0 272 0H176C132 0 96 36 96 80L96 256H95C76 256 59 267 51 284L36 316C30 331 31 348 40 362C48 376 64 384 80 384H208V433C162 438 128 464 128 496C128 505 135 512 144 512C153 512 160 505 160 496C160 483 180 469 208 465V496C208 505 215 512 224 512C233 512 240 505 240 496V465C268 469 288 483 288 496C288 505 295 512 304 512C313 512 320 505 320 496C320 464 286 438 240 433V384H368C384 384 400 376 408 362C417 348 418 331 412 316L397 284ZM176 32H272C298 32 320 54 320 80V256H128L128 80C128 54 150 32 176 32ZM381 345C378 349 373 352 368 352H80C75 352 70 349 67 345C64 340 63 334 66 329L80 297C83 292 89 288 95 288H353C359 288 365 292 368 297L382 329C385 334 384 340 381 345ZM400 128C391 128 384 135 384 144V224C384 233 391 240 400 240S416 233 416 224V144C416 135 409 128 400 128Z"/></svg>