<svg xmlns="http://www.w3.org/2000/svg" viewBox="0 0 576 512"><!-- Font Awesome Pro 6.0.0-alpha1 by @fontawesome - https://fontawesome.com License - https://fontawesome.com/license (Commercial License) --><path d="M560 448H416V400C416 374 394 352 368 352H272C246 352 224 374 224 400V448H16C7 448 0 455 0 464S7 480 16 480H560C569 480 576 473 576 464S569 448 560 448ZM384 448H256V400C256 391 263 384 272 384H368C377 384 384 391 384 400V448ZM45 384C55 385 64 378 64 368V80C64 71 71 64 80 64H496C505 64 512 71 512 80V368C512 377 519 384 528 384S544 377 544 368V80C544 54 522 32 496 32H80C54 32 32 54 32 80V367C32 375 37 382 45 384Z"/></svg>