<svg xmlns="http://www.w3.org/2000/svg" viewBox="0 0 512 512"><!-- Font Awesome Pro 6.0.0-alpha1 by @fontawesome - https://fontawesome.com License - https://fontawesome.com/license (Commercial License) --><path d="M256 256C265 256 272 249 272 240V144C272 135 265 128 256 128S240 135 240 144V240C240 249 247 256 256 256ZM352 192C361 192 368 185 368 176V80C368 71 361 64 352 64S336 71 336 80V176C336 185 343 192 352 192ZM160 352C169 352 176 345 176 336V240C176 231 169 224 160 224S144 231 144 240V336C144 345 151 352 160 352ZM496 448H80C54 448 32 426 32 400V48C32 39 25 32 16 32S0 39 0 48V400C0 444 36 480 80 480H496C505 480 512 473 512 464S505 448 496 448ZM448 352C457 352 464 345 464 336V80C464 71 457 64 448 64S432 71 432 80V336C432 345 439 352 448 352Z"/></svg>