<svg xmlns="http://www.w3.org/2000/svg" viewBox="0 0 512 512"><!-- Font Awesome Pro 6.0.0-alpha1 by @fontawesome - https://fontawesome.com License - https://fontawesome.com/license (Commercial License) --><path d="M416 320V368C416 377 423 384 432 384S448 377 448 368V320C466 320 480 306 480 288V224C480 206 466 192 448 192V144C448 135 441 128 432 128S416 135 416 144V192C398 192 384 206 384 224V288C384 306 398 320 416 320ZM416 224H448V288H416V224ZM496 448H80C54 448 32 426 32 400V48C32 39 25 32 16 32S0 39 0 48V400C0 444 36 480 80 480H496C505 480 512 473 512 464S505 448 496 448ZM160 320V368C160 377 167 384 176 384S192 377 192 368V320C210 320 224 306 224 288V160C224 142 210 128 192 128V80C192 71 185 64 176 64S160 71 160 80V128C142 128 128 142 128 160V288C128 306 142 320 160 320ZM160 160H192V288H160V160ZM288 256V304C288 313 295 320 304 320S320 313 320 304V256C338 256 352 242 352 224V128C352 110 338 96 320 96V48C320 39 313 32 304 32S288 39 288 48V96C270 96 256 110 256 128V224C256 242 270 256 288 256ZM288 128H320V224H288V128Z"/></svg>