<svg xmlns="http://www.w3.org/2000/svg" viewBox="0 0 512 512"><!-- Font Awesome Pro 6.0.0-alpha1 by @fontawesome - https://fontawesome.com License - https://fontawesome.com/license (Commercial License) --><path d="M352 320C352 329 359 336 368 336H464C473 336 480 329 480 320S473 304 464 304H368C359 304 352 311 352 320ZM192 224C192 233 199 240 208 240H368C377 240 384 233 384 224S377 208 368 208H208C199 208 192 215 192 224ZM496 448H80C54 448 32 426 32 400V48C32 39 25 32 16 32S0 39 0 48V400C0 444 36 480 80 480H496C505 480 512 473 512 464S505 448 496 448ZM144 144H272C281 144 288 137 288 128S281 112 272 112H144C135 112 128 119 128 128S135 144 144 144Z"/></svg>