<svg xmlns="http://www.w3.org/2000/svg" viewBox="0 0 640 512"><!-- Font Awesome Pro 6.0.0-alpha1 by @fontawesome - https://fontawesome.com License - https://fontawesome.com/license (Commercial License) --><path d="M160 320C213 320 256 277 256 224C256 171 213 128 160 128C107 128 64 171 64 224C64 277 107 320 160 320ZM160 160C195 160 224 189 224 224S195 288 160 288S96 259 96 224S125 160 160 160ZM592 0H208C182 0 160 22 160 48V80C160 89 167 96 176 96S192 89 192 80V48C192 39 199 32 208 32H592C601 32 608 39 608 48V368C608 377 601 384 592 384H352C343 384 336 391 336 400S343 416 352 416H592C618 416 640 394 640 368V48C640 22 618 0 592 0ZM192 352H128C57 352 0 409 0 480C0 498 14 512 32 512H288C306 512 320 498 320 480C320 409 263 352 192 352ZM32 480C32 427 75 384 128 384H192C245 384 288 427 288 480H32ZM315 165C309 158 299 158 293 165S286 181 293 187L373 267C376 270 380 272 384 272S392 270 395 267L496 167V224C496 233 503 240 512 240S528 233 528 224V128C528 119 521 112 512 112H416C407 112 400 119 400 128S407 144 416 144H473L384 233L315 165Z"/></svg>