<svg xmlns="http://www.w3.org/2000/svg" viewBox="0 0 576 512"><!-- Font Awesome Pro 6.0.0-alpha1 by @fontawesome - https://fontawesome.com License - https://fontawesome.com/license (Commercial License) --><path d="M528 288L329 288C315 288 308 305 318 315L448 446C453 451 463 454 471 447C509 410 536 361 544 306C545 296 537 288 528 288ZM460 412L368 320H509C500 354 484 386 460 412ZM224 288V51C224 42 217 34 208 34C208 34 207 34 206 35C87 51 -4 156 0 280C4 407 113 512 240 512C241 512 242 512 243 512C293 511 340 495 378 468C386 462 387 451 380 444L224 288ZM243 480C127 480 36 385 32 279C29 179 96 92 192 70V288C192 296 195 305 201 311L343 453C313 470 278 479 243 480ZM512 223C504 104 408 8 289 0C278 0 272 8 272 16V224C272 233 279 240 288 240L496 240C505 240 513 232 512 223ZM304 208V34C393 48 464 119 478 208H304Z"/></svg>