<svg xmlns="http://www.w3.org/2000/svg" viewBox="0 0 576 512"><!-- Font Awesome Pro 6.0.0-alpha1 by @fontawesome - https://fontawesome.com License - https://fontawesome.com/license (Commercial License) --><path d="M64 352H32C14 352 0 366 0 384V480C0 498 14 512 32 512H64C82 512 96 498 96 480V384C96 366 82 352 64 352ZM64 480H32V384H64V480ZM544 192H512C494 192 480 206 480 224V480C480 498 494 512 512 512H544C562 512 576 498 576 480V224C576 206 562 192 544 192ZM544 480H512V224H544V480ZM384 320H352C334 320 320 334 320 352V480C320 498 334 512 352 512H384C402 512 416 498 416 480V352C416 334 402 320 384 320ZM384 480H352V352H384V480ZM224 192H192C174 192 160 206 160 224V480C160 498 174 512 192 512H224C242 512 256 498 256 480V224C256 206 242 192 224 192ZM224 480H192V224H224V480ZM505 89C512 93 519 96 528 96C554 96 576 74 576 48S554 0 528 0S480 22 480 48C480 54 482 60 484 65L391 135C384 131 377 128 368 128S352 131 345 135L252 65C254 60 256 54 256 48C256 22 234 0 208 0S160 22 160 48C160 55 162 62 165 68L68 165C62 162 55 160 48 160C22 160 0 182 0 208S22 256 48 256S96 234 96 208C96 201 94 194 91 188L188 91C194 94 201 96 208 96C217 96 224 93 231 89L324 159C322 164 320 170 320 176C320 202 342 224 368 224S416 202 416 176C416 170 414 164 412 159L505 89ZM528 32C537 32 544 39 544 48S537 64 528 64C523 64 520 62 517 60L516 58L514 56C513 53 512 50 512 48C512 39 519 32 528 32ZM48 224C39 224 32 217 32 208S39 192 48 192C51 192 54 193 57 195L59 197L61 199C63 202 64 205 64 208C64 217 57 224 48 224ZM222 56L220 58L218 60C216 62 213 64 208 64C205 64 202 63 199 61L197 59L195 57C193 54 192 51 192 48C192 39 199 32 208 32S224 39 224 48C224 50 223 53 222 56ZM368 192C359 192 352 185 352 176C352 174 353 171 354 168L356 166L357 164C360 162 363 160 368 160S376 162 379 164L380 166L382 168C383 171 384 174 384 176C384 185 377 192 368 192Z"/></svg>