<svg xmlns="http://www.w3.org/2000/svg" viewBox="0 0 512 512"><!-- Font Awesome Pro 6.0.0-alpha1 by @fontawesome - https://fontawesome.com License - https://fontawesome.com/license (Commercial License) --><path d="M496 448H80C54 448 32 426 32 400V48C32 39 25 32 16 32S0 39 0 48V400C0 444 36 480 80 480H496C505 480 512 473 512 464S505 448 496 448ZM144 384H432C458 384 480 362 480 336V253C480 241 475 228 466 219L379 133C373 126 363 126 357 133L305 184L236 102C233 98 229 96 224 96C220 95 215 98 212 101L108 220C100 229 96 240 96 252V336C96 362 118 384 144 384ZM128 252C128 248 129 244 132 241L224 137L292 218C295 222 299 224 303 224C308 224 312 222 315 219L368 167L443 242C446 245 448 249 448 253V336C448 345 441 352 432 352H144C135 352 128 345 128 336V252Z"/></svg>