<svg xmlns="http://www.w3.org/2000/svg" viewBox="0 0 512 512"><!-- Font Awesome Pro 6.0.0-alpha1 by @fontawesome - https://fontawesome.com License - https://fontawesome.com/license (Commercial License) --><path d="M496 448H80C54 448 32 426 32 400V48C32 39 25 32 16 32S0 39 0 48V400C0 444 36 480 80 480H496C505 480 512 473 512 464S505 448 496 448ZM160 368C169 368 176 361 176 352V256C176 247 169 240 160 240S144 247 144 256V352C144 361 151 368 160 368ZM256 368C265 368 272 361 272 352V128C272 119 265 112 256 112S240 119 240 128V352C240 361 247 368 256 368ZM352 368C361 368 368 361 368 352V192C368 183 361 176 352 176S336 183 336 192V352C336 361 343 368 352 368ZM448 368C457 368 464 361 464 352V96C464 87 457 80 448 80S432 87 432 96V352C432 361 439 368 448 368Z"/></svg>