<svg xmlns="http://www.w3.org/2000/svg" viewBox="0 0 576 512"><!-- Font Awesome Pro 6.0.0-alpha1 by @fontawesome - https://fontawesome.com License - https://fontawesome.com/license (Commercial License) --><path d="M560 128H544V80C544 71 537 64 528 64S512 71 512 80V128H480V80C480 71 473 64 464 64S448 71 448 80V128H432C423 128 416 135 416 144V192C416 231 443 263 480 270V382C480 398 469 413 453 416C433 419 416 403 416 384V336C416 292 380 256 336 256H320V64C320 29 291 0 256 0H96C61 0 32 29 32 64V480H16C7 480 0 487 0 496C0 505 7 512 16 512H336C345 512 352 505 352 496C352 487 345 480 336 480H320V288H336C362 288 384 310 384 336V381C384 414 408 444 442 448C480 451 512 421 512 384V270C549 263 576 231 576 192V144C576 135 569 128 560 128ZM288 480H64V64C64 46 78 32 96 32H256C274 32 288 46 288 64V480ZM544 192C544 218 522 240 496 240S448 218 448 192V160H544V192ZM224 192H150L175 117C178 109 173 100 165 97C157 94 148 99 145 107L113 203C111 208 112 213 115 217C118 222 123 224 128 224H200L161 314C158 322 162 331 170 335C172 336 174 336 176 336C182 336 188 332 191 326L239 214C241 209 240 204 237 199C234 195 229 192 224 192Z"/></svg>