<svg xmlns="http://www.w3.org/2000/svg" viewBox="0 0 512 512"><!-- Font Awesome Pro 6.0.0-alpha1 by @fontawesome - https://fontawesome.com License - https://fontawesome.com/license (Commercial License) --><path d="M288 280C301 280 312 269 312 256S301 232 288 232S264 243 264 256S275 280 288 280ZM384 344C397 344 408 333 408 320S397 296 384 296S360 307 360 320S371 344 384 344ZM416 152C429 152 440 141 440 128S429 104 416 104S392 115 392 128S403 152 416 152ZM160 344C173 344 184 333 184 320S173 296 160 296S136 307 136 320S147 344 160 344ZM192 184C205 184 216 173 216 160S205 136 192 136S168 147 168 160S179 184 192 184ZM496 448H80C54 448 32 426 32 400V48C32 39 25 32 16 32S0 39 0 48V400C0 444 36 480 80 480H496C505 480 512 473 512 464S505 448 496 448Z"/></svg>