<svg xmlns="http://www.w3.org/2000/svg" viewBox="0 0 512 512"><!-- Font Awesome Pro 6.0.0-alpha1 by @fontawesome - https://fontawesome.com License - https://fontawesome.com/license (Commercial License) --><path d="M400 448H112C86 448 64 470 64 496C64 505 71 512 80 512S96 505 96 496C96 487 103 480 112 480H400C409 480 416 487 416 496C416 505 423 512 432 512S448 505 448 496C448 470 427 448 400 448ZM482 180L458 167C444 157 427 161 417 174C411 182 401 186 391 184C379 182 370 170 370 156C370 140 358 128 342 128H308C295 128 284 137 282 149C279 162 268 171 256 171S233 162 231 150C228 137 217 128 204 128H170C154 128 142 141 142 156C142 171 131 184 118 185C109 186 101 181 96 174C86 161 67 157 55 166L29 181C17 189 12 206 19 219L109 407C113 415 122 418 130 414C138 411 142 401 138 393L49 206L70 193C82 209 100 218 120 217C149 215 172 190 174 160H200C207 185 230 203 256 203C282 203 305 185 312 160H338C340 188 359 211 385 216C406 220 429 211 441 194L464 205L374 393C371 401 374 411 382 414C384 415 387 416 389 416C395 416 401 413 403 407L493 219C500 206 495 189 482 180ZM46 208L46 208L46 208L46 208ZM256 112C287 112 312 87 312 56S287 0 256 0S200 25 200 56S225 112 256 112ZM256 32C269 32 280 43 280 56C280 69 269 80 256 80S232 69 232 56C232 43 243 32 256 32Z"/></svg>