<svg xmlns="http://www.w3.org/2000/svg" viewBox="0 0 640 512"><!-- Font Awesome Pro 6.0.0-alpha1 by @fontawesome - https://fontawesome.com License - https://fontawesome.com/license (Commercial License) --><path d="M256 80C256 71 249 64 240 64H112C103 64 96 71 96 80S103 96 112 96H240C249 96 256 89 256 80ZM464 192C402 192 352 242 352 304S402 416 464 416S576 366 576 304S526 192 464 192ZM464 384C420 384 384 348 384 304C384 265 412 233 448 226V304C448 313 455 320 464 320S480 313 480 304V226C516 233 544 265 544 304C544 348 508 384 464 384ZM0 192L0 416C0 451 29 480 64 480H576C611 480 640 451 640 416V192C640 157 611 128 576 128H480V64H528C537 64 544 57 544 48S537 32 528 32H400C391 32 384 39 384 48S391 64 400 64H448V128H64C29 128 0 157 0 192ZM32 192C32 174 46 160 64 160H576C594 160 608 174 608 192V416C608 434 594 448 576 448H64C46 448 32 434 32 416V192ZM176 192C114 192 64 242 64 304S114 416 176 416S288 366 288 304S238 192 176 192ZM233 361C201 392 151 392 119 361S88 279 119 247C147 220 189 217 220 237L165 293C158 299 158 309 165 315C171 322 181 322 187 315L243 260C263 291 260 333 233 361Z"/></svg>