<svg xmlns="http://www.w3.org/2000/svg" viewBox="0 0 320 512"><!-- Font Awesome Pro 6.0.0-alpha1 by @fontawesome - https://fontawesome.com License - https://fontawesome.com/license (Commercial License) --><path d="M32 277L58 289C48 301 38 315 35 333C32 343 40 352 50 352C58 352 64 347 66 340C76 293 145 281 145 250V207L123 213C119 215 116 218 115 223L109 243C107 250 103 255 97 257L88 260C83 262 77 262 72 260L45 248C37 245 32 237 32 229V145C32 141 34 137 37 134L43 128L33 109C32 107 32 106 32 104C32 100 36 96 40 96H126C198 96 256 154 256 226V336C256 345 263 352 272 352H272C281 352 288 345 288 336V226C288 136 216 64 126 64H42C20 64 1 81 0 103C0 110 1 117 4 123L5 124C2 131 0 138 0 145V229C0 250 12 269 32 277ZM62 171C62 179 69 186 77 186S92 179 92 171C92 162 85 156 77 156C69 156 62 162 62 171ZM307 428L288 419V408C288 395 277 384 264 384H56C43 384 32 395 32 408V419L13 428C5 432 0 441 0 450V488C0 501 11 512 24 512H296C309 512 320 501 320 488V450C320 441 315 432 307 428ZM288 480H32V455L64 439V416H256V439L288 455V480Z"/></svg>