<svg xmlns="http://www.w3.org/2000/svg" viewBox="0 0 384 512"><!-- Font Awesome Pro 6.0.0-alpha1 by @fontawesome - https://fontawesome.com License - https://fontawesome.com/license (Commercial License) --><path d="M336 32H48C22 32 0 54 0 80V192C0 196 2 200 5 203L64 263C64 302 65 327 54 397C52 406 58 414 67 416C75 417 84 411 85 403C97 330 96 303 96 256C96 252 94 248 91 245L32 185V80C32 71 39 64 48 64H112V128C112 137 119 144 128 144S144 137 144 128V64H240V128C240 137 247 144 256 144S272 137 272 128V64H336C345 64 352 71 352 80V185L293 245C290 248 288 252 288 256C288 305 287 330 299 403C301 416 315 416 317 416C326 414 332 406 330 397C319 327 320 301 320 263L379 203C382 200 384 196 384 192V80C384 54 362 32 336 32ZM336 448H48C22 448 0 470 0 496C0 505 7 512 16 512S32 505 32 496C32 487 39 480 48 480H336C345 480 352 487 352 496C352 505 359 512 368 512S384 505 384 496C384 470 362 448 336 448ZM224 320C233 320 240 313 240 304V240C240 214 218 192 192 192S144 214 144 240V304C144 313 151 320 160 320H224ZM176 240C176 231 183 224 192 224S208 231 208 240V288H176V240Z"/></svg>