<svg xmlns="http://www.w3.org/2000/svg" viewBox="0 0 448 512"><!-- Font Awesome Pro 6.0.0-alpha1 by @fontawesome - https://fontawesome.com License - https://fontawesome.com/license (Commercial License) --><path d="M368 448H80C54 448 32 470 32 496C32 505 39 512 48 512S64 505 64 496C64 487 71 480 80 480H368C377 480 384 487 384 496C384 505 391 512 400 512S416 505 416 496C416 470 394 448 368 448ZM423 180C414 168 400 160 384 160H240V96H288C297 96 304 89 304 80S297 64 288 64H240V16C240 7 233 0 224 0S208 7 208 16V64H160C151 64 144 71 144 80S151 96 160 96H208V160H64C48 160 34 168 25 180C16 193 14 209 19 224L80 405C83 414 92 418 101 415C109 412 114 403 111 395L49 213C45 203 53 192 64 192H384C395 192 403 203 399 213L335 395C332 403 336 412 344 415C356 419 363 410 365 405L429 224C434 209 432 193 423 180Z"/></svg>