<svg xmlns="http://www.w3.org/2000/svg" viewBox="0 0 448 512"><!-- Font Awesome Pro 6.0.0-alpha1 by @fontawesome - https://fontawesome.com License - https://fontawesome.com/license (Commercial License) --><path d="M352 112H96C87 112 80 119 80 128V384C80 393 87 400 96 400H352C361 400 368 393 368 384V128C368 119 361 112 352 112ZM144 368H112V336H144V368ZM144 304H112V272H144V304ZM144 240H112V208H144V240ZM144 176H112V144H144V176ZM208 368H176V336H208V368ZM208 304H176V272H208V304ZM208 240H176V208H208V240ZM208 176H176V144H208V176ZM272 368H240V336H272V368ZM272 304H240V272H272V304ZM272 240H240V208H272V240ZM272 176H240V144H272V176ZM336 368H304V336H336V368ZM336 304H304V272H336V304ZM336 240H304V208H336V240ZM336 176H304V144H336V176ZM384 32H64C29 32 0 61 0 96V416C0 451 29 480 64 480H384C419 480 448 451 448 416V96C448 61 419 32 384 32ZM416 416C416 434 402 448 384 448H64C46 448 32 434 32 416V96C32 78 46 64 64 64H384C402 64 416 78 416 96V416Z"/></svg>