<svg xmlns="http://www.w3.org/2000/svg" viewBox="0 0 448 512"><!-- Font Awesome Pro 6.0.0-alpha1 by @fontawesome - https://fontawesome.com License - https://fontawesome.com/license (Commercial License) --><path d="M212 59L394 256L212 453C209 456 208 460 208 464C208 468 210 473 213 476C220 482 230 481 236 475L428 267C433 261 433 251 428 245L236 37C230 31 220 30 213 36C207 42 206 52 212 59ZM236 267C241 261 241 251 236 245L44 37C38 31 28 30 21 36C15 42 14 52 20 59L202 256L20 453C17 456 16 460 16 464C16 468 18 473 21 476C28 482 38 481 44 475L236 267Z"/></svg>