<svg xmlns="http://www.w3.org/2000/svg" viewBox="0 0 448 512"><!-- Font Awesome Pro 6.0.0-alpha1 by @fontawesome - https://fontawesome.com License - https://fontawesome.com/license (Commercial License) --><path d="M416 32H32C14 32 0 46 0 64V128C0 146 14 160 32 160L32 463C32 471 37 478 45 480C55 481 64 474 64 464V416H288V464C288 473 295 480 304 480H304C313 480 320 473 320 464V416H384V463C384 471 389 478 397 480C407 481 416 474 416 464V160C434 160 448 146 448 128V64C448 46 434 32 416 32ZM128 256H64V160H128V256ZM64 384V288H192V384H64ZM384 384H224V288H384V384ZM384 256H160V160H384V256ZM416 128H32V64H416V128Z"/></svg>