<svg xmlns="http://www.w3.org/2000/svg" viewBox="0 0 640 512"><!-- Font Awesome Pro 6.0.0-alpha1 by @fontawesome - https://fontawesome.com License - https://fontawesome.com/license (Commercial License) --><path d="M623 356L512 303V339L607 384C607 385 608 386 608 388V496C608 505 615 512 624 512S640 505 640 496V388C640 374 633 361 623 356ZM0 388V496C0 505 7 512 16 512S32 505 32 496V388C32 386 33 385 33 384L128 339V303L17 356C7 361 0 374 0 388ZM465 247L336 170V112H400C409 112 416 105 416 96C416 87 409 80 400 80H336V16C336 7 329 0 320 0S304 7 304 16V80H240C231 80 224 87 224 96C224 105 231 112 240 112H304V170L175 247C166 253 160 263 160 274V496C160 505 167 512 176 512S192 505 192 496V274L320 197L448 274V496C448 505 455 512 464 512S480 505 480 496V274C480 263 474 253 465 247ZM314 320C280 323 256 353 256 387V496C256 505 263 512 272 512S288 505 288 496V386C288 370 299 355 315 353C335 349 352 365 352 384V496C352 505 359 512 368 512S384 505 384 496V384C384 347 352 317 314 320Z"/></svg>