<svg xmlns="http://www.w3.org/2000/svg" viewBox="0 0 512 512"><!-- Font Awesome Pro 6.0.0-alpha1 by @fontawesome - https://fontawesome.com License - https://fontawesome.com/license (Commercial License) --><path d="M347 288H165C148 288 140 308 152 319L243 411C246 414 251 416 256 416S266 414 269 411L360 319C372 308 364 288 347 288ZM256 378L198 320H314L256 378ZM267 101C261 94 251 94 245 101L149 197C143 203 143 213 149 219C155 225 165 225 171 219L256 135L341 219C347 225 357 225 363 219S369 203 363 197L267 101ZM256 16C123 16 16 123 16 256S123 496 256 496S496 389 496 256S389 16 256 16ZM256 464C141 464 48 371 48 256S141 48 256 48S464 141 464 256S371 464 256 464Z"/></svg>