<svg xmlns="http://www.w3.org/2000/svg" viewBox="0 0 512 512"><!-- Font Awesome Pro 6.0.0-alpha1 by @fontawesome - https://fontawesome.com License - https://fontawesome.com/license (Commercial License) --><path d="M261 171L329 240H144C135 240 128 247 128 256S135 272 144 272H329L261 341C254 347 254 357 261 363S277 370 283 363L379 267C382 264 384 260 384 256S382 248 379 245L283 149C277 142 267 142 261 149S254 165 261 171ZM16 256C16 389 123 496 256 496S496 389 496 256S389 16 256 16S16 123 16 256ZM464 256C464 371 371 464 256 464S48 371 48 256S141 48 256 48S464 141 464 256Z"/></svg>