<svg xmlns="http://www.w3.org/2000/svg" viewBox="0 0 512 512"><!-- Font Awesome Pro 6.0.0-alpha1 by @fontawesome - https://fontawesome.com License - https://fontawesome.com/license (Commercial License) --><path d="M256 16C123 16 16 123 16 256S123 496 256 496S496 389 496 256S389 16 256 16ZM256 464C141 464 48 371 48 256S141 48 256 48S464 141 464 256S371 464 256 464ZM256 184C269 184 280 173 280 160C280 147 269 136 256 136S232 147 232 160C232 173 243 184 256 184ZM304 352H272V240C272 231 265 224 256 224H224C215 224 208 231 208 240S215 256 224 256H240V352H208C199 352 192 359 192 368C192 377 199 384 208 384H304C313 384 320 377 320 368C320 359 313 352 304 352Z"/></svg>