<svg xmlns="http://www.w3.org/2000/svg" viewBox="0 0 512 512"><!-- Font Awesome Pro 6.0.0-alpha1 by @fontawesome - https://fontawesome.com License - https://fontawesome.com/license (Commercial License) --><path d="M124 228C109 243 108 269 124 284L220 377C231 388 248 392 263 386C278 379 288 365 288 349V320H360C382 320 400 302 400 280V232C400 210 382 192 360 192H288V163C288 147 278 133 263 126C248 120 231 124 220 135L124 228ZM256 163V224H360C364 224 368 228 368 232V280C368 284 364 288 360 288H256V349C256 355 248 360 242 354L146 262C142 258 145 252 146 251L242 158L242 158C247 153 256 156 256 163ZM16 256C16 389 123 496 256 496S496 389 496 256S389 16 256 16S16 123 16 256ZM464 256C464 371 371 464 256 464S48 371 48 256S141 48 256 48S464 141 464 256Z"/></svg>