<svg xmlns="http://www.w3.org/2000/svg" viewBox="0 0 512 512"><!-- Font Awesome Pro 6.0.0-alpha1 by @fontawesome - https://fontawesome.com License - https://fontawesome.com/license (Commercial License) --><path d="M336 128H320V112C320 103 313 96 304 96S288 103 288 112V128H224V112C224 103 217 96 208 96S192 103 192 112V128H176C150 128 128 150 128 176V336C128 362 150 384 176 384H336C362 384 384 362 384 336V176C384 150 362 128 336 128ZM352 336C352 345 345 352 336 352H176C167 352 160 345 160 336V224H352V336ZM352 192H160V176C160 167 167 160 176 160H336C345 160 352 167 352 176V192ZM256 16C123 16 16 123 16 256S123 496 256 496S496 389 496 256S389 16 256 16ZM256 464C141 464 48 371 48 256S141 48 256 48S464 141 464 256S371 464 256 464Z"/></svg>