<svg xmlns="http://www.w3.org/2000/svg" viewBox="0 0 512 512"><!-- Font Awesome Pro 6.0.0-alpha1 by @fontawesome - https://fontawesome.com License - https://fontawesome.com/license (Commercial License) --><path d="M256 16C123 16 16 123 16 256S123 496 256 496S496 389 496 256S389 16 256 16ZM256 464C205 464 157 445 121 414C137 378 174 352 216 352H296C338 352 375 378 391 414C355 445 307 464 256 464ZM415 390C391 348 347 320 296 320H216C165 320 121 348 97 390C67 354 48 307 48 256C48 141 141 48 256 48S464 141 464 256C464 307 445 354 415 390ZM256 128C212 128 176 164 176 208C176 252 212 288 256 288S336 252 336 208C336 164 300 128 256 128ZM256 256C230 256 208 234 208 208S230 160 256 160S304 182 304 208S282 256 256 256Z"/></svg>