<svg xmlns="http://www.w3.org/2000/svg" viewBox="0 0 512 512"><!-- Font Awesome Pro 6.0.0-alpha1 by @fontawesome - https://fontawesome.com License - https://fontawesome.com/license (Commercial License) --><path d="M316 250C328 237 336 219 336 200C336 160 304 128 264 128H248C208 128 176 160 176 200C176 219 184 237 196 250C175 262 160 285 160 312C160 352 192 384 232 384H280C320 384 352 352 352 312C352 285 337 262 316 250ZM248 160H264C286 160 304 178 304 200S286 240 264 240H248C226 240 208 222 208 200S226 160 248 160ZM280 352H232C210 352 192 334 192 312S210 272 232 272H280C302 272 320 290 320 312S302 352 280 352ZM256 16C123 16 16 123 16 256S123 496 256 496S496 389 496 256S389 16 256 16ZM256 464C141 464 48 371 48 256S141 48 256 48S464 141 464 256S371 464 256 464Z"/></svg>