<svg xmlns="http://www.w3.org/2000/svg" viewBox="0 0 512 512"><!-- Font Awesome Pro 6.0.0-alpha1 by @fontawesome - https://fontawesome.com License - https://fontawesome.com/license (Commercial License) --><path d="M256 16C123 16 16 123 16 256S123 496 256 496S496 389 496 256S389 16 256 16ZM256 464C141 464 48 371 48 256S141 48 256 48S464 141 464 256S371 464 256 464ZM256 128C203 128 160 171 160 224V288C160 341 203 384 256 384S352 341 352 288V224C352 171 309 128 256 128ZM320 288C320 323 291 352 256 352S192 323 192 288V224C192 189 221 160 256 160S320 189 320 224V288Z"/></svg>