<svg xmlns="http://www.w3.org/2000/svg" viewBox="0 0 512 512"><!-- Font Awesome Pro 6.0.0-alpha1 by @fontawesome - https://fontawesome.com License - https://fontawesome.com/license (Commercial License) --><path d="M368 208C368 164 332 128 288 128H176C167 128 160 135 160 144V368C160 377 167 384 176 384S192 377 192 368V288H262L340 378C343 382 347 384 352 384C356 384 359 383 362 380C369 374 370 364 364 358L303 286C340 279 368 247 368 208ZM288 256H192V160H288C314 160 336 182 336 208S314 256 288 256ZM256 16C123 16 16 123 16 256S123 496 256 496S496 389 496 256S389 16 256 16ZM256 464C141 464 48 371 48 256S141 48 256 48S464 141 464 256S371 464 256 464Z"/></svg>