<svg xmlns="http://www.w3.org/2000/svg" viewBox="0 0 512 512"><!-- Font Awesome Pro 6.0.0-alpha1 by @fontawesome - https://fontawesome.com License - https://fontawesome.com/license (Commercial License) --><path d="M228 388C243 403 269 404 284 388L377 292C388 281 392 264 386 249C379 234 365 224 349 224H320V152C320 130 302 112 280 112H232C210 112 192 130 192 152V224H163C147 224 133 234 126 249C120 264 124 281 135 292L228 388ZM163 256H224V152C224 148 228 144 232 144H280C284 144 288 148 288 152V256H349C355 256 360 264 354 270L262 366C257 370 252 367 250 366L158 270L158 270C153 265 156 256 163 256ZM256 496C389 496 496 389 496 256S389 16 256 16S16 123 16 256S123 496 256 496ZM256 48C371 48 464 141 464 256S371 464 256 464S48 371 48 256S141 48 256 48Z"/></svg>