<svg xmlns="http://www.w3.org/2000/svg" viewBox="0 0 512 512"><!-- Font Awesome Pro 6.0.0-alpha1 by @fontawesome - https://fontawesome.com License - https://fontawesome.com/license (Commercial License) --><path d="M336 352H219L306 275C340 245 344 194 315 158C300 141 280 130 257 128C234 126 212 134 195 149L178 164C171 170 170 180 176 186C182 193 192 194 199 188L216 173C227 164 240 159 254 160C269 161 281 168 290 179C309 201 306 233 285 251L165 356C160 360 159 367 161 374C163 380 169 384 176 384H336C345 384 352 377 352 368S345 352 336 352ZM256 16C123 16 16 123 16 256S123 496 256 496S496 389 496 256S389 16 256 16ZM256 464C141 464 48 371 48 256S141 48 256 48S464 141 464 256S371 464 256 464Z"/></svg>