<svg xmlns="http://www.w3.org/2000/svg" viewBox="0 0 512 512"><!-- Font Awesome Pro 6.0.0-alpha1 by @fontawesome - https://fontawesome.com License - https://fontawesome.com/license (Commercial License) --><path d="M256 16C123 16 16 123 16 256S123 496 256 496S496 389 496 256S389 16 256 16ZM256 464C141 464 48 371 48 256S141 48 256 48S464 141 464 256S371 464 256 464ZM256 320C291 320 320 291 320 256V160C320 125 291 96 256 96S192 125 192 160V256C192 291 221 320 256 320ZM224 160C224 142 238 128 256 128S288 142 288 160V256C288 274 274 288 256 288S224 274 224 256V160ZM368 224C359 224 352 231 352 240V256C352 309 309 352 256 352S160 309 160 256V240C160 231 153 224 144 224S128 231 128 240V256C128 321 177 374 240 382V400C240 409 247 416 256 416S272 409 272 400V382C335 374 384 321 384 256V240C384 231 377 224 368 224Z"/></svg>