<svg xmlns="http://www.w3.org/2000/svg" viewBox="0 0 512 512"><!-- Font Awesome Pro 6.0.0-alpha1 by @fontawesome - https://fontawesome.com License - https://fontawesome.com/license (Commercial License) --><path d="M256 344C243 344 232 355 232 368S243 392 256 392S280 381 280 368S269 344 256 344ZM256 304C265 304 272 297 272 288V128C272 119 265 112 256 112S240 119 240 128V288C240 297 247 304 256 304ZM256 16C123 16 16 123 16 256S123 496 256 496S496 389 496 256S389 16 256 16ZM256 464C141 464 48 371 48 256S141 48 256 48S464 141 464 256S371 464 256 464Z"/></svg>