<svg xmlns="http://www.w3.org/2000/svg" viewBox="0 0 512 512"><!-- Font Awesome Pro 6.0.0-alpha1 by @fontawesome - https://fontawesome.com License - https://fontawesome.com/license (Commercial License) --><path d="M256 16C123 16 16 123 16 256S123 496 256 496S496 389 496 256S389 16 256 16ZM256 464C141 464 48 371 48 256S141 48 256 48S464 141 464 256S371 464 256 464ZM363 131L319 121C301 117 283 126 276 142L256 190C249 206 254 223 266 234L275 240C265 254 254 266 240 275L234 266C223 254 206 249 190 256L143 276C143 276 142 276 142 276C126 283 117 301 121 319L131 363C135 380 150 392 167 392C291 392 392 291 392 167C392 150 380 135 363 131ZM167 360C165 360 163 358 162 356L152 312C152 309 153 307 155 306L203 285C205 284 207 285 209 287L224 306C229 312 238 313 244 310C272 295 295 272 310 245C313 238 312 229 306 225L287 209C285 207 284 205 285 203L306 155C307 153 309 152 311 152C311 152 311 152 312 152L356 162C358 163 360 165 360 167C360 274 274 360 167 360Z"/></svg>