<svg xmlns="http://www.w3.org/2000/svg" viewBox="0 0 512 512"><!-- Font Awesome Pro 6.0.0-alpha1 by @fontawesome - https://fontawesome.com License - https://fontawesome.com/license (Commercial License) --><path d="M479 256H256V33C256 24 249 17 240 17C240 17 240 17 239 17C99 26 -8 156 21 304C39 398 114 473 208 491C224 494 240 496 256 496C383 496 487 398 495 273C496 264 488 256 479 256ZM256 464C242 464 228 463 214 460C133 444 68 379 52 298C40 237 54 177 91 129C124 87 171 59 224 50V256C224 274 238 288 256 288H462C446 388 359 464 256 464Z"/></svg>