<svg xmlns="http://www.w3.org/2000/svg" viewBox="0 0 512 512"><!-- Font Awesome Pro 6.0.0-alpha1 by @fontawesome - https://fontawesome.com License - https://fontawesome.com/license (Commercial License) --><path d="M306 296C302 288 292 286 284 291C277 295 274 305 279 313L321 380C322 382 321 383 320 383C281 405 230 405 192 383C191 383 190 382 191 380L233 312C238 305 235 295 228 290C220 286 210 288 206 296L164 363C159 371 157 380 159 389C162 398 168 406 176 411C200 425 228 432 256 432C284 432 312 425 336 411C344 407 350 398 352 389C355 380 353 371 348 363L306 296ZM212 263C212 254 205 248 195 248L117 250C114 250 114 249 114 248C114 226 120 204 131 184C143 164 159 148 178 137C178 136 180 136 181 138L219 208C223 215 232 218 240 214C248 210 251 200 247 193L210 123C205 115 198 108 189 106C180 103 170 104 162 109C138 123 118 143 103 168C89 192 82 220 82 248C82 257 86 266 92 273C99 279 107 282 116 282H117L197 280C205 279 212 272 212 263ZM409 168C394 144 374 123 350 109C342 104 332 103 323 106C314 108 307 114 302 123L265 193C261 200 264 210 272 214C280 218 289 215 293 208L331 138C332 136 334 136 334 137C353 148 370 164 381 184C392 204 398 226 398 248C398 248 399 251 396 250L316 248C308 249 300 254 300 263C300 272 307 279 315 280L394 282C395 282 395 282 396 282C405 282 413 279 419 273C426 267 430 257 430 248C430 220 423 193 409 168ZM256 16C123 16 16 123 16 256S123 496 256 496S496 389 496 256S389 16 256 16ZM256 464C141 464 48 371 48 256S141 48 256 48S464 141 464 256S371 464 256 464ZM232 256C232 269 243 280 256 280S280 269 280 256C280 243 269 232 256 232S232 243 232 256Z"/></svg>