<svg xmlns="http://www.w3.org/2000/svg" viewBox="0 0 512 512"><!-- Font Awesome Pro 6.0.0-alpha1 by @fontawesome - https://fontawesome.com License - https://fontawesome.com/license (Commercial License) --><path d="M299 133C293 126 283 126 277 133L165 245C162 248 160 252 160 256S162 264 165 267L277 379C283 386 293 386 299 379S306 363 299 357L199 256L299 155C306 149 306 139 299 133ZM256 16C123 16 16 123 16 256S123 496 256 496S496 389 496 256S389 16 256 16ZM256 464C141 464 48 371 48 256S141 48 256 48S464 141 464 256S371 464 256 464Z"/></svg>