<svg xmlns="http://www.w3.org/2000/svg" viewBox="0 0 512 512"><!-- Font Awesome Pro 6.0.0-alpha1 by @fontawesome - https://fontawesome.com License - https://fontawesome.com/license (Commercial License) --><path d="M256 16C123 16 16 123 16 256S123 496 256 496S496 389 496 256S389 16 256 16ZM256 464C141 464 48 371 48 256S141 48 256 48S464 141 464 256S371 464 256 464ZM384 157C360 148 338 144 318 144C288 144 267 153 256 158C245 153 224 144 194 144H194C174 144 151 148 129 157C118 160 112 171 112 181V333C112 340 115 347 121 351C125 354 130 356 135 356C137 356 140 355 142 355C157 350 172 348 185 348C208 348 226 354 239 362C244 366 250 368 256 368C262 368 268 366 273 362C286 354 304 348 328 348C341 348 355 350 370 355C372 355 375 356 377 356C382 356 386 354 391 351C397 347 400 340 400 333V181C400 171 394 160 384 157ZM240 327C224 320 205 316 185 316C171 316 158 318 144 321V185C162 179 179 176 194 176C216 176 232 182 240 186V327ZM368 321C354 318 341 316 328 316C307 316 288 320 272 327V186C280 182 296 176 318 176C334 176 351 179 368 185V321Z"/></svg>