<svg xmlns="http://www.w3.org/2000/svg" viewBox="0 0 512 512"><!-- Font Awesome Pro 6.0.0-alpha1 by @fontawesome - https://fontawesome.com License - https://fontawesome.com/license (Commercial License) --><path d="M336 288H320V208C320 199 313 192 304 192S288 199 288 208V288H184L239 150C242 142 238 132 230 129C222 126 212 130 209 138L145 298C143 303 144 309 147 313C150 317 155 320 160 320H288V368C288 377 295 384 304 384S320 377 320 368V320H336C345 320 352 313 352 304S345 288 336 288ZM256 16C123 16 16 123 16 256S123 496 256 496S496 389 496 256S389 16 256 16ZM256 464C141 464 48 371 48 256S141 48 256 48S464 141 464 256S371 464 256 464Z"/></svg>