<svg xmlns="http://www.w3.org/2000/svg" viewBox="0 0 512 512"><!-- Font Awesome Pro 6.0.0-alpha1 by @fontawesome - https://fontawesome.com License - https://fontawesome.com/license (Commercial License) --><path d="M256 224C238 224 224 238 224 256S238 288 256 288S288 274 288 256S274 224 256 224ZM256 16C123 16 16 123 16 256S123 496 256 496S496 389 496 256S389 16 256 16ZM256 464C141 464 48 371 48 256S141 48 256 48S464 141 464 256S371 464 256 464ZM336 160H316L310 144C306 134 297 128 287 128H225C215 128 206 134 202 144L196 160H176C150 160 128 182 128 208V304C128 330 150 352 176 352H336C362 352 384 330 384 304V208C384 182 362 160 336 160ZM352 304C352 313 345 320 336 320H176C167 320 160 313 160 304V208C160 199 167 192 176 192H218L230 160H282L294 192H336C345 192 352 199 352 208V304Z"/></svg>