<svg xmlns="http://www.w3.org/2000/svg" viewBox="0 0 512 512"><!-- Font Awesome Pro 6.0.0-alpha1 by @fontawesome - https://fontawesome.com License - https://fontawesome.com/license (Commercial License) --><path d="M388 284C403 269 404 243 388 228L292 135C281 124 264 120 249 126C234 133 224 147 224 163V192H152C130 192 112 210 112 232V280C112 302 130 320 152 320H224V349C224 365 234 379 249 386C264 392 281 388 292 377L388 284ZM256 349V288H152C148 288 144 284 144 280V232C144 228 148 224 152 224H256V163C256 157 264 152 270 158L366 250C370 255 367 260 366 262L270 354L270 354C265 359 256 356 256 349ZM496 256C496 123 389 16 256 16S16 123 16 256S123 496 256 496S496 389 496 256ZM48 256C48 141 141 48 256 48S464 141 464 256S371 464 256 464S48 371 48 256Z"/></svg>