<svg xmlns="http://www.w3.org/2000/svg" viewBox="0 0 512 512"><!-- Font Awesome Pro 6.0.0-alpha1 by @fontawesome - https://fontawesome.com License - https://fontawesome.com/license (Commercial License) --><path d="M348 133C342 127 332 126 325 132L192 252V144C192 135 185 128 176 128S160 135 160 144V368C160 377 167 384 176 384S192 377 192 368V295L233 258L323 378C326 382 331 384 336 384C339 384 343 383 346 381C353 375 354 365 349 358L257 236L347 156C353 150 354 140 348 133ZM256 16C123 16 16 123 16 256S123 496 256 496S496 389 496 256S389 16 256 16ZM256 464C141 464 48 371 48 256S141 48 256 48S464 141 464 256S371 464 256 464Z"/></svg>