<svg xmlns="http://www.w3.org/2000/svg" viewBox="0 0 512 512"><!-- Font Awesome Pro 6.0.0-alpha1 by @fontawesome - https://fontawesome.com License - https://fontawesome.com/license (Commercial License) --><path d="M336 160C345 160 352 153 352 144S345 128 336 128H176C167 128 160 135 160 144V368C160 377 167 384 176 384H336C345 384 352 377 352 368S345 352 336 352H192V272H288C297 272 304 265 304 256S297 240 288 240H192V160H336ZM256 16C123 16 16 123 16 256S123 496 256 496S496 389 496 256S389 16 256 16ZM256 464C141 464 48 371 48 256S141 48 256 48S464 141 464 256S371 464 256 464Z"/></svg>