<svg xmlns="http://www.w3.org/2000/svg" viewBox="0 0 512 512"><!-- Font Awesome Pro 6.0.0-alpha1 by @fontawesome - https://fontawesome.com License - https://fontawesome.com/license (Commercial License) --><path d="M251 341L183 272H368C377 272 384 265 384 256S377 240 368 240H183L251 171C258 165 258 155 251 149S235 142 229 149L133 245C130 248 128 252 128 256S130 264 133 267L229 363C235 370 245 370 251 363S258 347 251 341ZM496 256C496 123 389 16 256 16S16 123 16 256S123 496 256 496S496 389 496 256ZM48 256C48 141 141 48 256 48S464 141 464 256S371 464 256 464S48 371 48 256Z"/></svg>