<svg xmlns="http://www.w3.org/2000/svg" viewBox="0 0 512 512"><!-- Font Awesome Pro 6.0.0-alpha1 by @fontawesome - https://fontawesome.com License - https://fontawesome.com/license (Commercial License) --><path d="M388 145C380 142 371 147 369 156L320 326L271 156C267 142 245 142 241 156L192 326L143 156C141 147 132 142 124 145C115 147 110 156 113 164L177 388C181 402 203 402 207 388L256 218L305 388C307 395 313 400 320 400S333 395 335 388L399 164C402 156 397 147 388 145ZM256 16C123 16 16 123 16 256S123 496 256 496S496 389 496 256S389 16 256 16ZM256 464C141 464 48 371 48 256S141 48 256 48S464 141 464 256S371 464 256 464Z"/></svg>