<svg xmlns="http://www.w3.org/2000/svg" viewBox="0 0 512 512"><!-- Font Awesome Pro 6.0.0-alpha1 by @fontawesome - https://fontawesome.com License - https://fontawesome.com/license (Commercial License) --><path d="M332 250C344 237 352 219 352 200C352 160 320 128 280 128H192C174 128 160 142 160 160V352C160 370 174 384 192 384H296C336 384 368 352 368 312C368 285 353 262 332 250ZM192 160H280C302 160 320 178 320 200S302 240 280 240H192V160ZM296 352H192V272H296C318 272 336 290 336 312S318 352 296 352ZM256 16C123 16 16 123 16 256S123 496 256 496S496 389 496 256S389 16 256 16ZM256 464C141 464 48 371 48 256S141 48 256 48S464 141 464 256S371 464 256 464Z"/></svg>