<svg xmlns="http://www.w3.org/2000/svg" viewBox="0 0 512 512"><!-- Font Awesome Pro 6.0.0-alpha1 by @fontawesome - https://fontawesome.com License - https://fontawesome.com/license (Commercial License) --><path d="M320 352H272V144C272 138 269 133 264 130C258 127 252 127 247 131L199 163C192 168 190 178 195 185C200 192 209 194 217 189L240 174V352H192C183 352 176 359 176 368S183 384 192 384H320C329 384 336 377 336 368S329 352 320 352ZM256 16C123 16 16 123 16 256S123 496 256 496S496 389 496 256S389 16 256 16ZM256 464C141 464 48 371 48 256S141 48 256 48S464 141 464 256S371 464 256 464Z"/></svg>