<svg xmlns="http://www.w3.org/2000/svg" viewBox="0 0 512 512"><!-- Font Awesome Pro 6.0.0-alpha1 by @fontawesome - https://fontawesome.com License - https://fontawesome.com/license (Commercial License) --><path d="M165 224H347C363 224 372 204 360 193L269 101C266 98 261 96 256 96S246 98 243 101L152 193C140 204 148 224 165 224ZM256 134L314 192H198L256 134ZM341 293L256 377L171 293C165 287 155 287 149 293S143 309 149 315L245 411C251 417 261 417 267 411L363 315C369 309 369 299 363 293S347 287 341 293ZM256 16C123 16 16 123 16 256S123 496 256 496S496 389 496 256S389 16 256 16ZM256 464C141 464 48 371 48 256S141 48 256 48S464 141 464 256S371 464 256 464Z"/></svg>