<svg xmlns="http://www.w3.org/2000/svg" viewBox="0 0 512 512"><!-- Font Awesome Pro 6.0.0-alpha1 by @fontawesome - https://fontawesome.com License - https://fontawesome.com/license (Commercial License) --><path d="M272 224H251L330 156C336 152 337 145 335 138C333 132 327 128 320 128H176C167 128 160 135 160 144S167 160 176 160H277L198 228C193 232 191 239 193 246C195 252 201 256 208 256H272C298 256 320 278 320 304S298 352 272 352H218C206 352 195 344 191 333C188 325 179 320 171 323C163 326 158 335 161 343C169 368 192 384 218 384H272C316 384 352 348 352 304S316 224 272 224ZM256 16C123 16 16 123 16 256S123 496 256 496S496 389 496 256S389 16 256 16ZM256 464C141 464 48 371 48 256S141 48 256 48S464 141 464 256S371 464 256 464Z"/></svg>