<svg xmlns="http://www.w3.org/2000/svg" viewBox="0 0 512 512"><!-- Font Awesome Pro 6.0.0-alpha1 by @fontawesome - https://fontawesome.com License - https://fontawesome.com/license (Commercial License) --><path d="M320 128C311 128 304 135 304 144V293C304 326 275 352 240 352S176 326 176 293V272C176 263 169 256 160 256S144 263 144 272V293C144 343 187 384 240 384S336 343 336 293V144C336 135 329 128 320 128ZM256 16C123 16 16 123 16 256S123 496 256 496S496 389 496 256S389 16 256 16ZM256 464C141 464 48 371 48 256S141 48 256 48S464 141 464 256S371 464 256 464Z"/></svg>