<svg xmlns="http://www.w3.org/2000/svg" viewBox="0 0 512 512"><!-- Font Awesome Pro 6.0.0-alpha1 by @fontawesome - https://fontawesome.com License - https://fontawesome.com/license (Commercial License) --><path d="M373 129C366 127 359 129 355 135L256 276L157 135C153 129 146 127 139 129C133 131 128 137 128 144V368C128 377 135 384 144 384S160 377 160 368V195L243 313C249 322 263 322 269 313L352 195V368C352 377 359 384 368 384S384 377 384 368V144C384 137 379 131 373 129ZM256 16C123 16 16 123 16 256S123 496 256 496S496 389 496 256S389 16 256 16ZM256 464C141 464 48 371 48 256S141 48 256 48S464 141 464 256S371 464 256 464Z"/></svg>