<svg xmlns="http://www.w3.org/2000/svg" viewBox="0 0 512 512"><!-- Font Awesome Pro 6.0.0-alpha1 by @fontawesome - https://fontawesome.com License - https://fontawesome.com/license (Commercial License) --><path d="M256 16C123 16 16 123 16 256S123 496 256 496S496 389 496 256S389 16 256 16ZM256 464C141 464 48 371 48 256S141 48 256 48S464 141 464 256S371 464 256 464ZM338 152C335 152 332 153 329 154L133 238C124 242 118 252 120 262C123 273 132 280 142 280H232V370C232 380 239 390 250 392C251 392 253 392 254 392C263 392 271 387 274 379L358 183V183C362 174 360 165 354 158C349 154 344 152 338 152ZM264 321V248H191L319 193L264 321Z"/></svg>