<svg xmlns="http://www.w3.org/2000/svg" viewBox="0 0 512 512"><!-- Font Awesome Pro 6.0.0-alpha1 by @fontawesome - https://fontawesome.com License - https://fontawesome.com/license (Commercial License) --><path d="M326 144C303 144 281 155 267 169L256 181L245 169C231 155 209 144 186 144C171 144 154 149 140 162C105 192 103 247 134 280L243 394C250 402 262 402 269 394L378 280C409 247 407 192 372 162C358 149 341 144 326 144ZM355 258L256 362L157 258C140 241 137 206 160 186C169 179 178 176 187 176C201 176 214 183 222 192L256 227L290 192C298 183 311 176 325 176C334 176 343 179 351 186C375 206 372 241 355 258ZM256 16C123 16 16 123 16 256S123 496 256 496S496 389 496 256S389 16 256 16ZM256 464C141 464 48 371 48 256S141 48 256 48S464 141 464 256S371 464 256 464Z"/></svg>