<svg xmlns="http://www.w3.org/2000/svg" viewBox="0 0 640 512"><!-- Font Awesome Pro 6.0.0-alpha1 by @fontawesome - https://fontawesome.com License - https://fontawesome.com/license (Commercial License) --><path d="M592 192H512V48C512 22 490 0 464 0H336C310 0 288 22 288 48V96H224V16C224 7 217 0 208 0S192 7 192 16V96H128V16C128 7 121 0 112 0S96 7 96 16V96H48C22 96 0 118 0 144V496C0 505 7 512 16 512S32 505 32 496V152C32 139 43 128 56 128H320V56C320 43 331 32 344 32H456C469 32 480 43 480 56V224H584C597 224 608 235 608 248V496C608 505 615 512 624 512S640 505 640 496V240C640 214 618 192 592 192ZM128 416H96C78 416 64 430 64 448V480C64 498 78 512 96 512H128C146 512 160 498 160 480V448C160 430 146 416 128 416ZM128 480H96V448H128V480ZM128 288H96C78 288 64 302 64 320V352C64 370 78 384 96 384H128C146 384 160 370 160 352V320C160 302 146 288 128 288ZM128 352H96V320H128V352ZM128 160H96C78 160 64 174 64 192V224C64 242 78 256 96 256H128C146 256 160 242 160 224V192C160 174 146 160 128 160ZM128 224H96V192H128V224ZM256 416H224C206 416 192 430 192 448V480C192 498 206 512 224 512H256C274 512 288 498 288 480V448C288 430 274 416 256 416ZM256 480H224V448H256V480ZM256 288H224C206 288 192 302 192 320V352C192 370 206 384 224 384H256C274 384 288 370 288 352V320C288 302 274 288 256 288ZM256 352H224V320H256V352ZM256 160H224C206 160 192 174 192 192V224C192 242 206 256 224 256H256C274 256 288 242 288 224V192C288 174 274 160 256 160ZM256 224H224V192H256V224ZM544 416H512C494 416 480 430 480 448V480C480 498 494 512 512 512H544C562 512 576 498 576 480V448C576 430 562 416 544 416ZM544 480H512V448H544V480ZM544 288H512C494 288 480 302 480 320V352C480 370 494 384 512 384H544C562 384 576 370 576 352V320C576 302 562 288 544 288ZM544 352H512V320H544V352ZM416 64H384C366 64 352 78 352 96V128C352 146 366 160 384 160H416C434 160 448 146 448 128V96C448 78 434 64 416 64ZM416 128H384V96H416V128ZM416 192H384C366 192 352 206 352 224V256C352 274 366 288 384 288H416C434 288 448 274 448 256V224C448 206 434 192 416 192ZM416 256H384V224H416V256Z"/></svg>