<svg xmlns="http://www.w3.org/2000/svg" viewBox="0 0 512 512"><!-- Font Awesome Pro 6.0.0-alpha1 by @fontawesome - https://fontawesome.com License - https://fontawesome.com/license (Commercial License) --><path d="M427 405C424 402 420 400 416 400H368V352C368 348 366 344 363 341L267 245C264 242 260 240 256 240H208V192C208 188 206 184 203 181L27 5C21 -2 11 -2 5 5S-2 21 5 27L176 199V256C176 265 183 272 192 272H249L336 359V416C336 425 343 432 352 432H409L485 507C488 510 492 512 496 512S504 510 507 507C514 501 514 491 507 485L427 405ZM240 39V96C240 105 247 112 256 112H313L368 167V224C368 233 375 240 384 240H441L485 283C488 286 492 288 496 288S504 286 507 283C514 277 514 267 507 261L459 213C456 210 452 208 448 208H400V160C400 156 398 152 395 149L331 85C328 82 324 80 320 80H272V32C272 28 270 24 267 21L251 5C245 -2 235 -2 229 5S222 21 229 27L240 39ZM171 373C168 370 164 368 160 368H112V320C112 316 110 312 107 309L27 229C21 222 11 222 5 229S-2 245 5 251L80 327V384C80 393 87 400 96 400H153L261 507C264 510 268 512 272 512S280 510 283 507C290 501 290 491 283 485L171 373Z"/></svg>