<svg xmlns="http://www.w3.org/2000/svg" viewBox="0 0 384 512"><!-- Font Awesome Pro 6.0.0-alpha1 by @fontawesome - https://fontawesome.com License - https://fontawesome.com/license (Commercial License) --><path d="M304 336H176C167 336 160 343 160 352S167 368 176 368H304C313 368 320 361 320 352S313 336 304 336ZM304 240H208C199 240 192 247 192 256S199 272 208 272H304C313 272 320 265 320 256S313 240 304 240ZM96 328C83 328 72 339 72 352C72 365 83 376 96 376C109 376 120 365 120 352C120 339 109 328 96 328ZM320 64C311 64 304 71 304 80S311 96 320 96C338 96 352 110 352 128V448C352 466 338 480 320 480H64C46 480 32 466 32 448V128C32 110 46 96 64 96C73 96 80 89 80 80S73 64 64 64C29 64 0 93 0 128V448C0 483 29 512 64 512H320C355 512 384 483 384 448V128C384 93 355 64 320 64ZM112 128H272C281 128 288 121 288 112S281 96 272 96H247C253 87 256 76 256 64C256 29 227 0 192 0S128 29 128 64C128 76 131 87 137 96H112C103 96 96 103 96 112S103 128 112 128ZM192 32C210 32 224 46 224 64S210 96 192 96S160 82 160 64S174 32 192 32ZM68 229C62 236 63 246 69 252L104 284C107 287 111 288 115 288C119 288 123 286 126 283L188 219C194 213 193 203 187 196C181 190 171 191 164 197L114 250L91 228C84 222 74 223 68 229Z"/></svg>