<svg xmlns="http://www.w3.org/2000/svg" viewBox="0 0 384 512"><!-- Font Awesome Pro 6.0.0-alpha1 by @fontawesome - https://fontawesome.com License - https://fontawesome.com/license (Commercial License) --><path d="M320 64C311 64 304 71 304 80S311 96 320 96C338 96 352 110 352 128V448C352 466 338 480 320 480H64C46 480 32 466 32 448V128C32 110 46 96 64 96C73 96 80 89 80 80S73 64 64 64C29 64 0 93 0 128V448C0 483 29 512 64 512H320C355 512 384 483 384 448V128C384 93 355 64 320 64ZM112 128H272C281 128 288 121 288 112S281 96 272 96H247C253 87 256 76 256 64C256 29 227 0 192 0S128 29 128 64C128 76 131 87 137 96H112C103 96 96 103 96 112S103 128 112 128ZM192 32C210 32 224 46 224 64S210 96 192 96S160 82 160 64S174 32 192 32ZM85 299L149 363C152 366 156 368 160 368S168 366 171 363L299 235C306 229 306 219 299 213S283 206 277 213L160 329L107 277C101 270 91 270 85 277S78 293 85 299Z"/></svg>