<svg xmlns="http://www.w3.org/2000/svg" viewBox="0 0 512 512"><!-- Font Awesome Pro 6.0.0-alpha1 by @fontawesome - https://fontawesome.com License - https://fontawesome.com/license (Commercial License) --><path d="M256 16C123 16 16 123 16 256C16 389 123 496 256 496S496 389 496 256C496 123 389 16 256 16ZM256 464C141 464 48 371 48 256S141 48 256 48S464 141 464 256S371 464 256 464ZM272 249V128C272 119 265 112 256 112S240 119 240 128V256C240 260 242 264 245 267L325 347C328 350 332 352 336 352S344 350 347 347C354 341 354 331 347 325L272 249Z"/></svg>