<svg xmlns="http://www.w3.org/2000/svg" viewBox="0 0 512 512"><!-- Font Awesome Pro 6.0.0-alpha1 by @fontawesome - https://fontawesome.com License - https://fontawesome.com/license (Commercial License) --><path d="M336 384C327 384 320 391 320 400V448C320 466 306 480 288 480H64C46 480 32 466 32 448V224C32 206 46 192 64 192H112C121 192 128 185 128 176C128 167 121 160 112 160H64C29 160 0 189 0 224V448C0 483 29 512 64 512H288C323 512 352 483 352 448V400C352 391 345 384 336 384ZM448 0H224C189 0 160 29 160 64V288C160 323 189 352 224 352H448C483 352 512 323 512 288V64C512 29 483 0 448 0ZM480 288C480 306 466 320 448 320H224C206 320 192 306 192 288V64C192 46 206 32 224 32H448C466 32 480 46 480 64V288Z"/></svg>