<svg xmlns="http://www.w3.org/2000/svg" viewBox="0 0 640 512"><!-- Font Awesome Pro 6.0.0-alpha1 by @fontawesome - https://fontawesome.com License - https://fontawesome.com/license (Commercial License) --><path d="M93 323L93 323L106 259C106 253 106 246 99 243L45 208L99 173C106 170 106 163 106 157L93 93L157 106C163 106 170 106 173 99L208 45L243 99C246 106 253 109 259 106L323 93L314 141C310 150 317 157 326 160S342 157 346 147L358 77C358 70 358 67 355 64C352 61 346 58 342 61L266 70L224 6C218 -3 205 -3 198 6L154 70L77 58C70 58 67 58 64 61S54 70 58 74L74 150L10 192C3 198 0 202 0 208S3 218 6 221L70 266L54 342C54 349 54 352 58 355C61 358 64 358 70 358C70 358 74 358 74 358L96 355C102 355 109 346 109 339C112 330 102 320 93 323ZM544 304C541 259 502 224 454 224C435 224 419 230 406 240C384 211 349 192 314 192C246 192 192 246 192 314V314C154 330 128 368 128 410C128 464 176 512 230 512H534C592 512 637 464 637 410C640 352 598 307 544 304ZM538 480H234C202 480 170 458 163 426C154 387 176 349 214 336L214 336C221 336 227 330 224 320C224 314 224 314 224 310C224 262 262 224 314 224C346 224 374 243 390 272L390 272C397 282 410 285 416 275C429 262 448 256 464 259C490 259 512 285 512 310C512 314 512 314 512 317L512 317C512 326 518 336 528 336C534 336 534 336 534 336C573 336 605 368 605 406C608 448 576 480 538 480ZM163 285C166 275 170 262 173 253C160 243 150 227 150 208C150 176 176 150 208 150C227 150 243 160 253 173C262 170 275 166 285 163C269 134 240 118 208 118C160 118 118 157 118 208C118 240 138 269 163 285Z "></path></svg>