<svg xmlns="http://www.w3.org/2000/svg" viewBox="0 0 640 512"><!-- Font Awesome Pro 6.0.0-alpha1 by @fontawesome - https://fontawesome.com License - https://fontawesome.com/license (Commercial License) --><path d="M572 239C574 229 576 219 576 208C576 146 526 96 464 96C447 96 431 100 416 107C384 62 332 32 272 32C178 32 100 106 96 200C39 220 0 274 0 336C0 416 64 480 144 480H512C583 480 640 423 640 352C640 305 614 261 572 239ZM508 448H149C91 448 39 406 33 348C27 291 63 242 114 228C123 226 128 218 128 209C128 209 128 208 128 208C128 147 165 91 223 72C294 48 362 79 395 133C401 143 413 145 423 139C440 129 461 125 483 130C510 136 533 157 540 184C546 203 545 222 538 239C534 249 540 260 550 264C587 280 612 319 607 363C602 412 557 448 508 448ZM389 293L336 345V176C336 167 329 160 320 160S304 167 304 176V345L251 293C245 286 235 286 229 293S222 309 229 315L309 395C312 398 316 400 320 400S328 398 331 395L411 315C418 309 418 299 411 293S395 286 389 293Z"/></svg>