<svg xmlns="http://www.w3.org/2000/svg" viewBox="0 0 512 512"><!-- Font Awesome Pro 6.0.0-alpha1 by @fontawesome - https://fontawesome.com License - https://fontawesome.com/license (Commercial License) --><path d="M56 464C43 464 32 475 32 488S43 512 56 512S80 501 80 488S69 464 56 464ZM184 464C171 464 160 475 160 488S171 512 184 512S208 501 208 488S197 464 184 464ZM248 368C235 368 224 379 224 392S235 416 248 416S272 405 272 392S261 368 248 368ZM120 368C107 368 96 379 96 392S107 416 120 416S144 405 144 392S133 368 120 368ZM376 368C363 368 352 379 352 392S363 416 376 416S400 405 400 392S389 368 376 368ZM312 464C299 464 288 475 288 488S299 512 312 512S336 501 336 488S325 464 312 464ZM415 112C407 67 368 32 320 32C301 32 283 37 267 48C247 18 213 0 176 0C114 0 64 50 64 112C64 115 64 117 64 120C26 136 0 174 0 216C0 273 47 320 104 320H408C465 320 512 273 512 216C512 161 469 116 415 112ZM408 288H104C64 288 32 256 32 216C32 183 54 155 86 147C94 144 99 136 98 128C97 123 96 117 96 112C96 68 132 32 176 32C207 32 235 50 248 79C251 83 255 87 260 88C265 89 271 87 274 83C287 71 303 64 320 64C355 64 384 93 384 128C384 137 391 144 400 144H408C448 144 480 176 480 216S448 288 408 288Z"/></svg>