<svg xmlns="http://www.w3.org/2000/svg" viewBox="0 0 640 512"><!-- Font Awesome Pro 6.0.0-alpha1 by @fontawesome - https://fontawesome.com License - https://fontawesome.com/license (Commercial License) --><path d="M168 320H472C529 320 576 273 576 216C576 161 533 116 480 112C476 67 438 32 392 32C374 32 357 37 343 47C320 18 286 0 248 0C182 0 128 54 128 120V120C90 136 64 174 64 216C64 273 111 320 168 320ZM149 147L149 147C157 145 162 137 161 130C160 124 160 123 160 120C160 71 199 32 248 32C280 32 310 50 325 79L325 79C330 88 344 90 351 82C364 68 382 62 400 65C426 68 445 90 448 115C448 121 448 120 447 127L447 127C446 137 454 146 465 145C470 144 470 144 472 144C512 144 544 176 544 216C544 256 512 288 472 288H168C128 288 96 256 96 216C96 184 118 155 149 147ZM208 480H80C71 480 64 487 64 496S71 512 80 512H208C217 512 224 505 224 496S217 480 208 480ZM624 480H304C295 480 288 487 288 496S295 512 304 512H624C633 512 640 505 640 496S633 480 624 480ZM576 400C576 391 569 384 560 384H16C7 384 0 391 0 400S7 416 16 416H560C569 416 576 409 576 400Z"/></svg>