<svg xmlns="http://www.w3.org/2000/svg" viewBox="0 0 576 512"><!-- Font Awesome Pro 6.0.0-alpha1 by @fontawesome - https://fontawesome.com License - https://fontawesome.com/license (Commercial License) --><path d="M352 314C347 272 312 240 269 240C256 240 242 243 230 250C212 234 188 224 163 224C109 224 66 267 64 320C26 334 0 371 0 413C0 467 45 512 99 512H349C404 512 448 467 448 413C448 359 405 315 352 314ZM349 480L102 480C65 480 34 452 32 416C31 383 53 354 84 347C93 344 98 335 96 327C96 326 96 324 96 323C96 286 126 256 163 256C183 256 202 265 215 281L215 281C221 288 231 289 238 284L238 283C253 271 273 268 292 277C308 285 318 301 320 319C320 323 320 323 319 329C319 333 321 350 339 347C343 346 347 345 350 346C387 346 416 376 416 413C416 450 386 480 349 480ZM574 287C569 279 561 273 552 273C550 273 549 273 547 274C539 275 532 276 524 276C457 276 402 221 402 154C402 110 426 70 464 48C473 43 478 33 476 23S467 5 456 3C445 1 433 0 421 0C316 0 230 86 230 192C230 198 230 205 231 211C233 212 234 212 236 213C245 210 254 209 263 208C262 203 262 198 262 192C262 104 333 32 421 32C424 32 427 32 430 32C393 61 370 106 370 154C370 239 439 308 524 308C527 308 529 308 532 308C512 327 488 339 462 346C467 355 471 366 474 376C512 366 545 344 570 313C576 306 578 296 574 287Z"/></svg>