<svg xmlns="http://www.w3.org/2000/svg" viewBox="0 0 512 512"><!-- Font Awesome Pro 6.0.0-alpha1 by @fontawesome - https://fontawesome.com License - https://fontawesome.com/license (Commercial License) --><path d="M48 360C39 360 32 367 32 376V416C32 425 39 432 48 432S64 425 64 416V376C64 367 57 360 48 360ZM240 360C231 360 224 367 224 376V416C224 425 231 432 240 432S256 425 256 416V376C256 367 249 360 240 360ZM144 440C135 440 128 447 128 456V496C128 505 135 512 144 512S160 505 160 496V456C160 447 153 440 144 440ZM432 360C423 360 416 367 416 376V416C416 425 423 432 432 432S448 425 448 416V376C448 367 441 360 432 360ZM336 440C327 440 320 447 320 456V496C320 505 327 512 336 512S352 505 352 496V456C352 447 345 440 336 440ZM415 112C407 67 368 32 320 32C301 32 283 37 267 48C247 18 213 0 176 0C114 0 64 50 64 112C64 115 64 117 64 120C26 136 0 174 0 216C0 273 47 320 104 320H408C465 320 512 273 512 216C512 161 469 116 415 112ZM408 288H104C64 288 32 256 32 216C32 183 54 155 86 147C94 144 99 136 98 128C97 123 96 117 96 112C96 68 132 32 176 32C207 32 235 50 248 79C251 83 255 87 260 88C265 89 271 87 274 83C287 71 303 64 320 64C355 64 384 93 384 128C384 137 391 144 400 144H408C448 144 480 176 480 216S448 288 408 288Z"/></svg>