<svg xmlns="http://www.w3.org/2000/svg" viewBox="0 0 576 512"><!-- Font Awesome Pro 6.0.0-alpha1 by @fontawesome - https://fontawesome.com License - https://fontawesome.com/license (Commercial License) --><path d="M266 418C259 414 249 416 244 424L208 488C203 496 206 506 214 510C216 511 219 512 222 512C227 512 233 509 236 504L272 440C277 432 274 422 266 418ZM170 418C163 414 153 416 148 424L112 488C107 496 110 506 118 510C120 511 123 512 126 512C131 512 137 509 140 504L176 440C181 432 178 422 170 418ZM74 418C67 414 57 416 52 424L16 488C11 496 14 506 22 510C24 511 27 512 30 512C35 512 41 509 44 504L80 440C85 432 82 422 74 418ZM351 197C346 158 313 128 272 128C263 128 255 129 247 132C227 109 199 96 168 96C111 96 65 141 64 198C26 211 0 247 0 288C0 341 43 384 96 384H320C373 384 416 341 416 288C416 287 416 285 416 284C414 244 388 210 351 197ZM320 352H98C66 352 37 329 33 296C28 262 51 231 84 225L84 225C92 224 98 216 97 208C96 200 96 202 96 199C96 177 105 155 124 143C162 116 207 128 228 161L229 161C233 168 242 170 249 166L249 166C282 148 320 174 320 207L320 210C320 217 325 224 333 225C363 231 384 258 384 288C384 323 355 352 320 352ZM362 418C355 414 345 416 340 424L304 488C299 496 302 506 310 510C312 511 315 512 318 512C323 512 329 509 332 504L368 440C373 432 370 422 362 418ZM574 238C570 230 562 225 554 225C549 225 544 227 531 227C477 227 432 183 432 129C432 94 451 61 482 44C491 39 495 30 493 21C492 11 485 4 475 3C466 1 456 0 446 0C379 0 322 41 298 99C309 102 318 106 327 111C346 65 391 33 444 32C417 56 400 92 400 129C400 199 457 257 528 259C506 277 478 287 448 288V288C448 299 447 310 444 320C462 320 524 318 571 261C576 254 578 245 574 238Z"/></svg>