<svg xmlns="http://www.w3.org/2000/svg" viewBox="0 0 512 512"><!-- Font Awesome Pro 6.0.0-alpha1 by @fontawesome - https://fontawesome.com License - https://fontawesome.com/license (Commercial License) --><path d="M512 216C512 161 469 116 415 112C407 67 368 32 320 32C301 32 283 37 267 48C247 18 213 0 176 0C114 0 64 50 64 112C64 115 64 117 64 120C26 136 0 174 0 216C0 273 47 320 104 320H408C465 320 512 273 512 216ZM32 216C32 183 54 155 86 147C94 144 99 136 98 128C97 123 96 117 96 112C96 68 132 32 176 32C207 32 235 50 248 79C251 83 255 87 260 88C265 89 271 87 274 83C287 71 303 64 320 64C355 64 384 93 384 128C384 137 391 144 400 144H408C448 144 480 176 480 216S448 288 408 288H104C64 288 32 256 32 216ZM87 354C79 350 70 353 66 361L2 489C-2 497 1 506 9 510C11 511 14 512 16 512C22 512 27 509 30 503L94 375C98 367 95 358 87 354ZM343 354C335 350 326 353 322 361L258 489C254 497 257 506 265 510C267 511 270 512 272 512C278 512 283 509 286 503L350 375C354 367 351 358 343 354ZM487 384C483 376 473 374 466 378L448 388V368C448 359 441 352 432 352S416 359 416 368V388L398 378C391 374 381 376 377 384C372 392 375 401 382 406L400 416L382 426C375 431 372 440 377 448C380 453 385 456 390 456C393 456 396 455 398 454L416 444V464C416 473 423 480 432 480S448 473 448 464V444L466 454C468 455 471 456 474 456C479 456 484 453 487 448C492 440 489 431 482 426L464 416L482 406C489 401 492 392 487 384ZM231 384C227 376 217 374 210 378L192 388V368C192 359 185 352 176 352S160 359 160 368V388L142 378C135 374 125 376 121 384C116 392 119 401 126 406L144 416L126 426C119 431 116 440 121 448C124 453 129 456 134 456C137 456 140 455 142 454L160 444V464C160 473 167 480 176 480S192 473 192 464V444L210 454C212 455 215 456 218 456C223 456 228 453 231 448C236 440 233 431 226 426L208 416L226 406C233 401 236 392 231 384Z"/></svg>