<svg xmlns="http://www.w3.org/2000/svg" viewBox="0 0 512 512"><!-- Font Awesome Pro 6.0.0-alpha1 by @fontawesome - https://fontawesome.com License - https://fontawesome.com/license (Commercial License) --><path d="M118 369C116 359 107 352 96 352C85 353 77 359 74 369C69 385 62 396 55 406C46 419 37 432 37 451C37 485 64 512 96 512S155 485 155 451C155 432 146 419 137 406C130 396 123 386 118 369ZM96 480C81 480 69 467 69 451C69 442 73 436 81 424C86 417 91 409 96 400C101 409 106 417 111 424C118 436 123 442 123 451C123 467 111 480 96 480ZM278 369C276 359 267 352 256 352H256C246 352 237 359 234 369C229 385 222 396 215 406C206 419 197 432 197 451C197 485 224 512 256 512S315 485 315 451C315 432 306 419 297 406C290 396 283 386 278 369ZM256 480C241 480 229 467 229 451C229 442 233 436 241 424C246 417 251 409 256 400C261 409 266 417 271 424C278 436 283 442 283 451C283 467 271 480 256 480ZM438 369C436 359 427 352 416 352C406 353 397 359 394 369C389 385 382 396 375 406C366 419 357 432 357 451C357 485 384 512 416 512S475 485 475 451C475 432 466 419 457 406C450 396 443 386 438 369ZM416 480C401 480 389 467 389 451C389 442 393 436 401 424C406 417 411 409 416 400C421 409 426 417 431 424C438 436 443 442 443 451C443 467 431 480 416 480ZM415 112C407 67 368 32 320 32C301 32 283 37 267 48C247 18 213 0 176 0C114 0 64 50 64 112C64 115 64 117 64 120C26 136 0 174 0 216C0 273 47 320 104 320H408C465 320 512 273 512 216C512 161 469 116 415 112ZM408 288H104C64 288 32 256 32 216C32 183 54 155 86 147C94 144 99 136 98 128C97 123 96 117 96 112C96 68 132 32 176 32C207 32 235 50 248 79C251 83 255 87 260 88C265 89 271 87 274 83C287 71 303 64 320 64C355 64 384 93 384 128C384 137 391 144 400 144H408C448 144 480 176 480 216S448 288 408 288Z"/></svg>