<svg xmlns="http://www.w3.org/2000/svg" viewBox="0 0 640 512"><!-- Font Awesome Pro 6.0.0-alpha1 by @fontawesome - https://fontawesome.com License - https://fontawesome.com/license (Commercial License) --><path d="M368 352H272C263 352 256 359 256 368C256 377 263 384 272 384H368C377 384 384 377 384 368C384 359 377 352 368 352ZM288 304C288 295 281 288 272 288H144C135 288 128 295 128 304C128 313 135 320 144 320H272C281 320 288 313 288 304ZM208 352H176C167 352 160 359 160 368C160 377 167 384 176 384H208C217 384 224 377 224 368C224 359 217 352 208 352ZM464 352H432C423 352 416 359 416 368C416 377 423 384 432 384H464C473 384 480 377 480 368C480 359 473 352 464 352ZM572 239C574 229 576 219 576 208C576 146 526 96 464 96C447 96 431 100 416 107C384 62 332 32 272 32C178 32 100 106 96 200C39 220 0 274 0 336C0 416 64 480 144 480H512C583 480 640 423 640 352C640 305 614 261 572 239ZM508 448H149C91 448 39 406 33 348C27 291 63 242 114 228C123 226 128 218 128 209V208C128 147 165 91 223 72C294 48 362 79 395 133C401 143 413 145 423 139C440 129 461 125 483 130C510 136 533 157 540 184C546 203 545 222 538 239C534 249 540 260 550 264C587 280 612 319 607 363C602 412 557 448 508 448ZM496 288H336C327 288 320 295 320 304C320 313 327 320 336 320H496C505 320 512 313 512 304C512 295 505 288 496 288Z"/></svg>