<svg xmlns="http://www.w3.org/2000/svg" viewBox="0 0 512 512"><!-- Font Awesome Pro 6.0.0-alpha1 by @fontawesome - https://fontawesome.com License - https://fontawesome.com/license (Commercial License) --><path d="M374 176C381 161 384 145 384 128C384 57 327 0 256 0S128 57 128 128C128 145 131 161 138 176C60 175 0 238 0 312C0 387 61 448 136 448C178 448 215 428 240 398V480H176C167 480 160 487 160 496C160 505 167 512 176 512H336C345 512 352 505 352 496C352 487 345 480 336 480H272V398C297 428 334 448 376 448C451 448 512 387 512 312C512 238 452 175 374 176ZM376 416C338 416 302 394 284 360C279 349 268 343 256 343S233 349 228 360C210 394 174 416 136 416C75 416 36 367 32 320C28 257 78 208 134 208C135 208 161 208 161 208C173 208 181 197 176 186C169 169 160 151 160 128C160 75 203 32 256 32C309 32 352 75 352 128C352 152 343 168 336 186C331 197 339 208 351 208C351 208 351 208 351 208C379 208 378 208 378 208C429 209 484 252 480 320C476 367 436 416 376 416Z"/></svg>