<svg xmlns="http://www.w3.org/2000/svg" viewBox="0 0 384 512"><!-- Font Awesome Pro 6.0.0-alpha1 by @fontawesome - https://fontawesome.com License - https://fontawesome.com/license (Commercial License) --><path d="M384 144C384 100 348 64 304 64C260 64 224 100 224 144C224 182 251 214 286 222C280 250 254 272 224 272H160C135 272 113 282 96 297V158C133 151 160 119 160 80C160 36 124 0 80 0C36 0 0 36 0 80C0 119 27 151 64 158V354C27 361 0 393 0 432C0 476 36 512 80 512C124 512 160 476 160 432C160 394 133 362 98 354C104 326 130 304 160 304H224C272 304 311 269 319 223C356 216 384 183 384 144ZM32 80C32 54 54 32 80 32S128 54 128 80S106 128 80 128S32 106 32 80ZM128 432C128 458 106 480 80 480S32 458 32 432S54 384 80 384S128 406 128 432ZM304 192C278 192 256 170 256 144S278 96 304 96S352 118 352 144S330 192 304 192Z"/></svg>