<svg xmlns="http://www.w3.org/2000/svg" viewBox="0 0 384 512"><!-- Font Awesome Pro 6.0.0-alpha1 by @fontawesome - https://fontawesome.com License - https://fontawesome.com/license (Commercial License) --><path d="M304 192C265 192 233 219 226 256H208C151 256 104 213 97 158C133 150 160 118 160 80C160 36 124 0 80 0C36 0 0 36 0 80C0 119 27 151 64 158V354C27 361 0 393 0 432C0 476 36 512 80 512C124 512 160 476 160 432C160 393 133 361 96 354V233C122 266 163 288 208 288H226C233 325 265 352 304 352C348 352 384 316 384 272C384 228 348 192 304 192ZM32 80C32 54 54 32 80 32S128 54 128 80S106 128 80 128S32 106 32 80ZM128 432C128 458 106 480 80 480S32 458 32 432S54 384 80 384S128 406 128 432ZM304 320C278 320 256 298 256 272S278 224 304 224S352 246 352 272S330 320 304 320Z"/></svg>