<svg xmlns="http://www.w3.org/2000/svg" viewBox="0 0 512 512"><!-- Font Awesome Pro 6.0.0-alpha1 by @fontawesome - https://fontawesome.com License - https://fontawesome.com/license (Commercial License) --><path d="M431 178L473 53C476 43 469 32 458 32H80C36 32 0 68 0 112V208C0 217 7 224 16 224S32 217 32 208V112C32 86 54 64 80 64H107L145 178C95 218 64 278 64 345C64 396 83 429 114 462C124 474 139 480 155 480H421C436 480 451 474 462 463C493 430 512 396 512 345C512 278 481 218 431 178ZM140 64H436L404 160H172L140 64ZM178 192H398C419 209 453 234 471 288H105C123 234 158 208 178 192ZM439 441C434 445 428 448 421 448H155C148 448 142 445 137 440C107 409 96 383 96 345C96 336 97 328 98 320H478C479 328 480 336 480 345C480 383 469 409 439 441Z"/></svg>