<svg xmlns="http://www.w3.org/2000/svg" viewBox="0 0 384 512"><!-- Font Awesome Pro 6.0.0-alpha1 by @fontawesome - https://fontawesome.com License - https://fontawesome.com/license (Commercial License) --><path d="M371 113L272 13C263 5 252 0 239 0H145C132 0 121 5 112 14L13 113C2 124 -3 141 1 156L81 477C86 498 105 512 126 512H258C279 512 298 498 303 477L383 156C387 141 382 124 371 113ZM272 469C270 476 265 480 258 480H126C119 480 114 476 112 469L32 149C31 144 33 139 36 135L135 36C138 34 141 32 145 32H239C243 32 246 34 249 36L348 135C351 139 353 144 352 149L272 469ZM272 176H208V112C208 103 201 96 192 96S176 103 176 112V176H112C103 176 96 183 96 192S103 208 112 208H176V336C176 345 183 352 192 352S208 345 208 336V208H272C281 208 288 201 288 192S281 176 272 176Z"/></svg>