<svg xmlns="http://www.w3.org/2000/svg" viewBox="0 0 448 512"><!-- Font Awesome Pro 6.0.0-alpha1 by @fontawesome - https://fontawesome.com License - https://fontawesome.com/license (Commercial License) --><path d="M287 32C220 32 148 70 93 125C-83 301 20 480 161 480C228 480 300 442 355 387C531 211 427 32 287 32ZM116 147C168 95 232 64 287 64C287 64 288 64 288 64C318 64 347 77 368 98C368 99 369 99 369 99C350 161 308 231 215 248C135 263 78 309 49 381C12 334 32 231 116 147ZM332 365C280 417 216 448 161 448C114 448 98 432 74 408C97 338 147 293 221 279C304 264 363 211 394 125C449 189 396 301 332 365Z"/></svg>