<svg xmlns="http://www.w3.org/2000/svg" viewBox="0 0 512 512"><!-- Font Awesome Pro 6.0.0-alpha1 by @fontawesome - https://fontawesome.com License - https://fontawesome.com/license (Commercial License) --><path d="M256 64C115 64 0 129 0 208V320C0 391 115 448 256 448S512 391 512 320V208C512 129 397 64 256 64ZM64 367C44 352 32 336 32 320V278C42 287 52 296 64 303V367ZM144 402C127 398 111 392 96 385V320C111 327 128 333 144 337V402ZM240 416C218 415 197 413 176 409V345C197 348 218 351 240 351V416ZM336 409C315 413 294 415 272 416V351C294 351 315 348 336 345V409ZM416 385C401 392 385 398 368 402V337C384 333 401 327 416 320V385ZM480 320C480 336 468 352 448 367V303C460 296 470 287 480 278V320ZM256 320C124 320 32 261 32 208S124 96 256 96S480 155 480 208S388 320 256 320Z"/></svg>