<svg xmlns="http://www.w3.org/2000/svg" viewBox="0 0 384 512"><!-- Font Awesome Pro 6.0.0-alpha1 by @fontawesome - https://fontawesome.com License - https://fontawesome.com/license (Commercial License) --><path d="M325 363C298 390 264 404 229 407L295 126C305 132 316 139 325 149C331 155 341 155 347 148C354 142 354 132 347 126C334 112 318 102 302 94L320 20C322 11 316 2 308 0C299 -2 290 4 288 12L272 81C258 77 242 74 227 73L240 20C242 11 236 2 228 0C219 -2 210 4 208 12L194 74C155 79 116 96 86 126C51 161 32 207 32 256S51 351 86 386C95 395 105 403 116 410L96 492C94 501 100 510 108 512C110 512 111 512 112 512C119 512 126 507 128 500L145 425C159 431 174 435 189 437L176 492C174 501 180 510 188 512C190 512 191 512 192 512C199 512 206 507 208 500L222 439C267 438 313 421 347 386C354 380 354 370 347 363C341 357 331 357 325 363ZM109 363C80 335 64 297 64 256S80 177 109 149C131 127 158 113 186 107L124 376C119 372 113 368 109 363ZM152 393L220 104C235 105 250 108 265 113L197 406C181 404 167 400 152 393Z"/></svg>