<svg xmlns="http://www.w3.org/2000/svg" viewBox="0 0 512 512"><!-- Font Awesome Pro 6.0.0-alpha1 by @fontawesome - https://fontawesome.com License - https://fontawesome.com/license (Commercial License) --><path d="M160 184C173 184 184 173 184 160C184 147 173 136 160 136S136 147 136 160C136 173 147 184 160 184ZM256 32C115 32 0 125 0 240C0 288 20 331 53 366C38 406 7 439 7 439C0 446 -2 457 2 465C6 474 14 480 24 480C85 480 134 454 163 434C192 443 223 448 256 448C397 448 512 355 512 240S397 32 256 32ZM256 416C228 416 200 412 173 403C163 400 153 402 145 408L145 408C122 424 86 443 42 447C54 432 72 407 83 378L83 377C87 366 85 353 76 344L76 344C47 314 32 278 32 240C32 143 133 64 256 64C380 64 480 143 480 240S380 416 256 416ZM314 155C302 141 277 141 266 155L207 227L199 219C188 207 166 207 154 219L104 271C96 280 94 293 99 303C104 314 115 320 126 320H386C397 320 407 314 412 305C418 294 417 282 410 273L314 155ZM131 288L176 241L197 262C200 266 204 267 209 267C213 267 218 265 220 261L289 175L381 288L131 288Z"/></svg>