<svg xmlns="http://www.w3.org/2000/svg" viewBox="0 0 512 512"><!-- Font Awesome Pro 6.0.0-alpha1 by @fontawesome - https://fontawesome.com License - https://fontawesome.com/license (Commercial License) --><path d="M267 133C264 130 260 128 256 128S248 130 245 133L165 213C158 219 158 229 165 235S181 242 187 235L240 183V320C240 329 247 336 256 336S272 329 272 320V183L325 235C331 242 341 242 347 235S354 219 347 213L267 133ZM256 32C115 32 0 125 0 240C0 288 20 331 53 366C38 406 7 439 7 439C0 446 -2 457 2 465C6 474 14 480 24 480C85 480 134 454 163 434C192 443 223 448 256 448C397 448 512 355 512 240S397 32 256 32ZM256 416C228 416 200 412 173 403C163 400 153 402 145 408L145 408C122 424 86 443 42 447C54 432 72 407 83 378L83 377C87 366 85 353 76 344L76 344C47 314 32 278 32 240C32 143 133 64 256 64C380 64 480 143 480 240S380 416 256 416Z"/></svg>