<svg xmlns="http://www.w3.org/2000/svg" viewBox="0 0 512 512"><!-- Font Awesome Pro 6.0.0-alpha1 by @fontawesome - https://fontawesome.com License - https://fontawesome.com/license (Commercial License) --><path d="M256 32C115 32 0 125 0 240C0 288 20 331 53 366C38 406 7 439 7 439C0 446 -2 457 2 465C6 474 14 480 24 480C85 480 134 454 163 434C192 443 223 448 256 448C397 448 512 355 512 240S397 32 256 32ZM256 416C228 416 200 412 173 403C163 400 153 402 145 408L145 408C122 424 86 443 42 447C54 432 72 407 83 378L83 377C87 366 85 353 76 344L76 344C47 314 32 278 32 240C32 143 133 64 256 64C380 64 480 143 480 240S380 416 256 416ZM272 272H144C135 272 128 279 128 288C128 297 135 304 144 304H272C281 304 288 297 288 288C288 279 281 272 272 272ZM368 176H144C135 176 128 183 128 192C128 201 135 208 144 208H368C377 208 384 201 384 192C384 183 377 176 368 176Z"/></svg>