<svg xmlns="http://www.w3.org/2000/svg" viewBox="0 0 512 512"><!-- Font Awesome Pro 6.0.0-alpha1 by @fontawesome - https://fontawesome.com License - https://fontawesome.com/license (Commercial License) --><path d="M256 32C115 32 0 125 0 240C0 288 20 331 53 366C38 406 7 439 7 439C0 446 -2 457 2 465C6 474 14 480 24 480C85 480 134 454 163 434C192 443 223 448 256 448C397 448 512 355 512 240S397 32 256 32ZM256 416C228 416 200 412 173 403C163 400 153 402 145 408L145 408C122 424 86 443 42 447C54 432 72 407 83 378L83 377C87 366 85 353 76 344L76 344C47 314 32 278 32 240C32 143 133 64 256 64C380 64 480 143 480 240S380 416 256 416ZM346 142C338 134 328 129 317 128C304 127 291 132 282 141L158 264C156 266 154 269 154 272L141 333C139 344 149 354 160 352L221 340C224 339 227 337 229 335L353 213C360 206 366 196 366 185C368 172 363 159 354 150L346 142ZM210 309L177 316L184 283L271 197L297 223L210 309ZM331 189L320 201L293 174L305 163C309 159 317 159 322 163L331 173C336 177 336 185 331 189Z"/></svg>