<svg xmlns="http://www.w3.org/2000/svg" viewBox="0 0 512 512"><!-- Font Awesome Pro 6.0.0-alpha1 by @fontawesome - https://fontawesome.com License - https://fontawesome.com/license (Commercial License) --><path d="M273 273C282 264 282 248 273 239C264 230 248 230 239 239C230 248 230 264 239 273C248 282 264 282 273 273ZM357 128C355 128 353 128 351 129L199 184C192 186 186 192 184 199L129 351C124 366 139 384 155 384C157 384 159 384 161 383L313 328C320 326 326 320 328 313L383 161C388 146 373 128 357 128ZM299 299L164 348L213 213L348 164L299 299ZM256 16C123 16 16 123 16 256S123 496 256 496S496 389 496 256S389 16 256 16ZM256 464C141 464 48 371 48 256S141 48 256 48S464 141 464 256S371 464 256 464Z"/></svg>