<svg xmlns="http://www.w3.org/2000/svg" viewBox="0 0 512 512"><!-- Font Awesome Pro 6.0.0-alpha1 by @fontawesome - https://fontawesome.com License - https://fontawesome.com/license (Commercial License) --><path d="M368 224H496C505 224 512 217 512 208S505 192 496 192H384V80C384 71 377 64 368 64S352 71 352 80V208C352 217 359 224 368 224ZM144 288H16C7 288 0 295 0 304S7 320 16 320H128V432C128 441 135 448 144 448S160 441 160 432V304C160 295 153 288 144 288ZM496 288H368C359 288 352 295 352 304V432C352 441 359 448 368 448S384 441 384 432V320H496C505 320 512 313 512 304S505 288 496 288ZM144 64C135 64 128 71 128 80V192H16C7 192 0 199 0 208S7 224 16 224H144C153 224 160 217 160 208V80C160 71 153 64 144 64Z"/></svg>