<svg xmlns="http://www.w3.org/2000/svg" viewBox="0 0 384 512"><!-- Font Awesome Pro 6.0.0-alpha1 by @fontawesome - https://fontawesome.com License - https://fontawesome.com/license (Commercial License) --><path d="M224 0H160C72 0 0 72 0 160V352C0 440 72 512 160 512H224C312 512 384 440 384 352V160C384 72 312 0 224 0ZM352 352C352 423 295 480 224 480H160C89 480 32 423 32 352V160C32 89 89 32 160 32H224C295 32 352 89 352 160V352ZM192 96C183 96 176 103 176 112V176C176 185 183 192 192 192S208 185 208 176V112C208 103 201 96 192 96Z"/></svg>