<svg xmlns="http://www.w3.org/2000/svg" viewBox="0 0 512 512"><!-- Font Awesome Pro 6.0.0-alpha1 by @fontawesome - https://fontawesome.com License - https://fontawesome.com/license (Commercial License) --><path d="M184 192C184 179 173 168 160 168S136 179 136 192S147 216 160 216S184 205 184 192ZM288 232C275 232 264 243 264 256S275 280 288 280S312 269 312 256S301 232 288 232ZM192 328C179 328 168 339 168 352S179 376 192 376S216 365 216 352S205 328 192 328ZM352 328C339 328 328 339 328 352S339 376 352 376S376 365 376 352S365 328 352 328ZM495 256C429 255 376 202 376 136C310 136 257 83 256 17C250 16 244 16 237 16C218 16 199 21 181 29L117 62C93 74 74 93 62 117L30 181C18 205 13 231 18 257L29 329C33 355 45 378 64 397L115 448C134 467 157 479 183 483L255 494C261 496 268 496 275 496C294 496 313 491 331 483L395 450C419 438 438 419 450 395L483 331C494 308 498 281 495 256ZM454 316L421 381C412 398 398 412 381 421L316 454C303 461 289 464 275 464C270 464 265 464 260 463L188 452C169 449 151 440 138 426L86 374C72 361 64 343 60 324L49 252C46 233 49 213 58 196L91 131C100 114 114 100 131 91L196 58C206 53 217 50 228 49C241 107 288 154 347 165C358 224 405 271 463 284C462 295 459 306 454 316Z"/></svg>