<svg xmlns="http://www.w3.org/2000/svg" viewBox="0 0 576 512"><!-- Font Awesome Pro 6.0.0-alpha1 by @fontawesome - https://fontawesome.com License - https://fontawesome.com/license (Commercial License) --><path d="M224 328C211 328 200 339 200 352S211 376 224 376S248 365 248 352S237 328 224 328ZM216 192C216 179 205 168 192 168S168 179 168 192S179 216 192 216S216 205 216 192ZM320 232C307 232 296 243 296 256S307 280 320 280S344 269 344 256S333 232 320 232ZM376 128C376 115 365 104 352 104S328 115 328 128S339 152 352 152S376 141 376 128ZM384 328C371 328 360 339 360 352S371 376 384 376S408 365 408 352S397 328 384 328ZM526 255L515 183C511 157 499 134 480 115L429 64C410 45 387 33 361 29L289 18C282 16 276 16 270 16C250 16 231 21 213 29L149 63C125 74 106 93 94 117L62 181C50 205 45 231 50 257L61 329C65 355 77 378 96 397L147 448C166 467 189 479 215 483L287 494C293 496 300 496 306 496C326 496 345 491 363 483L427 450C451 438 470 419 482 395L514 331C526 307 531 281 526 255ZM486 316L453 381C444 398 430 412 413 421L348 454C335 461 321 464 306 464C301 464 297 464 292 463L220 452C201 448 183 440 170 426L118 374C104 361 96 343 92 324L81 252C78 233 81 213 90 196L123 131C132 114 146 100 163 91L228 58C241 51 255 48 270 48C275 48 279 48 284 49L356 60C375 64 393 72 406 86L458 138C472 151 480 169 484 188L495 260C498 279 495 299 486 316Z"/></svg>