<svg xmlns="http://www.w3.org/2000/svg" viewBox="0 0 512 512"><!-- Font Awesome Pro 6.0.0-alpha1 by @fontawesome - https://fontawesome.com License - https://fontawesome.com/license (Commercial License) --><path d="M256 16C123 16 16 123 16 256S123 496 256 496S496 389 496 256S389 16 256 16ZM256 464C141 464 48 371 48 256S141 48 256 48S464 141 464 256S371 464 256 464ZM324 188C330 194 340 194 346 188S353 172 346 166C298 117 214 117 166 166C141 190 128 222 128 256S141 322 166 346C190 371 222 384 256 384S322 371 346 346C353 340 353 330 346 324S330 318 324 324C288 360 224 360 188 324C170 306 160 282 160 256S170 206 188 188C224 152 288 152 324 188Z"/></svg>