<svg xmlns="http://www.w3.org/2000/svg" viewBox="0 0 512 512"><!-- Font Awesome Pro 6.0.0-alpha1 by @fontawesome - https://fontawesome.com License - https://fontawesome.com/license (Commercial License) --><path d="M272 416C263 416 256 423 256 432V448C256 466 242 480 224 480H64C46 480 32 466 32 448V192C32 174 46 160 64 160H176C185 160 192 153 192 144C192 135 185 128 176 128H64C29 128 0 157 0 192V448C0 483 29 512 64 512H224C259 512 288 483 288 448V432C288 423 281 416 272 416ZM503 87L425 9C419 3 411 0 403 0H288C253 0 224 29 224 64V320C224 355 253 384 288 384H448C483 384 512 355 512 320V109C512 101 509 93 503 87ZM416 45L467 96H416V45ZM480 320C480 338 466 352 448 352H288C270 352 256 338 256 320V64C256 46 270 32 288 32H384V96C384 114 398 128 416 128H480V320Z"/></svg>