<svg xmlns="http://www.w3.org/2000/svg" viewBox="0 0 448 512"><!-- Font Awesome Pro 6.0.0-alpha1 by @fontawesome - https://fontawesome.com License - https://fontawesome.com/license (Commercial License) --><path d="M447 456L394 136C390 113 370 96 347 96H320V48C320 22 298 0 272 0H176C150 0 128 22 128 48V96H101C78 96 58 113 54 136L1 456C-4 485 18 512 48 512H400C429 512 452 486 447 456ZM160 48C160 39 167 32 176 32H272C281 32 288 39 288 48V96H160V48ZM400 480H48C35 480 31 468 32 461L86 141C87 134 94 128 101 128H347C355 128 361 134 362 141L416 461C417 468 413 480 400 480Z"/></svg>