<svg xmlns="http://www.w3.org/2000/svg" viewBox="0 0 512 512"><!-- Font Awesome Pro 6.0.0-alpha1 by @fontawesome - https://fontawesome.com License - https://fontawesome.com/license (Commercial License) --><path d="M402 202L367 168L507 27C514 21 514 11 507 5S491 -2 485 5L344 145L310 110C300 101 288 96 275 96C263 96 251 101 241 110C224 127 198 153 12 340C3 348 -1 359 0 370C12 499 139 512 145 512C155 512 165 508 172 500L402 271C421 252 421 221 402 202ZM150 478C148 479 146 480 146 480C145 480 42 472 32 367C32 366 33 364 34 362L192 205V288C192 306 206 320 224 320H307L150 478ZM379 248L339 288H224V173L257 140L264 133C267 130 271 128 275 128C280 128 284 130 287 133L379 225C383 229 384 234 384 236C384 241 382 245 379 248ZM432 352C388 352 352 388 352 432S388 512 432 512C476 512 512 476 512 432S476 352 432 352ZM432 480C405 480 384 458 384 432S405 384 432 384S480 405 480 432S458 480 432 480Z"/></svg>