<svg xmlns="http://www.w3.org/2000/svg" viewBox="0 0 512 512"><!-- Font Awesome Pro 6.0.0-alpha1 by @fontawesome - https://fontawesome.com License - https://fontawesome.com/license (Commercial License) --><path d="M496 384H416V112C416 103 409 96 400 96H176C167 96 160 103 160 112S167 128 176 128H384V496C384 505 391 512 400 512S416 505 416 496V416H496C505 416 512 409 512 400S505 384 496 384ZM336 384H128V16C128 7 121 0 112 0S96 7 96 16V96H16C7 96 0 103 0 112S7 128 16 128H96V400C96 409 103 416 112 416H336C345 416 352 409 352 400S345 384 336 384Z"/></svg>