<svg xmlns="http://www.w3.org/2000/svg" viewBox="0 0 512 512"><!-- Font Awesome Pro 6.0.0-alpha1 by @fontawesome - https://fontawesome.com License - https://fontawesome.com/license (Commercial License) --><path d="M496 240H463C455 138 374 57 272 49V16C272 7 265 0 256 0S240 7 240 16V49C138 57 57 138 49 240H16C7 240 0 247 0 256S7 272 16 272H49C57 374 138 455 240 463V496C240 505 247 512 256 512S272 505 272 496V463C374 455 455 374 463 272H496C505 272 512 265 512 256S505 240 496 240ZM400 272H431C424 356 356 424 272 431V400C272 391 265 384 256 384S240 391 240 400V431C156 424 88 356 81 272H112C121 272 128 265 128 256S121 240 112 240H81C88 156 156 88 240 81V112C240 121 247 128 256 128S272 121 272 112V81C356 88 424 156 431 240H400C391 240 384 247 384 256S391 272 400 272ZM256 232C243 232 232 243 232 256S243 280 256 280S280 269 280 256S269 232 256 232Z"/></svg>