<svg xmlns="http://www.w3.org/2000/svg" viewBox="0 0 384 512"><!-- Font Awesome Pro 6.0.0-alpha1 by @fontawesome - https://fontawesome.com License - https://fontawesome.com/license (Commercial License) --><path d="M352 128H256V32C256 14 242 0 224 0H160C142 0 128 14 128 32V128H32C14 128 0 142 0 160V224C0 242 14 256 32 256H128V480C128 498 142 512 160 512H224C242 512 256 498 256 480V256H352C370 256 384 242 384 224V160C384 142 370 128 352 128ZM352 224H240C231 224 224 231 224 240V480H160V240C160 231 153 224 144 224H32V160H144C153 160 160 153 160 144V32H224V144C224 153 231 160 240 160H352V224Z"/></svg>