<svg xmlns="http://www.w3.org/2000/svg" viewBox="0 0 640 512"><!-- Font Awesome Pro 6.0.0-alpha1 by @fontawesome - https://fontawesome.com License - https://fontawesome.com/license (Commercial License) --><path d="M416 72C403 72 392 83 392 96S403 120 416 120S440 109 440 96S429 72 416 72ZM520 64H506C492 26 456 -2 412 0C360 2 320 47 320 99V136L11 394C4 399 0 408 0 418C0 435 14 448 29 448C33 448 37 447 41 445L168 384H278L322 502C325 510 334 514 342 511L342 511C350 508 354 499 351 491L311 384H331C345 384 359 382 372 379L418 502C421 510 430 514 438 511C446 508 450 499 447 491L401 369C466 340 512 272 512 192V161L640 144C640 100 586 64 520 64ZM480 192C480 280 413 352 331 352H274L320 339C368 325 408 292 430 247C434 239 431 230 423 226C415 222 406 225 402 233C383 270 350 297 311 308C119 363 195 336 44 408L352 150V96C352 61 381 32 416 32S480 61 480 96V192ZM512 129V96H520C551 96 577 106 593 118L512 129Z"/></svg>