<svg xmlns="http://www.w3.org/2000/svg" viewBox="0 0 576 512"><!-- Font Awesome Pro 6.0.0-alpha1 by @fontawesome - https://fontawesome.com License - https://fontawesome.com/license (Commercial License) --><path d="M544 96C526 96 512 110 512 128C512 136 515 142 519 148L415 231C409 236 402 238 395 238C383 238 372 232 366 221L302 92C313 87 320 77 320 64C320 46 306 32 288 32S256 46 256 64C256 77 263 87 274 92L210 221C204 232 193 238 181 238C174 238 167 236 161 231L57 148C61 142 64 136 64 128C64 110 50 96 32 96S0 110 0 128C0 146 14 160 32 160C34 160 36 159 38 159L86 427C92 458 118 480 149 480H427C458 480 484 458 490 427L538 159C540 159 542 160 544 160C562 160 576 146 576 128C576 110 562 96 544 96ZM458 422C455 437 442 448 427 448H149C134 448 121 437 118 422L79 206L141 256C152 265 167 270 181 270C205 270 227 257 238 235L288 136L338 235C349 257 371 270 395 270C409 270 424 265 435 256L497 206L458 422Z"/></svg>