<svg xmlns="http://www.w3.org/2000/svg" viewBox="0 0 512 512"><!-- Font Awesome Pro 6.0.0-alpha1 by @fontawesome - https://fontawesome.com License - https://fontawesome.com/license (Commercial License) --><path d="M507 197L315 5C309 -2 299 -2 293 5S287 21 293 27L485 219C488 222 492 224 496 224S504 222 507 219C514 213 514 203 507 197ZM405 213L336 281L231 176L299 107C306 101 306 91 299 85S283 78 277 85L162 199C151 210 144 224 141 240L113 376L5 485C-2 491 -2 501 5 507C8 510 12 512 16 512S24 510 27 507L136 399L272 371C288 368 302 361 313 350L427 235C434 229 434 219 427 213S411 206 405 213ZM290 327C284 334 275 338 266 340L148 364L172 246C174 237 178 228 185 222L208 199L313 304L290 327Z"/></svg>