<svg xmlns="http://www.w3.org/2000/svg" viewBox="0 0 384 512"><!-- Font Awesome Pro 6.0.0-alpha1 by @fontawesome - https://fontawesome.com License - https://fontawesome.com/license (Commercial License) --><path d="M379 392C385 398 385 408 379 414C337 457 281 480 222 480C222 480 222 480 222 480C163 480 107 457 65 414C-22 327 -22 185 65 98C107 55 163 32 222 32C281 32 337 55 379 98C385 104 385 114 379 120C373 127 363 126 356 120C321 84 273 64 222 64C171 64 124 84 88 120C13 195 13 317 88 392C108 413 133 428 160 437V240C160 231 167 224 176 224S192 231 192 240V256C205 246 222 240 240 240C272 240 301 259 314 289C317 297 313 306 305 310C297 313 288 310 284 301C277 284 259 272 240 272C213 272 192 294 192 320V445C202 447 212 448 222 448C273 448 321 428 356 392C363 386 373 385 379 392Z"/></svg>