<svg xmlns="http://www.w3.org/2000/svg" viewBox="0 0 512 512"><!-- Font Awesome Pro 6.0.0-alpha1 by @fontawesome - https://fontawesome.com License - https://fontawesome.com/license (Commercial License) --><path d="M491 85L278 4C271 1 264 0 256 0S241 1 234 4L21 85C8 90 0 102 0 116V396C0 410 8 422 21 427L234 508C241 511 248 512 256 512S271 511 278 508L491 427C504 422 512 410 512 396V116C512 102 504 90 491 85ZM245 34C248 33 252 32 256 32S264 33 267 34L466 110L256 191L45 110L245 34ZM32 396L32 139L240 219V476L32 396ZM272 476V219L480 139L480 397L272 476Z"/></svg>