<svg xmlns="http://www.w3.org/2000/svg" viewBox="0 0 576 512"><!-- Font Awesome Pro 6.0.0-alpha1 by @fontawesome - https://fontawesome.com License - https://fontawesome.com/license (Commercial License) --><path d="M480 224V208C480 182 458 160 432 160H192V112C192 86 214 64 240 64H400C409 64 416 57 416 48S409 32 400 32H240C196 32 160 68 160 112V160H144C118 160 96 182 96 208V224C43 224 0 267 0 320V384C0 437 43 480 96 480H480C533 480 576 437 576 384V320C576 267 533 224 480 224ZM128 208C128 199 135 192 144 192H432C441 192 448 199 448 208V224H128V208ZM96 256H480C515 256 544 285 544 320V336H32V320C32 285 61 256 96 256ZM480 448H96C61 448 32 419 32 384V368H544V384C544 419 515 448 480 448Z"/></svg>