<svg xmlns="http://www.w3.org/2000/svg" viewBox="0 0 576 512"><!-- Font Awesome Pro 6.0.0-alpha1 by @fontawesome - https://fontawesome.com License - https://fontawesome.com/license (Commercial License) --><path d="M0 128V384C0 419 29 448 64 448H371C388 448 404 441 416 429L567 279C579 266 579 246 567 233L416 83C404 71 388 64 371 64H64C29 64 0 93 0 128ZM32 128C32 110 46 96 64 96H371C379 96 387 99 393 105L544 256L393 407C387 413 379 416 371 416H64C46 416 32 402 32 384V128ZM149 203L201 256L149 309C142 315 142 325 149 331C152 334 156 336 160 336S168 334 171 331L224 279L277 331C280 334 284 336 288 336S296 334 299 331C306 325 306 315 299 309L247 256L299 203C306 197 306 187 299 181S283 174 277 181L224 233L171 181C165 174 155 174 149 181S142 197 149 203Z"/></svg>