<svg xmlns="http://www.w3.org/2000/svg" viewBox="0 0 512 512"><!-- Font Awesome Pro 6.0.0-alpha1 by @fontawesome - https://fontawesome.com License - https://fontawesome.com/license (Commercial License) --><path d="M496 240H463C460 195 442 153 414 121L437 98C443 91 443 81 437 75S421 69 414 75L391 98C359 70 317 52 272 49V16C272 7 265 0 256 0S240 7 240 16V49C195 52 153 70 121 98L98 75C91 69 81 69 75 75S69 91 75 98L98 121C70 153 52 195 49 240H16C7 240 0 247 0 256S7 272 16 272H49C52 317 70 359 98 391L75 414C69 421 69 431 75 437C78 440 82 442 86 442S94 440 98 437L121 414C153 442 195 460 240 463V496C240 505 247 512 256 512S272 505 272 496V463C317 460 359 442 391 414L414 437C418 440 422 442 426 442S434 440 437 437C443 431 443 421 437 414L414 391C442 359 460 317 463 272H496C505 272 512 265 512 256S505 240 496 240ZM431 240H350C348 225 342 212 334 201L391 143C413 170 428 203 431 240ZM256 320C221 320 192 291 192 256S221 192 256 192S320 221 320 256S291 320 256 320ZM369 121L311 178C300 170 287 164 272 162V81C309 84 342 99 369 121ZM240 81V162C225 164 212 170 201 178L143 121C170 99 203 84 240 81ZM121 143L178 201C170 212 164 225 162 240H81C84 203 99 170 121 143ZM81 272H162C164 287 170 300 178 311L121 369C99 342 84 309 81 272ZM143 391L201 334C212 342 225 348 240 350V431C203 428 170 413 143 391ZM272 431V350C287 348 300 342 311 334L369 391C342 413 309 428 272 431ZM391 369L334 311C342 300 348 287 350 272H431C428 309 413 342 391 369Z"/></svg>