<svg xmlns="http://www.w3.org/2000/svg" viewBox="0 0 640 512"><!-- Font Awesome Pro 6.0.0-alpha1 by @fontawesome - https://fontawesome.com License - https://fontawesome.com/license (Commercial License) --><path d="M416 32C382 32 349 40 320 54C291 40 258 32 224 32C100 32 0 132 0 256S100 480 224 480C258 480 291 472 320 458C349 472 382 480 416 480C539 480 640 380 640 256S539 32 416 32ZM390 160H250C267 131 291 107 320 90C349 107 373 131 390 160ZM405 320H235C230 305 226 289 225 272H415C414 289 410 305 405 320ZM415 240H225C226 223 230 207 235 192H405C410 207 414 223 415 240ZM224 448C118 448 32 362 32 256S118 64 224 64C246 64 266 68 286 74C229 115 192 181 192 256S229 397 286 438C266 444 246 448 224 448ZM250 352H390C373 381 349 405 320 422C291 405 267 381 250 352ZM416 448C394 448 374 444 354 438C411 397 448 331 448 256S411 115 354 74C374 68 394 64 416 64C522 64 608 150 608 256S522 448 416 448Z"/></svg>