<svg xmlns="http://www.w3.org/2000/svg" viewBox="0 0 512 512"><!-- Font Awesome Pro 6.0.0-alpha1 by @fontawesome - https://fontawesome.com License - https://fontawesome.com/license (Commercial License) --><path d="M496 222L288 14C279 5 267 0 254 0C242 0 230 5 221 14L12 222C-6 241 -6 271 12 290L221 498C230 507 242 512 254 512C267 512 279 507 288 498L496 290C515 271 515 241 496 222ZM474 267L266 475C262 479 257 480 254 480C252 480 247 479 243 475L35 267C29 261 29 251 35 245L243 37C247 33 252 32 254 32C257 32 262 33 266 37L474 245C480 251 480 261 474 267Z"/></svg>