<svg xmlns="http://www.w3.org/2000/svg" viewBox="0 0 512 512"><!-- Font Awesome Pro 6.0.0-alpha1 by @fontawesome - https://fontawesome.com License - https://fontawesome.com/license (Commercial License) --><path d="M505 178L458 83C451 71 441 61 429 54L334 7C325 2 315 0 305 0H207C197 0 187 2 178 7L83 54C71 61 61 71 54 83L7 178C2 187 0 197 0 207V305C0 315 2 325 7 334L54 429C61 441 71 451 83 458L178 505C187 510 197 512 207 512H305C315 512 325 510 334 505L429 458C441 451 451 441 458 429L505 334C510 325 512 315 512 305V207C512 197 510 187 505 178ZM476 191L380 300L272 246V140L429 97L476 191ZM309 480H203L148 328L256 274L364 328L309 480ZM199 32H312L395 73L256 111L117 73L199 32ZM83 97L240 140V246L132 300L36 191L83 97ZM32 313V235L114 328L162 461L88 424L32 313ZM424 424L350 461L398 328L480 235V313L424 424Z"/></svg>