<svg xmlns="http://www.w3.org/2000/svg" viewBox="0 0 448 512"><!-- Font Awesome Pro 6.0.0-alpha1 by @fontawesome - https://fontawesome.com License - https://fontawesome.com/license (Commercial License) --><path d="M384 32H64C29 32 0 61 0 96V416C0 451 29 480 64 480H384C419 480 448 451 448 416V96C448 61 419 32 384 32ZM416 416C416 434 402 448 384 448H64C46 448 32 434 32 416V96C32 78 46 64 64 64H384C402 64 416 78 416 96V416ZM128 136C115 136 104 147 104 160S115 184 128 184S152 173 152 160S141 136 128 136ZM320 328C307 328 296 339 296 352S307 376 320 376S344 365 344 352S333 328 320 328Z"/></svg>