<svg xmlns="http://www.w3.org/2000/svg" viewBox="0 0 512 512"><!-- Font Awesome Pro 6.0.0-alpha1 by @fontawesome - https://fontawesome.com License - https://fontawesome.com/license (Commercial License) --><path d="M464 116L272 4C262 -1 250 -1 240 4L48 116C38 122 32 133 32 144V368C32 379 38 390 48 396L240 508C250 513 262 513 272 508L464 396C474 390 480 379 480 368V144C480 133 474 122 464 116ZM256 58L351 176H161L256 58ZM157 208H355L256 370L157 208ZM225 380L88 363L132 230L225 380ZM380 230L424 363L287 380L380 230ZM387 170L295 55L433 135L387 170ZM125 170L79 135L218 54L125 170ZM109 198L64 333L64 164L109 198ZM240 414V471L117 399L240 414ZM396 399L272 471V414L396 399ZM403 198L448 164L448 333L403 198ZM256 480H256H256Z"/></svg>