<svg xmlns="http://www.w3.org/2000/svg" viewBox="0 0 512 512"><!-- Font Awesome Pro 6.0.0-alpha1 by @fontawesome - https://fontawesome.com License - https://fontawesome.com/license (Commercial License) --><path d="M504 261L280 11C274 3 265 0 256 0S239 3 232 11L8 261C-4 274 -2 295 11 306L235 504C241 509 249 512 256 512C264 512 271 509 277 504L501 306C514 295 516 274 504 261ZM256 298L180 247L256 70L332 247L256 298ZM149 240L48 265L221 71L149 240ZM363 240L291 71L465 265L363 240ZM49 298L157 270L240 326V466L49 298ZM272 466V326L355 270L463 298L272 466Z"/></svg>