<svg xmlns="http://www.w3.org/2000/svg" viewBox="0 0 640 512"><!-- Font Awesome Pro 6.0.0-alpha1 by @fontawesome - https://fontawesome.com License - https://fontawesome.com/license (Commercial License) --><path d="M224 296C211 296 200 307 200 320S211 344 224 344S248 333 248 320S237 296 224 296ZM128 200C115 200 104 211 104 224S115 248 128 248S152 237 152 224S141 200 128 200ZM224 200C211 200 200 211 200 224S211 248 224 248S248 237 248 224S237 200 224 200ZM480 376C493 376 504 365 504 352S493 328 480 328S456 339 456 352S467 376 480 376ZM224 104C211 104 200 115 200 128S211 152 224 152S248 141 248 128S237 104 224 104ZM576 192H473C477 202 479 213 479 224H576C594 224 608 238 608 256V448C608 466 594 480 576 480H384C366 480 352 466 352 448V391L320 423V448C320 483 349 512 384 512H576C611 512 640 483 640 448V256C640 221 611 192 576 192ZM320 200C307 200 296 211 296 224S307 248 320 248S344 237 344 224S333 200 320 200ZM448 224C448 207 441 191 429 178L270 19C257 7 241 0 224 0S191 7 178 19L19 178C7 191 0 207 0 224C0 241 7 257 19 270L178 429C191 441 207 448 224 448S257 441 270 429L429 270C441 257 448 241 448 224ZM406 247L247 406C241 412 233 416 224 416S207 412 201 406L42 247C36 241 32 233 32 224C32 215 36 207 42 201L201 42C207 36 215 32 224 32S241 36 247 42L406 201C412 207 416 215 416 224C416 233 412 241 406 247Z"/></svg>