<svg xmlns="http://www.w3.org/2000/svg" viewBox="0 0 512 512"><!-- Font Awesome Pro 6.0.0-alpha1 by @fontawesome - https://fontawesome.com License - https://fontawesome.com/license (Commercial License) --><path d="M160 200C147 200 136 211 136 224C136 237 147 248 160 248S184 237 184 224C184 211 173 200 160 200ZM288 296C275 296 264 307 264 320C264 333 275 344 288 344S312 333 312 320C312 307 301 296 288 296ZM464 185L401 164C388 159 379 150 376 139L361 83C354 60 335 42 309 35C280 27 250 35 231 55L187 99C178 109 164 114 149 112L82 107C51 105 21 119 8 144C-4 165 -2 190 12 210L48 258C55 267 56 278 51 288L25 341C14 362 16 386 31 405C49 428 80 439 111 432L177 418C191 415 207 418 218 426L269 464C283 475 300 480 317 480C329 480 341 478 352 473C375 462 390 442 392 418L396 361C397 350 405 340 416 334L474 304C499 292 514 268 512 243C510 217 492 194 464 185ZM460 276L402 305C380 316 366 336 364 358L360 416C359 432 345 441 338 443C322 451 302 449 288 439L237 401C223 391 206 385 188 385C182 385 176 386 170 387L105 401C82 406 64 396 57 386C52 380 46 369 53 355L80 303C91 282 88 258 74 239L38 190C28 177 32 166 36 160C43 146 61 138 79 139L147 144C171 146 195 138 210 122L254 77C265 66 284 61 301 66C316 70 327 79 330 91L345 147C351 169 368 186 391 194L454 215C469 221 479 232 480 245C481 257 473 269 460 276ZM304 192C295 192 288 199 288 208C288 217 295 224 304 224S320 217 320 208C320 199 313 192 304 192Z"/></svg>