<svg xmlns="http://www.w3.org/2000/svg" viewBox="0 0 640 512"><!-- Font Awesome Pro 6.0.0-alpha1 by @fontawesome - https://fontawesome.com License - https://fontawesome.com/license (Commercial License) --><path d="M544 32C562 32 576 46 576 64V352C576 353 575 354 575 356L603 377C606 370 608 361 608 352V64C608 29 579 0 544 0H125L165 32H544ZM464 480H413L395 417L353 384H96C78 384 64 370 64 352V156L32 131V352C32 387 61 416 96 416H246L226 480H176C167 480 160 487 160 496S167 512 176 512H464C473 512 480 505 480 496S473 480 464 480ZM260 480L279 416H361L380 480H260ZM634 483L26 3C19 -2 9 -1 3 6C-2 13 -1 23 6 29L614 509C617 511 621 512 624 512C629 512 633 510 637 506C642 499 641 489 634 483Z"/></svg>