<svg xmlns="http://www.w3.org/2000/svg" viewBox="0 0 576 512"><!-- Font Awesome Pro 6.0.0-alpha1 by @fontawesome - https://fontawesome.com License - https://fontawesome.com/license (Commercial License) --><path d="M512 0H64C29 0 0 29 0 64V352C0 387 29 416 64 416H214L194 480H144C135 480 128 487 128 496S135 512 144 512H432C441 512 448 505 448 496S441 480 432 480H382L362 416H512C547 416 576 387 576 352V64C576 29 547 0 512 0ZM228 480L247 416H329L348 480H228ZM544 352C544 370 530 384 512 384H64C46 384 32 370 32 352V64C32 46 46 32 64 32H512C530 32 544 46 544 64V352ZM219 133C213 126 203 126 197 133L133 197C126 203 126 213 133 219L197 283C200 286 204 288 208 288S216 286 219 283C226 277 226 267 219 261L167 208L219 155C226 149 226 139 219 133ZM379 133C373 126 363 126 357 133S350 149 357 155L409 208L357 261C350 267 350 277 357 283C360 286 364 288 368 288S376 286 379 283L443 219C450 213 450 203 443 197L379 133ZM325 97C317 94 308 99 305 107L241 299C238 307 243 316 251 319C253 320 254 320 256 320C263 320 269 316 271 309L335 117C338 109 333 100 325 97Z"/></svg>