<svg xmlns="http://www.w3.org/2000/svg" viewBox="0 0 576 512"><!-- Font Awesome Pro 6.0.0-alpha1 by @fontawesome - https://fontawesome.com License - https://fontawesome.com/license (Commercial License) --><path d="M512 0H64C29 0 0 29 0 64V352C0 387 29 416 64 416H214L194 480H144C135 480 128 487 128 496S135 512 144 512H432C441 512 448 505 448 496S441 480 432 480H382L362 416H512C547 416 576 387 576 352V64C576 29 547 0 512 0ZM228 480L247 416H329L348 480H228ZM544 352C544 370 530 384 512 384H64C46 384 32 370 32 352V64C32 46 46 32 64 32H512C530 32 544 46 544 64V352ZM368 176H320V128C320 119 313 112 304 112H272C263 112 256 119 256 128V176H208C199 176 192 183 192 192V224C192 233 199 240 208 240H256V288C256 297 263 304 272 304H304C313 304 320 297 320 288V240H368C377 240 384 233 384 224V192C384 183 377 176 368 176Z"/></svg>