<svg xmlns="http://www.w3.org/2000/svg" viewBox="0 0 448 512"><!-- Font Awesome Pro 6.0.0-alpha1 by @fontawesome - https://fontawesome.com License - https://fontawesome.com/license (Commercial License) --><path d="M432 240H16C7 240 0 247 0 256S7 272 16 272H432C441 272 448 265 448 256S441 240 432 240ZM224 192C259 192 288 163 288 128S259 64 224 64S160 93 160 128S189 192 224 192ZM224 96C242 96 256 110 256 128S242 160 224 160S192 146 192 128S206 96 224 96ZM224 320C189 320 160 349 160 384S189 448 224 448S288 419 288 384S259 320 224 320ZM224 416C206 416 192 402 192 384S206 352 224 352S256 366 256 384S242 416 224 416Z"/></svg>