<svg xmlns="http://www.w3.org/2000/svg" viewBox="0 0 512 512"><!-- Font Awesome Pro 6.0.0-alpha1 by @fontawesome - https://fontawesome.com License - https://fontawesome.com/license (Commercial License) --><path d="M256 16C123 16 16 123 16 256S123 496 256 496S496 389 496 256S389 16 256 16ZM256 464C141 464 48 371 48 256S141 48 256 48S464 141 464 256S371 464 256 464ZM384 208H128C102 208 80 230 80 256S102 304 128 304H384C410 304 432 282 432 256S410 208 384 208ZM384 272H128C119 272 112 265 112 256S119 240 128 240H384C393 240 400 247 400 256S393 272 384 272Z"/></svg>