<svg xmlns="http://www.w3.org/2000/svg" viewBox="0 0 576 512"><!-- Font Awesome Pro 6.0.0-alpha1 by @fontawesome - https://fontawesome.com License - https://fontawesome.com/license (Commercial License) --><path d="M512 96H464L457 82C452 72 439 64 428 64H336V48C336 39 329 32 320 32S304 39 304 48V224H192C173 224 155 230 139 240H112C86 240 64 218 64 192C64 183 57 176 48 176S32 183 32 192C32 235 66 270 110 272C101 286 96 303 96 320V464C96 490 118 512 144 512H176C202 512 224 490 224 464V384H320V464C320 490 342 512 368 512H400C426 512 448 490 448 464V240H480C515 240 544 211 544 176V128C544 110 530 96 512 96ZM416 464C416 473 409 480 400 480H368C359 480 352 473 352 464V368C352 359 345 352 336 352H208C199 352 192 359 192 368V464C192 473 185 480 176 480H144C135 480 128 473 128 464V320C128 285 157 256 192 256H317L416 289V464ZM512 176C512 194 498 208 480 208H416V255L336 228V96H428L444 128H512V176ZM400 112C391 112 384 119 384 128S391 144 400 144S416 137 416 128S409 112 400 112Z"/></svg>