<svg xmlns="http://www.w3.org/2000/svg" viewBox="0 0 576 512"><!-- Font Awesome Pro 6.0.0-alpha1 by @fontawesome - https://fontawesome.com License - https://fontawesome.com/license (Commercial License) --><path d="M575 330C572 322 563 318 554 321L331 403C319 373 290 352 256 352C251 352 246 353 241 353L142 55C131 22 100 0 66 0H16C7 0 0 7 0 16S7 32 16 32H66C87 32 105 45 111 65L212 365C190 380 176 404 176 432C176 476 212 512 256 512C299 512 334 478 336 436L566 351C574 348 578 339 575 330ZM256 480C230 480 208 458 208 432S230 384 256 384S304 406 304 432S282 480 256 480ZM287 303C293 322 312 336 332 336C337 336 342 335 347 333L479 289C491 285 501 277 506 265C512 254 513 241 509 229L465 97C459 78 440 64 420 64C415 64 409 65 405 67L273 111C261 115 251 123 246 135C240 146 239 159 243 171L287 303ZM274 149C276 145 279 142 283 141L415 97C416 97 418 96 420 96C427 96 433 101 435 107L479 239C480 243 480 247 478 251C476 255 473 258 469 259L337 303C336 303 334 304 332 304C325 304 319 299 317 293L273 161C272 157 272 153 274 149Z"/></svg>