<svg xmlns="http://www.w3.org/2000/svg" viewBox="0 0 512 512"><!-- Font Awesome Pro 6.0.0-alpha1 by @fontawesome - https://fontawesome.com License - https://fontawesome.com/license (Commercial License) --><path d="M437 137L428 129C437 108 452 82 474 53C482 41 482 26 473 14C465 3 452 -2 438 0C396 7 355 20 318 38C282 13 254 0 210 0H202C119 0 48 56 34 133C30 157 31 181 39 206L21 217C4 229 -4 250 2 270C8 291 26 304 48 304H400C409 304 416 297 416 288C416 279 409 272 400 272H48C37 272 33 264 33 261C31 256 32 249 39 244L78 218L73 206C64 184 62 161 66 139C77 78 135 32 202 32H210C248 32 271 44 307 69L315 75L323 71C360 52 401 39 442 32C446 32 447 33 448 34C421 71 403 102 393 128L390 138L416 161C439 180 480 215 480 288C480 359 423 416 352 416H297L265 368C258 358 246 352 233 352H172C161 352 151 358 147 367C142 376 143 386 149 394L177 432L149 470C143 478 142 488 147 497C151 506 161 512 172 512H233C246 512 258 506 266 495L297 448H352C440 448 512 376 512 288C512 200 461 157 437 137ZM240 477C238 479 236 480 233 480H182L217 432L182 384H233C236 384 238 385 239 386L269 432L240 477ZM128 152C128 165 139 176 152 176C165 176 176 165 176 152C176 139 165 128 152 128C139 128 128 139 128 152Z"/></svg>