<svg xmlns="http://www.w3.org/2000/svg" viewBox="0 0 384 512"><!-- Font Awesome Pro 6.0.0-alpha1 by @fontawesome - https://fontawesome.com License - https://fontawesome.com/license (Commercial License) --><path d="M368 448H16C7 448 0 455 0 464S7 480 16 480H368C377 480 384 473 384 464S377 448 368 448ZM192 400C230 400 265 383 288 356V384C288 393 295 400 304 400S320 393 320 384V112H336C345 112 352 105 352 96S345 80 336 80H320V48C320 39 313 32 304 32S288 39 288 48V80H208C199 80 192 87 192 96S199 112 208 112H288V188C265 161 230 144 192 144C121 144 64 201 64 272S121 400 192 400ZM192 176C245 176 288 219 288 272S245 368 192 368S96 325 96 272S139 176 192 176Z"/></svg>