<svg xmlns="http://www.w3.org/2000/svg" viewBox="0 0 576 512"><!-- Font Awesome Pro 6.0.0-alpha1 by @fontawesome - https://fontawesome.com License - https://fontawesome.com/license (Commercial License) --><path d="M232 224C219 224 208 238 208 256S219 288 232 288S256 274 256 256S245 224 232 224ZM260 1L100 41C79 47 64 66 64 88V480H16C7 480 0 487 0 496C0 505 7 512 16 512H288C306 512 320 498 320 480V49C320 39 317 29 311 21C299 4 279 -3 260 1ZM288 480H96V88C96 81 101 74 108 73L268 33C273 31 278 32 282 35C286 38 288 43 288 48V480ZM560 480H512V144C512 100 476 64 432 64H368C359 64 352 71 352 80V80C352 89 359 96 368 96H432C458 96 480 118 480 144V480C480 498 494 512 512 512H560C569 512 576 505 576 496C576 487 569 480 560 480Z"/></svg>