<svg xmlns="http://www.w3.org/2000/svg" viewBox="0 0 576 512"><!-- Font Awesome Pro 6.0.0-alpha1 by @fontawesome - https://fontawesome.com License - https://fontawesome.com/license (Commercial License) --><path d="M560 480H480V80C480 36 444 0 400 0H176C132 0 96 36 96 80V480H16C7 480 0 487 0 496C0 505 7 512 16 512H560C569 512 576 505 576 496C576 487 569 480 560 480ZM448 480H128V80C128 54 150 32 176 32H400C426 32 448 54 448 80V480ZM384 232C371 232 360 243 360 256S371 280 384 280S408 269 408 256S397 232 384 232Z"/></svg>