<svg xmlns="http://www.w3.org/2000/svg" viewBox="0 0 512 512"><!-- Font Awesome Pro 6.0.0-alpha1 by @fontawesome - https://fontawesome.com License - https://fontawesome.com/license (Commercial License) --><path d="M304 240H416C429 240 441 232 446 220S448 195 439 185L394 141L491 43C498 37 498 27 491 21C485 14 475 14 469 21L371 118L327 73C320 67 312 64 304 64C300 64 296 65 292 66C280 71 272 83 272 96V208C272 226 286 240 304 240ZM304 96L416 208C416 208 416 208 416 208H304V96ZM208 272H96C83 272 71 280 66 292S64 317 73 327L118 371L21 469C14 475 14 485 21 491C27 498 37 498 43 491L141 394L185 439C192 445 200 448 208 448C212 448 216 447 220 446C232 441 240 429 240 416V304C240 286 226 272 208 272ZM208 416L96 304C96 304 96 304 96 304H208V416Z"/></svg>