<svg xmlns="http://www.w3.org/2000/svg" viewBox="0 0 384 512"><!-- Font Awesome Pro 6.0.0-alpha1 by @fontawesome - https://fontawesome.com License - https://fontawesome.com/license (Commercial License) --><path d="M165 389C172 396 182 400 192 400S212 396 219 388L342 255C352 245 355 229 349 215C343 201 329 192 314 192H256V77C256 52 236 32 211 32H173C148 32 128 52 128 77V192H70C55 192 41 201 35 215C29 229 32 245 42 255L165 389ZM64 227C65 225 67 224 70 224H160V77C160 70 166 64 173 64H211C218 64 224 70 224 77V224H314C317 224 319 225 320 227C320 229 320 232 318 234L196 367C194 368 190 368 188 367L66 233C64 232 64 229 64 227ZM368 448H16C7 448 0 455 0 464S7 480 16 480H368C377 480 384 473 384 464S377 448 368 448Z"/></svg>