<svg xmlns="http://www.w3.org/2000/svg" viewBox="0 0 448 512"><!-- Font Awesome Pro 6.0.0-alpha1 by @fontawesome - https://fontawesome.com License - https://fontawesome.com/license (Commercial License) --><path d="M384 352C378 352 372 353 366 355L334 301C345 289 352 274 352 256S345 223 334 211L366 157C372 159 378 160 384 160C419 160 448 131 448 96S419 32 384 32C354 32 329 53 322 80H126C119 53 94 32 64 32C29 32 0 61 0 96C0 126 21 151 48 158V354C21 361 0 386 0 416C0 451 29 480 64 480C94 480 119 459 126 432H322C329 459 354 480 384 480C419 480 448 451 448 416S419 352 384 352ZM80 354V158C102 152 120 134 126 112H322C325 123 331 133 338 141L306 195C300 193 294 192 288 192C253 192 224 221 224 256S253 320 288 320C294 320 300 319 306 317L338 371C331 379 325 389 322 400H126C120 378 102 360 80 354ZM288 288C270 288 256 274 256 256S270 224 288 224S320 238 320 256S306 288 288 288ZM384 64C402 64 416 78 416 96S402 128 384 128S352 114 352 96S366 64 384 64ZM32 96C32 78 46 64 64 64S96 78 96 96S82 128 64 128S32 114 32 96ZM64 448C46 448 32 434 32 416S46 384 64 384S96 398 96 416S82 448 64 448ZM384 448C366 448 352 434 352 416S366 384 384 384S416 398 416 416S402 448 384 448Z"/></svg>