<svg xmlns="http://www.w3.org/2000/svg" viewBox="0 0 512 512"><!-- Font Awesome Pro 6.0.0-alpha1 by @fontawesome - https://fontawesome.com License - https://fontawesome.com/license (Commercial License) --><path d="M512 256C512 222 486 195 453 193C433 129 383 79 319 59C317 26 290 0 256 0S195 26 193 59C129 79 79 129 59 193C26 195 0 222 0 256S26 317 59 319C79 383 129 433 193 453C195 486 222 512 256 512S317 486 319 453C383 433 433 383 453 319C486 317 512 290 512 256ZM256 32C274 32 288 46 288 64S274 96 256 96C238 96 224 82 224 64S238 32 256 32ZM32 256C32 238 46 224 64 224S96 238 96 256S82 288 64 288S32 274 32 256ZM256 480C238 480 224 466 224 448S238 416 256 416C274 416 288 430 288 448S274 480 256 480ZM314 422C304 399 282 384 256 384C230 384 208 399 198 422C148 404 108 364 91 314C113 304 128 282 128 256S113 208 90 198C108 148 148 108 198 91C208 113 230 128 256 128C282 128 304 113 314 90C364 108 404 148 421 198C399 208 384 230 384 256S399 304 422 314C404 364 364 404 314 422ZM448 288C430 288 416 274 416 256S430 224 448 224S480 238 480 256S466 288 448 288Z"/></svg>