<svg xmlns="http://www.w3.org/2000/svg" viewBox="0 0 448 512"><!-- Font Awesome Pro 6.0.0-alpha1 by @fontawesome - https://fontawesome.com License - https://fontawesome.com/license (Commercial License) --><path d="M400 354V158C427 151 448 126 448 96C448 61 419 32 384 32C354 32 329 53 322 80H126C119 53 94 32 64 32C29 32 0 61 0 96C0 126 21 151 48 158V354C21 361 0 386 0 416C0 451 29 480 64 480C94 480 119 459 126 432H322C329 459 354 480 384 480C419 480 448 451 448 416C448 386 427 361 400 354ZM322 400H126C120 378 102 360 80 354V158C102 152 120 134 126 112H322C328 134 346 152 368 158V354C346 360 328 378 322 400ZM384 64C402 64 416 78 416 96S402 128 384 128S352 114 352 96S366 64 384 64ZM32 96C32 78 46 64 64 64S96 78 96 96S82 128 64 128S32 114 32 96ZM64 448C46 448 32 434 32 416S46 384 64 384S96 398 96 416S82 448 64 448ZM384 448C366 448 352 434 352 416S366 384 384 384S416 398 416 416S402 448 384 448Z"/></svg>