<svg xmlns="http://www.w3.org/2000/svg" viewBox="0 0 448 512"><!-- Font Awesome Pro 6.0.0-alpha1 by @fontawesome - https://fontawesome.com License - https://fontawesome.com/license (Commercial License) --><path d="M443 37C437 30 427 30 421 37L301 157L218 73C211 67 202 64 194 64C185 64 177 67 170 73L20 224C7 237 0 254 0 271V413C0 450 30 480 67 480H209C226 480 243 473 256 460L407 310C420 297 420 276 407 262L323 179L443 59C450 53 450 43 443 37ZM233 438C227 444 218 448 209 448H67C48 448 32 432 32 413V271C32 262 36 253 42 247L102 187L293 378L233 438ZM384 287L315 356L124 165L193 96C193 96 193 96 194 96L195 96L384 285C385 286 385 287 384 287Z"/></svg>