<svg xmlns="http://www.w3.org/2000/svg" viewBox="0 0 320 512"><!-- Font Awesome Pro 6.0.0-alpha1 by @fontawesome - https://fontawesome.com License - https://fontawesome.com/license (Commercial License) --><path d="M187 51C183 39 171 32 160 32C149 32 137 38 133 51C91 189 0 227 0 324C0 410 72 480 160 480S320 410 320 324C320 226 229 190 187 51ZM160 448C89 448 32 392 32 324C32 283 53 255 81 216C107 180 138 137 160 73C182 137 213 181 239 216C268 255 288 283 288 324C288 392 231 448 160 448ZM128 264C128 251 117 240 104 240S80 251 80 264S91 288 104 288S128 277 128 264ZM219 261C213 254 203 254 197 261L101 357C94 363 94 373 101 379C104 382 108 384 112 384S120 382 123 379L219 283C226 277 226 267 219 261ZM216 352C203 352 192 363 192 376S203 400 216 400S240 389 240 376S229 352 216 352Z"/></svg>