<svg xmlns="http://www.w3.org/2000/svg" viewBox="0 0 448 512"><!-- Font Awesome Pro 6.0.0-alpha1 by @fontawesome - https://fontawesome.com License - https://fontawesome.com/license (Commercial License) --><path d="M192 32C181 32 169 38 165 51C123 189 32 227 32 324C32 410 104 480 192 480S352 410 352 324C352 226 261 190 219 51C215 39 203 32 192 32ZM320 324C320 392 263 448 192 448S64 392 64 324C64 283 85 255 113 216C139 180 170 137 192 73C214 137 245 181 271 216C300 255 320 283 320 324ZM352 32C317 32 288 61 288 96S317 160 352 160S416 131 416 96S387 32 352 32ZM352 128C334 128 320 114 320 96S334 64 352 64S384 78 384 96S370 128 352 128Z"/></svg>