<svg xmlns="http://www.w3.org/2000/svg" viewBox="0 0 640 512"><!-- Font Awesome Pro 6.0.0-alpha1 by @fontawesome - https://fontawesome.com License - https://fontawesome.com/license (Commercial License) --><path d="M634 483L26 3C19 -2 9 -1 3 6C-2 13 -1 23 6 29L614 509C617 511 621 512 624 512C629 512 633 510 637 506C642 499 641 489 634 483ZM320 448C329 448 336 441 336 432S329 416 320 416C276 416 240 380 240 336C240 327 233 320 224 320S208 327 208 336C208 398 258 448 320 448ZM320 36C344 114 380 165 409 207C428 234 443 256 453 279L495 312C483 216 393 170 349 22C345 7 333 0 320 0C308 0 295 7 291 22C279 60 265 92 250 119L275 139C292 110 307 77 320 36ZM320 480C241 480 176 414 176 334C176 300 187 274 204 246L179 226C159 259 144 291 144 334C144 432 223 512 320 512C375 512 425 486 457 446L431 425C405 458 365 480 320 480Z"/></svg>