<svg xmlns="http://www.w3.org/2000/svg" viewBox="0 0 512 512"><!-- Font Awesome Pro 6.0.0-alpha1 by @fontawesome - https://fontawesome.com License - https://fontawesome.com/license (Commercial License) --><path d="M415 118L505 61C512 56 514 47 509 39C505 32 495 30 488 34L372 107C335 99 295 96 256 96C133 96 0 131 0 208V368C0 430 115 480 256 480S512 430 512 368V208C512 165 472 136 415 118ZM96 421C55 405 32 385 32 368V266C49 279 71 289 96 298V421ZM240 448C197 446 159 441 128 432V306C163 314 202 319 240 320V448ZM384 432C353 441 315 446 272 448V320C311 319 349 314 384 306V432ZM480 368C480 385 457 405 416 421V298C442 289 464 279 480 266V368ZM256 288C132 288 32 252 32 208S132 128 256 128C281 128 306 129 331 132L232 194C224 199 222 209 227 216C231 223 241 226 249 221L378 141C439 155 480 180 480 208C480 252 380 288 256 288Z"/></svg>