<svg xmlns="http://www.w3.org/2000/svg" viewBox="0 0 512 512"><!-- Font Awesome Pro 6.0.0-alpha1 by @fontawesome - https://fontawesome.com License - https://fontawesome.com/license (Commercial License) --><path d="M471 58C440 22 396 1 348 0C301 -1 256 17 222 50C196 76 160 120 160 191V260L117 303C114 306 107 309 99 305C77 296 52 299 32 313C12 326 0 349 0 373C0 394 16 442 68 444C70 484 102 512 139 512C191 512 226 460 207 413C206 410 203 401 209 395L252 352H322C339 352 356 350 373 345C378 344 382 340 383 336C385 331 385 326 382 321C373 307 368 290 368 272C368 219 411 176 464 176C473 176 481 177 491 181C496 182 502 181 506 178C510 175 512 170 512 165C512 125 498 88 471 58ZM186 373C173 386 170 406 177 425C200 483 103 503 100 443L98 414L69 412C19 410 20 332 73 332C78 332 83 333 88 335C105 342 126 340 139 326L165 300C174 322 191 339 212 347L186 373ZM464 144C394 144 336 201 336 272C336 288 339 304 345 318C338 320 330 320 322 320H241C214 320 192 299 192 272V191C192 145 208 109 245 72C271 46 306 32 343 32C344 32 346 32 347 32C386 33 422 50 447 79C464 97 475 120 478 145C474 144 469 144 464 144Z"/></svg>