<svg xmlns="http://www.w3.org/2000/svg" viewBox="0 0 576 512"><!-- Font Awesome Pro 6.0.0-alpha1 by @fontawesome - https://fontawesome.com License - https://fontawesome.com/license (Commercial License) --><path d="M288 32C129 32 0 89 0 160V352C0 423 129 480 288 480S576 423 576 352V160C576 89 447 32 288 32ZM288 64C314 64 338 66 362 68L346 128C342 146 316 160 288 160S234 146 230 128L214 68C238 66 262 64 288 64ZM383 249C354 254 322 256 288 256C254 256 222 254 193 249C213 229 226 204 230 175C246 186 267 192 288 192C309 192 330 186 346 176C349 204 363 230 383 249ZM178 73L195 133C207 176 188 220 150 241C79 224 32 194 32 160C32 122 92 89 178 73ZM544 352C544 391 444 448 288 448S32 391 32 352V218C80 260 176 288 288 288S496 260 544 218V352ZM426 241C390 222 369 181 379 140L394 73C482 88 544 121 544 160C544 194 497 224 426 241Z"/></svg>