<svg xmlns="http://www.w3.org/2000/svg" viewBox="0 0 512 512"><!-- Font Awesome Pro 6.0.0-alpha1 by @fontawesome - https://fontawesome.com License - https://fontawesome.com/license (Commercial License) --><path d="M232 64C133 64 56 141 56 240C56 249 63 256 72 256S88 249 88 240C88 159 151 96 232 96C311 96 376 162 376 243C376 293 358 335 322 373L318 377L317 382C311 436 266 480 216 480C207 480 200 487 200 496S207 512 216 512C280 512 338 458 348 391C388 348 408 300 408 243C408 144 329 64 232 64ZM152 240C152 196 188 160 232 160S312 196 312 240C312 249 319 256 328 256S344 249 344 240C344 178 294 128 232 128S120 178 120 240C120 249 127 256 136 256S152 249 152 240ZM24 456C11 456 0 467 0 480C0 493 11 504 24 504C37 504 48 493 48 480C48 467 37 456 24 456ZM152 328C139 328 128 339 128 352S139 376 152 376C165 376 176 365 176 352S165 328 152 328ZM67 373C61 366 51 366 45 373S38 389 45 395L109 459C112 462 116 464 120 464S128 462 131 459C138 453 138 443 131 437L67 373ZM349 1C341 -2 332 3 329 11C326 19 331 28 339 31C419 58 472 132 472 216V224C472 233 479 240 488 240S504 233 504 224V216C504 118 442 32 349 1Z"/></svg>