<svg xmlns="http://www.w3.org/2000/svg" viewBox="0 0 512 512"><!-- Font Awesome Pro 6.0.0-alpha1 by @fontawesome - https://fontawesome.com License - https://fontawesome.com/license (Commercial License) --><path d="M256 16C123 16 16 123 16 256S123 496 256 496S496 389 496 256C496 127 390 16 256 16ZM272 80C288 80 300 68 303 54C363 67 413 107 440 160H431C414 160 400 174 400 191L400 198L388 205C385 205 379 205 373 206C340 207 326 208 320 220L316 230L334 258C340 267 350 272 360 272L368 271L368 282L349 308C346 311 345 316 344 321L339 343C329 353 320 363 312 375L299 395C294 402 282 401 279 393C274 385 272 375 272 365V335C272 318 258 304 241 304H215C204 304 195 300 187 293C180 285 176 276 176 265V251C176 239 182 228 191 220L219 200C224 196 242 187 260 196L275 203C287 209 297 206 299 205L346 189C359 185 368 173 368 159C368 142 354 128 337 128L327 128L320 121C314 115 306 112 298 112L208 113C207 102 228 111 241 92L248 80H272ZM256 464C141 464 48 371 48 256C48 146 134 55 243 49C234 50 226 55 221 63L214 75L200 78C185 81 174 94 176 116C178 132 192 145 208 145H208L298 144L304 151C310 157 318 160 327 160C327 160 327 160 327 160L337 160L289 175L275 167C265 163 254 160 243 160C227 160 212 165 200 174L172 195C155 208 144 229 144 251V265C144 284 151 302 165 315C178 329 196 336 215 336H241L240 365C240 380 243 395 250 408C257 422 272 432 289 432C304 432 318 425 326 413L339 393C345 383 353 374 361 367C366 362 370 356 371 349L375 327L394 302C398 296 400 289 400 282L400 271C400 262 396 254 390 248C384 243 368 239 360 239C355 239 393 236 394 236C397 235 400 234 402 233L415 226C426 221 433 209 432 197L432 192H449C451 192 452 192 454 191C460 212 464 233 464 256C464 371 371 464 256 464Z"/></svg>