<svg xmlns="http://www.w3.org/2000/svg" viewBox="0 0 512 512"><!-- Font Awesome Pro 6.0.0-alpha1 by @fontawesome - https://fontawesome.com License - https://fontawesome.com/license (Commercial License) --><path d="M256 16C123 16 16 123 16 256S123 496 256 496S496 389 496 256S389 16 256 16ZM208 458C116 436 48 354 48 256C48 247 49 239 50 231C55 238 59 245 63 250C69 259 76 267 84 275C95 285 107 293 120 299C133 306 154 317 168 325C173 328 176 333 176 339V371C176 384 181 396 190 405C203 417 209 436 208 445V458ZM301 399L277 463C270 464 263 464 256 464C251 464 245 464 240 463V447C242 428 230 400 213 382C210 379 208 375 208 371V339C208 321 198 305 183 297C169 289 148 277 134 270C124 265 114 259 105 250C99 245 94 239 89 232C81 221 69 203 60 188C84 118 145 64 221 51L265 96L250 111C241 120 241 134 249 144H244C237 144 232 146 227 151L217 161C210 168 208 179 212 188L216 196C209 194 202 193 194 196L163 206C152 210 144 221 144 233C144 243 150 253 159 258L170 263C181 269 193 271 205 272C208 274 211 279 214 283C225 298 228 300 236 304H307C311 304 315 306 318 309L332 322C334 325 336 329 336 333C336 341 333 349 327 354L316 366C304 377 306 386 301 399ZM314 456L331 410C337 393 333 393 340 386L350 377C361 365 368 349 368 333C368 320 363 308 354 300L341 286C332 277 319 272 307 272H246C244 270 241 266 240 264C231 253 222 240 208 240C198 240 191 237 182 233L204 226L214 234C218 238 224 240 229 240H235C243 240 251 236 256 229C260 222 260 213 256 205L244 179C248 175 246 176 253 176C259 176 265 174 270 169L278 161C287 152 287 138 279 128L288 119C294 113 297 105 297 96S294 79 288 73L263 48C333 51 394 88 430 143L415 151C408 154 403 159 399 164L380 194C371 207 371 225 380 238L398 265C403 274 411 279 421 282L461 292C447 370 389 434 314 456ZM429 251C427 250 425 249 424 247L406 220C404 218 404 214 406 211L426 182C426 181 428 180 429 179L446 171C457 197 464 226 464 256C464 257 464 258 464 260L429 251Z"/></svg>