<svg xmlns="http://www.w3.org/2000/svg" viewBox="0 0 512 512"><!-- Font Awesome Pro 6.0.0-alpha1 by @fontawesome - https://fontawesome.com License - https://fontawesome.com/license (Commercial License) --><path d="M256 16C123 16 16 123 16 256S123 496 256 496S496 389 496 256S389 16 256 16ZM48 256C48 141 141 48 256 48C272 48 288 50 303 54L259 91C252 96 247 104 248 113C248 121 254 129 261 133L272 138V202C270 202 268 201 267 201C259 201 252 205 248 211L231 240C222 240 214 243 208 249L202 255C198 260 195 266 195 272S198 285 202 289L208 295V304H186L163 259C160 252 153 247 146 246C138 245 130 247 125 253L105 272H49C48 267 48 261 48 256ZM440 353C431 370 419 386 406 400H399C395 400 391 398 388 395L375 382C368 376 359 373 349 375C328 381 328 381 324 381H314C310 381 306 379 303 376L291 365C289 363 288 361 288 359V349C288 345 290 342 294 341L333 325C335 325 337 324 338 322L362 306C364 305 365 304 367 304H379C382 304 385 306 386 309L392 322C392 323 394 324 395 324H399C401 324 402 323 403 321L407 307C408 305 409 304 411 304H417C419 304 421 306 421 308V321C421 323 422 325 423 327L435 338C440 343 440 348 440 353ZM453 311V308C453 288 437 272 417 272H411C406 272 400 273 396 276C390 273 385 272 379 272H367C358 272 350 275 344 279L320 296L282 311C266 318 256 332 256 349V359C256 369 261 379 268 387L280 399C289 408 301 413 314 413H324C328 413 332 413 336 412L354 407L365 418C368 421 372 424 376 426C342 450 301 464 256 464C158 464 76 396 54 304H105C114 304 122 301 128 295L140 283L157 318C163 329 174 336 186 336H208C226 336 240 322 240 304V295C240 286 237 278 231 272L231 272C242 272 253 266 258 257L269 238C272 239 276 240 280 240C293 240 304 229 304 216V138C304 126 297 115 286 109L339 65C412 97 464 171 464 256C464 276 461 295 456 314L453 311Z"/></svg>