<svg xmlns="http://www.w3.org/2000/svg" viewBox="0 0 640 512"><!-- Font Awesome Pro 6.0.0-alpha1 by @fontawesome - https://fontawesome.com License - https://fontawesome.com/license (Commercial License) --><path d="M256 467L208 396C205 391 200 389 194 389C193 389 192 389 191 389L107 406L123 321C124 314 122 308 116 304L45 256L116 208C122 204 124 198 123 191L107 107L191 123C198 124 204 121 208 116L256 45L281 82C286 89 297 91 304 85C304 85 304 85 305 84C311 79 312 70 307 64L269 7C266 3 261 0 256 0C251 0 246 3 243 7L187 89L89 71C84 70 79 71 75 75S70 84 71 89L89 187L7 243C3 246 0 251 0 256C0 261 3 266 7 269L89 325L70 423C70 428 71 433 75 437C79 441 84 442 89 441L187 423L243 505C246 509 251 512 256 512C261 512 266 509 269 505L307 449C312 442 310 433 304 427C304 427 304 427 304 427C297 421 286 423 281 431L256 467ZM241 171C241 171 241 171 241 170C246 158 235 145 222 149C205 155 190 164 177 177C139 215 133 271 162 320C170 332 180 342 192 350C202 356 212 360 223 363C235 367 246 354 241 342C241 342 241 342 241 341C239 337 236 334 231 332C224 330 216 327 208 322C201 318 194 311 190 304C164 260 179 220 199 199C208 191 219 184 232 180C236 179 239 175 241 171ZM448 64C342 64 256 150 256 256C256 362 342 448 448 448C554 448 640 362 640 256C640 150 554 64 448 64ZM448 416C360 416 288 344 288 256S360 96 448 96S608 168 608 256S536 416 448 416Z"/></svg>