<svg xmlns="http://www.w3.org/2000/svg" viewBox="0 0 512 512"><!-- Font Awesome Pro 6.0.0-alpha1 by @fontawesome - https://fontawesome.com License - https://fontawesome.com/license (Commercial License) --><path d="M224 168V168C184 168 152 200 152 240C152 249 159 256 168 256S184 249 184 240C184 218 202 200 224 200C233 200 240 193 240 184C240 175 233 168 224 168ZM478 150C439 110 378 104 334 68C290 32 256 0 200 0C192 0 184 1 175 2C89 16 64 82 50 159C39 224 -4 286 0 352C5 418 53 481 115 503C133 509 149 512 164 512C229 512 273 461 320 417C364 375 413 379 461 343C517 300 533 202 478 150ZM480 240C478 271 463 300 442 317C424 331 404 338 383 346C357 355 326 366 298 393C292 398 287 404 282 409C244 446 208 480 164 480C152 480 140 478 126 473C75 454 36 403 32 350C30 318 43 283 56 248C66 221 77 194 82 165C97 77 123 43 180 34C187 33 194 32 200 32C240 32 267 54 304 85L314 93C337 112 364 124 389 134C414 145 438 155 456 174C479 195 481 224 480 240ZM224 112C153 112 96 169 96 240C96 311 153 368 224 368S352 311 352 240S295 112 224 112ZM224 336C171 336 128 293 128 240S171 144 224 144S320 187 320 240S277 336 224 336Z"/></svg>