<svg xmlns="http://www.w3.org/2000/svg" viewBox="0 0 256 512"><!-- Font Awesome Pro 6.0.0-alpha1 by @fontawesome - https://fontawesome.com License - https://fontawesome.com/license (Commercial License) --><path d="M128 384C93 384 64 413 64 448S93 512 128 512S192 483 192 448S163 384 128 384ZM128 480C110 480 96 466 96 448S110 416 128 416S160 430 160 448S146 480 128 480ZM128 128C163 128 192 99 192 64S163 0 128 0S64 29 64 64S93 128 128 128ZM128 32C146 32 160 46 160 64S146 96 128 96S96 82 96 64S110 32 128 32ZM128 192C93 192 64 221 64 256S93 320 128 320S192 291 192 256S163 192 128 192ZM128 288C110 288 96 274 96 256S110 224 128 224S160 238 160 256S146 288 128 288Z"/></svg>