<svg xmlns="http://www.w3.org/2000/svg" viewBox="0 0 512 512"><!-- Font Awesome Pro 6.0.0-alpha1 by @fontawesome - https://fontawesome.com License - https://fontawesome.com/license (Commercial License) --><path d="M256 224C238 224 224 238 224 256C224 274 238 288 256 288S288 274 288 256C288 238 274 224 256 224ZM96 224C78 224 64 238 64 256C64 274 78 288 96 288S128 274 128 256C128 238 114 224 96 224ZM416 224C398 224 384 238 384 256C384 274 398 288 416 288S448 274 448 256C448 238 434 224 416 224Z"/></svg>