<svg xmlns="http://www.w3.org/2000/svg" viewBox="0 0 512 512"><!-- Font Awesome Pro 6.0.0-alpha1 by @fontawesome - https://fontawesome.com License - https://fontawesome.com/license (Commercial License) --><path d="M256 192C221 192 192 221 192 256S221 320 256 320S320 291 320 256S291 192 256 192ZM256 288C238 288 224 274 224 256S238 224 256 224S288 238 288 256S274 288 256 288ZM448 192C413 192 384 221 384 256S413 320 448 320S512 291 512 256S483 192 448 192ZM448 288C430 288 416 274 416 256S430 224 448 224S480 238 480 256S466 288 448 288ZM64 192C29 192 0 221 0 256S29 320 64 320S128 291 128 256S99 192 64 192ZM64 288C46 288 32 274 32 256S46 224 64 224S96 238 96 256S82 288 64 288Z"/></svg>