<svg xmlns="http://www.w3.org/2000/svg" viewBox="0 0 512 512"><!-- Font Awesome Pro 6.0.0-alpha1 by @fontawesome - https://fontawesome.com License - https://fontawesome.com/license (Commercial License) --><path d="M491 16C485 10 475 10 469 16L391 93C355 62 308 43 256 43C141 43 48 136 48 251C48 303 67 350 98 387L21 464C14 470 14 480 21 487C24 490 28 491 32 491S40 490 43 487L121 409C157 440 204 459 256 459C371 459 464 366 464 251C464 200 445 152 414 116L491 39C498 32 498 22 491 16ZM80 251C80 154 159 75 256 75C299 75 338 91 369 116L121 364C95 333 80 294 80 251ZM432 251C432 348 353 427 256 427C213 427 174 412 143 386L391 139C417 169 432 209 432 251Z"/></svg>