<svg xmlns="http://www.w3.org/2000/svg" viewBox="0 0 576 512"><!-- Font Awesome Pro 6.0.0-alpha1 by @fontawesome - https://fontawesome.com License - https://fontawesome.com/license (Commercial License) --><path d="M480 0C445 0 416 29 416 64S445 128 480 128S544 99 544 64S515 0 480 0ZM480 96C462 96 448 82 448 64S462 32 480 32S512 46 512 64S498 96 480 96ZM496 164H485C482 164 478 165 476 167L285 310C268 323 244 323 227 310L32 164V128C32 110 46 96 64 96H368C377 96 384 89 384 80C384 71 377 64 368 64H64C29 64 0 93 0 128V384C0 419 29 448 64 448H448C483 448 512 419 512 384V180C512 171 505 164 496 164ZM480 384C480 402 466 416 448 416H64C46 416 32 402 32 384V204L208 336C222 347 239 352 256 352S290 347 304 336L480 204V384Z"/></svg>