<svg xmlns="http://www.w3.org/2000/svg" viewBox="0 0 512 512"><!-- Font Awesome Pro 6.0.0-alpha1 by @fontawesome - https://fontawesome.com License - https://fontawesome.com/license (Commercial License) --><path d="M496 192C487 192 480 199 480 208V464C480 473 473 480 464 480H48C39 480 32 473 32 464V208C32 199 25 192 16 192S0 199 0 208V464C0 490 22 512 48 512H464C490 512 512 490 512 464V208C512 199 505 192 496 192ZM65 276C65 277 65 278 66 279C66 280 67 281 67 282C68 282 69 283 70 284C70 284 70 285 71 285L203 383C219 394 237 400 256 400S293 394 309 383L441 285C442 285 442 284 442 284C443 283 444 282 445 282C445 281 446 280 446 279C447 278 447 277 447 276C447 275 448 274 448 273C448 273 448 272 448 272V48C448 22 426 0 400 0H112C86 0 64 22 64 48V272C64 272 64 273 64 273C64 274 65 275 65 276ZM96 48C96 39 103 32 112 32H400C409 32 416 39 416 48V264L290 357C270 371 242 371 222 357L96 264V48ZM240 272V288C240 297 247 304 256 304S272 297 272 288V272C272 271 272 271 272 270C294 267 310 254 314 234C321 194 283 183 260 177L255 175C228 167 229 162 230 156C232 145 249 142 265 145C270 146 277 148 283 150C291 153 300 148 303 140C306 132 302 123 293 120C285 117 278 115 272 114C272 113 272 113 272 112V96C272 87 265 80 256 80S240 87 240 96V112C240 112 240 113 240 113C218 117 202 130 198 150C191 190 230 201 246 206L252 207C280 216 284 219 282 228C280 239 263 242 247 239C240 238 231 235 223 232L219 230C210 227 201 232 198 240C195 248 200 258 208 260L212 262C221 265 231 268 240 270C240 271 240 271 240 272Z"/></svg>