<svg xmlns="http://www.w3.org/2000/svg" viewBox="0 0 640 512"><!-- Font Awesome Pro 6.0.0-alpha1 by @fontawesome - https://fontawesome.com License - https://fontawesome.com/license (Commercial License) --><path d="M80 160C89 160 96 153 96 144V64C96 46 110 32 128 32H384C402 32 416 46 416 64H448C448 29 419 0 384 0H128C93 0 64 29 64 64V144C64 153 71 160 80 160ZM576 96H256C221 96 192 125 192 160H224C224 142 238 128 256 128H576C594 128 608 142 608 160V352C608 370 594 384 576 384H432C423 384 416 391 416 400C416 409 423 416 432 416H576C611 416 640 387 640 352V160C640 125 611 96 576 96ZM560 256C569 256 576 249 576 240V176C576 167 569 160 560 160H496C487 160 480 167 480 176V240C480 249 487 256 496 256H560ZM512 192H544V224H512V192ZM320 192H64C29 192 0 221 0 256V448C0 483 29 512 64 512H320C355 512 384 483 384 448V256C384 221 355 192 320 192ZM352 448C352 466 338 480 320 480H64C46 480 32 466 32 448V314C45 323 64 339 128 384C141 394 166 416 192 416S243 394 256 384C320 339 339 323 352 314V448ZM352 275C326 294 330 294 237 362C227 365 208 384 192 384S157 365 147 358C54 291 58 291 32 272V256C32 238 46 224 64 224H320C338 224 352 238 352 256V275Z"/></svg>