<svg xmlns="http://www.w3.org/2000/svg" viewBox="0 0 512 512"><!-- Font Awesome Pro 6.0.0-alpha1 by @fontawesome - https://fontawesome.com License - https://fontawesome.com/license (Commercial License) --><path d="M494 163C469 143 448 128 329 41C313 29 280 0 256 0C256 0 256 0 256 0C256 0 256 0 256 0C232 0 199 29 183 41C64 128 43 143 18 163C7 172 0 186 0 201V464C0 490 22 512 48 512H464C490 512 512 490 512 464V201C512 186 505 172 494 163ZM480 464C480 473 473 480 464 480H48C39 480 32 473 32 464V201C32 196 34 191 38 188C62 170 81 155 202 67C204 65 208 62 212 59C221 52 246 33 256 32C266 33 291 52 300 59C304 62 307 65 311 67C431 155 450 170 474 188C478 191 480 196 480 201V464ZM423 259L290 357C270 371 242 371 222 357L89 259C82 254 72 255 67 263C62 270 63 280 71 285L203 383C219 394 237 400 256 400S293 394 309 383L441 285C449 280 450 270 445 263C440 255 430 254 423 259Z"/></svg>