<svg xmlns="http://www.w3.org/2000/svg" viewBox="0 0 384 512"><!-- Font Awesome Pro 6.0.0-alpha1 by @fontawesome - https://fontawesome.com License - https://fontawesome.com/license (Commercial License) --><path d="M351 450C354 458 349 467 341 470C320 477 299 480 277 480C181 480 99 412 73 320H48C39 320 32 313 32 304S39 288 48 288H66C65 278 64 267 64 256C64 246 65 237 66 227H48C39 227 32 220 32 211S39 195 48 195H72C98 101 180 32 277 32C299 32 320 35 341 42C349 45 354 54 351 62S339 75 331 73C314 67 296 64 277 64C197 64 130 119 106 195H288C297 195 304 202 304 211S297 227 288 227H98C97 237 96 246 96 256C96 267 97 278 99 288H272C281 288 288 295 288 304S281 320 272 320H107C132 394 199 448 277 448C296 448 314 445 331 439C339 437 348 441 351 450Z"/></svg>