<svg xmlns="http://www.w3.org/2000/svg" viewBox="0 0 512 512"><!-- Font Awesome Pro 6.0.0-alpha1 by @fontawesome - https://fontawesome.com License - https://fontawesome.com/license (Commercial License) --><path d="M144 64H16C7 64 0 71 0 80V208C0 217 7 224 16 224S32 217 32 208V96H144C153 96 160 89 160 80S153 64 144 64ZM144 416H32V304C32 295 25 288 16 288S0 295 0 304V432C0 441 7 448 16 448H144C153 448 160 441 160 432S153 416 144 416ZM496 288C487 288 480 295 480 304V416H368C359 416 352 423 352 432S359 448 368 448H496C505 448 512 441 512 432V304C512 295 505 288 496 288ZM496 64H368C359 64 352 71 352 80S359 96 368 96H480V208C480 217 487 224 496 224S512 217 512 208V80C512 71 505 64 496 64Z"/></svg>