<svg xmlns="http://www.w3.org/2000/svg" viewBox="0 0 512 512"><!-- Font Awesome Pro 6.0.0-alpha1 by @fontawesome - https://fontawesome.com License - https://fontawesome.com/license (Commercial License) --><path d="M187 204C181 198 171 198 165 204L54 315C40 329 32 349 32 369V407L2 456C-1 462 -1 470 5 476L36 507C39 510 44 512 48 512C51 512 53 511 56 510L105 480H143C163 480 182 472 197 458L307 347C314 341 314 331 307 324L187 204ZM174 435C166 444 155 448 143 448H100C97 448 94 449 92 450L50 476L36 462L61 420C63 417 64 414 64 412V369C64 357 68 346 77 338L176 238L273 336L174 435ZM481 30C441 -10 371 -10 331 30L216 145L203 132C197 126 187 126 181 132C174 138 174 148 181 155L357 331C360 334 364 336 368 336S376 334 379 331C386 325 386 315 379 308L366 295L481 180C522 139 522 71 481 30ZM458 158L344 273L239 168L354 53C382 25 430 25 458 53C487 82 487 129 458 158Z"/></svg>