<svg xmlns="http://www.w3.org/2000/svg" viewBox="0 0 640 512"><!-- Font Awesome Pro 6.0.0-alpha1 by @fontawesome - https://fontawesome.com License - https://fontawesome.com/license (Commercial License) --><path d="M627 239L515 209C510 202 505 195 499 189C500 186 554 100 554 100C563 86 548 69 532 75L412 118C402 113 392 109 381 106L337 11C334 4 327 0 320 0S307 4 303 11L259 106C248 109 238 113 228 118C98 71 106 74 102 74C88 74 78 88 86 100C86 100 140 186 141 189C135 195 130 202 125 209L13 239C-4 244 -4 268 13 273L125 303C130 310 135 317 141 324C140 326 86 412 86 412C77 426 92 443 108 437L228 394C238 399 248 403 259 406L303 501C307 508 313 512 320 512S334 508 337 501L381 406C392 403 402 399 412 394L532 437C548 443 563 426 554 412C554 412 500 326 499 323C505 316 510 310 515 303L627 273C644 268 644 244 627 239ZM496 275C481 296 483 293 459 321L505 393L410 359C385 371 386 371 358 380L320 462L282 380C254 371 255 371 230 359L135 393L181 321C157 293 159 296 144 275L73 256L144 237C159 216 157 219 181 191L135 119L230 153C255 141 254 141 282 132L320 50L358 132C386 141 385 141 410 153L505 119L459 191C483 219 481 216 496 237L567 256L496 275ZM391 201C387 201 384 201 380 203C362 209 342 213 320 213C298 213 278 209 259 203C256 201 253 201 249 201C235 201 222 210 219 224C216 238 215 253 218 268C226 310 260 344 302 351C308 352 314 352 320 352C378 352 424 306 424 248C424 241 423 234 422 227C419 212 405 201 391 201ZM320 320C316 320 312 320 308 319C279 314 255 290 249 262C247 252 248 242 249 233C267 239 285 243 304 244V272C304 281 311 288 320 288S336 281 336 272V244C355 243 374 239 391 234C392 238 392 243 392 248C392 288 360 320 320 320Z"/></svg>