<svg xmlns="http://www.w3.org/2000/svg" viewBox="0 0 576 512"><!-- Font Awesome Pro 6.0.0-alpha1 by @fontawesome - https://fontawesome.com License - https://fontawesome.com/license (Commercial License) --><path d="M288 128C217 128 160 185 160 256S217 384 288 384H288C359 384 416 327 416 256V256C416 185 359 128 288 128ZM288 352C235 352 192 309 192 256S235 160 288 160C341 160 384 203 384 256C384 309 341 352 288 352ZM573 239C518 116 411 32 288 32S58 116 3 239C2 243 0 251 0 256C0 261 2 269 3 273C58 396 165 480 288 480S518 396 573 273C574 269 576 261 576 256C576 251 574 243 573 239ZM543 260C492 376 395 448 288 448C181 448 84 376 33 261C33 260 32 257 32 256C32 255 33 252 33 252C84 136 181 64 288 64C395 64 492 136 543 251C543 252 544 255 544 256C544 257 543 260 543 260Z"/></svg>