<svg xmlns="http://www.w3.org/2000/svg" viewBox="0 0 512 512"><!-- Font Awesome Pro 6.0.0-alpha1 by @fontawesome - https://fontawesome.com License - https://fontawesome.com/license (Commercial License) --><path d="M130 247C133 253 138 256 144 256C146 256 149 255 151 254L215 222C221 220 224 214 224 208S221 196 215 194L151 162C143 158 134 161 130 169S129 186 137 190L172 208L137 226C129 230 126 239 130 247ZM382 169C378 161 369 158 361 162L297 194C291 196 288 202 288 208S291 220 297 222L361 254C363 255 366 256 368 256C374 256 380 253 382 247C386 239 383 230 375 226L340 208L375 190C383 186 386 177 382 169ZM256 16C124 16 16 124 16 256C16 334 54 408 119 453C126 458 136 456 141 449C146 442 144 432 137 427C81 388 48 324 48 256C48 141 141 48 256 48S464 141 464 256C464 324 431 388 375 427C368 432 366 442 371 449C374 453 379 456 384 456C387 456 390 455 393 453C458 408 496 334 496 256C496 124 388 16 256 16ZM306 370C304 370 301 370 299 371L256 382L214 371C211 370 209 370 206 370C190 370 176 383 176 400V432C176 476 212 512 256 512C300 512 336 476 336 432V400C336 383 322 370 306 370ZM304 432C304 459 283 480 256 480S208 459 208 432V403L240 410V424C240 433 247 440 256 440S272 433 272 424V410L304 402V432ZM383 373L399 325C401 320 400 313 396 309C392 305 386 303 380 304C299 325 213 325 132 304C126 303 120 305 116 309C112 313 111 320 113 325L129 373C132 381 141 386 149 383C157 380 162 371 159 363L152 342C221 355 291 355 360 342L353 363C350 371 355 380 363 383C365 384 366 384 368 384C375 384 381 380 383 373Z"/></svg>