<svg xmlns="http://www.w3.org/2000/svg" viewBox="0 0 512 512"><!-- Font Awesome Pro 6.0.0-alpha1 by @fontawesome - https://fontawesome.com License - https://fontawesome.com/license (Commercial License) --><path d="M213 223C222 220 226 211 223 203C214 177 190 160 163 160S111 177 102 203C99 211 104 220 112 223C121 226 130 222 133 213C137 201 149 192 163 192S188 201 193 213C195 220 201 224 208 224C210 224 212 224 213 223ZM256 16C123 16 16 123 16 256S123 496 256 496S496 389 496 256S389 16 256 16ZM368 431V256C368 247 361 240 352 240S336 247 336 256V448C311 458 284 464 256 464S201 458 176 448V256C176 247 169 240 160 240S144 247 144 256V431C86 394 48 329 48 256C48 141 141 48 256 48S464 141 464 256C464 329 426 394 368 431ZM415 203C406 177 382 160 355 160S303 177 294 203C291 211 296 220 304 223C313 226 322 222 325 213C329 201 341 192 355 192S380 201 385 213C387 220 393 224 400 224C402 224 404 224 405 223C414 220 418 211 415 203ZM256 288C229 288 208 316 208 352S229 416 256 416S304 388 304 352S283 288 256 288ZM256 384C250 384 240 371 240 352S250 320 256 320S272 333 272 352S262 384 256 384Z"/></svg>