<svg xmlns="http://www.w3.org/2000/svg" viewBox="0 0 512 512"><!-- Font Awesome Pro 6.0.0-alpha1 by @fontawesome - https://fontawesome.com License - https://fontawesome.com/license (Commercial License) --><path d="M391 272H121C111 272 104 280 105 290C114 361 174 416 248 416H264C337 416 398 361 407 290C408 280 401 272 391 272ZM264 384H248C198 384 155 351 141 304H371C357 351 314 384 264 384ZM256 16C123 16 16 123 16 256S123 496 256 496S496 389 496 256S389 16 256 16ZM256 464C141 464 48 371 48 256S141 48 256 48S464 141 464 256S371 464 256 464ZM130 215C133 221 138 224 144 224C146 224 149 223 151 222L215 190C221 188 224 182 224 176S221 164 215 162L151 130C143 126 134 129 130 137S129 154 137 158L172 176L137 194C129 198 126 207 130 215ZM297 190L361 222C363 223 366 224 368 224C374 224 380 221 382 215C386 207 383 198 375 194L340 176L375 158C383 154 386 145 382 137C378 129 369 126 361 130L297 162C291 164 288 170 288 176S291 188 297 190Z"/></svg>