<svg xmlns="http://www.w3.org/2000/svg" viewBox="0 0 512 512"><!-- Font Awesome Pro 6.0.0-alpha1 by @fontawesome - https://fontawesome.com License - https://fontawesome.com/license (Commercial License) --><path d="M176 152C152 152 123 181 120 223C120 227 122 231 126 232C129 233 133 231 135 228L144 211C152 197 164 189 176 189C188 189 200 197 207 211L217 228C219 232 223 233 226 232C230 231 232 227 232 223C229 181 200 152 176 152ZM277 344C299 335 312 321 312 308C312 289 283 266 241 264C237 264 233 266 232 270C231 274 233 278 237 279L254 287C267 292 275 300 275 308S267 324 254 330L237 337C231 339 231 349 237 352L254 359C267 364 275 372 275 380S267 396 254 402L237 409C233 411 231 414 232 418C233 422 236 424 240 424H241C283 422 312 400 312 380C312 367 299 353 277 344ZM336 152C312 152 283 181 280 223C280 227 282 231 286 232C289 233 293 231 295 228L304 211C312 197 324 189 336 189C348 189 360 197 367 211L377 228C379 232 383 233 386 232C390 231 392 227 392 223C389 181 360 152 336 152ZM256 16C123 16 16 123 16 256S123 496 256 496S496 389 496 256S389 16 256 16ZM256 464C141 464 48 371 48 256S141 48 256 48S464 141 464 256S371 464 256 464Z"/></svg>