<svg xmlns="http://www.w3.org/2000/svg" viewBox="0 0 512 512"><!-- Font Awesome Pro 6.0.0-alpha1 by @fontawesome - https://fontawesome.com License - https://fontawesome.com/license (Commercial License) --><path d="M130 247C133 253 138 256 144 256C146 256 149 255 151 254L215 222C221 220 224 214 224 208S221 196 215 194L151 162C143 158 134 161 130 169S129 186 137 190L172 208L137 226C129 230 126 239 130 247ZM297 222L361 254C363 255 366 256 368 256C374 256 380 253 382 247C386 239 383 230 375 226L340 208L375 190C383 186 386 177 382 169C378 161 369 158 361 162L297 194C291 196 288 202 288 208S291 220 297 222ZM256 16C123 16 16 123 16 256S123 496 256 496S496 389 496 256S389 16 256 16ZM256 464C141 464 48 371 48 256S141 48 256 48S464 141 464 256S371 464 256 464ZM379 305C349 314 304 320 256 320S163 314 133 305C128 303 122 304 118 308C113 312 111 317 112 323C121 378 195 416 256 416C317 416 391 378 400 323C401 317 399 312 395 308C390 304 384 303 379 305ZM256 384C221 384 179 368 158 344C215 354 297 354 355 344C333 368 291 384 256 384Z"/></svg>