<svg xmlns="http://www.w3.org/2000/svg" viewBox="0 0 512 512"><!-- Font Awesome Pro 6.0.0-alpha1 by @fontawesome - https://fontawesome.com License - https://fontawesome.com/license (Commercial License) --><path d="M384 304C383 304 381 304 379 305C349 314 304 320 256 320S163 314 133 305C131 304 130 304 128 304C119 304 111 313 112 323C121 378 195 416 256 416C317 416 391 378 400 323C402 313 393 304 384 304ZM331 363C308 376 280 384 256 384S204 376 181 363C172 357 164 350 158 344C186 349 221 352 256 352C291 352 325 349 354 344C348 350 340 357 331 363ZM256 16C123 16 16 123 16 256S123 496 256 496S496 389 496 256S389 16 256 16ZM256 464C141 464 48 371 48 256S141 48 256 48S464 141 464 256S371 464 256 464ZM285 239C294 242 303 238 306 229C310 217 322 208 336 208S362 217 366 229C369 236 375 240 381 240C383 240 385 240 387 239C395 236 399 227 396 219C387 193 363 176 336 176S285 193 276 219C273 227 277 236 285 239ZM176 232C189 232 200 221 200 208S189 184 176 184C163 184 152 195 152 208S163 232 176 232Z"/></svg>