<svg xmlns="http://www.w3.org/2000/svg" viewBox="0 0 512 512"><!-- Font Awesome Pro 6.0.0-alpha1 by @fontawesome - https://fontawesome.com License - https://fontawesome.com/license (Commercial License) --><path d="M176 232C189 232 200 221 200 208S189 184 176 184C163 184 152 195 152 208S163 232 176 232ZM336 232C349 232 360 221 360 208S349 184 336 184C323 184 312 195 312 208S323 232 336 232ZM256 320C212 320 170 340 141 374C136 381 136 391 143 396C150 402 160 401 166 394C188 368 221 352 256 352S324 368 346 394C351 401 362 402 369 396C375 391 376 381 371 374C342 340 300 320 256 320ZM256 16C123 16 16 123 16 256S123 496 256 496S496 389 496 256S389 16 256 16ZM256 464C141 464 48 371 48 256S141 48 256 48S464 141 464 256S371 464 256 464Z"/></svg>