<svg xmlns="http://www.w3.org/2000/svg" viewBox="0 0 640 512"><!-- Font Awesome Pro 6.0.0-alpha1 by @fontawesome - https://fontawesome.com License - https://fontawesome.com/license (Commercial License) --><path d="M624 80H560V16C560 7 553 0 544 0S528 7 528 16V80H464C455 80 448 87 448 96S455 112 464 112H528V176C528 185 535 192 544 192S560 185 560 176V112H624C633 112 640 105 640 96S633 80 624 80ZM224 64C100 64 0 164 0 288C0 412 100 512 224 512S448 412 448 288C448 164 348 64 224 64ZM224 480C118 480 32 394 32 288S118 96 224 96S416 182 416 288S330 480 224 480ZM144 264C157 264 168 253 168 240C168 227 157 216 144 216S120 227 120 240C120 253 131 264 144 264ZM304 264C317 264 328 253 328 240C328 227 317 216 304 216S280 227 280 240C280 253 291 264 304 264ZM342 321C334 318 324 322 321 330C305 373 267 400 224 400S143 373 127 330C124 322 115 318 106 321C98 324 94 333 97 342C118 397 168 432 224 432S330 397 351 342C354 333 350 324 342 321Z"/></svg>