<svg xmlns="http://www.w3.org/2000/svg" viewBox="0 0 512 512"><!-- Font Awesome Pro 6.0.0-alpha1 by @fontawesome - https://fontawesome.com License - https://fontawesome.com/license (Commercial License) --><path d="M336 232C349 232 360 221 360 208S349 184 336 184C323 184 312 195 312 208S323 232 336 232ZM176 232C189 232 200 221 200 208S189 184 176 184C163 184 152 195 152 208S163 232 176 232ZM256 16C123 16 16 123 16 256S123 496 256 496S496 389 496 256S389 16 256 16ZM256 464C141 464 48 371 48 256S141 48 256 48S464 141 464 256S371 464 256 464ZM184 256L184 256C179 256 174 259 171 263C155 288 128 332 128 355C128 389 153 416 184 416S240 389 240 355C240 332 213 288 197 263C194 259 189 256 184 256ZM184 384C171 384 160 371 160 355C160 350 167 332 184 302C201 332 208 350 208 355C208 371 197 384 184 384ZM290 320H272C263 320 256 327 256 336S263 352 272 352H290C318 352 344 362 355 378C358 382 363 384 368 384C371 384 375 383 378 381C385 375 386 365 381 358C363 335 328 320 290 320Z"/></svg>