<svg xmlns="http://www.w3.org/2000/svg" viewBox="0 0 640 512"><!-- Font Awesome Pro 6.0.0-alpha1 by @fontawesome - https://fontawesome.com License - https://fontawesome.com/license (Commercial License) --><path d="M443 305C413 315 368 320 320 320S227 315 197 305C192 303 186 304 182 308C177 312 175 317 176 323C185 378 259 416 320 416C381 416 455 378 464 323C465 317 463 312 459 308C454 304 448 303 443 305ZM320 384C285 384 243 368 222 344C279 355 361 355 419 344C397 368 355 384 320 384ZM320 16C187 16 80 123 80 256S187 496 320 496S560 389 560 256S453 16 320 16ZM320 464C205 464 112 371 112 256S205 48 320 48S528 141 528 256S435 464 320 464ZM240 232C253 232 264 221 264 208S253 184 240 184C227 184 216 195 216 208S227 232 240 232ZM400 232C413 232 424 221 424 208S413 184 400 184C387 184 376 195 376 208S387 232 400 232Z"/></svg>