<svg xmlns="http://www.w3.org/2000/svg" viewBox="0 0 512 512"><!-- Font Awesome Pro 6.0.0-alpha1 by @fontawesome - https://fontawesome.com License - https://fontawesome.com/license (Commercial License) --><path d="M320 368H192C183 368 176 375 176 384S183 400 192 400H320C329 400 336 393 336 384S329 368 320 368ZM232 224C232 184 200 152 160 152C120 152 88 184 88 224S120 296 160 296C200 296 232 264 232 224ZM160 264C138 264 120 246 120 224C120 210 127 199 138 192C137 194 136 197 136 200C136 213 147 224 160 224S184 213 184 200C184 197 183 194 182 192C193 199 200 210 200 224C200 246 182 264 160 264ZM352 152C312 152 280 184 280 224S312 296 352 296C392 296 424 264 424 224S392 152 352 152ZM352 264C330 264 312 246 312 224C312 210 319 199 330 192C329 194 328 197 328 200C328 213 339 224 352 224S376 213 376 200C376 197 375 194 374 192C385 199 392 210 392 224C392 246 374 264 352 264ZM256 16C123 16 16 123 16 256S123 496 256 496S496 389 496 256S389 16 256 16ZM256 464C141 464 48 371 48 256S141 48 256 48S464 141 464 256S371 464 256 464Z"/></svg>