<svg xmlns="http://www.w3.org/2000/svg" viewBox="0 0 512 512"><!-- Font Awesome Pro 6.0.0-alpha1 by @fontawesome - https://fontawesome.com License - https://fontawesome.com/license (Commercial License) --><path d="M256 288C216 288 153 312 144 362C143 373 147 385 155 392S175 402 185 399C215 390 242 384 256 384S297 390 327 399C334 401 347 401 357 392C365 385 369 373 368 362C359 312 296 288 256 288ZM256 352C238 352 209 358 176 368C181 338 226 320 256 320S331 338 336 368C303 358 274 352 256 352ZM256 16C123 16 16 123 16 256S123 496 256 496S496 389 496 256S389 16 256 16ZM256 464C141 464 48 371 48 256S141 48 256 48S464 141 464 256S371 464 256 464ZM176 232C189 232 200 221 200 208S189 184 176 184C163 184 152 195 152 208S163 232 176 232ZM336 232C349 232 360 221 360 208S349 184 336 184C323 184 312 195 312 208S323 232 336 232Z"/></svg>