<svg xmlns="http://www.w3.org/2000/svg" viewBox="0 0 512 512"><!-- Font Awesome Pro 6.0.0-alpha1 by @fontawesome - https://fontawesome.com License - https://fontawesome.com/license (Commercial License) --><path d="M126 232C129 233 133 231 135 228L144 211C152 197 164 189 176 189C188 189 200 197 207 211L217 228C219 232 223 233 226 232C230 231 232 227 232 223C229 181 200 152 176 152C152 152 123 181 120 223C120 227 122 231 126 232ZM379 305C349 314 304 320 256 320S163 314 133 305C128 303 122 304 118 308C113 312 111 317 112 323C121 378 195 416 256 416C317 416 391 378 400 323C401 317 399 312 395 308C390 304 384 303 379 305ZM256 384C221 384 179 368 158 344C215 354 297 354 355 344C333 368 291 384 256 384ZM286 232C289 233 293 231 295 228L305 211C312 197 324 189 336 189C348 189 360 197 368 211L377 228C379 232 383 233 386 232C390 231 392 227 392 223C389 181 360 152 336 152C312 152 283 181 280 223C280 227 282 231 286 232ZM256 16C123 16 16 123 16 256S123 496 256 496S496 389 496 256S389 16 256 16ZM256 464C141 464 48 371 48 256S141 48 256 48S464 141 464 256S371 464 256 464Z"/></svg>