<svg xmlns="http://www.w3.org/2000/svg" viewBox="0 0 512 512"><!-- Font Awesome Pro 6.0.0-alpha1 by @fontawesome - https://fontawesome.com License - https://fontawesome.com/license (Commercial License) --><path d="M135 212L144 195C152 181 164 173 176 173C188 173 200 181 207 195L217 212C221 219 233 216 232 207C229 165 200 136 176 136C152 136 123 165 120 207C119 216 131 219 135 212ZM295 212L305 195C312 181 324 173 336 173C348 173 360 181 368 195L377 212C381 219 393 216 392 207C389 165 360 136 336 136C312 136 283 165 280 207C279 216 291 219 295 212ZM391 272H121C111 272 104 280 105 290C114 361 174 416 248 416H264C337 416 398 361 407 290C408 280 401 272 391 272ZM264 384H248C198 384 155 351 141 304H371C357 351 314 384 264 384ZM256 16C123 16 16 123 16 256S123 496 256 496S496 389 496 256S389 16 256 16ZM256 464C141 464 48 371 48 256S141 48 256 48S464 141 464 256S371 464 256 464Z"/></svg>