<svg xmlns="http://www.w3.org/2000/svg" viewBox="0 0 512 512"><!-- Font Awesome Pro 6.0.0-alpha1 by @fontawesome - https://fontawesome.com License - https://fontawesome.com/license (Commercial License) --><path d="M346 326C324 353 291 368 256 368S188 353 166 326C152 310 128 330 141 346C170 380 212 400 256 400S342 380 371 346C384 330 360 310 346 326ZM176 232C189 232 200 221 200 208S189 184 176 184C163 184 152 195 152 208S163 232 176 232ZM256 16C123 16 16 123 16 256S123 496 256 496S496 389 496 256S389 16 256 16ZM256 464C141 464 48 371 48 256S141 48 256 48S464 141 464 256S371 464 256 464ZM336 176C309 176 285 193 276 219C273 227 277 236 285 239C294 242 303 238 306 229C310 217 322 208 336 208S362 217 366 229C369 236 375 240 381 240C383 240 385 240 387 239C395 236 399 227 396 219C387 193 363 176 336 176Z"/></svg>