<svg xmlns="http://www.w3.org/2000/svg" viewBox="0 0 512 512"><!-- Font Awesome Pro 6.0.0-alpha1 by @fontawesome - https://fontawesome.com License - https://fontawesome.com/license (Commercial License) --><path d="M240 224C240 180 204 144 160 144S80 180 80 224S116 304 160 304S240 268 240 224ZM160 272C133 272 112 250 112 224S133 176 160 176S208 198 208 224S186 272 160 272ZM320 368H192C183 368 176 375 176 384S183 400 192 400H320C329 400 336 393 336 384S329 368 320 368ZM160 200C147 200 136 211 136 224S147 248 160 248S184 237 184 224S173 200 160 200ZM352 200C339 200 328 211 328 224S339 248 352 248S376 237 376 224S365 200 352 200ZM352 144C308 144 272 180 272 224S308 304 352 304S432 268 432 224S396 144 352 144ZM352 272C326 272 304 250 304 224S326 176 352 176S400 198 400 224S379 272 352 272ZM256 16C123 16 16 123 16 256S123 496 256 496S496 389 496 256S389 16 256 16ZM256 464C141 464 48 371 48 256S141 48 256 48S464 141 464 256S371 464 256 464Z"/></svg>