<svg xmlns="http://www.w3.org/2000/svg" viewBox="0 0 512 512"><!-- Font Awesome Pro 6.0.0-alpha1 by @fontawesome - https://fontawesome.com License - https://fontawesome.com/license (Commercial License) --><path d="M256 8C119 8 8 119 8 256S119 504 256 504S504 393 504 256S393 8 256 8ZM256 472C137 472 40 375 40 256S137 40 256 40S472 137 472 256S375 472 256 472ZM379 321C349 330 304 336 256 336S163 330 133 321C121 317 110 327 112 339C121 394 195 432 256 432S391 394 400 339C402 327 391 317 379 321ZM256 400C221 400 179 384 158 360C215 370 297 370 355 360C333 384 291 400 256 400ZM418 148L383 143L367 111C357 92 331 92 321 111L305 143L270 148C264 149 260 152 256 155C252 152 248 149 242 148L207 143L191 111C182 92 155 92 145 111L129 143L94 148C74 151 64 176 80 192L105 217L99 252C96 274 119 289 136 279L168 262L199 278C218 289 240 273 237 252L231 217L256 192L281 217L275 252C272 274 295 289 312 279L344 262L376 278C394 289 416 273 413 252L407 217L433 191C447 177 439 151 418 148ZM196 206L203 244L168 226L133 244L140 205L111 178L151 172L168 137L186 172L225 178L196 206ZM372 206L379 244L344 226L309 244L316 205L287 178L326 172L344 137L361 172L401 178L372 206Z"/></svg>