<svg xmlns="http://www.w3.org/2000/svg" viewBox="0 0 512 512"><!-- Font Awesome Pro 6.0.0-alpha1 by @fontawesome - https://fontawesome.com License - https://fontawesome.com/license (Commercial License) --><path d="M346 120C328 120 310 122 293 126L302 34C303 26 300 17 294 10C288 4 279 0 270 0C269 0 268 0 266 0C183 11 120 82 120 166C120 184 122 202 126 219L34 210H33L31 210C22 210 14 214 8 221C2 227 -1 237 0 246C11 329 82 392 165 392C184 392 202 390 219 386L210 478C209 486 212 495 218 502C225 509 235 513 245 512C329 501 392 430 392 346C392 328 390 310 386 293L478 302H478L481 302C490 302 498 298 504 291C510 285 513 275 512 266C501 183 430 120 346 120ZM340 256L349 280C356 300 360 322 360 346C360 414 309 471 242 481L256 340L232 349C212 356 189 360 165 360C98 360 41 309 31 242L172 256L163 232C156 212 152 190 152 166C152 98 203 41 270 32L256 172L280 163C300 156 322 152 346 152C414 152 471 203 481 270L340 256ZM256 232C243 232 232 243 232 256S243 280 256 280C269 280 280 269 280 256S269 232 256 232Z"/></svg>