<svg xmlns="http://www.w3.org/2000/svg" viewBox="0 0 576 512"><!-- Font Awesome Pro 6.0.0-alpha1 by @fontawesome - https://fontawesome.com License - https://fontawesome.com/license (Commercial License) --><path d="M32 160V117C32 75 62 37 104 32C139 29 174 49 188 86C191 94 192 103 192 112V118C198 107 209 97 221 92C210 43 170 3 118 0C87 -2 57 10 35 31C13 52 0 81 0 112V496C0 505 7 512 16 512S32 505 32 496V192H155L171 160H32ZM416 384H320C302 384 288 398 288 416V496C288 505 295 512 304 512S320 505 320 496V416H416V496C416 505 423 512 432 512S448 505 448 496V416C448 398 434 384 416 384ZM400 304C418 304 432 290 432 272V208C432 190 418 176 400 176H336C318 176 304 190 304 208V272C304 290 318 304 336 304H400ZM336 208H400V272H336V208ZM573 246L517 135C514 129 508 123 502 120L381 67C373 63 363 63 355 67L234 120C228 123 221 131 219 135L163 246C161 251 160 256 160 261V496C160 505 167 512 176 512S192 505 192 496V261L247 150L368 96L489 150L544 261V496C544 505 551 512 560 512S576 505 576 496V261C576 256 575 251 573 246Z"/></svg>