<svg xmlns="http://www.w3.org/2000/svg" viewBox="0 0 512 512"><!-- Font Awesome Pro 6.0.0-alpha1 by @fontawesome - https://fontawesome.com License - https://fontawesome.com/license (Commercial License) --><path d="M464 192H176C170 192 165 193 160 195V64C160 46 174 32 192 32H409L448 71V144C448 153 455 160 464 160S480 153 480 144V71C480 62 477 54 471 48L432 9C426 3 418 0 409 0H192C157 0 128 29 128 64V131C123 129 118 128 112 128H48C22 128 0 150 0 176V464C0 490 22 512 48 512H112C124 512 135 507 144 500C153 507 164 512 176 512H464C490 512 512 490 512 464V240C512 214 490 192 464 192ZM128 464C128 473 121 480 112 480H48C39 480 32 473 32 464V176C32 167 39 160 48 160H112C121 160 128 167 128 176V464ZM480 464C480 473 473 480 464 480H176C167 480 160 473 160 464V240C160 231 167 224 176 224H464C473 224 480 231 480 240V464ZM272 280C259 280 248 291 248 304S259 328 272 328S296 317 296 304S285 280 272 280ZM272 376C259 376 248 387 248 400S259 424 272 424S296 413 296 400S285 376 272 376ZM368 280C355 280 344 291 344 304S355 328 368 328S392 317 392 304S381 280 368 280ZM368 376C355 376 344 387 344 400S355 424 368 424S392 413 392 400S381 376 368 376Z"/></svg>