<svg xmlns="http://www.w3.org/2000/svg" viewBox="0 0 512 512"><!-- Font Awesome Pro 6.0.0-alpha1 by @fontawesome - https://fontawesome.com License - https://fontawesome.com/license (Commercial License) --><path d="M481 0C480 0 480 0 479 0C361 9 -10 63 77 412L5 485C-2 491 -2 501 5 507C8 510 12 512 16 512S24 510 27 507L100 435C136 444 169 448 199 448C460 448 504 138 512 33C513 15 499 0 481 0ZM199 416C176 416 152 413 127 408L183 352C183 352 184 352 184 352H361C317 394 263 416 199 416ZM388 321C387 320 385 320 384 320H215L279 256C279 256 280 256 280 256H426C425 259 423 263 422 266C412 286 400 304 388 321ZM440 224H311L347 187C354 181 354 171 347 165S331 158 325 165L104 385C87 302 98 232 138 177C220 63 404 38 480 32C477 75 467 151 440 224Z"/></svg>