<svg xmlns="http://www.w3.org/2000/svg" viewBox="0 0 384 512"><!-- Font Awesome Pro 6.0.0-alpha1 by @fontawesome - https://fontawesome.com License - https://fontawesome.com/license (Commercial License) --><path d="M379 146C376 138 371 131 365 125L312 72L259 19C253 13 246 8 238 5C230 2 222 0 214 0H64C46 0 30 7 19 19S0 46 0 64V448C0 466 7 482 19 493S46 512 64 512H320C338 512 354 505 365 493S384 466 384 448V170C384 162 382 154 379 146ZM224 34C226 35 228 36 230 37C232 38 234 40 236 41L343 148C344 150 346 152 347 154C348 156 349 158 350 160H240C236 160 232 158 229 155C226 152 224 148 224 144V34ZM352 448C352 457 348 465 343 471C337 476 329 480 320 480H64C55 480 47 476 41 471C36 465 32 457 32 448V64C32 55 36 47 41 41C47 36 55 32 64 32H192V144C192 157 197 169 206 178S227 192 240 192H352V448ZM231 265C225 260 217 256 208 256H96C87 256 79 260 73 265C68 271 64 279 64 288V384C64 393 68 401 73 407C79 412 87 416 96 416H208C217 416 225 412 231 407C236 402 239 395 239 387L299 407C301 408 302 408 304 408C307 408 311 407 313 405C318 402 320 397 320 392V280C320 275 318 270 313 267C309 264 304 263 299 265L239 285C239 277 236 270 231 265ZM208 384H96V288H208V384ZM240 318L288 302V370L240 354V318Z"/></svg>