<svg xmlns="http://www.w3.org/2000/svg" viewBox="0 0 384 512"><!-- Font Awesome Pro 6.0.0-alpha1 by @fontawesome - https://fontawesome.com License - https://fontawesome.com/license (Commercial License) --><path d="M365 125L259 19C247 7 230 0 214 0H64C29 0 0 29 0 64V448C0 483 29 512 64 512H320C355 512 384 483 384 448V170C384 154 377 137 365 125ZM224 34C228 36 233 38 236 41L343 148C346 151 348 156 350 160H240C231 160 224 153 224 144V34ZM352 448C352 466 338 480 320 480H64C46 480 32 466 32 448V64C32 46 46 32 64 32H192V144C192 170 214 192 240 192H352V448ZM96 272C96 281 103 288 112 288H272C281 288 288 281 288 272S281 256 272 256H112C103 256 96 263 96 272ZM272 320H112C103 320 96 327 96 336S103 352 112 352H272C281 352 288 345 288 336S281 320 272 320ZM272 384H112C103 384 96 391 96 400S103 416 112 416H272C281 416 288 409 288 400S281 384 272 384Z"/></svg>