<svg xmlns="http://www.w3.org/2000/svg" viewBox="0 0 384 512"><!-- Font Awesome Pro 6.0.0-alpha1 by @fontawesome - https://fontawesome.com License - https://fontawesome.com/license (Commercial License) --><path d="M193 330C215 319 228 295 223 268C217 242 192 224 166 224H112C103 224 96 231 96 240L96 368C96 377 103 384 112 384C121 384 128 377 128 368V336H153L201 384L165 421C158 427 158 437 165 443C168 446 172 448 176 448S184 446 187 443L224 407L261 443C267 450 277 450 283 443S290 427 283 421L247 384L283 347C290 341 290 331 283 325S267 318 261 325L224 361L193 330ZM168 304H128V256H168C181 256 192 267 192 280S181 304 168 304ZM365 125L259 19C247 7 230 0 214 0H64C29 0 0 29 0 64V448C0 483 29 512 64 512H320C355 512 384 483 384 448V170C384 154 377 137 365 125ZM224 34C228 36 233 38 236 41L343 148C346 151 348 156 350 160H240C231 160 224 153 224 144V34ZM352 448C352 466 338 480 320 480H64C46 480 32 466 32 448V64C32 46 46 32 64 32H192V144C192 170 214 192 240 192H352V448Z"/></svg>