<svg xmlns="http://www.w3.org/2000/svg" viewBox="0 0 384 512"><!-- Font Awesome Pro 6.0.0-alpha1 by @fontawesome - https://fontawesome.com License - https://fontawesome.com/license (Commercial License) --><path d="M365 125L259 19C247 7 230 0 214 0H64C29 0 0 29 0 64V448C0 483 29 512 64 512H320C355 512 384 483 384 448V170C384 154 377 137 365 125ZM224 34C228 36 233 38 236 41L343 148C346 151 348 156 350 160H240C231 160 224 153 224 144V34ZM352 448C352 466 338 480 320 480H64C46 480 32 466 32 448V64C32 46 46 32 64 32H192V144C192 170 214 192 240 192H352V448ZM96 352C87 352 80 359 80 368V432C80 441 87 448 96 448S112 441 112 432V368C112 359 105 352 96 352ZM192 224C183 224 176 231 176 240V432C176 441 183 448 192 448S208 441 208 432V240C208 231 201 224 192 224ZM288 448C297 448 304 441 304 432V304C304 295 297 288 288 288S272 295 272 304V432C272 441 279 448 288 448Z"/></svg>