<svg xmlns="http://www.w3.org/2000/svg" viewBox="0 0 512 512"><!-- Font Awesome Pro 6.0.0-alpha1 by @fontawesome - https://fontawesome.com License - https://fontawesome.com/license (Commercial License) --><path d="M261 405C254 411 254 421 261 427C264 430 268 432 272 432S280 430 283 427L379 331C386 325 386 315 379 309L283 213C277 206 267 206 261 213S254 229 261 235L329 304H16C7 304 0 311 0 320S7 336 16 336H329L261 405ZM493 125L387 19C375 7 358 0 342 0H192C157 0 128 29 128 64V240C128 249 135 256 144 256C153 256 160 249 160 240V64C160 46 174 32 192 32H320V144C320 170 342 192 368 192H480V448C480 466 466 480 448 480H192C174 480 160 466 160 448V400C160 391 153 384 144 384C135 384 128 391 128 400V448C128 483 157 512 192 512H448C483 512 512 483 512 448V170C512 154 505 137 493 125ZM368 160C359 160 352 153 352 144V34C356 36 361 38 364 41L471 148C474 151 476 156 478 160H368Z"/></svg>