<svg xmlns="http://www.w3.org/2000/svg" viewBox="0 0 384 512"><!-- Font Awesome Pro 6.0.0-alpha1 by @fontawesome - https://fontawesome.com License - https://fontawesome.com/license (Commercial License) --><path d="M365 125L259 19C247 7 230 0 214 0H64C29 0 0 29 0 64V448C0 483 29 512 64 512H320C355 512 384 483 384 448V170C384 154 377 137 365 125ZM224 34C228 36 233 38 236 41L343 148C346 151 348 156 350 160H240C231 160 224 153 224 144V34ZM352 448C352 466 338 480 320 480H64C46 480 32 466 32 448V64C32 46 46 32 64 32H192V144C192 170 214 192 240 192H352V448ZM208 240C208 231 201 224 192 224S176 231 176 240V361L123 309C120 306 116 304 112 304S104 306 101 309C94 315 94 325 101 331L181 411C187 418 197 418 203 411L283 331C290 325 290 315 283 309S267 302 261 309L208 361V240Z"/></svg>