<svg xmlns="http://www.w3.org/2000/svg" viewBox="0 0 512 512"><!-- Font Awesome Pro 6.0.0-alpha1 by @fontawesome - https://fontawesome.com License - https://fontawesome.com/license (Commercial License) --><path d="M244 339C254 329 258 313 255 299C251 285 251 291 255 277C258 263 254 247 244 237C234 227 235 228 231 215C228 200 216 189 202 185C189 181 191 183 181 172C170 162 155 158 140 161C127 165 129 165 116 161C101 158 86 162 75 172C65 183 67 181 54 185C40 189 28 200 25 215C21 228 22 227 12 237C2 247 -2 263 1 277C5 291 5 285 1 299C-2 313 2 329 12 339C22 349 21 347 25 361C28 376 40 387 54 391C59 392 62 393 64 394V496C64 502 67 507 72 510C76 512 82 513 87 510L128 490L169 510C171 511 174 512 176 512C179 512 182 511 184 510C189 507 192 502 192 496V394C194 393 197 392 202 391C216 387 228 376 231 361C235 347 234 349 244 339ZM160 470L135 458C131 455 125 455 121 458L96 470V415C102 416 109 416 116 415C129 411 127 411 140 415C147 416 154 416 160 415V470ZM222 302C225 311 225 312 218 320C207 331 206 334 201 353C199 359 194 360 190 361C174 365 172 367 160 379C155 384 153 385 145 383C130 378 127 378 111 383C103 385 101 384 96 379C84 367 82 365 66 361C62 360 57 359 55 353C51 334 49 331 38 320C31 312 31 311 34 302C37 289 37 286 34 274C31 266 31 264 37 257C49 245 50 242 55 227C57 218 57 217 66 215C82 211 84 209 96 197C101 192 103 191 111 193C127 198 129 198 145 193C153 191 155 192 160 197C172 209 174 211 190 215C199 217 199 218 201 227C206 242 207 245 219 257C225 264 225 266 222 274C219 286 219 289 222 302ZM493 125L387 19C375 7 358 0 342 0H192C157 0 128 29 128 64V112C128 121 135 128 144 128C153 128 160 121 160 112V64C160 46 174 32 192 32H320V144C320 170 342 192 368 192H480V448C480 466 466 480 448 480H240C231 480 224 487 224 496C224 505 231 512 240 512H448C483 512 512 483 512 448V170C512 154 505 137 493 125ZM368 160C359 160 352 153 352 144V34C356 36 361 38 364 41L471 148C474 151 476 156 478 160H368Z"/></svg>