<svg xmlns="http://www.w3.org/2000/svg" viewBox="0 0 384 512"><!-- Font Awesome Pro 6.0.0-alpha1 by @fontawesome - https://fontawesome.com License - https://fontawesome.com/license (Commercial License) --><path d="M365 125L259 19C247 7 230 0 214 0H64C29 0 0 29 0 64V448C0 483 29 512 64 512H320C355 512 384 483 384 448V170C384 154 377 137 365 125ZM224 34C228 36 233 38 236 41L343 148C346 151 348 156 350 160H240C231 160 224 153 224 144V34ZM352 448C352 466 338 480 320 480H64C46 480 32 466 32 448V64C32 46 46 32 64 32H192V144C192 170 214 192 240 192H352V448ZM97 360C95 362 93 365 92 368L80 429C78 440 88 450 99 448L160 436C163 435 166 433 168 431L290 309C298 302 303 292 304 281C305 268 300 255 291 246L283 238C275 230 266 225 255 224C242 223 229 228 220 237L97 360ZM149 405L116 412L123 379L209 293L235 319L149 405ZM243 259C247 255 255 255 259 259L269 269C273 273 273 281 269 285L258 297L231 270L243 259Z"/></svg>