<svg xmlns="http://www.w3.org/2000/svg" viewBox="0 0 576 512"><!-- Font Awesome Pro 6.0.0-alpha1 by @fontawesome - https://fontawesome.com License - https://fontawesome.com/license (Commercial License) --><path d="M160 288C160 279 153 272 144 272H16C7 272 0 279 0 288S7 304 16 304H144C153 304 160 297 160 288ZM240 272C231 272 224 279 224 288S231 304 240 304H336C345 304 352 297 352 288S345 272 336 272H240ZM560 272H432C423 272 416 279 416 288S423 304 432 304H560C569 304 576 297 576 288S569 272 560 272ZM464 352C455 352 448 359 448 368V448C448 466 434 480 416 480H160C142 480 128 466 128 448V368C128 359 121 352 112 352S96 359 96 368V448C96 483 125 512 160 512H416C451 512 480 483 480 448V368C480 359 473 352 464 352ZM112 224C121 224 128 217 128 208V64C128 46 142 32 160 32H288V144C288 170 310 192 336 192H448V208C448 217 455 224 464 224S480 217 480 208V170C480 154 473 137 461 125L355 19C343 7 326 0 310 0H160C125 0 96 29 96 64V208C96 217 103 224 112 224ZM320 34C324 36 329 38 332 41L439 148C442 151 444 156 446 160H336C327 160 320 153 320 144V34Z"/></svg>