<svg xmlns="http://www.w3.org/2000/svg" viewBox="0 0 384 512"><!-- Font Awesome Pro 6.0.0-alpha1 by @fontawesome - https://fontawesome.com License - https://fontawesome.com/license (Commercial License) --><path d="M365 125L259 19C247 7 230 0 214 0H64C29 0 0 29 0 64V448C0 483 29 512 64 512H320C355 512 384 483 384 448V170C384 154 377 137 365 125ZM224 34C228 36 233 38 236 41L343 148C346 151 348 156 350 160H240C231 160 224 153 224 144V34ZM352 448C352 466 338 480 320 480H64C46 480 32 466 32 448V64C32 46 46 32 64 32H192V144C192 170 214 192 240 192H352V448ZM64 256V416C64 434 78 448 96 448H288C306 448 320 434 320 416V256C320 238 306 224 288 224H96C78 224 64 238 64 256ZM128 416H96V384H128V416ZM128 352H96V320H128V352ZM224 416H160V384H224V416ZM224 352H160V320H224V352ZM288 416H256V384H288V416ZM288 352H256V320H288V352ZM288 288H96V256H288V288Z"/></svg>