<svg xmlns="http://www.w3.org/2000/svg" viewBox="0 0 384 512"><!-- Font Awesome Pro 6.0.0-alpha1 by @fontawesome - https://fontawesome.com License - https://fontawesome.com/license (Commercial License) --><path d="M190 286L164 326C152 311 126 313 116 329L69 401C63 410 62 422 67 432C73 442 83 448 94 448H290C301 448 311 442 317 432C322 422 321 410 315 401L240 286C229 269 201 269 190 286ZM287 416L96 416L141 349L151 364C157 373 172 373 177 364L215 306L287 416ZM96 280C109 280 120 269 120 256C120 243 109 232 96 232S72 243 72 256C72 269 83 280 96 280ZM365 125L259 19C247 7 230 0 214 0H64C29 0 0 29 0 64V448C0 483 29 512 64 512H320C355 512 384 483 384 448V170C384 154 377 137 365 125ZM224 34C228 36 233 38 236 41L343 148C346 151 348 156 350 160H240C231 160 224 153 224 144V34ZM352 448C352 466 338 480 320 480H64C46 480 32 466 32 448V64C32 46 46 32 64 32H192V144C192 170 214 192 240 192H352V448Z"/></svg>