<svg xmlns="http://www.w3.org/2000/svg" viewBox="0 0 576 512"><!-- Font Awesome Pro 6.0.0-alpha1 by @fontawesome - https://fontawesome.com License - https://fontawesome.com/license (Commercial License) --><path d="M561 136L536 111C516 91 483 91 463 111L303 270C273 300 256 341 256 384C252 383 249 381 247 378C235 354 200 347 181 363L167 322C163 312 154 305 144 305S125 312 121 322L103 376C102 381 97 384 92 384H80C71 384 64 391 64 400S71 416 80 416H92C111 416 128 404 133 386L144 355L161 405C165 419 184 420 190 407L198 392C202 384 214 383 218 392C226 407 240 416 256 416H288C355 416 401 370 402 369L561 209C571 199 576 186 576 173C576 159 571 146 561 136ZM379 346C355 370 322 384 288 384C288 350 302 317 326 293L447 173L499 225L379 346ZM538 187L517 208L464 155L485 134C493 126 506 126 513 134L538 159C546 166 546 179 538 187ZM364 448C358 448 351 452 349 458C345 471 333 480 319 480H64C46 480 32 466 32 448V64C32 46 46 32 64 32H191V144C191 170 213 192 239 192H303C312 192 319 185 319 176V176C319 167 312 160 303 160H239C230 160 223 153 223 144V34C228 36 232 38 235 41L325 132C331 138 341 138 347 132L348 131C354 125 354 115 348 109L258 19C246 7 230 0 213 0H64C29 0 0 29 0 64V448C0 483 29 512 64 512H319C347 512 371 494 379 468C383 458 375 448 364 448Z"/></svg>