<svg xmlns="http://www.w3.org/2000/svg" viewBox="0 0 384 512"><!-- Font Awesome Pro 6.0.0-alpha1 by @fontawesome - https://fontawesome.com License - https://fontawesome.com/license (Commercial License) --><path d="M365 125L259 19C247 7 230 0 214 0H64C29 0 0 29 0 64V448C0 483 29 512 64 512H320C355 512 384 483 384 448V170C384 154 377 137 365 125ZM224 34C228 36 233 38 236 41L343 148C346 151 348 156 350 160H240C231 160 224 153 224 144V34ZM352 448C352 466 338 480 320 480H64C46 480 32 466 32 448V64C32 46 46 32 64 32H192V144C192 170 214 192 240 192H352V448ZM181 229L101 309C94 315 94 325 101 331S117 338 123 331L176 279V400C176 409 183 416 192 416S208 409 208 400V279L261 331C264 334 268 336 272 336S280 334 283 331C290 325 290 315 283 309L203 229C197 222 187 222 181 229Z"/></svg>