<svg xmlns="http://www.w3.org/2000/svg" viewBox="0 0 576 512"><!-- Font Awesome Pro 6.0.0-alpha1 by @fontawesome - https://fontawesome.com License - https://fontawesome.com/license (Commercial License) --><path d="M112 32H240C249 32 256 25 256 16C256 7 249 0 240 0H112C103 0 96 7 96 16C96 25 103 32 112 32ZM336 480H320V96H336C345 96 352 89 352 80C352 71 345 64 336 64H16C7 64 0 71 0 80C0 89 7 96 16 96H32V480H16C7 480 0 487 0 496C0 505 7 512 16 512H336C345 512 352 505 352 496C352 487 345 480 336 480ZM288 480H64V96H288V480ZM528 128H368C359 128 352 135 352 144S359 160 368 160H528C537 160 544 167 544 176V304C544 313 537 320 528 320C502 320 480 342 480 368V400C480 409 473 416 464 416H368C359 416 352 423 352 432S359 448 368 448H464C490 448 512 426 512 400V368C512 359 519 352 528 352C554 352 576 330 576 304V176C576 150 554 128 528 128ZM384 376C384 380 388 384 392 384H408C412 384 416 380 416 376V360C416 356 412 352 408 352H392C388 352 384 356 384 360V376ZM504 224C508 224 512 220 512 216V200C512 196 508 192 504 192H488C484 192 480 196 480 200V216C480 220 484 224 488 224H504ZM392 224H408C412 224 416 220 416 216V200C416 196 412 192 408 192H392C388 192 384 196 384 200V216C384 220 388 224 392 224Z"/></svg>