<svg xmlns="http://www.w3.org/2000/svg" viewBox="0 0 576 512"><!-- Font Awesome Pro 6.0.0-alpha1 by @fontawesome - https://fontawesome.com License - https://fontawesome.com/license (Commercial License) --><path d="M464 448H96C61 448 32 419 32 384V112C32 103 25 96 16 96S0 103 0 112V384C0 437 43 480 96 480H464C473 480 480 473 480 464S473 448 464 448ZM512 32H160C125 32 96 61 96 96V320C96 355 125 384 160 384H512C547 384 576 355 576 320V96C576 61 547 32 512 32ZM192 352H160C142 352 128 338 128 320V288H192V352ZM192 256H128V160H192V256ZM192 128H128V96C128 78 142 64 160 64H192V128ZM448 352H224V224H448V352ZM448 192H224V64H448V192ZM544 320C544 338 530 352 512 352H480V288H544V320ZM544 256H480V160H544V256ZM544 128H480V64H512C530 64 544 78 544 96V128Z"/></svg>