<svg xmlns="http://www.w3.org/2000/svg" viewBox="0 0 640 512"><!-- Font Awesome Pro 6.0.0-alpha1 by @fontawesome - https://fontawesome.com License - https://fontawesome.com/license (Commercial License) --><path d="M289 276L263 306L256 315V441L192 396V315L185 306L37 128H168C177 128 184 121 184 112C184 103 177 96 168 96H29C5 96 -9 123 6 142L160 327V400C160 408 164 415 170 420L250 476C255 479 259 480 264 480C276 480 288 470 288 456V327L313 296C317 291 318 285 316 279C311 268 296 267 289 276ZM611 32H221C197 32 183 59 198 78L352 263V368C352 376 356 383 362 388L442 444C447 447 451 448 456 448C468 448 480 438 480 424V263L634 78C649 59 635 32 611 32ZM455 242L448 251V409L384 364V251L377 242L229 64H603L455 242Z"/></svg>