<svg xmlns="http://www.w3.org/2000/svg" viewBox="0 0 512 512"><!-- Font Awesome Pro 6.0.0-alpha1 by @fontawesome - https://fontawesome.com License - https://fontawesome.com/license (Commercial License) --><path d="M256 170C228 170 203 180 185 198C167 216 157 240 157 266C158 316 154 366 143 415C142 424 147 432 156 434C164 436 173 430 175 421C185 370 190 318 189 265C189 248 195 233 207 221C226 202 250 202 256 202C293 203 322 232 323 268C324 318 320 369 312 418C310 427 316 435 325 436C326 437 327 437 328 437C335 437 342 431 343 423C352 372 356 320 355 267C354 215 310 171 256 170ZM256 256C247 256 240 263 240 272C241 346 232 417 212 487L211 492C209 498 213 512 227 512C234 512 240 507 242 500L243 496C264 423 273 348 272 272C272 263 264 256 256 256ZM113 150C88 181 74 220 75 260C75 300 72 339 65 378C63 386 69 395 78 396C79 396 80 396 81 396C88 396 95 391 96 383C104 343 107 301 107 260C106 227 117 196 137 170C143 163 142 153 135 148C128 142 118 143 113 150ZM512 253C512 236 510 220 506 204C504 195 496 190 487 192C478 193 473 202 475 211C478 225 480 239 480 253C480 261 480 269 480 276C480 285 487 292 496 292H496C505 292 512 285 512 277C512 269 512 261 512 253ZM253 0C183 -1 118 25 70 73C24 119 -1 181 0 246C0 254 0 261 0 269C0 278 7 285 16 285H16C25 285 32 278 32 270C32 262 32 254 32 246C31 189 53 136 93 96C135 54 192 31 252 32C327 33 397 70 440 131C445 139 455 140 462 135C469 130 471 120 466 113C417 44 338 1 253 0ZM254 85C239 85 223 86 209 90C200 92 195 101 197 109C199 118 208 123 216 121C228 118 241 117 253 117C336 118 405 185 406 265C406 305 404 345 400 384C399 392 405 400 414 401C415 401 415 401 416 401C424 401 431 395 432 387C436 347 438 305 438 264C436 167 354 87 254 85Z"/></svg>