<svg xmlns="http://www.w3.org/2000/svg" viewBox="0 0 512 512"><!-- Font Awesome Pro 6.0.0-alpha1 by @fontawesome - https://fontawesome.com License - https://fontawesome.com/license (Commercial License) --><path d="M503 6C499 2 494 0 488 0C487 0 485 0 484 0L308 32C296 34 288 44 288 56V64H192V16C192 7 185 0 176 0C167 0 160 7 160 16V64H112C50 64 0 114 0 176C0 185 7 192 16 192S32 185 32 176C32 132 68 96 112 96H160V130C106 137 64 184 64 240V464C64 490 86 512 112 512H240C266 512 288 490 288 464V240C288 184 246 137 192 130V96H288V104C288 116 296 126 308 128L484 160C485 160 487 160 488 160C494 160 499 158 503 154C509 150 512 143 512 136V24C512 17 509 10 503 6ZM256 464C256 473 249 480 240 480H112C103 480 96 473 96 464V448H256V464ZM256 240V416H96V240C96 196 132 160 176 160C220 160 256 196 256 240ZM480 126L320 97V63L480 34V126Z"/></svg>