<svg xmlns="http://www.w3.org/2000/svg" viewBox="0 0 640 512"><!-- Font Awesome Pro 6.0.0-alpha1 by @fontawesome - https://fontawesome.com License - https://fontawesome.com/license (Commercial License) --><path d="M342 312C328 293 311 274 291 256C241 302 205 361 205 397C205 460 256 512 320 512S435 460 435 397C435 370 409 315 371 282C361 291 351 301 342 312ZM320 480C274 480 237 443 237 397C237 377 257 338 291 301C301 311 309 321 317 331L341 363L367 332L370 328C391 355 403 385 403 397C403 443 366 480 320 480ZM608 0H32C14 0 0 14 0 32V96C0 114 14 128 32 128H608C626 128 640 114 640 96V32C640 14 626 0 608 0ZM608 96H32V32H608V96ZM592 160C583 160 576 167 576 176V480H512V352C512 246 426 160 320 160S128 246 128 352V480H64V176C64 167 57 160 48 160C39 160 32 167 32 176V480C32 498 46 512 64 512H128C146 512 160 498 160 480V352C160 264 232 192 320 192S480 264 480 352V480C480 498 494 512 512 512H576C594 512 608 498 608 480V176C608 167 601 160 592 160Z"/></svg>