<svg xmlns="http://www.w3.org/2000/svg" viewBox="0 0 384 512"><!-- Font Awesome Pro 6.0.0-alpha1 by @fontawesome - https://fontawesome.com License - https://fontawesome.com/license (Commercial License) --><path d="M214 9C208 3 200 0 192 0S176 3 170 9C69 105 0 226 0 301C0 425 79 512 192 512S384 425 384 301C384 226 314 105 214 9ZM192 480C96 480 32 408 32 301C32 245 88 132 192 32C192 32 192 32 192 32C283 120 352 235 352 301C352 408 288 480 192 480ZM252 213C226 190 201 169 201 135C201 131 197 129 195 128C194 128 193 128 192 128C189 128 187 129 185 132C111 231 224 224 224 296C224 327 199 352 168 352C137 352 112 327 112 296V256C112 254 111 252 110 250C108 249 106 248 104 248S100 249 98 250C90 259 64 286 64 330C64 395 121 448 192 448S320 395 320 330C320 271 286 242 252 213ZM192 416C147 416 109 388 99 350C115 371 140 384 168 384C217 384 256 345 256 296C256 275 250 259 241 246C268 269 288 291 288 330C288 377 245 416 192 416Z"/></svg>