<svg xmlns="http://www.w3.org/2000/svg" viewBox="0 0 640 512"><!-- Font Awesome Pro 6.0.0-alpha1 by @fontawesome - https://fontawesome.com License - https://fontawesome.com/license (Commercial License) --><path d="M167 252C168 252 170 252 171 252C180 249 185 240 182 231C178 219 176 207 176 194C176 160 212 93 280 33C302 53 322 73 338 94C341 98 346 100 350 100C355 100 360 98 363 95C371 85 381 76 391 67C436 109 464 169 464 194C464 207 462 219 458 231C456 240 460 249 469 251C477 254 486 249 489 241C494 225 496 210 496 194C496 155 457 80 401 33C395 28 387 28 381 33C371 42 361 51 352 60C334 39 313 19 290 0C284 -5 276 -5 270 0C196 62 144 142 144 194C144 210 146 226 151 241C154 248 160 252 167 252ZM396 236C405 238 413 231 415 223C418 200 415 177 406 157C403 152 401 147 398 142C396 137 391 134 385 134C380 133 375 135 371 140L348 170C331 145 301 103 298 99C295 95 291 92 286 92H285C280 92 276 95 273 99C243 138 224 167 224 200C224 208 225 216 226 223C227 231 234 236 242 236C243 236 244 236 245 236C253 234 259 226 258 217C257 212 256 206 256 200C256 182 265 164 285 136C298 154 319 184 334 206C337 210 342 212 347 213C352 213 357 210 360 206L380 180C384 192 385 205 383 218C382 226 387 235 396 236ZM528 284C495 284 464 299 443 323C418 280 371 252 320 252S222 280 197 323C176 299 145 284 112 284C50 284 0 334 0 396S50 508 112 508H528C590 508 640 458 640 396S590 284 528 284ZM528 476H112C68 476 32 440 32 396S68 316 112 316C143 316 171 335 184 363C187 369 194 373 200 372C206 372 212 367 214 361C229 315 272 284 320 284S411 315 426 361C428 367 434 372 440 372C447 373 453 369 456 363C469 335 497 316 528 316C572 316 608 352 608 396S572 476 528 476Z"/></svg>