<svg xmlns="http://www.w3.org/2000/svg" viewBox="0 0 576 512"><!-- Font Awesome Pro 6.0.0-alpha1 by @fontawesome - https://fontawesome.com License - https://fontawesome.com/license (Commercial License) --><path d="M325 64C229 64 155 133 123 169L53 104C42 95 28 93 16 100C4 107 -2 121 1 135L27 256L1 377C-2 391 4 405 17 412C28 419 42 417 53 408L123 343C155 379 229 448 325 448C460 448 576 302 576 256S460 64 325 64ZM325 416C249 416 178 361 137 310C134 307 130 305 126 304C125 304 125 304 124 304C120 304 116 306 113 308L32 383L59 259C59 257 59 255 59 253L31 128L114 204C117 207 121 208 126 208C130 207 134 205 137 202C178 151 249 96 325 96C448 96 544 231 544 256S448 416 325 416ZM427 165C421 158 411 158 405 165L245 325C238 331 238 341 245 347C248 350 252 352 256 352S264 350 267 347L427 187C434 181 434 171 427 165ZM251 235L315 171C322 165 322 155 315 149S299 142 293 149L229 213C222 219 222 229 229 235C232 238 236 240 240 240S248 238 251 235ZM421 277L357 341C350 347 350 357 357 363C360 366 364 368 368 368S376 366 379 363L443 299C450 293 450 283 443 277S427 270 421 277Z"/></svg>