<svg xmlns="http://www.w3.org/2000/svg" viewBox="0 0 512 512"><!-- Font Awesome Pro 6.0.0-alpha1 by @fontawesome - https://fontawesome.com License - https://fontawesome.com/license (Commercial License) --><path d="M472 0C465 0 458 2 451 5C401 27 363 35 332 35C266 35 228 0 151 0C120 0 81 7 32 24V16C32 7 25 0 16 0S0 7 0 16V496C0 505 7 512 16 512S32 505 32 496V404C76 388 114 382 146 382C228 382 284 416 366 416C401 416 441 409 489 391C503 386 512 373 512 360V33C512 13 493 0 472 0ZM464 34C474 30 480 33 480 39V100C450 109 424 115 400 117V57C420 52 441 44 464 34ZM480 188C450 197 424 203 400 205V150C424 147 450 142 480 133V188ZM480 276C450 285 424 290 400 293V238C424 235 450 230 480 221V276ZM368 207C333 208 302 202 272 195V140C301 147 331 152 368 152V207ZM240 188C211 181 180 176 144 177V120C180 120 210 126 240 133V188ZM240 221V276C211 269 180 264 144 264V208C180 208 210 214 240 221ZM272 228C301 235 331 240 368 240V295C333 296 302 290 272 283V228ZM368 64V119C333 120 302 114 272 107V59C290 63 309 67 332 67C344 67 356 66 368 64ZM240 49V100C211 93 180 88 144 89V33C146 33 149 32 151 32C186 32 213 41 240 49ZM32 369V57C61 47 88 40 112 36V90C88 93 62 98 32 107V140C62 130 88 125 112 123V178C88 181 62 186 32 195V228C62 218 88 213 112 211V266C88 269 62 274 32 283V316C62 306 88 301 112 298V352C86 354 60 360 32 369ZM146 350C146 350 145 350 144 350V296C180 296 210 302 240 309V362C211 355 181 350 146 350ZM365 384C332 384 302 377 272 370V316C301 322 331 328 368 327V384C367 384 366 384 365 384ZM480 359C479 361 443 375 400 381V325C424 323 450 318 480 309V359Z"/></svg>