<svg xmlns="http://www.w3.org/2000/svg" viewBox="0 0 512 512"><!-- Font Awesome Pro 6.0.0-alpha1 by @fontawesome - https://fontawesome.com License - https://fontawesome.com/license (Commercial License) --><path d="M499 6C479 -6 460 3 457 4C415 23 381 32 349 32C320 32 297 25 273 17C248 9 221 0 185 0C159 0 121 3 32 39V16C32 7 25 0 16 0S0 7 0 16V496C0 505 7 512 16 512S32 505 32 496V391C46 385 110 352 181 352C218 352 248 360 280 368C311 376 343 384 379 384C415 384 451 376 491 361H491C504 356 512 344 512 331L512 32C512 22 507 12 499 6ZM480 331C444 345 411 352 379 352C347 352 318 345 288 337C255 329 222 320 181 320C135 320 87 331 35 355L32 356V73L60 62C109 42 150 32 185 32C216 32 239 40 263 48C289 56 315 64 349 64C419 64 480 32 480 32L480 331Z"/></svg>