<svg xmlns="http://www.w3.org/2000/svg" viewBox="0 0 512 512"><!-- Font Awesome Pro 6.0.0-alpha1 by @fontawesome - https://fontawesome.com License - https://fontawesome.com/license (Commercial License) --><path d="M472 0C465 0 458 2 451 5C401 27 363 35 332 35C266 35 228 0 151 0C120 0 81 7 32 24V16C32 7 25 0 16 0S0 7 0 16V496C0 505 7 512 16 512H16C25 512 32 505 32 496V404C76 388 114 382 146 382C228 382 284 416 366 416C401 416 441 409 489 391C503 386 512 373 512 360V33C512 13 493 0 472 0ZM256 54C314 72 370 76 464 34C474 30 480 33 480 39V92C381 134 327 120 256 108V54ZM256 140C290 146 320 152 355 152C390 152 431 145 480 126V188C376 221 317 206 256 192V140ZM32 57C78 41 117 32 151 32C179 32 202 38 224 45V185C173 174 115 170 32 195V57ZM32 228C133 196 191 209 252 224C310 237 373 254 480 221V276C380 308 321 295 260 280C199 266 135 252 32 283V228ZM365 384C290 384 232 350 146 350C110 350 72 356 32 369V316C132 284 191 297 252 312C311 325 373 342 480 309V359C479 362 421 384 365 384ZM96 64C87 64 80 71 80 80S87 96 96 96S112 89 112 80S105 64 96 64ZM168 96C177 96 184 89 184 80S177 64 168 64S152 71 152 80S159 96 168 96ZM96 120C87 120 80 127 80 136S87 152 96 152S112 145 112 136S105 120 96 120ZM168 152C177 152 184 145 184 136S177 120 168 120S152 127 152 136S159 152 168 152Z"/></svg>