<svg xmlns="http://www.w3.org/2000/svg" viewBox="0 0 448 512"><!-- Font Awesome Pro 6.0.0-alpha1 by @fontawesome - https://fontawesome.com License - https://fontawesome.com/license (Commercial License) --><path d="M437 403L320 215V80C320 71 313 64 304 64S288 71 288 80V144H288V215C288 221 290 227 293 232L348 320H100L155 232C158 227 160 221 160 215V144H160V80C160 71 153 64 144 64S128 71 128 80V215L11 404C-18 451 15 512 71 512H377C433 512 466 450 437 403ZM411 460C408 466 398 480 377 480H71C50 480 40 466 37 460C30 447 30 433 38 420L80 352H368L410 420C418 433 418 447 411 460ZM112 32H336C345 32 352 25 352 16S345 0 336 0H112C103 0 96 7 96 16S103 32 112 32Z"/></svg>