<svg xmlns="http://www.w3.org/2000/svg" viewBox="0 0 512 512"><!-- Font Awesome Pro 6.0.0-alpha1 by @fontawesome - https://fontawesome.com License - https://fontawesome.com/license (Commercial License) --><path d="M288 144C288 126 274 112 256 112S224 126 224 144S238 176 256 176S288 162 288 144ZM496 288H449C380 288 314 320 272 374V278C285 284 299 288 313 288C361 288 400 249 400 201C400 180 393 160 379 144C393 128 400 108 400 87C400 39 361 0 313 0C292 0 272 7 256 21C240 7 220 0 199 0C151 0 112 39 112 87C112 108 119 128 133 144C119 160 112 180 112 201C112 249 151 288 199 288C213 288 227 284 240 278V374C197 320 132 288 63 288H16C7 288 -1 297 0 308C10 422 106 512 224 512H288C406 512 502 422 512 308C513 297 505 288 496 288ZM240 480H224C130 480 49 411 34 320H63C131 320 194 355 228 413C242 436 240 454 240 480ZM256 216L243 234C233 248 216 256 199 256C169 256 144 231 144 201C144 183 152 167 166 157L184 144L166 131C152 121 144 105 144 87C144 57 169 32 199 32C216 32 233 40 243 54L256 72L269 54C279 40 296 32 313 32C343 32 368 57 368 87C368 105 360 121 346 131L328 144L346 157C360 167 368 183 368 201C368 231 343 256 313 256C296 256 279 248 269 234L256 216ZM288 480H272C272 454 270 436 284 413C318 355 381 320 449 320H478C463 411 382 480 288 480Z"/></svg>