<svg xmlns="http://www.w3.org/2000/svg" viewBox="0 0 640 512"><!-- Font Awesome Pro 6.0.0-alpha1 by @fontawesome - https://fontawesome.com License - https://fontawesome.com/license (Commercial License) --><path d="M320 232C307 232 296 243 296 256S307 280 320 280S344 269 344 256S333 232 320 232ZM592 160H48C22 160 0 182 0 208V304C0 330 22 352 48 352H592C618 352 640 330 640 304V208C640 182 618 160 592 160ZM112 320H48C39 320 32 313 32 304V208C32 199 39 192 48 192H112V320ZM608 304C608 313 601 320 592 320H144V192H592C601 192 608 199 608 208V304ZM512 232C499 232 488 243 488 256S499 280 512 280S536 269 536 256S525 232 512 232ZM416 232C403 232 392 243 392 256S403 280 416 280S440 269 440 256S429 232 416 232Z"/></svg>