<svg xmlns="http://www.w3.org/2000/svg" viewBox="0 0 512 512"><!-- Font Awesome Pro 6.0.0-alpha1 by @fontawesome - https://fontawesome.com License - https://fontawesome.com/license (Commercial License) --><path d="M448 96H272L227 51C215 39 198 32 182 32H64C29 32 0 61 0 96V416C0 451 29 480 64 480H448C483 480 512 451 512 416V160C512 125 483 96 448 96ZM480 416C480 434 466 448 448 448H64C46 448 32 434 32 416V96C32 78 46 64 64 64H182C190 64 198 67 204 73L249 119L259 128H448C466 128 480 142 480 160V416ZM315 204C303 188 276 188 265 204L221 265L214 256C202 242 177 242 165 256L102 337C95 346 94 358 100 368C105 378 115 384 126 384H386C397 384 407 378 412 369C412 369 412 369 412 369C418 359 417 347 411 338L315 204ZM130 352L188 276L209 302C213 307 226 313 234 301L289 223L381 352H130ZM128 216C141 216 152 205 152 192C152 179 141 168 128 168S104 179 104 192C104 205 115 216 128 216Z"/></svg>