<svg xmlns="http://www.w3.org/2000/svg" viewBox="0 0 512 512"><!-- Font Awesome Pro 6.0.0-alpha1 by @fontawesome - https://fontawesome.com License - https://fontawesome.com/license (Commercial License) --><path d="M448 96H272L227 51C215 39 198 32 182 32H64C29 32 0 61 0 96V416C0 451 29 480 64 480H448C483 480 512 451 512 416V160C512 125 483 96 448 96ZM480 416C480 434 466 448 448 448H64C46 448 32 434 32 416V96C32 78 46 64 64 64H182C190 64 198 67 204 73L249 119L259 128H448C466 128 480 142 480 160V416ZM336 256H288V208C288 199 281 192 272 192H240C231 192 224 199 224 208V256H176C167 256 160 263 160 272V304C160 313 167 320 176 320H224V368C224 377 231 384 240 384H272C281 384 288 377 288 368V320H336C345 320 352 313 352 304V272C352 263 345 256 336 256Z"/></svg>