<svg xmlns="http://www.w3.org/2000/svg" viewBox="0 0 512 512"><!-- Font Awesome Pro 6.0.0-alpha1 by @fontawesome - https://fontawesome.com License - https://fontawesome.com/license (Commercial License) --><path d="M448 96H272L227 51C215 39 198 32 182 32H64C29 32 0 61 0 96V416C0 451 29 480 64 480H448C483 480 512 451 512 416V160C512 125 483 96 448 96ZM480 416C480 434 466 448 448 448H64C46 448 32 434 32 416V96C32 78 46 64 64 64H182C190 64 198 67 204 73L259 128H448C466 128 480 142 480 160V416ZM318 327C329 312 336 293 336 272C336 219 293 176 240 176S144 219 144 272S187 368 240 368C261 368 280 361 295 350L357 411C360 414 364 416 368 416S376 414 379 411C386 405 386 395 379 389L318 327ZM240 336C205 336 176 307 176 272S205 208 240 208S304 237 304 272S275 336 240 336Z"/></svg>