<svg xmlns="http://www.w3.org/2000/svg" viewBox="0 0 512 512"><!-- Font Awesome Pro 6.0.0-alpha1 by @fontawesome - https://fontawesome.com License - https://fontawesome.com/license (Commercial License) --><path d="M448 96H272L227 51C215 39 198 32 182 32H64C29 32 0 61 0 96V416C0 451 29 480 64 480H448C483 480 512 451 512 416V160C512 125 483 96 448 96ZM384 128V278L343 258C339 255 333 255 329 258L288 278V128H384ZM480 416C480 434 466 448 448 448H64C46 448 32 434 32 416V96C32 78 46 64 64 64H182C190 64 198 67 204 73L249 119L256 126C256 126 256 127 256 128V304C256 310 259 315 264 318C268 321 274 321 279 318L336 290L393 318C395 319 398 320 400 320C403 320 406 319 408 318C413 315 416 310 416 304V128H448C466 128 480 142 480 160V416Z"/></svg>