<svg xmlns="http://www.w3.org/2000/svg" viewBox="0 0 576 512"><!-- Font Awesome Pro 6.0.0-alpha1 by @fontawesome - https://fontawesome.com License - https://fontawesome.com/license (Commercial License) --><path d="M567 212C558 199 543 192 528 192H134C114 192 96 205 89 223L32 376V96C32 78 46 64 64 64H182C190 64 198 67 204 73L249 119L259 128H448C466 128 480 142 480 160H512C512 125 483 96 448 96H272L227 51C215 39 198 32 182 32H64C29 32 0 61 0 96V416C0 451 29 480 64 480H468C489 480 507 466 514 446L574 254C578 240 576 224 567 212ZM543 245L483 437C481 443 475 448 468 448H64C61 448 58 447 55 446C52 445 51 443 49 441C46 437 45 431 47 426L119 234C122 228 128 224 134 224H528C533 224 538 226 541 231C544 235 545 240 543 245Z"/></svg>