<svg xmlns="http://www.w3.org/2000/svg" viewBox="0 0 512 512"><!-- Font Awesome Pro 6.0.0-alpha1 by @fontawesome - https://fontawesome.com License - https://fontawesome.com/license (Commercial License) --><path d="M448 96H272L227 51C215 39 198 32 182 32H64C29 32 0 61 0 96V416C0 451 29 480 64 480H448C483 480 512 451 512 416V160C512 125 483 96 448 96ZM480 416C480 434 466 448 448 448H64C46 448 32 434 32 416V96C32 78 46 64 64 64H182C190 64 198 67 204 73L249 119L259 128H448C466 128 480 142 480 160V416ZM313 322L279 288L313 254C319 248 319 238 313 231S296 225 290 231L256 265L222 231C216 225 206 225 199 231S193 248 199 254L233 288L199 322C193 328 193 338 199 345S216 351 222 345L256 311L290 345C296 351 306 351 313 345S319 328 313 322Z"/></svg>