<svg xmlns="http://www.w3.org/2000/svg" viewBox="0 0 512 512"><!-- Font Awesome Pro 6.0.0-alpha1 by @fontawesome - https://fontawesome.com License - https://fontawesome.com/license (Commercial License) --><path d="M448 96H272L227 51C215 39 198 32 182 32H64C29 32 0 61 0 96V416C0 451 29 480 64 480H448C483 480 512 451 512 416V160C512 125 483 96 448 96ZM480 416C480 434 466 448 448 448H64C46 448 32 434 32 416V96C32 78 46 64 64 64H182C190 64 198 67 204 73L249 119L259 128H448C466 128 480 142 480 160V416ZM256 288C291 288 320 259 320 224S291 160 256 160S192 189 192 224S221 288 256 288ZM256 192C274 192 288 206 288 224S274 256 256 256S224 242 224 224S238 192 256 192ZM288 320H224C180 320 144 356 144 400C144 409 151 416 160 416S176 409 176 400C176 374 198 352 224 352H288C314 352 336 374 336 400C336 409 343 416 352 416S368 409 368 400C368 356 332 320 288 320Z"/></svg>