<svg xmlns="http://www.w3.org/2000/svg" viewBox="0 0 512 512"><!-- Font Awesome Pro 6.0.0-alpha1 by @fontawesome - https://fontawesome.com License - https://fontawesome.com/license (Commercial License) --><path d="M448 96H272L227 51C215 39 198 32 182 32H64C29 32 0 61 0 96V416C0 451 29 480 64 480H448C483 480 512 451 512 416V160C512 125 483 96 448 96ZM480 416C480 434 466 448 448 448H64C46 448 32 434 32 416V96C32 78 46 64 64 64H182C190 64 198 67 204 73L249 119L259 128H448C466 128 480 142 480 160V416ZM267 197C261 190 251 190 245 197L165 277C158 283 158 293 165 299S181 306 187 299L240 247V368C240 377 247 384 256 384S272 377 272 368V247L325 299C328 302 332 304 336 304S344 302 347 299C354 293 354 283 347 277L267 197Z"/></svg>