<svg xmlns="http://www.w3.org/2000/svg" viewBox="0 0 640 512"><!-- Font Awesome Pro 6.0.0-alpha1 by @fontawesome - https://fontawesome.com License - https://fontawesome.com/license (Commercial License) --><path d="M416 263C416 256 414 249 411 243L311 28C303 11 286 0 268 0H176C150 0 128 22 128 48V160H48C22 160 0 182 0 208V416C0 469 43 512 96 512S192 469 192 416H256C256 469 299 512 352 512S448 469 448 416C448 388 436 362 416 345V263ZM160 48C160 39 167 32 176 32H268C274 32 279 36 282 41L382 256H263L181 174C175 168 168 164 160 162V48ZM96 480C61 480 32 451 32 416S61 352 96 352S160 381 160 416S131 480 96 480ZM262 384H186C173 347 138 320 96 320C71 320 49 330 32 345V208C32 199 39 192 48 192H147C151 192 155 194 158 197L249 288H384V326C374 322 363 320 352 320C310 320 275 347 262 384ZM352 480C317 480 288 451 288 416S317 352 352 352S416 381 416 416S387 480 352 480ZM624 416H512V16C512 7 505 0 496 0S480 7 480 16V432C480 441 487 448 496 448H624C633 448 640 441 640 432S633 416 624 416Z"/></svg>