<svg xmlns="http://www.w3.org/2000/svg" viewBox="0 0 512 512"><!-- Font Awesome Pro 6.0.0-alpha1 by @fontawesome - https://fontawesome.com License - https://fontawesome.com/license (Commercial License) --><path d="M182 221C189 227 199 226 204 219C210 212 209 202 202 196L50 71C44 66 37 64 31 64C14 64 0 77 0 96V416C0 435 14 448 31 448C37 448 44 446 50 441L202 316C209 310 210 300 204 293C199 286 189 285 182 291L32 416V96L182 221ZM500 231L306 71C300 66 293 64 287 64C276 64 256 72 256 96V416C256 440 276 448 287 448C293 448 300 446 306 441L500 281C508 275 512 266 512 256S508 237 500 231ZM288 416V96L479 256L288 416Z"/></svg>