<svg xmlns="http://www.w3.org/2000/svg" viewBox="0 0 640 512"><!-- Font Awesome Pro 6.0.0-alpha1 by @fontawesome - https://fontawesome.com License - https://fontawesome.com/license (Commercial License) --><path d="M448 192C360 192 288 264 288 352S360 512 448 512S608 440 608 352S536 192 448 192ZM448 480C377 480 320 423 320 352S377 224 448 224S576 281 576 352S519 480 448 480ZM475 343L430 330C425 328 421 323 421 317C421 310 427 304 433 304H461C466 304 470 305 474 308C477 310 481 310 484 307L496 296C499 292 499 287 495 284C486 277 475 273 464 272V256C464 252 460 248 456 248H440C436 248 432 252 432 256V272C408 273 389 293 389 317C389 337 402 355 421 361L466 374C471 376 475 381 475 387C475 394 469 400 463 400H435C430 400 426 399 422 396C419 394 415 394 412 397L400 408C397 412 397 417 401 420C410 427 421 431 432 432V448C432 452 436 456 440 456H456C460 456 464 452 464 448V432C488 431 507 411 507 387C507 367 494 349 475 343ZM224 364V263L217 254L33 32H479L480 32L352 186C371 175 391 167 412 163L505 52C522 31 507 0 479 0H33C5 0 -10 31 7 52L192 275V368C192 376 196 383 202 388L278 440C269 424 263 407 260 389L224 364Z"/></svg>