<svg xmlns="http://www.w3.org/2000/svg" viewBox="0 0 448 512"><!-- Font Awesome Pro 6.0.0-alpha1 by @fontawesome - https://fontawesome.com License - https://fontawesome.com/license (Commercial License) --><path d="M224 480C167 480 109 458 66 414C-22 327 -22 185 66 98C153 10 295 10 382 97C388 103 389 112 384 118C378 126 367 127 360 120C285 45 163 45 88 120C13 195 13 317 88 392C163 467 285 467 360 392C390 362 410 326 416 291L416 288L225 288C217 288 209 283 208 275C207 265 214 256 224 256H432C441 256 448 263 448 272V272C448 292 445 312 438 330C426 361 407 390 382 414C339 458 281 480 224 480Z"/></svg>