<svg xmlns="http://www.w3.org/2000/svg" viewBox="0 0 512 512"><!-- Font Awesome Pro 6.0.0-alpha1 by @fontawesome - https://fontawesome.com License - https://fontawesome.com/license (Commercial License) --><path d="M256 192C221 192 192 221 192 256S221 320 256 320S320 291 320 256S291 192 256 192ZM256 288C238 288 224 274 224 256S238 224 256 224S288 238 288 256S274 288 256 288ZM506 267H506C489 194 428 135 355 120C341 117 328 116 314 116C307 116 301 116 294 117C305 97 323 81 344 71C374 58 384 0 314 0C298 0 282 2 267 6C194 23 135 84 120 157C116 178 115 198 117 218C97 207 81 189 71 167C56 133 5 140 1 178C-1 201 0 223 6 245C23 318 84 377 157 392C171 395 184 396 198 396C205 396 211 396 218 395C207 415 189 431 168 441C138 454 128 512 198 512C214 512 230 510 245 506C318 489 377 428 392 355C396 334 397 314 395 294C415 305 431 323 441 345C456 380 507 372 511 334C513 311 512 289 506 267ZM479 331C479 335 472 337 470 332C458 304 437 281 410 266C388 253 360 271 363 297C365 314 364 332 361 348C348 410 299 461 238 475C219 480 200 481 181 479C179 479 177 477 177 475C177 473 178 471 180 470C208 458 231 437 246 411C258 389 243 363 218 363C213 363 193 367 164 361C102 348 51 299 37 238C32 219 31 200 33 181C33 177 40 175 42 180C54 208 75 231 102 246C124 259 152 241 149 215C147 198 148 181 151 164C167 85 242 24 331 33C333 33 334 35 335 37C335 39 334 41 332 42C304 54 281 75 266 101C254 123 269 149 294 149C298 149 318 146 348 151C429 167 488 244 479 331Z"/></svg>