<svg xmlns="http://www.w3.org/2000/svg" viewBox="0 0 640 512"><!-- Font Awesome Pro 6.0.0-alpha1 by @fontawesome - https://fontawesome.com License - https://fontawesome.com/license (Commercial License) --><path d="M224 400C215 400 208 407 208 416S215 432 224 432C233 432 240 425 240 416S233 400 224 400ZM447 355L421 290C413 269 393 256 371 256H262C238 256 217 272 210 295L192 355C173 362 160 379 160 400V432C160 453 173 470 192 477V496C192 505 199 512 208 512C217 512 224 505 224 496V480H416V496C416 505 423 512 432 512C441 512 448 505 448 496V477C467 470 480 453 480 432V400C480 379 466 361 447 355ZM241 304C244 295 252 288 262 288H371C380 288 388 294 392 302L412 352H226L241 304ZM448 432C448 441 441 448 432 448H208C199 448 192 441 192 432V400C192 391 199 384 208 384H432C441 384 448 391 448 400V432ZM611 118L339 4C327 -1 313 -1 301 4L29 118C12 126 0 143 0 162V496C0 505 7 512 16 512C25 512 32 505 32 496V162C32 156 36 150 42 148L314 33C318 31 322 31 326 33L598 148C604 150 608 156 608 162V496C608 505 615 512 624 512C633 512 640 505 640 496V162C640 143 628 126 611 118ZM512 192H128C110 192 96 206 96 224V496C96 505 103 512 112 512C121 512 128 505 128 496V224H512V496C512 505 519 512 528 512C537 512 544 505 544 496V224C544 206 530 192 512 192ZM416 400C407 400 400 407 400 416S407 432 416 432C425 432 432 425 432 416S425 400 416 400Z"/></svg>