<svg xmlns="http://www.w3.org/2000/svg" viewBox="0 0 512 512"><!-- Font Awesome Pro 6.0.0-alpha1 by @fontawesome - https://fontawesome.com License - https://fontawesome.com/license (Commercial License) --><path d="M503 120L412 30C406 23 396 23 390 30C383 36 383 46 390 52L416 79V160C416 186 438 208 464 208H480V382C480 398 469 413 453 416C433 419 416 403 416 384V336C416 292 380 256 336 256H320V64C320 29 291 0 256 0H96C61 0 32 29 32 64V480H16C7 480 0 487 0 496S7 512 16 512H336C345 512 352 505 352 496S345 480 336 480H320V288H336C362 288 384 310 384 336V381C384 412 405 441 435 447C476 455 512 423 512 384V143C512 134 509 126 503 120ZM288 480H64V224H288V480ZM288 192H64V64C64 46 78 32 96 32H256C274 32 288 46 288 64V192ZM480 176H464C455 176 448 169 448 160V111L480 143V176Z"/></svg>