<svg xmlns="http://www.w3.org/2000/svg" viewBox="0 0 576 512"><!-- Font Awesome Pro 6.0.0-alpha1 by @fontawesome - https://fontawesome.com License - https://fontawesome.com/license (Commercial License) --><path d="M120 320C120 333 109 344 96 344S72 333 72 320S83 296 96 296S120 307 120 320ZM288 152C301 152 312 141 312 128S301 104 288 104S264 115 264 128S275 152 288 152ZM352 352C352 387 323 416 288 416S224 387 224 352C224 338 229 325 237 314L140 194C134 187 135 177 142 171C149 166 159 167 164 174L261 294C270 290 278 288 288 288C323 288 352 317 352 352ZM320 352C320 334 306 320 288 320S256 334 256 352C256 370 270 384 288 384S320 370 320 352ZM576 320C576 373 562 422 537 465C531 474 521 480 510 480H66C55 480 45 474 39 465C14 422 0 373 0 320C0 161 129 32 288 32S576 161 576 320ZM544 320C544 179 429 64 288 64S32 179 32 320C32 365 44 409 67 448H510C532 410 544 365 544 320ZM424 160C411 160 400 171 400 184S411 208 424 208S448 197 448 184S437 160 424 160ZM480 296C467 296 456 307 456 320S467 344 480 344C493 344 504 333 504 320S493 296 480 296Z"/></svg>