<svg xmlns="http://www.w3.org/2000/svg" viewBox="0 0 576 512"><!-- Font Awesome Pro 6.0.0-alpha1 by @fontawesome - https://fontawesome.com License - https://fontawesome.com/license (Commercial License) --><path d="M304 290V128C304 119 297 112 288 112S272 119 272 128V290C245 297 224 322 224 352C224 387 253 416 288 416S352 387 352 352C352 322 331 297 304 290ZM288 384C270 384 256 370 256 352C256 334 270 320 288 320S320 334 320 352C320 370 306 384 288 384ZM120 320C120 333 109 344 96 344S72 333 72 320S83 296 96 296S120 307 120 320ZM176 184C176 197 165 208 152 208S128 197 128 184S139 160 152 160S176 171 176 184ZM448 184C448 197 437 208 424 208S400 197 400 184S411 160 424 160S448 171 448 184ZM288 32C129 32 0 161 0 320C0 373 14 422 39 465C45 474 55 480 66 480H510C521 480 531 474 537 465C562 422 576 373 576 320C576 161 447 32 288 32ZM510 448H67C44 409 32 365 32 320C32 179 147 64 288 64S544 179 544 320C544 365 532 410 510 448ZM504 320C504 333 493 344 480 344C467 344 456 333 456 320S467 296 480 296C493 296 504 307 504 320Z"/></svg>