<svg xmlns="http://www.w3.org/2000/svg" viewBox="0 0 576 512"><!-- Font Awesome Pro 6.0.0-alpha1 by @fontawesome - https://fontawesome.com License - https://fontawesome.com/license (Commercial License) --><path d="M288 32C129 32 0 161 0 320C0 373 14 422 39 465C45 474 55 480 66 480H510C521 480 531 474 537 465C562 422 576 373 576 320C576 161 447 32 288 32ZM510 448H67C44 409 32 365 32 320C32 179 147 64 288 64S544 179 544 320C544 365 532 410 510 448ZM288 288C262 288 239 304 230 326L99 304C90 303 82 309 80 317C79 326 85 334 93 336L225 358C227 390 255 416 288 416C323 416 352 387 352 352S323 288 288 288ZM288 384C270 384 256 370 256 352S270 320 288 320S320 334 320 352S306 384 288 384Z"/></svg>