<svg xmlns="http://www.w3.org/2000/svg" viewBox="0 0 512 512"><!-- Font Awesome Pro 6.0.0-alpha1 by @fontawesome - https://fontawesome.com License - https://fontawesome.com/license (Commercial License) --><path d="M256 516C239 516 222 514 205 510C191 508 180 495 180 480V440C165 434 151 426 138 416L104 436C91 443 74 440 65 430C42 404 25 374 14 341C9 327 15 312 28 304L62 284C61 276 60 268 60 260S61 244 62 235L28 216C15 208 9 193 14 179C25 146 42 116 65 90C74 79 91 77 104 84L138 104C151 94 165 86 180 79V40C180 25 191 12 205 9C239 2 273 2 308 9C322 12 332 25 332 40V79C347 86 362 94 375 104L409 84C421 77 438 79 448 90C471 116 488 146 499 179C504 193 498 208 485 216L451 235C452 244 452 252 452 260S452 276 451 284L485 304C498 312 504 327 499 341C488 374 471 404 448 430C438 440 421 443 409 436L375 416C362 426 347 434 332 440V480C332 495 322 508 308 511C291 514 273 516 256 516ZM141 377C177 408 194 412 212 418V480C241 485 271 486 301 479L300 418C316 412 335 408 371 377L425 408C444 386 459 360 468 332L415 301C420 274 423 262 415 219L469 188C459 160 444 134 424 111L371 143C335 112 319 108 300 102V40C272 35 241 34 211 41L212 102C196 107 177 112 141 143L88 112C69 134 54 160 44 189L97 219C92 246 89 258 97 301L44 332C54 360 69 386 89 409L141 377ZM256 356C203 356 160 313 160 260S203 164 256 164S352 207 352 260S309 356 256 356ZM256 196C221 196 192 225 192 260S221 324 256 324S320 295 320 260S292 196 256 196Z"/></svg>