<svg xmlns="http://www.w3.org/2000/svg" viewBox="0 0 576 512"><!-- Font Awesome Pro 6.0.0-alpha1 by @fontawesome - https://fontawesome.com License - https://fontawesome.com/license (Commercial License) --><path d="M512 128H480C490 115 496 98 496 80C496 36 460 0 416 0C363 0 316 61 288 106C260 61 213 0 160 0C116 0 80 36 80 80C80 98 86 115 96 128H64C29 128 0 157 0 192V448C0 483 29 512 64 512H512C547 512 576 483 576 448V192C576 157 547 128 512 128ZM416 32C442 32 464 54 464 80S442 128 416 128H312C347 69 387 32 416 32ZM160 32C189 32 229 69 264 128H160C134 128 112 106 112 80S134 32 160 32ZM544 448C544 466 530 480 512 480H64C46 480 32 466 32 448V368H544V448ZM544 336H32V192C32 174 46 160 64 160H245L166 228C159 234 158 244 164 250C173 260 184 254 186 252L288 165L390 252C392 254 403 260 412 250C418 244 417 234 410 228L331 160H512C530 160 544 174 544 192V336Z"/></svg>