<svg xmlns="http://www.w3.org/2000/svg" viewBox="0 0 512 512"><!-- Font Awesome Pro 6.0.0-alpha1 by @fontawesome - https://fontawesome.com License - https://fontawesome.com/license (Commercial License) --><path d="M448 128H448C459 112 466 93 463 71C461 48 446 27 427 14C358 -33 291 49 256 106C221 49 154 -33 85 14C66 27 51 48 49 71C46 93 53 112 64 128H64C29 128 0 157 0 192V256C0 274 14 288 32 288V448C32 483 61 512 96 512H416C451 512 480 483 480 448V288C498 288 512 274 512 256V192C512 157 483 128 448 128ZM384 32C410 32 432 54 432 80S410 128 384 128H280C315 69 355 32 384 32ZM128 32C157 32 197 69 232 128H128C102 128 80 106 80 80S102 32 128 32ZM32 256V192C32 174 46 160 64 160H240V256H32ZM96 480C78 480 64 466 64 448V288H240V480H96ZM448 448C448 466 434 480 416 480H272V288H448V448ZM480 256H272V160H448C466 160 480 174 480 192V256Z"/></svg>