<svg xmlns="http://www.w3.org/2000/svg" viewBox="0 0 576 512"><!-- Font Awesome Pro 6.0.0-alpha1 by @fontawesome - https://fontawesome.com License - https://fontawesome.com/license (Commercial License) --><path d="M576 336C576 301 572 266 563 233L533 112C519 57 466 23 413 34C404 36 399 44 400 53C402 62 411 67 419 65C456 58 492 82 502 120L532 241C533 242 533 244 533 245C509 222 476 208 440 208C385 208 338 241 316 288H260C238 241 191 208 136 208C100 208 67 222 43 245C43 244 43 242 44 241L75 120C84 82 120 58 157 65C165 67 174 62 176 53C178 44 172 36 163 34C110 23 57 57 43 112L13 233C4 266 0 301 0 336C0 337 0 338 1 339C0 340 0 342 0 344C0 419 61 480 136 480S272 419 272 344C272 336 271 328 270 320H306C305 328 304 336 304 344C304 419 365 480 440 480S576 419 576 344C576 342 576 340 575 339C576 338 576 337 576 336ZM136 448C79 448 32 401 32 344S79 240 136 240S240 287 240 344S193 448 136 448ZM440 448C383 448 336 401 336 344S383 240 440 240S544 287 544 344S497 448 440 448Z"/></svg>