<svg xmlns="http://www.w3.org/2000/svg" viewBox="0 0 512 512"><!-- Font Awesome Pro 6.0.0-alpha1 by @fontawesome - https://fontawesome.com License - https://fontawesome.com/license (Commercial License) --><path d="M503 2C495 -2 486 1 482 9L295 382L58 329C44 326 29 329 18 338C7 348 0 361 0 376V464C0 490 22 512 48 512H256C262 512 268 509 270 503L318 407C318 407 318 407 318 407L510 23C514 15 511 6 503 2ZM246 480H48C39 480 32 473 32 464H80C89 464 96 457 96 448S89 432 80 432H32V416H80C89 416 96 409 96 400S89 384 80 384H32V376C32 371 34 366 38 363C41 361 44 360 48 360C49 360 50 360 51 360L281 411L246 480Z"/></svg>