<svg xmlns="http://www.w3.org/2000/svg" viewBox="0 0 384 512"><!-- Font Awesome Pro 6.0.0-alpha1 by @fontawesome - https://fontawesome.com License - https://fontawesome.com/license (Commercial License) --><path d="M288 336H96C89 336 83 340 81 347C79 353 81 360 86 364L176 439V496C176 505 183 512 192 512S208 505 208 496V439L298 364C303 360 305 353 303 347C301 340 295 336 288 336ZM192 411L140 368H244L192 411ZM192 304C218 304 240 282 240 256C240 247 233 240 224 240S208 247 208 256C208 265 201 272 192 272C183 272 176 279 176 288S183 304 192 304ZM192 0C91 0 8 83 8 184C8 225 22 265 48 298C54 305 64 306 71 301C78 295 79 285 74 278C52 250 40 218 40 184C40 100 108 32 192 32S344 100 344 184C344 218 332 250 310 278C305 285 306 295 313 301C316 303 319 304 323 304C328 304 332 302 336 298C362 265 376 225 376 184C376 83 293 0 192 0ZM192 208C218 208 240 186 240 160C240 151 233 144 224 144S208 151 208 160C208 169 201 176 192 176C183 176 176 183 176 192S183 208 192 208ZM304 176C295 176 288 183 288 192C288 201 281 208 272 208C263 208 256 215 256 224S263 240 272 240C298 240 320 218 320 192C320 183 313 176 304 176Z"/></svg>