<svg xmlns="http://www.w3.org/2000/svg" viewBox="0 0 512 512"><!-- Font Awesome Pro 6.0.0-alpha1 by @fontawesome - https://fontawesome.com License - https://fontawesome.com/license (Commercial License) --><path d="M277 416H235C211 416 192 435 192 459V496C192 505 199 512 208 512S224 505 224 496V459C224 453 229 448 235 448H277C283 448 288 453 288 459V496C288 505 295 512 304 512S320 505 320 496V459C320 435 301 416 277 416ZM496 352H480V240C480 231 473 224 464 224H448V144C448 135 441 128 432 128H416V16C416 7 409 0 400 0S384 7 384 16V32H320V16C320 7 313 0 304 0S288 7 288 16V32H224V16C224 7 217 0 208 0S192 7 192 16V32H128V16C128 7 121 0 112 0S96 7 96 16V128H80C71 128 64 135 64 144V224H48C39 224 32 231 32 240V352H16C7 352 0 359 0 368V496C0 505 7 512 16 512S32 505 32 496V384H96V496C96 505 103 512 112 512S128 505 128 496V384H384V496C384 505 391 512 400 512S416 505 416 496V384H480V496C480 505 487 512 496 512S512 505 512 496V368C512 359 505 352 496 352ZM128 64H384V128H128V64ZM256 192C247 192 240 199 240 208V224H192V160H320V224H272V208C272 199 265 192 256 192ZM128 352H64V256H128V352ZM160 224H96V160H160V224ZM272 352H240V325C240 322 242 320 245 320H267C270 320 272 322 272 325V352ZM352 352H304V325C304 305 287 288 267 288H245C225 288 208 305 208 325V352H160V256H352V352ZM352 224V160H416V224H352ZM448 352H384V256H448V352Z"/></svg>