<svg xmlns="http://www.w3.org/2000/svg" viewBox="0 0 384 512"><!-- Font Awesome Pro 6.0.0-alpha1 by @fontawesome - https://fontawesome.com License - https://fontawesome.com/license (Commercial License) --><path d="M368 480H352V416C352 398 338 384 320 384H64C46 384 32 398 32 416V480H16C7 480 0 487 0 496C0 505 7 512 16 512H368C377 512 384 505 384 496C384 487 377 480 368 480ZM320 480H64V416H320V480ZM46 314C57 322 71 322 82 314C142 274 202 248 260 239C262 239 336 229 336 280C336 302 318 320 296 320H176C167 320 160 327 160 336C160 345 167 352 176 352H290C327 352 361 327 367 291C375 245 357 235 278 172C232 135 193 83 162 18C156 7 145 0 133 0C132 0 131 0 130 0C116 1 105 11 102 24L33 280C30 293 34 306 46 314ZM133 32C166 102 208 157 258 197L270 206C265 206 260 207 255 208C192 217 128 244 64 288L133 32Z"/></svg>