<svg xmlns="http://www.w3.org/2000/svg" viewBox="0 0 640 512"><!-- Font Awesome Pro 6.0.0-alpha1 by @fontawesome - https://fontawesome.com License - https://fontawesome.com/license (Commercial License) --><path d="M512 192C512 186 508 180 502 177L150 33C142 30 133 34 129 42C126 50 130 59 138 63L454 192L138 321C130 325 126 334 129 342C132 348 138 352 144 352C146 352 148 352 150 351L502 207C508 204 512 199 512 192ZM96 464C96 473 103 480 112 480H528C537 480 544 473 544 464C544 455 537 448 528 448H112C103 448 96 455 96 464Z"/></svg>