<svg xmlns="http://www.w3.org/2000/svg" viewBox="0 0 512 512"><!-- Font Awesome Pro 6.0.0-alpha1 by @fontawesome - https://fontawesome.com License - https://fontawesome.com/license (Commercial License) --><path d="M160 0H128C119 0 112 7 112 16V48C112 57 119 64 128 64H160C169 64 176 57 176 48V16C176 7 169 0 160 0ZM272 0H240C231 0 224 7 224 16V48C224 57 231 64 240 64H272C281 64 288 57 288 48V16C288 7 281 0 272 0ZM384 0H352C343 0 336 7 336 16V48C336 57 343 64 352 64H384C393 64 400 57 400 48V16C400 7 393 0 384 0ZM496 0H464C455 0 448 7 448 16V48C448 57 455 64 464 64H496C505 64 512 57 512 48V16C512 7 505 0 496 0ZM48 0H16C7 0 0 7 0 16V48C0 57 7 64 16 64H48C57 64 64 57 64 48V16C64 7 57 0 48 0ZM496 448H464C455 448 448 455 448 464V496C448 505 455 512 464 512H496C505 512 512 505 512 496V464C512 455 505 448 496 448ZM384 448H352C343 448 336 455 336 464V496C336 505 343 512 352 512H384C393 512 400 505 400 496V464C400 455 393 448 384 448ZM272 448H240C231 448 224 455 224 464V496C224 505 231 512 240 512H272C281 512 288 505 288 496V464C288 455 281 448 272 448ZM48 448H16C7 448 0 455 0 464V496C0 505 7 512 16 512H48C57 512 64 505 64 496V464C64 455 57 448 48 448ZM160 448H128C119 448 112 455 112 464V496C112 505 119 512 128 512H160C169 512 176 505 176 496V464C176 455 169 448 160 448ZM48 336H16C7 336 0 343 0 352V384C0 393 7 400 16 400H48C57 400 64 393 64 384V352C64 343 57 336 48 336ZM272 336H240C231 336 224 343 224 352V384C224 393 231 400 240 400H272C281 400 288 393 288 384V352C288 343 281 336 272 336ZM160 336H128C119 336 112 343 112 352V384C112 393 119 400 128 400H160C169 400 176 393 176 384V352C176 343 169 336 160 336ZM384 336H352C343 336 336 343 336 352V384C336 393 343 400 352 400H384C393 400 400 393 400 384V352C400 343 393 336 384 336ZM496 336H464C455 336 448 343 448 352V384C448 393 455 400 464 400H496C505 400 512 393 512 384V352C512 343 505 336 496 336ZM272 224H240C231 224 224 231 224 240V272C224 281 231 288 240 288H272C281 288 288 281 288 272V240C288 231 281 224 272 224ZM384 224H352C343 224 336 231 336 240V272C336 281 343 288 352 288H384C393 288 400 281 400 272V240C400 231 393 224 384 224ZM496 224H464C455 224 448 231 448 240V272C448 281 455 288 464 288H496C505 288 512 281 512 272V240C512 231 505 224 496 224ZM48 224H16C7 224 0 231 0 240V272C0 281 7 288 16 288H48C57 288 64 281 64 272V240C64 231 57 224 48 224ZM160 224H128C119 224 112 231 112 240V272C112 281 119 288 128 288H160C169 288 176 281 176 272V240C176 231 169 224 160 224ZM496 112H464C455 112 448 119 448 128V160C448 169 455 176 464 176H496C505 176 512 169 512 160V128C512 119 505 112 496 112ZM384 112H352C343 112 336 119 336 128V160C336 169 343 176 352 176H384C393 176 400 169 400 160V128C400 119 393 112 384 112ZM160 112H128C119 112 112 119 112 128V160C112 169 119 176 128 176H160C169 176 176 169 176 160V128C176 119 169 112 160 112ZM272 112H240C231 112 224 119 224 128V160C224 169 231 176 240 176H272C281 176 288 169 288 160V128C288 119 281 112 272 112ZM48 112H16C7 112 0 119 0 128V160C0 169 7 176 16 176H48C57 176 64 169 64 160V128C64 119 57 112 48 112Z"/></svg>