<svg xmlns="http://www.w3.org/2000/svg" viewBox="0 0 448 512"><!-- Font Awesome Pro 6.0.0-alpha1 by @fontawesome - https://fontawesome.com License - https://fontawesome.com/license (Commercial License) --><path d="M80 288H48C22 288 0 310 0 336V368C0 394 22 416 48 416H80C106 416 128 394 128 368V336C128 310 106 288 80 288ZM96 368C96 377 89 384 80 384H48C39 384 32 377 32 368V336C32 327 39 320 48 320H80C89 320 96 327 96 336V368ZM80 96H48C22 96 0 118 0 144V176C0 202 22 224 48 224H80C106 224 128 202 128 176V144C128 118 106 96 80 96ZM96 176C96 185 89 192 80 192H48C39 192 32 185 32 176V144C32 135 39 128 48 128H80C89 128 96 135 96 144V176ZM240 96H208C182 96 160 118 160 144V176C160 202 182 224 208 224H240C266 224 288 202 288 176V144C288 118 266 96 240 96ZM256 176C256 185 249 192 240 192H208C199 192 192 185 192 176V144C192 135 199 128 208 128H240C249 128 256 135 256 144V176ZM400 96H368C342 96 320 118 320 144V176C320 202 342 224 368 224H400C426 224 448 202 448 176V144C448 118 426 96 400 96ZM416 176C416 185 409 192 400 192H368C359 192 352 185 352 176V144C352 135 359 128 368 128H400C409 128 416 135 416 144V176ZM400 288H368C342 288 320 310 320 336V368C320 394 342 416 368 416H400C426 416 448 394 448 368V336C448 310 426 288 400 288ZM416 368C416 377 409 384 400 384H368C359 384 352 377 352 368V336C352 327 359 320 368 320H400C409 320 416 327 416 336V368ZM240 288H208C182 288 160 310 160 336V368C160 394 182 416 208 416H240C266 416 288 394 288 368V336C288 310 266 288 240 288ZM256 368C256 377 249 384 240 384H208C199 384 192 377 192 368V336C192 327 199 320 208 320H240C249 320 256 327 256 336V368Z"/></svg>