<svg xmlns="http://www.w3.org/2000/svg" viewBox="0 0 384 512"><!-- Font Awesome Pro 6.0.0-alpha1 by @fontawesome - https://fontawesome.com License - https://fontawesome.com/license (Commercial License) --><path d="M368 240C368 231 361 224 352 224H208V96C251 96 291 113 321 143C327 149 337 149 344 143C350 137 350 126 344 120C307 84 259 64 208 64V16C208 7 201 0 192 0S176 7 176 16V67C137 73 101 92 72 120C-3 195 -3 317 72 392C99 419 136 437 176 445V496C176 505 183 512 192 512S208 505 208 496V449C211 449 214 450 217 450C219 450 220 450 222 450C277 450 328 430 363 395C366 392 368 388 368 384C368 370 368 254 368 240ZM95 369C32 307 32 205 95 143C117 120 145 105 176 99V412C144 405 116 390 95 369ZM336 377C306 404 265 418 218 418C215 418 211 417 208 417V256H336C336 288 336 354 336 377Z"/></svg>