<svg xmlns="http://www.w3.org/2000/svg" viewBox="0 0 640 512"><!-- Font Awesome Pro 6.0.0-alpha1 by @fontawesome - https://fontawesome.com License - https://fontawesome.com/license (Commercial License) --><path d="M501 37L474 11C468 4 458 0 448 0H448C439 0 429 4 422 11L381 55C378 58 376 62 375 67L363 126L297 193L291 187C277 176 262 167 244 163C236 161 227 160 218 160C194 160 171 168 154 185C145 194 138 206 134 219C128 237 111 251 92 253C68 255 46 265 30 282C-16 327 -8 409 48 465C79 496 119 512 156 512C184 512 211 502 231 482C248 466 257 444 259 420C261 401 275 384 293 378C306 374 318 367 327 357C350 334 357 301 349 268C345 250 336 235 325 221L319 215L331 203C331 203 331 203 331 203L386 148L445 137C449 136 454 134 457 131L501 89C516 75 516 52 501 37ZM304 335C298 341 291 345 284 347C253 357 230 385 227 417C226 429 222 446 208 460C191 477 170 480 156 480C126 480 95 466 70 442C46 418 32 386 32 356C32 342 36 321 52 304C66 290 83 286 95 285C127 282 155 259 165 228C167 221 171 213 177 208C190 195 207 192 218 192C225 192 231 193 237 194C247 197 258 202 268 210L274 215L229 261C229 261 229 261 229 261C222 258 215 256 208 256C181 256 160 277 160 304S181 352 208 352S256 331 256 304C256 297 254 290 251 283C251 283 251 283 251 283L296 238L302 244C310 254 315 265 318 275C323 299 318 321 304 335ZM224 304C224 313 217 320 208 320S192 313 192 304S199 288 208 288S224 295 224 304ZM479 66L437 106L399 113L406 75L445 34C448 31 451 32 452 33L479 60C480 62 480 65 479 66Z"/></svg>