<svg xmlns="http://www.w3.org/2000/svg" viewBox="0 0 512 512"><!-- Font Awesome Pro 6.0.0-alpha1 by @fontawesome - https://fontawesome.com License - https://fontawesome.com/license (Commercial License) --><path d="M144 180V134L169 94C171 90 172 85 172 81V26C172 12 160 0 145 0H111C96 0 84 12 84 26V80C84 85 85 89 87 93L112 134V180C88 182 64 188 43 210C28 225 18 245 18 266C18 278 21 290 27 300C35 316 33 336 22 349C8 366 0 385 0 407C0 465 57 512 128 512C154 512 178 506 198 495C205 491 207 482 204 474C204 474 204 474 204 474C200 466 190 463 182 467C166 475 148 480 128 480C101 480 76 472 58 457C41 443 32 425 32 407C32 390 40 377 46 370C66 346 69 313 55 286C52 280 50 273 50 266C50 241 75 214 112 214L112 275C93 282 80 299 80 320C80 346 102 368 128 368C154 368 176 346 176 320C176 299 163 282 144 275L144 214C163 213 178 219 191 233C198 239 208 240 214 233C221 226 220 217 215 211C190 185 159 182 144 180ZM116 32H140V81L128 103L116 81V32ZM144 320C144 329 137 336 128 336S112 329 112 320S119 304 128 304S144 311 144 320ZM400 336H336C327 336 320 343 320 352C320 361 327 368 336 368H400C409 368 416 361 416 352C416 343 409 336 400 336ZM400 400H336C327 400 320 407 320 416C320 425 327 432 336 432H400C409 432 416 425 416 416C416 407 409 400 400 400ZM505 387L474 336C467 316 463 307 472 287C477 276 480 264 480 252V221C480 212 474 202 464 200C463 200 461 200 459 200C452 200 444 204 441 211L429 234C423 246 417 254 404 256H384V93C404 86 418 66 416 42C413 18 391 0 366 0C346 0 328 14 323 35C316 68 305 115 304 121C302 132 305 143 313 151L352 182V256H332C319 253 314 242 309 229L294 189C291 181 284 176 276 176C270 176 266 178 262 182C258 186 256 190 256 196V252C256 264 259 276 264 287C273 307 269 316 262 336L231 387C206 446 249 512 314 512H422C487 512 530 446 505 387ZM335 128C337 122 347 75 354 42C356 36 361 32 366 32C375 32 383 38 384 46C385 55 379 61 373 63C361 67 352 80 352 93V141L335 128ZM470 454C460 470 442 480 422 480H314C294 480 277 471 266 454C255 438 253 419 260 401L289 353C290 351 291 349 292 347L292 346C300 324 307 305 293 273C291 269 290 265 289 261C296 271 306 282 324 287C326 288 329 288 332 288H404C406 288 408 288 410 287C427 284 438 275 446 266C445 269 444 271 443 273C428 304 436 324 443 345L444 347C445 349 446 351 447 353L476 401C483 419 481 438 470 454Z"/></svg>