<svg xmlns="http://www.w3.org/2000/svg" viewBox="0 0 512 512"><!-- Font Awesome Pro 6.0.0-alpha1 by @fontawesome - https://fontawesome.com License - https://fontawesome.com/license (Commercial License) --><path d="M171 277C165 270 155 270 149 277S142 293 149 299L213 363C216 366 220 368 224 368S232 366 235 363C242 357 242 347 235 341L171 277ZM123 325C117 318 107 318 101 325S94 341 101 347L165 411C168 414 172 416 176 416S184 414 187 411C194 405 194 395 187 389L123 325ZM498 18C487 6 471 0 455 0C446 0 437 2 428 6L384 28C368 37 357 53 357 71V135L274 215L269 210C266 206 265 201 267 197L283 163C291 145 286 123 269 111C253 100 230 102 216 116L181 151C171 161 163 174 159 187C154 199 145 209 134 214L64 246C33 259 9 287 2 321C-5 355 6 390 30 414L98 482C122 506 157 517 191 510C225 503 253 479 266 447L298 378C303 367 313 358 325 353C339 349 351 341 361 331L381 311C397 295 397 268 381 251C373 243 362 239 351 239C346 239 342 240 338 241L316 248C315 248 313 249 312 249C307 249 304 246 302 244L297 238L443 95C450 98 457 100 464 100C477 100 489 95 498 86C507 77 512 64 512 52C512 39 507 27 498 18ZM312 281V281C317 281 321 280 326 278L348 272C349 271 350 271 351 271C354 271 356 272 358 274C360 276 361 279 361 281S360 287 358 289L338 308C331 315 323 320 314 323C294 330 278 345 269 365L237 434L237 435L236 435C228 458 208 474 185 479C161 483 137 476 120 459L53 392C36 375 29 351 33 327C38 304 54 285 75 276L76 276L77 275L147 243C167 234 181 218 189 198C192 189 197 181 204 174L239 139C241 137 243 136 245 136S250 137 252 139C255 142 255 146 254 149L238 183C231 198 233 216 243 229L280 267C291 278 304 281 312 281ZM475 63C472 66 468 68 464 68S456 66 453 63C450 60 446 58 441 58C437 58 433 60 430 63L389 104V71C389 65 393 60 398 57L442 35C446 33 451 32 455 32C463 32 470 35 475 40C482 47 482 57 475 63Z"/></svg>