<svg xmlns="http://www.w3.org/2000/svg" viewBox="0 0 576 512"><!-- Font Awesome Pro 6.0.0-alpha1 by @fontawesome - https://fontawesome.com License - https://fontawesome.com/license (Commercial License) --><path d="M256 64C247 64 240 71 240 80V224H48V80C48 71 41 64 32 64S16 71 16 64V416C16 441 23 448 32 448S48 441 48 432V256H240V432C240 441 247 448 256 448S272 441 272 416V64C272 71 265 64 256 64ZM528 416H464V80C464 74 461 69 456 66C452 63 446 63 441 66L377 98C369 102 366 111 370 119C374 127 383 130 391 126L432 106V416H368C359 416 352 423 352 432S359 448 368 448H528C537 448 544 441 544 432S537 416 528 416Z"/></svg>