<svg xmlns="http://www.w3.org/2000/svg" viewBox="0 0 640 512"><!-- Font Awesome Pro 6.0.0-alpha1 by @fontawesome - https://fontawesome.com License - https://fontawesome.com/license (Commercial License) --><path d="M256 64C247 64 240 71 240 80V224H48V80C48 71 41 64 32 64S16 71 16 64V416C16 441 23 448 32 448S48 441 48 432V256H240V432C240 441 247 448 256 448S272 441 272 416V64C272 71 265 64 256 64ZM495 211L589 90C592 85 593 78 590 73S582 64 576 64H352C343 64 336 71 336 80S343 96 352 96H543L451 214C448 219 447 226 450 231S458 240 464 240C526 240 576 279 576 328S526 416 464 416C412 416 366 387 355 348C352 339 343 334 335 337S322 348 324 356C340 410 397 448 464 448C543 448 608 394 608 328C608 271 559 222 495 211Z"/></svg>