<svg xmlns="http://www.w3.org/2000/svg" viewBox="0 0 512 512"><!-- Font Awesome Pro 6.0.0-alpha1 by @fontawesome - https://fontawesome.com License - https://fontawesome.com/license (Commercial License) --><path d="M256 328C243 328 232 339 232 352S243 376 256 376S280 365 280 352S269 328 256 328ZM452 224H416V96C416 61 387 32 352 32C339 32 327 36 316 43C308 18 284 0 256 0C228 0 204 18 196 43C185 36 173 32 160 32C125 32 96 61 96 96V224H60C19 224 0 261 0 288C0 303 5 318 15 330L105 440C142 486 197 512 256 512S370 486 407 440L497 330C507 318 512 303 512 288C512 261 493 224 452 224ZM472 310L385 417C360 447 326 470 288 477C227 489 167 466 129 420L40 310C32 301 30 287 34 275C39 263 49 256 60 256H128L128 98C128 82 139 67 155 65C175 61 192 77 192 96V208C192 217 199 224 208 224H208C217 224 224 217 224 208L224 66C224 50 235 35 251 33C271 29 288 45 288 64V208C288 217 295 224 304 224H304C313 224 320 217 320 208L320 98C320 82 331 67 347 65C367 61 384 77 384 96V256H452C463 256 473 263 478 275C482 287 480 301 472 310ZM256 272C237 272 198 274 144 342C139 348 139 356 144 362C198 430 237 432 256 432S314 430 368 362C373 356 373 348 368 342C314 274 275 272 256 272ZM256 400C212 400 176 352 176 352S212 304 256 304S336 352 336 352S300 400 256 400Z"/></svg>