<svg xmlns="http://www.w3.org/2000/svg" viewBox="0 0 640 512"><!-- Font Awesome Pro 6.0.0-alpha1 by @fontawesome - https://fontawesome.com License - https://fontawesome.com/license (Commercial License) --><path d="M436 18C422 5 405 0 390 0C367 0 345 11 331 25L320 37L309 25C295 11 273 0 250 0C234 0 218 5 204 18C169 48 167 103 198 136L307 250C314 258 326 258 333 250L442 136C473 103 471 48 436 18ZM419 114L320 218L221 114C204 97 201 62 224 42C233 35 242 32 251 32C265 32 278 39 286 48L320 83L354 48C362 39 375 32 389 32C398 32 407 35 415 42C439 63 436 96 419 114ZM220 249C206 230 171 217 146 245C130 262 130 288 144 306L172 345C179 354 166 365 158 356L97 283L96 114C96 88 75 64 49 64C22 64 0 85 0 112L1 314C1 325 4 336 11 344L118 478C122 484 126 492 127 500C129 507 135 512 143 512H143C153 512 161 502 158 493C156 480 150 467 143 458L36 324C34 322 33 318 33 314L32 112C32 91 64 90 64 113L65 294L129 372C166 416 226 369 200 329C200 329 199 329 199 329L169 286C164 280 165 270 172 264C179 259 189 260 195 268L237 326C250 343 257 363 257 384V496C256 505 264 512 272 512H273C281 512 288 505 288 496V384C288 356 279 329 263 307L220 249ZM639 112C639 85 617 64 591 64C565 64 543 88 543 114L544 283L482 356C475 364 462 354 468 345L497 306C510 288 510 261 495 245C469 217 434 229 420 249L378 307C361 329 352 356 352 384V496C352 505 359 512 368 512H368C377 512 384 505 384 496V384C384 363 391 343 404 326L446 268C451 260 461 259 468 264C476 270 477 280 472 286L441 329C441 329 441 329 441 329C415 369 475 416 512 372L576 294L575 113C575 90 607 91 607 112L608 314C608 318 607 321 605 324L498 458C490 467 485 480 482 492C480 502 488 512 498 512C505 512 512 507 513 500C515 492 518 483 523 478L630 344C636 336 640 325 640 314L639 112Z"/></svg>