<svg xmlns="http://www.w3.org/2000/svg" viewBox="0 0 576 512"><!-- Font Awesome Pro 6.0.0-alpha1 by @fontawesome - https://fontawesome.com License - https://fontawesome.com/license (Commercial License) --><path d="M558 334C549 325 536 320 523 320C511 320 498 324 488 332L427 382C425 383 423 384 420 384H379C383 374 385 363 383 352C379 324 354 304 326 304H181C161 304 140 311 124 323L85 352H16C7 352 0 359 0 368S7 384 16 384H96L143 349C154 340 167 336 181 336H328C341 336 352 347 352 360S341 384 328 384H240C231 384 224 391 224 400C224 409 231 416 240 416H420C430 416 439 413 447 407L509 358C513 354 518 352 523 352C528 352 533 354 537 358C547 367 546 382 536 390L435 471C428 477 418 480 409 480H16C7 480 0 487 0 496S7 512 16 512H408C425 512 442 506 455 496L556 415C568 405 575 391 576 375C576 359 570 344 558 334ZM276 191C268 190 263 188 237 180C229 177 220 181 217 190C214 198 219 207 227 210C256 220 263 221 272 223V240C272 249 279 256 288 256S304 249 304 240V223C334 220 355 204 359 179C367 133 322 121 292 113L285 111C251 101 246 94 248 82C251 66 276 62 300 65C306 66 314 68 325 72C333 74 342 70 345 62C348 53 343 44 335 41C323 37 312 35 304 34V16C304 7 297 0 288 0S272 7 272 16V33C242 36 221 52 217 77C209 122 254 135 276 141L284 143C322 154 330 159 327 174C325 190 300 194 276 191Z"/></svg>