<svg xmlns="http://www.w3.org/2000/svg" viewBox="0 0 576 512"><!-- Font Awesome Pro 6.0.0-alpha1 by @fontawesome - https://fontawesome.com License - https://fontawesome.com/license (Commercial License) --><path d="M558 334C549 325 536 320 523 320C511 320 498 324 488 332L427 382C425 383 423 384 420 384H379C383 374 385 363 383 352C379 324 354 304 326 304H181C161 304 140 311 124 323L85 352H16C7 352 0 359 0 368S7 384 16 384H96L143 349C154 340 167 336 181 336H328C341 336 352 347 352 360S341 384 328 384H240C231 384 224 391 224 400C224 409 231 416 240 416H420C430 416 439 413 447 407L509 358C513 354 518 352 523 352C528 352 533 354 537 358C547 367 546 382 536 390L435 471C428 477 418 480 409 480H16C7 480 0 487 0 496S7 512 16 512H408C425 512 442 506 455 496L556 415C568 405 575 391 576 375C576 359 570 344 558 334ZM192 192H224V224C224 242 238 256 256 256H320C338 256 352 242 352 224V192H384C402 192 416 178 416 160V96C416 78 402 64 384 64H352V32C352 14 338 0 320 0H256C238 0 224 14 224 32V64H192C174 64 160 78 160 96V160C160 178 174 192 192 192ZM192 96H256V32H320V96H384V160H320V224H256V160H192V96Z"/></svg>