<svg xmlns="http://www.w3.org/2000/svg" viewBox="0 0 512 512"><!-- Font Awesome Pro 6.0.0-alpha1 by @fontawesome - https://fontawesome.com License - https://fontawesome.com/license (Commercial License) --><path d="M512 198C512 165 485 138 451 138H262L227 92C212 74 190 64 167 64H117C89 64 63 79 50 103L17 164C6 184 0 206 0 228V346C0 420 61 480 136 480H241C275 480 302 453 302 420V412C320 402 332 382 332 361V346C332 340 331 334 329 329C341 318 347 303 347 287V272C347 267 346 263 345 258H451C485 258 512 231 512 198ZM451 170C467 170 480 183 480 198S467 226 451 226H319C313 226 307 230 305 236C302 242 303 249 307 253C311 257 315 263 315 272V287C315 296 310 305 302 311C294 315 292 325 296 332C299 337 300 341 300 346V361C300 373 292 383 281 387C274 390 270 397 270 403L270 420C270 435 257 448 241 448H136C79 448 32 402 32 346V228C32 211 36 194 45 179L78 119C86 105 101 96 117 96H167C181 96 193 102 202 112L222 138H174C165 138 158 145 158 154S165 170 174 170H451Z"/></svg>