<svg xmlns="http://www.w3.org/2000/svg" viewBox="0 0 640 512"><!-- Font Awesome Pro 6.0.0-alpha1 by @fontawesome - https://fontawesome.com License - https://fontawesome.com/license (Commercial License) --><path d="M311 294C310 290 309 286 307 282C310 278 312 274 314 270C320 258 321 244 316 231C311 216 302 203 292 191L314 185C341 178 358 149 350 122C343 99 322 83 297 84C306 73 319 44 296 18C286 7 271 0 256 0C231 0 221 12 191 38C180 2 145 0 140 0C119 0 100 12 92 30L16 195C5 218 0 242 0 266C0 331 54 384 121 384H212L213 384C249 381 283 362 303 333C311 322 314 308 311 294ZM246 254C240 237 223 226 204 226C180 226 160 245 160 269S180 312 204 312C219 312 233 304 241 293C256 270 292 293 277 315C262 336 237 350 212 352H121C72 352 32 313 32 266C32 246 36 226 45 208L121 43C132 19 170 36 159 60L123 135L242 36C263 19 290 49 269 67L168 151L293 116C320 109 331 148 305 155L208 182L232 190C258 198 277 217 286 241C295 266 255 280 246 254ZM216 268C216 275 211 280 204 280S192 275 192 268S197 256 204 256S216 261 216 268ZM519 128H428L427 128C391 131 357 150 337 179C329 190 326 204 329 218C330 222 331 226 333 230C330 234 328 238 326 242C320 254 319 268 324 281C329 296 337 309 348 321L326 327C299 334 282 363 290 390C297 413 318 429 343 428C334 439 321 468 344 494C354 505 369 512 384 512C409 512 419 500 449 474C460 510 495 512 500 512C521 512 540 500 548 482L624 317C635 294 640 270 640 246C640 181 586 128 519 128ZM595 304L519 469C508 493 470 476 481 452L517 377L398 476C377 493 350 463 371 445L472 361L347 396C320 403 309 364 335 357L432 330L408 322C382 314 363 295 354 271C345 246 385 232 394 258C400 275 417 286 436 286C460 286 480 267 480 243S460 200 436 200C421 200 407 208 399 219C384 242 348 219 363 197C378 176 403 162 428 160H519C568 160 608 199 608 246C608 266 604 286 595 304ZM424 244C424 237 429 232 436 232S448 237 448 244S443 256 436 256S424 251 424 244Z"/></svg>