<svg xmlns="http://www.w3.org/2000/svg" viewBox="0 0 640 512"><!-- Font Awesome Pro 6.0.0-alpha1 by @fontawesome - https://fontawesome.com License - https://fontawesome.com/license (Commercial License) --><path d="M640 496C640 489 635 483 628 481L394 411C360 401 336 370 336 334V248C336 235 347 224 360 224S384 235 384 248V304C384 313 391 320 400 320H400C409 320 416 313 416 304V228C416 211 412 195 403 180L339 68C333 56 337 42 348 35C359 29 374 32 381 44L467 195C476 210 480 226 480 243V310C480 324 489 336 503 340L619 379C630 382 640 375 640 364V364C640 357 635 351 629 348L512 310V243C512 221 506 199 495 180L409 28C399 11 380 0 360 0C345 0 331 6 320 17C309 6 295 0 280 0C260 0 241 11 231 28L145 180C134 199 128 221 128 243V310L11 349C5 351 0 357 0 364V364C0 375 10 382 21 379L137 340C151 336 160 324 160 310V243C160 226 164 210 173 196L259 44C266 32 281 29 292 35C303 42 307 56 301 68L237 180C228 195 224 211 224 228V304C224 313 231 320 240 320H240C249 320 256 313 256 304V248C256 235 267 224 280 224S304 235 304 248V334C304 370 280 401 246 411L12 481C5 483 0 489 0 496V496C0 507 10 514 20 511L254 442C283 434 306 415 320 391C334 415 357 434 386 442L620 511C630 514 640 507 640 496L640 496ZM320 210C311 201 299 194 286 192C279 192 272 192 266 194L320 99L374 194C368 192 361 192 354 192C341 194 329 201 320 210Z"/></svg>