<svg xmlns="http://www.w3.org/2000/svg" viewBox="0 0 512 512"><!-- Font Awesome Pro 6.0.0-alpha1 by @fontawesome - https://fontawesome.com License - https://fontawesome.com/license (Commercial License) --><path d="M503 116C495 102 481 92 466 89C454 86 443 87 432 90C432 64 416 40 390 32C344 17 317 56 313 77L291 182L256 45C248 13 215 -6 183 2C151 10 131 43 140 75L143 90C122 83 99 89 83 104S61 143 68 164C109 304 107 296 107 297L101 292C77 269 39 270 16 295C-6 319 -5 357 19 380L117 472C144 498 180 512 218 512H333C388 512 436 474 448 421L510 161C514 146 511 129 503 116ZM479 154L417 414C408 453 373 480 333 480H218C189 480 160 469 139 449L41 356C14 331 52 290 80 315L134 367C140 372 148 368 148 361C148 336 144 310 137 286L98 155C88 119 142 103 153 139L186 253C192 273 221 264 216 245L171 67C161 31 216 17 225 53L276 251C281 269 306 268 310 250L344 84C352 47 407 57 399 97L369 246C365 265 393 272 398 253L424 141C433 104 488 118 479 154Z"/></svg>