<svg xmlns="http://www.w3.org/2000/svg" viewBox="0 0 576 512"><!-- Font Awesome Pro 6.0.0-alpha1 by @fontawesome - https://fontawesome.com License - https://fontawesome.com/license (Commercial License) --><path d="M558 334C549 325 536 320 523 320C511 320 498 324 488 332L427 382C425 383 423 384 420 384H379C383 374 385 363 383 352C379 324 354 304 326 304H181C161 304 140 311 124 323L85 352H16C7 352 0 359 0 368S7 384 16 384H96L143 349C154 340 167 336 181 336H328C341 336 352 347 352 360S341 384 328 384H240C231 384 224 391 224 400C224 409 231 416 240 416H420C430 416 439 413 447 407L509 358C513 354 518 352 523 352C528 352 533 354 537 358C547 367 546 382 536 390L435 471C428 477 418 480 409 480H16C7 480 0 487 0 496S7 512 16 512H408C425 512 442 506 455 496L556 415C568 405 575 391 576 375C576 359 570 344 558 334ZM160 256H416C451 256 480 227 480 192V64C480 29 451 0 416 0H160C125 0 96 29 96 64V192C96 227 125 256 160 256ZM240 32H336V102C326 97 312 90 295 82C291 79 285 79 281 82L240 102V32ZM128 64C128 46 142 32 160 32H208V128C208 134 211 139 216 142C218 143 221 144 224 144C226 144 229 143 231 142L288 114C302 121 331 135 341 140C347 146 365 144 368 132C368 128 369 126 368 124C368 105 368 32 368 32H416C434 32 448 46 448 64V192C448 210 434 224 416 224H160C142 224 128 210 128 192V64Z"/></svg>