<svg xmlns="http://www.w3.org/2000/svg" viewBox="0 0 640 512"><!-- Font Awesome Pro 6.0.0-alpha1 by @fontawesome - https://fontawesome.com License - https://fontawesome.com/license (Commercial License) --><path d="M258 98C267 97 273 89 272 80C271 71 262 65 254 66C236 69 219 74 202 81L231 104C240 102 249 99 258 98ZM350 150C339 160 330 168 322 176L347 196C361 183 372 173 372 173C378 167 379 157 373 151C367 144 357 144 350 150ZM286 148L338 100C340 97 344 96 347 96H356C405 96 454 118 491 155L496 160H528V339L560 364V160H624C633 160 640 153 640 144S633 128 624 128H509C467 87 411 64 356 64H347C336 64 325 68 316 76L261 128L286 148ZM381 425C374 433 362 434 354 428L337 413L325 405L314 415C306 425 296 431 284 432C272 433 260 429 251 422L160 352H112V173L55 128H16C7 128 0 135 0 144S7 160 16 160H80V368C80 377 73 384 64 384H32C23 384 16 391 16 400S23 416 32 416H64C85 416 102 403 109 384H149L231 447C245 458 262 464 279 464C282 464 284 464 287 464C302 462 316 456 327 447L333 452C355 470 388 467 406 445L425 421L400 401L381 425ZM624 384H585L626 416C634 415 640 408 640 400C640 391 633 384 624 384ZM26 3C19 -2 9 -1 3 6C-2 13 -1 23 6 29L614 509C617 511 621 512 624 512C629 512 633 510 637 506C642 499 641 489 634 483L26 3Z"/></svg>