<svg xmlns="http://www.w3.org/2000/svg" viewBox="0 0 576 512"><!-- Font Awesome Pro 6.0.0-alpha1 by @fontawesome - https://fontawesome.com License - https://fontawesome.com/license (Commercial License) --><path d="M576 375C575 391 568 405 556 415L455 496C442 506 425 512 408 512H16C7 512 0 505 0 496S7 480 16 480H409C418 480 428 477 435 471L536 390C546 382 547 367 537 357C533 354 528 352 523 352C518 352 513 354 508 357L447 407C439 413 430 416 420 416H240C231 416 224 409 224 400C224 391 231 384 240 384H328C341 384 352 373 352 360S341 336 328 336H181C167 336 154 340 143 349L96 384H16C7 384 0 377 0 368S7 352 16 352H85L124 323C140 311 160 304 181 304H326C354 304 379 324 383 352C385 363 383 374 379 384H420C423 384 425 383 427 382L488 332C498 324 511 320 523 320C536 320 549 325 558 334C570 344 576 359 576 375Z"/></svg>