<svg xmlns="http://www.w3.org/2000/svg" viewBox="0 0 512 512"><!-- Font Awesome Pro 6.0.0-alpha1 by @fontawesome - https://fontawesome.com License - https://fontawesome.com/license (Commercial License) --><path d="M343 480H166C143 480 121 474 101 464L40 430C15 417 0 392 0 364V270C0 247 10 225 28 211L75 181V137C75 96 109 62 150 62C156 62 161 62 167 64C177 45 197 32 220 32H250C272 32 291 44 302 62C303 62 304 62 305 62H335C357 62 378 74 388 93C393 92 399 91 404 91C446 91 480 125 480 167L480 287C480 308 476 329 468 348L441 414C425 454 386 480 343 480ZM75 219L47 237C38 244 32 256 32 270V364C32 380 41 395 55 402L116 435C132 444 149 448 166 448H343C373 448 400 430 412 402L438 336C444 320 448 304 448 287L448 167C448 137 415 114 385 128C381 130 376 130 371 128C367 126 364 122 363 117C360 103 348 94 335 94H305C302 94 300 94 297 95C289 97 280 93 277 84C274 72 263 64 250 64H220C206 64 195 74 192 87C191 92 188 96 183 98C179 100 174 100 169 98C140 84 107 107 107 137V278C107 287 99 294 91 294S75 287 75 278V219Z"/></svg>