<svg xmlns="http://www.w3.org/2000/svg" viewBox="0 0 576 512"><!-- Font Awesome Pro 6.0.0-alpha1 by @fontawesome - https://fontawesome.com License - https://fontawesome.com/license (Commercial License) --><path d="M275 250C282 258 294 258 301 250L410 136C441 103 439 48 404 18C369 -13 323 1 299 25L288 37L277 25C254 1 208 -13 172 18C137 48 135 103 166 136L275 250ZM192 42C213 24 241 33 254 48L288 83L322 48C335 33 363 24 384 42C407 62 404 96 387 114L288 218L189 114C172 97 169 62 192 42ZM558 334C549 325 536 320 523 320C511 320 498 324 488 332L427 382C425 383 423 384 420 384H379C383 374 385 363 383 352C379 324 354 304 326 304H181C161 304 140 311 124 323L85 352H16C7 352 0 359 0 368S7 384 16 384H96L143 349C154 340 167 336 181 336H328C341 336 352 347 352 360S341 384 328 384H240C231 384 224 391 224 400C224 409 231 416 240 416H420C430 416 439 413 447 407L509 358C513 354 518 352 523 352C528 352 533 354 537 358C547 367 546 382 536 390L435 471C428 477 418 480 409 480H16C7 480 0 487 0 496S7 512 16 512H408C425 512 442 506 455 496L556 415C568 405 575 391 576 375C576 359 570 344 558 334Z"/></svg>