<svg xmlns="http://www.w3.org/2000/svg" viewBox="0 0 512 512"><!-- Font Awesome Pro 6.0.0-alpha1 by @fontawesome - https://fontawesome.com License - https://fontawesome.com/license (Commercial License) --><path d="M360 300C354 296 342 288 326 288C313 288 300 293 288 301C276 293 263 288 250 288C234 288 222 296 216 300C204 310 196 325 195 341C195 357 201 372 212 384L270 440C275 445 281 448 288 448C295 448 301 446 306 441L364 384C376 372 382 357 381 341C380 325 372 310 360 300ZM342 361L288 413L234 361C226 352 224 335 236 325C240 322 254 311 277 334L288 345L299 334C322 311 336 322 340 325L340 325C352 335 351 352 342 361ZM424 79C415 79 407 81 400 85C398 55 374 32 344 32C334 32 325 34 317 39C310 16 289 0 264 0C233 0 208 25 208 56V58C197 46 179 38 161 40C147 42 133 49 124 60C115 72 111 86 112 100C122 193 126 273 127 308L98 269C88 257 74 249 59 248C44 246 29 251 17 262C-3 281 -6 314 12 337L98 450C126 489 171 512 218 512H320C408 512 480 440 480 352V135C480 104 455 79 424 79ZM448 352C448 422 391 480 320 480H218C181 480 146 462 124 431L37 317C30 307 30 293 39 285C43 281 49 279 54 279C55 279 56 279 56 279C63 280 68 283 72 288L107 334C116 345 130 350 143 346C153 342 160 331 160 319C159 294 155 204 144 97C143 91 145 85 149 81C153 76 158 73 165 72C177 71 189 80 190 92C202 210 207 238 208 243C210 251 218 257 226 256C234 255 240 248 240 240V56C240 43 251 32 264 32S288 43 288 56V240C288 249 295 256 304 256C313 256 320 249 320 240V88C320 75 331 64 344 64S368 75 368 88V240C368 248 375 256 384 256C393 256 400 248 400 240V135C400 122 411 111 424 111S448 122 448 135V352Z"/></svg>