<svg xmlns="http://www.w3.org/2000/svg" viewBox="0 0 640 512"><!-- Font Awesome Pro 6.0.0-alpha1 by @fontawesome - https://fontawesome.com License - https://fontawesome.com/license (Commercial License) --><path d="M138 160L145 160L149 155C179 124 217 104 258 98C267 97 273 89 272 80C271 71 262 65 254 66C208 73 164 95 131 128H16C7 128 0 135 0 144S7 160 16 160H138ZM221 165C201 186 200 219 219 241C227 249 240 258 258 258C258 258 259 258 260 258C273 258 285 254 295 244L301 240V239C317 224 372 173 372 173C378 167 379 157 373 151C367 144 357 144 350 150C302 194 283 212 274 221L274 221C269 225 264 227 259 226C252 226 246 222 243 219C236 211 234 197 244 187L338 100C340 97 344 96 347 96H356C405 96 454 118 491 155L496 160H624C633 160 640 153 640 144S633 128 624 128H509C467 87 411 64 356 64H347C336 64 325 68 316 76L222 165L221 165ZM624 352H499C497 344 493 337 486 332L377 244C370 238 360 239 355 246C349 253 350 263 357 268L466 357C472 362 473 371 468 377L459 388C454 394 445 395 439 390L421 376L381 425C374 433 362 434 354 428L337 413L325 405L314 415C306 425 296 431 284 432C272 433 260 430 251 422L160 352H32C23 352 16 359 16 368S23 384 32 384H149L231 447C245 458 262 464 279 464C282 464 284 464 287 464C302 462 316 456 327 447L333 452C355 470 388 467 406 445L426 420C445 430 469 425 483 408L493 397C496 393 498 388 499 384H624C633 384 640 377 640 368S633 352 624 352Z"/></svg>