<svg xmlns="http://www.w3.org/2000/svg" viewBox="0 0 640 512"><!-- Font Awesome Pro 6.0.0-alpha1 by @fontawesome - https://fontawesome.com License - https://fontawesome.com/license (Commercial License) --><path d="M640 400C640 409 633 416 624 416H576C555 416 538 403 531 384H499C498 388 496 393 493 397L483 408C469 425 445 430 426 420L406 445C388 467 355 470 334 452L327 447C316 456 302 462 287 464C284 464 282 464 279 464C262 464 245 458 231 447L149 384H109C102 403 85 416 64 416H32C23 416 16 409 16 400S23 384 32 384H64C73 384 80 377 80 368V160H16C7 160 0 153 0 144S7 128 16 128H131C164 95 208 73 254 66C262 65 271 71 272 80C273 89 267 97 258 98C217 104 179 124 149 155L145 160L112 160V352H160L251 422C260 429 272 433 284 432C296 431 306 425 314 415L325 405L337 413L354 428C362 434 374 433 381 425L421 376L439 390C445 395 454 394 459 388L468 377C473 371 472 362 466 357L357 268C350 263 349 253 355 246C360 239 370 238 377 244L486 332C493 337 497 344 499 352H528V160H496L491 155C454 118 405 96 356 96H347C344 96 341 97 338 100L244 187C234 197 236 211 243 219C246 222 252 226 259 226C264 227 269 225 274 221L274 221C283 212 302 194 350 150C357 144 367 144 373 151C379 157 378 167 372 173C372 173 317 224 301 240V240L295 244C285 254 273 258 260 258C259 258 258 258 258 258C240 258 227 249 219 241C200 219 201 186 221 165L222 165L316 76C325 68 336 64 347 64H356C411 64 467 87 509 128H624C633 128 640 135 640 144S633 160 624 160H560V368C560 377 567 384 576 384H624C633 384 640 391 640 400Z"/></svg>