<svg xmlns="http://www.w3.org/2000/svg" viewBox="0 0 512 512"><!-- Font Awesome Pro 6.0.0-alpha1 by @fontawesome - https://fontawesome.com License - https://fontawesome.com/license (Commercial License) --><path d="M464 128C452 128 442 132 433 139L398 41C391 21 372 8 352 8C349 8 346 8 343 9C335 11 327 15 320 20C311 8 297 0 281 0H281C278 0 275 0 272 1C258 3 246 12 239 24C235 33 232 42 233 52C233 52 232 52 232 52C229 52 226 52 223 53C209 55 197 64 190 76C185 85 183 94 184 104C184 104 183 104 183 104C180 104 177 104 174 105C155 108 140 122 136 141C134 151 135 161 138 170L139 173C143 182 155 186 163 180C171 176 173 166 169 159L168 157C164 148 170 138 180 136C181 136 182 136 183 136C184 136 186 136 187 137C196 140 202 138 205 137C216 133 222 121 218 109L217 105C214 96 219 86 229 84C230 84 231 84 232 84C239 84 245 89 247 95L260 131C262 136 266 139 270 141C283 145 295 133 290 120L266 54C263 44 268 34 278 32C279 32 280 32 281 32C288 32 294 37 296 43L337 155C337 155 340 164 350 165C362 166 371 154 367 143L337 62C334 53 339 42 349 40C350 40 351 40 352 40C359 40 365 45 367 52L421 199C422 202 424 204 427 206C436 212 448 205 448 194V177C448 169 453 162 461 160C471 159 480 166 480 176V304C480 313 487 320 496 320L496 320C505 320 512 313 512 304L512 176C512 150 490 128 464 128ZM360 204L247 167C243 165 237 164 232 164C212 164 193 177 187 196C183 205 183 215 185 224H81C57 224 36 241 33 264C31 273 32 282 35 290C17 295 4 309 1 328C-2 342 2 356 11 367C18 375 26 380 35 382C34 385 33 389 33 392C30 406 34 420 43 431C50 439 58 444 67 446C66 449 65 453 65 456C62 470 66 484 75 495C85 506 98 512 112 512H320C391 512 448 455 448 384V325C448 270 413 221 360 204ZM416 384C416 437 373 480 320 480H112C102 480 95 471 96 461C97 453 105 448 113 448H192C201 448 208 441 208 432C208 423 201 416 192 416H80C70 416 63 407 64 397C65 389 73 384 81 384H192C201 384 208 377 208 368C208 359 201 352 192 352H48C38 352 31 343 32 333C33 325 41 320 49 320H192C201 320 208 313 208 304C208 295 201 288 192 288H80C70 288 63 279 64 269C65 261 73 256 81 256H261C270 256 272 243 263 240L226 227C218 224 214 215 217 207C219 200 225 196 232 196C234 196 235 197 237 197L350 234C389 247 416 284 416 326V384Z"/></svg>