<svg xmlns="http://www.w3.org/2000/svg" viewBox="0 0 640 512"><!-- Font Awesome Pro 6.0.0-alpha1 by @fontawesome - https://fontawesome.com License - https://fontawesome.com/license (Commercial License) --><path d="M592 160H592C583 160 576 167 576 176V304C576 325 563 342 544 349V176C544 167 537 160 528 160H528C519 160 512 167 512 176V352H480V176C480 167 473 160 464 160H464C455 160 448 167 448 176V352H416V176C416 167 409 160 400 160S384 167 384 176V352H336V112C336 103 329 96 320 96H320C311 96 304 103 304 112V352H256V176C256 167 249 160 240 160H240C231 160 224 167 224 176V352H192V176C192 167 185 160 176 160H176C167 160 160 167 160 176V352H128V176C128 167 121 160 112 160H112C103 160 96 167 96 176V349C77 342 64 325 64 304V176C64 167 57 160 48 160H48C39 160 32 167 32 176V304C32 348 68 384 112 384H304V480H144C135 480 128 487 128 496V496C128 505 135 512 144 512H496C505 512 512 505 512 496V496C512 487 505 480 496 480H336V384H528C572 384 608 348 608 304V176C608 167 601 160 592 160ZM592 128C601 128 608 121 608 112V80C608 71 601 64 592 64S576 71 576 80V112C576 121 583 128 592 128ZM48 128C57 128 64 121 64 112V80C64 71 57 64 48 64S32 71 32 80V112C32 121 39 128 48 128ZM112 128C121 128 128 121 128 112V80C128 71 121 64 112 64S96 71 96 80V112C96 121 103 128 112 128ZM176 128C185 128 192 121 192 112V80C192 71 185 64 176 64S160 71 160 80V112C160 121 167 128 176 128ZM240 128C249 128 256 121 256 112V80C256 71 249 64 240 64S224 71 224 80V112C224 121 231 128 240 128ZM400 128C409 128 416 121 416 112V80C416 71 409 64 400 64S384 71 384 80V112C384 121 391 128 400 128ZM464 128C473 128 480 121 480 112V80C480 71 473 64 464 64S448 71 448 80V112C448 121 455 128 464 128ZM528 128C537 128 544 121 544 112V80C544 71 537 64 528 64S512 71 512 80V112C512 121 519 128 528 128ZM320 64C329 64 336 57 336 48V16C336 7 329 0 320 0S304 7 304 16V48C304 57 311 64 320 64Z"/></svg>