<svg xmlns="http://www.w3.org/2000/svg" viewBox="0 0 448 512"><!-- Font Awesome Pro 6.0.0-alpha1 by @fontawesome - https://fontawesome.com License - https://fontawesome.com/license (Commercial License) --><path d="M432 144H346L368 52C370 43 364 34 356 32C347 30 338 36 336 44L313 144H186L208 52C210 43 204 34 196 32C187 30 178 36 176 44L153 144H48C39 144 32 151 32 160S39 176 48 176H146L109 336H16C7 336 0 343 0 352S7 368 16 368H102L80 460C78 469 84 478 92 480C94 480 95 480 96 480C103 480 110 475 112 468L135 368H262L240 460C238 469 244 478 252 480C254 480 255 480 256 480C263 480 270 475 272 468L295 368H400C409 368 416 361 416 352S409 336 400 336H302L339 176H432C441 176 448 169 448 160S441 144 432 144ZM269 336H142L179 176H306L269 336Z"/></svg>