<svg xmlns="http://www.w3.org/2000/svg" viewBox="0 0 512 512"><!-- Font Awesome Pro 6.0.0-alpha1 by @fontawesome - https://fontawesome.com License - https://fontawesome.com/license (Commercial License) --><path d="M191 107C189 117 191 129 199 137C208 145 218 148 229 145C235 154 245 160 256 160C267 160 277 154 283 145C291 147 302 147 313 136C321 129 323 117 321 107C330 101 336 91 336 80S330 59 321 53C323 43 320 31 313 23C305 15 294 13 283 15C271 -3 241 -3 229 15C219 13 207 15 199 23C191 31 189 43 191 53C182 59 176 69 176 80S182 101 191 107ZM208 80L208 80C215 78 221 73 224 66C226 60 226 52 222 46C228 50 236 50 242 48C249 45 254 39 256 32C258 39 263 45 269 47C276 50 284 50 290 46C286 52 286 60 288 66C291 73 297 78 304 80C297 82 291 87 288 94C286 100 286 108 290 114C284 110 276 110 269 113C263 115 258 121 256 128C254 121 249 115 242 113L237 111H233C229 111 225 112 222 114C226 108 226 100 224 94C221 87 215 82 208 80C208 80 208 80 208 80ZM480 403V368C480 199 363 147 358 145C350 142 341 146 337 154C334 162 338 171 346 175C349 176 422 210 443 313L391 289C386 287 381 288 377 290L320 318L263 290C259 287 253 287 249 290L192 318L135 290C131 288 126 287 122 289L69 313C90 210 163 176 166 175C174 171 178 162 175 154C171 146 162 142 154 145C149 147 32 199 32 368V403C13 410 0 427 0 448V464C0 490 22 512 48 512H464C490 512 512 490 512 464V448C512 427 499 410 480 403ZM64 368C64 362 64 356 65 350L128 322L185 350C189 353 195 353 199 350L256 322L313 350C317 353 323 353 327 350L384 322L447 350C448 356 448 362 448 368V400H64V368ZM480 464C480 473 473 480 464 480H48C39 480 32 473 32 464V448C32 439 39 432 48 432H464C473 432 480 439 480 448V464Z"/></svg>