<svg xmlns="http://www.w3.org/2000/svg" viewBox="0 0 640 512"><!-- Font Awesome Pro 6.0.0-alpha1 by @fontawesome - https://fontawesome.com License - https://fontawesome.com/license (Commercial License) --><path d="M638 361C619 271 560 208 487 195L468 85C463 55 436 32 405 32C396 32 409 30 201 74C174 80 153 102 150 130L143 197C75 214 20 275 2 361C-3 382 1 403 13 420C24 438 42 448 62 448H578C598 448 615 438 627 420C639 403 643 382 638 361ZM182 133C184 119 194 108 207 105L399 65C418 61 434 74 437 91L466 256H316L287 231C238 191 191 192 176 193L182 133ZM62 416C41 416 28 390 33 367C51 282 111 224 180 224C211 224 241 235 266 255C446 410 429 400 454 416H62ZM385 315L353 288H471L491 400C458 385 433 357 385 315ZM578 416C573 416 549 416 525 412L493 229C548 245 591 296 607 367C613 394 596 416 578 416Z"/></svg>