<svg xmlns="http://www.w3.org/2000/svg" viewBox="0 0 640 512"><!-- Font Awesome Pro 6.0.0-alpha1 by @fontawesome - https://fontawesome.com License - https://fontawesome.com/license (Commercial License) --><path d="M640 239C640 228 634 218 625 212C627 202 624 190 617 182C609 174 598 171 587 174C575 155 545 155 533 174C523 171 511 174 503 182C495 190 493 202 495 212C486 218 480 228 480 239S486 261 495 266C493 277 496 288 504 297C512 305 523 308 533 305C539 314 549 320 560 320C571 320 581 314 587 305C595 307 606 307 617 296C625 288 627 277 625 266C634 261 640 251 640 239ZM592 253C590 260 590 268 594 273C588 270 580 269 573 272C567 275 562 280 560 287C558 280 553 275 547 272L541 270H537C533 270 529 271 526 274C530 268 530 260 528 253C525 246 519 241 512 240C512 240 512 240 512 240L512 240C519 237 525 232 528 226C530 219 530 211 526 206C532 209 540 209 546 207C553 204 558 198 560 191C562 198 567 204 573 207C580 209 588 209 594 205C590 211 590 219 592 226C595 232 601 237 608 239C601 241 595 246 592 253ZM464 352H459L383 154C380 146 371 142 362 145C354 148 350 158 353 166L425 352H88L163 164C187 103 245 64 310 64C361 64 410 89 439 130L467 169C472 176 482 178 489 173C496 168 498 158 493 151L465 112C430 62 372 32 310 32C232 32 162 79 133 152L53 352H48C22 352 0 374 0 400V432C0 458 22 480 48 480H464C490 480 512 458 512 432V400C512 374 490 352 464 352ZM480 432C480 441 473 448 464 448H48C39 448 32 441 32 432V400C32 391 39 384 48 384H464C473 384 480 391 480 400V432Z"/></svg>