<svg xmlns="http://www.w3.org/2000/svg" viewBox="0 0 512 512"><!-- Font Awesome Pro 6.0.0-alpha1 by @fontawesome - https://fontawesome.com License - https://fontawesome.com/license (Commercial License) --><path d="M75 447C76 448 78 448 80 448C87 448 93 444 95 437L182 193C193 170 210 151 232 138L402 41L352 190C346 207 347 225 354 240L417 437C419 445 428 450 437 447C445 445 450 436 447 427L384 229C380 220 379 210 383 200L439 31C442 22 439 12 431 5C423 -1 413 -2 404 3L216 110C188 127 166 151 153 182L65 427C62 435 66 444 75 447ZM496 432C487 432 480 439 480 448C480 466 466 480 448 480H64C46 480 32 466 32 448C32 439 25 432 16 432S0 439 0 448C0 483 29 512 64 512H448C483 512 512 483 512 448C512 439 505 432 496 432ZM224 416C233 416 240 409 240 400V368H272C281 368 288 361 288 352S281 336 272 336H240V304C240 295 233 288 224 288S208 295 208 304V336H176C167 336 160 343 160 352S167 368 176 368H208V400C208 409 215 416 224 416ZM288 224H304C313 224 320 217 320 208S313 192 304 192H288V176C288 167 281 160 272 160S256 167 256 176V192H240C231 192 224 199 224 208S231 224 240 224H256V240C256 249 263 256 272 256S288 249 288 240V224Z"/></svg>