<svg xmlns="http://www.w3.org/2000/svg" viewBox="0 0 512 512"><!-- Font Awesome Pro 6.0.0-alpha1 by @fontawesome - https://fontawesome.com License - https://fontawesome.com/license (Commercial License) --><path d="M496 464C496 473 489 480 480 480H352C343 480 336 473 336 464C336 455 343 448 352 448H400V272H112V448H160C169 448 176 455 176 464C176 473 169 480 160 480H32C23 480 16 473 16 464C16 455 23 448 32 448H80V64H32C23 64 16 57 16 48C16 39 23 32 32 32H160C169 32 176 39 176 48C176 57 169 64 160 64H112V240H400V64H352C343 64 336 57 336 48C336 39 343 32 352 32H480C489 32 496 39 496 48C496 57 489 64 480 64H432V448H480C489 448 496 455 496 464Z"/></svg>