<svg xmlns="http://www.w3.org/2000/svg" viewBox="0 0 512 512"><!-- Font Awesome Pro 6.0.0-alpha1 by @fontawesome - https://fontawesome.com License - https://fontawesome.com/license (Commercial License) --><path d="M480 64H383C345 24 292 0 234 0H200C128 0 62 39 27 97C12 100 0 112 0 128V192C0 210 14 224 32 224H216C217 224 217 223 218 223C237 243 264 256 293 256H480C498 256 512 242 512 224V96C512 78 498 64 480 64ZM32 192V128H198C194 139 191 152 192 165C193 175 195 183 198 192H32ZM217 96C216 96 216 96 216 96H67C98 57 146 32 200 32H234C270 32 305 44 334 64H288C259 64 234 77 217 96ZM384 224H288C253 224 224 195 224 160S253 96 288 96H384V224ZM480 224H416V96H480V224ZM36 256L36 256C24 256 16 269 21 279C32 300 47 319 64 335V496C64 505 71 512 80 512H80C89 512 96 505 96 496V321L85 311C71 298 59 282 51 265C48 260 42 256 36 256ZM384 304V384C384 402 370 416 352 416H304C295 416 288 423 288 432V496C288 505 295 512 304 512H304C313 512 320 505 320 496V448H352C387 448 416 419 416 384V320H464C473 320 480 313 480 304V304C480 295 473 288 464 288H400C391 288 384 295 384 304Z"/></svg>