<svg xmlns="http://www.w3.org/2000/svg" viewBox="0 0 512 512"><!-- Font Awesome Pro 6.0.0-alpha1 by @fontawesome - https://fontawesome.com License - https://fontawesome.com/license (Commercial License) --><path d="M509 275C488 228 461 123 436 88C398 34 335 0 266 0H200C96 0 4 80 0 185C-2 244 23 298 64 335L64 496C64 505 71 512 80 512C89 512 96 505 96 496C96 472 96 346 96 321L85 311C50 279 30 233 32 186C35 101 111 32 200 32H266C323 32 377 60 410 107C423 125 439 173 452 213C462 242 471 269 480 288H432C423 288 416 295 416 304V384C416 402 402 416 384 416H304C295 416 288 423 288 432C288 452 288 484 288 496C288 505 295 512 304 512C313 512 320 505 320 496C320 484 320 460 320 448H384C419 448 448 419 448 384V320H480C503 320 519 296 509 275ZM330 109C316 98 283 81 240 124C197 81 164 98 150 109C122 132 121 173 145 198L230 284C235 289 244 289 250 284L334 198C359 173 358 132 330 109ZM312 176L240 248L168 176C158 165 156 146 170 134C184 122 201 130 209 138L240 169L271 138C278 130 296 122 310 134C324 146 322 165 312 176Z"/></svg>