<svg xmlns="http://www.w3.org/2000/svg" viewBox="0 0 512 512"><!-- Font Awesome Pro 6.0.0-alpha1 by @fontawesome - https://fontawesome.com License - https://fontawesome.com/license (Commercial License) --><path d="M192 224C192 206 178 192 160 192H128C93 192 64 221 64 256V320C64 355 93 384 128 384H160C178 384 192 369 192 352V224ZM160 352H128C110 352 96 337 96 320V256C96 238 110 224 128 224H160V352ZM384 384C419 384 448 355 448 320V256C448 221 419 192 384 192H352C334 192 320 206 320 224V352C320 369 334 384 352 384H384ZM352 224H384C402 224 416 238 416 256V320C416 337 402 352 384 352H352V224ZM280 1C127 -13 4 110 0 256L0 272C0 281 7 288 16 288H16C25 288 32 281 32 272L32 256C36 129 143 21 277 33C393 44 480 145 480 262V432C480 458 458 480 432 480H349C353 469 354 456 347 443C338 426 319 416 299 416L242 416C219 416 197 432 193 454C187 485 210 512 240 512H432C476 512 512 476 512 432V263C512 130 413 14 280 1ZM304 480H240C231 480 224 473 224 464S231 448 240 448H304C313 448 320 455 320 464S313 480 304 480Z"/></svg>