<svg xmlns="http://www.w3.org/2000/svg" viewBox="0 0 512 512"><!-- Font Awesome Pro 6.0.0-alpha1 by @fontawesome - https://fontawesome.com License - https://fontawesome.com/license (Commercial License) --><path d="M243 32C106 39 0 158 0 295V416C0 451 29 480 64 480H96C114 480 128 466 128 448V288C128 270 114 256 96 256H64C53 256 43 259 34 264C48 157 135 70 245 64C365 58 466 148 479 264C470 259 459 256 448 256H416C398 256 384 270 384 288V448C384 466 398 480 416 480H448C483 480 512 451 512 416V288C512 143 390 25 243 32ZM64 288H96V448H64C46 448 32 434 32 416V320C32 302 46 288 64 288ZM480 416C480 434 466 448 448 448H416V288H448C466 288 480 302 480 320V416Z"/></svg>