<svg xmlns="http://www.w3.org/2000/svg" viewBox="0 0 512 512"><!-- Font Awesome Pro 6.0.0-alpha1 by @fontawesome - https://fontawesome.com License - https://fontawesome.com/license (Commercial License) --><path d="M509 275C488 228 461 123 436 88C397 33 334 0 266 0H200C96 0 4 80 0 185C-2 242 21 297 64 335V496C64 505 71 512 80 512H80C89 512 96 505 96 496V321L85 311C50 279 30 233 32 186C35 120 81 64 144 42V116C104 144 87 195 101 242C116 288 159 320 208 320S300 288 315 242C330 195 312 144 272 116V32C327 34 378 62 410 107C423 125 439 173 452 213C462 242 471 269 480 288H432C423 288 416 295 416 304V384C416 402 402 416 384 416H304C295 416 288 423 288 432V496C288 505 295 512 304 512H304C313 512 320 505 320 496V448H384C419 448 448 419 448 384V320H480C491 320 501 314 507 305C513 296 514 285 509 275ZM176 34C184 33 192 32 200 32H240V101C230 98 219 96 208 96S186 98 176 101V34ZM288 208C288 252 252 288 208 288S128 252 128 208S164 128 208 128S288 164 288 208ZM208 160C182 160 160 182 160 208S181 256 208 256S256 234 256 208S235 160 208 160ZM208 224C199 224 192 217 192 208S199 192 208 192S224 199 224 208S217 224 208 224Z"/></svg>