<svg xmlns="http://www.w3.org/2000/svg" viewBox="0 0 448 512"><!-- Font Awesome Pro 6.0.0-alpha1 by @fontawesome - https://fontawesome.com License - https://fontawesome.com/license (Commercial License) --><path d="M192 154V48C192 39 185 32 176 32S160 39 160 48V152C160 202 178 249 210 286C238 318 256 358 256 401V464C256 473 263 480 272 480S288 473 288 464V402C288 353 270 306 238 269C210 237 192 196 192 154ZM64 132V112C64 103 57 96 48 96S32 103 32 112V128C32 183 50 236 82 280C111 319 128 364 128 412V464C128 473 135 480 144 480S160 473 160 464V416C160 361 142 308 110 264C81 225 64 180 64 132ZM366 264C337 225 320 180 320 132V112C320 103 313 96 304 96S288 103 288 112V128C288 183 306 236 338 280C367 319 384 364 384 412V464C384 473 391 480 400 480S416 473 416 464V416C416 361 398 308 366 264Z"/></svg>