<svg xmlns="http://www.w3.org/2000/svg" viewBox="0 0 640 512"><!-- Font Awesome Pro 6.0.0-alpha1 by @fontawesome - https://fontawesome.com License - https://fontawesome.com/license (Commercial License) --><path d="M624 416C615 416 608 423 608 432C608 458 586 480 560 480H240C231 480 224 487 224 496S231 512 240 512H560C604 512 640 476 640 432C640 423 633 416 624 416ZM304 400H568C590 400 608 382 608 360C608 232 504 128 376 128H368V32H560C569 32 576 25 576 16S569 0 560 0H144C135 0 128 7 128 16S135 32 144 32H336V128H120L79 74C74 68 67 64 60 64H24C17 64 10 67 5 73C1 79 -1 87 1 94L24 186C27 198 36 209 48 214L187 271L272 384C280 394 291 400 304 400ZM416 164C507 183 576 263 576 360C576 364 572 368 568 368H416V164ZM207 244L199 241L60 184C57 183 55 181 55 178L34 96H56L94 147L104 160H376C379 160 381 160 384 160V368H304C302 368 299 367 298 365L213 251L207 244Z"/></svg>