<svg xmlns="http://www.w3.org/2000/svg" viewBox="0 0 576 512"><!-- Font Awesome Pro 6.0.0-alpha1 by @fontawesome - https://fontawesome.com License - https://fontawesome.com/license (Commercial License) --><path d="M508 405C492 380 464 321 464 212C464 97 334 37 294 21C290 19 286 19 282 21C242 37 112 98 112 212C112 225 111 340 67 407C64 411 63 416 65 420C66 425 69 429 73 431L249 511C254 513 260 512 265 509C269 506 272 501 272 496V272C272 265 267 258 260 256L208 243V224H368V243L316 256C309 258 304 265 304 272V496C304 501 307 506 311 509C314 511 317 512 320 512C322 512 325 512 327 511L503 431C510 427 513 420 512 412C511 411 509 407 508 405ZM336 471V284L388 272C395 270 400 263 400 256V208C400 199 393 192 384 192H192C183 192 176 199 176 208V256C176 263 181 270 188 272L240 284V471L103 409C142 336 144 233 144 212C144 123 247 70 288 53C329 70 432 122 432 212C432 312 455 374 473 409L336 471ZM559 206L512 12C509 4 501 -2 492 0C484 3 478 11 480 20L528 213C528 216 528 219 526 221C524 223 522 224 520 224C511 224 504 231 504 240S511 256 520 256C532 256 543 251 551 242C559 232 562 218 559 206ZM72 240C72 231 65 224 56 224C54 224 52 223 50 221C48 219 48 216 48 213L96 20C98 11 92 3 84 0C75 -2 67 4 64 12L17 206C14 218 17 232 25 242C33 251 44 256 56 256C65 256 72 249 72 240Z"/></svg>