<svg xmlns="http://www.w3.org/2000/svg" viewBox="0 0 576 512"><!-- Font Awesome Pro 6.0.0-alpha1 by @fontawesome - https://fontawesome.com License - https://fontawesome.com/license (Commercial License) --><path d="M572 357C569 354 564 352 560 352C485 352 373 352 265 352C171 352 80 352 16 352C16 352 16 352 16 352C12 352 7 354 4 357C1 360 0 365 0 369C4 441 170 480 288 480H291C406 480 572 441 576 369C576 365 575 360 572 357ZM291 448C290 448 289 448 288 448C184 448 72 418 41 384C102 384 183 384 265 384C362 384 462 384 535 384C504 417 393 448 291 448ZM48 320C57 320 64 313 64 304V275C64 186 124 109 208 85V272C208 281 215 288 224 288S240 281 240 272V64C240 55 247 48 256 48H320C329 48 336 55 336 64V272C336 281 343 288 352 288S368 281 368 272V85C452 109 512 186 512 275V304C512 313 519 320 528 320S544 313 544 304V275C544 167 470 75 366 51C360 31 342 16 320 16H256C234 16 216 31 210 51C106 75 32 167 32 275V304C32 313 39 320 48 320Z"/></svg>