<svg xmlns="http://www.w3.org/2000/svg" viewBox="0 0 512 512"><!-- Font Awesome Pro 6.0.0-alpha1 by @fontawesome - https://fontawesome.com License - https://fontawesome.com/license (Commercial License) --><path d="M506 233L400 54C392 41 377 32 361 32H151C134 32 120 41 112 54L6 233C-2 247 -2 265 6 279L112 458C120 471 134 480 151 480H361C378 480 392 471 400 458L506 279C514 265 514 247 506 233ZM478 262L373 441C371 446 366 448 361 448H151C146 448 141 446 139 442L34 262C31 258 31 254 34 250L139 70C141 66 146 64 151 64H361C366 64 371 66 373 70L478 250C481 254 481 258 478 262ZM352 240H272V160C272 151 265 144 256 144S240 151 240 160V240H160C151 240 144 247 144 256S151 272 160 272H240V352C240 361 247 368 256 368S272 361 272 352V272H352C361 272 368 265 368 256S361 240 352 240Z"/></svg>