<svg xmlns="http://www.w3.org/2000/svg" viewBox="0 0 640 512"><!-- Font Awesome Pro 6.0.0-alpha1 by @fontawesome - https://fontawesome.com License - https://fontawesome.com/license (Commercial License) --><path d="M572 96C562 96 551 98 542 103L505 121C490 87 455 64 416 64C391 64 369 74 352 89V48C352 39 345 32 336 32S320 39 320 48V96C293 75 258 64 224 64H176C79 64 0 143 0 240V432C0 458 22 480 48 480H80C106 480 128 458 128 432V390C151 396 179 400 208 400S265 396 288 390V432C288 458 310 480 336 480H368C394 480 416 458 416 432V288H576V320C576 329 583 336 592 336S608 329 608 320V285C627 278 640 261 640 240V164C640 126 610 96 572 96ZM608 240C608 249 601 256 592 256H400C391 256 384 263 384 272V432C384 441 377 448 368 448H336C327 448 320 441 320 432V378C323 376 326 374 329 373C336 368 338 358 333 350S318 341 311 346C291 359 251 368 208 368S125 359 105 346C98 341 88 343 83 350S80 368 87 372C90 374 93 376 96 378V432C96 441 89 448 80 448H48C39 448 32 441 32 432V240C32 161 97 96 176 96H224C252 96 279 105 301 122L320 136V160C320 169 327 176 336 176S352 169 352 160C352 125 381 96 416 96C447 96 474 118 480 147L484 168L556 132C561 129 567 128 572 128C592 128 608 144 608 164V240ZM432 144C423 144 416 151 416 160C416 169 423 176 432 176S448 169 448 160C448 151 441 144 432 144Z"/></svg>