<svg xmlns="http://www.w3.org/2000/svg" viewBox="0 0 448 512"><!-- Font Awesome Pro 6.0.0-alpha1 by @fontawesome - https://fontawesome.com License - https://fontawesome.com/license (Commercial License) --><path d="M377 54C335 18 280 0 224 0C168 0 113 18 71 54C7 110 -31 224 33 416C65 512 224 512 224 512S383 512 415 416C479 224 441 110 377 54ZM385 406C365 466 262 480 224 480C186 480 83 466 63 406C-5 203 52 114 92 79C126 49 174 32 224 32S322 49 356 79C396 114 453 203 385 406ZM288 96C297 96 304 89 304 80S297 64 288 64C279 64 272 71 272 80S279 96 288 96ZM160 96C169 96 176 89 176 80C176 71 169 64 160 64C151 64 144 71 144 80C144 89 151 96 160 96ZM160 160H96C70 160 48 182 48 208C48 252 84 288 128 288S208 252 208 208C208 182 186 160 160 160ZM128 256C102 256 80 234 80 208C80 199 87 192 96 192H160C169 192 176 199 176 208C176 234 154 256 128 256ZM176 432C167 432 160 439 160 448C160 457 167 464 176 464C185 464 192 457 192 448C192 439 185 432 176 432ZM176 400C185 400 192 393 192 384S185 368 176 368C167 368 160 375 160 384S167 400 176 400ZM176 336C185 336 192 329 192 320C192 311 185 304 176 304C167 304 160 311 160 320C160 329 167 336 176 336ZM224 112C215 112 208 119 208 128S215 144 224 144S240 137 240 128S233 112 224 112ZM272 432C263 432 256 439 256 448S263 464 272 464C281 464 288 457 288 448S281 432 272 432ZM272 368C263 368 256 375 256 384S263 400 272 400C281 400 288 393 288 384S281 368 272 368ZM272 336C281 336 288 329 288 320C288 311 281 304 272 304C263 304 256 311 256 320C256 329 263 336 272 336ZM352 160H288C262 160 240 182 240 208C240 252 276 288 320 288S400 252 400 208C400 182 378 160 352 160ZM320 256C294 256 272 234 272 208C272 199 279 192 288 192H352C361 192 368 199 368 208C368 234 346 256 320 256Z"/></svg>