<svg xmlns="http://www.w3.org/2000/svg" viewBox="0 0 576 512"><!-- Font Awesome Pro 6.0.0-alpha1 by @fontawesome - https://fontawesome.com License - https://fontawesome.com/license (Commercial License) --><path d="M571 244L299 4C293 -1 283 -1 277 4L5 244C-1 250 -2 260 4 267C10 273 20 274 27 268L64 235V464C64 490 86 512 112 512H192C218 512 240 490 240 464V352H336V464C336 490 358 512 384 512H464C490 512 512 490 512 464V235L549 268C552 271 556 272 560 272C564 272 569 270 572 267C578 260 577 250 571 244ZM480 208V464C480 473 473 480 464 480H384C375 480 368 473 368 464V352C368 334 354 320 336 320H240C222 320 208 334 208 352V464C208 473 201 480 192 480H112C103 480 96 473 96 464V208C96 208 96 207 96 207L288 37L480 207C480 207 480 208 480 208Z"/></svg>