<svg xmlns="http://www.w3.org/2000/svg" viewBox="0 0 576 512"><!-- Font Awesome Pro 6.0.0-alpha1 by @fontawesome - https://fontawesome.com License - https://fontawesome.com/license (Commercial License) --><path d="M571 244L299 4C293 -1 283 -1 277 4L5 244C-1 250 -2 260 4 267C10 273 20 274 27 268L64 235V432C64 476 100 512 144 512H432C476 512 512 476 512 432V235L549 268C552 271 556 272 560 272C564 272 569 270 572 267C578 260 577 250 571 244ZM480 208V432C480 458 458 480 432 480H144C118 480 96 458 96 432V208C96 208 96 207 96 207L288 37L480 207C480 207 480 208 480 208Z"/></svg>