<svg xmlns="http://www.w3.org/2000/svg" viewBox="0 0 576 512"><!-- Font Awesome Pro 6.0.0-alpha1 by @fontawesome - https://fontawesome.com License - https://fontawesome.com/license (Commercial License) --><path d="M570 461C512 384 512 320 512 320V256C512 172 466 133 411 73L451 34C463 21 454 0 437 0H288C192 0 64 110 64 256V320C64 320 64 384 6 461C-9 482 6 512 32 512H544C570 512 585 482 570 461ZM192 480V320C192 267 235 224 288 224C341 224 384 267 384 320V480H192ZM416 480V320C416 249 359 192 288 192C217 192 160 249 160 320V480H32C95 395 96 323 96 320V256C96 126 211 32 288 32H407L367 72C367 72 399 108 405 114C450 162 480 194 480 256V320C480 323 481 395 544 480H416Z"/></svg>