<svg xmlns="http://www.w3.org/2000/svg" viewBox="0 0 448 512"><!-- Font Awesome Pro 6.0.0-alpha1 by @fontawesome - https://fontawesome.com License - https://fontawesome.com/license (Commercial License) --><path d="M432 480H416V48C416 22 394 0 368 0H80C54 0 32 22 32 48V480H16C7 480 0 487 0 496S7 512 16 512H176C185 512 192 505 192 496V384H256V496C256 505 263 512 272 512H432C441 512 448 505 448 496S441 480 432 480ZM384 480H288V384C288 366 274 352 256 352H192C174 352 160 366 160 384V480H64V288H384V480ZM384 256H64V48C64 39 71 32 80 32H368C377 32 384 39 384 48V256ZM277 107H245V75C245 69 241 64 235 64H213C207 64 203 69 203 75V107H171C165 107 160 111 160 117V139C160 145 165 149 171 149H203V181C203 187 207 192 213 192H235C241 192 245 187 245 181V149H277C283 149 288 145 288 139V117C288 111 283 107 277 107Z"/></svg>