<svg xmlns="http://www.w3.org/2000/svg" viewBox="0 0 640 512"><!-- Font Awesome Pro 6.0.0-alpha1 by @fontawesome - https://fontawesome.com License - https://fontawesome.com/license (Commercial License) --><path d="M304 320H32V256H304C313 256 320 249 320 240C320 231 313 224 304 224H32V48C32 39 39 32 48 32H336C345 32 352 39 352 48V112C352 121 359 128 368 128S384 121 384 112C384 103 384 48 384 48C384 22 362 0 336 0H48C22 0 0 22 0 48V496C0 505 7 512 16 512S32 505 32 496V448H272C281 448 288 441 288 432C288 423 281 416 272 416H32V352H304C313 352 320 345 320 336C320 327 313 320 304 320ZM480 320C533 320 576 277 576 224C576 171 533 128 480 128C427 128 384 171 384 224C384 277 427 320 480 320ZM480 160C515 160 544 189 544 224S515 288 480 288S416 259 416 224S445 160 480 160ZM181 192H203C209 192 213 187 213 181V149H245C251 149 256 145 256 139V117C256 111 251 107 245 107H213V75C213 69 209 64 203 64H181C175 64 171 69 171 75V107H139C133 107 128 111 128 117V139C128 145 133 149 139 149H171V181C171 187 175 192 181 192ZM512 352H448C377 352 320 409 320 480C320 498 334 512 352 512H608C626 512 640 498 640 480C640 409 583 352 512 352ZM352 480C352 427 395 384 448 384H512C565 384 608 427 608 480H352Z"/></svg>