<svg xmlns="http://www.w3.org/2000/svg" viewBox="0 0 576 512"><!-- Font Awesome Pro 6.0.0-alpha1 by @fontawesome - https://fontawesome.com License - https://fontawesome.com/license (Commercial License) --><path d="M272 288H304C322 288 336 274 336 256V224C336 206 322 192 304 192H272C254 192 240 206 240 224V256C240 274 254 288 272 288ZM272 224H304V256H272V224ZM272 160H304C322 160 336 146 336 128V96C336 78 322 64 304 64H272C254 64 240 78 240 96V128C240 146 254 160 272 160ZM272 96H304V128H272V96ZM144 160H176C194 160 208 146 208 128V96C208 78 194 64 176 64H144C126 64 112 78 112 96V128C112 146 126 160 144 160ZM144 96H176V128H144V96ZM144 288H176C194 288 208 274 208 256V224C208 206 194 192 176 192H144C126 192 112 206 112 224V256C112 274 126 288 144 288ZM144 224H176V256H144V224ZM400 160H432C450 160 464 146 464 128V96C464 78 450 64 432 64H400C382 64 368 78 368 96V128C368 146 382 160 400 160ZM400 96H432V128H400V96ZM400 288H432C450 288 464 274 464 256V224C464 206 450 192 432 192H400C382 192 368 206 368 224V256C368 274 382 288 400 288ZM400 224H432V256H400V224ZM560 480H544V32H560C569 32 576 25 576 16C576 7 569 0 560 0H16C7 0 0 7 0 16C0 25 7 32 16 32H32V480H16C7 480 0 487 0 496C0 505 7 512 16 512H256C265 512 272 505 272 496V416H304V496C304 505 311 512 320 512H560C569 512 576 505 576 496C576 487 569 480 560 480ZM512 480H336V416C336 398 322 384 304 384H272C254 384 240 398 240 416V480H64V32H512V480ZM200 398C208 402 218 399 222 392C236 367 261 352 288 352S340 367 354 392C357 397 362 400 368 400C371 400 373 399 376 398C384 394 386 384 382 376C363 342 327 320 288 320S213 342 194 376C190 384 193 394 200 398Z"/></svg>