<svg xmlns="http://www.w3.org/2000/svg" viewBox="0 0 640 512"><!-- Font Awesome Pro 6.0.0-alpha1 by @fontawesome - https://fontawesome.com License - https://fontawesome.com/license (Commercial License) --><path d="M112 224C146 224 178 209 199 182C204 176 205 166 201 159C196 152 188 148 179 150C151 155 122 139 113 112C102 85 114 54 139 40C146 36 150 27 149 19C147 10 141 3 132 2C126 1 119 0 112 0C50 0 0 50 0 112S50 224 112 224ZM34 94C41 63 66 39 98 33C77 58 71 92 82 123S120 176 152 181C125 197 90 195 65 176C39 157 27 125 34 94ZM336 277V363C336 374 346 384 358 384H443C455 384 464 374 464 363V277C464 266 455 256 443 256H358C346 256 336 265 336 277ZM368 288H432V352H368V288ZM635 296L576 245V144C576 135 569 128 560 128S544 135 544 144V217L411 100C405 95 396 95 390 100L166 296C159 302 158 312 164 319C170 325 180 326 187 320L224 287V448C224 483 253 512 288 512H512C548 512 576 483 576 448V287L614 320C621 326 630 325 636 318C642 312 641 302 635 296ZM544 448C544 466 530 480 512 480H288C270 480 256 466 256 448V264C256 263 256 261 255 260L400 133L544 259V448ZM208 80H240V112C240 121 247 128 256 128S272 121 272 112V80H304C313 80 320 73 320 64S313 48 304 48H272V16C272 7 265 0 256 0S240 7 240 16V48H208C199 48 192 55 192 64S199 80 208 80ZM144 368H112V336C112 327 105 320 96 320S80 327 80 336V368H48C39 368 32 375 32 384S39 400 48 400H80V432C80 441 87 448 96 448S112 441 112 432V400H144C153 400 160 393 160 384S153 368 144 368Z"/></svg>