<svg xmlns="http://www.w3.org/2000/svg" viewBox="0 0 640 512"><!-- Font Awesome Pro 6.0.0-alpha1 by @fontawesome - https://fontawesome.com License - https://fontawesome.com/license (Commercial License) --><path d="M181 160C169 160 160 170 160 181V267C160 278 170 288 181 288H267C278 288 288 279 288 267V181C288 170 278 160 267 160H181ZM256 256H192V192H256V256ZM341 107L341 107C347 101 347 90 340 84L250 4C244 -1 235 -1 229 4L5 200C-1 206 -2 216 4 223C10 229 20 230 26 224L64 191V368C64 395 85 416 112 416H288C297 416 304 409 304 400V400C304 391 297 384 288 384H112C103 384 96 377 96 368L96 163L240 37L319 108C325 114 335 113 341 107ZM424 112C455 112 480 87 480 56S455 0 424 0S368 25 368 56S393 112 424 112ZM424 32C437 32 448 43 448 56S437 80 424 80S400 69 400 56S411 32 424 32ZM635 484L565 422L543 362C540 354 531 350 522 353C514 356 510 365 513 374L536 437C537 439 539 441 541 443L613 508C616 511 620 512 624 512C628 512 633 510 636 507C642 500 641 490 635 484ZM534 245L514 164C519 165 524 166 529 168L556 179C570 184 581 197 584 212L592 244C595 252 603 258 612 256C620 253 626 245 624 236L615 204C609 179 591 159 568 149L541 138C523 131 504 129 485 132L439 138C408 143 384 170 384 202V232L326 275C319 281 318 291 323 298C326 302 331 304 336 304C339 304 343 303 346 301L410 253C414 250 416 245 416 240V202C416 186 428 172 443 170L481 165L503 252C507 270 501 290 486 301L407 366C399 372 393 382 391 392L368 493C366 501 372 510 381 512C382 512 383 512 384 512C391 512 398 507 400 499L422 399C423 396 425 393 427 390L506 326C530 307 541 275 534 245Z"/></svg>