<svg xmlns="http://www.w3.org/2000/svg" viewBox="0 0 640 512"><!-- Font Awesome Pro 6.0.0-alpha1 by @fontawesome - https://fontawesome.com License - https://fontawesome.com/license (Commercial License) --><path d="M16 412C7 412 0 419 0 428S7 444 16 444C42 444 64 466 64 492C64 501 71 508 80 508S96 501 96 492C96 448 60 412 16 412ZM16 220C7 220 0 227 0 236S7 252 16 252C148 252 256 360 256 492C256 501 263 508 272 508S288 501 288 492C288 342 166 220 16 220ZM16 316C7 316 0 323 0 332S7 348 16 348C95 348 160 413 160 492C160 501 167 508 176 508S192 501 192 492C192 395 113 316 16 316ZM635 196L576 145V45C576 37 571 29 563 28C553 27 544 34 544 44V117L411 0C405 -5 396 -5 390 0L224 145L166 196C161 200 159 206 160 211C161 217 165 222 171 223C176 225 182 224 187 220L224 187L224 236C224 245 231 252 240 252C249 252 256 245 256 236L256 164C256 163 256 161 255 160L400 33L544 159V364C544 373 537 380 528 380H336C327 380 320 387 320 396V396C320 405 327 412 336 412H528C555 412 576 391 576 364V187L614 220C620 226 630 225 636 218C642 212 641 202 635 196ZM443 284C455 284 464 274 464 263V177C464 166 455 156 443 156H358C346 156 336 166 336 177V263C336 275 346 284 358 284H443ZM368 188H432V252H368V188Z"/></svg>