<svg xmlns="http://www.w3.org/2000/svg" viewBox="0 0 640 512"><!-- Font Awesome Pro 6.0.0-alpha1 by @fontawesome - https://fontawesome.com License - https://fontawesome.com/license (Commercial License) --><path d="M341 107L341 107C347 101 347 90 340 84L250 4C244 -1 235 -1 229 4L5 200C-1 206 -2 216 4 223C10 229 20 230 26 224L64 191V368C64 395 85 416 112 416H288C297 416 304 409 304 400V400C304 391 297 384 288 384H112C103 384 96 377 96 368L96 163L240 37L319 108C325 114 335 113 341 107ZM181 160C169 160 160 170 160 181V267C160 278 170 288 181 288H267C278 288 288 279 288 267V181C288 170 278 160 267 160H181ZM256 256H192V192H256V256ZM438 353C429 350 420 354 417 362L395 422L325 484C319 490 318 500 324 507C327 510 332 512 336 512C340 512 344 511 347 508L419 443C421 441 423 439 424 437L447 374C450 365 446 356 438 353ZM634 275L576 232V202C576 170 552 143 521 138L475 132C456 129 437 131 419 138L392 149C369 158 351 179 345 204L337 236C334 245 340 253 348 256C357 258 365 252 368 244L376 212C379 197 390 184 404 179L431 168C436 166 441 165 446 164L426 245C419 275 430 307 454 326L533 390C535 393 537 396 538 399L560 499C562 507 569 512 576 512C577 512 578 512 579 512C588 510 594 501 592 493L569 392C567 382 561 372 553 366L474 301C459 290 453 270 457 252L479 165L516 170C532 172 544 186 544 202V240C544 245 546 250 550 253L614 301C617 303 621 304 624 304C629 304 634 302 637 298C642 291 641 281 634 275ZM536 112C567 112 592 87 592 56S567 0 536 0S480 25 480 56S505 112 536 112ZM536 32C549 32 560 43 560 56S549 80 536 80S512 69 512 56S523 32 536 32Z"/></svg>