<svg xmlns="http://www.w3.org/2000/svg" viewBox="0 0 384 512"><!-- Font Awesome Pro 6.0.0-alpha1 by @fontawesome - https://fontawesome.com License - https://fontawesome.com/license (Commercial License) --><path d="M384 304C384 313 377 320 368 320H133L103 342C89 353 80 371 80 389C80 422 106 448 139 448H198C233 448 266 438 295 419C302 414 312 416 317 423C322 430 320 440 313 445C279 468 239 480 198 480H139C89 480 48 439 48 389C48 363 60 337 81 320H16C7 320 0 313 0 304S7 288 16 288H123L208 224H16C7 224 0 217 0 208S7 192 16 192H251L281 170C295 159 304 141 304 123C304 90 278 64 245 64H186C151 64 118 74 89 93C81 98 72 96 67 89C62 82 64 72 71 67C105 44 145 32 186 32H245C295 32 336 73 336 123C336 149 324 175 303 192H368C377 192 384 199 384 208S377 224 368 224H261L176 288H368C377 288 384 295 384 304Z"/></svg>