<svg xmlns="http://www.w3.org/2000/svg" viewBox="0 0 448 512"><!-- Font Awesome Pro 6.0.0-alpha1 by @fontawesome - https://fontawesome.com License - https://fontawesome.com/license (Commercial License) --><path d="M381 129C367 56 302 0 224 0S81 56 67 129C26 136 -3 173 0 215S38 288 80 288H86H121H327H362H368C410 288 444 256 448 215S422 136 381 129ZM368 256H80C55 256 34 237 32 212C30 187 47 165 72 161L94 157L98 135C110 75 163 32 224 32S338 75 350 135L354 157L376 161C401 165 418 187 416 212C414 237 393 256 368 256ZM334 343L265 484C256 501 241 512 224 512S192 501 183 484L114 343C110 335 113 326 121 322C129 318 138 321 142 329L212 470C218 483 230 483 236 470L306 329C310 321 319 318 327 322C335 326 338 335 334 343Z"/></svg>