<svg xmlns="http://www.w3.org/2000/svg" viewBox="0 0 512 512"><!-- Font Awesome Pro 6.0.0-alpha1 by @fontawesome - https://fontawesome.com License - https://fontawesome.com/license (Commercial License) --><path d="M466 0H46C16 0 -7 29 2 60L91 309C93 316 99 321 106 320C113 320 120 315 121 308L145 231L180 403C182 411 188 416 196 416C204 416 210 411 212 403L248 222L270 308C272 315 278 320 286 320H286C293 320 300 315 301 308L334 189L390 499C392 506 398 512 406 512H406C414 512 420 507 422 499L511 55V54C517 26 494 0 466 0ZM407 411L352 109C349 92 325 92 321 108L287 246L262 141C259 124 235 124 231 141L196 323L163 157C159 139 136 141 132 156L104 261L33 50C30 41 36 32 46 32H466C477 32 481 42 480 49L407 411Z"/></svg>