<svg xmlns="http://www.w3.org/2000/svg" viewBox="0 0 512 512"><!-- Font Awesome Pro 6.0.0-alpha1 by @fontawesome - https://fontawesome.com License - https://fontawesome.com/license (Commercial License) --><path d="M107 215C112 221 120 224 128 224S144 221 149 215L234 130C249 114 257 94 256 72C255 51 245 31 229 17C200 -7 156 -5 128 21C100 -5 56 -7 27 17C11 31 1 51 0 72C-1 94 7 114 22 130L107 215ZM48 42C55 36 65 32 74 32C87 32 99 38 108 46L128 67L148 46C165 30 191 28 208 42C218 50 223 61 224 74C225 86 220 98 211 107L130 193L45 107C36 98 31 86 32 74C33 61 38 50 48 42ZM485 0C483 0 482 0 481 0L344 23C330 26 320 39 320 55V167C310 162 299 160 288 160C252 160 224 181 224 208C224 235 252 256 288 256S352 235 352 208V54L480 33V135C470 131 459 128 448 128C413 128 384 150 384 176S413 224 448 224S512 203 512 176V32C512 14 499 0 485 0ZM288 224C269 224 256 215 256 208C256 202 269 192 288 192S320 202 320 208C320 215 307 224 288 224ZM448 192C428 192 416 182 416 176C416 171 428 160 448 160S480 171 480 176C480 182 468 192 448 192ZM144 336C109 336 80 365 80 400S109 464 144 464S208 435 208 400S179 336 144 336ZM144 432C126 432 112 418 112 400S126 368 144 368S176 382 176 400S162 432 144 432ZM261 288H213L206 274C202 263 191 256 180 256H108C97 256 86 263 82 274L75 288H27C12 288 0 300 0 315V485C0 500 12 512 27 512H261C276 512 288 500 288 485V315C288 300 276 288 261 288ZM256 480H32V320H95L104 302L111 288H177L184 302L193 320H256V480ZM464 368H378L423 279C426 271 423 262 415 258C407 254 398 257 394 265L338 377C332 388 340 400 352 400H437L384 488C382 492 382 496 383 500C384 504 387 508 390 510C393 511 395 512 398 512C404 512 409 509 412 504L478 392C484 381 476 368 464 368Z"/></svg>