<svg xmlns="http://www.w3.org/2000/svg" viewBox="0 0 576 512"><!-- Font Awesome Pro 6.0.0-alpha1 by @fontawesome - https://fontawesome.com License - https://fontawesome.com/license (Commercial License) --><path d="M256 128H320C338 128 352 114 352 96V32C352 14 338 0 320 0H256C238 0 224 14 224 32V96C224 114 238 128 256 128ZM256 32H320V96H256V32ZM288 320C323 320 352 291 352 256S323 192 288 192S224 221 224 256S253 320 288 320ZM288 224C306 224 320 238 320 256S306 288 288 288S256 274 256 256S270 224 288 224ZM512 64H400C391 64 384 71 384 80V80C384 89 391 96 400 96H512C530 96 544 110 544 128V448C544 466 530 480 512 480H64C46 480 32 466 32 448V128C32 110 46 96 64 96H176C185 96 192 89 192 80V80C192 71 185 64 176 64H64C29 64 0 93 0 128V448C0 483 29 512 64 512H512C547 512 576 483 576 448V128C576 93 547 64 512 64ZM192 448C201 448 208 441 208 432C208 406 230 384 256 384H320C346 384 368 406 368 432C368 441 375 448 384 448S400 441 400 432C400 388 364 352 320 352H256C212 352 176 388 176 432C176 441 183 448 192 448Z"/></svg>