<svg xmlns="http://www.w3.org/2000/svg" viewBox="0 0 576 512"><!-- Font Awesome Pro 6.0.0-alpha1 by @fontawesome - https://fontawesome.com License - https://fontawesome.com/license (Commercial License) --><path d="M464 448H96C61 448 32 419 32 384V112C32 103 25 96 16 96S0 103 0 112V384C0 437 43 480 96 480H464C473 480 480 473 480 464S473 448 464 448ZM224 152C237 152 248 141 248 128S237 104 224 104C211 104 200 115 200 128S211 152 224 152ZM411 140C399 124 372 124 361 140L317 201L310 192C298 178 273 178 261 192L198 273C191 282 190 294 196 304C201 314 211 320 222 320H482C493 320 503 314 508 305C508 305 508 305 508 305C514 295 513 283 507 274L411 140ZM226 288L284 212L305 238C309 243 322 249 330 237L385 159L477 288H226ZM512 32H160C125 32 96 61 96 96V320C96 355 125 384 160 384H512C547 384 576 355 576 320V96C576 61 547 32 512 32ZM544 320C544 338 530 352 512 352H160C142 352 128 338 128 320V96C128 78 142 64 160 64H512C530 64 544 78 544 96V320Z"/></svg>