<svg xmlns="http://www.w3.org/2000/svg" viewBox="0 0 448 512"><!-- Font Awesome Pro 6.0.0-alpha1 by @fontawesome - https://fontawesome.com License - https://fontawesome.com/license (Commercial License) --><path d="M384 32H64C29 32 0 61 0 96V416C0 451 29 480 64 480H384C419 480 448 451 448 416V96C448 61 419 32 384 32ZM416 416C416 434 402 448 384 448H64C46 448 32 434 32 416V384H416V416ZM147 352C154 333 171 320 192 320H256C277 320 294 333 301 352H147ZM416 352H334C327 315 295 288 256 288H192C153 288 121 315 114 352H32V96C32 78 46 64 64 64H384C402 64 416 78 416 96V352ZM224 128C189 128 160 157 160 192S189 256 224 256S288 227 288 192S259 128 224 128ZM224 224C206 224 192 210 192 192S206 160 224 160S256 174 256 192S242 224 224 224Z"/></svg>