<svg xmlns="http://www.w3.org/2000/svg" viewBox="0 0 576 512"><!-- Font Awesome Pro 6.0.0-alpha1 by @fontawesome - https://fontawesome.com License - https://fontawesome.com/license (Commercial License) --><path d="M464 448H96C61 448 32 419 32 384V112C32 103 25 96 16 96S0 103 0 112V384C0 437 43 480 96 480H464C473 480 480 473 480 464S473 448 464 448ZM512 32H160C125 32 96 61 96 96V320C96 355 125 384 160 384H512C547 384 576 355 576 320V96C576 61 547 32 512 32ZM416 352H256V336C256 310 278 288 304 288H368C394 288 416 310 416 336V352ZM544 320C544 338 530 352 512 352H448V336C448 292 412 256 368 256H304C260 256 224 292 224 336V352H160C142 352 128 338 128 320V96C128 78 142 64 160 64H512C530 64 544 78 544 96V320ZM336 96C301 96 272 125 272 160S301 224 336 224S400 195 400 160S371 96 336 96ZM336 192C318 192 304 178 304 160S318 128 336 128S368 142 368 160S354 192 336 192Z"/></svg>