<svg xmlns="http://www.w3.org/2000/svg" viewBox="0 0 384 512"><!-- Font Awesome Pro 6.0.0-alpha1 by @fontawesome - https://fontawesome.com License - https://fontawesome.com/license (Commercial License) --><path d="M192 256C227 256 256 227 256 192S227 128 192 128S128 157 128 192S157 256 192 256ZM192 160C210 160 224 174 224 192S210 224 192 224S160 210 160 192S174 160 192 160ZM224 288H160C116 288 80 324 80 368C80 377 87 384 96 384S112 377 112 368C112 342 134 320 160 320H224C250 320 272 342 272 368C272 377 279 384 288 384S304 377 304 368C304 324 268 288 224 288ZM320 0H64C29 0 0 29 0 64V448C0 483 29 512 64 512H320C355 512 384 483 384 448V64C384 29 355 0 320 0ZM352 448C352 466 338 480 320 480H64C46 480 32 466 32 448V64C32 46 46 32 64 32H320C338 32 352 46 352 64V448Z"/></svg>