<svg xmlns="http://www.w3.org/2000/svg" viewBox="0 0 512 512"><!-- Font Awesome Pro 6.0.0-alpha1 by @fontawesome - https://fontawesome.com License - https://fontawesome.com/license (Commercial License) --><path d="M508 305L447 56C443 42 431 32 416 32H96C81 32 69 42 65 56L4 305C1 315 0 325 0 336V432C0 458 22 480 48 480H464C490 480 512 458 512 432V336C512 325 511 315 508 305ZM96 64H416L471 288H368C362 288 356 291 354 297L326 352H186L158 297C156 291 150 288 144 288H41L96 64ZM480 432C480 441 473 448 464 448H48C39 448 32 441 32 432V336C32 330 33 325 34 320H134L162 375C164 381 170 384 176 384H336C342 384 348 381 350 375L378 320H478C479 325 480 330 480 336V432Z"/></svg>