<svg xmlns="http://www.w3.org/2000/svg" viewBox="0 0 512 512"><!-- Font Awesome Pro 6.0.0-alpha1 by @fontawesome - https://fontawesome.com License - https://fontawesome.com/license (Commercial License) --><path d="M155 139L240 55V304C240 313 247 320 256 320S272 313 272 304V55L357 139C363 146 373 146 379 139S386 123 379 117L267 5C264 2 260 0 256 0S248 2 245 5L133 117C126 123 126 133 133 139S149 146 155 139ZM464 320H384C378 320 372 323 370 329L342 384H170L142 329C140 323 134 320 128 320H48C22 320 0 342 0 368V464C0 490 22 512 48 512H464C490 512 512 490 512 464V368C512 342 490 320 464 320ZM480 464C480 473 473 480 464 480H48C39 480 32 473 32 464V368C32 359 39 352 48 352H118L146 407C148 413 154 416 160 416H352C358 416 364 413 366 407L394 352H464C473 352 480 359 480 368V464Z"/></svg>