<svg xmlns="http://www.w3.org/2000/svg" viewBox="0 0 512 512"><!-- Font Awesome Pro 6.0.0-alpha1 by @fontawesome - https://fontawesome.com License - https://fontawesome.com/license (Commercial License) --><path d="M128 64V224V284L178 251L304 167V224V284L354 251L480 167V448H32V64H128M128 32H32C14 32 0 46 0 64V448C0 466 14 480 32 480H480C498 480 512 466 512 448V152C512 138 500 128 488 128C484 128 479 129 475 132L336 224V152C336 138 324 128 312 128C308 128 303 129 299 132L160 224V64C160 46 146 32 128 32L128 32Z"/></svg>