<svg xmlns="http://www.w3.org/2000/svg" viewBox="0 0 256 512"><!-- Font Awesome Pro 6.0.0-alpha1 by @fontawesome - https://fontawesome.com License - https://fontawesome.com/license (Commercial License) --><path d="M112 128C138 128 160 106 160 80S138 32 112 32S64 54 64 80S86 128 112 128ZM112 64C121 64 128 71 128 80S121 96 112 96S96 89 96 80S103 64 112 64ZM208 448H144V208C144 199 137 192 128 192H80C71 192 64 199 64 208S71 224 80 224H112V448H48C39 448 32 455 32 464S39 480 48 480H208C217 480 224 473 224 464S217 448 208 448Z"/></svg>