<svg xmlns="http://www.w3.org/2000/svg" viewBox="0 0 576 512"><!-- Font Awesome Pro 6.0.0-alpha1 by @fontawesome - https://fontawesome.com License - https://fontawesome.com/license (Commercial License) --><path d="M24 232C11 232 0 243 0 256S11 280 24 280S48 269 48 256S37 232 24 232ZM24 328C11 328 0 339 0 352C0 365 11 376 24 376S48 365 48 352C48 339 37 328 24 328ZM24 424C11 424 0 435 0 448C0 461 11 472 24 472S48 461 48 448C48 435 37 424 24 424ZM120 376C107 376 96 387 96 400C96 413 107 424 120 424C133 424 144 413 144 400C144 387 133 376 120 376ZM120 280C107 280 96 291 96 304C96 317 107 328 120 328C133 328 144 317 144 304C144 291 133 280 120 280ZM355 117C351 113 345 111 340 113C334 114 330 118 329 124L300 224H232C206 224 184 246 184 272V432C184 458 206 480 232 480H424C460 480 491 457 501 423L535 309C537 303 535 297 531 293L355 117ZM470 414C464 434 446 448 424 448H232C223 448 216 441 216 432V272C216 263 223 256 232 256H312C319 256 325 251 327 244L352 159L502 309L470 414ZM555 64L411 32C403 31 395 35 393 43L377 91C374 99 379 108 387 111C395 114 404 109 407 101L419 67L533 92L504 221C502 229 508 238 516 240C518 240 519 240 520 240C527 240 534 235 536 227L568 83C570 75 564 66 555 64Z"/></svg>