<svg xmlns="http://www.w3.org/2000/svg" viewBox="0 0 640 512"><!-- Font Awesome Pro 6.0.0-alpha1 by @fontawesome - https://fontawesome.com License - https://fontawesome.com/license (Commercial License) --><path d="M576 64H64C29 64 0 93 0 128V384C0 419 29 448 64 448H576C611 448 640 419 640 384V128C640 93 611 64 576 64ZM608 384C608 402 594 416 576 416H64C46 416 32 402 32 384V128C32 110 46 96 64 96H576C594 96 608 110 608 128V384ZM406 248C412 239 416 228 416 216C416 185 391 160 360 160H304C295 160 288 167 288 176V336C288 345 295 352 304 352H376C407 352 432 327 432 296C432 276 421 258 406 248ZM320 192H360C373 192 384 203 384 216S373 240 360 240H320V192ZM376 320H320V272H376C389 272 400 283 400 296C400 309 389 320 376 320ZM191 170C186 158 166 158 161 170L97 330C94 338 98 348 106 351C114 354 124 350 127 342L142 304C143 304 143 304 144 304H208C209 304 209 304 210 304L225 342C228 348 234 352 240 352C242 352 244 352 246 351C254 348 258 338 255 330L191 170ZM155 272L176 219L197 272H155Z"/></svg>