<svg xmlns="http://www.w3.org/2000/svg" viewBox="0 0 640 512"><!-- Font Awesome Pro 6.0.0-alpha1 by @fontawesome - https://fontawesome.com License - https://fontawesome.com/license (Commercial License) --><path d="M112 160C103 160 96 167 96 176V336C96 345 103 352 112 352S128 345 128 336V176C128 167 121 160 112 160ZM576 64H64C29 64 0 93 0 128V384C0 419 29 448 64 448H576C611 448 640 419 640 384V128C640 93 611 64 576 64ZM608 384C608 402 594 416 576 416H64C46 416 32 402 32 384V128C32 110 46 96 64 96H576C594 96 608 110 608 128V384Z"/></svg>