<svg xmlns="http://www.w3.org/2000/svg" viewBox="0 0 576 512"><!-- Font Awesome Pro 6.0.0-alpha1 by @fontawesome - https://fontawesome.com License - https://fontawesome.com/license (Commercial License) --><path d="M445 20C441 18 437 16 432 16C424 16 416 20 412 27C407 33 406 42 409 49C415 64 418 80 418 96C418 137 399 174 366 199C360 204 356 210 356 218C355 225 358 232 364 237C388 258 401 288 401 320C401 342 387 419 304 430V359L325 379C331 385 341 385 347 379C353 373 353 363 347 357L327 336H352C361 336 368 329 368 320S361 304 352 304H327L347 283C353 277 353 267 347 261C341 255 331 255 325 261L304 281V16C304 7 297 0 288 0C279 0 272 7 272 16V281L251 261C245 254 235 254 229 261C222 267 223 277 229 283L249 304H224C215 304 208 311 208 320S215 336 224 336H249L229 357C223 363 222 373 229 379C235 386 245 386 251 379L272 359V430C217 422 175 377 175 320C175 288 188 258 212 237C218 232 221 225 220 218S216 204 210 199C177 174 158 137 158 96C158 80 161 64 167 49C170 42 169 33 164 27C160 20 152 16 144 16C139 16 135 18 131 21C55 74 12 161 16 254C23 395 142 512 288 512C438 512 560 390 560 241C560 153 517 71 445 20ZM288 480C143 480 61 362 50 269L86 300C92 306 102 305 108 298S113 282 107 276L49 225C50 213 51 201 54 189L85 219C91 225 101 225 107 219S114 203 107 197L65 154C79 119 101 87 129 62C127 73 126 84 126 95V96C126 143 147 189 184 219C158 246 143 282 143 319C143 399 208 464 288 464C360 464 433 408 433 320C433 282 418 246 392 219C429 189 450 143 450 96C450 84 449 73 447 62C475 87 497 119 511 154L469 197C462 203 462 213 469 219C475 225 485 225 491 219L522 189C525 201 526 213 527 225L470 276C463 282 462 292 468 298C474 305 484 306 491 300L526 269C513 387 411 480 288 480Z"/></svg>