<svg xmlns="http://www.w3.org/2000/svg" viewBox="0 0 640 512"><!-- Font Awesome Pro 6.0.0-alpha1 by @fontawesome - https://fontawesome.com License - https://fontawesome.com/license (Commercial License) --><path d="M629 241L472 184C458 179 443 176 428 176H407L276 32H304C313 32 320 25 320 16S313 0 304 0H208C199 0 192 7 192 16V176H167L132 134C129 130 125 128 120 128H48C39 128 32 135 32 144V208H16C7 208 0 215 0 224V288C0 297 7 304 16 304H32V368C32 377 39 384 48 384H120C125 384 129 382 132 378L168 336H192V496C192 505 199 512 208 512H304C313 512 320 505 320 496S313 480 304 480H276L407 336H428C443 336 458 333 472 328L629 271C636 269 640 263 640 256S636 243 629 241ZM224 32H233L364 176H224V32ZM233 480H224V336H364L233 480ZM456 300C449 303 441 304 434 304H160C155 304 151 306 148 310L113 352H64V288C64 279 57 272 48 272H32V240H48C57 240 64 233 64 224V160H113L148 202C151 206 155 208 160 208H434C441 208 449 209 456 212L577 256L456 300ZM160 240H96C87 240 80 247 80 256S87 272 96 272H160C169 272 176 265 176 256S169 240 160 240Z"/></svg>