<svg xmlns="http://www.w3.org/2000/svg" viewBox="0 0 448 512"><!-- Font Awesome Pro 6.0.0-alpha1 by @fontawesome - https://fontawesome.com License - https://fontawesome.com/license (Commercial License) --><path d="M400 352H240V222C294 215 336 168 336 112C336 50 286 0 224 0S112 50 112 112C112 168 154 215 208 222V352H48C22 352 0 374 0 400V464C0 490 22 512 48 512H400C426 512 448 490 448 464V400C448 374 426 352 400 352ZM144 112C144 68 180 32 224 32S304 68 304 112S268 192 224 192S144 156 144 112ZM416 464C416 473 409 480 400 480H48C39 480 32 473 32 464V400C32 391 39 384 48 384H400C409 384 416 391 416 400V464ZM232 80C232 67 221 56 208 56S184 67 184 80C184 93 195 104 208 104S232 93 232 80ZM64 320H128C137 320 144 313 144 304S137 288 128 288H64C55 288 48 295 48 304S55 320 64 320Z"/></svg>