<svg xmlns="http://www.w3.org/2000/svg" viewBox="0 0 576 512"><!-- Font Awesome Pro 6.0.0-alpha1 by @fontawesome - https://fontawesome.com License - https://fontawesome.com/license (Commercial License) --><path d="M252 170L172 192C163 194 158 203 161 212C163 219 169 223 176 223C177 223 179 223 180 223L260 200C269 198 274 189 271 181C269 172 260 167 252 170ZM316 200L396 223C397 223 399 224 400 224C407 224 413 219 415 212C418 203 413 195 404 192L324 170C316 167 307 172 305 181C302 189 307 198 316 200ZM554 83L318 5C309 2 298 0 288 0S267 2 258 5L22 83C9 88 0 100 0 114V425C0 440 10 453 25 456L267 510C274 511 281 512 288 512S302 511 309 510L551 456C566 453 576 440 576 425V114C576 100 567 88 554 83ZM544 231L468 210C460 208 451 213 449 221C446 230 451 239 460 241L544 264V425L302 478C297 479 293 480 288 480S279 479 274 478L32 425V264L116 241C125 238 130 230 127 221C125 213 116 208 108 210L32 231V187L274 114C279 113 283 112 288 112S297 113 302 114L544 187V231ZM544 153L311 83C303 81 296 80 288 80C280 80 273 81 265 83L32 153V114L268 35C272 34 279 32 288 32C297 32 304 34 308 35L544 114V153Z"/></svg>