<svg xmlns="http://www.w3.org/2000/svg" viewBox="0 0 640 512"><!-- Font Awesome Pro 6.0.0-alpha1 by @fontawesome - https://fontawesome.com License - https://fontawesome.com/license (Commercial License) --><path d="M294 97C286 94 277 97 273 106L160 361L47 106C43 97 34 94 26 97C17 101 14 110 17 118L145 406C148 412 154 416 160 416C166 416 172 412 175 406L303 118C306 110 303 101 294 97ZM623 394L495 106C489 94 471 94 465 106L337 394C334 402 337 411 346 415C354 418 363 415 367 406L405 320H555L593 406C596 412 602 416 608 416C610 416 612 416 614 415C623 411 626 402 623 394ZM419 288L480 151L541 288H419ZM422 1C414 -2 404 2 401 10L209 490C206 498 210 508 218 511C220 512 222 512 224 512C230 512 236 508 239 502L431 22C434 14 430 4 422 1Z"/></svg>