<svg xmlns="http://www.w3.org/2000/svg" viewBox="0 0 576 512"><!-- Font Awesome Pro 6.0.0-alpha1 by @fontawesome - https://fontawesome.com License - https://fontawesome.com/license (Commercial License) --><path d="M180 184H204C211 184 216 179 216 172V148C216 141 211 136 204 136H180C173 136 168 141 168 148V172C168 179 173 184 180 184ZM276 280H300C307 280 312 275 312 268V244C312 237 307 232 300 232H276C269 232 264 237 264 244V268C264 275 269 280 276 280ZM180 280H204C211 280 216 275 216 268V244C216 237 211 232 204 232H180C173 232 168 237 168 244V268C168 275 173 280 180 280ZM372 184H396C403 184 408 179 408 172V148C408 141 403 136 396 136H372C365 136 360 141 360 148V172C360 179 365 184 372 184ZM276 184H300C307 184 312 179 312 172V148C312 141 307 136 300 136H276C269 136 264 141 264 148V172C264 179 269 184 276 184ZM108 328H84C77 328 72 333 72 340V364C72 371 77 376 84 376H108C115 376 120 371 120 364V340C120 333 115 328 108 328ZM372 280H396C403 280 408 275 408 268V244C408 237 403 232 396 232H372C365 232 360 237 360 244V268C360 275 365 280 372 280ZM108 136H84C77 136 72 141 72 148V172C72 179 77 184 84 184H108C115 184 120 179 120 172V148C120 141 115 136 108 136ZM492 232H468C461 232 456 237 456 244V268C456 275 461 280 468 280H492C499 280 504 275 504 268V244C504 237 499 232 492 232ZM108 232H84C77 232 72 237 72 244V268C72 275 77 280 84 280H108C115 280 120 275 120 268V244C120 237 115 232 108 232ZM512 64H64C29 64 0 93 0 128V384C0 419 29 448 64 448H512C547 448 576 419 576 384V128C576 93 547 64 512 64ZM544 384C544 402 530 416 512 416H64C46 416 32 402 32 384V128C32 110 46 96 64 96H512C530 96 544 110 544 128V384ZM492 136H468C461 136 456 141 456 148V172C456 179 461 184 468 184H492C499 184 504 179 504 172V148C504 141 499 136 492 136ZM400 336H176C167 336 160 343 160 352S167 368 176 368H400C409 368 416 361 416 352S409 336 400 336ZM492 328H468C461 328 456 333 456 340V364C456 371 461 376 468 376H492C499 376 504 371 504 364V340C504 333 499 328 492 328Z"/></svg>