<svg xmlns="http://www.w3.org/2000/svg" viewBox="0 0 512 512"><!-- Font Awesome Pro 6.0.0-alpha1 by @fontawesome - https://fontawesome.com License - https://fontawesome.com/license (Commercial License) --><path d="M505 274L457 178C451 167 440 160 428 160H128V144C128 104 157 71 195 65C202 83 220 96 240 96H304C330 96 352 74 352 48S330 0 304 0H240C219 0 201 14 194 33C139 40 96 87 96 144V160H84C72 160 61 167 55 178L7 274C2 283 0 293 0 303V352C0 370 14 384 32 384H240V480H144C135 480 128 487 128 496C128 505 135 512 144 512H368C377 512 384 505 384 496C384 487 377 480 368 480H272V384H480C498 384 512 370 512 352V303C512 293 510 283 505 274ZM240 32H304C313 32 320 39 320 48S313 64 304 64H240C231 64 224 57 224 48S231 32 240 32ZM84 192H428L476 288H36L84 192ZM480 352H32V320H480V352Z"/></svg>