<svg xmlns="http://www.w3.org/2000/svg" viewBox="0 0 640 512"><!-- Font Awesome Pro 6.0.0-alpha1 by @fontawesome - https://fontawesome.com License - https://fontawesome.com/license (Commercial License) --><path d="M244 216L203 195C208 186 215 176 224 168C243 151 254 127 256 102C257 75 248 50 230 30C212 11 186 0 160 0C136 0 114 9 96 24C15 97 -18 204 10 303L13 314C25 357 60 384 103 384C135 384 165 369 184 345C201 322 206 292 198 262L195 250C192 243 192 234 193 226L229 245C246 253 256 269 256 288V496C256 505 263 512 272 512S288 505 288 496V288C288 257 271 230 244 216ZM164 259L167 271C181 320 142 352 103 352C78 352 53 338 44 306L41 294C16 207 45 113 117 48C129 38 144 32 160 32C196 32 226 63 224 100C223 117 215 132 203 144C167 176 152 219 164 259ZM544 24C526 9 504 0 480 0C454 0 428 11 410 30C392 50 383 75 384 102C386 127 397 151 416 168C425 176 432 186 437 195L396 216C369 230 352 257 352 288V496C352 505 359 512 368 512S384 505 384 496V288C384 269 394 253 411 245L447 226C448 234 448 243 445 250L442 262C434 292 439 322 456 345C475 369 505 384 537 384C580 384 615 357 627 314L630 303C658 204 625 97 544 24ZM599 294L596 306C587 338 562 352 537 352C498 352 459 320 473 271L476 259C488 219 473 176 437 144C425 132 417 117 416 100C414 63 444 32 480 32C496 32 511 38 523 48C595 113 624 207 599 294Z"/></svg>