<svg xmlns="http://www.w3.org/2000/svg" viewBox="0 0 384 512"><!-- Font Awesome Pro 6.0.0-alpha1 by @fontawesome - https://fontawesome.com License - https://fontawesome.com/license (Commercial License) --><path d="M384 256C384 265 377 272 368 272H125L330 435C337 441 338 451 333 458C329 462 325 464 320 464C317 464 313 463 310 461L96 290V464C96 473 89 480 80 480S64 473 64 464V272H16C7 272 0 265 0 256S7 240 16 240H64V48C64 39 71 32 80 32S96 39 96 48V223L310 52C317 46 327 47 332 54C338 61 337 71 330 76L126 240H368C377 240 384 247 384 256Z"/></svg>