<svg xmlns="http://www.w3.org/2000/svg" viewBox="0 0 576 512"><!-- Font Awesome Pro 6.0.0-alpha1 by @fontawesome - https://fontawesome.com License - https://fontawesome.com/license (Commercial License) --><path d="M512 32H64C29 32 0 61 0 96V416C0 451 29 480 64 480H512C547 480 576 451 576 416V96C576 61 547 32 512 32ZM96 448H64C46 448 32 434 32 416V96C32 78 46 64 64 64H96V448ZM448 448H128V64H448V448ZM544 416C544 434 530 448 512 448H480V64H512C530 64 544 78 544 96V416ZM208 288H256V336C256 345 263 352 272 352H304C313 352 320 345 320 336V288H368C377 288 384 281 384 272V240C384 231 377 224 368 224H320V176C320 167 313 160 304 160H272C263 160 256 167 256 176V224H208C199 224 192 231 192 240V272C192 281 199 288 208 288Z"/></svg>