<svg xmlns="http://www.w3.org/2000/svg" viewBox="0 0 448 512"><!-- Font Awesome Pro 6.0.0-alpha1 by @fontawesome - https://fontawesome.com License - https://fontawesome.com/license (Commercial License) --><path d="M448 464C448 473 441 480 432 480H362C350 480 338 473 333 461L178 125L31 470C28 476 22 480 16 480C14 480 12 480 10 479C2 475 -2 466 1 458L160 86L152 69C151 66 148 64 145 64H16C7 64 0 57 0 48C0 39 7 32 16 32H150C162 32 174 39 179 51L360 443C361 446 364 448 367 448H432C441 448 448 455 448 464Z"/></svg>