<svg xmlns="http://www.w3.org/2000/svg" viewBox="0 0 448 512"><!-- Font Awesome Pro 6.0.0-alpha1 by @fontawesome - https://fontawesome.com License - https://fontawesome.com/license (Commercial License) --><path d="M445 211L368 19C363 8 352 0 340 0H121C109 0 99 7 94 18L3 210C-7 231 8 256 30 256H208V288H198C171 288 146 302 131 324C109 357 96 395 96 425C96 452 107 479 127 499C135 507 146 512 158 512H290C302 512 313 507 321 499C341 478 352 452 352 425C352 395 339 357 317 324C302 302 277 288 250 288H240V256H418C439 256 454 233 445 211ZM250 320C266 320 281 328 290 342C308 369 320 402 320 425C320 444 312 462 298 477C296 479 293 480 290 480H158C155 480 152 479 150 477C136 462 128 444 128 425C128 402 140 369 158 342C167 328 182 320 198 320H250ZM32 224C32 224 32 224 32 223L122 32H339L416 224H32Z"/></svg>