<svg xmlns="http://www.w3.org/2000/svg" viewBox="0 0 384 512"><!-- Font Awesome Pro 6.0.0-alpha1 by @fontawesome - https://fontawesome.com License - https://fontawesome.com/license (Commercial License) --><path d="M381 179L313 19C308 8 296 0 283 0H101C88 0 76 8 71 19L3 179C-2 189 -1 201 5 210C11 219 21 224 32 224H176V480H80C71 480 64 487 64 496S71 512 80 512H304C313 512 320 505 320 496S313 480 304 480H208V224H352C363 224 373 219 379 210C385 201 386 189 381 179ZM32 192L101 32H283L352 192L32 192Z"/></svg>