<svg xmlns="http://www.w3.org/2000/svg" viewBox="0 0 640 512"><!-- Font Awesome Pro 6.0.0-alpha1 by @fontawesome - https://fontawesome.com License - https://fontawesome.com/license (Commercial License) --><path d="M624 384H16C7 384 0 391 0 400V416C0 451 29 480 64 480H576C611 480 640 451 640 416V400C640 391 633 384 624 384ZM576 448H64C46 448 32 434 32 416H608C608 434 594 448 576 448ZM80 352C89 352 96 345 96 336V96C96 78 110 64 128 64H512C530 64 544 78 544 96V336C544 345 551 352 560 352S576 345 576 336V96C576 61 547 32 512 32H128C93 32 64 61 64 96V336C64 345 71 352 80 352Z"/></svg>