<svg xmlns="http://www.w3.org/2000/svg" viewBox="0 0 384 512"><!-- Font Awesome Pro 6.0.0-alpha1 by @fontawesome - https://fontawesome.com License - https://fontawesome.com/license (Commercial License) --><path d="M384 464C384 473 377 480 368 480H16C7 480 0 473 0 464S7 448 16 448H86C34 414 0 355 0 288C0 205 54 134 128 107V48C128 39 135 32 144 32S160 39 160 48V99C170 97 181 96 192 96S214 97 224 99V48C224 39 231 32 240 32S256 39 256 48V107C330 134 384 205 384 288C384 297 377 304 368 304S352 297 352 288C352 223 312 166 256 142V272C256 281 249 288 240 288S224 281 224 272V131C214 129 203 128 192 128S170 129 160 131V272C160 281 153 288 144 288S128 281 128 272V142C72 166 32 223 32 288C32 376 104 448 192 448H368C377 448 384 455 384 464Z"/></svg>