<svg xmlns="http://www.w3.org/2000/svg" viewBox="0 0 576 512"><!-- Font Awesome Pro 6.0.0-alpha1 by @fontawesome - https://fontawesome.com License - https://fontawesome.com/license (Commercial License) --><path d="M576 176C576 104 505 42 404 15C394 12 384 20 384 31V31C384 38 389 45 396 46C482 70 544 119 544 176C544 254 427 320 288 320C149 320 32 254 32 176C32 113 108 58 211 39C218 38 224 31 224 23C224 13 215 6 205 8C86 29 0 96 0 176C0 244 63 303 156 332C223 358 209 420 203 433C192 462 163 480 132 480H49C41 480 34 485 32 493C31 503 38 512 48 512H132C180 512 224 481 237 435C246 403 239 372 223 347C244 350 266 352 288 352C447 352 576 273 576 176ZM560 416H512V368C512 359 505 352 496 352S480 359 480 368V416H432C423 416 416 423 416 432S423 448 432 448H480V496C480 505 487 512 496 512S512 505 512 496V448H560C569 448 576 441 576 432S569 416 560 416ZM240 96H288V144C288 153 295 160 304 160S320 153 320 144V96H368C377 96 384 89 384 80S377 64 368 64H320V16C320 7 313 0 304 0S288 7 288 16V64H240C231 64 224 71 224 80S231 96 240 96Z"/></svg>