<svg xmlns="http://www.w3.org/2000/svg" viewBox="0 0 512 512"><!-- Font Awesome Pro 6.0.0-alpha1 by @fontawesome - https://fontawesome.com License - https://fontawesome.com/license (Commercial License) --><path d="M9 142L249 254C251 255 254 256 256 256S261 255 263 254L503 142C508 140 512 134 512 128S508 116 503 114L263 2C258 0 254 0 249 2L9 114C4 116 0 122 0 128S4 140 9 142ZM256 34L458 128L256 222L54 128L256 34ZM503 242L434 210C426 206 417 209 413 217C409 225 413 235 421 239L458 256L256 350L54 256L91 238C99 235 103 225 99 217C95 209 86 206 78 210L9 242C4 244 0 250 0 256S4 268 9 270L249 382C251 383 254 384 256 384S261 383 263 382L503 270C508 268 512 262 512 256S508 244 503 242ZM503 370L434 338C426 334 417 337 413 345C409 353 413 363 421 367L458 384L256 478L54 384L91 366C99 363 103 353 99 345C95 337 86 334 78 337L9 369C4 372 0 378 0 384S4 396 9 398L249 510C251 511 254 512 256 512S261 511 263 510L503 398C508 396 512 390 512 384S508 372 503 370Z"/></svg>