<svg xmlns="http://www.w3.org/2000/svg" viewBox="0 0 512 512"><!-- Font Awesome Pro 6.0.0-alpha1 by @fontawesome - https://fontawesome.com License - https://fontawesome.com/license (Commercial License) --><path d="M466 175L442 161L449 94C451 78 439 62 421 62C420 62 419 62 418 63L351 70L337 46C332 37 323 32 313 32C303 32 293 37 288 45L251 104C245 90 233 85 223 85C219 85 216 86 213 88L201 94L171 59C165 52 157 49 148 49C139 49 131 52 126 59L95 94L83 88C80 86 77 85 73 85C58 85 40 100 45 120L70 245L49 254C26 264 26 297 49 307L143 347L37 453C30 459 30 469 37 475C40 478 44 480 48 480S56 478 59 475L165 369L205 463C210 473 220 480 232 480S253 473 258 463L267 442L392 467C394 468 396 468 398 468C416 468 433 450 426 432L418 417L453 386C467 375 467 353 453 342L418 311L424 299C430 288 425 268 408 261L467 224C485 212 484 186 466 175ZM390 234L336 269L393 290L390 296L378 318L397 335L430 364L397 393L378 409L389 431L391 435L273 410L248 405L238 429L232 443L194 355C193 352 191 349 188 346L315 219C322 213 322 203 315 197C309 190 299 190 293 197L166 324C163 321 160 319 157 318L69 280L83 274L107 264L102 239L77 121L80 122L102 134L119 115L148 82L177 115L194 134L216 122L222 119L243 176L277 122L312 67L324 86L335 104L355 102L417 95L410 157L408 177L426 188L445 200L390 234Z"/></svg>