<svg xmlns="http://www.w3.org/2000/svg" viewBox="0 0 512 512"><!-- Font Awesome Pro 6.0.0-alpha1 by @fontawesome - https://fontawesome.com License - https://fontawesome.com/license (Commercial License) --><path d="M304 204C261 161 228 178 214 189C186 212 185 253 209 278L294 364C300 369 308 369 314 364L399 278C423 253 422 212 394 189C380 178 346 161 304 204ZM376 256L304 328L232 256C222 245 220 226 234 214C248 202 265 210 273 217L304 249L335 217C343 210 360 202 374 214C388 226 386 245 376 256ZM486 41C485 40 484 37 482 36C478 33 474 31 469 32C464 33 460 36 457 40C432 86 386 112 331 112H263C171 112 96 188 96 281C96 287 96 292 97 298C49 340 14 396 0 461C-1 469 4 478 13 480C14 480 15 480 16 480C23 480 30 475 32 467C43 416 69 371 105 335C108 344 111 352 116 360C116 360 116 360 116 360C145 414 201 448 263 448C269 448 275 448 280 447C414 437 512 319 512 167C512 124 503 78 486 41ZM277 415C272 416 268 416 263 416C213 416 168 389 144 345C131 320 128 297 128 281C128 207 190 144 263 144H331C386 144 434 121 467 82C475 109 480 138 480 167C480 302 395 407 277 415Z"/></svg>