<svg xmlns="http://www.w3.org/2000/svg" viewBox="0 0 448 512"><!-- Font Awesome Pro 6.0.0-alpha1 by @fontawesome - https://fontawesome.com License - https://fontawesome.com/license (Commercial License) --><path d="M91 229C84 236 80 246 80 256S84 276 92 283L225 406C235 416 251 419 265 413C279 407 288 393 288 378V320H403C428 320 448 300 448 275V237C448 212 428 192 403 192H288V134C288 119 279 105 265 99C251 93 235 96 225 106L91 229ZM253 128C255 129 256 131 256 134V224H403C410 224 416 230 416 237V275C416 282 410 288 403 288H256V378C256 381 255 383 253 384C251 384 248 384 246 382L113 260C112 258 112 254 113 252L247 130C248 128 251 128 253 128ZM32 432V80C32 71 25 64 16 64S0 71 0 80V432C0 441 7 448 16 448S32 441 32 432Z"/></svg>