<svg xmlns="http://www.w3.org/2000/svg" viewBox="0 0 448 512"><!-- Font Awesome Pro 6.0.0-alpha1 by @fontawesome - https://fontawesome.com License - https://fontawesome.com/license (Commercial License) --><path d="M432 64C423 64 416 71 416 80V432C416 441 423 448 432 448S448 441 448 432V80C448 71 441 64 432 64ZM323 192H208V134C208 119 199 105 185 99C171 93 155 96 145 106L11 229C4 236 0 246 0 256S4 276 12 283L145 406C155 416 171 419 185 413C199 407 208 393 208 378V320H323C348 320 368 300 368 275V237C368 212 348 192 323 192ZM336 275C336 282 330 288 323 288H176V378C176 381 175 383 173 384C171 384 168 384 166 382L33 260C32 258 32 254 33 252L167 130C168 128 171 128 173 128C175 129 176 131 176 134V224H323C330 224 336 230 336 237V275Z"/></svg>