<svg xmlns="http://www.w3.org/2000/svg" viewBox="0 0 512 512"><!-- Font Awesome Pro 6.0.0-alpha1 by @fontawesome - https://fontawesome.com License - https://fontawesome.com/license (Commercial License) --><path d="M504 238L392 134C385 128 375 126 366 130S352 142 352 152V240H160V152C160 142 154 134 146 130S127 128 120 134L8 238C3 243 0 250 0 256S3 269 8 274L120 378C127 384 137 386 146 382S160 370 160 360V272H352V360C352 370 358 378 366 382S385 384 392 378L504 274C509 269 512 262 512 256S509 243 504 238ZM128 342L36 256L128 170V342ZM384 342V170L476 256L384 342Z"/></svg>