<svg xmlns="http://www.w3.org/2000/svg" viewBox="0 0 448 512"><!-- Font Awesome Pro 6.0.0-alpha1 by @fontawesome - https://fontawesome.com License - https://fontawesome.com/license (Commercial License) --><path d="M428 52C415 39 398 32 383 32C376 32 368 34 362 37C336 52 297 41 248 41C199 41 142 52 81 113C-41 236 35 343 5 394C-5 412 0 440 20 460C33 473 50 480 65 480C72 480 80 478 86 475C112 460 151 471 200 471C249 471 306 460 367 399C489 276 413 169 443 118C453 100 448 72 428 52ZM415 102C400 128 402 158 405 190C410 244 415 306 344 376C288 432 238 439 200 439C172 439 146 435 122 435C109 435 88 436 70 447C67 449 55 449 43 437C31 426 31 414 33 410C48 384 46 354 43 322C38 268 33 206 104 136C160 80 210 73 248 73C276 73 302 77 326 77C339 77 360 76 378 65C381 63 393 63 405 75C417 86 417 98 415 102ZM228 105C165 120 88 197 73 260C70 269 75 277 84 280C91 282 101 278 104 268C116 217 185 148 236 136C244 133 250 125 248 116C246 111 239 101 228 105Z"/></svg>