<svg xmlns="http://www.w3.org/2000/svg" viewBox="0 0 448 512"><!-- Font Awesome Pro 6.0.0-alpha1 by @fontawesome - https://fontawesome.com License - https://fontawesome.com/license (Commercial License) --><path d="M42 207L394 351C396 352 398 352 400 352C406 352 412 348 415 342C418 334 414 325 406 321L90 192L406 63C414 60 418 50 415 42C411 34 402 30 394 33L42 177C36 180 32 186 32 192C32 199 36 204 42 207ZM432 448H16C7 448 0 455 0 464C0 473 7 480 16 480H432C441 480 448 473 448 464C448 455 441 448 432 448Z"/></svg>