<svg xmlns="http://www.w3.org/2000/svg" viewBox="0 0 384 512"><!-- Font Awesome Pro 6.0.0-alpha1 by @fontawesome - https://fontawesome.com License - https://fontawesome.com/license (Commercial License) --><path d="M64 512H320C355 512 384 483 384 448V64C384 29 355 0 320 0H64C29 0 0 29 0 64V448C0 483 29 512 64 512ZM32 64C32 46 46 32 64 32H176V48C176 57 183 64 192 64S208 57 208 48V32H320C338 32 352 46 352 64V448C352 466 338 480 320 480H208V464C208 455 201 448 192 448S176 455 176 464V480H64C46 480 32 466 32 448V64ZM144 416H240C266 416 288 394 288 368V144C288 118 266 96 240 96H144C118 96 96 118 96 144V368C96 394 118 416 144 416ZM128 144C128 135 135 128 144 128H240C249 128 256 135 256 144V240H128V144ZM128 272H256V368C256 377 249 384 240 384H144C135 384 128 377 128 368V272ZM208 160H176C167 160 160 167 160 176S167 192 176 192H208C217 192 224 185 224 176S217 160 208 160Z"/></svg>