<svg xmlns="http://www.w3.org/2000/svg" viewBox="0 0 384 512"><!-- Font Awesome Pro 6.0.0-alpha1 by @fontawesome - https://fontawesome.com License - https://fontawesome.com/license (Commercial License) --><path d="M208 224V112C208 103 201 96 192 96S176 103 176 112V224C176 233 183 240 192 240S208 233 208 224ZM168 288C168 301 179 312 192 312C205 312 216 301 216 288S205 264 192 264C179 264 168 275 168 288ZM316 51C282 18 238 -1 191 0C95 0 16 80 16 177C16 220 31 262 60 294C73 309 95 344 103 370C104 379 112 385 121 384C130 383 136 375 135 366L134 363C124 328 98 290 84 273C61 247 48 213 48 177C48 96 111 32 192 32H192C230 32 266 47 293 74C321 101 336 138 336 177C336 213 323 247 300 273C286 290 260 328 250 363L249 366C248 375 254 384 263 385C263 385 264 385 265 385C273 385 279 380 280 372C289 344 311 309 324 294C352 262 368 220 368 177C368 130 349 85 316 51ZM256 416H128C119 416 112 423 112 432L112 454C112 461 114 467 117 472L134 498C140 506 152 512 161 512H223C232 512 244 506 249 498L267 472C269 468 272 460 272 454L272 432C272 423 265 416 256 416ZM240 454L224 479C223 479 222 480 223 480L163 480C162 480 161 480 161 480C161 480 161 480 161 480L144 454L144 448H240L240 453C240 454 240 454 240 454C240 454 240 454 240 454Z"/></svg>