<svg xmlns="http://www.w3.org/2000/svg" viewBox="0 0 512 512"><!-- Font Awesome Pro 6.0.0-alpha1 by @fontawesome - https://fontawesome.com License - https://fontawesome.com/license (Commercial License) --><path d="M272 161V16C272 7 265 0 256 0S240 7 240 16V161C117 168 18 260 0 378C-3 398 12 416 32 416H480C499 416 515 399 512 380C495 261 395 168 272 161ZM32 384C48 275 144 192 256 192S464 275 480 384L32 384ZM324 433C316 430 307 435 304 444C299 465 279 480 256 480S213 465 207 444C205 435 196 430 188 433C179 435 174 444 176 452C186 487 219 512 256 512S326 487 335 452C338 444 333 435 324 433Z"/></svg>