<svg xmlns="http://www.w3.org/2000/svg" viewBox="0 0 512 512"><!-- Font Awesome Pro 6.0.0-alpha1 by @fontawesome - https://fontawesome.com License - https://fontawesome.com/license (Commercial License) --><path d="M208 432H16C7 432 0 439 0 448S7 464 16 464H208C217 464 224 457 224 448S217 432 208 432ZM496 432H304C295 432 288 439 288 448S295 464 304 464H496C505 464 512 457 512 448S505 432 496 432ZM208 304H16C7 304 0 311 0 320S7 336 16 336H208C217 336 224 329 224 320S217 304 208 304ZM496 304H304C295 304 288 311 288 320S295 336 304 336H496C505 336 512 329 512 320S505 304 496 304ZM208 176H16C7 176 0 183 0 192S7 208 16 208H208C217 208 224 201 224 192S217 176 208 176ZM496 176H304C295 176 288 183 288 192S295 208 304 208H496C505 208 512 201 512 192S505 176 496 176ZM208 48H16C7 48 0 55 0 64S7 80 16 80H208C217 80 224 73 224 64S217 48 208 48ZM304 80H496C505 80 512 73 512 64S505 48 496 48H304C295 48 288 55 288 64S295 80 304 80Z"/></svg>