<svg xmlns="http://www.w3.org/2000/svg" viewBox="0 0 640 512"><!-- Font Awesome Pro 6.0.0-alpha1 by @fontawesome - https://fontawesome.com License - https://fontawesome.com/license (Commercial License) --><path d="M512 192H480C471 192 464 199 464 208S471 224 480 224H512C565 224 608 267 608 320S565 416 512 416H336C283 416 240 373 240 320S283 224 336 224H352C361 224 368 217 368 208S361 192 352 192H336C265 192 208 249 208 320S265 448 336 448H512C583 448 640 391 640 320S583 192 512 192ZM160 288H128C75 288 32 245 32 192S75 96 128 96H304C357 96 400 139 400 192S357 288 304 288H288C279 288 272 295 272 304S279 320 288 320H304C375 320 432 263 432 192S375 64 304 64H128C57 64 0 121 0 192S57 320 128 320H160C169 320 176 313 176 304S169 288 160 288Z"/></svg>