<svg xmlns="http://www.w3.org/2000/svg" viewBox="0 0 640 512"><!-- Font Awesome Pro 6.0.0-alpha1 by @fontawesome - https://fontawesome.com License - https://fontawesome.com/license (Commercial License) --><path d="M386 107L430 62C471 22 537 22 578 62C618 103 618 169 578 210L484 304L509 324L600 232C653 179 653 93 600 40C547 -13 461 -13 408 40L363 85C357 91 357 101 363 107C369 114 379 114 386 107ZM338 174C347 183 353 194 359 205L399 237C397 206 384 175 360 152C328 120 285 108 243 114L284 146C304 150 322 159 338 174ZM302 338C293 329 286 318 281 307L241 275C243 306 256 337 280 360C306 387 341 400 376 400C383 400 390 399 397 398L356 366C336 362 318 353 302 338ZM254 405L210 450C169 490 103 490 62 450C22 409 22 343 62 302L156 208L131 188L40 280C-13 333 -13 419 40 472C66 499 101 512 136 512C171 512 206 499 232 472L277 427C283 421 283 411 277 405C271 398 261 398 254 405ZM26 3C19 -2 9 -1 3 6C-2 13 -1 23 6 29L614 509C617 511 621 512 624 512C629 512 633 510 637 506C642 499 641 489 634 483L26 3Z"/></svg>