<svg xmlns="http://www.w3.org/2000/svg" viewBox="0 0 640 512"><!-- Font Awesome Pro 6.0.0-alpha1 by @fontawesome - https://fontawesome.com License - https://fontawesome.com/license (Commercial License) --><path d="M222 405L178 450C137 490 71 490 30 450C-10 409 -10 343 30 302L158 174C199 134 265 134 306 174C342 211 346 269 315 310C310 317 311 327 318 333C325 338 336 337 341 330C381 276 376 199 328 152C275 99 189 99 136 152L8 280C-45 333 -45 419 8 472C34 499 69 512 104 512C139 512 174 499 200 472L245 427C251 421 251 411 245 405C239 398 229 398 222 405ZM568 40C515 -13 429 -13 376 40L331 85C325 91 325 101 331 107C337 114 347 114 354 107L398 62C439 22 505 22 546 62C586 103 586 169 546 210L418 338C377 378 311 378 270 338C234 301 230 243 261 202C266 195 265 185 258 179C251 174 241 175 235 182C195 236 200 313 248 360C274 387 309 400 344 400S414 387 440 360L568 232C621 179 621 93 568 40Z"/></svg>