<svg xmlns="http://www.w3.org/2000/svg" viewBox="0 0 576 512"><!-- Font Awesome Pro 6.0.0-alpha1 by @fontawesome - https://fontawesome.com License - https://fontawesome.com/license (Commercial License) --><path d="M568 202C522 125 420 64 376 64C376 64 347 64 288 109C229 64 200 64 200 64C156 64 54 125 8 202C-1 217 -2 236 4 252C30 312 106 448 251 448H325C470 448 546 312 571 252C578 236 577 217 568 202ZM542 240C525 281 458 416 325 416H251C118 416 51 281 34 240C31 233 31 225 35 218C77 150 167 97 199 96C203 97 226 102 268 134C274 139 281 141 288 141C295 141 302 139 307 134C350 102 373 97 377 96C409 97 499 150 541 218C545 225 545 233 542 240ZM491 214C467 205 425 192 372 192L341 201C325 206 306 208 288 208S251 206 235 201L204 192C151 192 109 205 85 214C74 219 71 233 80 241C109 268 178 320 288 320C398 320 467 268 496 241C505 233 502 219 491 214ZM288 288C211 288 156 260 123 235C143 229 169 224 200 224L226 232C246 237 267 240 288 240C309 240 330 237 350 232L376 224C407 224 433 229 453 235C420 260 365 288 288 288Z"/></svg>