<svg xmlns="http://www.w3.org/2000/svg" viewBox="0 0 512 512"><!-- Font Awesome Pro 6.0.0-alpha1 by @fontawesome - https://fontawesome.com License - https://fontawesome.com/license (Commercial License) --><path d="M48 384C31 384 16 398 16 416S31 448 48 448C66 448 80 434 80 416S66 384 48 384ZM208 112H496C505 112 512 105 512 96C512 87 505 80 496 80H208C199 80 192 87 192 96C192 105 199 112 208 112ZM496 240H208C199 240 192 247 192 256C192 265 199 272 208 272H496C505 272 512 265 512 256C512 247 505 240 496 240ZM496 400H176C167 400 160 407 160 416C160 425 167 432 176 432H496C505 432 512 425 512 416C512 407 505 400 496 400ZM132 198L62 281L26 252C19 246 9 247 4 254C-2 261 -1 271 6 276L54 316C57 319 60 320 64 320C69 320 73 318 76 314L156 218C162 211 161 201 154 196C148 190 137 191 132 198ZM132 38L62 121L26 92C19 86 9 87 4 94C-2 101 -1 111 6 116L54 156C57 159 60 160 64 160C69 160 73 158 76 154L156 58C162 51 161 41 154 36C148 30 137 31 132 38Z"/></svg>