<svg xmlns="http://www.w3.org/2000/svg" viewBox="0 0 512 512"><!-- Font Awesome Pro 6.0.0-alpha1 by @fontawesome - https://fontawesome.com License - https://fontawesome.com/license (Commercial License) --><path d="M176 112H496C505 112 512 105 512 96S505 80 496 80H176C167 80 160 87 160 96S167 112 176 112ZM496 240H304C295 240 288 247 288 256S295 272 304 272H496C505 272 512 265 512 256S505 240 496 240ZM192 208H160C142 208 128 222 128 240H64V144C82 144 96 130 96 112V80C96 62 82 48 64 48H32C14 48 0 62 0 80V112C0 130 14 144 32 144V384C32 410 54 432 80 432H128C128 450 142 464 160 464H192C210 464 224 450 224 432V400C224 382 210 368 192 368H160C142 368 128 382 128 400H80C71 400 64 393 64 384V272H128C128 290 142 304 160 304H192C210 304 224 290 224 272V240C224 222 210 208 192 208ZM160 400H192V432H160V400ZM32 112V80H64V112H32ZM192 272H160V240H192V272ZM496 400H304C295 400 288 407 288 416S295 432 304 432H496C505 432 512 425 512 416S505 400 496 400Z"/></svg>