<svg xmlns="http://www.w3.org/2000/svg" viewBox="0 0 384 512"><!-- Font Awesome Pro 6.0.0-alpha1 by @fontawesome - https://fontawesome.com License - https://fontawesome.com/license (Commercial License) --><path d="M260 140C254 134 243 134 237 140L192 185L147 140C140 134 130 134 124 140C118 146 118 157 124 163L169 208L124 253C118 259 118 270 124 276C130 282 140 282 147 276L192 231L237 276C243 282 254 282 260 276C266 270 266 259 260 253L215 208L260 163C266 156 266 146 260 140ZM192 0C86 0 0 86 0 192C0 269 27 291 172 502C177 509 185 512 192 512S207 509 212 502C357 291 384 269 384 192C384 86 298 0 192 0ZM192 474C52 271 32 256 32 192C32 104 104 32 192 32S352 104 352 192C352 256 333 271 192 474Z"/></svg>