<svg xmlns="http://www.w3.org/2000/svg" viewBox="0 0 640 512"><!-- Font Awesome Pro 6.0.0-alpha1 by @fontawesome - https://fontawesome.com License - https://fontawesome.com/license (Commercial License) --><path d="M320 32C408 32 480 104 480 192C480 224 475 243 453 280L479 300C505 257 512 232 512 192C512 86 426 0 320 0C264 0 213 24 178 63L204 83C233 52 274 32 320 32ZM634 483L26 3C19 -2 9 -1 3 6C-2 13 -1 23 6 29L614 509C617 511 621 512 624 512C629 512 633 510 637 506C642 499 641 489 634 483ZM320 474C196 294 166 262 161 212L128 186C128 188 128 190 128 192C128 269 155 291 300 502C305 509 313 512 320 512S335 509 340 502C366 464 388 433 407 406L381 386C364 411 344 439 320 474Z"/></svg>