<svg xmlns="http://www.w3.org/2000/svg" viewBox="0 0 640 512"><!-- Font Awesome Pro 6.0.0-alpha1 by @fontawesome - https://fontawesome.com License - https://fontawesome.com/license (Commercial License) --><path d="M304 162L415 250C412 200 371 160 320 160C314 160 309 161 304 162ZM320 96C408 96 480 168 480 256C480 270 478 283 474 296L501 317C506 303 510 288 511 272H560C569 272 576 265 576 256C576 247 569 240 560 240H511C504 147 429 73 336 65V16C336 7 329 0 320 0C311 0 304 7 304 16V65C272 67 243 78 218 94L245 115C268 103 293 96 320 96ZM320 416C232 416 160 344 160 256C160 242 162 229 166 216L139 195C134 209 130 224 129 240H80C71 240 64 247 64 256C64 265 71 272 80 272H129C136 365 211 439 304 447V496C304 505 311 512 320 512C329 512 336 505 336 496V447C368 445 397 434 422 418L395 397C372 409 347 416 320 416ZM336 350L225 262C228 312 269 352 320 352C326 352 331 351 336 350ZM634 483L26 3C19 -2 9 -1 3 6C-2 13 -1 23 6 29L614 509C617 511 621 512 624 512C629 512 633 510 637 506C642 499 641 489 634 483Z"/></svg>