<svg xmlns="http://www.w3.org/2000/svg" viewBox="0 0 384 512"><!-- Font Awesome Pro 6.0.0-alpha1 by @fontawesome - https://fontawesome.com License - https://fontawesome.com/license (Commercial License) --><path d="M192 0C86 0 0 86 0 192C0 269 27 291 172 502C177 509 185 512 192 512S207 509 212 502C357 291 384 269 384 192C384 86 298 0 192 0ZM192 474C52 271 32 256 32 192C32 104 104 32 192 32S352 104 352 192C352 256 333 271 192 474ZM192 304C179 304 168 315 168 328C168 341 179 352 192 352S216 341 216 328C216 315 205 304 192 304ZM192 88C148 88 112 120 112 159C112 168 119 175 128 175S144 168 144 159C144 138 166 120 192 120S240 138 240 159C240 173 232 185 217 193C192 206 176 232 176 261C176 270 183 277 192 277S208 270 208 261C208 244 217 229 232 221C257 208 272 185 272 159C272 120 236 88 192 88Z"/></svg>