<svg xmlns="http://www.w3.org/2000/svg" viewBox="0 0 640 512"><!-- Font Awesome Pro 6.0.0-alpha1 by @fontawesome - https://fontawesome.com License - https://fontawesome.com/license (Commercial License) --><path d="M640 419C640 470 597 511 546 512C524 512 522 510 455 492C413 481 384 445 384 404V344C384 331 398 323 409 330C413 333 416 338 416 344V404C416 430 435 454 463 461C528 479 530 480 542 480C578 480 608 453 608 420C608 412 607 405 605 398C584 320 551 246 507 176C479 133 475 128 454 128S416 143 416 162L416 266L505 322C512 327 514 337 510 345C506 349 501 352 496 352C493 352 490 351 487 350L320 243L153 350C145 354 135 352 130 345C126 337 128 327 135 323L224 266L224 162C224 143 207 128 186 128S161 133 133 176C89 246 56 320 35 398C33 405 32 413 32 420C32 453 62 480 98 480C110 480 112 479 177 462C205 454 224 430 224 404V344C224 338 227 333 231 330C242 323 256 331 256 344V404C256 445 227 481 185 493C118 510 116 512 94 512C43 511 0 470 0 419C0 409 1 400 4 390C26 309 60 231 106 159C128 125 142 96 186 96C224 96 255 125 256 161V246L304 215V16C304 7 311 0 320 0S336 7 336 16V215L384 246V161C385 125 416 96 454 96C498 96 512 125 534 159C580 231 614 309 636 390C639 400 640 409 640 419Z"/></svg>