<svg xmlns="http://www.w3.org/2000/svg" viewBox="0 0 512 512"><!-- Font Awesome Pro 6.0.0-alpha1 by @fontawesome - https://fontawesome.com License - https://fontawesome.com/license (Commercial License) --><path d="M288 192H128C119 192 112 199 112 208S119 224 128 224H288C297 224 304 217 304 208S297 192 288 192ZM507 485L366 343C397 307 416 260 416 208C416 93 323 0 208 0S0 93 0 208S93 416 208 416C260 416 307 397 343 366L485 507C488 510 492 512 496 512S504 510 507 507C514 501 514 491 507 485ZM208 384C111 384 32 305 32 208S111 32 208 32S384 111 384 208S305 384 208 384Z"/></svg>