<svg xmlns="http://www.w3.org/2000/svg" viewBox="0 0 576 512"><!-- Font Awesome Pro 6.0.0-alpha1 by @fontawesome - https://fontawesome.com License - https://fontawesome.com/license (Commercial License) --><path d="M176 192H112C103 192 96 199 96 208C96 217 103 224 112 224H176C185 224 192 217 192 208C192 199 185 192 176 192ZM496 192H336C327 192 320 199 320 208C320 217 327 224 336 224H416V304C416 313 423 320 432 320H496C505 320 512 313 512 304V208C512 199 505 192 496 192ZM480 288H448V224H480V288ZM432 64H144C64 64 0 128 0 208V384C0 419 29 448 64 448H512C547 448 576 419 576 384V208C576 128 512 64 432 64ZM256 416H64C46 416 32 402 32 384V214C32 154 77 99 138 96C203 93 256 144 256 208V416ZM544 384C544 402 530 416 512 416H288V208C288 162 266 122 234 96H432C494 96 544 146 544 208V384Z"/></svg>