<svg xmlns="http://www.w3.org/2000/svg" viewBox="0 0 320 512"><!-- Font Awesome Pro 6.0.0-alpha1 by @fontawesome - https://fontawesome.com License - https://fontawesome.com/license (Commercial License) --><path d="M160 0C80 0 16 64 16 144C16 218 72 278 144 286V496C144 505 151 512 160 512S176 505 176 496V286C248 278 304 218 304 144C304 64 240 0 160 0ZM160 256C98 256 48 206 48 144S98 32 160 32S272 82 272 144S222 256 160 256ZM160 64C116 64 80 100 80 144C80 153 87 160 96 160S112 153 112 144C112 118 134 96 160 96C169 96 176 89 176 80S169 64 160 64Z"/></svg>