<svg xmlns="http://www.w3.org/2000/svg" viewBox="0 0 576 512"><!-- Font Awesome Pro 6.0.0-alpha1 by @fontawesome - https://fontawesome.com License - https://fontawesome.com/license (Commercial License) --><path d="M569 131C565 128 559 127 554 129L437 176C430 191 416 218 417 218L544 168V425L416 473V304C416 295 409 288 400 288S384 295 384 304V474L192 420V304C192 295 185 288 176 288S160 295 160 304V419L32 472V215L139 175C135 164 132 154 130 144L10 188C4 191 0 197 0 203V496C0 501 3 506 7 509S17 513 22 511L174 448L396 511C398 512 399 512 401 512C403 512 405 512 406 511L566 452C572 449 576 443 576 437V144C576 139 573 134 569 131ZM288 320C298 320 307 316 313 308C344 271 416 178 416 126C416 57 359 0 288 0S160 57 160 126C160 178 232 271 263 308C269 316 278 320 288 320ZM288 32C341 32 384 74 384 126C384 154 346 218 288 288C230 218 192 154 192 126C192 74 235 32 288 32ZM312 128C312 115 301 104 288 104S264 115 264 128C264 141 275 152 288 152S312 141 312 128Z"/></svg>