<svg xmlns="http://www.w3.org/2000/svg" viewBox="0 0 576 512"><!-- Font Awesome Pro 6.0.0-alpha1 by @fontawesome - https://fontawesome.com License - https://fontawesome.com/license (Commercial License) --><path d="M569 35C565 32 559 31 554 33L410 91L179 33C176 32 173 32 170 33L10 92C4 95 0 101 0 107V464C0 469 3 474 7 477S17 481 22 479L174 416L396 479C398 480 399 480 401 480C403 480 405 480 406 479L566 420C572 417 576 411 576 405V48C576 43 573 38 569 35ZM192 69L384 117V443L192 388V69ZM32 119L160 71V387L32 440V119ZM544 393L416 441V122C416 122 416 122 417 122L544 72V393Z"/></svg>