<svg xmlns="http://www.w3.org/2000/svg" viewBox="0 0 448 512"><!-- Font Awesome Pro 6.0.0-alpha1 by @fontawesome - https://fontawesome.com License - https://fontawesome.com/license (Commercial License) --><path d="M447 42C445 38 442 35 438 33C436 32 434 32 432 32H304C295 32 288 39 288 48S295 64 304 64H393L289 169C258 143 219 128 176 128C79 128 0 207 0 304S79 480 176 480S352 401 352 304C352 261 337 222 311 191L416 87V176C416 185 423 192 432 192S448 185 448 176V48C448 46 448 44 447 42ZM320 304C320 383 255 448 176 448S32 383 32 304S97 160 176 160S320 225 320 304Z"/></svg>