<svg xmlns="http://www.w3.org/2000/svg" viewBox="0 0 640 512"><!-- Font Awesome Pro 6.0.0-alpha1 by @fontawesome - https://fontawesome.com License - https://fontawesome.com/license (Commercial License) --><path d="M607 250C606 248 605 246 603 245L513 154C507 148 496 148 490 154S484 171 490 177L553 240H464V192C464 183 457 176 448 176S432 183 432 192V240H383C380 200 363 162 332 132C264 63 152 63 84 132C15 200 15 312 84 380C152 449 264 449 332 380C363 350 380 312 383 272H432V320C432 329 439 336 448 336S464 329 464 320V272H553L490 335C484 341 484 352 490 358C496 364 507 364 513 358L603 267C605 266 606 264 607 262C608 258 608 254 607 250ZM310 358C254 414 162 414 106 358C50 302 50 210 106 154C162 98 254 98 310 154C366 210 366 302 310 358Z"/></svg>