<svg xmlns="http://www.w3.org/2000/svg" viewBox="0 0 640 512"><!-- Font Awesome Pro 6.0.0-alpha1 by @fontawesome - https://fontawesome.com License - https://fontawesome.com/license (Commercial License) --><path d="M311 192L416 88V161C416 170 423 177 432 177S448 170 448 161V49C448 47 448 45 447 43C445 39 442 36 438 34C436 34 434 33 432 33H320C311 33 304 40 304 49S311 65 320 65H393L289 170C258 144 219 129 176 129C79 129 0 207 0 304S79 480 176 480S352 401 352 304C352 262 337 223 311 192ZM176 448C97 448 32 384 32 304S97 161 176 161S320 225 320 304S255 448 176 448ZM635 37C634 37 634 37 634 37C630 32 623 31 617 33H512C503 33 496 40 496 49S503 65 512 65H583L469 179C466 182 464 186 464 191C464 195 466 199 469 202C497 229 512 266 512 304C512 384 447 448 368 448C358 448 349 447 339 445C330 443 322 449 320 458C319 466 324 475 333 476C344 479 356 480 368 480C465 480 544 401 544 304C544 262 529 223 502 191L608 85V161C608 170 615 177 624 177S640 170 640 161V49C640 44 638 40 635 37Z"/></svg>