<svg xmlns="http://www.w3.org/2000/svg" viewBox="0 0 384 512"><!-- Font Awesome Pro 6.0.0-alpha1 by @fontawesome - https://fontawesome.com License - https://fontawesome.com/license (Commercial License) --><path d="M316 208C286 178 248 161 208 157V140H256C265 140 272 133 272 124S265 108 256 108H208V46L262 89C265 91 268 92 272 92C277 92 281 90 285 87C290 80 289 70 282 64L202 0C196 -5 188 -5 182 0L102 64C95 70 94 80 100 87C105 93 115 95 122 89L176 46V108H128C119 108 112 116 112 124S119 140 128 140H176V157C136 161 98 178 68 208C-1 277 -1 388 68 457C136 526 248 526 316 457C385 388 385 277 316 208ZM294 434C238 490 146 490 90 434C34 378 34 287 90 231C146 175 238 175 294 231C350 287 350 378 294 434Z"/></svg>