<svg xmlns="http://www.w3.org/2000/svg" viewBox="0 0 448 512"><!-- Font Awesome Pro 6.0.0-alpha1 by @fontawesome - https://fontawesome.com License - https://fontawesome.com/license (Commercial License) --><path d="M349 154L393 199C400 205 408 208 416 208C420 208 424 207 428 206C440 201 448 189 448 176V64C448 46 434 32 416 32H304C291 32 279 40 274 52S272 77 281 87L326 131L224 233L122 131L167 87C173 80 176 72 176 64C176 60 175 56 174 52C169 40 157 32 144 32H32C14 32 0 46 0 64V176C0 189 8 201 20 206S45 208 55 199L99 154L201 256L99 358L55 313C48 307 40 304 32 304C28 304 24 305 20 306C8 311 0 323 0 336V448C0 466 14 480 32 480H144C157 480 169 472 174 460S176 435 167 425L122 381L224 279L326 381L281 425C275 432 272 440 272 448C272 452 273 456 274 460C279 472 291 480 304 480H416C434 480 448 466 448 448V336C448 323 440 311 428 306S403 304 393 313L349 358L247 256L349 154ZM32 176C32 176 32 176 32 176V64H144L32 176ZM144 448C144 448 144 448 144 448H32V336L144 448ZM416 336C416 336 416 336 416 336V448H304L416 336ZM304 64C304 64 304 64 304 64H416V176L304 64Z"/></svg>