<svg xmlns="http://www.w3.org/2000/svg" viewBox="0 0 576 512"><!-- Font Awesome Pro 6.0.0-alpha1 by @fontawesome - https://fontawesome.com License - https://fontawesome.com/license (Commercial License) --><path d="M16 160C7 160 0 167 0 176V336C0 345 7 352 16 352S32 345 32 336V176C32 167 25 160 16 160ZM560 32C551 32 544 39 544 48V59L64 172V205L544 92V420L64 307V340L163 363C161 370 160 377 160 384C160 437 203 480 256 480C301 480 338 449 349 407L544 453V464C544 473 551 480 560 480S576 473 576 464V48C576 39 569 32 560 32ZM256 448C221 448 192 419 192 384C192 379 193 375 194 370L318 399C311 427 286 448 256 448Z"/></svg>