<svg xmlns="http://www.w3.org/2000/svg" viewBox="0 0 640 512"><!-- Font Awesome Pro 6.0.0-alpha1 by @fontawesome - https://fontawesome.com License - https://fontawesome.com/license (Commercial License) --><path d="M608 128C599 128 592 135 592 144V304C592 330 570 352 544 352H528V144C528 135 521 128 512 128S496 135 496 144V352H432V144C432 135 425 128 416 128S400 135 400 144V352H336V144C336 135 329 128 320 128S304 135 304 144V352H240V144C240 135 233 128 224 128S208 135 208 144V352H144V144C144 135 137 128 128 128S112 135 112 144V352H96C70 352 48 330 48 304V144C48 135 41 128 32 128S16 135 16 144V304C16 348 52 384 96 384H304V480H144C135 480 128 487 128 496C128 505 135 512 144 512H496C505 512 512 505 512 496C512 487 505 480 496 480H336V384H544C588 384 624 348 624 304V144C624 135 617 128 608 128ZM32 96C41 96 48 89 48 80V16C48 7 41 0 32 0S16 7 16 16V80C16 89 23 96 32 96ZM128 96C137 96 144 89 144 80V16C144 7 137 0 128 0S112 7 112 16V80C112 89 119 96 128 96ZM224 96C233 96 240 89 240 80V16C240 7 233 0 224 0S208 7 208 16V80C208 89 215 96 224 96ZM320 96C329 96 336 89 336 80V16C336 7 329 0 320 0S304 7 304 16V80C304 89 311 96 320 96ZM416 96C425 96 432 89 432 80V16C432 7 425 0 416 0S400 7 400 16V80C400 89 407 96 416 96ZM512 96C521 96 528 89 528 80V16C528 7 521 0 512 0S496 7 496 16V80C496 89 503 96 512 96ZM608 0C599 0 592 7 592 16V80C592 89 599 96 608 96S624 89 624 80V16C624 7 617 0 608 0Z"/></svg>