<svg xmlns="http://www.w3.org/2000/svg" viewBox="0 0 384 512"><!-- Font Awesome Pro 6.0.0-alpha1 by @fontawesome - https://fontawesome.com License - https://fontawesome.com/license (Commercial License) --><path d="M368 224C368 153 325 91 264 64C283 55 301 43 316 27C322 21 322 11 315 4S299 -1 292 5C266 33 230 48 192 48S118 33 92 5C85 -1 75 -2 69 4C63 11 62 21 68 27C84 43 101 55 120 64C59 91 16 153 16 224C16 316 86 391 176 399V432H128C119 432 112 439 112 448S119 464 128 464H176V496C176 505 183 512 192 512S208 505 208 496V464H256C265 464 272 457 272 448S265 432 256 432H208V399C298 391 368 316 368 224ZM48 224C48 145 113 80 192 80S336 145 336 224S271 368 192 368S48 303 48 224Z"/></svg>