<svg xmlns="http://www.w3.org/2000/svg" viewBox="0 0 512 512"><!-- Font Awesome Pro 6.0.0-alpha1 by @fontawesome - https://fontawesome.com License - https://fontawesome.com/license (Commercial License) --><path d="M448 0H64C29 0 0 29 0 64V352C0 387 29 416 64 416H160V500C160 510 171 515 179 510L304 416H448C483 416 512 387 512 352V64C512 29 483 0 448 0ZM480 352C480 370 466 384 448 384H304C297 384 290 386 285 390L192 460V400C192 391 185 384 176 384H64C46 384 32 370 32 352V64C32 46 46 32 64 32H448C466 32 480 46 480 64V352ZM328 112C297 112 272 137 272 168S297 224 328 224C337 224 345 222 352 218V224C352 250 330 272 304 272C295 272 288 279 288 288S295 304 304 304C348 304 384 268 384 224V168C384 137 359 112 328 112ZM328 192C315 192 304 181 304 168C304 155 315 144 328 144C341 144 352 155 352 168C352 181 341 192 328 192ZM184 112C153 112 128 137 128 168S153 224 184 224C193 224 201 222 208 218V224C208 250 186 272 160 272C151 272 144 279 144 288S151 304 160 304C204 304 240 268 240 224V168C240 137 215 112 184 112ZM184 192C171 192 160 181 160 168C160 155 171 144 184 144C197 144 208 155 208 168C208 181 197 192 184 192Z"/></svg>