<svg xmlns="http://www.w3.org/2000/svg" viewBox="0 0 512 512"><!-- Font Awesome Pro 6.0.0-alpha1 by @fontawesome - https://fontawesome.com License - https://fontawesome.com/license (Commercial License) --><path d="M448 0H64C29 0 0 29 0 64V352C0 387 29 416 64 416H160V500C160 510 171 515 179 510L304 416H448C483 416 512 387 512 352V64C512 29 483 0 448 0ZM480 352C480 370 466 384 448 384H304C297 384 290 386 285 390L192 460V400C192 391 185 384 176 384H64C46 384 32 370 32 352V64C32 46 46 32 64 32H448C466 32 480 46 480 64V352ZM432 224H272C263 224 256 231 256 240S263 256 272 256H432C441 256 448 249 448 240S441 224 432 224ZM224 240C224 231 217 224 208 224H80C71 224 64 231 64 240S71 256 80 256H208C217 256 224 249 224 240ZM144 288H112C103 288 96 295 96 304S103 320 112 320H144C153 320 160 313 160 304S153 288 144 288ZM400 288H368C359 288 352 295 352 304S359 320 368 320H400C409 320 416 313 416 304S409 288 400 288ZM304 288H208C199 288 192 295 192 304S199 320 208 320H304C313 320 320 313 320 304S313 288 304 288Z"/></svg>