<svg xmlns="http://www.w3.org/2000/svg" viewBox="0 0 576 512"><!-- Font Awesome Pro 6.0.0-alpha1 by @fontawesome - https://fontawesome.com License - https://fontawesome.com/license (Commercial License) --><path d="M352 320C387 320 416 291 416 256V64C416 29 387 0 352 0H64C29 0 0 29 0 64V256C0 291 29 320 64 320H96V372C96 379 102 384 108 384C110 384 113 383 115 382L224 320H352ZM128 338V288H64C46 288 32 274 32 256V64C32 46 46 32 64 32H352C370 32 384 46 384 64V256C384 274 370 288 352 288H216L128 338ZM512 160H448V192H512C530 192 544 206 544 224V384C544 402 530 416 512 416H448V466L360 416H256C238 416 224 402 224 384V357L192 375V384C192 419 221 448 256 448H352L461 510C463 511 466 512 468 512C474 512 480 507 480 500V448H512C547 448 576 419 576 384V224C576 189 547 160 512 160ZM212 145L207 143C180 135 181 130 182 124C184 113 201 110 216 113C222 114 229 116 235 118C243 121 252 116 255 108C258 100 254 91 245 88C237 85 230 83 224 82V72C224 63 217 56 208 56C199 56 192 63 192 72V81C169 85 154 98 150 118C143 158 182 169 198 174L204 175C232 184 236 187 234 196C232 207 215 210 200 207C192 206 183 203 175 200L171 198C162 195 153 200 150 208C147 216 152 226 160 228L164 230C173 233 182 236 192 238V248C192 257 199 264 208 264C217 264 224 257 224 248V238C246 234 262 222 266 202C273 162 235 151 212 145Z"/></svg>