<svg xmlns="http://www.w3.org/2000/svg" viewBox="0 0 512 512"><!-- Font Awesome Pro 6.0.0-alpha1 by @fontawesome - https://fontawesome.com License - https://fontawesome.com/license (Commercial License) --><path d="M448 0H64C29 0 0 29 0 64V352C0 387 29 416 64 416H160V500C160 510 171 515 179 510L304 416H448C483 416 512 387 512 352V64C512 29 483 0 448 0ZM480 352C480 370 466 384 448 384H304C297 384 290 386 285 390L192 460V400C192 391 185 384 176 384H64C46 384 32 370 32 352V64C32 46 46 32 64 32H448C466 32 480 46 480 64V352ZM336 192H272V128C272 119 265 112 256 112S240 119 240 128V192H176C167 192 160 199 160 208S167 224 176 224H240V288C240 297 247 304 256 304S272 297 272 288V224H336C345 224 352 217 352 208S345 192 336 192Z"/></svg>