<svg xmlns="http://www.w3.org/2000/svg" viewBox="0 0 512 512"><!-- Font Awesome Pro 6.0.0-alpha1 by @fontawesome - https://fontawesome.com License - https://fontawesome.com/license (Commercial License) --><path d="M448 0H64C29 0 0 29 0 64V352C0 387 29 416 64 416H160V500C160 510 171 515 179 510L304 416H448C483 416 512 387 512 352V64C512 29 483 0 448 0ZM480 352C480 370 466 384 448 384H304C297 384 290 386 285 390L192 460V400C192 391 185 384 176 384H64C46 384 32 370 32 352V64C32 46 46 32 64 32H448C466 32 480 46 480 64V352ZM346 110C338 102 328 97 317 96C304 95 291 100 282 109L158 232C156 234 154 237 154 240L141 301C139 312 149 322 160 320L221 308C224 307 227 305 230 303L353 181C360 173 366 164 366 153C368 140 363 127 354 118L346 110ZM210 277L177 284L184 251L271 165L297 191L210 277ZM331 157L320 169L293 142L305 131C309 127 317 127 322 131L331 141C336 145 336 153 331 157Z"/></svg>