<svg xmlns="http://www.w3.org/2000/svg" viewBox="0 0 512 512"><!-- Font Awesome Pro 6.0.0-alpha1 by @fontawesome - https://fontawesome.com License - https://fontawesome.com/license (Commercial License) --><path d="M448 0H64C29 0 0 29 0 64V352C0 387 29 416 64 416H160V500C160 510 171 515 179 510L304 416H448C483 416 512 387 512 352V64C512 29 483 0 448 0ZM480 352C480 370 466 384 448 384H304C297 384 290 386 285 390L192 460V400C192 391 185 384 176 384H64C46 384 32 370 32 352V64C32 46 46 32 64 32H448C466 32 480 46 480 64V352ZM256 256C265 256 272 249 272 240V96C272 87 265 80 256 80S240 87 240 96V240C240 249 247 256 256 256ZM256 280C243 280 232 291 232 304C232 317 243 328 256 328S280 317 280 304C280 291 269 280 256 280Z"/></svg>