<svg xmlns="http://www.w3.org/2000/svg" viewBox="0 0 512 512"><!-- Font Awesome Pro 6.0.0-alpha1 by @fontawesome - https://fontawesome.com License - https://fontawesome.com/license (Commercial License) --><path d="M448 0H64C29 0 0 29 0 64V352C0 387 29 416 64 416H176L243 506C246 510 251 512 256 512S266 510 269 506L336 416H448C483 416 512 387 512 352V64C512 29 483 0 448 0ZM480 352C480 370 466 384 448 384H320L256 469L192 384H64C46 384 32 370 32 352V64C32 46 46 32 64 32H448C466 32 480 46 480 64V352Z"/></svg>