<svg xmlns="http://www.w3.org/2000/svg" viewBox="0 0 512 512"><!-- Font Awesome Pro 6.0.0-alpha1 by @fontawesome - https://fontawesome.com License - https://fontawesome.com/license (Commercial License) --><path d="M128 152C141 152 152 141 152 128C152 115 141 104 128 104S104 115 104 128C104 141 115 152 128 152ZM315 141C303 125 276 125 265 141L221 202L214 193C202 178 177 178 165 193L102 273C95 282 94 294 100 304C105 314 115 320 126 320H386C397 320 407 314 412 305C412 305 412 305 412 305C418 295 417 283 411 274L315 141ZM130 288L188 213L209 238C213 244 226 249 234 238L289 159L381 288H130ZM448 0H64C29 0 0 29 0 64V352C0 387 29 416 64 416H160V500C160 510 171 515 179 510L304 416H448C483 416 512 387 512 352V64C512 29 483 0 448 0ZM480 352C480 370 466 384 448 384H304C297 384 290 386 285 390L192 460V400C192 391 185 384 176 384H64C46 384 32 370 32 352V64C32 46 46 32 64 32H448C466 32 480 46 480 64V352Z"/></svg>