<svg xmlns="http://www.w3.org/2000/svg" viewBox="0 0 512 512"><!-- Font Awesome Pro 6.0.0-alpha1 by @fontawesome - https://fontawesome.com License - https://fontawesome.com/license (Commercial License) --><path d="M448 0H64C29 0 0 29 0 64V352C0 387 29 416 64 416H160V500C160 510 171 515 179 510L304 416H448C483 416 512 387 512 352V64C512 29 483 0 448 0ZM480 352C480 370 466 384 448 384H304C297 384 290 386 285 390L192 460V400C192 391 185 384 176 384H64C46 384 32 370 32 352V64C32 46 46 32 64 32H448C466 32 480 46 480 64V352ZM336 176H288V128C288 119 281 112 272 112H240C231 112 224 119 224 128V176H176C167 176 160 183 160 192V224C160 233 167 240 176 240H224V288C224 297 231 304 240 304H272C281 304 288 297 288 288V240H336C345 240 352 233 352 224V192C352 183 345 176 336 176Z"/></svg>