<svg xmlns="http://www.w3.org/2000/svg" viewBox="0 0 640 512"><!-- Font Awesome Pro 6.0.0-alpha1 by @fontawesome - https://fontawesome.com License - https://fontawesome.com/license (Commercial License) --><path d="M512 32C530 32 544 46 544 64V351L572 373C574 367 576 360 576 352V64C576 29 547 0 512 0H128C120 0 112 2 105 5L140 32H512ZM368 384C361 384 354 386 349 390L256 460V400C256 391 249 384 240 384H128C110 384 96 370 96 352V161L64 135V352C64 387 93 416 128 416H224V500C224 510 235 515 243 510L368 416H419L379 384H368ZM634 483L26 3C19 -2 9 -1 3 6C-2 13 -1 23 6 29L614 509C617 511 621 512 624 512C629 512 633 510 637 506C642 499 641 489 634 483Z"/></svg>