<svg xmlns="http://www.w3.org/2000/svg" viewBox="0 0 512 512"><!-- Font Awesome Pro 6.0.0-alpha1 by @fontawesome - https://fontawesome.com License - https://fontawesome.com/license (Commercial License) --><path d="M325 213L272 265V112C272 103 265 96 256 96S240 103 240 112V265L187 213C181 206 171 206 165 213S158 229 165 235L245 315C248 318 252 320 256 320S264 318 267 315L347 235C354 229 354 219 347 213S331 206 325 213ZM448 0H64C29 0 0 29 0 64V352C0 387 29 416 64 416H160V500C160 510 171 515 179 510L304 416H448C483 416 512 387 512 352V64C512 29 483 0 448 0ZM480 352C480 370 466 384 448 384H304C297 384 290 386 285 390L192 460V400C192 391 185 384 176 384H64C46 384 32 370 32 352V64C32 46 46 32 64 32H448C466 32 480 46 480 64V352Z"/></svg>