<svg xmlns="http://www.w3.org/2000/svg" viewBox="0 0 512 512"><!-- Font Awesome Pro 6.0.0-alpha1 by @fontawesome - https://fontawesome.com License - https://fontawesome.com/license (Commercial License) --><path d="M496 480H394C446 446 480 387 480 320C480 214 394 128 288 128V64C288 46 274 32 256 32V16C256 7 249 0 240 0H176C167 0 160 7 160 16V32C142 32 128 46 128 64V288C128 306 142 320 160 320H256C274 320 288 306 288 288V160C376 160 448 232 448 320S376 480 288 480H16C7 480 0 487 0 496S7 512 16 512H496C505 512 512 505 512 496S505 480 496 480ZM256 288H160V64C178 64 192 50 192 32H224C224 50 238 64 256 64V288ZM240 384C249 384 256 377 256 368S249 352 240 352H176C167 352 160 359 160 368S167 384 176 384H240ZM112 448H304C313 448 320 441 320 432S313 416 304 416H112C103 416 96 423 96 432S103 448 112 448Z"/></svg>