<svg xmlns="http://www.w3.org/2000/svg" viewBox="0 0 640 512"><!-- Font Awesome Pro 6.0.0-alpha1 by @fontawesome - https://fontawesome.com License - https://fontawesome.com/license (Commercial License) --><path d="M480 256V208C480 199 473 192 464 192C455 192 448 199 448 208V256C448 262 447 268 446 274L474 296C478 283 480 270 480 256ZM256 96C256 61 285 32 320 32S384 61 384 96V225L416 250V96C416 43 373 0 320 0S224 43 224 96V99L256 124V96ZM634 483L26 3C19 -2 9 -1 3 6C-2 13 -1 23 6 29L614 509C617 511 621 512 624 512C629 512 633 510 637 506C642 499 641 489 634 483ZM400 480H336V415C357 413 377 406 395 397L367 375C350 382 331 385 311 384C243 379 192 320 192 251V236L160 211V250C160 334 222 407 304 415V480H240C231 480 224 487 224 496C224 505 231 512 240 512H400C409 512 416 505 416 496C416 487 409 480 400 480Z"/></svg>