<svg xmlns="http://www.w3.org/2000/svg" viewBox="0 0 384 512"><!-- Font Awesome Pro 6.0.0-alpha1 by @fontawesome - https://fontawesome.com License - https://fontawesome.com/license (Commercial License) --><path d="M336 192C327 192 320 199 320 208V256C320 330 258 389 183 384C115 379 64 320 64 251V208C64 199 57 192 48 192S32 199 32 208V250C32 334 94 406 176 415V480H112C103 480 96 487 96 496C96 505 103 512 112 512H272C281 512 288 505 288 496C288 487 281 480 272 480H208V415C289 407 352 339 352 256V208C352 199 345 192 336 192ZM192 352C245 352 288 309 288 256V96C288 43 245 0 192 0S96 43 96 96V256C96 309 139 352 192 352ZM128 96C128 61 157 32 192 32S256 61 256 96V256C256 291 227 320 192 320S128 291 128 256V96Z"/></svg>