<svg xmlns="http://www.w3.org/2000/svg" viewBox="0 0 576 512"><!-- Font Awesome Pro 6.0.0-alpha1 by @fontawesome - https://fontawesome.com License - https://fontawesome.com/license (Commercial License) --><path d="M548 269C519 239 432 228 407 225L307 125C306 124 305 123 304 122V16C304 7 297 0 288 0S272 7 272 16V121L169 225C144 228 57 239 28 269C-7 304 -10 360 23 393C39 408 60 416 81 416C104 416 129 407 147 388C154 382 154 372 147 365S131 359 125 365C102 388 66 390 46 370C26 350 28 314 51 291C63 279 101 268 136 262C131 270 128 278 128 288C128 314 149 336 176 336S224 314 224 288C224 268 212 251 195 244L272 167V275C245 308 192 377 192 416C192 469 235 512 288 512S384 469 384 416C384 377 331 308 304 275V167L385 247C388 272 399 359 429 388C447 407 472 416 495 416C516 416 537 408 553 393C586 360 583 304 548 269ZM176 304C167 304 160 297 160 288S167 272 176 272S192 279 192 288S185 304 176 304ZM288 480C253 480 224 451 224 416C224 396 254 348 288 306C322 348 352 396 352 416C352 451 323 480 288 480ZM530 370C510 390 474 388 451 365C436 350 424 299 419 260C419 260 419 260 419 259S420 259 420 259C459 264 510 276 525 291C548 314 550 350 530 370ZM383 124C409 124 431 102 431 76S409 28 383 28S335 50 335 76S356 124 383 124ZM383 60C392 60 399 67 399 76S392 92 383 92S367 85 367 76S374 60 383 60Z"/></svg>