<svg xmlns="http://www.w3.org/2000/svg" viewBox="0 0 448 512"><!-- Font Awesome Pro 6.0.0-alpha1 by @fontawesome - https://fontawesome.com License - https://fontawesome.com/license (Commercial License) --><path d="M336 384H80C53 384 32 406 32 432V464C32 490 53 512 80 512H336C363 512 384 490 384 464V432C384 406 362 384 336 384ZM352 464C352 473 345 480 336 480H80C71 480 64 473 64 464V432C64 423 71 416 80 416H336C345 416 352 423 352 432V464ZM446 237C436 201 405 180 373 180C351 180 330 190 316 206L296 117C280 48 220 0 150 0C139 0 127 1 116 4C36 23 -15 104 4 185L39 340C41 347 47 352 55 352C65 352 72 343 70 333L35 178C20 114 60 50 123 35C132 33 141 32 150 32C205 32 252 70 265 124L292 245L299 276L320 251L339 228C348 218 360 212 373 212C383 212 393 216 401 222C419 238 422 266 406 284L372 326C363 336 371 352 384 352H384C389 352 394 350 397 346L429 307C445 288 452 262 446 237Z"/></svg>