<svg xmlns="http://www.w3.org/2000/svg" viewBox="0 0 384 512"><!-- Font Awesome Pro 6.0.0-alpha1 by @fontawesome - https://fontawesome.com License - https://fontawesome.com/license (Commercial License) --><path d="M288 0H96C61 0 32 29 32 64V448C32 483 61 512 96 512H288C323 512 352 483 352 448V64C352 29 323 0 288 0ZM320 448C320 466 306 480 288 480H96C78 480 64 466 64 448V64C64 46 78 32 96 32H288C306 32 320 46 320 64V448ZM224 400H160C151 400 144 407 144 416C144 425 151 432 160 432H224C233 432 240 425 240 416C240 407 233 400 224 400Z"/></svg>