<svg xmlns="http://www.w3.org/2000/svg" viewBox="0 0 576 512"><!-- Font Awesome Pro 6.0.0-alpha1 by @fontawesome - https://fontawesome.com License - https://fontawesome.com/license (Commercial License) --><path d="M272 224H80C71 224 64 231 64 240C64 249 71 256 80 256H272C281 256 288 249 288 240C288 231 281 224 272 224ZM240 320H80C71 320 64 327 64 336C64 345 71 352 80 352H240C249 352 256 345 256 336C256 327 249 320 240 320ZM480 160H384C366 160 352 174 352 192V256C352 274 366 288 384 288H480C498 288 512 274 512 256V192C512 174 498 160 480 160ZM480 256H384V192H480V256ZM496 320H400C391 320 384 327 384 336C384 345 391 352 400 352H496C505 352 512 345 512 336C512 327 505 320 496 320ZM512 64H64C29 64 0 93 0 128V384C0 419 29 448 64 448H512C547 448 576 419 576 384V128C576 93 547 64 512 64ZM544 384C544 402 530 416 512 416H64C46 416 32 402 32 384V128C32 110 46 96 64 96H512C530 96 544 110 544 128V384Z"/></svg>