<svg xmlns="http://www.w3.org/2000/svg" viewBox="0 0 640 512"><!-- Font Awesome Pro 6.0.0-alpha1 by @fontawesome - https://fontawesome.com License - https://fontawesome.com/license (Commercial License) --><path d="M368 112C324 112 288 155 288 208S324 304 368 304C412 304 448 261 448 208S412 112 368 112ZM368 272C342 272 320 243 320 208S342 144 368 144C394 144 416 173 416 208S394 272 368 272ZM528 448H96C61 448 32 419 32 384V112C32 103 25 96 16 96S0 103 0 112V384C0 437 43 480 96 480H528C537 480 544 473 544 464S537 448 528 448ZM576 32H160C125 32 96 61 96 96V320C96 355 125 384 160 384H576C611 384 640 355 640 320V96C640 61 611 32 576 32ZM128 96C128 78 142 64 160 64H192C192 99 163 128 128 128V96ZM160 352C142 352 128 338 128 320V288C163 288 192 317 192 352H160ZM608 320C608 338 594 352 576 352H544C544 317 573 288 608 288V320ZM608 256C555 256 512 299 512 352H224C224 299 181 256 128 256V160C181 160 224 117 224 64H512C512 117 555 160 608 160V256ZM608 128C573 128 544 99 544 64H576C594 64 608 78 608 96V128Z"/></svg>