<svg xmlns="http://www.w3.org/2000/svg" viewBox="0 0 640 512"><!-- Font Awesome Pro 6.0.0-alpha1 by @fontawesome - https://fontawesome.com License - https://fontawesome.com/license (Commercial License) --><path d="M594 42L566 14C556 5 544 0 532 0S507 5 498 14L322 190C313 198 307 210 305 222L288 306C287 313 293 320 300 320C301 320 302 320 302 320L386 303C398 301 410 294 418 286L594 110C613 91 613 61 594 42ZM396 263C391 267 386 270 379 272L326 282L336 229C338 222 341 217 345 212L459 98L510 149L396 263ZM571 87L533 126L482 75L521 37C525 33 529 32 532 32S539 33 543 37L571 65C575 69 576 74 576 76C576 79 575 83 571 87ZM560 208C551 208 544 215 544 224V448C544 466 530 480 512 480H64C46 480 32 466 32 448V192C32 174 46 160 64 160H288C297 160 304 153 304 144C304 135 297 128 288 128H64C29 128 0 157 0 192V448C0 483 29 512 64 512H512C547 512 576 483 576 448V224C576 215 569 208 560 208ZM80 288H240C249 288 256 281 256 272C256 263 249 256 240 256H80C71 256 64 263 64 272C64 281 71 288 80 288ZM80 384H496C505 384 512 377 512 368C512 359 505 352 496 352H80C71 352 64 359 64 368C64 377 71 384 80 384Z"/></svg>