<svg xmlns="http://www.w3.org/2000/svg" viewBox="0 0 640 512"><!-- Font Awesome Pro 6.0.0-alpha1 by @fontawesome - https://fontawesome.com License - https://fontawesome.com/license (Commercial License) --><path d="M636 368C631 358 620 353 610 356C566 364 523 352 489 324C455 296 436 255 436 211C436 159 464 110 510 83C519 78 524 68 522 57C521 46 513 38 502 36C490 34 473 32 461 32C371 32 291 86 256 170C253 179 256 188 265 191C273 195 282 191 285 183C315 111 384 64 461 64C466 64 473 64 479 65C432 98 404 153 404 211C404 265 427 315 469 349C505 379 552 394 598 389C563 427 513 448 461 448C410 448 361 427 325 390C319 384 309 384 302 390C296 396 296 406 302 412C345 456 401 480 461 480C529 480 592 450 634 397C641 389 642 377 636 368ZM237 218C221 183 186 160 147 160C106 160 70 185 55 222C23 234 0 265 0 301C0 347 37 384 83 384H236C281 384 318 347 318 301C318 255 282 218 237 218ZM236 352H83C55 352 32 329 32 301C32 273 53 251 81 250C85 217 113 192 147 192C183 192 212 220 214 255C221 252 228 250 236 250C264 250 287 273 287 301C287 329 264 352 236 352Z"/></svg>