<svg xmlns="http://www.w3.org/2000/svg" viewBox="0 0 640 512"><!-- Font Awesome Pro 6.0.0-alpha1 by @fontawesome - https://fontawesome.com License - https://fontawesome.com/license (Commercial License) --><path d="M384 352C323 382 320 428 320 442V496C320 505 327 512 336 512S352 505 352 496V442C352 415 373 397 384 389C395 397 416 415 416 442V496C416 505 423 512 432 512S448 505 448 496V442C448 428 445 382 384 352ZM244 384C212 382 192 408 192 434V496C192 505 199 512 208 512S224 505 224 496V432C224 423 231 416 240 416S256 423 256 432V496C256 505 263 512 272 512S288 505 288 496V433C288 408 269 386 244 384ZM532 384C500 382 480 408 480 434V496C480 505 487 512 496 512S512 505 512 496V432C512 423 519 416 528 416S544 423 544 432V496C544 505 551 512 560 512S576 505 576 496V433C576 408 557 386 532 384ZM592 256H586C590 247 592 238 592 229C592 175 549 134 501 104C464 81 433 72 396 29C390 22 378 22 372 29C335 72 305 81 267 104C219 134 176 175 176 229C176 238 178 247 182 256H176C170 256 165 257 160 259V120C160 40 80 0 80 0S0 40 0 120V504C0 508 4 512 8 512H24C28 512 32 508 32 504V192H128V496C128 505 135 512 144 512S160 505 160 496V304C160 295 167 288 176 288H592C601 288 608 295 608 304V496C608 505 615 512 624 512S640 505 640 496V304C640 278 618 256 592 256ZM128 160H32V120C32 79 62 51 80 38C98 51 128 79 128 120V160ZM549 256H219C212 247 208 238 208 229C208 196 233 164 281 133C322 107 356 94 384 64C412 94 446 107 487 133C535 164 560 196 560 229C560 238 556 247 549 256Z"/></svg>