<svg xmlns="http://www.w3.org/2000/svg" viewBox="0 0 640 512"><!-- Font Awesome Pro 6.0.0-alpha1 by @fontawesome - https://fontawesome.com License - https://fontawesome.com/license (Commercial License) --><path d="M128 224C57 224 0 281 0 352C0 423 57 480 128 480C199 480 256 423 256 352C256 281 199 224 128 224ZM128 376C135 376 141 373 146 368H222C215 413 175 448 128 448C75 448 32 405 32 352C32 299 75 256 128 256C175 256 215 291 222 336H146C141 331 135 328 128 328C115 328 104 339 104 352C104 365 115 376 128 376ZM512 224C496 224 481 227 467 233L412 128H470C493 128 512 109 512 86V74C512 51 493 32 470 32C452 32 435 38 420 50L386 77L366 41C363 35 358 32 352 32H272C263 32 256 39 256 48S263 64 272 64H342L360 98L238 195C207 173 169 160 128 160H48C39 160 32 167 32 176S39 192 48 192H128C216 192 288 264 288 352C288 361 295 368 304 368H336C345 368 352 361 352 352C352 298 379 248 424 219L439 247C406 270 384 309 384 352C384 423 441 480 512 480C583 480 640 423 640 352C640 281 583 224 512 224ZM440 75C449 68 460 64 470 64C476 64 480 68 480 74V86C480 92 476 96 470 96H414L440 75ZM321 336H319C315 289 295 247 263 216L375 127L409 190C358 223 326 277 321 336ZM512 448C459 448 416 405 416 352C416 321 431 294 454 276L498 359C501 365 506 368 512 368C515 368 517 367 519 366C527 362 530 352 526 345L482 261C492 258 502 256 512 256C565 256 608 299 608 352C608 405 565 448 512 448Z"/></svg>