<svg xmlns="http://www.w3.org/2000/svg" viewBox="0 0 640 512"><!-- Font Awesome Pro 6.0.0-alpha1 by @fontawesome - https://fontawesome.com License - https://fontawesome.com/license (Commercial License) --><path d="M630 382L504 184C497 174 487 169 477 169C466 169 456 174 450 184L410 247L410 247L280 44C280 44 280 44 280 44C275 36 265 32 256 32C247 32 237 36 232 44L9 394C-15 431 12 480 56 480H576C626 480 657 424 630 382ZM56 448C43 448 37 439 35 435C33 432 29 422 36 411L256 66L476 411C483 422 479 432 477 435C475 439 469 448 456 448H56ZM604 431C601 436 593 448 576 448H506C514 432 514 411 503 394L429 277L437 264L477 201C477 201 477 201 477 201V201L603 399C612 413 607 426 604 431Z"/></svg>