<svg xmlns="http://www.w3.org/2000/svg" viewBox="0 0 640 512"><!-- Font Awesome Pro 6.0.0-alpha1 by @fontawesome - https://fontawesome.com License - https://fontawesome.com/license (Commercial License) --><path d="M528 32H128C110 32 96 46 96 64V288C96 341 139 384 192 384H384C437 384 480 341 480 288V256H528C590 256 640 206 640 144S590 32 528 32ZM448 288C448 323 419 352 384 352H192C157 352 128 323 128 288V64H448V288ZM528 224H480V64H528C572 64 608 100 608 144S572 224 528 224ZM560 416C551 416 544 423 544 432C544 441 537 448 528 448H48C39 448 32 441 32 432C32 423 25 416 16 416S0 423 0 432C0 458 22 480 48 480H528C554 480 576 458 576 432C576 423 569 416 560 416Z"/></svg>