<svg xmlns="http://www.w3.org/2000/svg" viewBox="0 0 512 512"><!-- Font Awesome Pro 6.0.0-alpha1 by @fontawesome - https://fontawesome.com License - https://fontawesome.com/license (Commercial License) --><path d="M400 192H32C14 192 0 206 0 224V416C0 469 43 512 96 512H288C341 512 384 469 384 416H400C462 416 512 366 512 304S462 192 400 192ZM352 416C352 451 323 480 288 480H96C61 480 32 451 32 416V224H352V416ZM400 384H384V224H400C444 224 480 260 480 304S444 384 400 384ZM105 94C119 101 128 116 128 132V144C128 153 135 160 144 160S160 153 160 144V132C160 104 144 78 119 66C105 59 96 44 96 28V16C96 7 89 0 80 0S64 7 64 16V28C64 56 80 82 105 94ZM233 94C247 101 256 116 256 132V144C256 153 263 160 272 160S288 153 288 144V132C288 104 272 78 247 66C233 59 224 44 224 28V16C224 7 217 0 208 0S192 7 192 16V28C192 56 208 82 233 94Z"/></svg>