<svg xmlns="http://www.w3.org/2000/svg" viewBox="0 0 448 512"><!-- Font Awesome Pro 6.0.0-alpha1 by @fontawesome - https://fontawesome.com License - https://fontawesome.com/license (Commercial License) --><path d="M432 256H384V48C384 39 377 32 368 32S352 39 352 48V256H243L93 39C89 33 82 31 75 33C69 35 64 41 64 48V256H16C7 256 0 263 0 272S7 288 16 288H64V464C64 473 71 480 80 480S96 473 96 464V288H227L355 473C358 478 363 480 368 480C370 480 371 480 373 479C379 477 384 471 384 464V288H432C441 288 448 281 448 272S441 256 432 256ZM96 256V99L205 256H96ZM352 413L266 288H352V413Z"/></svg>