<svg xmlns="http://www.w3.org/2000/svg" viewBox="0 0 640 512"><!-- Font Awesome Pro 6.0.0-alpha1 by @fontawesome - https://fontawesome.com License - https://fontawesome.com/license (Commercial License) --><path d="M562 190L639 23C642 15 639 5 631 1C623 -2 613 1 609 9L534 175C513 165 489 160 464 160C392 160 322 186 267 233L171 315C164 321 156 324 148 324C129 324 112 309 112 288V256L178 220C187 214 192 204 192 193V112C192 103 184 96 176 96C173 96 170 97 167 99L96 146H96L25 99C22 97 19 96 16 96C8 96 0 103 0 112V193C0 204 5 214 14 220L80 256V352C80 440 152 512 240 512H464C561 512 640 433 640 336C640 275 609 222 562 190ZM96 228C96 228 96 228 95 228L32 193V142L78 173C83 176 90 178 96 178S108 176 114 173L160 142L160 193L97 228C96 228 96 228 96 228ZM464 480H240C169 480 112 423 112 352V345C122 352 135 356 148 356C164 356 179 350 192 339L288 257C337 215 399 192 464 192C543 192 608 257 608 336S543 480 464 480ZM504 272C491 272 480 283 480 296C480 309 491 320 504 320S528 309 528 296C528 283 517 272 504 272Z"/></svg>