<svg xmlns="http://www.w3.org/2000/svg" viewBox="0 0 640 512"><!-- Font Awesome Pro 6.0.0-alpha1 by @fontawesome - https://fontawesome.com License - https://fontawesome.com/license (Commercial License) --><path d="M608 320H528V272H624C633 272 640 265 640 256S633 240 624 240H336V192H416C434 192 448 178 448 160V32C448 14 434 0 416 0H224C206 0 192 14 192 32V160C192 178 206 192 224 192H304V240H16C7 240 0 247 0 256S7 272 16 272H112V320H32C14 320 0 334 0 352V480C0 498 14 512 32 512H224C242 512 256 498 256 480V352C256 334 242 320 224 320H144V272H496V320H416C398 320 384 334 384 352V480C384 498 398 512 416 512H608C626 512 640 498 640 480V352C640 334 626 320 608 320ZM224 160V32H416V160H224ZM224 352V480H32V352H224ZM608 480H416V352H608V480Z"/></svg>