<svg xmlns="http://www.w3.org/2000/svg" viewBox="0 0 512 512"><!-- Font Awesome Pro 6.0.0-alpha1 by @fontawesome - https://fontawesome.com License - https://fontawesome.com/license (Commercial License) --><path d="M464 32H144C118 32 96 54 96 80V416C96 434 82 448 64 448S32 434 32 416V112C32 103 25 96 16 96S0 103 0 112V416C0 451 29 480 64 480H432C476 480 512 444 512 400V80C512 54 490 32 464 32ZM480 400C480 426 458 448 432 448H119C125 439 128 428 128 416V80C128 71 135 64 144 64H464C473 64 480 71 480 80V400ZM272 304H176C167 304 160 311 160 320S167 336 176 336H272C281 336 288 329 288 320S281 304 272 304ZM432 304H336C327 304 320 311 320 320S327 336 336 336H432C441 336 448 329 448 320S441 304 432 304ZM272 368H176C167 368 160 375 160 384S167 400 176 400H272C281 400 288 393 288 384S281 368 272 368ZM432 368H336C327 368 320 375 320 384S327 400 336 400H432C441 400 448 393 448 384S441 368 432 368ZM416 96H192C174 96 160 110 160 128V224C160 242 174 256 192 256H416C434 256 448 242 448 224V128C448 110 434 96 416 96ZM416 224H192V128H416V224Z"/></svg>