<svg xmlns="http://www.w3.org/2000/svg" viewBox="0 0 448 512"><!-- Font Awesome Pro 6.0.0-alpha1 by @fontawesome - https://fontawesome.com License - https://fontawesome.com/license (Commercial License) --><path d="M448 352C448 361 441 368 432 368H166L93 473C90 478 85 480 80 480C77 480 74 479 71 477C64 472 62 462 67 455L127 368H16C7 368 0 361 0 352C0 343 7 336 16 336H149L260 176H16C7 176 0 169 0 160C0 151 7 144 16 144H282L355 39C360 32 370 30 377 35C384 40 386 50 381 57L321 144H432C441 144 448 151 448 160C448 169 441 176 432 176H299L188 336H432C441 336 448 343 448 352Z"/></svg>