<svg xmlns="http://www.w3.org/2000/svg" viewBox="0 0 512 512"><!-- Font Awesome Pro 6.0.0-alpha1 by @fontawesome - https://fontawesome.com License - https://fontawesome.com/license (Commercial License) --><path d="M368 32C377 32 384 25 384 16S377 0 368 0H96C43 0 0 43 0 96V368C0 377 7 384 16 384S32 377 32 368V96C32 61 61 32 96 32H368ZM416 96H160C125 96 96 125 96 160V416C96 451 125 480 160 480H326C342 480 359 473 371 461L461 371C473 359 480 342 480 326V160C480 125 451 96 416 96ZM352 435V368C352 359 359 352 368 352H435L352 435ZM448 320H368C342 320 320 342 320 368V448H160C142 448 128 434 128 416V160C128 142 142 128 160 128H416C434 128 448 142 448 160V320Z"/></svg>