<svg xmlns="http://www.w3.org/2000/svg" viewBox="0 0 512 512"><!-- Font Awesome Pro 6.0.0-alpha1 by @fontawesome - https://fontawesome.com License - https://fontawesome.com/license (Commercial License) --><path d="M483 157L355 29C346 21 335 16 323 16H189C177 16 166 21 157 29L29 157C21 166 16 177 16 189V323C16 335 21 346 29 355L157 483C166 491 177 496 189 496H323C335 496 346 491 355 483L483 355C491 346 496 335 496 323V189C496 177 491 166 483 157ZM464 323C464 326 463 330 460 332L332 460C330 463 326 464 323 464H189C186 464 182 463 180 460L52 332C49 330 48 326 48 323V189C48 186 49 182 52 180L180 52C182 49 186 48 189 48H323C326 48 330 49 332 52L460 180C463 182 464 186 464 189V323Z"/></svg>