<svg xmlns="http://www.w3.org/2000/svg" viewBox="0 0 640 512"><!-- Font Awesome Pro 6.0.0-alpha1 by @fontawesome - https://fontawesome.com License - https://fontawesome.com/license (Commercial License) --><path d="M638 168C634 162 627 159 620 160L451 199L408 172C395 164 381 160 366 160H272V96H336C345 96 352 89 352 80C352 71 345 64 336 64H176C167 64 160 71 160 80C160 89 167 96 176 96H240V160H48C22 160 0 182 0 208V268C0 287 10 303 27 311L96 346V368C96 394 118 416 144 416H402C415 416 428 410 437 401L636 187C640 182 641 174 638 168ZM96 208V310L41 283C35 280 32 274 32 268V208C32 199 39 192 48 192H99C97 197 96 202 96 208ZM414 379C411 382 406 384 402 384H144C135 384 128 377 128 368V208C128 199 135 192 144 192H366C375 192 383 195 391 199L440 230C443 232 447 233 452 232L577 203L414 379ZM599 299C597 297 595 295 592 295C589 295 587 297 585 299C572 322 544 372 544 395C544 424 565 448 592 448C619 448 640 424 640 395C640 372 612 322 599 299ZM592 416C583 416 576 406 576 395C576 390 581 376 592 354C603 376 608 390 608 395C608 406 601 416 592 416Z"/></svg>