<svg xmlns="http://www.w3.org/2000/svg" viewBox="0 0 512 512"><!-- Font Awesome Pro 6.0.0-alpha1 by @fontawesome - https://fontawesome.com License - https://fontawesome.com/license (Commercial License) --><path d="M429 192C396 192 364 205 341 228C323 246 299 256 275 256H220C237 238 248 214 248 188C248 133 201 88 144 88C111 88 81 102 61 127C56 134 57 145 64 150C71 155 81 154 86 147C100 130 121 120 144 120C184 120 216 150 216 188S184 256 144 256C135 256 128 263 128 272S135 288 144 288C146 288 148 287 149 287C150 287 151 288 152 288C210 288 256 330 256 384C256 437 208 480 149 480C92 480 40 431 32 369C31 360 23 354 14 356C5 357 -1 365 0 374C11 451 76 512 149 512C225 512 288 454 288 384C288 345 270 311 242 288H275C308 288 340 274 363 251C381 234 405 224 432 224C458 224 480 245 480 272V400C480 426 458 448 432 448H408C389 448 373 438 365 421L350 393C346 385 337 382 329 385C321 389 318 399 322 407L336 436C350 463 377 480 408 480H432C476 480 512 444 512 400V272C512 228 476 192 429 192ZM282 143L322 158C338 165 356 168 373 168C398 168 423 161 445 148L456 142C464 137 466 127 462 120C457 112 448 110 440 114L429 120C399 138 365 141 333 128L294 113C286 110 276 114 273 122S274 140 282 143ZM348 104C353 109 361 112 368 112C375 112 383 109 389 103L416 76C421 70 424 63 424 56S421 41 416 35L388 8C377 -2 359 -3 347 8L320 36C315 41 312 48 312 56S315 70 320 76L348 104ZM368 33L391 56L368 79L345 56L368 33Z"/></svg>