<svg xmlns="http://www.w3.org/2000/svg" viewBox="0 0 384 512"><!-- Font Awesome Pro 6.0.0-alpha1 by @fontawesome - https://fontawesome.com License - https://fontawesome.com/license (Commercial License) --><path d="M288 154V96C288 78 274 64 256 64H237C239 59 240 54 240 48C240 22 218 0 192 0S144 22 144 48C144 54 145 59 147 64H128C110 64 96 78 96 96V154C39 187 0 249 0 320C0 426 86 512 192 512S384 426 384 320C384 249 345 187 288 154ZM192 32C201 32 208 39 208 48S201 64 192 64S176 57 176 48S183 32 192 32ZM128 96H256V144H128V96ZM124 176H261C284 187 304 204 319 224H65C80 204 100 187 124 176ZM192 480C140 480 94 455 65 416H319C290 455 244 480 192 480ZM338 384H46C37 364 32 343 32 320C32 297 37 276 46 256H338C347 276 352 297 352 320C352 343 347 364 338 384Z"/></svg>