<svg xmlns="http://www.w3.org/2000/svg" viewBox="0 0 640 512"><!-- Font Awesome Pro 6.0.0-alpha1 by @fontawesome - https://fontawesome.com License - https://fontawesome.com/license (Commercial License) --><path d="M512 56C503 56 496 63 496 72S503 88 512 88S528 81 528 72S521 56 512 56ZM592 32H575L562 19C550 7 534 0 516 0H496C485 0 474 3 464 8L311 96H288C182 96 96 182 96 288V289C42 297 0 344 0 400C0 462 50 512 112 512H256C282 512 304 490 304 464S282 416 256 416H112C103 416 96 409 96 400S103 384 112 384H320C338 384 352 370 352 352C352 329 340 309 322 298L370 272L418 366C423 377 434 384 446 384H544C562 384 576 370 576 352C576 317 547 288 512 288H486L455 227L500 203C513 196 529 192 544 192C597 192 640 149 640 96V80C640 54 618 32 592 32ZM544 160C524 160 503 165 485 174L480 177L497 155C506 143 521 136 535 136H594C582 150 564 160 544 160ZM607 104H536C511 104 487 116 472 135L412 213L466 320H512C530 320 544 334 544 352H446L384 228L211 320H288C306 320 320 334 320 352H112C86 352 64 374 64 400S86 448 112 448H256C265 448 272 455 272 464S265 480 256 480H112C68 480 32 444 32 400S68 320 112 320H128V288C128 200 200 128 288 128H319L480 36C485 34 490 32 496 32H516C525 32 533 35 539 41L562 64H592C601 64 608 71 608 80C608 80 607 101 607 104Z"/></svg>