<svg xmlns="http://www.w3.org/2000/svg" viewBox="0 0 448 512"><!-- Font Awesome Pro 6.0.0-alpha1 by @fontawesome - https://fontawesome.com License - https://fontawesome.com/license (Commercial License) --><path d="M119 162C117 161 114 160 112 160C108 160 105 161 102 164L6 244C2 247 0 251 0 256C0 261 2 265 6 268L102 348C105 351 108 352 112 352C114 352 117 352 119 351C124 348 128 342 128 336V176C128 170 124 164 119 162ZM96 302L41 256L96 210V302ZM16 80H432C441 80 448 73 448 64S441 48 432 48H16C7 48 0 55 0 64S7 80 16 80ZM432 176H208C199 176 192 183 192 192S199 208 208 208H432C441 208 448 201 448 192S441 176 432 176ZM432 304H208C199 304 192 311 192 320S199 336 208 336H432C441 336 448 329 448 320S441 304 432 304ZM432 432H16C7 432 0 439 0 448S7 464 16 464H432C441 464 448 457 448 448S441 432 432 432Z"/></svg>