<svg xmlns="http://www.w3.org/2000/svg" viewBox="0 0 448 512"><!-- Font Awesome Pro 6.0.0-alpha1 by @fontawesome - https://fontawesome.com License - https://fontawesome.com/license (Commercial License) --><path d="M352 0H96C43 0 0 43 0 96V448C0 483 29 512 64 512H384C419 512 448 483 448 448V96C448 43 405 0 352 0ZM416 448C416 466 402 480 384 480H64C46 480 32 466 32 448V192H416V448ZM416 160H32V96C32 61 61 32 96 32H352C387 32 416 61 416 96V160ZM96 448H352C370 448 384 434 384 416V256C384 238 370 224 352 224H96C78 224 64 238 64 256V416C64 434 78 448 96 448ZM96 256H352V416H96V256ZM304 288H144C135 288 128 295 128 304C128 313 135 320 144 320H304C313 320 320 313 320 304C320 295 313 288 304 288ZM80 96C71 96 64 103 64 112C64 121 71 128 80 128S96 121 96 112C96 103 89 96 80 96ZM176 96C167 96 160 103 160 112C160 121 167 128 176 128S192 121 192 112C192 103 185 96 176 96ZM272 96C263 96 256 103 256 112C256 121 263 128 272 128S288 121 288 112C288 103 281 96 272 96ZM368 96C359 96 352 103 352 112C352 121 359 128 368 128S384 121 384 112C384 103 377 96 368 96Z"/></svg>