<svg xmlns="http://www.w3.org/2000/svg" viewBox="0 0 512 512"><!-- Font Awesome Pro 6.0.0-alpha1 by @fontawesome - https://fontawesome.com License - https://fontawesome.com/license (Commercial License) --><path d="M208 352H272C281 352 288 345 288 336S281 320 272 320H208C199 320 192 327 192 336S199 352 208 352ZM80 352H144C153 352 160 345 160 336S153 320 144 320H80C71 320 64 327 64 336S71 352 80 352ZM448 64H64C29 64 0 93 0 128V384C0 419 29 448 64 448H448C483 448 512 419 512 384V128C512 93 483 64 448 64ZM480 384C480 402 466 416 448 416H64C46 416 32 402 32 384V256H480V384ZM480 224H32V128C32 110 46 96 64 96H448C466 96 480 110 480 128V224Z"/></svg>