<svg xmlns="http://www.w3.org/2000/svg" viewBox="0 0 640 512"><!-- Font Awesome Pro 6.0.0-alpha1 by @fontawesome - https://fontawesome.com License - https://fontawesome.com/license (Commercial License) --><path d="M128 168C115 168 104 179 104 192S115 216 128 216C141 216 152 205 152 192S141 168 128 168ZM379 188C367 172 340 172 329 188L285 249L278 240C266 226 241 226 229 240L166 321C159 330 158 342 164 352C169 362 179 368 190 368H450C461 368 471 362 476 353C476 353 476 353 476 353C482 343 481 331 475 322L379 188ZM194 336L252 260L273 286C277 291 290 297 298 285L353 207L445 336H194ZM592 64C588 64 583 65 578 66L578 66C494 91 407 104 320 104S146 91 62 66L62 66C57 65 52 64 48 64C22 64 0 85 0 112V432C0 459 22 480 48 480C52 480 57 479 62 478L62 478C146 453 233 440 320 440S494 453 578 478L578 478C583 479 588 480 592 480C618 480 640 459 640 432V112C640 85 618 64 592 64ZM608 432C608 442 600 448 592 448C591 448 589 448 587 447C501 421 411 408 320 408S139 421 53 447C51 448 49 448 48 448C40 448 32 442 32 432V112C32 106 35 103 37 101C40 98 44 96 48 96C49 96 51 96 53 97C139 123 229 136 320 136S501 123 587 97C589 96 591 96 592 96C600 96 608 102 608 112V432Z"/></svg>