<svg xmlns="http://www.w3.org/2000/svg" viewBox="0 0 384 512"><!-- Font Awesome Pro 6.0.0-alpha1 by @fontawesome - https://fontawesome.com License - https://fontawesome.com/license (Commercial License) --><path d="M352 112V352C352 440 280 512 192 512S32 440 32 352V208C32 199 39 192 48 192S64 199 64 208V352C64 423 121 480 192 480S320 423 320 352V112C320 68 284 32 240 32S160 68 160 112V320C160 338 174 352 192 352S224 338 224 320V144C224 135 231 128 240 128S256 135 256 144V320C256 355 227 384 192 384S128 355 128 320V112C128 50 178 0 240 0S352 50 352 112Z"/></svg>