<svg xmlns="http://www.w3.org/2000/svg" viewBox="0 0 384 512"><!-- Font Awesome Pro 6.0.0-alpha1 by @fontawesome - https://fontawesome.com License - https://fontawesome.com/license (Commercial License) --><path d="M176 224H224L224 304C224 313 231 320 240 320S256 313 256 304L256 32H288L288 304C288 313 295 320 304 320S320 313 320 304L320 32H336C345 32 352 25 352 16C352 7 345 0 336 0H179C117 0 64 50 64 113C64 176 112 224 176 224ZM119 57C135 41 157 32 179 32H224V192H176C130 192 96 158 96 113C96 92 104 72 119 57ZM368 400H60L122 348C129 343 130 333 124 326C119 319 109 318 102 324L6 404C2 407 0 411 0 416S2 425 6 428L102 508C105 511 108 512 112 512C117 512 121 510 124 506C130 499 129 489 122 484L60 432H368C377 432 384 425 384 416S377 400 368 400Z"/></svg>