<svg xmlns="http://www.w3.org/2000/svg" viewBox="0 0 512 512"><!-- Font Awesome Pro 6.0.0-alpha1 by @fontawesome - https://fontawesome.com License - https://fontawesome.com/license (Commercial License) --><path d="M512 204C499 81 369 0 256 0S13 81 0 204C-1 215 7 224 16 224H49L160 345V480C160 498 174 512 192 512H320C338 512 352 498 352 480V345L463 224H496C505 224 513 215 512 204ZM256 32C308 32 368 96 368 192H144C144 96 204 32 256 32ZM34 192C48 127 101 77 163 51C133 84 112 132 112 191V192H34ZM180 320L92 224H240V320H180ZM320 472C320 476 316 480 312 480H200C196 480 192 476 192 472V360C192 356 196 352 200 352H312C316 352 320 356 320 360V472ZM332 320H272V224H420L332 320ZM400 192V191C400 132 379 84 349 51C411 77 464 127 478 192H400Z"/></svg>