<svg xmlns="http://www.w3.org/2000/svg" viewBox="0 0 448 512"><!-- Font Awesome Pro 6.0.0-alpha1 by @fontawesome - https://fontawesome.com License - https://fontawesome.com/license (Commercial License) --><path d="M336 384H112C103 384 96 391 96 400S103 416 112 416H336C345 416 352 409 352 400S345 384 336 384ZM224 64C153 64 96 121 96 192S153 320 224 320S352 263 352 192S295 64 224 64ZM130 208H169C170 235 175 259 183 278C155 265 135 239 130 208ZM169 176H130C135 145 155 119 183 106C175 125 170 149 169 176ZM224 287C216 279 203 252 201 208H247C245 252 232 279 224 287ZM201 176C203 132 216 105 224 97C232 105 245 132 247 176H201ZM265 278C273 259 278 235 279 208H318C313 239 293 265 265 278ZM279 176C278 149 273 125 265 106C293 119 313 145 318 176H279ZM384 0H64C29 0 0 29 0 64V448C0 483 29 512 64 512H384C419 512 448 483 448 448V64C448 29 419 0 384 0ZM416 448C416 466 402 480 384 480H64C46 480 32 466 32 448V64C32 46 46 32 64 32H384C402 32 416 46 416 64V448Z"/></svg>