<svg xmlns="http://www.w3.org/2000/svg" viewBox="0 0 384 512"><!-- Font Awesome Pro 6.0.0-alpha1 by @fontawesome - https://fontawesome.com License - https://fontawesome.com/license (Commercial License) --><path d="M336 64H272C246 64 224 86 224 112V400C224 426 246 448 272 448H336C362 448 384 426 384 400V112C384 86 362 64 336 64ZM352 400C352 409 345 416 336 416H272C263 416 256 409 256 400V112C256 103 263 96 272 96H336C345 96 352 103 352 112V400ZM112 64H48C22 64 0 86 0 112V400C0 426 22 448 48 448H112C138 448 160 426 160 400V112C160 86 138 64 112 64ZM128 400C128 409 121 416 112 416H48C39 416 32 409 32 400V112C32 103 39 96 48 96H112C121 96 128 103 128 112V400Z"/></svg>