<svg xmlns="http://www.w3.org/2000/svg" viewBox="0 0 512 512"><!-- Font Awesome Pro 6.0.0-alpha1 by @fontawesome - https://fontawesome.com License - https://fontawesome.com/license (Commercial License) --><path d="M256 224C177 224 64 347 64 424C64 459 91 480 136 480C185 480 217 455 256 455C295 455 328 480 376 480C421 480 448 459 448 424C448 347 335 224 256 224ZM376 448C356 448 338 442 320 436C300 430 280 423 256 423C232 423 212 430 193 436C174 442 156 448 136 448C96 448 96 430 96 424C96 361 196 256 256 256S416 361 416 424C416 430 416 448 376 448ZM475 161C471 160 468 160 464 160C438 160 412 181 403 211C393 246 408 280 437 287C441 288 444 288 448 288C474 288 500 267 509 237C519 202 504 168 475 161ZM478 227C473 245 458 256 448 256C447 256 446 256 445 256C441 255 438 252 436 248C432 241 431 231 434 221C439 203 453 192 464 192C465 192 466 192 467 192C471 193 474 196 476 200C480 207 481 217 478 227ZM318 191C322 191 326 192 329 192C357 192 386 165 396 127C408 83 392 42 362 33C358 33 354 32 351 32C323 32 294 59 284 97C272 141 288 182 318 191ZM315 106C322 78 340 64 351 64C352 64 353 64 353 64C357 65 360 69 362 72C367 81 371 98 365 118C358 146 340 160 329 160C328 160 327 160 327 160C323 159 320 155 318 152C313 143 309 126 315 106ZM183 192C186 192 190 191 194 191C224 182 240 141 228 97C218 59 189 32 161 32C158 32 154 33 150 33C120 42 104 83 116 127C126 165 155 192 183 192ZM150 72C152 69 155 65 159 64C160 64 160 64 161 64C172 64 190 78 197 106C203 126 199 143 194 152C192 155 189 159 185 160C185 160 184 160 183 160C172 160 154 146 147 118C141 98 145 81 150 72ZM75 287C104 280 119 246 109 211C100 181 74 160 48 160C44 160 41 160 37 161C8 168 -7 202 3 237C12 267 38 288 64 288C68 288 71 288 75 287ZM34 227C31 217 32 207 36 200C38 196 41 193 45 192C46 192 47 192 48 192C59 192 73 203 78 221C81 231 81 241 76 248C74 252 71 255 67 256C66 256 65 256 64 256C54 256 39 245 34 227Z"/></svg>