<svg xmlns="http://www.w3.org/2000/svg" viewBox="0 0 576 512"><!-- Font Awesome Pro 6.0.0-alpha1 by @fontawesome - https://fontawesome.com License - https://fontawesome.com/license (Commercial License) --><path d="M576 86V180C576 201 563 219 543 226L518 234C512 236 482 244 462 216L448 194V244C448 274 437 302 416 324V464C416 490 394 512 368 512H336C310 512 288 490 288 464V351L204 333L185 387L201 452C209 483 186 512 155 512H131C108 512 89 497 84 475L66 400C63 389 64 378 66 367L89 293C73 275 64 252 64 227C64 222 65 216 66 210C46 217 32 234 32 256V304C32 313 25 320 16 320S0 313 0 304V256C0 212 35 177 79 176C90 157 108 142 129 134C130 145 132 156 135 166C112 177 96 200 96 227C96 250 107 270 125 282L97 376C96 381 96 387 97 392L115 468C117 475 123 480 131 480H155C165 480 173 470 170 460L152 385L184 296L320 326V464C320 473 327 480 336 480H368C377 480 384 473 384 464V310C403 294 416 271 416 244V144L464 160L489 198C491 201 498 207 508 204L533 195C540 193 544 187 544 180V86L523 62C535 57 543 45 543 32H432C379 32 336 75 336 128V160C276 160 229 130 200 74C195 89 192 105 192 121C192 182 238 236 299 252C304 253 306 257 306 261L303 276C302 281 297 284 293 283C217 265 160 197 160 121C160 95 166 70 177 46C181 37 189 32 200 32C210 32 219 38 223 47C241 89 269 115 304 124C307 55 363 0 432 0L543 0C560 0 575 13 575 30C576 42 573 54 567 64C572 70 576 77 576 86ZM496 96C496 87 489 80 480 80S464 87 464 96S471 112 480 112S496 105 496 96Z"/></svg>