<svg xmlns="http://www.w3.org/2000/svg" viewBox="0 0 512 512"><!-- Font Awesome Pro 6.0.0-alpha1 by @fontawesome - https://fontawesome.com License - https://fontawesome.com/license (Commercial License) --><path d="M432 320C423 320 416 327 416 336V448C416 466 402 480 384 480H64C46 480 32 466 32 448V128C32 110 46 96 64 96H176C185 96 192 89 192 80S185 64 176 64H64C29 64 0 93 0 128V448C0 483 29 512 64 512H384C419 512 448 483 448 448V336C448 327 441 320 432 320ZM498 42L470 14C460 5 448 0 436 0S411 5 402 14L162 254C153 262 147 274 145 286L128 370C127 377 133 384 140 384C141 384 142 384 142 384L226 367C238 365 250 358 258 350L498 110C517 91 517 61 498 42ZM236 327C231 331 226 334 219 336L166 346L176 293C178 286 181 281 185 276L363 98L414 149L236 327ZM475 87L437 126L386 75L425 37C429 33 433 32 436 32S443 33 447 37L475 65C479 69 480 74 480 76C480 79 479 83 475 87Z"/></svg>