<svg xmlns="http://www.w3.org/2000/svg" viewBox="0 0 512 512"><!-- Font Awesome Pro 6.0.0-alpha1 by @fontawesome - https://fontawesome.com License - https://fontawesome.com/license (Commercial License) --><path d="M496 74L438 15C427 5 413 0 399 0C385 0 371 5 361 15L284 89L138 134C116 141 98 158 91 180L0 502C0 505 0 508 2 510C4 511 6 512 8 512C9 512 9 512 10 512L332 421C354 414 371 396 377 374L423 228L496 151C506 141 512 127 512 112C512 98 506 84 496 74ZM346 365C343 377 334 387 323 390L74 460L176 359C185 365 196 368 208 368C243 368 272 339 272 304S243 240 208 240S144 269 144 304C144 316 147 327 153 336L51 438L121 190C125 178 135 169 148 165L290 120L391 222L346 365ZM176 304C176 286 190 272 208 272S240 286 240 304S226 336 208 336S176 322 176 304ZM473 129L410 195L316 102L383 38C387 34 393 32 399 32C406 32 411 34 415 38L473 96C478 101 480 106 480 112C480 119 478 124 473 129Z"/></svg>