<svg xmlns="http://www.w3.org/2000/svg" viewBox="0 0 512 512"><!-- Font Awesome Pro 6.0.0-alpha1 by @fontawesome - https://fontawesome.com License - https://fontawesome.com/license (Commercial License) --><path d="M425 0C401 0 378 10 361 29L170 240L84 269C74 272 66 280 63 290L2 461C-3 475 1 490 11 501C22 511 37 515 51 510L222 449C232 446 240 438 243 428L272 342L483 151C545 96 500 0 425 0ZM213 418C213 418 68 467 68 467L127 408C127 408 128 408 128 408C141 408 152 397 152 384C152 371 141 360 128 360S104 371 104 384C104 384 104 385 104 385L45 445C45 445 94 299 94 299L183 270L242 329L213 418ZM462 127L264 306L206 248L385 50C395 38 410 32 425 32C454 32 481 58 480 89C479 103 473 117 462 127Z"/></svg>