<svg xmlns="http://www.w3.org/2000/svg" viewBox="0 0 576 512"><!-- Font Awesome Pro 6.0.0-alpha1 by @fontawesome - https://fontawesome.com License - https://fontawesome.com/license (Commercial License) --><path d="M143 209L23 88C10 75 10 54 23 42C35 29 56 29 69 42L190 162L212 139L92 19C66 -6 25 -6 0 19C-25 44 -25 85 0 111L121 231L143 209ZM525 448C493 448 474 427 476 401C479 371 469 341 446 319C435 307 420 299 405 294L378 320C395 322 411 329 424 341C439 356 446 377 444 398C442 419 449 439 463 455C478 471 500 480 525 480H471C400 480 346 466 322 443C310 430 303 414 302 396L275 423C279 439 287 453 299 465C338 504 417 512 471 512C497 512 525 512 525 512C543 512 557 498 557 480S543 448 525 448ZM506 56L469 19C456 6 440 0 424 0C407 0 391 6 378 19L47 350C45 355 42 360 39 366L13 493C11 503 19 512 29 512C30 512 31 512 32 512L159 486C165 483 170 481 175 478L506 147C531 122 531 81 506 56ZM156 452L150 455L148 456L49 476L69 377L73 369L73 369L328 114L411 197L156 452ZM484 124L434 174L351 91L401 41C407 35 415 32 424 32C432 32 440 35 446 41L484 79C490 85 493 93 493 102C493 110 490 118 484 124Z"/></svg>