<svg xmlns="http://www.w3.org/2000/svg" viewBox="0 0 640 512"><!-- Font Awesome Pro 6.0.0-alpha1 by @fontawesome - https://fontawesome.com License - https://fontawesome.com/license (Commercial License) --><path d="M379 114L462 197L412 247L437 267L557 147C582 122 582 81 557 56L520 19C507 6 491 0 475 0C458 0 442 6 429 19L294 154L319 174L379 114ZM452 41C458 35 466 32 475 32C483 32 491 35 497 41L535 79C541 85 544 93 544 102C544 110 541 118 535 124L485 174L402 91L452 41ZM207 452L201 455L199 456L100 476L120 377L124 369L124 369L228 265L203 245L98 350C95 355 93 360 90 366L64 493C62 503 70 512 80 512C81 512 82 512 83 512L210 486C216 483 221 481 226 478L346 358L321 338L207 452ZM634 483L26 3C19 -2 9 -1 3 6C-2 13 -1 23 6 29L614 509C617 511 621 512 624 512C629 512 633 510 637 506C642 499 641 489 634 483Z"/></svg>