<svg xmlns="http://www.w3.org/2000/svg" viewBox="0 0 640 512"><!-- Font Awesome Pro 6.0.0-alpha1 by @fontawesome - https://fontawesome.com License - https://fontawesome.com/license (Commercial License) --><path d="M309 66C315 60 325 60 331 66L357 91L294 154L319 174L379 114L462 197L412 247L437 267L557 147C582 122 582 81 557 56L520 19C507 6 491 0 474 0H474C458 0 442 6 429 19L379 69L354 43C335 25 305 25 286 43L228 102L253 122L309 66ZM452 41C464 29 485 29 497 41L535 79C547 91 547 112 535 124L485 174L402 91L452 41ZM263 395C219 440 160 469 97 479C106 416 136 357 181 313L228 265L203 245L158 290C105 342 72 411 64 485V485C63 500 74 512 88 512C89 512 90 512 91 512C165 504 233 471 286 418L346 358L321 338L263 395ZM634 483L26 3C19 -2 9 -1 3 6C-2 13 -1 23 6 29L614 509C617 511 621 512 624 512C629 512 633 510 637 506C642 499 641 489 634 483Z"/></svg>