<svg xmlns="http://www.w3.org/2000/svg" viewBox="0 0 512 512"><!-- Font Awesome Pro 6.0.0-alpha1 by @fontawesome - https://fontawesome.com License - https://fontawesome.com/license (Commercial License) --><path d="M493 56L456 19C443 6 427 0 410 0C394 0 378 6 365 19L45 339C37 347 31 358 28 370L0 493C-2 503 6 512 16 512C17 512 18 512 19 512C19 512 104 494 142 485C153 482 164 476 172 468C221 419 407 233 493 147C518 122 518 81 493 56ZM150 445C145 449 140 452 135 454C110 459 65 469 37 475L59 377C61 371 63 366 68 362L315 114L398 197L150 445ZM471 124L421 174L338 91L388 41C394 35 402 32 410 32S427 35 433 41L471 79C483 91 483 112 471 124Z"/></svg>