<svg xmlns="http://www.w3.org/2000/svg" viewBox="0 0 576 512"><!-- Font Awesome Pro 6.0.0-alpha1 by @fontawesome - https://fontawesome.com License - https://fontawesome.com/license (Commercial License) --><path d="M447 310C448 306 448 302 447 298C446 296 445 294 443 293L379 229C373 222 363 222 357 229S350 245 357 251L393 288H183L219 251C226 245 226 235 219 229S203 222 197 229L133 293C131 294 130 296 129 298C128 302 128 306 129 310C130 312 131 314 133 315L197 379C200 382 204 384 208 384S216 382 219 379C226 373 226 363 219 357L183 320H393L357 357C350 363 350 373 357 379C360 382 364 384 368 384S376 382 379 379L443 315C445 314 446 312 447 310ZM96 128C131 128 160 99 160 64S131 0 96 0S32 29 32 64S61 128 96 128ZM96 32C114 32 128 46 128 64S114 96 96 96S64 82 64 64S78 32 96 32ZM144 384C135 384 128 391 128 400V496C128 505 135 512 144 512S160 505 160 496V400C160 391 153 384 144 384ZM138 216C142 224 152 226 159 222C167 217 170 208 165 200C151 175 124 160 96 160H80C36 160 0 196 0 240V320C0 338 14 352 32 352H32V496C32 505 39 512 48 512S64 505 64 496V336C64 327 57 320 48 320H32V240C32 214 54 192 80 192L99 192C116 192 129 202 138 216ZM480 128C515 128 544 99 544 64S515 0 480 0S416 29 416 64S445 128 480 128ZM480 32C498 32 512 46 512 64S498 96 480 96S448 82 448 64S462 32 480 32ZM432 384C423 384 416 391 416 400V496C416 505 423 512 432 512S448 505 448 496V400C448 391 441 384 432 384ZM496 160H480C452 160 425 175 411 200C406 208 409 217 417 222C424 226 434 224 438 216C447 202 460 192 477 192L496 192C522 192 544 214 544 240V320H528C519 320 512 327 512 336V496C512 505 519 512 528 512S544 505 544 496V352H544C562 352 576 338 576 320V240C576 196 540 160 496 160Z"/></svg>