<svg xmlns="http://www.w3.org/2000/svg" viewBox="0 0 384 512"><!-- Font Awesome Pro 6.0.0-alpha1 by @fontawesome - https://fontawesome.com License - https://fontawesome.com/license (Commercial License) --><path d="M379 69C373 62 363 62 357 69L5 421C-2 427 -2 437 5 443C8 446 12 448 16 448S24 446 27 443L379 91C386 85 386 75 379 69ZM64 192C99 192 128 163 128 128S99 64 64 64C29 64 0 93 0 128S29 192 64 192ZM64 96C82 96 96 110 96 128S82 160 64 160S32 146 32 128S46 96 64 96ZM320 320C285 320 256 349 256 384S285 448 320 448C355 448 384 419 384 384S355 320 320 320ZM320 416C302 416 288 402 288 384S302 352 320 352S352 366 352 384S338 416 320 416Z"/></svg>