<svg xmlns="http://www.w3.org/2000/svg" viewBox="0 0 448 512"><!-- Font Awesome Pro 6.0.0-alpha1 by @fontawesome - https://fontawesome.com License - https://fontawesome.com/license (Commercial License) --><path d="M120 112C151 112 176 87 176 56S151 0 120 0S64 25 64 56S89 112 120 112ZM120 32C133 32 144 43 144 56C144 69 133 80 120 80S96 69 96 56C96 43 107 32 120 32ZM432 448H394L334 329C332 323 326 320 320 320H171C163 320 156 314 155 307L140 224H304C313 224 320 217 320 208C320 199 313 192 304 192H134L128 157C126 148 118 143 109 144C100 146 95 154 96 163L123 313C128 335 147 352 171 352H310L370 471C372 477 378 480 384 480H432C441 480 448 473 448 464S441 448 432 448ZM272 416H160C115 416 77 384 69 341L32 141C30 132 22 127 13 128C4 130 -1 138 0 147L38 347C49 405 100 448 160 448H272C281 448 288 441 288 432S281 416 272 416Z"/></svg>