<svg xmlns="http://www.w3.org/2000/svg" viewBox="0 0 640 512"><!-- Font Awesome Pro 6.0.0-alpha1 by @fontawesome - https://fontawesome.com License - https://fontawesome.com/license (Commercial License) --><path d="M251 223L312 172C317 167 325 167 331 171L407 221C410 223 413 224 416 224H480C489 224 496 217 496 208S489 192 480 192H421L349 144C331 132 308 133 291 147L230 198C222 205 218 214 219 224C219 234 224 244 233 249L304 297V416C304 425 311 432 320 432S336 425 336 416V288C336 283 333 278 329 275L251 223ZM384 128C419 128 448 99 448 64C448 29 419 0 384 0S320 29 320 64C320 99 349 128 384 128ZM384 32C402 32 416 46 416 64S402 96 384 96S352 82 352 64S366 32 384 32ZM128 256C57 256 0 313 0 384C0 455 57 512 128 512C199 512 256 455 256 384C256 313 199 256 128 256ZM128 480C75 480 32 437 32 384C32 331 75 288 128 288S224 331 224 384C224 437 181 480 128 480ZM512 256C441 256 384 313 384 384C384 455 441 512 512 512C583 512 640 455 640 384C640 313 583 256 512 256ZM512 480C459 480 416 437 416 384C416 331 459 288 512 288S608 331 608 384C608 437 565 480 512 480Z"/></svg>