<svg xmlns="http://www.w3.org/2000/svg" viewBox="0 0 512 512"><!-- Font Awesome Pro 6.0.0-alpha1 by @fontawesome - https://fontawesome.com License - https://fontawesome.com/license (Commercial License) --><path d="M424 112C455 112 480 87 480 56S455 0 424 0S368 25 368 56S393 112 424 112ZM424 32C437 32 448 43 448 56S437 80 424 80S400 69 400 56S411 32 424 32ZM105 78L122 87L114 105C110 113 113 122 121 126C123 127 126 128 128 128C134 128 140 125 142 119L151 102L373 219C375 221 378 223 381 223L441 254C443 255 445 256 448 256C454 256 459 253 462 247C466 240 463 230 455 226L396 195L363 108C359 95 349 85 336 80C323 75 309 76 297 82L237 112L165 74L174 55C178 47 175 38 167 34C159 30 150 33 146 41L137 59L119 50C112 46 102 49 98 57C94 64 97 74 105 78ZM311 110C315 108 320 108 324 110C329 111 332 115 333 119L354 172L272 130L311 110ZM261 379C264 382 268 384 272 384C276 384 280 382 283 379L347 315C351 312 352 307 352 302C351 297 349 293 345 290L257 236C236 223 224 201 224 176C224 167 217 160 208 160C199 160 192 167 192 176C192 212 210 244 240 263L310 307L261 357C254 363 254 373 261 379ZM510 474C506 466 497 463 489 467C453 485 411 484 377 465L24 274C16 270 6 273 2 280C-2 288 1 298 8 302L361 494C384 506 409 512 434 512C458 512 482 507 503 496C511 492 514 482 510 474Z"/></svg>