<svg xmlns="http://www.w3.org/2000/svg" viewBox="0 0 512 512"><!-- Font Awesome Pro 6.0.0-alpha1 by @fontawesome - https://fontawesome.com License - https://fontawesome.com/license (Commercial License) --><path d="M392 144C423 144 448 119 448 88S423 32 392 32S336 57 336 88S361 144 392 144ZM392 64C405 64 416 75 416 88S405 112 392 112C379 112 368 101 368 88S379 64 392 64ZM160 176H281L181 277C176 281 175 288 177 294C180 300 186 304 192 304H336V384C336 393 343 400 352 400S368 393 368 384V288C368 279 361 272 352 272H231L331 171C336 167 337 160 335 154C332 148 326 144 320 144H160C151 144 144 151 144 160S151 176 160 176ZM493 439L460 446C433 451 406 447 382 434L24 235C16 230 6 233 2 241C-2 248 1 258 8 263L367 462C388 474 413 480 437 480C447 480 456 479 466 477L499 471C508 469 513 460 512 452S502 437 493 439Z"/></svg>