<svg xmlns="http://www.w3.org/2000/svg" viewBox="0 0 512 512"><!-- Font Awesome Pro 6.0.0-alpha1 by @fontawesome - https://fontawesome.com License - https://fontawesome.com/license (Commercial License) --><path d="M507 229L485 207C446 167 402 133 354 104C346 99 337 96 328 94L293 87C277 84 264 73 258 58L239 10C236 2 226 -2 218 1C210 4 206 14 209 22L228 70C238 95 260 113 287 118L299 121L242 160C221 175 208 199 208 225V276L123 305C115 308 110 317 113 325C115 332 121 336 128 336C130 336 131 336 133 335L229 303C236 301 240 295 240 288V225C240 210 248 195 260 186L337 133C338 133 338 132 338 132C354 142 370 152 385 163L280 226C275 229 272 234 272 239C272 245 274 250 278 253L334 294L305 396C302 404 307 413 316 415C317 416 319 416 320 416C327 416 333 411 335 404L367 292C369 286 367 279 362 275L317 242L412 184C430 198 447 213 463 229L485 251C488 254 492 256 496 256C500 256 504 254 507 251C514 245 514 235 507 229ZM423 113C454 113 479 88 479 57S454 1 423 1C392 1 367 26 367 57S392 113 423 113ZM423 33C436 33 447 44 447 57S436 81 423 81C410 81 399 70 399 57S410 33 423 33ZM475 473C447 483 417 482 390 472L97 356C72 346 51 329 36 306L29 295C25 288 15 286 7 291C0 295 -2 305 3 313L9 323C27 352 54 374 85 386L379 501C397 508 416 512 435 512C452 512 469 509 485 503C494 501 498 491 495 483C492 475 483 470 475 473Z"/></svg>