<svg xmlns="http://www.w3.org/2000/svg" viewBox="0 0 384 512"><!-- Font Awesome Pro 6.0.0-alpha1 by @fontawesome - https://fontawesome.com License - https://fontawesome.com/license (Commercial License) --><path d="M368 448H318L304 334C303 326 296 320 288 320H144C135 320 128 313 128 304V224H256C265 224 272 217 272 208C272 199 265 192 256 192H128V160C128 151 121 144 112 144S96 151 96 160V304C96 330 118 352 144 352H274L288 466C289 474 296 480 304 480H368C377 480 384 473 384 464S377 448 368 448ZM208 416H131C77 416 32 371 32 317V144C32 135 25 128 16 128S0 135 0 144V317C0 389 59 448 131 448H208C217 448 224 441 224 432S217 416 208 416ZM136 112C167 112 192 87 192 56S167 0 136 0S80 25 80 56S105 112 136 112ZM136 32C149 32 160 43 160 56C160 69 149 80 136 80S112 69 112 56C112 43 123 32 136 32Z"/></svg>