<svg xmlns="http://www.w3.org/2000/svg" viewBox="0 0 640 512"><!-- Font Awesome Pro 6.0.0-alpha1 by @fontawesome - https://fontawesome.com License - https://fontawesome.com/license (Commercial License) --><path d="M256 384H64C29 384 0 413 0 448S29 512 64 512H256C291 512 320 483 320 448S291 384 256 384ZM256 480H64C46 480 32 466 32 448S46 416 64 416H256C274 416 288 430 288 448S274 480 256 480ZM637 438C631 431 621 430 614 435L567 470C566 472 563 473 561 474L505 404L568 366C573 363 576 358 576 352V256C576 250 573 245 568 242L396 148L366 89C362 81 353 78 345 82C337 86 334 95 338 103L366 159L333 208H295L248 162C237 150 222 144 206 144C181 144 159 159 150 182L129 234C126 242 130 252 138 255C140 256 142 256 144 256C150 256 156 252 159 246L180 194C187 176 212 171 226 184L277 235C280 238 284 240 288 240H311L279 288H96C90 288 84 291 82 297L66 329C62 337 65 346 73 350C81 354 90 351 94 343L106 320H288C293 320 298 317 301 313L389 181L544 266V343L476 384H352C343 384 336 391 336 400S343 416 352 416H474C475 417 475 417 475 418L525 480H432C423 480 416 487 416 496S423 512 432 512H539C556 512 573 506 587 496L634 461C641 455 642 445 637 438ZM224 128C259 128 288 99 288 64C288 29 259 0 224 0S160 29 160 64C160 99 189 128 224 128ZM224 32C242 32 256 46 256 64S242 96 224 96S192 82 192 64S206 32 224 32Z"/></svg>