<svg xmlns="http://www.w3.org/2000/svg" viewBox="0 0 512 512"><!-- Font Awesome Pro 6.0.0-alpha1 by @fontawesome - https://fontawesome.com License - https://fontawesome.com/license (Commercial License) --><path d="M104 144C135 144 160 119 160 88S135 32 104 32S48 57 48 88S73 144 104 144ZM104 64C117 64 128 75 128 88S117 112 104 112S80 101 80 88S91 64 104 64ZM162 374C169 374 175 373 182 371L196 367C204 365 210 357 208 348C205 339 197 334 188 336L174 340C152 346 130 335 119 315L30 137C26 129 17 126 9 130C1 134 -2 143 2 151L91 329C105 357 132 374 162 374ZM256 208C265 208 272 201 272 192V16C272 7 265 0 256 0S240 7 240 16V192C240 201 247 208 256 208ZM496 288C487 288 480 295 480 304C480 324 467 343 447 350L304 405V256C304 251 302 246 298 243S289 239 284 240L169 269L126 185C122 177 113 174 105 178C97 182 94 191 98 199L146 295C149 302 157 305 164 304L272 277V416C272 416 272 417 272 417L106 481C98 484 94 493 97 502C99 508 106 512 112 512C114 512 116 512 118 511L458 380C491 368 512 338 512 304C512 295 505 288 496 288Z"/></svg>