<svg xmlns="http://www.w3.org/2000/svg" viewBox="0 0 512 512"><!-- Font Awesome Pro 6.0.0-alpha1 by @fontawesome - https://fontawesome.com License - https://fontawesome.com/license (Commercial License) --><path d="M432 0C378 0 361 122 356 174C355 183 361 191 370 192C379 193 387 186 388 177C398 68 424 32 432 32C446 32 480 108 480 256S446 480 432 480C425 480 400 447 389 348C388 339 380 332 371 334C362 334 356 342 357 351C364 411 383 512 432 512C487 512 512 379 512 256S487 0 432 0ZM221 153C223 154 225 155 227 156C248 166 266 184 276 205L297 245C305 262 321 272 340 272H400C409 272 416 265 416 256S409 240 400 240H340C334 240 328 237 325 231L305 190C291 163 269 141 242 127C222 117 200 112 178 112H139C128 112 118 115 110 122L54 163C47 169 46 179 51 186C57 193 67 194 74 189L129 147C132 145 135 144 139 144H178C182 144 186 145 189 145L154 215C137 251 148 294 180 317L285 391L257 492C254 500 259 509 268 511C269 512 271 512 272 512C279 512 285 507 287 500L319 388C321 382 319 375 313 371L198 291C179 277 172 251 183 230L221 153ZM135 338C127 334 118 337 114 345L102 368H16C7 368 0 375 0 384S7 400 16 400H112C118 400 124 397 126 391L142 359C146 351 143 342 135 338ZM280 112C311 112 336 87 336 56S311 0 280 0S224 25 224 56S249 112 280 112ZM280 32C293 32 304 43 304 56S293 80 280 80S256 69 256 56S267 32 280 32Z"/></svg>