<svg xmlns="http://www.w3.org/2000/svg" viewBox="0 0 512 512"><!-- Font Awesome Pro 6.0.0-alpha1 by @fontawesome - https://fontawesome.com License - https://fontawesome.com/license (Commercial License) --><path d="M128 144H281L188 237C182 243 177 250 174 257L114 360C110 368 112 377 120 382C123 383 125 384 128 384C134 384 139 381 142 376L202 272C204 268 207 264 211 260L331 139C336 135 337 128 335 122C332 116 326 112 320 112H128C119 112 112 119 112 128S119 144 128 144ZM408 112C439 112 464 87 464 56S439 0 408 0S352 25 352 56S377 112 408 112ZM408 32C421 32 432 43 432 56S421 80 408 80S384 69 384 56S395 32 408 32ZM500 177C491 174 483 180 481 188C472 222 449 251 417 268L9 482C1 486 -2 496 2 503C5 509 10 512 16 512C18 512 21 511 23 510L432 296C471 276 501 239 511 196C514 187 509 179 500 177Z"/></svg>