<svg xmlns="http://www.w3.org/2000/svg" viewBox="0 0 640 512"><!-- Font Awesome Pro 6.0.0-alpha1 by @fontawesome - https://fontawesome.com License - https://fontawesome.com/license (Commercial License) --><path d="M157 202C160 206 170 212 178 204L283 115C289 110 290 100 284 93C268 74 246 64 223 64C206 64 189 70 175 82L117 131C111 136 110 146 116 153L157 202ZM196 106C206 98 216 96 223 96C232 96 240 99 248 103L171 169L150 145L196 106ZM384 128C419 128 448 99 448 64C448 29 419 0 384 0S320 29 320 64C320 99 349 128 384 128ZM384 32C402 32 416 46 416 64S402 96 384 96S352 82 352 64S366 32 384 32ZM251 223L312 172C317 167 325 167 331 171L407 221C410 223 413 224 416 224H480C489 224 496 217 496 208S489 192 480 192H421L349 144C331 132 308 133 291 147L230 198C222 205 218 214 219 224C219 234 224 244 233 249L304 297V416C304 425 311 432 320 432S336 425 336 416V288C336 283 333 278 329 275L251 223ZM624 352H619C617 345 614 338 610 331L614 328C620 321 620 311 614 305L591 282C588 279 584 277 580 277S572 279 569 282L565 286C558 282 551 279 544 277V272C544 263 537 256 528 256H496C487 256 480 263 480 272V277C473 279 466 282 459 286L456 282C452 279 448 277 444 277S436 279 433 282L410 305C404 311 404 321 410 327L414 331C410 338 407 345 405 352H400C391 352 384 359 384 368V400C384 409 391 416 400 416H405C407 423 410 430 414 437L410 440C404 447 404 457 410 463L433 486C436 489 440 490 444 490S452 489 455 486L459 482C466 486 473 489 480 491V496C480 505 487 512 496 512H528C537 512 544 505 544 496V491C551 489 558 486 565 482L569 486C572 489 576 491 580 491S588 489 591 486L614 463C620 457 620 447 614 440L610 437C614 430 617 423 619 416H624C633 416 640 409 640 400V368C640 359 633 352 624 352ZM512 472C463 472 424 433 424 384S463 296 512 296S600 335 600 384S561 472 512 472ZM240 352H235C233 345 230 338 226 331L230 328C236 321 236 311 230 305L207 282C204 279 200 277 196 277S188 279 185 282L181 286C174 282 167 279 160 277V272C160 263 153 256 144 256H112C103 256 96 263 96 272V277C89 279 82 282 75 286L71 282C68 279 64 277 60 277S52 279 49 282L26 305C20 311 20 321 26 327L30 331C26 338 23 345 21 352H16C7 352 0 359 0 368V400C0 409 7 416 16 416H21C23 423 26 430 30 437L26 440C20 447 20 457 26 463L49 486C52 489 56 491 60 491S68 489 71 486L75 482C82 486 89 489 96 491V496C96 505 103 512 112 512H144C153 512 160 505 160 496V491C167 489 174 486 181 482L185 486C188 489 192 491 196 491S204 489 207 486L230 463C236 457 236 447 230 440L226 437C230 430 233 423 235 416H240C249 416 256 409 256 400V368C256 359 249 352 240 352ZM128 472C79 472 40 433 40 384S79 296 128 296S216 335 216 384S177 472 128 472ZM512 360C499 360 488 371 488 384C488 397 499 408 512 408C525 408 536 397 536 384C536 371 525 360 512 360ZM128 360C115 360 104 371 104 384C104 397 115 408 128 408C141 408 152 397 152 384C152 371 141 360 128 360Z"/></svg>