<svg xmlns="http://www.w3.org/2000/svg" viewBox="0 0 448 512"><!-- Font Awesome Pro 6.0.0-alpha1 by @fontawesome - https://fontawesome.com License - https://fontawesome.com/license (Commercial License) --><path d="M296 112C327 112 352 87 352 56S327 0 296 0S240 25 240 56S265 112 296 112ZM296 32C309 32 320 43 320 56S309 80 296 80S272 69 272 56S283 32 296 32ZM151 338C143 334 134 337 130 345L118 368H32C23 368 16 375 16 384S23 400 32 400H128C134 400 140 397 142 391L158 359C162 351 159 342 151 338ZM416 240H356C350 240 344 237 341 231L321 190C307 163 285 141 258 127C238 117 216 112 194 112H155C144 112 134 115 126 122L70 163C63 169 62 179 67 186C73 193 83 194 90 189L145 147C148 145 151 144 155 144H194C198 144 202 145 205 145L170 215C153 251 164 294 196 317L301 391L273 492C270 500 275 509 284 511C285 512 287 512 288 512C295 512 301 507 303 500L335 388C337 382 335 375 329 371L214 291C195 277 188 251 199 230L237 153C239 154 241 155 243 156C264 166 282 184 292 205L313 245C321 262 337 272 356 272H416C425 272 432 265 432 256S425 240 416 240Z"/></svg>