<svg xmlns="http://www.w3.org/2000/svg" viewBox="0 0 448 512"><!-- Font Awesome Pro 6.0.0-alpha1 by @fontawesome - https://fontawesome.com License - https://fontawesome.com/license (Commercial License) --><path d="M232 181C211 157 181 144 150 144C111 144 75 165 56 200L2 296C-2 304 1 314 8 318C11 319 13 320 16 320C22 320 27 317 30 312L84 215C87 209 91 204 96 199V256C96 281 108 305 128 320L224 392V496C224 505 231 512 240 512S256 505 256 496V384C256 379 254 374 250 371L147 294C135 285 128 271 128 256V180C135 177 143 176 150 176C172 176 193 185 207 202L292 299C298 305 308 306 315 300C321 294 322 284 316 277L232 181ZM152 112C183 112 208 87 208 56S183 0 152 0S96 25 96 56S121 112 152 112ZM152 32C165 32 176 43 176 56S165 80 152 80S128 69 128 56S139 32 152 32ZM116 352C107 350 99 356 96 364L64 492C62 501 68 509 76 512C77 512 79 512 80 512C87 512 94 507 95 500L127 372C130 363 124 355 116 352ZM446 488L350 328C345 320 335 318 328 322C320 327 318 337 322 344L418 504C421 509 427 512 432 512C435 512 438 511 440 510C448 505 450 495 446 488Z"/></svg>