<svg xmlns="http://www.w3.org/2000/svg" viewBox="0 0 576 512"><!-- Font Awesome Pro 6.0.0-alpha1 by @fontawesome - https://fontawesome.com License - https://fontawesome.com/license (Commercial License) --><path d="M176 336C185 336 192 329 192 320C192 292 201 265 217 242L239 212C245 203 253 195 261 188L422 317C425 319 428 320 432 320C437 320 441 318 445 314C450 307 449 297 442 291L289 169C296 166 303 163 311 161C349 150 390 148 429 154L461 160C470 161 478 155 480 147C481 138 475 130 467 128L434 123C390 116 345 118 302 130C266 141 234 163 213 193L191 224C171 252 160 285 160 320C160 329 167 336 176 336ZM104 240C144 240 176 208 176 168C176 128 144 96 104 96C64 96 32 128 32 168C32 208 64 240 104 240ZM104 128C126 128 144 146 144 168S126 208 104 208S64 190 64 168S82 128 104 128ZM562 383C534 379 509 365 493 343C487 334 473 334 467 343C449 369 418 384 384 384C350 384 319 369 301 343C295 334 281 334 275 343C257 369 226 384 192 384C158 384 127 369 109 343C106 338 101 336 96 336S86 338 83 343C67 365 42 379 14 383C5 384 -1 392 0 401C1 410 9 416 18 415C48 411 76 397 96 377C121 402 155 416 192 416C229 416 263 402 288 377C313 402 347 416 384 416C421 416 455 402 480 377C500 397 528 411 558 415C567 416 575 410 576 401C577 392 571 384 562 383Z"/></svg>