<svg xmlns="http://www.w3.org/2000/svg" viewBox="0 0 512 512"><!-- Font Awesome Pro 6.0.0-alpha1 by @fontawesome - https://fontawesome.com License - https://fontawesome.com/license (Commercial License) --><path d="M317 340C323 362 342 376 364 376C368 376 372 376 376 375L442 358C454 355 465 348 471 337C478 326 480 313 477 300L460 234C457 221 449 211 438 204C427 198 415 196 402 199L336 215C323 218 313 226 306 237C300 248 298 261 301 274L317 340ZM334 254C336 250 339 247 344 246L410 230C414 229 418 229 422 232C426 234 428 237 429 242L446 308C448 317 443 325 434 327L368 344C359 346 351 341 349 332L332 266C331 262 332 257 334 254ZM511 395C509 387 500 382 491 385L348 428C340 402 316 384 288 384C287 384 286 384 285 384L232 161C230 153 222 147 213 149C204 151 199 160 201 169L222 256H180C174 256 168 253 165 247L124 164C113 142 90 128 65 128C29 128 0 157 0 193V285C0 303 9 319 24 327L114 379L144 500C146 507 153 512 160 512C161 512 163 512 164 512C172 509 178 501 176 492L144 364C142 360 140 356 136 354L40 299C35 296 32 291 32 285V193C32 175 47 160 65 160C78 160 90 167 95 178L137 261C145 278 161 288 180 288H229L254 394C236 405 224 425 224 448C224 483 253 512 288 512C319 512 345 490 351 460L501 415C509 413 514 404 511 395ZM288 480C270 480 256 466 256 448S270 416 288 416S320 430 320 448S306 480 288 480ZM88 112C119 112 144 87 144 56S119 0 88 0S32 25 32 56S57 112 88 112ZM88 32C101 32 112 43 112 56S101 80 88 80S64 69 64 56S75 32 88 32ZM16 352C7 352 0 359 0 368V496C0 505 7 512 16 512S32 505 32 496V368C32 359 25 352 16 352Z"/></svg>