<svg xmlns="http://www.w3.org/2000/svg" viewBox="0 0 320 512"><!-- Font Awesome Pro 6.0.0-alpha1 by @fontawesome - https://fontawesome.com License - https://fontawesome.com/license (Commercial License) --><path d="M200 112C231 112 256 87 256 56S231 0 200 0S144 25 144 56S169 112 200 112ZM200 32C213 32 224 43 224 56S213 80 200 80S176 69 176 56S187 32 200 32ZM313 275L274 249C271 247 269 244 268 241L251 190C242 163 219 143 191 137L171 133C152 129 132 133 115 143L62 175C56 178 51 183 47 189L19 231C14 238 16 248 23 253C30 258 40 256 45 249L73 207C75 205 76 203 78 202L124 175L106 246C99 275 108 306 132 326L206 390C209 392 210 395 211 398L241 500C243 507 249 512 256 512C257 512 259 512 260 511C269 509 274 500 271 492L242 389C239 380 234 372 227 366L152 302C139 290 133 271 137 254L159 164C161 165 163 164 165 165L184 168C201 172 215 184 221 200L237 251C241 261 247 270 256 275L295 301C298 303 301 304 304 304C309 304 314 302 317 297C322 290 320 280 313 275ZM119 354C111 350 102 353 98 361L68 420C67 422 66 423 65 424L5 485C-2 491 -2 501 5 507C8 510 12 512 16 512S24 510 27 507L88 447C91 443 94 439 97 435L126 375C130 367 127 358 119 354Z"/></svg>