<svg xmlns="http://www.w3.org/2000/svg" viewBox="0 0 384 512"><!-- Font Awesome Pro 6.0.0-alpha1 by @fontawesome - https://fontawesome.com License - https://fontawesome.com/license (Commercial License) --><path d="M368 176H350C342 95 275 32 192 32H80C54 32 32 53 32 80C32 104 32 138 32 176H16C7 176 0 183 0 192S7 208 16 208H32C32 220 32 232 32 245C32 275 32 306 32 334C32 335 32 335 32 336C32 337 32 337 32 338C32 395 32 444 32 464C32 473 39 480 48 480H48C57 480 64 473 64 464C64 446 64 403 64 352H192C275 352 342 289 350 208H368C377 208 384 201 384 192S377 176 368 176ZM64 80C64 71 71 64 80 64H192C257 64 310 113 318 176H64C64 138 64 104 64 80ZM192 320H64C64 296 64 270 64 245C64 232 64 220 64 208H318C310 271 257 320 192 320Z"/></svg>