<svg xmlns="http://www.w3.org/2000/svg" viewBox="0 0 384 512"><!-- Font Awesome Pro 6.0.0-alpha1 by @fontawesome - https://fontawesome.com License - https://fontawesome.com/license (Commercial License) --><path d="M368 240H349C351 230 352 219 352 208C352 203 352 197 351 192H368C377 192 384 185 384 176S377 160 368 160H345C324 86 256 32 176 32H48C39 32 32 39 32 48C32 65 32 108 32 160H16C7 160 0 167 0 176S7 192 16 192H32C32 208 32 224 32 240H16C7 240 0 247 0 256S7 272 16 272H32C32 305 32 337 32 366C32 366 32 367 32 368S32 370 32 370C32 413 32 448 32 464C32 473 39 480 48 480H48C57 480 64 473 64 464C64 450 64 420 64 384H176C250 384 314 337 340 272H368C377 272 384 265 384 256S377 240 368 240ZM64 64H176C239 64 291 104 311 160H64C64 120 64 86 64 64ZM64 192H318C319 197 320 203 320 208C320 219 318 230 316 240H64C64 224 64 208 64 192ZM176 352H64C64 327 64 300 64 272H304C281 319 232 352 176 352Z"/></svg>