<svg xmlns="http://www.w3.org/2000/svg" viewBox="0 0 512 512"><!-- Font Awesome Pro 6.0.0-alpha1 by @fontawesome - https://fontawesome.com License - https://fontawesome.com/license (Commercial License) --><path d="M1 382L23 477C28 498 46 512 67 512C312 512 512 312 512 67C512 46 498 28 477 23L382 1C361 -4 339 7 331 27L287 129C279 148 284 169 300 182L340 215C312 268 268 312 215 340L182 300C169 285 148 279 129 287L27 331C27 331 27 331 27 331C7 339 -4 361 1 382ZM32 375C31 369 34 363 40 360L142 316C147 314 153 316 157 320L198 371C203 377 211 378 218 375C286 342 341 286 375 218C378 211 376 203 371 199L320 157C316 154 314 147 316 142L360 40C362 35 367 32 372 32C373 32 374 32 375 32L470 54C476 56 480 61 480 67C480 295 295 480 67 480C61 480 56 476 54 470L32 375Z"/></svg>