<svg xmlns="http://www.w3.org/2000/svg" viewBox="0 0 512 512"><!-- Font Awesome Pro 6.0.0-alpha1 by @fontawesome - https://fontawesome.com License - https://fontawesome.com/license (Commercial License) --><path d="M485 331C485 331 485 331 485 331L383 287C364 279 343 285 330 300L297 341C244 312 200 268 172 215L212 182C228 169 233 148 225 129L181 27C173 7 151 -4 130 1L35 23C14 28 0 46 0 67C0 312 200 512 445 512C466 512 484 498 489 477L511 382C516 361 505 339 485 331ZM458 470C456 476 451 480 445 480C217 480 32 295 32 67C32 61 36 56 42 54L137 32C138 32 139 32 140 32C145 32 150 35 152 40L196 142C198 147 196 154 192 157L141 199C136 203 134 211 137 218C170 286 226 342 294 375C301 378 309 377 313 371L355 320C359 316 365 314 370 316L472 360C478 363 481 369 480 375L458 470ZM336 112H400V176C400 185 407 192 416 192S432 185 432 176V112H496C505 112 512 105 512 96S505 80 496 80H432V16C432 7 425 0 416 0S400 7 400 16V80H336C327 80 320 87 320 96S327 112 336 112Z"/></svg>