<svg xmlns="http://www.w3.org/2000/svg" viewBox="0 0 512 512"><!-- Font Awesome Pro 6.0.0-alpha1 by @fontawesome - https://fontawesome.com License - https://fontawesome.com/license (Commercial License) --><path d="M485 331H485L383 287A46 46 0 0 0 330 300L297 341A315 315 0 0 1 172 215L212 182A45 45 0 0 0 225 129L181 27A45 45 0 0 0 130 1L35 23A45 45 0 0 0 0 67A445 445 0 0 0 445 512A45 45 0 0 0 489 477L511 382A45 45 0 0 0 485 331ZM458 470A13 13 0 0 1 445 480A413 413 0 0 1 32 67A13 13 0 0 1 42 54L137 33A12 12 0 0 1 140 32A13 13 0 0 1 152 40L196 142A13 13 0 0 1 192 157L141 199A16 16 0 0 0 137 218A346 346 0 0 0 294 375A16 16 0 0 0 313 371L355 320A13 13 0 0 1 370 316L472 360A13 13 0 0 1 480 375ZM304 224H432A16 16 0 0 0 432 192H343L507 27A16 16 0 0 0 485 5L320 169V80A16 16 0 0 0 288 80V208A16 16 0 0 0 304 224Z"/></svg>