<svg xmlns="http://www.w3.org/2000/svg" viewBox="0 0 640 512"><!-- Font Awesome Pro 6.0.0-alpha1 by @fontawesome - https://fontawesome.com License - https://fontawesome.com/license (Commercial License) --><path d="M620 169C607 160 592 158 577 162L449 205C429 212 416 230 416 251V408C407 403 396 400 384 400C349 400 320 425 320 456S349 512 384 512S448 487 448 456V339L608 285V344C599 339 588 336 576 336C541 336 512 361 512 392S541 448 576 448S640 423 640 392V208C640 192 633 178 620 169ZM384 480C367 480 352 469 352 456S367 432 384 432S416 443 416 456S401 480 384 480ZM576 416C559 416 544 405 544 392S559 368 576 368S608 379 608 392S593 416 576 416ZM608 252L448 305V251C448 244 452 238 459 235L587 193C592 191 597 192 601 195C606 198 608 203 608 208V252ZM337 206C341 211 354 217 362 205L417 127L442 162C446 168 453 170 460 168L460 168C470 164 474 152 468 143L443 108C431 92 404 92 393 108L349 169L342 160C329 145 306 145 293 160L230 241C223 250 222 262 228 272C233 282 243 288 254 288H368C377 288 384 281 384 272V272C384 263 377 256 368 256H258L316 180L337 206ZM224 352H368C377 352 384 345 384 336V336C384 327 377 320 368 320H224C206 320 192 306 192 288V64C192 46 206 32 224 32H544C562 32 576 46 576 64V112C576 121 583 128 592 128L592 128C601 128 608 121 608 112V64C608 29 579 0 544 0H224C189 0 160 29 160 64V288C160 323 189 352 224 352ZM280 96C280 83 269 72 256 72C243 72 232 83 232 96S243 120 256 120C269 120 280 109 280 96ZM128 96H64C29 96 0 125 0 160V384C0 419 29 448 64 448H272C281 448 288 441 288 432V432C288 423 281 416 272 416H128V96ZM96 416H64C46 416 32 402 32 384V352H96V416ZM96 320H32V224H96V320ZM96 192H32V160C32 142 46 128 64 128H96V192Z"/></svg>