<svg xmlns="http://www.w3.org/2000/svg" viewBox="0 0 576 512"><!-- Font Awesome Pro 6.0.0-alpha1 by @fontawesome - https://fontawesome.com License - https://fontawesome.com/license (Commercial License) --><path d="M432 216C419 216 408 227 408 240S419 264 432 264S456 253 456 240S445 216 432 216ZM544 192H530C519 167 502 145 480 129V64H464C417 64 381 91 375 96H224C183 96 141 113 112 142C90 164 74 192 67 224H56C41 224 29 210 32 195C34 187 41 179 52 177C59 175 64 169 64 161C64 151 55 143 45 146C22 151 4 169 0 193C-4 227 23 256 56 256H64C64 308 89 354 128 383V432C128 458 150 480 176 480H224C250 480 272 458 272 432V416H336V432C336 458 358 480 384 480H432C458 480 480 458 480 432V383C492 374 502 364 511 352H544C562 352 576 338 576 320V224C576 206 562 192 544 192ZM544 320H495C478 342 478 344 448 367V432C448 441 441 448 432 448H384C375 448 368 441 368 432V384H240V432C240 441 233 448 224 448H176C167 448 160 441 160 432V367C95 318 96 274 96 256C96 185 153 128 224 128H386C403 114 419 102 448 97V145C488 175 492 184 510 224H544V320Z"/></svg>