<svg xmlns="http://www.w3.org/2000/svg" viewBox="0 0 576 512"><!-- Font Awesome Pro 6.0.0-alpha1 by @fontawesome - https://fontawesome.com License - https://fontawesome.com/license (Commercial License) --><path d="M414 446C327 534 185 534 98 446C10 359 10 217 98 130C185 42 327 42 414 130C421 136 431 136 437 130C443 123 443 113 437 107C337 7 175 7 75 107C-25 207 -25 369 75 469C125 519 190 544 256 544C322 544 387 519 437 469C443 463 443 453 437 446C431 440 421 440 414 446ZM395 175C401 169 401 158 395 152C359 116 311 96 259 96C208 96 160 116 124 152C49 227 49 349 124 424C160 460 208 480 259 480C311 480 359 460 395 424C401 418 401 407 395 401C389 395 379 395 373 401C342 431 302 448 259 448C217 448 176 431 146 401C84 339 84 237 146 175C176 145 217 128 259 128C302 128 342 145 373 175C379 181 389 181 395 175ZM507 133C504 130 500 128 496 128H496C492 128 488 130 485 133L341 277C338 280 336 284 336 288S338 297 341 300L494 444C498 447 501 448 505 448C510 448 514 447 517 443C599 360 595 221 507 133ZM505 409L375 288L496 167C557 239 560 342 505 409ZM240 200C240 187 229 176 216 176S192 187 192 200S203 224 216 224S240 213 240 200ZM128 296C128 309 139 320 152 320S176 309 176 296S165 272 152 272S128 283 128 296ZM248 416C261 416 272 405 272 392S261 368 248 368S224 379 224 392S235 416 248 416ZM456 288C443 288 432 299 432 312S443 336 456 336C469 336 480 325 480 312S469 288 456 288Z"/></svg>