<svg xmlns="http://www.w3.org/2000/svg" viewBox="0 0 576 512"><!-- Font Awesome Pro 6.0.0-alpha1 by @fontawesome - https://fontawesome.com License - https://fontawesome.com/license (Commercial License) --><path d="M464 176H375L275 16C269 7 258 0 247 0H181C171 0 162 5 156 13C150 21 148 31 151 41L193 176H136L98 125C92 117 82 112 72 112H32C22 112 13 116 7 124C1 132 -1 142 1 152L31 256L1 360C-1 370 1 380 7 388C13 396 22 400 32 400H72C82 400 92 395 98 387L136 336H193L150 471C148 481 150 491 156 499C162 507 171 512 181 512H247C258 512 269 506 274 496L375 336H464C502 336 576 305 576 256S502 176 464 176ZM464 304H357L247 480L181 480L237 304H120L72 368L32 369L65 256L32 144H72L120 208H237L181 32H247L357 208H464C496 208 544 234 544 256S496 304 464 304Z"/></svg>