<svg xmlns="http://www.w3.org/2000/svg" viewBox="0 0 512 512"><!-- Font Awesome Pro 6.0.0-alpha1 by @fontawesome - https://fontawesome.com License - https://fontawesome.com/license (Commercial License) --><path d="M176 112V153L16 254C7 259 0 270 0 281V347C0 357 5 366 13 372C21 378 31 380 41 377L176 335V376L125 414C117 420 112 430 112 440V480C112 490 116 499 124 505C132 511 142 513 152 511L256 481L360 511C370 513 380 511 388 505C396 499 400 490 400 480V440C400 430 395 420 387 414L336 376V335L471 378C481 380 491 378 499 372C507 366 512 357 512 347V281C512 270 506 259 496 254L336 153V112C336 74 305 0 256 0S176 74 176 112ZM304 112V171L480 281L480 347L304 291V392L368 440L369 480L256 447L144 480V440L208 392V291L32 347V281L208 171V112C208 80 234 32 256 32S304 80 304 112Z"/></svg>