<svg xmlns="http://www.w3.org/2000/svg" viewBox="0 0 640 512"><!-- Font Awesome Pro 6.0.0-alpha1 by @fontawesome - https://fontawesome.com License - https://fontawesome.com/license (Commercial License) --><path d="M624 480H17C8 480 1 487 1 496C1 505 8 512 17 512H624C633 512 640 505 640 496C640 487 633 480 624 480ZM80 371C88 379 99 384 110 384L237 384C248 384 259 381 270 376L553 236C582 222 606 201 621 178C639 150 643 128 634 109C623 86 592 79 562 79C536 79 509 85 483 98L390 144L181 68C177 65 173 64 168 64C164 64 160 65 156 67L92 98C85 102 80 109 79 118C78 127 82 136 90 141L227 225L143 267L76 234C69 230 60 230 53 234L14 253C7 257 2 263 0 271S1 286 6 292L80 371ZM65 264L143 302L293 228L119 121L168 97L392 179L497 127C519 116 540 111 562 111C578 111 601 114 606 124C609 131 605 144 594 160C582 179 563 195 539 207L255 347C250 350 243 352 237 352L110 352C108 352 105 351 104 349L36 278L65 264Z"/></svg>