<svg xmlns="http://www.w3.org/2000/svg" viewBox="0 0 576 512"><!-- Font Awesome Pro 6.0.0-alpha1 by @fontawesome - https://fontawesome.com License - https://fontawesome.com/license (Commercial License) --><path d="M224 64C100 64 0 164 0 288S100 512 224 512S448 412 448 288S348 64 224 64ZM55 203C82 143 142 104 208 104C224 104 232 114 232 125C232 135 229 146 223 155L175 210C161 226 161 253 177 268C185 276 196 280 207 280H272C285 280 296 291 296 304V321C296 330 294 338 290 346L250 411C247 417 241 421 235 422C231 422 228 423 224 423C219 423 216 420 216 415C216 344 216 370 216 360H208C195 360 184 349 184 336V301L127 244C119 236 109 232 99 232H74C58 232 49 216 55 203ZM224 480C118 480 32 394 32 288C32 274 34 261 36 248C46 258 60 264 74 264H99C101 264 103 265 104 266L152 314V336C152 358 165 377 184 387C184 388 184 387 184 415C184 437 202 455 224 455C229 455 238 454 240 453C257 450 271 440 278 425L319 360C325 348 328 334 328 321V304C328 273 303 248 272 248H207C204 248 200 247 198 244C195 241 195 236 198 233L247 176L248 175L249 174C259 159 264 142 264 125C264 116 262 107 257 99C347 115 416 194 416 288C416 394 330 480 224 480ZM512 0C477 0 448 29 448 64S477 128 512 128S576 99 576 64S547 0 512 0ZM512 96C494 96 480 82 480 64S494 32 512 32S544 46 544 64S530 96 512 96Z"/></svg>