<svg xmlns="http://www.w3.org/2000/svg" viewBox="0 0 512 512"><!-- Font Awesome Pro 6.0.0-alpha1 by @fontawesome - https://fontawesome.com License - https://fontawesome.com/license (Commercial License) --><path d="M498 13C477 -8 435 -4 376 28C369 32 366 42 370 50C374 58 384 60 391 56C438 31 468 28 476 36C482 43 485 70 451 130C446 137 441 145 436 153C400 90 333 48 256 48C141 48 48 141 48 256C48 333 90 400 153 436C145 441 137 446 130 451C70 485 43 482 36 476C28 468 31 438 56 391C60 384 57 374 50 370C42 366 32 369 28 376C-4 435 -8 477 13 498C22 507 35 512 50 512C74 512 106 501 145 478C159 471 173 462 187 452C209 460 232 464 256 464C371 464 464 371 464 256C464 232 460 209 452 187C462 173 471 159 478 145C515 81 522 37 498 13ZM80 256C80 159 159 80 256 80C327 80 388 122 416 183C387 224 350 267 308 308C267 350 224 387 183 416C122 388 80 327 80 256ZM432 256C432 353 353 432 256 432C244 432 232 431 220 428C257 401 294 368 331 331S401 257 428 220C431 232 432 244 432 256Z"/></svg>