<svg xmlns="http://www.w3.org/2000/svg" viewBox="0 0 384 512"><!-- Font Awesome Pro 6.0.0-alpha1 by @fontawesome - https://fontawesome.com License - https://fontawesome.com/license (Commercial License) --><path d="M304 16C304 7 297 0 288 0S272 7 272 16V112H304V16ZM112 16C112 7 105 0 96 0S80 7 80 16V112H112V16ZM368 144H16C7 144 0 151 0 160S7 176 16 176H32V240C32 323 95 390 176 398V496C176 505 183 512 192 512S208 505 208 496V398C289 390 352 323 352 240V176H368C377 176 384 169 384 160S377 144 368 144ZM320 240C320 311 263 368 192 368S64 311 64 240V176H320V240Z"/></svg>