<svg xmlns="http://www.w3.org/2000/svg" viewBox="0 0 448 512"><!-- Font Awesome Pro 6.0.0-alpha1 by @fontawesome - https://fontawesome.com License - https://fontawesome.com/license (Commercial License) --><path d="M224 312C191 312 160 321 160 356C160 389 173 460 181 488C186 508 205 512 224 512S262 508 267 489C275 460 288 389 288 356C288 321 257 312 224 312ZM237 478C231 480 217 480 211 478C203 450 192 383 192 356C192 339 256 339 256 356C256 383 245 450 237 478ZM224 160C189 160 160 189 160 224S189 288 224 288S288 259 288 224S259 160 224 160ZM224 256C206 256 192 242 192 224S206 192 224 192S256 206 256 224S242 256 224 256ZM224 0C101 0 0 100 0 224C0 293 31 358 86 401C93 406 103 405 109 398C114 391 113 381 106 375C59 339 32 283 32 224C32 118 118 32 224 32S416 118 416 224C416 283 389 339 342 375C335 381 334 391 339 398C343 402 347 404 352 404C355 404 359 403 362 401C417 358 448 293 448 224C448 100 347 0 224 0ZM368 224C368 145 303 80 224 80S80 145 80 224C80 249 87 274 99 296C104 304 114 306 121 302C129 297 131 288 127 280C117 263 112 244 112 224C112 162 162 112 224 112S336 162 336 224C336 244 331 263 321 280C317 288 319 297 327 302C329 303 332 304 335 304C340 304 346 301 349 296C361 274 368 249 368 224Z"/></svg>