<svg xmlns="http://www.w3.org/2000/svg" viewBox="0 0 448 512"><!-- Font Awesome Pro 6.0.0-alpha1 by @fontawesome - https://fontawesome.com License - https://fontawesome.com/license (Commercial License) --><path d="M432 160H96V144C96 104 125 71 163 65C170 83 188 96 208 96H270C295 96 317 78 320 54C323 25 301 0 272 0H208C187 0 169 14 162 33C107 40 64 87 64 144V160H16C7 160 0 167 0 176C0 185 7 192 16 192H432C441 192 448 185 448 176C448 167 441 160 432 160ZM208 32H272C281 32 288 39 288 48S281 64 272 64H208C199 64 192 57 192 48S199 32 208 32ZM386 224C377 223 369 229 368 238L342 469C341 475 336 480 329 480H119C112 480 107 475 106 469L80 238C79 229 71 223 62 224C53 225 47 233 48 242L74 473C77 495 96 512 119 512H329C352 512 371 495 374 473L400 242C401 233 395 225 386 224Z"/></svg>