<svg xmlns="http://www.w3.org/2000/svg" viewBox="0 0 448 512"><!-- Font Awesome Pro 6.0.0-alpha1 by @fontawesome - https://fontawesome.com License - https://fontawesome.com/license (Commercial License) --><path d="M200 248H136C127 248 120 255 120 264V328C120 337 127 344 136 344H200C209 344 216 337 216 328V264C216 255 209 248 200 248ZM192 320H144V272H192V320ZM248 128C239 128 232 135 232 144V208C232 217 239 224 248 224H312C321 224 328 217 328 208V144C328 135 321 128 312 128H248ZM276 200H256V180H276V200ZM276 172H256V152H276V172ZM304 200H284V180H304V200ZM304 172H284V152H304V172ZM200 128H136C127 128 120 135 120 144V208C120 217 127 224 136 224H200C209 224 216 217 216 208V144C216 135 209 128 200 128ZM164 200H144V180H164V200ZM164 172H144V152H164V172ZM192 200H172V180H192V200ZM192 172H172V152H192V172ZM400 480H384V96C384 78 370 64 352 64V48C352 39 345 32 336 32H240V16C240 7 233 0 224 0S208 7 208 16V32H112C103 32 96 39 96 48V64C78 64 64 78 64 96V480H48C39 480 32 487 32 496C32 505 39 512 48 512H400C409 512 416 505 416 496C416 487 409 480 400 480ZM352 480H96V96H128V64H320V96H352V480Z"/></svg>