<svg xmlns="http://www.w3.org/2000/svg" viewBox="0 0 512 512"><!-- Font Awesome Pro 6.0.0-alpha1 by @fontawesome - https://fontawesome.com License - https://fontawesome.com/license (Commercial License) --><path d="M320 296C333 296 344 285 344 272S333 248 320 248C307 248 296 259 296 272S307 296 320 296ZM192 296C205 296 216 285 216 272S205 248 192 248C179 248 168 259 168 272S179 296 192 296ZM473 348C479 336 483 321 483 307C483 267 457 234 422 222C424 214 425 206 425 198C425 161 401 130 367 119C367 117 367 114 367 111C367 50 317 0 256 0C256 0 254 0 254 0C243 0 233 6 227 16C222 25 221 37 226 47C230 53 231 60 231 68C231 94 210 116 184 116H169C124 116 87 153 87 198C87 206 88 214 90 222C55 234 29 267 29 307C29 321 33 336 39 348C15 364 0 392 0 422C0 472 40 512 90 512H422C472 512 512 472 512 422C512 392 497 364 473 348ZM422 480H90C58 480 32 454 32 422C32 394 52 370 81 366C87 365 89 356 84 352C69 341 61 325 61 307C61 275 87 249 119 249H131C138 249 141 240 136 236C125 226 119 213 119 198C119 170 141 148 169 148H184C228 148 263 112 263 68C263 55 261 43 255 32C297 31 335 66 335 111C335 120 334 129 330 138C329 143 331 148 343 148C371 148 393 170 393 198C393 213 387 226 376 236C371 240 374 249 381 249H393C425 249 451 275 451 307C451 325 443 341 428 352C423 356 425 365 431 366C460 370 480 394 480 422C480 454 454 480 422 480ZM352 352H160C155 352 150 354 147 358C144 362 143 368 145 372C157 416 214 448 256 448S355 416 367 372C369 368 368 362 365 358C362 354 357 352 352 352ZM256 416C232 416 204 402 188 384H324C308 402 280 416 256 416Z"/></svg>