<svg xmlns="http://www.w3.org/2000/svg" viewBox="0 0 448 512"><!-- Font Awesome Pro 6.0.0-alpha1 by @fontawesome - https://fontawesome.com License - https://fontawesome.com/license (Commercial License) --><path d="M445 198C442 194 437 192 432 192H16C11 192 6 194 3 198C0 202 -1 207 1 212L81 500C82 507 89 512 96 512H352C359 512 365 507 367 500L447 212C449 207 448 202 445 198ZM340 480H108L37 224H98L128 434C129 442 136 448 144 448C145 448 145 448 146 448C155 447 161 438 160 430L130 224H208V432C208 441 215 448 224 448S240 441 240 432V224H318L288 430C287 438 293 447 302 448C302 448 303 448 304 448C312 448 319 442 320 434L350 224H411L340 480ZM22 147C28 136 38 128 49 123C47 111 50 99 56 88C66 72 83 61 102 60C108 43 122 29 140 24C152 20 164 20 176 24C183 14 194 6 206 3C231 -5 257 4 272 24C283 20 296 20 308 24C326 29 340 43 346 60C365 61 382 72 392 89C398 99 400 111 399 123C410 128 419 136 425 147C430 154 427 164 420 169C412 173 402 171 398 163C393 156 386 151 377 150C372 150 367 146 364 142C362 137 362 131 364 126C368 119 368 111 364 104C359 95 347 90 336 92C331 93 326 92 323 89S317 81 317 77C316 67 309 58 299 54C290 52 281 53 274 58C269 62 263 62 257 60C253 58 250 54 249 49C249 49 249 49 249 49C244 36 229 29 215 33C207 36 201 42 198 50C197 55 193 59 188 60C183 62 178 61 174 58C167 53 158 52 149 54C139 58 132 67 131 77C131 82 129 86 125 89C122 92 117 93 112 92C101 90 89 95 84 105C80 111 80 120 83 126C86 131 86 137 84 141S76 150 71 150C62 151 54 156 50 163C47 168 42 171 36 171C34 171 31 170 29 169C21 165 18 155 22 147Z"/></svg>