<svg xmlns="http://www.w3.org/2000/svg" viewBox="0 0 512 512"><!-- Font Awesome Pro 6.0.0-alpha1 by @fontawesome - https://fontawesome.com License - https://fontawesome.com/license (Commercial License) --><path d="M359 57C352 53 342 56 338 64C334 72 337 82 345 86C408 119 448 184 448 256C448 362 362 448 256 448S64 362 64 256C64 184 104 119 167 86C175 82 178 72 174 64C170 56 160 53 153 57C78 96 32 172 32 256C32 379 132 480 256 480S480 379 480 256C480 172 434 96 359 57ZM256 288C265 288 272 281 272 272V16C272 7 265 0 256 0S240 7 240 16V272C240 281 247 288 256 288Z"/></svg>