<svg xmlns="http://www.w3.org/2000/svg" viewBox="0 0 384 512"><!-- Font Awesome Pro 6.0.0-alpha1 by @fontawesome - https://fontawesome.com License - https://fontawesome.com/license (Commercial License) --><path d="M336 160C327 160 320 167 320 176V448C320 466 306 480 288 480H96C78 480 64 466 64 448V416H144C153 416 160 409 160 400C160 391 153 384 144 384H64V320H144C153 320 160 313 160 304C160 295 153 288 144 288H64V224H144C153 224 160 217 160 208C160 199 153 192 144 192H64V176C64 167 57 160 48 160S32 167 32 176V448C32 483 61 512 96 512H288C323 512 352 483 352 448V176C352 167 345 160 336 160ZM352 0H32C14 0 0 14 0 32V96C0 114 14 128 32 128H352C370 128 384 114 384 96V32C384 14 370 0 352 0ZM352 96H32V32H352V96Z"/></svg>