<svg xmlns="http://www.w3.org/2000/svg" viewBox="0 0 640 512"><!-- Font Awesome Pro 6.0.0-alpha1 by @fontawesome - https://fontawesome.com License - https://fontawesome.com/license (Commercial License) --><path d="M480 71V192H342L383 224H512C530 224 544 238 544 256V351L574 375C575 373 576 371 576 368V256C576 221 547 192 512 192V71C512 62 509 54 503 48L464 9C458 3 450 0 441 0H160V32H441L480 71ZM472 272C472 285 483 296 496 296S520 285 520 272C520 259 509 248 496 248S472 259 472 272ZM634 483L26 3C19 -2 9 -1 3 6C-2 13 -1 23 6 29L614 509C617 511 621 512 624 512C629 512 633 510 637 506C642 499 641 489 634 483ZM176 224L128 186V192C93 192 64 221 64 256V368C64 377 71 384 80 384S96 377 96 368V256C96 238 110 224 128 224H176ZM480 480H160V352H338L298 320H160C142 320 128 334 128 352V480C128 498 142 512 160 512H480C495 512 507 502 510 488L480 464V480Z"/></svg>