<svg xmlns="http://www.w3.org/2000/svg" viewBox="0 0 512 512"><!-- Font Awesome Pro 6.0.0-alpha1 by @fontawesome - https://fontawesome.com License - https://fontawesome.com/license (Commercial License) --><path d="M416 320H96C78 320 64 334 64 352V480C64 498 78 512 96 512H416C434 512 448 498 448 480V352C448 334 434 320 416 320ZM416 480H96V352H416V480ZM448 192V71C448 62 445 54 439 48L400 9C394 3 386 0 377 0H128C93 0 64 29 64 64V192C29 192 0 221 0 256V368C0 377 7 384 16 384S32 377 32 368V256C32 238 46 224 64 224H448C466 224 480 238 480 256V368C480 377 487 384 496 384S512 377 512 368V256C512 221 483 192 448 192ZM416 192H96V64C96 46 110 32 128 32H377L416 71V192ZM432 248C419 248 408 259 408 272C408 285 419 296 432 296S456 285 456 272C456 259 445 248 432 248Z"/></svg>