<svg xmlns="http://www.w3.org/2000/svg" viewBox="0 0 640 512"><!-- Font Awesome Pro 6.0.0-alpha1 by @fontawesome - https://fontawesome.com License - https://fontawesome.com/license (Commercial License) --><path d="M309 123C312 126 316 128 320 128S328 126 331 123C338 117 338 107 331 101L267 37C261 30 251 30 245 37S238 53 245 59L309 123ZM416 128C425 128 432 121 432 112V16C432 7 425 0 416 0S400 7 400 16V112C400 121 407 128 416 128ZM240 416H64C46 416 32 402 32 384V256C32 238 46 224 64 224H240C249 224 256 217 256 208C256 199 249 192 240 192H64C29 192 0 221 0 256V384C0 408 13 428 32 439V496C32 505 39 512 48 512S64 505 64 496V448H240C249 448 256 441 256 432C256 423 249 416 240 416ZM512 128C516 128 520 126 523 123L587 59C594 53 594 43 587 37S571 30 565 37L501 101C494 107 494 117 501 123C504 126 508 128 512 128ZM596 195C586 192 576 199 576 209C576 217 580 223 587 226C599 230 608 242 608 256V384C608 396 602 406 592 412C582 417 576 428 576 439V495C576 503 581 510 589 512C599 513 608 506 608 496V439C627 428 640 408 640 384V256C640 228 621 203 596 195ZM416 160C328 160 256 232 256 320S328 480 416 480S576 408 576 320S504 160 416 160ZM416 448C345 448 288 391 288 320C288 249 345 192 416 192S544 249 544 320C544 391 487 448 416 448ZM168 320C168 333 179 344 192 344C205 344 216 333 216 320C216 307 205 296 192 296C179 296 168 307 168 320ZM72 320C72 333 83 344 96 344C109 344 120 333 120 320C120 307 109 296 96 296C83 296 72 307 72 320Z"/></svg>