<svg xmlns="http://www.w3.org/2000/svg" viewBox="0 0 640 512"><!-- Font Awesome Pro 6.0.0-alpha1 by @fontawesome - https://fontawesome.com License - https://fontawesome.com/license (Commercial License) --><path d="M592 0H496C470 0 448 22 448 48V144C448 170 470 192 496 192H592C618 192 640 170 640 144V48C640 22 618 0 592 0ZM608 144C608 153 601 160 592 160H496C487 160 480 153 480 144V48C480 39 487 32 496 32H592C601 32 608 39 608 48V144ZM368 320H272C246 320 224 342 224 368V464C224 490 246 512 272 512H368C394 512 416 490 416 464V368C416 342 394 320 368 320ZM384 464C384 473 377 480 368 480H272C263 480 256 473 256 464V368C256 359 263 352 272 352H368C377 352 384 359 384 368V464ZM400 80H192V48C192 22 170 0 144 0H48C22 0 0 22 0 48V144C0 170 22 192 48 192H144C146 192 148 192 150 191L210 296C213 301 218 304 224 304C227 304 229 303 232 302C240 298 242 288 238 280L179 177C187 168 192 157 192 144V112H400C409 112 416 105 416 96S409 80 400 80ZM160 144C160 153 153 160 144 160H48C39 160 32 153 32 144V48C32 39 39 32 48 32H144C153 32 160 39 160 48V144Z"/></svg>