<svg xmlns="http://www.w3.org/2000/svg" viewBox="0 0 384 512"><!-- Font Awesome Pro 6.0.0-alpha1 by @fontawesome - https://fontawesome.com License - https://fontawesome.com/license (Commercial License) --><path d="M379 101L331 53C328 50 324 48 320 48H240V32C240 14 226 0 208 0H112C94 0 80 14 80 32V128C49 131 23 155 21 186L0 442C-3 480 26 512 64 512H256C294 512 323 480 320 442L299 186C296 155 271 131 240 128V80H313L357 123C360 126 364 128 368 128S376 126 379 123C386 117 386 107 379 101ZM112 32H208V128H112V32ZM267 189L288 445C289 454 286 463 280 470C273 476 265 480 256 480H64C55 480 46 476 40 470C34 463 31 454 32 445L52 189C54 174 66 161 82 160H238C254 161 266 174 267 189ZM227 293H187V253C187 246 181 240 173 240H147C139 240 133 246 133 253V293H93C86 293 80 299 80 307V333C80 341 86 347 93 347H133V387C133 394 139 400 147 400H173C181 400 187 394 187 387V347H227C234 347 240 341 240 333V307C240 299 234 293 227 293Z"/></svg>