<svg xmlns="http://www.w3.org/2000/svg" viewBox="0 0 576 512"><!-- Font Awesome Pro 6.0.0-alpha1 by @fontawesome - https://fontawesome.com License - https://fontawesome.com/license (Commercial License) --><path d="M244 114C246 115 248 115 250 115C256 115 262 111 265 105L293 35L320 49V96C320 105 327 112 336 112S352 105 352 96V44C352 35 347 26 339 22L299 3C293 0 286 -1 280 2C274 4 269 9 266 15L235 93C232 101 236 110 244 114ZM550 211C521 157 471 126 415 128C407 128 400 136 400 145C400 153 407 160 417 160C459 158 498 183 522 226C557 290 557 390 474 461C446 485 398 486 369 462C360 455 347 455 338 463C324 474 308 480 288 480C268 480 252 474 239 463C230 455 217 455 207 462C179 486 130 485 102 461C20 390 19 290 54 227C78 183 116 159 160 160C168 161 176 153 176 145C176 136 169 128 161 128C106 126 55 158 26 211C-15 286 -15 403 81 486C119 518 181 520 223 491C241 505 262 512 288 512C314 512 335 505 354 491C395 520 457 518 495 486C591 403 591 286 550 211ZM204 190C221 171 253 160 288 160S355 171 372 190C375 193 380 195 384 195C388 195 392 193 395 191C401 185 402 174 396 168C372 143 332 128 288 128S204 143 180 168C174 174 175 185 181 191C187 197 198 196 204 190Z"/></svg>