<svg xmlns="http://www.w3.org/2000/svg" viewBox="0 0 512 512"><!-- Font Awesome Pro 6.0.0-alpha1 by @fontawesome - https://fontawesome.com License - https://fontawesome.com/license (Commercial License) --><path d="M448 208C429 208 412 218 400 235C399 237 396 240 392 240C388 240 384 236 384 232V176C384 150 362 128 336 128H280C276 128 272 124 272 120C272 116 275 113 277 112C294 100 304 83 304 64C304 29 268 0 224 0S144 29 144 64C144 83 154 100 171 112C173 113 176 116 176 120C176 124 172 128 168 128H48C22 128 0 150 0 176V232C0 254 18 272 40 272C54 272 66 265 74 254C78 249 85 240 96 240C113 240 128 262 128 288S113 336 96 336C85 336 78 327 74 322C66 311 54 304 40 304C18 304 0 322 0 344V464C0 490 22 512 48 512H168C190 512 208 494 208 472C208 458 201 446 190 438C185 434 176 427 176 416C176 399 198 384 224 384S272 399 272 416C272 427 263 434 258 438C247 446 240 458 240 472C240 494 258 512 280 512H336C362 512 384 490 384 464V344C384 340 388 336 392 336C396 336 399 339 400 341C412 358 429 368 448 368C483 368 512 332 512 288S483 208 448 208ZM448 336C437 336 430 327 426 322C418 311 406 304 392 304C370 304 352 322 352 344V464C352 473 345 480 336 480H280C276 480 272 476 272 472C272 468 275 465 277 464C294 452 304 435 304 416C304 381 268 352 224 352S144 381 144 416C144 435 154 452 171 464C173 465 176 468 176 472C176 476 172 480 168 480H48C39 480 32 473 32 464V344C32 340 36 336 40 336C44 336 47 339 48 341C60 358 77 368 96 368C131 368 160 332 160 288S131 208 96 208C77 208 60 218 48 235C47 237 44 240 40 240C36 240 32 236 32 232V176C32 167 39 160 48 160H168C190 160 208 142 208 120C208 106 201 94 190 86C185 82 176 75 176 64C176 47 198 32 224 32S272 47 272 64C272 75 263 82 258 86C247 94 240 106 240 120C240 142 258 160 280 160H336C345 160 352 167 352 176V232C352 254 370 272 392 272C406 272 418 265 426 254C430 249 437 240 448 240C465 240 480 262 480 288S465 336 448 336Z"/></svg>