<svg xmlns="http://www.w3.org/2000/svg" viewBox="0 0 448 512"><!-- Font Awesome Pro 6.0.0-alpha1 by @fontawesome - https://fontawesome.com License - https://fontawesome.com/license (Commercial License) --><path d="M383 414C423 373 448 318 448 256C448 133 348 32 224 32S0 133 0 256S100 480 224 480C274 480 321 463 358 435L420 506C423 510 427 512 432 512C436 512 439 511 442 508C449 502 450 492 444 486L383 414ZM224 448C118 448 32 362 32 256S118 64 224 64S416 150 416 256C416 308 395 355 362 389L252 262C246 255 236 254 230 260C223 266 222 276 228 282L338 410C306 434 267 448 224 448Z"/></svg>