<svg xmlns="http://www.w3.org/2000/svg" viewBox="0 0 448 512"><!-- Font Awesome Pro 6.0.0-alpha1 by @fontawesome - https://fontawesome.com License - https://fontawesome.com/license (Commercial License) --><path d="M108 360H84C77 360 72 365 72 372V396C72 403 77 408 84 408H108C115 408 120 403 120 396V372C120 365 115 360 108 360ZM108 104H84C77 104 72 109 72 116V140C72 147 77 152 84 152H108C115 152 120 147 120 140V116C120 109 115 104 108 104ZM144 288H48C22 288 0 310 0 336V432C0 458 22 480 48 480H144C170 480 192 458 192 432V336C192 310 170 288 144 288ZM160 432C160 441 153 448 144 448H48C39 448 32 441 32 432V336C32 327 39 320 48 320H144C153 320 160 327 160 336V432ZM144 32H48C22 32 0 54 0 80V176C0 202 22 224 48 224H144C170 224 192 202 192 176V80C192 54 170 32 144 32ZM160 176C160 185 153 192 144 192H48C39 192 32 185 32 176V80C32 71 39 64 48 64H144C153 64 160 71 160 80V176ZM364 104H340C333 104 328 109 328 116V140C328 147 333 152 340 152H364C371 152 376 147 376 140V116C376 109 371 104 364 104ZM400 32H304C278 32 256 54 256 80V176C256 202 278 224 304 224H400C426 224 448 202 448 176V80C448 54 426 32 400 32ZM416 176C416 185 409 192 400 192H304C295 192 288 185 288 176V80C288 71 295 64 304 64H400C409 64 416 71 416 80V176ZM432 288C423 288 416 295 416 304V368H352V304C352 295 345 288 336 288H272C263 288 256 295 256 304V464C256 473 263 480 272 480S288 473 288 464V320H320V384C320 393 327 400 336 400H432C441 400 448 393 448 384V304C448 295 441 288 432 288ZM436 432H412C405 432 400 437 400 444V468C400 475 405 480 412 480H436C443 480 448 475 448 468V444C448 437 443 432 436 432ZM372 432H348C341 432 336 437 336 444V468C336 475 341 480 348 480H372C379 480 384 475 384 468V444C384 437 379 432 372 432Z"/></svg>