<svg xmlns="http://www.w3.org/2000/svg" viewBox="0 0 512 512"><!-- Font Awesome Pro 6.0.0-alpha1 by @fontawesome - https://fontawesome.com License - https://fontawesome.com/license (Commercial License) --><path d="M112 32C50 32 0 82 0 144S50 256 112 256C143 256 172 243 192 222V304C192 383 127 448 48 448C39 448 32 455 32 464S39 480 48 480C145 480 224 401 224 304V144C224 82 174 32 112 32ZM112 224C68 224 32 188 32 144S68 64 112 64S192 100 192 144S156 224 112 224ZM400 32C338 32 288 82 288 144S338 256 400 256C431 256 460 243 480 222V304C480 383 415 448 336 448C327 448 320 455 320 464S327 480 336 480C433 480 512 401 512 304V144C512 82 462 32 400 32ZM400 224C356 224 320 188 320 144S356 64 400 64S480 100 480 144S444 224 400 224Z"/></svg>