<svg xmlns="http://www.w3.org/2000/svg" viewBox="0 0 512 512"><!-- Font Awesome Pro 6.0.0-alpha1 by @fontawesome - https://fontawesome.com License - https://fontawesome.com/license (Commercial License) --><path d="M400 480C462 480 512 430 512 368S462 256 400 256C369 256 340 269 320 290V208C320 129 385 64 464 64C473 64 480 57 480 48S473 32 464 32C367 32 288 111 288 208V368C288 430 338 480 400 480ZM400 288C444 288 480 324 480 368S444 448 400 448S320 412 320 368S356 288 400 288ZM112 480C174 480 224 430 224 368S174 256 112 256C81 256 52 269 32 290V208C32 129 97 64 176 64C185 64 192 57 192 48S185 32 176 32C79 32 0 111 0 208V368C0 430 50 480 112 480ZM112 288C156 288 192 324 192 368S156 448 112 448S32 412 32 368S68 288 112 288Z"/></svg>