<svg xmlns="http://www.w3.org/2000/svg" viewBox="0 0 640 512"><!-- Font Awesome Pro 6.0.0-alpha1 by @fontawesome - https://fontawesome.com License - https://fontawesome.com/license (Commercial License) --><path d="M491 224C482 224 475 231 475 240S482 256 491 256S507 249 507 240S500 224 491 224ZM582 191C581 191 523 155 523 155C521 154 514 150 505 148C504 140 502 133 500 126C494 104 472 32 426 32C388 32 381 74 381 75C349 58 326 62 311 76C303 85 291 105 307 140C276 123 246 112 219 112C173 112 133 130 101 164C88 151 70 144 51 144C32 144 14 151 0 165C-28 193 -28 239 0 267C14 281 32 288 51 288C64 288 76 284 86 278C90 284 94 291 99 296L153 355L128 368C115 377 107 392 107 408V432C107 449 116 465 131 474C138 478 147 480 155 480C163 480 171 478 179 474L234 442L260 470C266 476 274 480 283 480H443C461 480 475 466 475 448C475 413 446 384 411 384H363L433 352H530C579 352 619 312 619 263C619 235 605 208 582 191ZM75 247C51 266 28 250 23 244C7 229 7 203 23 188C38 172 64 172 79 188C81 189 82 190 82 192C75 209 72 229 75 247ZM163 446C152 452 139 444 139 432V408C139 403 142 398 145 396L176 379L212 418L163 446ZM530 320H427L363 347V344C363 295 330 250 282 237L239 225C219 219 210 250 231 255L273 267C307 277 331 309 331 344V416H411C429 416 443 430 443 448H283L123 274C101 250 100 213 122 189C142 166 173 144 219 144C276 144 372 219 427 256C427 225 426 225 430 213C415 210 393 195 371 174C340 143 324 109 334 99C345 88 379 107 409 136C412 140 415 143 418 146C406 102 410 64 426 64C440 64 458 94 469 134C473 149 475 164 476 177C490 176 501 180 507 183L563 217C578 228 587 245 587 263C587 295 562 320 530 320Z"/></svg>