<svg xmlns="http://www.w3.org/2000/svg" viewBox="0 0 512 512"><!-- Font Awesome Pro 6.0.0-alpha1 by @fontawesome - https://fontawesome.com License - https://fontawesome.com/license (Commercial License) --><path d="M496 240C487 240 480 247 480 256C480 379 380 480 256 480S32 379 32 256S132 32 256 32C310 32 362 52 402 87L368 121C337 95 298 80 256 80C186 80 123 121 95 186C91 194 95 203 103 207C105 208 107 208 109 208C115 208 121 204 124 198C147 146 199 112 256 112C289 112 320 124 345 144L311 178C295 166 276 160 256 160C203 160 160 203 160 256S203 352 256 352S352 309 352 256C352 247 345 240 336 240S320 247 320 256C320 291 291 320 256 320S192 291 192 256S221 192 256 192C268 192 279 195 288 201L245 245C238 251 238 261 245 267C248 270 252 272 256 272S264 270 267 267L491 43C498 37 498 27 491 21S475 14 469 21L425 64C378 23 319 0 256 0C115 0 0 115 0 256S115 512 256 512S512 397 512 256C512 247 505 240 496 240ZM186 417C188 418 190 419 192 419C198 419 204 415 207 409C210 401 206 392 198 388C165 373 139 347 124 314C120 306 111 302 103 305C95 309 91 318 95 326C112 367 145 400 186 417ZM400 256C400 313 366 365 314 388C306 392 302 401 305 409C308 415 314 419 320 419C322 419 324 418 326 417C391 389 432 326 432 256C432 247 425 240 416 240S400 247 400 256ZM120 256C120 243 109 232 96 232S72 243 72 256C72 269 83 280 96 280S120 269 120 256ZM232 416C232 429 243 440 256 440S280 429 280 416C280 403 269 392 256 392S232 403 232 416Z"/></svg>