<svg xmlns="http://www.w3.org/2000/svg" viewBox="0 0 512 512"><!-- Font Awesome Pro 6.0.0-alpha1 by @fontawesome - https://fontawesome.com License - https://fontawesome.com/license (Commercial License) --><path d="M192 400H96C87 400 80 407 80 416S87 432 96 432H192C201 432 208 425 208 416S201 400 192 400ZM80 368H208C217 368 224 361 224 352C224 343 217 336 208 336H80C71 336 64 343 64 352C64 361 71 368 80 368ZM368 448C412 448 448 412 448 368S412 288 368 288S288 324 288 368S324 448 368 448ZM368 320C394 320 416 342 416 368C416 394 394 416 368 416C342 416 320 394 320 368C320 342 342 320 368 320ZM448 128H198L501 31C509 29 514 20 511 11C509 3 500 -2 491 1L94 128H64C29 128 0 157 0 192V448C0 483 29 512 64 512H448C483 512 512 483 512 448V192C512 157 483 128 448 128ZM480 448C480 466 466 480 448 480H64C46 480 32 466 32 448V256H480V448ZM480 224H32V192C32 174 46 160 64 160H448C466 160 480 174 480 192V224Z"/></svg>