<svg xmlns="http://www.w3.org/2000/svg" viewBox="0 0 640 512"><!-- Font Awesome Pro 6.0.0-alpha1 by @fontawesome - https://fontawesome.com License - https://fontawesome.com/license (Commercial License) --><path d="M320 32C144 32 0 176 0 352V464C0 473 7 480 16 480S32 473 32 464V352C32 193 161 64 320 64S608 193 608 352V464C608 473 615 480 624 480S640 473 640 464V352C640 176 496 32 320 32ZM320 128C197 128 96 229 96 352V464C96 473 103 480 112 480S128 473 128 464V352C128 246 214 160 320 160S512 246 512 352V464C512 473 519 480 528 480S544 473 544 464V352C544 229 443 128 320 128ZM320 224C249 224 192 281 192 352V464C192 473 199 480 208 480S224 473 224 464V352C224 299 267 256 320 256S416 299 416 352V464C416 473 423 480 432 480S448 473 448 464V352C448 281 391 224 320 224Z"/></svg>