<svg xmlns="http://www.w3.org/2000/svg" viewBox="0 0 640 512"><!-- Font Awesome Pro 6.0.0-alpha1 by @fontawesome - https://fontawesome.com License - https://fontawesome.com/license (Commercial License) --><path d="M512 112C521 112 528 105 528 96C528 87 521 80 512 80S496 87 496 96C496 105 503 112 512 112ZM528 240C519 240 512 247 512 256C512 276 497 293 477 297C473 298 469 301 467 305C464 308 464 313 465 317C466 322 467 325 467 329C467 359 432 381 401 365C395 362 387 363 382 369C369 385 346 390 326 380C319 376 311 378 306 384C289 404 255 404 238 384C233 378 225 376 218 380C198 390 175 385 162 369C158 363 149 362 143 365C112 381 77 359 77 329C77 325 78 322 79 317C80 313 80 308 77 305C75 301 71 298 67 297C47 293 32 276 32 256S47 219 67 215C71 214 75 211 77 207C80 204 80 199 79 195C78 190 77 187 77 183C77 153 112 131 143 147C149 150 157 149 162 143C175 127 198 122 218 132C226 136 235 133 239 125C244 117 241 108 233 104C204 88 169 93 146 113C138 111 130 109 121 109C79 109 45 142 45 183C45 185 45 187 45 188C18 200 0 226 0 256S18 312 45 324C45 325 45 327 45 329C45 364 71 394 105 401L139 487C145 502 160 512 176 512H200C222 512 240 494 240 472V425C250 429 261 432 272 432C283 432 294 429 304 425V472C304 494 322 512 344 512H368C384 512 399 502 405 487L439 401C473 394 499 364 499 329C499 327 499 325 499 324C526 312 544 286 544 256C544 247 537 240 528 240ZM208 472C208 476 204 480 200 480H176C173 480 170 478 169 475L139 401C141 400 144 399 146 399C163 413 186 419 208 416V472ZM375 475C374 478 371 480 368 480H344C340 480 336 476 336 472V416C358 419 381 413 398 399C400 399 402 400 405 401L375 475ZM623 92L580 49C569 38 554 32 539 32H446C425 12 397 0 368 0C306 0 256 50 256 112S306 224 368 224C399 224 430 210 451 187C470 166 480 139 480 112C480 103 473 96 464 96S448 103 448 112C448 131 441 150 427 165C412 182 391 192 368 192C324 192 288 156 288 112S324 32 368 32C391 32 412 42 427 59C430 62 435 64 439 64H539C546 64 553 67 558 72L600 114C608 122 610 135 605 145C601 154 591 160 581 160H512C503 160 496 167 496 176S503 192 512 192H581C604 192 624 180 634 160C645 137 641 110 623 92Z"/></svg>