<svg xmlns="http://www.w3.org/2000/svg" viewBox="0 0 576 512"><!-- Font Awesome Pro 6.0.0-alpha1 by @fontawesome - https://fontawesome.com License - https://fontawesome.com/license (Commercial License) --><path d="M112 160C103 160 96 167 96 176C96 185 103 192 112 192S128 185 128 176C128 167 121 160 112 160ZM553 98L457 146C451 148 448 154 448 160H416V80C416 71 409 64 400 64S384 71 384 80V160H352V48C352 39 345 32 336 32S320 39 320 48V98C299 76 270 64 240 64H195L54 1C50 -1 44 0 39 3C35 6 32 11 32 16V98C11 119 0 147 0 176C0 237 48 285 108 288L38 408C32 419 30 432 34 444C37 457 45 467 56 474L111 506C122 512 136 514 148 510C160 507 171 499 177 488L304 267C310 264 315 259 320 254V304C320 313 327 320 336 320S352 313 352 304V192H384V272C384 281 391 288 400 288S416 281 416 272V192H448C448 198 451 204 457 206L553 254C558 257 564 257 568 254C573 251 576 246 576 240V112C576 107 573 101 568 98C564 96 558 95 553 98ZM64 41L117 64H112C95 64 79 68 64 75V41ZM149 472C146 479 136 483 127 478L72 446C63 441 62 430 66 424L145 288H255L149 472ZM240 256H112C68 256 32 220 32 176S68 96 112 96H240C284 96 320 132 320 176S284 256 240 256ZM544 214L480 182V170L544 138V214ZM176 160C167 160 160 167 160 176C160 185 167 192 176 192S192 185 192 176C192 167 185 160 176 160ZM240 160C231 160 224 167 224 176C224 185 231 192 240 192S256 185 256 176C256 167 249 160 240 160Z"/></svg>