<svg xmlns="http://www.w3.org/2000/svg" viewBox="0 0 512 512"><!-- Font Awesome Pro 6.0.0-alpha1 by @fontawesome - https://fontawesome.com License - https://fontawesome.com/license (Commercial License) --><path d="M256 232C243 232 232 243 232 256S243 280 256 280S280 269 280 256S269 232 256 232ZM256 16C123 16 16 123 16 256S123 496 256 496S496 389 496 256S389 16 256 16ZM256 464C141 464 48 371 48 256S141 48 256 48S464 141 464 256S371 464 256 464ZM256 128C185 128 128 185 128 256C128 327 185 384 256 384C327 384 384 327 384 256C384 185 327 128 256 128ZM256 352C203 352 160 309 160 256C160 203 203 160 256 160C309 160 352 203 352 256C352 309 309 352 256 352Z"/></svg>