<svg xmlns="http://www.w3.org/2000/svg" viewBox="0 0 576 512"><!-- Font Awesome Pro 6.0.0-alpha1 by @fontawesome - https://fontawesome.com License - https://fontawesome.com/license (Commercial License) --><path d="M206 169A17 17 0 0 0 178 169L98 329A16 16 0 0 0 126 343L146 304H238L258 343A16 16 0 0 0 286 329ZM162 272L192 212L222 272ZM384 160H320A16 16 0 0 0 304 176V336A16 16 0 0 0 320 352H384A96 96 0 0 0 384 160ZM384 320H336V192H384A64 64 0 0 1 384 320ZM512 32H64A64 64 0 0 0 0 96V416A64 64 0 0 0 64 480H512A64 64 0 0 0 576 416V96A64 64 0 0 0 512 32ZM544 416A32 32 0 0 1 512 448H64A32 32 0 0 1 32 416V96A32 32 0 0 1 64 64H512A32 32 0 0 1 544 96Z"/></svg>