<svg xmlns="http://www.w3.org/2000/svg" viewBox="0 0 576 512"><!-- Font Awesome Pro 6.0.0-alpha1 by @fontawesome - https://fontawesome.com License - https://fontawesome.com/license (Commercial License) --><path d="M464 128C455 128 448 135 448 144V368C448 377 455 384 464 384S480 377 480 368V144C480 135 473 128 464 128ZM320 128C311 128 304 135 304 144V368C304 377 311 384 320 384S336 377 336 368V144C336 135 329 128 320 128ZM400 128C391 128 384 135 384 144V368C384 377 391 384 400 384S416 377 416 368V144C416 135 409 128 400 128ZM240 128C231 128 224 135 224 144V368C224 377 231 384 240 384S256 377 256 368V144C256 135 249 128 240 128ZM176 128C167 128 160 135 160 144V368C160 377 167 384 176 384S192 377 192 368V144C192 135 185 128 176 128ZM112 128C103 128 96 135 96 144V368C96 377 103 384 112 384S128 377 128 368V144C128 135 121 128 112 128ZM512 32H64C29 32 0 61 0 96V416C0 451 29 480 64 480H512C547 480 576 451 576 416V96C576 61 547 32 512 32ZM544 416C544 434 530 448 512 448H64C46 448 32 434 32 416V96C32 78 46 64 64 64H512C530 64 544 78 544 96V416Z"/></svg>