<svg xmlns="http://www.w3.org/2000/svg" viewBox="0 0 512 512"><!-- Font Awesome Pro 6.0.0-alpha1 by @fontawesome - https://fontawesome.com License - https://fontawesome.com/license (Commercial License) --><path d="M256 16C123 16 16 123 16 256S123 496 256 496S496 389 496 256S389 16 256 16ZM256 464C141 464 48 371 48 256S141 48 256 48S464 141 464 256S371 464 256 464ZM368 216C368 167 329 128 280 128H208C182 128 160 150 160 176V368C160 377 167 384 176 384S192 377 192 368V304H279L322 376C325 381 331 384 336 384C339 384 342 383 344 382C352 377 354 367 350 360L312 298C345 285 368 253 368 216ZM280 272H192V176C192 167 199 160 208 160H280C311 160 336 185 336 216S311 272 280 272Z"/></svg>