<svg xmlns="http://www.w3.org/2000/svg" viewBox="0 0 512 512"><!-- Font Awesome Pro 6.0.0-alpha1 by @fontawesome - https://fontawesome.com License - https://fontawesome.com/license (Commercial License) --><path d="M496 240C487 240 480 247 480 256C480 335 415 400 336 400H192V336C192 330 188 324 183 322C181 321 178 320 176 320C172 320 169 321 166 324L70 404C66 407 64 411 64 416S66 425 70 428L166 508C171 512 177 513 183 510C188 508 192 502 192 496V432H336C433 432 512 353 512 256C512 247 505 240 496 240ZM160 462L105 416L160 370V462ZM176 112H320V176C320 182 324 188 329 190C331 191 334 192 336 192C340 192 343 191 346 188L442 108C446 105 448 101 448 96S446 87 442 84L346 4C341 0 335 -1 329 2C324 4 320 10 320 16V80H176C79 80 0 159 0 256C0 265 7 272 16 272S32 265 32 256C32 177 97 112 176 112ZM352 50L407 96L352 142V50Z"/></svg>