<svg xmlns="http://www.w3.org/2000/svg" viewBox="0 0 576 512"><!-- Font Awesome Pro 6.0.0-alpha1 by @fontawesome - https://fontawesome.com License - https://fontawesome.com/license (Commercial License) --><path d="M400 224H188L346 92C353 87 354 77 348 70C343 63 332 62 326 68L134 228C130 231 128 235 128 240S130 249 134 252L326 412C329 415 332 416 336 416C341 416 345 414 348 410C354 403 353 393 346 388L188 256H400C479 256 544 321 544 400V432C544 441 551 448 560 448S576 441 576 432V400C576 303 497 224 400 224ZM41 240L218 92C225 87 226 77 220 70C215 63 205 62 198 68L6 228C2 231 0 235 0 240S2 249 6 252L198 412C201 415 204 416 208 416C213 416 217 414 220 410C226 403 225 393 218 388L41 240Z"/></svg>