<svg xmlns="http://www.w3.org/2000/svg" viewBox="0 0 640 512"><!-- Font Awesome Pro 6.0.0-alpha1 by @fontawesome - https://fontawesome.com License - https://fontawesome.com/license (Commercial License) --><path d="M544 128H512V80C512 71 505 64 496 64S480 71 480 80V144C480 153 487 160 496 160H544C553 160 560 153 560 144S553 128 544 128ZM496 0C416 0 352 64 352 144S416 288 496 288S640 224 640 144S576 0 496 0ZM496 256C434 256 384 206 384 144S434 32 496 32S608 82 608 144S558 256 496 256ZM482 320C471 320 463 332 468 342C476 360 480 379 480 400V432C480 441 487 448 496 448S512 441 512 432V400C512 375 507 351 497 329C494 323 489 320 482 320ZM304 224H60L218 92C225 87 226 77 220 70C215 63 205 62 198 68L6 228C2 231 0 235 0 240S2 249 6 252L198 412C201 415 204 416 208 416C213 416 217 414 220 410C226 403 225 393 218 388L60 256H304C313 256 320 249 320 240V240C320 231 313 224 304 224Z"/></svg>