<svg xmlns="http://www.w3.org/2000/svg" viewBox="0 0 640 512"><!-- Font Awesome Pro 6.0.0-alpha1 by @fontawesome - https://fontawesome.com License - https://fontawesome.com/license (Commercial License) --><path d="M608 256H576C558 256 544 270 544 288V368C544 377 537 384 528 384S512 377 512 368V192C512 104 440 32 352 32H160C72 32 0 104 0 192V416C0 451 29 480 64 480H96C131 480 160 451 160 416V384H288V416C288 451 317 480 352 480H384C411 480 434 463 443 440C462 461 487 476 516 479C520 480 524 480 528 480C590 480 640 430 640 368V288C640 270 626 256 608 256ZM32 192C32 121 89 64 160 64H352C423 64 480 121 480 192V256H32V192ZM608 368C608 412 572 448 528 448C525 448 522 448 520 448C478 443 448 405 448 363V352H416V416C416 434 402 448 384 448H352C334 448 320 434 320 416V352H128V416C128 434 114 448 96 448H64C46 448 32 434 32 416V288H480V368C480 394 502 416 528 416S576 394 576 368V288H608V368ZM176 160H160V144C160 135 153 128 144 128S128 135 128 144V160H112C103 160 96 167 96 176S103 192 112 192H128V208C128 217 135 224 144 224S160 217 160 208V192H176C185 192 192 185 192 176S185 160 176 160ZM288 160H272V144C272 135 265 128 256 128C247 128 240 135 240 144V160H224C215 160 208 167 208 176S215 192 224 192H240V208C240 217 247 224 256 224C265 224 272 217 272 208V192H288C297 192 304 185 304 176S297 160 288 160ZM400 160H384V144C384 135 377 128 368 128S352 135 352 144V160H336C327 160 320 167 320 176S327 192 336 192H352V208C352 217 359 224 368 224S384 217 384 208V192H400C409 192 416 185 416 176S409 160 400 160Z"/></svg>