<svg xmlns="http://www.w3.org/2000/svg" viewBox="0 0 576 512"><!-- Font Awesome Pro 6.0.0-alpha1 by @fontawesome - https://fontawesome.com License - https://fontawesome.com/license (Commercial License) --><path d="M575 364L524 183C520 169 507 160 493 160H403C389 160 376 169 372 183L321 364C318 374 325 384 336 384H384V496C384 505 391 512 400 512S416 505 416 496V384H480V496C480 505 487 512 496 512S512 505 512 496V384H560C571 384 578 374 575 364ZM357 352L403 192H493L539 352H357ZM448 128C483 128 512 99 512 64S483 0 448 0S384 29 384 64S413 128 448 128ZM448 32C466 32 480 46 480 64S466 96 448 96S416 82 416 64S430 32 448 32ZM128 160H64C29 160 0 189 0 224V320C0 338 14 352 32 352V496C32 505 39 512 48 512S64 505 64 496V352H128V496C128 505 135 512 144 512S160 505 160 496V352C178 352 192 338 192 320V224C192 189 163 160 128 160ZM160 320H32V224C32 206 46 192 64 192H128C146 192 160 206 160 224V320ZM96 128C131 128 160 99 160 64S131 0 96 0S32 29 32 64S61 128 96 128ZM96 32C114 32 128 46 128 64S114 96 96 96S64 82 64 64S78 32 96 32ZM256 0C247 0 240 7 240 16V496C240 505 247 512 256 512S272 505 272 496V16C272 7 265 0 256 0Z"/></svg>