<svg xmlns="http://www.w3.org/2000/svg" viewBox="0 0 640 512"><!-- Font Awesome Pro 6.0.0-alpha1 by @fontawesome - https://fontawesome.com License - https://fontawesome.com/license (Commercial License) --><path d="M336 368H144V224H240C246 224 252 220 255 215C257 209 256 202 252 197L140 69C134 63 122 63 116 69L4 197C0 202 -1 209 1 215C4 220 10 224 16 224H112V384C112 393 119 400 128 400H336C345 400 352 393 352 384S345 368 336 368ZM51 192L128 104L205 192H51ZM639 297C636 292 630 288 624 288H528V128C528 119 521 112 512 112H304C295 112 288 119 288 128S295 144 304 144H496V288H400C394 288 388 292 385 297C383 303 384 310 388 315L500 443C503 446 507 448 512 448S521 446 524 443L636 315C640 310 641 303 639 297ZM512 408L435 320H589L512 408Z"/></svg>