<svg xmlns="http://www.w3.org/2000/svg" viewBox="0 0 448 512"><!-- Font Awesome Pro 6.0.0-alpha1 by @fontawesome - https://fontawesome.com License - https://fontawesome.com/license (Commercial License) --><path d="M203 405C210 411 210 421 203 427L130 500C123 508 113 512 102 512C95 512 88 510 82 506L20 481C19 480 18 480 17 479C8 473 2 463 0 452C-1 441 2 430 10 422L100 325C106 319 116 318 123 324C129 330 130 340 124 347L33 443C32 445 32 447 32 448C32 449 33 451 34 452L96 477C97 478 98 478 99 479C101 481 105 480 107 478L181 405C187 398 197 398 203 405ZM438 422C348 321 219 175 178 129C192 124 207 122 224 122C249 122 271 127 288 137C296 141 306 139 310 131C314 123 311 113 304 109C281 97 254 90 224 90C194 90 167 97 144 109C140 111 138 115 137 119C135 123 136 128 138 131C139 133 142 138 414 443C416 445 416 447 416 448C416 449 415 451 414 452L352 477C351 478 350 478 349 479C347 481 343 480 341 478L111 220C74 178 101 132 102 130L143 61C145 56 149 52 153 49C187 26 261 26 294 49C299 52 303 56 305 61L346 130C363 159 359 195 337 220C331 226 332 236 338 242C345 248 355 247 361 241C393 206 398 155 374 114L333 45C328 36 321 29 313 23C268 -8 180 -8 135 23C127 29 120 36 115 45L75 113C59 139 45 194 87 241L317 499C325 508 335 512 346 512C353 512 360 510 366 506L428 481C429 480 430 480 431 479C440 473 446 463 448 452C449 441 446 430 438 422Z"/></svg>