<svg xmlns="http://www.w3.org/2000/svg" viewBox="0 0 448 512"><!-- Font Awesome Pro 6.0.0-alpha1 by @fontawesome - https://fontawesome.com License - https://fontawesome.com/license (Commercial License) --><path d="M357 283C364 276 368 266 368 256C368 246 364 236 356 229L223 106C213 96 197 93 183 99C169 105 160 119 160 134V192H45C20 192 0 212 0 237V275C0 300 20 320 45 320H160V378C160 393 169 407 183 413C197 419 213 416 223 406L357 283ZM195 384C193 383 192 381 192 378V288H45C38 288 32 282 32 275V237C32 230 38 224 45 224H192V134C192 131 193 129 195 128C197 128 200 128 202 130L335 252C336 254 336 258 335 260L201 382C200 384 197 384 195 384ZM416 80V432C416 441 423 448 432 448S448 441 448 432V80C448 71 441 64 432 64S416 71 416 80Z"/></svg>