<svg xmlns="http://www.w3.org/2000/svg" viewBox="0 0 448 512"><!-- Font Awesome Pro 6.0.0-alpha1 by @fontawesome - https://fontawesome.com License - https://fontawesome.com/license (Commercial License) --><path d="M16 448C25 448 32 441 32 432V80C32 71 25 64 16 64S0 71 0 80V432C0 441 7 448 16 448ZM125 320H240V378C240 393 249 407 263 413C277 419 293 416 303 406L437 283C444 276 448 266 448 256S444 236 436 229L303 106C293 96 277 93 263 99C249 105 240 119 240 134V192H125C100 192 80 212 80 237V275C80 300 100 320 125 320ZM112 237C112 230 118 224 125 224H272V134C272 131 273 129 275 128C277 128 280 128 282 130L415 252C416 254 416 258 415 260L281 382C280 384 277 384 275 384C273 383 272 381 272 378V288H125C118 288 112 282 112 275V237Z"/></svg>