<svg xmlns="http://www.w3.org/2000/svg" viewBox="0 0 512 512"><!-- Font Awesome Pro 6.0.0-alpha1 by @fontawesome - https://fontawesome.com License - https://fontawesome.com/license (Commercial License) --><path d="M0 280V232C0 210 18 192 40 192L320 192V152C320 136 330 122 344 115C359 109 376 112 388 123L500 227C508 234 512 245 512 256C512 267 508 278 500 285L388 389C376 400 359 403 344 397C330 390 320 376 320 360V320L40 320C18 320 0 302 0 280ZM481 256C481 255 480 252 478 250L366 146C361 141 352 145 352 152V224L40 224C36 224 32 228 32 232V280C32 284 36 288 40 288L352 288V360C352 367 361 371 366 366L478 262C480 260 481 257 481 256Z"/></svg>