<svg xmlns="http://www.w3.org/2000/svg" viewBox="0 0 512 512"><!-- Font Awesome Pro 6.0.0-alpha1 by @fontawesome - https://fontawesome.com License - https://fontawesome.com/license (Commercial License) --><path d="M391 169C383 166 374 171 371 179C368 188 373 197 381 199C440 219 479 274 479 336C479 415 415 480 335 480S191 415 191 336C191 270 235 214 298 197C301 202 304 206 307 211C335 272 318 344 265 385C258 391 257 401 262 408C267 415 277 416 284 411C349 360 370 272 336 197C314 152 276 120 232 105L268 58C271 54 272 50 271 45C270 41 268 37 264 35L216 3C213 1 210 0 207 0H143C140 0 137 1 134 3L86 35C83 37 80 41 79 45C79 49 80 54 82 57L117 106C112 108 107 110 102 112C59 132 27 167 11 212C-5 256 -3 304 17 346C46 409 108 448 176 448C182 448 189 447 196 447C197 447 197 446 198 446C230 486 280 512 335 512C432 512 511 433 511 336C511 260 463 193 391 169ZM147 94L118 52L148 32H202L232 52L198 97C182 95 166 95 149 98C149 96 148 95 147 94ZM46 333C29 298 28 259 41 223C54 186 80 158 115 141C171 115 236 129 278 170C207 195 159 260 159 336C159 365 166 392 178 415C122 417 70 385 46 333Z"/></svg>