<svg xmlns="http://www.w3.org/2000/svg" viewBox="0 0 640 512"><!-- Font Awesome Pro 6.0.0-alpha1 by @fontawesome - https://fontawesome.com License - https://fontawesome.com/license (Commercial License) --><path d="M448 96H336V16C336 7 329 0 320 0S304 7 304 16V96H192C139 96 96 139 96 192V416C96 469 139 512 192 512H448C501 512 544 469 544 416V192C544 139 501 96 448 96ZM512 384H496C487 384 480 391 480 400S487 416 496 416H512C512 451 483 480 448 480H192C157 480 128 451 128 416H144C153 416 160 409 160 400S153 384 144 384H128V192C128 157 157 128 192 128H448C483 128 512 157 512 192V384ZM37 229C40 226 44 224 48 224H48C57 224 64 217 64 208C64 199 57 192 48 192H48C35 192 23 197 14 206C5 215 0 227 0 240V368C0 394 21 416 48 416C57 416 64 409 64 400S57 384 48 384C39 384 32 377 32 368V240C32 236 34 232 37 229ZM592 192C583 192 576 199 576 208S583 224 592 224C601 224 608 231 608 240V368C608 372 606 376 603 379C600 382 596 384 592 384H592C583 384 576 391 576 400C576 409 583 416 592 416H592C605 416 617 411 626 402C635 393 640 381 640 368V240C640 214 619 192 592 192ZM240 384H208C199 384 192 391 192 400S199 416 208 416H240C249 416 256 409 256 400S249 384 240 384ZM336 384H304C295 384 288 391 288 400S295 416 304 416H336C345 416 352 409 352 400S345 384 336 384ZM432 384H400C391 384 384 391 384 400S391 416 400 416H432C441 416 448 409 448 400S441 384 432 384ZM224 192C189 192 160 221 160 256S189 320 224 320S288 291 288 256S259 192 224 192ZM224 288C206 288 192 274 192 256S206 224 224 224S256 238 256 256S242 288 224 288ZM416 192C381 192 352 221 352 256S381 320 416 320S480 291 480 256S451 192 416 192ZM416 288C398 288 384 274 384 256S398 224 416 224S448 238 448 256S434 288 416 288Z"/></svg>