<svg xmlns="http://www.w3.org/2000/svg" viewBox="0 0 512 512"><!-- Font Awesome Pro 6.0.0-alpha1 by @fontawesome - https://fontawesome.com License - https://fontawesome.com/license (Commercial License) --><path d="M368 88C337 88 312 113 312 144C312 175 337 200 368 200C399 200 424 175 424 144C424 113 399 88 368 88ZM368 168C355 168 344 157 344 144S355 120 368 120C381 120 392 131 392 144S381 168 368 168ZM505 19C504 14 498 8 493 7C461 0 435 0 410 0C307 0 245 55 199 128H95C79 128 59 140 52 154L3 253C1 257 0 260 0 264C0 277 11 288 24 288H128C181 288 224 331 224 384V488C224 501 235 512 248 512C252 512 255 511 259 509L358 460C372 453 384 434 384 417V313C457 266 512 204 512 102C512 77 512 51 505 19ZM37 256L81 169C83 165 91 160 95 160H180C166 188 148 224 132 256L133 256C131 256 61 256 37 256ZM352 417C352 421 347 430 343 431L256 475C256 451 256 381 256 379L256 379C288 364 324 346 352 332H352V417ZM250 347C237 306 206 274 165 262C217 158 265 32 410 32C432 32 452 32 476 36C480 61 480 81 480 102C480 247 353 295 250 347ZM102 320C54 320 2 359 0 480H0V512H32V512C204 508 217 397 166 345C151 330 127 320 102 320ZM155 429C142 461 98 479 32 480C32 476 31 352 102 352C118 352 134 358 143 368C156 381 165 407 155 429Z"/></svg>