<svg xmlns="http://www.w3.org/2000/svg" viewBox="0 0 512 512"><!-- Font Awesome Pro 6.0.0-alpha1 by @fontawesome - https://fontawesome.com License - https://fontawesome.com/license (Commercial License) --><path d="M505 19C504 14 498 8 493 7C460 0 435 0 409 0C305 0 243 55 196 128H95C78 128 59 140 52 154L2 253C1 257 0 260 0 264C0 277 11 288 24 288H117L106 309C97 328 110 344 112 346L166 400C168 402 184 415 203 406L224 395V488C224 501 235 512 248 512C252 512 255 511 259 510L357 460C372 453 384 434 384 417V316C457 269 512 206 512 103C512 78 512 52 505 19ZM37 256L80 169C83 164 89 160 95 160H180C166 188 148 224 132 256H37ZM352 417C352 423 348 429 343 431L256 475V380C288 364 324 346 352 332V417ZM366 289C327 309 231 356 189 377L135 324C156 281 203 185 223 145C273 67 331 32 409 32C431 32 451 32 476 36C480 61 480 82 480 103C480 181 445 238 366 289ZM368 88C337 88 312 113 312 144C312 175 337 200 368 200C399 200 424 175 424 144C424 113 399 88 368 88ZM368 168C355 168 344 157 344 144S355 120 368 120C381 120 392 131 392 144S381 168 368 168Z"/></svg>