<svg xmlns="http://www.w3.org/2000/svg" viewBox="0 0 512 512"><!-- Font Awesome Pro 6.0.0-alpha1 by @fontawesome - https://fontawesome.com License - https://fontawesome.com/license (Commercial License) --><path d="M256 32C204 32 153 50 113 84C112 85 111 86 110 87L59 37C55 32 48 31 42 33C36 36 32 42 32 48V176C32 185 39 192 48 192H176C182 192 188 188 191 182S192 169 187 165L132 109C132 109 133 109 133 108C168 80 211 64 256 64C362 64 448 150 448 256S362 448 256 448C197 448 141 421 105 374C99 367 89 366 82 371C75 377 74 387 79 394C122 449 187 480 256 480C379 480 480 379 480 256S379 32 256 32ZM64 160V87L137 160H64Z"/></svg>