<svg xmlns="http://www.w3.org/2000/svg" viewBox="0 0 512 512"><!-- Font Awesome Pro 6.0.0-alpha1 by @fontawesome - https://fontawesome.com License - https://fontawesome.com/license (Commercial License) --><path d="M32 256C32 379 133 480 256 480C325 480 390 449 433 394C438 387 437 377 430 371C423 366 413 367 407 374C371 421 315 448 256 448C150 448 64 362 64 256S150 64 256 64C301 64 344 80 379 108C379 109 380 109 380 109L325 165C320 169 319 176 321 182S330 192 336 192H464C473 192 480 185 480 176V48C480 42 476 36 470 33C464 31 457 32 453 37L402 87C401 86 400 85 399 84C359 50 308 32 256 32C133 32 32 133 32 256ZM375 160L448 87V160H375Z"/></svg>