<svg xmlns="http://www.w3.org/2000/svg" viewBox="0 0 512 512"><!-- Font Awesome Pro 6.0.0-alpha1 by @fontawesome - https://fontawesome.com License - https://fontawesome.com/license (Commercial License) --><path d="M481 55C480 52 471 34 455 39C436 44 417 47 396 47C347 47 303 31 270 5C266 2 261 0 256 0C251 0 246 2 242 5C209 31 165 47 116 47C95 47 76 44 57 39C39 35 32 52 31 55C-6 175 9 410 256 512C503 410 518 175 481 55ZM59 73C78 77 97 79 116 79C168 79 217 63 256 34C295 63 344 79 396 79C415 79 434 77 453 73C457 90 463 121 464 160H48C48 129 52 99 59 73ZM256 477C113 413 58 297 49 192H463C460 219 455 249 445 280C414 369 350 435 256 477Z"/></svg>