<svg xmlns="http://www.w3.org/2000/svg" viewBox="0 0 512 512"><!-- Font Awesome Pro 6.0.0-alpha1 by @fontawesome - https://fontawesome.com License - https://fontawesome.com/license (Commercial License) --><path d="M416 72C384 72 384 120 416 120C448 120 448 72 416 72ZM432 352H320C294 352 272 330 272 304S294 256 320 256H416C416 256 512 149 512 96S469 0 416 0S320 43 320 96C320 131 361 188 389 224H320C276 224 240 260 240 304S276 384 320 384H432C458 384 480 406 480 432S458 480 432 480H123C151 444 192 387 192 352C192 299 149 256 96 256S0 299 0 352S96 512 96 512H432C476 512 512 476 512 432S476 352 432 352ZM352 96C352 61 381 32 416 32S480 61 480 96C480 116 450 164 416 206C382 164 352 116 352 96ZM32 352C32 317 61 288 96 288S160 317 160 352C160 372 130 420 96 462C62 420 32 372 32 352ZM96 328C64 328 64 376 96 376C128 376 128 328 96 328Z"/></svg>