<svg xmlns="http://www.w3.org/2000/svg" viewBox="0 0 576 512"><!-- Font Awesome Pro 6.0.0-alpha1 by @fontawesome - https://fontawesome.com License - https://fontawesome.com/license (Commercial License) --><path d="M96 392C83 392 72 403 72 416S83 440 96 440S120 429 120 416S109 392 96 392ZM192 392C179 392 168 403 168 416S179 440 192 440S216 429 216 416S205 392 192 392ZM512 320H368V240C368 231 361 224 352 224S336 231 336 240V320H64C29 320 0 349 0 384V448C0 483 29 512 64 512H512C547 512 576 483 576 448V384C576 349 547 320 512 320ZM544 448C544 466 530 480 512 480H64C46 480 32 466 32 448V384C32 366 46 352 64 352H512C530 352 544 366 544 384V448ZM154 104C210 57 280 32 352 32S494 57 550 104C553 106 556 107 560 107C565 107 569 105 572 102C578 95 577 85 570 79C509 28 432 0 352 0S195 28 134 79C127 85 126 95 132 102C137 108 148 109 154 104ZM198 152C191 158 190 168 196 175C201 181 211 182 218 177C256 145 303 128 352 128S448 145 486 177C489 179 492 180 496 180C501 180 505 178 508 174C514 168 513 158 506 152C463 116 408 96 352 96S241 116 198 152Z"/></svg>