<svg xmlns="http://www.w3.org/2000/svg" viewBox="0 0 384 512"><!-- Font Awesome Pro 6.0.0-alpha1 by @fontawesome - https://fontawesome.com License - https://fontawesome.com/license (Commercial License) --><path d="M240 320C319 320 384 255 384 176S319 32 240 32H112C85 32 64 54 64 80V288H16C7 288 0 295 0 304S7 320 16 320H64V352H16C7 352 0 359 0 368S7 384 16 384H64V464C64 473 71 480 80 480S96 473 96 464V384H304C313 384 320 377 320 368S313 352 304 352H96V320H240ZM96 80C96 71 103 64 112 64H240C302 64 352 114 352 176S302 288 240 288H96V80Z"/></svg>