<svg xmlns="http://www.w3.org/2000/svg" viewBox="0 0 256 512"><!-- Font Awesome Pro 6.0.0-alpha1 by @fontawesome - https://fontawesome.com License - https://fontawesome.com/license (Commercial License) --><path d="M208 0H48C22 0 0 22 0 48V464C0 490 22 512 48 512H208C234 512 256 490 256 464V48C256 22 234 0 208 0ZM224 96H160C151 96 144 103 144 112S151 128 160 128H224V192H160C151 192 144 199 144 208S151 224 160 224H224V288H160C151 288 144 295 144 304S151 320 160 320H224V384H160C151 384 144 391 144 400S151 416 160 416H224V464C224 473 217 480 208 480H48C39 480 32 473 32 464V48C32 39 39 32 48 32H208C217 32 224 39 224 48V96Z"/></svg>