<svg xmlns="http://www.w3.org/2000/svg" viewBox="0 0 512 512"><!-- Font Awesome Pro 6.0.0-alpha1 by @fontawesome - https://fontawesome.com License - https://fontawesome.com/license (Commercial License) --><path d="M498 430L82 14C72 4 60 0 48 0C24 0 0 19 0 48V464C0 490 22 512 48 512H464C507 512 528 460 498 430ZM479 470C477 473 474 480 464 480H48C39 480 32 473 32 464V48C32 36 42 32 48 32C52 32 56 34 59 37L96 73L69 101C62 107 62 117 69 123C72 126 76 128 80 128S88 126 91 123L119 96L176 153L149 181C142 187 142 197 149 203C152 206 156 208 160 208S168 206 171 203L199 176L256 233L229 261C222 267 222 277 229 283C232 286 236 288 240 288S248 286 251 283L279 256L336 313L309 341C302 347 302 357 309 363C312 366 316 368 320 368S328 366 331 363L359 336L416 393L389 421C382 427 382 437 389 443C392 446 396 448 400 448S408 446 411 443L439 416L475 453C482 460 480 467 479 470ZM139 250C135 246 128 244 122 247C116 249 112 255 112 262V384C112 393 119 400 128 400H250C257 400 263 396 265 390C268 384 266 377 262 373L139 250ZM144 368V300L212 368H144Z"/></svg>