<svg xmlns="http://www.w3.org/2000/svg" viewBox="0 0 640 512"><!-- Font Awesome Pro 6.0.0-alpha1 by @fontawesome - https://fontawesome.com License - https://fontawesome.com/license (Commercial License) --><path d="M592 128H48C22 128 0 150 0 176V336C0 362 22 384 48 384H592C618 384 640 362 640 336V176C640 150 618 128 592 128ZM608 336C608 345 601 352 592 352H48C39 352 32 345 32 336V176C32 167 39 160 48 160H112V224C112 233 119 240 128 240S144 233 144 224V160H208V224C208 233 215 240 224 240S240 233 240 224V160H304V224C304 233 311 240 320 240S336 233 336 224V160H400V224C400 233 407 240 416 240S432 233 432 224V160H496V224C496 233 503 240 512 240S528 233 528 224V160H592C601 160 608 167 608 176V336Z"/></svg>