<svg xmlns="http://www.w3.org/2000/svg" viewBox="0 0 640 512"><!-- Font Awesome Pro 6.0.0-alpha1 by @fontawesome - https://fontawesome.com License - https://fontawesome.com/license (Commercial License) --><path d="M621 237L576 192H600C622 192 640 174 640 153C640 86 586 32 520 32H384C384 14 370 0 352 0H256C238 0 224 14 224 32H64C29 32 0 61 0 96V294C0 310 7 327 19 339L88 408C91 411 94 413 98 414C96 423 95 433 97 443C102 477 130 506 165 511C214 518 256 480 256 432C256 426 255 421 254 416H418C417 419 417 422 416 425C413 465 442 504 482 511C532 519 576 481 576 432C576 426 575 421 574 416H608C626 416 640 402 640 384V283C640 266 633 249 621 237ZM595 256H416V192H518C526 192 534 195 540 201L595 256ZM176 480C150 480 128 458 128 432S150 384 176 384S224 406 224 432S202 480 176 480ZM384 384H240C225 365 202 352 176 352S127 365 112 384H109L41 316C35 310 32 302 32 294V96C32 78 46 64 64 64H256V32H352V64H520C569 64 608 103 608 152C608 156 604 160 600 160H384V384ZM496 480C470 480 448 458 448 432S470 384 496 384S544 406 544 432S522 480 496 480ZM608 384H560C545 365 522 352 496 352S447 365 432 384H416V288H608V384ZM288 128H128C110 128 96 142 96 160V224C96 242 110 256 128 256H288C306 256 320 242 320 224V160C320 142 306 128 288 128ZM288 224H128V160H288V224Z"/></svg>