<svg xmlns="http://www.w3.org/2000/svg" viewBox="0 0 512 512"><!-- Font Awesome Pro 6.0.0-alpha1 by @fontawesome - https://fontawesome.com License - https://fontawesome.com/license (Commercial License) --><path d="M326 116L381 35C385 27 385 18 380 11C376 4 368 0 360 0H152C144 0 136 4 132 11C127 18 127 27 130 35L186 116C-10 236 0 392 0 412C0 467 49 512 110 512H402C463 512 512 467 512 412C512 392 521 235 326 116ZM167 32H344L300 98L290 112H222L212 98L167 32ZM480 412C480 450 445 480 402 480H110C67 480 32 450 32 412L32 409C31 349 52 236 201 144H310C460 236 481 349 480 409L480 412Z"/></svg>