<svg xmlns="http://www.w3.org/2000/svg" viewBox="0 0 512 512"><!-- Font Awesome Pro 6.0.0-alpha1 by @fontawesome - https://fontawesome.com License - https://fontawesome.com/license (Commercial License) --><path d="M326 116L381 35C385 27 385 18 380 11C376 4 368 0 360 0H152C144 0 136 4 132 11C127 18 127 27 130 35L186 116C-10 236 0 392 0 412C0 467 49 512 110 512H402C463 512 512 467 512 412C512 392 521 235 326 116ZM167 32H344L300 98L290 112H222L212 98L167 32ZM480 412C480 450 445 480 402 480H110C67 480 32 450 32 412L32 409C31 349 52 236 201 144H310C460 236 481 349 480 409L480 412ZM260 305L253 303C220 293 217 286 219 274C222 258 245 254 267 257C275 258 285 261 291 264C299 267 308 262 311 254C314 245 310 236 301 233C289 229 280 227 272 226C272 226 272 226 272 226V208C272 199 265 192 256 192S240 199 240 208V225C212 229 192 244 188 269C180 314 223 327 244 333L252 335C288 346 295 351 293 366C290 382 267 386 245 383C235 381 224 377 213 374L208 372C200 369 191 373 188 381C185 390 189 399 197 402L203 404C214 408 227 413 240 414C240 414 240 414 240 414V432C240 441 247 448 256 448S272 441 272 432V415C300 412 320 396 324 371C332 325 289 313 260 305Z"/></svg>