<svg xmlns="http://www.w3.org/2000/svg" viewBox="0 0 512 512"><!-- Font Awesome Pro 6.0.0-alpha1 by @fontawesome - https://fontawesome.com License - https://fontawesome.com/license (Commercial License) --><path d="M464 320H384L320 352L256 320H48C22 320 0 342 0 368V400C0 426 22 448 48 448H464C490 448 512 426 512 400V368C512 342 490 320 464 320ZM480 400C480 409 473 416 464 416H48C39 416 32 409 32 400V368C32 359 39 352 48 352H248L306 381C310 383 315 384 320 384C325 384 330 383 334 381L392 352H464C473 352 480 359 480 368V400ZM56 274C73 266 92 256 130 256C167 256 186 266 203 274C218 282 230 288 256 288C283 288 294 282 309 274C326 266 346 256 383 256C420 256 439 266 456 275C468 280 478 285 494 287C503 288 511 282 512 273C513 264 506 256 498 255C487 254 481 251 471 246C452 237 427 224 383 224C338 224 313 237 295 246C282 253 275 256 256 256C237 256 231 253 218 246C199 237 174 224 130 224C85 224 60 237 41 246C31 251 25 254 14 255C6 256 -1 264 0 273C1 282 9 288 18 287C34 285 44 280 56 274ZM464 64H48C22 64 0 86 0 112V144C0 170 22 192 48 192H464C490 192 512 170 512 144V112C512 86 490 64 464 64ZM480 144C480 153 473 160 464 160H48C39 160 32 153 32 144V112C32 103 39 96 48 96H464C473 96 480 103 480 112V144Z"/></svg>