<svg xmlns="http://www.w3.org/2000/svg" viewBox="0 0 512 512"><!-- Font Awesome Pro 6.0.0-alpha1 by @fontawesome - https://fontawesome.com License - https://fontawesome.com/license (Commercial License) --><path d="M466 165C485 146 485 116 466 97L415 46C397 28 365 28 347 46L186 207C161 197 135 192 108 192C74 192 39 200 8 217C-1 222 -3 235 5 243L126 364L101 389C94 386 87 384 80 384C54 384 32 406 32 432S54 480 80 480S128 458 128 432C128 425 126 418 123 411L148 386L269 507C272 510 277 512 281 512C287 512 292 509 295 504C324 449 327 384 305 326L466 165ZM80 448C71 448 64 441 64 432S71 416 80 416S96 423 96 432S89 448 80 448ZM276 469L43 236C64 228 86 224 108 224C156 224 201 243 235 277C287 328 302 403 276 469ZM290 296C281 281 271 267 258 254C245 241 231 231 217 222L370 69C376 63 387 63 393 69L443 119C450 126 450 136 443 142L290 296ZM498 254L476 229C470 223 460 222 453 228C447 234 446 244 452 251L475 276C478 279 480 283 480 287S478 295 475 298L394 379C388 385 378 385 372 379C366 373 355 373 349 379S343 396 349 402C358 411 370 416 383 416S408 411 417 402L498 320C517 302 517 272 498 254ZM121 167C125 167 129 166 133 163C139 157 139 146 133 140C130 137 128 133 128 129S130 121 133 118L214 37C220 31 230 30 237 37L261 60C268 66 278 65 284 59C290 52 289 42 283 36L259 14C241 -4 210 -4 192 14L110 95C91 114 91 144 110 163C113 166 117 167 121 167Z"/></svg>