<svg xmlns="http://www.w3.org/2000/svg" viewBox="0 0 512 512"><!-- Font Awesome Pro 6.0.0-alpha1 by @fontawesome - https://fontawesome.com License - https://fontawesome.com/license (Commercial License) --><path d="M194 340L219 315C226 318 233 320 240 320C266 320 288 298 288 272S266 224 240 224S192 246 192 272C192 279 194 286 197 293L172 318L51 197C48 194 43 192 39 192C33 192 28 195 25 200C-18 280 -6 382 62 450C103 491 158 512 212 512C246 512 281 504 312 487C321 482 323 469 315 461L194 340ZM240 256C249 256 256 263 256 272S249 288 240 288S224 281 224 272S231 256 240 256ZM212 480C164 480 119 461 85 427C33 376 18 301 44 235L277 468C256 476 234 480 212 480ZM208 0C199 0 192 7 192 16S199 32 208 32C358 32 480 154 480 304C480 313 487 320 496 320S512 313 512 304C512 136 376 0 208 0ZM208 96C199 96 192 103 192 112S199 128 208 128C305 128 384 207 384 304C384 313 391 320 400 320S416 313 416 304C416 189 323 96 208 96Z"/></svg>