<svg xmlns="http://www.w3.org/2000/svg" viewBox="0 0 576 512"><!-- Font Awesome Pro 6.0.0-alpha1 by @fontawesome - https://fontawesome.com License - https://fontawesome.com/license (Commercial License) --><path d="M532 272L55 34C47 30 38 33 34 41C30 49 33 58 41 62L492 288H64C29 288 0 317 0 352V416C0 451 29 480 64 480H512C547 480 576 451 576 416V344C576 313 559 286 532 272ZM544 416C544 434 530 448 512 448H64C46 448 32 434 32 416V352C32 334 46 320 64 320H512C530 320 544 334 544 352V416ZM96 360C83 360 72 371 72 384C72 397 83 408 96 408C109 408 120 397 120 384C120 371 109 360 96 360ZM192 360C179 360 168 371 168 384C168 397 179 408 192 408C205 408 216 397 216 384C216 371 205 360 192 360Z"/></svg>