<svg xmlns="http://www.w3.org/2000/svg" viewBox="0 0 576 512"><!-- Font Awesome Pro 6.0.0-alpha1 by @fontawesome - https://fontawesome.com License - https://fontawesome.com/license (Commercial License) --><path d="M560 96H432C423 96 416 103 416 112S423 128 432 128H560C569 128 576 121 576 112S569 96 560 96ZM432 64H560C569 64 576 57 576 48S569 32 560 32H432C423 32 416 39 416 48S423 64 432 64ZM560 192H432C423 192 416 199 416 208S423 224 432 224H560C569 224 576 217 576 208S569 192 560 192ZM304 32H114C51 32 0 83 0 145C0 196 34 239 81 253L6 377C-7 400 1 429 24 442L79 474C87 478 95 480 103 480C120 480 136 471 145 456L263 258H304C330 258 352 237 352 210V80C352 53 330 32 304 32ZM117 440C114 445 109 448 103 448C101 448 98 448 95 446L40 415C32 410 30 400 34 393L115 258H226L117 440ZM320 210C320 219 313 226 304 226H114C69 226 32 190 32 145C32 100 69 64 114 64H304C313 64 320 71 320 80V210ZM560 256H432C423 256 416 263 416 272S423 288 432 288H560C569 288 576 281 576 272S569 256 560 256ZM560 320H432C423 320 416 327 416 336S423 352 432 352H560C569 352 576 345 576 336S569 320 560 320ZM560 448H432C423 448 416 455 416 464S423 480 432 480H560C569 480 576 473 576 464S569 448 560 448Z"/></svg>