<svg xmlns="http://www.w3.org/2000/svg" viewBox="0 0 640 512"><!-- Font Awesome Pro 6.0.0-alpha1 by @fontawesome - https://fontawesome.com License - https://fontawesome.com/license (Commercial License) --><path d="M116 416H76C34 416 0 452 0 496C0 505 7 512 16 512S32 505 32 496C32 470 52 448 76 448H116C140 448 160 470 160 496C160 505 167 512 176 512S192 505 192 496C192 452 158 416 116 416ZM564 416H524C482 416 448 452 448 496C448 505 455 512 464 512S480 505 480 496C480 470 500 448 524 448H564C588 448 608 470 608 496C608 505 615 512 624 512S640 505 640 496C640 452 606 416 564 416ZM340 416H300C258 416 224 452 224 496C224 505 231 512 240 512S256 505 256 496C256 470 276 448 300 448H340C364 448 384 470 384 496C384 505 391 512 400 512S416 505 416 496C416 452 382 416 340 416ZM256 320C256 355 285 384 320 384S384 355 384 320S355 256 320 256S256 285 256 320ZM352 320C352 338 338 352 320 352S288 338 288 320S302 288 320 288S352 302 352 320ZM544 256C509 256 480 285 480 320S509 384 544 384S608 355 608 320S579 256 544 256ZM544 352C526 352 512 338 512 320S526 288 544 288S576 302 576 320S562 352 544 352ZM96 384C131 384 160 355 160 320S131 256 96 256S32 285 32 320S61 384 96 384ZM96 288C114 288 128 302 128 320S114 352 96 352S64 338 64 320S78 288 96 288ZM48 240C57 240 64 233 64 224V48C64 39 71 32 80 32H560C569 32 576 39 576 48V224C576 233 583 240 592 240S608 233 608 224V48C608 22 586 0 560 0H80C54 0 32 22 32 48V224C32 233 39 240 48 240Z"/></svg>