<svg xmlns="http://www.w3.org/2000/svg" viewBox="0 0 512 512"><!-- Font Awesome Pro 6.0.0-alpha1 by @fontawesome - https://fontawesome.com License - https://fontawesome.com/license (Commercial License) --><path d="M430 512C403 512 377 500 360 476C334 442 336 399 365 366L468 245C484 229 484 205 469 189C461 181 451 176 440 176C429 177 418 180 410 188L158 456C144 470 126 478 106 478C86 477 68 469 54 455C27 427 28 382 55 355L277 127C297 104 296 70 275 49C264 38 249 32 233 32C217 32 203 39 192 50L27 213C21 219 11 219 5 213C-2 206 -2 196 5 190L169 28C185 11 208 1 233 0C257 0 280 9 297 26C331 59 332 113 301 148L78 377C63 392 62 417 77 433C85 441 95 445 106 446C106 446 107 446 107 446C118 446 128 441 135 434L387 166C401 152 420 144 440 144C460 144 478 152 492 167C519 195 519 239 492 267L389 387C366 413 372 440 385 457C399 476 427 488 455 474L489 458C497 454 507 458 510 466C514 474 511 483 503 487L469 503C456 509 443 512 430 512Z"/></svg>