<svg xmlns="http://www.w3.org/2000/svg" viewBox="0 0 576 512"><!-- Font Awesome Pro 6.0.0-alpha1 by @fontawesome - https://fontawesome.com License - https://fontawesome.com/license (Commercial License) --><path d="M544 320H480V144C480 82 430 32 368 32H80C36 32 0 68 0 112V192C0 210 14 224 32 224H128V384C128 435 168 477 219 479L467 480C527 480 576 431 576 371V352C576 334 562 320 544 320ZM128 192H32V112C32 86 54 64 80 64S128 86 128 112V192ZM288 384C288 419 259 448 224 448S160 419 160 384V112C160 94 154 77 144 64H368C412 64 448 100 448 144V320H320C302 320 288 334 288 352V384ZM544 371C544 413 509 448 467 448H295C310 431 320 409 320 384V352H544V371Z"/></svg>