<svg xmlns="http://www.w3.org/2000/svg" viewBox="0 0 640 512"><!-- Font Awesome Pro 6.0.0-alpha1 by @fontawesome - https://fontawesome.com License - https://fontawesome.com/license (Commercial License) --><path d="M211 256L177 312C173 319 173 329 177 336C181 344 189 348 198 349H266L299 404C304 412 311 416 320 416S336 411 341 404L374 349H442C451 349 459 344 463 336C467 329 467 320 463 312L429 256L463 200C467 193 467 183 463 176C459 168 451 164 442 163H374L341 108C336 100 329 96 320 96S304 101 299 108L266 163H198C189 163 181 168 177 176C173 183 173 193 177 200L211 256ZM206 319L227 284L249 319H206ZM320 382L300 348H340L320 382ZM434 319H391L412 284L434 319ZM434 193L413 228L391 193H434ZM320 130L340 164H300L320 130ZM282 193H358L396 256L358 319H282L244 256L282 193ZM249 193L228 228L206 192H249ZM576 0C548 0 524 13 516 32H124C116 13 92 0 64 0C28 0 0 21 0 48V464C0 491 28 512 64 512C92 512 116 499 124 480H516C524 499 548 512 576 512C612 512 640 491 640 464V48C640 21 612 0 576 0ZM96 64V464C96 470 83 480 64 480S32 470 32 464V48C32 42 45 32 64 32S96 42 96 48V64ZM512 448H128V64H512V448ZM608 464C608 470 595 480 576 480S544 470 544 464V48C544 42 557 32 576 32S608 42 608 48V464Z"/></svg>