<svg xmlns="http://www.w3.org/2000/svg" viewBox="0 0 512 512"><!-- Font Awesome Pro 6.0.0-alpha1 by @fontawesome - https://fontawesome.com License - https://fontawesome.com/license (Commercial License) --><path d="M256 16C123 16 16 123 16 256S123 496 256 496S496 389 496 256S389 16 256 16ZM256 464C141 464 48 371 48 256S141 48 256 48S464 141 464 256S371 464 256 464ZM256 160C203 160 160 203 160 256S203 352 256 352S352 309 352 256S309 160 256 160ZM256 320C221 320 192 291 192 256C192 221 221 192 256 192S320 221 320 256C320 291 291 320 256 320Z"/></svg>