<svg xmlns="http://www.w3.org/2000/svg" viewBox="0 0 384 512"><!-- Font Awesome Pro 6.0.0-alpha1 by @fontawesome - https://fontawesome.com License - https://fontawesome.com/license (Commercial License) --><path d="M240 64C231 64 224 71 224 80V144C224 153 231 160 240 160S256 153 256 144V80C256 71 249 64 240 64ZM176 64C167 64 160 71 160 80V144C160 153 167 160 176 160S192 153 192 144V80C192 71 185 64 176 64ZM304 64C295 64 288 71 288 80V144C288 153 295 160 304 160S320 153 320 144V80C320 71 313 64 304 64ZM320 0H154C138 0 121 7 109 19L19 109C7 121 0 138 0 154V448C0 483 29 512 64 512H320C355 512 384 483 384 448V64C384 29 355 0 320 0ZM352 448C352 466 338 480 320 480H64C46 480 32 466 32 448V154C32 146 35 138 41 132L132 41C138 35 146 32 154 32H320C338 32 352 46 352 64V448Z"/></svg>