<svg xmlns="http://www.w3.org/2000/svg" viewBox="0 0 448 512"><!-- Font Awesome Pro 6.0.0-alpha1 by @fontawesome - https://fontawesome.com License - https://fontawesome.com/license (Commercial License) --><path d="M440 288C432 278 421 272 408 272H84L63 224H336C345 224 352 217 352 208C352 199 345 192 336 192H49L37 163C34 156 32 149 32 141V16C32 7 25 0 16 0S0 7 0 16V141C0 153 2 164 7 175L90 365C104 396 134 416 169 416H224V480H112C103 480 96 487 96 496C96 505 103 512 112 512H368C377 512 384 505 384 496C384 487 377 480 368 480H256V416H384C405 416 424 402 430 381L446 323C450 311 448 298 440 288ZM416 314L399 372C397 379 391 384 384 384H169C147 384 128 371 119 352L98 304H408C413 304 417 309 416 314Z"/></svg>