<svg xmlns="http://www.w3.org/2000/svg" viewBox="0 0 512 512"><!-- Font Awesome Pro 6.0.0-alpha1 by @fontawesome - https://fontawesome.com License - https://fontawesome.com/license (Commercial License) --><path d="M80 96H16C7 96 0 103 0 112C0 227 93 320 208 320H256V464C256 473 263 480 272 480S288 473 288 464V304C288 189 195 96 80 96ZM208 288C116 288 41 218 33 128H80C172 128 247 198 255 288H208ZM496 32H432C365 32 302 64 263 119C258 126 260 136 267 141C274 146 284 144 289 137C322 91 376 64 432 64H479C472 148 404 216 319 223C310 224 303 232 304 241C305 249 312 255 320 255C320 255 321 255 321 255C428 246 512 155 512 48C512 39 505 32 496 32Z"/></svg>