<svg xmlns="http://www.w3.org/2000/svg" viewBox="0 0 640 512"><!-- Font Awesome Pro 6.0.0-alpha1 by @fontawesome - https://fontawesome.com License - https://fontawesome.com/license (Commercial License) --><path d="M192 80C192 71 185 64 176 64H80C71 64 64 71 64 80V176C64 185 71 192 80 192H176C185 192 192 185 192 176V80ZM160 160H96V96H160V160ZM448 144V208C448 217 455 224 464 224H464C473 224 480 217 480 208V144C480 118 458 96 432 96H304C295 96 288 103 288 112V112C288 121 295 128 304 128H432C441 128 448 135 448 144ZM256 192V64C256 29 227 0 192 0H48C22 0 0 22 0 48V192C0 227 29 256 64 256H192C227 256 256 227 256 192ZM32 192V64C32 46 46 32 64 32H192C210 32 224 46 224 64V192C224 210 210 224 192 224H64C46 224 32 210 32 192ZM576 256H448C413 256 384 285 384 320V448C384 483 413 512 448 512H576C611 512 640 483 640 448V320C640 285 611 256 576 256ZM608 448C608 466 594 480 576 480H448C430 480 416 466 416 448V320C416 302 430 288 448 288H576C594 288 608 302 608 320V448ZM560 320H464C455 320 448 327 448 336V432C448 441 455 448 464 448H560C569 448 576 441 576 432V336C576 327 569 320 560 320ZM544 416H480V352H544V416ZM192 368V304C192 295 185 288 176 288H176C167 288 160 295 160 304V368C160 394 182 416 208 416H336C345 416 352 409 352 400V400C352 391 345 384 336 384H208C199 384 192 377 192 368Z"/></svg>