<svg xmlns="http://www.w3.org/2000/svg" viewBox="0 0 448 512"><!-- Font Awesome Pro 6.0.0-alpha1 by @fontawesome - https://fontawesome.com License - https://fontawesome.com/license (Commercial License) --><path d="M384 32H64C29 32 0 61 0 96V416C0 451 29 480 64 480H384C419 480 448 451 448 416V96C448 61 419 32 384 32ZM416 416C416 434 402 448 384 448H64C46 448 32 434 32 416V96C32 78 46 64 64 64H384C402 64 416 78 416 96V416ZM112 128C103 128 96 135 96 144V272C96 281 103 288 112 288S128 281 128 272V144C128 135 121 128 112 128ZM176 128C167 128 160 135 160 144V272C160 281 167 288 176 288S192 281 192 272V144C192 135 185 128 176 128ZM240 128C231 128 224 135 224 144V272C224 281 231 288 240 288S256 281 256 272V144C256 135 249 128 240 128Z"/></svg>