<svg xmlns="http://www.w3.org/2000/svg" viewBox="0 0 640 512"><!-- Font Awesome Pro 6.0.0-alpha1 by @fontawesome - https://fontawesome.com License - https://fontawesome.com/license (Commercial License) --><path d="M224 144V272C224 281 231 288 240 288S256 281 256 272V144C256 135 249 128 240 128S224 135 224 144ZM160 144V272C160 281 167 288 176 288S192 281 192 272V144C192 135 185 128 176 128S160 135 160 144ZM234 448H64C46 448 32 434 32 416V96C32 78 46 64 64 64H384C402 64 416 78 416 96V101C426 98 437 96 448 96C448 61 419 32 384 32H64C29 32 0 61 0 96V416C0 451 29 480 64 480H254C248 474 243 466 238 459C236 455 235 451 234 448ZM630 368L513 165C499 142 475 128 448 128S397 142 383 165L266 368C253 391 253 420 266 443C279 466 304 480 331 480H565C592 480 617 466 630 443C643 420 643 391 630 368ZM565 448H331C298 448 277 413 294 384L411 181C419 168 433 160 448 160S477 168 485 181L602 384C619 413 598 448 565 448ZM96 144V272C96 281 103 288 112 288S128 281 128 272V144C128 135 121 128 112 128S96 135 96 144ZM448 376C435 376 424 387 424 400C424 413 435 424 448 424S472 413 472 400C472 387 461 376 448 376ZM448 352C457 352 464 345 464 336V240C464 231 457 224 448 224S432 231 432 240V336C432 345 439 352 448 352Z"/></svg>