<svg xmlns="http://www.w3.org/2000/svg" viewBox="0 0 448 512"><!-- Font Awesome Pro 6.0.0-alpha1 by @fontawesome - https://fontawesome.com License - https://fontawesome.com/license (Commercial License) --><path d="M368 320C342 320 320 332 305 351L157 277C159 270 160 263 160 256S159 242 157 235L305 161C320 180 342 192 368 192C412 192 448 156 448 112S412 32 368 32S288 68 288 112C288 119 289 126 291 133L143 207C128 188 106 176 80 176C36 176 0 212 0 256S36 336 80 336C106 336 128 324 143 305L291 379C289 386 288 393 288 400C288 444 324 480 368 480S448 444 448 400S412 320 368 320ZM368 64C394 64 416 86 416 112S394 160 368 160S320 138 320 112S342 64 368 64ZM80 304C54 304 32 282 32 256S54 208 80 208S128 230 128 256S106 304 80 304ZM368 448C342 448 320 426 320 400S342 352 368 352S416 374 416 400S394 448 368 448Z"/></svg>