<svg xmlns="http://www.w3.org/2000/svg" viewBox="0 0 576 512"><!-- Font Awesome Pro 6.0.0-alpha1 by @fontawesome - https://fontawesome.com License - https://fontawesome.com/license (Commercial License) --><path d="M400 352C391 352 384 359 384 368V448C384 466 370 480 352 480H64C46 480 32 466 32 448V160C32 142 46 128 64 128H176C185 128 192 121 192 112S185 96 176 96H64C29 96 0 125 0 160V448C0 483 29 512 64 512H352C387 512 416 483 416 448V368C416 359 409 352 400 352ZM570 132L410 4C403 -2 393 -1 388 6C382 13 383 23 390 28L516 128H368C271 128 192 207 192 304V336C192 345 199 352 208 352S224 345 224 336V304C224 225 289 160 368 160H516L390 260C383 265 382 275 388 282C391 286 395 288 400 288C404 288 407 287 410 284L570 156C574 153 576 149 576 144S574 135 570 132Z"/></svg>