<svg xmlns="http://www.w3.org/2000/svg" viewBox="0 0 640 512"><!-- Font Awesome Pro 6.0.0-alpha1 by @fontawesome - https://fontawesome.com License - https://fontawesome.com/license (Commercial License) --><path d="M494 186C482 156 452 135 417 138C401 105 360 86 322 99C295 75 249 75 222 99C196 90 166 96 146 113C138 111 130 109 121 109C79 109 45 142 45 183C45 185 45 187 45 188C18 200 0 226 0 256S18 312 45 324C45 325 45 327 45 329C45 362 67 389 98 399L133 487C139 502 154 512 170 512H194C216 512 234 494 234 472V422C245 428 258 432 272 432C281 432 290 430 298 427V472C298 494 316 512 338 512H362C378 512 393 502 399 487L433 402C470 397 499 366 499 329C499 327 499 325 499 324C526 312 544 286 544 256C544 224 524 197 494 186ZM202 472C202 476 198 480 194 480H170C167 480 164 478 163 475L134 402C138 401 142 400 146 399C162 412 182 419 202 417V472ZM369 475C368 478 365 480 362 480H338C334 480 330 476 330 472V415C354 420 379 414 398 399C398 399 399 399 399 399L369 475ZM477 297C473 298 469 301 467 305C464 308 464 313 465 317C466 322 467 325 467 329C467 359 432 381 401 365C395 362 386 363 382 369C369 385 346 390 326 380C319 376 311 378 306 384C289 404 255 404 238 384C234 380 230 378 225 378C223 378 220 379 218 380C198 390 175 385 162 369C158 363 149 362 143 365C135 369 128 371 121 370L121 370L119 371C97 369 77 351 77 329C77 325 78 322 79 317C80 313 80 308 77 305C75 301 71 298 67 297C47 293 32 276 32 256S47 219 67 215C71 214 75 211 77 207C80 204 80 199 79 195C78 190 77 187 77 183C77 153 112 131 143 147C149 150 157 149 162 143C175 127 198 122 218 132C224 135 233 134 238 128C255 108 289 108 306 128C311 134 319 135 326 132C353 118 385 134 391 160C391 164 394 168 398 170C402 173 406 173 410 172C415 171 419 170 423 170C443 170 461 184 466 203C467 209 472 214 478 215C498 219 512 236 512 256C512 276 497 293 477 297ZM623 92L580 49C569 38 554 32 539 32H432V16C432 7 425 0 416 0C407 0 400 7 400 16V80C400 89 407 96 416 96C425 96 432 89 432 80V64H539C546 64 553 67 558 72L600 114C608 122 610 135 605 145C601 154 591 160 581 160H550C541 160 534 167 534 176S541 192 550 192H581C604 192 624 180 634 160C645 137 641 110 623 92ZM512 96C512 87 505 80 496 80C487 80 480 87 480 96C480 105 487 112 496 112C505 112 512 105 512 96Z"/></svg>