<svg xmlns="http://www.w3.org/2000/svg" viewBox="0 0 640 512"><!-- Font Awesome Pro 6.0.0-alpha1 by @fontawesome - https://fontawesome.com License - https://fontawesome.com/license (Commercial License) --><path d="M624 0C615 0 608 7 608 16V160H32V16C32 7 25 0 16 0S0 7 0 16V496C0 505 7 512 16 512S32 505 32 496V448H608V496C608 505 615 512 624 512S640 505 640 496V16C640 7 633 0 624 0ZM608 416H32V192H608V416ZM384 128H448C466 128 480 114 480 96V32C480 14 466 0 448 0H384C366 0 352 14 352 32V96C352 114 366 128 384 128ZM384 32H448V96H384V32ZM288 384H352C370 384 384 370 384 352V288C384 270 370 256 352 256H288C270 256 256 270 256 288V352C256 370 270 384 288 384ZM288 288H352V352H288V288ZM128 384H192C210 384 224 370 224 352V288C224 270 210 256 192 256H128C110 256 96 270 96 288V352C96 370 110 384 128 384ZM128 288H192V352H128V288Z"/></svg>