<svg xmlns="http://www.w3.org/2000/svg" viewBox="0 0 512 512"><!-- Font Awesome Pro 6.0.0-alpha1 by @fontawesome - https://fontawesome.com License - https://fontawesome.com/license (Commercial License) --><path d="M466 84L274 4C263 -1 249 -1 238 4L46 84C28 91 16 109 16 128C16 326 130 464 238 508C249 513 263 513 274 508C360 473 496 349 496 128C496 109 484 91 466 84ZM262 479C258 480 254 480 250 479C152 440 48 304 48 128C48 122 52 116 58 113L250 33C254 32 258 31 262 33L454 113C460 116 464 122 464 128C464 304 360 440 262 479ZM384 176H272V96C272 87 265 80 256 80S240 87 240 96V176H128C119 176 112 183 112 192S119 208 128 208H240V416C240 425 247 432 256 432S272 425 272 416V208H384C393 208 400 201 400 192S393 176 384 176Z"/></svg>