<svg xmlns="http://www.w3.org/2000/svg" viewBox="0 0 512 512"><!-- Font Awesome Pro 6.0.0-alpha1 by @fontawesome - https://fontawesome.com License - https://fontawesome.com/license (Commercial License) --><path d="M466 84L274 4C263 -1 249 -1 238 4L46 84C28 91 16 109 16 128C16 326 130 464 238 508C249 513 263 513 274 508C360 473 496 349 496 128C496 109 484 91 466 84ZM256 32H256C256 32 256 32 256 32ZM48 128C48 122 52 116 58 113L240 37V474C145 431 48 298 48 128ZM272 474V37L454 113C460 116 464 122 464 128C464 298 367 431 272 474Z"/></svg>