<svg xmlns="http://www.w3.org/2000/svg" viewBox="0 0 640 512"><!-- Font Awesome Pro 6.0.0-alpha1 by @fontawesome - https://fontawesome.com License - https://fontawesome.com/license (Commercial License) --><path d="M338 272C302 272 261 286 233 306C208 324 188 341 128 341H64C29 341 0 371 0 409S29 480 64 480H128L186 495C217 504 250 512 293 512C404 512 512 457 512 375C512 306 428 272 338 272ZM112 448H64C47 448 32 430 32 409C32 389 46 373 64 373H112V448ZM194 464L144 451V372C199 369 225 351 247 335C338 270 480 317 480 375C480 437 358 513 194 464ZM421 0C378 0 345 8 314 17L256 32H192C157 32 128 65 128 103S157 171 192 171H256C316 171 336 188 361 206C389 226 430 240 465 240C556 240 640 206 640 137C640 56 533 0 421 0ZM240 139H192C174 139 160 123 160 103C160 82 175 64 192 64H240V139ZM466 208C438 208 403 197 379 180C355 163 330 143 272 140V61L323 48C352 39 382 32 421 32C473 32 608 58 608 137C608 184 536 208 466 208Z"/></svg>