<svg xmlns="http://www.w3.org/2000/svg" viewBox="0 0 640 512"><!-- Font Awesome Pro 6.0.0-alpha1 by @fontawesome - https://fontawesome.com License - https://fontawesome.com/license (Commercial License) --><path d="M26 3C19 -2 9 -1 3 6C-2 13 -1 23 6 29L614 509C617 511 621 512 624 512C629 512 633 510 637 506C642 499 641 489 634 483L26 3ZM526 32C530 32 533 34 535 37L606 143C611 150 606 160 597 160H302L342 192H597C613 192 627 183 635 169C642 156 642 139 633 126L562 19C554 7 541 0 526 0H114C110 0 105 1 102 2L140 32H526ZM544 240V351L576 377V240C576 231 569 224 560 224S544 231 544 240ZM96 352V240C96 231 89 224 80 224S64 231 64 240V464C64 490 86 512 112 512H336C362 512 384 490 384 464V388L338 352H96ZM352 464C352 473 345 480 336 480H112C103 480 96 473 96 464V384H352V464ZM95 160H43C34 160 29 151 34 143L48 123L23 103L7 126C-2 139 -2 155 5 169C12 183 27 192 43 192H136L95 160Z"/></svg>