<svg xmlns="http://www.w3.org/2000/svg" viewBox="0 0 640 512"><!-- Font Awesome Pro 6.0.0-alpha1 by @fontawesome - https://fontawesome.com License - https://fontawesome.com/license (Commercial License) --><path d="M368 224H368C359 224 352 231 352 240V352H96V240C96 231 89 224 80 224S64 231 64 240V464C64 490 86 512 112 512H336C362 512 384 490 384 464V240C384 231 377 224 368 224ZM352 464C352 473 345 480 336 480H112C103 480 96 473 96 464V384H352V464ZM560 224C551 224 544 231 544 240V496C544 505 551 512 560 512S576 505 576 496V240C576 231 569 224 560 224ZM633 126L562 19C554 7 541 0 526 0H114C99 0 86 7 78 19L7 126C-2 139 -2 155 5 169C12 183 27 192 43 192H597C613 192 627 183 635 169C642 156 642 139 633 126ZM597 160H43C34 160 29 151 34 143L105 37C107 34 110 32 114 32H526C530 32 533 34 535 37L606 143C611 150 606 160 597 160Z"/></svg>