<svg xmlns="http://www.w3.org/2000/svg" viewBox="0 0 512 512"><!-- Font Awesome Pro 6.0.0-alpha1 by @fontawesome - https://fontawesome.com License - https://fontawesome.com/license (Commercial License) --><path d="M181 245L101 325C95 331 95 341 101 347C104 350 108 352 112 352S120 350 123 347L203 267C210 261 210 251 203 245C197 238 187 238 181 245ZM165 411C168 414 172 416 176 416S184 414 187 411L267 331C274 325 274 315 267 309C261 302 251 302 245 309L165 389C158 395 158 405 165 411ZM503 66L446 9C440 3 432 0 423 0C415 0 407 3 401 9L384 26C360 51 356 88 374 115L268 222L220 175C211 165 198 160 185 160C174 160 164 163 155 170L19 275C-4 293 -7 328 15 350L162 497C172 507 185 512 198 512C212 512 227 505 237 493L342 357C357 338 355 309 337 292L290 244L396 138C408 145 421 149 435 149C453 149 472 142 486 128L503 111C515 99 515 78 503 66ZM315 314C321 321 322 331 316 338L212 473C208 477 203 480 198 480C195 480 190 479 185 475L37 327C32 322 32 316 32 313C32 310 33 305 39 300L174 196C178 193 182 192 185 192C190 192 194 194 198 197L315 314ZM463 106C455 113 445 117 435 117C424 117 414 113 406 106C399 98 395 88 395 77C395 66 399 57 406 49L423 32L480 89L463 106Z"/></svg>