<svg xmlns="http://www.w3.org/2000/svg" viewBox="0 0 512 512"><!-- Font Awesome Pro 6.0.0-alpha1 by @fontawesome - https://fontawesome.com License - https://fontawesome.com/license (Commercial License) --><path d="M347 101C341 94 331 94 325 101L314 111L296 93C261 58 208 55 169 83L143 57C127 41 106 32 84 32C38 32 0 70 0 116V464C0 473 7 480 16 480S32 473 32 464V116C32 87 55 64 84 64C98 64 111 69 121 79L147 105C135 122 128 142 128 162C128 189 138 213 157 232L175 250L165 261C158 267 158 277 165 283C168 286 172 288 176 288S184 286 187 283L347 123C354 117 354 107 347 101ZM198 228L179 209C167 197 160 180 160 162C160 145 167 128 179 115C205 90 247 90 273 115L292 134L198 228ZM296 400C283 400 272 411 272 424C272 437 283 448 296 448S320 437 320 424C320 411 309 400 296 400ZM352 264C352 251 341 240 328 240S304 251 304 264C304 277 315 288 328 288S352 277 352 264ZM288 328C288 315 277 304 264 304S240 315 240 328C240 341 251 352 264 352S288 341 288 328ZM424 272C411 272 400 283 400 296C400 309 411 320 424 320S448 309 448 296C448 283 437 272 424 272ZM488 208C475 208 464 219 464 232C464 245 475 256 488 256S512 245 512 232C512 219 501 208 488 208ZM416 200C416 187 405 176 392 176S368 187 368 200C368 213 379 224 392 224S416 213 416 200ZM360 336C347 336 336 347 336 360C336 373 347 384 360 384S384 373 384 360C384 347 373 336 360 336Z"/></svg>