<svg xmlns="http://www.w3.org/2000/svg" viewBox="0 0 512 512"><!-- Font Awesome Pro 6.0.0-alpha1 by @fontawesome - https://fontawesome.com License - https://fontawesome.com/license (Commercial License) --><path d="M496 64H96V16C96 7 89 0 80 0S64 7 64 16V64H16C7 64 0 71 0 80S7 96 16 96H64V496C64 505 71 512 80 512S96 505 96 496V96H192V144C166 144 144 166 144 192V352C144 378 166 400 192 400H448C474 400 496 378 496 352V192C496 166 474 144 448 144V96H496C505 96 512 89 512 80S505 64 496 64ZM464 192V352C464 361 457 368 448 368H192C183 368 176 361 176 352V192C176 183 183 176 192 176H448C457 176 464 183 464 192ZM416 144H224V96H416V144Z"/></svg>