<svg xmlns="http://www.w3.org/2000/svg" viewBox="0 0 640 512"><!-- Font Awesome Pro 6.0.0-alpha1 by @fontawesome - https://fontawesome.com License - https://fontawesome.com/license (Commercial License) --><path d="M96 384H64C46 384 32 398 32 416V480C32 498 46 512 64 512H96C114 512 128 498 128 480V416C128 398 114 384 96 384ZM96 480H64V416H96V480ZM384 160H416V250L448 275V160C448 142 434 128 416 128H384C366 128 352 142 352 160V200L384 225V160ZM544 32H576V377L608 402V32C608 14 594 0 576 0H544C526 0 512 14 512 32V326L544 351V32ZM192 288V480C192 498 206 512 224 512H256C274 512 288 498 288 480V312L218 257C203 260 192 272 192 288ZM224 288H256V480H224V288ZM416 480H384V388L352 363V480C352 498 366 512 384 512H416C434 512 448 498 448 480V439L416 413V480ZM634 483L26 3C19 -2 9 -1 3 6C-2 13 -1 23 6 29L614 509C617 511 621 512 624 512C629 512 633 510 637 506C642 499 641 489 634 483Z"/></svg>