<svg xmlns="http://www.w3.org/2000/svg" viewBox="0 0 576 512"><!-- Font Awesome Pro 6.0.0-alpha1 by @fontawesome - https://fontawesome.com License - https://fontawesome.com/license (Commercial License) --><path d="M288 192C253 192 224 221 224 256S253 320 288 320S352 291 352 256S323 192 288 192ZM288 288C270 288 256 274 256 256S270 224 288 224S320 238 320 256S306 288 288 288ZM32 256C32 194 56 135 100 91C106 85 106 75 100 69C94 62 84 62 77 69C27 119 0 185 0 256S27 393 77 443C81 446 85 448 89 448C93 448 97 446 100 443C106 437 106 427 100 421C56 377 32 318 32 256ZM499 69C492 62 482 62 476 69C470 75 470 85 476 91C520 135 544 194 544 256S520 377 476 421C470 427 470 437 476 443C479 446 483 448 487 448C491 448 495 446 499 443C549 393 576 327 576 256S549 119 499 69ZM167 132C161 126 151 127 145 133C113 166 96 210 96 256S113 346 145 379C148 382 152 384 157 384C160 384 164 383 167 380C174 374 174 363 168 357C142 330 128 294 128 256S142 182 168 155C174 149 174 138 167 132ZM431 133C425 127 415 126 409 132C402 138 402 149 408 155C434 182 448 218 448 256S434 330 408 357C402 363 402 374 409 380C412 383 416 384 419 384C424 384 428 382 431 379C463 346 480 302 480 256S463 166 431 133Z"/></svg>