<svg xmlns="http://www.w3.org/2000/svg" viewBox="0 0 640 512"><!-- Font Awesome Pro 6.0.0-alpha1 by @fontawesome - https://fontawesome.com License - https://fontawesome.com/license (Commercial License) --><path d="M450 280C447 285 447 291 450 296C453 301 458 304 464 304H624C633 304 640 297 640 288S633 272 624 272H492L542 184C545 178 545 171 541 166C537 161 530 159 524 161L342 209C348 173 351 141 352 118C353 76 324 39 285 33C262 29 238 36 220 51C202 66 192 88 192 112V176C192 185 199 192 208 192S224 185 224 176V112C224 98 230 85 241 75C252 66 266 62 280 65C303 68 321 91 320 117C319 141 315 178 308 219L217 243C183 253 160 284 160 320V422C160 454 186 480 218 480C237 480 255 470 266 454C296 407 321 321 336 244L495 201L450 280ZM239 437C234 444 226 448 218 448C203 448 192 437 192 422V320C192 298 206 280 226 274L301 253C287 322 265 396 239 437ZM123 181C117 174 107 174 101 181L64 217L27 181C21 174 11 174 5 181C-2 187 -2 197 5 203L41 240L5 277C-2 283 -2 293 5 299C8 302 12 304 16 304S24 302 27 299L64 263L101 299C104 302 108 304 112 304S120 302 123 299C130 293 130 283 123 277L87 240L123 203C130 197 130 187 123 181ZM112 352H16C7 352 0 359 0 368C0 377 7 384 16 384H112C121 384 128 377 128 368C128 359 121 352 112 352ZM624 352H352C343 352 336 359 336 368C336 377 343 384 352 384H624C633 384 640 377 640 368C640 359 633 352 624 352Z"/></svg>