<svg xmlns="http://www.w3.org/2000/svg" viewBox="0 0 448 512"><!-- Font Awesome Pro 6.0.0-alpha1 by @fontawesome - https://fontawesome.com License - https://fontawesome.com/license (Commercial License) --><path d="M336 144H192C166 144 144 166 144 192V320C144 346 166 368 192 368H336C362 368 384 346 384 320V192C384 166 362 144 336 144ZM248 176H280V208H248V176ZM176 192C176 183 183 176 192 176H216V208H176V192ZM216 336H192C183 336 176 329 176 320V304H216V336ZM280 336H248V304H280V336ZM352 320C352 329 345 336 336 336H312V304H352V320ZM352 272H176V240H352V272ZM352 208H312V176H336C345 176 352 183 352 192V208ZM429 109L339 19C327 7 310 0 294 0H144C109 0 80 29 80 64V368C80 403 109 432 144 432H384C419 432 448 403 448 368V154C448 138 441 121 429 109ZM416 368C416 386 402 400 384 400H144C126 400 112 386 112 368V64C112 46 126 32 144 32H294C302 32 310 35 316 41L407 132C413 138 416 146 416 154V368ZM336 480H96C61 480 32 451 32 416V112C32 103 25 96 16 96S0 103 0 112V416C0 469 43 512 96 512H336C345 512 352 505 352 496S345 480 336 480Z"/></svg>