<svg xmlns="http://www.w3.org/2000/svg" viewBox="0 0 640 512"><!-- Font Awesome Pro 6.0.0-alpha1 by @fontawesome - https://fontawesome.com License - https://fontawesome.com/license (Commercial License) --><path d="M528 96C530 96 533 95 535 94L599 62C607 58 610 49 606 41C602 33 593 30 585 34L521 66C514 69 511 77 512 84C514 91 521 96 528 96ZM41 62L105 94C113 98 122 95 126 87C130 79 127 70 119 66L55 34C47 30 38 33 34 41C30 49 33 58 41 62ZM624 192H560C551 192 544 199 544 208C544 217 551 224 560 224H624C633 224 640 217 640 208C640 199 633 192 624 192ZM80 192H16C7 192 0 199 0 208C0 217 7 224 16 224H80C89 224 96 217 96 208C96 199 89 192 80 192ZM512 384H128C110 384 96 398 96 416V448C96 466 110 480 128 480H512C530 480 544 466 544 448V416C544 398 530 384 512 384ZM512 448H128V416H512V448ZM148 352C156 352 163 346 164 338L185 170C188 146 208 128 233 128H408C432 128 452 146 455 170L476 338C477 346 484 352 492 352C502 352 509 344 508 334L487 166C482 126 448 96 407 96H233C192 96 158 126 153 166L132 334C131 344 138 352 148 352ZM224 174L200 334C199 342 205 350 214 352C214 352 215 352 216 352C224 352 231 346 232 338L256 178C257 170 251 162 242 160C234 159 226 165 224 174Z"/></svg>