<svg xmlns="http://www.w3.org/2000/svg" viewBox="0 0 448 512"><!-- Font Awesome Pro 6.0.0-alpha1 by @fontawesome - https://fontawesome.com License - https://fontawesome.com/license (Commercial License) --><path d="M416 384H32C14 384 0 398 0 416V448C0 466 14 480 32 480H416C434 480 448 466 448 448V416C448 398 434 384 416 384ZM416 448H32V416H416V448ZM52 352C60 352 67 346 68 338L89 170C92 146 112 128 137 128H312C336 128 356 146 359 170L380 338C381 346 388 352 396 352C406 352 413 344 412 334L391 166C386 126 352 96 311 96H137C96 96 62 126 57 166L36 334C35 344 42 352 52 352ZM128 174L104 334C103 342 109 350 118 352C118 352 119 352 120 352C128 352 135 346 136 338L160 178C161 170 155 162 146 160C138 159 130 165 128 174Z"/></svg>