<svg xmlns="http://www.w3.org/2000/svg" viewBox="0 0 640 512"><!-- Font Awesome Pro 6.0.0-alpha1 by @fontawesome - https://fontawesome.com License - https://fontawesome.com/license (Commercial License) --><path d="M616 365L606 356C599 351 589 352 583 359L583 359C578 365 579 375 585 381L595 389C601 394 606 401 607 409C611 430 595 448 575 448H448V384H458C523 384 576 331 576 266V129H592C601 129 608 121 608 113V113C608 104 601 97 592 97H480C462 97 448 111 448 129V177C448 205 419 216 406 220C358 233 269 216 222 137C170 49 122 32 53 32H16C7 32 0 39 0 48V48C0 57 7 64 16 64H32V232C32 296 72 351 128 373V448H48C39 448 32 455 32 464V464C32 473 39 480 48 480H572C607 480 638 453 640 419C641 398 632 378 616 365ZM64 232V64C117 66 152 82 194 153C237 224 310 256 372 256C387 256 401 254 414 250C456 239 480 212 480 177V129H544V266C544 313 505 352 458 352H184C118 352 64 298 64 232ZM160 448V382C168 383 176 384 184 384H416V448H160Z"/></svg>