<svg xmlns="http://www.w3.org/2000/svg" viewBox="0 0 512 512"><!-- Font Awesome Pro 6.0.0-alpha1 by @fontawesome - https://fontawesome.com License - https://fontawesome.com/license (Commercial License) --><path d="M272 160C298 160 320 138 320 112H496C505 112 512 105 512 96S505 80 496 80H320C320 54 298 32 272 32S224 54 224 80V112C224 138 246 160 272 160ZM256 80C256 71 263 64 272 64S288 71 288 80V112C288 121 281 128 272 128S256 121 256 112V80ZM16 112H176C185 112 192 105 192 96S185 80 176 80H16C7 80 0 87 0 96S7 112 16 112ZM496 240H448C448 214 426 192 400 192S352 214 352 240V272C352 298 374 320 400 320S448 298 448 272H496C505 272 512 265 512 256S505 240 496 240ZM416 272C416 281 409 288 400 288S384 281 384 272V240C384 231 391 224 400 224S416 231 416 240V272ZM496 400H224C224 374 202 352 176 352S128 374 128 400V432C128 458 150 480 176 480S224 458 224 432H496C505 432 512 425 512 416S505 400 496 400ZM192 432C192 441 185 448 176 448S160 441 160 432V400C160 391 167 384 176 384S192 391 192 400V432ZM16 272H304C313 272 320 265 320 256S313 240 304 240H16C7 240 0 247 0 256S7 272 16 272ZM80 400H16C7 400 0 407 0 416S7 432 16 432H80C89 432 96 425 96 416S89 400 80 400Z"/></svg>