<svg xmlns="http://www.w3.org/2000/svg" viewBox="0 0 640 512"><!-- Font Awesome Pro 6.0.0-alpha1 by @fontawesome - https://fontawesome.com License - https://fontawesome.com/license (Commercial License) --><path d="M352 32C393 32 430 55 450 91C456 102 467 108 478 108C483 108 488 107 493 105C504 99 516 96 528 96C572 96 608 132 608 176S572 256 528 256H468C460 256 453 259 447 264C434 275 413 288 384 288C355 288 334 275 321 264C315 259 308 256 300 256H144C82 256 32 206 32 144S82 32 144 32C175 32 203 44 225 67C231 73 239 77 248 77S265 73 271 67C293 44 321 32 352 32M352 0C311 0 274 17 248 45C222 17 185 0 144 0C65 0 0 65 0 144C0 223 65 288 144 288H300C323 308 352 320 384 320S445 308 468 288H528C590 288 640 238 640 176S590 64 528 64C510 64 493 69 478 76C454 31 407 0 352 0L352 0ZM624 384H80C71 384 64 391 64 400C64 409 71 416 80 416H624C633 416 640 409 640 400C640 391 633 384 624 384L624 384ZM560 480H240C231 480 224 487 224 496C224 505 231 512 240 512H560C569 512 576 505 576 496C576 487 569 480 560 480L560 480ZM144 480H16C7 480 0 487 0 496C0 505 7 512 16 512H144C153 512 160 505 160 496C160 487 153 480 144 480L144 480Z"/></svg>