<svg xmlns="http://www.w3.org/2000/svg" viewBox="0 0 640 512"><!-- Font Awesome Pro 6.0.0-alpha1 by @fontawesome - https://fontawesome.com License - https://fontawesome.com/license (Commercial License) --><path d="M488 352H48C22 352 0 374 0 400V464C0 490 22 512 48 512H488C501 512 512 501 512 488V376C512 363 501 352 488 352ZM192 480H48C39 480 32 473 32 464V400C32 391 39 384 48 384H192V480ZM480 480H224V384H480V480ZM560 352C551 352 544 359 544 368V496C544 505 551 512 560 512S576 505 576 496V368C576 359 569 352 560 352ZM624 352C615 352 608 359 608 368V496C608 505 615 512 624 512S640 505 640 496V368C640 359 633 352 624 352ZM474 131C438 104 416 61 416 16C416 7 409 0 400 0S384 7 384 16C384 71 410 124 454 157C490 184 512 227 512 272C512 281 519 288 528 288S544 281 544 272C544 217 518 164 474 131ZM550 157C586 184 608 227 608 272C608 281 615 288 624 288S640 281 640 272C640 217 614 164 570 131C534 104 512 61 512 16C512 7 505 0 496 0S480 7 480 16C480 71 506 124 550 157Z"/></svg>