<svg xmlns="http://www.w3.org/2000/svg" viewBox="0 0 640 512"><!-- Font Awesome Pro 6.0.0-alpha1 by @fontawesome - https://fontawesome.com License - https://fontawesome.com/license (Commercial License) --><path d="M334 160C329 152 320 150 312 154L276 175L284 147C286 138 281 129 273 127C264 125 255 130 253 138L237 197L184 228V167L227 123C233 117 233 107 227 101S211 94 205 101L184 121V80C184 71 177 64 168 64S152 71 152 80V121L131 101C125 94 115 94 109 101S103 117 109 123L152 167V228L99 197L83 138C81 130 72 125 63 127C55 129 50 138 52 147L60 175L24 154C16 150 7 152 2 160C-2 168 0 177 8 182L44 203L16 210C7 212 2 221 4 230C6 237 13 242 20 242C21 242 22 241 24 241L83 225L136 256L83 287L24 271C15 269 7 274 4 282S7 300 16 302L44 309L8 330C0 335 -2 344 2 352C5 357 10 360 16 360C19 360 21 359 24 358L60 337L52 365C50 374 55 383 63 385C65 385 66 386 68 386C75 386 81 381 83 374L99 315L152 284V345L109 389C103 395 103 405 109 411S125 418 131 411L152 391V432C152 441 159 448 168 448S184 441 184 432V391L205 411C208 414 212 416 216 416C220 416 224 414 227 411C233 405 233 395 227 389L184 345V284L237 315L253 374C255 381 261 386 268 386C270 386 271 385 273 385C281 383 286 374 284 365L276 337L312 358C315 359 317 360 320 360C326 360 331 357 334 352C338 344 336 335 328 330L292 309L320 302C329 300 334 291 332 282S321 269 312 271L253 287L200 256L253 225L312 241C314 241 315 242 316 242C323 242 330 237 332 230C334 221 329 212 320 210L292 203L328 182C336 177 338 168 334 160ZM408 224H536C589 224 632 181 632 128C632 75 589 32 536 32C503 32 473 48 456 76C453 79 452 83 453 88C454 92 457 95 460 98C463 99 466 100 469 100C474 100 479 98 482 93C494 75 514 64 536 64C571 64 600 93 600 128S571 192 536 192H408C399 192 392 199 392 208S399 224 408 224ZM536 288H408C399 288 392 295 392 304S399 320 408 320H536C571 320 600 349 600 384S571 448 536 448C514 448 494 437 482 419C479 414 474 412 469 412C466 412 463 413 460 414C457 417 454 420 453 424C452 429 453 433 456 436C473 464 503 480 536 480C589 480 632 437 632 384C632 331 589 288 536 288Z"/></svg>