<svg xmlns="http://www.w3.org/2000/svg" viewBox="0 0 448 512"><!-- Font Awesome Pro 6.0.0-alpha1 by @fontawesome - https://fontawesome.com License - https://fontawesome.com/license (Commercial License) --><path d="M432 192H354H91H16C7 192 0 199 0 208S7 224 16 224H61C35 258 21 301 21 344C21 406 49 464 99 502C107 509 117 512 128 512H317C328 512 338 509 346 502C396 464 424 406 424 344C424 301 409 258 384 224H432C441 224 448 217 448 208S441 192 432 192ZM392 344C392 396 368 445 327 477C324 479 321 480 317 480H128C124 480 121 479 118 477C77 445 53 396 53 344C53 299 71 256 104 224H341C374 256 392 299 392 344ZM80 160C89 160 96 153 96 144V48C96 39 103 32 112 32H336C345 32 352 39 352 48V144C352 153 359 160 368 160S384 153 384 144V48C384 22 362 0 336 0H112C86 0 64 22 64 48V144C64 153 71 160 80 160ZM144 280C131 280 120 291 120 304S131 328 144 328C157 328 168 317 168 304S157 280 144 280ZM304 280C291 280 280 291 280 304S291 328 304 328C317 328 328 317 328 304S317 280 304 280ZM224 320C195 320 171 344 171 373C171 397 201 443 211 457C214 461 219 464 224 464S234 461 237 457C247 443 277 397 277 373C277 344 253 320 224 320ZM224 419C212 399 203 380 203 373C203 361 212 352 224 352S245 361 245 373C245 380 236 399 224 419Z"/></svg>