<svg xmlns="http://www.w3.org/2000/svg" viewBox="0 0 512 512"><!-- Font Awesome Pro 6.0.0-alpha1 by @fontawesome - https://fontawesome.com License - https://fontawesome.com/license (Commercial License) --><path d="M320 240C355 240 384 211 384 176C384 141 355 112 320 112S256 141 256 176C256 211 285 240 320 240ZM320 144C338 144 352 158 352 176C352 194 338 208 320 208S288 194 288 176C288 158 302 144 320 144ZM400 96C426 96 448 74 448 48S426 0 400 0S352 22 352 48S374 96 400 96ZM400 32C409 32 416 39 416 48S409 64 400 64S384 57 384 48S391 32 400 32ZM434 194C425 192 416 200 416 210V210C416 217 422 224 429 225C458 231 480 257 480 288V416C480 451 451 480 416 480H96C61 480 32 451 32 416V288C32 253 61 224 96 224H208C217 224 224 217 224 208C224 199 217 192 208 192H96C43 192 0 235 0 288V416C0 469 43 512 96 512H416C469 512 512 469 512 416V288C512 241 479 202 434 194ZM160 272C116 272 80 308 80 352S116 432 160 432H352C396 432 432 396 432 352S396 272 352 272H160ZM400 352C400 378 378 400 352 400H160C134 400 112 378 112 352S134 304 160 304H352C378 304 400 326 400 352ZM192 128C227 128 256 99 256 64S227 0 192 0S128 29 128 64S157 128 192 128ZM192 32C210 32 224 46 224 64S210 96 192 96S160 82 160 64S174 32 192 32Z"/></svg>