<svg xmlns="http://www.w3.org/2000/svg" viewBox="0 0 512 512"><!-- Font Awesome Pro 6.0.0-alpha1 by @fontawesome - https://fontawesome.com License - https://fontawesome.com/license (Commercial License) --><path d="M120 176C120 225 159 264 208 264S296 225 296 176S257 88 208 88S120 127 120 176ZM264 176C264 207 239 232 208 232S152 207 152 176S177 120 208 120S264 145 264 176ZM184 176C184 189 195 200 208 200S232 189 232 176S221 152 208 152S184 163 184 176ZM496 256C496 247 489 240 480 240H416C407 240 400 247 400 256S407 272 416 272H463C463 283 461 290 460 295C335 328 177 328 52 295C52 295 52 295 52 295C49 282 48 269 48 256C48 141 141 48 256 48C305 48 352 65 389 96H368C359 96 352 103 352 112S359 128 368 128L428 128C434 128 439 124 442 119S444 106 440 102C394 47 327 16 256 16C124 16 16 124 16 256S124 496 256 496C334 496 408 458 453 393C456 388 457 382 454 377C451 371 446 368 440 368H400C391 368 384 375 384 384S391 400 400 400H406C367 441 313 464 256 464C167 464 92 408 62 330C122 344 189 352 256 352C334 352 411 342 478 323C487 321 493 314 491 306C492 298 496 283 496 256ZM432 176H368C359 176 352 183 352 192S359 208 368 208H432C441 208 448 201 448 192S441 176 432 176Z"/></svg>