<svg xmlns="http://www.w3.org/2000/svg" viewBox="0 0 512 512"><!-- Font Awesome Pro 6.0.0-alpha1 by @fontawesome - https://fontawesome.com License - https://fontawesome.com/license (Commercial License) --><path d="M480 235L281 11C274 4 265 0 256 0C247 0 238 4 231 11L32 235C-15 288 -10 369 43 416C67 437 98 448 128 448C163 448 198 433 224 405L240 387V480H176C167 480 160 487 160 496C160 505 167 512 176 512H336C345 512 352 505 352 496C352 487 345 480 336 480H272V387L288 405C310 430 347 448 386 448C414 448 443 439 469 416C522 369 527 288 480 235ZM448 392C430 408 409 416 386 416C359 416 330 403 312 384C303 373 297 366 293 362C284 352 270 346 256 346H256C242 346 228 352 219 362C215 366 210 373 200 384C182 404 155 416 128 416C104 416 82 407 64 392C41 371 29 340 33 308C35 287 45 269 59 254L255 32C255 32 256 32 256 32L257 32L453 254C467 269 477 287 479 308C483 340 471 371 448 392Z"/></svg>