<svg xmlns="http://www.w3.org/2000/svg" viewBox="0 0 640 512"><!-- Font Awesome Pro 6.0.0-alpha1 by @fontawesome - https://fontawesome.com License - https://fontawesome.com/license (Commercial License) --><path d="M464 192C499 192 528 163 528 128S499 64 464 64S400 93 400 128S429 192 464 192ZM464 96C482 96 496 110 496 128S482 160 464 160S432 146 432 128S446 96 464 96ZM464 312C451 312 440 323 440 336S451 360 464 360S488 349 488 336S477 312 464 312ZM576 0H352C317 0 288 29 288 64V448C288 483 317 512 352 512H576C611 512 640 483 640 448V64C640 29 611 0 576 0ZM608 448C608 466 594 480 576 480H352C334 480 320 466 320 448V64C320 46 334 32 352 32H576C594 32 608 46 608 64V448ZM464 224C402 224 352 274 352 336S402 448 464 448S576 398 576 336S526 224 464 224ZM464 416C420 416 384 380 384 336S420 256 464 256S544 292 544 336S508 416 464 416ZM152 336C152 349 163 360 176 360S200 349 200 336S189 312 176 312S152 323 152 336ZM240 128C240 93 211 64 176 64S112 93 112 128S141 192 176 192S240 163 240 128ZM144 128C144 110 158 96 176 96S208 110 208 128S194 160 176 160S144 146 144 128ZM256 16C256 7 249 0 240 0H64C29 0 0 29 0 64V448C0 483 29 512 64 512H240C249 512 256 505 256 496C256 487 249 480 240 480H64C46 480 32 466 32 448V64C32 46 46 32 64 32H240C249 32 256 25 256 16ZM242 265C247 258 245 248 238 243C220 230 198 224 176 224C114 224 64 274 64 336S114 448 176 448C198 448 220 442 238 429C245 424 247 414 242 407C238 400 228 398 220 403C207 411 192 416 176 416C132 416 96 380 96 336S132 256 176 256C192 256 207 261 220 269C228 274 238 272 242 265Z"/></svg>