<svg xmlns="http://www.w3.org/2000/svg" viewBox="0 0 384 512"><!-- Font Awesome Pro 6.0.0-alpha1 by @fontawesome - https://fontawesome.com License - https://fontawesome.com/license (Commercial License) --><path d="M192 192C227 192 256 163 256 128S227 64 192 64S128 93 128 128S157 192 192 192ZM192 96C210 96 224 110 224 128S210 160 192 160S160 146 160 128S174 96 192 96ZM192 224C130 224 80 274 80 336S130 448 192 448S304 398 304 336S254 224 192 224ZM192 416C148 416 112 380 112 336S148 256 192 256S272 292 272 336S236 416 192 416ZM320 0H64C29 0 0 29 0 64V448C0 483 29 512 64 512H320C355 512 384 483 384 448V64C384 29 355 0 320 0ZM352 448C352 466 338 480 320 480H64C46 480 32 466 32 448V64C32 46 46 32 64 32H320C338 32 352 46 352 64V448ZM192 312C179 312 168 323 168 336S179 360 192 360S216 349 216 336S205 312 192 312Z"/></svg>