<svg xmlns="http://www.w3.org/2000/svg" viewBox="0 0 576 512"><!-- Font Awesome Pro 6.0.0-alpha1 by @fontawesome - https://fontawesome.com License - https://fontawesome.com/license (Commercial License) --><path d="M571 281C565 275 555 275 549 281L356 473L251 368C245 362 235 362 229 368S222 385 229 391L345 507C348 510 352 512 356 512C360 512 365 510 368 507L571 304C578 297 578 287 571 281ZM223 234L127 10C122 -2 102 -2 97 10L1 234C-2 242 2 251 10 255C18 258 27 254 31 246L54 192H170L193 246C196 252 202 256 208 256C210 256 212 256 214 255C222 251 226 242 223 234ZM68 160L112 57L156 160H68ZM272 256H376C416 256 448 224 448 184C448 153 428 126 401 116C410 104 416 89 416 72C416 32 384 0 344 0H272C263 0 256 7 256 16V240C256 249 263 256 272 256ZM288 32H344C366 32 384 50 384 72S366 112 344 112H288V32ZM288 144H376C398 144 416 162 416 184S398 224 376 224H288V144Z"/></svg>