<svg xmlns="http://www.w3.org/2000/svg" viewBox="0 0 512 512"><!-- Font Awesome Pro 6.0.0-alpha1 by @fontawesome - https://fontawesome.com License - https://fontawesome.com/license (Commercial License) --><path d="M464 185L401 164C388 159 378 150 376 139L361 83C354 60 335 42 309 35C280 27 250 35 231 55L187 99C178 109 164 114 149 113L82 107C50 105 21 119 8 144C-4 166 -2 190 12 210L49 258C55 267 56 278 51 288L25 341C14 362 17 386 31 406C49 429 81 439 111 433L177 418C191 415 207 418 217 427L268 464C282 475 299 480 317 480C329 480 340 478 351 473C375 462 390 442 392 418L396 361C397 350 405 340 416 334L474 304C499 292 514 268 512 243C510 217 492 194 464 185ZM460 276L402 305C380 316 366 336 364 358L360 416C359 432 344 441 338 443C321 451 302 449 287 439L237 401C223 391 206 385 188 385C182 385 176 386 170 387L105 401C82 406 64 396 57 386C52 380 46 369 53 356L80 303C90 282 88 258 74 239L38 191C28 178 32 166 36 160C43 146 61 138 79 139L147 144C171 146 194 138 210 122L253 77C265 66 284 61 301 66C316 70 326 79 330 91L345 148C350 169 368 186 391 194L454 215C469 221 479 232 480 245C481 258 473 269 460 276Z"/></svg>