<svg xmlns="http://www.w3.org/2000/svg" viewBox="0 0 512 512"><!-- Font Awesome Pro 6.0.0-alpha1 by @fontawesome - https://fontawesome.com License - https://fontawesome.com/license (Commercial License) --><path d="M488 80C501 80 512 69 512 56S501 32 488 32S464 43 464 56S475 80 488 80ZM160 240C116 240 80 276 80 320S116 400 160 400S240 364 240 320S204 240 160 240ZM160 368C134 368 112 346 112 320S134 272 160 272S208 294 208 320S186 368 160 368ZM488 224C475 224 464 235 464 248S475 272 488 272S512 261 512 248S501 224 488 224ZM392 32C379 32 368 43 368 56S379 80 392 80S416 69 416 56S405 32 392 32ZM224 128V32C224 14 210 0 192 0H128C110 0 96 14 96 32V128C43 128 0 171 0 224V448C0 483 29 512 64 512H256C291 512 320 483 320 448V224C320 171 277 128 224 128ZM128 32H192V128H128V32ZM288 448C288 466 274 480 256 480H64C46 480 32 466 32 448V224C32 189 61 160 96 160H224C259 160 288 189 288 224V448ZM488 128C475 128 464 139 464 152S475 176 488 176S512 165 512 152S501 128 488 128ZM392 128C379 128 368 139 368 152S379 176 392 176S416 165 416 152S405 128 392 128ZM296 32C283 32 272 43 272 56S283 80 296 80S320 69 320 56S309 32 296 32Z"/></svg>