<svg xmlns="http://www.w3.org/2000/svg" viewBox="0 0 448 512"><!-- Font Awesome Pro 6.0.0-alpha1 by @fontawesome - https://fontawesome.com License - https://fontawesome.com/license (Commercial License) --><path d="M384 32H64C29 32 0 61 0 96V416C0 451 29 480 64 480H384C419 480 448 451 448 416V96C448 61 419 32 384 32ZM416 416C416 434 402 448 384 448H64C46 448 32 434 32 416V96C32 78 46 64 64 64H384C402 64 416 78 416 96V416ZM144 224C135 224 128 231 128 240V400C128 409 135 416 144 416S160 409 160 400V240C160 231 153 224 144 224ZM192 160H160V112C160 103 153 96 144 96S128 103 128 112V160H96C87 160 80 167 80 176S87 192 96 192H192C201 192 208 185 208 176S201 160 192 160ZM304 320C295 320 288 327 288 336V400C288 409 295 416 304 416S320 409 320 400V336C320 327 313 320 304 320ZM352 256H320V112C320 103 313 96 304 96S288 103 288 112V256H256C247 256 240 263 240 272S247 288 256 288H352C361 288 368 281 368 272S361 256 352 256Z"/></svg>