<svg xmlns="http://www.w3.org/2000/svg" viewBox="0 0 448 512"><!-- Font Awesome Pro 6.0.0-alpha1 by @fontawesome - https://fontawesome.com License - https://fontawesome.com/license (Commercial License) --><path d="M343 247C363 226 349 192 320 192H128C100 192 85 226 105 247L201 343C214 355 234 355 247 343L343 247ZM128 224H320L224 320L128 224ZM448 416V96C448 61 419 32 384 32H64C29 32 0 61 0 96V416C0 451 29 480 64 480H384C419 480 448 451 448 416ZM64 448C46 448 32 434 32 416V96C32 78 46 64 64 64H384C402 64 416 78 416 96V416C416 434 402 448 384 448H64Z"/></svg>