<svg xmlns="http://www.w3.org/2000/svg" viewBox="0 0 448 512"><!-- Font Awesome Pro 6.0.0-alpha1 by @fontawesome - https://fontawesome.com License - https://fontawesome.com/license (Commercial License) --><path d="M0 96V416C0 451 29 480 64 480H384C419 480 448 451 448 416V96C448 61 419 32 384 32H64C29 32 0 61 0 96ZM384 64C402 64 416 78 416 96V416C416 434 402 448 384 448H64C46 448 32 434 32 416V96C32 78 46 64 64 64H384ZM92 228C77 243 76 269 92 284L188 377C199 388 216 392 231 386C246 379 256 365 256 349V320H328C350 320 368 302 368 280V232C368 210 350 192 328 192H256V163C256 147 246 133 231 126C216 120 199 124 188 135L92 228ZM224 163V224H328C332 224 336 228 336 232V280C336 284 332 288 328 288H224V349C224 355 216 360 210 354L114 262C110 258 113 252 114 251L210 158L210 158C215 153 224 156 224 163Z"/></svg>