<svg xmlns="http://www.w3.org/2000/svg" viewBox="0 0 448 512"><!-- Font Awesome Pro 6.0.0-alpha1 by @fontawesome - https://fontawesome.com License - https://fontawesome.com/license (Commercial License) --><path d="M0 96V416C0 451 29 480 64 480H384C419 480 448 451 448 416V96C448 61 419 32 384 32H64C29 32 0 61 0 96ZM384 64C402 64 416 78 416 96V416C416 434 402 448 384 448H64C46 448 32 434 32 416V96C32 78 46 64 64 64H384ZM320 336C320 345 327 352 336 352H368C377 352 384 345 384 336S377 320 368 320H336C327 320 320 327 320 336ZM256 288V320H80C71 320 64 327 64 336S71 352 80 352H256V384C256 393 263 400 272 400S288 393 288 384V288C288 279 281 272 272 272S256 279 256 288ZM192 176C192 185 199 192 208 192H368C377 192 384 185 384 176S377 160 368 160H208C199 160 192 167 192 176ZM128 128V160H80C71 160 64 167 64 176S71 192 80 192H128V224C128 233 135 240 144 240S160 233 160 224V128C160 119 153 112 144 112S128 119 128 128Z"/></svg>