<svg xmlns="http://www.w3.org/2000/svg" viewBox="0 0 448 512"><!-- Font Awesome Pro 6.0.0-alpha1 by @fontawesome - https://fontawesome.com License - https://fontawesome.com/license (Commercial License) --><path d="M384 32H64C29 32 0 61 0 96V416C0 451 29 480 64 480H384C419 480 448 451 448 416V96C448 61 419 32 384 32ZM416 416C416 434 402 448 384 448H64C46 448 32 434 32 416V96C32 78 46 64 64 64H384C402 64 416 78 416 96V416ZM304 128C295 128 288 135 288 144V293C288 326 259 352 224 352S160 326 160 293V272C160 263 153 256 144 256S128 263 128 272V293C128 343 171 384 224 384S320 343 320 293V144C320 135 313 128 304 128Z"/></svg>