<svg xmlns="http://www.w3.org/2000/svg" viewBox="0 0 576 512"><!-- Font Awesome Pro 6.0.0-alpha1 by @fontawesome - https://fontawesome.com License - https://fontawesome.com/license (Commercial License) --><path d="M192 477C183 474 175 466 171 457L90 281C87 276 82 272 75 272H16C7 272 0 265 0 256V256C0 247 7 240 16 240H75C94 240 111 251 119 268L200 444C203 449 211 449 213 443L314 67C320 47 339 32 361 32H560C569 32 576 39 576 48V48C576 57 569 64 560 64H361C353 64 347 69 345 76L244 451C238 473 215 486 192 477Z"/></svg>