<svg xmlns="http://www.w3.org/2000/svg" viewBox="0 0 640 512"><!-- Font Awesome Pro 6.0.0-alpha1 by @fontawesome - https://fontawesome.com License - https://fontawesome.com/license (Commercial License) --><path d="M480 32H160C125 32 96 61 96 96V416C96 451 125 480 160 480H480C515 480 544 451 544 416V96C544 61 515 32 480 32ZM512 416C512 434 498 448 480 448H160C142 448 128 434 128 416V96C128 78 142 64 160 64H480C498 64 512 78 512 96V416ZM452 129C444 126 435 131 433 140L384 310L335 140C331 126 309 126 305 140L256 310L207 140C205 131 196 126 188 129C179 131 174 140 177 148L241 372C245 386 267 386 271 372L320 202L369 372C371 379 377 384 384 384S397 379 399 372L463 148C466 140 461 131 452 129Z"/></svg>