<svg xmlns="http://www.w3.org/2000/svg" viewBox="0 0 448 512"><!-- Font Awesome Pro 6.0.0-alpha1 by @fontawesome - https://fontawesome.com License - https://fontawesome.com/license (Commercial License) --><path d="M384 32H64C29 32 0 61 0 96V416C0 451 29 480 64 480H384C419 480 448 451 448 416V96C448 61 419 32 384 32ZM416 416C416 434 402 448 384 448H64C46 448 32 434 32 416V96C32 78 46 64 64 64H384C402 64 416 78 416 96V416ZM320 224C355 224 384 195 384 160S355 96 320 96S256 125 256 160C256 165 257 169 257 173L176 214C164 201 147 192 128 192C93 192 64 221 64 256S93 320 128 320C147 320 164 311 176 298L257 339C257 343 256 347 256 352C256 387 285 416 320 416S384 387 384 352S355 288 320 288C301 288 284 297 272 310L191 269C191 265 192 261 192 256S191 247 191 243L272 202C284 215 301 224 320 224ZM320 128C338 128 352 142 352 160S338 192 320 192S288 178 288 160S302 128 320 128ZM128 288C110 288 96 274 96 256S110 224 128 224S160 238 160 256S146 288 128 288ZM320 320C338 320 352 334 352 352S338 384 320 384S288 370 288 352S302 320 320 320Z"/></svg>