<svg xmlns="http://www.w3.org/2000/svg" viewBox="0 0 448 512"><!-- Font Awesome Pro 6.0.0-alpha1 by @fontawesome - https://fontawesome.com License - https://fontawesome.com/license (Commercial License) --><path d="M384 32H64C29 32 0 61 0 96V416C0 451 29 480 64 480H384C419 480 448 451 448 416V96C448 61 419 32 384 32ZM416 416C416 434 402 448 384 448H64C46 448 32 434 32 416V96C32 78 46 64 64 64H384C402 64 416 78 416 96V416ZM238 137C233 126 215 126 210 137L98 361C94 369 97 378 105 382C113 386 122 383 126 375L146 335C147 336 148 336 149 336H299C300 336 301 336 302 335L322 375C325 381 330 384 336 384C338 384 341 383 343 382C351 378 354 369 350 361L238 137ZM162 304L224 180L286 304H162Z"/></svg>