<svg xmlns="http://www.w3.org/2000/svg" viewBox="0 0 448 512"><!-- Font Awesome Pro 6.0.0-alpha1 by @fontawesome - https://fontawesome.com License - https://fontawesome.com/license (Commercial License) --><path d="M384 32H64C29 32 0 61 0 96V416C0 451 29 480 64 480H384C419 480 448 451 448 416V96C448 61 419 32 384 32ZM416 416C416 434 402 448 384 448H64C46 448 32 434 32 416V96C32 78 46 64 64 64H384C402 64 416 78 416 96V416ZM336 208C336 164 300 128 256 128H144C135 128 128 135 128 144V368C128 377 135 384 144 384S160 377 160 368V288H230L308 378C311 382 315 384 320 384C324 384 327 383 330 380C337 374 338 364 332 358L271 286C308 279 336 247 336 208ZM256 256H160V160H256C282 160 304 182 304 208S282 256 256 256Z"/></svg>