<svg xmlns="http://www.w3.org/2000/svg" viewBox="0 0 448 512"><!-- Font Awesome Pro 6.0.0-alpha1 by @fontawesome - https://fontawesome.com License - https://fontawesome.com/license (Commercial License) --><path d="M181 155L281 256L181 357C174 363 174 373 181 379S197 386 203 379L315 267C318 264 320 260 320 256S318 248 315 245L203 133C197 126 187 126 181 133S174 149 181 155ZM0 96V416C0 451 29 480 64 480H384C419 480 448 451 448 416V96C448 61 419 32 384 32H64C29 32 0 61 0 96ZM384 64C402 64 416 78 416 96V416C416 434 402 448 384 448H64C46 448 32 434 32 416V96C32 78 46 64 64 64H384Z"/></svg>