<svg xmlns="http://www.w3.org/2000/svg" viewBox="0 0 448 512"><!-- Font Awesome Pro 6.0.0-alpha1 by @fontawesome - https://fontawesome.com License - https://fontawesome.com/license (Commercial License) --><path d="M105 265C85 286 99 320 128 320H320C348 320 363 286 343 265L247 169C234 157 214 157 201 169L105 265ZM320 288H128L224 192L320 288ZM0 96V416C0 451 29 480 64 480H384C419 480 448 451 448 416V96C448 61 419 32 384 32H64C29 32 0 61 0 96ZM384 64C402 64 416 78 416 96V416C416 434 402 448 384 448H64C46 448 32 434 32 416V96C32 78 46 64 64 64H384Z"/></svg>