<svg xmlns="http://www.w3.org/2000/svg" viewBox="0 0 448 512"><!-- Font Awesome Pro 6.0.0-alpha1 by @fontawesome - https://fontawesome.com License - https://fontawesome.com/license (Commercial License) --><path d="M267 357L167 256L267 155C274 149 274 139 267 133S251 126 245 133L133 245C130 248 128 252 128 256S130 264 133 267L245 379C251 386 261 386 267 379S274 363 267 357ZM448 416V96C448 61 419 32 384 32H64C29 32 0 61 0 96V416C0 451 29 480 64 480H384C419 480 448 451 448 416ZM64 448C46 448 32 434 32 416V96C32 78 46 64 64 64H384C402 64 416 78 416 96V416C416 434 402 448 384 448H64Z"/></svg>