<svg xmlns="http://www.w3.org/2000/svg" viewBox="0 0 448 512"><!-- Font Awesome Pro 6.0.0-alpha1 by @fontawesome - https://fontawesome.com License - https://fontawesome.com/license (Commercial License) --><path d="M384 32H64C29 32 0 61 0 96V416C0 451 29 480 64 480H384C419 480 448 451 448 416V96C448 61 419 32 384 32ZM416 416C416 434 402 448 384 448H64C46 448 32 434 32 416V96C32 78 46 64 64 64H384C402 64 416 78 416 96V416ZM300 250C312 237 320 219 320 200C320 160 288 128 248 128H160C142 128 128 142 128 160V352C128 370 142 384 160 384H264C304 384 336 352 336 312C336 285 321 262 300 250ZM160 160H248C270 160 288 178 288 200S270 240 248 240H160V160ZM264 352H160V272H264C286 272 304 290 304 312S286 352 264 352Z"/></svg>