<svg xmlns="http://www.w3.org/2000/svg" viewBox="0 0 640 512"><!-- Font Awesome Pro 6.0.0-alpha1 by @fontawesome - https://fontawesome.com License - https://fontawesome.com/license (Commercial License) --><path d="M480 32H160C125 32 96 61 96 96V416C96 451 125 480 160 480H480C515 480 544 451 544 416V96C544 61 515 32 480 32ZM512 416C512 434 498 448 480 448H160C142 448 128 434 128 416V96C128 78 142 64 160 64H480C498 64 512 78 512 96V416ZM416 128C407 128 400 135 400 144V274C400 317 364 352 320 352S240 317 240 274V144C240 135 233 128 224 128S208 135 208 144V274C208 335 258 384 320 384S432 335 432 274V144C432 135 425 128 416 128Z"/></svg>