<svg xmlns="http://www.w3.org/2000/svg" viewBox="0 0 448 512"><!-- Font Awesome Pro 6.0.0-alpha1 by @fontawesome - https://fontawesome.com License - https://fontawesome.com/license (Commercial License) --><path d="M304 96H144C126 96 112 110 112 128V208C112 264 154 311 208 318V384H176C167 384 160 391 160 400C160 409 167 416 176 416H272C281 416 288 409 288 400C288 391 281 384 272 384H240V318C294 311 336 264 336 208V128C336 110 322 96 304 96ZM304 208C304 252 268 288 224 288S144 252 144 208V128H213L220 148L184 186C184 186 231 221 251 230C254 231 257 231 259 229C263 227 264 222 261 218C252 206 231 184 231 184L260 156C260 156 251 134 248 128H304V208ZM384 32H64C29 32 0 61 0 96V416C0 451 29 480 64 480H384C419 480 448 451 448 416V96C448 61 419 32 384 32ZM416 416C416 434 402 448 384 448H64C46 448 32 434 32 416V96C32 78 46 64 64 64H384C402 64 416 78 416 96V416Z"/></svg>