<svg xmlns="http://www.w3.org/2000/svg" viewBox="0 0 640 512"><!-- Font Awesome Pro 6.0.0-alpha1 by @fontawesome - https://fontawesome.com License - https://fontawesome.com/license (Commercial License) --><path d="M384 352H336V144C336 138 333 133 328 130C322 127 316 127 311 131L263 163C256 168 254 178 259 185C264 192 273 194 281 189L304 174V352H256C247 352 240 359 240 368S247 384 256 384H384C393 384 400 377 400 368S393 352 384 352ZM480 32H160C125 32 96 61 96 96V416C96 451 125 480 160 480H480C515 480 544 451 544 416V96C544 61 515 32 480 32ZM512 416C512 434 498 448 480 448H160C142 448 128 434 128 416V96C128 78 142 64 160 64H480C498 64 512 78 512 96V416Z"/></svg>