<svg xmlns="http://www.w3.org/2000/svg" viewBox="0 0 448 512"><!-- Font Awesome Pro 6.0.0-alpha1 by @fontawesome - https://fontawesome.com License - https://fontawesome.com/license (Commercial License) --><path d="M384 32H64C29 32 0 61 0 96V416C0 451 29 480 64 480H384C419 480 448 451 448 416V96C448 61 419 32 384 32ZM416 416C416 434 402 448 384 448H64C46 448 32 434 32 416V96C32 78 46 64 64 64H384C402 64 416 78 416 96V416ZM224 128C153 128 96 185 96 256S153 384 224 384C254 384 280 374 302 357L325 379C328 382 332 384 336 384S344 382 347 379C354 373 354 363 347 357L325 334C342 312 352 286 352 256C352 185 295 128 224 128ZM302 311L267 277C261 270 251 270 245 277S238 293 245 299L279 334C264 345 245 352 224 352C171 352 128 309 128 256S171 160 224 160S320 203 320 256C320 277 313 296 302 311Z"/></svg>