<svg xmlns="http://www.w3.org/2000/svg" viewBox="0 0 448 512"><!-- Font Awesome Pro 6.0.0-alpha1 by @fontawesome - https://fontawesome.com License - https://fontawesome.com/license (Commercial License) --><path d="M112 448H96C61 448 32 419 32 384V368C32 359 25 352 16 352S0 359 0 368V384C0 437 43 480 96 480H112C121 480 128 473 128 464C128 455 121 448 112 448ZM352 32H336C327 32 320 39 320 48C320 57 327 64 336 64H352C387 64 416 93 416 128V144C416 153 423 160 432 160S448 153 448 144V128C448 75 405 32 352 32ZM272 448H176C167 448 160 455 160 464C160 473 167 480 176 480H272C281 480 288 473 288 464C288 455 281 448 272 448ZM16 320C25 320 32 313 32 304V208C32 199 25 192 16 192S0 199 0 208V304C0 313 7 320 16 320ZM112 32H96C43 32 0 75 0 128V144C0 153 7 160 16 160S32 153 32 144V128C32 93 61 64 96 64H112C121 64 128 57 128 48C128 39 121 32 112 32ZM432 192C423 192 416 199 416 208V304C416 313 423 320 432 320S448 313 448 304V208C448 199 441 192 432 192ZM432 352C423 352 416 359 416 368V384C416 419 387 448 352 448H336C327 448 320 455 320 464C320 473 327 480 336 480H352C405 480 448 437 448 384V368C448 359 441 352 432 352ZM272 32H176C167 32 160 39 160 48C160 57 167 64 176 64H272C281 64 288 57 288 48C288 39 281 32 272 32Z"/></svg>