<svg xmlns="http://www.w3.org/2000/svg" viewBox="0 0 448 512"><!-- Font Awesome Pro 6.0.0-alpha1 by @fontawesome - https://fontawesome.com License - https://fontawesome.com/license (Commercial License) --><path d="M251 149C245 142 235 142 229 149S222 165 229 171L297 240H112C103 240 96 247 96 256S103 272 112 272H297L229 341C222 347 222 357 229 363S245 370 251 363L347 267C350 264 352 260 352 256S350 248 347 245L251 149ZM384 32H64C29 32 0 61 0 96V416C0 451 29 480 64 480H384C419 480 448 451 448 416V96C448 61 419 32 384 32ZM416 416C416 434 402 448 384 448H64C46 448 32 434 32 416V96C32 78 46 64 64 64H384C402 64 416 78 416 96V416Z"/></svg>