<svg xmlns="http://www.w3.org/2000/svg" viewBox="0 0 448 512"><!-- Font Awesome Pro 6.0.0-alpha1 by @fontawesome - https://fontawesome.com License - https://fontawesome.com/license (Commercial License) --><path d="M384 32H64C29 32 0 61 0 96V416C0 451 29 480 64 480H384C419 480 448 451 448 416V96C448 61 419 32 384 32ZM416 416C416 434 402 448 384 448H64C46 448 32 434 32 416V96C32 78 46 64 64 64H384C402 64 416 78 416 96V416ZM320 144C320 135 313 128 304 128H144C135 128 128 135 128 144S135 160 144 160H209C208 161 208 163 208 164V348C208 349 208 351 209 352H144C135 352 128 359 128 368S135 384 144 384H304C313 384 320 377 320 368S313 352 304 352H239C240 351 240 349 240 348V164C240 163 240 161 239 160H304C313 160 320 153 320 144Z"/></svg>