<svg xmlns="http://www.w3.org/2000/svg" viewBox="0 0 448 512"><!-- Font Awesome Pro 6.0.0-alpha1 by @fontawesome - https://fontawesome.com License - https://fontawesome.com/license (Commercial License) --><path d="M224 128C171 128 128 171 128 224C128 274 166 314 215 319L166 355C159 361 158 371 163 378C166 382 171 384 176 384C179 384 183 383 186 381L275 314C317 282 320 234 320 224C320 171 277 128 224 128ZM224 288C189 288 160 259 160 224C160 189 189 160 224 160S288 189 288 224C288 259 259 288 224 288ZM384 32H64C29 32 0 61 0 96V416C0 451 29 480 64 480H384C419 480 448 451 448 416V96C448 61 419 32 384 32ZM416 416C416 434 402 448 384 448H64C46 448 32 434 32 416V96C32 78 46 64 64 64H384C402 64 416 78 416 96V416Z"/></svg>