<svg xmlns="http://www.w3.org/2000/svg" viewBox="0 0 448 512"><!-- Font Awesome Pro 6.0.0-alpha1 by @fontawesome - https://fontawesome.com License - https://fontawesome.com/license (Commercial License) --><path d="M384 32H64C29 32 0 61 0 96V416C0 451 29 480 64 480H384C419 480 448 451 448 416V96C448 61 419 32 384 32ZM416 416C416 434 402 448 384 448H64C46 448 32 434 32 416V96C32 78 46 64 64 64H384C402 64 416 78 416 96V416ZM240 128H144C135 128 128 135 128 144V368C128 377 135 384 144 384S160 377 160 368V320H240C293 320 336 277 336 224S293 128 240 128ZM240 288H160V160H240C275 160 304 189 304 224S275 288 240 288Z"/></svg>