<svg xmlns="http://www.w3.org/2000/svg" viewBox="0 0 448 512"><!-- Font Awesome Pro 6.0.0-alpha1 by @fontawesome - https://fontawesome.com License - https://fontawesome.com/license (Commercial License) --><path d="M384 32H64C29 32 0 61 0 96V416C0 451 29 480 64 480H384C419 480 448 451 448 416V96C448 61 419 32 384 32ZM416 416C416 434 402 448 384 448H64C46 448 32 434 32 416V96C32 78 46 64 64 64H384C402 64 416 78 416 96V416ZM112 176H240C249 176 256 169 256 160S249 144 240 144H112C103 144 96 151 96 160S103 176 112 176ZM336 240H112C103 240 96 247 96 256S103 272 112 272H336C345 272 352 265 352 256S345 240 336 240ZM176 336H112C103 336 96 343 96 352S103 368 112 368H176C185 368 192 361 192 352S185 336 176 336Z"/></svg>