<svg xmlns="http://www.w3.org/2000/svg" viewBox="0 0 448 512"><!-- Font Awesome Pro 6.0.0-alpha1 by @fontawesome - https://fontawesome.com License - https://fontawesome.com/license (Commercial License) --><path d="M384 32H64C29 32 0 61 0 96V416C0 451 29 480 64 480H384C419 480 448 451 448 416V96C448 61 419 32 384 32ZM416 416C416 434 402 448 384 448H64C46 448 32 434 32 416V96C32 78 46 64 64 64H384C402 64 416 78 416 96V416ZM324 134L224 250L124 134C118 127 108 126 102 132C95 138 94 148 100 154L208 281V368C208 377 215 384 224 384S240 377 240 368V281L348 154C354 148 353 138 346 132C340 126 330 127 324 134Z"/></svg>