<svg xmlns="http://www.w3.org/2000/svg" viewBox="0 0 448 512"><!-- Font Awesome Pro 6.0.0-alpha1 by @fontawesome - https://fontawesome.com License - https://fontawesome.com/license (Commercial License) --><path d="M384 32H64C29 32 0 61 0 96V416C0 451 29 480 64 480H384C419 480 448 451 448 416V96C448 61 419 32 384 32ZM416 416C416 434 402 448 384 448H64C46 448 32 434 32 416V96C32 78 46 64 64 64H384C402 64 416 78 416 96V416ZM304 288H288V208C288 199 281 192 272 192S256 199 256 208V288H152L207 150C210 142 206 132 198 129C190 126 180 130 177 138L113 298C111 303 112 309 115 313C118 317 123 320 128 320H256V368C256 377 263 384 272 384S288 377 288 368V320H304C313 320 320 313 320 304S313 288 304 288Z"/></svg>