<svg xmlns="http://www.w3.org/2000/svg" viewBox="0 0 448 512"><!-- Font Awesome Pro 6.0.0-alpha1 by @fontawesome - https://fontawesome.com License - https://fontawesome.com/license (Commercial License) --><path d="M240 224H219L298 156C304 152 305 145 303 138C301 132 295 128 288 128H144C135 128 128 135 128 144S135 160 144 160H245L166 228C161 232 159 239 161 246C163 252 169 256 176 256H240C266 256 288 278 288 304S266 352 240 352H186C174 352 163 344 159 333C156 325 147 320 139 323C131 326 126 335 129 343C137 368 160 384 186 384H240C284 384 320 348 320 304S284 224 240 224ZM384 32H64C29 32 0 61 0 96V416C0 451 29 480 64 480H384C419 480 448 451 448 416V96C448 61 419 32 384 32ZM416 416C416 434 402 448 384 448H64C46 448 32 434 32 416V96C32 78 46 64 64 64H384C402 64 416 78 416 96V416Z"/></svg>