<svg xmlns="http://www.w3.org/2000/svg" viewBox="0 0 448 512"><!-- Font Awesome Pro 6.0.0-alpha1 by @fontawesome - https://fontawesome.com License - https://fontawesome.com/license (Commercial License) --><path d="M384 32H64C29 32 0 61 0 96V416C0 451 29 480 64 480H384C419 480 448 451 448 416V96C448 61 419 32 384 32ZM416 416C416 434 402 448 384 448H64C46 448 32 434 32 416V96C32 78 46 64 64 64H384C402 64 416 78 416 96V416ZM297 321L333 270C338 263 336 253 329 248C322 243 312 244 307 252L275 297L225 243L252 221C265 211 272 196 272 180C272 151 248 128 218 128H198C168 128 144 151 144 180C144 196 150 210 160 221L178 240L136 273C121 285 112 303 112 322C112 356 141 384 176 384H212C237 384 261 372 275 352L279 347L308 379C311 382 316 384 320 384C324 384 328 383 331 380C337 374 338 364 332 357L297 321ZM176 180C176 169 186 160 198 160H218C230 160 240 169 240 180C240 186 237 192 232 196L203 220L184 199C179 194 176 187 176 180ZM249 333C249 333 249 333 249 333C241 345 227 352 212 352H176C158 352 144 338 144 322C144 313 148 304 156 298L200 263L256 323L249 333Z"/></svg>