<svg xmlns="http://www.w3.org/2000/svg" viewBox="0 0 448 512"><!-- Font Awesome Pro 6.0.0-alpha1 by @fontawesome - https://fontawesome.com License - https://fontawesome.com/license (Commercial License) --><path d="M384 32H64C29 32 0 61 0 96V416C0 451 29 480 64 480H384C419 480 448 451 448 416V96C448 61 419 32 384 32ZM416 416C416 434 402 448 384 448H64C46 448 32 434 32 416V96C32 78 46 64 64 64H384C402 64 416 78 416 96V416ZM320 352H163L332 154C336 150 337 143 335 137C332 132 326 128 320 128H128C119 128 112 135 112 144S119 160 128 160H285L116 358C112 362 111 369 113 375C116 380 122 384 128 384H320C329 384 336 377 336 368S329 352 320 352Z"/></svg>