<svg xmlns="http://www.w3.org/2000/svg" viewBox="0 0 448 512"><!-- Font Awesome Pro 6.0.0-alpha1 by @fontawesome - https://fontawesome.com License - https://fontawesome.com/license (Commercial License) --><path d="M384 32H64C29 32 0 61 0 96V416C0 451 29 480 64 480H384C419 480 448 451 448 416V96C448 61 419 32 384 32ZM416 416C416 434 402 448 384 448H64C46 448 32 434 32 416V96C32 78 46 64 64 64H384C402 64 416 78 416 96V416ZM233 193L282 157C289 151 290 141 285 134C282 130 277 128 272 128C269 128 265 129 262 131L173 198C131 230 128 278 128 288C128 341 171 384 224 384S320 341 320 288C320 238 282 198 233 193ZM224 352C189 352 160 323 160 288C160 253 189 224 224 224S288 253 288 288C288 323 259 352 224 352Z"/></svg>