<svg xmlns="http://www.w3.org/2000/svg" viewBox="0 0 448 512"><!-- Font Awesome Pro 6.0.0-alpha1 by @fontawesome - https://fontawesome.com License - https://fontawesome.com/license (Commercial License) --><path d="M384 32H64C29 32 0 61 0 96V416C0 451 29 480 64 480H384C419 480 448 451 448 416V96C448 61 419 32 384 32ZM416 416C416 434 402 448 384 448H64C46 448 32 434 32 416V96C32 78 46 64 64 64H384C402 64 416 78 416 96V416ZM331 131L287 121C269 117 251 126 244 142L224 190C217 206 222 223 234 234L243 240C233 254 222 266 208 275L202 266C191 254 174 249 158 256L111 276C111 276 110 276 110 276C94 283 85 301 89 319L99 363C103 380 118 392 135 392C259 392 360 291 360 167C360 150 348 135 331 131ZM135 360C133 360 131 358 130 356L120 312C120 309 121 307 123 306L171 285C173 284 175 285 177 287L192 306C197 312 206 313 212 310C240 295 263 272 278 245C281 238 280 229 274 225L255 209C253 207 252 205 253 203L274 155C275 153 277 152 279 152C279 152 279 152 280 152L324 162C326 163 328 165 328 167C328 274 242 360 135 360Z"/></svg>