<svg xmlns="http://www.w3.org/2000/svg" viewBox="0 0 448 512"><!-- Font Awesome Pro 6.0.0-alpha1 by @fontawesome - https://fontawesome.com License - https://fontawesome.com/license (Commercial License) --><path d="M384 32H64C29 32 0 61 0 96V416C0 451 29 480 64 480H384C419 480 448 451 448 416V96C448 61 419 32 384 32ZM416 416C416 434 402 448 384 448H64C46 448 32 434 32 416V96C32 78 46 64 64 64H384C402 64 416 78 416 96V416ZM341 129C334 127 327 129 323 135L224 276L125 135C121 129 114 127 107 129C101 131 96 137 96 144V368C96 377 103 384 112 384S128 377 128 368V195L211 313C217 322 231 322 237 313L320 195V368C320 377 327 384 336 384S352 377 352 368V144C352 137 347 131 341 129Z"/></svg>