<svg xmlns="http://www.w3.org/2000/svg" viewBox="0 0 448 512"><!-- Font Awesome Pro 6.0.0-alpha1 by @fontawesome - https://fontawesome.com License - https://fontawesome.com/license (Commercial License) --><path d="M327 140C319 132 308 128 298 128C288 128 277 132 269 140L120 289C116 294 112 300 111 306C106 327 96 373 96 373C95 380 100 384 105 384C106 384 106 384 107 384C107 384 153 374 174 369C180 368 186 364 191 360L340 211C356 195 356 169 340 153L327 140ZM318 188L169 337C168 338 167 338 167 338C158 340 147 343 135 345C138 334 140 322 142 313C142 313 142 312 143 311L292 162C294 160 296 160 298 160C299 160 302 160 304 162L318 176C321 179 321 185 318 188ZM384 32H64C29 32 0 61 0 96V416C0 451 29 480 64 480H384C419 480 448 451 448 416V96C448 61 419 32 384 32ZM416 416C416 434 402 448 384 448H64C46 448 32 434 32 416V96C32 78 46 64 64 64H384C402 64 416 78 416 96V416Z"/></svg>