<svg xmlns="http://www.w3.org/2000/svg" viewBox="0 0 448 512"><!-- Font Awesome Pro 6.0.0-alpha1 by @fontawesome - https://fontawesome.com License - https://fontawesome.com/license (Commercial License) --><path d="M303 177C297 171 287 171 281 177L224 233L167 177C161 171 151 171 145 177C139 183 139 193 145 199L201 256L145 313C139 319 139 329 145 335C151 341 161 341 167 335L224 279L281 335C287 341 297 341 303 335C309 329 309 319 303 313L247 256L303 199C309 193 309 183 303 177ZM384 32H64C29 32 0 61 0 96V416C0 451 29 480 64 480H384C419 480 448 451 448 416V96C448 61 419 32 384 32ZM416 416C416 434 402 448 384 448H64C46 448 32 434 32 416V96C32 78 46 64 64 64H384C402 64 416 78 416 96V416Z"/></svg>