<svg xmlns="http://www.w3.org/2000/svg" viewBox="0 0 448 512"><!-- Font Awesome Pro 6.0.0-alpha1 by @fontawesome - https://fontawesome.com License - https://fontawesome.com/license (Commercial License) --><path d="M224 184C237 184 248 173 248 160C248 147 237 136 224 136S200 147 200 160C200 173 211 184 224 184ZM384 32H64C29 32 0 61 0 96V416C0 451 29 480 64 480H384C419 480 448 451 448 416V96C448 61 419 32 384 32ZM416 416C416 434 402 448 384 448H64C46 448 32 434 32 416V96C32 78 46 64 64 64H384C402 64 416 78 416 96V416ZM272 352H240V240C240 231 233 224 224 224H192C183 224 176 231 176 240S183 256 192 256H208V352H176C167 352 160 359 160 368C160 377 167 384 176 384H272C281 384 288 377 288 368C288 359 281 352 272 352Z"/></svg>