<svg xmlns="http://www.w3.org/2000/svg" viewBox="0 0 448 512"><!-- Font Awesome Pro 6.0.0-alpha1 by @fontawesome - https://fontawesome.com License - https://fontawesome.com/license (Commercial License) --><path d="M448 416V96C448 61 419 32 384 32H64C29 32 0 61 0 96V416C0 451 29 480 64 480H384C419 480 448 451 448 416ZM64 448C46 448 32 434 32 416V96C32 78 46 64 64 64H384C402 64 416 78 416 96V416C416 434 402 448 384 448H64ZM356 284C371 269 372 243 356 228L260 135C249 124 232 120 217 126C202 133 192 147 192 163V192H120C98 192 80 210 80 232V280C80 302 98 320 120 320H192V349C192 365 202 379 217 386C232 392 249 388 260 377L356 284ZM224 349V288H120C116 288 112 284 112 280V232C112 228 116 224 120 224H224V163C224 157 232 152 238 158L334 250C338 255 335 260 334 262L238 354L238 354C233 359 224 356 224 349Z"/></svg>