<svg xmlns="http://www.w3.org/2000/svg" viewBox="0 0 512 512"><!-- Font Awesome Pro 6.0.0-alpha1 by @fontawesome - https://fontawesome.com License - https://fontawesome.com/license (Commercial License) --><path d="M248 448C257 448 264 441 264 432C264 367 281 274 307 200C330 133 358 88 384 74V85C384 94 391 101 400 101C444 101 472 138 480 174C481 178 479 183 477 186C474 190 469 192 465 192H416C407 192 400 199 400 208V305C400 312 404 318 411 320C429 326 449 345 449 364C449 382 444 406 430 421C427 424 425 428 425 432C425 436 427 440 430 443C433 446 437 448 441 448C445 448 449 446 452 443C473 422 481 388 481 364C481 333 457 307 432 294V224H465C479 224 492 218 501 207C510 195 514 181 511 167C500 114 463 77 416 70V54C416 45 409 38 400 38C301 38 232 294 232 432C232 441 239 448 248 448ZM432 144C432 135 425 128 416 128S400 135 400 144C400 153 407 160 416 160S432 153 432 144ZM496 480H224C162 480 112 430 112 368C112 336 126 305 151 284C156 279 158 272 156 266C153 260 148 256 141 256C80 254 32 205 32 144C32 82 82 32 144 32C190 32 231 59 248 102C251 110 261 114 269 111C277 108 281 98 278 90C255 35 203 0 144 0C65 0 0 65 0 144C0 211 45 267 108 283C90 308 80 337 80 368C80 447 145 512 224 512H496C505 512 512 505 512 496S505 480 496 480Z"/></svg>