<svg xmlns="http://www.w3.org/2000/svg" viewBox="0 0 512 512"><!-- Font Awesome Pro 6.0.0-alpha1 by @fontawesome - https://fontawesome.com License - https://fontawesome.com/license (Commercial License) --><path d="M432 0H356C325 0 298 17 284 44L275 62C268 78 274 97 290 105L318 119C326 123 335 123 343 121C351 118 357 112 361 105L366 96H416V172L259 217C230 225 204 240 183 262L156 288H112C103 288 96 295 96 304V348L14 430C-5 449 -5 479 14 498C23 507 36 512 48 512S73 507 82 498L250 329C260 320 272 313 285 309L370 285L402 303C406 305 410 306 414 305C418 304 422 301 424 298L444 264L454 261C488 251 512 219 512 184V80C512 36 476 0 432 0ZM480 184C480 205 466 224 445 230L428 235C425 236 421 239 419 242L404 268L380 254C376 251 372 251 368 252L276 278C258 283 241 293 228 307L59 475C53 482 43 482 37 475C30 469 30 459 37 453L123 366C126 363 128 359 128 355V320H163C167 320 171 318 174 315L205 284C222 267 244 254 267 248L425 203C438 199 448 186 448 172V96C448 78 434 64 416 64H366C354 64 342 71 337 82L333 90L304 76L313 58C321 42 337 32 356 32H432C458 32 480 54 480 80V184Z"/></svg>