<svg xmlns="http://www.w3.org/2000/svg" viewBox="0 0 512 512"><!-- Font Awesome Pro 6.0.0-alpha1 by @fontawesome - https://fontawesome.com License - https://fontawesome.com/license (Commercial License) --><path d="M416 256H350C333 256 320 243 320 226V217C320 190 329 164 342 139C351 122 354 101 350 79C344 40 312 8 273 1C267 1 262 0 256 0C203 0 160 43 160 96C160 110 163 123 169 136C182 164 192 195 192 226C192 243 179 256 162 256H96C43 256 0 299 0 352V384C0 402 14 416 32 416H480C498 416 512 402 512 384V352C512 299 469 256 416 256ZM480 384H32V352C32 317 61 288 96 288H162C197 288 224 261 224 226C224 194 216 161 198 122C194 114 192 105 192 96C192 61 221 32 256 32C260 32 264 32 268 33C293 37 314 59 319 84C321 98 319 112 313 125C296 157 288 187 288 217V226C288 261 315 288 350 288H416C451 288 480 317 480 352V384ZM464 448C455 448 448 455 448 464C448 473 441 480 432 480H80C71 480 64 473 64 464C64 455 57 448 48 448S32 455 32 464C32 490 54 512 80 512H432C458 512 480 490 480 464C480 455 473 448 464 448Z"/></svg>