<svg xmlns="http://www.w3.org/2000/svg" viewBox="0 0 512 512"><!-- Font Awesome Pro 6.0.0-alpha1 by @fontawesome - https://fontawesome.com License - https://fontawesome.com/license (Commercial License) --><path d="M503 214L427 203L393 134C391 130 387 128 384 128S377 130 375 134L341 203L265 214C256 215 253 225 259 231L314 285L301 361C300 367 305 373 311 373C313 373 314 372 316 371L384 335L452 371C454 372 455 372 457 372C463 372 468 367 467 361L454 285L509 231C515 225 512 215 503 214ZM431 262L419 274L422 290L428 322L399 307L384 299L369 307L340 322L346 290L349 274L337 262L313 239L346 234L362 232L370 217L384 188L398 217L406 232L422 234L455 239L431 262ZM338 437L329 438C228 438 146 356 146 256S228 74 329 74L338 75C352 75 364 65 367 51C370 36 362 22 348 17C319 6 289 0 258 0C116 0 0 115 0 256S116 512 258 512C288 512 319 506 347 496C360 492 368 480 368 467C368 451 354 437 338 437ZM258 480C133 480 32 379 32 256S133 32 258 32C281 32 303 35 325 42C208 44 114 139 114 256C114 373 208 468 325 470C303 477 280 480 258 480Z"/></svg>