<svg xmlns="http://www.w3.org/2000/svg" viewBox="0 0 640 512"><!-- Font Awesome Pro 6.0.0-alpha1 by @fontawesome - https://fontawesome.com License - https://fontawesome.com/license (Commercial License) --><path d="M176 304H208C217 304 224 297 224 288C224 279 217 272 208 272H176C163 272 151 277 142 286C133 295 128 307 128 320H64V160H80C89 160 96 153 96 144C96 135 89 128 80 128H64V112C64 103 57 96 48 96C39 96 32 103 32 112V128H16C7 128 0 135 0 144C0 153 7 160 16 160H32V432C32 441 39 448 48 448C57 448 64 441 64 432V432L131 460C136 472 146 480 160 480H192V496C192 505 199 512 208 512C217 512 224 505 224 496V464C224 455 217 448 208 448H160V320C160 311 167 304 176 304ZM128 424L64 397V352H128V424ZM370 35C368 25 364 16 356 10C349 4 340 0 330 0H310C300 0 291 4 284 10C276 16 272 25 270 35L241 271C240 276 240 282 240 287V440C240 451 244 461 252 468C259 476 269 480 280 480H360C371 480 381 476 388 468C396 461 400 451 400 440V287C400 282 400 276 399 271L370 35ZM368 440C368 442 367 444 366 446S362 448 360 448H280C278 448 276 447 274 446S272 442 272 440L272 281L302 39C303 35 306 32 310 32H330C334 32 337 35 338 39L368 281L368 440ZM624 128H608V112C608 103 601 96 592 96C583 96 576 103 576 112V128H560C551 128 544 135 544 144C544 153 551 160 560 160H576V320H512C512 307 507 295 498 286C489 277 477 272 464 272H432C423 272 416 279 416 288C416 297 423 304 432 304H464C473 304 480 311 480 320V448H432C423 448 416 455 416 464V496C416 505 423 512 432 512C441 512 448 505 448 496V480H480C494 480 504 472 509 460L576 432V432C576 441 583 448 592 448C601 448 608 441 608 432V160H624C633 160 640 153 640 144C640 135 633 128 624 128ZM576 397L512 424V352H576V397ZM320 224C311 224 304 231 304 240V304C304 313 311 320 320 320S336 313 336 304V240C336 231 329 224 320 224Z"/></svg>