<svg xmlns="http://www.w3.org/2000/svg" viewBox="0 0 576 512"><!-- Font Awesome Pro 6.0.0-alpha1 by @fontawesome - https://fontawesome.com License - https://fontawesome.com/license (Commercial License) --><path d="M529 171L382 150L317 18C311 6 299 0 288 0C277 0 265 6 259 18L194 150L47 171C21 175 11 208 30 226L136 329L111 475C107 495 124 512 142 512C147 512 152 511 157 508L288 440L419 508C424 511 429 512 434 512C452 512 469 495 465 475L440 329L546 226C565 208 555 175 529 171ZM407 326L434 480L295 407C291 405 285 405 281 407L142 480L169 326C169 321 168 316 164 312L52 203L207 181C212 180 216 177 219 172L288 32L357 172C360 177 364 180 369 181L524 203L412 312C408 316 407 321 407 326ZM288 288C297 288 304 281 304 272V176C304 167 297 160 288 160S272 167 272 176V272C272 281 279 288 288 288ZM288 328C275 328 264 339 264 352C264 365 275 376 288 376S312 365 312 352C312 339 301 328 288 328Z"/></svg>