<svg xmlns="http://www.w3.org/2000/svg" viewBox="0 0 512 512"><!-- Font Awesome Pro 6.0.0-alpha1 by @fontawesome - https://fontawesome.com License - https://fontawesome.com/license (Commercial License) --><path d="M364 267L259 252L212 157C209 149 201 144 192 144C183 144 175 149 171 157L124 252L20 267C1 270 -7 293 7 306L83 380L65 485C64 492 66 499 70 504C74 509 81 512 87 512C91 512 95 511 98 509L192 460L286 509C289 511 293 512 296 512C303 512 310 509 314 504C318 499 320 492 319 485L301 380L377 306C391 293 383 270 364 267ZM267 369L284 472L192 424L99 472L117 369L42 296L146 281L192 187L238 281L342 296L267 369ZM256 112H320V176C320 185 327 192 336 192S352 185 352 176V112H416C425 112 432 105 432 96S425 80 416 80H352V16C352 7 345 0 336 0S320 7 320 16V80H256C247 80 240 87 240 96S247 112 256 112ZM496 208H464V176C464 167 457 160 448 160S432 167 432 176V208H400C391 208 384 215 384 224S391 240 400 240H432V272C432 281 439 288 448 288S464 281 464 272V240H496C505 240 512 233 512 224S505 208 496 208Z"/></svg>