<svg xmlns="http://www.w3.org/2000/svg" viewBox="0 0 576 512"><!-- Font Awesome Pro 6.0.0-alpha1 by @fontawesome - https://fontawesome.com License - https://fontawesome.com/license (Commercial License) --><path d="M560 32C551 32 544 39 544 48V198L427 176C427 176 426 176 426 176C398 129 347 96 288 96C229 96 178 129 150 176C150 176 149 176 149 176L32 198V48C32 39 25 32 16 32S0 39 0 48V464C0 473 7 480 16 480S32 473 32 464V314L149 336C149 336 150 336 150 336C178 384 229 416 288 416S398 384 426 336C426 336 427 336 427 336L544 314V464C544 473 551 480 560 480S576 473 576 464V48C576 39 569 32 560 32ZM135 301L32 281V231L135 211C131 226 128 240 128 256S131 286 135 301ZM288 384C217 384 160 327 160 256C160 185 217 128 288 128S416 185 416 256C416 327 359 384 288 384ZM544 281L441 301C445 286 448 272 448 256S445 226 441 211L544 231V281ZM343 224L367 199C373 193 373 183 367 177S351 171 345 177L320 201C315 198 310 196 304 194V160C304 151 297 144 288 144S272 151 272 160V194C266 196 261 198 256 201L231 177C225 171 215 171 209 177S203 193 209 199L233 224C230 229 228 234 226 240H192C183 240 176 247 176 256S183 272 192 272H226C228 278 230 283 233 288L209 313C203 319 203 329 209 335C212 338 216 340 220 340S228 338 231 335L256 311C261 314 266 316 272 318V352C272 361 279 368 288 368S304 361 304 352V318C310 316 315 314 320 311L345 335C348 338 352 340 356 340S364 338 367 335C373 329 373 319 367 313L343 288C346 283 348 278 350 272H384C393 272 400 265 400 256S393 240 384 240H350C348 234 346 229 343 224ZM288 288C270 288 256 274 256 256S270 224 288 224S320 238 320 256S306 288 288 288Z"/></svg>