<svg xmlns="http://www.w3.org/2000/svg" viewBox="0 0 576 512"><!-- Font Awesome Pro 6.0.0-alpha1 by @fontawesome - https://fontawesome.com License - https://fontawesome.com/license (Commercial License) --><path d="M467 119C435 83 401 64 369 64C327 64 290 97 276 147L275 150C258 210 206 260 120 297C63 322 64 358 67 372C77 423 158 447 229 447C327 447 418 407 478 338C527 282 522 182 467 119ZM454 317C390 390 302 415 229 415C123 415 51 362 133 326C279 262 300 178 306 156C317 120 342 96 369 96C392 96 418 112 443 140C487 190 493 273 454 317ZM384 192C366 192 352 206 352 224C352 242 366 256 384 256S416 242 416 224C416 206 402 192 384 192ZM515 77C468 23 416 0 369 0C298 0 237 51 214 129C165 269 1 212 0 352C-1 467 126 512 239 512C245 512 251 512 256 512C344 508 443 475 527 380C597 300 592 164 515 77ZM503 359C419 454 322 477 255 480C250 480 245 480 239 480C162 480 96 459 61 424C41 404 32 381 32 352C33 302 56 290 108 268C156 247 216 220 244 140L245 139L245 138C264 74 312 32 369 32C411 32 453 55 491 98C557 173 562 290 503 359Z"/></svg>