<svg xmlns="http://www.w3.org/2000/svg" viewBox="0 0 320 512"><!-- Font Awesome Pro 6.0.0-alpha1 by @fontawesome - https://fontawesome.com License - https://fontawesome.com/license (Commercial License) --><path d="M320 464C320 473 313 480 304 480H16C10 480 5 477 2 472C-1 468 -1 462 2 457C28 404 43 347 46 288H16C7 288 0 281 0 272S7 256 16 256H48V160C48 90 106 32 176 32C200 32 223 38 243 51L296 82C304 87 306 97 302 104C297 112 287 114 280 110L227 78C212 69 194 64 176 64C123 64 80 107 80 160V256H240C249 256 256 263 256 272S249 288 240 288H79C75 343 63 397 41 448H304C313 448 320 455 320 464Z"/></svg>