<svg xmlns="http://www.w3.org/2000/svg" viewBox="0 0 576 512"><!-- Font Awesome Pro 6.0.0-alpha1 by @fontawesome - https://fontawesome.com License - https://fontawesome.com/license (Commercial License) --><path d="M544 192C544 157 515 128 480 128S416 157 416 192C416 222 436 247 464 254V352C464 423 407 480 336 480S208 423 208 352V350C289 342 352 275 352 192V48C352 42 349 36 343 34L279 2C271 -2 262 1 258 9C254 17 257 26 265 30L320 58V192C320 263 263 320 192 320S64 263 64 192V58L119 30C127 26 130 17 126 9C122 1 113 -2 105 2L41 34C35 36 32 42 32 48V192C32 275 95 342 176 350V352C176 440 248 512 336 512S496 440 496 352V254C524 247 544 222 544 192ZM480 224C462 224 448 210 448 192C448 174 462 160 480 160S512 174 512 192C512 210 498 224 480 224Z"/></svg>