<svg xmlns="http://www.w3.org/2000/svg" viewBox="0 0 384 512"><!-- Font Awesome Pro 6.0.0-alpha1 by @fontawesome - https://fontawesome.com License - https://fontawesome.com/license (Commercial License) --><path d="M336 160H336C327 160 320 167 320 176V303H320C320 346 299 386 263 409L181 464C165 474 147 480 128 480C96 480 66 464 48 437C34 416 29 390 34 365S53 318 75 304L114 278L128 269V176C128 167 121 160 112 160S96 167 96 176V251L57 278C-2 317 -18 396 22 455C46 492 87 512 128 512C153 512 177 505 199 490L281 436C325 406 352 357 352 303V176C352 167 345 160 336 160ZM336 0H112C86 0 64 22 64 48V80C64 106 86 128 112 128H336C363 128 384 106 384 80V48C384 22 363 0 336 0ZM352 80C352 89 345 96 336 96H112C103 96 96 89 96 80V48C96 39 103 32 112 32H336C345 32 352 39 352 48V80Z"/></svg>