<svg xmlns="http://www.w3.org/2000/svg" viewBox="0 0 448 512"><!-- Font Awesome Pro 6.0.0-alpha1 by @fontawesome - https://fontawesome.com License - https://fontawesome.com/license (Commercial License) --><path d="M224 176C215 176 208 183 208 192V336C208 345 215 352 224 352S240 345 240 336V192C240 183 233 176 224 176ZM427 139C434 133 434 123 427 117S411 110 405 117L368 154C334 122 289 101 240 97V32H304C313 32 320 25 320 16S313 0 304 0H144C135 0 128 7 128 16S135 32 144 32H208V97C101 105 16 195 16 304C16 419 109 512 224 512S432 419 432 304C432 256 416 213 389 178L427 139ZM400 304C400 401 321 480 224 480S48 401 48 304S127 128 224 128S400 207 400 304Z"/></svg>