<svg xmlns="http://www.w3.org/2000/svg" viewBox="0 0 512 512"><!-- Font Awesome Pro 6.0.0-alpha1 by @fontawesome - https://fontawesome.com License - https://fontawesome.com/license (Commercial License) --><path d="M256 128C291 128 320 99 320 64S291 0 256 0S192 29 192 64S221 128 256 128ZM256 32C274 32 288 46 288 64S274 96 256 96S224 82 224 64S238 32 256 32ZM192 304L205 404C207 420 220 432 236 432H276C292 432 306 420 307 404L320 304C338 304 352 290 352 272V224C352 189 323 160 288 160H224C189 160 160 189 160 224V272C160 290 174 304 192 304ZM192 224C192 206 206 192 224 192H288C306 192 320 206 320 224V272H292L276 400H236L220 272H192V224ZM387 347C378 346 370 351 368 360S372 377 381 379C453 392 480 414 480 424C480 443 401 480 256 480S32 443 32 424C32 414 59 392 131 379C140 377 145 369 144 360C142 351 134 346 125 347C78 356 0 378 0 424C0 482 129 512 256 512S512 482 512 424C512 378 434 356 387 347Z"/></svg>