<svg xmlns="http://www.w3.org/2000/svg" viewBox="0 0 512 512"><!-- Font Awesome Pro 6.0.0-alpha1 by @fontawesome - https://fontawesome.com License - https://fontawesome.com/license (Commercial License) --><path d="M464 256H312C295 250 277 245 260 241L241 235C159 212 119 190 130 132C139 80 202 54 290 67C309 70 331 76 359 85C367 88 376 84 379 75C382 67 377 58 369 55C339 45 315 39 295 36C188 20 111 55 98 127C84 206 145 238 199 256H48C39 256 32 263 32 272S39 288 48 288H464C473 288 480 281 480 272S473 256 464 256ZM382 352C384 360 384 369 382 380C373 432 310 458 222 445C193 440 161 429 132 419L117 414C109 411 100 416 97 424C94 432 98 442 107 444L121 449C151 460 186 472 217 476C234 479 250 480 266 480C347 480 403 445 414 385C416 373 416 362 415 352H382Z"/></svg>