<svg xmlns="http://www.w3.org/2000/svg" viewBox="0 0 512 512"><!-- Font Awesome Pro 6.0.0-alpha1 by @fontawesome - https://fontawesome.com License - https://fontawesome.com/license (Commercial License) --><path d="M336 96A16 16 0 0 0 336 64H288A16 16 0 0 0 274 71L176 226L78 71A16 16 0 0 0 64 64H16A16 16 0 0 0 16 96H55L157 256L55 416H16A16 16 0 0 0 16 448H64A16 16 0 0 0 78 441L176 286L274 441A16 16 0 0 0 288 448H336A16 16 0 0 0 336 416H297L195 256L297 96ZM496 480H464V336A16 16 0 0 0 448 320H416A16 16 0 0 0 416 352H432V480H400A16 16 0 0 0 400 512H496A16 16 0 0 0 496 480Z"/></svg>