<svg xmlns="http://www.w3.org/2000/svg" viewBox="0 0 512 512"><!-- Font Awesome Pro 6.0.0-alpha1 by @fontawesome - https://fontawesome.com License - https://fontawesome.com/license (Commercial License) --><path d="M448 96H384V48C384 22 362 0 336 0H176C150 0 128 22 128 48V96H64C29 96 0 125 0 160V416C0 451 29 480 64 480H448C483 480 512 451 512 416V160C512 125 483 96 448 96ZM160 48C160 39 167 32 176 32H336C345 32 352 39 352 48V96H160V48ZM96 448H64C46 448 32 434 32 416V160C32 142 46 128 64 128H96V448ZM384 448H128V128H384V448ZM480 416C480 434 466 448 448 448H416V128H448C466 128 480 142 480 160V416Z"/></svg>