<svg xmlns="http://www.w3.org/2000/svg" viewBox="0 0 448 512"><!-- Font Awesome Pro 6.0.0-alpha1 by @fontawesome - https://fontawesome.com License - https://fontawesome.com/license (Commercial License) --><path d="M352 128H320V48C320 22 298 0 272 0H176C150 0 128 22 128 48V128H96C61 128 32 157 32 192V416C32 451 61 480 96 480V496C96 505 103 512 112 512S128 505 128 496V480H320V496C320 505 327 512 336 512S352 505 352 496V480C387 480 416 451 416 416V192C416 157 387 128 352 128ZM160 48C160 39 167 32 176 32H272C281 32 288 39 288 48V128H160V48ZM384 416C384 434 370 448 352 448H96C78 448 64 434 64 416V192C64 174 78 160 96 160H352C370 160 384 174 384 192V416ZM304 336H144C135 336 128 343 128 352C128 361 135 368 144 368H304C313 368 320 361 320 352C320 343 313 336 304 336ZM304 240H144C135 240 128 247 128 256C128 265 135 272 144 272H304C313 272 320 265 320 256C320 247 313 240 304 240Z"/></svg>