<svg xmlns="http://www.w3.org/2000/svg" viewBox="0 0 640 512"><!-- Font Awesome Pro 6.0.0-alpha1 by @fontawesome - https://fontawesome.com License - https://fontawesome.com/license (Commercial License) --><path d="M558 186C542 151 507 128 468 128C426 128 390 153 375 190C343 202 320 233 320 269C320 315 357 352 403 352H557C603 352 640 315 640 269C640 223 603 186 558 186ZM557 320H403C375 320 352 297 352 269C352 241 374 219 401 218C406 185 434 160 468 160C504 160 533 188 535 223C542 220 549 218 557 218C585 218 608 241 608 269C608 297 585 320 557 320ZM405 403L405 405L321 389C314 387 308 390 304 395L256 467L208 395C204 390 198 387 191 389L107 405L123 321C125 314 122 308 117 304L45 256L117 208C122 204 125 198 123 191L107 107L191 123C198 125 204 122 208 117L256 45L304 117C308 122 314 125 321 123L429 102C438 100 443 92 441 83C440 74 431 69 423 71L325 90L269 7C266 3 261 0 256 0C251 0 246 3 243 7L187 90L89 71C84 70 79 71 75 75S70 84 71 89L90 187L7 243C3 246 0 251 0 256C0 261 3 266 7 269L90 325L71 423C70 428 71 433 75 437S84 442 89 441L187 422L243 505C246 509 251 512 256 512C261 512 266 509 269 505L325 422L422 441C428 442 433 441 437 437C441 433 442 428 441 423L436 397C436 396 434 384 420 384C410 384 403 393 405 403ZM247 180C266 178 284 183 299 193C305 197 313 197 320 190C326 183 324 172 316 166C293 150 263 143 232 150C189 160 157 194 149 237C138 305 190 364 256 364C272 364 287 361 301 355C307 352 314 342 307 332C303 325 294 322 287 326C278 330 267 332 256 332C211 332 175 293 180 247C184 212 212 184 247 180Z"/></svg>