<svg xmlns="http://www.w3.org/2000/svg" viewBox="0 0 640 512"><!-- Font Awesome Pro 6.0.0-alpha1 by @fontawesome - https://fontawesome.com License - https://fontawesome.com/license (Commercial License) --><path d="M80 352H400C409 352 416 345 416 336C416 327 409 320 400 320H80C71 320 64 327 64 336C64 345 71 352 80 352ZM576 416C576 407 569 400 560 400H16C7 400 0 407 0 416C0 425 7 432 16 432H560C569 432 576 425 576 416ZM208 480H80C71 480 64 487 64 496C64 505 71 512 80 512H208C217 512 224 505 224 496C224 487 217 480 208 480ZM480 336C480 345 487 352 496 352H624C633 352 640 345 640 336C640 327 633 320 624 320H496C487 320 480 327 480 336ZM624 480H304C295 480 288 487 288 496C288 505 295 512 304 512H624C633 512 640 505 640 496C640 487 633 480 624 480ZM320 128C257 128 202 175 193 238C192 246 198 255 207 256C208 256 208 256 209 256C217 256 224 250 225 242C232 195 273 160 320 160S408 195 415 242C416 251 424 257 433 256C442 255 448 246 447 238C438 175 383 128 320 128ZM114 248C118 255 128 258 136 254C143 250 146 240 142 232L104 163L195 144C201 142 206 138 207 132L233 41L311 93C317 97 324 97 329 93L407 41L433 132C434 138 439 142 445 144L536 163L498 232C494 240 497 250 504 254C507 255 509 256 512 256C518 256 523 253 526 248L574 160C576 155 577 150 575 145C572 141 568 137 563 136L461 114L431 12C430 7 426 3 422 1C417 -1 411 0 407 3L320 61L233 3C229 0 223 -1 218 1C214 3 210 7 209 12L179 114L77 136C72 137 68 141 65 145C63 150 64 155 66 160L114 248Z"/></svg>