<svg xmlns="http://www.w3.org/2000/svg" viewBox="0 0 576 512"><!-- Font Awesome Pro 6.0.0-alpha1 by @fontawesome - https://fontawesome.com License - https://fontawesome.com/license (Commercial License) --><path d="M563 233L533 112C519 57 466 23 413 34C404 36 399 44 400 53C402 62 411 67 419 66C456 58 492 82 502 120L532 241C535 251 536 261 538 272C516 264 485 257 449 257C411 257 368 265 324 288H252C208 265 165 257 127 257C91 257 60 264 38 272C40 261 41 251 44 241L75 120C84 82 120 58 157 65C165 67 174 62 176 53C177 44 172 36 163 34C110 23 57 57 43 112L13 233C4 266 0 301 0 336V369C0 430 50 480 112 480H148C207 480 255 435 260 378L264 320H312L316 378C321 435 369 480 428 480H464C526 480 576 430 576 369V336C576 301 572 266 563 233ZM228 375C225 416 190 448 148 448H112C99 448 87 445 76 439L168 390C175 386 178 376 174 368C170 361 160 358 152 362L49 417C44 411 40 403 37 395L136 342C143 338 146 328 142 320C138 313 128 310 120 314L32 362V336C32 326 33 317 34 307C53 299 86 289 127 289C164 289 199 297 232 314L228 375ZM544 369C544 413 508 448 464 448H428C414 448 401 444 390 438L480 390C487 386 490 376 486 368C482 361 472 358 464 362L364 416C359 409 355 402 352 393L448 342C455 338 458 328 454 320S440 310 432 314L347 360L344 314C377 297 412 288 449 288C490 288 523 299 542 307C543 317 544 326 544 336V369Z"/></svg>