<svg xmlns="http://www.w3.org/2000/svg" viewBox="0 0 576 512"><!-- Font Awesome Pro 6.0.0-alpha1 by @fontawesome - https://fontawesome.com License - https://fontawesome.com/license (Commercial License) --><path d="M288 352C239 352 198 384 183 427C181 431 181 448 198 448C204 448 210 444 212 437C223 406 253 384 288 384C323 384 352 406 363 437C365 443 371 448 378 448C389 448 397 437 393 427C378 384 337 352 288 352ZM91 441C94 445 99 448 104 448C117 448 125 434 118 423L90 382L176 365C183 364 188 359 189 353L206 267L279 315C285 319 292 319 297 315L370 267L387 353C388 359 393 364 400 365L486 382L458 423C451 434 459 448 472 448C477 448 482 445 485 441L526 380C529 376 529 370 527 365S521 357 516 356L417 336L397 237C396 232 392 227 387 225C382 223 377 224 372 227L288 283L204 227C200 224 194 223 189 225C184 227 181 232 179 237L160 336L61 355C55 356 51 360 49 365S47 376 50 380L91 441ZM560 480H16C7 480 0 487 0 496C0 505 7 512 16 512H560C569 512 576 505 576 496C576 487 569 480 560 480ZM203 123L272 55V208C272 217 279 224 288 224S304 217 304 208V55L373 123C376 126 380 128 384 128S392 126 395 123C402 117 402 107 395 101L299 5C293 -2 283 -2 277 5L181 101C174 107 174 117 181 123S197 130 203 123Z"/></svg>