<svg xmlns="http://www.w3.org/2000/svg" viewBox="0 0 512 512"><!-- Font Awesome Pro 6.0.0-alpha1 by @fontawesome - https://fontawesome.com License - https://fontawesome.com/license (Commercial License) --><path d="M313 149L415 46L476 36L466 97L363 199C357 206 357 216 363 222C370 228 380 228 386 222L496 112L512 18C513 7 504 -1 494 0L400 16L290 126C284 132 284 142 290 149C296 155 306 155 313 149ZM289 362C295 356 295 346 289 339L46 97L36 36L97 46L339 289C346 295 356 295 362 289C368 282 368 272 362 266L112 16L18 0C7 -1 -1 8 0 18L16 112L266 362C272 368 282 368 289 362ZM211 403L219 395C226 389 226 379 219 373C213 366 203 366 197 373L189 381L131 323L139 315C146 309 146 299 139 293C133 286 123 286 117 293L109 301L85 277C82 274 78 272 73 272C69 272 65 274 62 277L28 311C22 317 22 325 26 331L60 388L9 439C-3 452 -3 472 9 484L28 503C34 509 42 512 50 512C58 512 67 509 73 503L124 452L181 486C183 488 186 489 189 489C194 489 198 487 201 484L235 450C242 444 242 433 235 427L211 403ZM187 453L119 412L50 480L32 462L100 393L59 325L73 311L201 438L187 453ZM503 439L452 388L486 331C488 329 489 326 489 323C489 318 487 314 484 311L450 277C444 270 433 270 427 277L277 427C273 430 272 434 272 439C272 443 274 447 277 450L311 484C317 490 325 490 331 486L388 452L439 503C452 515 472 515 484 503L503 484C509 478 512 470 512 462C512 454 509 445 503 439ZM462 480L393 412L325 453L311 439L438 311L453 325L412 393L480 462L462 480Z"/></svg>