<svg xmlns="http://www.w3.org/2000/svg" viewBox="0 0 512 512"><!-- Font Awesome Pro 6.0.0-alpha1 by @fontawesome - https://fontawesome.com License - https://fontawesome.com/license (Commercial License) --><path d="M269 316L246 293L219 266L182 229C179 226 174 226 171 229L160 240C157 244 157 249 160 252L165 258L109 314L108 313C104 310 99 310 96 313L16 393C-5 414 -5 449 16 470L42 496C63 517 98 517 119 496L199 416C202 413 202 408 199 405L256 348L261 354C265 357 270 357 273 354L284 342C287 339 287 334 284 331L269 316ZM96 473C88 482 73 482 64 473L39 448C30 439 30 424 39 416L102 352L109 359L160 410L96 473ZM177 382L131 337L143 325L188 371L177 382ZM199 359L154 314L165 303L211 348L199 359ZM222 337L177 291L188 280L233 325L222 337ZM502 12C496 5 487 1 477 0H476C467 0 458 3 451 10L232 210C226 216 225 227 232 233L232 233C238 239 248 240 254 234L472 33C473 33 475 32 476 32C477 32 478 33 479 34C480 35 481 38 479 40L278 258C272 264 273 274 279 280C285 287 296 286 302 280L502 61C515 47 515 26 502 12Z"/></svg>