<svg xmlns="http://www.w3.org/2000/svg" viewBox="0 0 512 512"><!-- Font Awesome Pro 6.0.0-alpha1 by @fontawesome - https://fontawesome.com License - https://fontawesome.com/license (Commercial License) --><path d="M502 12C496 5 487 1 477 0C467 0 458 3 451 10L246 196C235 206 242 224 257 224H257C261 224 265 222 268 220L472 33C474 32 477 32 479 34C480 35 480 38 479 40L334 197C324 207 331 224 345 224C350 224 354 222 357 219L503 61C515 47 515 26 502 12ZM322 257L323 256H160C155 256 151 258 148 261L16 393C-5 414 -5 449 16 470L42 496C63 517 98 517 119 496L332 283C341 274 335 258 322 257ZM39 448C30 439 30 424 39 416L104 350L126 372L44 453L39 448ZM96 473C88 482 73 482 64 473L59 468L140 386L162 408L96 473ZM184 385L127 328L166 288H282L184 385Z"/></svg>