<svg xmlns="http://www.w3.org/2000/svg" viewBox="0 0 512 512"><!-- Font Awesome Pro 6.0.0-alpha1 by @fontawesome - https://fontawesome.com License - https://fontawesome.com/license (Commercial License) --><path d="M485 0C483 0 482 0 481 0L344 23C330 26 320 39 320 55V167C310 162 299 160 288 160C252 160 224 181 224 208C224 235 252 256 288 256S352 235 352 208V54L480 33V135C470 131 459 128 448 128C413 128 384 150 384 176S413 224 448 224S512 203 512 176V32C512 14 499 0 485 0ZM288 224C269 224 256 215 256 208C256 202 269 192 288 192S320 202 320 208C320 215 307 224 288 224ZM448 192C428 192 416 182 416 176C416 171 428 160 448 160S480 171 480 176C480 182 468 192 448 192ZM208 64H16C7 64 0 71 0 80S7 96 16 96H96V208C96 217 103 224 112 224C121 224 128 217 128 208V96H208C217 96 224 89 224 80S217 64 208 64ZM336 384C362 384 384 362 384 336S362 288 336 288S288 309 288 336S310 384 336 384ZM336 320C345 320 352 327 352 336S345 352 336 352S320 345 320 336S327 320 336 320ZM464 416C438 416 416 437 416 464C416 490 438 512 464 512S512 490 512 464C512 437 490 416 464 416ZM464 480C455 480 448 473 448 464C448 455 455 448 464 448S480 455 480 464C480 473 473 480 464 480ZM16 32H208C217 32 224 25 224 16S217 0 208 0H16C7 0 0 7 0 16S7 32 16 32ZM485 293L293 485C286 491 286 501 293 507C296 510 300 512 304 512S312 510 315 507L507 315C514 309 514 299 507 293C501 286 491 286 485 293ZM163 445L202 412C209 407 210 396 204 390S188 382 182 388L141 422L100 382L126 361C137 349 144 333 144 317C144 283 117 256 83 256H77C43 256 16 283 16 317C16 333 23 349 34 360L53 379L18 407C-6 431 -6 470 18 494C30 506 46 512 62 512C77 512 92 506 104 495L139 465L181 507C187 513 197 513 203 507S210 491 203 485L163 445ZM48 317C48 301 61 288 77 288H83C99 288 112 301 112 317C112 325 109 332 105 337L78 359L57 338C51 332 48 325 48 317ZM82 471C71 483 52 483 41 471C29 460 29 441 39 431L75 402L116 443L82 471Z"/></svg>