<svg xmlns="http://www.w3.org/2000/svg" viewBox="0 0 512 512"><!-- Font Awesome Pro 6.0.0-alpha1 by @fontawesome - https://fontawesome.com License - https://fontawesome.com/license (Commercial License) --><path d="M507 85L427 5C421 -2 411 -2 405 5S398 21 405 27L433 56L384 105L315 37C309 30 299 30 293 37S286 53 293 59L453 219C456 222 460 224 464 224S472 222 475 219C482 213 482 203 475 197L407 128L456 79L485 107C488 110 492 112 496 112S504 110 507 107C514 101 514 91 507 85ZM389 229L199 418C190 427 178 432 165 432H80V346C80 334 85 322 94 313L128 279L181 331C184 334 188 336 192 336S200 334 203 331C210 325 210 315 203 309L151 256L192 215L245 267C248 270 252 272 256 272S264 270 267 267C274 261 274 251 267 245L215 192L283 123C290 117 290 107 283 101S267 94 261 101L71 290C56 305 48 325 48 346V441L5 485C-2 491 -2 501 5 507C8 510 12 512 16 512S24 510 27 507L71 464H165C187 464 207 456 222 441L411 251C418 245 418 235 411 229S395 222 389 229Z"/></svg>