<svg xmlns="http://www.w3.org/2000/svg" viewBox="0 0 448 512"><!-- Font Awesome Pro 6.0.0-alpha1 by @fontawesome - https://fontawesome.com License - https://fontawesome.com/license (Commercial License) --><path d="M384 0H64C29 0 0 29 0 64V448C0 483 29 512 64 512H384C419 512 448 483 448 448V64C448 29 419 0 384 0ZM416 448C416 466 402 480 384 480H64C46 480 32 466 32 448V352H416V448ZM416 320H32V64C32 46 46 32 64 32H384C402 32 416 46 416 64V320ZM192 432H256C265 432 272 425 272 416C272 407 265 400 256 400H192C183 400 176 407 176 416C176 425 183 432 192 432Z"/></svg>