<svg xmlns="http://www.w3.org/2000/svg" viewBox="0 0 576 512"><!-- Font Awesome Pro 6.0.0-alpha1 by @fontawesome - https://fontawesome.com License - https://fontawesome.com/license (Commercial License) --><path d="M480 32H96C61 32 32 61 32 96V416C32 451 61 480 96 480H480C515 480 544 451 544 416V96C544 61 515 32 480 32ZM64 192H272V304H64V192ZM96 448C78 448 64 434 64 416V336H272V448H96ZM512 416C512 434 498 448 480 448H304V336H512V416ZM512 304H304V192H512V304ZM512 160H64V96C64 78 78 64 96 64H480C498 64 512 78 512 96V160Z"/></svg>