<svg xmlns="http://www.w3.org/2000/svg" viewBox="0 0 640 512"><!-- Font Awesome Pro 6.0.0-alpha1 by @fontawesome - https://fontawesome.com License - https://fontawesome.com/license (Commercial License) --><path d="M480 0C392 0 320 72 320 160S392 320 480 320S640 248 640 160S568 0 480 0ZM480 288C409 288 352 231 352 160C352 130 362 104 379 82L558 261C536 278 510 288 480 288ZM581 238L402 59C424 42 450 32 480 32C551 32 608 89 608 160C608 190 598 216 581 238ZM160 192C72 192 0 264 0 352S72 512 160 512S320 440 320 352S248 192 160 192ZM160 480C95 480 42 431 34 368H286C278 431 225 480 160 480ZM34 336C42 273 95 224 160 224S278 273 286 336H34Z"/></svg>