<svg xmlns="http://www.w3.org/2000/svg" viewBox="0 0 640 512"><!-- Font Awesome Pro 6.0.0-alpha1 by @fontawesome - https://fontawesome.com License - https://fontawesome.com/license (Commercial License) --><path d="M576 64H64C29 64 0 93 0 128V384C0 419 29 448 64 448H576C611 448 640 419 640 384V128C640 93 611 64 576 64ZM608 384C608 402 594 416 576 416H64C46 416 32 402 32 384V128C32 110 46 96 64 96H576C594 96 608 110 608 128V384ZM320 128H96C78 128 64 142 64 160V224C64 242 78 256 96 256H320C338 256 352 242 352 224V160C352 142 338 128 320 128ZM320 224H96V160H320V224ZM336 352H80C71 352 64 359 64 368S71 384 80 384H336C345 384 352 377 352 368S345 352 336 352ZM560 352H400C391 352 384 359 384 368S391 384 400 384H560C569 384 576 377 576 368S569 352 560 352ZM80 320C89 320 96 313 96 304C96 295 89 288 80 288S64 295 64 304C64 313 71 320 80 320ZM160 304C160 295 153 288 144 288S128 295 128 304C128 313 135 320 144 320S160 313 160 304ZM224 304C224 295 217 288 208 288S192 295 192 304C192 313 199 320 208 320S224 313 224 304ZM288 304C288 295 281 288 272 288S256 295 256 304C256 313 263 320 272 320S288 313 288 304ZM336 288C327 288 320 295 320 304C320 313 327 320 336 320S352 313 352 304C352 295 345 288 336 288Z"/></svg>