<svg xmlns="http://www.w3.org/2000/svg" viewBox="0 0 576 512"><!-- Font Awesome Pro 6.0.0-alpha1 by @fontawesome - https://fontawesome.com License - https://fontawesome.com/license (Commercial License) --><path d="M112 120C99 120 88 131 88 144C88 157 99 168 112 168S136 157 136 144C136 131 125 120 112 120ZM432 226L254 48C245 39 228 32 215 32H28C13 32 0 45 0 60V247C0 260 7 277 16 286L194 464C205 475 219 480 233 480C248 480 262 475 273 464L432 305C453 283 453 247 432 226ZM409 282L250 441C246 446 240 448 233 448C227 448 221 446 216 441L39 264C36 261 32 251 32 247V64H215C219 64 229 68 232 71L409 248C414 253 416 259 416 265S414 278 409 282ZM560 226L382 48C373 39 356 32 343 32H336C327 32 320 39 320 48C320 57 327 64 336 64H343C348 64 356 67 360 71L537 248C542 253 544 259 544 265S542 278 537 282L366 453C360 459 360 469 366 475C373 482 383 482 389 475L560 305C581 283 581 247 560 226Z"/></svg>