<svg xmlns="http://www.w3.org/2000/svg" viewBox="0 0 512 512"><!-- Font Awesome Pro 6.0.0-alpha1 by @fontawesome - https://fontawesome.com License - https://fontawesome.com/license (Commercial License) --><path d="M461 236L429 122C419 88 387 64 352 64L352 48C352 21 330 0 304 0H208C195 0 183 5 174 14C165 23 160 35 160 48C160 54 160 59 160 64C125 64 93 88 83 122L51 236C21 252 0 283 0 320V496C0 505 7 512 16 512C25 512 32 505 32 496V448H480V496C480 505 487 512 496 512C505 512 512 505 512 496V320C512 283 491 252 461 236ZM208 32H304C313 32 320 39 320 48L320 64H192C192 59 192 54 192 48C192 39 199 32 208 32ZM114 131C120 110 139 96 160 96H352C373 96 392 110 398 131L425 225C422 225 419 224 416 224H96C93 224 90 225 87 225L114 131ZM480 384C480 402 466 416 448 416H64C46 416 32 402 32 384V320C32 285 61 256 96 256H416C451 256 480 285 480 320V384ZM408 304C395 304 384 315 384 328S395 352 408 352S432 341 432 328S421 304 408 304ZM104 304C91 304 80 315 80 328S91 352 104 352S128 341 128 328S117 304 104 304Z"/></svg>