<svg xmlns="http://www.w3.org/2000/svg" viewBox="0 0 576 512"><!-- Font Awesome Pro 6.0.0-alpha1 by @fontawesome - https://fontawesome.com License - https://fontawesome.com/license (Commercial License) --><path d="M512 288H64C29 288 0 317 0 352V384C0 437 43 480 96 480H480C533 480 576 437 576 384V352C576 317 547 288 512 288ZM416 320H480V352C480 370 466 384 448 384S416 370 416 352V320ZM304 320H384V360C384 382 366 400 344 400S304 382 304 360V320ZM192 320H272V360C272 382 254 400 232 400S192 382 192 360V320ZM96 320H160V352C160 370 146 384 128 384S96 370 96 352V320ZM544 384C544 419 515 448 480 448H96C61 448 32 419 32 384V352C32 334 46 320 64 320V352C64 387 93 416 128 416C145 416 160 409 171 399C184 419 207 432 232 432C255 432 275 421 288 405C301 421 321 432 344 432C369 432 392 419 405 399C416 409 431 416 448 416C483 416 512 387 512 352V320C530 320 544 334 544 352V384ZM480 32H96C43 32 0 75 0 128V192C0 227 29 256 64 256H512C547 256 576 227 576 192V128C576 75 533 32 480 32ZM160 224H96V192C96 174 110 160 128 160S160 174 160 192V224ZM272 224H192V168C192 146 210 128 232 128S272 146 272 168V224ZM384 224H304V168C304 146 322 128 344 128S384 146 384 168V224ZM480 224H416V192C416 174 430 160 448 160S480 174 480 192V224ZM544 192C544 210 530 224 512 224V192C512 157 483 128 448 128C434 128 421 133 410 140C400 114 374 96 344 96C321 96 301 107 288 123C275 107 255 96 232 96C202 96 176 114 166 140C155 133 142 128 128 128C93 128 64 157 64 192V224C46 224 32 210 32 192V128C32 93 61 64 96 64H480C515 64 544 93 544 128V192Z"/></svg>