<svg xmlns="http://www.w3.org/2000/svg" viewBox="0 0 576 512"><!-- Font Awesome Pro 6.0.0-alpha1 by @fontawesome - https://fontawesome.com License - https://fontawesome.com/license (Commercial License) --><path d="M480 32H96C43 32 0 75 0 128V384C0 437 43 480 96 480H480C533 480 576 437 576 384V128C576 75 533 32 480 32ZM544 384C544 419 515 448 480 448H96C61 448 32 419 32 384V128C32 93 61 64 96 64H480C515 64 544 93 544 128V384ZM448 160C434 160 421 165 410 172C400 146 374 128 344 128C321 128 301 139 288 155C275 139 255 128 232 128C202 128 176 146 166 172C155 165 142 160 128 160C93 160 64 189 64 224V267C64 269 65 270 65 272C65 274 64 275 64 277V320C64 355 93 384 128 384C145 384 160 377 171 367C184 387 207 400 232 400C255 400 275 389 288 373C301 389 321 400 344 400C369 400 392 387 405 367C416 377 431 384 448 384C483 384 512 355 512 320V277C512 275 511 274 511 272C511 270 512 269 512 267V224C512 189 483 160 448 160ZM160 320C160 338 146 352 128 352S96 338 96 320V288H160V320ZM160 256H96V224C96 206 110 192 128 192S160 206 160 224V256ZM272 328C272 350 254 368 232 368C210 368 192 350 192 328V288H272V328ZM272 256H192V200C192 178 210 160 232 160C254 160 272 178 272 200V256ZM384 328C384 350 366 368 344 368C322 368 304 350 304 328V288H384V328ZM384 256H304V200C304 178 322 160 344 160C366 160 384 178 384 200V256ZM480 320C480 338 466 352 448 352S416 338 416 320V288H480V320ZM480 256H416V224C416 206 430 192 448 192S480 206 480 224V256Z"/></svg>