<svg xmlns="http://www.w3.org/2000/svg" viewBox="0 0 640 512"><!-- Font Awesome Pro 6.0.0-alpha1 by @fontawesome - https://fontawesome.com License - https://fontawesome.com/license (Commercial License) --><path d="M425 268L387 280C377 252 350 232 319 232C279 232 247 264 247 304C247 310 248 315 249 320L122 359C118 349 112 333 106 318C99 300 91 281 86 269L367 126C374 122 378 112 374 105C370 97 360 94 352 98L72 241C57 248 50 265 56 280C62 293 69 312 76 329C82 345 88 361 93 372C98 383 109 390 121 390C125 390 128 390 131 389L263 349C265 351 267 354 269 355L224 491C221 499 225 508 234 511C235 512 237 512 239 512C246 512 252 508 254 501L297 372C304 374 311 376 319 376S334 374 341 372L384 501C386 508 392 512 399 512C400 512 402 512 404 511C412 508 417 499 414 491L369 355C380 344 388 330 390 313L435 298C444 295 448 286 445 278C442 269 433 265 425 268ZM319 344C297 344 279 326 279 304S297 264 319 264S359 282 359 304S341 344 319 344ZM31 322C27 314 18 310 10 314C2 317 -2 326 1 335L19 379C22 385 28 388 34 388C36 388 38 388 40 387C48 384 52 374 49 366L31 322ZM638 203L561 18C556 4 537 -4 522 2L417 45C407 50 399 62 399 73C399 77 400 82 401 85L477 269C482 280 494 288 505 288C509 288 513 287 517 286L621 242C632 238 640 226 640 214C640 211 639 206 638 203ZM507 257L430 75L532 31L608 213L507 257Z"/></svg>