<svg xmlns="http://www.w3.org/2000/svg" viewBox="0 0 320 512"><!-- Font Awesome Pro 6.0.0-alpha1 by @fontawesome - https://fontawesome.com License - https://fontawesome.com/license (Commercial License) --><path d="M208 384C208 410 186 432 160 432S112 410 112 384C112 363 125 345 144 339V272C144 263 151 256 160 256S176 263 176 272V339C195 345 208 363 208 384ZM256 299C276 322 288 351 288 384C288 455 231 512 160 512C160 512 159 512 159 512C89 511 32 454 32 383C32 351 44 322 64 299V96C64 43 107 0 160 0S256 43 256 96V299ZM256 384C256 344 233 322 224 311V96C224 61 195 32 160 32S96 61 96 96V311C86 322 64 344 64 383C64 436 107 480 159 480H160C213 480 256 437 256 384Z"/></svg>