<svg xmlns="http://www.w3.org/2000/svg" viewBox="0 0 320 512"><!-- Font Awesome Pro 6.0.0-alpha1 by @fontawesome - https://fontawesome.com License - https://fontawesome.com/license (Commercial License) --><path d="M256 96C256 43 213 0 160 0S64 43 64 96V299C44 322 32 351 32 383C32 454 89 511 159 512C159 512 160 512 160 512C231 512 288 455 288 384C288 351 276 322 256 299V96ZM160 480H159C107 480 64 436 64 383C64 344 86 322 96 311V96C96 61 125 32 160 32S224 61 224 96V311C233 322 256 344 256 384C256 437 213 480 160 480ZM208 384C208 410 186 432 160 432S112 410 112 384C112 363 125 345 144 339V96C144 87 151 80 160 80S176 87 176 96V339C195 345 208 363 208 384Z"/></svg>