<svg xmlns="http://www.w3.org/2000/svg" viewBox="0 0 512 512"><!-- Font Awesome Pro 6.0.0-alpha1 by @fontawesome - https://fontawesome.com License - https://fontawesome.com/license (Commercial License) --><path d="M477 20C460 7 439 0 418 0C392 0 365 10 345 31L115 262C103 274 96 291 96 308L96 393L5 485C-2 491 -2 501 5 507C8 510 12 512 16 512S24 510 27 507L119 416H203C220 416 237 409 249 397L484 163C519 128 526 61 477 20ZM461 140L226 375C220 381 212 384 203 384H128L128 308C128 299 131 291 137 285L168 254L197 283C200 286 204 288 208 288S216 286 219 283C226 277 226 267 219 261L190 232L232 190L261 219C264 222 268 224 272 224S280 222 283 219C290 213 290 203 283 197L254 167L295 126L325 155C328 158 332 160 336 160S344 158 347 155C354 149 354 139 347 133L318 103L368 53C381 40 399 32 418 32C433 32 446 37 456 45C475 60 479 78 480 91C481 109 474 128 461 140Z"/></svg>