<svg xmlns="http://www.w3.org/2000/svg" viewBox="0 0 512 512"><!-- Font Awesome Pro 6.0.0-alpha1 by @fontawesome - https://fontawesome.com License - https://fontawesome.com/license (Commercial License) --><path d="M512 240C512 224 505 208 494 197C495 192 496 186 496 180V165C496 144 483 124 464 113V106C464 83 454 63 437 53C432 22 407 0 377 0H272C242 0 214 11 192 31L166 51C159 57 158 67 163 74C169 81 179 82 186 77L213 55C230 40 250 32 272 32H377C392 32 405 45 405 61C405 68 410 76 416 79C430 84 432 99 432 106V121C432 128 436 136 442 138C453 142 464 153 464 165V180C464 186 463 191 461 194C457 202 459 211 467 216C475 221 480 230 480 240V259C480 275 467 288 451 288H320C315 288 310 291 307 295S303 305 305 310C307 315 310 318 311 321C312 322 313 323 314 325C322 341 331 358 331 381C331 436 301 448 275 448C268 448 261 432 254 401C249 380 244 357 229 342C213 325 199 311 189 295C185 288 175 286 167 291C160 295 158 305 163 313C174 331 190 347 204 362C214 373 218 391 222 408C228 433 239 480 275 480C296 480 363 473 363 381C363 355 355 336 347 320H451C485 320 512 293 512 259V240ZM128 280V40C128 18 110 0 88 0H40C18 0 0 18 0 40V280C0 302 18 320 40 320H88C110 320 128 302 128 280ZM96 280C96 284 92 288 88 288H40C36 288 32 284 32 280V40C32 36 36 32 40 32H88C92 32 96 36 96 40V280Z"/></svg>