<svg xmlns="http://www.w3.org/2000/svg" viewBox="0 0 640 512"><!-- Font Awesome Pro 6.0.0-alpha1 by @fontawesome - https://fontawesome.com License - https://fontawesome.com/license (Commercial License) --><path d="M512 224C503 224 496 231 496 240C496 249 503 256 512 256S528 249 528 240C528 231 521 224 512 224ZM512 288C503 288 496 295 496 304C496 313 503 320 512 320S528 313 528 304C528 295 521 288 512 288ZM512 160C503 160 496 167 496 176C496 185 503 192 512 192S528 185 528 176C528 167 521 160 512 160ZM512 96C503 96 496 103 496 112C496 121 503 128 512 128S528 121 528 112C528 103 521 96 512 96ZM624 166C633 166 640 159 640 150V96C640 61 611 32 576 32H160C125 32 96 61 96 96V320C96 355 125 384 160 384H576C611 384 640 355 640 320V266C640 257 633 250 624 250C601 250 582 231 582 208S601 166 624 166ZM608 280V320C608 338 594 352 576 352H160C142 352 128 338 128 320V96C128 78 142 64 160 64H576C594 64 608 78 608 96V136C575 143 550 173 550 208S575 273 608 280ZM528 448H96C61 448 32 419 32 384V112C32 103 25 96 16 96S0 103 0 112V384C0 437 43 480 96 480H528C537 480 544 473 544 464S537 448 528 448ZM441 190C429 176 412 168 394 168H361L324 107C320 101 312 96 304 96H278C271 96 265 99 260 105C256 111 255 118 257 125L270 168H255L235 149C232 146 228 144 224 144H208C199 144 192 151 192 160V256C192 265 199 272 208 272H224C228 272 232 270 235 267L255 248H270L257 291C255 298 256 306 260 311C265 317 271 320 278 320H304C312 320 320 316 324 309L361 248H394C412 248 429 240 441 226C450 216 450 200 441 190C441 190 441 190 441 190ZM394 216H343L333 231L299 288H291L301 257L313 216H241L232 225L224 233V183L232 191L241 200H313L301 159L291 128H299L333 185L343 200H394C401 200 409 203 414 208C409 213 401 216 394 216Z"/></svg>