<svg xmlns="http://www.w3.org/2000/svg" viewBox="0 0 640 512"><!-- Font Awesome Pro 6.0.0-alpha1 by @fontawesome - https://fontawesome.com License - https://fontawesome.com/license (Commercial License) --><path d="M464 336C455 336 448 343 448 352C448 361 455 368 464 368S480 361 480 352C480 343 473 336 464 336ZM376 235C362 219 343 210 322 210H288L246 141C241 133 232 128 224 128H194C186 128 178 132 173 138C169 145 167 153 169 161L184 210H168L146 188C142 185 137 183 133 183H114C104 183 96 191 96 201V311C96 321 104 329 114 329H133C137 329 142 327 146 324L168 302H184L169 351C167 359 169 367 173 374C178 380 186 384 194 384H224C233 384 241 379 246 372L288 302H322C343 302 362 293 376 277C387 265 387 247 376 235C376 235 376 235 376 235ZM322 270H270L261 285L220 352H203L215 311L228 270H154L145 279L128 296V216L145 233L154 242H228L215 201L203 160H220L261 227L270 242H322C333 242 344 247 352 256L352 256C344 265 333 270 322 270ZM464 144C455 144 448 151 448 160C448 169 455 176 464 176S480 169 480 160C480 151 473 144 464 144ZM464 272C455 272 448 279 448 288C448 297 455 304 464 304S480 297 480 288C480 279 473 272 464 272ZM624 208C633 208 640 201 640 192V128C640 93 611 64 576 64H64C29 64 0 93 0 128V384C0 419 29 448 64 448H576C611 448 640 419 640 384V320C640 311 633 304 624 304C598 304 576 282 576 256S598 208 624 208ZM608 334V384C608 402 594 416 576 416H64C46 416 32 402 32 384V128C32 110 46 96 64 96H576C594 96 608 110 608 128V178C572 185 544 217 544 256S572 327 608 334ZM464 208C455 208 448 215 448 224C448 233 455 240 464 240S480 233 480 224C480 215 473 208 464 208Z"/></svg>