<svg xmlns="http://www.w3.org/2000/svg" viewBox="0 0 512 512"><!-- Font Awesome Pro 6.0.0-alpha1 by @fontawesome - https://fontawesome.com License - https://fontawesome.com/license (Commercial License) --><path d="M480 176V259C480 319 431 368 372 368C335 368 300 348 279 318L204 209C186 183 154 170 122 178C87 187 64 220 64 256V336C64 345 57 352 48 352S32 345 32 336V253C32 193 81 144 140 144C177 144 212 164 233 194L308 303C326 329 358 342 390 334C425 325 448 292 448 256V176C448 167 455 160 464 160S480 167 480 176Z"/></svg>