<svg xmlns="http://www.w3.org/2000/svg" viewBox="0 0 512 512"><!-- Font Awesome Pro 6.0.0-alpha1 by @fontawesome - https://fontawesome.com License - https://fontawesome.com/license (Commercial License) --><path d="M256 16C247 16 240 23 240 32V112C240 121 247 128 256 128S272 121 272 112V49C379 57 464 147 464 256C464 371 371 464 256 464S48 371 48 256C48 207 65 160 97 122C102 116 101 105 95 100S78 95 72 102C36 145 16 200 16 256C16 388 124 496 256 496S496 388 496 256S388 16 256 16ZM245 267C248 270 252 272 256 272S264 270 267 267C274 261 274 251 267 245L187 165C181 158 171 158 165 165S158 181 165 187L245 267Z"/></svg>