<svg xmlns="http://www.w3.org/2000/svg" viewBox="0 0 512 512"><!-- Font Awesome Pro 6.0.0-alpha1 by @fontawesome - https://fontawesome.com License - https://fontawesome.com/license (Commercial License) --><path d="M469 180C466 173 463 166 460 159C476 141 475 113 458 96L416 54C399 37 371 36 353 52C346 49 339 46 332 43C330 19 310 0 286 0H226C202 0 182 19 180 43C173 46 166 49 159 52C141 36 113 37 96 54L54 96C37 114 36 141 52 159C49 166 46 173 43 180C19 182 0 202 0 226V286C0 310 19 330 43 332C46 339 49 346 52 353C36 371 37 399 54 416L96 458C114 476 141 476 159 460C166 463 173 466 180 469C182 493 202 512 226 512H286C310 512 330 493 332 469C339 466 346 463 353 460C371 476 399 475 416 458L458 416C475 399 476 371 460 353C463 346 466 339 469 332C493 330 512 310 512 286V226C512 202 493 182 469 180ZM480 286C480 294 474 300 466 300H445C436 331 434 335 421 359L436 373C441 379 441 388 436 393L393 436C388 441 379 441 373 436L359 421C335 434 331 436 300 445V466C300 474 294 480 286 480H226C218 480 212 474 212 466V445C181 436 177 434 153 421L139 436C133 441 124 441 119 436L76 393C71 388 71 379 76 373L91 359C78 335 76 331 67 300H46C38 300 32 294 32 286V226C32 218 38 212 46 212H67C76 181 78 177 91 153L76 139C71 133 71 124 76 119L119 76C124 71 133 71 139 77L153 91C177 78 181 76 212 67V46C212 38 218 32 226 32H286C294 32 300 38 300 46V67C331 76 335 78 359 91L373 76C379 71 388 71 393 76L436 119C441 124 441 133 435 139L421 153C434 177 436 181 445 212H466C474 212 480 218 480 226V286ZM256 96C168 96 96 168 96 256S168 416 256 416S416 344 416 256S344 96 256 96ZM256 384C185 384 128 327 128 256C128 185 185 128 256 128S384 185 384 256C384 327 327 384 256 384ZM256 160C243 160 232 171 232 184C232 197 243 208 256 208S280 197 280 184C280 171 269 160 256 160ZM210 241C214 229 208 215 195 211C182 207 169 214 165 226S167 252 180 257S206 254 210 241ZM194 300C186 311 189 326 200 334C210 341 225 339 233 328S239 303 228 295C217 287 202 289 194 300ZM284 295C274 303 271 318 279 328S302 341 312 334C323 326 326 311 318 300C310 289 295 287 284 295ZM317 211C304 215 298 229 302 241C306 254 319 261 332 257S351 239 347 226S330 207 317 211Z"/></svg>