<svg xmlns="http://www.w3.org/2000/svg" viewBox="0 0 576 512"><!-- Font Awesome Pro 6.0.0-alpha1 by @fontawesome - https://fontawesome.com License - https://fontawesome.com/license (Commercial License) --><path d="M416 96H160C72 96 0 168 0 256S72 416 160 416H416C504 416 576 344 576 256S504 96 416 96ZM416 384H160C89 384 32 327 32 256S89 128 160 128H416C487 128 544 185 544 256S487 384 416 384ZM416 160C363 160 320 203 320 256S363 352 416 352S512 309 512 256S469 160 416 160ZM416 320C381 320 352 291 352 256S381 192 416 192S480 221 480 256S451 320 416 320ZM416 224C398 224 384 238 384 256S398 288 416 288S448 274 448 256S434 224 416 224Z"/></svg>