<svg xmlns="http://www.w3.org/2000/svg" viewBox="0 0 576 512"><!-- Font Awesome Pro 6.0.0-alpha1 by @fontawesome - https://fontawesome.com License - https://fontawesome.com/license (Commercial License) --><path d="M416 96H160C72 96 0 168 0 256S72 416 160 416H416C504 416 576 344 576 256S504 96 416 96ZM416 384H160C89 384 32 327 32 256S89 128 160 128H416C487 128 544 185 544 256S487 384 416 384ZM160 160C107 160 64 203 64 256S107 352 160 352S256 309 256 256S213 160 160 160ZM160 320C125 320 96 291 96 256S125 192 160 192S224 221 224 256S195 320 160 320Z"/></svg>