<svg xmlns="http://www.w3.org/2000/svg" viewBox="0 0 512 512"><!-- Font Awesome Pro 6.0.0-alpha1 by @fontawesome - https://fontawesome.com License - https://fontawesome.com/license (Commercial License) --><path d="M160 192C151 192 144 199 144 208S151 224 160 224C169 224 176 217 176 208S169 192 160 192ZM96 192C87 192 80 199 80 208S87 224 96 224S112 217 112 208S105 192 96 192ZM224 192C215 192 208 199 208 208S215 224 224 224S240 217 240 208S233 192 224 192ZM400 112C373 112 352 146 352 192S373 272 400 272C427 272 448 238 448 192S427 112 400 112ZM400 240C391 240 384 219 384 192C384 165 391 144 400 144C409 144 416 165 416 192C416 219 409 240 400 240ZM512 192C512 86 462 0 400 0H112C50 0 0 86 0 192S50 384 112 384H400C431 384 460 362 480 326V464C480 473 473 480 464 480H144C135 480 128 473 128 464V432C128 423 121 416 112 416S96 423 96 432V464C96 490 118 512 144 512H464C490 512 512 490 512 464V224C512 222 512 220 511 218C512 210 512 201 512 192ZM112 352C74 352 32 286 32 192S74 32 112 32H338C308 66 288 125 288 192S308 318 338 352H112ZM400 352C362 352 320 286 320 192S362 32 400 32S480 98 480 192S438 352 400 352Z"/></svg>