<svg xmlns="http://www.w3.org/2000/svg" viewBox="0 0 640 512"><!-- Font Awesome Pro 6.0.0-alpha1 by @fontawesome - https://fontawesome.com License - https://fontawesome.com/license (Commercial License) --><path d="M634 483L26 3C19 -2 9 -1 3 6C-2 13 -1 23 6 29L614 509C617 511 621 512 624 512C629 512 633 510 637 506C642 499 641 489 634 483ZM176 32H402C372 66 352 125 352 192C352 195 352 197 352 200L386 227C385 216 384 204 384 192C384 98 426 32 464 32S544 98 544 192C544 249 529 295 508 323L533 343C537 338 541 332 544 326V351L576 377C576 377 576 201 576 192C576 86 526 0 464 0H176C158 0 141 8 125 21L151 41C160 36 168 32 176 32ZM208 480C199 480 192 473 192 464V432C192 423 185 416 176 416C167 416 160 423 160 432V464C160 490 182 512 208 512H528C532 512 536 511 539 511L500 480H208ZM379 384L338 352H176C138 352 96 286 96 192C96 182 97 172 98 162L68 139C66 156 64 174 64 192C64 298 114 384 176 384H379ZM464 112C437 112 416 146 416 192S437 272 464 272C491 272 512 238 512 192S491 112 464 112ZM464 240C455 240 448 219 448 192C448 165 455 144 464 144C473 144 480 165 480 192C480 219 473 240 464 240Z"/></svg>