<svg xmlns="http://www.w3.org/2000/svg" viewBox="0 0 512 512"><!-- Font Awesome Pro 6.0.0-alpha1 by @fontawesome - https://fontawesome.com License - https://fontawesome.com/license (Commercial License) --><path d="M493 173L467 147C455 135 438 128 422 128H384V80C384 54 362 32 336 32H176C150 32 128 54 128 80V128H90C74 128 57 135 45 147L19 173C7 185 0 202 0 218V416C0 451 29 480 64 480H448C483 480 512 451 512 416V218C512 202 505 185 493 173ZM160 80C160 71 167 64 176 64H336C345 64 352 71 352 80V128H160V80ZM41 196L68 169C74 163 82 160 90 160H421C430 160 438 163 444 169L471 196C477 202 480 210 480 218V304H368V272C368 263 361 256 352 256S336 263 336 272V304H176V272C176 263 169 256 160 256S144 263 144 272V304H32V218C32 210 35 202 41 196ZM448 448H64C46 448 32 434 32 416V336H144V368C144 377 151 384 160 384S176 377 176 368V336H336V368C336 377 343 384 352 384S368 377 368 368V336H480V416C480 434 466 448 448 448Z"/></svg>