<svg xmlns="http://www.w3.org/2000/svg" viewBox="0 0 448 512"><!-- Font Awesome Pro 6.0.0-alpha1 by @fontawesome - https://fontawesome.com License - https://fontawesome.com/license (Commercial License) --><path d="M393 225C379 245 370 270 367 305C364 336 360 378 351 421L344 448C340 467 324 480 305 480C287 480 271 467 267 449L240 336C238 329 231 323 224 323C217 323 210 329 208 336L181 449C177 467 161 480 143 480C124 480 108 467 104 448L97 421C88 378 84 336 81 305C78 271 69 245 55 225C34 196 27 159 36 123C46 80 78 46 119 35C145 28 173 35 202 56L202 57C212 64 251 89 265 99C272 103 274 113 269 121C265 128 254 130 247 125C245 124 182 81 182 81C163 67 144 61 128 66C98 73 74 99 67 130C60 157 65 185 81 207C99 232 109 262 113 302C115 333 120 373 129 414L135 441C137 449 148 449 150 442L177 329C183 307 202 291 224 291S265 307 271 329L298 441C300 449 311 449 313 441L319 414C328 373 333 333 335 302C339 262 349 231 367 207C383 185 388 157 381 130C374 99 350 73 320 66C308 62 295 64 280 72C272 77 262 74 258 66C254 58 257 49 264 44C286 32 308 29 329 35C369 46 402 80 412 122C421 159 414 196 393 225Z"/></svg>