<svg xmlns="http://www.w3.org/2000/svg" viewBox="0 0 512 512"><!-- Font Awesome Pro 6.0.0-alpha1 by @fontawesome - https://fontawesome.com License - https://fontawesome.com/license (Commercial License) --><path d="M16 48C7 48 0 41 0 32S7 16 16 16H416C425 16 432 23 432 32S425 48 416 48H16ZM384 112C393 112 400 105 400 96S393 80 384 80H32C23 80 16 87 16 96S23 112 32 112H384ZM384 160C384 151 377 144 368 144H48C39 144 32 151 32 160S39 176 48 176H368C377 176 384 169 384 160ZM432 224C432 215 425 208 416 208H112C103 208 96 215 96 224S103 240 112 240H416C425 240 432 233 432 224ZM480 288C480 279 473 272 464 272H208C199 272 192 279 192 288S199 304 208 304H464C473 304 480 297 480 288ZM496 336H336C327 336 320 343 320 352S327 368 336 368H496C505 368 512 361 512 352S505 336 496 336ZM464 400H368C359 400 352 407 352 416S359 432 368 432H464C473 432 480 425 480 416S473 400 464 400ZM416 464H352C343 464 336 471 336 480S343 496 352 496H416C425 496 432 489 432 480S425 464 416 464Z"/></svg>