<svg xmlns="http://www.w3.org/2000/svg" viewBox="0 0 448 512"><!-- Font Awesome Pro 6.0.0-alpha1 by @fontawesome - https://fontawesome.com License - https://fontawesome.com/license (Commercial License) --><path d="M438 147C429 135 415 128 400 128H320V96C320 78 306 64 288 64H240V32H272C281 32 288 25 288 16C288 7 281 0 272 0H176C167 0 160 7 160 16C160 25 167 32 176 32H208V64H160C142 64 128 78 128 96V128H48C33 128 19 135 10 147S-2 175 2 189L41 322C36 325 32 330 32 336C32 345 39 352 48 352H96V496C96 505 103 512 112 512C121 512 128 505 128 496V352H320V496C320 505 327 512 336 512C345 512 352 505 352 496V352H400C409 352 416 345 416 336C416 330 412 325 407 322L446 189C450 175 448 159 438 147ZM160 96H288V128H160V96ZM73 320L33 181C31 176 32 170 35 166S43 160 48 160H128V320H73ZM160 320V160H288V320H160ZM415 181L375 320H320V160H400C405 160 410 162 413 166C416 170 417 176 415 181Z"/></svg>