<svg xmlns="http://www.w3.org/2000/svg" viewBox="0 0 576 512"><!-- Font Awesome Pro 6.0.0-alpha1 by @fontawesome - https://fontawesome.com License - https://fontawesome.com/license (Commercial License) --><path d="M119 64H119C112 64 106 68 104 75C99 92 96 110 96 128S99 164 104 181C106 188 112 192 119 192H119C130 192 137 182 134 171C130 158 128 143 128 128S130 98 134 84C137 74 130 64 119 64ZM41 0C34 0 29 3 26 9C10 45 0 86 0 128S10 211 26 247C29 252 34 256 41 256C52 256 60 244 55 233C40 201 32 166 32 128S40 55 55 23C60 12 52 0 41 0ZM457 64H457C446 64 439 74 442 85C446 98 448 113 448 128S446 158 442 171C439 182 446 192 457 192H457C464 192 470 188 472 181C477 164 480 146 480 128S477 92 472 75C470 68 464 64 457 64ZM550 9C547 3 542 0 535 0C524 0 516 12 521 23C536 55 544 90 544 128S536 201 521 233C516 244 524 256 535 256C542 256 547 253 550 247C566 211 576 170 576 128S566 45 550 9ZM273 66C250 71 231 90 226 113C217 149 240 181 272 190V496C272 505 279 512 288 512S304 505 304 496V190C332 183 352 158 352 128C352 88 315 56 273 66ZM288 160C270 160 256 146 256 128S270 96 288 96S320 110 320 128S306 160 288 160Z"/></svg>