<svg xmlns="http://www.w3.org/2000/svg" viewBox="0 0 640 512"><!-- Font Awesome Pro 6.0.0-alpha1 by @fontawesome - https://fontawesome.com License - https://fontawesome.com/license (Commercial License) --><path d="M240 96H16C7 96 0 103 0 112C0 121 7 128 16 128H112V400C112 409 119 416 128 416C137 416 144 409 144 400V128H240C249 128 256 121 256 112C256 103 249 96 240 96ZM629 97C623 95 616 97 612 102L464 279L316 102C312 97 305 95 299 97C292 99 288 105 288 112V400C288 409 295 416 304 416S320 409 320 400V156L452 314C458 322 470 322 476 314L608 156V400C608 409 615 416 624 416S640 409 640 400V112C640 105 636 99 629 97Z"/></svg>