<svg xmlns="http://www.w3.org/2000/svg" viewBox="0 0 384 512"><!-- Font Awesome Pro 6.0.0-alpha1 by @fontawesome - https://fontawesome.com License - https://fontawesome.com/license (Commercial License) --><path d="M192 64C166 64 144 86 144 112S166 160 192 160S240 138 240 112S218 64 192 64ZM192 128C183 128 176 121 176 112S183 96 192 96S208 103 208 112S201 128 192 128ZM192 192C166 192 144 214 144 240S166 288 192 288S240 266 240 240S218 192 192 192ZM192 256C183 256 176 249 176 240S183 224 192 224S208 231 208 240S201 256 192 256ZM192 320C166 320 144 342 144 368S166 416 192 416S240 394 240 368S218 320 192 320ZM384 96V80C384 71 377 64 368 64H320C320 29 291 0 256 0H128C93 0 64 29 64 64H16C7 64 0 71 0 80V96C0 135 28 167 64 174V192H16C7 192 0 199 0 208V224C0 263 28 295 64 302V320H16C7 320 0 327 0 336V352C0 394 32 428 73 431C92 479 138 512 192 512S292 479 311 431C352 428 384 394 384 352V336C384 327 377 320 368 320H320V302C356 295 384 263 384 224V208C384 199 377 192 368 192H320V174C356 167 384 135 384 96ZM320 96H352C352 117 339 134 320 141V96ZM32 96H64V141C45 134 32 117 32 96ZM32 224H64V269C45 262 32 245 32 224ZM32 352H64V384C64 389 65 393 65 397C46 391 32 373 32 352ZM288 384C288 437 245 480 192 480S96 437 96 384V64C96 46 110 32 128 32H256C274 32 288 46 288 64V384ZM352 352C352 373 338 391 319 397C319 393 320 389 320 384V352H352ZM352 224C352 245 339 262 320 269V224H352Z"/></svg>