<svg xmlns="http://www.w3.org/2000/svg" viewBox="0 0 512 512"><!-- Font Awesome Pro 6.0.0-alpha1 by @fontawesome - https://fontawesome.com License - https://fontawesome.com/license (Commercial License) --><path d="M496 480H16C7 480 0 487 0 496C0 505 7 512 16 512H496C505 512 512 505 512 496C512 487 505 480 496 480ZM58 447C66 450 76 446 79 438L113 352H399L433 438C436 444 442 448 448 448C450 448 452 448 454 447C462 444 466 434 463 426L302 20C298 8 286 0 273 0H239C226 0 214 8 210 20L49 426C46 434 50 444 58 447ZM239 32L273 32L323 160H189L239 32ZM176 192H336L386 320H126L176 192Z"/></svg>