<svg xmlns="http://www.w3.org/2000/svg" viewBox="0 0 512 512"><!-- Font Awesome Pro 6.0.0-alpha1 by @fontawesome - https://fontawesome.com License - https://fontawesome.com/license (Commercial License) --><path d="M144 224H368C377 224 384 217 384 208S377 192 368 192H144C135 192 128 199 128 208S135 224 144 224ZM176 160H336C345 160 352 153 352 144S345 128 336 128H176C167 128 160 135 160 144S167 160 176 160ZM80 128H64V112C64 103 57 96 48 96S32 103 32 112V128H16C7 128 0 135 0 144S7 160 16 160H32V176C32 185 39 192 48 192S64 185 64 176V160H80C89 160 96 153 96 144S89 128 80 128ZM216 95C224 92 229 83 226 75C225 71 224 68 224 64C224 46 238 32 256 32S288 46 288 64C288 68 287 71 286 75C283 83 288 92 296 95C298 96 300 96 301 96C308 96 314 92 316 85C319 78 320 71 320 64C320 29 291 0 256 0S192 29 192 64C192 71 193 78 196 85C199 94 208 98 216 95ZM400 256H112C103 256 96 263 96 272S103 288 112 288H400C409 288 416 281 416 272S409 256 400 256ZM368 448H144C118 448 96 470 96 496C96 505 103 512 112 512S128 505 128 496C128 487 135 480 144 480H368C377 480 384 487 384 496C384 505 391 512 400 512S416 505 416 496C416 470 394 448 368 448ZM176 352H336C345 352 352 345 352 336S345 320 336 320H176C167 320 160 327 160 336S167 352 176 352ZM496 32H480V16C480 7 473 0 464 0S448 7 448 16V32H432C423 32 416 39 416 48S423 64 432 64H448V80C448 89 455 96 464 96S480 89 480 80V64H496C505 64 512 57 512 48S505 32 496 32ZM176 416H336C345 416 352 409 352 400S345 384 336 384H176C167 384 160 391 160 400S167 416 176 416Z"/></svg>