<svg xmlns="http://www.w3.org/2000/svg" viewBox="0 0 512 512"><!-- Font Awesome Pro 6.0.0-alpha1 by @fontawesome - https://fontawesome.com License - https://fontawesome.com/license (Commercial License) --><path d="M511 10C509 6 506 3 502 1C500 0 498 0 496 0H384C375 0 368 7 368 16S375 32 384 32H457L375 114C345 83 303 64 256 64S167 83 137 114L119 96L131 83C138 77 138 67 131 61S115 54 109 61L96 73L55 32H128C137 32 144 25 144 16S137 0 128 0H16C14 0 12 0 10 1C6 3 3 6 1 10C0 12 0 14 0 16V128C0 137 7 144 16 144S32 137 32 128V55L73 96L61 109C54 115 54 125 61 131C64 134 68 136 72 136S80 134 83 131L96 119L116 139C98 166 88 198 88 232C88 319 155 390 240 398V432H192C183 432 176 439 176 448S183 464 192 464H240V496C240 505 247 512 256 512S272 505 272 496V464H320C329 464 336 457 336 448S329 432 320 432H272V398C357 390 424 319 424 232C424 198 414 166 396 139L480 55V128C480 137 487 144 496 144S512 137 512 128V16C512 14 512 12 511 10ZM256 368C181 368 120 307 120 232S181 96 256 96S392 157 392 232S331 368 256 368Z"/></svg>