<svg xmlns="http://www.w3.org/2000/svg" viewBox="0 0 512 512"><!-- Font Awesome Pro 6.0.0-alpha1 by @fontawesome - https://fontawesome.com License - https://fontawesome.com/license (Commercial License) --><path d="M124 282L176 221C180 215 186 210 192 206V400C192 409 199 416 208 416S224 409 224 400V193C228 193 233 192 237 192H275C279 192 284 193 288 193V400C288 409 295 416 304 416S320 409 320 400V206C326 210 332 215 336 221L388 282C391 286 395 288 400 288C404 288 407 287 410 284C417 279 418 269 412 262L361 200C340 175 308 160 275 160H237C204 160 172 175 151 200L100 262C94 269 95 279 102 284C109 290 119 289 124 282ZM256 128C291 128 320 99 320 64C320 29 291 0 256 0S192 29 192 64C192 99 221 128 256 128ZM256 32C274 32 288 46 288 64S274 96 256 96S224 82 224 64S238 32 256 32ZM80 96H64V80C64 71 57 64 48 64S32 71 32 80V96H16C7 96 0 103 0 112S7 128 16 128H32V144C32 153 39 160 48 160S64 153 64 144V128H80C89 128 96 121 96 112S89 96 80 96ZM496 32H480V16C480 7 473 0 464 0S448 7 448 16V32H432C423 32 416 39 416 48S423 64 432 64H448V80C448 89 455 96 464 96S480 89 480 80V64H496C505 64 512 57 512 48S505 32 496 32ZM368 448H144C118 448 96 470 96 496C96 505 103 512 112 512S128 505 128 496C128 487 135 480 144 480H368C377 480 384 487 384 496C384 505 391 512 400 512S416 505 416 496C416 470 394 448 368 448Z"/></svg>