<svg xmlns="http://www.w3.org/2000/svg" viewBox="0 0 512 512"><!-- Font Awesome Pro 6.0.0-alpha1 by @fontawesome - https://fontawesome.com License - https://fontawesome.com/license (Commercial License) --><path d="M144 224H368C377 224 384 217 384 208S377 192 368 192H144C135 192 128 199 128 208S135 224 144 224ZM176 160H336C345 160 352 153 352 144S345 128 336 128H176C167 128 160 135 160 144S167 160 176 160ZM80 384H64V368C64 359 57 352 48 352S32 359 32 368V384H16C7 384 0 391 0 400S7 416 16 416H32V432C32 441 39 448 48 448S64 441 64 432V416H80C89 416 96 409 96 400S89 384 80 384ZM224 96H288C297 96 304 89 304 80S297 64 288 64H224C215 64 208 71 208 80S215 96 224 96ZM224 32H288C297 32 304 25 304 16S297 0 288 0H224C215 0 208 7 208 16S215 32 224 32ZM368 448H144C118 448 96 470 96 496C96 505 103 512 112 512S128 505 128 496C128 487 135 480 144 480H368C377 480 384 487 384 496C384 505 391 512 400 512S416 505 416 496C416 470 394 448 368 448ZM496 160H480V144C480 135 473 128 464 128S448 135 448 144V160H432C423 160 416 167 416 176S423 192 432 192H448V208C448 217 455 224 464 224S480 217 480 208V192H496C505 192 512 185 512 176S505 160 496 160ZM400 256H112C103 256 96 263 96 272S103 288 112 288H400C409 288 416 281 416 272S409 256 400 256ZM176 416H336C345 416 352 409 352 400S345 384 336 384H176C167 384 160 391 160 400S167 416 176 416ZM176 352H336C345 352 352 345 352 336S345 320 336 320H176C167 320 160 327 160 336S167 352 176 352Z"/></svg>