<svg xmlns="http://www.w3.org/2000/svg" viewBox="0 0 448 512"><!-- Font Awesome Pro 6.0.0-alpha1 by @fontawesome - https://fontawesome.com License - https://fontawesome.com/license (Commercial License) --><path d="M432 64H336L302 19C293 7 279 0 264 0H184C169 0 155 7 146 19L112 64H16C7 64 0 71 0 80C0 89 7 96 16 96H432C441 96 448 89 448 80C448 71 441 64 432 64ZM152 64L171 38C174 34 179 32 184 32H264C269 32 274 34 277 38L296 64H152ZM400 128C391 128 384 135 384 144V432C384 458 362 480 336 480H112C86 480 64 458 64 432V144C64 135 57 128 48 128S32 135 32 144V432C32 476 68 512 112 512H336C380 512 416 476 416 432V144C416 135 409 128 400 128ZM144 416V192C144 183 137 176 128 176S112 183 112 192V416C112 425 119 432 128 432S144 425 144 416ZM240 416V192C240 183 233 176 224 176S208 183 208 192V416C208 425 215 432 224 432S240 425 240 416ZM336 416V192C336 183 329 176 320 176S304 183 304 192V416C304 425 311 432 320 432S336 425 336 416Z"/></svg>