<svg xmlns="http://www.w3.org/2000/svg" viewBox="0 0 448 512"><!-- Font Awesome Pro 6.0.0-alpha1 by @fontawesome - https://fontawesome.com License - https://fontawesome.com/license (Commercial License) --><path d="M401 128C392 128 386 134 385 143L356 465C355 474 348 480 340 480H108C100 480 93 474 92 465L63 143C62 134 56 128 47 128C38 128 30 136 31 145L60 468C62 493 83 512 108 512H340C365 512 386 493 388 468L417 145C418 136 410 128 401 128ZM432 64H336L302 19C293 7 279 0 264 0H184C169 0 155 7 146 19L112 64H16C7 64 0 71 0 80C0 89 7 96 16 96H432C441 96 448 89 448 80C448 71 441 64 432 64ZM152 64L171 38C174 34 179 32 184 32H264C269 32 274 34 277 38L296 64H152ZM219 197C213 190 203 190 197 197L117 277C110 283 110 293 117 299L197 379C200 382 204 384 208 384S216 382 219 379C226 373 226 363 219 357L167 304H240C266 304 288 326 288 352V400C288 409 295 416 304 416S320 409 320 400V352C320 308 284 272 240 272H167L219 219C226 213 226 203 219 197Z"/></svg>