<svg xmlns="http://www.w3.org/2000/svg" viewBox="0 0 448 512"><!-- Font Awesome Pro 6.0.0-alpha1 by @fontawesome - https://fontawesome.com License - https://fontawesome.com/license (Commercial License) --><path d="M432 64H336L302 19C293 7 279 0 264 0H184C169 0 155 7 146 19L112 64H16C7 64 0 71 0 80C0 89 7 96 16 96H432C441 96 448 89 448 80C448 71 441 64 432 64ZM152 64L171 38C174 34 179 32 184 32H264C269 32 274 34 277 38L296 64H152ZM401 128C392 128 386 134 385 143L356 465C355 474 348 480 340 480H108C100 480 93 474 92 465L63 143C62 134 56 128 47 128C38 128 30 136 31 145L60 468C62 493 83 512 108 512H340C365 512 386 493 388 468L417 145C418 136 410 128 401 128ZM224 416C233 416 240 409 240 400V247L293 299C296 302 300 304 304 304S312 302 315 299C322 293 322 283 315 277L235 197C229 190 219 190 213 197L133 277C126 283 126 293 133 299S149 306 155 299L208 247V400C208 409 215 416 224 416Z"/></svg>