<svg xmlns="http://www.w3.org/2000/svg" viewBox="0 0 512 512"><!-- Font Awesome Pro 6.0.0-alpha1 by @fontawesome - https://fontawesome.com License - https://fontawesome.com/license (Commercial License) --><path d="M496 235C485 219 454 200 454 200C463 184 466 167 463 150S454 119 443 106S418 86 401 82C396 81 390 80 384 80C373 80 363 82 352 87C349 62 339 42 320 25S281 0 256 0S210 8 191 25S163 62 160 87C149 82 139 80 128 80C122 80 116 81 110 82C94 86 80 94 69 106S51 134 49 150S50 184 59 200C41 207 27 219 16 235S0 269 0 288C0 315 9 337 28 356S69 384 96 384C141 384 190 384 240 384V496C240 505 247 512 256 512S272 505 272 496V384C321 384 370 384 416 384C443 384 465 375 484 356S512 315 512 288C512 269 507 251 496 235ZM461 333C449 346 434 352 416 352H272V327L331 267C338 261 338 251 331 245S315 238 309 245L272 281V144C272 135 265 128 256 128S240 135 240 144V226L205 182C199 175 189 174 182 180C175 185 174 195 180 202L240 278V352H96C78 352 63 346 51 333C38 321 32 306 32 288C32 275 35 263 43 253C50 242 59 235 71 230L105 216L87 184C81 174 79 165 80 155C82 144 86 136 93 128C100 120 108 116 118 113C121 112 125 112 128 112C134 112 140 113 147 116L187 134L192 90C194 74 201 60 213 49C226 37 239 32 256 32S286 37 299 49C311 60 318 74 320 90L325 134L365 116C372 113 378 112 384 112C387 112 391 112 394 113C404 116 412 120 419 128C426 136 430 144 432 155C433 165 431 175 426 185L411 212L437 227C449 235 465 247 469 253C477 263 480 275 480 288C480 306 474 321 461 333Z"/></svg>