<svg xmlns="http://www.w3.org/2000/svg" viewBox="0 0 576 512"><!-- Font Awesome Pro 6.0.0-alpha1 by @fontawesome - https://fontawesome.com License - https://fontawesome.com/license (Commercial License) --><path d="M335 240C326 242 320 250 322 259C332 313 341 394 333 470C332 476 328 480 324 480H265C262 480 260 478 259 477C256 473 255 468 256 464C266 422 280 340 279 256C279 247 271 241 263 240C254 240 247 247 247 256C248 337 234 417 225 457C222 471 225 486 234 497C242 506 253 512 265 512H324C345 512 362 495 365 473C373 394 363 310 353 253C352 245 344 238 335 240ZM410 58C378 58 347 65 320 79C293 32 233 0 166 0C81 0 13 44 1 108C-1 116 1 125 7 132C13 140 23 144 33 144H98C85 160 76 179 70 199C51 265 74 328 82 339C87 346 95 351 104 352C105 352 106 352 107 352C116 352 124 349 131 342L267 208H543C553 208 563 204 569 196C575 189 577 180 575 172C563 107 491 58 410 58ZM464 176V144C464 135 457 128 448 128S432 135 432 144V176H260C256 176 252 178 249 181L108 321C104 315 84 260 102 204C116 162 148 131 198 111C206 108 210 98 207 90C204 84 198 80 192 80C190 80 188 80 186 81C165 90 146 100 130 112C130 112 129 112 128 112L32 114C41 66 98 32 166 32C228 32 281 63 297 107C299 112 303 115 307 117C312 119 317 118 321 115C347 99 377 90 410 90C476 90 534 128 543 176H464Z"/></svg>