<svg xmlns="http://www.w3.org/2000/svg" viewBox="0 0 512 512"><!-- Font Awesome Pro 6.0.0-alpha1 by @fontawesome - https://fontawesome.com License - https://fontawesome.com/license (Commercial License) --><path d="M256 360C243 360 232 371 232 384C232 397 243 408 256 408C269 408 280 397 280 384C280 371 269 360 256 360ZM256 320C265 320 272 313 272 304V160C272 151 265 144 256 144S240 151 240 160V304C240 313 247 320 256 320ZM504 397L304 59C294 42 276 32 256 32H256C236 32 218 42 208 59L8 397C-2 414 -3 435 7 452C17 469 36 480 56 480H456C477 480 495 469 505 452C515 435 514 414 504 397ZM477 436C473 443 465 448 456 448H56C47 448 39 444 35 436C31 429 31 421 35 414L235 76C239 68 247 64 256 64C256 64 256 64 256 64C265 64 273 68 277 76L477 414V414C481 421 481 429 477 436Z"/></svg>