<svg xmlns="http://www.w3.org/2000/svg" viewBox="0 0 512 512"><!-- Font Awesome Pro 6.0.0-alpha1 by @fontawesome - https://fontawesome.com License - https://fontawesome.com/license (Commercial License) --><path d="M256 256C227 256 201 275 193 304C185 332 198 362 223 377C248 391 281 387 301 366C322 345 326 313 311 288L504 95C510 88 510 78 504 72V72C498 66 488 66 481 72L288 265C279 259 267 256 256 256ZM256 352C238 352 224 338 224 320C224 302 238 288 256 288C274 288 288 302 288 320C288 338 274 352 256 352ZM413 231L390 254L471 385C482 404 483 428 472 447C461 468 439 480 416 480H96C73 480 51 468 40 447C29 428 29 404 41 385L201 126C213 107 234 96 256 96S299 107 311 126L338 170L361 147L338 109C323 86 299 70 272 66V16C272 7 265 0 256 0H256C247 0 240 7 240 16V66C213 70 189 86 174 109L14 368C-4 397 -5 433 12 463C29 493 61 512 96 512H416C451 512 483 493 500 463C517 433 516 397 498 368L413 231Z"/></svg>