<svg xmlns="http://www.w3.org/2000/svg" viewBox="0 0 640 512"><!-- Font Awesome Pro 6.0.0-alpha1 by @fontawesome - https://fontawesome.com License - https://fontawesome.com/license (Commercial License) --><path d="M160 304C125 304 96 333 96 368C96 403 125 432 160 432S224 403 224 368C224 333 195 304 160 304ZM160 400C142 400 128 386 128 368S142 336 160 336S192 350 192 368S178 400 160 400ZM480 304C445 304 416 333 416 368C416 403 445 432 480 432S544 403 544 368C544 333 515 304 480 304ZM480 400C462 400 448 386 448 368S462 336 480 336S512 350 512 368S498 400 480 400ZM624 288H608V192C608 157 579 128 544 128H502L419 24C407 9 389 0 369 0H256C238 0 224 14 224 32V128H96C61 128 32 157 32 192V288H16C7 288 0 295 0 304C0 313 7 320 16 320H32C22 328 16 340 16 354V382C16 397 24 411 35 420C35 422 35 425 35 427C35 440 40 451 48 460L68 480C77 488 88 493 101 493C103 493 106 493 108 493C117 504 130 512 146 512H174C190 512 203 504 212 492C214 493 217 493 219 493C232 493 243 488 252 480L272 460C280 451 285 440 285 427C285 425 285 422 285 420C296 411 304 397 304 382V354C304 340 298 328 288 320H352C342 328 336 340 336 354V382C336 398 344 411 355 420C353 434 357 449 368 460L388 480C397 488 408 493 421 493C423 493 426 493 428 493C437 504 451 512 466 512H494C509 512 523 504 532 493C534 493 537 493 539 493C552 493 563 488 572 480L592 460C603 449 607 434 605 420C616 411 624 397 624 382V354C624 340 618 328 608 320H624C633 320 640 313 640 304C640 295 633 288 624 288ZM256 32H369C379 32 388 36 394 44L461 128H256V32ZM272 382C272 390 266 396 258 396H254C252 402 249 408 246 414L249 417C255 423 255 432 249 437L229 457C227 460 223 461 219 461S212 460 210 457L206 454C200 457 194 460 188 461V466C188 474 182 480 174 480H146C138 480 132 474 132 466V461C126 460 120 457 114 454L111 457C108 460 104 461 101 461S93 460 91 457L71 437C65 432 65 423 71 417L74 414C71 408 68 402 67 396H62C54 396 48 390 48 382V354C48 346 54 340 62 340H67C68 334 71 327 74 322L71 318C65 313 65 304 71 299L91 279C93 276 97 275 101 275S108 276 111 279L114 282C120 279 126 276 132 275V270C132 262 138 256 146 256H174C182 256 188 262 188 270V275C194 276 200 279 206 282L209 279C212 276 216 275 219 275S227 276 229 279L249 299C255 304 255 313 249 319L246 322C249 328 252 334 253 340H258C266 340 272 346 272 354V382ZM280 289C278 284 276 280 272 276L252 256C243 248 232 243 219 243C217 243 214 243 212 243C203 232 189 224 174 224H146C131 224 117 232 108 243C106 243 103 243 101 243C88 243 77 248 68 256L64 260V192C64 174 78 160 96 160H544C562 160 576 174 576 192V260L572 256C563 248 552 243 539 243C537 243 534 243 532 243C523 232 509 224 494 224H466C450 224 437 232 428 243C426 243 423 243 421 243C408 243 397 248 388 256L368 276C365 280 362 284 360 288L280 289ZM592 382C592 390 586 396 578 396H574C572 402 569 408 566 414L569 417C575 423 575 432 569 437L549 457C547 460 543 461 539 461S532 460 530 457L526 454C520 457 514 460 508 461V466C508 474 502 480 494 480H466C458 480 452 474 452 466V461C446 460 440 457 434 454L431 457C428 460 424 461 421 461S413 460 411 457L391 437C385 432 385 423 391 417L394 414C391 408 388 402 387 396H382C374 396 368 390 368 382V354C368 346 374 340 382 340H387C388 334 391 328 394 322L391 319C385 313 385 304 391 299L411 279C413 276 417 275 421 275S428 276 431 279L434 282C440 279 446 276 452 275V270C452 262 458 256 466 256H494C502 256 508 262 508 270V275C514 276 520 279 526 282L529 279C532 276 536 275 539 275S547 276 549 279L569 299C575 304 575 313 569 319L566 322C569 328 572 334 573 340H578C586 340 592 346 592 354V382Z"/></svg>