<svg xmlns="http://www.w3.org/2000/svg" viewBox="0 0 640 512"><!-- Font Awesome Pro 6.0.0-alpha1 by @fontawesome - https://fontawesome.com License - https://fontawesome.com/license (Commercial License) --><path d="M272 192C281 192 288 185 288 176C288 167 281 160 272 160H48C39 160 32 167 32 176C32 185 39 192 48 192H272ZM624 384H608V248C608 229 601 210 589 196L518 113C509 102 495 96 481 96H416V64C416 29 387 0 352 0H128C93 0 64 29 64 64V96H16C7 96 0 103 0 112C0 121 7 128 16 128H240C249 128 256 121 256 112C256 103 249 96 240 96H96V64C96 46 110 32 128 32H352C370 32 384 46 384 64V288C384 297 391 304 400 304S416 297 416 288V256H576V384H570C557 347 522 320 480 320S403 347 390 384H250C237 347 202 320 160 320C135 320 113 330 96 345V256H240C249 256 256 249 256 240C256 231 249 224 240 224H16C7 224 0 231 0 240C0 249 7 256 16 256H64V416C64 469 107 512 160 512S256 469 256 416H384C384 469 427 512 480 512S576 469 576 416H624C633 416 640 409 640 400S633 384 624 384ZM416 224V128H481C486 128 490 130 493 134L564 216C566 219 568 221 570 224H416ZM160 480C125 480 96 451 96 416S125 352 160 352S224 381 224 416S195 480 160 480ZM480 480C445 480 416 451 416 416S445 352 480 352S544 381 544 416S515 480 480 480Z"/></svg>