<svg xmlns="http://www.w3.org/2000/svg" viewBox="0 0 640 512"><!-- Font Awesome Pro 6.0.0-alpha1 by @fontawesome - https://fontawesome.com License - https://fontawesome.com/license (Commercial License) --><path d="M624 352H608V224C608 198 586 176 560 176H515L419 56C407 41 389 32 369 32H256C238 32 224 46 224 64V176H80C54 176 32 198 32 224V352H16C7 352 0 359 0 368V368C0 377 7 384 16 384H80C80 437 123 480 176 480S272 437 272 384H368C368 437 411 480 464 480S560 437 560 384H624C633 384 640 377 640 368V368C640 359 633 352 624 352ZM256 64H369C379 64 388 68 394 76L474 176H256V64ZM176 448C141 448 112 419 112 384S141 320 176 320S240 349 240 384S211 448 176 448ZM464 448C429 448 400 419 400 384S429 320 464 320S528 349 528 384S499 448 464 448ZM576 352H554C541 315 506 288 464 288S387 315 374 352H266C253 315 218 288 176 288S99 315 86 352H64V224C64 215 71 208 80 208H560C569 208 576 215 576 224V352Z"/></svg>