<svg xmlns="http://www.w3.org/2000/svg" viewBox="0 0 640 512"><!-- Font Awesome Pro 6.0.0-alpha1 by @fontawesome - https://fontawesome.com License - https://fontawesome.com/license (Commercial License) --><path d="M528 288C478 288 436 322 422 368H384V64C384 46 399 32 416 32H624C633 32 640 25 640 16C640 7 633 0 624 0H416C381 0 352 29 352 64V372L12 481C3 483 -2 492 1 501C3 508 10 512 16 512C18 512 20 512 21 511L371 400H416C416 462 467 513 530 512C589 511 640 461 640 402C641 339 591 288 528 288ZM528 480C484 480 448 444 448 400S484 320 528 320C573 320 608 356 608 400S573 480 528 480ZM31 364C36 383 54 400 77 400C81 400 86 399 90 398L275 348C288 345 298 337 304 326C311 315 313 302 309 290L268 135C261 110 233 95 209 101L24 151C-2 158 -17 184 -10 210L31 364L31 364ZM150 150L165 202L123 213L109 161L150 150ZM32 182L78 170L97 237C99 244 105 249 112 249C114 249 115 249 116 248L189 229C193 228 196 225 198 221S201 213 200 209L181 142L217 132C225 130 235 135 237 143L278 298C279 302 279 306 277 310C275 314 271 316 267 318L82 367C71 370 64 362 62 356L21 201C18 193 23 184 32 182Z"/></svg>