<svg xmlns="http://www.w3.org/2000/svg" viewBox="0 0 640 512"><!-- Font Awesome Pro 6.0.0-alpha1 by @fontawesome - https://fontawesome.com License - https://fontawesome.com/license (Commercial License) --><path d="M208 64C146 64 96 114 96 176S146 288 208 288S320 238 320 176S270 64 208 64ZM208 256C164 256 128 220 128 176C128 132 164 96 208 96S288 132 288 176C288 220 252 256 208 256ZM240 160H224V128C224 119 217 112 208 112S192 119 192 128V176C192 185 199 192 208 192H240C249 192 256 185 256 176S249 160 240 160ZM624 384H608V248C608 229 601 210 589 196L518 113C509 102 495 96 481 96H416V64C416 29 387 0 352 0H64C29 0 0 29 0 64V352C0 387 29 416 64 416C64 469 107 512 160 512S256 469 256 416H384C384 469 427 512 480 512S576 469 576 416H624C633 416 640 409 640 400S633 384 624 384ZM416 128H481C486 128 490 130 493 134L564 216C566 219 568 221 570 224H416V128ZM160 480C125 480 96 451 96 416S125 352 160 352S224 381 224 416S195 480 160 480ZM480 480C445 480 416 451 416 416S445 352 480 352S544 381 544 416S515 480 480 480ZM576 384H570C557 347 522 320 480 320S403 347 390 384H250C237 347 202 320 160 320S83 347 70 384H64C46 384 32 370 32 352V64C32 46 46 32 64 32H352C370 32 384 46 384 64V288C384 297 391 304 400 304S416 297 416 288V256H576V384Z"/></svg>