<svg xmlns="http://www.w3.org/2000/svg" viewBox="0 0 640 512"><!-- Font Awesome Pro 6.0.0-alpha1 by @fontawesome - https://fontawesome.com License - https://fontawesome.com/license (Commercial License) --><path d="M583 401C568 386 560 366 560 344V232C560 210 568 190 583 175L635 123C642 117 642 107 635 101S619 94 613 101L561 153C540 174 528 202 528 232V272H480V240C480 214 459 192 432 192H393L306 48C301 38 290 32 279 32H152C139 32 128 43 128 56V192H48C22 192 0 214 0 240V336C0 357 14 375 32 381C32 382 32 383 32 384C32 437 75 480 128 480C181 480 224 437 224 384H288C288 437 331 480 384 480S480 437 480 384V304H528V344C528 374 540 402 561 423L613 475C616 478 620 480 624 480S632 478 635 475C642 469 642 459 635 453L583 401ZM160 64H279L356 192H160V64ZM128 448C93 448 64 419 64 384S93 320 128 320C163 320 192 349 192 384S163 448 128 448ZM384 448C349 448 320 419 320 384S349 320 384 320C419 320 448 349 448 384S419 448 384 448ZM448 313C431 298 409 288 384 288C342 288 307 315 294 352H218C205 315 170 288 128 288C87 288 53 313 39 349C35 346 32 341 32 336V240C32 231 39 224 48 224H432C441 224 448 231 448 240V313Z"/></svg>