<svg xmlns="http://www.w3.org/2000/svg" viewBox="0 0 640 512"><!-- Font Awesome Pro 6.0.0-alpha1 by @fontawesome - https://fontawesome.com License - https://fontawesome.com/license (Commercial License) --><path d="M626 203L565 142C556 133 544 128 531 128H480V80C480 54 458 32 432 32H48C22 32 0 54 0 80V400C0 444 36 480 80 480C106 480 129 467 144 448C159 467 182 480 208 480C252 480 288 444 288 400C288 395 287 389 286 384H450C449 389 448 395 448 400C448 444 484 480 528 480C572 480 608 444 608 400C608 394 607 388 606 382C625 376 640 358 640 336V237C640 224 635 212 626 203ZM531 160C535 160 539 162 542 165L601 224H480V160H531ZM80 448C54 448 32 426 32 400S54 352 80 352S128 374 128 400S106 448 80 448ZM208 448C182 448 160 426 160 400S182 352 208 352S256 374 256 400S234 448 208 448ZM448 352H272C257 333 234 320 208 320C182 320 159 333 144 352C129 333 106 320 80 320C62 320 45 326 32 336V80C32 71 39 64 48 64H432C441 64 448 71 448 80V352ZM528 448C502 448 480 426 480 400S502 352 528 352S576 374 576 400S554 448 528 448ZM608 336C608 345 601 352 592 352V352C577 333 554 320 528 320C510 320 493 326 480 336V256H608V336Z"/></svg>