<svg xmlns="http://www.w3.org/2000/svg" viewBox="0 0 640 512"><!-- Font Awesome Pro 6.0.0-alpha1 by @fontawesome - https://fontawesome.com License - https://fontawesome.com/license (Commercial License) --><path d="M3 326L24 394C30 411 48 421 64 415H65L320 336V303L55 385L34 316C30 303 37 290 49 286C62 282 76 289 79 302L91 340L305 274L293 235C289 223 296 209 309 205C313 204 316 204 320 205V159L318 152C305 110 260 87 218 100H218L65 147C23 160 -1 205 12 247L19 268C2 284 -3 306 3 326ZM74 178L227 130C253 123 279 137 287 162L292 178C268 190 255 218 263 245L265 253L112 300L110 293C102 266 75 250 48 254L43 238C35 213 49 186 74 178ZM528 288C477 288 435 322 421 368H384V64C384 46 398 32 416 32H624C633 32 640 25 640 16C640 7 633 0 624 0H416C381 0 352 29 352 64V372L11 481C3 483 -2 492 1 501C3 508 9 512 16 512C18 512 19 512 21 511L370 400H416C416 462 467 513 530 512C589 511 639 461 640 402C641 339 590 288 528 288ZM528 480C484 480 448 444 448 400S484 320 528 320C572 320 608 356 608 400S572 480 528 480Z"/></svg>