<svg xmlns="http://www.w3.org/2000/svg" viewBox="0 0 640 512"><!-- Font Awesome Pro 6.0.0-alpha1 by @fontawesome - https://fontawesome.com License - https://fontawesome.com/license (Commercial License) --><path d="M528 288C477 288 435 322 421 368H384V64C384 46 398 32 416 32H624C633 32 640 25 640 16C640 7 633 0 624 0H416C381 0 352 29 352 64V372L11 481C3 483 -2 492 1 501C3 508 9 512 16 512C18 512 19 512 21 511L370 400H416C416 462 467 513 530 512C589 511 639 461 640 402C641 339 590 288 528 288ZM528 480C484 480 448 444 448 400S484 320 528 320C572 320 608 356 608 400S572 480 528 480Z"/></svg>