<svg xmlns="http://www.w3.org/2000/svg" viewBox="0 0 640 512"><!-- Font Awesome Pro 6.0.0-alpha1 by @fontawesome - https://fontawesome.com License - https://fontawesome.com/license (Commercial License) --><path d="M640 96C640 82 631 69 617 65L617 65C604 61 589 67 581 78C581 79 536 144 469 180C454 188 437 192 418 192H368V176C368 167 361 160 352 160S336 167 336 176V192H304V176C304 167 297 160 288 160S272 167 272 176V192H240V176C240 167 233 160 224 160S208 167 208 176V192H32C32 183 25 176 16 176H16C7 176 0 183 0 192V288C0 297 7 304 16 304H16C25 304 32 297 32 288H81C60 320 58 361 77 394C95 427 130 448 168 448H408C465 448 512 401 512 344C512 338 511 333 510 327C554 362 581 401 581 402C587 411 597 416 608 416C611 416 614 416 617 415C631 411 640 398 640 383L640 96ZM208 416H168C137 416 110 397 100 368C90 339 99 307 123 288H208V416ZM272 416H240V288H272V416ZM336 416H304V288H336V416ZM474 374C462 400 436 416 408 416H368V288H418C434 288 449 291 462 297C481 319 485 349 474 374ZM484 272C465 261 442 256 418 256H32V224H418C442 224 465 219 484 209C559 169 608 96 608 96L608 384C608 383 559 311 484 272Z"/></svg>