<svg xmlns="http://www.w3.org/2000/svg" viewBox="0 0 640 512"><!-- Font Awesome Pro 6.0.0-alpha1 by @fontawesome - https://fontawesome.com License - https://fontawesome.com/license (Commercial License) --><path d="M638 118C634 107 625 97 614 92L438 2C431 -2 422 0 418 6C401 29 362 44 320 44C278 44 239 29 222 7C218 0 209 -2 202 2L26 92C15 97 6 107 2 118C-2 130 -1 143 5 153L53 254C65 277 93 286 115 275L160 256L160 466C160 491 181 512 206 512H434C459 512 480 491 480 466L480 256L525 275C548 286 575 277 587 254L635 154C641 143 642 130 638 118ZM606 139L558 240C555 247 546 249 538 246L470 217C465 215 460 215 455 218C451 221 448 226 448 232L448 466C448 474 442 480 434 480H206C198 480 192 474 192 466L192 232C192 226 189 221 185 218C182 216 179 216 176 216C174 216 172 216 170 217L101 246C94 249 86 247 82 240L33 139C32 136 32 132 33 129C34 125 37 122 40 120L205 36C231 61 273 76 320 76C367 76 409 61 435 36L600 120C600 120 600 120 600 120C604 122 606 125 607 129C608 132 608 136 606 139Z"/></svg>