<svg xmlns="http://www.w3.org/2000/svg" viewBox="0 0 384 512"><!-- Font Awesome Pro 6.0.0-alpha1 by @fontawesome - https://fontawesome.com License - https://fontawesome.com/license (Commercial License) --><path d="M384 272C384 387 291 480 176 480H80C71 480 64 473 64 464V260L20 272C19 272 17 272 16 272C9 272 2 267 0 260C-2 251 4 243 12 240L64 228V164L20 176C19 176 17 176 16 176C9 176 2 171 0 164C-2 155 4 147 12 144L64 132V48C64 39 71 32 80 32S96 39 96 48V124L268 80C277 78 285 84 288 92C290 101 284 109 276 112L96 156V220L268 176C277 174 285 180 288 188C290 197 284 205 276 208L96 252V448H176C273 448 352 369 352 272C352 263 359 256 368 256S384 263 384 272Z"/></svg>