<svg xmlns="http://www.w3.org/2000/svg" viewBox="0 0 640 512"><!-- Font Awesome Pro 6.0.0-alpha1 by @fontawesome - https://fontawesome.com License - https://fontawesome.com/license (Commercial License) --><path d="M580 76C585 42 560 5 521 0C475 -5 438 39 450 84C453 95 450 105 443 111C431 121 428 124 414 133C376 110 333 96 288 96C130 96 0 269 0 384S130 512 289 512C447 512 576 499 576 384C576 331 549 266 504 212C508 208 506 209 514 202C525 193 538 200 542 202C550 206 558 209 567 209C603 214 636 187 640 150C643 114 619 80 580 76ZM544 384C544 455 477 480 289 480C100 480 32 455 32 384C32 285 150 128 289 128C320 128 350 136 378 150C354 158 339 159 319 160C262 162 212 200 197 252C185 296 196 342 226 375C250 401 284 416 320 416C398 416 433 352 442 314C450 285 463 258 482 235C520 284 544 340 544 384ZM558 174C481 132 420 274 411 308C401 347 372 376 337 382C304 388 272 378 250 353C227 328 219 294 228 261C232 247 252 194 327 192C375 190 501 151 481 76C477 63 482 48 493 40C516 21 552 39 548 71C547 76 546 81 543 86C539 92 540 99 544 105C548 110 555 112 562 110C567 108 572 107 577 107C596 109 610 127 608 146C605 172 578 185 558 174Z"/></svg>