<svg xmlns="http://www.w3.org/2000/svg" viewBox="0 0 576 512"><!-- Font Awesome Pro 6.0.0-alpha1 by @fontawesome - https://fontawesome.com License - https://fontawesome.com/license (Commercial License) --><path d="M288 288C279 288 272 295 272 304V448C272 466 258 480 240 480S208 466 208 448V432C208 423 201 416 192 416S176 423 176 432V448C176 483 205 512 240 512S304 483 304 448V304C304 295 297 288 288 288ZM576 281C546 138 425 56 304 49V16C304 7 297 0 288 0S272 7 272 16V49C177 55 36 114 0 281C-1 288 4 296 11 296C13 296 16 295 19 292C41 269 64 256 87 256C118 256 149 278 178 329C180 334 184 336 187 336C191 336 195 334 197 329C218 294 242 256 288 256C346 256 376 325 379 329C381 334 385 336 389 336C392 336 396 334 398 329C427 278 458 256 489 256H489C512 256 535 269 557 292C560 295 563 296 565 296C572 296 577 288 576 281ZM489 224C452 224 419 244 389 284C362 245 327 224 288 224C238 224 207 256 187 285C157 244 124 224 87 224C75 224 62 226 50 231C101 118 214 82 281 80C282 80 294 80 295 80C380 83 480 131 526 231C514 226 501 224 489 224Z"/></svg>