<svg xmlns="http://www.w3.org/2000/svg" viewBox="0 0 640 512"><!-- Font Awesome Pro 6.0.0-alpha1 by @fontawesome - https://fontawesome.com License - https://fontawesome.com/license (Commercial License) --><path d="M560 480H295L359 293C362 285 358 276 349 273C341 270 332 274 329 283L261 480H16C7 480 0 487 0 496S7 512 16 512H560C569 512 576 505 576 496S569 480 560 480ZM445 18C443 17 440 16 438 15C424 11 409 7 394 4C377 1 359 0 342 0C238 0 143 53 97 141C95 146 97 151 101 153L624 334C625 334 626 334 627 334C632 334 634 330 634 328C663 197 580 65 445 18ZM140 132C184 70 259 32 342 32C348 32 355 32 361 33C321 58 281 107 250 170L140 132ZM471 246L281 179C320 101 377 45 419 45C422 45 425 45 429 46C432 47 436 48 440 50C447 53 454 58 459 66C488 105 482 191 471 246ZM501 257C511 212 519 138 502 83C528 101 550 123 568 149C598 193 611 244 607 294L501 257Z"/></svg>