<svg xmlns="http://www.w3.org/2000/svg" viewBox="0 0 448 512"><!-- Font Awesome Pro 6.0.0-alpha1 by @fontawesome - https://fontawesome.com License - https://fontawesome.com/license (Commercial License) --><path d="M16 32H64V250C64 336 128 410 213 416C306 422 384 348 384 256V32H432C441 32 448 25 448 16S441 0 432 0H304C295 0 288 7 288 16S295 32 304 32H352V252C352 320 300 379 232 384C158 388 96 330 96 256V32H144C153 32 160 25 160 16S153 0 144 0H16C7 0 0 7 0 16S7 32 16 32ZM432 480H16C7 480 0 487 0 496S7 512 16 512H432C441 512 448 505 448 496S441 480 432 480Z"/></svg>