<svg xmlns="http://www.w3.org/2000/svg" viewBox="0 0 640 512"><!-- Font Awesome Pro 6.0.0-alpha1 by @fontawesome - https://fontawesome.com License - https://fontawesome.com/license (Commercial License) --><path d="M632 64H535L535 64C541 54 544 42 543 30C543 13 528 0 511 0H400C331 0 275 55 272 124V128H160C125 128 94 148 77 176C34 178 0 213 0 256V304C0 313 7 320 16 320S32 313 32 304V256C32 235 46 217 65 211C65 212 65 213 65 215C64 218 64 220 64 224C64 256 73 275 89 293L67 367C63 378 63 389 66 400L84 475C89 497 108 512 131 512H155C186 512 209 483 201 452L185 387L204 333L256 344V464C256 490 278 512 304 512H336C362 512 384 490 384 464V324C405 302 416 274 416 244V194L430 216C450 244 481 236 486 234L511 226C531 219 544 201 544 180V115L636 79C643 74 640 64 632 64ZM512 180C512 187 508 193 501 195L476 204C466 207 460 201 457 198L432 160L384 144V244C384 271 371 294 352 310V464C352 473 345 480 336 480H304C295 480 288 473 288 464V319L184 295L151 385L170 460C173 470 165 480 155 480H131C123 480 117 475 115 468L97 392C96 387 96 381 97 376L125 283C107 270 96 256 96 224C96 189 125 160 160 160H304V128C304 75 347 32 400 32H511C511 45 503 57 492 62L512 86V180ZM448 80C439 80 432 87 432 96S439 112 448 112S464 105 464 96S457 80 448 80Z"/></svg>