<svg xmlns="http://www.w3.org/2000/svg" viewBox="0 0 448 512"><!-- Font Awesome Pro 6.0.0-alpha1 by @fontawesome - https://fontawesome.com License - https://fontawesome.com/license (Commercial License) --><path d="M240 336V400C240 409 233 416 224 416S208 409 208 400V336C208 327 215 320 224 320S240 327 240 336ZM448 288V448C448 483 419 512 384 512H64C29 512 0 483 0 448V288C0 253 29 224 64 224H96V128C96 51 164 -10 243 1C307 10 352 68 352 133V144C352 153 345 160 336 160H336C327 160 320 153 320 144V128C320 71 270 25 211 33C163 39 128 83 128 131L128 224H384C419 224 448 253 448 288ZM416 288C416 270 402 256 384 256H64C46 256 32 270 32 288V448C32 466 46 480 64 480H384C402 480 416 466 416 448V288Z"/></svg>