<svg xmlns="http://www.w3.org/2000/svg" viewBox="0 0 512 512"><!-- Font Awesome Pro 6.0.0-alpha1 by @fontawesome - https://fontawesome.com License - https://fontawesome.com/license (Commercial License) --><path d="M272 143L335 143C344 143 352 140 358 134C361 131 363 127 365 123C370 111 367 98 358 89L279 9C266 -3 246 -3 233 9L154 89C145 98 142 111 147 123C152 135 164 143 177 143L240 143V240H143L143 177C143 168 140 160 134 154C131 151 127 149 123 147C111 142 98 145 89 154L9 233C-3 246 -3 266 9 279L89 358C98 367 111 370 123 365S143 348 143 335L143 272H240V369L177 369C168 369 160 372 154 378C151 381 149 385 147 389C142 401 145 414 154 423L233 503C246 515 266 515 279 503L358 423C367 414 370 401 365 389S348 369 335 369L272 369V272H369L369 335C369 344 372 352 378 358C381 361 385 363 389 365C401 370 414 367 423 358L503 279C515 266 515 246 503 233L423 154C414 145 401 142 389 147S369 164 369 177L369 240H272V143ZM111 335C111 335 111 335 111 335L32 256L111 177L111 335ZM335 401C335 401 335 401 335 401L256 480L177 401L335 401ZM401 177C401 177 401 177 401 177L480 256L401 335L401 177ZM177 111C177 111 177 111 177 111L256 32L335 111L177 111Z"/></svg>