<svg xmlns="http://www.w3.org/2000/svg" viewBox="0 0 320 512"><!-- Font Awesome Pro 6.0.0-alpha1 by @fontawesome - https://fontawesome.com License - https://fontawesome.com/license (Commercial License) --><path d="M184 512H136C114 512 96 494 96 472L96 192H56C40 192 26 182 19 168C13 153 16 136 27 124L131 12C138 4 149 0 160 0C171 0 182 4 189 12L293 124C304 136 307 153 301 168C294 182 280 192 264 192H224L224 472C224 494 206 512 184 512ZM160 31C159 31 156 32 154 34L50 146C45 151 49 160 56 160H128L128 472C128 476 132 480 136 480H184C188 480 192 476 192 472L192 160H264C271 160 275 151 270 146L166 34C164 32 161 31 160 31Z"/></svg>