<svg xmlns="http://www.w3.org/2000/svg" viewBox="0 0 384 512"><!-- Font Awesome Pro 6.0.0-alpha1 by @fontawesome - https://fontawesome.com License - https://fontawesome.com/license (Commercial License) --><path d="M219 123C212 116 202 112 192 112S172 116 165 124L42 257C32 267 29 283 35 297C41 311 55 320 70 320H128V435C128 460 148 480 173 480H211C236 480 256 460 256 435V320H314C329 320 343 311 349 297C355 283 352 267 342 257L219 123ZM320 285C319 287 317 288 314 288H224V435C224 442 218 448 211 448H173C166 448 160 442 160 435V288H70C67 288 65 287 64 285C64 283 64 280 66 278L188 145C190 144 194 144 196 145L318 279C320 280 320 283 320 285ZM16 64H368C377 64 384 57 384 48S377 32 368 32H16C7 32 0 39 0 48S7 64 16 64Z"/></svg>