<svg xmlns="http://www.w3.org/2000/svg" viewBox="0 0 512 512"><!-- Font Awesome Pro 6.0.0-alpha1 by @fontawesome - https://fontawesome.com License - https://fontawesome.com/license (Commercial License) --><path d="M123 160L240 56V372C240 381 247 388 256 388S272 381 272 372V56L389 160C392 163 396 164 400 164C404 164 409 162 412 159C418 152 417 142 411 136L267 8C261 3 251 3 245 8L101 136C95 142 94 152 100 159S116 166 123 160ZM448 324H336C327 324 320 331 320 340C320 349 327 356 336 356H448C466 356 480 370 480 388V452C480 470 466 484 448 484H64C46 484 32 470 32 452V388C32 370 46 356 64 356H176C185 356 192 349 192 340C192 331 185 324 176 324H64C29 324 0 353 0 388V452C0 487 29 516 64 516H448C483 516 512 487 512 452V388C512 353 483 324 448 324ZM440 420C440 407 429 396 416 396S392 407 392 420S403 444 416 444S440 433 440 420Z"/></svg>