<svg xmlns="http://www.w3.org/2000/svg" viewBox="0 0 640 512"><!-- Font Awesome Pro 6.0.0-alpha1 by @fontawesome - https://fontawesome.com License - https://fontawesome.com/license (Commercial License) --><path d="M320 32C382 32 432 82 432 144C432 179 416 210 391 230L416 250C445 224 464 186 464 144C464 64 400 0 320 0C266 0 219 31 194 75L220 95C238 58 276 32 320 32ZM96 480C96 409 153 352 224 352H338L298 320H224C136 320 64 392 64 480C64 498 78 512 96 512H541L500 480H96ZM634 483L26 3C19 -2 9 -1 3 6C-2 13 -1 23 6 29L614 509C617 511 621 512 624 512C629 512 633 510 637 506C642 499 641 489 634 483Z"/></svg>