<svg xmlns="http://www.w3.org/2000/svg" viewBox="0 0 448 512"><!-- Font Awesome Pro 6.0.0-alpha1 by @fontawesome - https://fontawesome.com License - https://fontawesome.com/license (Commercial License) --><path d="M275 304H173C78 304 0 382 0 477C0 496 16 512 35 512H413C432 512 448 496 448 477C448 382 370 304 275 304ZM64 480H35C33 480 32 479 32 477C32 444 44 413 64 389V480ZM96 480V359C109 351 123 345 138 341L227 480H96ZM288 480H265L224 416H288C306 416 320 430 320 448S306 480 288 480ZM413 480H343C349 471 352 460 352 448C352 413 323 384 288 384H204L173 336C173 336 173 336 173 336H275C353 336 416 399 416 477C416 479 415 480 413 480ZM224 256C295 256 352 199 352 128S295 0 224 0C153 0 96 57 96 128S153 256 224 256ZM307 80H238L277 48C289 56 299 67 307 80ZM224 32C231 32 237 33 244 34L186 80H141C158 51 189 32 224 32ZM130 112H318C319 117 320 123 320 128C320 181 277 224 224 224S128 181 128 128C128 123 129 117 130 112Z"/></svg>