<svg xmlns="http://www.w3.org/2000/svg" viewBox="0 0 640 512"><!-- Font Awesome Pro 6.0.0-alpha1 by @fontawesome - https://fontawesome.com License - https://fontawesome.com/license (Commercial License) --><path d="M88 112C119 112 144 87 144 56S119 0 88 0S32 25 32 56S57 112 88 112ZM88 32C101 32 112 43 112 56S101 80 88 80S64 69 64 56S75 32 88 32ZM16 368C7 368 0 375 0 384V496C0 505 7 512 16 512S32 505 32 496V384C32 375 25 368 16 368ZM288 336C297 336 304 329 304 320C304 311 297 304 288 304S272 311 272 320C272 329 279 336 288 336ZM608 0H512C494 0 480 14 480 32V59C480 62 481 66 482 69L528 208L192 256H180C174 256 168 253 165 247L124 164C113 142 90 128 65 128C29 128 0 157 0 193V285C0 303 9 319 24 327L120 381C125 384 128 389 128 395V496C128 505 135 512 144 512S160 505 160 496V395C160 377 151 361 136 353L40 299C35 296 32 291 32 285V193C32 175 47 160 65 160C78 160 90 167 95 178L137 261C145 278 161 288 180 288H192V496C192 505 199 512 208 512S224 505 224 496V416H608V496C608 505 615 512 624 512S640 505 640 496V32C640 14 626 0 608 0ZM608 384H224V284L608 229V384ZM608 197L560 203L512 59V32H608V197Z"/></svg>