<svg xmlns="http://www.w3.org/2000/svg" viewBox="0 0 640 512"><!-- Font Awesome Pro 6.0.0-alpha1 by @fontawesome - https://fontawesome.com License - https://fontawesome.com/license (Commercial License) --><path d="M626 234L598 206C588 197 576 192 564 192S539 197 530 206L354 382C345 390 339 402 337 414L320 498C319 505 325 512 332 512C333 512 334 512 334 512L418 495C430 493 442 486 450 478L626 302C645 283 645 253 626 234ZM428 455C423 459 418 462 411 464L358 474L368 421C370 414 373 409 377 404L491 290L542 341L428 455ZM603 279L565 318L514 267L553 229C557 225 561 224 564 224S571 225 575 229L603 257C607 261 608 266 608 268C608 271 607 275 603 279ZM224 256C295 256 352 199 352 128S295 0 224 0C153 0 96 57 96 128S153 256 224 256ZM224 32C277 32 320 75 320 128C320 181 277 224 224 224S128 181 128 128C128 75 171 32 224 32ZM273 480H35C33 480 32 479 32 477C32 399 95 336 173 336H275C294 336 312 340 329 347C335 350 342 348 347 343C355 336 353 322 343 318C322 309 299 304 275 304H173C78 304 0 382 0 478C0 497 16 512 35 512H273C281 512 288 505 288 497V495C288 487 281 480 273 480Z"/></svg>