<svg xmlns="http://www.w3.org/2000/svg" viewBox="0 0 640 512"><!-- Font Awesome Pro 6.0.0-alpha1 by @fontawesome - https://fontawesome.com License - https://fontawesome.com/license (Commercial License) --><path d="M320 144C360 144 392 176 392 216C392 221 391 225 390 230L417 251C421 240 424 228 424 216C424 159 377 112 320 112C299 112 279 118 263 129L290 151C299 146 309 144 320 144ZM512 160C556 160 592 124 592 80S556 0 512 0C468 0 432 36 432 80S468 160 512 160ZM512 32C538 32 560 54 560 80S538 128 512 128S464 106 464 80S486 32 512 32ZM169 55L207 86C208 84 208 82 208 80C208 36 172 0 128 0C120 0 112 2 104 4L143 35C154 38 163 45 169 55ZM26 3C19 -2 9 -1 3 6C-2 13 -1 23 6 29L614 509C617 511 621 512 624 512C629 512 633 510 637 506C642 499 641 489 634 483L26 3ZM561 192H496C485 192 474 194 464 199C456 203 452 213 456 221S469 232 477 228C483 225 490 224 496 224H561C587 224 608 247 608 275V288C608 297 615 304 624 304S640 297 640 288V275C640 229 605 192 561 192ZM136 192H79C35 192 0 229 0 275V288C0 297 7 304 16 304S32 297 32 288V275C32 247 53 224 79 224H176L136 192ZM160 480C163 427 211 384 270 384H370C373 384 377 385 380 385L338 352H270C192 352 128 412 128 485C128 500 141 512 156 512H484C498 512 510 502 511 489L500 480H160Z"/></svg>