<svg xmlns="http://www.w3.org/2000/svg" viewBox="0 0 448 512"><!-- Font Awesome Pro 6.0.0-alpha1 by @fontawesome - https://fontawesome.com License - https://fontawesome.com/license (Commercial License) --><path d="M288 128H160C125 128 96 157 96 192V208C96 270 146 320 208 320H240C302 320 352 270 352 208V192C352 157 323 128 288 128ZM320 208C320 252 284 288 240 288H208C164 288 128 252 128 208V192C128 174 142 160 160 160H288C306 160 320 174 320 192V208ZM304 400H144C118 400 96 422 96 448V496C96 505 103 512 112 512H112C121 512 128 505 128 496V448C128 439 135 432 144 432H304C313 432 320 439 320 448V496C320 505 327 512 336 512H336C345 512 352 505 352 496V448C352 422 330 400 304 400ZM272 448C263 448 256 455 256 464S263 480 272 480S288 473 288 464S281 448 272 448ZM176 448C167 448 160 455 160 464V496C160 505 167 512 176 512H176C185 512 192 505 192 496V464C192 455 185 448 176 448ZM359 328C379 308 395 283 405 256H416C425 256 432 249 432 240V144C432 135 425 128 416 128H405C378 54 308 0 224 0S70 54 43 128H32C23 128 16 135 16 144V240C16 249 23 256 32 256H43C53 283 69 308 89 328C37 347 0 396 0 454V496C0 505 7 512 16 512H16C25 512 32 505 32 496V454C32 403 70 360 120 353C150 373 186 384 224 384S298 373 328 353C378 360 416 403 416 454V496C416 505 423 512 432 512L432 512C441 512 448 505 448 496V454C448 396 411 347 359 328ZM224 352C136 352 64 280 64 192S136 32 224 32S384 104 384 192S312 352 224 352Z"/></svg>