<svg xmlns="http://www.w3.org/2000/svg" viewBox="0 0 640 512"><!-- Font Awesome Pro 6.0.0-alpha1 by @fontawesome - https://fontawesome.com License - https://fontawesome.com/license (Commercial License) --><path d="M224 256C295 256 352 199 352 128S295 0 224 0C153 0 96 57 96 128S153 256 224 256ZM224 32C277 32 320 75 320 128C320 181 277 224 224 224S128 181 128 128C128 75 171 32 224 32ZM394 486C391 482 387 480 382 480H35C33 480 32 479 32 477C32 399 95 336 173 336H275C284 336 293 337 302 339C313 341 322 333 321 322C321 322 321 322 321 322C321 315 315 309 308 307C297 305 286 304 275 304H173C78 304 0 382 0 478C0 497 16 512 35 512H382C395 512 402 497 395 487L394 486ZM622 271L507 226C504 225 500 224 496 224S489 225 485 226L370 271C359 275 352 285 352 296C352 408 421 485 485 510C488 511 492 512 496 512S503 511 507 510C558 490 640 421 640 296C640 285 633 275 622 271ZM480 472C432 445 385 384 384 300L480 262V472ZM497 480C497 480 496 480 496 480H497C497 480 497 480 497 480ZM512 473V262L608 300C606 395 551 450 512 473Z"/></svg>