<svg xmlns="http://www.w3.org/2000/svg" viewBox="0 0 640 512"><!-- Font Awesome Pro 6.0.0-alpha1 by @fontawesome - https://fontawesome.com License - https://fontawesome.com/license (Commercial License) --><path d="M592 0H432C406 0 384 22 384 48V176C384 202 406 224 432 224H448V280C448 285 452 288 456 288C458 288 459 288 461 286L544 224H592C618 224 640 202 640 176V48C640 22 618 0 592 0ZM608 176C608 185 601 192 592 192H533L525 198L480 232V192H432C423 192 416 185 416 176V48C416 39 423 32 432 32H592C601 32 608 39 608 48V176ZM275 304H173C78 304 0 382 0 477C0 496 16 512 35 512H413C432 512 448 496 448 477C448 382 370 304 275 304ZM160 400C169 400 176 407 176 416S169 432 160 432S144 425 144 416S151 400 160 400ZM413 480H35C33 480 32 479 32 477C32 409 80 353 144 339V371C125 378 112 395 112 416C112 442 134 464 160 464S208 442 208 416C208 395 195 378 176 371V336H275C279 336 284 337 288 337V371C269 378 256 395 256 416V448C256 457 263 464 272 464S288 457 288 448V416C288 407 295 400 304 400S320 407 320 416V448C320 457 327 464 336 464S352 457 352 448V416C352 395 339 378 320 371V344C376 363 416 415 416 477C416 479 415 480 413 480ZM224 256C295 256 352 199 352 128S295 0 224 0C153 0 96 57 96 128S153 256 224 256ZM224 32C277 32 320 75 320 128C320 181 277 224 224 224S128 181 128 128C128 75 171 32 224 32Z"/></svg>