<svg xmlns="http://www.w3.org/2000/svg" viewBox="0 0 448 512"><!-- Font Awesome Pro 6.0.0-alpha1 by @fontawesome - https://fontawesome.com License - https://fontawesome.com/license (Commercial License) --><path d="M207 378C212 382 218 384 224 384C230 384 236 382 241 378C283 346 384 260 384 174C384 66 312 0 224 0C136 0 64 66 64 174C64 260 165 346 207 378ZM224 32C301 32 352 89 352 174C352 245 257 326 224 351C191 325 96 245 96 174C96 89 147 32 224 32ZM192 224C199 224 205 220 207 213C210 205 205 196 197 193L149 177C141 174 132 179 129 187S131 204 139 207L187 223C189 224 190 224 192 224ZM256 224C258 224 259 224 261 223L309 207C317 204 322 195 319 187S307 174 299 177L251 193C243 196 238 205 241 213C243 220 249 224 256 224ZM320 352C311 352 304 359 304 368S311 384 320 384C373 384 416 427 416 480H32C32 427 75 384 128 384C137 384 144 377 144 368S137 352 128 352C57 352 0 409 0 480C0 498 14 512 32 512H416C434 512 448 498 448 480C448 409 391 352 320 352Z"/></svg>