<svg xmlns="http://www.w3.org/2000/svg" viewBox="0 0 448 512"><!-- Font Awesome Pro 6.0.0-alpha1 by @fontawesome - https://fontawesome.com License - https://fontawesome.com/license (Commercial License) --><path d="M79 102V146C119 165 169 176 224 176S329 165 369 146V102L391 80C396 75 399 69 399 63C399 51 391 41 380 39L232 1C229 0 227 0 224 0C221 0 219 0 216 1L68 39C57 41 49 51 49 63C49 69 52 75 57 80L79 102ZM224 32L360 66L347 80L337 89V125C303 137 265 144 224 144C183 144 145 137 111 125V89L101 80L88 67L224 32ZM169 94L217 118C219 119 222 120 224 120S229 119 231 118L279 94C287 90 290 81 286 73C282 65 273 62 265 66L224 86L183 66C175 62 166 65 162 73C158 81 161 90 169 94ZM320 352L268 421L250 384H256C265 384 272 377 272 368C272 359 265 352 256 352H192C183 352 176 359 176 368C176 377 183 384 192 384H198L180 421L128 352C57 352 0 409 0 480C0 498 14 512 32 512H416C434 512 448 498 448 480C448 409 391 352 320 352ZM32 480C32 432 67 392 113 385L184 480H32ZM224 480L201 450L224 404L247 450L224 480ZM264 480L335 385C381 392 416 432 416 480H264ZM320 206C313 252 273 288 224 288C175 288 135 252 128 206C127 198 120 192 112 192H112C102 192 95 201 96 210C105 272 159 320 224 320S343 272 352 210C353 201 346 192 336 192C328 192 321 198 320 206Z"/></svg>