<svg xmlns="http://www.w3.org/2000/svg" viewBox="0 0 640 512"><!-- Font Awesome Pro 6.0.0-alpha1 by @fontawesome - https://fontawesome.com License - https://fontawesome.com/license (Commercial License) --><path d="M320 32C373 32 416 75 416 128C416 164 396 195 367 211L394 233C426 209 448 171 448 128C448 57 391 0 320 0C266 0 220 33 201 81L228 102C240 62 276 32 320 32ZM131 480C129 480 128 479 128 477C128 399 191 336 269 336H318L277 304H269C174 304 96 382 96 477C96 496 112 512 131 512H509C518 512 525 509 531 504L500 480H131ZM634 483L26 3C19 -2 9 -1 3 6C-2 13 -1 23 6 29L614 509C617 511 621 512 624 512C629 512 633 510 637 506C642 499 641 489 634 483Z"/></svg>