<svg xmlns="http://www.w3.org/2000/svg" viewBox="0 0 512 512"><!-- Font Awesome Pro 6.0.0-alpha1 by @fontawesome - https://fontawesome.com License - https://fontawesome.com/license (Commercial License) --><path d="M256 288C336 288 400 224 400 144S336 0 256 0C176 0 112 64 112 144S176 288 256 288ZM256 32C318 32 368 82 368 144C368 206 318 256 256 256S144 206 144 144C144 82 194 32 256 32ZM352 320H160C72 320 0 392 0 480C0 498 14 512 32 512H480C498 512 512 498 512 480C512 392 440 320 352 320ZM32 480C32 409 89 352 160 352H352C423 352 480 409 480 480H32Z"/></svg>