<svg xmlns="http://www.w3.org/2000/svg" viewBox="0 0 640 512"><!-- Font Awesome Pro 6.0.0-alpha1 by @fontawesome - https://fontawesome.com License - https://fontawesome.com/license (Commercial License) --><path d="M272 480H35C33 480 32 479 32 477C32 399 95 336 173 336H275C291 336 307 339 322 344C327 346 332 345 336 342C336 342 336 342 336 342C347 335 345 319 333 314C315 308 295 304 275 304H173C78 304 0 382 0 478C0 497 16 512 35 512H272C281 512 288 505 288 496V496C288 487 281 480 272 480ZM224 256C295 256 352 199 352 128S295 0 224 0C153 0 96 57 96 128S153 256 224 256ZM224 32C277 32 320 75 320 128C320 181 277 224 224 224S128 181 128 128C128 75 171 32 224 32ZM622 138C610 129 595 126 580 129L516 145C495 151 480 170 480 192V373C463 360 441 352 416 352C363 352 320 388 320 432C320 476 363 512 416 512S512 476 512 432V292L604 269C625 263 640 244 640 222V176C640 161 633 147 622 138ZM416 480C381 480 352 458 352 432C352 406 381 384 416 384S480 406 480 432C480 458 451 480 416 480ZM608 222C608 229 603 236 596 238L512 259V192C512 185 517 178 524 177L588 161C589 160 591 160 592 160C596 160 599 161 602 163C606 166 608 171 608 176V222Z"/></svg>