<svg xmlns="http://www.w3.org/2000/svg" viewBox="0 0 640 512"><!-- Font Awesome Pro 6.0.0-alpha1 by @fontawesome - https://fontawesome.com License - https://fontawesome.com/license (Commercial License) --><path d="M576 288H448V208C448 182 470 160 496 160S544 182 544 208C544 217 551 224 560 224S576 217 576 208C576 164 540 128 496 128S416 164 416 208V288C381 288 352 317 352 352V448C352 483 381 512 416 512H576C611 512 640 483 640 448V352C640 317 611 288 576 288ZM608 448C608 466 594 480 576 480H416C398 480 384 466 384 448V352C384 334 398 320 416 320H576C594 320 608 334 608 352V448ZM496 376C483 376 472 387 472 400C472 413 483 424 496 424S520 413 520 400C520 387 509 376 496 376ZM173 336H275C284 336 293 337 302 339C313 341 322 333 321 322C321 322 321 322 321 322C321 315 315 309 308 307C297 305 286 304 275 304H173C78 304 0 382 0 478C0 497 16 512 35 512H304C313 512 320 505 320 496C320 487 313 480 304 480H35C33 480 32 479 32 477C32 399 95 336 173 336ZM224 256C295 256 352 199 352 128S295 0 224 0C153 0 96 57 96 128S153 256 224 256ZM224 32C277 32 320 75 320 128C320 181 277 224 224 224S128 181 128 128C128 75 171 32 224 32Z"/></svg>