<svg xmlns="http://www.w3.org/2000/svg" viewBox="0 0 512 512"><!-- Font Awesome Pro 6.0.0-alpha1 by @fontawesome - https://fontawesome.com License - https://fontawesome.com/license (Commercial License) --><path d="M139 309C133 302 123 302 117 309S110 325 117 331L181 395C184 398 188 400 192 400S200 398 203 395C210 389 210 379 203 373L139 309ZM235 213C229 206 219 206 213 213S206 229 213 235L277 299C280 302 284 304 288 304S296 302 299 299C306 293 306 283 299 277L235 213ZM155 229C149 222 139 222 133 229S126 245 133 251L261 379C264 382 268 384 272 384S280 382 283 379C290 373 290 363 283 357L155 229ZM256 16C123 16 16 123 16 256S123 496 256 496S496 389 496 256S389 16 256 16ZM256 464C141 464 48 371 48 256S141 48 256 48S464 141 464 256S371 464 256 464ZM381 131C347 98 302 79 256 80C210 81 166 99 133 133C126 139 126 149 133 155S149 162 155 155C183 128 219 112 256 112C295 112 330 126 358 154C386 182 400 218 400 256C400 293 384 329 357 357C350 363 350 373 357 379C360 382 364 384 368 384S376 382 379 379C413 346 431 302 432 256C433 209 414 165 381 131Z"/></svg>