<svg xmlns="http://www.w3.org/2000/svg" viewBox="0 0 640 512"><!-- Font Awesome Pro 6.0.0-alpha1 by @fontawesome - https://fontawesome.com License - https://fontawesome.com/license (Commercial License) --><path d="M629 203L502 49C493 38 479 32 465 32H48C22 32 0 54 0 80V336C0 362 22 384 48 384H64C64 437 107 480 160 480S256 437 256 384H384C384 437 427 480 480 480S576 437 576 384H592C618 384 640 362 640 336V234C640 223 636 212 629 203ZM465 64C470 64 474 66 477 70L578 192H384V64H465ZM352 64V192H192V64H352ZM32 80C32 71 39 64 48 64H160V192H32V80ZM160 448C125 448 96 419 96 384S125 320 160 320C195 320 224 349 224 384S195 448 160 448ZM480 448C445 448 416 419 416 384S445 320 480 320C515 320 544 349 544 384S515 448 480 448ZM608 336C608 345 601 352 592 352H570C557 315 522 288 480 288S403 315 390 352H250C237 315 202 288 160 288S83 315 70 352H48C39 352 32 345 32 336V224H604C607 227 608 230 608 234V336Z"/></svg>