<svg xmlns="http://www.w3.org/2000/svg" viewBox="0 0 448 512"><!-- Font Awesome Pro 6.0.0-alpha1 by @fontawesome - https://fontawesome.com License - https://fontawesome.com/license (Commercial License) --><path d="M416 160C434 160 448 146 448 128V64C448 46 434 32 416 32H352C334 32 320 46 320 64V80H128V64C128 46 114 32 96 32H32C14 32 0 46 0 64V128C0 146 14 160 32 160H48V352H32C14 352 0 366 0 384V448C0 466 14 480 32 480H96C114 480 128 466 128 448V432H320V448C320 466 334 480 352 480H416C434 480 448 466 448 448V384C448 366 434 352 416 352H400V160H416ZM352 64H416V128H352V64ZM32 128V64H96V128H32ZM96 448H32V384H96V448ZM416 384V448H352V384H416ZM368 352H352C334 352 320 366 320 384V400H128V384C128 366 114 352 96 352H80V160H96C114 160 128 146 128 128V112H320V128C320 146 334 160 352 160H368V352Z"/></svg>