<svg xmlns="http://www.w3.org/2000/svg" viewBox="0 0 640 512"><!-- Font Awesome Pro 6.0.0-alpha1 by @fontawesome - https://fontawesome.com License - https://fontawesome.com/license (Commercial License) --><path d="M256 400H192V351C282 343 352 268 352 176C352 79 273 0 176 0S0 79 0 176C0 268 70 343 160 351V400H96C87 400 80 407 80 416S87 432 96 432H160V496C160 505 167 512 176 512S192 505 192 496V432H256C265 432 272 425 272 416S265 400 256 400ZM176 320C97 320 32 255 32 176S97 32 176 32S320 97 320 176S255 320 176 320ZM639 10C637 6 634 3 630 1C628 0 626 0 624 0H496C487 0 480 7 480 16S487 32 496 32H585L513 105C482 79 443 64 400 64C394 64 388 64 382 65C374 66 367 74 368 82C369 91 377 97 386 97C390 96 395 96 400 96C479 96 544 161 544 240S479 384 400 384C369 384 339 374 314 355C307 350 297 351 291 358C286 365 287 375 294 381C325 404 362 416 400 416C497 416 576 337 576 240C576 197 561 158 535 127L608 55V144C608 153 615 160 624 160S640 153 640 144V16C640 14 640 12 639 10Z"/></svg>