<svg xmlns="http://www.w3.org/2000/svg" viewBox="0 0 384 512"><!-- Font Awesome Pro 6.0.0-alpha1 by @fontawesome - https://fontawesome.com License - https://fontawesome.com/license (Commercial License) --><path d="M368 176C368 79 289 0 192 0C95 0 16 79 16 176C16 268 86 343 176 351V400H112C103 400 96 407 96 416S103 432 112 432H176V496C176 505 183 512 192 512S208 505 208 496V432H272C281 432 288 425 288 416S281 400 272 400H208V351C298 343 368 268 368 176ZM48 176C48 97 113 32 192 32S336 97 336 176S271 320 192 320S48 255 48 176Z"/></svg>