<svg xmlns="http://www.w3.org/2000/svg" viewBox="0 0 512 512"><!-- Font Awesome Pro 6.0.0-alpha1 by @fontawesome - https://fontawesome.com License - https://fontawesome.com/license (Commercial License) --><path d="M413 199L356 256H155L312 99C319 93 319 82 312 76H312C306 70 296 70 290 76L33 333C-6 371 -12 435 24 476C44 500 73 512 102 512H102C128 512 155 502 175 482L435 222C442 216 442 205 435 199C429 193 419 193 413 199ZM152 459C139 473 121 480 102 480C81 480 61 471 48 455C24 427 27 384 56 355L123 288H324L152 459ZM507 181L331 5C328 2 324 0 320 0S312 2 309 5C302 11 302 21 309 27L485 203C488 206 492 208 496 208S504 206 507 203C514 197 514 187 507 181Z"/></svg>