<svg xmlns="http://www.w3.org/2000/svg" viewBox="0 0 512 512"><!-- Font Awesome Pro 6.0.0-alpha1 by @fontawesome - https://fontawesome.com License - https://fontawesome.com/license (Commercial License) --><path d="M176 96C167 96 160 103 160 112V256H64V112C64 103 57 96 48 96S32 103 32 112V400C32 444 68 480 112 480S192 444 192 400V112C192 103 185 96 176 96ZM160 400C160 426 138 448 112 448S64 426 64 400V288H160V400ZM464 96C455 96 448 103 448 112V256H352V112C352 103 345 96 336 96S320 103 320 112V400C320 444 356 480 400 480S480 444 480 400V112C480 103 473 96 464 96ZM448 400C448 426 426 448 400 448S352 426 352 400V288H448V400ZM208 32H16C7 32 0 39 0 48S7 64 16 64H208C217 64 224 57 224 48S217 32 208 32ZM496 32H304C295 32 288 39 288 48S295 64 304 64H496C505 64 512 57 512 48S505 32 496 32Z"/></svg>