<svg xmlns="http://www.w3.org/2000/svg" viewBox="0 0 512 512"><!-- Font Awesome Pro 6.0.0-alpha1 by @fontawesome - https://fontawesome.com License - https://fontawesome.com/license (Commercial License) --><path d="M341 117L293 165C286 171 286 181 293 187C296 190 300 192 304 192S312 190 315 187L363 139C370 133 370 123 363 117S347 110 341 117ZM112 96C121 96 128 89 128 80C128 62 142 48 160 48C170 48 179 52 185 60C188 64 193 66 199 66C204 65 209 62 212 57C219 42 236 32 256 32S293 42 300 57C303 62 308 65 313 66C318 66 324 64 327 60C333 52 342 48 352 48C370 48 384 62 384 80C384 89 391 96 400 96S416 89 416 80C416 45 387 16 352 16C340 16 328 20 318 26C303 10 280 0 256 0S209 10 194 26C184 20 172 16 160 16C125 16 96 45 96 80C96 89 103 96 112 96ZM149 117C142 123 142 133 149 139L197 187C200 190 204 192 208 192S216 190 219 187C226 181 226 171 219 165L171 117C165 110 155 110 149 117ZM503 447L324 237C317 229 307 224 296 224H216C205 224 195 229 188 237L9 447C-12 473 5 512 38 512H474C507 512 524 473 503 447ZM212 258C213 257 215 256 216 256H296C297 256 299 257 300 258L364 333L346 352C339 358 331 361 322 361C313 360 304 356 299 349L281 329C260 303 221 298 194 319L179 330C174 334 167 336 160 336H146L212 258ZM479 476C477 480 475 480 474 480H38C37 480 35 480 33 476C32 475 31 471 34 468L119 368H160C174 368 187 363 198 355L213 344C227 334 246 336 257 349L274 370C286 384 302 392 320 393C321 393 322 393 323 393C340 393 356 386 368 374L385 358L478 468C481 471 480 475 479 476ZM240 96V176C240 185 247 192 256 192S272 185 272 176V96C272 87 265 80 256 80S240 87 240 96Z"/></svg>