<svg xmlns="http://www.w3.org/2000/svg" viewBox="0 0 512 512"><!-- Font Awesome Pro 6.0.0-alpha1 by @fontawesome - https://fontawesome.com License - https://fontawesome.com/license (Commercial License) --><path d="M256 16C123 16 16 123 16 256C16 389 123 496 256 496S496 389 496 256C496 123 389 16 256 16ZM256 48C262 48 268 48 274 49C371 138 365 241 360 275C317 269 286 255 272 247C272 218 263 133 191 58C212 52 233 48 256 48ZM48 256C48 176 93 107 160 72C179 90 194 109 206 128C171 143 91 186 51 290C49 279 48 268 48 256ZM68 343C97 215 189 169 220 157C237 197 240 231 240 246C215 261 146 311 117 411C97 392 79 369 68 343ZM256 464C215 464 177 452 145 431C151 405 160 383 171 363C196 383 256 421 342 421C356 421 372 419 388 417C352 446 306 464 256 464ZM426 376C301 414 215 358 188 336C214 302 243 282 256 274C274 285 323 308 389 308C411 308 435 305 460 299C454 327 442 353 426 376ZM392 276C397 239 399 148 330 62C408 92 464 167 464 256C464 259 464 262 464 265C438 272 414 276 392 276Z"/></svg>