<svg xmlns="http://www.w3.org/2000/svg" viewBox="0 0 640 512"><!-- Font Awesome Pro 6.0.0-alpha1 by @fontawesome - https://fontawesome.com License - https://fontawesome.com/license (Commercial License) --><path d="M301 35C297 33 292 32 288 32C280 32 273 35 267 40L132 160H48C22 160 0 182 0 208V304C0 330 22 352 48 352H132L267 472C273 477 280 480 288 480C292 480 297 479 301 477C313 472 320 461 320 448V64C320 51 313 40 301 35ZM288 448L153 328L144 320H48C39 320 32 313 32 304V208C32 199 39 192 48 192H144L153 184L288 64C288 64 288 64 288 64L288 448ZM521 35C514 30 504 32 499 39C494 46 496 56 503 61C569 105 608 178 608 256S569 407 503 451C496 456 494 466 499 473C502 478 507 480 512 480C515 480 518 479 521 477C595 427 640 345 640 256S595 85 521 35ZM459 99C452 94 442 96 437 103S434 120 442 125C486 155 512 204 512 256S486 357 442 387C434 392 432 402 437 409C440 414 445 416 450 416C454 416 457 415 459 413C512 378 544 319 544 256S512 134 459 99ZM406 179C399 174 389 176 384 183S381 200 389 205C406 217 416 236 416 256S406 295 389 307C381 312 379 322 384 329C387 334 392 336 398 336C401 336 404 335 406 333C432 316 448 287 448 256S432 196 406 179Z"/></svg>