<svg xmlns="http://www.w3.org/2000/svg" viewBox="0 0 640 512"><!-- Font Awesome Pro 6.0.0-alpha1 by @fontawesome - https://fontawesome.com License - https://fontawesome.com/license (Commercial License) --><path d="M464 160C420 160 384 196 384 240C384 284 420 320 464 320S544 284 544 240S508 160 464 160ZM464 288C438 288 416 266 416 240S438 192 464 192S512 214 512 240S490 288 464 288ZM576 64H64C29 64 0 93 0 128V384C0 419 29 448 64 448H214C239 448 262 433 272 410L289 374C295 360 307 352 320 352S345 360 351 374L368 410C378 433 401 448 426 448H576C611 448 640 419 640 384V128C640 93 611 64 576 64ZM608 384C608 402 594 416 576 416H426C414 416 402 409 397 397L380 360C369 336 346 320 320 320S271 336 259 360L243 397C238 409 226 416 214 416H64C46 416 32 402 32 384V128C32 110 46 96 64 96H576C594 96 608 110 608 128V384ZM176 160C132 160 96 196 96 240C96 284 132 320 176 320S256 284 256 240S220 160 176 160ZM176 288C150 288 128 266 128 240S150 192 176 192S224 214 224 240S202 288 176 288Z"/></svg>