<svg xmlns="http://www.w3.org/2000/svg" viewBox="0 0 640 512"><!-- Font Awesome Pro 6.0.0-alpha1 by @fontawesome - https://fontawesome.com License - https://fontawesome.com/license (Commercial License) --><path d="M630 28C618 10 598 0 578 0C561 0 426 32 410 32C398 22 383 16 368 16H272C256 16 242 22 230 32C214 32 79 0 62 0C42 0 22 10 11 27C-1 45 -3 67 5 86L96 256V272C96 281 103 288 112 288S128 281 128 272V256H512V272C512 281 519 288 528 288S544 281 544 272V256H544L635 86C643 67 641 45 630 28ZM208 80V224H115L34 72C30 62 32 51 39 43C46 35 56 31 67 32L211 62C209 68 208 74 208 80ZM400 224H240V80C240 74 243 67 245 64C250 54 260 48 272 48H368C380 48 390 54 395 64C397 67 400 74 400 80V224ZM606 73L525 224H432V80C432 74 431 68 429 62L572 32C575 32 590 30 601 43C608 51 610 63 606 73ZM464 288C402 288 352 338 352 400S402 512 464 512S576 462 576 400S526 288 464 288ZM448 478C417 472 392 447 386 416H448V478ZM448 384H386C392 353 417 328 448 322V384ZM480 478V416H542C536 447 511 472 480 478ZM480 384V322C511 328 536 353 542 384H480ZM176 288C114 288 64 338 64 400S114 512 176 512S288 462 288 400S238 288 176 288ZM160 478C129 472 104 447 98 416H160V478ZM160 384H98C104 353 129 328 160 322V384ZM192 478V416H254C248 447 223 472 192 478ZM192 384V322C223 328 248 353 254 384H192Z"/></svg>