<svg xmlns="http://www.w3.org/2000/svg" viewBox="0 0 384 512"><!-- Font Awesome Pro 6.0.0-alpha1 by @fontawesome - https://fontawesome.com License - https://fontawesome.com/license (Commercial License) --><path d="M320 96H96V16C96 7 89 0 80 0S64 7 64 16V96C29 96 0 125 0 160V294C0 310 7 327 19 339L32 352V448C32 483 61 512 96 512H288C323 512 352 483 352 448V352L365 339C377 327 384 310 384 294V160C384 125 355 96 320 96ZM352 294C352 302 349 310 343 316L329 329L320 339V448C320 466 306 480 288 480H96C78 480 64 466 64 448V339L41 316C35 310 32 302 32 294V160C32 142 46 128 64 128H320C338 128 352 142 352 160V294ZM176 80H208C217 80 224 73 224 64S217 48 208 48H176C167 48 160 55 160 64S167 80 176 80ZM272 176H112C103 176 96 183 96 192S103 208 112 208H272C281 208 288 201 288 192S281 176 272 176ZM272 240H112C103 240 96 247 96 256S103 272 112 272H272C281 272 288 265 288 256S281 240 272 240ZM272 304H112C103 304 96 311 96 320S103 336 112 336H272C281 336 288 329 288 320S281 304 272 304ZM272 80H304C313 80 320 73 320 64S313 48 304 48H272C263 48 256 55 256 64S263 80 272 80Z"/></svg>