<svg xmlns="http://www.w3.org/2000/svg" viewBox="0 0 512 512"><!-- Font Awesome Pro 6.0.0-alpha1 by @fontawesome - https://fontawesome.com License - https://fontawesome.com/license (Commercial License) --><path d="M448 96H112C103 96 96 103 96 112S103 128 112 128H448C466 128 480 142 480 160V416C480 434 466 448 448 448H96C61 448 32 419 32 384V128C32 93 61 64 96 64H464C473 64 480 57 480 48C480 39 473 32 464 32H96C43 32 0 75 0 128V384C0 437 43 480 96 480H448C483 480 512 451 512 416V160C512 125 483 96 448 96ZM408 288C408 275 397 264 384 264S360 275 360 288S371 312 384 312S408 301 408 288Z"/></svg>