<svg xmlns="http://www.w3.org/2000/svg" viewBox="0 0 512 512"><!-- Font Awesome Pro 6.0.0-alpha1 by @fontawesome - https://fontawesome.com License - https://fontawesome.com/license (Commercial License) --><path d="M498 48L464 14C455 5 442 0 430 0S406 5 396 14L14 396C-5 415 -5 445 14 464L48 498C57 507 70 512 82 512S107 507 116 498L498 116C517 97 517 67 498 48ZM93 475C89 479 84 480 82 480S75 479 71 475L37 441C33 437 32 433 32 430S33 423 37 419L280 175L337 232L93 475ZM475 93L360 209L303 152L419 37C423 33 428 32 430 32C433 32 437 33 441 37L475 71C482 77 482 87 475 93Z"/></svg>