<svg xmlns="http://www.w3.org/2000/svg" viewBox="0 0 512 512"><!-- Font Awesome Pro 6.0.0-alpha1 by @fontawesome - https://fontawesome.com License - https://fontawesome.com/license (Commercial License) --><path d="M400 192C409 192 416 185 416 176V148L504 52C504 52 504 52 504 52C515 40 515 21 503 9C491 -2 472 -3 460 8L187 256H144C135 256 128 263 128 272V309L11 415C4 421 0 429 0 438C0 447 3 455 9 461L51 503C57 509 65 512 73 512C83 512 91 508 97 501L376 192H400ZM357 165L73 480L32 439L155 328C158 325 160 320 160 316V288H193C197 288 201 286 204 284L475 36L388 131C385 134 384 138 384 142V160H369C365 160 360 162 357 165ZM16 160H64V208C64 217 71 224 80 224S96 217 96 208V160H144C153 160 160 153 160 144S153 128 144 128H96V80C96 71 89 64 80 64S64 71 64 80V128H16C7 128 0 135 0 144S7 160 16 160ZM192 80H224V112C224 121 231 128 240 128S256 121 256 112V80H288C297 80 304 73 304 64S297 48 288 48H256V16C256 7 249 0 240 0S224 7 224 16V48H192C183 48 176 55 176 64S183 80 192 80ZM496 352H448V304C448 295 441 288 432 288S416 295 416 304V352H368C359 352 352 359 352 368S359 384 368 384H416V432C416 441 423 448 432 448S448 441 448 432V384H496C505 384 512 377 512 368S505 352 496 352Z"/></svg>