<svg xmlns="http://www.w3.org/2000/svg" viewBox="0 0 640 512"><!-- Font Awesome Pro 6.0.0-alpha1 by @fontawesome - https://fontawesome.com License - https://fontawesome.com/license (Commercial License) --><path d="M611 118L339 4C327 -1 313 -1 301 4L29 118C12 126 0 143 0 162V496C0 505 7 512 16 512C25 512 32 505 32 496V162C32 156 36 150 42 148L314 33C318 31 322 31 326 33L598 148C604 150 608 156 608 162V496C608 505 615 512 624 512C633 512 640 505 640 496V162C640 143 628 126 611 118ZM512 352H352V256C352 238 338 224 320 224H128C110 224 96 238 96 256V480C96 498 110 512 128 512H512C530 512 544 498 544 480V384C544 366 530 352 512 352ZM320 480H128V384H320V480ZM320 352H128V256H320V352ZM512 480H352V384H512V480Z"/></svg>