<svg xmlns="http://www.w3.org/2000/svg" viewBox="0 0 448 512"><!-- Font Awesome Pro 6.0.0-alpha1 by @fontawesome - https://fontawesome.com License - https://fontawesome.com/license (Commercial License) --><path d="M352 0H96C43 0 0 43 0 96V448C0 483 29 512 64 512H384C419 512 448 483 448 448V96C448 43 405 0 352 0ZM416 448C416 466 402 480 384 480H64C46 480 32 466 32 448V96C32 61 61 32 96 32H352C387 32 416 61 416 96V448ZM192 120C205 120 216 109 216 96S205 72 192 72C179 72 168 83 168 96S179 120 192 120ZM120 96C120 83 109 72 96 72C83 72 72 83 72 96S83 120 96 120C109 120 120 109 120 96ZM224 160C144 160 80 225 80 304S144 448 224 448S368 383 368 304S304 160 224 160ZM224 416C167 416 120 373 113 318C136 326 161 323 181 309C194 318 209 322 224 322C239 322 254 318 267 309C279 317 294 322 309 322C318 322 326 320 335 318C328 373 281 416 224 416ZM309 290C298 290 287 285 278 277C274 272 267 271 261 273C258 274 256 276 255 278C238 294 209 294 193 277C190 274 186 272 181 272C177 273 173 274 170 277C155 292 132 294 114 282C124 231 170 192 224 192C279 192 324 231 334 283C327 287 318 290 309 290Z"/></svg>