<svg xmlns="http://www.w3.org/2000/svg" viewBox="0 0 384 512"><!-- Font Awesome Pro 6.0.0-alpha1 by @fontawesome - https://fontawesome.com License - https://fontawesome.com/license (Commercial License) --><path d="M320 80V64C320 29 291 0 256 0H128C93 0 64 29 64 64V80C29 80 0 109 0 144V368C0 403 29 432 64 432V448C64 483 93 512 128 512H256C291 512 320 483 320 448V432C355 432 384 403 384 368V144C384 109 355 80 320 80ZM96 64C96 46 110 32 128 32H256C274 32 288 46 288 64V80H96V64ZM288 448C288 466 274 480 256 480H128C110 480 96 466 96 448V432H288V448ZM352 368C352 386 338 400 320 400H64C46 400 32 386 32 368V144C32 126 46 112 64 112H320C338 112 352 126 352 144V368ZM216 256C216 243 205 232 192 232S168 243 168 256C168 269 179 280 192 280S216 269 216 256ZM144 256C144 243 133 232 120 232S96 243 96 256C96 269 107 280 120 280S144 269 144 256ZM264 232C251 232 240 243 240 256C240 269 251 280 264 280S288 269 288 256C288 243 277 232 264 232ZM232 208C245 208 256 197 256 184C256 171 245 160 232 160S208 171 208 184C208 197 219 208 232 208ZM152 208C165 208 176 197 176 184C176 171 165 160 152 160S128 171 128 184C128 197 139 208 152 208ZM232 304C219 304 208 315 208 328C208 341 219 352 232 352S256 341 256 328C256 315 245 304 232 304ZM152 304C139 304 128 315 128 328C128 341 139 352 152 352S176 341 176 328C176 315 165 304 152 304Z"/></svg>