<svg xmlns="http://www.w3.org/2000/svg" viewBox="0 0 384 512"><!-- Font Awesome Pro 6.0.0-alpha1 by @fontawesome - https://fontawesome.com License - https://fontawesome.com/license (Commercial License) --><path d="M320 80V64C320 29 291 0 256 0H128C93 0 64 29 64 64V80C29 80 0 109 0 144V368C0 403 29 432 64 432V448C64 483 93 512 128 512H256C291 512 320 483 320 448V432C355 432 384 403 384 368V144C384 109 355 80 320 80ZM96 64C96 46 110 32 128 32H256C274 32 288 46 288 64V80H96V64ZM288 448C288 466 274 480 256 480H128C110 480 96 466 96 448V432H288V448ZM352 368C352 386 338 400 320 400H64C46 400 32 386 32 368V208H352V368ZM352 176H32V144C32 126 46 112 64 112H320C338 112 352 126 352 144V176ZM96 368H112C121 368 128 361 128 352V336C128 327 121 320 112 320H96C87 320 80 327 80 336V352C80 361 87 368 96 368ZM184 368H200C209 368 216 361 216 352V336C216 327 209 320 200 320H184C175 320 168 327 168 336V352C168 361 175 368 184 368ZM272 368H288C297 368 304 361 304 352V336C304 327 297 320 288 320H272C263 320 256 327 256 336V352C256 361 263 368 272 368ZM96 288H112C121 288 128 281 128 272V256C128 247 121 240 112 240H96C87 240 80 247 80 256V272C80 281 87 288 96 288ZM184 288H200C209 288 216 281 216 272V256C216 247 209 240 200 240H184C175 240 168 247 168 256V272C168 281 175 288 184 288ZM272 288H288C297 288 304 281 304 272V256C304 247 297 240 288 240H272C263 240 256 247 256 256V272C256 281 263 288 272 288Z"/></svg>