<svg xmlns="http://www.w3.org/2000/svg" viewBox="0 0 576 512"><!-- Font Awesome Pro 6.0.0-alpha1 by @fontawesome - https://fontawesome.com License - https://fontawesome.com/license (Commercial License) --><path d="M562 479C534 475 509 461 493 439C487 430 473 430 467 439C449 465 418 480 384 480C350 480 319 465 301 439C295 430 281 430 275 439C257 465 226 480 192 480C158 480 127 465 109 439C106 434 101 432 96 432S86 434 83 439C67 461 42 475 14 479C5 480 -1 488 0 497C1 506 9 512 18 511C48 507 76 493 96 473C121 498 155 512 192 512C229 512 263 498 288 473C313 498 347 512 384 512C421 512 455 498 480 473C500 493 528 507 558 511C567 512 575 506 576 497C577 488 571 480 562 479ZM18 383C48 379 76 365 96 345C121 370 155 384 192 384C229 384 263 370 288 345C313 370 347 384 384 384C421 384 455 370 480 345C500 365 528 379 558 383C567 384 575 378 576 369C577 360 571 352 562 351C534 347 509 333 493 311C487 302 473 302 467 311C449 337 418 352 384 352C350 352 319 337 301 311C295 302 281 302 275 311C257 337 226 352 192 352C158 352 127 337 109 311C106 306 101 304 96 304S86 306 83 311C67 333 42 347 14 351C5 352 -1 360 0 369C1 378 9 384 18 383ZM299 5C296 2 292 0 288 0S280 2 277 5L181 101C174 107 174 117 181 123S197 130 203 123L272 55V224C272 233 279 240 288 240S304 233 304 224V55L373 123C379 130 389 130 395 123S402 107 395 101L299 5Z"/></svg>