<svg xmlns="http://www.w3.org/2000/svg" viewBox="0 0 640 512"><!-- Font Awesome Pro 6.0.0-alpha1 by @fontawesome - https://fontawesome.com License - https://fontawesome.com/license (Commercial License) --><path d="M618 242C608 235 599 241 595 246L477 408C471 417 457 417 451 408L214 83C206 71 191 64 176 64C161 64 146 71 138 83L19 246C14 253 15 263 22 269C32 276 41 270 45 266L163 103C169 95 183 95 189 103L426 428C435 441 449 448 464 448C479 448 493 441 502 428L621 266C626 258 625 248 618 242Z"/></svg>