<svg xmlns="http://www.w3.org/2000/svg" viewBox="0 0 640 512"><!-- Font Awesome Pro 6.0.0-alpha1 by @fontawesome - https://fontawesome.com License - https://fontawesome.com/license (Commercial License) --><path d="M640 256C640 265 633 272 624 272H512C503 272 496 279 496 288V416C496 442 474 464 448 464H352C326 464 304 442 304 416V96C304 87 297 80 288 80H192C183 80 176 87 176 96V224C176 250 154 272 128 272H16C7 272 0 265 0 256S7 240 16 240H128C137 240 144 233 144 224V96C144 70 166 48 192 48H288C314 48 336 70 336 96V416C336 425 343 432 352 432H448C457 432 464 425 464 416V288C464 262 486 240 512 240H624C633 240 640 247 640 256Z"/></svg>