<svg xmlns="http://www.w3.org/2000/svg" viewBox="0 0 640 512"><!-- Font Awesome Pro 6.0.0-alpha1 by @fontawesome - https://fontawesome.com License - https://fontawesome.com/license (Commercial License) --><path d="M384 512C384 512 384 512 384 512C376 512 369 506 368 498L320 137L272 498C271 506 264 512 256 512C256 512 256 512 256 512C248 512 242 506 240 499L193 203L160 434C159 442 152 448 144 448C137 448 130 443 128 435L92 254L79 293C77 300 71 304 64 304C64 304 64 304 64 304L16 304C7 304 0 297 0 288C0 279 7 272 16 272C16 272 16 272 16 272L52 272L81 187C83 180 89 175 97 176C104 176 110 182 112 189L141 337L176 94C177 86 184 80 192 80C200 81 207 86 208 93L255 386L304 14C305 6 312 0 320 0S335 6 336 14L385 386L432 93C433 86 442 81 448 80C456 80 463 86 464 94L499 337L528 189C530 182 536 176 543 176C550 175 557 180 559 187L588 272L624 272C624 272 624 272 624 272C633 272 640 279 640 288C640 297 633 304 624 304L576 304C576 304 576 304 576 304C569 304 563 300 561 293L548 254L512 435C510 443 503 448 496 448C488 448 481 442 480 434L447 203L400 499C398 506 392 512 384 512Z"/></svg>