<svg xmlns="http://www.w3.org/2000/svg" viewBox="0 0 640 512"><!-- Font Awesome Pro 6.0.0-alpha1 by @fontawesome - https://fontawesome.com License - https://fontawesome.com/license (Commercial License) --><path d="M398 236C437 248 472 270 501 299C504 302 508 304 512 304C516 304 520 302 523 299C529 293 530 283 523 277C475 228 412 199 344 193L398 236ZM320 64C432 64 538 109 612 187C616 190 620 192 624 192C628 192 632 191 635 188C641 182 642 171 636 165C556 80 441 32 320 32C269 32 219 41 172 58L202 81C240 70 279 64 320 64ZM4 165C-2 171 -1 182 5 188C11 194 22 193 28 187C42 171 59 158 76 145L50 124C34 137 18 150 4 165ZM117 277C110 283 110 293 117 299C123 306 133 305 139 299C160 278 183 262 209 250L181 228C157 241 136 257 117 277ZM345 357C337 354 329 352 320 352C285 352 256 381 256 416S285 480 320 480S384 451 384 416C384 402 379 389 371 378L345 357ZM320 448C302 448 288 434 288 416S302 384 320 384S352 398 352 416S338 448 320 448ZM26 3C19 -2 9 -1 3 6C-2 13 -1 23 6 29L614 509C617 511 621 512 624 512C629 512 633 510 637 506C642 499 641 489 634 483L26 3Z"/></svg>