<svg xmlns="http://www.w3.org/2000/svg" viewBox="0 0 640 512"><!-- Font Awesome Pro 6.0.0-alpha1 by @fontawesome - https://fontawesome.com License - https://fontawesome.com/license (Commercial License) --><path d="M636 165C556 80 441 32 320 32S84 80 4 165C-2 171 -1 182 5 188C11 194 22 193 28 187C102 109 208 64 320 64S538 109 612 187C616 190 620 192 624 192C628 192 632 191 635 188C641 182 642 171 636 165ZM320 192C242 192 170 222 117 277C110 283 110 293 117 299C123 306 133 305 139 299C187 251 251 224 320 224S453 251 501 299C504 302 508 304 512 304C516 304 520 302 523 299C529 293 530 283 523 277C470 222 398 192 320 192ZM320 352C285 352 256 381 256 416S285 480 320 480S384 451 384 416S355 352 320 352ZM320 448C302 448 288 434 288 416S302 384 320 384S352 398 352 416S338 448 320 448Z"/></svg>