<svg xmlns="http://www.w3.org/2000/svg" viewBox="0 0 640 512"><!-- Font Awesome Pro 6.0.0-alpha1 by @fontawesome - https://fontawesome.com License - https://fontawesome.com/license (Commercial License) --><path d="M320 192C242 192 170 222 117 277C110 283 111 293 117 299C123 306 133 305 139 299C187 251 251 224 320 224S453 251 501 299C504 302 508 304 512 304C516 304 520 302 523 299C530 293 530 283 523 277C470 222 398 192 320 192ZM320 352C285 352 256 381 256 416S285 480 320 480S384 451 384 416S355 352 320 352ZM320 448C302 448 288 434 288 416S302 384 320 384S352 398 352 416S338 448 320 448Z"/></svg>