<svg xmlns="http://www.w3.org/2000/svg" viewBox="0 0 512 512"><!-- Font Awesome Pro 6.0.0-alpha1 by @fontawesome - https://fontawesome.com License - https://fontawesome.com/license (Commercial License) --><path d="M320 128H64C29 128 0 157 0 192V448C0 483 29 512 64 512H320C355 512 384 483 384 448V192C384 157 355 128 320 128ZM352 448C352 466 338 480 320 480H64C46 480 32 466 32 448V288H352V448ZM352 256H32V192C32 174 46 160 64 160H320C338 160 352 174 352 192V256ZM448 0H192C157 0 128 29 128 64V96H160V64C160 46 174 32 192 32H448C466 32 480 46 480 64V320C480 338 466 352 448 352H416V384H448C483 384 512 355 512 320V64C512 29 483 0 448 0Z"/></svg>