<svg xmlns="http://www.w3.org/2000/svg" viewBox="0 0 512 512"><!-- Font Awesome Pro 6.0.0-alpha1 by @fontawesome - https://fontawesome.com License - https://fontawesome.com/license (Commercial License) --><path d="M448 32H64C29 32 0 61 0 96V416C0 451 29 480 64 480H448C483 480 512 451 512 416V96C512 61 483 32 448 32ZM480 416C480 434 466 448 448 448H64C46 448 32 434 32 416V96C32 78 46 64 64 64H448C466 64 480 78 480 96V416ZM224 104C211 104 200 115 200 128C200 141 211 152 224 152S248 141 248 128C248 115 237 104 224 104ZM320 104C307 104 296 115 296 128C296 141 307 152 320 152S344 141 344 128C344 115 333 104 320 104ZM416 104C403 104 392 115 392 128C392 141 403 152 416 152S440 141 440 128C440 115 429 104 416 104Z"/></svg>