<svg xmlns="http://www.w3.org/2000/svg" viewBox="0 0 320 512"><!-- Font Awesome Pro 6.0.0-alpha1 by @fontawesome - https://fontawesome.com License - https://fontawesome.com/license (Commercial License) --><path d="M240 480H176V350C253 341 311 273 303 193L289 29C287 13 274 0 257 0H63C46 0 33 13 31 29L17 193C9 273 67 341 144 350V480H80C71 480 64 487 64 496C64 505 71 512 80 512H240C249 512 256 505 256 496C256 487 249 480 240 480ZM257 32L265 128H54L63 32H257ZM154 319C124 318 96 304 76 281C55 257 46 227 48 196L52 160H268L272 196C274 227 265 257 244 281C224 304 196 318 166 319C159 320 161 320 154 319Z"/></svg>