<svg xmlns="http://www.w3.org/2000/svg" viewBox="0 0 512 512"><!-- Font Awesome Pro 6.0.0-alpha1 by @fontawesome - https://fontawesome.com License - https://fontawesome.com/license (Commercial License) --><path d="M496 256H441L495 52C498 44 493 35 484 33C476 30 467 35 465 44L407 256H329L271 44C268 30 244 30 241 44L183 256H105L47 44C45 35 36 30 28 33C19 35 14 44 17 52L71 256H16C7 256 0 263 0 272S7 288 16 288H80L129 468C132 482 156 482 159 468L208 288H304L353 468C354 475 361 480 368 480S382 475 383 468L432 288H496C505 288 512 281 512 272S505 256 496 256ZM144 402L113 288H175L144 402ZM217 256L256 110L295 256H217ZM368 402L337 288H399L368 402Z"/></svg>