<svg xmlns="http://www.w3.org/2000/svg" viewBox="0 0 512 512"><!-- Font Awesome Pro 6.0.0-alpha1 by @fontawesome - https://fontawesome.com License - https://fontawesome.com/license (Commercial License) --><path d="M485 114C483 105 476 98 466 95C457 92 447 95 440 102L376 166L331 158L324 114L388 50C395 43 398 33 395 24C392 14 385 7 375 5C323 -8 270 7 232 44C194 82 180 137 193 189L0 382C-30 412 -30 460 0 490C14 504 33 512 54 512C74 512 93 504 107 490L301 297C353 310 407 296 445 258C483 220 498 166 485 114ZM423 235C391 267 344 278 301 263L292 260L85 467C68 484 39 484 23 467C6 450 6 422 23 405L230 198L227 189C212 145 223 98 255 67C277 44 307 32 338 32C345 32 352 33 359 34L290 103L304 186L387 200L456 131C463 169 451 207 423 235ZM58 416C49 416 42 423 42 432S49 448 58 448S74 441 74 432S67 416 58 416Z"/></svg>