<svg xmlns="http://www.w3.org/2000/svg" viewBox="0 0 512 512"><!-- Font Awesome Pro 6.0.0-alpha1 by @fontawesome - https://fontawesome.com License - https://fontawesome.com/license (Commercial License) --><path d="M496 448H480V64H496C505 64 512 57 512 48S505 32 496 32H16C7 32 0 39 0 48S7 64 16 64H32V448H16C7 448 0 455 0 464S7 480 16 480H496C505 480 512 473 512 464S505 448 496 448ZM448 448H64V64H448V448ZM112 224H240V256H144C135 256 128 263 128 272S135 288 144 288H240V320H171C145 320 130 348 144 370L165 402C171 411 181 416 192 416H320C331 416 341 411 347 402L368 370C382 348 367 320 341 320H272V288H368C377 288 384 281 384 272S377 256 368 256H272V224H400C409 224 416 217 416 208S409 192 400 192H272V160H368C377 160 384 153 384 144S377 128 368 128H272V112C272 103 265 96 256 96C247 96 240 103 240 112V128H144C135 128 128 135 128 144S135 160 144 160H240V192H112C103 192 96 199 96 208S103 224 112 224ZM341 352L320 384L192 384L171 352H341Z"/></svg>