<svg xmlns="http://www.w3.org/2000/svg" viewBox="0 0 320 512"><!-- Font Awesome Pro 6.0.0-alpha1 by @fontawesome - https://fontawesome.com License - https://fontawesome.com/license (Commercial License) --><defs><style>.fa-secondary{opacity:.4}</style></defs><path d="M320 336C320 415 255 480 176 480H115C64 480 19 448 2 399C-6 374 8 347 33 338C58 330 85 344 94 369C97 378 105 384 115 384H176C202 384 224 362 224 336S202 288 176 288H96C77 288 59 276 52 258C44 240 48 220 62 206L140 128H48C22 128 0 106 0 80S22 32 48 32H256C275 32 293 44 300 62C308 80 304 100 290 114L208 196C272 210 320 268 320 336Z" class="fa-secondary"/></svg>