<svg xmlns="http://www.w3.org/2000/svg" viewBox="0 0 320 512"><!-- Font Awesome Pro 6.0.0-alpha1 by @fontawesome - https://fontawesome.com License - https://fontawesome.com/license (Commercial License) --><defs><style>.fa-secondary{opacity:.4}</style></defs><path d="M160 32C72 32 0 104 0 192C0 266 51 328 119 346L75 402C58 423 61 453 82 469C91 477 101 480 112 480C126 480 140 474 149 462C295 280 285 292 288 289C309 261 320 227 320 192C320 104 248 32 160 32ZM96 192C96 157 125 128 160 128S224 157 224 192C224 198 223 204 221 210C213 237 188 256 160 256C125 256 96 227 96 192Z" class="fa-secondary"/></svg>