<svg xmlns="http://www.w3.org/2000/svg" viewBox="0 0 384 512"><!-- Font Awesome Pro 6.0.0-alpha1 by @fontawesome - https://fontawesome.com License - https://fontawesome.com/license (Commercial License) --><defs><style>.fa-secondary{opacity:.4}</style></defs><path d="M304 384H80C54 384 32 406 32 432V464C32 490 54 512 80 512H304C330 512 352 490 352 464V432C352 406 331 384 304 384ZM304 464H80V432H304V464Z" class="fa-secondary"/><path d="M377 297L306 215H342C364 215 376 190 362 173L212 0C201 -12 183 -12 172 0L22 173C8 190 20 215 42 215H78L7 297C-9 315 4 343 28 343H160V375H224V343H356C380 343 393 315 377 297ZM192 95C179 95 168 84 168 71S179 47 192 47S216 58 216 71S205 95 192 95Z" class="fa-primary"/></svg>