<svg xmlns="http://www.w3.org/2000/svg" viewBox="0 0 576 512"><!-- Font Awesome Pro 6.0.0-alpha1 by @fontawesome - https://fontawesome.com License - https://fontawesome.com/license (Commercial License) --><defs><style>.fa-secondary{opacity:.4}</style></defs><path d="M437 310C433 308 427 309 423 311C418 315 416 319 416 325V342C416 349 420 354 426 357C441 364 450 380 448 398C444 418 426 432 406 432H400C378 432 360 414 360 392V256H312V392C312 441 351 480 400 480H405C450 480 490 448 495 403C501 362 476 323 437 310ZM216 424C216 446 198 464 176 464H170C150 464 132 450 129 430C126 412 135 396 150 389C156 386 160 381 160 374V357C160 351 158 347 153 343C149 340 143 340 139 342C100 355 75 394 81 435C86 480 126 512 171 512H176C225 512 264 473 264 424V256H216V424ZM64 128V160H512V128H64Z" class="fa-secondary"/><path d="M528 0H48C22 0 0 22 0 48V176C0 202 22 224 48 224H528C554 224 576 202 576 176V48C576 22 554 0 528 0ZM512 160H64V128H512V160Z" class="fa-primary"/></svg>