<svg xmlns="http://www.w3.org/2000/svg" viewBox="0 0 512 512"><!-- Font Awesome Pro 6.0.0-alpha1 by @fontawesome - https://fontawesome.com License - https://fontawesome.com/license (Commercial License) --><defs><style>.fa-secondary{opacity:.4}</style></defs><path d="M256 64C132 64 32 164 32 288C32 338 49 385 77 422L37 462C30 468 30 478 37 485L59 507C66 514 76 514 82 507L122 467C159 495 206 512 256 512C306 512 353 495 390 467L430 507C436 514 446 514 453 507L475 485C482 478 482 468 475 462L435 422C463 385 480 338 480 288C480 164 380 64 256 64ZM339 366C335 373 327 376 320 376C315 376 310 374 306 371L242 323C236 319 232 312 232 304V184C232 171 243 160 256 160S280 171 280 184V292L334 333C345 341 347 356 339 366Z" class="fa-secondary"/><path d="M280 292V184C280 171 269 160 256 160S232 171 232 184V304C232 312 236 319 242 323L306 371C310 374 315 376 320 376C327 376 334 373 339 366C347 356 345 341 334 333L280 292ZM0 96C0 115 6 133 15 147L161 26C144 10 121 0 96 0C43 0 0 43 0 96ZM416 0C391 0 368 10 351 26L497 147C506 133 512 115 512 96C512 43 469 0 416 0Z" class="fa-primary"/></svg>