<svg xmlns="http://www.w3.org/2000/svg" viewBox="0 0 448 512"><!-- Font Awesome Pro 6.0.0-alpha1 by @fontawesome - https://fontawesome.com License - https://fontawesome.com/license (Commercial License) --><defs><style>.fa-secondary{opacity:.4}</style></defs><path d="M224 0C100 0 0 88 0 232C0 344 134 457 195 502C212 515 236 515 253 502C314 457 448 344 448 232C448 88 348 0 224 0ZM176 320H144C100 320 64 284 64 240C64 231 71 224 80 224H112C156 224 192 260 192 304C192 313 185 320 176 320ZM304 320H272C263 320 256 313 256 304C256 260 292 224 336 224H368C377 224 384 231 384 240C384 284 348 320 304 320Z" class="fa-secondary"/><path d="M112 224H80C71 224 64 231 64 240C64 284 100 320 144 320H176C185 320 192 313 192 304C192 260 156 224 112 224ZM368 224H336C292 224 256 260 256 304C256 313 263 320 272 320H304C348 320 384 284 384 240C384 231 377 224 368 224Z" class="fa-primary"/></svg>