<svg xmlns="http://www.w3.org/2000/svg" viewBox="0 0 576 512"><!-- Font Awesome Pro 6.0.0-alpha1 by @fontawesome - https://fontawesome.com License - https://fontawesome.com/license (Commercial License) --><defs><style>.fa-secondary{opacity:.4}</style></defs><path d="M368 176H341C367 159 384 129 384 96C384 43 341 0 288 0S192 43 192 96C192 129 209 159 235 176H208C199 176 192 183 192 192V224C192 233 199 240 208 240H368C377 240 384 233 384 224V192C384 183 377 176 368 176ZM288 128C270 128 256 114 256 96S270 64 288 64C306 64 320 78 320 96S306 128 288 128Z" class="fa-secondary"/><path d="M560 352H525C510 443 431 512 336 512H240C145 512 66 443 51 352H16C2 352 -5 335 5 325L69 261C75 254 85 254 91 261L155 325C165 335 158 352 144 352H117C131 407 181 448 240 448H256V240H320V448H336C395 448 445 407 459 352H432C418 352 411 335 421 325L485 261C491 254 501 254 507 261L571 325C581 335 574 352 560 352Z" class="fa-primary"/></svg>