<svg xmlns="http://www.w3.org/2000/svg" viewBox="0 0 576 512"><!-- Font Awesome Pro 6.0.0-alpha1 by @fontawesome - https://fontawesome.com License - https://fontawesome.com/license (Commercial License) --><defs><style>.fa-secondary{opacity:.4}</style></defs><path d="M384 64C384 66 381 70 375 74C382 83 387 91 392 101C407 91 416 78 416 64C416 29 359 0 288 0S160 29 160 64C160 78 169 91 185 101C189 91 194 82 201 74C195 70 192 66 192 64C192 56 226 32 288 32S384 56 384 64ZM572 453L534 374C527 361 527 345 534 331C538 322 542 315 546 309C555 293 560 283 560 256C560 205 513 160 460 160C435 160 411 170 393 188L321 262C346 270 368 288 381 313L480 512H536C550 512 562 505 570 493C577 481 578 466 572 453ZM117 160C63 160 16 205 16 256C16 283 21 293 30 309C34 315 38 322 42 331C49 345 49 361 42 374L4 453C-2 466 -1 481 6 493C14 505 26 512 41 512H96L195 313C208 288 230 270 256 261L183 188C166 170 141 160 117 160Z" class="fa-secondary"/><path d="M288 224C332 224 368 188 368 144S332 64 288 64S208 100 208 144S244 224 288 224ZM381 313C363 278 327 256 288 256S213 278 195 313L96 512H480L381 313Z" class="fa-primary"/></svg>