<svg xmlns="http://www.w3.org/2000/svg" viewBox="0 0 384 512"><!-- Font Awesome Pro 6.0.0-alpha1 by @fontawesome - https://fontawesome.com License - https://fontawesome.com/license (Commercial License) --><defs><style>.fa-secondary{opacity:.4}</style></defs><path d="M6 224C-3 214 -2 199 8 190L178 37C186 30 198 30 206 37L376 190C386 199 387 214 378 224L356 248C348 258 332 259 323 250L192 132L61 250C52 259 36 258 28 248L6 224Z" class="fa-secondary"/><path d="M376 382C386 391 387 406 378 416L356 440C348 450 332 451 323 442L192 324L61 442C52 451 36 450 28 440L6 416C-3 406 -2 391 8 382L178 229C186 222 198 222 206 229L376 382Z" class="fa-primary"/></svg>