<svg xmlns="http://www.w3.org/2000/svg" viewBox="0 0 448 512"><!-- Font Awesome Pro 6.0.0-alpha1 by @fontawesome - https://fontawesome.com License - https://fontawesome.com/license (Commercial License) --><defs><style>.fa-secondary{opacity:.4}</style></defs><path d="M218 387C227 396 226 412 216 420L192 442C182 451 167 450 158 440L5 270C-2 262 -2 250 5 242L158 72C167 62 182 61 192 70L216 92C226 100 227 116 218 125L100 256L218 387Z" class="fa-secondary"/><path d="M410 387C419 396 418 412 408 420L384 442C374 451 359 450 350 440L197 270C190 262 190 250 197 242L350 72C359 62 374 61 384 70L408 92C418 100 419 116 410 125L292 256L410 387Z" class="fa-primary"/></svg>