<svg xmlns="http://www.w3.org/2000/svg" viewBox="0 0 384 512"><!-- Font Awesome Pro 6.0.0-alpha1 by @fontawesome - https://fontawesome.com License - https://fontawesome.com/license (Commercial License) --><defs><style>.fa-secondary{opacity:.4}</style></defs><path d="M8 98C-2 89 -3 74 6 64L28 40C36 30 52 29 61 38L192 156L323 38C332 29 348 30 356 40L378 64C387 74 386 89 376 98L206 251C198 258 186 258 178 251L8 98Z" class="fa-secondary"/><path d="M378 256C387 266 386 281 376 290L206 443C198 450 186 450 178 443L8 290C-2 281 -3 266 6 256L28 232C36 222 52 221 61 230L192 348L323 230C332 221 348 222 356 232L378 256Z" class="fa-primary"/></svg>