<svg xmlns="http://www.w3.org/2000/svg" viewBox="0 0 448 512"><!-- Font Awesome Pro 6.0.0-alpha1 by @fontawesome - https://fontawesome.com License - https://fontawesome.com/license (Commercial License) --><defs><style>.fa-secondary{opacity:.4}</style></defs><path d="M251 270L98 440C89 450 74 451 64 442L40 420C30 412 29 396 38 387L156 256L38 125C29 116 30 100 40 92L64 70C74 61 89 62 98 72L251 242C258 250 258 262 251 270Z" class="fa-secondary"/><path d="M443 270L290 440C281 450 266 451 256 442L232 420C222 412 221 396 230 387L348 256L230 125C221 116 222 100 232 92L256 70C266 61 281 62 290 72L443 242C450 250 450 262 443 270Z" class="fa-primary"/></svg>