<svg xmlns="http://www.w3.org/2000/svg" viewBox="0 0 448 512"><!-- Font Awesome Pro 6.0.0-alpha1 by @fontawesome - https://fontawesome.com License - https://fontawesome.com/license (Commercial License) --><defs><style>.fa-secondary{opacity:.4}</style></defs><path d="M320 0V32C320 76 284 112 240 112H208V80C208 36 244 0 288 0H320Z" class="fa-secondary"/><path d="M336 128C304 128 256 144 224 160C192 144 144 128 112 128C32 128 0 210 0 288C-1 388 64 512 160 512C192 512 208 496 224 496C240 496 256 512 288 512C384 512 448 389 448 288C448 212 416 128 336 128Z" class="fa-primary"/></svg>