<svg xmlns="http://www.w3.org/2000/svg" viewBox="0 0 320 512"><!-- Font Awesome Pro 6.0.0-alpha1 by @fontawesome - https://fontawesome.com License - https://fontawesome.com/license (Commercial License) --><defs><style>.fa-secondary{opacity:.4}</style></defs><path d="M246 436C250 444 247 454 239 458L195 478C187 482 178 479 174 471L117 351L144 320H191L246 436Z" class="fa-secondary"/><path d="M318 304C315 314 306 320 296 320H144L42 440C38 445 31 448 24 448C21 448 18 448 16 447C6 443 0 434 0 424V56C0 47 6 38 14 34C23 30 33 32 40 38L312 278C319 285 322 295 318 304Z" class="fa-primary"/></svg>