<svg xmlns="http://www.w3.org/2000/svg" viewBox="0 0 512 512"><!-- Font Awesome Pro 6.0.0-alpha1 by @fontawesome - https://fontawesome.com License - https://fontawesome.com/license (Commercial License) --><defs><style>.fa-secondary{opacity:.4}</style></defs><path d="M96 480H176C185 480 192 473 192 464V432C192 423 185 416 176 416H96C78 416 64 402 64 384V128C64 110 78 96 96 96H176C185 96 192 89 192 80V48C192 39 185 32 176 32H96C43 32 0 75 0 128V384C0 437 43 480 96 480Z" class="fa-secondary"/><path d="M512 256C512 248 509 240 503 233L370 101C364 94 354 94 347 101L325 123C318 130 318 140 325 146L403 224H176C167 224 160 231 160 240V272C160 281 167 288 176 288H403L325 366C318 372 318 382 325 389L347 411C354 418 364 418 370 411L503 279C509 272 512 264 512 256Z" class="fa-primary"/></svg>