<svg xmlns="http://www.w3.org/2000/svg" viewBox="0 0 512 512"><!-- Font Awesome Pro 6.0.0-alpha1 by @fontawesome - https://fontawesome.com License - https://fontawesome.com/license (Commercial License) --><defs><style>.fa-secondary{opacity:.4}</style></defs><path d="M496 256C496 320 471 380 426 426C380 471 320 496 256 496C204 496 155 480 114 449C98 438 97 415 111 401L122 390C133 379 151 377 163 386C190 406 222 416 256 416C299 416 339 399 369 369C399 339 416 299 416 256S399 173 369 143C339 113 299 96 256 96S173 113 143 143C137 148 133 154 128 160H80V93C82 91 84 89 86 86C132 41 192 16 256 16S380 41 426 86C471 132 496 192 496 256Z" class="fa-secondary"/><path d="M224 176V208C224 217 217 224 208 224H48C39 224 31 220 25 215S16 201 16 192V32C16 23 23 16 32 16H64C73 16 80 23 80 32V93L80 93V160H128C128 160 128 160 128 160H208C217 160 224 167 224 176Z" class="fa-primary"/></svg>