<svg xmlns="http://www.w3.org/2000/svg" viewBox="0 0 512 512"><!-- Font Awesome Pro 6.0.0-alpha1 by @fontawesome - https://fontawesome.com License - https://fontawesome.com/license (Commercial License) --><defs><style>.fa-secondary{opacity:.4}</style></defs><path d="M426 86C428 89 430 91 432 93V160H384C379 154 375 148 369 143C339 113 299 96 256 96S173 113 143 143C113 173 96 213 96 256S113 339 143 369C173 399 213 416 256 416C290 416 322 406 349 386C361 377 379 379 390 390L401 401C415 415 414 438 398 449C357 480 308 496 256 496C192 496 132 471 86 426C41 380 16 320 16 256S41 132 86 86C132 41 192 16 256 16S380 41 426 86Z" class="fa-secondary"/><path d="M432 160L432 32C432 23 439 16 448 16H480C489 16 496 23 496 32V192C496 201 492 209 487 215S473 224 464 224H304C295 224 288 217 288 208V176C288 167 295 160 304 160L432 160Z" class="fa-primary"/></svg>