<svg xmlns="http://www.w3.org/2000/svg" viewBox="0 0 384 512"><!-- Font Awesome Pro 6.0.0-alpha1 by @fontawesome - https://fontawesome.com License - https://fontawesome.com/license (Commercial License) --><defs><style>.fa-secondary{opacity:.4}</style></defs><path d="M249 164L256 155V448C256 466 270 480 288 480S320 466 320 448V155L327 164C338 178 358 180 372 169C386 158 388 138 377 124L313 44C307 36 298 32 288 32S269 36 263 44L199 124C188 138 190 158 204 169C218 180 238 178 249 164Z" class="fa-secondary"/><path d="M135 348L128 357V64C128 46 114 32 96 32S64 46 64 64V357L57 348C46 334 26 332 12 343C-2 354 -4 374 7 388L71 468C77 476 86 480 96 480S115 476 121 468L185 388C196 374 194 354 180 343C166 332 146 334 135 348Z" class="fa-primary"/></svg>