<svg xmlns="http://www.w3.org/2000/svg" viewBox="0 0 640 512"><!-- Font Awesome Pro 6.0.0-alpha1 by @fontawesome - https://fontawesome.com License - https://fontawesome.com/license (Commercial License) --><defs><style>.fa-secondary{opacity:.4}</style></defs><path d="M540 439L457 302C446 283 418 283 407 302L324 439C313 457 327 480 349 480H515C537 480 551 457 540 439ZM360 224H504C517 224 528 213 528 200V56C528 43 517 32 504 32H360C347 32 336 43 336 56V200C336 213 347 224 360 224Z" class="fa-secondary"/><path d="M231 348L224 357V64C224 46 210 32 192 32S160 46 160 64V357L153 348C142 334 122 332 108 343C94 354 92 374 103 388L167 468C173 476 182 480 192 480S211 476 217 468L281 388C292 374 290 354 276 343C262 332 242 334 231 348Z" class="fa-primary"/></svg>