<svg xmlns="http://www.w3.org/2000/svg" viewBox="0 0 448 512"><!-- Font Awesome Pro 6.0.0-alpha1 by @fontawesome - https://fontawesome.com License - https://fontawesome.com/license (Commercial License) --><defs><style>.fa-secondary{opacity:.4}</style></defs><path d="M400 416H384V304C384 295 377 288 368 288H320C314 288 308 291 306 297L290 329C287 334 288 340 290 344C293 349 299 352 304 352H320V416H304C295 416 288 423 288 432V464C288 473 295 480 304 480H400C409 480 416 473 416 464V432C416 423 409 416 400 416ZM330 35C304 42 283 63 275 89C261 140 296 187 344 192C338 197 331 201 323 205C316 208 312 217 315 225L325 245C328 254 337 258 346 255C404 230 432 193 432 123V112C432 61 384 21 330 35ZM352 132C341 132 332 123 332 112S341 92 352 92C363 92 372 101 372 112S363 132 352 132Z" class="fa-secondary"/><path d="M57 164L64 155V448C64 466 78 480 96 480S128 466 128 448V155L135 164C146 178 166 180 180 169C194 158 196 138 185 124L121 44C115 36 106 32 96 32S77 36 71 44L7 124C-4 138 -2 158 12 169C26 180 46 178 57 164Z" class="fa-primary"/></svg>