<svg xmlns="http://www.w3.org/2000/svg" viewBox="0 0 640 512"><!-- Font Awesome Pro 6.0.0-alpha1 by @fontawesome - https://fontawesome.com License - https://fontawesome.com/license (Commercial License) --><defs><style>.fa-secondary{opacity:.4}</style></defs><path d="M540 169L457 32C446 14 418 14 407 32L324 169C313 187 327 210 349 210H515C537 210 551 187 540 169ZM504 274H360C347 274 336 285 336 298V442C336 455 347 466 360 466H504C517 466 528 455 528 442V298C528 285 517 274 504 274Z" class="fa-secondary"/><path d="M153 164L160 155V448C160 466 174 480 192 480S224 466 224 448V155L231 164C242 178 262 180 276 169C290 158 292 138 281 124L217 44C211 36 202 32 192 32S173 36 167 44L103 124C92 138 94 158 108 169C122 180 142 178 153 164Z" class="fa-primary"/></svg>