<svg xmlns="http://www.w3.org/2000/svg" viewBox="0 0 320 512"><!-- Font Awesome Pro 6.0.0-alpha1 by @fontawesome - https://fontawesome.com License - https://fontawesome.com/license (Commercial License) --><defs><style>.fa-secondary{opacity:.4}</style></defs><path d="M192 108V496C192 505 185 512 176 512H144C135 512 128 505 128 496V108L160 75L192 108Z" class="fa-secondary"/><path d="M5 142L137 9C144 3 152 0 160 0S176 3 183 9L315 142C322 148 322 158 315 165L293 187C286 194 276 194 270 187L160 75L50 187C44 194 34 194 27 187L5 165C-2 158 -2 148 5 142Z" class="fa-primary"/></svg>