<svg xmlns="http://www.w3.org/2000/svg" viewBox="0 0 512 512"><!-- Font Awesome Pro 6.0.0-alpha1 by @fontawesome - https://fontawesome.com License - https://fontawesome.com/license (Commercial License) --><defs><style>.fa-secondary{opacity:.4}</style></defs><path d="M108 224H496C505 224 512 231 512 240V272C512 281 505 288 496 288H108L75 256L108 224Z" class="fa-secondary"/><path d="M142 411L9 279C3 272 0 264 0 256S3 240 9 233L142 101C148 94 158 94 165 101L187 123C194 130 194 140 187 146L75 256L187 366C194 372 194 382 187 389L165 411C158 418 148 418 142 411Z" class="fa-primary"/></svg>