<svg xmlns="http://www.w3.org/2000/svg" viewBox="0 0 512 512"><!-- Font Awesome Pro 6.0.0-alpha1 by @fontawesome - https://fontawesome.com License - https://fontawesome.com/license (Commercial License) --><defs><style>.fa-secondary{opacity:.4}</style></defs><path d="M439 105L338 5C332 -2 322 -2 315 5L293 27C286 34 286 44 293 50L339 96H192L192 96H168C79 96 2 164 0 253C0 254 0 255 0 256H64C64 250 65 244 66 238C74 192 117 160 164 160H339L293 206C286 212 286 222 293 229L315 251C322 258 332 258 338 251L439 151C445 144 448 136 448 128S445 112 439 105Z" class="fa-secondary"/><path d="M448 256C448 262 447 268 446 274C438 320 395 352 348 352H173L219 306C226 300 226 290 219 283L197 261C190 254 180 254 174 261L73 361C67 368 64 376 64 384S67 400 73 407L174 507C180 514 190 514 197 507L219 485C226 478 226 468 219 462L173 416H320L320 416H344C433 416 510 348 512 259C512 258 512 257 512 256H448Z" class="fa-primary"/></svg>