<svg xmlns="http://www.w3.org/2000/svg" viewBox="0 0 448 512"><!-- Font Awesome Pro 6.0.0-alpha1 by @fontawesome - https://fontawesome.com License - https://fontawesome.com/license (Commercial License) --><defs><style>.fa-secondary{opacity:.4}</style></defs><path d="M282 304H32C14 304 0 290 0 272V240C0 222 14 208 32 208H282L326 256L282 304Z" class="fa-secondary"/><path d="M224 473L189 440C180 431 180 416 189 406L326 256L189 106C180 96 180 81 189 72L224 39C233 30 248 30 258 39L441 238C451 248 451 264 441 274L258 473C248 482 233 482 224 473Z" class="fa-primary"/></svg>