<svg xmlns="http://www.w3.org/2000/svg" viewBox="0 0 448 512"><!-- Font Awesome Pro 6.0.0-alpha1 by @fontawesome - https://fontawesome.com License - https://fontawesome.com/license (Commercial License) --><defs><style>.fa-secondary{opacity:.4}</style></defs><path d="M384 160H368C359 160 352 167 352 176V208C352 217 359 224 368 224H384V448H64V224H80C89 224 96 217 96 208V176C96 167 89 160 80 160H64C29 160 0 189 0 224V448C0 483 29 512 64 512H384C419 512 448 483 448 448V224C448 189 419 160 384 160Z" class="fa-secondary"/><path d="M313 92L249 12C237 -3 211 -3 199 12L135 92C124 106 126 126 140 137C154 148 174 146 185 132L192 123V320C192 338 206 352 224 352S256 338 256 320V123L263 132C269 140 279 144 288 144C295 144 302 142 308 137C322 126 324 106 313 92Z" class="fa-primary"/></svg>