<svg xmlns="http://www.w3.org/2000/svg" viewBox="0 0 512 512"><!-- Font Awesome Pro 6.0.0-alpha1 by @fontawesome - https://fontawesome.com License - https://fontawesome.com/license (Commercial License) --><defs><style>.fa-secondary{opacity:.4}</style></defs><path d="M484 32H284C269 32 256 45 256 60V228C256 243 269 256 284 256H484C499 256 512 243 512 228V60C512 45 499 32 484 32ZM428 320H276C265 320 256 329 256 340V460C256 471 265 480 276 480H428C439 480 448 471 448 460V340C448 329 439 320 428 320Z" class="fa-secondary"/><path d="M57 164L64 155V448C64 466 78 480 96 480S128 466 128 448V155L135 164C146 178 166 180 180 169C194 158 196 138 185 124L121 44C115 36 106 32 96 32S77 36 71 44L7 124C-4 138 -2 158 12 169C26 180 46 178 57 164Z" class="fa-primary"/></svg>