<svg xmlns="http://www.w3.org/2000/svg" viewBox="0 0 512 512"><!-- Font Awesome Pro 6.0.0-alpha1 by @fontawesome - https://fontawesome.com License - https://fontawesome.com/license (Commercial License) --><defs><style>.fa-secondary{opacity:.4}</style></defs><path d="M171 139C178 146 188 146 194 139L224 108V224H288V108L318 139C324 146 334 146 341 139L363 117C370 110 370 100 363 94L279 9C272 3 264 0 256 0S240 3 233 9L149 94C142 100 142 110 149 117L171 139ZM341 373C334 366 324 366 318 373L288 404V288H224V404L194 373C188 366 178 366 171 373L149 395C142 402 142 412 149 418L233 503C240 509 248 512 256 512S272 509 279 503L363 418C370 412 370 402 363 395L341 373Z" class="fa-secondary"/><path d="M512 256C512 264 509 272 503 279L418 363C412 370 402 370 395 363L373 341C366 334 366 324 373 318L404 288H108L139 318C146 324 146 334 139 341L117 363C110 370 100 370 94 363L9 279C3 272 0 264 0 256S3 240 9 233L94 149C100 142 110 142 117 149L139 171C146 178 146 188 139 194L108 224H404L373 194C366 188 366 178 373 171L395 149C402 142 412 142 418 149L503 233C509 240 512 248 512 256Z" class="fa-primary"/></svg>