<svg xmlns="http://www.w3.org/2000/svg" viewBox="0 0 448 512"><!-- Font Awesome Pro 6.0.0-alpha1 by @fontawesome - https://fontawesome.com License - https://fontawesome.com/license (Commercial License) --><defs><style>.fa-secondary{opacity:.4}</style></defs><path d="M444 169L361 32C350 14 322 14 311 32L228 169C217 187 231 210 253 210H419C441 210 455 187 444 169ZM408 274H264C251 274 240 285 240 298V442C240 455 251 466 264 466H408C421 466 432 455 432 442V298C432 285 421 274 408 274Z" class="fa-secondary"/><path d="M135 348L128 357V64C128 46 114 32 96 32S64 46 64 64V357L57 348C46 334 26 332 12 343C-2 354 -4 374 7 388L71 468C77 476 86 480 96 480S115 476 121 468L185 388C196 374 194 354 180 343C166 332 146 334 135 348Z" class="fa-primary"/></svg>