<svg xmlns="http://www.w3.org/2000/svg" viewBox="0 0 512 512"><!-- Font Awesome Pro 6.0.0-alpha1 by @fontawesome - https://fontawesome.com License - https://fontawesome.com/license (Commercial License) --><defs><style>.fa-secondary{opacity:.4}</style></defs><path d="M404 288H16C7 288 0 281 0 272V240C0 231 7 224 16 224H404L437 256L404 288Z" class="fa-secondary"/><path d="M370 101L503 233C509 240 512 248 512 256S509 272 503 279L370 411C364 418 354 418 347 411L325 389C318 382 318 372 325 366L437 256L325 146C318 140 318 130 325 123L347 101C354 94 364 94 370 101Z" class="fa-primary"/></svg>