<svg xmlns="http://www.w3.org/2000/svg" viewBox="0 0 512 512"><!-- Font Awesome Pro 6.0.0-alpha1 by @fontawesome - https://fontawesome.com License - https://fontawesome.com/license (Commercial License) --><defs><style>.fa-secondary{opacity:.4}</style></defs><path d="M416 32H336C327 32 320 39 320 48V80C320 89 327 96 336 96H416C434 96 448 110 448 128V384C448 402 434 416 416 416H336C327 416 320 423 320 432V464C320 473 327 480 336 480H416C469 480 512 437 512 384V128C512 75 469 32 416 32Z" class="fa-secondary"/><path d="M352 256C352 248 349 240 343 233L210 101C204 94 194 94 187 101L165 123C158 130 158 140 165 146L243 224H16C7 224 0 231 0 240V272C0 281 7 288 16 288H243L165 366C158 372 158 382 165 389L187 411C194 418 204 418 210 411L343 279C349 272 352 264 352 256Z" class="fa-primary"/></svg>