<svg xmlns="http://www.w3.org/2000/svg" viewBox="0 0 448 512"><!-- Font Awesome Pro 6.0.0-alpha1 by @fontawesome - https://fontawesome.com License - https://fontawesome.com/license (Commercial License) --><defs><style>.fa-secondary{opacity:.4}</style></defs><path d="M109 416H176C185 416 192 423 192 432V464C192 473 185 480 176 480H32C23 480 15 476 9 471C4 465 0 457 0 448V304C0 295 7 288 16 288H48C57 288 64 295 64 304V371L339 96H272C263 96 256 89 256 80V48C256 39 263 32 272 32H416C425 32 433 36 439 41C444 47 448 55 448 64V208C448 217 441 224 432 224H400C391 224 384 217 384 208V141L109 416Z" class="fa-secondary"/><path d="M0 208V64C0 55 4 47 9 41C15 36 23 32 32 32H176C185 32 192 39 192 48V80C192 89 185 96 176 96H109L224 211L179 256L64 141V208C64 217 57 224 48 224H16C7 224 0 217 0 208ZM432 288H400C391 288 384 295 384 304V371L269 256L224 301L339 416H272C263 416 256 423 256 432V464C256 473 263 480 272 480H416C425 480 433 476 439 471C444 465 448 457 448 448V304C448 295 441 288 432 288Z" class="fa-primary"/></svg>