<svg xmlns="http://www.w3.org/2000/svg" viewBox="0 0 448 512"><!-- Font Awesome Pro 6.0.0-alpha1 by @fontawesome - https://fontawesome.com License - https://fontawesome.com/license (Commercial License) --><defs><style>.fa-secondary{opacity:.4}</style></defs><path d="M16 64H48C57 64 64 71 64 80V432C64 441 57 448 48 448H16C7 448 0 441 0 432V80C0 71 7 64 16 64Z" class="fa-secondary"/><path d="M238 101C244 94 254 94 261 101L283 123C290 130 290 140 283 146L205 224H432C441 224 448 231 448 240V272C448 281 441 288 432 288H205L283 366C290 372 290 382 283 389L261 411C254 418 244 418 238 411L105 279C99 272 96 264 96 256S99 240 105 233L238 101Z" class="fa-primary"/></svg>