<svg xmlns="http://www.w3.org/2000/svg" viewBox="0 0 448 512"><!-- Font Awesome Pro 6.0.0-alpha1 by @fontawesome - https://fontawesome.com License - https://fontawesome.com/license (Commercial License) --><defs><style>.fa-secondary{opacity:.4}</style></defs><path d="M429 349L406 388C399 400 384 404 372 396L264 325L271 455C271 468 260 480 247 480H201C188 480 177 468 177 455L184 325L76 396C64 404 49 400 42 388L19 349C12 337 17 322 29 315L145 256L29 197C17 190 12 175 19 163L42 124C49 112 64 108 76 116L184 187L177 57C177 44 188 32 201 32H247C260 32 271 44 271 57L264 187L372 116C384 108 399 112 406 124L429 163C436 175 431 190 419 197L303 256L419 315C431 322 436 337 429 349Z" class="fa-secondary"/></svg>