<svg xmlns="http://www.w3.org/2000/svg" viewBox="0 0 512 512"><!-- Font Awesome Pro 6.0.0-alpha1 by @fontawesome - https://fontawesome.com License - https://fontawesome.com/license (Commercial License) --><defs><style>.fa-secondary{opacity:.4}</style></defs><path d="M101 14C98 1 83 -5 74 5C29 51 0 118 0 192S29 333 74 379C83 389 98 383 101 370C106 348 117 327 130 311C153 283 188 269 224 269V115C188 115 153 101 130 73C117 57 106 36 101 14ZM512 161C505 99 479 45 439 5C430 -4 415 1 412 14C406 39 394 61 377 79C355 103 322 115 289 115H288V269H289C322 269 355 281 377 305C394 323 406 345 412 370C415 383 430 388 439 379C478 339 505 285 512 223L449 192L512 161Z" class="fa-secondary"/><path d="M288 64V496C288 505 281 512 272 512H240C231 512 224 505 224 496V64C224 46 238 32 256 32S288 46 288 64Z" class="fa-primary"/></svg>