<svg xmlns="http://www.w3.org/2000/svg" viewBox="0 0 448 512"><!-- Font Awesome Pro 6.0.0-alpha1 by @fontawesome - https://fontawesome.com License - https://fontawesome.com/license (Commercial License) --><defs><style>.fa-secondary{opacity:.4}</style></defs><path d="M96 384V512H352V384H96ZM176 56C176 52 180 48 184 48H264C268 48 272 52 272 56V80H320V56C320 25 295 0 264 0H184C153 0 128 25 128 56V80H176V56Z" class="fa-secondary"/><path d="M320 80H128C57 80 0 137 0 208V448C0 483 29 512 64 512H96V320C96 302 110 288 128 288H320C338 288 352 302 352 320V512H384C419 512 448 483 448 448V208C448 137 391 80 320 80ZM320 200C320 204 316 208 312 208H136C132 208 128 204 128 200V184C128 180 132 176 136 176H312C316 176 320 180 320 184V200Z" class="fa-primary"/></svg>