<svg xmlns="http://www.w3.org/2000/svg" viewBox="0 0 576 512"><!-- Font Awesome Pro 6.0.0-alpha1 by @fontawesome - https://fontawesome.com License - https://fontawesome.com/license (Commercial License) --><defs><style>.fa-secondary{opacity:.4}</style></defs><path d="M565 100L543 76L430 128C380 151 339 191 311 242L289 282C258 339 212 383 156 409L52 457L89 499C97 508 107 512 117 512C123 512 128 511 133 509L226 466C277 442 319 402 348 349L368 311C395 262 435 224 483 202L552 170C564 164 572 153 575 139C578 125 574 110 565 100ZM261 267L283 226C315 169 361 125 416 99L521 51L487 13C476 0 458 -3 443 3L350 46C299 70 257 110 228 163L208 201C181 250 141 288 93 310L24 342C12 348 4 359 1 373C-2 387 2 402 11 412L29 432L143 380C192 357 233 318 261 267Z" class="fa-secondary"/><path d="M543 76L429 128C380 151 339 191 311 242L289 282C258 339 212 383 156 409L51 457L29 432L142 380C192 357 233 318 261 267L283 226C314 169 360 125 416 99L521 51L544 77L543 76Z" class="fa-primary"/></svg>