<svg xmlns="http://www.w3.org/2000/svg" viewBox="0 0 576 512"><!-- Font Awesome Pro 6.0.0-alpha1 by @fontawesome - https://fontawesome.com License - https://fontawesome.com/license (Commercial License) --><defs><style>.fa-secondary{opacity:.4}</style></defs><path d="M448 192C448 174 434 160 416 160H320V100C320 53 289 11 243 2C182 -10 128 37 128 96V160H32C14 160 0 174 0 192V448C0 466 14 480 32 480H160V272C160 246 182 224 208 224H448V192ZM272 160H176V96C176 70 198 48 224 48S272 70 272 96V160ZM464 320C455 320 448 327 448 336V352C448 370 440 387 427 399C414 412 396 417 378 416C344 412 320 383 320 349V336C320 327 313 320 304 320C295 320 288 327 288 336V349C288 397 323 441 371 447C399 451 426 442 447 424C468 406 480 380 480 352V336C480 327 473 320 464 320Z" class="fa-secondary"/><path d="M544 256H224C206 256 192 270 192 288V480C192 498 206 512 224 512H544C562 512 576 498 576 480V288C576 270 562 256 544 256ZM480 352C480 380 468 406 447 424C426 442 399 451 371 447C323 441 288 397 288 349V336C288 327 295 320 304 320C313 320 320 327 320 336V349C320 383 344 412 378 416C396 418 414 412 427 399C440 387 448 370 448 352V336C448 327 455 320 464 320C473 320 480 327 480 336V352Z" class="fa-primary"/></svg>