<svg xmlns="http://www.w3.org/2000/svg" viewBox="0 0 512 512"><!-- Font Awesome Pro 6.0.0-alpha1 by @fontawesome - https://fontawesome.com License - https://fontawesome.com/license (Commercial License) --><defs><style>.fa-secondary{opacity:.4}</style></defs><path d="M192 152C99 152 24 227 24 320C24 413 99 488 192 488S360 413 360 320C360 227 285 152 192 152ZM192 432C130 432 80 382 80 320S130 208 192 208S304 258 304 320S254 432 192 432Z" class="fa-secondary"/><path d="M166 476V476C166 491 178 503 192 503S218 491 218 476V476C210 477 201 479 192 479S174 477 166 476ZM56 409L56 409C49 416 46 426 49 435S58 452 68 454S87 453 93 446L94 446C79 436 67 423 56 409ZM218 145C218 130 206 119 192 119C178 119 166 130 166 145V145C166 145 166 145 166 145C174 144 183 143 192 143C201 143 210 144 218 145C218 145 218 145 218 145V145ZM57 175C47 185 47 201 56 212L56 212C67 198 79 185 93 175L93 175C83 165 67 165 57 175ZM27 284H26C12 284 0 296 0 311C0 325 12 337 26 337H27C27 337 27 337 27 337C25 328 24 320 24 311C24 302 25 293 27 284C27 284 27 284 27 284ZM358 284H357C357 284 357 284 357 284C359 293 360 302 360 311C360 320 359 328 357 337C357 337 357 337 357 337H358C372 337 384 325 384 311C384 296 372 284 358 284ZM328 409C317 423 305 436 291 446L291 446C297 453 307 456 316 454S333 444 335 435S335 416 328 409L328 409ZM194 372L206 361C207 359 208 357 208 355S207 351 206 350L153 297C151 295 150 295 147 295S143 295 142 297L130 308C127 311 127 317 130 320L183 372C186 375 191 375 194 372ZM503 30L473 0C460 -13 440 -13 428 0L382 46C378 50 375 55 373 60L361 97L286 171C304 183 319 199 331 217L406 142L442 130C448 128 452 125 456 121L503 75C515 62 515 42 503 30Z" class="fa-primary"/></svg>