<svg xmlns="http://www.w3.org/2000/svg" viewBox="0 0 512 512"><!-- Font Awesome Pro 6.0.0-alpha1 by @fontawesome - https://fontawesome.com License - https://fontawesome.com/license (Commercial License) --><defs><style>.fa-secondary{opacity:.4}</style></defs><path d="M449 264C456 263 464 263 471 263C479 263 487 264 496 265C496 262 496 259 496 256C496 124 388 16 256 16C253 16 250 16 247 16C248 25 249 33 249 41C249 48 249 56 248 63C247 72 238 78 229 77C221 75 215 68 216 59C217 53 217 47 217 41C217 34 216 27 215 20C115 37 37 115 20 215C27 216 34 217 41 217C47 217 53 217 59 216C68 215 75 221 77 229C78 238 72 247 63 248C56 249 48 249 41 249C33 249 25 248 16 247C16 250 16 253 16 256C16 388 124 496 256 496C259 496 262 496 265 496C264 487 263 479 263 471C263 464 263 456 264 449C265 440 274 434 283 435C291 436 297 444 296 453C295 459 295 465 295 471C295 478 296 485 297 492C397 475 475 397 492 297C485 296 478 295 471 295C465 295 459 295 453 296C444 297 437 291 435 283C434 274 440 265 449 264ZM229 130C208 173 173 208 130 229C120 233 109 227 107 217L107 217C106 210 110 203 116 200C153 182 182 153 200 116C203 110 210 106 217 107L217 107C227 109 233 120 229 130ZM396 312C359 330 330 359 312 396C309 402 302 406 295 405L295 405C285 403 279 392 283 382C304 339 339 304 382 283C392 279 403 285 405 295L405 295C406 302 402 309 396 312Z" class="fa-secondary"/><path d="M217 107L217 107C210 106 203 110 200 116C183 153 153 182 116 200C110 203 107 210 108 217L108 217C109 227 121 233 130 229C174 208 209 173 229 130C234 120 228 109 217 107ZM60 216C54 217 48 217 41 217C34 217 27 216 20 215C19 225 17 236 17 247C25 248 33 249 41 249C49 249 56 249 64 248C73 247 79 238 77 229C76 221 68 215 60 216ZM215 20C216 27 217 34 217 41C217 47 217 53 216 59C215 68 221 75 230 77C239 78 247 72 248 63C249 56 249 48 249 41C249 33 249 25 248 17C237 17 226 18 215 20ZM383 283C339 304 304 339 284 382C279 392 285 403 296 405L296 405C303 406 310 402 313 396C330 359 360 330 397 312C403 309 406 302 405 295L405 295C403 285 392 279 383 283ZM297 453C298 444 292 437 283 435C274 434 266 440 265 449C264 456 264 464 264 471C264 479 264 487 265 495C276 495 287 494 298 492C297 485 296 478 296 471C296 465 296 459 297 453ZM471 263C464 263 457 263 449 264C440 265 434 274 436 283C437 291 445 297 453 296C459 295 465 295 471 295C479 295 486 296 493 297C494 287 495 276 496 265C488 264 480 263 471 263Z" class="fa-primary"/></svg>