<svg xmlns="http://www.w3.org/2000/svg" viewBox="0 0 640 512"><!-- Font Awesome Pro 6.0.0-alpha1 by @fontawesome - https://fontawesome.com License - https://fontawesome.com/license (Commercial License) --><defs><style>.fa-secondary{opacity:.4}</style></defs><path d="M576 432C576 476 540 512 496 512S416 476 416 432S452 352 496 352S576 388 576 432Z" class="fa-secondary"/><path d="M58 397C47 383 27 380 13 390C-1 401 -4 421 6 435L53 499C59 507 69 512 79 512C85 512 92 510 97 506C112 495 115 475 104 461L58 397ZM627 60L604 28C581 -3 539 -8 510 13L308 160C262 193 220 231 183 273C159 301 124 337 80 373L136 451C190 415 235 395 263 383C315 361 365 333 410 300L613 154C642 132 649 90 627 60Z" class="fa-primary"/></svg>