<svg xmlns="http://www.w3.org/2000/svg" viewBox="0 0 576 512"><!-- Font Awesome Pro 6.0.0-alpha1 by @fontawesome - https://fontawesome.com License - https://fontawesome.com/license (Commercial License) --><defs><style>.fa-secondary{opacity:.4}</style></defs><path d="M560 192H458L469 213C475 225 471 239 459 245C456 247 452 248 448 248C439 248 431 243 427 235L404 192H172L149 235C145 243 137 248 128 248C124 248 120 247 117 245C105 239 101 225 107 213L118 192H16C7 192 0 199 0 208V240C0 249 7 256 16 256H39L85 462C91 491 117 512 147 512H429C459 512 485 491 491 462L537 256H560C569 256 576 249 576 240V208C576 199 569 192 560 192Z" class="fa-secondary"/><path d="M243 3C231 -3 217 1 211 13L107 213C101 225 105 239 117 245C121 247 124 248 128 248C137 248 145 243 149 235L253 35C259 23 255 9 243 3ZM469 213L365 13C359 1 345 -3 333 3C321 9 317 23 323 35L427 235C431 243 439 248 448 248C452 248 456 247 459 245C471 239 475 225 469 213Z" class="fa-primary"/></svg>