<svg xmlns="http://www.w3.org/2000/svg" viewBox="0 0 640 512"><!-- Font Awesome Pro 6.0.0-alpha1 by @fontawesome - https://fontawesome.com License - https://fontawesome.com/license (Commercial License) --><defs><style>.fa-secondary{opacity:.4}</style></defs><path d="M96 352V172L41 129C35 138 32 148 32 160V352C32 387 61 416 96 416H407L326 352H96ZM576 192V160C576 125 547 96 512 96H155L236 160H512V352H481L548 404C565 393 576 374 576 352V320C594 320 608 306 608 288V224C608 206 594 192 576 192Z" class="fa-secondary"/><path d="M24 0C29 0 34 2 39 5L631 469C641 477 643 492 635 503C627 513 612 515 601 507L9 43C-1 35 -3 20 5 9C10 3 17 0 24 0Z" class="fa-primary"/></svg>