<svg xmlns="http://www.w3.org/2000/svg" viewBox="0 0 512 512"><!-- Font Awesome Pro 6.0.0-alpha1 by @fontawesome - https://fontawesome.com License - https://fontawesome.com/license (Commercial License) --><defs><style>.fa-secondary{opacity:.4}</style></defs><path d="M512 288V352H0V288C0 253 29 224 64 224H448C483 224 512 253 512 288Z" class="fa-secondary"/><path d="M0 352V464C0 473 7 480 16 480H48C57 480 64 473 64 464V416H448V464C448 473 455 480 464 480H496C505 480 512 473 512 464V352H0ZM80 224V160C80 142 94 128 112 128H208C226 128 240 142 240 160V224H272V160C272 142 286 128 304 128H400C418 128 432 142 432 160V224H448C460 224 471 227 480 233V64C480 46 466 32 448 32H64C46 32 32 46 32 64V233C41 227 52 224 64 224H80Z" class="fa-primary"/></svg>