<svg xmlns="http://www.w3.org/2000/svg" viewBox="0 0 640 512"><!-- Font Awesome Pro 6.0.0-alpha1 by @fontawesome - https://fontawesome.com License - https://fontawesome.com/license (Commercial License) --><defs><style>.fa-secondary{opacity:.4}</style></defs><path d="M176 160C132 160 96 196 96 240S132 320 176 320S256 284 256 240S220 160 176 160ZM544 160H462L451 184C442 203 422 216 400 216C379 216 359 204 350 185L338 160H304C295 160 288 167 288 176V352H640V256C640 203 597 160 544 160Z" class="fa-secondary"/><path d="M624 48H509L484 11C480 4 472 0 464 0C463 0 463 0 462 0C454 1 446 6 442 14L400 105L378 61C374 53 366 48 357 48L208 48C199 48 192 55 192 64V80C192 89 199 96 208 96L342 96L378 171C382 179 391 184 400 184H400C409 184 418 179 422 170L468 73L476 85C480 92 488 96 496 96H624C633 96 640 89 640 80V64C640 55 633 48 624 48ZM64 80C64 71 57 64 48 64H16C7 64 0 71 0 80V496C0 505 7 512 16 512H48C57 512 64 505 64 496V448H576V496C576 505 583 512 592 512H624C633 512 640 505 640 496V352H64V80Z" class="fa-primary"/></svg>