<svg xmlns="http://www.w3.org/2000/svg" viewBox="0 0 576 512"><!-- Font Awesome Pro 6.0.0-alpha1 by @fontawesome - https://fontawesome.com License - https://fontawesome.com/license (Commercial License) --><defs><style>.fa-secondary{opacity:.4}</style></defs><path d="M193 416H383C390 406 397 395 404 384H173C179 395 186 406 193 416ZM152 336H424C427 325 428 315 429 304H147C148 315 149 325 152 336ZM288 512C288 512 313 493 342 464H234C263 493 288 512 288 512ZM448 96H448C420 96 393 105 367 119C366 139 356 158 342 171C353 176 364 182 374 189C402 171 428 160 448 160H448C483 160 512 182 512 208C512 234 483 256 448 256C439 256 429 253 418 250C415 241 411 232 406 224H170C164 234 159 245 155 256H421C426 270 429 285 429 301C429 302 429 303 429 304C428 309 428 313 427 318C434 319 441 320 448 320H448C519 320 576 270 576 208V208C576 146 519 96 448 96ZM155 256C156 254 157 252 158 250C147 253 137 256 128 256C93 256 64 234 64 208C64 193 74 182 80 177C92 166 110 160 128 160C148 160 174 171 202 189C212 182 223 176 234 171C220 158 210 139 209 119C183 105 156 96 128 96H128C57 96 0 146 0 208V208C0 270 57 320 128 320H128C135 320 142 319 149 318C148 313 148 309 147 304C147 303 147 302 147 301C147 285 150 270 155 256Z" class="fa-secondary"/><path d="M342 171C346 167 351 162 354 157C360 148 364 139 366 128C367 123 368 118 368 112C368 92 360 73 347 59L379 27C385 21 385 11 379 5S363 -2 356 5L321 40C311 35 300 32 288 32C282 32 277 33 272 34C265 35 260 37 254 40L219 5C213 -2 203 -2 197 5S190 21 197 27L228 59C216 73 208 92 208 112C208 118 208 123 209 128C212 139 216 148 221 157C225 162 229 167 234 171C208 182 185 200 170 224H406C390 200 368 182 342 171ZM234 464H341C355 450 369 434 383 416H193C206 434 221 450 234 464ZM421 256H155C150 270 147 285 147 301C147 302 147 303 147 304H428C428 303 429 302 429 301C429 285 425 270 421 256ZM172 384H403C412 369 419 352 424 336H152C157 352 164 369 172 384Z" class="fa-primary"/></svg>