<svg xmlns="http://www.w3.org/2000/svg" viewBox="0 0 640 512"><!-- Font Awesome Pro 6.0.0-alpha1 by @fontawesome - https://fontawesome.com License - https://fontawesome.com/license (Commercial License) --><defs><style>.fa-secondary{opacity:.4}</style></defs><path d="M105 362C99 369 96 377 96 384C96 400 109 416 128 416H407L159 222C156 313 123 342 105 362ZM320 512C355 512 384 483 384 448H256C256 483 285 512 320 512ZM535 362C516 342 480 310 480 208C480 130 426 68 352 53V32C352 14 338 0 320 0C302 0 288 14 288 32V53C245 62 210 87 187 121L540 398C542 394 544 389 544 384C544 376 541 368 535 362Z" class="fa-secondary"/><path d="M616 512C611 512 606 510 601 507L9 43C-1 35 -3 20 5 9C13 -1 28 -3 39 5L631 469C641 477 643 492 635 503C630 509 623 512 616 512Z" class="fa-primary"/></svg>