<svg xmlns="http://www.w3.org/2000/svg" viewBox="0 0 512 512"><!-- Font Awesome Pro 6.0.0-alpha1 by @fontawesome - https://fontawesome.com License - https://fontawesome.com/license (Commercial License) --><defs><style>.fa-secondary{opacity:.4}</style></defs><path d="M416 208C416 93 323 0 208 0S0 93 0 208S93 416 208 416S416 323 416 208ZM128 208C128 164 164 128 208 128S288 164 288 208S252 288 208 288S128 252 128 208Z" class="fa-secondary"/><path d="M464 352C438 352 416 374 416 400C416 416 424 431 437 439C431 454 417 464 400 464H352V358C315 394 264 416 208 416S101 394 64 358V480C64 498 78 512 96 512H400C442 512 478 482 486 442C501 434 512 418 512 400C512 374 490 352 464 352ZM208 256C234 256 256 234 256 208S234 160 208 160S160 182 160 208S182 256 208 256Z" class="fa-primary"/></svg>