<svg xmlns="http://www.w3.org/2000/svg" viewBox="0 0 448 512"><!-- Font Awesome Pro 6.0.0-alpha1 by @fontawesome - https://fontawesome.com License - https://fontawesome.com/license (Commercial License) --><defs><style>.fa-secondary{opacity:.4}</style></defs><path d="M439 362C420 342 384 310 384 208C384 130 330 68 256 53V32C256 14 242 0 224 0S192 14 192 32V53C118 68 64 130 64 208C64 310 28 342 9 362C3 369 0 377 0 384C0 400 13 416 32 416H416C435 416 448 400 448 384C448 377 445 369 439 362Z" class="fa-secondary"/><path d="M288 448C288 483 259 512 224 512S160 483 160 448H288Z" class="fa-primary"/></svg>