<svg xmlns="http://www.w3.org/2000/svg" viewBox="0 0 512 512"><!-- Font Awesome Pro 6.0.0-alpha1 by @fontawesome - https://fontawesome.com License - https://fontawesome.com/license (Commercial License) --><defs><style>.fa-secondary{opacity:.4}</style></defs><path d="M208 112H232V145C240 144 248 144 256 144S272 144 280 145V112H304C313 112 320 105 320 96V80C320 71 313 64 304 64H208C199 64 192 71 192 80V96C192 105 199 112 208 112ZM496 400H16C7 400 0 407 0 416V432C0 441 7 448 16 448H496C505 448 512 441 512 432V416C512 407 505 400 496 400Z" class="fa-secondary"/><path d="M480 368H32C32 244 132 144 256 144S480 244 480 368Z" class="fa-primary"/></svg>