<svg xmlns="http://www.w3.org/2000/svg" viewBox="0 0 512 512"><!-- Font Awesome Pro 6.0.0-alpha1 by @fontawesome - https://fontawesome.com License - https://fontawesome.com/license (Commercial License) --><defs><style>.fa-secondary{opacity:.4}</style></defs><path d="M400 32H336C327 32 320 39 320 48V96H416V48C416 39 409 32 400 32ZM224 288H288V128H224V288ZM176 32H112C103 32 96 39 96 48V96H192V48C192 39 185 32 176 32Z" class="fa-secondary"/><path d="M64 160C61 254 3 274 0 404V448C0 466 14 480 32 480H160C178 480 192 466 192 448V288H224V128H96C78 128 64 142 64 160ZM448 160C448 142 434 128 416 128H288V288H320V448C320 466 334 480 352 480H480C498 480 512 466 512 448V404C509 274 451 254 448 160Z" class="fa-primary"/></svg>