<svg xmlns="http://www.w3.org/2000/svg" viewBox="0 0 448 512"><!-- Font Awesome Pro 6.0.0-alpha1 by @fontawesome - https://fontawesome.com License - https://fontawesome.com/license (Commercial License) --><defs><style>.fa-secondary{opacity:.4}</style></defs><path d="M448 128C448 128 448 262 448 301C446 258 411 224 368 224H128C57 224 0 281 0 352V128C0 75 43 32 96 32H352C405 32 448 75 448 128Z" class="fa-secondary"/><path d="M448 432V464C448 473 441 480 432 480H128C57 480 0 423 0 352C0 281 57 224 128 224H368C411 224 446 258 448 301L448 312C443 354 405 384 363 384H128C110 384 96 370 96 352S110 320 128 320H368C377 320 384 313 384 304S377 288 368 288H128C93 288 64 317 64 352S93 416 128 416H432C441 416 448 423 448 432Z" class="fa-primary"/></svg>