<svg xmlns="http://www.w3.org/2000/svg" viewBox="0 0 576 512"><!-- Font Awesome Pro 6.0.0-alpha1 by @fontawesome - https://fontawesome.com License - https://fontawesome.com/license (Commercial License) --><defs><style>.fa-secondary{opacity:.4}</style></defs><path d="M400 64H558L576 0H192V352H480L498 288H400C391 288 384 281 384 272S391 256 400 256H506L524 192H400C391 192 384 185 384 176S391 160 400 160H532L550 96H400C391 96 384 89 384 80S391 64 400 64Z" class="fa-secondary"/><path d="M116 123C123 123 130 119 133 112L159 49C162 42 159 33 152 29L113 5C98 -4 80 0 69 12C-24 116 -23 271 71 374C81 385 100 387 113 379L152 355C159 351 162 342 159 335L133 272C130 265 123 261 116 261L71 266C54 219 53 166 71 118L116 123ZM400 288H497L506 256H400C391 256 384 263 384 272C384 281 391 288 400 288ZM400 192H524L532 160H400C391 160 384 167 384 176C384 185 391 192 400 192ZM400 64C391 64 384 71 384 80C384 89 391 96 400 96H550L559 64H400ZM480 384H224C189 384 160 413 160 448V480C160 498 174 512 192 512H512C530 512 544 498 544 480V448C544 413 515 384 480 384ZM352 480C334 480 320 466 320 448S334 416 352 416S384 430 384 448S370 480 352 480Z" class="fa-primary"/></svg>