<svg xmlns="http://www.w3.org/2000/svg" viewBox="0 0 512 512"><!-- Font Awesome Pro 6.0.0-alpha1 by @fontawesome - https://fontawesome.com License - https://fontawesome.com/license (Commercial License) --><defs><style>.fa-secondary{opacity:.4}</style></defs><path d="M96 128H0L16 64C16 64 16 64 16 64H96V128ZM96 160H16L0 224H96V160ZM128 160V224H512L496 160H128ZM496 64H128V128H512L496 64C496 64 496 64 496 64Z" class="fa-secondary"/><path d="M512 16V48C512 57 505 64 496 64H128V419C150 426 163 449 159 472C155 495 135 512 112 512S69 495 65 472C61 449 74 426 96 419V64H16C7 64 0 57 0 48V16C0 7 7 0 16 0H496C505 0 512 7 512 16Z" class="fa-primary"/></svg>