<svg xmlns="http://www.w3.org/2000/svg" viewBox="0 0 512 512"><!-- Font Awesome Pro 6.0.0-alpha1 by @fontawesome - https://fontawesome.com License - https://fontawesome.com/license (Commercial License) --><defs><style>.fa-secondary{opacity:.4}</style></defs><path d="M96 64H16L0 112H96V64ZM496 64H128V112H512L496 64ZM96 211V192H16L0 240H67C72 226 82 216 96 211ZM128 192V211C142 216 152 226 157 240H512L496 192H128ZM16 320L0 368H512L496 320H16ZM16 464L0 512H512L496 464H16Z" class="fa-secondary"/><path d="M512 16V48C512 57 505 64 496 64H128V211C147 218 160 235 160 256C160 282 138 304 112 304S64 282 64 256C64 235 77 218 96 211V64H16C7 64 0 57 0 48V16C0 7 7 0 16 0H496C505 0 512 7 512 16Z" class="fa-primary"/></svg>