<svg xmlns="http://www.w3.org/2000/svg" viewBox="0 0 384 512"><!-- Font Awesome Pro 6.0.0-alpha1 by @fontawesome - https://fontawesome.com License - https://fontawesome.com/license (Commercial License) --><defs><style>.fa-secondary{opacity:.4}</style></defs><path d="M316 238C329 222 341 193 343 173C351 96 291 32 216 32H16C7 32 0 39 0 48V96C0 105 7 112 16 112H48V400H16C7 400 0 407 0 416V464C0 473 7 480 16 480H226C297 480 360 428 367 358C372 309 351 266 316 238ZM128 112H216C243 112 264 134 264 160S243 208 216 208H128V112ZM216 400H128V288H216C247 288 272 313 272 344S247 400 216 400Z" class="fa-secondary"/></svg>