<svg xmlns="http://www.w3.org/2000/svg" viewBox="0 0 448 512"><!-- Font Awesome Pro 6.0.0-alpha1 by @fontawesome - https://fontawesome.com License - https://fontawesome.com/license (Commercial License) --><defs><style>.fa-secondary{opacity:.4}</style></defs><path d="M416 384V448H96C78 448 64 434 64 416C64 398 78 384 96 384H416Z" class="fa-secondary"/><path d="M96 384H424C437 384 448 373 448 360V32C448 14 434 0 416 0H96C43 0 0 43 0 96V416C0 469 43 512 96 512H424C437 512 448 501 448 488V472C448 459 437 448 424 448H96C78 448 64 434 64 416C64 398 78 384 96 384ZM240 64C275 64 304 93 304 128S275 192 240 192C205 192 176 163 176 128S205 64 240 64ZM208 224H272C316 224 352 260 352 304C352 313 345 320 336 320H144C135 320 128 313 128 304C128 260 164 224 208 224Z" class="fa-primary"/></svg>