<svg xmlns="http://www.w3.org/2000/svg" viewBox="0 0 448 512"><!-- Font Awesome Pro 6.0.0-alpha1 by @fontawesome - https://fontawesome.com License - https://fontawesome.com/license (Commercial License) --><defs><style>.fa-secondary{opacity:.4}</style></defs><path d="M416 384V448H96C78 448 64 434 64 416C64 398 78 384 96 384H416Z" class="fa-secondary"/><path d="M240 97C232 105 219 132 217 176H264C261 132 248 105 240 97ZM334 208H295C294 235 289 259 281 278C309 265 329 239 334 208ZM263 208H217C219 252 232 279 240 287C248 279 261 252 263 208ZM334 176C329 145 309 119 281 106C289 125 294 149 295 176H334ZM96 384H424C437 384 448 373 448 360V32C448 14 434 0 416 0H96C43 0 0 43 0 96V416C0 469 43 512 96 512H424C437 512 448 501 448 488V472C448 459 437 448 424 448H96C78 448 64 434 64 416C64 398 78 384 96 384ZM240 64C311 64 368 121 368 192S311 320 240 320S112 263 112 192S169 64 240 64ZM199 278C191 259 186 235 185 208H146C151 239 171 265 199 278ZM199 106C171 119 151 145 146 176H185C186 149 191 125 199 106Z" class="fa-primary"/></svg>