<svg xmlns="http://www.w3.org/2000/svg" viewBox="0 0 448 512"><!-- Font Awesome Pro 6.0.0-alpha1 by @fontawesome - https://fontawesome.com License - https://fontawesome.com/license (Commercial License) --><defs><style>.fa-secondary{opacity:.4}</style></defs><path d="M416 384V448H96C78 448 64 434 64 416C64 398 78 384 96 384H416Z" class="fa-secondary"/><path d="M96 384H424C437 384 448 373 448 360V32C448 14 434 0 416 0H96C43 0 0 43 0 96V416C0 469 43 512 96 512H424C437 512 448 501 448 488V472C448 459 437 448 424 448H96C78 448 64 434 64 416S78 384 96 384ZM133 160L154 182C158 185 162 185 166 182S169 174 166 170L139 144C149 123 166 106 186 95C169 122 175 157 200 177C186 192 181 213 186 233C192 252 209 267 228 271L230 238L219 245C219 246 218 246 217 246C216 246 215 245 214 245C214 244 213 243 213 242C213 241 213 240 214 240L222 226L204 222C202 221 201 220 201 218S202 214 204 214L222 210L214 196C213 194 213 192 214 191S218 189 219 190L231 199L236 88C236 86 238 84 240 84S244 86 244 88L249 200L263 190C263 190 264 190 265 190C267 190 268 190 269 192S269 195 268 196L260 210L278 214C280 214 281 216 281 218S280 221 278 222L260 225L268 240C269 241 269 242 269 244S267 246 265 246C264 246 263 246 263 245L250 236L252 271C271 267 288 252 294 232C300 213 294 192 280 177C305 157 311 122 294 95C315 106 331 123 341 144L314 170C311 173 311 178 314 182S323 185 326 182L347 160C350 170 352 181 352 192C352 193 352 193 352 194L315 226C313 228 312 230 312 232C312 234 313 236 314 237C316 239 318 240 320 240C322 240 324 239 325 238L349 217C337 267 293 304 240 304S143 267 131 217L155 238C156 239 158 240 160 240C163 240 166 238 167 235C169 232 168 228 165 226L128 194C128 193 128 193 128 192C128 181 130 170 133 160Z" class="fa-primary"/></svg>