<svg xmlns="http://www.w3.org/2000/svg" viewBox="0 0 448 512"><!-- Font Awesome Pro 6.0.0-alpha1 by @fontawesome - https://fontawesome.com License - https://fontawesome.com/license (Commercial License) --><defs><style>.fa-secondary{opacity:.4}</style></defs><path d="M352 384C370 384 384 398 384 416C384 434 370 448 352 448H32V384H352Z" class="fa-secondary"/><path d="M131 169L114 140H149L131 169ZM114 245H149L131 215L114 245ZM208 297L225 269H191L208 297ZM208 87L191 115H225L208 87ZM239 139H177L145 192L177 245H239L271 192L239 139ZM302 139H267L285 169L302 139ZM448 96V416C448 469 405 512 352 512H24C11 512 0 501 0 488V472C0 459 11 448 24 448H352C370 448 384 434 384 416C384 398 370 384 352 384H24C11 384 0 373 0 360V32C0 14 14 0 32 0H352C405 0 448 43 448 96ZM326 238L299 192L326 146C330 140 330 132 326 126C323 119 316 116 309 116H253L225 69C222 63 215 59 208 59S194 63 191 69L163 115H107C100 115 93 119 89 126C86 132 86 139 90 146L117 192L90 238C86 245 86 252 90 258C93 265 100 269 107 269H163L191 315C194 321 201 325 208 325C215 325 222 321 225 315L253 269H309C316 269 323 265 327 258C330 252 330 245 326 238ZM267 245H302L285 215L267 245Z" class="fa-primary"/></svg>