<svg xmlns="http://www.w3.org/2000/svg" viewBox="0 0 448 512"><!-- Font Awesome Pro 6.0.0-alpha1 by @fontawesome - https://fontawesome.com License - https://fontawesome.com/license (Commercial License) --><defs><style>.fa-secondary{opacity:.4}</style></defs><path d="M416 384V448H96C78 448 64 434 64 416C64 398 78 384 96 384H416Z" class="fa-secondary"/><path d="M96 384H424C437 384 448 373 448 360V32C448 14 434 0 416 0H96C43 0 0 43 0 96V416C0 469 43 512 96 512H424C437 512 448 501 448 488V472C448 459 437 448 424 448H96C78 448 64 434 64 416C64 398 78 384 96 384ZM128 166C128 157 135 150 144 150H198V96C198 87 205 80 214 80H266C275 80 282 87 282 96V150H336C345 150 352 157 352 166V218C352 227 345 234 336 234H282V288C282 297 275 304 266 304H214C205 304 198 297 198 288V234H144C135 234 128 227 128 218V166Z" class="fa-primary"/></svg>