<svg xmlns="http://www.w3.org/2000/svg" viewBox="0 0 640 512"><!-- Font Awesome Pro 6.0.0-alpha1 by @fontawesome - https://fontawesome.com License - https://fontawesome.com/license (Commercial License) --><defs><style>.fa-secondary{opacity:.4}</style></defs><path d="M64 32V356L304 416V40L101 0C82 -3 64 13 64 32ZM539 0L336 40V416L576 356V32C576 13 558 -3 539 0Z" class="fa-secondary"/><path d="M313 511L25 447C10 444 0 431 0 416V64C0 43 20 28 40 33L64 39V365C64 380 74 393 89 396L320 447L551 396C566 393 576 380 576 365V39L600 33C620 28 640 43 640 64V416C640 431 630 444 615 447L327 511C322 512 318 512 313 511Z" class="fa-primary"/></svg>