<svg xmlns="http://www.w3.org/2000/svg" viewBox="0 0 448 512"><!-- Font Awesome Pro 6.0.0-alpha1 by @fontawesome - https://fontawesome.com License - https://fontawesome.com/license (Commercial License) --><defs><style>.fa-secondary{opacity:.4}</style></defs><path d="M352 384C370 384 384 398 384 416C384 434 370 448 352 448H32V384H352Z" class="fa-secondary"/><path d="M352 0H32C14 0 0 14 0 32V360C0 373 11 384 24 384H352C370 384 384 398 384 416C384 434 370 448 352 448H24C11 448 0 459 0 472V488C0 501 11 512 24 512H352C405 512 448 469 448 416V96C448 43 405 0 352 0ZM282 292C263 305 240 312 216 312C150 312 96 258 96 192S150 72 216 72C240 72 263 79 282 92C286 94 287 98 285 102C284 106 280 108 276 107C269 105 262 104 256 104C207 104 168 143 168 192S207 280 256 280C262 280 269 279 276 277C280 277 284 279 285 282C287 286 286 290 282 292ZM327 177L306 197L311 225C311 228 310 230 307 230C307 230 306 230 306 229L280 216L254 229C254 230 253 230 253 230C250 230 248 228 249 225L254 197L233 177C231 175 232 171 235 170L264 166L277 140C277 139 279 138 280 138S283 139 283 140L296 166L325 170C328 171 329 175 327 177Z" class="fa-primary"/></svg>