<svg xmlns="http://www.w3.org/2000/svg" viewBox="0 0 512 512"><!-- Font Awesome Pro 6.0.0-alpha1 by @fontawesome - https://fontawesome.com License - https://fontawesome.com/license (Commercial License) --><defs><style>.fa-secondary{opacity:.4}</style></defs><path d="M352 96C352 43 309 0 256 0S160 43 160 96S203 192 256 192S352 149 352 96Z" class="fa-secondary"/><path d="M0 219V432C0 446 12 458 26 459C75 461 180 471 240 512V245C181 206 80 195 30 192C14 191 0 203 0 219ZM482 192C432 195 331 205 272 245C272 245 272 245 272 245V512C332 472 437 461 486 459C500 458 512 446 512 432V219C512 203 498 191 482 192Z" class="fa-primary"/></svg>