<svg xmlns="http://www.w3.org/2000/svg" viewBox="0 0 512 512"><!-- Font Awesome Pro 6.0.0-alpha1 by @fontawesome - https://fontawesome.com License - https://fontawesome.com/license (Commercial License) --><defs><style>.fa-secondary{opacity:.4}</style></defs><path d="M0 384H128V128H0V384ZM96 0H32C14 0 0 14 0 32V96H128V32C128 14 114 0 96 0ZM0 480C0 498 14 512 32 512H96C114 512 128 498 128 480V416H0V480ZM412 85L290 118L298 149L420 116L412 85ZM486 363L364 396L372 427L494 394L486 363ZM160 384H288V128H160V384ZM160 480C160 498 174 512 192 512H256C274 512 288 498 288 480V416H160V480ZM273 57C270 43 275 30 286 22C282 10 270 0 256 0H192C174 0 160 14 160 32V96H284L273 57Z" class="fa-secondary"/><path d="M0 128H128V96H0V128ZM0 416H128V384H0V416ZM160 416H288V384H160V416ZM511 455L494 394L372 427L388 488C393 505 410 515 427 511L488 494C505 490 515 472 511 455ZM420 116L298 149L364 396L486 363L420 116ZM396 24C391 7 374 -3 357 1L296 18C279 22 269 40 273 57L284 96H160V128H288V113L290 118L412 85L396 24Z" class="fa-primary"/></svg>