<svg xmlns="http://www.w3.org/2000/svg" viewBox="0 0 512 512"><!-- Font Awesome Pro 6.0.0-alpha1 by @fontawesome - https://fontawesome.com License - https://fontawesome.com/license (Commercial License) --><defs><style>.fa-secondary{opacity:.4}</style></defs><path d="M0 32V496C0 505 7 512 16 512H48C57 512 64 505 64 496V64H160V0H32C14 0 0 14 0 32ZM480 0H448V496C448 505 455 512 464 512H496C505 512 512 505 512 496V32C512 14 498 0 480 0Z" class="fa-secondary"/><path d="M448 0V400C448 426 426 448 400 448C376 448 356 430 352 406C348 430 328 448 304 448S260 430 256 406C252 430 232 448 208 448C182 448 160 426 160 400V0H448Z" class="fa-primary"/></svg>