<svg xmlns="http://www.w3.org/2000/svg" viewBox="0 0 576 512"><!-- Font Awesome Pro 6.0.0-alpha1 by @fontawesome - https://fontawesome.com License - https://fontawesome.com/license (Commercial License) --><defs><style>.fa-secondary{opacity:.4}</style></defs><path d="M522 160C528 135 544 112 544 72C544 24 512 0 480 0C448 0 416 24 416 72C416 112 432 135 438 160H522ZM522 192H438C437 201 435 210 432 219C442 245 448 274 448 304C448 358 430 407 400 447C407 465 415 481 422 495C428 505 439 512 451 512H509C521 512 532 505 538 495C554 464 576 421 576 368C576 309 529 251 522 192ZM123 192C108 192 96 204 96 219C96 233 108 245 123 245C137 245 149 233 149 219C149 204 137 192 123 192ZM197 147C183 147 171 159 171 173S183 200 197 200C212 200 224 188 224 173S212 147 197 147ZM197 235C183 235 171 247 171 261S183 288 197 288C212 288 224 276 224 261S212 235 197 235Z" class="fa-secondary"/><path d="M438 160L438 192H522L522 160H438ZM208 96C93 96 0 189 0 304S93 512 208 512S416 419 416 304S323 96 208 96ZM123 245C108 245 96 233 96 219C96 204 108 192 123 192C137 192 149 204 149 219C149 233 137 245 123 245ZM197 288C183 288 171 276 171 261S183 235 197 235C212 235 224 247 224 261S212 288 197 288ZM197 200C183 200 171 188 171 173S183 147 197 147C212 147 224 159 224 173S212 200 197 200Z" class="fa-primary"/></svg>