<svg xmlns="http://www.w3.org/2000/svg" viewBox="0 0 512 512"><!-- Font Awesome Pro 6.0.0-alpha1 by @fontawesome - https://fontawesome.com License - https://fontawesome.com/license (Commercial License) --><defs><style>.fa-secondary{opacity:.4}</style></defs><path d="M177 14C176 6 169 0 161 0H144C140 0 135 2 132 5C129 9 128 13 128 18C132 50 146 80 169 102C181 114 188 130 191 147C192 154 199 160 207 160H224C233 160 241 151 240 142C236 114 223 87 203 67C189 53 180 34 177 14ZM315 67C301 53 292 34 289 14C288 6 281 0 273 0H256C246 0 239 9 240 18C244 50 258 80 281 102C292 114 300 130 303 147H303C304 154 311 160 319 160H336C345 160 353 151 352 142C348 114 335 87 315 67Z" class="fa-secondary"/><path d="M480 192H32C14 192 0 206 0 224C0 319 51 401 128 446V480C128 498 142 512 160 512H352C370 512 384 498 384 480V446C461 401 512 319 512 224C512 206 498 192 480 192Z" class="fa-primary"/></svg>