<svg xmlns="http://www.w3.org/2000/svg" viewBox="0 0 640 512"><!-- Font Awesome Pro 6.0.0-alpha1 by @fontawesome - https://fontawesome.com License - https://fontawesome.com/license (Commercial License) --><defs><style>.fa-secondary{opacity:.4}</style></defs><path d="M240 160V32H208V160H0V432C0 458 22 480 48 480H291C250 439 224 383 224 320S250 201 291 160H240Z" class="fa-secondary"/><path d="M415 99L391 54C386 41 374 32 360 32H240V160H291C324 128 367 106 415 99ZM56 54L0 159C0 159 0 159 1 160H208V32H87C73 32 61 41 56 54ZM448 128C342 128 256 214 256 320S342 512 448 512S640 426 640 320S554 128 448 128ZM537 289L441 385C436 390 430 392 424 392S411 390 407 385L359 337C349 328 349 312 359 303S383 294 393 303L424 334L503 255C512 246 527 246 537 255S546 280 537 289Z" class="fa-primary"/></svg>