<svg xmlns="http://www.w3.org/2000/svg" viewBox="0 0 512 512"><!-- Font Awesome Pro 6.0.0-alpha1 by @fontawesome - https://fontawesome.com License - https://fontawesome.com/license (Commercial License) --><defs><style>.fa-secondary{opacity:.4}</style></defs><path d="M512 256V384H0V256C0 238 14 224 32 224H109L122 288H80C71 288 64 295 64 304S71 320 80 320H432C441 320 448 313 448 304S441 288 432 288H393L411 224H480C498 224 512 238 512 256Z" class="fa-secondary"/><path d="M0 384V480C0 498 14 512 32 512H480C498 512 512 498 512 480V384H0ZM384 320L448 96H339C308 96 282 77 272 48C262 19 236 0 205 0H64L128 320H384Z" class="fa-primary"/></svg>