<svg xmlns="http://www.w3.org/2000/svg" viewBox="0 0 576 512"><!-- Font Awesome Pro 6.0.0-alpha1 by @fontawesome - https://fontawesome.com License - https://fontawesome.com/license (Commercial License) --><defs><style>.fa-secondary{opacity:.4}</style></defs><path d="M576 192V319L575 320H1L0 319V192C0 174 14 160 32 160H128V224H80C71 224 64 231 64 240V240C64 249 71 256 80 256H496C505 256 512 249 512 240V240C512 231 505 224 496 224H448V160H544C562 160 576 174 576 192Z" class="fa-secondary"/><path d="M0 320V464C0 490 22 512 48 512H528C554 512 576 490 576 464V320H0ZM448 24C448 11 437 0 424 0H152C139 0 128 11 128 24V256H448V24Z" class="fa-primary"/></svg>