<svg xmlns="http://www.w3.org/2000/svg" viewBox="0 0 640 512"><!-- Font Awesome Pro 6.0.0-alpha1 by @fontawesome - https://fontawesome.com License - https://fontawesome.com/license (Commercial License) --><defs><style>.fa-secondary{opacity:.4}</style></defs><path d="M53 41L2 144C-3 153 2 164 12 167L210 223C217 225 224 222 228 216L320 64L70 32C63 31 56 35 53 41ZM638 144L587 41C584 35 577 31 570 32L320 64L412 216C416 222 423 225 430 223L628 167C638 164 643 153 638 144Z" class="fa-secondary"/><path d="M576 182V394C576 408 566 421 552 424L335 478C325 481 315 481 304 478L88 424C74 421 64 408 64 394V182L210 223C217 225 224 222 228 216L320 64L320 64L412 216C415 222 423 225 430 223L576 182Z" class="fa-primary"/></svg>