<svg xmlns="http://www.w3.org/2000/svg" viewBox="0 0 512 512"><!-- Font Awesome Pro 6.0.0-alpha1 by @fontawesome - https://fontawesome.com License - https://fontawesome.com/license (Commercial License) --><defs><style>.fa-secondary{opacity:.4}</style></defs><path d="M384 400V464C384 490 362 512 336 512H112C86 512 64 490 64 464V400H195L167 419C160 424 158 434 163 441C166 446 171 448 176 448C179 448 182 447 185 445L224 419L263 445C266 447 269 448 272 448C277 448 282 446 285 441C290 434 288 424 281 419L253 400H384Z" class="fa-secondary"/><path d="M442 326L384 384V400H253L281 381C288 376 290 366 285 359C280 352 270 350 263 355L224 381L185 355C178 350 168 352 163 359C158 366 160 376 167 381L195 400H64V359C44 342 32 316 32 288V96H32C32 95 32 95 32 94C32 42 76 0 128 0H320C373 0 416 43 416 96V128C387 128 348 123 320 161V160H173C151 160 130 152 113 138C110 135 105 135 102 138L90 150C87 153 87 158 91 161C114 181 143 192 173 192H306C305 197 304 203 304 208C304 249 335 283 375 288C380 288 384 284 384 280V264C384 260 381 256 377 255C353 252 334 230 336 203C339 178 362 160 388 160H416C451 160 480 189 480 224C480 238 483 285 442 326Z" class="fa-primary"/></svg>