<svg xmlns="http://www.w3.org/2000/svg" viewBox="0 0 576 512"><!-- Font Awesome Pro 6.0.0-alpha1 by @fontawesome - https://fontawesome.com License - https://fontawesome.com/license (Commercial License) --><defs><style>.fa-secondary{opacity:.4}</style></defs><path d="M567 233L521 188C515 182 512 174 512 166V128C512 75 469 32 416 32H384C366 32 352 46 352 64V64C352 82 366 96 384 96H416C434 96 448 110 448 128V166C448 191 458 215 476 233L499 256L476 279C458 297 448 321 448 346V384C448 402 434 416 416 416H384C366 416 352 430 352 448V448C352 466 366 480 384 480H416C469 480 512 437 512 384V346C512 338 515 330 521 324L567 279C579 266 579 246 567 233Z" class="fa-secondary"/><path d="M183 32H151C98 32 55 75 55 128V166C55 174 51 182 45 188L0 233C-12 246 -12 266 0 279L45 324C51 330 55 338 55 346V384C55 437 98 480 151 480H183C200 480 215 466 215 448V448C215 430 200 416 183 416H151C133 416 119 402 119 384V346C119 321 109 297 91 279L68 256L90 233C109 215 119 191 119 165V128C119 110 133 96 151 96H183C200 96 215 82 215 64V64C215 46 200 32 183 32Z" class="fa-primary"/></svg>