<svg xmlns="http://www.w3.org/2000/svg" viewBox="0 0 512 512"><!-- Font Awesome Pro 6.0.0-alpha1 by @fontawesome - https://fontawesome.com License - https://fontawesome.com/license (Commercial License) --><defs><style>.fa-secondary{opacity:.4}</style></defs><path d="M384 480C374 480 364 475 357 466C348 451 352 431 366 421C369 419 448 364 448 256S369 93 366 91C352 81 348 61 358 46C367 32 387 28 402 37C406 40 512 113 512 256S406 472 402 475C396 478 390 480 384 480Z" class="fa-secondary"/><path d="M128 480C122 480 116 478 110 475C106 472 0 399 0 256S106 40 110 37C125 28 145 32 155 46C164 61 160 81 146 91C142 93 64 148 64 256C64 364 143 419 146 421C160 431 164 451 154 466C148 475 138 480 128 480Z" class="fa-primary"/></svg>