<svg xmlns="http://www.w3.org/2000/svg" viewBox="0 0 640 512"><!-- Font Awesome Pro 6.0.0-alpha1 by @fontawesome - https://fontawesome.com License - https://fontawesome.com/license (Commercial License) --><defs><style>.fa-secondary{opacity:.4}</style></defs><path d="M320 32C196 32 96 132 96 256S196 480 320 480S544 380 544 256S444 32 320 32ZM320 384C302 384 288 370 288 352S302 320 320 320S352 334 352 352S338 384 320 384ZM346 274C345 282 338 288 330 288H310C302 288 295 282 294 274L282 146C281 136 288 128 298 128H342C352 128 359 136 358 146L346 274Z" class="fa-secondary"/><path d="M342 128H298C288 128 281 136 282 146L294 274C295 282 302 288 310 288H330C338 288 345 282 346 274L358 146C359 136 352 128 342 128ZM320 320C302 320 288 334 288 352S302 384 320 384S352 370 352 352S338 320 320 320ZM101 70L89 59C82 53 71 54 66 61C23 117 0 186 0 256S23 395 66 451C71 458 82 459 89 453L101 442C108 437 109 427 103 420C67 373 48 315 48 256S67 139 103 91C109 85 108 75 101 70ZM573 60C567 52 556 52 549 58L537 68C531 74 530 83 535 90C572 138 592 196 592 256S572 375 535 422C530 429 531 438 537 444L550 454C557 460 567 460 573 452C616 396 640 327 640 256S616 116 573 60Z" class="fa-primary"/></svg>