<svg xmlns="http://www.w3.org/2000/svg" viewBox="0 0 640 512"><!-- Font Awesome Pro 6.0.0-alpha1 by @fontawesome - https://fontawesome.com License - https://fontawesome.com/license (Commercial License) --><defs><style>.fa-secondary{opacity:.4}</style></defs><path d="M480 192C480 104 373 32 240 32S0 104 0 192C0 227 31 256 64 256V448C64 466 78 480 96 480H384C402 480 416 466 416 448V256C449 256 480 227 480 192Z" class="fa-secondary"/><path d="M640 192C640 227 609 256 576 256V448C576 466 562 480 544 480H384C402 480 416 466 416 448V256C449 256 480 227 480 192C480 104 373 32 240 32H400C533 32 640 104 640 192Z" class="fa-primary"/></svg>