<svg xmlns="http://www.w3.org/2000/svg" viewBox="0 0 512 512"><!-- Font Awesome Pro 6.0.0-alpha1 by @fontawesome - https://fontawesome.com License - https://fontawesome.com/license (Commercial License) --><defs><style>.fa-secondary{opacity:.4}</style></defs><path d="M320 336C320 345 313 352 304 352H208C199 352 192 345 192 336V288H0V432C0 458 22 480 48 480H464C490 480 512 458 512 432V288H320V336Z" class="fa-secondary"/><path d="M464 96H384V48C384 22 362 0 336 0H176C150 0 128 22 128 48V96H48C22 96 0 118 0 144V288H512V144C512 118 490 96 464 96ZM336 96H176V48H336V96Z" class="fa-primary"/></svg>