<svg xmlns="http://www.w3.org/2000/svg" viewBox="0 0 512 512"><!-- Font Awesome Pro 6.0.0-alpha1 by @fontawesome - https://fontawesome.com License - https://fontawesome.com/license (Commercial License) --><defs><style>.fa-secondary{opacity:.4}</style></defs><path d="M512 224V448C512 483 483 512 448 512H224C189 512 160 483 160 448V352H224V432C224 441 231 448 240 448H432C441 448 448 441 448 432V240C448 231 441 224 432 224H352V160H448C483 160 512 189 512 224Z" class="fa-secondary"/><path d="M352 288V64C352 29 323 0 288 0H64C29 0 0 29 0 64V288C0 323 29 352 64 352H288C323 352 352 323 352 288Z" class="fa-primary"/></svg>