<svg xmlns="http://www.w3.org/2000/svg" viewBox="0 0 512 512"><!-- Font Awesome Pro 6.0.0-alpha1 by @fontawesome - https://fontawesome.com License - https://fontawesome.com/license (Commercial License) --><defs><style>.fa-secondary{opacity:.4}</style></defs><path d="M0 224V416C0 451 29 480 64 480H448C483 480 512 451 512 416V224H0ZM76 160H116C123 160 128 155 128 148V108C128 101 123 96 116 96H76C69 96 64 101 64 108V148C64 155 69 160 76 160Z" class="fa-secondary"/><path d="M448 32H64C29 32 0 61 0 96V224H512V96C512 61 483 32 448 32ZM128 148C128 155 123 160 116 160H76C69 160 64 155 64 148V108C64 101 69 96 76 96H116C123 96 128 101 128 108V148ZM448 148C448 155 443 160 436 160H172C165 160 160 155 160 148V108C160 101 165 96 172 96H436C443 96 448 101 448 108V148Z" class="fa-primary"/></svg>