<svg xmlns="http://www.w3.org/2000/svg" viewBox="0 0 576 512"><!-- Font Awesome Pro 6.0.0-alpha1 by @fontawesome - https://fontawesome.com License - https://fontawesome.com/license (Commercial License) --><defs><style>.fa-secondary{opacity:.4}</style></defs><path d="M96 192V352C96 387 125 416 160 416H512C547 416 576 387 576 352V192H96ZM172 128H212C219 128 224 123 224 116V76C224 69 219 64 212 64H172C165 64 160 69 160 76V116C160 123 165 128 172 128Z" class="fa-secondary"/><path d="M512 0H160C125 0 96 29 96 64V192H576V64C576 29 547 0 512 0ZM224 116C224 123 219 128 212 128H172C165 128 160 123 160 116V76C160 69 165 64 172 64H212C219 64 224 69 224 76V116ZM512 116C512 123 507 128 500 128H268C261 128 256 123 256 116V76C256 69 261 64 268 64H500C507 64 512 69 512 76V116ZM48 432V96C22 96 0 118 0 144V448C0 483 29 512 64 512H432C458 512 480 490 480 464H80C62 464 48 450 48 432Z" class="fa-primary"/></svg>