<svg xmlns="http://www.w3.org/2000/svg" viewBox="0 0 576 512"><!-- Font Awesome Pro 6.0.0-alpha1 by @fontawesome - https://fontawesome.com License - https://fontawesome.com/license (Commercial License) --><defs><style>.fa-secondary{opacity:.4}</style></defs><path d="M352 96C352 43 309 0 256 0S160 43 160 96V160H352V96Z" class="fa-secondary"/><path d="M512 288C512 306 498 320 480 320H416V352C416 367 413 381 408 395L471 457C483 470 483 490 471 503C464 509 456 512 448 512S432 509 425 503L371 449C349 468 320 480 288 480H272V240C272 231 265 224 256 224S240 231 240 240V480H224C192 480 163 468 141 449L87 503C80 509 72 512 64 512S48 509 41 503C29 490 29 470 41 457L104 395C99 381 96 367 96 352V320H32C14 320 0 306 0 288S14 256 32 256H96V205L41 151C29 138 29 118 41 105S74 93 87 105L141 160H371L425 105C438 93 458 93 471 105S483 138 471 151L416 205V256H480C498 256 512 270 512 288Z" class="fa-primary"/></svg>