<svg xmlns="http://www.w3.org/2000/svg" viewBox="0 0 512 512"><!-- Font Awesome Pro 6.0.0-alpha1 by @fontawesome - https://fontawesome.com License - https://fontawesome.com/license (Commercial License) --><defs><style>.fa-secondary{opacity:.4}</style></defs><path d="M256 320C221 320 192 291 192 256C192 227 211 203 238 195L297 135C284 131 271 128 256 128C185 128 128 185 128 256S185 384 256 384S384 327 384 256C384 241 381 228 377 215L317 274C309 301 285 320 256 320ZM486 189L466 210C457 219 445 224 432 224C431 224 430 224 429 224C431 234 432 245 432 256C432 353 353 432 256 432S80 353 80 256S159 80 256 80C267 80 278 81 288 83C288 69 292 56 302 46L323 26C301 19 279 16 256 16C123 16 16 123 16 256S123 496 256 496S496 389 496 256C496 233 493 211 486 189Z" class="fa-secondary"/><path d="M507 123L443 187C440 190 436 192 432 192C431 192 430 192 429 192L367 179L281 265C276 270 270 272 264 272C258 272 252 270 247 265C238 256 238 240 247 231L333 145L320 83C319 78 321 72 325 69L389 5C393 1 399 -1 405 1C410 2 415 7 416 13L432 80L499 96C505 97 510 102 511 107C513 113 511 119 507 123Z" class="fa-primary"/></svg>