<svg xmlns="http://www.w3.org/2000/svg" viewBox="0 0 512 512"><!-- Font Awesome Pro 6.0.0-alpha1 by @fontawesome - https://fontawesome.com License - https://fontawesome.com/license (Commercial License) --><defs><style>.fa-secondary{opacity:.4}</style></defs><path d="M59 224H453C488 224 508 180 488 148C448 83 360 32 256 32C153 32 64 83 24 148C4 180 24 224 59 224ZM384 112C393 112 400 119 400 128S393 144 384 144S368 137 368 128S375 112 384 112ZM256 80C265 80 272 87 272 96S265 112 256 112S240 105 240 96S247 80 256 80ZM128 112C137 112 144 119 144 128S137 144 128 144S112 137 112 128S119 112 128 112ZM480 384H32C23 384 16 391 16 400V416C16 451 45 480 80 480H432C467 480 496 451 496 416V400C496 391 489 384 480 384ZM416 256H224L320 320L416 256Z" class="fa-secondary"/><path d="M512 304C512 330 490 352 464 352H48C22 352 0 330 0 304S22 256 48 256H224L320 320L416 256H464C490 256 512 278 512 304Z" class="fa-primary"/></svg>