<svg xmlns="http://www.w3.org/2000/svg" viewBox="0 0 640 512"><!-- Font Awesome Pro 6.0.0-alpha1 by @fontawesome - https://fontawesome.com License - https://fontawesome.com/license (Commercial License) --><defs><style>.fa-secondary{opacity:.4}</style></defs><path d="M320 0H32C13 0 -2 16 0 35L41 483C43 500 57 512 73 512H272C262 499 256 482 256 464C256 449 263 436 273 427C262 416 256 401 256 384C256 365 264 348 278 336C272 331 267 325 264 318C252 297 254 271 267 251C284 227 309 207 337 191L352 35C354 16 339 0 320 0ZM276 160H76L67 64H285L276 160Z" class="fa-secondary"/><path d="M624 448H304C295 448 288 455 288 464C288 490 310 512 336 512H592C618 512 640 490 640 464C640 455 633 448 624 448ZM320 416H608C626 416 640 402 640 384S626 352 608 352H320C302 352 288 366 288 384S302 416 320 416ZM319 320H609C634 320 649 291 634 269C605 226 540 192 464 192S323 226 294 269C279 291 294 320 319 320ZM544 240C553 240 560 247 560 256S553 272 544 272S528 265 528 256S535 240 544 240ZM464 224C473 224 480 231 480 240S473 256 464 256S448 249 448 240S455 224 464 224ZM384 240C393 240 400 247 400 256S393 272 384 272S368 265 368 256S375 240 384 240Z" class="fa-primary"/></svg>