<svg xmlns="http://www.w3.org/2000/svg" viewBox="0 0 576 512"><!-- Font Awesome Pro 6.0.0-alpha1 by @fontawesome - https://fontawesome.com License - https://fontawesome.com/license (Commercial License) --><defs><style>.fa-secondary{opacity:.4}</style></defs><path d="M96 480C96 498 110 512 128 512H160C178 512 192 498 192 480V448H96V480ZM384 448V480C384 498 398 512 416 512H448C466 512 480 498 480 480V448H384ZM448 256V160C448 142 434 128 416 128H304V288H416C434 288 448 274 448 256ZM128 160V256C128 274 142 288 160 288H272V128H160C142 128 128 142 128 160Z" class="fa-secondary"/><path d="M56 256H64V416C64 434 78 448 96 448H486C502 448 512 435 512 422V256H520C533 256 544 245 544 232V152C544 139 533 128 520 128H512V80C512 35 413 0 288 0S64 35 64 80V128H56C43 128 32 139 32 152V232C32 245 43 256 56 256ZM464 368C464 386 450 400 432 400S400 386 400 368S414 336 432 336S464 350 464 368ZM448 160V256C448 274 434 288 416 288H304V128H416C434 128 448 142 448 160ZM208 64H368C377 64 384 71 384 80C384 89 377 96 368 96H208C199 96 192 89 192 80C192 71 199 64 208 64ZM128 160C128 142 142 128 160 128H272V288H160C142 288 128 274 128 256V160ZM144 336C162 336 176 350 176 368S162 400 144 400S112 386 112 368S126 336 144 336Z" class="fa-primary"/></svg>