<svg xmlns="http://www.w3.org/2000/svg" viewBox="0 0 384 512"><!-- Font Awesome Pro 6.0.0-alpha1 by @fontawesome - https://fontawesome.com License - https://fontawesome.com/license (Commercial License) --><defs><style>.fa-secondary{opacity:.4}</style></defs><path d="M217 480C158 480 104 456 63 414C-21 327 -21 185 63 98C104 56 158 32 217 32S330 56 371 98C389 118 388 148 369 166C350 184 320 184 301 165C256 117 177 117 132 165C84 215 84 297 132 347C177 395 256 395 301 347C320 328 350 327 369 346C388 364 389 394 371 414C330 456 275 480 217 480Z" class="fa-secondary"/></svg>