<svg xmlns="http://www.w3.org/2000/svg" viewBox="0 0 512 512"><!-- Font Awesome Pro 6.0.0-alpha1 by @fontawesome - https://fontawesome.com License - https://fontawesome.com/license (Commercial License) --><defs><style>.fa-secondary{opacity:.4}</style></defs><path d="M511 52C509 43 500 38 492 41L12 169C3 171 -2 180 1 188C2 195 9 200 16 200C17 200 19 200 20 199L500 71C509 69 514 60 511 52ZM80 384H176V288H80V384ZM208 384H304V288H208V384ZM336 384H432V288H336V384Z" class="fa-secondary"/><path d="M416 224H272V132L240 141V224H96C61 224 32 253 32 288V448C32 483 61 512 96 512H416C451 512 480 483 480 448V288C480 253 451 224 416 224ZM176 384H80V288H176V384ZM304 384H208V288H304V384ZM432 384H336V288H432V384ZM192 96C210 96 224 82 224 64S210 32 192 32S160 46 160 64S174 96 192 96ZM288 64C306 64 320 50 320 32S306 0 288 0S256 14 256 32S270 64 288 64Z" class="fa-primary"/></svg>