<svg xmlns="http://www.w3.org/2000/svg" viewBox="0 0 512 512"><!-- Font Awesome Pro 6.0.0-alpha1 by @fontawesome - https://fontawesome.com License - https://fontawesome.com/license (Commercial License) --><defs><style>.fa-secondary{opacity:.4}</style></defs><path d="M96 208V144C96 118 74 96 48 96S0 118 0 144V208C0 270 50 320 112 320H160V224H112C103 224 96 217 96 208ZM464 224C438 224 416 246 416 272V336C416 345 409 352 400 352H352V448H400C462 448 512 398 512 336V272C512 246 490 224 464 224Z" class="fa-secondary"/><path d="M261 0C235 -1 209 8 190 26C171 45 160 70 160 96V480C160 498 174 512 192 512H320C338 512 352 498 352 480V101C352 49 313 3 261 0ZM224 176C215 176 208 169 208 160C208 151 215 144 224 144S240 151 240 160C240 169 233 176 224 176ZM288 400C279 400 272 393 272 384C272 375 279 368 288 368S304 375 304 384C304 393 297 400 288 400Z" class="fa-primary"/></svg>