<svg xmlns="http://www.w3.org/2000/svg" viewBox="0 0 448 512"><!-- Font Awesome Pro 6.0.0-alpha1 by @fontawesome - https://fontawesome.com License - https://fontawesome.com/license (Commercial License) --><defs><style>.fa-secondary{opacity:.4}</style></defs><path d="M0 464C0 490 22 512 48 512H400C426 512 448 490 448 464V192H0V464ZM156 318C147 309 147 293 156 284S181 275 190 284L224 318L258 284C267 275 283 275 292 284S301 309 292 318L258 352L292 386C301 395 301 411 292 420C283 429 267 429 258 420L224 386L190 420C181 429 165 429 156 420C147 411 147 395 156 386L190 352L156 318Z" class="fa-secondary"/><path d="M400 64H352V16C352 7 345 0 336 0H304C295 0 288 7 288 16V64H160V16C160 7 153 0 144 0H112C103 0 96 7 96 16V64H48C22 64 0 86 0 112V192H448V112C448 86 426 64 400 64ZM292 284C282 275 267 275 258 284L224 318L190 284C181 275 165 275 156 284S147 309 156 318L190 352L156 386C147 395 147 411 156 420C165 429 181 429 190 420L224 386L258 420C267 429 283 429 292 420C301 411 301 395 292 386L258 352L292 318C301 309 301 293 292 284Z" class="fa-primary"/></svg>