<svg xmlns="http://www.w3.org/2000/svg" viewBox="0 0 448 512"><!-- Font Awesome Pro 6.0.0-alpha1 by @fontawesome - https://fontawesome.com License - https://fontawesome.com/license (Commercial License) --><defs><style>.fa-secondary{opacity:.4}</style></defs><path d="M0 464C0 490 22 512 48 512H400C426 512 448 490 448 464V192H0V464ZM127 327L207 247C216 238 232 238 241 247L321 327C330 336 330 352 321 361C316 366 310 368 304 368S292 366 287 361L248 322V424C248 437 237 448 224 448S200 437 200 424V322L161 361C152 370 136 370 127 361S118 336 127 327Z" class="fa-secondary"/><path d="M400 64H352V16C352 7 345 0 336 0H304C295 0 288 7 288 16V64H160V16C160 7 153 0 144 0H112C103 0 96 7 96 16V64H48C22 64 0 86 0 112V192H448V112C448 86 426 64 400 64ZM241 247C232 238 216 238 207 247L127 327C118 336 118 352 127 361S152 370 161 361L200 322V424C200 437 211 448 224 448S248 437 248 424V322L287 361C292 366 298 368 304 368S316 366 321 361C330 352 330 336 321 327L241 247Z" class="fa-primary"/></svg>