<svg xmlns="http://www.w3.org/2000/svg" viewBox="0 0 512 512"><!-- Font Awesome Pro 6.0.0-alpha1 by @fontawesome - https://fontawesome.com License - https://fontawesome.com/license (Commercial License) --><defs><style>.fa-secondary{opacity:.4}</style></defs><path d="M96 368C96 394 118 416 144 416H464C490 416 512 394 512 368V192H96V368Z" class="fa-secondary"/><path d="M464 64H416V16C416 7 409 0 400 0H368C359 0 352 7 352 16V64H256V16C256 7 249 0 240 0H208C199 0 192 7 192 16V64H144C118 64 96 86 96 112V192H512V112C512 86 490 64 464 64ZM48 432V160C22 160 0 182 0 208V448C0 483 29 512 64 512H368C394 512 416 490 416 464H80C62 464 48 450 48 432Z" class="fa-primary"/></svg>