<svg xmlns="http://www.w3.org/2000/svg" viewBox="0 0 448 512"><!-- Font Awesome Pro 6.0.0-alpha1 by @fontawesome - https://fontawesome.com License - https://fontawesome.com/license (Commercial License) --><defs><style>.fa-secondary{opacity:.4}</style></defs><path d="M0 464C0 490 22 512 48 512H400C426 512 448 490 448 464V192H0V464ZM321 361L241 441C232 450 216 450 207 441L127 361C118 352 118 336 127 327C132 322 138 320 144 320S156 322 161 327L200 366V264C200 251 211 240 224 240S248 251 248 264V366L287 327C296 318 312 318 321 327S330 352 321 361Z" class="fa-secondary"/><path d="M400 64H352V16C352 7 345 0 336 0H304C295 0 288 7 288 16V64H160V16C160 7 153 0 144 0H112C103 0 96 7 96 16V64H48C22 64 0 86 0 112V192H448V112C448 86 426 64 400 64ZM287 327L248 366V264C248 251 237 240 224 240S200 251 200 264V366L161 327C156 322 150 320 144 320S132 322 127 327C118 336 118 352 127 361L207 441C216 450 232 450 241 441L321 361C330 352 330 336 321 327S296 318 287 327Z" class="fa-primary"/></svg>