<svg xmlns="http://www.w3.org/2000/svg" viewBox="0 0 448 512"><!-- Font Awesome Pro 6.0.0-alpha1 by @fontawesome - https://fontawesome.com License - https://fontawesome.com/license (Commercial License) --><defs><style>.fa-secondary{opacity:.4}</style></defs><path d="M0 192V464C0 490 22 512 48 512H400C426 512 448 490 448 464V192H0ZM224 448C206 448 192 434 192 416S206 384 224 384S256 398 256 416S242 448 224 448ZM249 338C249 346 242 352 234 352H214C206 352 199 346 199 338L186 258C185 248 192 240 202 240H246C256 240 263 248 262 258L249 338Z" class="fa-secondary"/><path d="M400 64H352V16C352 7 345 0 336 0H304C295 0 288 7 288 16V64H160V16C160 7 153 0 144 0H112C103 0 96 7 96 16V64H48C22 64 0 86 0 112V192H448V112C448 86 426 64 400 64ZM224 384C206 384 192 398 192 416S206 448 224 448S256 434 256 416S242 384 224 384ZM246 240H202C192 240 185 248 186 258L199 338C199 346 206 352 214 352H234C242 352 249 346 249 338L262 258C263 248 256 240 246 240Z" class="fa-primary"/></svg>