<svg xmlns="http://www.w3.org/2000/svg" viewBox="0 0 448 512"><!-- Font Awesome Pro 6.0.0-alpha1 by @fontawesome - https://fontawesome.com License - https://fontawesome.com/license (Commercial License) --><defs><style>.fa-secondary{opacity:.4}</style></defs><path d="M0 192V464C0 490 22 512 48 512H400C426 512 448 490 448 464V192H0Z" class="fa-secondary"/><path d="M400 64H352V16C352 7 345 0 336 0H304C295 0 288 7 288 16V64H160V16C160 7 153 0 144 0H112C103 0 96 7 96 16V64H48C22 64 0 86 0 112V192H448V112C448 86 426 64 400 64Z" class="fa-primary"/></svg>