<svg xmlns="http://www.w3.org/2000/svg" viewBox="0 0 512 512"><!-- Font Awesome Pro 6.0.0-alpha1 by @fontawesome - https://fontawesome.com License - https://fontawesome.com/license (Commercial License) --><defs><style>.fa-secondary{opacity:.4}</style></defs><path d="M464 32H271C261 32 251 34 242 39L192 64H48C22 64 0 86 0 112V160H512V80C512 54 490 32 464 32ZM256 224C212 224 176 260 176 304C176 348 212 384 256 384S336 348 336 304C336 260 300 224 256 224Z" class="fa-secondary"/><path d="M160 48C160 39 153 32 144 32H80C71 32 64 39 64 48V64H160V48ZM0 160V432C0 458 22 480 48 480H464C490 480 512 458 512 432V160H0ZM256 416C194 416 144 366 144 304C144 242 194 192 256 192S368 242 368 304C368 366 318 416 256 416Z" class="fa-primary"/></svg>