<svg xmlns="http://www.w3.org/2000/svg" viewBox="0 0 576 512"><!-- Font Awesome Pro 6.0.0-alpha1 by @fontawesome - https://fontawesome.com License - https://fontawesome.com/license (Commercial License) --><defs><style>.fa-secondary{opacity:.4}</style></defs><path d="M288 256C323 256 352 227 352 192S323 128 288 128S224 157 224 192S253 256 288 256ZM576 352H0L0 352V448C0 466 14 480 32 480H544C562 480 576 466 576 448V352L576 352ZM464 432H112C103 432 96 425 96 416C96 407 103 400 112 400H464C473 400 480 407 480 416C480 425 473 432 464 432Z" class="fa-secondary"/><path d="M576 352L512 256V80C512 54 490 32 464 32H112C85 32 64 54 64 80V256L0 352H576ZM384 112C384 103 391 96 400 96H432C441 96 448 103 448 112V144C448 153 441 160 432 160H400C391 160 384 153 384 144V112ZM288 128C323 128 352 157 352 192S323 256 288 256S224 227 224 192S253 128 288 128Z" class="fa-primary"/></svg>