<svg xmlns="http://www.w3.org/2000/svg" viewBox="0 0 512 512"><!-- Font Awesome Pro 6.0.0-alpha1 by @fontawesome - https://fontawesome.com License - https://fontawesome.com/license (Commercial License) --><defs><style>.fa-secondary{opacity:.4}</style></defs><path d="M256 384C203 384 160 341 160 288S203 192 256 192S352 235 352 288S309 384 256 384Z" class="fa-secondary"/><path d="M464 96H376L364 63C357 44 339 32 319 32H193C173 32 155 44 148 63L136 96H48C22 96 0 118 0 144V432C0 458 22 480 48 480H464C490 480 512 458 512 432V144C512 118 490 96 464 96ZM256 384C203 384 160 341 160 288S203 192 256 192S352 235 352 288S309 384 256 384Z" class="fa-primary"/></svg>