<svg xmlns="http://www.w3.org/2000/svg" viewBox="0 0 576 512"><!-- Font Awesome Pro 6.0.0-alpha1 by @fontawesome - https://fontawesome.com License - https://fontawesome.com/license (Commercial License) --><defs><style>.fa-secondary{opacity:.4}</style></defs><path d="M368 288H16C7 288 0 295 0 304V336C0 345 7 352 16 352H64V464C64 490 86 512 112 512H368C394 512 416 490 416 464V336C416 310 394 288 368 288ZM128 160C146 160 160 146 160 128C160 110 146 96 128 96S96 110 96 128C96 146 110 160 128 160ZM352 160C370 160 384 146 384 128C384 110 370 96 352 96S320 110 320 128C320 146 334 160 352 160Z" class="fa-secondary"/><path d="M352 0C303 0 262 27 240 67C218 27 177 0 128 0C57 0 0 57 0 128S57 256 128 256H352C423 256 480 199 480 128S423 0 352 0ZM128 192C93 192 64 163 64 128S93 64 128 64S192 93 192 128S163 192 128 192ZM352 192C317 192 288 163 288 128S317 64 352 64S416 93 416 128S387 192 352 192ZM525 262L448 320V448L525 506C546 521 576 506 576 480V288C576 262 546 247 525 262Z" class="fa-primary"/></svg>