<svg xmlns="http://www.w3.org/2000/svg" viewBox="0 0 576 512"><!-- Font Awesome Pro 6.0.0-alpha1 by @fontawesome - https://fontawesome.com License - https://fontawesome.com/license (Commercial License) --><defs><style>.fa-secondary{opacity:.4}</style></defs><path d="M574 448C575 451 576 455 576 459V480C576 498 562 512 544 512H32C14 512 0 498 0 480V459C0 455 1 451 2 448H574Z" class="fa-secondary"/><path d="M2 448H574C573 445 572 442 570 439L328 118L381 44C386 37 385 27 377 22L352 3C344 -2 334 -1 329 7L288 63L247 7C242 -1 232 -2 225 3L199 22C192 27 190 37 195 44L249 118L6 439C5 442 3 445 2 448ZM288 288L404 448H172L288 288Z" class="fa-primary"/></svg>