<svg xmlns="http://www.w3.org/2000/svg" viewBox="0 0 512 512"><!-- Font Awesome Pro 6.0.0-alpha1 by @fontawesome - https://fontawesome.com License - https://fontawesome.com/license (Commercial License) --><defs><style>.fa-secondary{opacity:.4}</style></defs><path d="M16 398C0 407 -5 426 5 441L37 496C46 511 65 517 81 507L168 456L61 370L16 398ZM194 292L312 370L383 328L265 249L194 292ZM370 187L296 231L414 310L429 301C461 282 485 253 499 221L374 183C373 185 371 186 370 187ZM91 353L198 438L282 388L164 310L91 353ZM498 92C492 80 485 69 476 59L383 152C383 152 384 152 384 153L508 190C515 158 513 124 498 92ZM361 129L454 36C425 13 389 0 353 0C341 0 329 2 317 4L359 129C359 129 360 129 361 129ZM265 138C274 152 293 158 309 149L328 138L287 14C281 17 276 19 271 23L243 39C228 48 223 68 232 83L265 138Z" class="fa-secondary"/><path d="M383 153C386 164 382 175 374 183L498 221C502 211 506 200 508 190L383 153ZM453 36L360 129C368 131 375 136 380 144C382 146 382 149 383 152L476 59C469 50 462 43 453 36ZM286 14L327 138L336 133C341 129 347 128 353 128C355 128 356 128 358 129L317 4C306 7 296 10 286 14ZM163 310L281 388L312 370L194 292L163 310ZM265 249L383 328L414 310L295 231L265 249ZM61 370L168 456L197 438L90 353L61 370Z" class="fa-primary"/></svg>