<svg xmlns="http://www.w3.org/2000/svg" viewBox="0 0 512 512"><!-- Font Awesome Pro 6.0.0-alpha1 by @fontawesome - https://fontawesome.com License - https://fontawesome.com/license (Commercial License) --><defs><style>.fa-secondary{opacity:.4}</style></defs><path d="M512 374C512 380 509 386 503 388C501 390 443 420 370 420C364 420 358 420 352 420C364 442 369 458 369 459C371 465 370 471 365 475C361 479 355 481 349 479C348 479 316 469 280 445V304C280 295 273 288 264 288H248C239 288 232 295 232 304V445C196 469 164 479 163 479C157 481 151 479 147 475C142 471 141 465 143 459C143 458 148 442 159 420C154 420 148 420 142 420C69 420 11 390 8 388C3 386 0 380 0 374C0 368 3 363 9 360C10 359 41 343 85 334C21 259 1 173 0 169C-1 163 1 158 5 154C8 151 12 149 16 149C17 149 18 150 19 150C23 151 106 169 180 230V225C180 106 240 11 242 7C246 3 250 0 256 0S266 3 270 7C272 11 332 106 332 225V230C406 169 489 150 493 150C494 150 495 149 496 149C500 149 504 151 507 154C511 158 513 164 512 169C511 173 491 259 427 335C471 343 502 359 503 360C509 363 512 369 512 374Z" class="fa-secondary"/><path d="M280 304V496C280 505 273 512 264 512H248C239 512 232 505 232 496V304C232 295 239 288 248 288H264C273 288 280 295 280 304Z" class="fa-primary"/></svg>