<svg xmlns="http://www.w3.org/2000/svg" viewBox="0 0 576 512"><!-- Font Awesome Pro 6.0.0-alpha1 by @fontawesome - https://fontawesome.com License - https://fontawesome.com/license (Commercial License) --><defs><style>.fa-secondary{opacity:.4}</style></defs><path d="M112 32C51 32 0 83 0 144V256H224V144C224 83 173 32 112 32ZM425 112C390 61 316 48 265 83L265 83C262 86 259 90 256 93V272L304 339L492 208L425 112Z" class="fa-secondary"/><path d="M0 368C0 428 51 479 112 479S224 428 224 368V256H0V368ZM556 300L492 208L304 339L368 431C403 483 476 495 527 460S591 352 556 300Z" class="fa-primary"/></svg>