<svg xmlns="http://www.w3.org/2000/svg" viewBox="0 0 512 512"><!-- Font Awesome Pro 6.0.0-alpha1 by @fontawesome - https://fontawesome.com License - https://fontawesome.com/license (Commercial License) --><defs><style>.fa-secondary{opacity:.4}</style></defs><path d="M0 448C0 466 14 480 32 480H64C82 480 96 466 96 448V400H0V448ZM416 400V448C416 466 430 480 448 480H480C498 480 512 466 512 448V400H416ZM347 96H165C151 96 139 105 135 118L110 192H402L377 118C373 105 361 96 347 96Z" class="fa-secondary"/><path d="M471 196L438 98C425 58 388 32 347 32H165C124 32 87 58 74 98L41 196C17 206 0 229 0 256V400H512V256C512 229 495 206 471 196ZM135 118C139 105 151 96 165 96H347C361 96 373 105 377 118L402 192H110L135 118ZM96 320C78 320 64 306 64 288C64 270 78 256 96 256S128 270 128 288C128 306 114 320 96 320ZM416 320C398 320 384 306 384 288C384 270 398 256 416 256S448 270 448 288C448 306 434 320 416 320Z" class="fa-primary"/></svg>