<svg xmlns="http://www.w3.org/2000/svg" viewBox="0 0 640 512"><!-- Font Awesome Pro 6.0.0-alpha1 by @fontawesome - https://fontawesome.com License - https://fontawesome.com/license (Commercial License) --><defs><style>.fa-secondary{opacity:.4}</style></defs><path d="M416 224H448V160C448 142 434 128 416 128H352C334 128 320 142 320 160V316C329 327 337 339 343 352H448V256H416C407 256 400 249 400 240C400 231 407 224 416 224ZM256 224V160C256 142 242 128 224 128H96C78 128 64 142 64 160V224C64 242 78 256 96 256H224C242 256 256 242 256 224ZM192 336C143 336 104 375 104 424C104 473 143 512 192 512S280 473 280 424C280 375 241 336 192 336Z" class="fa-secondary"/><path d="M624 352H576V192C576 104 504 32 416 32H64C29 32 0 61 0 96V352C0 387 29 416 64 416H73C77 354 128 304 192 304S307 354 311 416H624C633 416 640 409 640 400V368C640 359 633 352 624 352ZM256 224C256 242 242 256 224 256H96C78 256 64 242 64 224V160C64 142 78 128 96 128H224C242 128 256 142 256 160V224ZM448 352H343C337 339 329 327 320 316V160C320 142 334 128 352 128H416C434 128 448 142 448 160V352Z" class="fa-primary"/></svg>