<svg xmlns="http://www.w3.org/2000/svg" viewBox="0 0 512 512"><!-- Font Awesome Pro 6.0.0-alpha1 by @fontawesome - https://fontawesome.com License - https://fontawesome.com/license (Commercial License) --><defs><style>.fa-secondary{opacity:.4}</style></defs><path d="M298 157C245 131 184 146 148 189L203 245C209 251 209 261 203 267C200 270 196 272 192 272S184 270 181 267L130 217L2 480C-1 486 -1 493 2 499C8 511 21 515 32 510L166 445L117 395C110 389 110 379 117 373C123 367 133 367 139 373L196 430L298 380C322 368 343 349 355 323C385 261 360 187 298 157Z" class="fa-secondary"/><path d="M512 152C470 202 404 205 360 160L352 152C307 107 309 42 360 0C399 33 409 81 390 122C431 102 479 112 512 152Z" class="fa-primary"/></svg>