<svg xmlns="http://www.w3.org/2000/svg" viewBox="0 0 512 512"><!-- Font Awesome Pro 6.0.0-alpha1 by @fontawesome - https://fontawesome.com License - https://fontawesome.com/license (Commercial License) --><defs><style>.fa-secondary{opacity:.4}</style></defs><path d="M144 192L208 192V128H304C313 128 320 121 320 112V16C320 7 313 0 304 0H48C39 0 32 7 32 16V112C32 121 39 128 48 128H144V192ZM80 80V48H272V80H80ZM328 248C328 239 321 232 312 232H296C287 232 280 239 280 248V264C280 273 287 280 296 280H312C321 280 328 273 328 264V248ZM264 312H248C239 312 232 319 232 328V344C232 353 239 360 248 360H264C273 360 280 353 280 344V328C280 319 273 312 264 312ZM232 248C232 239 225 232 216 232H200C191 232 184 239 184 248V264C184 273 191 280 200 280H216C225 280 232 273 232 264V248ZM136 248C136 239 129 232 120 232H104C95 232 88 239 88 248V264C88 273 95 280 104 280H120C129 280 136 273 136 264V248ZM168 312H152C143 312 136 319 136 328V344C136 353 143 360 152 360H168C177 360 184 353 184 344V328C184 319 177 312 168 312ZM360 312H344C335 312 328 319 328 328V344C328 353 335 360 344 360H360C369 360 376 353 376 344V328C376 319 369 312 360 312ZM408 232H392C383 232 376 239 376 248V264C376 273 383 280 392 280H408C417 280 424 273 424 264V248C424 239 417 232 408 232Z" class="fa-secondary"/><path d="M511 379L484 219C482 203 469 192 453 192L59 192C44 192 30 203 28 219L1 379C0 382 0 386 0 389V480C0 498 14 512 32 512H480C498 512 512 498 512 480V389C512 386 512 382 511 379ZM280 248C280 239 287 232 296 232H312C321 232 328 239 328 248V264C328 273 321 280 312 280H296C287 280 280 273 280 264V248ZM248 312H264C273 312 280 319 280 328V344C280 353 273 360 264 360H248C239 360 232 353 232 344V328C232 319 239 312 248 312ZM184 248C184 239 191 232 200 232H216C225 232 232 239 232 248V264C232 273 225 280 216 280H200C191 280 184 273 184 264V248ZM120 280H104C95 280 88 273 88 264V248C88 239 95 232 104 232H120C129 232 136 239 136 248V264C136 273 129 280 120 280ZM136 344V328C136 319 143 312 152 312H168C177 312 184 319 184 328V344C184 353 177 360 168 360H152C143 360 136 353 136 344ZM336 464H176C167 464 160 457 160 448C160 439 167 432 176 432H336C345 432 352 439 352 448C352 457 345 464 336 464ZM376 344C376 353 369 360 360 360H344C335 360 328 353 328 344V328C328 319 335 312 344 312H360C369 312 376 319 376 328V344ZM424 264C424 273 417 280 408 280H392C383 280 376 273 376 264V248C376 239 383 232 392 232H408C417 232 424 239 424 248V264Z" class="fa-primary"/></svg>