<svg xmlns="http://www.w3.org/2000/svg" viewBox="0 0 576 512"><!-- Font Awesome Pro 6.0.0-alpha1 by @fontawesome - https://fontawesome.com License - https://fontawesome.com/license (Commercial License) --><defs><style>.fa-secondary{opacity:.4}</style></defs><path d="M512 32H64C29 32 0 61 0 96V432C0 458 22 480 48 480H94L130 374C134 361 146 352 160 352H416C430 352 442 361 446 374L482 480H528C554 480 576 458 576 432V96C576 61 547 32 512 32ZM416 288H160C116 288 80 252 80 208S116 128 160 128H416C460 128 496 164 496 208S460 288 416 288ZM160 384L128 480H448L416 384H160Z" class="fa-secondary"/><path d="M416 128H160C116 128 80 164 80 208S116 288 160 288H416C460 288 496 252 496 208S460 128 416 128ZM343 176C338 186 336 197 336 208S338 230 343 240H233C238 230 240 219 240 208S238 186 233 176H343ZM144 208C144 199 151 192 160 192S176 199 176 208S169 224 160 224S144 217 144 208ZM416 224C407 224 400 217 400 208S407 192 416 192S432 199 432 208S425 224 416 224Z" class="fa-primary"/></svg>