<svg xmlns="http://www.w3.org/2000/svg" viewBox="0 0 384 512"><!-- Font Awesome Pro 6.0.0-alpha1 by @fontawesome - https://fontawesome.com License - https://fontawesome.com/license (Commercial License) --><defs><style>.fa-secondary{opacity:.4}</style></defs><path d="M176 156V356C196 365 218 368 240 366V146C218 144 196 147 176 156ZM176 441V496C176 505 183 512 192 512H224C233 512 240 505 240 496V447C235 447 231 448 226 448C209 448 192 446 176 441ZM224 0H192C183 0 176 7 176 16V71C192 66 209 64 226 64C231 64 235 65 240 65V16C240 7 233 0 224 0Z" class="fa-secondary"/><path d="M226 448C174 448 126 428 89 392C52 356 32 307 32 256S52 156 89 120C126 84 174 64 226 64C269 64 309 77 342 102C354 111 355 128 345 139L322 162C313 170 301 171 291 165C248 135 184 139 146 177C125 198 113 226 113 256S125 314 146 335C184 373 248 377 291 347C301 341 314 342 322 350L345 373C355 384 354 401 342 410C309 435 269 448 226 448Z" class="fa-primary"/></svg>