<svg xmlns="http://www.w3.org/2000/svg" viewBox="0 0 576 512"><!-- Font Awesome Pro 6.0.0-alpha1 by @fontawesome - https://fontawesome.com License - https://fontawesome.com/license (Commercial License) --><defs><style>.fa-secondary{opacity:.4}</style></defs><path d="M560 416H544V72C544 50 526 32 504 32H72C50 32 32 50 32 72V416H16C7 416 0 423 0 432V464C0 473 7 480 16 480H560C569 480 576 473 576 464V432C576 423 569 416 560 416ZM96 416V96H480V416H96Z" class="fa-secondary"/><path d="M480 96V416H416V368C416 359 409 352 400 352H240C231 352 224 359 224 368V416H96V96H480Z" class="fa-primary"/></svg>