<svg xmlns="http://www.w3.org/2000/svg" viewBox="0 0 640 512"><!-- Font Awesome Pro 6.0.0-alpha1 by @fontawesome - https://fontawesome.com License - https://fontawesome.com/license (Commercial License) --><defs><style>.fa-secondary{opacity:.4}</style></defs><path d="M639 434C633 418 618 409 603 409C597 409 592 410 587 412L565 421L526 319C574 284 591 219 561 166L474 16C468 6 458 0 446 0C442 0 438 1 434 2L320 50L206 2C202 1 198 0 194 0C182 0 172 6 166 16L79 167C49 219 66 284 114 319L75 421L53 412C48 410 43 409 38 409C22 409 7 418 1 434C-1 438 1 442 5 444L167 511C168 512 169 512 170 512C173 512 176 510 178 507C186 487 176 463 156 455L134 446L173 342C178 343 182 343 186 343C238 343 286 310 300 258L320 183L340 258C354 310 402 343 454 343C458 343 462 342 467 342L506 446L484 455C463 463 454 487 462 507C464 510 467 512 470 512C471 512 472 512 473 511L635 444C639 442 641 438 639 434ZM238 241C233 261 218 273 203 277C192 280 169 281 151 268C129 251 121 221 135 198L207 72L276 101L238 241ZM489 268C471 281 448 280 437 277C422 272 407 261 402 241L364 101L433 72L505 198C519 221 511 251 489 268Z" class="fa-secondary"/><path d="M261 155L238 241C233 261 218 273 203 277C192 280 169 281 151 268C129 251 121 221 135 198L179 121L261 155ZM505 198L462 123L379 157L402 241C407 261 422 273 437 277C448 280 471 281 489 268C511 251 519 221 505 198Z" class="fa-primary"/></svg>