<svg xmlns="http://www.w3.org/2000/svg" viewBox="0 0 256 512"><!-- Font Awesome Pro 6.0.0-alpha1 by @fontawesome - https://fontawesome.com License - https://fontawesome.com/license (Commercial License) --><defs><style>.fa-secondary{opacity:.4}</style></defs><path d="M169 64L192 221C195 250 175 278 144 286L144 286C134 288 122 288 112 286L112 286C81 278 61 250 64 222L87 64H169M196 0H60C44 0 30 12 28 27L1 212C-7 276 35 333 96 348V464H56C34 464 16 482 16 504C16 508 20 512 24 512H232C236 512 240 508 240 504C240 482 222 464 200 464H160V348C221 332 263 276 255 212L228 27C226 12 212 0 196 0L196 0Z" class="fa-secondary"/><path d="M192 221C195 250 175 278 145 286C134 288 122 288 112 286C81 278 61 250 64 222L78 128H178L192 221Z" class="fa-primary"/></svg>