<svg xmlns="http://www.w3.org/2000/svg" viewBox="0 0 512 512"><!-- Font Awesome Pro 6.0.0-alpha1 by @fontawesome - https://fontawesome.com License - https://fontawesome.com/license (Commercial License) --><defs><style>.fa-secondary{opacity:.4}</style></defs><path d="M496 416H64V48C64 39 57 32 48 32H16C7 32 0 39 0 48V448C0 466 14 480 32 480H496C505 480 512 473 512 464V432C512 423 505 416 496 416Z" class="fa-secondary"/><path d="M371 192H333C326 192 320 198 320 205V339C320 346 326 352 333 352H371C378 352 384 346 384 339V205C384 198 378 192 371 192ZM467 96H429C422 96 416 102 416 109V339C416 346 422 352 429 352H467C474 352 480 346 480 339V109C480 102 474 96 467 96ZM275 128H237C230 128 224 134 224 141V339C224 346 230 352 237 352H275C282 352 288 346 288 339V141C288 134 282 128 275 128ZM179 256H141C134 256 128 262 128 269V339C128 346 134 352 141 352H179C186 352 192 346 192 339V269C192 262 186 256 179 256Z" class="fa-primary"/></svg>