<svg xmlns="http://www.w3.org/2000/svg" viewBox="0 0 512 512"><!-- Font Awesome Pro 6.0.0-alpha1 by @fontawesome - https://fontawesome.com License - https://fontawesome.com/license (Commercial License) --><defs><style>.fa-secondary{opacity:.4}</style></defs><path d="M496 416H64V48C64 39 57 32 48 32H16C7 32 0 39 0 48V448C0 466 14 480 32 480H496C505 480 512 473 512 464V432C512 423 505 416 496 416Z" class="fa-secondary"/><path d="M333 192H371C378 192 384 186 384 179V77C384 70 378 64 371 64H333C326 64 320 70 320 77V179C320 186 326 192 333 192ZM237 256H275C282 256 288 250 288 243V141C288 134 282 128 275 128H237C230 128 224 134 224 141V243C224 250 230 256 237 256ZM429 352H467C474 352 480 346 480 339V77C480 70 474 64 467 64H429C422 64 416 70 416 77V339C416 346 422 352 429 352ZM141 352H179C186 352 192 346 192 339V237C192 230 186 224 179 224H141C134 224 128 230 128 237V339C128 346 134 352 141 352Z" class="fa-primary"/></svg>