<svg xmlns="http://www.w3.org/2000/svg" viewBox="0 0 512 512"><!-- Font Awesome Pro 6.0.0-alpha1 by @fontawesome - https://fontawesome.com License - https://fontawesome.com/license (Commercial License) --><defs><style>.fa-secondary{opacity:.4}</style></defs><path d="M496 416H64V48C64 39 57 32 48 32H16C7 32 0 39 0 48V448C0 466 14 480 32 480H496C505 480 512 473 512 464V432C512 423 505 416 496 416Z" class="fa-secondary"/><path d="M123 315C130 322 140 322 146 315L208 253L265 311C272 317 280 320 288 320S304 317 311 311L475 146C482 140 482 130 475 123L453 101C446 94 436 94 430 101L288 243L231 185C218 173 198 173 185 185L101 270C94 276 94 286 101 293L123 315Z" class="fa-primary"/></svg>