<svg xmlns="http://www.w3.org/2000/svg" viewBox="0 0 640 512"><!-- Font Awesome Pro 6.0.0-alpha1 by @fontawesome - https://fontawesome.com License - https://fontawesome.com/license (Commercial License) --><defs><style>.fa-secondary{opacity:.4}</style></defs><path d="M592 0H208C182 0 160 22 160 50V96C183 96 205 103 224 114V64H576V352H287C309 368 327 390 338 416H592C618 416 640 394 640 366V50C640 22 618 0 592 0ZM312 218L367 273C376 282 392 282 401 273L473 201L497 225C509 237 528 229 528 213V124C528 117 523 112 516 112H427C411 112 403 131 415 143L439 167L384 222L329 167C320 158 304 158 295 167L280 182C285 195 288 209 288 224C288 231 287 237 286 244L312 218Z" class="fa-secondary"/><path d="M160 320C213 320 256 277 256 224C256 171 213 128 160 128C107 128 64 171 64 224C64 277 107 320 160 320ZM192 352H128C57 352 0 409 0 480C0 498 14 512 32 512H288C306 512 320 498 320 480C320 409 263 352 192 352Z" class="fa-primary"/></svg>