<svg xmlns="http://www.w3.org/2000/svg" viewBox="0 0 512 512"><!-- Font Awesome Pro 6.0.0-alpha1 by @fontawesome - https://fontawesome.com License - https://fontawesome.com/license (Commercial License) --><defs><style>.fa-secondary{opacity:.4}</style></defs><path d="M496 416H64V48C64 39 57 32 48 32H16C7 32 0 39 0 48V448C0 466 14 480 32 480H496C505 480 512 473 512 464V432C512 423 505 416 496 416Z" class="fa-secondary"/><path d="M400 320H416V368C416 377 423 384 432 384C441 384 448 377 448 368V320H464C473 320 480 313 480 304V208C480 199 473 192 464 192H448V144C448 135 441 128 432 128C423 128 416 135 416 144V192H400C391 192 384 199 384 208V304C384 313 391 320 400 320ZM272 256H288V304C288 313 295 320 304 320C313 320 320 313 320 304V256H336C345 256 352 249 352 240V112C352 103 345 96 336 96H320V48C320 39 313 32 304 32C295 32 288 39 288 48V96H272C263 96 256 103 256 112V240C256 249 263 256 272 256ZM144 320H160V368C160 377 167 384 176 384C185 384 192 377 192 368V320H208C217 320 224 313 224 304V144C224 135 217 128 208 128H192V80C192 71 185 64 176 64C167 64 160 71 160 80V128H144C135 128 128 135 128 144V304C128 313 135 320 144 320Z" class="fa-primary"/></svg>