<svg xmlns="http://www.w3.org/2000/svg" viewBox="0 0 512 512"><!-- Font Awesome Pro 6.0.0-alpha1 by @fontawesome - https://fontawesome.com License - https://fontawesome.com/license (Commercial License) --><defs><style>.fa-secondary{opacity:.4}</style></defs><path d="M496 416H64V48C64 39 57 32 48 32H16C7 32 0 39 0 48V448C0 466 14 480 32 480H496C505 480 512 473 512 464V432C512 423 505 416 496 416Z" class="fa-secondary"/><path d="M288 224C270 224 256 238 256 256S270 288 288 288S320 274 320 256S306 224 288 224ZM384 288C366 288 352 302 352 320S366 352 384 352S416 338 416 320S402 288 384 288ZM416 96C398 96 384 110 384 128S398 160 416 160S448 146 448 128S434 96 416 96ZM160 288C142 288 128 302 128 320S142 352 160 352S192 338 192 320S178 288 160 288ZM192 128C174 128 160 142 160 160S174 192 192 192S224 178 224 160S210 128 192 128Z" class="fa-primary"/></svg>