<svg xmlns="http://www.w3.org/2000/svg" viewBox="0 0 512 512"><!-- Font Awesome Pro 6.0.0-alpha1 by @fontawesome - https://fontawesome.com License - https://fontawesome.com/license (Commercial License) --><defs><style>.fa-secondary{opacity:.4}</style></defs><path d="M476 450L455 474C450 481 440 482 433 476L256 329L79 476C72 482 62 481 57 474L36 450C30 443 31 433 38 428L224 273V48C224 39 231 32 240 32H272C281 32 288 39 288 48V273L474 428C481 433 482 443 476 450Z" class="fa-secondary"/><path d="M128 192C146 192 160 178 160 160S146 128 128 128S96 142 96 160S110 192 128 192ZM32 96C50 96 64 82 64 64S50 32 32 32S0 46 0 64S14 96 32 96ZM384 288C402 288 416 274 416 256S402 224 384 224S352 238 352 256S366 288 384 288ZM384 96C402 96 416 82 416 64S402 32 384 32S352 46 352 64S366 96 384 96ZM256 416C238 416 224 430 224 448S238 480 256 480S288 466 288 448S274 416 256 416ZM480 128C462 128 448 142 448 160S462 192 480 192S512 178 512 160S498 128 480 128ZM64 256C64 238 50 224 32 224S0 238 0 256S14 288 32 288S64 274 64 256Z" class="fa-primary"/></svg>