<svg xmlns="http://www.w3.org/2000/svg" viewBox="0 0 448 512"><!-- Font Awesome Pro 6.0.0-alpha1 by @fontawesome - https://fontawesome.com License - https://fontawesome.com/license (Commercial License) --><defs><style>.fa-secondary{opacity:.4}</style></defs><path d="M384 32H64C29 32 0 61 0 96V416C0 451 29 480 64 480H384C419 480 448 451 448 416V96C448 61 419 32 384 32ZM384 416H64V96H384V416Z" class="fa-secondary"/><path d="M64 160V224H128V160H64ZM256 416H320V352H256V416ZM192 96H128V160H192V96ZM384 352V288H320V352H384ZM128 416H192V352H128V416ZM64 288V352H128V288H64ZM320 96H256V160H320V96ZM192 288V352H256V288H192ZM256 224V288H320V224H256ZM256 224V160H192V224H256ZM384 224V160H320V224H384ZM192 224H128V288H192V224Z" class="fa-primary"/></svg>