<svg xmlns="http://www.w3.org/2000/svg" viewBox="0 0 320 512"><!-- Font Awesome Pro 6.0.0-alpha1 by @fontawesome - https://fontawesome.com License - https://fontawesome.com/license (Commercial License) --><defs><style>.fa-secondary{opacity:.4}</style></defs><path d="M320 496C320 505 313 512 304 512H16C7 512 0 505 0 496C0 475 13 458 32 451V432C32 423 39 416 48 416H272C281 416 288 423 288 432V451C307 458 320 475 320 496Z" class="fa-secondary"/><path d="M312 288C312 339 290 362 256 373V416H64V373C30 362 8 340 8 288C8 214 68 107 121 62C107 59 96 47 96 32C96 14 110 0 128 0H192C210 0 224 14 224 32C224 47 213 59 199 62C224 83 249 117 270 155L162 263C159 266 159 271 162 274L174 286C177 289 182 289 185 286L285 185C301 221 312 257 312 288Z" class="fa-primary"/></svg>