<svg xmlns="http://www.w3.org/2000/svg" viewBox="0 0 384 512"><!-- Font Awesome Pro 6.0.0-alpha1 by @fontawesome - https://fontawesome.com License - https://fontawesome.com/license (Commercial License) --><defs><style>.fa-secondary{opacity:.4}</style></defs><path d="M384 496C384 505 377 512 368 512H16C7 512 0 505 0 496C0 475 13 458 32 451V432C32 423 39 416 48 416H336C345 416 352 423 352 432V451C371 458 384 475 384 496Z" class="fa-secondary"/><path d="M368 32H312C303 32 296 39 296 48V96H248V48C248 39 241 32 232 32H152C143 32 136 39 136 48V96H88V48C88 39 81 32 72 32H16C7 32 0 39 0 48V224L64 256C64 304 62 351 51 416H333C322 351 320 304 320 256L384 224V48C384 39 377 32 368 32ZM224 320H160V256C160 238 174 224 192 224S224 238 224 256V320Z" class="fa-primary"/></svg>