<svg xmlns="http://www.w3.org/2000/svg" viewBox="0 0 256 512"><!-- Font Awesome Pro 6.0.0-alpha1 by @fontawesome - https://fontawesome.com License - https://fontawesome.com/license (Commercial License) --><defs><style>.fa-secondary{opacity:.4}</style></defs><path d="M64 288H79C77 321 72 353 64 384H192C184 353 179 321 177 288H192C201 288 208 281 208 272V256C208 247 201 240 192 240H175C203 220 215 184 204 151C193 118 162 96 128 96S63 118 52 151C41 184 53 220 81 240H64C55 240 48 247 48 256V272C48 281 55 288 64 288Z" class="fa-secondary"/><path d="M256 474V496C256 505 249 512 240 512H16C7 512 0 505 0 496V474C0 468 3 462 9 460L32 448V400C32 391 39 384 48 384H208C217 384 224 391 224 400V448L247 460C253 462 256 468 256 474Z" class="fa-primary"/></svg>