<svg xmlns="http://www.w3.org/2000/svg" viewBox="0 0 512 512"><!-- Font Awesome Pro 6.0.0-alpha1 by @fontawesome - https://fontawesome.com License - https://fontawesome.com/license (Commercial License) --><defs><style>.fa-secondary{opacity:.4}</style></defs><path d="M247 460L224 448V400C224 391 217 384 208 384H48C39 384 32 391 32 400V448L9 460C3 462 0 468 0 474V496C0 505 7 512 16 512H240C249 512 256 505 256 496V474C256 468 253 462 247 460ZM503 460L480 448V400C480 391 473 384 464 384H336C327 384 320 391 320 400V448L297 460C291 462 288 468 288 474V496C288 505 295 512 304 512H496C505 512 512 505 512 496V474C512 468 509 462 503 460Z" class="fa-secondary"/><path d="M201 96H144V64H168C172 64 176 60 176 56V40C176 36 172 32 168 32H144V8C144 4 140 0 136 0H120C116 0 112 4 112 8V32H88C84 32 80 36 80 40V56C80 60 84 64 88 64H112V96H55C50 96 45 99 42 103C39 107 38 113 40 118L74 208H64C55 208 48 215 48 224V240C48 249 55 256 64 256H80C80 299 74 342 64 384H192C181 342 176 299 176 256H192C201 256 208 249 208 240V224C208 215 201 208 192 208H182L216 118C218 113 217 107 214 103C211 99 206 96 201 96ZM490 192H464C460 192 458 195 458 198V224H433V198C433 195 430 192 427 192H373C370 192 367 195 367 198V224H342V198C342 195 340 192 336 192H310C307 192 304 195 304 198V257C304 266 308 275 315 281L340 302L337 384H463L460 302L485 281C492 275 496 266 496 257V198C496 195 493 192 490 192ZM416 336H384V304C384 295 391 288 400 288S416 295 416 304V336Z" class="fa-primary"/></svg>