<svg xmlns="http://www.w3.org/2000/svg" viewBox="0 0 320 512"><!-- Font Awesome Pro 6.0.0-alpha1 by @fontawesome - https://fontawesome.com License - https://fontawesome.com/license (Commercial License) --><defs><style>.fa-secondary{opacity:.4}</style></defs><path d="M320 496C320 505 313 512 304 512H16C7 512 0 505 0 496C0 475 13 458 32 451V432C32 423 39 416 48 416H272C281 416 288 423 288 432V451C307 458 320 475 320 496Z" class="fa-secondary"/><path d="M105 224H80C71 224 64 231 64 240V272C64 281 71 288 80 288H96V294C96 338 92 380 72 416H248C228 380 224 338 224 294V288H240C249 288 256 281 256 272V240C256 231 249 224 240 224H215C244 206 264 173 264 136C264 78 218 32 160 32S56 78 56 136C56 173 76 206 105 224Z" class="fa-primary"/></svg>