<svg xmlns="http://www.w3.org/2000/svg" viewBox="0 0 320 512"><!-- Font Awesome Pro 6.0.0-alpha1 by @fontawesome - https://fontawesome.com License - https://fontawesome.com/license (Commercial License) --><defs><style>.fa-secondary{opacity:.4}</style></defs><path d="M311 460L288 448V400C288 391 281 384 272 384H48C39 384 32 391 32 400V448L9 460C3 462 0 468 0 474V496C0 505 7 512 16 512H304C313 512 320 505 320 496V474C320 468 317 462 311 460Z" class="fa-secondary"/><path d="M280 64H245C240 64 237 68 237 72V112H204V72C204 68 200 64 196 64H124C120 64 116 68 116 72V112H83V72C83 68 80 64 75 64H40C36 64 32 68 32 72V157C32 165 35 173 41 179L72 210L57 384H263L248 210L279 179C285 173 288 165 288 157V72C288 68 284 64 280 64ZM184 279H136V232C136 218 147 208 160 208S184 218 184 232V279Z" class="fa-primary"/></svg>