<svg xmlns="http://www.w3.org/2000/svg" viewBox="0 0 448 512"><!-- Font Awesome Pro 6.0.0-alpha1 by @fontawesome - https://fontawesome.com License - https://fontawesome.com/license (Commercial License) --><defs><style>.fa-secondary{opacity:.4}</style></defs><path d="M66 472C57 482 42 483 32 474L8 452C-2 444 -3 428 6 419L156 256L6 93C-3 84 -2 68 8 60L32 38C42 29 57 30 66 40L251 242C258 250 258 262 251 270L66 472Z" class="fa-secondary"/><path d="M224 38C234 29 249 30 258 40L443 242C450 250 450 262 443 270L258 472C249 482 234 483 224 474L200 452C190 444 189 428 198 419L348 256L198 93C189 84 190 68 200 60L224 38Z" class="fa-primary"/></svg>