<svg xmlns="http://www.w3.org/2000/svg" viewBox="0 0 448 512"><!-- Font Awesome Pro 6.0.0-alpha1 by @fontawesome - https://fontawesome.com License - https://fontawesome.com/license (Commercial License) --><defs><style>.fa-secondary{opacity:.4}</style></defs><path d="M8 98C-2 89 -3 74 6 64L28 40C36 30 52 29 61 38L224 188L387 38C396 29 412 30 420 40L442 64C451 74 450 89 440 98L238 283C230 290 218 290 210 283L8 98Z" class="fa-secondary"/><path d="M442 256C451 266 450 281 440 290L238 475C230 482 218 482 210 475L8 290C-2 281 -3 266 6 256L28 232C36 222 52 221 61 230L224 380L387 230C396 221 412 222 420 232L442 256Z" class="fa-primary"/></svg>