<svg xmlns="http://www.w3.org/2000/svg" viewBox="0 0 448 512"><!-- Font Awesome Pro 6.0.0-alpha1 by @fontawesome - https://fontawesome.com License - https://fontawesome.com/license (Commercial License) --><defs><style>.fa-secondary{opacity:.4}</style></defs><path d="M440 414C450 423 451 438 442 448L420 472C412 482 396 483 387 474L224 324L61 474C52 483 36 482 28 472L6 448C-3 438 -2 423 8 414L210 229C218 222 230 222 238 229L440 414Z" class="fa-secondary"/><path d="M6 256C-3 246 -2 231 8 222L210 37C218 30 230 30 238 37L440 222C450 231 451 246 442 256L420 280C412 290 396 291 387 282L224 132L61 282C52 291 36 290 28 280L6 256Z" class="fa-primary"/></svg>