<svg xmlns="http://www.w3.org/2000/svg" viewBox="0 0 448 512"><!-- Font Awesome Pro 6.0.0-alpha1 by @fontawesome - https://fontawesome.com License - https://fontawesome.com/license (Commercial License) --><defs><style>.fa-secondary{opacity:.4}</style></defs><path d="M382 40C391 30 406 29 416 38L440 60C450 68 451 84 442 93L292 256L442 419C451 428 450 444 440 452L416 474C406 483 391 482 382 472L197 270C190 262 190 250 197 242L382 40Z" class="fa-secondary"/><path d="M224 474C214 483 199 482 190 472L5 270C-2 262 -2 250 5 242L190 40C199 30 214 29 224 38L248 60C258 68 259 84 250 93L100 256L250 419C259 428 258 444 248 452L224 474Z" class="fa-primary"/></svg>