<svg xmlns="http://www.w3.org/2000/svg" viewBox="0 0 512 512"><!-- Font Awesome Pro 6.0.0-alpha1 by @fontawesome - https://fontawesome.com License - https://fontawesome.com/license (Commercial License) --><defs><style>.fa-secondary{opacity:.4}</style></defs><path d="M256 16C123 16 16 123 16 256S123 496 256 496S496 389 496 256S389 16 256 16ZM328 384H184C171 384 160 373 160 360V152C160 139 171 128 184 128S208 139 208 152V336H328C341 336 352 347 352 360S341 384 328 384Z" class="fa-secondary"/><path d="M328 336H208V152C208 139 197 128 184 128S160 139 160 152V360C160 373 171 384 184 384H328C341 384 352 373 352 360S341 336 328 336Z" class="fa-primary"/></svg>