<svg xmlns="http://www.w3.org/2000/svg" viewBox="0 0 512 512"><!-- Font Awesome Pro 6.0.0-alpha1 by @fontawesome - https://fontawesome.com License - https://fontawesome.com/license (Commercial License) --><defs><style>.fa-secondary{opacity:.4}</style></defs><path d="M256 16C123 16 16 124 16 256C16 389 123 496 256 496S496 389 496 256C496 124 389 16 256 16ZM256 128C274 128 288 142 288 160C288 178 274 192 256 192S224 178 224 160C224 142 238 128 256 128ZM296 384H216C203 384 192 373 192 360S203 336 216 336H232V272H224C211 272 200 261 200 248S211 224 224 224H256C269 224 280 235 280 248V336H296C309 336 320 347 320 360S309 384 296 384Z" class="fa-secondary"/><path d="M256 192C274 192 288 178 288 160C288 142 274 128 256 128S224 142 224 160C224 178 238 192 256 192ZM296 336H280V248C280 235 269 224 256 224H224C211 224 200 235 200 248S211 272 224 272H232V336H216C203 336 192 347 192 360S203 384 216 384H296C309 384 320 373 320 360S309 336 296 336Z" class="fa-primary"/></svg>