<svg xmlns="http://www.w3.org/2000/svg" viewBox="0 0 512 512"><!-- Font Awesome Pro 6.0.0-alpha1 by @fontawesome - https://fontawesome.com License - https://fontawesome.com/license (Commercial License) --><defs><style>.fa-secondary{opacity:.4}</style></defs><path d="M256 16C123 16 16 123 16 256S123 496 256 496S496 389 496 256S389 16 256 16ZM349 163L237 371C233 379 225 384 216 384C212 384 208 383 205 381C193 375 189 360 195 349L288 176H184C171 176 160 165 160 152S171 128 184 128H328C336 128 344 132 349 140C353 147 353 156 349 163Z" class="fa-secondary"/><path d="M349 163L237 371C233 379 225 384 216 384C212 384 208 383 205 381C193 375 189 360 195 349L288 176H184C171 176 160 165 160 152S171 128 184 128H328C336 128 344 132 349 140C353 147 353 156 349 163Z" class="fa-primary"/></svg>