<svg xmlns="http://www.w3.org/2000/svg" viewBox="0 0 640 512"><!-- Font Awesome Pro 6.0.0-alpha1 by @fontawesome - https://fontawesome.com License - https://fontawesome.com/license (Commercial License) --><defs><style>.fa-secondary{opacity:.4}</style></defs><path d="M320 16C187 16 80 123 80 256S187 496 320 496S560 389 560 256S453 16 320 16ZM320 384C267 384 224 341 224 288C224 247 252 215 264 204L344 134C349 130 354 128 360 128C367 128 373 131 378 136C387 146 386 161 376 170L346 196C386 207 416 244 416 288C416 341 373 384 320 384ZM320 240C299 240 280 254 274 274C273 279 272 283 272 288C272 314 294 336 320 336S368 314 368 288S346 240 320 240Z" class="fa-secondary"/><path d="M346 196L376 170C386 161 387 146 378 136C373 131 367 128 360 128C354 128 349 130 344 134L264 204C252 215 224 247 224 288C224 341 267 384 320 384S416 341 416 288C416 244 386 207 346 196ZM320 336C294 336 272 314 272 288C272 283 273 279 274 274C280 254 299 240 320 240C346 240 368 262 368 288S346 336 320 336Z" class="fa-primary"/></svg>