<svg xmlns="http://www.w3.org/2000/svg" viewBox="0 0 512 512"><!-- Font Awesome Pro 6.0.0-alpha1 by @fontawesome - https://fontawesome.com License - https://fontawesome.com/license (Commercial License) --><defs><style>.fa-secondary{opacity:.4}</style></defs><path d="M256 16C123 16 16 123 16 256S123 496 256 496S496 389 496 256S389 16 256 16ZM208 144C208 117 229 96 256 96S304 117 304 144V256C304 283 283 304 256 304S208 283 208 256V144ZM384 256C384 321 335 374 272 382V408C272 412 268 416 264 416H248C244 416 240 412 240 408V382C177 374 128 321 128 256V232C128 228 132 224 136 224H152C156 224 160 228 160 232V253C160 301 195 345 243 351C302 359 352 313 352 256V232C352 228 356 224 360 224H376C380 224 384 228 384 232V256Z" class="fa-secondary"/><path d="M256 304C283 304 304 283 304 256V144C304 117 283 96 256 96S208 117 208 144V256C208 283 229 304 256 304ZM376 224H360C356 224 352 228 352 232V256C352 313 302 359 243 351C195 345 160 301 160 253V232C160 228 156 224 152 224H136C132 224 128 228 128 232V256C128 321 177 374 240 382V408C240 412 244 416 248 416H264C268 416 272 412 272 408V382C335 374 384 321 384 256V232C384 228 380 224 376 224Z" class="fa-primary"/></svg>