<svg xmlns="http://www.w3.org/2000/svg" viewBox="0 0 512 512"><!-- Font Awesome Pro 6.0.0-alpha1 by @fontawesome - https://fontawesome.com License - https://fontawesome.com/license (Commercial License) --><defs><style>.fa-secondary{opacity:.4}</style></defs><path d="M256 16C123 16 16 123 16 256S123 496 256 496S496 389 496 256S389 16 256 16ZM379 280L269 394C262 402 250 402 243 394L132 280C100 247 102 192 138 162C170 135 216 140 245 169L256 181L267 169C296 140 343 135 374 162C410 192 412 247 379 280Z" class="fa-secondary"/><path d="M380 280L269 394C262 402 250 402 243 394L133 280C101 247 102 192 138 162C170 135 216 140 245 169L256 181L268 169C296 140 343 135 374 162C410 192 412 247 380 280Z" class="fa-primary"/></svg>