<svg xmlns="http://www.w3.org/2000/svg" viewBox="0 0 512 512"><!-- Font Awesome Pro 6.0.0-alpha1 by @fontawesome - https://fontawesome.com License - https://fontawesome.com/license (Commercial License) --><defs><style>.fa-secondary{opacity:.4}</style></defs><path d="M256 16C123 16 16 123 16 256S123 496 256 496S496 389 496 256S389 16 256 16ZM328 176H208V240H296C309 240 320 251 320 264S309 288 296 288H208V360C208 373 197 384 184 384S160 373 160 360V152C160 139 171 128 184 128H328C341 128 352 139 352 152S341 176 328 176Z" class="fa-secondary"/><path d="M328 128H184C171 128 160 139 160 152V360C160 373 171 384 184 384S208 373 208 360V288H296C309 288 320 277 320 264S309 240 296 240H208V176H328C341 176 352 165 352 152S341 128 328 128Z" class="fa-primary"/></svg>