<svg xmlns="http://www.w3.org/2000/svg" viewBox="0 0 512 512"><!-- Font Awesome Pro 6.0.0-alpha1 by @fontawesome - https://fontawesome.com License - https://fontawesome.com/license (Commercial License) --><defs><style>.fa-secondary{opacity:.4}</style></defs><path d="M256 16C123 16 16 123 16 256S123 496 256 496S496 389 496 256S389 16 256 16ZM256 128C296 128 328 160 328 200S296 272 256 272C216 272 184 240 184 200S216 128 256 128ZM256 432C203 432 155 408 123 371C142 340 175 320 213 320H299C337 320 370 340 389 371C357 408 309 432 256 432Z" class="fa-secondary"/><path d="M256 272C296 272 328 240 328 200S296 128 256 128C216 128 184 160 184 200S216 272 256 272ZM299 320H213C175 320 142 340 123 371C155 408 203 432 256 432S357 408 389 371C370 340 337 320 299 320Z" class="fa-primary"/></svg>