<svg xmlns="http://www.w3.org/2000/svg" viewBox="0 0 512 512"><!-- Font Awesome Pro 6.0.0-alpha1 by @fontawesome - https://fontawesome.com License - https://fontawesome.com/license (Commercial License) --><defs><style>.fa-secondary{opacity:.4}</style></defs><path d="M256 16C123 16 16 123 16 256S123 496 256 496S496 389 496 256S389 16 256 16ZM199 313C214 328 234 336 255 336S296 328 311 313C320 303 336 303 345 313C354 322 354 337 345 346C321 371 289 384 255 384C255 384 255 384 255 384C221 384 189 371 165 346C116 297 116 215 165 166C213 117 297 117 345 166C354 175 354 190 345 200C336 209 320 209 311 199C281 169 229 169 199 199C168 231 168 281 199 313Z" class="fa-secondary"/><path d="M311 163C320 172 335 172 345 163C354 154 354 139 345 129C297 81 213 81 165 129C116 179 116 260 165 310C189 334 221 348 255 348C255 348 255 348 255 348C289 348 321 334 345 310C354 301 354 285 345 276C335 267 320 267 311 276C296 291 276 300 255 300S214 291 199 276C168 245 168 194 199 163C229 133 281 133 311 163Z" class="fa-primary"/></svg>