<svg xmlns="http://www.w3.org/2000/svg" viewBox="0 0 512 512"><!-- Font Awesome Pro 6.0.0-alpha1 by @fontawesome - https://fontawesome.com License - https://fontawesome.com/license (Commercial License) --><defs><style>.fa-secondary{opacity:.4}</style></defs><path d="M256 16C123 16 16 123 16 256S123 496 256 496S496 389 496 256S389 16 256 16ZM384 320C384 338 370 352 352 352H160C142 352 128 338 128 320V192C128 174 142 160 160 160H196L202 144C206 134 215 128 225 128H287C297 128 306 134 310 144L316 160H352C370 160 384 174 384 192V320Z" class="fa-secondary"/><path d="M352 160H316L310 144C306 134 297 128 287 128H225C215 128 206 134 202 144L196 160H160C142 160 128 174 128 192V320C128 338 142 352 160 352H352C370 352 384 338 384 320V192C384 174 370 160 352 160ZM256 304C230 304 208 282 208 256S230 208 256 208S304 230 304 256S282 304 256 304Z" class="fa-primary"/></svg>