<svg xmlns="http://www.w3.org/2000/svg" viewBox="0 0 512 512"><!-- Font Awesome Pro 6.0.0-alpha1 by @fontawesome - https://fontawesome.com License - https://fontawesome.com/license (Commercial License) --><defs><style>.fa-secondary{opacity:.4}</style></defs><path d="M256 16C123 16 16 123 16 256S123 496 256 496S496 389 496 256S389 16 256 16ZM399 175L335 383C332 393 323 400 312 400H312C301 400 292 393 289 382L256 260L223 382C220 393 211 400 200 400C190 400 180 393 177 383L113 175C109 162 116 149 129 145C142 141 155 148 159 161L198 289L233 162C236 151 245 144 256 144S276 151 279 162L314 289L353 161C357 148 370 141 383 145C396 149 403 162 399 175Z" class="fa-secondary"/><path d="M383 145C370 141 357 148 353 161L314 289L279 162C276 151 267 144 256 144S236 151 233 162L198 289L159 161C155 148 142 141 129 145C116 149 109 162 113 175L177 383C180 393 190 400 200 400C211 400 220 393 223 382L256 260L289 382C292 393 301 400 312 400H312C323 400 332 393 335 383L399 175C403 162 396 149 383 145Z" class="fa-primary"/></svg>