<svg xmlns="http://www.w3.org/2000/svg" viewBox="0 0 512 512"><!-- Font Awesome Pro 6.0.0-alpha1 by @fontawesome - https://fontawesome.com License - https://fontawesome.com/license (Commercial License) --><defs><style>.fa-secondary{opacity:.4}</style></defs><path d="M288 176H208V240H288C306 240 320 226 320 208S306 176 288 176ZM256 16C123 16 16 123 16 256S123 496 256 496S496 389 496 256S389 16 256 16ZM355 346C363 357 361 372 350 379C346 383 341 384 336 384C329 384 321 381 317 374L254 288H208V360C208 373 197 384 184 384S160 373 160 360V152C160 139 171 128 184 128H288C332 128 368 164 368 208C368 244 344 274 311 284L355 346Z" class="fa-secondary"/><path d="M368 208C368 164 332 128 288 128H184C171 128 160 139 160 152V360C160 373 171 384 184 384S208 373 208 360V288H254L317 374C321 381 329 384 336 384C341 384 346 383 350 379C361 372 363 357 355 346L311 284C344 274 368 244 368 208ZM288 240H208V176H288C306 176 320 190 320 208S306 240 288 240Z" class="fa-primary"/></svg>