<svg xmlns="http://www.w3.org/2000/svg" viewBox="0 0 512 512"><!-- Font Awesome Pro 6.0.0-alpha1 by @fontawesome - https://fontawesome.com License - https://fontawesome.com/license (Commercial License) --><defs><style>.fa-secondary{opacity:.4}</style></defs><path d="M496 256C496 123 389 16 256 16S16 123 16 256S123 496 256 496S496 389 496 256ZM374 306L319 284C312 282 308 275 309 268L312 234C276 221 236 221 200 234L203 268C204 275 200 282 193 284L139 306C131 309 123 306 119 300L92 256C88 250 89 242 94 237C183 148 329 148 418 237C423 242 424 250 420 256L393 300C389 306 381 309 374 306Z" class="fa-secondary"/><path d="M374 306L319 284C313 282 309 275 309 268L313 234C276 221 236 221 200 234L203 268C204 275 200 282 194 284L139 306C132 309 124 306 120 300L92 256C89 250 89 242 95 237C184 148 329 148 418 237C423 242 424 250 420 256L393 300C389 306 381 309 374 306Z" class="fa-primary"/></svg>