<svg xmlns="http://www.w3.org/2000/svg" viewBox="0 0 512 512"><!-- Font Awesome Pro 6.0.0-alpha1 by @fontawesome - https://fontawesome.com License - https://fontawesome.com/license (Commercial License) --><defs><style>.fa-secondary{opacity:.4}</style></defs><path d="M256 16C123 16 16 123 16 256S123 496 256 496S496 389 496 256S389 16 256 16ZM351 324C347 345 335 362 317 372C302 381 284 384 266 384C230 384 194 372 175 365C163 360 157 346 162 333C166 321 181 315 193 320C235 336 275 341 293 331C299 327 302 323 303 315C306 300 300 293 250 279C210 268 150 252 161 188C165 169 175 153 192 143C219 125 260 123 313 137C326 140 334 153 331 166C327 179 314 187 302 184C249 170 226 177 218 183C213 186 210 191 209 197C206 212 212 219 262 233C302 244 362 261 351 324Z" class="fa-secondary"/><path d="M263 233C213 219 206 212 209 197C210 191 213 186 218 183C227 178 249 170 302 184C314 187 328 179 331 166C334 153 326 140 313 137C260 123 219 125 192 143C176 153 165 169 161 188C150 252 210 268 250 279C300 293 306 300 304 316C302 323 299 327 293 331C275 341 235 336 193 320C181 315 167 321 162 333C157 346 163 360 175 365C194 372 230 384 266 384C284 384 302 381 317 372C335 362 347 345 351 324C362 261 302 244 263 233Z" class="fa-primary"/></svg>