<svg xmlns="http://www.w3.org/2000/svg" viewBox="0 0 512 512"><!-- Font Awesome Pro 6.0.0-alpha1 by @fontawesome - https://fontawesome.com License - https://fontawesome.com/license (Commercial License) --><defs><style>.fa-secondary{opacity:.4}</style></defs><path d="M256 16C123 16 16 123 16 256S123 496 256 496S496 389 496 256S389 16 256 16ZM352 360C352 370 345 380 335 383C333 384 330 384 328 384C320 384 313 380 308 374L208 229V360C208 373 197 384 184 384S160 373 160 360V152C160 142 167 132 177 129C187 126 198 130 204 138L304 283V152C304 139 315 128 328 128S352 139 352 152V360Z" class="fa-secondary"/><path d="M328 128C315 128 304 139 304 152V283L204 138C198 130 187 126 177 129C167 132 160 142 160 152V360C160 373 171 384 184 384S208 373 208 360V229L308 374C313 380 320 384 328 384C330 384 333 384 335 383C345 380 352 370 352 360V152C352 139 341 128 328 128Z" class="fa-primary"/></svg>