<svg xmlns="http://www.w3.org/2000/svg" viewBox="0 0 512 512"><!-- Font Awesome Pro 6.0.0-alpha1 by @fontawesome - https://fontawesome.com License - https://fontawesome.com/license (Commercial License) --><defs><style>.fa-secondary{opacity:.4}</style></defs><path d="M256 16C123 16 16 123 16 256S123 496 256 496S496 389 496 256S389 16 256 16ZM368 291C368 351 318 400 256 400S144 351 144 291V168C144 155 155 144 168 144S192 155 192 168V291C192 325 221 352 256 352S320 325 320 291V168C320 155 331 144 344 144S368 155 368 168V291Z" class="fa-secondary"/><path d="M344 144C331 144 320 155 320 168V291C320 325 291 352 256 352S192 325 192 291V168C192 155 181 144 168 144S144 155 144 168V291C144 351 194 400 256 400S368 351 368 291V168C368 155 357 144 344 144Z" class="fa-primary"/></svg>