<svg xmlns="http://www.w3.org/2000/svg" viewBox="0 0 512 512"><!-- Font Awesome Pro 6.0.0-alpha1 by @fontawesome - https://fontawesome.com License - https://fontawesome.com/license (Commercial License) --><defs><style>.fa-secondary{opacity:.4}</style></defs><path d="M256 224C238 224 224 238 224 256S238 288 256 288C274 288 288 274 288 256S274 224 256 224ZM256 16C123 16 16 123 16 256S123 496 256 496C389 496 496 389 496 256S389 16 256 16ZM256 432C159 432 80 353 80 256S159 80 256 80S432 159 432 256S353 432 256 432Z" class="fa-secondary"/><path d="M226 209L185 142C180 134 168 132 161 138C131 162 110 197 105 237C104 247 111 256 121 256H200C200 236 211 219 226 209ZM286 303C277 309 267 312 256 312C245 312 235 309 226 303L185 370C179 379 183 389 192 393C211 403 233 408 256 408C279 408 301 403 320 393C329 389 333 378 327 370L286 303ZM351 138C344 132 332 134 327 142L286 209C301 219 312 236 312 256H391C401 256 408 247 407 237C402 197 381 162 351 138Z" class="fa-primary"/></svg>