<svg xmlns="http://www.w3.org/2000/svg" viewBox="0 0 640 512"><!-- Font Awesome Pro 6.0.0-alpha1 by @fontawesome - https://fontawesome.com License - https://fontawesome.com/license (Commercial License) --><defs><style>.fa-secondary{opacity:.4}</style></defs><path d="M632 130C626 127 620 127 615 131L571 160H101C98 160 94 161 91 162L11 188C4 190 0 197 0 203V276C0 283 4 289 11 292L91 318C94 319 98 320 101 320H571L615 349C618 351 621 352 624 352C627 352 629 351 632 350C637 347 640 342 640 336V144C640 138 637 133 632 130ZM272 264C259 264 248 253 248 240S259 216 272 216S296 227 296 240S285 264 272 264ZM368 264C355 264 344 253 344 240S355 216 368 216S392 227 392 240S381 264 368 264ZM464 264C451 264 440 253 440 240S451 216 464 216S488 227 488 240S477 264 464 264Z" class="fa-secondary"/><path d="M496 96H240C231 96 224 103 224 112C224 121 231 128 240 128H256V160H288V128H352V160H384V128H448V160H480V128H496C505 128 512 121 512 112C512 103 505 96 496 96ZM272 216C259 216 248 227 248 240S259 264 272 264S296 253 296 240S285 216 272 216ZM368 216C355 216 344 227 344 240S355 264 368 264S392 253 392 240S381 216 368 216ZM464 216C451 216 440 227 440 240S451 264 464 264S488 253 488 240S477 216 464 216Z" class="fa-primary"/></svg>