<svg xmlns="http://www.w3.org/2000/svg" viewBox="0 0 384 512"><!-- Font Awesome Pro 6.0.0-alpha1 by @fontawesome - https://fontawesome.com License - https://fontawesome.com/license (Commercial License) --><defs><style>.fa-secondary{opacity:.4}</style></defs><path d="M336 64H256C291 64 320 93 320 128V144C320 153 313 160 304 160H80C71 160 64 153 64 144V128C64 93 93 64 128 64H48C22 64 0 86 0 112V464C0 490 22 512 48 512H336C362 512 384 490 384 464V112C384 86 362 64 336 64ZM96 424C83 424 72 413 72 400S83 376 96 376S120 387 120 400S109 424 96 424ZM112 320C108 320 104 318 101 315L69 283C62 277 62 267 69 261S85 254 91 261L112 281L165 229C171 222 181 222 187 229S194 245 187 251L123 315C120 318 116 320 112 320ZM304 416H176C167 416 160 409 160 400C160 391 167 384 176 384H304C313 384 320 391 320 400C320 409 313 416 304 416ZM304 320H208C199 320 192 313 192 304C192 295 199 288 208 288H304C313 288 320 295 320 304C320 313 313 320 304 320Z" class="fa-secondary"/><path d="M256 64C256 29 227 0 192 0S128 29 128 64C93 64 64 93 64 128V144C64 153 71 160 80 160H304C313 160 320 153 320 144V128C320 93 291 64 256 64ZM192 88C179 88 168 77 168 64C168 51 179 40 192 40S216 51 216 64C216 77 205 88 192 88ZM96 376C83 376 72 387 72 400S83 424 96 424S120 413 120 400S109 376 96 376ZM165 229L112 281L91 261C85 254 75 254 69 261S62 277 69 283L101 315C104 318 108 320 112 320S120 318 123 315L187 251C194 245 194 235 187 229S171 222 165 229Z" class="fa-primary"/></svg>