<svg xmlns="http://www.w3.org/2000/svg" viewBox="0 0 384 512"><!-- Font Awesome Pro 6.0.0-alpha1 by @fontawesome - https://fontawesome.com License - https://fontawesome.com/license (Commercial License) --><defs><style>.fa-secondary{opacity:.4}</style></defs><path d="M336 64H256C291 64 320 93 320 128V144C320 153 313 160 304 160H80C71 160 64 153 64 144V128C64 93 93 64 128 64H48C22 64 0 86 0 112V464C0 490 22 512 48 512H336C362 512 384 490 384 464V112C384 86 362 64 336 64ZM192 192C227 192 256 221 256 256S227 320 192 320S128 291 128 256S157 192 192 192ZM288 448H96C87 448 80 441 80 432C80 388 116 352 160 352H224C268 352 304 388 304 432C304 441 297 448 288 448Z" class="fa-secondary"/><path d="M256 64C256 29 227 0 192 0S128 29 128 64C93 64 64 93 64 128V144C64 153 71 160 80 160H304C313 160 320 153 320 144V128C320 93 291 64 256 64ZM192 88C179 88 168 77 168 64C168 51 179 40 192 40S216 51 216 64C216 77 205 88 192 88ZM224 352H160C116 352 80 388 80 432C80 441 87 448 96 448H288C297 448 304 441 304 432C304 388 268 352 224 352ZM256 256C256 221 227 192 192 192S128 221 128 256S157 320 192 320S256 291 256 256Z" class="fa-primary"/></svg>