<svg xmlns="http://www.w3.org/2000/svg" viewBox="0 0 384 512"><!-- Font Awesome Pro 6.0.0-alpha1 by @fontawesome - https://fontawesome.com License - https://fontawesome.com/license (Commercial License) --><defs><style>.fa-secondary{opacity:.4}</style></defs><path d="M384 112V464C384 490 362 512 336 512H48C22 512 0 490 0 464V112C0 86 22 64 48 64H128C93 64 64 93 64 128V144C64 153 71 160 80 160H304C313 160 320 153 320 144V128C320 93 291 64 256 64H336C362 64 384 86 384 112Z" class="fa-secondary"/><path d="M256 64C256 29 227 0 192 0S128 29 128 64C93 64 64 93 64 128V144C64 153 71 160 80 160H304C313 160 320 153 320 144V128C320 93 291 64 256 64ZM192 40C205 40 216 51 216 64C216 77 205 88 192 88S168 77 168 64C168 51 179 40 192 40Z" class="fa-primary"/></svg>