<svg xmlns="http://www.w3.org/2000/svg" viewBox="0 0 512 512"><!-- Font Awesome Pro 6.0.0-alpha1 by @fontawesome - https://fontawesome.com License - https://fontawesome.com/license (Commercial License) --><defs><style>.fa-secondary{opacity:.4}</style></defs><path d="M491 208C484 171 432 16 256 16C182 16 125 47 86 86L54 54C40 40 16 50 16 70V192C16 201 23 208 32 208H153C173 208 184 184 169 169L132 132C184 79 244 80 256 80C350 80 413 148 428 218C452 331 366 432 256 432C224 432 193 423 167 408C161 404 153 405 147 410L124 433C117 440 118 452 126 458C164 482 208 496 256 496C404 496 521 361 491 208Z" class="fa-secondary"/><path d="M256 128C243 128 232 139 232 152V272C232 280 236 287 242 291L306 339C310 342 315 344 320 344C327 344 334 341 339 334C347 324 345 309 334 301L280 260V152C280 139 269 128 256 128Z" class="fa-primary"/></svg>