<svg xmlns="http://www.w3.org/2000/svg" viewBox="0 0 576 512"><!-- Font Awesome Pro 6.0.0-alpha1 by @fontawesome - https://fontawesome.com License - https://fontawesome.com/license (Commercial License) --><defs><style>.fa-secondary{opacity:.4}</style></defs><path d="M512 32H64C29 32 0 61 0 96V416C0 451 29 480 64 480H512C547 480 576 451 576 416V96C576 61 547 32 512 32ZM169 290C187 309 218 309 236 290C246 281 261 281 270 290S280 315 270 324C252 343 227 352 203 352S153 343 135 324C117 306 107 282 107 256S117 206 135 188C172 151 233 151 270 188C280 198 280 213 270 222S246 231 236 222C218 203 187 203 169 222C160 231 155 243 155 256S160 281 169 290ZM361 290C379 309 410 309 428 290C438 281 453 281 462 290S472 315 462 324C444 343 419 352 395 352S345 343 327 324C309 306 299 282 299 256S309 206 327 188C364 151 425 151 462 188C472 198 472 213 462 222S438 231 428 222C410 203 379 203 361 222C352 231 347 243 347 256S352 281 361 290Z" class="fa-secondary"/><path d="M237 222C246 231 261 231 271 222S280 197 271 188C233 151 173 151 135 188C117 206 107 230 107 256S117 306 135 324C154 343 178 352 203 352C228 352 252 343 271 324C280 314 280 299 271 290C261 281 246 281 237 290C218 309 188 309 169 290C160 281 155 269 155 256S160 231 169 222C188 203 218 203 237 222ZM429 222C438 231 453 231 463 222S472 197 463 188C425 151 365 151 327 188C309 206 299 230 299 256S309 306 327 324C346 343 370 352 395 352S444 343 463 324C472 314 472 299 463 290C453 281 438 281 429 290C410 309 380 309 361 290C352 281 347 269 347 256S352 231 361 222C380 203 410 203 429 222Z" class="fa-primary"/></svg>