<svg xmlns="http://www.w3.org/2000/svg" viewBox="0 0 576 512"><!-- Font Awesome Pro 6.0.0-alpha1 by @fontawesome - https://fontawesome.com License - https://fontawesome.com/license (Commercial License) --><defs><style>.fa-secondary{opacity:.4}</style></defs><path d="M568 224C498 237 433 183 433 113C433 72 455 35 490 15C496 12 495 4 488 2C480 1 471 0 462 0C384 0 321 61 317 138C344 150 366 172 376 200C413 214 440 247 447 286C452 287 457 288 462 288C506 288 547 268 574 235C579 230 574 223 568 224ZM276 336H218L236 271C238 263 232 256 224 256H156C150 256 145 261 144 266L128 386C127 394 133 400 140 400H199L176 497C174 505 180 512 188 512C192 512 196 510 198 506L286 354C291 346 285 336 276 336Z" class="fa-secondary"/><path d="M416 304C416 348 380 384 336 384H269L286 354C291 346 285 336 276 336H218L236 271C238 263 232 256 224 256H156C150 256 145 261 144 266L128 384H80C36 384 0 348 0 304C0 265 28 233 64 226C64 225 64 225 64 224C64 171 107 128 160 128C192 128 220 144 238 168C248 163 260 160 272 160C311 160 344 188 351 226C388 232 416 265 416 304Z" class="fa-primary"/></svg>