<svg xmlns="http://www.w3.org/2000/svg" viewBox="0 0 576 512"><!-- Font Awesome Pro 6.0.0-alpha1 by @fontawesome - https://fontawesome.com License - https://fontawesome.com/license (Commercial License) --><defs><style>.fa-secondary{opacity:.4}</style></defs><path d="M80 352C54 352 32 374 32 400S54 448 80 448S128 426 128 400S106 352 80 352ZM496 352C470 352 448 374 448 400S470 448 496 448S544 426 544 400S522 352 496 352ZM377 363C382 349 379 332 367 321C356 309 339 306 325 311C318 297 304 288 288 288S258 297 251 311C237 306 220 309 209 321C197 332 194 349 199 363C185 370 176 384 176 400S185 430 199 437C194 451 197 468 209 479C217 487 228 491 238 491C243 491 247 490 251 489C258 502 272 512 288 512S318 502 325 489C329 490 333 491 338 491C348 491 359 487 367 479C379 468 382 451 377 437C391 430 400 416 400 400S390 370 377 363Z" class="fa-secondary"/><path d="M448 320H405C401 312 396 305 390 298C376 285 358 277 339 277C326 264 307 256 288 256S250 264 237 277C218 277 200 285 186 298C180 305 175 312 171 320H128C75 320 32 277 32 224C32 182 60 146 98 133C97 126 96 119 96 112C96 50 146 0 208 0C251 0 288 25 307 61C322 43 343 32 368 32C412 32 448 68 448 112C448 118 447 123 446 128C447 128 447 128 448 128C501 128 544 171 544 224S501 320 448 320Z" class="fa-primary"/></svg>