<svg xmlns="http://www.w3.org/2000/svg" viewBox="0 0 512 512"><!-- Font Awesome Pro 6.0.0-alpha1 by @fontawesome - https://fontawesome.com License - https://fontawesome.com/license (Commercial License) --><defs><style>.fa-secondary{opacity:.4}</style></defs><path d="M337 288H265L288 211C290 201 283 192 273 192H191C184 192 177 198 176 205L160 335C159 344 166 352 175 352H256L224 494C222 503 229 512 239 512C244 512 249 509 252 505L350 311C356 301 349 288 337 288Z" class="fa-secondary"/><path d="M512 224C512 277 469 320 416 320H345L350 310C356 301 349 288 337 288H265L287 211C290 201 283 192 273 192H191C183 192 177 198 176 205L162 320H96C43 320 0 277 0 224C0 182 28 146 66 133C65 126 64 119 64 112C64 50 114 0 176 0C219 0 256 25 275 61C290 43 311 32 336 32C380 32 416 68 416 112C416 118 415 123 414 128C415 128 415 128 416 128C469 128 512 171 512 224Z" class="fa-primary"/></svg>