<svg xmlns="http://www.w3.org/2000/svg" viewBox="0 0 640 512"><!-- Font Awesome Pro 6.0.0-alpha1 by @fontawesome - https://fontawesome.com License - https://fontawesome.com/license (Commercial License) --><defs><style>.fa-secondary{opacity:.4}</style></defs><path d="M160 185C160 203 168 220 181 232C192 216 208 203 226 195C230 170 242 148 258 131C248 124 236 121 224 121C189 121 160 149 160 185ZM354 89L363 62C366 52 357 43 346 46L271 71L236 0C231 -10 217 -10 212 0L177 71L101 46C91 43 82 52 85 62L110 138L39 173C30 178 30 192 39 196L110 232L85 307C82 317 91 327 102 324L161 304C161 302 160 299 160 297C160 284 162 272 166 261C163 258 159 256 156 253C119 215 119 154 156 117C191 82 245 80 283 110C303 97 326 89 352 89C353 89 353 89 354 89ZM468 329H410L428 264C430 256 424 249 416 249H348C342 249 337 253 336 259L320 379C319 386 325 393 332 393H391L368 490C366 498 372 505 380 505C384 505 388 503 390 499L478 347C483 339 477 329 468 329Z" class="fa-secondary"/><path d="M608 304C608 348 572 384 528 384H461L478 354C483 346 477 336 468 336H410L428 271C430 263 424 256 416 256H348C342 256 337 261 336 266L320 384H272C228 384 192 348 192 304C192 265 220 233 256 226C256 225 256 225 256 224C256 171 299 128 352 128C384 128 412 144 430 168C440 163 452 160 464 160C503 160 536 188 543 226C580 232 608 265 608 304Z" class="fa-primary"/></svg>