<svg xmlns="http://www.w3.org/2000/svg" viewBox="0 0 512 512"><!-- Font Awesome Pro 6.0.0-alpha1 by @fontawesome - https://fontawesome.com License - https://fontawesome.com/license (Commercial License) --><defs><style>.fa-secondary{opacity:.4}</style></defs><path d="M384 352C366 352 352 366 352 384S366 416 384 416S416 402 416 384S402 352 384 352ZM192 448C174 448 160 462 160 480S174 512 192 512S224 498 224 480S210 448 192 448ZM320 448C302 448 288 462 288 480S302 512 320 512S352 498 352 480S338 448 320 448ZM256 352C238 352 224 366 224 384S238 416 256 416S288 402 288 384S274 352 256 352ZM64 448C46 448 32 462 32 480S46 512 64 512S96 498 96 480S82 448 64 448ZM128 352C110 352 96 366 96 384S110 416 128 416S160 402 160 384S146 352 128 352Z" class="fa-secondary"/><path d="M512 224C512 277 469 320 416 320H96C43 320 0 277 0 224C0 182 28 146 66 133C65 126 64 119 64 112C64 50 114 0 176 0C219 0 256 25 275 61C290 43 311 32 336 32C380 32 416 68 416 112C416 118 415 123 414 128C415 128 415 128 416 128C469 128 512 171 512 224Z" class="fa-primary"/></svg>