<svg xmlns="http://www.w3.org/2000/svg" viewBox="0 0 640 512"><!-- Font Awesome Pro 6.0.0-alpha1 by @fontawesome - https://fontawesome.com License - https://fontawesome.com/license (Commercial License) --><defs><style>.fa-secondary{opacity:.4}</style></defs><path d="M538 227C542 216 544 204 544 192C544 139 501 96 448 96C428 96 410 102 395 112C367 64 315 32 256 32C168 32 96 104 96 192C96 195 96 197 96 200C40 220 0 273 0 336C0 415 65 480 144 480H512C583 480 640 423 640 352C640 290 596 238 538 227ZM384 352C384 370 362 384 336 384S288 370 288 352S310 320 336 320C341 320 347 321 352 322V246L256 283V384C256 402 234 416 208 416S160 402 160 384S182 352 208 352C213 352 219 353 224 354V239C224 232 229 226 235 224L363 177C368 175 373 176 378 179S384 187 384 192V352Z" class="fa-secondary"/><path d="M384 352C384 370 362 384 336 384S288 370 288 352S310 320 336 320C341 320 347 321 352 322V246L256 283V384C256 402 234 416 208 416S160 402 160 384S182 352 208 352C213 352 219 353 224 354V239C224 232 229 226 235 224L363 177C368 175 373 176 378 179S384 187 384 192V352Z" class="fa-primary"/></svg>