<svg xmlns="http://www.w3.org/2000/svg" viewBox="0 0 640 512"><!-- Font Awesome Pro 6.0.0-alpha1 by @fontawesome - https://fontawesome.com License - https://fontawesome.com/license (Commercial License) --><defs><style>.fa-secondary{opacity:.4}</style></defs><path d="M304 160C345 160 383 177 409 206C419 201 430 197 441 195C445 184 448 172 448 160C448 107 405 64 352 64C338 64 325 67 313 73C297 30 256 0 208 0C152 0 105 42 98 96C97 96 97 96 96 96C43 96 0 139 0 192S43 288 96 288H162C170 216 230 160 304 160Z" class="fa-secondary"/><path d="M640 416C640 469 597 512 544 512H224C171 512 128 469 128 416C128 374 156 338 194 325C193 318 192 311 192 304C192 242 242 192 304 192C347 192 384 217 403 253C418 235 439 224 464 224C508 224 544 260 544 304C544 310 543 315 542 320C543 320 543 320 544 320C597 320 640 363 640 416Z" class="fa-primary"/></svg>