<svg xmlns="http://www.w3.org/2000/svg" viewBox="0 0 640 512"><!-- Font Awesome Pro 6.0.0-alpha1 by @fontawesome - https://fontawesome.com License - https://fontawesome.com/license (Commercial License) --><defs><style>.fa-secondary{opacity:.4}</style></defs><path d="M538 227C542 216 544 204 544 192C544 139 501 96 448 96C428 96 410 102 395 112C367 64 315 32 256 32C168 32 96 104 96 192C96 195 96 197 96 200C40 220 0 273 0 336C0 415 65 480 144 480H512C583 480 640 423 640 352C640 290 596 238 538 227ZM425 321L337 409C334 412 328 416 320 416S306 412 303 409L215 321C206 312 206 296 215 287S240 278 249 287L296 334V184C296 171 307 160 320 160S344 171 344 184V334L391 287C400 278 416 278 425 287S434 312 425 321Z" class="fa-secondary"/><path d="M425 321L337 409C334 412 328 416 320 416S306 412 303 409L215 321C206 312 206 296 215 287S240 278 249 287L296 334V184C296 171 307 160 320 160S344 171 344 184V334L391 287C400 278 416 278 425 287S434 312 425 321Z" class="fa-primary"/></svg>