<svg xmlns="http://www.w3.org/2000/svg" viewBox="0 0 384 512"><!-- Font Awesome Pro 6.0.0-alpha1 by @fontawesome - https://fontawesome.com License - https://fontawesome.com/license (Commercial License) --><defs><style>.fa-secondary{opacity:.4}</style></defs><path d="M224 272C224 288 232 308 230 304C185 301 144 283 112 255V359C102 354 91 352 80 352S58 354 48 359V153C58 158 69 160 80 160C94 160 107 156 118 150C134 199 178 235 231 239C233 236 224 256 224 272Z" class="fa-secondary"/><path d="M304 192C260 192 224 228 224 272C224 316 260 352 304 352S384 316 384 272C384 228 348 192 304 192ZM304 288C295 288 288 281 288 272S295 256 304 256S320 263 320 272S313 288 304 288ZM80 0C36 0 0 36 0 80C0 124 36 160 80 160S160 124 160 80C160 36 124 0 80 0ZM80 96C71 96 64 89 64 80S71 64 80 64S96 71 96 80S89 96 80 96ZM80 352C36 352 0 388 0 432C0 476 36 512 80 512S160 476 160 432C160 388 124 352 80 352ZM80 448C71 448 64 441 64 432S71 416 80 416S96 423 96 432S89 448 80 448Z" class="fa-primary"/></svg>