<svg xmlns="http://www.w3.org/2000/svg" viewBox="0 0 640 512"><!-- Font Awesome Pro 6.0.0-alpha1 by @fontawesome - https://fontawesome.com License - https://fontawesome.com/license (Commercial License) --><defs><style>.fa-secondary{opacity:.4}</style></defs><path d="M624 224H477C479 234 480 245 480 256S479 278 477 288H624C633 288 640 281 640 272V240C640 231 633 224 624 224ZM16 224C7 224 0 231 0 240V272C0 281 7 288 16 288H163C161 278 160 267 160 256S161 234 163 224H16Z" class="fa-secondary"/><path d="M320 96C232 96 160 168 160 256S232 416 320 416S480 344 480 256S408 96 320 96ZM320 320C285 320 256 291 256 256S285 192 320 192C355 192 384 221 384 256S355 320 320 320Z" class="fa-primary"/></svg>