<svg xmlns="http://www.w3.org/2000/svg" viewBox="0 0 384 512"><!-- Font Awesome Pro 6.0.0-alpha1 by @fontawesome - https://fontawesome.com License - https://fontawesome.com/license (Commercial License) --><defs><style>.fa-secondary{opacity:.4}</style></defs><path d="M333 218C321 276 270 320 208 320H176C149 320 126 337 116 361C105 355 93 352 80 352C69 352 58 354 48 359V153C58 158 69 160 80 160S102 158 112 153V274C131 263 153 256 176 256H208C235 256 258 239 268 215C279 221 291 224 304 224C314 224 324 222 333 218Z" class="fa-secondary"/><path d="M304 64C260 64 224 100 224 144C224 188 260 224 304 224S384 188 384 144C384 100 348 64 304 64ZM304 160C295 160 288 153 288 144S295 128 304 128S320 135 320 144S313 160 304 160ZM80 0C36 0 0 36 0 80C0 124 36 160 80 160S160 124 160 80C160 36 124 0 80 0ZM80 96C71 96 64 89 64 80S71 64 80 64S96 71 96 80S89 96 80 96ZM80 352C36 352 0 388 0 432C0 476 36 512 80 512S160 476 160 432C160 388 124 352 80 352ZM80 448C71 448 64 441 64 432S71 416 80 416S96 423 96 432S89 448 80 448Z" class="fa-primary"/></svg>