<svg xmlns="http://www.w3.org/2000/svg" viewBox="0 0 512 512"><!-- Font Awesome Pro 6.0.0-alpha1 by @fontawesome - https://fontawesome.com License - https://fontawesome.com/license (Commercial License) --><defs><style>.fa-secondary{opacity:.4}</style></defs><path d="M432 176H144C95 216 64 278 64 345C64 396 83 429 114 462C125 474 139 480 155 480H421C437 480 452 474 462 462C493 430 512 396 512 345C512 278 482 216 432 176ZM418 416H158C136 392 128 373 128 345C128 329 129 273 190 224H387C447 273 448 329 448 345C448 373 440 392 418 416Z" class="fa-secondary"/><path d="M130 320C128 331 128 340 128 345C128 373 136 392 158 416H418C440 392 448 373 448 345C448 340 448 331 446 320H130ZM432 176L480 32H88C39 32 0 71 0 120V208C0 217 7 224 16 224H48C57 224 64 217 64 208V136C64 114 82 96 104 96H117L144 176H432Z" class="fa-primary"/></svg>