<svg xmlns="http://www.w3.org/2000/svg" viewBox="0 0 384 512"><!-- Font Awesome Pro 6.0.0-alpha1 by @fontawesome - https://fontawesome.com License - https://fontawesome.com/license (Commercial License) --><defs><style>.fa-secondary{opacity:.4}</style></defs><path d="M97 493C95 503 103 512 113 512H129C137 512 143 507 145 499L159 436C144 430 129 423 115 413L97 493ZM241 65L252 19C254 9 246 0 236 0H220C212 0 206 5 204 13L192 67C203 65 215 64 226 64C231 64 236 65 241 65ZM172 159L135 322C139 327 142 331 146 335C155 344 166 351 177 356L224 145C206 146 188 150 172 159ZM318 0H301C294 0 287 5 286 13L273 70C289 74 304 79 318 87L333 19C335 9 328 0 318 0ZM255 149L207 365C224 368 241 367 257 363L300 168C297 167 294 166 291 165C280 157 268 152 255 149ZM190 445L179 493C177 503 184 512 194 512H211C218 512 225 507 226 499L238 447C234 447 230 448 226 448C214 448 201 447 190 445Z" class="fa-secondary"/><path d="M226 448C174 448 126 428 89 392C52 356 32 307 32 256S52 156 89 120C126 84 174 64 226 64C269 64 309 77 342 102C354 111 355 128 345 139L322 162C313 170 301 171 291 165C248 135 184 139 146 177C125 198 113 226 113 256S125 314 146 335C184 373 248 377 291 347C301 341 314 342 322 350L345 373C355 384 354 401 342 410C309 435 269 448 226 448Z" class="fa-primary"/></svg>