<svg xmlns="http://www.w3.org/2000/svg" viewBox="0 0 512 512"><!-- Font Awesome Pro 6.0.0-alpha1 by @fontawesome - https://fontawesome.com License - https://fontawesome.com/license (Commercial License) --><defs><style>.fa-secondary{opacity:.4}</style></defs><path d="M491 1C452 12 379 35 303 62C301 55 299 48 298 43C296 39 293 35 289 33C284 31 279 32 275 34C232 56 122 116 61 176C59 177 58 178 57 179C-19 255 -19 379 57 455C133 531 257 531 333 455C334 454 335 452 336 451C395 390 456 279 478 237C480 233 481 228 479 223C477 219 473 215 469 214C463 212 457 211 450 208C477 132 500 59 511 21C513 15 512 9 507 5C503 0 497 -1 491 1ZM315 300L265 350L277 419C278 425 275 431 271 434C266 438 260 438 254 435L192 403L129 435C118 442 105 432 107 419L119 350L69 300C64 296 63 290 65 285C66 279 71 275 77 274L147 264L178 200C181 195 186 192 192 192C198 192 203 195 206 200L237 264L307 274C313 275 317 279 319 285C321 290 319 296 315 300Z" class="fa-secondary"/><path d="M315 300L265 350L277 419C278 425 275 431 271 434C266 438 260 438 254 435L192 403L129 435C118 442 105 432 107 419L119 350L69 300C64 296 63 290 65 285C66 279 71 275 77 274L147 264L178 200C181 195 186 192 192 192C198 192 203 195 206 200L237 264L307 274C313 275 317 279 319 285C321 290 319 296 315 300Z" class="fa-primary"/></svg>