<svg xmlns="http://www.w3.org/2000/svg" viewBox="0 0 512 512"><!-- Font Awesome Pro 6.0.0-alpha1 by @fontawesome - https://fontawesome.com License - https://fontawesome.com/license (Commercial License) --><defs><style>.fa-secondary{opacity:.4}</style></defs><path d="M256 32C115 32 0 125 0 240C0 290 21 335 57 371C44 421 3 466 2 466C0 469 -1 472 1 475C2 478 5 480 8 480C74 480 124 448 149 429C181 441 218 448 256 448C397 448 512 355 512 240S397 32 256 32ZM256 372C236 372 220 356 220 336S236 300 256 300S292 316 292 336S276 372 256 372ZM281 258C281 266 274 272 266 272H246C238 272 231 266 231 258L218 130C217 120 224 112 234 112H278C288 112 295 120 294 130L281 258Z" class="fa-secondary"/><path d="M256 372C236 372 220 356 220 336S236 300 256 300S292 316 292 336S276 372 256 372ZM282 258C281 266 274 272 266 272H247C239 272 232 266 231 258L218 130C217 120 225 112 234 112H279C288 112 296 120 295 130L282 258Z" class="fa-primary"/></svg>