<svg xmlns="http://www.w3.org/2000/svg" viewBox="0 0 512 512"><!-- Font Awesome Pro 6.0.0-alpha1 by @fontawesome - https://fontawesome.com License - https://fontawesome.com/license (Commercial License) --><defs><style>.fa-secondary{opacity:.4}</style></defs><path d="M256 32C115 32 0 125 0 240C0 290 21 335 57 371C44 421 3 466 2 466C0 469 -1 472 1 475C2 478 5 480 8 480C74 480 124 448 149 429C181 441 218 448 256 448C397 448 512 355 512 240S397 32 256 32ZM318 282C314 303 298 317 276 322V332C276 343 267 352 256 352S236 343 236 332V321C227 319 219 316 211 314L207 312C196 309 191 297 194 287C198 276 210 271 220 274L224 276C232 279 241 282 248 283C262 285 277 283 278 276C279 270 280 268 250 259L245 258C227 252 187 241 194 198C198 177 214 163 236 158V148C236 137 245 128 256 128S276 137 276 148V159C281 160 287 161 295 164C305 168 311 179 307 189C303 200 292 205 281 202C276 200 269 198 264 197C250 195 235 197 234 205C233 209 232 212 256 219L261 221C284 227 325 239 318 282Z" class="fa-secondary"/><path d="M318 282C314 303 298 317 276 322V332C276 343 267 352 256 352S236 343 236 332V321C227 319 218 316 211 314L206 312C196 309 190 297 194 287C198 276 209 271 220 274L224 276C232 279 241 282 248 283C262 285 277 283 278 276C279 270 279 268 250 259L244 258C227 252 186 241 194 198C198 177 213 163 236 158V148C236 137 245 128 256 128S276 137 276 148V159C281 160 287 161 294 164C305 168 310 179 307 189C303 200 292 205 281 202C275 200 269 198 264 197C250 195 235 197 233 205C233 209 232 212 256 219L261 221C284 227 325 239 318 282Z" class="fa-primary"/></svg>