<svg xmlns="http://www.w3.org/2000/svg" viewBox="0 0 512 512"><!-- Font Awesome Pro 6.0.0-alpha1 by @fontawesome - https://fontawesome.com License - https://fontawesome.com/license (Commercial License) --><defs><style>.fa-secondary{opacity:.4}</style></defs><path d="M256 32C115 32 0 125 0 240C0 290 21 335 57 371C44 421 3 466 2 466C0 469 -1 472 1 475C2 478 5 480 8 480C74 480 124 448 149 429C181 441 218 448 256 448C397 448 512 355 512 240S397 32 256 32ZM353 257C348 262 342 264 336 264S324 262 319 257L280 218V320C280 333 269 344 256 344S232 333 232 320V218L193 257C184 266 168 266 159 257S150 232 159 223L239 143C248 134 264 134 273 143L353 223C362 232 362 248 353 257Z" class="fa-secondary"/><path d="M353 257C348 262 342 264 336 264S324 262 319 257L280 218V320C280 333 269 344 256 344S232 333 232 320V218L193 257C184 266 168 266 159 257S150 232 159 223L239 143C248 134 264 134 273 143L353 223C362 232 362 248 353 257Z" class="fa-primary"/></svg>