<svg xmlns="http://www.w3.org/2000/svg" viewBox="0 0 512 512"><!-- Font Awesome Pro 6.0.0-alpha1 by @fontawesome - https://fontawesome.com License - https://fontawesome.com/license (Commercial License) --><defs><style>.fa-secondary{opacity:.4}</style></defs><path d="M256 32C115 32 0 125 0 240C0 290 21 335 57 371C44 421 3 466 2 466C0 469 -1 472 1 475C2 478 5 480 8 480C74 480 124 448 149 429C181 441 218 448 256 448C397 448 512 355 512 240S397 32 256 32ZM288 288C288 297 281 304 272 304H144C135 304 128 297 128 288V288C128 279 135 272 144 272H272C281 272 288 279 288 288L288 288ZM384 192C384 201 377 208 368 208H144C135 208 128 201 128 192V192C128 183 135 176 144 176H368C377 176 384 183 384 192L384 192Z" class="fa-secondary"/><path d="M288 288C288 297 281 304 272 304H144C135 304 128 297 128 288V288C128 279 135 272 144 272H272C281 272 288 279 288 288L288 288ZM384 192C384 201 377 208 368 208H144C135 208 128 201 128 192V192C128 183 135 176 144 176H368C377 176 384 183 384 192L384 192Z" class="fa-primary"/></svg>