<svg xmlns="http://www.w3.org/2000/svg" viewBox="0 0 512 512"><!-- Font Awesome Pro 6.0.0-alpha1 by @fontawesome - https://fontawesome.com License - https://fontawesome.com/license (Commercial License) --><defs><style>.fa-secondary{opacity:.4}</style></defs><path d="M256 32C115 32 0 125 0 240C0 290 21 335 57 371C44 421 3 466 2 466C0 469 -1 472 1 475C2 478 5 480 8 480C74 480 124 448 149 429C181 441 218 448 256 448C397 448 512 355 512 240S397 32 256 32ZM324 274C333 283 333 299 324 308S299 317 290 308L256 274L222 308C213 317 197 317 188 308S179 283 188 274L222 240L188 206C179 197 179 181 188 172S213 163 222 172L256 206L290 172C299 163 315 163 324 172S333 197 324 206L290 240L324 274Z" class="fa-secondary"/><path d="M324 274C333 283 333 299 324 308S299 317 290 308L256 274L222 308C213 317 197 317 188 308S179 283 188 274L222 240L188 206C179 197 179 181 188 172S213 163 222 172L256 206L290 172C299 163 314 163 324 172S333 197 324 206L290 240L324 274Z" class="fa-primary"/></svg>