<svg xmlns="http://www.w3.org/2000/svg" viewBox="0 0 512 512"><!-- Font Awesome Pro 6.0.0-alpha1 by @fontawesome - https://fontawesome.com License - https://fontawesome.com/license (Commercial License) --><defs><style>.fa-secondary{opacity:.4}</style></defs><path d="M256 16C123 16 16 123 16 256S123 496 256 496S496 389 496 256S389 16 256 16ZM382 156L316 300C313 306 306 313 300 316L156 382C139 390 122 373 130 356L196 212C199 206 206 199 212 196L356 130C373 122 390 139 382 156Z" class="fa-secondary"/><path d="M233 233C221 246 221 266 233 279S266 291 279 279S291 246 279 233C266 221 246 221 233 233ZM382 156L316 300C313 306 306 313 300 316L156 382C139 390 122 373 130 356L196 212C199 206 206 199 212 196L356 130C373 122 390 139 382 156Z" class="fa-primary"/></svg>