<svg xmlns="http://www.w3.org/2000/svg" viewBox="0 0 512 512"><!-- Font Awesome Pro 6.0.0-alpha1 by @fontawesome - https://fontawesome.com License - https://fontawesome.com/license (Commercial License) --><defs><style>.fa-secondary{opacity:.4}</style></defs><path d="M136 288H16C7 288 0 295 0 304V336C0 345 7 352 16 352H96V432C96 441 103 448 112 448H144C153 448 160 441 160 432V312C160 299 149 288 136 288ZM496 160H416V80C416 71 409 64 400 64H368C359 64 352 71 352 80V200C352 213 363 224 376 224H496C505 224 512 217 512 208V176C512 167 505 160 496 160Z" class="fa-secondary"/><path d="M144 64H112C103 64 96 71 96 80V160H16C7 160 0 167 0 176V208C0 217 7 224 16 224H136C149 224 160 213 160 200V80C160 71 153 64 144 64ZM496 288H376C363 288 352 299 352 312V432C352 441 359 448 368 448H400C409 448 416 441 416 432V352H496C505 352 512 345 512 336V304C512 295 505 288 496 288Z" class="fa-primary"/></svg>