<svg xmlns="http://www.w3.org/2000/svg" viewBox="0 0 512 512"><!-- Font Awesome Pro 6.0.0-alpha1 by @fontawesome - https://fontawesome.com License - https://fontawesome.com/license (Commercial License) --><defs><style>.fa-secondary{opacity:.4}</style></defs><path d="M432 352C388 352 352 388 352 432S388 512 432 512S512 476 512 432S476 352 432 352ZM408 257C419 246 419 229 408 218L374 184L507 50C514 44 514 34 507 27L485 5C478 -2 468 -2 462 5L328 138L294 104C283 93 266 93 255 104L192 167V320H345L408 257Z" class="fa-secondary"/><path d="M192 167L10 349C3 356 -1 365 0 374C7 447 65 505 138 512C147 513 156 509 163 502L345 320H192V167Z" class="fa-primary"/></svg>