<svg xmlns="http://www.w3.org/2000/svg" viewBox="0 0 512 512"><!-- Font Awesome Pro 6.0.0-alpha1 by @fontawesome - https://fontawesome.com License - https://fontawesome.com/license (Commercial License) --><defs><style>.fa-secondary{opacity:.4}</style></defs><path d="M14 267C11 267 8 263 4 263C-8 324 8 388 43 436C49 443 59 449 65 449H68C75 449 81 446 87 443L209 347C215 343 218 337 218 331L218 331L14 267ZM448 68C448 58 442 52 435 45C387 7 324 -6 263 7C263 10 266 13 266 17L330 225L330 225C336 222 343 218 346 215L442 94C448 84 448 74 448 68Z" class="fa-secondary"/><path d="M509 180C500 154 484 129 465 110L388 209L474 225C490 228 509 215 512 199C512 193 512 186 509 180ZM235 23C231 7 216 -3 196 1C101 26 27 100 2 196C-2 212 8 228 24 234L231 299C244 302 254 299 263 292L292 263C302 254 305 244 299 231L235 23ZM209 388L110 465C129 484 155 500 180 510C196 516 216 507 222 491C225 488 225 481 225 475L209 388Z" class="fa-primary"/></svg>