<svg xmlns="http://www.w3.org/2000/svg" viewBox="0 0 512 512"><!-- Font Awesome Pro 6.0.0-alpha1 by @fontawesome - https://fontawesome.com License - https://fontawesome.com/license (Commercial License) --><defs><style>.fa-secondary{opacity:.4}</style></defs><path d="M448 109L507 50C514 44 514 34 507 27L485 5C478 -2 468 -2 462 5L403 64H424C437 64 448 75 448 88V109ZM160 307V24C160 11 149 0 136 0H88C75 0 64 11 64 24V424C64 437 75 448 88 448H320V352H205L352 205V160H307L160 307ZM488 354H448V450H488C501 450 512 440 512 426V378C512 365 501 354 488 354Z" class="fa-secondary"/><path d="M0 88V136C0 149 11 160 24 160H64V64H24C11 64 0 75 0 88ZM424 64H192V160H352V488C352 501 363 512 376 512H424C437 512 448 501 448 488V88C448 75 437 64 424 64Z" class="fa-primary"/></svg>