<svg xmlns="http://www.w3.org/2000/svg" viewBox="0 0 384 512"><!-- Font Awesome Pro 6.0.0-alpha1 by @fontawesome - https://fontawesome.com License - https://fontawesome.com/license (Commercial License) --><defs><style>.fa-secondary{opacity:.4}</style></defs><path d="M384 160V224C384 242 370 256 352 256H256V480C256 498 242 512 224 512H160C142 512 128 498 128 480V256H32C14 256 0 242 0 224V160C0 142 14 128 32 128H128V32C128 14 142 0 160 0H224C242 0 256 14 256 32V128H352C370 128 384 142 384 160Z" class="fa-secondary"/></svg>