<svg xmlns="http://www.w3.org/2000/svg" viewBox="0 0 640 512"><!-- Font Awesome Pro 6.0.0-alpha1 by @fontawesome - https://fontawesome.com License - https://fontawesome.com/license (Commercial License) --><defs><style>.fa-secondary{opacity:.4}</style></defs><path d="M640 96C640 61 597 32 544 32H528C538 45 544 62 544 80V112L640 96ZM313 384H262L306 504C309 510 316 514 322 511L344 503C351 501 354 494 352 488L313 384ZM406 376C389 381 371 384 352 384C354 384 356 384 358 384L402 504C405 510 412 514 418 511L440 503C447 501 450 494 448 488L406 376Z" class="fa-secondary"/><path d="M464 0C420 0 384 36 384 80V101L12 394C5 399 0 408 0 418C0 440 24 455 44 445L165 384H352C458 384 544 298 544 192V80C544 36 508 0 464 0ZM464 56C477 56 488 67 488 80S477 104 464 104S440 93 440 80S451 56 464 56Z" class="fa-primary"/></svg>