<svg xmlns="http://www.w3.org/2000/svg" viewBox="0 0 512 512"><!-- Font Awesome Pro 6.0.0-alpha1 by @fontawesome - https://fontawesome.com License - https://fontawesome.com/license (Commercial License) --><defs><style>.fa-secondary{opacity:.4}</style></defs><path d="M503 169L343 9C330 -3 310 -3 298 9C285 22 285 42 297 55L457 215C470 227 490 227 503 215L503 214C515 202 515 182 503 169Z" class="fa-secondary"/><path d="M411 169L334 245L267 178L343 101L298 56L167 187C154 200 145 216 141 233L113 353L5 462C-2 468 -2 478 5 485L27 507C34 514 44 514 50 507L159 399L279 371C296 367 312 358 325 345L456 214L411 169ZM280 300C276 304 270 307 264 309L185 327L203 248C205 242 208 236 212 232L221 223L289 291L280 300Z" class="fa-primary"/></svg>