<svg xmlns="http://www.w3.org/2000/svg" viewBox="0 0 448 512"><!-- Font Awesome Pro 6.0.0-alpha1 by @fontawesome - https://fontawesome.com License - https://fontawesome.com/license (Commercial License) --><defs><style>.fa-secondary{opacity:.4}</style></defs><path d="M432 64H416L393 18C387 7 376 0 364 0H84C72 0 61 7 55 18L32 64H16C7 64 0 71 0 80V112C0 121 7 128 16 128H432C441 128 448 121 448 112V80C448 71 441 64 432 64ZM69 416H379L392 256H56L69 416Z" class="fa-secondary"/><path d="M75 483C76 499 90 512 106 512H341C358 512 371 499 373 483L378 416H69L75 483ZM45 128L56 256H392L402 128H45Z" class="fa-primary"/></svg>