<svg xmlns="http://www.w3.org/2000/svg" viewBox="0 0 384 512"><!-- Font Awesome Pro 6.0.0-alpha1 by @fontawesome - https://fontawesome.com License - https://fontawesome.com/license (Commercial License) --><defs><style>.fa-secondary{opacity:.4}</style></defs><path d="M128 429L179 505C185 514 199 514 205 505L256 429V192H128V429Z" class="fa-secondary"/><path d="M336 128H224V16C224 7 217 0 208 0H176C167 0 160 7 160 16V128H48C22 128 0 150 0 176S22 224 48 224C69 224 86 211 93 192H291C298 211 315 224 336 224C362 224 384 202 384 176S362 128 336 128Z" class="fa-primary"/></svg>