<svg xmlns="http://www.w3.org/2000/svg" viewBox="0 0 512 512"><!-- Font Awesome Pro 6.0.0-alpha1 by @fontawesome - https://fontawesome.com License - https://fontawesome.com/license (Commercial License) --><defs><style>.fa-secondary{opacity:.4}</style></defs><path d="M441 28C438 25 433 26 430 30L412 57C408 64 401 70 394 73L351 95L317 85L326 75C332 66 336 56 336 45V8C336 4 333 0 328 0H312C308 0 304 4 304 8V45C304 48 303 52 301 55L284 76L268 71C261 69 256 63 256 56V8C256 4 252 0 248 0H232C228 0 224 4 224 8V56C224 77 238 96 259 102L337 124L339 118C346 106 362 99 378 102L396 108L408 102C420 96 431 86 439 75L457 48C459 44 458 39 455 36L441 28Z" class="fa-secondary"/><path d="M490 134L378 102C362 99 346 106 339 118L304 192H64C29 192 0 221 0 256V320L32 301V349L19 381C16 394 13 406 16 419L42 502C45 506 51 512 58 512H122C131 512 138 506 138 496V493L112 403L131 352H288V496C288 506 294 512 304 512H368C378 512 384 506 384 496V288L416 224H480C499 224 512 211 512 192V163C512 150 502 138 490 134ZM416 176C406 176 400 170 400 160S406 144 416 144S432 150 432 160S426 176 416 176Z" class="fa-primary"/></svg>