<svg xmlns="http://www.w3.org/2000/svg" viewBox="0 0 640 512"><!-- Font Awesome Pro 6.0.0-alpha1 by @fontawesome - https://fontawesome.com License - https://fontawesome.com/license (Commercial License) --><defs><style>.fa-secondary{opacity:.4}</style></defs><path d="M256 256C256 204 281 158 320 129C301 115 280 104 256 99C217 140 192 195 192 256S217 372 256 413C280 408 301 397 320 383C281 354 256 308 256 256ZM416 32C382 32 349 40 320 54C344 65 365 80 384 99C423 139 448 195 448 256C448 319 422 376 380 416C372 424 364 431 355 437C355 438 354 438 354 438C354 438 354 438 354 438C343 446 332 453 320 458C349 472 382 480 416 480C540 480 640 380 640 256S540 32 416 32Z" class="fa-secondary"/><path d="M224 32C100 32 0 132 0 256S100 480 224 480C348 480 448 380 448 256S348 32 224 32ZM258 272H382C381 289 377 305 370 320H270C275 332 281 342 289 352H351C322 391 276 416 224 416C136 416 64 344 64 256S136 96 224 96C276 96 322 121 351 160H289C281 170 275 180 270 192H370C377 207 381 223 382 240H258C257 245 256 251 256 256S257 267 258 272Z" class="fa-primary"/></svg>