<svg xmlns="http://www.w3.org/2000/svg" viewBox="0 0 576 512"><!-- Font Awesome Pro 6.0.0-alpha1 by @fontawesome - https://fontawesome.com License - https://fontawesome.com/license (Commercial License) --><defs><style>.fa-secondary{opacity:.4}</style></defs><path d="M84 446A32 32 0 1 0 130 446A32 32 0 0 0 84 446ZM84 84A32 32 0 1 0 130 84A32 32 0 0 0 84 84ZM32 256A32 32 0 1 0 64 288A32 32 0 0 0 32 256ZM446 84A32 32 0 1 0 492 84A32 32 0 0 0 446 84ZM288 0A32 32 0 1 0 320 32A32 32 0 0 0 288 0ZM544 256A32 32 0 1 0 576 288A32 32 0 0 0 544 256ZM446 446A32 32 0 1 0 492 446A32 32 0 0 0 446 446Z" class="fa-secondary"/><path d="M304 130V288A16 16 0 0 1 272 288V130A160 160 0 1 0 304 130Z" class="fa-primary"/></svg>