<svg xmlns="http://www.w3.org/2000/svg" viewBox="0 0 512 512"><!-- Font Awesome Pro 6.0.0-alpha1 by @fontawesome - https://fontawesome.com License - https://fontawesome.com/license (Commercial License) --><defs><style>.fa-secondary{opacity:.4}</style></defs><path d="M8 177L132 301L240 246V139L59 74L8 177ZM334 7C327 3 314 0 305 0H208C198 0 188 2 179 7L90 51L256 111L423 51L334 7ZM454 74L272 139V246L381 301L505 177L454 74Z" class="fa-secondary"/><path d="M114 329L169 500L83 458C73 452 60 439 54 429L7 334C2 325 0 315 0 305V215L114 329ZM365 328L306 512H206L147 328L256 274L365 328ZM512 215V305C512 313 509 326 505 334L458 429C452 439 439 452 429 458L343 500L398 329L512 215Z" class="fa-primary"/></svg>