<svg xmlns="http://www.w3.org/2000/svg" viewBox="0 0 512 512"><!-- Font Awesome Pro 6.0.0-alpha1 by @fontawesome - https://fontawesome.com License - https://fontawesome.com/license (Commercial License) --><defs><style>.fa-secondary{opacity:.4}</style></defs><path d="M185 12L34 110C31 112 31 116 34 117L115 166L195 23C200 16 192 8 185 12ZM256 0C251 0 246 3 242 8L147 176H365L270 8C267 3 261 0 256 0ZM478 110L327 12C320 8 312 16 317 23L397 166L478 117C481 116 481 112 478 110Z" class="fa-secondary"/><path d="M16 313V151C16 147 19 146 22 147L99 193L23 315C21 319 16 317 16 313ZM231 405L23 383C17 382 14 376 17 371L123 215L231 405ZM36 416L240 438V504C240 510 234 514 229 511L34 424C30 422 32 416 36 416ZM356 208L256 384L156 208H256H356ZM478 424L283 511C278 514 272 510 272 504V438L476 416C480 416 482 422 478 424ZM495 371C498 376 495 382 489 383L281 405L389 215L495 371ZM496 151V313C496 317 491 319 489 315L413 193L490 147C493 146 496 147 496 151Z" class="fa-primary"/></svg>