<svg xmlns="http://www.w3.org/2000/svg" viewBox="0 0 448 512"><!-- Font Awesome Pro 6.0.0-alpha1 by @fontawesome - https://fontawesome.com License - https://fontawesome.com/license (Commercial License) --><defs><style>.fa-secondary{opacity:.4}</style></defs><path d="M384 32H64C29 32 0 61 0 96V416C0 451 29 480 64 480H384C419 480 448 451 448 416V96C448 61 419 32 384 32ZM128 384C110 384 96 370 96 352S110 320 128 320S160 334 160 352S146 384 128 384ZM128 288C110 288 96 274 96 256S110 224 128 224S160 238 160 256S146 288 128 288ZM128 192C110 192 96 178 96 160S110 128 128 128S160 142 160 160S146 192 128 192ZM320 384C302 384 288 370 288 352S302 320 320 320S352 334 352 352S338 384 320 384ZM320 288C302 288 288 274 288 256S302 224 320 224S352 238 352 256S338 288 320 288ZM320 192C302 192 288 178 288 160S302 128 320 128S352 142 352 160S338 192 320 192Z" class="fa-secondary"/><path d="M128 320C110 320 96 334 96 352S110 384 128 384S160 370 160 352S146 320 128 320ZM320 192C338 192 352 178 352 160S338 128 320 128S288 142 288 160S302 192 320 192ZM128 224C110 224 96 238 96 256S110 288 128 288S160 274 160 256S146 224 128 224ZM320 320C302 320 288 334 288 352S302 384 320 384S352 370 352 352S338 320 320 320ZM320 224C302 224 288 238 288 256S302 288 320 288S352 274 352 256S338 224 320 224ZM128 128C110 128 96 142 96 160S110 192 128 192S160 178 160 160S146 128 128 128Z" class="fa-primary"/></svg>