<svg xmlns="http://www.w3.org/2000/svg" viewBox="0 0 576 512"><!-- Font Awesome Pro 6.0.0-alpha1 by @fontawesome - https://fontawesome.com License - https://fontawesome.com/license (Commercial License) --><defs><style>.fa-secondary{opacity:.4}</style></defs><path d="M448 244V277L320 232V384L288 384V224L38 41C31 36 30 26 35 19L45 6C51 -1 61 -2 68 3L320 198L448 244Z" class="fa-secondary"/><path d="M128 224H288V384H192V496C192 505 185 512 176 512H112C103 512 96 505 96 496V282C59 269 32 234 32 192C32 174 46 160 64 160S96 174 96 192S110 224 128 224ZM320 232L448 277V496C448 505 441 512 432 512H368C359 512 352 505 352 496V384H320V232ZM528 96H464L457 82C452 72 439 64 428 64H375L347 37C337 27 320 34 320 48V198L448 244V208H480C515 208 544 179 544 144V112C544 103 537 96 528 96ZM416 128C407 128 400 121 400 112S407 96 416 96S432 103 432 112S425 128 416 128Z" class="fa-primary"/></svg>