<svg xmlns="http://www.w3.org/2000/svg" viewBox="0 0 576 512"><!-- Font Awesome Pro 6.0.0-alpha1 by @fontawesome - https://fontawesome.com License - https://fontawesome.com/license (Commercial License) --><defs><style>.fa-secondary{opacity:.4}</style></defs><path d="M256 320C202 320 160 362 160 416S202 512 256 512C310 512 352 470 352 416S310 320 256 320ZM256 448C237 448 224 435 224 416S237 384 256 384C275 384 288 397 288 416S275 448 256 448Z" class="fa-secondary"/><path d="M197 340L105 64H16C7 64 0 57 0 48V16C0 7 7 0 16 0H128C142 0 154 9 158 22L258 320C258 320 258 320 259 320C258 320 257 320 256 320C233 320 213 328 197 340ZM575 326L565 296C562 288 553 283 545 286L332 357C344 373 352 393 352 416C352 417 352 417 352 418L565 347C573 344 578 335 575 326Z" class="fa-primary"/></svg>