<svg xmlns="http://www.w3.org/2000/svg" viewBox="0 0 512 512"><!-- Font Awesome Pro 6.0.0-alpha1 by @fontawesome - https://fontawesome.com License - https://fontawesome.com/license (Commercial License) --><defs><style>.fa-secondary{opacity:.4}</style></defs><path d="M438 130L424 118C433 93 451 63 477 28C482 20 480 13 476 8C472 2 464 -1 456 0C404 8 362 25 332 40C297 15 254 0 210 0H176C96 0 32 64 32 144C32 162 36 180 42 196L14 214C5 220 0 230 0 241V256C0 274 14 288 32 288H192H192H193L296 350C306 356 320 348 320 336V288H323C324 288 325 288 325 288C326 288 327 288 328 288C359 288 384 313 384 344S359 400 328 400H266L253 379C248 372 241 368 233 368H172C162 368 157 379 162 387L198 440V440L162 493C157 501 162 512 172 512H233C241 512 248 508 253 501L266 480H320C426 480 512 394 512 288C512 202 460 148 438 130ZM151 176C139 176 130 167 128 156V148C130 137 139 128 151 128C165 128 175 139 175 152C175 165 165 176 151 176Z" class="fa-secondary"/><path d="M128 148C130 137 139 128 151 128C165 128 175 139 175 152C175 165 165 176 151 176C139 176 130 167 128 156V148Z" class="fa-primary"/></svg>