<svg xmlns="http://www.w3.org/2000/svg" viewBox="0 0 384 512"><!-- Font Awesome Pro 6.0.0-alpha1 by @fontawesome - https://fontawesome.com License - https://fontawesome.com/license (Commercial License) --><defs><style>.fa-secondary{opacity:.4}</style></defs><path d="M384 48V80C384 89 377 96 368 96H16C7 96 0 89 0 80V48C0 39 7 32 16 32H368C377 32 384 39 384 48Z" class="fa-secondary"/><path d="M350 303C354 311 352 322 345 329L209 473C200 482 184 482 175 473L39 329C32 322 30 312 34 303C38 294 46 288 56 288H128V160C128 142 142 128 160 128H224C242 128 256 142 256 160V288H328C338 288 346 294 350 303Z" class="fa-primary"/></svg>