<svg xmlns="http://www.w3.org/2000/svg" viewBox="0 0 512 512"><!-- Font Awesome Pro 6.0.0-alpha1 by @fontawesome - https://fontawesome.com License - https://fontawesome.com/license (Commercial License) --><defs><style>.fa-secondary{opacity:.4}</style></defs><path d="M480 352H346L301 397C289 409 273 416 256 416S223 409 211 397L166 352H32C14 352 0 366 0 384V480C0 498 14 512 32 512H480C498 512 512 498 512 480V384C512 366 498 352 480 352ZM432 456C419 456 408 445 408 432C408 419 419 408 432 408S456 419 456 432C456 445 445 456 432 456Z" class="fa-secondary"/><path d="M233 375C240 381 248 384 256 384S272 381 279 375L407 247C419 234 419 214 407 201C394 189 374 189 361 201L288 275V32C288 14 274 0 256 0C238 0 224 14 224 32V275L151 201C138 189 118 189 105 201C93 214 93 234 105 247L233 375Z" class="fa-primary"/></svg>