<svg xmlns="http://www.w3.org/2000/svg" viewBox="0 0 512 512"><!-- Font Awesome Pro 6.0.0-alpha1 by @fontawesome - https://fontawesome.com License - https://fontawesome.com/license (Commercial License) --><defs><style>.fa-secondary{opacity:.4}</style></defs><path d="M216 272H80C67 272 55 280 50 292C45 304 48 317 57 327L87 357L9 435C-3 447 -3 468 9 480L32 503C44 515 65 515 77 503L155 425L185 455C191 461 200 464 208 464C212 464 216 463 220 462C232 457 240 445 240 432V296C240 283 229 272 216 272Z" class="fa-secondary"/><path d="M296 240H432C445 240 457 232 462 220C467 208 464 195 455 185L425 155L503 77C515 65 515 44 503 32L480 9C467 -3 447 -3 435 9L357 87L327 57C318 48 304 46 292 50C280 55 272 67 272 80V216C272 229 283 240 296 240Z" class="fa-primary"/></svg>