<svg xmlns="http://www.w3.org/2000/svg" viewBox="0 0 448 512"><!-- Font Awesome Pro 6.0.0-alpha1 by @fontawesome - https://fontawesome.com License - https://fontawesome.com/license (Commercial License) --><defs><style>.fa-secondary{opacity:.4}</style></defs><path d="M444 82L335 191L407 263C420 276 420 297 407 310L315 402L79 165L170 74C183 61 205 61 218 74L290 146L399 37C405 30 415 30 421 37L444 59C450 66 450 76 444 82Z" class="fa-secondary"/><path d="M315 402L256 460C243 473 226 480 209 480H67C30 480 0 450 0 413V271C0 253 7 236 20 224L78 165L315 402Z" class="fa-primary"/></svg>