<svg xmlns="http://www.w3.org/2000/svg" viewBox="0 0 512 512"><!-- Font Awesome Pro 6.0.0-alpha1 by @fontawesome - https://fontawesome.com License - https://fontawesome.com/license (Commercial License) --><defs><style>.fa-secondary{opacity:.4}</style></defs><path d="M112 0C50 0 0 50 0 112S50 224 112 224S224 174 224 112S174 0 112 0ZM112 176C77 176 48 147 48 112S77 48 112 48S176 77 176 112S147 176 112 176ZM400 224C462 224 512 174 512 112S462 0 400 0S288 50 288 112S338 224 400 224ZM400 48C435 48 464 77 464 112S435 176 400 176S336 147 336 112S365 48 400 48ZM112 288C50 288 0 338 0 400S50 512 112 512S224 462 224 400S174 288 112 288ZM112 464C77 464 48 435 48 400S77 336 112 336S176 365 176 400S147 464 112 464ZM400 288C338 288 288 338 288 400S338 512 400 512S512 462 512 400S462 288 400 288ZM400 464C365 464 336 435 336 400S365 336 400 336S464 365 464 400S435 464 400 464Z" class="fa-secondary"/><path d="M173 380L144 401C143 418 129 432 112 432S80 418 80 400S94 369 111 368L132 339C151 346 166 361 173 380ZM144 111C143 94 129 80 112 80S80 94 80 112S94 143 111 144L132 173C151 166 166 151 173 132L144 111ZM400 432C418 432 432 418 432 400S418 369 401 368L380 339C361 346 346 361 339 380L368 401C369 418 383 432 400 432ZM380 173L401 144C418 143 432 129 432 112S418 80 400 80S369 94 368 111L339 132C346 151 361 166 380 173ZM352 299V213C329 202 310 183 299 160H213C202 183 183 202 160 213V299C183 310 202 329 213 352H299C310 329 329 310 352 299Z" class="fa-primary"/></svg>