<svg xmlns="http://www.w3.org/2000/svg" viewBox="0 0 576 512"><!-- Font Awesome Pro 6.0.0-alpha1 by @fontawesome - https://fontawesome.com License - https://fontawesome.com/license (Commercial License) --><defs><style>.fa-secondary{opacity:.4}</style></defs><path d="M172 90C98 104 48 130 48 160C48 191 100 218 177 231C190 221 200 207 205 190C210 171 207 151 198 134L172 90ZM288 192C259 192 235 211 227 237C247 239 267 240 288 240S329 239 349 237C341 211 317 192 288 192ZM224 83V96C224 131 253 160 288 160S352 131 352 96V83C332 81 310 80 288 80S244 81 224 83ZM403 90L378 134C368 151 365 171 370 190C375 207 385 221 399 231C476 218 528 191 528 160C528 130 478 103 403 90Z" class="fa-secondary"/><path d="M288 32C129 32 0 89 0 160V352C0 423 129 480 288 480S576 423 576 352V160C576 89 447 32 288 32ZM205 190C200 207 190 221 177 231C100 218 48 191 48 160C48 130 98 104 172 90L198 134C207 151 210 171 205 190ZM288 240C267 240 247 239 227 237C235 211 259 192 288 192S341 211 349 237C329 239 309 240 288 240ZM352 96C352 131 323 160 288 160S224 131 224 96V83C244 81 266 80 288 80S332 81 352 83V96ZM399 231C385 221 375 207 370 190C365 171 368 151 378 134L403 90C478 103 528 130 528 160C528 191 476 218 399 231Z" class="fa-primary"/></svg>