<svg xmlns="http://www.w3.org/2000/svg" viewBox="0 0 512 512"><!-- Font Awesome Pro 6.0.0-alpha1 by @fontawesome - https://fontawesome.com License - https://fontawesome.com/license (Commercial License) --><defs><style>.fa-secondary{opacity:.4}</style></defs><path d="M194 392C184 402 183 416 188 429C200 460 185 495 154 508C132 517 106 511 89 494C74 479 69 458 74 438C54 443 33 438 18 423C-6 400 -6 361 18 338C35 321 60 315 83 324C96 329 110 328 120 318L160 278V288C160 323 189 352 224 352H234L194 392L194 392Z" class="fa-secondary"/><path d="M160 192C160 128 188 85 223 50C289 -17 396 -16 462 50S528 223 462 289C427 324 384 352 320 352H224C189 352 160 323 160 288L160 192Z" class="fa-primary"/></svg>