<svg xmlns="http://www.w3.org/2000/svg" viewBox="0 0 448 512"><!-- Font Awesome Pro 6.0.0-alpha1 by @fontawesome - https://fontawesome.com License - https://fontawesome.com/license (Commercial License) --><defs><style>.fa-secondary{opacity:.4}</style></defs><path d="M216 272C216 249 204 237 195 229C190 223 186 219 185 214C184 210 181 208 177 208H161C158 208 156 209 154 211C153 213 152 215 153 218C155 234 165 244 173 251C181 259 184 263 184 272S181 285 173 293C164 302 152 313 152 336C152 359 164 371 173 379C178 385 182 389 183 394C184 398 187 400 191 400H207C210 400 212 399 213 397C215 395 216 393 215 390C212 374 203 364 195 357C187 349 184 345 184 336C184 327 187 323 195 315C204 307 216 295 216 272ZM264 336C264 327 267 323 275 315C284 307 296 295 296 272S284 237 275 229C270 223 266 219 265 214C264 210 261 208 257 208H241C238 208 236 209 234 211C233 213 232 215 233 218C235 234 245 244 253 251C261 259 264 263 264 272S261 285 253 293C244 302 232 313 232 336C232 359 244 371 253 379C258 385 262 389 263 394C264 397 267 400 271 400H287C290 400 292 399 293 397C295 395 296 393 295 390C292 374 283 364 275 357C267 349 264 345 264 336ZM184 112C197 112 208 101 208 88S197 64 184 64S160 75 160 88S171 112 184 112Z" class="fa-secondary"/><path d="M384 0H64C29 0 0 29 0 64V464C0 490 22 512 48 512H400C426 512 448 490 448 464V64C448 29 419 0 384 0ZM184 64C197 64 208 75 208 88S197 112 184 112S160 101 160 88S171 64 184 64ZM64 88C64 75 75 64 88 64S112 75 112 88S101 112 88 112S64 101 64 88ZM224 448C145 448 80 383 80 304S145 160 224 160S368 225 368 304S303 448 224 448Z" class="fa-primary"/></svg>