<svg xmlns="http://www.w3.org/2000/svg" viewBox="0 0 448 512"><!-- Font Awesome Pro 6.0.0-alpha1 by @fontawesome - https://fontawesome.com License - https://fontawesome.com/license (Commercial License) --><defs><style>.fa-secondary{opacity:.4}</style></defs><path d="M224 192C168 192 122 234 114 288H184C189 288 192 292 192 296V312C192 316 189 320 184 320H114C122 374 168 416 224 416C286 416 336 366 336 304C336 242 286 192 224 192ZM184 112C198 112 208 101 208 88S198 64 184 64S160 75 160 88S171 112 184 112Z" class="fa-secondary"/><path d="M384 0H64C29 0 0 29 0 64V464C0 490 22 512 48 512H400C426 512 448 490 448 464V64C448 29 419 0 384 0ZM184 64C197 64 208 75 208 88S197 112 184 112S160 101 160 88S171 64 184 64ZM64 88C64 75 75 64 88 64S112 75 112 88S101 112 88 112S64 101 64 88ZM224 448C145 448 80 383 80 304C80 225 145 160 224 160C303 160 368 225 368 304C368 383 303 448 224 448Z" class="fa-primary"/></svg>