<svg xmlns="http://www.w3.org/2000/svg" viewBox="0 0 576 512"><!-- Font Awesome Pro 6.0.0-alpha1 by @fontawesome - https://fontawesome.com License - https://fontawesome.com/license (Commercial License) --><defs><style>.fa-secondary{opacity:.4}</style></defs><path d="M544 128C544 181 501 224 448 224H421C458 211 480 170 480 128H544Z" class="fa-secondary"/><path d="M433 277C422 270 416 257 416 244C416 237 418 230 421 224C458 211 480 170 480 128C480 75 437 32 384 32S288 75 288 128C288 150 296 172 310 189C316 196 320 205 320 215C320 238 302 256 279 256H257C226 256 177 243 156 220C146 209 128 216 128 231C128 315 197 384 281 384H249C173 384 111 329 99 256H48C39 256 31 264 32 273C41 389 137 480 255 480H363C418 480 473 435 479 380C484 340 466 301 433 277ZM384 144C375 144 368 137 368 128C368 119 375 112 384 112C393 112 400 119 400 128C400 137 393 144 384 144Z" class="fa-primary"/></svg>