<svg xmlns="http://www.w3.org/2000/svg" viewBox="0 0 640 512"><!-- Font Awesome Pro 6.0.0-alpha1 by @fontawesome - https://fontawesome.com License - https://fontawesome.com/license (Commercial License) --><defs><style>.fa-secondary{opacity:.4}</style></defs><path d="M104 96H56C43 96 32 107 32 120V392C32 405 43 416 56 416H104C117 416 128 405 128 392V120C128 107 117 96 104 96ZM232 32H184C171 32 160 43 160 56V456C160 469 171 480 184 480H232C245 480 256 469 256 456V56C256 43 245 32 232 32ZM584 96H536C523 96 512 107 512 120V392C512 405 523 416 536 416H584C597 416 608 405 608 392V120C608 107 597 96 584 96ZM456 32H408C395 32 384 43 384 56V456C384 469 395 480 408 480H456C469 480 480 469 480 456V56C480 43 469 32 456 32Z" class="fa-secondary"/><path d="M0 256C0 274 14 288 32 288V224C14 224 0 238 0 256ZM128 288H160V224H128V288ZM608 224V288C626 288 640 274 640 256C640 238 626 224 608 224ZM480 288H512V224H480V288ZM256 288H384V224H256V288Z" class="fa-primary"/></svg>