<svg xmlns="http://www.w3.org/2000/svg" viewBox="0 0 640 512"><!-- Font Awesome Pro 6.0.0-alpha1 by @fontawesome - https://fontawesome.com License - https://fontawesome.com/license (Commercial License) --><defs><style>.fa-secondary{opacity:.4}</style></defs><path d="M480 224C480 136 408 64 320 64S160 136 160 224V226C157 225 155 224 152 224C140 224 130 229 122 238C115 233 105 230 96 231V224C96 101 196 0 320 0S544 101 544 224V231C535 230 526 233 518 238C510 230 500 224 488 224C485 224 483 225 480 226V224Z" class="fa-secondary"/><path d="M152 224C140 224 130 229 122 238C112 231 99 228 86 233C74 238 66 248 62 259C50 259 39 264 31 274C23 284 20 296 22 307C12 313 4 322 1 334C-2 347 1 358 9 368C2 377 -2 389 1 401C4 413 12 423 22 428C20 439 22 452 30 462C38 471 50 476 62 476C65 488 73 497 85 502C90 504 95 505 100 505C108 505 116 503 122 498C130 507 140 512 152 512C174 512 192 494 192 472C192 462 188 453 182 446C188 439 192 430 192 420S188 401 182 394C188 387 192 378 192 368C192 358 188 349 182 342C188 335 192 326 192 316C192 306 188 297 182 290C188 283 192 274 192 264C192 242 174 224 152 224ZM639 335C636 323 628 313 618 308C620 297 618 284 610 274C602 265 590 260 578 260C575 248 567 238 555 234C542 229 529 231 518 238C510 230 500 224 488 224C466 224 448 242 448 264C448 274 452 283 458 290C452 297 448 306 448 316C448 326 451 335 457 342C451 349 448 358 448 368C448 378 451 387 457 394C451 401 448 410 448 420C448 430 452 439 458 446C452 453 448 462 448 472C448 494 466 512 488 512C500 512 510 507 517 499C524 503 531 505 539 505C544 505 549 504 554 502C566 498 574 488 577 476C589 477 601 472 609 462C617 452 620 440 618 428C628 423 636 414 639 401C642 389 638 377 631 368C638 359 642 347 639 335Z" class="fa-primary"/></svg>