<svg xmlns="http://www.w3.org/2000/svg" viewBox="0 0 384 512"><!-- Font Awesome Pro 6.0.0-alpha1 by @fontawesome - https://fontawesome.com License - https://fontawesome.com/license (Commercial License) --><defs><style>.fa-secondary{opacity:.4}</style></defs><path d="M192 0C86 0 0 86 0 192V368C0 447 65 512 144 512S288 447 288 368V358C345 325 384 263 384 192C384 86 298 0 192 0ZM280 208C267 208 256 197 256 184C256 153 231 128 200 128H184C153 128 128 153 128 184V216L142 221C161 229 174 245 177 265C179 285 172 304 156 317L119 347C115 350 110 352 104 352C97 352 90 349 85 343C77 333 79 318 89 309L126 280C129 277 129 274 129 272C129 271 128 267 124 266L95 254C86 251 80 242 80 232V184C80 127 127 80 184 80H200C257 80 304 127 304 184C304 197 293 208 280 208Z" class="fa-secondary"/><path d="M200 80H184C127 80 80 127 80 184V232C80 242 86 251 95 254L124 266C128 267 129 271 129 272C129 273 129 277 126 280L89 309C79 318 77 333 85 343C90 349 97 352 104 352C110 352 115 350 119 347L156 317C172 304 179 285 177 265C174 245 161 229 142 221L128 216V184C128 153 153 128 184 128H200C231 128 256 153 256 184C256 197 267 208 280 208S304 197 304 184C304 127 257 80 200 80ZM104 344C104 344 103 344 103 344C104 344 105 344 106 344C106 344 105 344 104 344Z" class="fa-primary"/></svg>