<svg xmlns="http://www.w3.org/2000/svg" viewBox="0 0 512 512"><!-- Font Awesome Pro 6.0.0-alpha1 by @fontawesome - https://fontawesome.com License - https://fontawesome.com/license (Commercial License) --><defs><style>.fa-secondary{opacity:.4}</style></defs><path d="M310 22L310 56C310 66 305 75 297 81L267 104C262 108 262 115 268 118L279 124C284 126 288 132 288 138V216C288 220 284 224 280 224H277C274 224 271 222 269 220C268 216 264 216 262 219L244 248C241 253 236 256 231 256H230C226 256 222 258 219 261L213 266C210 270 210 274 213 278L219 283C222 286 224 290 224 295V304C224 313 217 320 208 320H201C195 320 190 317 187 311L165 266C162 261 156 260 152 264L132 283C129 286 125 288 121 288H18C34 405 134 496 256 496C388 496 496 389 496 256C496 142 416 47 310 22ZM416 358C416 360 415 362 415 364C412 367 410 370 407 374L401 379C398 382 394 384 390 384H375C371 384 367 382 364 379L351 366C344 360 334 357 325 359L304 365C303 365 301 365 300 365H290C285 365 281 363 278 360L266 349C265 347 264 345 264 343V333C264 329 266 326 269 325L308 309C310 309 312 308 314 306L338 290C339 289 341 288 342 288H355C358 288 361 290 362 293L367 306C368 307 369 308 371 308H375C376 308 378 307 379 305L383 291C383 289 385 288 387 288H393C395 288 397 290 397 292V305C397 307 398 309 399 311L411 322C414 326 416 330 416 334V358Z" class="fa-secondary"/><path d="M256 16C275 16 293 18 310 22L310 56C310 66 305 75 297 81L268 104C262 108 263 115 268 118L279 124C285 126 288 132 288 138V216C288 220 284 224 280 224H277C274 224 271 222 270 220C268 216 264 216 262 219L245 248C242 253 237 256 231 256H231C226 256 222 258 219 261L214 266C211 270 211 274 214 278L219 283C222 286 224 290 224 295V304C224 313 217 320 208 320H202C196 320 190 317 188 311L165 266C162 261 156 260 152 264L133 283C130 286 126 288 121 288H18C17 278 16 267 16 256C16 123 123 16 256 16ZM399 311C398 309 397 307 397 305V292C397 290 395 288 393 288H387C385 288 384 289 383 291L379 305C378 307 377 308 375 308H371C370 308 368 307 368 306L362 293C361 290 358 288 355 288H343C341 288 340 289 338 290L314 306C313 308 311 309 309 309L270 325C266 326 264 329 264 333V343C264 345 265 347 267 348L279 360C282 363 286 365 290 365H300C302 365 303 365 304 365L326 359C335 357 344 360 351 366L364 379C367 382 371 384 375 384H390C395 384 399 382 402 379L407 374C410 370 413 367 415 364C416 362 416 360 416 358V334C416 330 414 326 411 323L399 311Z" class="fa-primary"/></svg>