<svg xmlns="http://www.w3.org/2000/svg" viewBox="0 0 128 512"><!-- Font Awesome Pro 6.0.0-alpha1 by @fontawesome - https://fontawesome.com License - https://fontawesome.com/license (Commercial License) --><defs><style>.fa-secondary{opacity:.4}</style></defs><path d="M128 64C128 29 99 0 64 0S0 29 0 64S29 128 64 128S128 99 128 64ZM128 448C128 413 99 384 64 384S0 413 0 448S29 512 64 512S128 483 128 448Z" class="fa-secondary"/><path d="M128 256C128 221 99 192 64 192S0 221 0 256S29 320 64 320S128 291 128 256Z" class="fa-primary"/></svg>