<svg xmlns="http://www.w3.org/2000/svg" viewBox="0 0 512 512"><!-- Font Awesome Pro 6.0.0-alpha1 by @fontawesome - https://fontawesome.com License - https://fontawesome.com/license (Commercial License) --><defs><style>.fa-secondary{opacity:.4}</style></defs><path d="M77 390C49 353 32 306 32 256C32 132 132 32 256 32C306 32 353 49 390 77L332 134C310 120 284 112 256 112C177 112 112 177 112 256C112 284 120 310 134 332L77 390ZM378 180C392 202 400 228 400 256C400 335 335 400 256 400C228 400 202 392 180 378L122 435C159 463 206 480 256 480C380 480 480 380 480 256C480 206 463 159 435 122L378 180Z" class="fa-secondary"/><path d="M50 507C44 514 34 514 27 507L5 485C-2 478 -2 468 5 462L462 5C468 -2 479 -2 485 5L507 27C514 33 514 44 507 50L50 507Z" class="fa-primary"/></svg>