<svg xmlns="http://www.w3.org/2000/svg" viewBox="0 0 640 512"><!-- Font Awesome Pro 6.0.0-alpha1 by @fontawesome - https://fontawesome.com License - https://fontawesome.com/license (Commercial License) --><defs><style>.fa-secondary{opacity:.4}</style></defs><path d="M392 64H216A24 24 0 0 0 216 112H280V144H328V112H392A24 24 0 0 0 392 64ZM48 168A24 24 0 0 0 0 168V360A24 24 0 0 0 48 360V288H80V240H48ZM608 192H576A32 32 0 0 0 544 224V416A32 32 0 0 0 576 448H608A32 32 0 0 0 640 416V224A32 32 0 0 0 608 192Z" class="fa-secondary"/><path d="M506 211L435 154A48 48 0 0 0 405 144H128A48 48 0 0 0 80 192V336A48 48 0 0 0 128 384H169L219 434A48 48 0 0 0 253 448H464A48 48 0 0 0 512 400V224A16 16 0 0 0 506 211ZM304 400A24 24 0 1 1 328 376A24 24 0 0 1 304 400ZM322 306A16 16 0 0 1 306 320H302A16 16 0 0 1 286 306L274 210A16 16 0 0 1 290 192H318A16 16 0 0 1 334 210Z" class="fa-primary"/></svg>