<svg xmlns="http://www.w3.org/2000/svg" viewBox="0 0 576 512"><!-- Font Awesome Pro 6.0.0-alpha1 by @fontawesome - https://fontawesome.com License - https://fontawesome.com/license (Commercial License) --><defs><style>.fa-secondary{opacity:.4}</style></defs><path d="M48 145L260 310C277 323 299 323 316 310L509 160C458 158 416 116 416 64H80C54 64 32 86 32 112C32 125 38 137 48 145ZM335 336C322 346 305 352 288 352S254 346 241 336L32 173V400C32 426 54 448 80 448H496C522 448 544 426 544 400V173L335 336Z" class="fa-secondary"/><path d="M512 0C547 0 576 29 576 64S547 128 512 128S448 99 448 64S477 0 512 0Z" class="fa-primary"/></svg>