<svg xmlns="http://www.w3.org/2000/svg" viewBox="0 0 512 512"><!-- Font Awesome Pro 6.0.0-alpha1 by @fontawesome - https://fontawesome.com License - https://fontawesome.com/license (Commercial License) --><defs><style>.fa-secondary{opacity:.4}</style></defs><path d="M288 272L139 422C138 423 136 424 134 424H88V378C88 376 89 374 90 373L240 224L200 184L51 333C39 345 32 362 32 378V424L0 480L32 512L88 480H134C150 480 167 473 179 461L328 312L288 272Z" class="fa-secondary"/><path d="M484 28C446 -9 386 -9 348 28L271 105L258 92C249 83 233 83 224 92L183 133C174 142 174 158 183 167L345 329C354 338 370 338 379 329L420 288C429 279 429 263 420 254L407 241L484 164C521 126 521 66 484 28Z" class="fa-primary"/></svg>