<svg xmlns="http://www.w3.org/2000/svg" viewBox="0 0 512 512"><!-- Font Awesome Pro 6.0.0-alpha1 by @fontawesome - https://fontawesome.com License - https://fontawesome.com/license (Commercial License) --><defs><style>.fa-secondary{opacity:.4}</style></defs><path d="M288 272L139 422C138 423 136 424 134 424H88V378C88 376 89 374 90 373L240 224L200 184L51 333C39 345 32 362 32 378V424L0 480L32 512L88 480H134C150 480 167 473 179 461L328 312L288 272Z" class="fa-secondary"/><path d="M90 345C89 346 88 348 88 350V396H134C136 396 138 395 139 394L241 292H143L90 345ZM484 0C446 -38 386 -38 348 0L271 77L258 64C249 55 233 55 224 64L183 105C174 114 174 130 183 139L345 301C354 310 370 310 379 301L420 260C429 250 429 235 420 226L407 213L484 136C521 98 521 38 484 0Z" class="fa-primary"/></svg>