<svg xmlns="http://www.w3.org/2000/svg" viewBox="0 0 640 512"><!-- Font Awesome Pro 6.0.0-alpha1 by @fontawesome - https://fontawesome.com License - https://fontawesome.com/license (Commercial License) --><defs><style>.fa-secondary{opacity:.4}</style></defs><path d="M616 512C611 512 606 510 601 507L9 43C-1 35 -3 20 5 9C13 -1 28 -3 39 5L631 469C641 477 643 492 635 503C630 509 623 512 616 512Z" class="fa-secondary"/><path d="M149 92C199 54 257 32 320 32C443 32 550 116 605 239C606 243 608 251 608 256C608 261 606 269 605 273C585 317 559 356 527 388L446 324C457 304 464 281 464 256V256C464 177 399 112 320 112C283 112 249 127 223 150L149 92ZM320 160H320C317 160 314 160 312 161C317 170 320 181 320 192C320 202 317 212 313 220L408 294C413 283 416 270 416 256C416 203 373 160 320 160ZM320 352C273 352 234 318 226 274L325 351C323 352 322 352 320 352ZM374 389L448 448C409 469 365 480 320 480C197 480 90 396 35 273C34 269 32 261 32 256C32 251 34 243 35 239C48 210 64 184 81 160L178 236C177 243 176 249 176 256C176 335 241 400 320 400H320C339 400 357 396 374 389Z" class="fa-primary"/></svg>