<svg xmlns="http://www.w3.org/2000/svg" viewBox="0 0 640 512"><!-- Font Awesome Pro 6.0.0-alpha1 by @fontawesome - https://fontawesome.com License - https://fontawesome.com/license (Commercial License) --><defs><style>.fa-secondary{opacity:.4}</style></defs><path d="M416 256C416 203 373 160 320 160H320C317 160 314 160 311 161C317 170 320 181 320 192C320 202 317 212 313 220L407 294C413 282 416 270 416 256ZM604 239C550 116 443 32 320 32C257 32 199 54 149 92L224 150C249 127 283 112 320 112C399 112 464 177 464 256V256C464 281 457 304 446 324L527 388C558 356 585 317 604 273C606 269 608 261 608 256C608 251 606 243 604 239Z" class="fa-secondary"/><path d="M616 512C611 512 606 510 601 507L9 43C-1 35 -3 20 5 9C13 -1 28 -3 39 5L631 469C641 477 643 492 635 503C630 509 623 512 616 512ZM85 155L453 445C443 451 432 456 422 460L67 180C73 172 79 163 85 155ZM37 236L344 479C358 478 372 475 385 472L51 208C46 217 41 226 37 236ZM292 478L38 277C88 389 182 467 292 478Z" class="fa-primary"/></svg>