<svg xmlns="http://www.w3.org/2000/svg" viewBox="0 0 576 512"><!-- Font Awesome Pro 6.0.0-alpha1 by @fontawesome - https://fontawesome.com License - https://fontawesome.com/license (Commercial License) --><defs><style>.fa-secondary{opacity:.4}</style></defs><path d="M288 160H288C285 160 282 160 280 161C285 170 288 181 288 192C288 227 259 256 224 256C213 256 202 253 193 247C192 250 192 254 192 256C192 309 235 352 288 352S384 309 384 256S341 160 288 160Z" class="fa-secondary"/><path d="M573 239C518 116 411 32 288 32S58 116 3 239C2 243 0 251 0 256C0 261 2 269 3 273C58 396 165 480 288 480S518 396 573 273C574 269 576 261 576 256C576 251 574 243 573 239ZM432 256C432 336 368 400 288 400H288C209 400 144 335 144 256S209 112 288 112S432 177 432 256V256Z" class="fa-primary"/></svg>