<svg xmlns="http://www.w3.org/2000/svg" viewBox="0 0 512 512"><!-- Font Awesome Pro 6.0.0-alpha1 by @fontawesome - https://fontawesome.com License - https://fontawesome.com/license (Commercial License) --><defs><style>.fa-secondary{opacity:.4}</style></defs><path d="M256 16C123 16 16 123 16 256C16 389 123 496 256 496S496 389 496 256C496 123 389 16 256 16ZM336 168C362 168 392 185 396 210C398 221 384 228 376 221L367 212C352 199 320 199 306 212L296 221C288 228 274 221 276 210C280 185 310 168 336 168ZM160 160C178 160 192 174 192 192S178 224 160 224C142 224 128 210 128 192S142 160 160 160ZM264 432H248C174 432 113 377 104 306C103 297 110 288 120 288H392C402 288 409 296 408 306C399 377 338 432 264 432Z" class="fa-secondary"/><path d="M336 168C310 168 280 185 276 210C274 221 288 228 296 221L306 212C320 199 352 199 367 212L376 221C385 228 398 221 396 210C392 185 362 168 336 168ZM160 160C142 160 128 174 128 192S142 224 160 224C178 224 192 210 192 192S178 160 160 160Z" class="fa-primary"/></svg>