<svg xmlns="http://www.w3.org/2000/svg" viewBox="0 0 512 512"><!-- Font Awesome Pro 6.0.0-alpha1 by @fontawesome - https://fontawesome.com License - https://fontawesome.com/license (Commercial License) --><defs><style>.fa-secondary{opacity:.4}</style></defs><path d="M256 16C123 16 16 123 16 256S123 496 256 496S496 389 496 256S389 16 256 16ZM176 240C158 240 144 226 144 208S158 176 176 176C194 176 208 190 208 208S194 240 176 240ZM336 240C318 240 304 226 304 208S318 176 336 176C354 176 368 190 368 208S354 240 336 240Z" class="fa-secondary"/><path d="M176 240C158 240 144 226 144 208S158 176 176 176C194 176 208 190 208 208S194 240 176 240ZM336 240C318 240 304 226 304 208S318 176 336 176C354 176 368 190 368 208S354 240 336 240Z" class="fa-primary"/></svg>