<svg xmlns="http://www.w3.org/2000/svg" viewBox="0 0 512 512"><!-- Font Awesome Pro 6.0.0-alpha1 by @fontawesome - https://fontawesome.com License - https://fontawesome.com/license (Commercial License) --><defs><style>.fa-secondary{opacity:.4}</style></defs><path d="M256 16C123 16 16 123 16 256C16 389 123 496 256 496S496 389 496 256C496 123 389 16 256 16ZM290 170L370 122C381 115 394 129 385 140L352 180L385 220C394 231 381 245 370 238L290 190C282 186 282 174 290 170ZM142 122L222 170C230 174 230 186 222 190L142 238C131 245 118 231 127 220L160 180L127 140C118 129 131 115 142 122ZM264 432H248C175 432 114 377 105 306C104 297 111 288 121 288H391C401 288 408 296 407 306C398 377 337 432 264 432Z" class="fa-secondary"/><path d="M385 220L352 180L385 140C394 129 382 115 370 122L290 170C282 174 282 186 290 190L370 238C381 245 394 231 385 220ZM142 122C131 115 118 129 127 140L161 180L127 220C118 231 131 245 142 238L222 190C230 186 230 174 222 170L142 122Z" class="fa-primary"/></svg>