<svg xmlns="http://www.w3.org/2000/svg" viewBox="0 0 640 512"><!-- Font Awesome Pro 6.0.0-alpha1 by @fontawesome - https://fontawesome.com License - https://fontawesome.com/license (Commercial License) --><defs><style>.fa-secondary{opacity:.4}</style></defs><path d="M320 16C187 16 80 123 80 256C80 389 187 496 320 496S560 389 560 256C560 123 453 16 320 16ZM400 176C418 176 432 190 432 208S418 240 400 240C382 240 368 226 368 208S382 176 400 176ZM240 176C258 176 272 190 272 208S258 240 240 240C222 240 208 226 208 208S222 176 240 176ZM320 432C259 432 185 394 176 339C174 327 185 317 197 321C227 330 272 336 320 336S413 330 443 321C454 317 466 327 464 339C455 394 381 432 320 432Z" class="fa-secondary"/><path d="M400 176C382 176 368 190 368 208S382 240 400 240C418 240 432 226 432 208S418 176 400 176ZM240 176C222 176 208 190 208 208S222 240 240 240C258 240 272 226 272 208S258 176 240 176Z" class="fa-primary"/></svg>