<svg xmlns="http://www.w3.org/2000/svg" viewBox="0 0 512 512"><!-- Font Awesome Pro 6.0.0-alpha1 by @fontawesome - https://fontawesome.com License - https://fontawesome.com/license (Commercial License) --><defs><style>.fa-secondary{opacity:.4}</style></defs><path d="M256 16C123 16 16 123 16 256C16 341 61 416 128 459V288C128 279 135 272 144 272C153 272 160 279 160 288V476C189 489 222 496 256 496S323 489 352 476V288C352 279 359 272 368 272C377 272 384 279 384 288V459C451 416 496 341 496 256C496 123 389 16 256 16ZM190 225C176 211 144 211 129 225L120 233C116 236 111 237 106 235C102 232 99 227 100 222C104 197 134 180 160 180S216 197 220 222C221 227 218 232 214 235C208 238 203 235 200 233L190 225ZM256 416C229 416 208 387 208 352S229 288 256 288S304 317 304 352S283 416 256 416ZM406 234C400 238 395 235 392 233L383 224C368 211 336 211 322 224L312 233C308 236 303 237 298 235C294 232 291 227 292 222C296 197 326 180 352 180C378 180 408 197 412 222C413 227 410 232 406 234Z" class="fa-secondary"/><path d="M144 272C135 272 128 279 128 288V459C138 465 149 471 160 476V288C160 279 153 272 144 272ZM160 180C134 180 104 197 100 222C99 227 102 232 106 235C111 237 116 236 120 233L129 224C144 211 176 211 190 224L200 233C203 235 208 238 214 235C218 232 221 227 220 222C216 197 186 180 160 180ZM368 272C359 272 352 279 352 288V476C363 471 374 465 384 459V288C384 279 377 272 368 272ZM352 180C326 180 296 197 292 222C291 227 294 232 298 235C303 237 308 236 312 233L322 224C336 211 368 211 383 224L392 233C395 235 400 238 406 234C410 232 413 227 412 222C408 197 378 180 352 180Z" class="fa-primary"/></svg>