<svg xmlns="http://www.w3.org/2000/svg" viewBox="0 0 512 512"><!-- Font Awesome Pro 6.0.0-alpha1 by @fontawesome - https://fontawesome.com License - https://fontawesome.com/license (Commercial License) --><defs><style>.fa-secondary{opacity:.4}</style></defs><path d="M256 16C123 16 16 123 16 256C16 389 123 496 256 496S496 389 496 256C496 123 389 16 256 16ZM217 228L207 211C200 197 188 189 176 189C164 189 152 197 144 211L135 228C131 235 119 232 120 223C123 181 152 152 176 152C200 152 229 181 232 223C233 232 221 235 217 228ZM312 388C312 407 283 429 240 432C232 433 228 420 237 417L254 409C267 404 275 396 275 388C275 380 267 372 254 367L237 359C231 357 231 347 237 345L254 337C267 332 275 324 275 316S267 300 254 295L237 287C228 284 232 271 241 272C283 275 312 297 312 316C312 329 299 343 277 352C299 361 312 375 312 388ZM377 228L368 211C360 197 348 189 336 189C324 189 312 197 305 211L295 228C291 235 279 232 280 223C283 181 312 152 336 152C360 152 389 181 392 223C393 232 381 235 377 228Z" class="fa-secondary"/><path d="M176 152C152 152 123 181 120 223C119 232 131 235 135 228L144 211C152 197 164 189 176 189C188 189 200 197 207 211L217 228C221 235 233 232 232 223C229 181 200 152 176 152ZM336 152C312 152 283 181 280 223C279 232 291 235 295 228L304 211C312 197 324 189 336 189C348 189 360 197 367 211L377 228C381 235 392 232 392 223C389 181 360 152 336 152Z" class="fa-primary"/></svg>