<svg xmlns="http://www.w3.org/2000/svg" viewBox="0 0 512 512"><!-- Font Awesome Pro 6.0.0-alpha1 by @fontawesome - https://fontawesome.com License - https://fontawesome.com/license (Commercial License) --><defs><style>.fa-secondary{opacity:.4}</style></defs><path d="M475 159C472 159 468 160 464 160C420 160 384 125 384 81C384 74 386 66 389 57C351 31 305 16 256 16C123 16 16 123 16 256C16 389 123 496 256 496S496 389 496 256C496 221 489 189 475 159ZM336 152C360 152 389 181 392 223C393 232 381 235 377 228L368 211C360 197 348 189 336 189C324 189 312 197 305 211L295 228C291 235 279 232 280 223C283 181 312 152 336 152ZM176 152C200 152 229 181 232 223C233 232 221 235 217 228L208 211C200 197 188 189 176 189C164 189 152 197 145 211L135 228C131 235 120 232 120 223C123 181 152 152 176 152ZM256 432C195 432 121 394 112 339C110 327 122 317 133 321C163 330 208 336 256 336S349 330 379 321C391 317 402 327 400 339C391 394 317 432 256 432Z" class="fa-secondary"/><path d="M470 0C467 -4 461 -4 457 0C444 17 416 58 416 78C416 104 437 125 464 125C490 125 512 104 512 78C512 58 483 17 470 0ZM336 149C312 149 283 178 280 220C279 229 291 232 295 225L304 208C312 194 324 186 336 186C348 186 360 194 367 208L377 225C381 232 392 229 392 220C388 178 360 149 336 149ZM176 149C152 149 123 178 120 220C119 229 131 232 135 225L144 208C152 194 164 186 176 186C188 186 200 194 207 208L217 225C221 232 233 229 232 220C229 178 200 149 176 149Z" class="fa-primary"/></svg>