<svg xmlns="http://www.w3.org/2000/svg" viewBox="0 0 640 512"><!-- Font Awesome Pro 6.0.0-alpha1 by @fontawesome - https://fontawesome.com License - https://fontawesome.com/license (Commercial License) --><defs><style>.fa-secondary{opacity:.4}</style></defs><path d="M320 16C202 16 103 102 84 215C87 214 90 214 93 213L97 213H99C111 213 122 218 130 227C137 236 141 247 139 259C128 337 111 355 105 361C144 441 225 496 320 496S497 441 536 361C530 355 513 337 502 259C500 247 503 236 511 227C518 218 529 213 541 213L545 213L547 213C550 214 553 214 557 215C537 102 439 16 320 16ZM400 152C424 152 453 181 456 223C457 232 445 235 441 228L432 211C424 197 413 189 400 189C388 189 377 197 369 211L359 228C355 235 344 232 344 223C347 181 376 152 400 152ZM240 152C264 152 293 181 296 223C297 232 286 235 281 228L272 211C264 197 253 189 240 189C228 189 217 197 209 211L199 228C195 235 184 232 185 223C188 181 216 152 240 152ZM320 432C260 432 186 394 176 339C174 327 186 317 197 321C227 330 272 336 320 336S413 330 443 321C455 317 466 327 464 339C455 394 381 432 320 432Z" class="fa-secondary"/><path d="M400 152C376 152 347 181 344 223C343 232 355 235 359 228L368 211C376 197 388 189 400 189C412 189 424 197 432 211L441 228C445 235 457 232 456 223C453 181 424 152 400 152ZM240 152C216 152 187 181 184 223C183 232 195 235 199 228L209 211C216 197 228 189 240 189C252 189 264 197 272 211L281 228C285 235 297 232 296 223C293 181 264 152 240 152ZM98 245C76 248 28 256 14 271C-5 289 -4 319 14 338S63 357 81 338C96 324 104 276 107 254C108 249 103 244 98 245ZM626 271C612 256 564 248 542 245C537 244 532 249 533 254C536 276 544 324 559 338C577 357 607 356 626 338S645 289 626 271Z" class="fa-primary"/></svg>