<svg xmlns="http://www.w3.org/2000/svg" viewBox="0 0 512 512"><!-- Font Awesome Pro 6.0.0-alpha1 by @fontawesome - https://fontawesome.com License - https://fontawesome.com/license (Commercial License) --><defs><style>.fa-secondary{opacity:.4}</style></defs><path d="M352 200C339 200 328 211 328 224S339 248 352 248S376 237 376 224S365 200 352 200ZM160 200C147 200 136 211 136 224S147 248 160 248S184 237 184 224S173 200 160 200Z" class="fa-secondary"/><path d="M256 16C123 16 16 123 16 256S123 496 256 496S496 389 496 256S389 16 256 16ZM88 224C88 184 120 152 160 152C200 152 232 184 232 224S200 296 160 296C120 296 88 264 88 224ZM320 400H192C171 400 171 368 192 368H320C341 368 341 400 320 400ZM352 296C312 296 280 264 280 224S312 152 352 152C392 152 424 184 424 224S392 296 352 296Z" class="fa-primary"/></svg>