<svg xmlns="http://www.w3.org/2000/svg" viewBox="0 0 512 512"><!-- Font Awesome Pro 6.0.0-alpha1 by @fontawesome - https://fontawesome.com License - https://fontawesome.com/license (Commercial License) --><defs><style>.fa-secondary{opacity:.4}</style></defs><path d="M256 16C123 16 16 123 16 256C16 389 123 496 256 496S496 389 496 256C496 123 389 16 256 16ZM160 215L131 243C117 258 94 236 109 221L137 192L109 163C94 148 116 126 131 141L160 169L189 141C204 126 226 148 211 163L183 192L211 221C226 236 203 258 189 243L160 215ZM256 416C221 416 192 387 192 352S221 288 256 288S320 317 320 352S291 416 256 416ZM381 243L352 215L323 243C309 258 286 236 301 221L329 192L301 163C286 148 308 126 323 141L352 169L381 141C396 126 418 148 403 163L375 192L403 221C418 236 395 258 381 243Z" class="fa-secondary"/><path d="M183 192L212 163C227 148 204 126 189 141L160 169L132 141C117 126 94 148 109 163L138 192L109 221C94 236 117 258 132 243L160 215L189 243C204 258 227 236 212 221L183 192ZM404 221L375 192L404 163C419 148 396 126 381 141L352 169L324 141C309 126 286 148 301 163L330 192L301 221C286 236 309 258 324 243L352 215L381 243C396 258 419 236 404 221Z" class="fa-primary"/></svg>