<svg xmlns="http://www.w3.org/2000/svg" viewBox="0 0 512 512"><!-- Font Awesome Pro 6.0.0-alpha1 by @fontawesome - https://fontawesome.com License - https://fontawesome.com/license (Commercial License) --><defs><style>.fa-secondary{opacity:.4}</style></defs><path d="M256 16C123 16 16 123 16 256C16 389 123 496 256 496S496 389 496 256C496 123 389 16 256 16ZM336 160C354 160 368 174 368 192S354 224 336 224C318 224 304 210 304 192S318 160 336 160ZM176 160C194 160 208 174 208 192S194 224 176 224C158 224 144 210 144 192S158 160 176 160ZM264 432H248C175 432 114 377 105 306C104 297 111 288 121 288H391C401 288 408 296 407 306C398 377 337 432 264 432Z" class="fa-secondary"/><path d="M336 160C318 160 304 174 304 192S318 224 336 224C354 224 368 210 368 192S354 160 336 160ZM176 160C158 160 144 174 144 192S158 224 176 224C194 224 208 210 208 192S194 160 176 160Z" class="fa-primary"/></svg>