<svg xmlns="http://www.w3.org/2000/svg" viewBox="0 0 512 512"><!-- Font Awesome Pro 6.0.0-alpha1 by @fontawesome - https://fontawesome.com License - https://fontawesome.com/license (Commercial License) --><defs><style>.fa-secondary{opacity:.4}</style></defs><path d="M256 16C123 16 16 123 16 256C16 389 123 496 256 496S496 389 496 256C496 123 389 16 256 16ZM144 208C144 190 158 176 176 176C194 176 208 190 208 208S194 240 176 240C158 240 144 226 144 208ZM256 416C221 416 192 387 192 352S221 288 256 288S320 317 320 352S291 416 256 416ZM336 240C318 240 304 226 304 208S318 176 336 176C354 176 368 190 368 208S354 240 336 240Z" class="fa-secondary"/><path d="M176 176C158 176 144 190 144 208S158 240 176 240C194 240 208 226 208 208S194 176 176 176ZM336 176C318 176 304 190 304 208S318 240 336 240C354 240 368 226 368 208S354 176 336 176Z" class="fa-primary"/></svg>