<svg xmlns="http://www.w3.org/2000/svg" viewBox="0 0 448 512"><!-- Font Awesome Pro 6.0.0-alpha1 by @fontawesome - https://fontawesome.com License - https://fontawesome.com/license (Commercial License) --><defs><style>.fa-secondary{opacity:.4}</style></defs><path d="M320 448H128C100 448 73 466 65 492C61 502 70 512 80 512H368C378 512 386 502 383 492C375 466 348 448 320 448ZM120 335C165 361 223 345 249 300C260 281 264 258 259 236L364 254C369 254 375 253 379 249S386 241 386 235C386 198 365 165 331 149C298 134 258 139 230 163L193 64C191 57 179 47 166 54C145 67 129 87 122 111C113 147 125 204 182 225L114 306C105 318 113 331 120 335ZM224 192C233 192 240 199 240 208S233 224 224 224S208 217 208 208S215 192 224 192Z" class="fa-secondary"/><path d="M224 0C109 0 16 93 16 208C16 312 92 398 192 413V448H256V413C356 398 432 312 432 208C432 93 339 0 224 0ZM379 249C375 253 369 254 364 254L259 236C264 258 260 281 249 300C223 345 165 361 120 335C113 331 105 318 114 306L182 225C125 204 113 147 122 112C129 87 145 67 166 54C179 47 191 56 193 64L230 163C258 139 298 134 331 149C365 165 386 198 386 235C386 241 384 246 379 249Z" class="fa-primary"/></svg>