<svg xmlns="http://www.w3.org/2000/svg" viewBox="0 0 512 512"><!-- Font Awesome Pro 6.0.0-alpha1 by @fontawesome - https://fontawesome.com License - https://fontawesome.com/license (Commercial License) --><defs><style>.fa-secondary{opacity:.4}</style></defs><path d="M256 288C238 288 224 274 224 256S238 224 256 224S288 238 288 256S274 288 256 288Z" class="fa-secondary"/><path d="M353 128C325 128 299 133 276 141L288 18C289 7 280 -1 269 0C190 10 128 78 128 159C128 187 133 213 141 236L18 224C7 223 -1 232 0 243C10 322 78 384 159 384C187 384 213 379 236 371L224 494C223 505 232 513 243 512C322 502 384 434 384 353C384 325 379 299 371 276L494 288C505 289 513 280 512 269C502 190 434 128 353 128ZM256 288C238 288 224 274 224 256S238 224 256 224S288 238 288 256S274 288 256 288Z" class="fa-primary"/></svg>