<svg xmlns="http://www.w3.org/2000/svg" viewBox="0 0 576 512"><!-- Font Awesome Pro 6.0.0-alpha1 by @fontawesome - https://fontawesome.com License - https://fontawesome.com/license (Commercial License) --><defs><style>.fa-secondary{opacity:.4}</style></defs><path d="M256 0V128H384L256 0ZM569 295L489 215C480 206 464 206 455 215S446 240 455 249L494 288H216C203 288 192 299 192 312S203 336 216 336H494L455 375C450 380 448 386 448 392S450 404 455 409C464 418 480 418 489 409L569 329C578 320 578 304 569 295Z" class="fa-secondary"/><path d="M384 336V464C384 490 362 512 336 512H48C22 512 0 490 0 464V48C0 22 22 0 48 0H256V128H384V288H216C203 288 192 299 192 312S203 336 216 336H384Z" class="fa-primary"/></svg>