<svg xmlns="http://www.w3.org/2000/svg" viewBox="0 0 384 512"><!-- Font Awesome Pro 6.0.0-alpha1 by @fontawesome - https://fontawesome.com License - https://fontawesome.com/license (Commercial License) --><defs><style>.fa-secondary{opacity:.4}</style></defs><path d="M256 0V128H384L256 0ZM95 377C93 379 92 381 91 384L80 440C79 445 83 449 88 448L144 437C147 436 149 435 151 433L249 335L193 279L95 377ZM279 232C268 221 251 221 240 232L215 257L271 313L296 288C307 277 307 260 296 249L279 232Z" class="fa-secondary"/><path d="M256 128V0H48C22 0 0 22 0 48V464C0 490 22 512 48 512H336C362 512 384 490 384 464V128H256ZM151 433C149 435 147 436 144 437L88 448C83 449 79 445 80 440L91 384C92 381 93 379 95 377L193 279L249 335L151 433ZM296 288L271 313L215 257L240 232C251 221 268 221 279 232L296 249C307 260 307 277 296 288Z" class="fa-primary"/></svg>