<svg xmlns="http://www.w3.org/2000/svg" viewBox="0 0 384 512"><!-- Font Awesome Pro 6.0.0-alpha1 by @fontawesome - https://fontawesome.com License - https://fontawesome.com/license (Commercial License) --><defs><style>.fa-secondary{opacity:.4}</style></defs><path d="M260 240H233C228 240 223 243 220 248L192 292L165 248C162 243 157 240 151 240H125C113 240 105 254 111 264L160 344L111 424C105 434 113 448 125 448H151C157 448 162 445 165 440L192 396L220 440C223 445 228 448 233 448H260C272 448 280 434 273 424L224 344L273 264C280 254 272 240 260 240ZM256 0V128H384L256 0Z" class="fa-secondary"/><path d="M256 128V0H48C22 0 0 22 0 48V464C0 490 22 512 48 512H336C362 512 384 490 384 464V128H256ZM273 424C280 434 272 448 259 448H233C227 448 222 445 219 440L192 396L165 440C162 445 157 448 151 448H125C112 448 104 434 111 424L160 344L111 264C104 254 112 240 125 240H151C157 240 162 243 165 248L192 292L219 248C222 243 227 240 233 240H259C272 240 280 254 273 264L224 344L273 424Z" class="fa-primary"/></svg>