<svg xmlns="http://www.w3.org/2000/svg" viewBox="0 0 384 512"><!-- Font Awesome Pro 6.0.0-alpha1 by @fontawesome - https://fontawesome.com License - https://fontawesome.com/license (Commercial License) --><defs><style>.fa-secondary{opacity:.4}</style></defs><path d="M256 128V0H48C22 0 0 22 0 48V464C0 490 22 512 48 512H336C362 512 384 490 384 464V128H256ZM130 362C138 370 138 382 130 390C126 394 121 396 116 396S106 394 102 390L54 342C46 334 46 322 54 314L102 266C110 258 122 258 130 266S138 286 130 294L96 328L130 362ZM200 436C198 448 188 456 176 456C175 456 173 456 172 456C159 454 150 441 152 428L184 236C186 223 199 214 212 216C225 218 234 231 232 244L200 436ZM330 342L282 390C278 394 273 396 268 396S258 394 254 390C246 382 246 370 254 362L288 328L254 294C246 286 246 274 254 266S274 258 282 266L330 314C338 322 338 334 330 342Z" class="fa-secondary"/><path d="M256 0V128H384L256 0ZM282 266C274 258 262 258 254 266S246 286 254 294L288 328L254 362C246 370 246 382 254 390C258 394 263 396 268 396S278 394 282 390L330 342C338 334 338 322 330 314L282 266ZM130 266C122 258 110 258 102 266L54 314C46 322 46 334 54 342L102 390C106 394 111 396 116 396S126 394 130 390C138 382 138 370 130 362L96 328L130 294C138 286 138 274 130 266ZM212 216C199 214 186 223 184 236L152 428C150 441 159 454 172 456C173 456 175 456 176 456C188 456 198 448 200 436L232 244C234 231 225 218 212 216Z" class="fa-primary"/></svg>