<svg xmlns="http://www.w3.org/2000/svg" viewBox="0 0 384 512"><!-- Font Awesome Pro 6.0.0-alpha1 by @fontawesome - https://fontawesome.com License - https://fontawesome.com/license (Commercial License) --><defs><style>.fa-secondary{opacity:.4}</style></defs><path d="M200 240H128C119 240 112 247 112 256V432C112 441 119 448 128 448H144C153 448 160 441 160 432V392H204C249 392 284 354 280 308C276 269 239 240 200 240ZM204 344H160V288H204C219 288 232 301 232 316S219 344 204 344ZM256 0V128H384L256 0Z" class="fa-secondary"/><path d="M204 288H160V344H204C219 344 232 331 232 316S219 288 204 288ZM256 128V0H48C22 0 0 22 0 48V464C0 490 22 512 48 512H336C362 512 384 490 384 464V128H256ZM204 392H160V432C160 441 153 448 144 448H128C119 448 112 441 112 432V256C112 247 119 240 128 240H200C239 240 276 269 280 308C284 354 249 392 204 392Z" class="fa-primary"/></svg>