<svg xmlns="http://www.w3.org/2000/svg" viewBox="0 0 512 512"><!-- Font Awesome Pro 6.0.0-alpha1 by @fontawesome - https://fontawesome.com License - https://fontawesome.com/license (Commercial License) --><defs><style>.fa-secondary{opacity:.4}</style></defs><path d="M384 0V128H512L384 0ZM297 215C288 206 272 206 263 215S254 240 263 249L302 288H24C11 288 0 299 0 312S11 336 24 336H302L263 375C258 380 256 386 256 392S258 404 263 409C272 418 288 418 297 409L377 329C386 320 386 304 377 295L297 215Z" class="fa-secondary"/><path d="M512 128V464C512 490 490 512 464 512H176C150 512 128 490 128 464V336H302L263 375C258 380 256 386 256 392S258 404 263 409C272 418 288 418 297 409L377 329C386 320 386 304 377 295L297 215C288 206 272 206 263 215S254 240 263 249L302 288H128V48C128 22 150 0 176 0H384V128H512Z" class="fa-primary"/></svg>