<svg xmlns="http://www.w3.org/2000/svg" viewBox="0 0 384 512"><!-- Font Awesome Pro 6.0.0-alpha1 by @fontawesome - https://fontawesome.com License - https://fontawesome.com/license (Commercial License) --><defs><style>.fa-secondary{opacity:.4}</style></defs><path d="M256 0V128H384L256 0ZM232 295C229 291 224 288 219 288S208 291 205 295L160 363L147 343C144 339 139 336 133 336S123 339 120 343L67 423C63 428 63 434 66 440C69 445 74 448 80 448H304C310 448 315 445 318 440C321 434 321 428 317 423L232 295Z" class="fa-secondary"/><path d="M256 128V0H48C22 0 0 22 0 48V464C0 490 22 512 48 512H336C362 512 384 490 384 464V128H256ZM96 224C114 224 128 238 128 256S114 288 96 288S64 274 64 256S78 224 96 224ZM318 440C315 445 310 448 304 448H80C74 448 69 445 66 440C63 434 63 428 67 423L120 343C123 339 128 336 133 336S144 339 147 343L160 363L205 295C208 291 213 288 219 288S229 291 232 295L317 423C321 428 321 434 318 440Z" class="fa-primary"/></svg>