<svg xmlns="http://www.w3.org/2000/svg" viewBox="0 0 384 512"><!-- Font Awesome Pro 6.0.0-alpha1 by @fontawesome - https://fontawesome.com License - https://fontawesome.com/license (Commercial License) --><defs><style>.fa-secondary{opacity:.4}</style></defs><path d="M256 128V0H48C22 0 0 22 0 48V464C0 490 22 512 48 512H336C362 512 384 490 384 464V128H256ZM224 384C224 402 210 416 192 416H96C78 416 64 402 64 384V288C64 270 78 256 96 256H192C210 256 224 270 224 288V384ZM320 387C320 400 306 407 296 401L256 376V296L296 271C306 265 320 272 320 285V387Z" class="fa-secondary"/><path d="M256 0V128H384L256 0ZM192 256H96C78 256 64 270 64 288V384C64 402 78 416 96 416H192C210 416 224 402 224 384V288C224 270 210 256 192 256ZM296 271L256 296V376L296 401C306 407 320 400 320 387V285C320 272 306 265 296 271Z" class="fa-primary"/></svg>