<svg xmlns="http://www.w3.org/2000/svg" viewBox="0 0 384 512"><!-- Font Awesome Pro 6.0.0-alpha1 by @fontawesome - https://fontawesome.com License - https://fontawesome.com/license (Commercial License) --><defs><style>.fa-secondary{opacity:.4}</style></defs><path d="M160 211C91 225 43 298 73 375C84 404 107 427 136 438C214 469 287 421 301 352H160V211ZM256 0V128H384L256 0Z" class="fa-secondary"/><path d="M256 128V0H48C22 0 0 22 0 48V464C0 490 22 512 48 512H336C362 512 384 490 384 464V128H256ZM137 438C108 427 85 404 74 375C43 298 91 225 160 211V352H301C287 421 214 469 137 438ZM192 320V200C258 200 312 254 312 320H192Z" class="fa-primary"/></svg>