<svg xmlns="http://www.w3.org/2000/svg" viewBox="0 0 384 512"><!-- Font Awesome Pro 6.0.0-alpha1 by @fontawesome - https://fontawesome.com License - https://fontawesome.com/license (Commercial License) --><defs><style>.fa-secondary{opacity:.4}</style></defs><path d="M256 0V128H384L256 0ZM264 359C274 343 280 324 280 304C280 247 233 200 176 200S72 247 72 304S119 408 176 408C196 408 214 402 229 393L281 443C288 450 298 450 304 443L315 432C322 426 322 416 315 409L264 359ZM176 360C145 360 120 335 120 304S145 248 176 248S232 273 232 304S207 360 176 360Z" class="fa-secondary"/><path d="M176 248C145 248 120 273 120 304S145 360 176 360S232 335 232 304S207 248 176 248ZM256 128V0H48C22 0 0 22 0 48V464C0 490 22 512 48 512H336C362 512 384 490 384 464V128H256ZM315 432L304 443C298 450 288 450 281 443L229 393C214 402 196 408 176 408C119 408 72 361 72 304S119 200 176 200S280 247 280 304C280 324 274 343 264 359L315 409C322 416 322 426 315 432Z" class="fa-primary"/></svg>