<svg xmlns="http://www.w3.org/2000/svg" viewBox="0 0 384 512"><!-- Font Awesome Pro 6.0.0-alpha1 by @fontawesome - https://fontawesome.com License - https://fontawesome.com/license (Commercial License) --><defs><style>.fa-secondary{opacity:.4}</style></defs><path d="M256 128V0H48C22 0 0 22 0 48V464C0 490 22 512 48 512H336C362 512 384 490 384 464V128H256ZM288 384C288 402 266 416 240 416S192 402 192 384S214 352 240 352C245 352 251 353 256 354V278L160 315V416C160 434 138 448 112 448S64 434 64 416S86 384 112 384C117 384 123 385 128 386V271C128 264 133 258 139 256L267 209C272 207 277 208 282 211S288 219 288 224V384Z" class="fa-secondary"/><path d="M256 0V128H384L256 0ZM267 209L139 256C133 258 128 264 128 271V386C123 385 117 384 112 384C86 384 64 398 64 416S86 448 112 448S160 434 160 416V315L256 278V354C251 353 245 352 240 352C214 352 192 366 192 384S214 416 240 416S288 402 288 384V224C288 219 286 214 282 211S272 207 267 209Z" class="fa-primary"/></svg>