<svg xmlns="http://www.w3.org/2000/svg" viewBox="0 0 384 512"><!-- Font Awesome Pro 6.0.0-alpha1 by @fontawesome - https://fontawesome.com License - https://fontawesome.com/license (Commercial License) --><defs><style>.fa-secondary{opacity:.4}</style></defs><path d="M307 288H269C262 288 256 294 256 301V435C256 442 262 448 269 448H307C314 448 320 442 320 435V301C320 294 314 288 307 288ZM115 352H77C70 352 64 358 64 365V435C64 442 70 448 77 448H115C122 448 128 442 128 435V365C128 358 122 352 115 352ZM211 224H173C166 224 160 230 160 237V435C160 442 166 448 173 448H211C218 448 224 442 224 435V237C224 230 218 224 211 224ZM256 0V128H384L256 0Z" class="fa-secondary"/><path d="M256 128V0H48C22 0 0 22 0 48V464C0 490 22 512 48 512H336C362 512 384 490 384 464V128H256ZM128 435C128 442 122 448 115 448H77C70 448 64 442 64 435V365C64 358 70 352 77 352H115C122 352 128 358 128 365V435ZM224 435C224 442 218 448 211 448H173C166 448 160 442 160 435V237C160 230 166 224 173 224H211C218 224 224 230 224 237V435ZM320 435C320 442 314 448 307 448H269C262 448 256 442 256 435V301C256 294 262 288 269 288H307C314 288 320 294 320 301V435Z" class="fa-primary"/></svg>