<svg xmlns="http://www.w3.org/2000/svg" viewBox="0 0 384 512"><!-- Font Awesome Pro 6.0.0-alpha1 by @fontawesome - https://fontawesome.com License - https://fontawesome.com/license (Commercial License) --><defs><style>.fa-secondary{opacity:.4}</style></defs><path d="M256 128V0H48C22 0 0 22 0 48V464C0 490 22 512 48 512H336C362 512 384 490 384 464V128H256ZM264 360H216V408C216 421 205 432 192 432S168 421 168 408V360H120C107 360 96 349 96 336S107 312 120 312H168V264C168 251 179 240 192 240S216 251 216 264V312H264C277 312 288 323 288 336S277 360 264 360Z" class="fa-secondary"/><path d="M256 0V128H384L256 0ZM264 312H216V264C216 251 205 240 192 240S168 251 168 264V312H120C107 312 96 323 96 336S107 360 120 360H168V408C168 421 179 432 192 432S216 421 216 408V360H264C277 360 288 349 288 336S277 312 264 312Z" class="fa-primary"/></svg>