<svg xmlns="http://www.w3.org/2000/svg" viewBox="0 0 384 512"><!-- Font Awesome Pro 6.0.0-alpha1 by @fontawesome - https://fontawesome.com License - https://fontawesome.com/license (Commercial License) --><defs><style>.fa-secondary{opacity:.4}</style></defs><path d="M256 0V128H384L256 0ZM120 256H112C86 256 64 278 64 304V336C64 362 86 384 112 384H120C124 384 128 380 128 376V360C128 356 124 352 120 352H112C103 352 96 345 96 336V304C96 295 103 288 112 288H120C124 288 128 284 128 280V264C128 260 124 256 120 256ZM179 298C178 297 177 296 177 295C177 291 182 288 188 288H200C204 288 208 284 208 280V264C208 260 204 256 200 256H188C164 256 145 273 145 295C145 305 150 315 159 323L181 342C182 343 183 344 183 345C183 349 178 352 172 352H160C156 352 152 356 152 360V376C152 380 156 384 160 384H172C196 384 215 367 215 345C215 335 210 325 201 317L179 298ZM312 256H296C292 256 288 260 288 264V285C288 305 282 325 272 342C262 325 256 305 256 285V264C256 260 252 256 248 256H232C228 256 224 260 224 264V285C224 320 237 354 260 379C263 382 267 384 272 384S281 382 284 379C307 354 320 320 320 285V264C320 260 316 256 312 256Z" class="fa-secondary"/><path d="M256 0H48C22 0 0 22 0 48V464C0 490 22 512 48 512H336C362 512 384 490 384 464V128H256V0ZM128 280C128 284 124 288 120 288H112C103 288 96 295 96 304V336C96 345 103 352 112 352H120C124 352 128 356 128 360V376C128 380 124 384 120 384H112C86 384 64 362 64 336V304C64 278 86 256 112 256H120C124 256 128 260 128 264V280ZM172 384H160C156 384 152 380 152 376V360C152 356 156 352 160 352H172C178 352 183 349 183 345C183 344 182 343 181 342L159 323C150 315 145 305 145 295C145 273 164 256 188 256H200C204 256 208 260 208 264V280C208 284 204 288 200 288H188C182 288 177 291 177 295C177 296 178 297 179 298L201 317C210 325 215 335 215 345C215 367 196 384 172 384ZM232 256H248C252 256 256 260 256 264V285C256 305 262 325 272 342C282 325 288 305 288 285V264C288 260 292 256 296 256H312C316 256 320 260 320 264V285C320 320 307 354 284 379C281 382 277 384 272 384S263 382 260 379C237 354 224 320 224 285V264C224 260 228 256 232 256Z" class="fa-primary"/></svg>