<svg xmlns="http://www.w3.org/2000/svg" viewBox="0 0 384 512"><!-- Font Awesome Pro 6.0.0-alpha1 by @fontawesome - https://fontawesome.com License - https://fontawesome.com/license (Commercial License) --><defs><style>.fa-secondary{opacity:.4}</style></defs><path d="M256 0V128H384L256 0ZM272 384H112C103 384 96 391 96 400S103 416 112 416H272C281 416 288 409 288 400S281 384 272 384ZM272 320H112C103 320 96 327 96 336S103 352 112 352H272C281 352 288 345 288 336S281 320 272 320ZM272 256H112C103 256 96 263 96 272S103 288 112 288H272C281 288 288 281 288 272S281 256 272 256Z" class="fa-secondary"/><path d="M256 128V0H48C22 0 0 22 0 48V464C0 490 22 512 48 512H336C362 512 384 490 384 464V128H256ZM272 416H112C103 416 96 409 96 400S103 384 112 384H272C281 384 288 391 288 400S281 416 272 416ZM272 352H112C103 352 96 345 96 336S103 320 112 320H272C281 320 288 327 288 336S281 352 272 352ZM272 288H112C103 288 96 281 96 272S103 256 112 256H272C281 256 288 263 288 272S281 288 272 288Z" class="fa-primary"/></svg>