<svg xmlns="http://www.w3.org/2000/svg" viewBox="0 0 384 512"><!-- Font Awesome Pro 6.0.0-alpha1 by @fontawesome - https://fontawesome.com License - https://fontawesome.com/license (Commercial License) --><defs><style>.fa-secondary{opacity:.4}</style></defs><path d="M256 0V128H384L256 0ZM197 317L192 315C168 308 169 305 169 301C171 293 186 291 200 293C205 294 211 296 217 298C228 301 239 296 243 285C246 275 241 264 230 260C223 257 217 256 212 255V248C212 237 203 228 192 228S172 237 172 248V254C149 259 134 273 130 294C122 337 163 348 180 354L186 355C216 364 215 366 214 371C213 379 198 381 184 379C177 378 168 375 160 372L156 370C145 367 134 372 130 383C127 393 132 405 142 408L147 410C154 412 163 415 172 417V424C172 435 181 444 192 444S212 435 212 424V418C234 413 250 399 254 378C261 335 220 323 197 317Z" class="fa-secondary"/><path d="M256 128V0H48C22 0 0 22 0 48V464C0 490 22 512 48 512H336C362 512 384 490 384 464V128H256ZM64 72C64 68 68 64 72 64H152C156 64 160 68 160 72V88C160 92 156 96 152 96H72C68 96 64 92 64 88V72ZM64 152V136C64 132 68 128 72 128H152C156 128 160 132 160 136V152C160 156 156 160 152 160H72C68 160 64 156 64 152ZM254 378C250 399 234 413 212 418V424C212 435 203 444 192 444S172 435 172 424V417C163 415 155 412 147 410L143 408C132 404 127 393 130 383C134 372 146 367 156 370L160 372C168 375 177 378 184 379C198 381 213 379 214 371C215 366 216 364 186 355L181 353C163 348 123 336 130 294C134 273 150 259 172 254V248C172 237 181 228 192 228S212 237 212 248V255C217 256 223 257 231 260C241 264 246 275 243 285C239 296 228 301 217 298C212 296 205 294 200 293C186 291 171 293 170 301C169 305 168 308 192 315L197 317C220 323 261 335 254 378Z" class="fa-primary"/></svg>