<svg xmlns="http://www.w3.org/2000/svg" viewBox="0 0 512 512"><!-- Font Awesome Pro 6.0.0-alpha1 by @fontawesome - https://fontawesome.com License - https://fontawesome.com/license (Commercial License) --><defs><style>.fa-secondary{opacity:.4}</style></defs><path d="M464 32H48C22 32 0 54 0 80V432C0 458 22 480 48 480H464C490 480 512 458 512 432V80C512 54 490 32 464 32ZM112 408C112 412 108 416 104 416H56C52 416 48 412 48 408V360C48 356 52 352 56 352H104C108 352 112 356 112 360V408ZM112 280C112 284 108 288 104 288H56C52 288 48 284 48 280V232C48 228 52 224 56 224H104C108 224 112 228 112 232V280ZM112 152C112 156 108 160 104 160H56C52 160 48 156 48 152V104C48 100 52 96 56 96H104C108 96 112 100 112 104V152ZM352 400C352 409 345 416 336 416H176C167 416 160 409 160 400V304C160 295 167 288 176 288H336C345 288 352 295 352 304V400ZM352 208C352 217 345 224 336 224H176C167 224 160 217 160 208V112C160 103 167 96 176 96H336C345 96 352 103 352 112V208ZM464 408C464 412 460 416 456 416H408C404 416 400 412 400 408V360C400 356 404 352 408 352H456C460 352 464 356 464 360V408ZM464 280C464 284 460 288 456 288H408C404 288 400 284 400 280V232C400 228 404 224 408 224H456C460 224 464 228 464 232V280ZM464 152C464 156 460 160 456 160H408C404 160 400 156 400 152V104C400 100 404 96 408 96H456C460 96 464 100 464 104V152Z" class="fa-secondary"/><path d="M336 288H176C167 288 160 295 160 304V400C160 409 167 416 176 416H336C345 416 352 409 352 400V304C352 295 345 288 336 288ZM336 96H176C167 96 160 103 160 112V208C160 217 167 224 176 224H336C345 224 352 217 352 208V112C352 103 345 96 336 96Z" class="fa-primary"/></svg>