<svg xmlns="http://www.w3.org/2000/svg" viewBox="0 0 512 512"><!-- Font Awesome Pro 6.0.0-alpha1 by @fontawesome - https://fontawesome.com License - https://fontawesome.com/license (Commercial License) --><defs><style>.fa-secondary{opacity:.4}</style></defs><path d="M496 384H336C327 384 320 391 320 400V432C320 441 327 448 336 448H496C505 448 512 441 512 432V400C512 391 505 384 496 384ZM496 224H336C327 224 320 231 320 240V272C320 281 327 288 336 288H496C505 288 512 281 512 272V240C512 231 505 224 496 224ZM496 64H432C423 64 416 71 416 80V112C416 121 423 128 432 128H496C505 128 512 121 512 112V80C512 71 505 64 496 64Z" class="fa-secondary"/><path d="M347 100L224 245V430C224 445 208 453 196 445L136 403C131 399 128 394 128 388V245L5 100C-7 86 4 64 22 64H330C348 64 359 86 347 100Z" class="fa-primary"/></svg>