<svg xmlns="http://www.w3.org/2000/svg" viewBox="0 0 512 512"><!-- Font Awesome Pro 6.0.0-alpha1 by @fontawesome - https://fontawesome.com License - https://fontawesome.com/license (Commercial License) --><defs><style>.fa-secondary{opacity:.4}</style></defs><path d="M255 164C194 164 151 211 152 265C153 313 148 361 139 408C136 421 144 434 157 436C170 439 183 431 186 418C196 368 201 316 200 265C200 239 220 212 255 212C286 213 312 238 312 268C313 316 309 364 302 411C299 424 308 437 321 439C341 442 348 424 349 419C357 369 361 318 360 267C359 211 312 165 255 164ZM506 204C503 191 491 182 477 185C464 188 456 201 459 214C464 235 464 251 464 276C464 289 474 300 488 300H488C501 300 512 289 512 276C512 254 512 232 506 204ZM466 113C417 44 338 1 253 0C183 -1 119 25 71 73C24 119 -1 181 0 247L0 268C0 281 10 292 23 293C24 293 24 293 24 293C37 293 48 283 48 270L48 246C47 193 67 144 104 107C143 68 196 47 252 48C322 49 387 84 427 140C434 151 449 154 460 146C471 139 474 124 466 113Z" class="fa-secondary"/><path d="M256 246C243 246 232 257 232 270C234 342 224 412 205 482C202 491 207 512 228 512C238 512 248 505 251 494C265 447 282 369 281 270C280 257 270 246 256 246ZM145 145C135 136 120 138 111 148C86 179 72 219 72 260C73 298 70 335 63 372C61 385 70 398 83 400C103 403 110 385 111 381C118 341 121 300 120 259C120 229 130 201 148 178C157 168 155 153 145 145ZM254 82C239 82 223 84 209 87C196 90 188 103 191 116C194 129 207 137 220 134C231 131 242 130 254 130C329 131 391 192 393 265C393 303 391 341 387 378C385 392 395 403 408 405C425 407 434 393 435 384C439 344 441 304 441 264C439 165 355 84 254 82Z" class="fa-primary"/></svg>