<svg xmlns="http://www.w3.org/2000/svg" viewBox="0 0 640 512"><!-- Font Awesome Pro 6.0.0-alpha1 by @fontawesome - https://fontawesome.com License - https://fontawesome.com/license (Commercial License) --><defs><style>.fa-secondary{opacity:.4}</style></defs><path d="M148 261C146 248 144 235 144 221C144 165 199 72 276 0C306 28 333 58 354 87C367 71 382 55 398 40C455 93 496 179 496 221C496 235 494 248 492 261C475 266 458 273 444 283C434 271 423 261 410 252C416 229 413 205 403 183C400 177 397 171 394 165L350 218L289 134C285 129 281 123 277 118C242 164 224 205 224 221C224 232 226 243 229 253C217 261 205 271 196 283C182 273 165 266 148 261Z" class="fa-secondary"/><path d="M229 253C226 243 224 232 224 221C224 205 242 164 277 118C281 123 285 129 289 134L350 218L394 165C397 171 400 177 403 183C413 205 416 229 410 252C384 234 353 224 320 224C287 224 255 234 229 253ZM528 288C491 288 458 306 438 334C418 288 373 256 320 256S222 288 202 334C182 306 149 288 112 288C50 288 0 338 0 400S50 512 112 512H528C590 512 640 462 640 400S590 288 528 288Z" class="fa-primary"/></svg>