<svg xmlns="http://www.w3.org/2000/svg" viewBox="0 0 384 512"><!-- Font Awesome Pro 6.0.0-alpha1 by @fontawesome - https://fontawesome.com License - https://fontawesome.com/license (Commercial License) --><defs><style>.fa-secondary{opacity:.4}</style></defs><path d="M216 24C216 24 216 24 216 24C216 24 216 24 216 24C216 9 204 0 192 0C189 0 186 1 183 2C183 2 183 2 183 2H183H183H183C183 2 183 2 183 2C183 2 183 2 183 2C179 4 175 6 172 11C48 192 224 200 224 288C224 324 195 352 159 352C124 352 96 322 96 287V202C96 180 70 169 55 185C28 213 0 261 0 320C0 426 86 512 192 512S384 426 384 320C384 150 216 127 216 24ZM55 185C55 185 55 185 55 185C55 185 55 185 55 185L55 185ZM192 448C148 448 110 426 87 392C108 408 133 416 160 416C231 416 288 359 288 288C288 230 251 194 224 168C239 178 320 230 320 320C320 391 263 448 192 448Z" class="fa-secondary"/><path d="M192 448C149 448 110 426 87 392C108 408 134 416 160 416C231 416 288 359 288 288C288 230 252 194 225 168C239 178 320 230 320 320C320 391 263 448 192 448Z" class="fa-primary"/></svg>