<svg xmlns="http://www.w3.org/2000/svg" viewBox="0 0 512 512"><!-- Font Awesome Pro 6.0.0-alpha1 by @fontawesome - https://fontawesome.com License - https://fontawesome.com/license (Commercial License) --><defs><style>.fa-secondary{opacity:.4}</style></defs><path d="M512 31V332C512 344 504 356 491 361C447 378 411 384 379 384C305 384 254 352 180 352C147 352 109 359 64 378V32C64 29 63 27 62 24C110 7 155 0 185 0H185C254 0 289 32 349 32C377 32 411 25 456 4C463 1 469 0 476 0C495 0 512 12 512 31Z" class="fa-secondary"/><path d="M32 0C14 0 0 14 0 32V496C0 505 7 512 16 512H48C57 512 64 505 64 496V32C64 14 50 0 32 0Z" class="fa-primary"/></svg>