<svg xmlns="http://www.w3.org/2000/svg" viewBox="0 0 640 512"><!-- Font Awesome Pro 6.0.0-alpha1 by @fontawesome - https://fontawesome.com License - https://fontawesome.com/license (Commercial License) --><defs><style>.fa-secondary{opacity:.4}</style></defs><path d="M400 149L384 160H32C14 160 0 174 0 192V320C0 338 14 352 32 352H384L400 363C443 391 512 416 576 416V96C512 96 443 121 400 149ZM288 288H256C238 288 224 274 224 256S238 224 256 224H288C306 224 320 238 320 256S306 288 288 288Z" class="fa-secondary"/><path d="M608 96H576V416H608C626 416 640 402 640 384V128C640 110 626 96 608 96ZM288 224H256C238 224 224 238 224 256S238 288 256 288H288C306 288 320 274 320 256S306 224 288 224Z" class="fa-primary"/></svg>