<svg xmlns="http://www.w3.org/2000/svg" viewBox="0 0 448 512"><!-- Font Awesome Pro 6.0.0-alpha1 by @fontawesome - https://fontawesome.com License - https://fontawesome.com/license (Commercial License) --><defs><style>.fa-secondary{opacity:.4}</style></defs><path d="M320 169V64H328C341 64 352 53 352 40V24C352 11 341 0 328 0H120C107 0 96 11 96 24V40C96 53 107 64 120 64H128V168C62 203 16 272 16 352C16 406 36 455 70 492C82 505 99 512 117 512H331C349 512 366 505 378 491C411 455 431 408 432 357C434 277 387 205 320 169ZM331 448L117 449C93 422 80 388 80 352C80 266 141 234 192 207V64H256V207C293 227 370 262 368 355C367 390 354 423 331 448Z" class="fa-secondary"/><path d="M368 352C368 353 368 354 368 355C367 390 354 423 331 448L117 449C93 422 80 388 80 352C80 346 81 340 82 335C147 303 209 305 263 331C308 354 344 352 368 352Z" class="fa-primary"/></svg>