<svg xmlns="http://www.w3.org/2000/svg" viewBox="0 0 576 512"><!-- Font Awesome Pro 6.0.0-alpha1 by @fontawesome - https://fontawesome.com License - https://fontawesome.com/license (Commercial License) --><defs><style>.fa-secondary{opacity:.4}</style></defs><path d="M544 32H432L400 0H320C302 0 288 14 288 32V192C288 210 302 224 320 224H544C562 224 576 210 576 192V64C576 46 562 32 544 32ZM544 320H432L400 288H320C302 288 288 302 288 320V480C288 498 302 512 320 512H544C562 512 576 498 576 480V352C576 334 562 320 544 320Z" class="fa-secondary"/><path d="M64 16C64 7 57 0 48 0H16C7 0 0 7 0 16V416C0 434 14 448 32 448H256V384H64V160H256V96H64V16Z" class="fa-primary"/></svg>