<svg xmlns="http://www.w3.org/2000/svg" viewBox="0 0 512 512"><!-- Font Awesome Pro 6.0.0-alpha1 by @fontawesome - https://fontawesome.com License - https://fontawesome.com/license (Commercial License) --><defs><style>.fa-secondary{opacity:.4}</style></defs><path d="M379 377L328 327C338 311 344 292 344 272C344 215 297 168 240 168S136 215 136 272S183 376 240 376C260 376 278 370 293 361L345 411C352 418 362 418 368 411L379 400C386 394 386 384 379 377ZM240 328C209 328 184 303 184 272S209 216 240 216S296 241 296 272S271 328 240 328Z" class="fa-secondary"/><path d="M240 216C209 216 184 241 184 272S209 328 240 328S296 303 296 272S271 216 240 216ZM464 96H272L208 32H48C22 32 0 54 0 80V432C0 458 22 480 48 480H464C490 480 512 458 512 432V144C512 118 490 96 464 96ZM379 400L368 411C362 418 352 418 345 411L293 361C278 370 260 376 240 376C183 376 136 329 136 272S183 168 240 168S344 215 344 272C344 292 338 311 328 327L379 377C386 384 386 394 379 400Z" class="fa-primary"/></svg>