<svg xmlns="http://www.w3.org/2000/svg" viewBox="0 0 640 512"><!-- Font Awesome Pro 6.0.0-alpha1 by @fontawesome - https://fontawesome.com License - https://fontawesome.com/license (Commercial License) --><defs><style>.fa-secondary{opacity:.4}</style></defs><path d="M608 144V336C608 362 586 384 560 384H176C150 384 128 362 128 336V80C128 54 150 32 176 32H304L368 96H560C586 96 608 118 608 144Z" class="fa-secondary"/><path d="M80 400V160C54 160 32 182 32 208V416C32 451 61 480 96 480H464C490 480 512 458 512 432H112C94 432 80 418 80 400Z" class="fa-primary"/></svg>