<svg xmlns="http://www.w3.org/2000/svg" viewBox="0 0 512 512"><!-- Font Awesome Pro 6.0.0-alpha1 by @fontawesome - https://fontawesome.com License - https://fontawesome.com/license (Commercial License) --><defs><style>.fa-secondary{opacity:.4}</style></defs><path d="M256 320C291 320 320 291 320 256S291 192 256 192S192 221 192 256S221 320 256 320ZM320 352H192C166 352 144 374 144 400C144 409 151 416 160 416H352C361 416 368 409 368 400C368 374 346 352 320 352Z" class="fa-secondary"/><path d="M464 96H272L208 32H48C22 32 0 54 0 80V432C0 458 22 480 48 480H464C490 480 512 458 512 432V144C512 118 490 96 464 96ZM256 192C291 192 320 221 320 256S291 320 256 320S192 291 192 256S221 192 256 192ZM352 416H160C151 416 144 409 144 400C144 374 166 352 192 352H320C346 352 368 374 368 400C368 409 361 416 352 416Z" class="fa-primary"/></svg>