<svg xmlns="http://www.w3.org/2000/svg" viewBox="0 0 512 512"><!-- Font Awesome Pro 6.0.0-alpha1 by @fontawesome - https://fontawesome.com License - https://fontawesome.com/license (Commercial License) --><defs><style>.fa-secondary{opacity:.4}</style></defs><path d="M160 240H96C87 240 80 247 80 256V320C80 329 87 336 96 336H160C169 336 176 329 176 320V256C176 247 169 240 160 240ZM288 240H224C215 240 208 247 208 256V320C208 329 215 336 224 336H288C297 336 304 329 304 320V256C304 247 297 240 288 240ZM416 240H352C343 240 336 247 336 256V320C336 329 343 336 352 336H416C425 336 432 329 432 320V256C432 247 425 240 416 240Z" class="fa-secondary"/><path d="M464 96H272L208 32H48C22 32 0 54 0 80V432C0 458 22 480 48 480H464C490 480 512 458 512 432V144C512 118 490 96 464 96ZM176 320C176 329 169 336 160 336H96C87 336 80 329 80 320V256C80 247 87 240 96 240H160C169 240 176 247 176 256V320ZM304 320C304 329 297 336 288 336H224C215 336 208 329 208 320V256C208 247 215 240 224 240H288C297 240 304 247 304 256V320ZM432 320C432 329 425 336 416 336H352C343 336 336 329 336 320V256C336 247 343 240 352 240H416C425 240 432 247 432 256V320Z" class="fa-primary"/></svg>