<svg xmlns="http://www.w3.org/2000/svg" viewBox="0 0 512 512"><!-- Font Awesome Pro 6.0.0-alpha1 by @fontawesome - https://fontawesome.com License - https://fontawesome.com/license (Commercial License) --><defs><style>.fa-secondary{opacity:.4}</style></defs><path d="M324 322C333 331 333 347 324 356C319 361 313 363 307 363S295 361 290 356L256 322L222 356C217 361 211 363 205 363S193 361 188 356C179 347 179 331 188 322L222 288L188 254C179 245 179 229 188 220S213 211 222 220L256 254L290 220C299 211 314 211 324 220S333 245 324 254L290 288L324 322Z" class="fa-secondary"/><path d="M464 96H272L208 32H48C22 32 0 54 0 80V432C0 458 22 480 48 480H464C490 480 512 458 512 432V144C512 118 490 96 464 96ZM324 322C333 331 333 347 324 356C319 361 313 363 307 363S295 361 290 356L256 322L222 356C217 361 211 363 205 363S193 361 188 356C179 347 179 331 188 322L222 288L188 254C179 245 179 229 188 220S213 211 222 220L256 254L290 220C299 211 315 211 324 220S333 245 324 254L290 288L324 322Z" class="fa-primary"/></svg>