<svg xmlns="http://www.w3.org/2000/svg" viewBox="0 0 512 512"><!-- Font Awesome Pro 6.0.0-alpha1 by @fontawesome - https://fontawesome.com License - https://fontawesome.com/license (Commercial License) --><defs><style>.fa-secondary{opacity:.4}</style></defs><path d="M256 16C123 16 16 123 16 256C16 312 35 364 68 404C74 412 83 416 93 416H120L206 461C231 474 261 469 281 449C318 412 292 367 286 352L263 294C255 275 268 253 289 251L477 226C486 225 492 217 491 209C459 62 333 16 256 16ZM176 360C163 360 152 349 152 336S163 312 176 312S200 323 200 336S189 360 176 360Z" class="fa-secondary"/><path d="M496 320H355L340 244L309 248L322 320H274C274 320 293 367 287 352H328L338 405C348 458 394 496 448 496H496C505 496 512 489 512 480V336C512 327 505 320 496 320ZM480 464H448C416 464 388 445 375 416H480V464ZM480 384H367L361 352H480V384Z" class="fa-primary"/></svg>