<svg xmlns="http://www.w3.org/2000/svg" viewBox="0 0 448 512"><!-- Font Awesome Pro 6.0.0-alpha1 by @fontawesome - https://fontawesome.com License - https://fontawesome.com/license (Commercial License) --><defs><style>.fa-secondary{opacity:.4}</style></defs><path d="M314 32C346 34 375 39 401 46C418 50 431 63 435 80C440 100 446 130 448 166L314 32ZM0 338C1 378 7 411 13 433C17 449 30 461 47 466C75 473 108 479 142 480L0 338ZM444 230C437 285 414 344 363 396C315 444 260 467 206 476L5 275C13 222 36 166 85 117C135 67 193 43 250 35L444 230ZM219 325L155 261C149 254 139 254 133 261C126 267 126 277 133 283L197 347C200 350 204 352 208 352S216 350 219 347C226 341 226 331 219 325ZM267 277L203 213C197 206 187 206 181 213C174 219 174 229 181 235L245 299C248 302 252 304 256 304S264 302 267 299C274 293 274 283 267 277ZM315 229L251 165C245 158 235 158 229 165C222 171 222 181 229 187L293 251C296 254 300 256 304 256S312 254 315 251C322 245 322 235 315 229Z" class="fa-secondary"/><path d="M0 338L142 480C163 480 184 479 206 476L5 275C1 297 0 318 0 338ZM314 32C293 31 272 32 250 35L445 230C448 208 449 186 448 166L314 32Z" class="fa-primary"/></svg>