<svg xmlns="http://www.w3.org/2000/svg" viewBox="0 0 512 512"><!-- Font Awesome Pro 6.0.0-alpha1 by @fontawesome - https://fontawesome.com License - https://fontawesome.com/license (Commercial License) --><defs><style>.fa-secondary{opacity:.4}</style></defs><path d="M510 125L449 232C429 263 396 283 359 287C338 290 317 286 298 278L234 214C226 195 222 174 225 153C229 116 249 83 281 63L387 2C395 -2 404 0 410 7C415 14 414 24 408 30L297 141L310 155L434 53C441 48 451 48 457 55S464 71 459 78L357 202L371 215L482 104C488 98 498 97 505 102C512 108 514 117 510 125Z" class="fa-secondary"/><path d="M298 278L83 504C78 509 71 512 64 512C57 512 50 509 45 504L8 467C3 462 0 455 0 448C0 441 3 434 8 429L234 214L298 278Z" class="fa-primary"/></svg>