<svg xmlns="http://www.w3.org/2000/svg" viewBox="0 0 576 512"><!-- Font Awesome Pro 6.0.0-alpha1 by @fontawesome - https://fontawesome.com License - https://fontawesome.com/license (Commercial License) --><defs><style>.fa-secondary{opacity:.4}</style></defs><path d="M570 94C563 89 554 90 549 95L447 197L434 185L527 71C532 65 532 56 526 50C520 44 511 44 505 49L391 142L379 129L481 27C486 22 487 13 482 6C477 0 468 -2 462 2L363 58C335 76 316 106 313 140C311 159 314 178 322 196L287 229L349 287L380 254C398 262 417 265 436 263C470 260 500 241 519 212L574 114C578 107 576 99 570 94ZM71 437C67 441 64 447 64 454C64 460 66 466 71 471L105 505C110 510 116 512 122 512C129 512 135 509 139 505L262 378L198 315L71 437Z" class="fa-secondary"/><path d="M56 7C47 -2 32 -2 22 7C-18 47 -27 291 205 277L436 504C441 509 447 512 453 512C460 512 466 510 471 505L505 471C514 462 514 446 505 437" class="fa-primary"/></svg>