<svg xmlns="http://www.w3.org/2000/svg" viewBox="0 0 320 512"><!-- Font Awesome Pro 6.0.0-alpha1 by @fontawesome - https://fontawesome.com License - https://fontawesome.com/license (Commercial License) --><defs><style>.fa-secondary{opacity:.4}</style></defs><path d="M320 88V424C320 437 309 448 296 448H248C235 448 224 437 224 424V88C224 75 235 64 248 64H296C309 64 320 75 320 88Z" class="fa-secondary"/><path d="M224 318L51 442C45 446 39 448 32 448C27 448 22 447 17 444C7 439 0 428 0 416V96C0 84 7 73 17 68C28 62 41 63 51 70L224 194V318Z" class="fa-primary"/></svg>