<svg xmlns="http://www.w3.org/2000/svg" viewBox="0 0 320 512"><!-- Font Awesome Pro 6.0.0-alpha1 by @fontawesome - https://fontawesome.com License - https://fontawesome.com/license (Commercial License) --><defs><style>.fa-secondary{opacity:.4}</style></defs><path d="M0 336V368C0 377 7 384 16 384H48V320H16C7 320 0 327 0 336ZM208 320H128V384H208C217 384 224 377 224 368V336C224 327 217 320 208 320Z" class="fa-secondary"/><path d="M320 56V88C320 101 309 112 296 112H128V192H264C277 192 288 203 288 216V248C288 261 277 272 264 272H128V456C128 469 117 480 104 480H72C59 480 48 469 48 456V80C48 54 70 32 96 32H296C309 32 320 43 320 56Z" class="fa-primary"/></svg>