<svg xmlns="http://www.w3.org/2000/svg" viewBox="0 0 576 512"><!-- Font Awesome Pro 6.0.0-alpha1 by @fontawesome - https://fontawesome.com License - https://fontawesome.com/license (Commercial License) --><defs><style>.fa-secondary{opacity:.4}</style></defs><path d="M576 464C576 473 569 480 560 480H470L351 354C356 300 321 269 310 261C274 233 222 233 185 261L150 287C143 292 142 302 147 309C153 317 163 318 170 313L202 288C223 272 251 267 275 277C319 295 333 347 308 384L284 416H336C362 416 384 438 384 464C384 473 377 480 368 480H64C29 480 0 452 0 417C-1 250 127 113 289 98C289 102 288 107 288 112C288 156 324 192 368 192S448 156 448 112C448 107 447 102 447 97C447 97 505 117 546 139C564 149 576 169 576 190C576 211 565 230 546 241L406 320L496 416H528C554 416 576 438 576 464Z" class="fa-secondary"/><path d="M368 32C324 32 288 68 288 112S324 192 368 192C412 192 448 156 448 112S412 32 368 32ZM368 80C386 80 400 94 400 112H336C336 94 350 80 368 80Z" class="fa-primary"/></svg>