<svg xmlns="http://www.w3.org/2000/svg" viewBox="0 0 512 512"><!-- Font Awesome Pro 6.0.0-alpha1 by @fontawesome - https://fontawesome.com License - https://fontawesome.com/license (Commercial License) --><defs><style>.fa-secondary{opacity:.4}</style></defs><path d="M446 109V109V109ZM496 264C494 309 480 353 454 391L447 361L341 374L296 471L323 486L323 487C279 499 233 499 189 487V486L216 471L170 374L64 361L57 391C32 353 17 309 16 264L39 284L117 211L97 106L66 109C94 73 132 46 174 30L175 31L163 59L256 110L349 59L337 30C380 46 418 73 446 109L415 106L394 211L472 284L496 264ZM353 229L256 159L159 229L196 343H316L353 229Z" class="fa-secondary"/><path d="M349 45L337 16C285 -3 227 -3 175 16L163 45L256 96L349 45ZM97 92L66 95C34 137 16 189 16 242C16 244 16 247 16 250L40 270L118 197L97 92ZM316 329L353 215L256 145L159 215L196 329L316 329ZM446 95L415 92L394 197L472 270L496 249C496 247 496 244 496 242C496 189 478 137 446 95ZM65 347L58 377C89 423 135 457 189 472L216 456L170 360L65 347ZM341 360L296 456L323 472C377 457 423 423 454 377L447 347L341 360Z" class="fa-primary"/></svg>