<svg xmlns="http://www.w3.org/2000/svg" viewBox="0 0 512 512"><!-- Font Awesome Pro 6.0.0-alpha1 by @fontawesome - https://fontawesome.com License - https://fontawesome.com/license (Commercial License) --><defs><style>.fa-secondary{opacity:.4}</style></defs><path d="M507 274C490 203 431 146 360 132C326 125 290 127 258 139C265 89 297 47 343 28C357 22 354 2 339 1C317 -1 295 0 274 5C203 22 146 81 132 152C125 186 127 222 139 254C89 247 47 214 28 169C22 155 2 158 1 173C-1 195 0 217 5 238C22 309 81 366 152 380C186 387 222 385 254 373C247 423 215 465 169 484C155 490 158 510 173 511C195 513 217 512 238 507C309 490 366 431 380 360C387 326 385 290 373 258C423 265 465 297 484 343C490 357 510 354 511 339C513 317 512 295 507 274ZM256 304C230 304 208 282 208 256S230 208 256 208S304 230 304 256S282 304 256 304Z" class="fa-secondary"/><path d="M446 92C465 103 482 117 496 135C505 146 493 162 479 156C456 147 430 144 405 148C391 141 376 135 360 132C326 125 291 127 258 139C262 115 271 93 285 74C338 56 398 62 446 92ZM228 438C242 419 251 397 255 373C222 385 187 387 153 380C137 377 122 371 107 364C83 368 57 365 33 356C20 350 8 366 17 377C31 394 48 409 66 420C115 450 175 456 228 438ZM374 258C385 290 387 326 380 360C377 376 372 391 365 405C368 430 366 455 356 479C351 493 367 504 378 495C395 481 409 465 421 446C451 398 456 338 438 285C420 271 398 261 374 258ZM139 254C128 222 125 186 132 152C136 136 141 121 148 107C145 82 147 57 157 33C162 19 146 8 135 17C118 31 104 47 92 66C62 114 57 174 75 227C93 241 115 251 139 254Z" class="fa-primary"/></svg>