<svg xmlns="http://www.w3.org/2000/svg" viewBox="0 0 640 512"><!-- Font Awesome Pro 6.0.0-alpha1 by @fontawesome - https://fontawesome.com License - https://fontawesome.com/license (Commercial License) --><defs><style>.fa-secondary{opacity:.4}</style></defs><path d="M640 161V496C640 505 633 512 624 512H560C551 512 544 505 544 496V224C544 206 529 192 511 192H129C111 192 96 206 96 224V496C96 505 89 512 80 512H16C7 512 0 505 0 496V161C0 142 12 125 30 117L302 4C307 1 314 0 320 0C326 0 333 2 338 4L610 117C628 125 640 142 640 161Z" class="fa-secondary"/><path d="M469 349L447 284C438 258 414 240 386 240H254C226 240 202 258 193 284L171 349C155 355 144 371 144 389V486C144 500 156 512 170 512H183C198 512 209 500 209 486V464H431V486C431 500 442 512 457 512H470C484 512 496 500 496 486V389C496 371 485 355 469 349ZM239 299C241 292 247 288 254 288H386C393 288 399 292 401 299L419 352H221L239 299ZM216 432C203 432 192 421 192 408C192 395 203 384 216 384S240 395 240 408C240 421 229 432 216 432ZM424 432C411 432 400 421 400 408C400 395 411 384 424 384S448 395 448 408C448 421 437 432 424 432Z" class="fa-primary"/></svg>