<svg xmlns="http://www.w3.org/2000/svg" viewBox="0 0 640 512"><!-- Font Awesome Pro 6.0.0-alpha1 by @fontawesome - https://fontawesome.com License - https://fontawesome.com/license (Commercial License) --><defs><style>.fa-secondary{opacity:.4}</style></defs><path d="M616 512C611 512 606 510 601 507L9 43C-1 35 -3 20 5 9C13 -1 28 -3 39 5L631 469C641 477 643 492 635 503C630 509 623 512 616 512Z" class="fa-secondary"/><path d="M400 448H384V398L96 172V448H80C71 448 64 455 64 464V496C64 505 71 512 80 512H400C409 512 416 505 416 496V464C416 455 409 448 400 448ZM160 64H320V192H277L384 276V64C384 29 355 0 320 0H160C129 0 103 22 97 51L160 100V64ZM557 107L476 26C470 20 460 20 454 26L442 38C436 44 436 54 442 60L480 98V160C480 188 501 211 528 215V376C528 380 527 383 525 386L563 416C571 405 576 391 576 376V153C576 136 569 119 557 107Z" class="fa-primary"/></svg>