<svg xmlns="http://www.w3.org/2000/svg" viewBox="0 0 576 512"><!-- Font Awesome Pro 6.0.0-alpha1 by @fontawesome - https://fontawesome.com License - https://fontawesome.com/license (Commercial License) --><defs><style>.fa-secondary{opacity:.4}</style></defs><path d="M288 32C129 32 0 161 0 320C0 373 14 422 39 465C45 474 55 480 66 480H510C521 480 531 474 537 465C562 422 576 373 576 320C576 161 447 32 288 32ZM343 416H233C227 406 224 396 224 384C224 357 241 334 264 325V128C264 115 275 104 288 104S312 115 312 128V325C335 334 352 357 352 384C352 396 349 406 343 416Z" class="fa-secondary"/><path d="M343 416H233C227 406 224 396 224 384C224 357 241 334 264 325V128C264 115 275 104 288 104S312 115 312 128V325C335 334 352 357 352 384C352 396 349 406 343 416Z" class="fa-primary"/></svg>