<svg xmlns="http://www.w3.org/2000/svg" viewBox="0 0 384 512"><!-- Font Awesome Pro 6.0.0-alpha1 by @fontawesome - https://fontawesome.com License - https://fontawesome.com/license (Commercial License) --><defs><style>.fa-secondary{opacity:.4}</style></defs><path d="M192 320C157 320 128 291 128 256C128 221 157 192 192 192S256 221 256 256C256 291 227 320 192 320Z" class="fa-secondary"/><path d="M192 160C245 160 288 203 288 256S245 352 192 352S96 309 96 256S139 160 192 160M192 80C95 80 16 159 16 256C16 353 95 432 192 432S368 353 368 256C368 159 289 80 192 80L192 80Z" class="fa-primary"/></svg>