<svg xmlns="http://www.w3.org/2000/svg" viewBox="0 0 512 512"><!-- Font Awesome Pro 6.0.0-alpha1 by @fontawesome - https://fontawesome.com License - https://fontawesome.com/license (Commercial License) --><defs><style>.fa-secondary{opacity:.4}</style></defs><path d="M509 43L283 494C277 505 266 512 254 512H32C14 512 0 498 0 480V472H52C59 472 64 467 64 460S59 448 52 448H0V416H52C59 416 64 411 64 404S59 392 52 392H0V363C0 342 21 326 41 332L259 398L453 13C459 1 474 -3 485 3L499 10C511 17 515 31 509 43Z" class="fa-secondary"/><path d="M0 448H52C59 448 64 453 64 460S59 472 52 472H0M0 392H52C59 392 64 397 64 404S59 416 52 416H0" class="fa-primary"/></svg>