<svg xmlns="http://www.w3.org/2000/svg" viewBox="0 0 384 512"><!-- Font Awesome Pro 6.0.0-alpha1 by @fontawesome - https://fontawesome.com License - https://fontawesome.com/license (Commercial License) --><defs><style>.fa-secondary{opacity:.4}</style></defs><path d="M192 0C86 0 0 87 0 194C0 259 33 317 83 352H301C351 317 384 259 384 194C384 87 298 0 192 0ZM179 205C183 207 187 208 192 208C210 208 224 194 224 176C224 171 223 167 221 163C232 168 240 179 240 192C240 210 225 224 208 224C195 224 184 216 179 205ZM224 304C211 304 200 296 195 285C199 287 203 288 208 288C225 288 240 274 240 256C240 251 238 247 237 243C248 248 255 259 255 272C255 290 241 304 224 304ZM287 240C274 240 263 232 258 221C262 223 267 224 271 224C289 224 303 210 303 192C303 187 302 183 300 179C311 184 319 195 319 208C319 226 305 240 287 240Z" class="fa-secondary"/><path d="M96 400C96 418 110 432 128 432S160 446 160 464V512H224V464C224 446 238 432 256 432S288 418 288 400V384H96V400ZM240 256C240 274 225 288 208 288C203 288 199 287 195 285C200 296 211 304 224 304C241 304 255 290 255 272C255 259 248 248 237 243C238 247 240 251 240 256ZM208 224C225 224 240 210 240 192C240 179 232 168 221 163C223 167 224 171 224 176C224 194 210 208 192 208C187 208 183 207 179 205C184 216 195 224 208 224ZM300 179C302 183 303 187 303 192C303 210 289 224 271 224C267 224 262 223 258 221C263 232 274 240 287 240C305 240 319 226 319 208C319 195 311 184 300 179Z" class="fa-primary"/></svg>