<svg xmlns="http://www.w3.org/2000/svg" viewBox="0 0 384 512"><!-- Font Awesome Pro 6.0.0-alpha1 by @fontawesome - https://fontawesome.com License - https://fontawesome.com/license (Commercial License) --><defs><style>.fa-secondary{opacity:.4}</style></defs><path d="M376 269C376 315 339 352 293 352H224V384H160V328C160 315 171 304 184 304H293C312 304 328 288 328 269C328 257 320 246 308 243C231 223 132 274 70 317C51 330 27 313 33 291L106 18C112 -4 141 -6 151 14C183 81 243 176 321 197C353 206 376 235 376 269Z" class="fa-secondary"/><path d="M384 464V496C384 505 377 512 368 512H16C7 512 0 505 0 496V464C0 455 7 448 16 448H32V416C32 398 46 384 64 384H320C338 384 352 398 352 416V448H368C377 448 384 455 384 464Z" class="fa-primary"/></svg>