<svg xmlns="http://www.w3.org/2000/svg" viewBox="0 0 320 512"><!-- Font Awesome Pro 6.0.0-alpha1 by @fontawesome - https://fontawesome.com License - https://fontawesome.com/license (Commercial License) --><defs><style>.fa-secondary{opacity:.4}</style></defs><path d="M288 32H224C206 32 192 46 192 64V128C192 146 206 160 224 160H288C306 160 320 146 320 128V64C320 46 306 32 288 32ZM288 192H224C206 192 192 206 192 224V288C192 306 206 320 224 320H288C306 320 320 306 320 288V224C320 206 306 192 288 192ZM288 352H224C206 352 192 366 192 384V448C192 466 206 480 224 480H288C306 480 320 466 320 448V384C320 366 306 352 288 352Z" class="fa-secondary"/><path d="M96 32H32C14 32 0 46 0 64V128C0 146 14 160 32 160H96C114 160 128 146 128 128V64C128 46 114 32 96 32ZM96 192H32C14 192 0 206 0 224V288C0 306 14 320 32 320H96C114 320 128 306 128 288V224C128 206 114 192 96 192ZM96 352H32C14 352 0 366 0 384V448C0 466 14 480 32 480H96C114 480 128 466 128 448V384C128 366 114 352 96 352Z" class="fa-primary"/></svg>