<svg xmlns="http://www.w3.org/2000/svg" viewBox="0 0 384 512"><!-- Font Awesome Pro 6.0.0-alpha1 by @fontawesome - https://fontawesome.com License - https://fontawesome.com/license (Commercial License) --><defs><style>.fa-secondary{opacity:.4}</style></defs><path d="M160 155V357C175 364 191 368 208 368C213 368 219 367 224 367V145C219 145 213 144 208 144C191 144 175 148 160 155ZM160 442V496C160 505 167 512 176 512H208C217 512 224 505 224 496V447C219 447 214 448 208 448C191 448 175 446 160 442ZM208 0H176C167 0 160 7 160 16V71C181 65 203 63 224 65V16C224 7 217 0 208 0Z" class="fa-secondary"/><path d="M208 448C91 448 -2 342 19 222C29 167 62 119 110 91C183 48 270 59 329 107C341 117 341 134 330 144L306 166C298 173 285 174 276 167C256 152 233 144 208 144C146 144 96 194 96 256S146 368 208 368C247 368 288 346 288 304H224V224H328C350 224 368 242 368 264V304C368 386 299 448 208 448Z" class="fa-primary"/></svg>