<svg xmlns="http://www.w3.org/2000/svg" viewBox="0 0 512 512"><!-- Font Awesome Pro 6.0.0-alpha1 by @fontawesome - https://fontawesome.com License - https://fontawesome.com/license (Commercial License) --><defs><style>.fa-secondary{opacity:.4}</style></defs><path d="M244 223C236 212 235 197 241 185L258 148C262 139 259 130 252 124C244 119 234 120 227 126L189 165C181 173 175 183 171 194C164 213 149 229 130 238L54 273C-3 296 -18 370 25 414L98 487C142 530 216 515 239 458L274 382C283 363 299 348 319 341C329 337 339 331 348 323L369 302C376 295 377 285 372 277C367 269 358 266 349 268L325 276C313 280 299 277 288 269L244 223ZM182 394L170 406C167 409 162 409 159 406L106 353C102 349 104 344 106 342L118 330C122 326 127 328 129 330L182 383C186 387 184 392 182 394ZM246 330L234 342C231 345 226 345 223 342L170 289C166 285 168 280 170 278L182 266C186 262 191 264 193 266L246 319C250 323 248 328 246 330Z" class="fa-secondary"/><path d="M129 330C127 328 122 326 118 330L106 342C104 344 102 349 106 353L159 406C162 409 167 409 170 406L182 394C184 392 186 387 182 383L129 330ZM511 40C508 20 493 5 473 1C450 -3 451 1 367 55C358 61 352 71 352 82V115L244 223L288 269L462 96C462 96 463 96 464 96C478 96 492 90 501 79C510 68 514 54 511 40ZM193 266C191 264 186 262 182 266L170 278C168 280 166 285 170 289L223 342C226 345 231 345 234 342L246 330C248 328 250 323 246 319L193 266Z" class="fa-primary"/></svg>