<svg xmlns="http://www.w3.org/2000/svg" viewBox="0 0 576 512"><!-- Font Awesome Pro 6.0.0-alpha1 by @fontawesome - https://fontawesome.com License - https://fontawesome.com/license (Commercial License) --><defs><style>.fa-secondary{opacity:.4}</style></defs><path d="M224 88C224 75 235 64 248 64H296C309 64 320 75 320 88V424C320 437 309 448 296 448H248C235 448 224 437 224 424V304H96V424C96 437 85 448 72 448H24C11 448 0 437 0 424V88C0 75 11 64 24 64H72C85 64 96 75 96 88V208H224V88Z" class="fa-secondary"/><path d="M576 376V424C576 437 565 448 552 448H408C395 448 384 437 384 424V376C384 363 395 352 408 352H432V160H408C400 160 392 156 388 149C383 142 383 133 386 125L410 77C415 69 423 64 432 64H504C517 64 528 75 528 88V352H552C565 352 576 363 576 376Z" class="fa-primary"/></svg>