<svg xmlns="http://www.w3.org/2000/svg" viewBox="0 0 384 512"><!-- Font Awesome Pro 6.0.0-alpha1 by @fontawesome - https://fontawesome.com License - https://fontawesome.com/license (Commercial License) --><defs><style>.fa-secondary{opacity:.4}</style></defs><path d="M224 267V496C224 505 217 512 208 512H176C167 512 160 505 160 496V267L192 262L224 267ZM192 58L224 53V16C224 7 217 0 208 0H176C167 0 160 7 160 16V53L192 58Z" class="fa-secondary"/><path d="M384 64V256C384 276 366 291 347 287L192 262L37 287C18 291 0 276 0 256V64C0 44 18 29 37 33L192 58L347 32C366 29 384 44 384 64Z" class="fa-primary"/></svg>