<svg xmlns="http://www.w3.org/2000/svg" viewBox="0 0 512 512"><!-- Font Awesome Pro 6.0.0-alpha1 by @fontawesome - https://fontawesome.com License - https://fontawesome.com/license (Commercial License) --><defs><style>.fa-secondary{opacity:.4}</style></defs><path d="M436 96C415 98 400 117 400 138V248C400 252 396 256 392 256C387 256 384 252 384 248V74C384 53 368 34 348 32C324 30 304 49 304 72V248C304 252 300 256 296 256C291 256 288 252 288 248V42C288 21 272 2 252 0C228 -2 208 17 208 40V248C208 252 204 256 200 256H199C195 256 192 253 191 249C190 234 189 219 188 204L175 84C173 62 153 46 131 48C110 50 94 70 96 92L108 213C113 256 115 300 117 344L72 281C59 262 31 258 13 274C-3 288 -4 312 8 329L89 442C120 486 171 512 225 512H312C404 512 480 437 480 344V136C480 113 460 94 436 96ZM176 352C167 352 160 345 160 336S167 320 176 320S192 327 192 336S185 352 176 352ZM208 416C199 416 192 409 192 400S199 384 208 384S224 391 224 400S217 416 208 416ZM272 448C263 448 256 441 256 432S263 416 272 416S288 423 288 432S281 448 272 448ZM272 352C263 352 256 345 256 336S263 320 272 320S288 327 288 336S281 352 272 352ZM336 384C327 384 320 377 320 368S327 352 336 352S352 359 352 368S345 384 336 384ZM368 448C359 448 352 441 352 432S359 416 368 416S384 423 384 432S377 448 368 448ZM400 352C391 352 384 345 384 336S391 320 400 320S416 327 416 336S409 352 400 352Z" class="fa-secondary"/><path d="M176 320C167 320 160 327 160 336S167 352 176 352S192 345 192 336S185 320 176 320ZM272 416C263 416 256 423 256 432S263 448 272 448S288 441 288 432S281 416 272 416ZM336 352C327 352 320 359 320 368S327 384 336 384S352 377 352 368S345 352 336 352ZM400 320C391 320 384 327 384 336S391 352 400 352S416 345 416 336S409 320 400 320Z" class="fa-primary"/></svg>