<svg xmlns="http://www.w3.org/2000/svg" viewBox="0 0 448 512"><!-- Font Awesome Pro 6.0.0-alpha1 by @fontawesome - https://fontawesome.com License - https://fontawesome.com/license (Commercial License) --><defs><style>.fa-secondary{opacity:.4}</style></defs><path d="M400 224H384C383 224 382 224 381 224C375 206 357 192 336 192H320C311 192 303 194 296 198C288 185 273 176 256 176H240C228 176 217 181 208 188V48C208 22 187 0 160 0C134 0 112 22 112 48V325L79 282C65 262 37 258 18 273C-2 287 -6 315 9 334L100 456C126 491 168 512 212 512H340C345 512 349 511 353 510C378 505 402 493 419 474C438 454 448 428 448 400V272C448 246 427 224 400 224ZM232 424C232 428 228 432 224 432S216 428 216 424V312C216 308 220 304 224 304S232 308 232 312V424ZM296 424C296 428 292 432 288 432C284 432 280 428 280 424V312C280 308 284 304 288 304C292 304 296 308 296 312V424ZM360 424C360 428 356 432 352 432C348 432 344 428 344 424V312C344 308 348 304 352 304C356 304 360 308 360 312V424Z" class="fa-secondary"/><path d="M224 304C220 304 216 308 216 312V424C216 428 220 432 224 432S232 428 232 424V312C232 308 228 304 224 304ZM288 304C284 304 280 308 280 312V424C280 428 284 432 288 432C292 432 296 428 296 424V312C296 308 292 304 288 304ZM352 304C348 304 344 308 344 312V424C344 428 348 432 352 432C356 432 360 428 360 424V312C360 308 356 304 352 304Z" class="fa-primary"/></svg>