<svg xmlns="http://www.w3.org/2000/svg" viewBox="0 0 576 512"><!-- Font Awesome Pro 6.0.0-alpha1 by @fontawesome - https://fontawesome.com License - https://fontawesome.com/license (Commercial License) --><defs><style>.fa-secondary{opacity:.4}</style></defs><path d="M291 50C279 49 268 56 265 67L231 174C230 178 226 180 221 179C217 178 215 173 216 169L260 31C264 17 255 2 239 0C228 -1 217 7 214 18L166 169C164 174 160 176 156 175C151 173 149 169 150 165L189 42C193 28 184 13 169 11C157 10 146 18 143 29L83 219L81 169C81 155 70 145 57 145C44 145 32 155 32 168V281C33 326 57 365 94 386C94 386 95 386 96 386V360C96 293 139 233 203 212L277 189L311 81C315 67 306 52 291 50ZM112 416C86 416 64 438 64 464S86 512 112 512S160 490 160 464S138 416 112 416ZM342 100C330 98 320 106 316 117L295 183L311 178C317 177 322 176 328 176C335 176 341 177 347 179L362 131C367 117 357 102 342 100ZM496 128C470 128 448 150 448 176S470 224 496 224S544 202 544 176S522 128 496 128ZM416 0C398 0 384 14 384 32C384 50 398 64 416 64C434 64 448 50 448 32C448 14 434 0 416 0Z" class="fa-secondary"/><path d="M519 336H360C356 336 352 332 352 328S356 320 360 320H488C503 320 514 307 512 291C509 280 499 272 487 272H288L335 255C348 251 355 238 351 225C347 212 334 205 321 209L213 242C162 259 128 307 128 360V386C164 393 192 425 192 464C192 475 190 485 186 494C204 505 225 512 248 512H456C471 512 482 499 480 483C477 472 467 464 455 464H360C356 464 352 460 352 456S356 448 360 448H488C503 448 514 435 512 419C509 408 499 400 487 400H360C356 400 352 396 352 392S356 384 360 384H520C535 384 546 371 544 355C541 344 531 336 519 336Z" class="fa-primary"/></svg>