<svg xmlns="http://www.w3.org/2000/svg" viewBox="0 0 576 512"><!-- Font Awesome Pro 6.0.0-alpha1 by @fontawesome - https://fontawesome.com License - https://fontawesome.com/license (Commercial License) --><defs><style>.fa-secondary{opacity:.4}</style></defs><path d="M560 392L425 492C407 505 385 512 363 512H16C7 512 0 505 0 496V400C0 391 7 384 16 384H71L118 346C139 329 165 320 192 320H352C371 320 387 337 384 357C381 373 366 384 350 384H272C263 384 256 391 256 400S263 416 272 416H393L512 328C530 315 555 319 568 336C581 354 578 379 560 392Z" class="fa-secondary"/></svg>