<svg xmlns="http://www.w3.org/2000/svg" viewBox="0 0 512 512"><!-- Font Awesome Pro 6.0.0-alpha1 by @fontawesome - https://fontawesome.com License - https://fontawesome.com/license (Commercial License) --><defs><style>.fa-secondary{opacity:.4}</style></defs><path d="M481 97C460 92 438 105 433 127L404 250C403 254 399 257 395 256C391 255 388 251 389 247L423 82C427 62 416 40 396 34C385 31 374 32 364 38S347 53 345 64L307 248C306 252 302 256 297 256C292 256 288 253 287 248L231 30C225 9 203 -4 182 1S148 29 153 50L204 246C205 250 202 254 198 256C193 257 189 254 188 250L150 125C144 104 122 91 101 98C80 104 67 126 74 147L116 291C124 316 128 342 128 368V372L75 320C57 303 29 304 12 321C-5 339 -4 367 13 384L96 464C122 489 154 504 189 509C197 511 206 512 214 512H341C390 512 432 479 443 432L511 145C516 124 503 102 481 97ZM352 368H269C291 390 304 419 304 448C304 458 298 464 288 464S272 458 272 448C272 403 237 368 192 368C182 368 176 362 176 352S182 336 192 336H352C362 336 368 342 368 352S362 368 352 368Z" class="fa-secondary"/><path d="M288 464C278 464 272 458 272 448L272 448C272 403 237 368 192 368C182 368 176 362 176 352S182 336 192 336H352C362 336 368 342 368 352S362 368 352 368H269C291 390 304 419 304 448C304 458 298 464 288 464L288 464Z" class="fa-primary"/></svg>