<svg xmlns="http://www.w3.org/2000/svg" viewBox="0 0 512 512"><!-- Font Awesome Pro 6.0.0-alpha1 by @fontawesome - https://fontawesome.com License - https://fontawesome.com/license (Commercial License) --><defs><style>.fa-secondary{opacity:.4}</style></defs><path d="M464 32H48C22 32 0 54 0 80V336C0 310 22 288 48 288H464C490 288 512 310 512 336V80C512 54 490 32 464 32ZM320 352C302 352 288 366 288 384S302 416 320 416S352 402 352 384S338 352 320 352Z" class="fa-secondary"/><path d="M464 288H48C22 288 0 310 0 336V432C0 458 22 480 48 480H464C490 480 512 458 512 432V336C512 310 490 288 464 288ZM320 416C302 416 288 402 288 384S302 352 320 352S352 366 352 384S338 416 320 416ZM416 416C398 416 384 402 384 384S398 352 416 352S448 366 448 384S434 416 416 416Z" class="fa-primary"/></svg>