<svg xmlns="http://www.w3.org/2000/svg" viewBox="0 0 640 512"><!-- Font Awesome Pro 6.0.0-alpha1 by @fontawesome - https://fontawesome.com License - https://fontawesome.com/license (Commercial License) --><defs><style>.fa-secondary{opacity:.4}</style></defs><path d="M640 368C640 435 580 448 565 448C472 448 425 411 355 344L267 259C241 236 211 224 180 224C110 224 51 287 33 380C30 397 33 414 41 427C49 440 61 448 73 448H31C21 448 13 443 9 434C-4 407 0 382 2 374C23 265 94 192 180 192C219 192 256 207 289 236L377 320C446 387 485 416 565 416C589 416 608 394 608 368C608 346 587 260 496 243L490 210C602 224 640 323 640 368Z" class="fa-secondary"/><path d="M355 344L267 259C241 236 211 224 180 224C110 224 51 287 33 380C30 397 33 414 41 427C49 440 61 448 73 448H565C494 448 450 426 401 386C387 373 371 359 355 344ZM496 243L468 81C462 48 428 26 392 33L201 71C174 76 153 97 150 122L143 197C155 194 167 192 180 192C219 192 256 207 289 236L377 320C446 387 485 416 565 416C589 416 608 394 608 368C608 346 587 260 496 243Z" class="fa-primary"/></svg>