<svg xmlns="http://www.w3.org/2000/svg" viewBox="0 0 576 512"><!-- Font Awesome Pro 6.0.0-alpha1 by @fontawesome - https://fontawesome.com License - https://fontawesome.com/license (Commercial License) --><defs><style>.fa-secondary{opacity:.4}</style></defs><path d="M320 320H256V384H320V320ZM553 416H23C10 416 0 426 0 439V439C0 445 3 451 8 456C30 476 89 512 166 512H410C486 512 546 476 568 456C573 451 576 445 576 439V439C576 426 566 416 553 416Z" class="fa-secondary"/><path d="M96 416L207 166C218 141 237 121 260 107L427 4C439 -3 455 -1 465 9L534 82C543 91 546 103 542 115L512 192L498 150C494 137 481 128 468 128H428C415 128 402 137 398 150L392 169C387 184 387 200 394 214L482 416H352V320C352 302 338 288 320 288H256C238 288 224 302 224 320V416H96ZM224 384V416H256C238 416 224 402 224 384ZM320 416H352V384C352 402 338 416 320 416Z" class="fa-primary"/></svg>