<svg xmlns="http://www.w3.org/2000/svg" viewBox="0 0 512 512"><!-- Font Awesome Pro 6.0.0-alpha1 by @fontawesome - https://fontawesome.com License - https://fontawesome.com/license (Commercial License) --><defs><style>.fa-secondary{opacity:.4}</style></defs><path d="M512 128C512 170 448 320 448 320H374L400 163C401 154 395 146 387 144C378 143 370 149 368 157L341 320H272V160C272 151 265 144 256 144S240 151 240 160V320H171L144 157C142 149 134 143 125 144C117 146 111 154 112 163L138 320H64C64 320 0 170 0 128C0 91 20 58 53 42C86 26 125 30 154 52C177 21 214 0 256 0C298 0 335 21 358 52C375 39 395 32 416 32C469 32 512 75 512 128Z" class="fa-secondary"/><path d="M448 320V480C448 498 434 512 416 512H96C78 512 64 498 64 480V320H138L112 163C111 154 117 146 125 144C134 143 142 149 144 157L171 320H240V160C240 151 247 144 256 144S272 151 272 160V320H341L368 157C370 149 378 143 387 144C395 146 401 154 400 163L374 320H448Z" class="fa-primary"/></svg>