<svg xmlns="http://www.w3.org/2000/svg" viewBox="0 0 512 512"><!-- Font Awesome Pro 6.0.0-alpha1 by @fontawesome - https://fontawesome.com License - https://fontawesome.com/license (Commercial License) --><defs><style>.fa-secondary{opacity:.4}</style></defs><path d="M512 400C512 400 512 400 512 400V400C512 400 512 400 512 400ZM0 400V400C0 400 0 400 0 400C0 400 0 400 0 400ZM256 32C113 32 5 151 0 288V336C0 303 21 274 50 262C63 160 150 80 256 80C362 80 449 160 462 262C491 274 512 303 512 336V288C507 151 399 32 256 32Z" class="fa-secondary"/><path d="M80 256C36 256 0 292 0 336V400C0 444 36 480 80 480C106 480 128 458 128 432V304C128 278 106 256 80 256ZM432 256C406 256 384 278 384 304V432C384 458 406 480 432 480C476 480 512 444 512 400V336C512 292 476 256 432 256Z" class="fa-primary"/></svg>