<svg xmlns="http://www.w3.org/2000/svg" viewBox="0 0 512 512"><!-- Font Awesome Pro 6.0.0-alpha1 by @fontawesome - https://fontawesome.com License - https://fontawesome.com/license (Commercial License) --><defs><style>.fa-secondary{opacity:.4}</style></defs><path d="M507 305C501 314 491 320 480 320H448V384C448 419 419 448 384 448H320V512H64V335C23 298 0 246 0 192C0 97 69 18 160 3V107C122 125 96 163 96 208C96 270 146 320 208 320S320 270 320 208C320 163 294 125 256 107V0H266C334 0 397 33 436 88C461 123 488 228 509 275C514 285 513 296 507 305Z" class="fa-secondary"/><path d="M208 240C190 240 176 226 176 208S190 176 208 176S240 190 240 208S226 240 208 240ZM256 107V0H192C181 0 170 1 160 3V107C122 125 96 163 96 208C96 270 146 320 208 320S320 270 320 208C320 163 294 125 256 107ZM208 272C173 272 144 243 144 208C144 173 173 144 208 144S272 173 272 208C272 243 243 272 208 272Z" class="fa-primary"/></svg>