<svg xmlns="http://www.w3.org/2000/svg" viewBox="0 0 640 512"><!-- Font Awesome Pro 6.0.0-alpha1 by @fontawesome - https://fontawesome.com License - https://fontawesome.com/license (Commercial License) --><defs><style>.fa-secondary{opacity:.4}</style></defs><path d="M477 275C456 228 429 123 404 88C366 34 302 0 234 0H192C86 0 0 86 0 192C0 249 25 300 64 335V512H288V480H352C387 480 416 451 416 416H320C302 416 288 402 288 384S302 352 320 352H416V320H448C471 320 487 296 477 275ZM336 224C318 224 304 210 304 192S318 160 336 160S368 174 368 192S354 224 336 224Z" class="fa-secondary"/><path d="M608 312C621 312 632 301 632 288S621 264 608 264S584 275 584 288S595 312 608 312ZM480 360C467 360 456 371 456 384S467 408 480 408S504 397 504 384S493 360 480 360ZM336 160C318 160 304 174 304 192S318 224 336 224S368 210 368 192S354 160 336 160ZM544 312C531 312 520 323 520 336S531 360 544 360S568 349 568 336S557 312 544 312ZM544 408C531 408 520 419 520 432S531 456 544 456S568 445 568 432S557 408 544 408ZM608 360C595 360 584 371 584 384S595 408 608 408S632 397 632 384S621 360 608 360ZM608 456C595 456 584 467 584 480S595 504 608 504S632 493 632 480S621 456 608 456Z" class="fa-primary"/></svg>