<svg xmlns="http://www.w3.org/2000/svg" viewBox="0 0 512 512"><!-- Font Awesome Pro 6.0.0-alpha1 by @fontawesome - https://fontawesome.com License - https://fontawesome.com/license (Commercial License) --><defs><style>.fa-secondary{opacity:.4}</style></defs><path d="M256 32C113 32 5 151 0 288V400C0 409 7 416 16 416H32C41 416 48 409 48 400V288C48 173 141 80 256 80C371 80 464 173 464 288V400C464 409 471 416 480 416H496C505 416 512 409 512 400V288C507 151 399 32 256 32Z" class="fa-secondary"/><path d="M160 288H144C109 288 80 317 80 352V416C80 451 109 480 144 480H160C178 480 192 466 192 448V320C192 302 178 288 160 288ZM368 288H352C334 288 320 302 320 320V448C320 466 334 480 352 480H368C403 480 432 451 432 416V352C432 317 403 288 368 288Z" class="fa-primary"/></svg>