<svg xmlns="http://www.w3.org/2000/svg" viewBox="0 0 512 512"><!-- Font Awesome Pro 6.0.0-alpha1 by @fontawesome - https://fontawesome.com License - https://fontawesome.com/license (Commercial License) --><defs><style>.fa-secondary{opacity:.4}</style></defs><path d="M481 256L269 475C262 482 250 482 243 475L31 256C-12 203 -10 123 38 74L41 71C84 27 149 21 200 50L240 144L144 208L144 208L144 208L288 352L240 224L336 160L336 160L336 160L336 158L304 55C356 20 426 25 471 71L474 74C522 123 524 203 481 256Z" class="fa-secondary"/><path d="M199 49C213 56 225 65 236 76L256 96L276 76C284 67 294 60 304 54L336 160L240 224L288 352L144 208L240 144L199 49Z" class="fa-primary"/></svg>