<svg xmlns="http://www.w3.org/2000/svg" viewBox="0 0 448 512"><!-- Font Awesome Pro 6.0.0-alpha1 by @fontawesome - https://fontawesome.com License - https://fontawesome.com/license (Commercial License) --><defs><style>.fa-secondary{opacity:.4}</style></defs><path d="M248 256C284 296 304 348 304 402V464C304 473 297 480 288 480H256C247 480 240 473 240 464V402C240 364 226 327 201 299C164 259 144 206 144 152V48C144 39 151 32 160 32H192C201 32 208 39 208 48V152C208 190 222 227 248 256Z" class="fa-secondary"/><path d="M104 256C140 296 160 348 160 402V464C160 473 153 480 144 480H112C103 480 96 473 96 464V402C96 364 82 327 57 299C20 259 0 206 0 152V112C0 103 7 96 16 96H48C57 96 64 103 64 112V152C64 190 78 227 104 256ZM392 256C366 227 352 190 352 152V112C352 103 345 96 336 96H304C295 96 288 103 288 112V152C288 206 308 259 345 299C370 327 384 364 384 402V464C384 473 391 480 400 480H432C441 480 448 473 448 464V402C448 348 428 296 392 256Z" class="fa-primary"/></svg>