<svg xmlns="http://www.w3.org/2000/svg" viewBox="0 0 640 512"><!-- Font Awesome Pro 6.0.0-alpha1 by @fontawesome - https://fontawesome.com License - https://fontawesome.com/license (Commercial License) --><defs><style>.fa-secondary{opacity:.4}</style></defs><path d="M128 32C128 14 142 0 160 0H544C562 0 576 14 576 32S562 64 544 64H384V128H320V64H160C142 64 128 50 128 32ZM613 437C607 430 597 431 591 437C583 443 577 448 566 448H272C246 448 224 469 224 496C224 505 231 512 240 512H566C581 512 601 512 634 482C641 476 642 465 635 459L613 437Z" class="fa-secondary"/><path d="M304 384H576C593 384 608 370 608 352C608 228 508 128 384 128H112L69 70C66 66 61 64 56 64H16C6 64 -2 74 0 84L32 192L192 256L278 371C284 379 294 384 304 384ZM416 195C478 208 528 258 541 320H416V195Z" class="fa-primary"/></svg>