<svg xmlns="http://www.w3.org/2000/svg" viewBox="0 0 576 512"><!-- Font Awesome Pro 6.0.0-alpha1 by @fontawesome - https://fontawesome.com License - https://fontawesome.com/license (Commercial License) --><defs><style>.fa-secondary{opacity:.4}</style></defs><path d="M575 394C572 388 566 384 560 384H16C10 384 4 388 1 394C-1 400 0 406 4 411C7 414 72 480 288 480S569 414 572 411C576 406 577 400 575 394Z" class="fa-secondary"/><path d="M544 281C544 192 482 115 404 84L352 174V50C352 40 344 32 334 32H242C232 32 224 40 224 50V174L172 84C94 115 32 192 32 281V384H544V281Z" class="fa-primary"/></svg>