<svg xmlns="http://www.w3.org/2000/svg" viewBox="0 0 448 512"><!-- Font Awesome Pro 6.0.0-alpha1 by @fontawesome - https://fontawesome.com License - https://fontawesome.com/license (Commercial License) --><defs><style>.fa-secondary{opacity:.4}</style></defs><path d="M377 54C294 -18 154 -18 71 54C7 110 -31 224 33 416C65 512 224 512 224 512S383 512 415 416C479 224 441 110 377 54ZM288 56C301 56 312 67 312 80C312 93 301 104 288 104C275 104 264 93 264 80C264 67 275 56 288 56ZM160 56C173 56 184 67 184 80C184 93 173 104 160 104C147 104 136 93 136 80C136 67 147 56 160 56ZM64 208C64 190 78 176 96 176H160C178 176 192 190 192 208C192 243 163 272 128 272S64 243 64 208ZM176 472C163 472 152 461 152 448C152 435 163 424 176 424C189 424 200 435 200 448C200 461 189 472 176 472ZM176 408C163 408 152 397 152 384C152 371 163 360 176 360C189 360 200 371 200 384C200 397 189 408 176 408ZM176 344C163 344 152 333 152 320C152 307 163 296 176 296C189 296 200 307 200 320C200 333 189 344 176 344ZM224 152C211 152 200 141 200 128C200 115 211 104 224 104S248 115 248 128C248 141 237 152 224 152ZM272 472C259 472 248 461 248 448C248 435 259 424 272 424C285 424 296 435 296 448C296 461 285 472 272 472ZM272 408C259 408 248 397 248 384C248 371 259 360 272 360C285 360 296 371 296 384C296 397 285 408 272 408ZM272 344C259 344 248 333 248 320C248 307 259 296 272 296C285 296 296 307 296 320C296 333 285 344 272 344ZM320 272C285 272 256 243 256 208C256 190 270 176 288 176H352C370 176 384 190 384 208C384 243 355 272 320 272Z" class="fa-secondary"/><path d="M176 296C163 296 152 307 152 320C152 333 163 344 176 344C189 344 200 333 200 320C200 307 189 296 176 296ZM176 360C163 360 152 371 152 384C152 397 163 408 176 408C189 408 200 397 200 384C200 371 189 360 176 360ZM184 80C184 67 173 56 160 56C147 56 136 67 136 80C136 93 147 104 160 104C173 104 184 93 184 80ZM176 424C163 424 152 435 152 448C152 461 163 472 176 472C189 472 200 461 200 448C200 435 189 424 176 424ZM224 104C211 104 200 115 200 128C200 141 211 152 224 152S248 141 248 128C248 115 237 104 224 104ZM272 296C259 296 248 307 248 320C248 333 259 344 272 344C285 344 296 333 296 320C296 307 285 296 272 296ZM288 56C275 56 264 67 264 80C264 93 275 104 288 104C301 104 312 93 312 80C312 67 301 56 288 56ZM272 360C259 360 248 371 248 384C248 397 259 408 272 408C285 408 296 397 296 384C296 371 285 360 272 360ZM272 424C259 424 248 435 248 448C248 461 259 472 272 472C285 472 296 461 296 448C296 435 285 424 272 424Z" class="fa-primary"/></svg>