<svg xmlns="http://www.w3.org/2000/svg" viewBox="0 0 640 512"><!-- Font Awesome Pro 6.0.0-alpha1 by @fontawesome - https://fontawesome.com License - https://fontawesome.com/license (Commercial License) --><defs><style>.fa-secondary{opacity:.4}</style></defs><path d="M64 512H96V352H64V512ZM624 352H576V512H624C633 512 640 505 640 496V368C640 359 633 352 624 352ZM213 2L155 30C147 34 144 44 148 52L249 252L302 145L234 9C230 1 221 -2 213 2ZM401 343L391 324L338 431L361 477C371 498 394 512 418 512H544V352H415C409 352 404 349 401 343Z" class="fa-secondary"/><path d="M0 368V496C0 505 7 512 16 512H64V352H16C7 352 0 359 0 368ZM485 30L427 2C420 -2 410 1 406 9L239 343C236 349 231 352 225 352H96V512H222C246 512 268 498 279 477L492 52C493 50 493 48 493 46C494 39 491 33 485 30ZM544 352V512H576V352H544Z" class="fa-primary"/></svg>