<svg xmlns="http://www.w3.org/2000/svg" viewBox="0 0 512 512"><!-- Font Awesome Pro 6.0.0-alpha1 by @fontawesome - https://fontawesome.com License - https://fontawesome.com/license (Commercial License) --><defs><style>.fa-secondary{opacity:.4}</style></defs><path d="M176 96C150 96 128 118 128 144S150 192 176 192C202 192 224 170 224 144S202 96 176 96ZM336 96C310 96 288 118 288 144S310 192 336 192C362 192 384 170 384 144S362 96 336 96ZM304 48C304 22 282 0 256 0C230 0 208 22 208 48S230 96 256 96C282 96 304 74 304 48Z" class="fa-secondary"/><path d="M244 243C245 230 232 220 219 226C180 243 138 251 97 251C86 251 78 261 82 270C87 286 90 301 92 318C95 334 83 349 66 352C49 355 33 356 16 356C5 356 -3 366 1 376C13 412 17 451 13 491C11 506 27 516 41 510C79 494 120 487 159 487C170 487 177 477 174 467C169 452 166 436 163 420C161 404 173 389 190 386C206 383 223 382 240 382C251 382 258 372 255 362C242 325 238 284 244 243ZM496 356C479 356 463 355 446 352C429 349 417 334 420 318C422 301 425 286 430 270C434 261 426 251 415 251C374 251 332 243 293 226C286 223 279 224 274 228C276 234 276 240 275 247C271 283 274 319 286 352C289 362 289 372 285 382C297 383 310 384 322 386C339 389 351 404 349 420C346 436 343 452 338 467C334 477 342 487 353 487C392 487 433 494 471 510C485 516 501 506 499 491C495 451 499 412 511 376C514 366 507 356 496 356Z" class="fa-primary"/></svg>