<svg xmlns="http://www.w3.org/2000/svg" viewBox="0 0 512 512"><!-- Font Awesome Pro 6.0.0-alpha1 by @fontawesome - https://fontawesome.com License - https://fontawesome.com/license (Commercial License) --><defs><style>.fa-secondary{opacity:.4}</style></defs><path d="M489 34C458 3 407 3 376 34L24 385C4 405 -5 435 3 463C10 491 32 513 60 520C88 527 117 519 137 498L489 147C520 116 520 65 489 34ZM439 129C419 148 401 151 387 154C374 156 365 158 352 170C340 183 338 192 336 205C334 219 331 237 311 257S274 279 259 282C246 284 237 286 225 298C212 310 211 320 208 333C206 347 203 365 183 384C164 404 146 407 132 409C119 412 109 413 97 426C91 432 80 432 74 426C68 419 68 409 74 403C94 384 112 381 126 378C139 376 148 374 161 362C173 349 175 340 177 327C179 313 182 295 202 275S239 253 254 250C267 248 276 246 288 234C301 222 302 212 305 199C307 185 310 167 330 148S367 125 382 122C395 120 404 119 416 106C423 100 433 100 439 106C445 113 445 123 439 129Z" class="fa-secondary"/><path d="M208 322C210 309 212 300 224 287C237 275 246 273 259 271C273 269 291 266 311 246S333 209 336 194C338 181 340 172 352 160C364 147 374 146 387 143C401 141 419 138 438 118C445 112 445 102 438 96C432 89 422 89 416 96C404 108 394 110 381 112C367 114 349 117 329 137S307 174 304 189C302 202 300 211 288 223C276 236 266 237 253 240C239 242 221 245 202 265S179 302 177 317C174 330 173 339 160 351C148 364 139 365 126 368C111 370 93 373 74 393C68 399 68 409 74 415C80 421 90 421 96 415C109 403 118 401 131 399C146 396 163 393 183 374C203 354 206 336 208 322ZM372 20C347 -5 308 -6 286 16L16 286C-7 309 -5 347 20 372L23 376C24 375 24 375 24 375L375 24L372 20ZM492 140L488 136L137 488C137 488 136 488 136 488L139 492C164 517 203 518 226 496L495 226C518 203 516 165 492 140Z" class="fa-primary"/></svg>