<svg xmlns="http://www.w3.org/2000/svg" viewBox="0 0 576 512"><!-- Font Awesome Pro 6.0.0-alpha1 by @fontawesome - https://fontawesome.com License - https://fontawesome.com/license (Commercial License) --><defs><style>.fa-secondary{opacity:.4}</style></defs><path d="M141 160H179C186 160 192 154 192 147V109C192 102 186 96 179 96H141C134 96 128 102 128 109V147C128 154 134 160 141 160ZM269 160H307C314 160 320 154 320 147V109C320 102 314 96 307 96H269C262 96 256 102 256 109V147C256 154 262 160 269 160ZM192 243V205C192 198 186 192 179 192H141C134 192 128 198 128 205V243C128 250 134 256 141 256H179C186 256 192 250 192 243ZM269 256H307C314 256 320 250 320 243V205C320 198 314 192 307 192H269C262 192 256 198 256 205V243C256 250 262 256 269 256ZM288 288C217 288 160 345 160 416H416C416 345 359 288 288 288ZM435 96H397C390 96 384 102 384 109V147C384 154 390 160 397 160H435C442 160 448 154 448 147V109C448 102 442 96 435 96ZM435 192H397C390 192 384 198 384 205V243C384 250 390 256 397 256H435C442 256 448 250 448 243V205C448 198 442 192 435 192Z" class="fa-secondary"/><path d="M560 64C569 64 576 57 576 48V16C576 7 569 0 560 0H16C7 0 0 7 0 16V48C0 57 7 64 16 64H32V448H16C7 448 0 455 0 464V496C0 505 7 512 16 512H256V416H160C160 345 217 288 288 288S416 345 416 416H320V512H560C569 512 576 505 576 496V464C576 455 569 448 560 448H544V64H560ZM192 243C192 250 186 256 179 256H141C134 256 128 250 128 243V205C128 198 134 192 141 192H179C186 192 192 198 192 205V243ZM192 147C192 154 186 160 179 160H141C134 160 128 154 128 147V109C128 102 134 96 141 96H179C186 96 192 102 192 109V147ZM320 243C320 250 314 256 307 256H269C262 256 256 250 256 243V205C256 198 262 192 269 192H307C314 192 320 198 320 205V243ZM320 147C320 154 314 160 307 160H269C262 160 256 154 256 147V109C256 102 262 96 269 96H307C314 96 320 102 320 109V147ZM448 243C448 250 442 256 435 256H397C390 256 384 250 384 243V205C384 198 390 192 397 192H435C442 192 448 198 448 205V243ZM448 147C448 154 442 160 435 160H397C390 160 384 154 384 147V109C384 102 390 96 397 96H435C442 96 448 102 448 109V147Z" class="fa-primary"/></svg>