<svg xmlns="http://www.w3.org/2000/svg" viewBox="0 0 384 512"><!-- Font Awesome Pro 6.0.0-alpha1 by @fontawesome - https://fontawesome.com License - https://fontawesome.com/license (Commercial License) --><defs><style>.fa-secondary{opacity:.4}</style></defs><path d="M96 448H32V427C32 399 41 372 58 350L128 256L58 162C41 140 32 113 32 85V64H96V85C96 99 101 113 109 124L192 235L275 124C283 113 288 99 288 85V64H352V85C352 113 343 140 326 162L256 256L326 350C343 372 352 399 352 427V448H288V427C288 413 283 399 275 388L192 277L109 388C101 399 96 413 96 427V448Z" class="fa-secondary"/><path d="M16 64H96V85C96 99 101 113 109 124L192 235L275 124C283 113 288 99 288 85V64H368C377 64 384 57 384 48V16C384 7 377 0 368 0H16C7 0 0 7 0 16V48C0 57 7 64 16 64ZM16 512H368C377 512 384 505 384 496V464C384 455 377 448 368 448H16C7 448 0 455 0 464V496C0 505 7 512 16 512Z" class="fa-primary"/></svg>