<svg xmlns="http://www.w3.org/2000/svg" viewBox="0 0 576 512"><!-- Font Awesome Pro 6.0.0-alpha1 by @fontawesome - https://fontawesome.com License - https://fontawesome.com/license (Commercial License) --><defs><style>.fa-secondary{opacity:.4}</style></defs><path d="M32 288H64V389C73 381 84 376 95 376C110 376 123 383 133 394C145 408 168 416 192 416C218 416 240 407 251 394C260 383 273 376 288 376L288 376L288 376C303 376 316 383 325 394C336 408 358 416 384 416C408 416 431 408 443 394C453 383 466 376 481 376C492 376 503 381 512 389V288H544C562 288 576 274 576 256C576 247 572 238 565 232L512 185V48C512 39 505 32 496 32H432C423 32 416 39 416 48V101L309 8C303 2 295 0 287 0C280 0 273 3 267 8L11 232C4 238 0 247 0 256C0 274 14 288 32 288ZM224 213C224 202 234 192 245 192H331C342 192 352 202 352 213V299C352 310 342 320 331 320H245C234 320 224 310 224 299V213ZM192 512C192 512 192 512 193 512C187 512 182 511 177 511C182 511 187 512 192 512Z" class="fa-secondary"/><path d="M562 448C534 445 508 433 492 414C490 411 487 410 484 409C483 409 482 408 481 408C480 408 480 409 480 409C475 409 471 411 467 415C428 460 336 459 300 414C297 410 292 408 288 408C283 408 279 410 276 414C240 459 148 460 109 415C105 410 100 408 94 409C95 409 95 409 96 409C96 409 96 408 95 408C94 408 93 409 92 409C89 410 86 411 84 414C68 433 42 445 14 448C6 449 0 456 0 464V496C0 505 8 513 17 512C40 510 63 503 83 493L83 493C87 491 92 489 96 486C153 521 233 520 288 486C319 505 358 513 397 511C392 511 388 512 383 512C384 512 384 512 384 512C389 512 394 511 400 511C428 509 456 501 480 486C503 501 530 509 559 512C568 513 576 505 576 496V464C576 456 570 449 562 448Z" class="fa-primary"/></svg>