<svg xmlns="http://www.w3.org/2000/svg" viewBox="0 0 640 512"><!-- Font Awesome Pro 6.0.0-alpha1 by @fontawesome - https://fontawesome.com License - https://fontawesome.com/license (Commercial License) --><defs><style>.fa-secondary{opacity:.4}</style></defs><path d="M375 325C344 337 309 323 295 293C279 262 292 223 323 208L335 202L340 185C350 156 368 132 393 114L264 0C250 -12 230 -12 217 0L5 188C-1 193 -2 202 4 208L22 229C27 235 37 235 42 230L64 211V375C64 393 78 407 96 407H342L352 366C356 351 364 337 375 325L375 325ZM224 263C224 272 217 279 208 279H144C135 279 128 272 128 263V199C128 190 135 183 144 183H208C217 183 224 190 224 199V263Z" class="fa-secondary"/><path d="M531 263L516 202L543 213C550 216 556 221 559 228L566 242C570 249 576 255 584 258C592 260 601 260 609 256C624 248 631 229 623 213L616 199C606 178 588 162 566 153C529 138 509 128 473 128C426 128 385 159 371 204L361 233L338 245C322 253 316 272 323 288C327 296 334 301 342 304C350 307 358 306 366 302L389 291C404 283 416 270 421 254L426 237L444 306L398 356C391 363 386 373 383 383L361 472C357 489 367 507 384 511C402 515 419 505 423 488L441 414C444 404 449 395 456 387L516 321C531 305 536 283 531 263ZM432 96C459 96 480 75 480 48S459 0 432 0C406 0 384 22 384 48S406 96 432 96ZM631 457L581 407C575 401 570 394 567 386L546 334C537 346 554 328 499 388L512 422C515 430 520 437 526 443L586 503C598 515 618 514 630 502C643 490 643 470 631 457Z" class="fa-primary"/></svg>