<svg xmlns="http://www.w3.org/2000/svg" viewBox="0 0 576 512"><!-- Font Awesome Pro 6.0.0-alpha1 by @fontawesome - https://fontawesome.com License - https://fontawesome.com/license (Commercial License) --><defs><style>.fa-secondary{opacity:.4}</style></defs><path d="M288 75L64 271V448C64 483 93 512 128 512H448C483 512 512 483 512 448V271L288 75ZM381 358L298 444C292 449 284 449 278 444L195 358C171 333 173 292 200 269C223 249 258 253 279 275L288 284L296 275C318 253 353 249 376 269C403 292 405 333 381 358Z" class="fa-secondary"/><path d="M296 275L288 284L279 275C258 253 223 249 200 269C173 292 171 333 195 358L278 444C284 449 292 449 298 444L381 358C405 333 403 292 376 269C353 249 318 253 296 275ZM565 232L512 185V48C512 39 505 32 496 32H432C423 32 416 39 416 48V102L309 8C303 3 296 0 288 0S273 3 267 8L11 232C4 238 0 247 0 256C0 263 3 271 8 277C14 284 23 288 32 288C39 288 47 285 53 280L288 75L523 280C529 285 537 288 544 288C553 288 562 284 568 277C573 271 576 263 576 256C576 247 572 238 565 232Z" class="fa-primary"/></svg>