<svg xmlns="http://www.w3.org/2000/svg" viewBox="0 0 640 512"><!-- Font Awesome Pro 6.0.0-alpha1 by @fontawesome - https://fontawesome.com License - https://fontawesome.com/license (Commercial License) --><defs><style>.fa-secondary{opacity:.4}</style></defs><path d="M337 276C306 260 293 222 309 190L315 176C329 148 353 126 382 115L389 112L263 0C250 -12 230 -12 217 0L5 188C-1 193 -2 202 4 208L22 229C27 235 36 235 42 230L64 211V375C64 393 78 407 96 407H325L357 376C360 373 362 369 364 365L385 314L396 284C396 281 396 278 395 275C377 285 355 285 337 276ZM224 263C224 272 217 279 208 279H144C135 279 128 272 128 263V199C128 190 135 183 144 183H208C217 183 224 190 224 199V263Z" class="fa-secondary"/><path d="M394 386C391 394 386 401 380 407L330 458C318 470 318 490 330 502C343 514 362 515 375 503L434 443C440 437 445 430 448 422L462 388C407 328 423 346 415 334L394 386ZM623 245L599 233L590 204C575 159 534 128 488 128C452 128 432 138 394 153C373 162 355 178 345 199L338 213C330 229 336 248 352 256C360 260 368 260 376 258C384 255 391 249 395 242L401 228C405 221 411 216 418 213L445 202L429 263C424 283 430 305 444 321L504 387C511 395 517 404 519 414L537 488C542 505 559 515 576 511C593 507 604 489 599 472L577 383C575 373 570 363 562 355L517 306L534 237L540 254C545 270 556 283 571 291L595 302C602 306 611 307 619 304C627 301 633 296 637 288C645 272 638 253 623 245ZM528 96C555 96 576 75 576 48C576 22 555 0 528 0S480 22 480 48C480 75 502 96 528 96Z" class="fa-primary"/></svg>