<svg xmlns="http://www.w3.org/2000/svg" viewBox="0 0 448 512"><!-- Font Awesome Pro 6.0.0-alpha1 by @fontawesome - https://fontawesome.com License - https://fontawesome.com/license (Commercial License) --><defs><style>.fa-secondary{opacity:.4}</style></defs><path d="M368 138H367C373 83 348 29 301 0C254 -29 194 -29 147 0C100 29 75 83 81 138H80C54 138 32 159 32 186S54 234 80 234H368C394 234 416 212 416 186S394 138 368 138Z" class="fa-secondary"/><path d="M369 256L253 494C248 505 237 512 224 512S201 505 196 494L80 256H369Z" class="fa-primary"/></svg>