<svg xmlns="http://www.w3.org/2000/svg" viewBox="0 0 576 512"><!-- Font Awesome Pro 6.0.0-alpha1 by @fontawesome - https://fontawesome.com License - https://fontawesome.com/license (Commercial License) --><defs><style>.fa-secondary{opacity:.4}</style></defs><path d="M0 128V432C0 458 22 480 48 480H528C554 480 576 458 576 432V128H0ZM176 192C211 192 240 221 240 256S211 320 176 320S112 291 112 256S141 192 176 192ZM272 416H80C71 416 64 409 64 400C64 374 86 352 112 352H240C266 352 288 374 288 400C288 409 281 416 272 416ZM496 352H368C359 352 352 345 352 336S359 320 368 320H496C505 320 512 327 512 336S505 352 496 352ZM496 288H368C359 288 352 281 352 272S359 256 368 256H496C505 256 512 263 512 272S505 288 496 288ZM496 224H368C359 224 352 217 352 208S359 192 368 192H496C505 192 512 199 512 208S505 224 496 224Z" class="fa-secondary"/><path d="M240 352H112C86 352 64 374 64 400C64 409 71 416 80 416H272C281 416 288 409 288 400C288 374 266 352 240 352ZM240 256C240 221 211 192 176 192S112 221 112 256S141 320 176 320S240 291 240 256ZM528 32H48C22 32 0 54 0 80V128H576V80C576 54 554 32 528 32Z" class="fa-primary"/></svg>