<svg xmlns="http://www.w3.org/2000/svg" viewBox="0 0 576 512"><!-- Font Awesome Pro 6.0.0-alpha1 by @fontawesome - https://fontawesome.com License - https://fontawesome.com/license (Commercial License) --><defs><style>.fa-secondary{opacity:.4}</style></defs><path d="M128 192H448V320H398C376 282 335 256 288 256S200 282 178 320H128V192ZM480 320H576C576 274 565 231 546 192H480V320ZM320 160V34C309 33 299 32 288 32C188 32 100 83 49 160H320ZM352 160H527C487 100 425 56 352 39V160ZM411 352C414 362 416 373 416 384V480H544C562 480 576 466 576 448V352H411ZM165 352H0V448C0 466 14 480 32 480H160V384C160 373 162 362 165 352ZM96 192H30C11 231 0 274 0 320H96V192Z" class="fa-secondary"/><path d="M411 352H576V320H480V192H546C540 181 534 170 527 160H352V39C342 37 331 35 320 34V160H49C42 170 36 181 30 192H96V320H0V352H165C162 362 160 373 160 384V480H192V384C192 331 235 288 288 288S384 331 384 384V480H416V384C416 373 414 362 411 352ZM288 256C241 256 200 282 178 320H128V192H448V320H398C376 282 335 256 288 256Z" class="fa-primary"/></svg>