<svg xmlns="http://www.w3.org/2000/svg" viewBox="0 0 512 512"><!-- Font Awesome Pro 6.0.0-alpha1 by @fontawesome - https://fontawesome.com License - https://fontawesome.com/license (Commercial License) --><defs><style>.fa-secondary{opacity:.4}</style></defs><path d="M464 32H48C22 32 0 54 0 80V432C0 458 22 480 48 480H464C490 480 512 458 512 432V80C512 54 490 32 464 32ZM112 96C138 96 160 118 160 144S138 192 112 192S64 170 64 144S86 96 112 96ZM446 408C443 413 438 416 432 416H82C76 416 70 413 68 407C65 402 66 395 69 391L139 295C142 290 147 288 152 288S162 290 165 295L197 339L291 199C294 195 299 192 304 192S314 195 317 199L445 391C449 396 449 402 446 408Z" class="fa-secondary"/><path d="M446 408C443 413 438 416 432 416H82C76 416 70 413 68 407C65 402 66 395 69 391L139 295C142 290 147 288 152 288S162 290 165 295L197 339L291 199C294 195 299 192 304 192S314 195 317 199L445 391C449 396 449 402 446 408Z" class="fa-primary"/></svg>