<svg xmlns="http://www.w3.org/2000/svg" viewBox="0 0 448 512"><!-- Font Awesome Pro 6.0.0-alpha1 by @fontawesome - https://fontawesome.com License - https://fontawesome.com/license (Commercial License) --><defs><style>.fa-secondary{opacity:.4}</style></defs><path d="M400 32H48C22 32 0 54 0 80V432C0 458 22 480 48 480H400C426 480 448 458 448 432V80C448 54 426 32 400 32ZM384 352H64V96H384V352Z" class="fa-secondary"/><path d="M224 256C259 256 288 227 288 192S259 128 224 128S160 157 160 192S189 256 224 256ZM384 352H336V352C336 317 307 288 272 288H176C141 288 112 317 112 352V352H64V96H384V352Z" class="fa-primary"/></svg>