<svg xmlns="http://www.w3.org/2000/svg" viewBox="0 0 448 512"><!-- Font Awesome Pro 6.0.0-alpha1 by @fontawesome - https://fontawesome.com License - https://fontawesome.com/license (Commercial License) --><defs><style>.fa-secondary{opacity:.4}</style></defs><path d="M400 32H48C22 32 0 54 0 80V432C0 458 22 480 48 480H400C426 480 448 458 448 432V80C448 54 426 32 400 32ZM384 352H64V96H384V352Z" class="fa-secondary"/><path d="M64 96V352H384V96H64ZM128 128C146 128 160 142 160 160S146 192 128 192S96 178 96 160S110 128 128 128ZM350 312C347 317 342 320 336 320H112C106 320 100 317 98 311C95 306 96 299 99 295L146 231C149 226 154 224 159 224S169 226 172 231L184 247L237 167C240 163 245 160 251 160S261 163 264 167L349 295C353 300 353 306 350 312Z" class="fa-primary"/></svg>