<svg xmlns="http://www.w3.org/2000/svg" viewBox="0 0 576 512"><!-- Font Awesome Pro 6.0.0-alpha1 by @fontawesome - https://fontawesome.com License - https://fontawesome.com/license (Commercial License) --><defs><style>.fa-secondary{opacity:.4}</style></defs><path d="M528 32H144C118 32 96 54 96 80V336C96 362 118 384 144 384H528C555 384 576 362 576 336V80C576 54 554 32 528 32ZM224 96C242 96 256 110 256 128S242 160 224 160C206 160 192 146 192 128S206 96 224 96ZM494 312C491 317 486 320 480 320H192C186 320 180 317 178 311C175 306 176 299 179 295L249 199C252 194 257 192 262 192C267 192 272 194 275 199L297 229L360 135C363 131 368 128 373 128C379 128 384 131 387 135L493 295C497 300 497 306 494 312Z" class="fa-secondary"/><path d="M493 295L387 135C384 131 379 128 373 128C368 128 363 131 360 135L297 229L275 199C272 194 267 192 262 192C257 192 252 194 249 199L179 295C176 299 175 306 178 311C180 317 186 320 192 320H480C486 320 491 317 494 312C497 306 497 300 493 295ZM48 400V96C22 96 0 118 0 144V416C0 451 29 480 64 480H432C458 480 480 458 480 432H80C62 432 48 418 48 400Z" class="fa-primary"/></svg>