<svg xmlns="http://www.w3.org/2000/svg" viewBox="0 0 512 512"><!-- Font Awesome Pro 6.0.0-alpha1 by @fontawesome - https://fontawesome.com License - https://fontawesome.com/license (Commercial License) --><defs><style>.fa-secondary{opacity:.4}</style></defs><path d="M439 288H384L352 352H160L128 288H73L121 96H391L439 288Z" class="fa-secondary"/><path d="M447 56C443 42 431 32 416 32H96C81 32 69 42 65 56L4 305C1 315 0 325 0 336V432C0 458 22 480 48 480H464C490 480 512 458 512 432V336C512 325 511 315 508 305L447 56ZM352 352H160L128 288H73L121 96H391L439 288H384L352 352Z" class="fa-primary"/></svg>