<svg xmlns="http://www.w3.org/2000/svg" viewBox="0 0 512 512"><!-- Font Awesome Pro 6.0.0-alpha1 by @fontawesome - https://fontawesome.com License - https://fontawesome.com/license (Commercial License) --><defs><style>.fa-secondary{opacity:.4}</style></defs><path d="M480 320H384L352 384H160L128 320H32C14 320 0 334 0 352V464C0 490 22 512 48 512H464C490 512 512 490 512 464V352C512 334 498 320 480 320Z" class="fa-secondary"/><path d="M183 141L224 100V279C224 296 238 311 256 311S288 296 288 279V100L329 141C336 147 344 151 352 151S368 147 375 141C387 129 387 109 375 96L279 0C266 -13 246 -13 233 0L137 96C125 109 125 129 137 141S170 154 183 141Z" class="fa-primary"/></svg>