<svg xmlns="http://www.w3.org/2000/svg" viewBox="0 0 512 512"><!-- Font Awesome Pro 6.0.0-alpha1 by @fontawesome - https://fontawesome.com License - https://fontawesome.com/license (Commercial License) --><defs><style>.fa-secondary{opacity:.4}</style></defs><path d="M512 152V448C512 466 498 480 480 480H128C146 480 160 466 160 448V224L299 132C315 122 336 133 336 152V224L475 132C491 122 512 133 512 152Z" class="fa-secondary"/><path d="M128 480H32C14 480 0 466 0 448V64C0 46 14 32 32 32H128C146 32 160 46 160 64V448C160 466 146 480 128 480Z" class="fa-primary"/></svg>