<svg xmlns="http://www.w3.org/2000/svg" viewBox="0 0 320 512"><!-- Font Awesome Pro 6.0.0-alpha1 by @fontawesome - https://fontawesome.com License - https://fontawesome.com/license (Commercial License) --><defs><style>.fa-secondary{opacity:.4}</style></defs><path d="M320 56V104C320 117 309 128 296 128H253L168 384H200C213 384 224 395 224 408V456C224 469 213 480 200 480H24C11 480 0 469 0 456V408C0 395 11 384 24 384H67L152 128H120C107 128 96 117 96 104V56C96 43 107 32 120 32H296C309 32 320 43 320 56Z" class="fa-secondary"/></svg>