<svg xmlns="http://www.w3.org/2000/svg" viewBox="0 0 576 512"><!-- Font Awesome Pro 6.0.0-alpha1 by @fontawesome - https://fontawesome.com License - https://fontawesome.com/license (Commercial License) --><defs><style>.fa-secondary{opacity:.4}</style></defs><path d="M371 344L329 353L349 386C351 390 350 394 347 396C345 399 341 399 337 397L310 378L312 446C304 447 296 448 288 448S271 447 263 446L265 378L238 397C235 399 230 399 228 396C225 394 224 390 226 386L246 353L204 344C201 343 198 340 198 336S201 329 204 328L246 319L226 286C224 282 225 278 228 276C230 273 235 273 238 275L268 296L280 8C280 3 283 0 288 0C292 0 295 3 296 8L307 296L337 275C341 273 345 273 347 276C350 278 351 282 349 286L329 319L371 328C374 329 377 332 377 336S374 343 371 344Z" class="fa-secondary"/><path d="M555 293L496 352H536C493 446 398 512 288 512C178 512 83 446 40 352H80L21 293C18 276 16 259 16 241C16 235 17 230 17 224H64L23 183C37 117 76 59 131 21C133 18 137 18 140 18C145 18 150 20 153 25C157 29 157 35 155 40C149 56 145 74 145 91C145 136 166 178 203 205C207 208 209 212 210 217C210 222 208 227 204 230C171 260 157 304 166 347C167 356 170 364 174 372C174 372 174 373 174 373C177 378 179 384 183 389C184 391 186 394 187 396C188 397 189 398 190 400C213 429 248 448 288 448S363 429 386 400C387 398 388 397 389 396C390 394 392 391 393 389C396 384 399 378 402 373C402 373 402 372 402 372C406 364 409 356 410 347C419 304 405 260 372 230C368 227 366 222 366 217C367 212 369 208 373 205C410 178 431 136 431 91C431 74 427 56 421 40C419 35 419 29 423 25C426 20 431 17 436 17C439 17 443 18 445 20C500 59 539 117 553 183L512 224H559C559 230 560 235 560 241C560 259 558 276 555 293Z" class="fa-primary"/></svg>