<svg xmlns="http://www.w3.org/2000/svg" viewBox="0 0 320 512"><!-- Font Awesome Pro 6.0.0-alpha1 by @fontawesome - https://fontawesome.com License - https://fontawesome.com/license (Commercial License) --><defs><style>.fa-secondary{opacity:.4}</style></defs><path d="M298 473C290 478 281 480 272 480C256 480 241 472 231 458L132 301L96 339V432C96 458 74 480 48 480S0 458 0 432V80C0 54 22 32 48 32S96 54 96 80V198L237 47C255 28 285 27 305 45C324 63 325 93 307 113L199 228C200 229 200 230 200 230L312 406C327 429 320 458 298 473Z" class="fa-secondary"/></svg>