<svg xmlns="http://www.w3.org/2000/svg" viewBox="0 0 640 512"><!-- Font Awesome Pro 6.0.0-alpha1 by @fontawesome - https://fontawesome.com License - https://fontawesome.com/license (Commercial License) --><defs><style>.fa-secondary{opacity:.4}</style></defs><path d="M448 160C501 160 544 203 544 256S501 352 448 352S352 309 352 256S395 160 448 160M448 112C368 112 304 176 304 256S368 400 448 400S592 336 592 256S528 112 448 112L448 112Z" class="fa-secondary"/><path d="M499 216L488 205C486 204 484 203 482 203C480 203 478 204 476 205L448 233L420 205C417 202 411 202 408 205L397 216C394 220 394 225 397 228L425 256L397 284C396 286 395 288 395 290C395 292 396 294 397 296L408 307C412 310 417 310 420 307L448 279L476 307C478 308 480 309 482 309C484 309 486 308 488 307L499 296C500 294 501 292 501 290C501 288 500 286 499 284L471 256L499 228C502 225 502 219 499 216ZM383 384H242C230 384 218 382 207 379L23 327C10 323 0 310 0 296V216C0 202 10 189 23 185L207 133C218 130 230 128 242 128H383C336 152 304 200 304 256S336 360 383 384ZM640 160V352C640 370 626 384 608 384H513C560 360 592 312 592 256S560 152 513 128H608C626 128 640 142 640 160Z" class="fa-primary"/></svg>