<svg xmlns="http://www.w3.org/2000/svg" viewBox="0 0 512 512"><!-- Font Awesome Pro 6.0.0-alpha1 by @fontawesome - https://fontawesome.com License - https://fontawesome.com/license (Commercial License) --><defs><style>.fa-secondary{opacity:.4}</style></defs><path d="M234 233L9 457C-3 470 -3 490 9 503C16 509 24 512 32 512S48 509 55 503L90 467L131 507C137 514 147 514 153 507L187 473C187 473 187 473 187 473L219 441C226 435 226 425 219 419L179 378L279 278L234 233Z" class="fa-secondary"/><path d="M416 0H320C267 0 224 43 224 96V192C224 207 228 221 234 233L279 278C291 284 305 288 320 288H416C469 288 512 245 512 192V96C512 43 469 0 416 0ZM400 224C374 224 352 202 352 176C352 168 344 160 336 160C310 160 288 138 288 112S310 64 336 64S384 86 384 112C384 120 392 128 400 128C426 128 448 150 448 176S426 224 400 224Z" class="fa-primary"/></svg>