<svg xmlns="http://www.w3.org/2000/svg" viewBox="0 0 512 512"><!-- Font Awesome Pro 6.0.0-alpha1 by @fontawesome - https://fontawesome.com License - https://fontawesome.com/license (Commercial License) --><defs><style>.fa-secondary{opacity:.4}</style></defs><path d="M165 219L9 375C3 381 0 389 0 397V496C0 505 7 512 16 512H112C121 512 128 505 128 496V448H176C185 448 192 441 192 432V384H249C254 384 258 382 261 379L293 347L165 219Z" class="fa-secondary"/><path d="M336 0C239 0 160 79 160 176C160 191 162 205 165 219L293 347C307 350 321 352 336 352C433 352 512 273 512 176S433 0 336 0ZM376 176C354 176 336 158 336 136S354 96 376 96S416 114 416 136S398 176 376 176Z" class="fa-primary"/></svg>