<svg xmlns="http://www.w3.org/2000/svg" viewBox="0 0 384 512"><!-- Font Awesome Pro 6.0.0-alpha1 by @fontawesome - https://fontawesome.com License - https://fontawesome.com/license (Commercial License) --><defs><style>.fa-secondary{opacity:.4}</style></defs><path d="M0 240V272C0 281 7 288 16 288H64V224H16C7 224 0 231 0 240ZM368 224H203L168 256L203 288H368C377 288 384 281 384 272V240C384 231 377 224 368 224Z" class="fa-secondary"/><path d="M344 416C354 425 355 440 346 449L324 472C315 482 300 483 290 474L144 339V456C144 469 133 480 120 480H88C75 480 64 469 64 456V56C64 43 75 32 88 32H120C133 32 144 43 144 56V173L290 38C300 29 315 30 324 40L346 63C355 72 354 87 344 96L168 256L344 416Z" class="fa-primary"/></svg>