<svg xmlns="http://www.w3.org/2000/svg" viewBox="0 0 576 512"><!-- Font Awesome Pro 6.0.0-alpha1 by @fontawesome - https://fontawesome.com License - https://fontawesome.com/license (Commercial License) --><defs><style>.fa-secondary{opacity:.4}</style></defs><path d="M512 32H480V480H512C547 480 576 451 576 416V96C576 61 547 32 512 32ZM0 96V416C0 451 29 480 64 480H96V32H64C29 32 0 61 0 96ZM128 480H448V32H128V480ZM176 230C176 221 183 214 192 214H246V160C246 151 253 144 262 144H314C323 144 330 151 330 160V214H384C393 214 400 221 400 230V282C400 291 393 298 384 298H330V352C330 361 323 368 314 368H262C253 368 246 361 246 352V298H192C183 298 176 291 176 282V230Z" class="fa-secondary"/><path d="M96 480H128V32H96V480ZM448 32V480H480V32H448Z" class="fa-primary"/></svg>