<svg xmlns="http://www.w3.org/2000/svg" viewBox="0 0 576 512"><!-- Font Awesome Pro 6.0.0-alpha1 by @fontawesome - https://fontawesome.com License - https://fontawesome.com/license (Commercial License) --><defs><style>.fa-secondary{opacity:.4}</style></defs><path d="M144 410V464C144 473 137 480 128 480H112C103 480 96 473 96 464V390C111 399 127 406 144 410ZM576 224C576 282 531 331 473 336L546 472C549 477 554 480 560 480C561 480 563 480 564 479C571 478 576 471 576 464V224ZM208 415V464C208 473 215 480 224 480H240C249 480 256 473 256 464V405C241 411 224 414 208 415L208 415Z" class="fa-secondary"/><path d="M464 112H448C395 112 344 96 301 66C296 63 292 60 288 58V58C259 41 226 32 192 32C86 32 0 118 0 224S86 416 192 416C226 416 259 407 288 390V390C291 389 294 387 296 385C342 355 394 336 448 336H464C526 336 576 286 576 224S526 112 464 112ZM464 248C451 248 440 237 440 224C440 211 451 200 464 200C477 200 488 211 488 224C488 237 477 248 464 248Z" class="fa-primary"/></svg>