<svg xmlns="http://www.w3.org/2000/svg" viewBox="0 0 448 512"><!-- Font Awesome Pro 6.0.0-alpha1 by @fontawesome - https://fontawesome.com License - https://fontawesome.com/license (Commercial License) --><defs><style>.fa-secondary{opacity:.4}</style></defs><path d="M352 429C352 457 340 483 321 503C316 509 308 512 299 512H149C140 512 132 509 126 503C107 483 96 457 96 429C96 387 123 325 160 288V256H288V288C325 325 352 387 352 429Z" class="fa-secondary"/><path d="M445 211L368 19C363 8 352 0 340 0H121C109 0 99 7 94 18L3 210C-7 231 8 256 30 256H418C439 256 454 233 445 211Z" class="fa-primary"/></svg>