<svg xmlns="http://www.w3.org/2000/svg" viewBox="0 0 512 512"><!-- Font Awesome Pro 6.0.0-alpha1 by @fontawesome - https://fontawesome.com License - https://fontawesome.com/license (Commercial License) --><defs><style>.fa-secondary{opacity:.4}</style></defs><path d="M496 448H480V416C480 398 466 384 448 384V256H384V384H288V256H224V384H128V256H64V384C46 384 32 398 32 416V448H16C7 448 0 455 0 464V496C0 505 7 512 16 512H496C505 512 512 505 512 496V464C512 455 505 448 496 448Z" class="fa-secondary"/><path d="M48 256H464C473 256 480 249 480 240V208C480 199 473 192 464 192H445C432 112 368 48 288 35V16C288 7 281 0 272 0H240C231 0 224 7 224 16V35C144 48 80 112 67 192H48C39 192 32 199 32 208V240C32 249 39 256 48 256Z" class="fa-primary"/></svg>