<svg xmlns="http://www.w3.org/2000/svg" viewBox="0 0 640 512"><!-- Font Awesome Pro 6.0.0-alpha1 by @fontawesome - https://fontawesome.com License - https://fontawesome.com/license (Commercial License) --><defs><style>.fa-secondary{opacity:.4}</style></defs><path d="M128 197L64 146V352H128ZM16 384A16 16 0 0 0 0 400V416A64 64 0 0 0 64 480H490L367 384ZM624 384H522L621 461A64 64 0 0 0 640 416V400A16 16 0 0 0 624 384ZM576 352V80A48 48 0 0 0 528 32H112A48 48 0 0 0 84 41L155 96H512V352Z" class="fa-secondary"/><path d="M616 512A24 24 0 0 1 601 507L9 43A24 24 0 0 1 39 5L631 469A24 24 0 0 1 616 512Z" class="fa-primary"/></svg>