<svg xmlns="http://www.w3.org/2000/svg" viewBox="0 0 640 512"><!-- Font Awesome Pro 6.0.0-alpha1 by @fontawesome - https://fontawesome.com License - https://fontawesome.com/license (Commercial License) --><defs><style>.fa-secondary{opacity:.4}</style></defs><path d="M128 96H512V352H576V80C576 54 554 32 528 32H112C86 32 64 54 64 80V352H128V96ZM624 384H16C7 384 0 391 0 400V416C0 451 29 480 64 480H576C611 480 640 451 640 416V400C640 391 633 384 624 384Z" class="fa-secondary"/><path d="M128 96V352H512V96H128ZM242 250C250 258 250 270 242 278C238 282 233 284 228 284S218 282 214 278L166 230C158 222 158 210 166 202L214 154C222 146 234 146 242 154S250 174 242 182L208 216L242 250ZM367 155L311 307C308 315 300 320 292 320C290 320 287 320 285 319C275 315 269 303 273 293L329 141C333 131 345 125 355 129C365 133 371 145 367 155ZM474 230L426 278C422 282 417 284 412 284S402 282 398 278C390 270 390 258 398 250L432 216L398 182C390 174 390 162 398 154S418 146 426 154L474 202C482 210 482 222 474 230Z" class="fa-primary"/></svg>