<svg xmlns="http://www.w3.org/2000/svg" viewBox="0 0 384 512"><!-- Font Awesome Pro 6.0.0-alpha1 by @fontawesome - https://fontawesome.com License - https://fontawesome.com/license (Commercial License) --><defs><style>.fa-secondary{opacity:.4}</style></defs><path d="M160 32H128C119 32 112 39 112 48V113C131 104 153 99 176 97V48C176 39 169 32 160 32ZM112 272C112 281 119 288 128 288H160C169 288 176 281 176 272V178C157 181 132 191 112 210V272ZM208 272C208 281 215 288 224 288H256C265 288 272 281 272 272V210C252 189 227 181 208 178V272ZM256 32H224C215 32 208 39 208 48V98C230 99 252 105 272 115V48C272 39 265 32 256 32Z" class="fa-secondary"/><path d="M384 424V456C384 469 373 480 360 480H24C11 480 0 469 0 456V424C0 411 11 400 24 400H36C-55 273 38 96 192 96C284 96 368 166 382 261C384 275 373 288 358 288H326C314 288 304 280 302 269C301 259 293 232 272 210V210C245 183 210 176 192 176C158 176 80 203 80 288C80 288 80 288 80 288C80 338 120 400 192 400H360C373 400 384 411 384 424Z" class="fa-primary"/></svg>