<svg xmlns="http://www.w3.org/2000/svg" viewBox="0 0 576 512"><!-- Font Awesome Pro 6.0.0-alpha1 by @fontawesome - https://fontawesome.com License - https://fontawesome.com/license (Commercial License) --><defs><style>.fa-secondary{opacity:.4}</style></defs><path d="M178 384C180 390 181 396 181 402C181 427 161 448 135 448C135 448 135 448 135 448H48C39 448 32 455 32 464V496C32 505 39 512 48 512H135C194 512 244 465 245 406C245 390 243 375 238 360C224 374 202 384 178 384ZM288 0C126 0 0 80 0 181C0 231 30 277 85 311C89 313 92 315 96 317C98 295 113 276 136 266C130 263 124 260 119 257C98 244 64 218 64 181C64 119 169 64 288 64S512 119 512 181C512 244 407 299 288 299C275 299 263 298 250 297C254 304 256 312 256 321C256 336 249 349 239 360C255 362 271 363 288 363C450 363 576 283 576 181C576 80 450 0 288 0Z" class="fa-secondary"/><path d="M256 321C256 356 220 384 176 384S96 356 96 321S132 257 176 257S256 285 256 321Z" class="fa-primary"/></svg>