<svg xmlns="http://www.w3.org/2000/svg" viewBox="0 0 512 512"><!-- Font Awesome Pro 6.0.0-alpha1 by @fontawesome - https://fontawesome.com License - https://fontawesome.com/license (Commercial License) --><defs><style>.fa-secondary{opacity:.4}</style></defs><path d="M500 236L267 131C260 128 252 128 245 131L12 236C-4 244 -4 269 12 276L245 382C252 385 260 385 267 382L500 276C516 269 516 244 500 236Z" class="fa-secondary"/><path d="M484 56H356C347 56 340 63 340 72V88C340 97 347 104 356 104H484C492 104 500 97 500 88V72C500 63 492 56 484 56ZM487 364L429 338L267 411C260 414 252 416 244 416S227 414 220 411L58 338L0 364C-17 372 -17 397 0 404L233 510C240 513 247 513 254 510L487 404C504 397 504 372 487 364Z" class="fa-primary"/></svg>