<svg xmlns="http://www.w3.org/2000/svg" viewBox="0 0 512 512"><!-- Font Awesome Pro 6.0.0-alpha1 by @fontawesome - https://fontawesome.com License - https://fontawesome.com/license (Commercial License) --><defs><style>.fa-secondary{opacity:.4}</style></defs><path d="M512 165C512 293 442 401 337 436C317 443 295 448 272 448H272V448C204 448 145 409 116 352C158 310 225 272 328 272C341 272 352 261 352 248S341 224 328 224C222 224 149 260 99 304C97 293 96 283 96 272C96 175 175 96 272 96V96C286 96 299 97 312 100C368 114 430 93 462 39C467 29 482 30 486 40C503 77 512 122 512 165Z" class="fa-secondary"/><path d="M24 480C22 480 20 480 18 479C5 476 -3 463 1 450C1 448 65 224 328 224C341 224 352 235 352 248S341 272 328 272C102 272 49 455 47 462C44 473 35 480 24 480Z" class="fa-primary"/></svg>