<svg xmlns="http://www.w3.org/2000/svg" viewBox="0 0 512 512"><!-- Font Awesome Pro 6.0.0-alpha1 by @fontawesome - https://fontawesome.com License - https://fontawesome.com/license (Commercial License) --><defs><style>.fa-secondary{opacity:.4}</style></defs><path d="M498 233C492 239 483 244 475 249C463 257 450 264 436 272C440 278 444 282 447 286C469 314 463 351 431 368C409 380 386 378 362 375C349 374 336 373 320 371C324 377 326 380 328 382C343 408 332 438 303 445C291 449 277 449 265 446C248 442 232 433 215 429C194 423 185 428 179 430C157 437 133 433 114 421L347 187C354 181 354 171 347 165S331 158 325 165L91 398C79 379 75 355 82 333C84 327 89 318 83 297C79 280 70 264 66 247C63 235 63 221 67 209C74 180 104 169 130 184C132 186 135 188 141 192C139 176 138 163 137 150C134 126 132 103 144 81C161 49 198 43 226 65C230 68 234 72 240 76C248 62 255 49 263 37C267 29 272 20 279 14C303 -8 338 -3 357 24C364 34 367 49 384 44C417 34 441 41 455 56L455 57L456 57C471 71 478 95 468 128C463 144 478 148 488 155C515 174 520 209 498 233Z" class="fa-secondary"/><path d="M347 187L27 507C24 510 20 512 16 512S8 510 5 507C-2 501 -2 491 5 485L325 165C331 158 341 158 347 165C354 171 354 181 347 187Z" class="fa-primary"/></svg>