<svg xmlns="http://www.w3.org/2000/svg" viewBox="0 0 512 512"><!-- Font Awesome Pro 6.0.0-alpha1 by @fontawesome - https://fontawesome.com License - https://fontawesome.com/license (Commercial License) --><defs><style>.fa-secondary{opacity:.4}</style></defs><path d="M504 196L363 286L428 269C440 267 452 278 448 290L434 316L486 362C495 369 495 382 486 389L434 434L448 460C452 473 440 484 428 481L267 448L251 485C245 499 225 499 219 485L167 368L347 187C354 181 354 171 347 165C341 158 331 158 325 165L144 345L27 293C12 287 12 267 27 261L64 245L31 84C28 72 39 60 52 64L78 78L123 26C130 17 143 17 150 26L196 78L221 64C234 60 245 72 243 84L226 149L316 8C323 -3 339 -3 346 8L368 46L457 36C462 35 468 37 471 41C475 45 477 50 476 55L466 144L504 167C515 173 515 189 504 196Z" class="fa-secondary"/><path d="M347 187L27 507C24 510 20 512 16 512S8 510 5 507C-2 501 -2 491 5 485L325 165C331 158 341 158 347 165C354 171 354 181 347 187Z" class="fa-primary"/></svg>