<svg xmlns="http://www.w3.org/2000/svg" viewBox="0 0 448 512"><!-- Font Awesome Pro 6.0.0-alpha1 by @fontawesome - https://fontawesome.com License - https://fontawesome.com/license (Commercial License) --><defs><style>.fa-secondary{opacity:.4}</style></defs><path d="M416 320H224V192H416C434 192 448 206 448 224V288C448 306 434 320 416 320Z" class="fa-secondary"/><path d="M169 439L9 279C3 272 0 264 0 256C0 248 3 240 9 233L169 73C179 64 192 61 204 66C216 71 224 83 224 96V416C224 429 216 441 204 446C192 451 179 448 169 439Z" class="fa-primary"/></svg>