<svg xmlns="http://www.w3.org/2000/svg" viewBox="0 0 512 512"><!-- Font Awesome Pro 6.0.0-alpha1 by @fontawesome - https://fontawesome.com License - https://fontawesome.com/license (Commercial License) --><defs><style>.fa-secondary{opacity:.4}</style></defs><path d="M7 238L119 134C127 128 137 126 145 130C153 133 159 141 160 150C160 150 160 151 160 152V208H256V304H160V360C160 361 160 362 160 362C159 371 154 378 145 382C137 386 127 384 120 378L7 274C-2 265 -2 247 7 238Z" class="fa-secondary"/><path d="M504 274L392 378C385 384 375 386 366 382C358 379 353 371 352 362C352 362 352 361 352 360V304H256V208H352V152C352 151 352 150 352 150C353 141 358 134 366 130C375 126 385 128 392 134L504 238C514 247 514 265 504 274Z" class="fa-primary"/></svg>