<svg xmlns="http://www.w3.org/2000/svg" viewBox="0 0 448 512"><!-- Font Awesome Pro 6.0.0-alpha1 by @fontawesome - https://fontawesome.com License - https://fontawesome.com/license (Commercial License) --><defs><style>.fa-secondary{opacity:.4}</style></defs><path d="M428 52C408 32 380 27 362 37C311 67 204 -9 81 113C-41 236 35 343 5 394C-5 412 0 440 20 460C40 480 68 485 86 475C137 445 244 521 367 399C489 276 413 169 443 118C453 100 448 72 428 52ZM212 128C168 139 107 200 96 244C94 251 87 256 80 256C79 256 77 256 76 256C68 253 62 245 64 236C79 180 148 111 204 96C213 94 221 100 224 108C226 117 220 125 212 128Z" class="fa-secondary"/><path d="M212 128C168 139 107 200 96 244C94 251 87 256 80 256C79 256 77 256 76 256C68 253 62 245 64 236C79 180 148 111 204 96C213 94 221 100 224 108C226 117 220 125 212 128Z" class="fa-primary"/></svg>