<svg xmlns="http://www.w3.org/2000/svg" viewBox="0 0 512 512"><!-- Font Awesome Pro 6.0.0-alpha1 by @fontawesome - https://fontawesome.com License - https://fontawesome.com/license (Commercial License) --><defs><style>.fa-secondary{opacity:.4}</style></defs><path d="M348 192L456 84C509 164 509 269 456 349L348 241C353 225 353 208 348 192ZM231 124C248 120 264 120 281 124L388 16C308 -37 204 -37 124 16L231 124ZM164 192L56 84C3 164 3 269 56 349L164 241C159 225 159 208 164 192ZM281 309C264 313 248 313 231 309L124 417C204 470 308 470 388 417L281 309Z" class="fa-secondary"/><path d="M164 231L56 124C65 110 75 98 87 86S111 64 124 56L232 164C216 168 201 176 188 188C176 201 168 216 164 231ZM164 281L56 388C65 402 75 414 87 426S111 448 124 456L232 348C216 344 201 336 188 324C176 311 168 296 164 281ZM426 86C414 75 402 64 389 56L281 164C297 168 312 176 324 188S344 216 349 232L457 124C448 110 438 98 426 86ZM457 388L349 280C344 296 337 311 324 324S297 344 281 348L389 456C402 448 414 437 426 426S448 402 457 388Z" class="fa-primary"/></svg>