<svg xmlns="http://www.w3.org/2000/svg" viewBox="0 0 384 512"><!-- Font Awesome Pro 6.0.0-alpha1 by @fontawesome - https://fontawesome.com License - https://fontawesome.com/license (Commercial License) --><defs><style>.fa-secondary{opacity:.4}</style></defs><path d="M191 0C89 0 16 83 16 176C16 220 32 261 60 292C76 311 102 350 112 383C112 383 112 384 112 384H272C272 384 272 383 272 383C282 350 308 311 324 292C352 261 368 220 368 176C368 79 289 0 191 0ZM192 96C148 96 112 132 112 176C112 185 105 192 96 192S80 185 80 176C80 114 130 64 192 64C201 64 208 71 208 80S201 96 192 96Z" class="fa-secondary"/><path d="M272 384V416L272 416L272 454C272 460 270 468 267 472L250 498C244 506 232 512 223 512H161C152 512 140 506 134 498L117 472C114 467 112 461 112 454L112 416L112 416V384H272Z" class="fa-primary"/></svg>