<svg xmlns="http://www.w3.org/2000/svg" viewBox="0 0 640 512"><!-- Font Awesome Pro 6.0.0-alpha1 by @fontawesome - https://fontawesome.com License - https://fontawesome.com/license (Commercial License) --><defs><style>.fa-secondary{opacity:.4}</style></defs><path d="M616 512C611 512 606 510 601 507L9 43C-1 35 -3 20 5 9C13 -1 28 -3 39 5L631 469C641 477 643 492 635 503C630 509 623 512 616 512Z" class="fa-secondary"/><path d="M187 292C204 311 230 350 240 383C240 383 240 384 240 384H240L240 454C240 461 242 467 245 472L262 498C268 506 279 512 289 512H351C360 512 372 506 377 498L394 472C397 468 400 460 400 454L400 410L148 213C154 243 168 270 187 292ZM319 0C246 0 188 43 161 101L214 142C228 97 270 64 320 64C329 64 336 71 336 80S329 96 320 96C280 96 247 125 241 164L434 315C441 306 447 298 452 292C480 260 496 219 496 176C496 79 417 0 319 0Z" class="fa-primary"/></svg>