<svg xmlns="http://www.w3.org/2000/svg" viewBox="0 0 640 512"><!-- Font Awesome Pro 6.0.0-alpha1 by @fontawesome - https://fontawesome.com License - https://fontawesome.com/license (Commercial License) --><defs><style>.fa-secondary{opacity:.4}</style></defs><path d="M147 236C132 231 77 216 53 282C34 331 66 411 79 416C93 421 169 382 188 332C214 262 153 239 147 236ZM320 256C304 256 248 262 248 332C248 385 305 448 320 448S392 385 392 332C392 257 327 256 320 256ZM586 282C562 216 507 231 493 236C485 239 425 262 451 332C470 382 546 421 560 416C573 411 605 331 586 282L586 282Z" class="fa-secondary"/><path d="M633 122C594 144 551 162 506 175L526 231C504 230 482 238 466 253L443 189C413 195 382 198 352 199V262C332 254 309 254 288 262V199C258 198 228 195 198 189L175 253C167 246 157 240 147 236C137 232 126 230 114 231L135 175C89 162 46 144 8 122C0 117 -2 107 3 99L20 71C25 64 34 62 42 66C118 111 216 135 320 135S522 111 598 66C606 62 615 64 620 71L637 99C642 107 640 117 633 122L633 122Z" class="fa-primary"/></svg>