<svg xmlns="http://www.w3.org/2000/svg" viewBox="0 0 512 512"><!-- Font Awesome Pro 6.0.0-alpha1 by @fontawesome - https://fontawesome.com License - https://fontawesome.com/license (Commercial License) --><defs><style>.fa-secondary{opacity:.4}</style></defs><path d="M496 288H304C295 288 288 295 288 304V336C288 345 295 352 304 352H496C505 352 512 345 512 336V304C512 295 505 288 496 288ZM496 416H304C295 416 288 423 288 432V464C288 473 295 480 304 480H496C505 480 512 473 512 464V432C512 423 505 416 496 416ZM496 160H304C295 160 288 167 288 176V208C288 217 295 224 304 224H496C505 224 512 217 512 208V176C512 167 505 160 496 160ZM496 32H304C295 32 288 39 288 48V80C288 89 295 96 304 96H496C505 96 512 89 512 80V48C512 39 505 32 496 32Z" class="fa-secondary"/><path d="M208 288H16C7 288 0 295 0 304V336C0 345 7 352 16 352H208C217 352 224 345 224 336V304C224 295 217 288 208 288ZM208 416H16C7 416 0 423 0 432V464C0 473 7 480 16 480H208C217 480 224 473 224 464V432C224 423 217 416 208 416ZM208 32H16C7 32 0 39 0 48V80C0 89 7 96 16 96H208C217 96 224 89 224 80V48C224 39 217 32 208 32ZM208 160H16C7 160 0 167 0 176V208C0 217 7 224 16 224H208C217 224 224 217 224 208V176C224 167 217 160 208 160Z" class="fa-primary"/></svg>