<svg xmlns="http://www.w3.org/2000/svg" viewBox="0 0 640 512"><!-- Font Awesome Pro 6.0.0-alpha1 by @fontawesome - https://fontawesome.com License - https://fontawesome.com/license (Commercial License) --><defs><style>.fa-secondary{opacity:.4}</style></defs><path d="M599 241L465 375C438 402 402 416 365 416S293 402 265 375C210 319 210 230 265 175L280 160C298 162 316 169 329 183C333 186 335 189 338 193L311 220C296 235 288 254 288 275S296 315 311 329C325 344 345 352 365 352C386 352 405 344 420 329L553 196C568 181 576 162 576 141S568 101 553 87C539 72 519 64 499 64C478 64 459 72 444 87L383 147C381 144 378 141 375 137C362 125 347 115 332 108L399 41C426 14 462 0 499 0C535 0 571 14 599 41C654 97 654 186 599 241Z" class="fa-secondary"/><path d="M62 271L195 137C223 110 259 96 295 96S367 110 395 137C450 193 450 282 395 337L381 352C362 350 344 343 331 329C328 326 325 323 323 319L350 292C364 277 372 258 372 237S364 197 350 183C335 168 316 160 295 160S255 168 240 183L107 316C92 331 84 350 84 371S92 411 107 425C122 440 141 448 162 448C182 448 202 440 216 425L277 365C280 368 283 371 286 375C298 387 313 397 329 404L262 471C234 498 198 512 162 512C126 512 89 498 62 471C7 415 7 326 62 271Z" class="fa-primary"/></svg>