<svg xmlns="http://www.w3.org/2000/svg" viewBox="0 0 640 512"><!-- Font Awesome Pro 6.0.0-alpha1 by @fontawesome - https://fontawesome.com License - https://fontawesome.com/license (Commercial License) --><defs><style>.fa-secondary{opacity:.4}</style></defs><path d="M263 181L320 226C325 225 331 224 336 224H349C351 219 352 214 352 208C352 186 337 168 317 162C297 165 279 171 263 181ZM161 288H144C100 288 64 252 64 208C64 190 70 173 81 160L30 120C12 145 0 175 0 208C0 288 64 352 144 352H167C162 337 160 321 160 304C160 299 160 293 161 288ZM304 128C348 128 384 164 384 208C384 228 377 246 364 260L414 299C435 275 448 243 448 208C448 128 384 64 304 64H144C135 64 126 65 118 67L196 128H304ZM336 384C292 384 256 348 256 304C256 302 256 300 257 298L201 254C195 270 192 286 192 304C192 384 256 448 336 448H448L367 384H336ZM496 160H473C478 175 480 191 480 208C480 213 480 219 479 224H496C540 224 576 260 576 304C576 340 551 371 518 381L574 424C614 399 640 355 640 304C640 224 576 160 496 160Z" class="fa-secondary"/><path d="M24 0C29 0 34 2 39 5L631 469C641 477 643 492 635 503C627 513 612 515 601 507L9 43C-1 35 -3 20 5 9C10 3 17 0 24 0Z" class="fa-primary"/></svg>