<svg xmlns="http://www.w3.org/2000/svg" viewBox="0 0 512 512"><!-- Font Awesome Pro 6.0.0-alpha1 by @fontawesome - https://fontawesome.com License - https://fontawesome.com/license (Commercial License) --><defs><style>.fa-secondary{opacity:.4}</style></defs><path d="M128 280H384C397 280 408 269 408 256C408 243 397 232 384 232H128C115 232 104 243 104 256C104 269 115 280 128 280ZM384 328H128C115 328 104 339 104 352C104 365 115 376 128 376H384C397 376 408 365 408 352C408 339 397 328 384 328Z" class="fa-secondary"/><path d="M448 32H64C29 32 0 61 0 96V416C0 451 29 480 64 480H448C483 480 512 451 512 416V96C512 61 483 32 448 32ZM360 96H440C447 96 451 105 446 110L406 150C403 153 398 153 394 150L354 110C350 105 352 96 360 96ZM448 416H64V192H448V416Z" class="fa-primary"/></svg>