<svg xmlns="http://www.w3.org/2000/svg" viewBox="0 0 512 512"><!-- Font Awesome Pro 6.0.0-alpha1 by @fontawesome - https://fontawesome.com License - https://fontawesome.com/license (Commercial License) --><defs><style>.fa-secondary{opacity:.4}</style></defs><path d="M496 64H176C167 64 160 71 160 80V112C160 121 167 128 176 128H496C505 128 512 121 512 112V80C512 71 505 64 496 64ZM496 224H176C167 224 160 231 160 240V272C160 281 167 288 176 288H496C505 288 512 281 512 272V240C512 231 505 224 496 224ZM496 384H176C167 384 160 391 160 400V432C160 441 167 448 176 448H496C505 448 512 441 512 432V400C512 391 505 384 496 384Z" class="fa-secondary"/><path d="M64 160C77 160 90 156 100 149C107 144 112 139 117 132C124 122 128 109 128 96S124 70 117 60C112 53 107 48 100 43C90 36 77 32 64 32C29 32 0 61 0 96S29 160 64 160ZM64 192C29 192 0 221 0 256S29 320 64 320C99 320 128 291 128 256S99 192 64 192ZM64 280C51 280 40 269 40 256C40 243 51 232 64 232C77 232 88 243 88 256C88 269 77 280 64 280ZM64 352C29 352 0 381 0 416S29 480 64 480C99 480 128 451 128 416S99 352 64 352ZM64 440C51 440 40 429 40 416C40 403 51 392 64 392C77 392 88 403 88 416C88 429 77 440 64 440Z" class="fa-primary"/></svg>