<svg xmlns="http://www.w3.org/2000/svg" viewBox="0 0 512 512"><!-- Font Awesome Pro 6.0.0-alpha1 by @fontawesome - https://fontawesome.com License - https://fontawesome.com/license (Commercial License) --><defs><style>.fa-secondary{opacity:.4}</style></defs><path d="M16 256H272C281 256 288 249 288 240V208C288 199 281 192 272 192H16C7 192 0 199 0 208V240C0 249 7 256 16 256ZM16 128H272C281 128 288 121 288 112V80C288 71 281 64 272 64H16C7 64 0 71 0 80V112C0 121 7 128 16 128ZM144 320H16C7 320 0 327 0 336V368C0 377 7 384 16 384H144C153 384 160 377 160 368V336C160 327 153 320 144 320Z" class="fa-secondary"/><path d="M471 1L374 30C361 34 352 46 352 60V360C337 355 320 352 304 352C242 352 192 388 192 432S242 512 304 512S416 476 416 432V148L489 127C503 123 512 110 512 96V32C512 22 507 12 499 6C491 0 481 -2 471 1Z" class="fa-primary"/></svg>