<svg xmlns="http://www.w3.org/2000/svg" viewBox="0 0 384 512"><!-- Font Awesome Pro 6.0.0-alpha1 by @fontawesome - https://fontawesome.com License - https://fontawesome.com/license (Commercial License) --><defs><style>.fa-secondary{opacity:.4}</style></defs><path d="M192 0C86 0 0 86 0 192C0 269 26 291 173 502C182 515 202 515 211 502C358 291 384 269 384 192C384 86 298 0 192 0ZM256 133C271 133 283 145 283 160C283 175 271 187 256 187S229 175 229 160C229 145 241 133 256 133ZM128 133C143 133 155 145 155 160C155 175 143 187 128 187S101 175 101 160C101 145 113 133 128 133ZM292 274C267 303 231 320 192 320S117 303 92 274C86 267 87 257 94 252C100 246 110 247 116 253C135 275 163 288 192 288C221 288 249 275 268 253C274 247 284 246 290 251C297 257 298 267 292 274Z" class="fa-secondary"/><path d="M256 133C271 133 283 145 283 160C283 175 271 187 256 187S229 175 229 160C229 145 241 133 256 133ZM128 133C143 133 155 145 155 160C155 175 143 187 128 187S101 175 101 160C101 145 113 133 128 133ZM292 274C267 303 231 320 192 320S117 303 92 274C86 267 87 257 94 252C100 246 110 247 116 253C135 275 163 288 192 288C221 288 249 275 268 253C274 247 284 246 290 251C297 257 298 267 292 274Z" class="fa-primary"/></svg>