<svg xmlns="http://www.w3.org/2000/svg" viewBox="0 0 640 512"><!-- Font Awesome Pro 6.0.0-alpha1 by @fontawesome - https://fontawesome.com License - https://fontawesome.com/license (Commercial License) --><defs><style>.fa-secondary{opacity:.4}</style></defs><path d="M300 502C310 515 330 515 340 502C364 467 384 438 402 412L128 197C129 270 158 296 300 502ZM320 0C249 0 187 39 154 96L457 333C501 268 512 241 512 192C512 86 426 0 320 0Z" class="fa-secondary"/><path d="M635 503C627 513 612 515 601 507L9 43C-1 35 -3 20 5 9C10 3 17 0 24 0C29 0 34 2 39 5L631 469C641 477 643 492 635 503Z" class="fa-primary"/></svg>