<svg xmlns="http://www.w3.org/2000/svg" viewBox="0 0 384 512"><!-- Font Awesome Pro 6.0.0-alpha1 by @fontawesome - https://fontawesome.com License - https://fontawesome.com/license (Commercial License) --><defs><style>.fa-secondary{opacity:.4}</style></defs><path d="M192 0C86 0 0 86 0 192C0 269 26 291 173 502C182 515 202 515 211 502C358 291 384 269 384 192C384 86 298 0 192 0ZM192 352C174 352 160 338 160 320C160 302 174 288 192 288S224 302 224 320C224 338 210 352 192 352ZM219 239V240C219 249 212 256 203 256H186C178 256 171 249 171 240V224C171 215 176 207 184 202C215 187 235 176 235 160C235 141 221 120 195 120C177 120 162 132 157 148C154 155 148 160 141 160H124C114 160 107 150 109 141C118 101 153 72 195 72C250 72 283 117 283 160C283 201 250 222 219 239Z" class="fa-secondary"/><path d="M192 288C174 288 160 302 160 320S174 352 192 352S224 338 224 320S209 288 192 288ZM194 72C152 72 117 101 108 141C106 150 114 160 124 160H141C148 160 154 155 156 148C161 132 176 120 194 120C220 120 234 141 234 160C234 176 214 187 184 202C175 207 170 215 170 224V240C170 249 177 256 186 256H202C211 256 218 249 218 240V239C249 222 282 201 282 160C282 117 249 72 194 72Z" class="fa-primary"/></svg>