<svg xmlns="http://www.w3.org/2000/svg" viewBox="0 0 512 512"><!-- Font Awesome Pro 6.0.0-alpha1 by @fontawesome - https://fontawesome.com License - https://fontawesome.com/license (Commercial License) --><defs><style>.fa-secondary{opacity:.4}</style></defs><path d="M256 168C207 168 168 207 168 256S207 344 256 344S344 305 344 256S305 168 256 168Z" class="fa-secondary"/><path d="M496 224H445C432 144 368 80 288 67V16C288 7 281 0 272 0H240C231 0 224 7 224 16V67C144 80 80 144 67 224H16C7 224 0 231 0 240V272C0 281 7 288 16 288H67C80 368 144 432 224 445V496C224 505 231 512 240 512H272C281 512 288 505 288 496V445C368 432 432 368 445 288H496C505 288 512 281 512 272V240C512 231 505 224 496 224ZM256 384C185 384 128 327 128 256S185 128 256 128S384 185 384 256S327 384 256 384Z" class="fa-primary"/></svg>