<svg xmlns="http://www.w3.org/2000/svg" viewBox="0 0 576 512"><!-- Font Awesome Pro 6.0.0-alpha1 by @fontawesome - https://fontawesome.com License - https://fontawesome.com/license (Commercial License) --><defs><style>.fa-secondary{opacity:.4}</style></defs><path d="M576 150V208C576 217 569 224 560 224H528C519 224 512 217 512 208V149C512 107 482 69 440 64C393 60 352 97 352 144V224H288V144C288 60 361 -8 446 1C521 8 576 75 576 150Z" class="fa-secondary"/><path d="M64 224C29 224 0 253 0 288V448C0 483 29 512 64 512H384C419 512 448 483 448 448V288C448 253 419 224 384 224H64ZM256 384C256 402 242 416 224 416S192 402 192 384V352C192 334 206 320 224 320S256 334 256 352V384Z" class="fa-primary"/></svg>