<svg xmlns="http://www.w3.org/2000/svg" viewBox="0 0 512 512"><!-- Font Awesome Pro 6.0.0-alpha1 by @fontawesome - https://fontawesome.com License - https://fontawesome.com/license (Commercial License) --><defs><style>.fa-secondary{opacity:.4}</style></defs><path d="M416 144V224H352V144C352 100 316 64 272 64S192 100 192 144V224H128V144C128 65 193 0 272 0S416 65 416 144Z" class="fa-secondary"/><path d="M16 288V448C16 483 45 512 80 512H400C435 512 464 483 464 448V288C464 253 435 224 400 224H80C45 224 16 253 16 288ZM208 352C208 334 222 320 240 320S272 334 272 352V384C272 402 258 416 240 416S208 402 208 384V352Z" class="fa-primary"/></svg>