<svg xmlns="http://www.w3.org/2000/svg" viewBox="0 0 448 512"><!-- Font Awesome Pro 6.0.0-alpha1 by @fontawesome - https://fontawesome.com License - https://fontawesome.com/license (Commercial License) --><defs><style>.fa-secondary{opacity:.4}</style></defs><path d="M372 160H304C267 160 236 187 227 224H221C212 187 181 160 144 160H76C69 160 64 165 64 172V203C64 250 100 288 144 288H166C159 300 154 311 151 321C120 326 96 352 96 384C96 419 125 448 161 448H287C322 448 352 419 352 384C352 352 328 326 297 321C294 311 289 300 282 288H304C348 288 384 250 384 203V172C384 165 379 160 372 160ZM224 267C244 287 256 305 263 320H185C192 305 204 287 224 267ZM144 256C118 256 96 232 96 203V192H144C170 192 192 216 192 245V256H144ZM288 352C306 352 320 366 320 384S306 416 288 416H160C142 416 128 402 128 384S142 352 160 352H288ZM352 203C352 232 330 256 304 256H256C256 256 256 256 256 256V245C256 216 278 192 304 192H352V203Z" class="fa-secondary"/><path d="M224 0C100 0 0 100 0 224V320C0 426 86 512 192 512H256C362 512 448 426 448 320V224C448 100 348 0 224 0ZM384 203C384 250 348 288 304 288H282C289 300 294 311 297 321C328 326 352 352 352 384C352 419 322 448 287 448H161C125 448 96 419 96 384C96 352 120 326 151 321C154 311 159 300 166 288H144C100 288 64 250 64 203V172C64 165 69 160 76 160H144C181 160 212 187 221 224H227C236 187 267 160 304 160H372C379 160 384 165 384 172V203Z" class="fa-primary"/></svg>