<svg xmlns="http://www.w3.org/2000/svg" viewBox="0 0 512 512"><!-- Font Awesome Pro 6.0.0-alpha1 by @fontawesome - https://fontawesome.com License - https://fontawesome.com/license (Commercial License) --><defs><style>.fa-secondary{opacity:.4}</style></defs><path d="M216 341L55 503C42 515 22 515 9 503C-3 490 -3 470 9 457L171 295C182 314 198 329 216 341Z" class="fa-secondary"/><path d="M500 209L419 184C406 139 370 104 325 91L298 11C296 4 292 1 288 0C284 1 280 4 278 11L251 91C206 104 170 139 157 184L76 209C60 214 60 228 76 233L156 261C168 306 203 341 248 355L274 436C277 445 283 448 288 447C293 448 299 445 302 436L328 355C373 341 408 306 420 261L500 233C516 228 516 214 500 209ZM288 256C270 256 256 241 256 223S270 191 288 191S320 206 320 223S306 256 288 256Z" class="fa-primary"/></svg>