<svg xmlns="http://www.w3.org/2000/svg" viewBox="0 0 448 512"><!-- Font Awesome Pro 6.0.0-alpha1 by @fontawesome - https://fontawesome.com License - https://fontawesome.com/license (Commercial License) --><defs><style>.fa-secondary{opacity:.4}</style></defs><path d="M96 32H32C14 32 0 46 0 64V128H128V64C128 46 114 32 96 32ZM416 32H352C334 32 320 46 320 64V128H448V64C448 46 434 32 416 32Z" class="fa-secondary"/><path d="M448 128V256C448 389 331 496 195 478C82 464 0 362 0 248V128H128V252C128 299 159 341 205 350C266 362 320 315 320 256V128H448Z" class="fa-primary"/></svg>