<svg xmlns="http://www.w3.org/2000/svg" viewBox="0 0 512 512"><!-- Font Awesome Pro 6.0.0-alpha1 by @fontawesome - https://fontawesome.com License - https://fontawesome.com/license (Commercial License) --><defs><style>.fa-secondary{opacity:.4}</style></defs><path d="M208 0C93 0 0 93 0 208S93 416 208 416S416 323 416 208S323 0 208 0ZM304 208C304 221 293 232 280 232H136C123 232 112 221 112 208V208C112 195 123 184 136 184H280C293 184 304 195 304 208L304 208Z" class="fa-secondary"/><path d="M505 482L482 505C473 514 458 514 448 505L324 381C346 366 366 346 381 324L505 448C514 458 514 473 505 482ZM304 208C304 195 293 184 280 184H136C123 184 112 195 112 208V208C112 221 123 232 136 232H280C293 232 304 221 304 208L304 208Z" class="fa-primary"/></svg>