<svg xmlns="http://www.w3.org/2000/svg" viewBox="0 0 512 512"><!-- Font Awesome Pro 6.0.0-alpha1 by @fontawesome - https://fontawesome.com License - https://fontawesome.com/license (Commercial License) --><defs><style>.fa-secondary{opacity:.4}</style></defs><path d="M208 0C93 0 0 93 0 208S93 416 208 416S416 323 416 208S323 0 208 0ZM304 208C304 221 293 232 280 232H232V280C232 293 221 304 208 304H208C195 304 184 293 184 280V232H136C123 232 112 221 112 208V208C112 195 123 184 136 184H184V136C184 123 195 112 208 112H208C221 112 232 123 232 136V184H280C293 184 304 195 304 208L304 208Z" class="fa-secondary"/><path d="M304 208C304 221 293 232 280 232H232V280C232 293 221 304 208 304H208C195 304 184 293 184 280V232H136C123 232 112 221 112 208V208C112 195 123 184 136 184H184V136C184 123 195 112 208 112H208C221 112 232 123 232 136V184H280C293 184 304 195 304 208L304 208ZM505 448L381 324C366 346 346 366 324 381L448 505C458 514 473 514 482 505L505 482C514 473 514 458 505 448Z" class="fa-primary"/></svg>