<svg xmlns="http://www.w3.org/2000/svg" viewBox="0 0 576 512"><!-- Font Awesome Pro 6.0.0-alpha1 by @fontawesome - https://fontawesome.com License - https://fontawesome.com/license (Commercial License) --><defs><style>.fa-secondary{opacity:.4}</style></defs><path d="M432 64H144C144 64 145 65 145 65C224 65 288 129 288 208V416C288 434 274 448 256 448H544C562 448 576 434 576 416V208C576 129 511 64 432 64ZM512 272C512 281 505 288 496 288H464C455 288 448 281 448 272V224H400C391 224 384 217 384 208C384 199 391 192 400 192H496C505 192 512 199 512 208V272Z" class="fa-secondary"/><path d="M496 192H400C391 192 384 199 384 208C384 217 391 224 400 224H448V272C448 281 455 288 464 288H496C505 288 512 281 512 272V208C512 199 505 192 496 192ZM130 65C55 72 0 139 0 214V416C0 434 14 448 32 448H256C274 448 288 434 288 416V208C288 124 216 56 130 65ZM208 224H80C71 224 64 217 64 208C64 199 71 192 80 192H208C217 192 224 199 224 208C224 217 217 224 208 224Z" class="fa-primary"/></svg>