<svg xmlns="http://www.w3.org/2000/svg" viewBox="0 0 576 512"><!-- Font Awesome Pro 6.0.0-alpha1 by @fontawesome - https://fontawesome.com License - https://fontawesome.com/license (Commercial License) --><defs><style>.fa-secondary{opacity:.4}</style></defs><path d="M576 176V430C576 436 572 442 566 444L384 512L192 448L22 511C11 515 0 507 0 496V242C0 236 4 230 10 228L148 178C158 201 176 227 208 272C219 289 233 308 249 332C258 344 273 352 288 352S318 344 327 332C343 308 357 289 368 272C385 249 397 231 407 215L554 161C565 157 576 165 576 176Z" class="fa-secondary"/><path d="M408 120C408 168 391 182 300 314C294 322 282 322 276 314C185 182 168 168 168 120C168 54 222 0 288 0C354 0 408 54 408 120Z" class="fa-primary"/></svg>