<svg xmlns="http://www.w3.org/2000/svg" viewBox="0 0 512 512"><!-- Font Awesome Pro 6.0.0-alpha1 by @fontawesome - https://fontawesome.com License - https://fontawesome.com/license (Commercial License) --><defs><style>.fa-secondary{opacity:.4}</style></defs><path d="M94 290C41 343 8 411 0 485V485C-1 501 11 514 27 512C100 504 169 471 222 418L320 320L192 192L94 290Z" class="fa-secondary"/><path d="M486 143L320 308L192 180L302 70L271 40L173 138C166 144 156 144 150 138L139 127C132 121 132 110 139 104L243 0C258 -16 284 -16 299 0L336 37L358 15C393 -21 450 -21 486 15C521 50 521 107 486 143Z" class="fa-primary"/></svg>