<svg xmlns="http://www.w3.org/2000/svg" viewBox="0 0 640 512"><!-- Font Awesome Pro 6.0.0-alpha1 by @fontawesome - https://fontawesome.com License - https://fontawesome.com/license (Commercial License) --><defs><style>.fa-secondary{opacity:.4}</style></defs><path d="M272 256C272 291 243 320 208 320S144 291 144 256S173 192 208 192S272 221 272 256Z" class="fa-secondary"/><path d="M603 245L521 167C506 152 480 163 480 184V224L448 224V176C448 167 441 160 432 160H400C391 160 384 167 384 176V224H365C350 142 278 80 192 80C95 80 16 159 16 256C16 353 95 432 192 432C278 432 350 370 365 288H384V336C384 345 391 352 400 352H432C441 352 448 345 448 336V288L480 288V328C480 349 506 360 521 345L603 267C610 261 610 251 603 245ZM192 352C139 352 96 309 96 256C96 203 139 160 192 160C245 160 288 203 288 256C288 309 245 352 192 352Z" class="fa-primary"/></svg>