<svg xmlns="http://www.w3.org/2000/svg" viewBox="0 0 640 512"><!-- Font Awesome Pro 6.0.0-alpha1 by @fontawesome - https://fontawesome.com License - https://fontawesome.com/license (Commercial License) --><defs><style>.fa-secondary{opacity:.4}</style></defs><path d="M233 282L239 247C229 244 219 243 208 245C171 252 146 284 149 319C163 302 186 289 215 284C221 283 227 282 233 282ZM379 60C374 32 352 10 325 6C301 2 277 0 253 0C177 0 101 19 33 57C9 70 -4 98 1 127L33 306C47 386 169 448 237 448C243 448 248 448 253 447C261 445 270 442 280 437C266 421 253 402 244 383C243 383 242 384 241 384C241 384 240 384 237 384C189 384 103 335 96 295L64 116C64 114 64 113 64 113C122 81 187 64 253 64C274 64 295 66 315 69C315 69 315 69 315 70C337 66 358 65 380 64L379 60ZM193 158C193 154 191 150 189 146C181 155 169 162 154 165C139 167 125 165 115 159C114 163 114 167 115 172C118 193 139 208 161 204C183 200 197 179 193 158Z" class="fa-secondary"/><path d="M607 121C518 72 416 54 315 70C288 74 266 96 261 124L229 303C214 391 325 500 388 511C451 522 592 457 608 370L639 190C644 162 631 134 607 121ZM334 218C338 196 359 182 380 186C402 189 417 210 413 232C412 236 411 239 409 243C400 234 388 227 373 225C359 222 345 224 334 230C333 226 333 222 334 218ZM404 417C349 407 311 357 315 304C336 329 372 350 415 357C458 365 499 358 527 341C513 393 460 426 404 417ZM535 265C527 256 514 249 499 247C485 244 471 246 460 252C459 248 459 244 460 240C464 218 485 204 506 208C528 211 543 232 539 254C538 258 537 262 535 265Z" class="fa-primary"/></svg>