<svg xmlns="http://www.w3.org/2000/svg" viewBox="0 0 576 512"><!-- Font Awesome Pro 6.0.0-alpha1 by @fontawesome - https://fontawesome.com License - https://fontawesome.com/license (Commercial License) --><defs><style>.fa-secondary{opacity:.4}</style></defs><path d="M576 147V112C576 86 554 64 528 64H48C22 64 0 86 0 112V147C19 154 32 171 32 192S19 230 0 237V320H576V237C557 230 544 213 544 192S557 154 576 147ZM192 240C192 249 185 256 176 256H144C135 256 128 249 128 240V144C128 135 135 128 144 128H176C185 128 192 135 192 144V240ZM320 240C320 249 313 256 304 256H272C263 256 256 249 256 240V144C256 135 263 128 272 128H304C313 128 320 135 320 144V240ZM448 240C448 249 441 256 432 256H400C391 256 384 249 384 240V144C384 135 391 128 400 128H432C441 128 448 135 448 144V240Z" class="fa-secondary"/><path d="M400 256H432C441 256 448 249 448 240V144C448 135 441 128 432 128H400C391 128 384 135 384 144V240C384 249 391 256 400 256ZM272 256H304C313 256 320 249 320 240V144C320 135 313 128 304 128H272C263 128 256 135 256 144V240C256 249 263 256 272 256ZM144 256H176C185 256 192 249 192 240V144C192 135 185 128 176 128H144C135 128 128 135 128 144V240C128 249 135 256 144 256ZM0 320V448H80V416C80 407 87 400 96 400C105 400 112 407 112 416V448H208V416C208 407 215 400 224 400C233 400 240 407 240 416V448H336V416C336 407 343 400 352 400C361 400 368 407 368 416V448H464V416C464 407 471 400 480 400C489 400 496 407 496 416V448H576V320H0Z" class="fa-primary"/></svg>