<svg xmlns="http://www.w3.org/2000/svg" viewBox="0 0 512 512"><!-- Font Awesome Pro 6.0.0-alpha1 by @fontawesome - https://fontawesome.com License - https://fontawesome.com/license (Commercial License) --><defs><style>.fa-secondary{opacity:.4}</style></defs><path d="M448 0H64C29 0 0 29 0 64V352C0 387 29 416 64 416H160V500C160 510 171 515 179 510L304 416H448C483 416 512 387 512 352V64C512 29 483 0 448 0ZM240 224C240 268 204 304 160 304H156C149 304 144 299 144 292V268C144 261 149 256 156 256H160C178 256 192 242 192 224V208H152C139 208 128 197 128 184V136C128 123 139 112 152 112H216C229 112 240 123 240 136V224ZM384 224C384 268 348 304 304 304H300C293 304 288 299 288 292V268C288 261 293 256 300 256H304C322 256 336 242 336 224V208H296C283 208 272 197 272 184V136C272 123 283 112 296 112H360C373 112 384 123 384 136V224Z" class="fa-secondary"/><path d="M216 112H152C139 112 128 123 128 136V184C128 197 139 208 152 208H192V224C192 242 178 256 160 256H156C149 256 144 261 144 268V292C144 299 149 304 156 304H160C204 304 240 268 240 224V136C240 123 229 112 216 112ZM360 112H296C283 112 272 123 272 136V184C272 197 283 208 296 208H336V224C336 242 322 256 304 256H300C293 256 288 261 288 268V292C288 299 293 304 300 304H304C348 304 384 268 384 224V136C384 123 373 112 360 112Z" class="fa-primary"/></svg>