<svg xmlns="http://www.w3.org/2000/svg" viewBox="0 0 512 512"><!-- Font Awesome Pro 6.0.0-alpha1 by @fontawesome - https://fontawesome.com License - https://fontawesome.com/license (Commercial License) --><defs><style>.fa-secondary{opacity:.4}</style></defs><path d="M448 0H64C29 0 0 29 0 64V352C0 387 29 416 64 416H160V500C160 510 171 515 179 510L304 416H448C483 416 512 387 512 352V64C512 29 483 0 448 0ZM324 242C333 251 333 267 324 276S299 285 290 276L256 242L222 276C213 285 197 285 188 276S179 251 188 242L222 208L188 174C179 165 179 149 188 140S213 131 222 140L256 174L290 140C299 131 315 131 324 140S333 165 324 174L290 208L324 242Z" class="fa-secondary"/><path d="M324 242C333 251 333 267 324 276S299 285 290 276L256 242L222 276C213 285 197 285 188 276S179 251 188 242L222 208L188 174C179 165 179 149 188 140S213 131 222 140L256 174L290 140C299 131 314 131 324 140S333 165 324 174L290 208L324 242Z" class="fa-primary"/></svg>