<svg xmlns="http://www.w3.org/2000/svg" viewBox="0 0 512 512"><!-- Font Awesome Pro 6.0.0-alpha1 by @fontawesome - https://fontawesome.com License - https://fontawesome.com/license (Commercial License) --><defs><style>.fa-secondary{opacity:.4}</style></defs><path d="M448 0H64C29 0 0 29 0 64V352C0 387 29 416 64 416H160V500C160 510 171 515 179 510L304 416H448C483 416 512 387 512 352V64C512 29 483 0 448 0ZM128 240C110 240 96 226 96 208S110 176 128 176S160 190 160 208S146 240 128 240ZM256 240C238 240 224 226 224 208S238 176 256 176C274 176 288 190 288 208S274 240 256 240ZM384 240C366 240 352 226 352 208S366 176 384 176S416 190 416 208S402 240 384 240Z" class="fa-secondary"/><path d="M128 240C110 240 96 226 96 208S110 176 128 176S160 190 160 208S146 240 128 240ZM256 240C238 240 224 226 224 208S238 176 256 176C274 176 288 190 288 208S274 240 256 240ZM384 240C366 240 352 226 352 208S366 176 384 176S416 190 416 208S402 240 384 240Z" class="fa-primary"/></svg>