<svg xmlns="http://www.w3.org/2000/svg" viewBox="0 0 512 512"><!-- Font Awesome Pro 6.0.0-alpha1 by @fontawesome - https://fontawesome.com License - https://fontawesome.com/license (Commercial License) --><defs><style>.fa-secondary{opacity:.4}</style></defs><path d="M448 0H64C29 0 0 29 0 64V352C0 387 29 416 64 416H160V500C160 505 162 509 167 511C171 513 175 512 179 510L304 416H448C483 416 512 387 512 352V64C512 29 483 0 448 0ZM352 256C352 274 330 288 304 288S256 274 256 256S278 224 304 224C309 224 315 225 320 226V150L224 187V288C224 306 202 320 176 320S128 306 128 288C128 270 150 256 176 256C181 256 187 257 192 258V143C192 136 197 130 203 128L331 81C336 79 341 80 346 83C350 86 352 91 352 96V256Z" class="fa-secondary"/><path d="M352 256C352 274 330 288 304 288S256 274 256 256S278 224 304 224C309 224 315 225 320 226V150L224 187V288C224 306 202 320 176 320S128 306 128 288C128 270 150 256 176 256C181 256 187 257 192 258V143C192 136 197 130 203 128L331 81C336 79 341 80 346 83C350 86 352 91 352 96V256Z" class="fa-primary"/></svg>