<svg xmlns="http://www.w3.org/2000/svg" viewBox="0 0 512 512"><!-- Font Awesome Pro 6.0.0-alpha1 by @fontawesome - https://fontawesome.com License - https://fontawesome.com/license (Commercial License) --><defs><style>.fa-secondary{opacity:.4}</style></defs><path d="M448 0H64C29 0 0 29 0 64V352C0 387 29 416 64 416H160V500C160 510 171 515 179 510L304 416H448C483 416 512 387 512 352V64C512 29 483 0 448 0ZM328 232H184C171 232 160 221 160 208S171 184 184 184H328C341 184 352 195 352 208S341 232 328 232Z" class="fa-secondary"/><path d="M352 208C352 221 341 232 328 232H184C171 232 160 221 160 208S171 184 184 184H328C341 184 352 195 352 208Z" class="fa-primary"/></svg>