<svg xmlns="http://www.w3.org/2000/svg" viewBox="0 0 512 512"><!-- Font Awesome Pro 6.0.0-alpha1 by @fontawesome - https://fontawesome.com License - https://fontawesome.com/license (Commercial License) --><defs><style>.fa-secondary{opacity:.4}</style></defs><path d="M448 0H64C29 0 0 29 0 64V352C0 387 29 416 64 416H160V500C160 510 171 515 179 510L304 416H448C483 416 512 387 512 352V64C512 29 483 0 448 0ZM348 168L252 280C247 285 241 288 234 288C234 288 234 288 234 288C227 288 221 285 217 281L169 233C159 224 159 208 169 199S193 190 202 199L232 229L311 136C320 126 335 125 345 134C355 142 356 158 348 168Z" class="fa-secondary"/><path d="M348 168L252 280C248 285 242 288 235 288C235 288 234 288 234 288C228 288 222 285 217 281L169 233C160 224 160 208 169 199S194 190 203 199L233 229L312 136C320 126 336 125 346 134C356 142 357 158 348 168Z" class="fa-primary"/></svg>