<svg xmlns="http://www.w3.org/2000/svg" viewBox="0 0 512 512"><!-- Font Awesome Pro 6.0.0-alpha1 by @fontawesome - https://fontawesome.com License - https://fontawesome.com/license (Commercial License) --><defs><style>.fa-secondary{opacity:.4}</style></defs><path d="M448 0H64C29 0 0 29 0 64V352C0 387 29 416 64 416H160V500C160 510 171 515 179 510L304 416H448C483 416 512 387 512 352V64C512 29 483 0 448 0ZM256 340C236 340 220 324 220 304S236 268 256 268S292 284 292 304S276 340 256 340ZM281 226C281 234 274 240 266 240H246C238 240 231 234 231 226L218 98C217 88 224 80 234 80H278C288 80 295 88 294 98L281 226Z" class="fa-secondary"/><path d="M256 340C236 340 220 324 220 304S236 268 256 268S292 284 292 304S276 340 256 340ZM282 226C281 234 274 240 266 240H247C239 240 232 234 231 226L218 98C217 88 225 80 234 80H279C288 80 296 88 295 98L282 226Z" class="fa-primary"/></svg>