<svg xmlns="http://www.w3.org/2000/svg" viewBox="0 0 512 512"><!-- Font Awesome Pro 6.0.0-alpha1 by @fontawesome - https://fontawesome.com License - https://fontawesome.com/license (Commercial License) --><defs><style>.fa-secondary{opacity:.4}</style></defs><path d="M448 0H64C29 0 0 29 0 64V352C0 387 29 416 64 416H160V500C160 510 171 515 179 510L304 416H448C483 416 512 387 512 352V64C512 29 483 0 448 0ZM320 133C335 133 347 145 347 160S335 187 320 187S293 175 293 160S305 133 320 133ZM192 133C207 133 219 145 219 160S207 187 192 187C177 187 165 175 165 160S177 133 192 133ZM356 274C331 303 295 320 256 320S181 303 156 274C150 267 151 257 158 252C164 246 174 247 180 253C199 275 227 288 256 288C285 288 313 275 332 253C338 247 348 246 354 251C361 257 362 267 356 274Z" class="fa-secondary"/><path d="M320 133C335 133 347 145 347 160S335 187 320 187S293 175 293 160S305 133 320 133ZM192 133C207 133 219 145 219 160S207 187 192 187C177 187 165 175 165 160S177 133 192 133ZM356 274C331 303 295 320 256 320S181 303 156 274C150 267 151 257 158 252C164 246 174 247 180 253C199 275 227 288 256 288C285 288 313 275 332 253C338 247 348 246 354 251C361 257 362 267 356 274Z" class="fa-primary"/></svg>