<svg xmlns="http://www.w3.org/2000/svg" viewBox="0 0 512 512"><!-- Font Awesome Pro 6.0.0-alpha1 by @fontawesome - https://fontawesome.com License - https://fontawesome.com/license (Commercial License) --><defs><style>.fa-secondary{opacity:.4}</style></defs><path d="M507 5C503 0 497 -1 491 1C452 12 379 35 303 62C301 55 299 48 298 43C296 39 293 35 289 33C284 31 279 32 275 34C232 56 122 116 61 176C59 177 58 178 57 179C-19 255 -19 379 57 455C133 531 257 531 333 455C334 454 335 453 336 451C395 390 456 279 478 237C480 233 481 228 479 223C477 219 473 215 469 214C463 212 457 211 450 208C477 132 500 59 511 21C513 15 511 9 507 5ZM192 448C121 448 64 391 64 320C64 249 121 192 192 192C263 192 320 249 320 320C320 391 263 448 192 448Z" class="fa-secondary"/><path d="M192 192C121 192 64 249 64 320C64 391 121 448 192 448C263 448 320 391 320 320C320 249 263 192 192 192ZM160 320C142 320 128 306 128 288C128 270 142 256 160 256C169 256 177 259 183 265S192 279 192 288C192 306 178 320 160 320ZM208 384C199 384 192 377 192 368S199 352 208 352C217 352 224 359 224 368S217 384 208 384Z" class="fa-primary"/></svg>