<svg xmlns="http://www.w3.org/2000/svg" viewBox="0 0 640 512"><!-- Font Awesome Pro 6.0.0-alpha1 by @fontawesome - https://fontawesome.com License - https://fontawesome.com/license (Commercial License) --><defs><style>.fa-secondary{opacity:.4}</style></defs><path d="M384 464H344V430C365 427 384 421 402 411L358 378C344 382 328 385 312 384C246 380 192 317 192 251V247L144 210V248C144 338 208 418 296 430V464H256C238 464 224 478 224 496C224 505 231 512 240 512H400C409 512 416 505 416 496C416 478 402 464 384 464ZM408 294C413 282 416 270 416 256H359L408 294ZM480 192H464C455 192 448 199 448 208V256C448 277 442 297 433 314L471 344C487 318 496 288 496 256V208C496 199 489 192 480 192ZM336 96H416C416 43 373 0 320 0S224 43 224 96V150L324 229C327 226 331 224 336 224H416V192H336C327 192 320 185 320 176S327 160 336 160H416V128H336C327 128 320 121 320 112S327 96 336 96Z" class="fa-secondary"/><path d="M631 469L39 5C34 2 29 0 24 0C17 0 10 3 5 9C-3 20 -1 35 9 43L601 507C612 515 627 513 635 503C643 492 641 477 631 469Z" class="fa-primary"/></svg>