<svg xmlns="http://www.w3.org/2000/svg" viewBox="0 0 384 512"><!-- Font Awesome Pro 6.0.0-alpha1 by @fontawesome - https://fontawesome.com License - https://fontawesome.com/license (Commercial License) --><defs><style>.fa-secondary{opacity:.4}</style></defs><path d="M152 275L80 491C76 501 84 512 95 512H129C136 512 142 508 144 501L163 444C156 439 152 432 152 424V275ZM289 0H255C248 0 242 4 240 11L205 115C226 101 251 94 279 97L304 21C307 11 300 0 289 0Z" class="fa-secondary"/><path d="M293 99C254 90 218 102 192 125C166 102 130 90 91 99C85 100 79 102 74 104C69 99 63 96 56 96H24C11 96 0 107 0 120V424C0 437 11 448 24 448H56C69 448 80 437 80 424V212C80 192 96 176 116 176S152 192 152 212V424C152 437 163 448 176 448H208C221 448 232 437 232 424V212C232 192 248 176 268 176S304 192 304 212V424C304 437 315 448 328 448H360C373 448 384 437 384 424V216C384 161 347 110 293 99Z" class="fa-primary"/></svg>