<svg xmlns="http://www.w3.org/2000/svg" viewBox="0 0 512 512"><!-- Font Awesome Pro 6.0.0-alpha1 by @fontawesome - https://fontawesome.com License - https://fontawesome.com/license (Commercial License) --><defs><style>.fa-secondary{opacity:.4}</style></defs><path d="M200 279H64C51 279 39 286 34 298C29 310 32 324 41 333L71 363L9 425C-3 438 -3 458 9 471L32 493C44 506 65 506 77 493L139 431L169 461C175 467 184 471 192 471C196 471 200 470 204 468C216 463 224 452 224 439V303C224 289 213 279 200 279ZM312 215H448C461 215 473 207 478 195C483 183 480 169 471 160L441 130L503 68C515 55 515 35 503 23L480 0C467 -13 447 -13 435 0L373 62L343 32C333 23 320 20 308 25C296 30 288 42 288 55V191C288 204 299 215 312 215Z" class="fa-secondary"/><path d="M204 25C192 20 179 23 169 32L139 62L77 0C65 -12 44 -12 32 0L9 23C-3 35 -3 55 9 68L71 130L41 160C35 166 32 174 32 183C32 187 33 191 34 195C39 207 51 215 64 215H200C213 215 224 204 224 191V55C224 42 216 30 204 25ZM503 425L441 363L471 333C480 324 482 310 478 298C473 286 461 279 448 279H312C299 279 288 289 288 303V439C288 452 296 463 308 468C320 473 333 470 343 461L373 431L435 493C447 506 467 506 480 493L503 471C515 458 515 438 503 425Z" class="fa-primary"/></svg>