<svg xmlns="http://www.w3.org/2000/svg" viewBox="0 0 576 512"><!-- Font Awesome Pro 6.0.0-alpha1 by @fontawesome - https://fontawesome.com License - https://fontawesome.com/license (Commercial License) --><defs><style>.fa-secondary{opacity:.4}</style></defs><path d="M554 394C521 427 461 422 421 382C395 356 383 292 377 251L312 186V282C340 315 384 371 384 410C384 466 341 512 288 512C235 512 192 466 192 410C192 401 194 391 198 381C204 383 210 384 216 384C256 384 288 352 288 312C288 291 279 272 264 259V186L199 251C198 260 196 269 194 279C194 279 194 279 194 279C184 286 176 298 176 312C176 320 179 326 182 332C182 332 182 332 181 331C175 352 166 371 155 382C115 422 55 427 22 394C-11 361 -6 301 34 261C60 235 124 223 165 217L264 118V16C264 7 271 0 280 0H296C305 0 312 7 312 16V32C304 44 299 59 299 75C299 90 304 105 312 117L411 217C452 223 516 235 542 261C582 301 587 361 554 394Z" class="fa-secondary"/><path d="M372 32C348 32 328 52 328 76S348 120 372 120S416 100 416 76S396 32 372 32ZM216 272C194 272 176 290 176 312S194 352 216 352S256 334 256 312S238 272 216 272Z" class="fa-primary"/></svg>