<svg xmlns="http://www.w3.org/2000/svg" viewBox="0 0 448 512"><!-- Font Awesome Pro 6.0.0-alpha1 by @fontawesome - https://fontawesome.com License - https://fontawesome.com/license (Commercial License) --><defs><style>.fa-secondary{opacity:.4}</style></defs><path d="M352 384H64C46 384 32 398 32 416V480C32 498 46 512 64 512H352C370 512 384 498 384 480V416C384 398 370 384 352 384Z" class="fa-secondary"/><path d="M425 207C398 184 358 188 335 215L314 240L284 112C266 34 189 -14 112 4C34 22 -14 99 4 176L64 384H352L433 297C456 270 452 230 425 207Z" class="fa-primary"/></svg>