<svg xmlns="http://www.w3.org/2000/svg" viewBox="0 0 384 512"><!-- Font Awesome Pro 6.0.0-alpha1 by @fontawesome - https://fontawesome.com License - https://fontawesome.com/license (Commercial License) --><defs><style>.fa-secondary{opacity:.4}</style></defs><path d="M32 384V464C32 490 54 512 80 512H304C330 512 352 490 352 464V384H32ZM240 448C240 457 233 464 224 464H160C151 464 144 457 144 448V448C144 439 151 432 160 432H224C233 432 240 439 240 448L240 448Z" class="fa-secondary"/><path d="M352 48V384H32V48C32 22 54 0 80 0H304C330 0 352 22 352 48Z" class="fa-primary"/></svg>