<svg xmlns="http://www.w3.org/2000/svg" viewBox="0 0 640 512"><!-- Font Awesome Pro 6.0.0-alpha1 by @fontawesome - https://fontawesome.com License - https://fontawesome.com/license (Commercial License) --><defs><style>.fa-secondary{opacity:.4}</style></defs><path d="M586 136L573 148L448 274C439 283 427 288 414 288H320V194C320 181 325 169 334 160L366 128H80C54 128 32 150 32 176V464C32 490 54 512 80 512H560C586 512 608 490 608 464V176C608 159 599 144 586 136ZM112 256H240C249 256 256 263 256 272S249 288 240 288H112C103 288 96 281 96 272S103 256 112 256ZM528 384H112C103 384 96 377 96 368S103 352 112 352H528C537 352 544 359 544 368S537 384 528 384Z" class="fa-secondary"/><path d="M357 182C354 185 352 189 352 194V256H414C419 256 423 254 426 251L551 125L483 57L357 182ZM601 39L569 7C564 2 557 0 551 0S538 2 533 7L505 35L573 103L600 75C610 65 610 49 601 39ZM112 288H240C249 288 256 281 256 272S249 256 240 256H112C103 256 96 263 96 272S103 288 112 288ZM528 352H112C103 352 96 359 96 368S103 384 112 384H528C537 384 544 377 544 368S537 352 528 352Z" class="fa-primary"/></svg>