<svg xmlns="http://www.w3.org/2000/svg" viewBox="0 0 576 512"><!-- Font Awesome Pro 6.0.0-alpha1 by @fontawesome - https://fontawesome.com License - https://fontawesome.com/license (Commercial License) --><defs><style>.fa-secondary{opacity:.4}</style></defs><path d="M472 88C472 86 472 84 473 82C467 81 461 80 454 80C406 80 355 94 301 109C243 126 184 142 122 142C118 142 114 142 110 142C104 170 79 192 48 192V361C80 365 104 391 104 424C104 426 104 428 103 430C109 431 115 432 122 432C170 432 221 418 275 403C333 386 392 370 454 370C458 370 462 370 466 370C472 342 497 320 528 320V151C496 147 472 121 472 88ZM288 352C244 352 208 309 208 256C208 203 244 160 288 160S368 203 368 256C368 309 332 352 288 352Z" class="fa-secondary"/><path d="M559 54C524 38 489 32 454 32C343 32 233 94 122 94C94 94 66 90 38 81C35 79 32 79 29 79C14 79 0 92 0 111V428C0 441 7 453 17 458C52 474 87 480 122 480C233 480 343 418 454 418C482 418 510 422 538 431C541 433 544 433 547 433C562 433 576 420 576 401V84C576 71 569 59 559 54ZM528 320C497 320 472 342 466 370C462 370 458 370 454 370C392 370 333 386 275 403C221 418 170 432 122 432C115 432 109 431 103 430C104 428 104 426 104 424C104 391 80 365 48 361V192C79 192 104 170 110 142C114 142 118 142 122 142C184 142 243 126 301 109C355 94 405 80 454 80C461 80 467 81 473 82C472 84 472 86 472 88C472 121 496 147 528 151V320Z" class="fa-primary"/></svg>