<svg xmlns="http://www.w3.org/2000/svg" viewBox="0 0 576 512"><!-- Font Awesome Pro 6.0.0-alpha1 by @fontawesome - https://fontawesome.com License - https://fontawesome.com/license (Commercial License) --><defs><style>.fa-secondary{opacity:.4}</style></defs><path d="M464 112H112C112 147 83 176 48 176V336C83 336 112 365 112 400H464C464 365 493 336 528 336V176C493 176 464 147 464 112ZM288 371C235 371 192 320 192 256C192 192 235 141 288 141S384 192 384 256C384 320 341 371 288 371Z" class="fa-secondary"/><path d="M316 282H307V202C307 197 303 192 297 192H269C265 192 262 194 261 197L251 216C249 219 249 223 251 226C253 229 256 230 260 230H269V282H260C254 282 250 286 250 292V310C250 315 254 320 260 320H316C322 320 326 315 326 310V292C326 286 322 282 316 282ZM528 64H48C22 64 0 86 0 112V400C0 426 22 448 48 448H528C554 448 576 426 576 400V112C576 86 554 64 528 64ZM528 336C493 336 464 365 464 400H112C112 365 83 336 48 336V176C83 176 112 147 112 112H464C464 147 493 176 528 176V336Z" class="fa-primary"/></svg>