<svg xmlns="http://www.w3.org/2000/svg" viewBox="0 0 576 512"><!-- Font Awesome Pro 6.0.0-alpha1 by @fontawesome - https://fontawesome.com License - https://fontawesome.com/license (Commercial License) --><defs><style>.fa-secondary{opacity:.4}</style></defs><path d="M512 96V416H64V288H182L210 343C216 355 232 355 238 343L288 244L310 288H400C409 288 416 281 416 272S409 256 400 256H330L302 201C296 189 280 189 274 201L224 300L204 260C203 258 200 256 197 256H64V96H512Z" class="fa-secondary"/><path d="M528 32H48C22 32 0 54 0 80V432C0 458 22 480 48 480H528C554 480 576 458 576 432V80C576 54 554 32 528 32ZM512 416H64V96H512V416Z" class="fa-primary"/></svg>