<svg xmlns="http://www.w3.org/2000/svg" viewBox="0 0 512 512"><!-- Font Awesome Pro 6.0.0-alpha1 by @fontawesome - https://fontawesome.com License - https://fontawesome.com/license (Commercial License) --><defs><style>.fa-secondary{opacity:.4}</style></defs><path d="M508 339L450 256L508 173C518 159 510 140 493 137L393 119L375 19C372 3 353 -6 339 4L256 62L173 4C159 -6 140 2 137 19L119 119L19 137C3 140 -6 159 4 173L62 256L4 339C-6 353 2 372 19 375L119 393L137 493C140 509 159 518 173 508L256 450L339 508C353 517 372 509 375 493L393 393L493 375C510 372 518 353 508 339ZM358 358C302 414 210 414 154 358S98 210 154 154C210 98 302 98 358 154C414 210 414 302 358 358Z" class="fa-secondary"/><path d="M343 327C322 352 290 368 256 368C194 368 144 318 144 256C144 194 194 144 256 144C263 144 270 145 276 146C281 147 282 153 278 156C250 171 234 200 234 232C234 287 284 328 338 318C343 317 346 323 343 327Z" class="fa-primary"/></svg>