<svg xmlns="http://www.w3.org/2000/svg" viewBox="0 0 512 512"><!-- Font Awesome Pro 6.0.0-alpha1 by @fontawesome - https://fontawesome.com License - https://fontawesome.com/license (Commercial License) --><defs><style>.fa-secondary{opacity:.4}</style></defs><path d="M402 160H251L455 7C466 -1 480 -2 492 4C514 15 519 44 501 61L402 160Z" class="fa-secondary"/><path d="M496 192H16C7 192 0 199 0 208V240C0 249 7 256 16 256H32C32 337 82 406 153 434C140 451 131 471 128 493C127 503 134 512 144 512H368C378 512 385 503 384 493C381 471 372 451 359 434C430 406 480 337 480 256H496C505 256 512 249 512 240V208C512 199 505 192 496 192Z" class="fa-primary"/></svg>