<svg xmlns="http://www.w3.org/2000/svg" viewBox="0 0 640 512"><!-- Font Awesome Pro 6.0.0-alpha1 by @fontawesome - https://fontawesome.com License - https://fontawesome.com/license (Commercial License) --><defs><style>.fa-secondary{opacity:.4}</style></defs><path d="M576 480H456C500 480 527 431 503 394L410 247L410 247L450 184C463 164 492 164 504 184L630 382C657 424 627 480 576 480Z" class="fa-secondary"/><path d="M280 44L503 394C527 431 500 480 456 480H56C12 480 -15 431 9 394L232 44C242 28 269 28 280 44C280 44 280 44 280 44Z" class="fa-primary"/></svg>