<svg xmlns="http://www.w3.org/2000/svg" viewBox="0 0 384 512"><!-- Font Awesome Pro 6.0.0-alpha1 by @fontawesome - https://fontawesome.com License - https://fontawesome.com/license (Commercial License) --><defs><style>.fa-secondary{opacity:.4}</style></defs><path d="M336 0H48C22 0 0 22 0 48V464C0 490 22 512 48 512H336C362 512 384 490 384 464V48C384 22 362 0 336 0ZM192 448C139 448 96 405 96 352S139 256 192 256S288 299 288 352S245 448 192 448ZM320 192H64V64H320V192Z" class="fa-secondary"/><path d="M64 64V192H320V64H64ZM192 256C139 256 96 299 96 352S139 448 192 448S288 405 288 352S245 256 192 256ZM192 384C174 384 160 370 160 352S174 320 192 320S224 334 224 352S210 384 192 384Z" class="fa-primary"/></svg>