<svg xmlns="http://www.w3.org/2000/svg" viewBox="0 0 512 512"><!-- Font Awesome Pro 6.0.0-alpha1 by @fontawesome - https://fontawesome.com License - https://fontawesome.com/license (Commercial License) --><defs><style>.fa-secondary{opacity:.4}</style></defs><path d="M113 14C112 6 105 0 97 0H80C71 0 63 9 64 18C68 50 82 79 105 102C117 115 124 130 127 147C128 154 135 160 143 160H160C169 160 177 151 176 142C172 114 159 88 139 67C125 53 116 34 113 14ZM251 67C237 53 228 34 225 14C224 6 217 0 209 0H192C183 0 175 9 176 18C180 50 194 79 217 102C229 115 236 130 239 147C240 154 247 160 255 160H272C281 160 289 151 288 142C284 114 271 88 251 67Z" class="fa-secondary"/><path d="M400 192H32C14 192 0 206 0 224V416C0 469 43 512 96 512H288C341 512 384 469 384 416H400C462 416 512 366 512 304S462 192 400 192ZM400 352H384V256H400C426 256 448 278 448 304S426 352 400 352Z" class="fa-primary"/></svg>