<svg xmlns="http://www.w3.org/2000/svg" viewBox="0 0 512 512"><!-- Font Awesome Pro 6.0.0-alpha1 by @fontawesome - https://fontawesome.com License - https://fontawesome.com/license (Commercial License) --><defs><style>.fa-secondary{opacity:.4}</style></defs><path d="M192 224V84L448 8V149L192 224Z" class="fa-secondary"/><path d="M480 0C477 0 473 1 470 1L448 8V293C438 290 427 288 416 288C363 288 320 324 320 368C320 412 363 448 416 448S512 412 512 368V32C512 14 498 0 480 0ZM128 126V357C118 354 107 352 96 352C43 352 0 388 0 432C0 476 43 512 96 512S192 476 192 432V84L150 96C138 100 128 114 128 126Z" class="fa-primary"/></svg>