<svg xmlns="http://www.w3.org/2000/svg" viewBox="0 0 640 512"><!-- Font Awesome Pro 6.0.0-alpha1 by @fontawesome - https://fontawesome.com License - https://fontawesome.com/license (Commercial License) --><defs><style>.fa-secondary{opacity:.4}</style></defs><path d="M464 160C392 160 322 186 267 233L154 329C144 338 128 331 128 317V282L178 252C187 246 192 236 192 225V144C192 131 178 124 167 131L96 178H96L25 131C14 124 0 131 0 144V225C0 236 5 246 14 252L64 282V352C64 440 136 512 224 512H464C561 512 640 433 640 336S561 160 464 160ZM504 320C491 320 480 309 480 296C480 283 491 272 504 272S528 283 528 296C528 309 517 320 504 320Z" class="fa-secondary"/><path d="M504 272C491 272 480 283 480 296C480 309 491 320 504 320S528 309 528 296C528 283 517 272 504 272ZM623 0C617 0 611 3 608 8L509 166C509 166 509 166 509 166C540 174 569 191 591 214L591 214L639 22C642 11 634 0 623 0Z" class="fa-primary"/></svg>