<svg xmlns="http://www.w3.org/2000/svg" viewBox="0 0 640 512"><!-- Font Awesome Pro 6.0.0-alpha1 by @fontawesome - https://fontawesome.com License - https://fontawesome.com/license (Commercial License) --><defs><style>.fa-secondary{opacity:.4}</style></defs><path d="M640 248V264C640 273 633 280 624 280H536V320H488V280H152V320H104V280H16C7 280 0 273 0 264V248C0 239 7 232 16 232H296V192H344V232H624C633 232 640 239 640 248Z" class="fa-secondary"/><path d="M224 192H416C434 192 448 178 448 160V32C448 14 434 0 416 0H224C206 0 192 14 192 32V160C192 178 206 192 224 192ZM256 64H384V128H256V64ZM608 320H416C398 320 384 334 384 352V480C384 498 398 512 416 512H608C626 512 640 498 640 480V352C640 334 626 320 608 320ZM576 448H448V384H576V448ZM224 320H32C14 320 0 334 0 352V480C0 498 14 512 32 512H224C242 512 256 498 256 480V352C256 334 242 320 224 320ZM192 448H64V384H192V448Z" class="fa-primary"/></svg>