<svg xmlns="http://www.w3.org/2000/svg" viewBox="0 0 512 512"><!-- Font Awesome Pro 6.0.0-alpha1 by @fontawesome - https://fontawesome.com License - https://fontawesome.com/license (Commercial License) --><defs><style>.fa-secondary{opacity:.4}</style></defs><path d="M432 96H144C118 96 96 118 96 144V432C96 458 118 480 144 480H384L480 384V144C480 118 458 96 432 96ZM384 312C384 316 380 320 376 320H320V376C320 380 316 384 312 384H264C260 384 256 380 256 376V320H200C196 320 192 316 192 312V264C192 260 196 256 200 256H256V200C256 196 260 192 264 192H312C316 192 320 196 320 200V256H376C380 256 384 260 384 264V312Z" class="fa-secondary"/><path d="M336 0H64C29 0 0 29 0 64V336C0 362 22 384 48 384V80C48 62 62 48 80 48H384C384 22 362 0 336 0ZM376 256H320V200C320 196 316 192 312 192H264C260 192 256 196 256 200V256H200C196 256 192 260 192 264V312C192 316 196 320 200 320H256V376C256 380 260 384 264 384H312C316 384 320 380 320 376V320H376C380 320 384 316 384 312V264C384 260 380 256 376 256Z" class="fa-primary"/></svg>