<svg xmlns="http://www.w3.org/2000/svg" viewBox="0 0 576 512"><!-- Font Awesome Pro 6.0.0-alpha1 by @fontawesome - https://fontawesome.com License - https://fontawesome.com/license (Commercial License) --><defs><style>.fa-secondary{opacity:.4}</style></defs><path d="M17 368C46 365 73 357 96 342C125 360 161 368 196 368C183 350 176 328 176 304C176 303 176 303 176 302C155 300 134 292 118 280C105 268 85 271 71 282C56 294 35 302 14 304C6 305 0 312 0 320V352C0 361 8 369 17 368ZM562 304C541 302 520 293 504 281C490 270 470 270 456 281C441 293 421 300 400 303C400 303 400 303 400 304C400 328 393 349 380 368C416 368 451 360 480 342C503 356 531 365 559 368C568 369 576 361 576 352V320C576 312 570 305 562 304ZM562 448C541 446 520 437 504 425C490 414 470 414 456 425C418 455 349 455 310 424C297 412 277 414 264 425C226 455 157 455 118 424C105 412 85 415 71 426C56 438 35 446 14 448C6 449 0 456 0 464V496C0 505 8 513 17 512C46 509 73 501 96 486C153 521 233 520 288 486C345 521 425 520 480 486C503 500 531 509 559 512C568 513 576 505 576 496V464C576 456 570 449 562 448Z" class="fa-secondary"/><path d="M320 64V96H368C377 96 384 103 384 112V144C384 153 377 160 368 160H320V231C355 246 377 285 365 327C357 353 336 374 310 381C257 396 208 355 208 304C208 271 228 243 256 231V32C256 14 270 0 288 0H368C377 0 384 7 384 16V48C384 57 377 64 368 64H320Z" class="fa-primary"/></svg>