<svg xmlns="http://www.w3.org/2000/svg" viewBox="0 0 384 512"><!-- Font Awesome Pro 6.0.0-alpha1 by @fontawesome - https://fontawesome.com License - https://fontawesome.com/license (Commercial License) --><defs><style>.fa-secondary{opacity:.4}</style></defs><path d="M373 256H11C4 276 0 297 0 320C0 342 4 364 11 384H373C380 364 384 342 384 320C384 297 380 276 373 256ZM192 96C174 96 160 82 160 64S174 32 192 32S224 46 224 64S209 96 192 96H247C253 87 256 76 256 64C256 29 227 0 192 0S128 29 128 64C128 76 131 87 137 96H192Z" class="fa-secondary"/><path d="M288 154V112C288 103 281 96 272 96H112C103 96 96 103 96 112V154C57 177 27 213 11 256H372C357 213 327 177 288 154ZM11 384C37 459 108 512 192 512S346 459 373 384H11Z" class="fa-primary"/></svg>