<svg xmlns="http://www.w3.org/2000/svg" viewBox="0 0 448 512"><!-- Font Awesome Pro 6.0.0-alpha1 by @fontawesome - https://fontawesome.com License - https://fontawesome.com/license (Commercial License) --><defs><style>.fa-secondary{opacity:.4}</style></defs><path d="M432 416H16C7 416 0 423 0 432V464C0 473 7 480 16 480H432C441 480 448 473 448 464V432C448 423 441 416 432 416ZM435 288H205C201 288 198 289 196 292S192 297 192 301V339C192 343 193 346 196 348S201 352 205 352H435C439 352 442 351 444 348S448 343 448 339V301C448 297 447 294 444 292S439 288 435 288ZM435 160H205C201 160 198 161 196 164S192 169 192 173V211C192 215 193 218 196 220S201 224 205 224H435C439 224 442 223 444 220S448 215 448 211V173C448 169 447 166 444 164S439 160 435 160ZM432 32H16C7 32 0 39 0 48V80C0 89 7 96 16 96H432C441 96 448 89 448 80V48C448 39 441 32 432 32Z" class="fa-secondary"/><path d="M128 176V336C128 342 124 348 119 351C113 353 107 352 102 348L6 268C2 265 0 261 0 256S2 247 6 244L102 164C105 161 108 160 112 160C114 160 117 161 119 162C124 164 128 170 128 176Z" class="fa-primary"/></svg>