<svg xmlns="http://www.w3.org/2000/svg" viewBox="0 0 448 512"><!-- Font Awesome Pro 6.0.0-alpha1 by @fontawesome - https://fontawesome.com License - https://fontawesome.com/license (Commercial License) --><defs><style>.fa-secondary{opacity:.4}</style></defs><path d="M224 288C211 288 200 299 200 312V336H248V312C248 299 237 288 224 288ZM160 192C151 192 144 199 144 208V256C144 265 151 272 160 272C169 272 176 265 176 256V208C176 199 169 192 160 192ZM288 192C279 192 272 199 272 208V256C272 265 279 272 288 272C297 272 304 265 304 256V208C304 199 297 192 288 192ZM333 379C329 382 324 384 319 384H129C124 384 119 382 115 379C84 347 64 304 64 256C64 208 84 165 115 133C119 130 124 128 129 128H319C324 128 329 130 333 133C364 165 384 208 384 256C384 304 364 347 333 379Z" class="fa-secondary"/><path d="M384 32H64C29 32 0 61 0 96V416C0 451 29 480 64 480H384C419 480 448 451 448 416V96C448 61 419 32 384 32ZM333 379C329 382 324 384 319 384H129C124 384 119 382 115 379C84 347 64 304 64 256C64 208 84 165 115 133C119 130 124 128 129 128H319C324 128 329 130 333 133C364 165 384 208 384 256C384 304 364 347 333 379Z" class="fa-primary"/></svg>