<svg xmlns="http://www.w3.org/2000/svg" viewBox="0 0 448 512"><!-- Font Awesome Pro 6.0.0-alpha1 by @fontawesome - https://fontawesome.com License - https://fontawesome.com/license (Commercial License) --><defs><style>.fa-secondary{opacity:.4}</style></defs><path d="M448 16V48C448 57 441 64 432 64H16C7 64 0 57 0 48V16C0 7 7 0 16 0H432C441 0 448 7 448 16Z" class="fa-secondary"/><path d="M232 128H216C123 128 48 203 48 296V344C48 437 123 512 216 512H232C325 512 400 437 400 344V296C400 203 325 128 232 128ZM320 344C320 393 281 432 232 432H216C167 432 128 393 128 344V296C128 247 167 208 216 208H232C281 208 320 247 320 296V344Z" class="fa-primary"/></svg>