<svg xmlns="http://www.w3.org/2000/svg" viewBox="0 0 512 512"><!-- Font Awesome Pro 6.0.0-alpha1 by @fontawesome - https://fontawesome.com License - https://fontawesome.com/license (Commercial License) --><defs><style>.fa-secondary{opacity:.4}</style></defs><path d="M512 37L448 453C446 463 440 471 432 476C427 479 421 480 416 480C412 480 408 479 404 478L281 426L192 512V395C192 388 194 381 199 375L416 96L122 360L20 318C8 313 1 302 0 290S6 266 16 260L464 4C475 -2 488 -1 498 6S513 25 512 37Z" class="fa-secondary"/><path d="M416 96L198 375C194 381 192 388 192 395V512L122 360L416 96Z" class="fa-primary"/></svg>