<svg xmlns="http://www.w3.org/2000/svg" viewBox="0 0 512 512"><!-- Font Awesome Pro 6.0.0-alpha1 by @fontawesome - https://fontawesome.com License - https://fontawesome.com/license (Commercial License) --><defs><style>.fa-secondary{opacity:.4}</style></defs><path d="M194 223C224 214 240 173 228 129C222 105 208 86 192 75V0L128 80C113 98 107 128 116 159C128 202 162 231 194 223ZM318 223C350 231 384 202 396 159C405 128 399 98 384 80L320 0V75C304 86 290 105 284 129C272 173 288 214 318 223ZM109 243C102 219 84 202 64 195V128L18 190C6 207 0 227 0 247C0 254 1 261 3 269C14 303 46 326 75 319S119 278 109 243ZM494 190L448 128V195C428 202 410 219 403 243C393 278 408 312 437 319S498 303 509 269C511 261 512 254 512 247C512 227 506 207 494 190Z" class="fa-secondary"/><path d="M256 256C177 256 64 379 64 456C64 491 91 512 136 512C185 512 217 487 256 487C295 487 328 512 376 512C421 512 448 491 448 456C448 379 335 256 256 256Z" class="fa-primary"/></svg>