<svg xmlns="http://www.w3.org/2000/svg" viewBox="0 0 448 512"><!-- Font Awesome Pro 6.0.0-alpha1 by @fontawesome - https://fontawesome.com License - https://fontawesome.com/license (Commercial License) --><defs><style>.fa-secondary{opacity:.4}</style></defs><path d="M144 128C170 128 192 106 192 80S170 32 144 32S96 54 96 80S118 128 144 128ZM96 192C96 166 74 144 48 144S0 166 0 192S22 240 48 240S96 219 96 192ZM304 128C330 128 352 106 352 80S330 32 304 32S256 54 256 80S278 128 304 128ZM400 144C374 144 352 166 352 192S374 240 400 240S448 218 448 192S426 144 400 144Z" class="fa-secondary"/><path d="M367 301C341 286 320 239 300 203C284 174 254 160 224 160S164 174 148 203C127 240 108 286 81 301C52 317 32 348 32 384C32 437 75 480 128 480C180 482 200 448 224 448S268 482 320 480C373 480 416 437 416 384C416 348 396 317 367 301Z" class="fa-primary"/></svg>