<svg xmlns="http://www.w3.org/2000/svg" viewBox="0 0 512 512"><!-- Font Awesome Pro 6.0.0-alpha1 by @fontawesome - https://fontawesome.com License - https://fontawesome.com/license (Commercial License) --><defs><style>.fa-secondary{opacity:.4}</style></defs><path d="M109 211C98 177 66 154 37 161C8 168 -7 202 3 237C14 271 46 294 75 287S119 246 109 211ZM194 191C224 182 240 141 228 97S182 25 150 33C120 42 104 83 116 127C128 170 162 199 194 191ZM475 161C446 154 414 177 403 211C393 246 408 280 437 287C466 294 498 271 509 237C519 202 504 168 475 161ZM318 191C350 199 384 170 396 127C408 83 392 42 362 33C330 25 296 54 284 97C272 141 288 182 318 191Z" class="fa-secondary"/><path d="M256 224C177 224 64 347 64 424C64 459 91 480 136 480C185 480 217 455 256 455C295 455 328 480 376 480C421 480 448 459 448 424C448 347 335 224 256 224Z" class="fa-primary"/></svg>