<svg xmlns="http://www.w3.org/2000/svg" viewBox="0 0 512 512"><!-- Font Awesome Pro 6.0.0-alpha1 by @fontawesome - https://fontawesome.com License - https://fontawesome.com/license (Commercial License) --><defs><style>.fa-secondary{opacity:.4}</style></defs><path d="M288 241L410 340C400 359 386 376 370 390L288 323V429C277 431 267 432 256 432S234 431 224 429V323L141 390C125 376 111 359 101 340L224 241V83C234 81 245 80 256 80S277 81 288 83V241Z" class="fa-secondary"/><path d="M256 16C123 16 16 123 16 256S123 496 256 496S496 389 496 256S389 16 256 16ZM256 432C159 432 80 353 80 256S159 80 256 80S432 159 432 256S353 432 256 432Z" class="fa-primary"/></svg>