<svg xmlns="http://www.w3.org/2000/svg" viewBox="0 0 576 512"><!-- Font Awesome Pro 6.0.0-alpha1 by @fontawesome - https://fontawesome.com License - https://fontawesome.com/license (Commercial License) --><defs><style>.fa-secondary{opacity:.4}</style></defs><path d="M64 216C54 223 48 235 48 248V304C48 313 41 320 32 320H16C7 320 0 313 0 304V248C0 199 39 160 88 160H88C75 175 66 195 64 216Z" class="fa-secondary"/><path d="M576 77C576 69 573 61 567 55C564 51 559 46 554 40C565 33 573 23 576 10C577 5 574 1 569 0C569 0 568 0 568 0H448C377 0 320 57 320 128C256 128 216 91 192 38C189 30 179 30 175 37C165 59 160 82 160 105C160 172 211 238 288 253V256C205 256 145 198 131 133C130 133 129 134 128 134V133C78 151 52 206 69 255C75 270 83 283 95 294L69 362C66 369 65 377 65 384H65C65 390 65 395 67 401L89 488C92 502 105 512 120 512H153C173 512 189 492 184 472L162 387L186 323L320 346V480C320 498 334 512 352 512H384C402 512 416 498 416 480V318C437 297 448 269 448 240C448 240 448 240 448 239V137L464 144L483 182C490 197 508 203 523 197L556 184C568 179 576 167 576 154L576 77ZM512 96C503 96 496 89 496 80S503 64 512 64S528 71 528 80S521 96 512 96Z" class="fa-primary"/></svg>