<svg xmlns="http://www.w3.org/2000/svg" viewBox="0 0 512 512"><!-- Font Awesome Pro 6.0.0-alpha1 by @fontawesome - https://fontawesome.com License - https://fontawesome.com/license (Commercial License) --><defs><style>.fa-secondary{opacity:.4}</style></defs><path d="M256 16L256 16C123 16 16 123 16 256V256C16 389 123 496 256 496H256C389 496 496 389 496 256V256C496 123 389 16 256 16ZM211 368C189 373 139 384 139 384C139 384 138 384 137 384C132 384 127 379 128 373L144 301C146 294 149 288 154 283L255 182L330 257C290 297 249 337 228 358C224 363 218 367 211 368ZM373 214L353 234L278 159L298 139C306 132 315 128 325 128C334 128 344 132 351 139L373 161C388 175 388 199 373 214Z" class="fa-secondary"/><path d="M373 161L351 139C344 132 334 128 325 128C315 128 306 132 298 139L278 159L353 234L373 214C388 199 388 175 373 161ZM154 283C149 288 146 294 144 301L128 373C127 379 132 384 137 384C138 384 139 384 139 384C139 384 189 373 211 368C217 367 224 363 228 358C249 337 290 297 330 257L255 182L154 283Z" class="fa-primary"/></svg>