<svg xmlns="http://www.w3.org/2000/svg" viewBox="0 0 512 512"><!-- Font Awesome Pro 6.0.0-alpha1 by @fontawesome - https://fontawesome.com License - https://fontawesome.com/license (Commercial License) --><defs><style>.fa-secondary{opacity:.4}</style></defs><path d="M498 28L470 0C451 -19 421 -19 402 0L363 39L459 135L498 96C517 77 517 47 498 28ZM384 434H64V114H220L284 50H64C29 50 0 79 0 114V434C0 469 29 498 64 498H384C419 498 448 469 448 434V214L384 278V434Z" class="fa-secondary"/><path d="M154 262L363 53L459 149L250 358C246 361 242 364 238 365L142 384C134 385 127 378 128 370L147 274C148 270 150 266 154 262Z" class="fa-primary"/></svg>