<svg xmlns="http://www.w3.org/2000/svg" viewBox="0 0 512 512"><!-- Font Awesome Pro 6.0.0-alpha1 by @fontawesome - https://fontawesome.com License - https://fontawesome.com/license (Commercial License) --><defs><style>.fa-secondary{opacity:.4}</style></defs><path d="M498 60L438 0C419 -19 389 -19 370 0L313 57L441 185L498 128C517 109 517 79 498 60ZM144 418H80V354H48V322L31 339C29 341 27 344 27 347L13 415L83 485L151 471C154 471 157 469 159 467L176 450H144V418Z" class="fa-secondary"/><path d="M0 493C-2 503 6 512 16 512C17 512 18 512 19 512L83 499L13 429L0 493ZM291 93L96 288V288H96L48 336V368H80V432H144V464H176L224 416V416L419 221L291 93Z" class="fa-primary"/></svg>