<svg xmlns="http://www.w3.org/2000/svg" viewBox="0 0 640 512"><!-- Font Awesome Pro 6.0.0-alpha1 by @fontawesome - https://fontawesome.com License - https://fontawesome.com/license (Commercial License) --><defs><style>.fa-secondary{opacity:.4}</style></defs><path d="M265 169L409 281L483 207L355 79L265 169ZM562 60L502 0C483 -19 453 -19 434 0L377 57L505 185L562 128C581 109 581 79 562 60ZM95 339C93 341 91 344 91 347L64 479C62 489 70 498 80 498C81 498 82 498 83 498L215 471C218 471 221 469 223 467L340 349L197 237L95 339ZM196 426L121 441L136 366L160 342V402H220L196 426Z" class="fa-secondary"/><path d="M631 469L39 5C34 2 29 0 24 0C17 0 10 3 5 9C-3 20 -1 35 9 43L601 507C612 515 627 513 635 503C643 492 641 477 631 469Z" class="fa-primary"/></svg>