<svg xmlns="http://www.w3.org/2000/svg" viewBox="0 0 640 512"><!-- Font Awesome Pro 6.0.0-alpha1 by @fontawesome - https://fontawesome.com License - https://fontawesome.com/license (Commercial License) --><defs><style>.fa-secondary{opacity:.4}</style></defs><path d="M416 144C416 135 409 128 400 128H240C231 128 224 135 224 144V240L224 240V315C229 318 235 320 240 320H400C405 320 411 318 416 315V240L416 240V144Z" class="fa-secondary"/><path d="M197 196C188 171 171 150 148 137C131 126 111 125 92 133C73 141 60 158 55 178L36 258C32 278 37 299 51 315L118 391L128 484C130 500 144 512 160 512C161 512 162 512 163 512C181 510 194 494 192 476L182 384C180 371 175 359 166 349L123 300L140 229L147 250C151 262 159 273 172 282L223 315C223 315 224 315 224 315V240L208 230L197 196ZM46 358L2 468C-4 485 4 503 20 510C37 516 55 508 62 492L89 423L87 405L46 358ZM603 258L585 178C580 158 566 141 547 133C529 125 508 126 491 137C469 150 452 171 443 196L432 230L416 240V315C416 315 417 315 417 315L468 282C481 273 489 262 493 250L500 229L517 300L474 349C465 359 460 371 458 384L448 476C446 494 459 510 477 512C478 512 479 512 480 512C496 512 510 500 512 483L522 391L589 315C603 299 608 278 603 258ZM638 468L594 358L553 404L551 423L578 492C583 504 595 512 608 512C612 512 616 511 620 510C636 503 644 485 638 468ZM128 96C154 96 176 74 176 48S154 0 128 0S80 22 80 48S101 96 128 96ZM512 96C538 96 560 74 560 48S538 0 512 0S464 22 464 48S485 96 512 96Z" class="fa-primary"/></svg>