<svg xmlns="http://www.w3.org/2000/svg" viewBox="0 0 512 512"><!-- Font Awesome Pro 6.0.0-alpha1 by @fontawesome - https://fontawesome.com License - https://fontawesome.com/license (Commercial License) --><defs><style>.fa-secondary{opacity:.4}</style></defs><path d="M468 315C406 407 248 512 56 512C25 512 0 487 0 456S25 400 56 400C207 400 209 212 292 140L352 165V256H443L468 315Z" class="fa-secondary"/><path d="M465 134C487 96 485 47 460 10C452 -1 437 -3 426 4C416 12 413 27 420 38C435 58 436 85 425 107C407 100 388 96 368 96C332 96 299 110 274 132L352 165V256H443L476 334C498 309 512 276 512 240C512 198 494 161 465 134Z" class="fa-primary"/></svg>