<svg xmlns="http://www.w3.org/2000/svg" viewBox="0 0 384 512"><!-- Font Awesome Pro 6.0.0-alpha1 by @fontawesome - https://fontawesome.com License - https://fontawesome.com/license (Commercial License) --><defs><style>.fa-secondary{opacity:.4}</style></defs><path d="M19 83C-6 108 -6 148 19 173S84 198 109 173S134 108 109 83S44 58 19 83ZM365 339C340 314 300 314 275 339S250 404 275 429S340 454 365 429S390 364 365 339Z" class="fa-secondary"/><path d="M375 141L77 439C65 451 44 451 32 439L9 416C-3 404 -3 383 9 371L307 73C319 61 340 61 352 73L375 96C387 108 387 129 375 141Z" class="fa-primary"/></svg>