<svg xmlns="http://www.w3.org/2000/svg" viewBox="0 0 512 512"><!-- Font Awesome Pro 6.0.0-alpha1 by @fontawesome - https://fontawesome.com License - https://fontawesome.com/license (Commercial License) --><defs><style>.fa-secondary{opacity:.4}</style></defs><path d="M256 0H224V184L256 176V0ZM192 381H192C204 377 211 363 207 351S189 331 176 336L158 342C139 348 118 339 109 321L46 188C40 176 26 171 14 177S-3 197 2 209L66 342C81 372 112 392 145 392C158 392 162 391 192 381ZM488 288C475 288 464 299 464 312C464 326 455 338 442 343L112 465C99 469 92 483 96 495S114 515 127 511C127 511 128 510 128 510L459 388C491 376 512 346 512 312C512 299 501 288 488 288Z" class="fa-secondary"/><path d="M307 223C300 217 290 215 280 217L212 234L188 180C177 156 148 145 124 156C100 167 89 196 100 220L128 288C136 307 151 315 168 311L256 289V412L320 389V248C320 238 315 229 307 223ZM160 80C160 53 138 32 112 32S64 53 64 80S86 128 112 128S160 106 160 80Z" class="fa-primary"/></svg>