<svg xmlns="http://www.w3.org/2000/svg" viewBox="0 0 512 512"><!-- Font Awesome Pro 6.0.0-alpha1 by @fontawesome - https://fontawesome.com License - https://fontawesome.com/license (Commercial License) --><defs><style>.fa-secondary{opacity:.4}</style></defs><path d="M142 416C128 474 105 512 80 512C36 512 0 397 0 256S36 0 80 0C112 0 140 62 153 150C143 162 141 179 151 191C153 194 155 196 158 197C159 216 160 236 160 256C160 288 158 320 154 352H128C110 352 96 366 96 384C96 402 110 416 128 416H142Z" class="fa-secondary"/><path d="M210 317L195 352H128C110 352 96 366 96 384C96 402 110 416 128 416H205C225 416 242 405 250 387L258 366L248 360C231 350 218 335 210 317ZM368 96C394 96 416 74 416 48S394 0 368 0S320 22 320 48C320 48 320 48 320 48C320 74 341 96 368 96ZM480 224H436L410 171C397 145 374 127 348 120L277 99C249 92 219 98 196 116L157 146C142 157 140 177 151 191C161 205 181 208 195 197L235 167C243 161 253 159 260 160L275 165L238 252C225 282 236 316 264 333L349 383L321 470C316 487 326 505 342 510C342 510 342 510 342 510C359 516 377 506 382 490C382 490 383 490 383 490L414 388C420 368 411 345 393 334L331 298L363 220L383 261C391 278 408 288 426 288H480C498 288 512 274 512 256C512 238 498 224 480 224Z" class="fa-primary"/></svg>