<svg xmlns="http://www.w3.org/2000/svg" viewBox="0 0 256 512"><!-- Font Awesome Pro 6.0.0-alpha1 by @fontawesome - https://fontawesome.com License - https://fontawesome.com/license (Commercial License) --><defs><style>.fa-secondary{opacity:.4}</style></defs><path d="M128 128C163 128 192 99 192 64S163 0 128 0S64 29 64 64S93 128 128 128Z" class="fa-secondary"/><path d="M192 160H64C29 160 0 189 0 224V320C0 338 14 352 32 352H64V480C64 498 78 512 96 512H160C178 512 192 498 192 480V352H224C242 352 256 338 256 320V224C256 189 227 160 192 160Z" class="fa-primary"/></svg>