<svg xmlns="http://www.w3.org/2000/svg" viewBox="0 0 576 512"><!-- Font Awesome Pro 6.0.0-alpha1 by @fontawesome - https://fontawesome.com License - https://fontawesome.com/license (Commercial License) --><defs><style>.fa-secondary{opacity:.4}</style></defs><path d="M552 416C539 416 528 427 528 440C528 453 517 464 504 464H434L460 286C456 287 452 288 448 288H427L402 464H99L152 203C141 206 129 202 121 194L67 464H24C11 464 0 475 0 488S11 512 24 512H504C544 512 576 480 576 440C576 427 565 416 552 416Z" class="fa-secondary"/><path d="M186 332L124 464H195L238 373L216 360C204 353 194 343 186 332ZM448 224H404L378 171C366 145 343 127 316 120L245 99C217 92 187 98 164 116L125 146C111 157 108 177 119 191C129 205 149 208 164 197C165 197 166 196 167 194L203 167C211 161 221 159 229 160L243 165L206 252C193 282 205 316 232 332L317 383L292 464H359L382 388C388 367 379 345 361 334L299 298L331 220L351 261C359 277 376 288 394 288H448C466 288 480 274 480 256C480 238 466 224 448 224ZM336 96C363 96 384 74 384 48S363 0 336 0S288 22 288 48S310 96 336 96Z" class="fa-primary"/></svg>