<svg xmlns="http://www.w3.org/2000/svg" viewBox="0 0 448 512"><!-- Font Awesome Pro 6.0.0-alpha1 by @fontawesome - https://fontawesome.com License - https://fontawesome.com/license (Commercial License) --><defs><style>.fa-secondary{opacity:.4}</style></defs><path d="M130 318L115 352H48C30 352 16 366 16 384S30 416 48 416H126C145 416 162 405 170 387L178 366L168 360C150 350 138 335 130 318ZM288 96C314 96 336 74 336 48S314 0 288 0S240 22 240 48S262 96 288 96ZM400 224H356L330 171C317 145 295 126 268 120L197 99C169 92 139 98 116 116L77 146C62 157 60 177 71 191C81 205 102 208 115 197L155 167C163 161 173 159 180 161L195 165L158 252C145 282 156 316 184 333L269 383L242 470C236 487 246 505 262 510C266 511 269 512 272 512C286 512 298 503 302 490L334 389C340 368 331 345 312 334L251 298L283 220L303 261C311 277 328 288 346 288H400C418 288 432 274 432 256C432 238 418 224 400 224Z" class="fa-secondary"/></svg>