<svg xmlns="http://www.w3.org/2000/svg" viewBox="0 0 512 512"><!-- Font Awesome Pro 6.0.0-alpha1 by @fontawesome - https://fontawesome.com License - https://fontawesome.com/license (Commercial License) --><defs><style>.fa-secondary{opacity:.4}</style></defs><path d="M505 452C496 443 481 443 471 452L471 452C459 464 441 468 426 461L36 259C25 252 10 256 3 268C-3 279 1 294 12 300C13 301 13 301 14 301L405 504C417 509 429 512 442 512C466 512 488 503 505 486C514 477 514 462 505 452ZM95 69L121 92L109 114C123 121 140 119 152 109L368 219C360 213 355 205 352 196L341 167L166 80C166 66 158 52 145 45L134 67H133L99 60C97 59 95 60 94 61C92 63 92 67 95 69C95 69 95 69 95 69Z" class="fa-secondary"/><path d="M293 216L186 163C183 183 189 203 203 217L278 292L233 361L290 390L339 317C352 298 349 272 333 256L293 216ZM462 195V195L410 169L393 118C385 94 352 62 308 79L227 111L340 167L351 196C355 208 364 218 375 224L433 253C449 261 469 254 476 238C484 222 478 203 462 195ZM432 96C458 96 480 75 480 48C480 22 458 0 432 0S384 22 384 48C384 75 405 96 432 96Z" class="fa-primary"/></svg>