<svg xmlns="http://www.w3.org/2000/svg" viewBox="0 0 640 512"><!-- Font Awesome Pro 6.0.0-alpha1 by @fontawesome - https://fontawesome.com License - https://fontawesome.com/license (Commercial License) --><defs><style>.fa-secondary{opacity:.4}</style></defs><path d="M624 352H619C617 345 614 338 610 331L614 328C620 321 620 311 614 305L591 282C585 276 575 276 568 282L565 286C558 282 551 279 544 277V272C544 263 537 256 528 256H496C487 256 480 263 480 272V277C473 279 466 282 459 286L456 282C449 276 439 276 433 282L410 305C404 311 404 321 410 327L414 331C410 338 407 345 405 352H400C391 352 384 359 384 368V400C384 409 391 416 400 416H405C407 423 410 430 414 437L410 440C404 447 404 457 410 463L433 486C439 492 449 492 456 486L459 482C466 486 473 489 480 491V496C480 505 487 512 496 512H528C537 512 544 505 544 496V491C551 489 558 486 565 482L569 486C575 492 585 492 591 486L614 463C620 457 620 447 614 440L610 437C614 430 617 423 619 416H624C633 416 640 409 640 400V368C640 359 633 352 624 352ZM512 448C477 448 448 419 448 384S477 320 512 320S576 349 576 384S547 448 512 448ZM191 50L133 99C127 104 126 114 132 121L173 170C178 177 188 178 194 172L299 83C305 78 306 68 300 61C272 27 223 22 191 50ZM240 352H235C233 345 230 338 226 331L230 328C236 321 236 311 230 305L207 282C201 276 191 276 185 282L181 286C174 282 167 279 160 277V272C160 263 153 256 144 256H112C103 256 96 263 96 272V277C89 279 82 282 75 286L71 282C65 276 55 276 49 282L26 305C20 311 20 321 26 327L30 331C26 338 23 345 21 352H16C7 352 0 359 0 368V400C0 409 7 416 16 416H21C23 423 26 430 30 437L26 440C20 447 20 457 26 463L49 486C55 492 65 492 72 486L75 482C82 486 89 489 96 491V496C96 505 103 512 112 512H144C153 512 160 505 160 496V491C167 489 174 486 181 482L184 486C191 492 201 492 207 486L230 463C236 457 236 447 230 440L226 437C230 430 233 423 235 416H240C249 416 256 409 256 400V368C256 359 249 352 240 352ZM128 448C93 448 64 419 64 384S93 320 128 320S192 349 192 384S163 448 128 448Z" class="fa-secondary"/><path d="M400 96C426 96 448 74 448 48S426 0 400 0S352 22 352 48S373 96 400 96ZM480 160H427L356 103C344 93 327 94 315 104L203 200C196 206 191 216 192 226C193 236 198 245 206 251L288 305V416C288 434 302 448 320 448S352 434 352 416V288C352 277 347 267 338 261L296 234L355 184L396 217C402 222 409 224 416 224H480C498 224 512 210 512 192S498 160 480 160Z" class="fa-primary"/></svg>