<svg xmlns="http://www.w3.org/2000/svg" viewBox="0 0 448 512"><!-- Font Awesome Pro 6.0.0-alpha1 by @fontawesome - https://fontawesome.com License - https://fontawesome.com/license (Commercial License) --><defs><style>.fa-secondary{opacity:.4}</style></defs><path d="M400 448C391 448 384 455 384 464S377 480 368 480H272C263 480 256 487 256 496S263 512 272 512H368C394 512 416 490 416 464C416 455 409 448 400 448ZM118 457C112 463 101 463 95 457L27 389C21 382 11 382 5 389C-2 395 -2 405 5 411L73 479C82 489 94 493 107 493C119 493 131 489 140 479C147 473 147 463 140 457C134 450 124 450 118 457Z" class="fa-secondary"/><path d="M174 277L80 370C68 383 68 403 80 416C86 422 95 425 103 425C111 425 119 422 126 416L217 324L187 294C182 289 178 283 174 277ZM333 96H128C110 96 96 110 96 128S110 160 128 160H234L214 177C200 189 192 206 191 223C191 241 197 258 210 271L288 349V432C288 450 302 464 320 464S352 450 352 432V343C352 330 347 318 338 309L277 248C278 247 278 247 279 247L361 164C373 153 376 136 370 121C364 106 349 96 333 96ZM400 0C374 0 352 22 352 48S374 96 400 96C427 96 448 74 448 48S427 0 400 0Z" class="fa-primary"/></svg>