<svg xmlns="http://www.w3.org/2000/svg" viewBox="0 0 576 512"><!-- Font Awesome Pro 6.0.0-alpha1 by @fontawesome - https://fontawesome.com License - https://fontawesome.com/license (Commercial License) --><defs><style>.fa-secondary{opacity:.4}</style></defs><path d="M562 368C534 365 508 353 492 334C485 326 474 327 467 335C428 380 336 379 300 334C297 330 292 328 288 328C283 328 279 330 276 334C270 341 262 347 253 352C252 353 250 354 248 355C204 377 140 371 109 335C102 327 91 326 84 334C68 353 42 365 14 368C6 369 0 376 0 384V416C0 425 8 433 17 432C46 429 73 421 96 406C153 441 233 440 288 406C343 440 423 441 480 406C503 421 530 429 559 432C568 433 576 425 576 416V384C576 376 570 369 562 368Z" class="fa-secondary"/><path d="M471 111L433 102C383 91 331 96 285 117C251 132 222 156 202 184L180 213C159 241 147 274 145 308C157 315 174 320 192 320C218 320 240 311 251 298C260 287 273 280 288 280L288 280L288 280C303 280 316 287 325 298C336 311 358 320 384 320C408 320 431 312 443 298C444 297 445 296 446 295L305 178C308 177 310 176 312 175C345 160 382 156 418 164L457 173C474 177 491 166 495 149C499 132 488 115 471 111ZM96 96C61 96 32 125 32 160C32 195 61 224 96 224S160 195 160 160C160 125 131 96 96 96Z" class="fa-primary"/></svg>