<svg xmlns="http://www.w3.org/2000/svg" viewBox="0 0 256 512"><!-- Font Awesome Pro 6.0.0-alpha1 by @fontawesome - https://fontawesome.com License - https://fontawesome.com/license (Commercial License) --><defs><style>.fa-secondary{opacity:.4}</style></defs><path d="M204 183L255 364C258 374 251 384 240 384H192V480C192 498 178 512 160 512H96C78 512 64 498 64 480V384H16C5 384 -2 374 1 364L52 183C56 169 69 160 83 160H173C187 160 200 169 204 183Z" class="fa-secondary"/><path d="M64 64C64 29 93 0 128 0S192 29 192 64S163 128 128 128S64 99 64 64Z" class="fa-primary"/></svg>