<svg xmlns="http://www.w3.org/2000/svg" viewBox="0 0 576 512"><!-- Font Awesome Pro 6.0.0-alpha1 by @fontawesome - https://fontawesome.com License - https://fontawesome.com/license (Commercial License) --><defs><style>.fa-secondary{opacity:.4}</style></defs><path d="M192 496C192 505 199 512 208 512H240C249 512 256 505 256 496V320H192V496ZM544 0H512V496C512 505 519 512 528 512H560C569 512 576 505 576 496V32C576 14 562 0 544 0ZM192 32V192H256V0H224C206 0 192 14 192 32ZM288 32L319 255L289 410C284 431 302 448 320 448C335 448 348 439 352 418C353 434 367 448 384 448C402 448 416 434 416 416C416 434 430 448 448 448S480 434 480 416V0H288V32Z" class="fa-secondary"/><path d="M64 128C90 128 112 106 112 80S90 32 64 32S16 54 16 80S38 128 64 128ZM224 224H173L128 179C116 167 100 160 83 160H64C47 160 31 167 19 179C7 191 0 207 0 224L0 320L0 480C0 498 14 512 32 512S64 498 64 480L64 379C65 380 66 381 66 381L96 424V480C96 498 110 512 128 512C145 512 160 498 160 480V423C160 414 157 404 153 395L112 334V253L133 274C142 283 154 288 166 288H224C242 288 256 274 256 256S242 224 224 224Z" class="fa-primary"/></svg>