<svg xmlns="http://www.w3.org/2000/svg" viewBox="0 0 320 512"><!-- Font Awesome Pro 6.0.0-alpha1 by @fontawesome - https://fontawesome.com License - https://fontawesome.com/license (Commercial License) --><defs><style>.fa-secondary{opacity:.4}</style></defs><path d="M74 386C70 394 66 401 59 407L9 457C-3 470 -3 490 9 503C22 515 42 515 55 503L114 443C120 437 125 430 128 422L142 388C86 328 103 346 94 334L74 386ZM208 96C235 96 256 74 256 48S235 0 208 0S160 22 160 48S182 96 208 96ZM302 245L279 233L269 204C255 159 214 128 167 128C131 128 111 138 74 153C52 162 35 178 24 199L18 213C10 229 16 248 32 256C47 264 66 257 74 242L81 228C84 221 90 216 97 213L124 202L109 263C104 283 109 305 124 321L184 387C191 395 196 404 199 414L217 488C221 505 239 515 256 511S283 489 279 472L257 383C254 373 249 363 242 356L197 306L214 237L219 254C225 270 236 283 251 291L274 302C290 310 309 304 317 288C324 272 318 253 302 245Z" class="fa-secondary"/></svg>