<svg xmlns="http://www.w3.org/2000/svg" viewBox="0 0 384 512"><!-- Font Awesome Pro 6.0.0-alpha1 by @fontawesome - https://fontawesome.com License - https://fontawesome.com/license (Commercial License) --><defs><style>.fa-secondary{opacity:.4}</style></defs><path d="M0 160V176C0 185 7 192 16 192H32V144H16C7 144 0 151 0 160ZM0 240V256C0 265 7 272 16 272H32V224H16C7 224 0 231 0 240ZM112 272H247C259 259 267 242 270 224H112V272ZM368 144H339C345 159 350 174 351 190C351 191 351 191 351 192H368C377 192 384 185 384 176V160C384 151 377 144 368 144ZM112 144V192H270C267 174 259 157 247 144H112ZM368 224H351C350 241 346 257 340 272H368C377 272 384 265 384 256V240C384 231 377 224 368 224Z" class="fa-secondary"/><path d="M351 190C342 99 260 32 168 32H96C61 32 32 61 32 96V456C32 469 43 480 56 480H88C101 480 112 469 112 456V384H176C279 384 361 295 351 190ZM176 304H112V112H176C229 112 272 155 272 208S229 304 176 304Z" class="fa-primary"/></svg>