<svg xmlns="http://www.w3.org/2000/svg" viewBox="0 0 640 512"><!-- Font Awesome Pro 6.0.0-alpha1 by @fontawesome - https://fontawesome.com License - https://fontawesome.com/license (Commercial License) --><defs><style>.fa-secondary{opacity:.4}</style></defs><path d="M272 368L228 314C219 303 204 299 191 305L83 351C69 357 61 372 65 387L88 488C91 502 104 512 119 512C226 512 325 475 403 412L314 343C301 352 287 360 272 368ZM552 24L451 1C436 -3 421 5 415 19L369 128C363 140 367 155 378 164L431 208C419 233 404 256 386 277L471 344C536 265 576 165 576 54C576 40 566 27 552 24Z" class="fa-secondary"/><path d="M635 503C627 513 612 515 601 507L9 43C-1 35 -3 20 5 9C10 3 17 0 24 0C29 0 34 2 39 5L631 469C641 477 643 492 635 503Z" class="fa-primary"/></svg>