<svg xmlns="http://www.w3.org/2000/svg" viewBox="0 0 512 512"><!-- Font Awesome Pro 6.0.0-alpha1 by @fontawesome - https://fontawesome.com License - https://fontawesome.com/license (Commercial License) --><defs><style>.fa-secondary{opacity:.4}</style></defs><path d="M284 182C274 174 259 175 250 185C242 196 244 211 254 219C265 228 272 242 272 256C272 270 265 284 254 293C244 301 242 316 250 327C255 332 262 335 269 335C274 335 280 334 284 330C307 312 320 285 320 256S307 200 284 182ZM345 108C335 100 319 101 311 111C303 122 304 137 314 145C348 173 368 213 368 256S348 339 314 367C304 375 303 390 311 401C316 406 323 409 330 409C335 409 340 408 345 404C390 367 416 313 416 256S390 145 345 108ZM406 33C396 25 381 26 372 36C364 47 365 62 376 70C432 116 464 184 464 256S432 396 376 442C365 450 364 465 372 476C377 481 384 484 391 484C396 484 402 482 406 479C473 424 512 343 512 256S473 88 406 33Z" class="fa-secondary"/><path d="M14 169C-5 225 -5 287 14 343L68 338C78 336 88 342 92 352L126 437C130 448 126 460 117 466L49 508C39 514 27 513 19 505C-118 368 -118 144 19 7C27 -1 39 -2 49 4L116 46C126 52 130 64 126 75L92 160C88 170 78 176 68 175L14 169Z" class="fa-primary"/></svg>