<svg xmlns="http://www.w3.org/2000/svg" viewBox="0 0 512 512"><!-- Font Awesome Pro 6.0.0-alpha1 by @fontawesome - https://fontawesome.com License - https://fontawesome.com/license (Commercial License) --><defs><style>.fa-secondary{opacity:.4}</style></defs><path d="M208 367L181 334L5 405L15 447L208 367ZM447 15L405 5L334 181L368 208L447 15Z" class="fa-secondary"/><path d="M181 334L164 314C155 303 140 299 128 305L19 351C5 357 -3 372 1 387L5 405L181 334ZM488 24L447 15L368 208L368 208C334 277 277 333 208 367L15 447L24 488C27 502 40 512 55 512C307 512 512 307 512 55C512 40 502 27 488 24ZM334 181L405 5L387 1C372 -3 357 5 351 19L305 127C299 140 303 155 314 164L334 181Z" class="fa-primary"/></svg>