<svg xmlns="http://www.w3.org/2000/svg" viewBox="0 0 512 512"><!-- Font Awesome Pro 6.0.0-alpha1 by @fontawesome - https://fontawesome.com License - https://fontawesome.com/license (Commercial License) --><defs><style>.fa-secondary{opacity:.4}</style></defs><path d="M503 382L466 352C455 344 440 346 432 356L414 378C411 382 406 384 401 384C392 384 384 377 384 367V160H288V363C288 418 326 468 380 478C422 486 463 470 489 438L507 416C515 406 514 390 503 382ZM128 302C128 341 115 378 92 408C84 417 86 431 94 439L128 473C139 483 155 482 164 471C203 423 224 365 224 302V160H128V302Z" class="fa-secondary"/><path d="M16 160C2 160 -5 143 5 133L55 83C67 71 83 64 100 64H488C501 64 512 75 512 88V136C512 149 501 160 488 160H16Z" class="fa-primary"/></svg>