<svg xmlns="http://www.w3.org/2000/svg" viewBox="0 0 512 512"><!-- Font Awesome Pro 6.0.0-alpha1 by @fontawesome - https://fontawesome.com License - https://fontawesome.com/license (Commercial License) --><defs><style>.fa-secondary{opacity:.4}</style></defs><path d="M0 480V352H64V448H448V352H512V480C512 498 498 512 480 512H32C14 512 0 498 0 480Z" class="fa-secondary"/><path d="M0 352V185C0 83 82 0 185 0H200C302 0 384 83 384 185C384 209 398 231 419 242L477 270C498 281 512 303 512 327V352H416V408C416 412 412 416 408 416H392C388 416 384 412 384 408V352H352V408C352 412 348 416 344 416H328C324 416 320 412 320 408V352H256V408C256 412 252 416 248 416H232C228 416 224 412 224 408V352H192V408C192 412 188 416 184 416H168C164 416 160 412 160 408V352H128V408C128 412 124 416 120 416H104C100 416 96 412 96 408V352H0Z" class="fa-primary"/></svg>