<svg xmlns="http://www.w3.org/2000/svg" viewBox="0 0 576 512"><!-- Font Awesome Pro 6.0.0-alpha1 by @fontawesome - https://fontawesome.com License - https://fontawesome.com/license (Commercial License) --><defs><style>.fa-secondary{opacity:.4}</style></defs><path d="M576 224V416C576 434 562 448 544 448H32C14 448 0 434 0 416V224H64V384H512V224H576Z" class="fa-secondary"/><path d="M576 96V224H448V304C448 313 441 320 432 320H400C391 320 384 313 384 304V224H320V304C320 313 313 320 304 320H272C263 320 256 313 256 304V224H192V304C192 313 185 320 176 320H144C135 320 128 313 128 304V224H0V96C0 78 14 64 32 64H544C562 64 576 78 576 96Z" class="fa-primary"/></svg>