<svg xmlns="http://www.w3.org/2000/svg" viewBox="0 0 576 512"><!-- Font Awesome Pro 6.0.0-alpha1 by @fontawesome - https://fontawesome.com License - https://fontawesome.com/license (Commercial License) --><defs><style>.fa-secondary{opacity:.4}</style></defs><path d="M528 302L487 426C483 439 470 448 457 448H119C105 448 93 439 88 426L47 302C69 299 84 289 93 282C103 275 106 272 117 272C128 272 131 275 141 282C152 290 170 304 202 304S252 290 264 282C273 275 277 272 288 272S302 275 311 282C323 290 341 304 373 304S423 290 435 282C444 275 448 272 458 272C469 272 473 275 482 282C491 289 506 299 528 302Z" class="fa-secondary"/><path d="M544 240C538 240 534 239 530 237C495 136 400 64 288 64S81 136 46 237C42 239 38 240 32 240C14 240 0 254 0 272S14 304 32 304C64 304 82 290 94 282C103 275 107 272 118 272C128 272 132 275 141 282C153 290 171 304 203 304S253 290 265 282C274 275 278 272 288 272S303 275 312 282C324 290 342 304 374 304S423 290 435 282C444 275 448 272 459 272C470 272 473 275 482 282C494 290 512 304 544 304C562 304 576 290 576 272S562 240 544 240ZM206 151L190 183C181 202 152 188 162 169L178 137C187 118 216 132 206 151ZM304 176C304 197 272 197 272 176V144C272 123 304 123 304 144V176ZM386 183L370 151C360 132 389 118 398 137L414 169C424 188 395 202 386 183Z" class="fa-primary"/></svg>