<svg xmlns="http://www.w3.org/2000/svg" viewBox="0 0 576 512"><!-- Font Awesome Pro 6.0.0-alpha1 by @fontawesome - https://fontawesome.com License - https://fontawesome.com/license (Commercial License) --><defs><style>.fa-secondary{opacity:.4}</style></defs><path d="M560 224H530C522 204 509 186 493 172L512 96H480C451 96 425 110 407 130C399 129 392 128 384 128H256C161 128 96 207 96 288C96 338 120 386 160 416V480C160 498 174 512 192 512H224C242 512 256 498 256 480V448H384V480C384 498 398 512 416 512H448C466 512 480 498 480 480V415C492 406 502 396 511 384H560C569 384 576 377 576 368V240C576 231 569 224 560 224ZM432 288C423 288 416 281 416 272S423 256 432 256S448 263 448 272S441 288 432 288Z" class="fa-secondary"/><path d="M51 256C38 253 30 240 33 227C35 216 45 208 57 208H58C61 208 64 205 64 202V182C64 179 61 176 58 176C29 176 4 196 0 225C0 227 0 229 0 232C0 263 25 288 56 288H96C96 277 97 267 99 256H56C54 256 53 256 51 256ZM432 256C423 256 416 263 416 272S423 288 432 288S448 281 448 272S441 256 432 256ZM339 6C329 2 318 0 306 0C253 0 210 43 210 96C210 109 213 121 218 133C230 130 243 128 256 128H384C388 128 393 128 397 129C415 79 389 24 339 6Z" class="fa-primary"/></svg>