<svg xmlns="http://www.w3.org/2000/svg" viewBox="0 0 576 512"><!-- Font Awesome Pro 6.0.0-alpha1 by @fontawesome - https://fontawesome.com License - https://fontawesome.com/license (Commercial License) --><defs><style>.fa-secondary{opacity:.4}</style></defs><path d="M300 226C296 223 290 223 287 227C242 290 247 377 303 433C360 490 447 495 510 449C514 446 514 441 510 437L300 226ZM530 207C473 151 386 146 323 191C319 194 319 200 322 204L533 415C537 418 543 418 545 414C591 351 586 264 530 207ZM112 32C50 32 0 82 0 144V256H224V144C224 82 174 32 112 32Z" class="fa-secondary"/><path d="M224 256V368C224 430 174 480 112 480S0 430 0 368V256H224Z" class="fa-primary"/></svg>