<svg xmlns="http://www.w3.org/2000/svg" viewBox="0 0 512 512"><!-- Font Awesome Pro 6.0.0-alpha1 by @fontawesome - https://fontawesome.com License - https://fontawesome.com/license (Commercial License) --><defs><style>.fa-secondary{opacity:.4}</style></defs><path d="M109 81L0 492C-1 497 1 503 5 507C9 511 15 513 20 511L431 398C423 211 296 86 109 81ZM128 416C110 416 96 402 96 384C96 366 110 352 128 352C146 352 160 366 160 384C160 402 146 416 128 416ZM176 272C158 272 144 258 144 240C144 222 158 208 176 208C194 208 208 222 208 240C208 258 194 272 176 272ZM272 368C254 368 240 354 240 336C240 318 254 304 272 304C290 304 304 318 304 336C304 354 290 368 272 368Z" class="fa-secondary"/><path d="M159 0C143 -1 128 9 123 24L109 81C296 86 423 211 431 398L488 382C504 377 514 362 512 346C491 165 341 17 159 0ZM128 352C110 352 96 366 96 384C96 402 110 416 128 416C146 416 160 402 160 384C160 366 146 352 128 352ZM176 208C158 208 144 222 144 240C144 258 158 272 176 272C194 272 208 258 208 240C208 222 194 208 176 208ZM272 304C254 304 240 318 240 336C240 354 254 368 272 368C290 368 304 354 304 336C304 318 290 304 272 304Z" class="fa-primary"/></svg>