<svg xmlns="http://www.w3.org/2000/svg" viewBox="0 0 640 512"><!-- Font Awesome Pro 6.0.0-alpha1 by @fontawesome - https://fontawesome.com License - https://fontawesome.com/license (Commercial License) --><defs><style>.fa-secondary{opacity:.4}</style></defs><path d="M0 396V480C0 498 14 512 32 512L160 512V304L19 366C8 372 0 383 0 396ZM621 366L480 304V512L608 512C626 512 640 498 640 480V396C640 383 632 372 621 366Z" class="fa-secondary"/><path d="M465 247L416 218V102C416 94 413 86 407 80L331 5C325 -2 315 -2 309 5L233 80C227 86 224 94 224 102V218L175 247C166 252 160 263 160 274V512H256V416C256 381 285 352 320 352C355 352 384 381 384 416V512H480V274C480 263 474 252 465 247Z" class="fa-primary"/></svg>