<svg xmlns="http://www.w3.org/2000/svg" viewBox="0 0 512 512"><!-- Font Awesome Pro 6.0.0-alpha1 by @fontawesome - https://fontawesome.com License - https://fontawesome.com/license (Commercial License) --><defs><style>.fa-secondary{opacity:.4}</style></defs><path d="M272 256H383L130 9C124 3 116 0 108 0L32 0C12 0 -3 19 1 39L61 305L234 261C247 258 259 256 272 256ZM360 352H216C203 352 192 363 192 376C192 389 203 400 216 400H360C373 400 384 389 384 376C384 363 373 352 360 352Z" class="fa-secondary"/><path d="M272 256C259 256 247 258 234 261L36 312C15 317 0 336 0 358V382C0 402 12 420 31 427L225 502C243 509 261 512 280 512H512V256H272ZM360 400H216C203 400 192 389 192 376C192 363 203 352 216 352H360C373 352 384 363 384 376C384 389 373 400 360 400Z" class="fa-primary"/></svg>