<svg xmlns="http://www.w3.org/2000/svg" viewBox="0 0 576 512"><!-- Font Awesome Pro 6.0.0-alpha1 by @fontawesome - https://fontawesome.com License - https://fontawesome.com/license (Commercial License) --><defs><style>.fa-secondary{opacity:.4}</style></defs><path d="M448 288C448 412 348 512 224 512S0 412 0 288C0 256 7 226 19 198C41 226 77 256 90 256H115C123 256 131 259 137 265L192 320V352C192 370 206 384 224 384C224 384 224 424 224 447C224 452 226 456 229 459C233 462 237 464 242 463C245 463 249 462 252 462C261 460 269 454 273 446L313 366C318 357 320 347 320 337V320C320 302 306 288 288 288H223C214 288 204 284 197 277C185 265 185 246 195 234L245 176C268 142 243 95 220 64C221 64 223 64 224 64C348 64 448 164 448 288Z" class="fa-secondary"/><path d="M512 0C477 0 448 29 448 64S477 128 512 128S576 99 576 64S548 0 512 0ZM90 256H115C123 256 132 259 138 265L192 320V352C192 370 207 384 224 384C224 384 224 424 224 447C224 452 226 456 229 459C233 462 237 464 242 463C245 463 249 462 252 462C261 460 269 454 273 446L313 366C318 357 320 347 320 337V320C320 302 306 288 288 288H224C214 288 204 284 197 277C185 265 185 246 196 234L245 176C268 142 243 95 220 64C130 66 53 120 19 198C41 226 77 256 90 256Z" class="fa-primary"/></svg>