<svg xmlns="http://www.w3.org/2000/svg" viewBox="0 0 576 512"><!-- Font Awesome Pro 6.0.0-alpha1 by @fontawesome - https://fontawesome.com License - https://fontawesome.com/license (Commercial License) --><defs><style>.fa-secondary{opacity:.4}</style></defs><path d="M215 192H366L260 8C258 4 252 0 247 0H181C170 0 163 10 166 20L215 192ZM166 492C163 502 170 512 181 512H247C252 512 258 509 260 504L366 320H215L166 492Z" class="fa-secondary"/><path d="M480 192C515 192 576 221 576 256S515 320 480 320H112L69 378C66 382 61 384 56 384H16C6 384 -2 374 1 364L32 256L0 148C-2 138 6 128 16 128H56C61 128 66 130 69 134L112 192H480Z" class="fa-primary"/></svg>