<svg xmlns="http://www.w3.org/2000/svg" viewBox="0 0 640 512"><!-- Font Awesome Pro 6.0.0-alpha1 by @fontawesome - https://fontawesome.com License - https://fontawesome.com/license (Commercial License) --><defs><style>.fa-secondary{opacity:.4}</style></defs><path d="M624 448H16C7 448 0 455 0 464V496C0 505 7 512 16 512H624C633 512 640 505 640 496V464C640 455 633 448 624 448Z" class="fa-secondary"/><path d="M575 344C571 358 557 371 528 379C501 386 473 385 447 378L159 300C150 297 141 292 134 286L45 206C38 200 32 191 32 182L32 81C32 70 42 62 53 65L92 76C98 77 102 81 103 85L131 153L233 181L185 17C185 6 195 -2 206 1L271 18C277 20 281 24 283 30L383 222L481 249C507 256 532 269 552 289C573 311 579 329 575 344Z" class="fa-primary"/></svg>