<svg xmlns="http://www.w3.org/2000/svg" viewBox="0 0 576 512"><!-- Font Awesome Pro 6.0.0-alpha1 by @fontawesome - https://fontawesome.com License - https://fontawesome.com/license (Commercial License) --><defs><style>.fa-secondary{opacity:.4}</style></defs><path d="M166 492C163 502 170 512 181 512H247C252 512 258 509 260 504L366 320H215L166 492ZM215 192H366L260 8C258 4 252 0 247 0H181C170 0 163 10 166 20L215 192Z" class="fa-secondary"/><path d="M480 192H112L69 134C66 130 61 128 56 128H16C6 128 -2 138 0 148L23 226C10 230 0 241 0 256S10 282 23 286L1 364C-2 374 6 384 16 384H56C61 384 66 382 69 378L112 320H480C515 320 576 291 576 256S515 192 480 192ZM336 128C345 128 352 121 352 112V80C352 71 345 64 336 64H293L329 128H336ZM336 384H329L293 448H336C345 448 352 441 352 432V400C352 391 345 384 336 384Z" class="fa-primary"/></svg>