<svg xmlns="http://www.w3.org/2000/svg" viewBox="0 0 576 512"><!-- Font Awesome Pro 6.0.0-alpha1 by @fontawesome - https://fontawesome.com License - https://fontawesome.com/license (Commercial License) --><defs><style>.fa-secondary{opacity:.4}</style></defs><path d="M306 192H347L322 14C321 6 314 0 306 0H270C262 0 255 6 254 14L227 199L270 194C282 193 294 192 306 192ZM49 376C50 381 54 384 58 384H102C106 384 110 381 111 376L121 302L37 292L49 376ZM270 318L227 313L254 498C255 506 262 512 270 512H306C314 512 321 506 322 498L347 320H306C294 320 282 319 270 318ZM102 128H58C54 128 50 131 49 136L37 220L121 210L111 136C110 131 106 128 102 128Z" class="fa-secondary"/><path d="M368 128V144C368 153 375 160 384 160S400 153 400 144V112C409 112 416 105 416 96C416 87 409 80 400 80V48C400 39 393 32 384 32S368 39 368 48V64H329L338 128H368ZM224 128H238L247 64H224C206 64 192 78 192 96C192 114 206 128 224 128ZM480 192H306C294 192 282 193 270 194L32 220C14 222 0 238 0 256C0 274 14 290 32 292L270 318C282 319 294 320 306 320H465C494 320 524 312 548 296C623 245 528 192 480 192ZM224 384C206 384 192 398 192 416C192 434 206 448 224 448H247L238 384H224ZM400 400V368C400 359 393 352 384 352S368 359 368 368V384H338L329 448H368V464C368 473 375 480 384 480S400 473 400 464V432C409 432 416 425 416 416C416 407 409 400 400 400Z" class="fa-primary"/></svg>