<svg xmlns="http://www.w3.org/2000/svg" viewBox="0 0 640 512"><!-- Font Awesome Pro 6.0.0-alpha1 by @fontawesome - https://fontawesome.com License - https://fontawesome.com/license (Commercial License) --><defs><style>.fa-secondary{opacity:.4}</style></defs><path d="M32 148L64 256L32 364C30 374 38 384 48 384H88C93 384 98 382 101 378L144 320H247L198 492C195 502 203 512 213 512H279C284 512 290 509 293 504L363 381L42 129C35 132 31 140 32 148ZM441 320H512C547 320 608 291 608 256S547 192 512 192H398L293 8C290 4 284 0 279 0H213C203 0 195 10 198 20L238 161L441 320Z" class="fa-secondary"/><path d="M635 503C627 513 612 515 601 507L9 43C-1 35 -3 20 5 9C10 3 17 0 24 0C29 0 34 2 39 5L631 469C641 477 643 492 635 503Z" class="fa-primary"/></svg>