<svg xmlns="http://www.w3.org/2000/svg" viewBox="0 0 512 512"><!-- Font Awesome Pro 6.0.0-alpha1 by @fontawesome - https://fontawesome.com License - https://fontawesome.com/license (Commercial License) --><defs><style>.fa-secondary{opacity:.4}</style></defs><path d="M323 323C187 460 46 540 9 503C-14 479 9 415 64 336C70 351 79 364 88 377C78 397 75 411 82 418C100 436 190 376 283 283C376 190 436 100 418 82C411 75 397 78 377 88C364 79 351 70 336 64C415 9 479 -14 503 9C540 46 460 187 323 323Z" class="fa-secondary"/><path d="M413 119C374 76 319 48 256 48C141 48 48 141 48 256C48 319 76 374 119 413C158 394 220 346 283 283C346 220 394 158 413 119ZM448 176C416 222 374 273 323 323S222 416 176 448C201 458 228 464 256 464C371 464 464 371 464 256C464 228 458 201 448 176Z" class="fa-primary"/></svg>