<svg xmlns="http://www.w3.org/2000/svg" viewBox="0 0 384 512"><!-- Font Awesome Pro 6.0.0-alpha1 by @fontawesome - https://fontawesome.com License - https://fontawesome.com/license (Commercial License) --><defs><style>.fa-secondary{opacity:.4}</style></defs><path d="M96 0C78 0 64 14 64 32V160H128V32C128 14 114 0 96 0ZM288 0C270 0 256 14 256 32V160H320V32C320 14 306 0 288 0Z" class="fa-secondary"/><path d="M368 160H16C7 160 0 167 0 176V208C0 217 7 224 16 224H32V256C32 332 86 398 160 413V512H224V413C298 398 352 332 352 256V224H368C377 224 384 217 384 208V176C384 167 377 160 368 160Z" class="fa-primary"/></svg>