<svg xmlns="http://www.w3.org/2000/svg" viewBox="0 0 448 512"><!-- Font Awesome Pro 6.0.0-alpha1 by @fontawesome - https://fontawesome.com License - https://fontawesome.com/license (Commercial License) --><defs><style>.fa-secondary{opacity:.4}</style></defs><path d="M240 160H272V128H248C244 128 240 132 240 136V160ZM240 200C240 204 244 208 248 208H272V176H240V200ZM320 136C320 132 316 128 312 128H288V160H320V136ZM320 200V176H288V208H312C316 208 320 204 320 200ZM240 16C240 7 233 0 224 0S208 7 208 16V32H240V16ZM136 208H160V176H128V200C128 204 132 208 136 208ZM400 464H48C39 464 32 471 32 480V496C32 505 39 512 48 512H400C409 512 416 505 416 496V480C416 471 409 464 400 464ZM160 128H136C132 128 128 132 128 136V160H160V128ZM208 136C208 132 204 128 200 128H176V160H208V136ZM208 200V176H176V208H200C204 208 208 204 208 200Z" class="fa-secondary"/><path d="M360 64H352V48C352 39 345 32 336 32H112C103 32 96 39 96 48V64H88C75 64 64 75 64 88V464H384V88C384 75 373 64 360 64ZM128 136C128 132 132 128 136 128H160V160H128V136ZM128 176H160V208H136C132 208 128 204 128 200V176ZM208 312C208 316 204 320 200 320H136C132 320 128 316 128 312V248C128 244 132 240 136 240H200C204 240 208 244 208 248V312ZM208 200C208 204 204 208 200 208H176V176H208V200ZM208 160H176V128H200C204 128 208 132 208 136V160ZM272 208H248C244 208 240 204 240 200V176H272V208ZM272 160H240V136C240 132 244 128 248 128H272V160ZM320 200C320 204 316 208 312 208H288V176H320V200ZM320 160H288V128H312C316 128 320 132 320 136V160Z" class="fa-primary"/></svg>