<svg xmlns="http://www.w3.org/2000/svg" viewBox="0 0 448 512"><!-- Font Awesome Pro 6.0.0-alpha1 by @fontawesome - https://fontawesome.com License - https://fontawesome.com/license (Commercial License) --><defs><style>.fa-secondary{opacity:.4}</style></defs><path d="M302 370L214 506C212 510 208 512 204 512C196 512 190 505 192 497L215 416H156C149 416 143 410 144 402L180 266C181 261 186 256 192 256H260C268 256 274 263 272 271L234 352H292C301 352 307 362 302 370Z" class="fa-secondary"/><path d="M448 320C448 373 405 416 352 416H273L302 370C307 362 301 352 292 352H234L272 271C274 263 268 256 260 256H192C186 256 181 261 180 266L144 402C143 410 149 416 156 416H96C43 416 0 373 0 320C0 274 32 236 75 227C68 217 64 205 64 192C64 157 93 128 128 128H144C188 128 224 92 224 48C224 31 218 15 209 2C214 1 219 0 224 0C277 0 320 43 320 96C320 107 318 118 314 128H320C355 128 384 157 384 192C384 205 380 217 373 227C416 236 448 274 448 320Z" class="fa-primary"/></svg>