<svg xmlns="http://www.w3.org/2000/svg" viewBox="0 0 512 512"><!-- Font Awesome Pro 6.0.0-alpha1 by @fontawesome - https://fontawesome.com License - https://fontawesome.com/license (Commercial License) --><defs><style>.fa-secondary{opacity:.4}</style></defs><path d="M480 311V313C480 335 470 356 453 369C449 368 445 368 441 368H71C67 368 63 368 59 369C42 356 32 335 32 313V311C32 272 64 240 103 240H409C448 240 480 272 480 311Z" class="fa-secondary"/><path d="M394 240C421 217 424 177 401 150C388 136 371 128 352 128H346C352 112 353 94 350 77C341 26 292 -8 241 2C267 37 258 87 223 113C209 123 193 128 176 128H160C125 128 96 156 96 191C96 210 104 228 118 240H394ZM451 369L452 369C448 368 445 368 441 368H71C67 368 64 368 60 369C60 369 60 369 61 369C21 375 -5 412 1 452C7 486 37 512 72 512H440C480 512 512 480 512 440C512 405 486 375 451 369Z" class="fa-primary"/></svg>