<svg xmlns="http://www.w3.org/2000/svg" viewBox="0 0 448 512"><!-- Font Awesome Pro 6.0.0-alpha1 by @fontawesome - https://fontawesome.com License - https://fontawesome.com/license (Commercial License) --><defs><style>.fa-secondary{opacity:.4}</style></defs><path d="M412 139C405 127 392 119 378 118C385 106 385 92 378 81C369 65 350 57 333 60C332 44 321 28 304 23C290 19 276 21 264 29C264 29 264 28 264 27C257 6 233 -5 210 2C198 6 187 16 183 29C172 21 158 19 144 23C127 28 116 44 115 60C98 57 79 65 70 81C63 92 63 106 70 118C56 119 43 127 36 139C33 146 32 153 32 160H416C416 153 415 146 412 139Z" class="fa-secondary"/><path d="M0 189L0 189C0 191 0 193 1 195L74 488C77 502 90 512 105 512C159 512 289 512 343 512C358 512 371 502 374 488L447 195C448 193 448 191 448 189V189C448 173 435 160 420 160H28C13 160 0 173 0 189ZM146 464C145 464 145 464 144 464C136 464 129 458 128 450L100 226C99 216 106 208 116 208H116C124 208 131 214 132 222L160 446C161 455 155 463 146 464ZM224 464C215 464 208 457 208 448V224C208 215 215 208 224 208H224C233 208 240 215 240 224V448C240 457 233 464 224 464ZM320 450C319 458 312 464 304 464C303 464 303 464 302 464C293 463 287 455 288 446L316 222C317 214 324 208 332 208H332C342 208 349 216 348 226L320 450Z" class="fa-primary"/></svg>