<svg xmlns="http://www.w3.org/2000/svg" viewBox="0 0 384 512"><!-- Font Awesome Pro 6.0.0-alpha1 by @fontawesome - https://fontawesome.com License - https://fontawesome.com/license (Commercial License) --><defs><style>.fa-secondary{opacity:.4}</style></defs><path d="M32 176H144C153 176 160 183 160 192C160 201 153 208 144 208H32V272H144C153 272 160 279 160 288C160 297 153 304 144 304H32V368H144C153 368 160 375 160 384C160 393 153 400 144 400H32V448C32 483 61 512 96 512H288C323 512 352 483 352 448V96H32V176Z" class="fa-secondary"/><path d="M360 0H24C11 0 0 11 0 24V72C0 85 11 96 24 96H360C373 96 384 85 384 72V24C384 11 373 0 360 0ZM144 176H32V208H144C153 208 160 201 160 192S153 176 144 176ZM144 272H32V304H144C153 304 160 297 160 288S153 272 144 272ZM144 368H32V400H144C153 400 160 393 160 384S153 368 144 368Z" class="fa-primary"/></svg>