<svg xmlns="http://www.w3.org/2000/svg" viewBox="0 0 384 512"><!-- Font Awesome Pro 6.0.0-alpha1 by @fontawesome - https://fontawesome.com License - https://fontawesome.com/license (Commercial License) --><defs><style>.fa-secondary{opacity:.4}</style></defs><path d="M32 448C32 483 61 512 96 512H288C323 512 352 483 352 448V96H32V448ZM96 288C96 279 103 272 112 272H160V224C160 215 167 208 176 208H208C217 208 224 215 224 224V272H272C281 272 288 279 288 288V320C288 329 281 336 272 336H224V384C224 393 217 400 208 400H176C167 400 160 393 160 384V336H112C103 336 96 329 96 320V288Z" class="fa-secondary"/><path d="M272 272H224V224C224 215 217 208 208 208H176C167 208 160 215 160 224V272H112C103 272 96 279 96 288V320C96 329 103 336 112 336H160V384C160 393 167 400 176 400H208C217 400 224 393 224 384V336H272C281 336 288 329 288 320V288C288 279 281 272 272 272ZM360 0H24C11 0 0 11 0 24V72C0 85 11 96 24 96H360C373 96 384 85 384 72V24C384 11 373 0 360 0Z" class="fa-primary"/></svg>