<svg xmlns="http://www.w3.org/2000/svg" viewBox="0 0 576 512"><!-- Font Awesome Pro 6.0.0-alpha1 by @fontawesome - https://fontawesome.com License - https://fontawesome.com/license (Commercial License) --><defs><style>.fa-secondary{opacity:.4}</style></defs><path d="M512 352H64C46 352 32 338 32 320V64H96V288H480V64H544V320C544 338 530 352 512 352Z" class="fa-secondary"/><path d="M560 0H16C7 0 0 7 0 16V48C0 57 7 64 16 64H560C569 64 576 57 576 48V16C576 7 569 0 560 0ZM320 387V352H256V387L181 462C174 468 174 479 181 485L203 507C209 514 220 514 226 507L288 445L350 507C356 514 366 514 373 507L395 485C401 479 401 468 395 462L320 387Z" class="fa-primary"/></svg>