<svg xmlns="http://www.w3.org/2000/svg" viewBox="0 0 512 512"><!-- Font Awesome Pro 6.0.0-alpha1 by @fontawesome - https://fontawesome.com License - https://fontawesome.com/license (Commercial License) --><defs><style>.fa-secondary{opacity:.4}</style></defs><path d="M384 448H128V384H64V480C64 498 78 512 96 512H416C434 512 448 498 448 480V384H384V448ZM439 55L393 9C387 3 379 0 371 0H96C78 0 64 14 64 32V192H128V64H358L384 90V192H448V77C448 69 445 61 439 55Z" class="fa-secondary"/><path d="M448 192H64C29 192 0 221 0 256V352C0 370 14 384 32 384H128V352H384V384H480C498 384 512 370 512 352V256C512 221 483 192 448 192ZM432 296C419 296 408 285 408 272C408 259 419 248 432 248S456 259 456 272C456 285 445 296 432 296Z" class="fa-primary"/></svg>