<svg xmlns="http://www.w3.org/2000/svg" viewBox="0 0 640 512"><!-- Font Awesome Pro 6.0.0-alpha1 by @fontawesome - https://fontawesome.com License - https://fontawesome.com/license (Commercial License) --><defs><style>.fa-secondary{opacity:.4}</style></defs><path d="M144 192H128L225 362C228 338 248 320 272 320H275L187 166C179 181 163 192 144 192ZM192 64V128H448V64H192Z" class="fa-secondary"/><path d="M592 0H496C470 0 448 22 448 48V144C448 170 470 192 496 192H592C618 192 640 170 640 144V48C640 22 618 0 592 0ZM368 320H272C246 320 224 342 224 368V464C224 490 246 512 272 512H368C394 512 416 490 416 464V368C416 342 394 320 368 320ZM144 0H48C22 0 0 22 0 48V144C0 170 22 192 48 192H144C170 192 192 170 192 144V48C192 22 170 0 144 0Z" class="fa-primary"/></svg>