<svg xmlns="http://www.w3.org/2000/svg" viewBox="0 0 512 512"><!-- Font Awesome Pro 6.0.0-alpha1 by @fontawesome - https://fontawesome.com License - https://fontawesome.com/license (Commercial License) --><defs><style>.fa-secondary{opacity:.4}</style></defs><path d="M464 256H384V192C384 157 413 128 448 128H456C469 128 480 117 480 104V56C480 43 469 32 456 32H448C360 32 288 104 288 192V432C288 458 310 480 336 480H464C490 480 512 458 512 432V304C512 278 490 256 464 256Z" class="fa-secondary"/><path d="M176 256H96V192C96 157 125 128 160 128H168C181 128 192 117 192 104V56C192 43 181 32 168 32H160C72 32 0 104 0 192V432C0 458 22 480 48 480H176C202 480 224 458 224 432V304C224 278 202 256 176 256Z" class="fa-primary"/></svg>