<svg xmlns="http://www.w3.org/2000/svg" viewBox="0 0 512 512"><!-- Font Awesome Pro 6.0.0-alpha1 by @fontawesome - https://fontawesome.com License - https://fontawesome.com/license (Commercial License) --><defs><style>.fa-secondary{opacity:.4}</style></defs><path d="M448 128H64C29 128 0 157 0 192V448C0 483 29 512 64 512H448C483 512 512 483 512 448V192C512 157 483 128 448 128ZM208 424C208 428 204 432 200 432H88C84 432 80 428 80 424V408C80 404 84 400 88 400H200C204 400 208 404 208 408V424ZM224 360C224 364 220 368 216 368H72C68 368 64 364 64 360V344C64 340 68 336 72 336H216C220 336 224 340 224 344V360ZM384 448C349 448 320 419 320 384S349 320 384 320C419 320 448 349 448 384S419 448 384 448ZM416 256H96C78 256 64 242 64 224S78 192 96 192H416C434 192 448 206 448 224S434 256 416 256Z" class="fa-secondary"/><path d="M511 17C507 5 494 -3 481 1L52 127C44 129 37 133 30 138C40 132 51 128 64 128H219L495 47C507 43 515 30 511 17ZM416 192H96C78 192 64 206 64 224S78 256 96 256H416C434 256 448 242 448 224S434 192 416 192ZM384 320C349 320 320 349 320 384S349 448 384 448C419 448 448 419 448 384S419 320 384 320Z" class="fa-primary"/></svg>