<svg xmlns="http://www.w3.org/2000/svg" viewBox="0 0 640 512"><!-- Font Awesome Pro 6.0.0-alpha1 by @fontawesome - https://fontawesome.com License - https://fontawesome.com/license (Commercial License) --><defs><style>.fa-secondary{opacity:.4}</style></defs><path d="M544 352V464C544 473 537 480 528 480H496C487 480 480 473 480 464V352C480 262 405 189 314 192C227 195 160 269 160 356V464C160 473 153 480 144 480H112C103 480 96 473 96 464V357C96 235 191 132 313 128C440 124 544 226 544 352Z" class="fa-secondary"/><path d="M314 224C245 228 192 287 192 356V464C192 473 199 480 208 480H240C249 480 256 473 256 464V354C256 320 282 290 316 288C353 286 384 315 384 352V464C384 473 391 480 400 480H432C441 480 448 473 448 464V352C448 279 387 221 314 224ZM312 32C138 36 0 183 0 358V464C0 473 7 480 16 480H48C57 480 64 473 64 464V357C64 214 181 94 324 96C464 98 576 212 576 352V464C576 473 583 480 592 480H624C633 480 640 473 640 464V352C640 173 492 28 312 32Z" class="fa-primary"/></svg>