<svg xmlns="http://www.w3.org/2000/svg" viewBox="0 0 448 512"><!-- Font Awesome Pro 6.0.0-alpha1 by @fontawesome - https://fontawesome.com License - https://fontawesome.com/license (Commercial License) --><defs><style>.fa-secondary{opacity:.4}</style></defs><path d="M390 3L352 48L298 3C292 -1 284 -1 278 3L224 48L170 3C164 -1 156 -1 150 3L96 48L58 3C47 -5 32 3 32 16V496C32 509 47 517 58 509L96 464L150 509C156 513 164 513 170 509L224 464L278 509C284 513 292 513 298 509L352 464L390 509C401 517 416 509 416 496V16C416 3 401 -5 390 3ZM336 368H112C103 368 96 361 96 352C96 343 103 336 112 336H336C345 336 352 343 352 352C352 361 345 368 336 368ZM336 272H112C103 272 96 265 96 256C96 247 103 240 112 240H336C345 240 352 247 352 256C352 265 345 272 336 272ZM336 176H112C103 176 96 169 96 160C96 151 103 144 112 144H336C345 144 352 151 352 160C352 169 345 176 336 176Z" class="fa-secondary"/><path d="M336 336H112C103 336 96 343 96 352C96 361 103 368 112 368H336C345 368 352 361 352 352C352 343 345 336 336 336ZM112 176H336C345 176 352 169 352 160C352 151 345 144 336 144H112C103 144 96 151 96 160C96 169 103 176 112 176ZM336 240H112C103 240 96 247 96 256C96 265 103 272 112 272H336C345 272 352 265 352 256C352 247 345 240 336 240Z" class="fa-primary"/></svg>