<svg xmlns="http://www.w3.org/2000/svg" viewBox="0 0 576 512"><!-- Font Awesome Pro 6.0.0-alpha1 by @fontawesome - https://fontawesome.com License - https://fontawesome.com/license (Commercial License) --><defs><style>.fa-secondary{opacity:.4}</style></defs><path d="M528 32H48C22 32 0 54 0 80V432C0 458 22 480 48 480H528C554 480 576 458 576 432V80C576 54 554 32 528 32ZM128 368C128 377 121 384 112 384H80C71 384 64 377 64 368V144C64 135 71 128 80 128H112C121 128 128 135 128 144V368ZM192 376C192 380 188 384 184 384H168C164 384 160 380 160 376V136C160 132 164 128 168 128H184C188 128 192 132 192 136V376ZM256 376C256 380 252 384 248 384H232C228 384 224 380 224 376V136C224 132 228 128 232 128H248C252 128 256 132 256 136V376ZM384 368C384 377 377 384 368 384H336C327 384 320 377 320 368V144C320 135 327 128 336 128H368C377 128 384 135 384 144V368ZM512 368C512 377 505 384 496 384H464C455 384 448 377 448 368V144C448 135 455 128 464 128H496C505 128 512 135 512 144V368Z" class="fa-secondary"/><path d="M112 128H80C71 128 64 135 64 144V368C64 377 71 384 80 384H112C121 384 128 377 128 368V144C128 135 121 128 112 128ZM184 128H168C164 128 160 132 160 136V376C160 380 164 384 168 384H184C188 384 192 380 192 376V136C192 132 188 128 184 128ZM248 128H232C228 128 224 132 224 136V376C224 380 228 384 232 384H248C252 384 256 380 256 376V136C256 132 252 128 248 128ZM368 128H336C327 128 320 135 320 144V368C320 377 327 384 336 384H368C377 384 384 377 384 368V144C384 135 377 128 368 128ZM496 128H464C455 128 448 135 448 144V368C448 377 455 384 464 384H496C505 384 512 377 512 368V144C512 135 505 128 496 128Z" class="fa-primary"/></svg>