<svg xmlns="http://www.w3.org/2000/svg" viewBox="0 0 576 512"><!-- Font Awesome Pro 6.0.0-alpha1 by @fontawesome - https://fontawesome.com License - https://fontawesome.com/license (Commercial License) --><defs><style>.fa-secondary{opacity:.4}</style></defs><path d="M187 280H229L208 238L187 280ZM512 32H64C29 32 0 61 0 96V416C0 451 29 480 64 480H512C547 480 576 451 576 416V96C576 61 547 32 512 32ZM291 349C287 351 284 352 280 352C271 352 263 347 259 339L249 320H167L157 339C152 351 137 355 125 349C113 343 109 329 115 317L187 173C195 157 221 157 229 173L301 317C307 329 303 344 291 349ZM464 328C464 341 453 352 440 352C433 352 427 349 423 345C414 349 403 352 392 352C352 352 320 320 320 280S352 208 392 208C400 208 408 210 416 212V184C416 171 427 160 440 160S464 171 464 184V328ZM392 256C379 256 368 267 368 280S379 304 392 304C405 304 416 293 416 280S405 256 392 256Z" class="fa-secondary"/><path d="M440 160C427 160 416 171 416 184V212C408 210 400 208 392 208C352 208 320 240 320 280S352 352 392 352C403 352 414 349 423 345C427 349 433 352 440 352C453 352 464 341 464 328V184C464 171 453 160 440 160ZM392 304C379 304 368 293 368 280S379 256 392 256C405 256 416 267 416 280S405 304 392 304ZM229 173C221 157 195 157 187 173L115 317C109 329 113 344 125 349C137 355 152 351 157 339L167 320H249L259 339C263 347 271 352 280 352C284 352 287 351 291 349C303 344 307 329 301 317L229 173ZM187 280L208 238L229 280H187Z" class="fa-primary"/></svg>