<svg xmlns="http://www.w3.org/2000/svg" viewBox="0 0 512 512"><!-- Font Awesome Pro 6.0.0-alpha1 by @fontawesome - https://fontawesome.com License - https://fontawesome.com/license (Commercial License) --><defs><style>.fa-secondary{opacity:.4}</style></defs><path d="M432 256C432 258 432 260 432 262C428 323 375 368 314 368H192V328C192 318 186 310 177 306S158 304 151 311L71 391C62 400 62 416 71 425L151 505C158 512 168 514 177 510S192 498 192 488V448H312C417 448 508 367 512 262C512 260 512 258 512 256H432Z" class="fa-secondary"/><path d="M441 87L361 7C354 0 344 -2 335 2S320 14 320 24V64H200C95 64 3 145 0 250C0 252 0 254 0 256H80C80 254 80 252 80 250C84 189 137 144 198 144H320V184C320 194 326 202 335 206S354 208 361 201L441 121C450 112 450 96 441 87Z" class="fa-primary"/></svg>