<svg xmlns="http://www.w3.org/2000/svg" viewBox="0 0 448 512"><!-- Font Awesome Pro 6.0.0-alpha1 by @fontawesome - https://fontawesome.com License - https://fontawesome.com/license (Commercial License) --><defs><style>.fa-secondary{opacity:.4}</style></defs><path d="M225 379L111 504C103 513 89 515 79 508L11 480C-1 472 -4 455 6 444L146 291L225 379Z" class="fa-secondary"/><path d="M442 444C442 444 150 120 147 114C162 106 187 96 224 96S286 106 302 114C298 120 246 179 246 179L325 267L359 229C388 197 392 150 370 113L327 40C322 32 317 26 310 22C269 -6 182 -8 138 22C131 26 126 32 122 40L78 113C76 115 41 175 89 229L338 504C346 513 359 514 369 508L438 480C450 472 452 455 442 444Z" class="fa-primary"/></svg>