<svg xmlns="http://www.w3.org/2000/svg" viewBox="0 0 512 512"><!-- Font Awesome Pro 6.0.0-alpha1 by @fontawesome - https://fontawesome.com License - https://fontawesome.com/license (Commercial License) --><defs><style>.fa-secondary{opacity:.4}</style></defs><path d="M221 102L256 32L224 0H128L96 32L131 102C160 94 192 94 221 102ZM473 226C443 188 398 164 350 161C364 182 374 207 379 233C436 256 463 322 439 379C415 436 350 463 293 439S209 350 233 293C243 269 260 250 283 238C282 234 280 231 279 228L279 228C279 227 278 226 278 225C278 225 278 225 278 225C277 224 277 223 276 222L276 222C275 220 274 218 273 217V216C273 216 272 215 272 214C272 214 272 214 271 213C271 213 271 212 270 211C270 211 270 211 270 211C269 210 269 209 268 209L268 208C267 206 266 205 264 203L264 202C263 202 263 201 262 201L262 200C261 199 261 199 260 198L260 197C259 197 259 196 258 196L257 195C257 194 256 194 255 193C252 190 249 187 246 185C178 225 145 307 166 384C171 398 176 412 184 425C185 426 185 427 186 428C187 430 188 431 189 432C189 432 189 432 189 432C189 433 190 435 191 436L191 436C192 437 193 438 194 439C194 441 195 442 196 443C197 444 198 445 199 446C260 522 371 534 446 473C522 412 534 301 473 226Z" class="fa-secondary"/><path d="M199 446C103 459 14 391 2 295S57 110 153 98S338 153 350 249C358 307 337 365 293 403C288 400 284 397 279 393C268 381 260 366 257 349C300 304 298 234 253 191S138 150 95 195S54 310 99 353C117 371 141 381 167 384C173 407 184 428 199 446Z" class="fa-primary"/></svg>