<svg xmlns="http://www.w3.org/2000/svg" viewBox="0 0 512 512"><!-- Font Awesome Pro 6.0.0-alpha1 by @fontawesome - https://fontawesome.com License - https://fontawesome.com/license (Commercial License) --><defs><style>.fa-secondary{opacity:.4}</style></defs><path d="M52 154L2 253C1 257 0 260 0 264C0 277 11 288 24 288H109C156 209 181 164 197 137C198 134 200 131 201 128H95C78 128 59 140 52 154ZM376 315C349 330 304 356 224 403V488C224 501 235 512 248 512C252 512 255 511 259 510L358 460C372 453 384 434 384 417V311C381 312 378 313 376 315ZM36 352C10 378 -3 443 1 511C70 515 134 502 160 476C200 436 203 382 166 346C130 309 76 312 36 352ZM117 436C109 445 87 449 64 448C63 425 67 403 76 395C89 381 107 380 119 393C132 405 131 423 117 436Z" class="fa-secondary"/><path d="M505 20C504 14 498 8 492 7C460 0 435 0 410 0C333 0 279 31 237 77C210 108 223 95 109 288H109C173 288 224 339 224 403C417 289 404 302 434 275C481 233 512 179 512 102C512 77 512 52 505 20ZM384 168C362 168 344 150 344 128S362 88 384 88C406 88 424 106 424 128S406 168 384 168ZM76 395C67 403 63 425 64 448C87 449 109 445 117 436C131 423 132 405 119 393C107 380 89 381 76 395Z" class="fa-primary"/></svg>