<svg xmlns="http://www.w3.org/2000/svg" viewBox="0 0 512 512"><!-- Font Awesome Pro 6.0.0-alpha1 by @fontawesome - https://fontawesome.com License - https://fontawesome.com/license (Commercial License) --><defs><style>.fa-secondary{opacity:.4}</style></defs><path d="M98 76C142 37 197 16 256 16C320 16 380 41 426 86C471 132 496 192 496 256S471 380 426 426C380 471 320 496 256 496C204 496 155 480 114 449C98 438 97 415 111 401L134 378C145 367 162 366 175 375C199 391 227 400 256 400C295 400 331 385 358 358C385 331 400 294 400 256S385 181 358 154C331 127 295 112 256 112C223 112 192 124 166 144L98 76Z" class="fa-secondary"/><path d="M62 40L200 178C217 195 205 224 181 224H35C25 224 16 216 16 205V59C16 35 45 23 62 40Z" class="fa-primary"/></svg>