<svg xmlns="http://www.w3.org/2000/svg" viewBox="0 0 448 512"><!-- Font Awesome Pro 6.0.0-alpha1 by @fontawesome - https://fontawesome.com License - https://fontawesome.com/license (Commercial License) --><defs><style>.fa-secondary{opacity:.4}</style></defs><path d="M34 192H414C410 219 413 246 428 269C466 326 447 409 390 435L224 512L58 435C1 409 -18 326 20 269C35 246 38 219 34 192Z" class="fa-secondary"/><path d="M414 192H33C29 166 19 139 7 114C3 106 3 96 8 89L50 30C55 23 65 17 77 22C92 28 110 31 127 31C157 31 187 22 210 4C214 2 219 0 224 0S233 2 237 5C261 22 291 31 321 31C338 31 355 28 371 22C383 17 393 23 398 30L439 89C445 96 445 106 441 114C429 139 419 166 414 192Z" class="fa-primary"/></svg>