<svg xmlns="http://www.w3.org/2000/svg" viewBox="0 0 512 512"><!-- Font Awesome Pro 6.0.0-alpha1 by @fontawesome - https://fontawesome.com License - https://fontawesome.com/license (Commercial License) --><defs><style>.fa-secondary{opacity:.4}</style></defs><path d="M503 158L168 493C155 506 135 506 122 493L9 380C-3 368 -3 347 9 335L64 281L120 337C126 343 137 343 143 337S149 321 143 315L86 258L132 213L188 269C194 276 205 276 211 269S217 253 211 247L154 190L199 145L256 201C262 208 272 208 279 201C285 195 285 185 279 179L222 122L267 77L324 134C330 140 340 140 347 134S353 117 347 111L290 54L344 0C357 -12 377 -12 390 0L503 113C515 126 515 146 503 158Z" class="fa-secondary"/><path d="M87 267L64 290L121 347C127 353 137 353 143 347S149 330 143 324L87 267ZM154 199L132 222L188 279C195 285 205 285 211 279S217 262 211 256L154 199ZM347 120L290 64L268 86L324 143C330 149 341 149 347 143S353 126 347 120ZM222 132L200 154L256 211C263 217 273 217 279 211C285 205 285 194 279 188L222 132Z" class="fa-primary"/></svg>