<svg xmlns="http://www.w3.org/2000/svg" viewBox="0 0 512 512"><!-- Font Awesome Pro 6.0.0-alpha1 by @fontawesome - https://fontawesome.com License - https://fontawesome.com/license (Commercial License) --><defs><style>.fa-secondary{opacity:.4}</style></defs><path d="M503 457L450 404L427 427C421 434 410 434 404 427C398 421 398 411 404 405L427 382L370 324L347 347C341 354 330 354 324 347C318 341 318 331 324 325L347 302L290 244L267 267C261 274 250 274 244 267C238 261 238 251 244 245L267 222L210 164L187 187C181 194 170 194 164 187C158 181 158 171 164 165L187 142L130 84L107 107C101 114 90 114 84 107C78 101 78 91 84 85L107 62L55 9C45 0 32 -3 20 2C8 7 0 19 0 32V480C0 498 14 512 32 512H480C493 512 505 504 510 492C515 480 512 467 503 457ZM128 384V256L256 384H128Z" class="fa-secondary"/><path d="M427 382L404 405C397 411 397 421 404 427C410 434 420 434 426 427L449 404L427 382ZM164 165C157 171 157 181 164 187C170 194 180 194 186 187L209 164L187 142L164 165ZM84 85C77 91 77 101 84 107C90 114 100 114 106 107L129 84L107 62L84 85ZM244 245C237 251 237 261 244 267C250 274 260 274 266 267L289 244L267 222L244 245ZM324 325C317 331 317 341 324 347C330 354 340 354 346 347L369 324L347 302L324 325Z" class="fa-primary"/></svg>