<svg xmlns="http://www.w3.org/2000/svg" viewBox="0 0 448 512"><!-- Font Awesome Pro 6.0.0-alpha1 by @fontawesome - https://fontawesome.com License - https://fontawesome.com/license (Commercial License) --><defs><style>.fa-secondary{opacity:.4}</style></defs><path d="M446 403C437 449 395 480 348 480H280C267 480 256 469 256 456V424C256 411 267 400 280 400H352C361 400 368 393 368 384S361 368 352 368C293 368 246 314 258 253C267 207 309 176 356 176H408C421 176 432 187 432 200V232C432 245 421 256 408 256H352C343 256 336 263 336 272S343 288 352 288C411 288 458 342 446 403Z" class="fa-secondary"/><path d="M181 302C225 277 256 230 256 176C256 74 162 32 106 32H48C22 32 0 54 0 80V456C0 469 11 480 24 480H56C69 480 80 469 80 456V320H103L144 463C147 473 156 480 167 480H200C216 480 227 465 223 449L181 302ZM112 240H80V112H112C147 112 176 141 176 176S147 240 112 240Z" class="fa-primary"/></svg>