<svg xmlns="http://www.w3.org/2000/svg" viewBox="0 0 640 512"><!-- Font Awesome Pro 6.0.0-alpha1 by @fontawesome - https://fontawesome.com License - https://fontawesome.com/license (Commercial License) --><defs><style>.fa-secondary{opacity:.4}</style></defs><path d="M144 384C109 384 80 413 80 448S109 512 144 512C179 512 208 483 208 448S179 384 144 384ZM496 384C461 384 432 413 432 448S461 512 496 512C531 512 560 483 560 448S531 384 496 384ZM621 269L563 211C551 199 534 192 518 192L416 192L416 396C433 370 462 352 496 352C538 352 573 379 586 416H608C626 416 640 402 640 384V314C640 298 633 281 621 269ZM480 288V240H517C522 240 526 242 529 245L572 288H480Z" class="fa-secondary"/><path d="M512 32H384V16C384 7 377 0 368 0H240C231 0 224 7 224 16V32H64C29 32 0 61 0 96V294C0 310 7 327 19 339L69 389C86 367 113 352 144 352C186 352 221 379 234 416H384V160H576C594 160 608 145 608 127C608 75 565 32 512 32ZM256 208C256 217 249 224 240 224H112C103 224 96 217 96 208V144C96 135 103 128 112 128H240C249 128 256 135 256 144V208Z" class="fa-primary"/></svg>