<svg xmlns="http://www.w3.org/2000/svg" viewBox="0 0 512 512"><!-- Font Awesome Pro 6.0.0-alpha1 by @fontawesome - https://fontawesome.com License - https://fontawesome.com/license (Commercial License) --><defs><style>.fa-secondary{opacity:.4}</style></defs><path d="M498 239C483 238 474 233 462 227C445 219 424 208 384 208S323 219 306 227C291 235 281 240 256 240C232 240 221 235 206 227C189 219 168 208 128 208S67 219 50 227C38 233 29 238 14 239C6 240 0 247 0 255V287C0 292 2 296 5 299C9 302 13 304 18 303C46 301 64 292 78 285C93 277 104 272 128 272S163 277 178 285C195 293 217 304 256 304C296 304 317 293 334 285C349 277 360 272 384 272S419 277 434 285C448 292 466 301 494 303C499 304 503 302 507 299C510 296 512 292 512 287V255C512 247 506 240 498 239ZM320 384L416 336H224L320 384Z" class="fa-secondary"/><path d="M480 336H416L320 384L224 336H32C14 336 0 350 0 368V416C0 434 14 448 32 448H480C498 448 512 434 512 416V368C512 350 498 336 480 336ZM480 64H32C14 64 0 78 0 96V144C0 162 14 176 32 176H480C498 176 512 162 512 144V96C512 78 498 64 480 64Z" class="fa-primary"/></svg>