<svg xmlns="http://www.w3.org/2000/svg" viewBox="0 0 512 512"><!-- Font Awesome Pro 6.0.0-alpha1 by @fontawesome - https://fontawesome.com License - https://fontawesome.com/license (Commercial License) --><defs><style>.fa-secondary{opacity:.4}</style></defs><path d="M209 96C205 96 200 97 197 100C194 103 192 108 192 112V144C192 153 198 160 207 160C283 166 345 228 351 305C352 314 359 320 367 320H400C404 320 408 318 411 315C415 312 416 307 416 303C407 193 319 105 209 96ZM224 256C206 256 192 270 192 288C192 291 193 293 193 296L166 323L189 346L216 319C219 319 221 320 224 320C242 320 256 306 256 288C256 271 241 256 224 256ZM209 0C204 0 200 1 197 4C194 7 192 12 192 16V48C192 56 198 63 207 64C336 71 440 176 448 305C448 314 455 320 464 320H496C500 320 504 318 507 315C510 312 512 308 512 303C503 140 372 9 209 0Z" class="fa-secondary"/><path d="M49 207C42 199 29 201 24 210C-17 287 -6 386 60 452C126 518 225 529 302 488C312 483 313 470 305 463L49 207Z" class="fa-primary"/></svg>