<svg xmlns="http://www.w3.org/2000/svg" viewBox="0 0 576 512"><!-- Font Awesome Pro 6.0.0-alpha1 by @fontawesome - https://fontawesome.com License - https://fontawesome.com/license (Commercial License) --><defs><style>.fa-secondary{opacity:.4}</style></defs><path d="M288 320V328C288 366 272 405 240 430C240 430 240 431 240 431C174 483 89 512 0 512L180 320H288Z" class="fa-secondary"/><path d="M495 114C522 83 516 36 483 12C454 -9 413 -1 389 26L156 294C147 304 154 320 168 320H300C309 320 318 316 324 309L495 114ZM304 480H240C231 480 224 487 224 496S231 512 240 512H304C313 512 320 505 320 496S313 480 304 480ZM432 480H368C359 480 352 487 352 496S359 512 368 512H432C441 512 448 505 448 496S441 480 432 480ZM560 480H496C487 480 480 487 480 496S487 512 496 512H560C569 512 576 505 576 496S569 480 560 480Z" class="fa-primary"/></svg>