<svg xmlns="http://www.w3.org/2000/svg" viewBox="0 0 640 512"><!-- Font Awesome Pro 6.0.0-alpha1 by @fontawesome - https://fontawesome.com License - https://fontawesome.com/license (Commercial License) --><defs><style>.fa-secondary{opacity:.4}</style></defs><path d="M512 192C525 192 538 184 542 170C548 153 539 135 522 130L399 89C399 86 400 83 400 80C400 36 364 0 320 0C291 0 265 16 251 39L138 2C121 -4 103 5 98 22C92 39 101 57 118 62L244 104C251 126 267 144 288 153V448H144C118 448 96 470 96 496C96 505 103 512 112 512H336C345 512 352 505 352 496V153C357 151 362 148 366 145L502 190C505 191 509 192 512 192Z" class="fa-secondary"/><path d="M555 250C537 215 487 215 469 250C383 423 384 416 384 432C384 476 441 512 512 512S640 476 640 432C640 416 642 425 555 250ZM440 416L512 272L584 416H440ZM85 123C-1 295 0 288 0 304C0 348 57 384 128 384S256 348 256 304C256 288 258 297 171 122C153 87 103 87 85 123ZM56 288L128 144L200 288H56Z" class="fa-primary"/></svg>