<svg xmlns="http://www.w3.org/2000/svg" viewBox="0 0 512 512"><!-- Font Awesome Pro 6.0.0-alpha1 by @fontawesome - https://fontawesome.com License - https://fontawesome.com/license (Commercial License) --><defs><style>.fa-secondary{opacity:.4}</style></defs><path d="M320 96H32C14 96 0 110 0 128V480C0 498 14 512 32 512H320C338 512 352 498 352 480V128C352 110 338 96 320 96ZM288 432C288 441 281 448 272 448H80C71 448 64 441 64 432V176C64 167 71 160 80 160H272C281 160 288 167 288 176V432Z" class="fa-secondary"/><path d="M272 160H80C71 160 64 167 64 176V432C64 441 71 448 80 448H272C281 448 288 441 288 432V176C288 167 281 160 272 160ZM192 16C192 7 185 0 176 0H144C135 0 128 7 128 16V64H192V16ZM256 8C256 4 252 0 248 0H232C228 0 224 4 224 8V64H256V8ZM496 0H464C455 0 448 7 448 16V272C448 281 455 288 464 288H496C505 288 512 281 512 272V16C512 7 505 0 496 0ZM408 0H392C388 0 384 4 384 8V280C384 284 388 288 392 288H408C412 288 416 284 416 280V8C416 4 412 0 408 0ZM336 0H304C295 0 288 7 288 16V64H352V16C352 7 345 0 336 0Z" class="fa-primary"/></svg>