<svg xmlns="http://www.w3.org/2000/svg" viewBox="0 0 576 512"><!-- Font Awesome Pro 6.0.0-alpha1 by @fontawesome - https://fontawesome.com License - https://fontawesome.com/license (Commercial License) --><defs><style>.fa-secondary{opacity:.4}</style></defs><path d="M552 288H48C21 288 0 310 0 336V432C0 458 22 480 48 480H528C554 480 576 458 576 432V330C576 312 567 297 552 288ZM128 400C128 409 121 416 112 416H80C71 416 64 409 64 400V368C64 359 71 352 80 352H112C121 352 128 359 128 368V400ZM224 400C224 409 217 416 208 416H176C167 416 160 409 160 400V368C160 359 167 352 176 352H208C217 352 224 359 224 368V400Z" class="fa-secondary"/><path d="M48 288H552C551 288 551 287 551 287L79 36C63 27 44 33 36 49C27 65 33 84 49 92L416 288H48C48 288 48 288 48 288ZM112 352H80C71 352 64 359 64 368V400C64 409 71 416 80 416H112C121 416 128 409 128 400V368C128 359 121 352 112 352Z" class="fa-primary"/></svg>