<svg xmlns="http://www.w3.org/2000/svg" viewBox="0 0 512 512"><!-- Font Awesome Pro 6.0.0-alpha1 by @fontawesome - https://fontawesome.com License - https://fontawesome.com/license (Commercial License) --><defs><style>.fa-secondary{opacity:.4}</style></defs><path d="M214 157C232 116 225 66 191 33C169 11 141 0 112 0S55 11 33 33C-11 77 -11 147 33 191C55 213 83 224 112 224C122 224 132 222 141 220L178 256L245 188L214 157ZM112 160C85 160 64 139 64 112C64 85 85 64 112 64C139 64 160 85 160 112C160 139 139 160 112 160ZM507 450L313 256L246 324L394 473C425 504 476 504 507 473C514 466 514 456 507 450Z" class="fa-secondary"/><path d="M507 39C476 8 425 8 394 39L141 292C132 290 122 288 112 288C83 288 55 299 33 321C-11 365 -11 435 33 479C55 501 83 512 112 512S169 501 191 479C225 446 232 396 214 355L507 62C514 56 514 46 507 39ZM112 448C85 448 64 427 64 400C64 373 85 352 112 352C139 352 160 373 160 400C160 427 139 448 112 448Z" class="fa-primary"/></svg>