<svg xmlns="http://www.w3.org/2000/svg" viewBox="0 0 640 512"><!-- Font Awesome Pro 6.0.0-alpha1 by @fontawesome - https://fontawesome.com License - https://fontawesome.com/license (Commercial License) --><defs><style>.fa-secondary{opacity:.4}</style></defs><path d="M208 0H48C22 0 0 22 0 48V208C0 234 22 256 48 256H208C234 256 256 234 256 208V48C256 22 234 0 208 0ZM192 176C192 185 185 192 176 192H80C71 192 64 185 64 176V80C64 71 71 64 80 64H176C185 64 192 71 192 80V176ZM592 256H432C406 256 384 278 384 304V464C384 490 406 512 432 512H592C618 512 640 490 640 464V304C640 278 618 256 592 256ZM576 432C576 441 569 448 560 448H464C455 448 448 441 448 432V336C448 327 455 320 464 320H560C569 320 576 327 576 336V432Z" class="fa-secondary"/><path d="M384 416H224C189 416 160 387 160 352V256H208C234 256 256 234 256 208V96H416C451 96 480 125 480 160V256H432C406 256 384 278 384 304V416Z" class="fa-primary"/></svg>