<svg xmlns="http://www.w3.org/2000/svg" viewBox="0 0 640 512"><!-- Font Awesome Pro 6.0.0-alpha1 by @fontawesome - https://fontawesome.com License - https://fontawesome.com/license (Commercial License) --><defs><style>.fa-secondary{opacity:.4}</style></defs><path d="M384 32H64C29 32 0 61 0 96V416C0 451 29 480 64 480H384C419 480 448 451 448 416V96C448 61 419 32 384 32ZM96 272C96 281 89 288 80 288S64 281 64 272V112C64 103 71 96 80 96S96 103 96 112V272ZM160 272C160 281 153 288 144 288S128 281 128 272V112C128 103 135 96 144 96S160 103 160 112V272ZM224 272C224 281 217 288 208 288S192 281 192 272V112C192 103 199 96 208 96S224 103 224 112V272Z" class="fa-secondary"/><path d="M208 96C199 96 192 103 192 112V272C192 281 199 288 208 288S224 281 224 272V112C224 103 217 96 208 96ZM144 96C135 96 128 103 128 112V272C128 281 135 288 144 288S160 281 160 272V112C160 103 153 96 144 96ZM80 96C71 96 64 103 64 112V272C64 281 71 288 80 288S96 281 96 272V112C96 103 89 96 80 96ZM616 232H552C539 232 528 243 528 256S539 280 552 280H616C629 280 640 269 640 256S629 232 616 232ZM597 404L549 372C538 365 523 368 516 379C509 390 512 405 523 412L571 444C582 451 597 448 604 437C611 426 608 411 597 404ZM536 144C541 144 545 143 549 140L597 108C605 103 609 95 609 86S603 70 595 66C587 62 578 63 571 68L523 100C514 106 510 117 513 127C516 137 526 144 536 144Z" class="fa-primary"/></svg>