<svg xmlns="http://www.w3.org/2000/svg" viewBox="0 0 640 512"><!-- Font Awesome Pro 6.0.0-alpha1 by @fontawesome - https://fontawesome.com License - https://fontawesome.com/license (Commercial License) --><defs><style>.fa-secondary{opacity:.4}</style></defs><path d="M305 293C310 235 359 192 416 192C427 192 438 194 448 197V96C448 61 419 32 384 32H64C29 32 0 61 0 96V416C0 451 29 480 64 480H258C229 452 218 411 227 373C237 334 266 304 305 293ZM96 272C96 281 89 288 80 288S64 281 64 272V112C64 103 71 96 80 96S96 103 96 112V272ZM160 272C160 281 153 288 144 288C135 288 128 281 128 272V112C128 103 135 96 144 96C153 96 160 103 160 112V272ZM208 288C199 288 192 281 192 272V112C192 103 199 96 208 96C217 96 224 103 224 112V272C224 281 217 288 208 288Z" class="fa-secondary"/><path d="M573 321C581 299 572 274 552 262C531 250 505 256 490 275C475 236 433 216 393 227S329 280 338 320C337 320 336 320 336 320C292 320 256 356 256 400S292 480 336 480H560C602 480 637 448 640 406C643 365 614 328 573 321ZM80 96C71 96 64 103 64 112V272C64 281 71 288 80 288S96 281 96 272V112C96 103 89 96 80 96ZM144 96C135 96 128 103 128 112V272C128 281 135 288 144 288C153 288 160 281 160 272V112C160 103 153 96 144 96ZM208 96C199 96 192 103 192 112V272C192 281 199 288 208 288C217 288 224 281 224 272V112C224 103 217 96 208 96Z" class="fa-primary"/></svg>