<svg xmlns="http://www.w3.org/2000/svg" viewBox="0 0 640 512"><!-- Font Awesome Pro 6.0.0-alpha1 by @fontawesome - https://fontawesome.com License - https://fontawesome.com/license (Commercial License) --><defs><style>.fa-secondary{opacity:.4}</style></defs><path d="M493 319C495 324 496 330 496 336C496 371 467 400 432 400C421 400 411 397 402 392C390 407 372 416 352 416C341 416 331 413 322 408C310 423 292 432 272 432S234 423 222 408C213 413 203 416 192 416C172 416 154 407 142 392C133 397 123 400 112 400C77 400 48 371 48 336C48 330 49 324 51 319C22 312 0 287 0 256S22 200 51 193C49 188 48 182 48 176C48 141 77 112 112 112C123 112 133 115 142 120C154 105 172 96 192 96C203 96 213 99 222 104C234 89 252 80 272 80S310 89 322 104C331 99 341 96 352 96C383 96 408 118 415 147C420 145 426 144 432 144C462 144 488 165 494 194C523 200 544 226 544 256C544 287 522 312 493 319Z" class="fa-secondary"/><path d="M192 416C172 416 154 407 142 392C134 396 125 399 115 400L154 497C158 506 166 512 176 512H200C213 512 224 501 224 488V410C223 409 223 409 222 408C213 413 203 416 192 416ZM352 416C341 416 331 413 322 408C321 409 320 409 320 410V488C320 501 331 512 344 512H368C378 512 386 506 390 497L429 400C419 399 410 396 402 392C390 407 372 416 352 416ZM624 101L571 48C561 38 548 32 533 32H464C464 14 450 0 432 0S400 14 400 32V118C407 126 412 136 415 147C420 145 426 144 432 144C462 144 487 164 494 192H587C607 192 625 181 634 162C645 142 641 117 624 101ZM512 112C503 112 496 105 496 96S503 80 512 80S528 87 528 96S521 112 512 112Z" class="fa-primary"/></svg>