<svg xmlns="http://www.w3.org/2000/svg" viewBox="0 0 448 512"><!-- Font Awesome Pro 6.0.0-alpha1 by @fontawesome - https://fontawesome.com License - https://fontawesome.com/license (Commercial License) --><defs><style>.fa-secondary{opacity:.4}</style></defs><path d="M432 32H384C375 32 368 39 368 48V344C368 375 343 400 312 400H200V176C200 167 193 160 184 160H136C127 160 120 167 120 176V456C120 469 131 480 144 480H312C387 480 448 419 448 344V48C448 39 441 32 432 32Z" class="fa-secondary"/><path d="M328 168V336C328 345 321 352 312 352H264C255 352 248 345 248 336V168C248 137 223 112 192 112H80V464C80 473 73 480 64 480H16C7 480 0 473 0 464V56C0 43 11 32 24 32H192C267 32 328 93 328 168Z" class="fa-primary"/></svg>