<svg xmlns="http://www.w3.org/2000/svg" viewBox="0 0 512 512"><!-- Font Awesome Pro 6.0.0-alpha1 by @fontawesome - https://fontawesome.com License - https://fontawesome.com/license (Commercial License) --><defs><style>.fa-secondary{opacity:.4}</style></defs><path d="M466 84L274 4C270 2 261 0 256 0C251 0 242 2 238 4L46 84C28 91 16 109 16 128C16 327 130 464 238 508C249 513 263 513 274 508C360 473 496 349 496 128C496 109 484 91 466 84ZM328 280H184C171 280 160 269 160 256S171 232 184 232H328C341 232 352 243 352 256S341 280 328 280Z" class="fa-secondary"/><path d="M328 280H184C171 280 160 269 160 256S171 232 184 232H328C341 232 352 243 352 256S341 280 328 280Z" class="fa-primary"/></svg>