<svg xmlns="http://www.w3.org/2000/svg" viewBox="0 0 640 512"><!-- Font Awesome Pro 6.0.0-alpha1 by @fontawesome - https://fontawesome.com License - https://fontawesome.com/license (Commercial License) --><defs><style>.fa-secondary{opacity:.4}</style></defs><path d="M64 192V480C64 498 78 512 96 512H352C370 512 384 498 384 480V256H512V496C512 505 519 512 528 512H560C569 512 576 505 576 496V192H64ZM128 416V256H320V416H128Z" class="fa-secondary"/><path d="M608 192H32C6 192 -9 163 5 142L91 14C97 5 107 0 117 0H523C533 0 543 5 549 14L635 142C649 163 633 192 608 192Z" class="fa-primary"/></svg>