<svg xmlns="http://www.w3.org/2000/svg" viewBox="0 0 384 512"><!-- Font Awesome Pro 6.0.0-alpha1 by @fontawesome - https://fontawesome.com License - https://fontawesome.com/license (Commercial License) --><defs><style>.fa-secondary{opacity:.4}</style></defs><path d="M123 419C118 426 96 461 96 478C96 497 110 512 128 512S160 497 160 478C160 461 138 426 133 419C131 415 125 415 123 419ZM197 291C195 287 189 287 187 291C182 298 160 333 160 350C160 369 174 384 192 384S224 369 224 350C224 333 202 298 197 291ZM69 291C67 287 61 287 59 291C54 298 32 333 32 350C32 369 46 384 64 384S96 369 96 350C96 333 74 298 69 291ZM325 291C323 287 317 287 315 291C310 298 288 333 288 350C288 369 302 384 320 384S352 369 352 350C352 333 330 298 325 291ZM251 419C246 426 224 461 224 478C224 497 238 512 256 512S288 497 288 478C288 461 266 426 261 419C259 415 253 415 251 419Z" class="fa-secondary"/><path d="M368 192H352C352 115 297 50 224 35V16C224 7 217 0 208 0H176C167 0 160 7 160 16V35C87 50 32 115 32 192H16C7 192 0 199 0 208V240C0 249 7 256 16 256H368C377 256 384 249 384 240V208C384 199 377 192 368 192Z" class="fa-primary"/></svg>