<svg xmlns="http://www.w3.org/2000/svg" viewBox="0 0 512 512"><!-- Font Awesome Pro 6.0.0-alpha1 by @fontawesome - https://fontawesome.com License - https://fontawesome.com/license (Commercial License) --><defs><style>.fa-secondary{opacity:.4}</style></defs><path d="M288 136V128H142L251 256L142 384H288V376C288 363 299 352 312 352H360C373 352 384 363 384 376V448C384 466 370 480 352 480H52C32 480 15 469 6 451C-3 434 -1 413 10 397L133 256L10 115C-2 99 -3 78 6 61C15 43 32 32 52 32H352C370 32 384 46 384 64V136C384 149 373 160 360 160H312C299 160 288 149 288 136Z" class="fa-secondary"/></svg>