<svg xmlns="http://www.w3.org/2000/svg" viewBox="0 0 576 512"><!-- Font Awesome Pro 6.0.0-alpha1 by @fontawesome - https://fontawesome.com License - https://fontawesome.com/license (Commercial License) --><defs><style>.fa-secondary{opacity:.4}</style></defs><path d="M159 168L136 146C133 143 128 141 124 142C119 142 115 144 112 148C59 210 59 302 112 364C115 368 119 370 124 370C128 371 133 369 136 366L159 344C164 338 165 330 160 323C129 284 129 228 160 189C165 182 164 174 159 168ZM385 148C382 144 378 142 373 142S364 143 361 146L338 168C333 174 332 183 337 189C368 228 368 284 337 323C332 329 333 338 338 344L361 366C364 369 369 371 373 370S382 368 385 365C438 302 438 210 385 148Z" class="fa-secondary"/><path d="M118 90L96 69C93 66 89 64 84 64C80 64 75 66 73 70C26 121 0 186 0 256S26 391 73 442C75 446 80 448 84 448C89 448 93 447 96 443L118 422C124 416 125 406 119 400C84 361 64 309 64 256C64 203 84 151 119 112C125 106 124 96 118 90ZM288 200C257 200 232 225 232 256S257 312 288 312S344 287 344 256S319 200 288 200ZM503 70C501 66 496 64 492 64C487 64 483 65 480 69L458 90C452 96 451 106 457 112C531 194 531 318 457 400C451 406 452 416 458 422L480 443C483 446 487 448 492 448C496 448 501 446 503 442C550 391 576 326 576 256S550 121 503 70Z" class="fa-primary"/></svg>