<svg xmlns="http://www.w3.org/2000/svg" viewBox="0 0 512 512"><!-- Font Awesome Pro 6.0.0-alpha1 by @fontawesome - https://fontawesome.com License - https://fontawesome.com/license (Commercial License) --><defs><style>.fa-secondary{opacity:.4}</style></defs><path d="M496 64H128V16C128 7 121 0 112 0H80C71 0 64 7 64 16V64H16C7 64 0 71 0 80V112C0 121 7 128 16 128H64V496C64 505 71 512 80 512H112C121 512 128 505 128 496V128H496C505 128 512 121 512 112V80C512 71 505 64 496 64Z" class="fa-secondary"/><path d="M160 384H480V128H160V384Z" class="fa-primary"/></svg>