<svg xmlns="http://www.w3.org/2000/svg" viewBox="0 0 576 512"><!-- Font Awesome Pro 6.0.0-alpha1 by @fontawesome - https://fontawesome.com License - https://fontawesome.com/license (Commercial License) --><defs><style>.fa-secondary{opacity:.4}</style></defs><path d="M176 288H144C135 288 128 295 128 304V496C128 505 135 512 144 512H176C185 512 192 505 192 496V304C192 295 185 288 176 288ZM48 384H16C7 384 0 391 0 400V496C0 505 7 512 16 512H48C57 512 64 505 64 496V400C64 391 57 384 48 384ZM304 192H272C263 192 256 199 256 208V496C256 505 263 512 272 512H304C313 512 320 505 320 496V208C320 199 313 192 304 192ZM432 96H400C391 96 384 103 384 112V496C384 505 391 512 400 512H432C441 512 448 505 448 496V112C448 103 441 96 432 96ZM560 0H528C519 0 512 7 512 16V496C512 505 519 512 528 512H560C569 512 576 505 576 496V16C576 7 569 0 560 0Z" class="fa-secondary"/></svg>