<svg xmlns="http://www.w3.org/2000/svg" viewBox="0 0 384 512"><!-- Font Awesome Pro 6.0.0-alpha1 by @fontawesome - https://fontawesome.com License - https://fontawesome.com/license (Commercial License) --><defs><style>.fa-secondary{opacity:.4}</style></defs><path d="M64 416C64 434 78 448 96 448H128V384H64V416ZM128 192H96C78 192 64 206 64 224V256H128V192ZM224 192H160V256H224V192ZM160 448H224V384H160V448ZM288 192H256V256H320V224C320 206 306 192 288 192ZM64 352H320V288H64V352ZM256 448H288C306 448 320 434 320 416V384H256V448Z" class="fa-secondary"/><path d="M256 0H64C29 0 0 29 0 64V448C0 483 29 512 64 512H320C355 512 384 483 384 448V128L256 0ZM320 416C320 434 306 448 288 448H96C78 448 64 434 64 416V224C64 206 78 192 96 192H288C306 192 320 206 320 224V416Z" class="fa-primary"/></svg>