<svg xmlns="http://www.w3.org/2000/svg" viewBox="0 0 448 512"><!-- Font Awesome Pro 6.0.0-alpha1 by @fontawesome - https://fontawesome.com License - https://fontawesome.com/license (Commercial License) --><defs><style>.fa-secondary{opacity:.4}</style></defs><path d="M48 432V96C22 96 0 118 0 144V448C0 483 29 512 64 512H304C330 512 352 490 352 464H80C62 464 48 450 48 432ZM192 352H208V304H160V320C160 338 174 352 192 352ZM208 144H192C174 144 160 158 160 176V192H208V144ZM304 144H240V192H304V144ZM240 304V352H304V304H240ZM336 352H352C370 352 384 338 384 320V304H336V352ZM352 144H336V192H384V176C384 158 370 144 352 144ZM160 272H384V224H160V272Z" class="fa-secondary"/><path d="M336 0H160C125 0 96 29 96 64V352C96 387 125 416 160 416H384C419 416 448 387 448 352V112L336 0ZM384 320C384 338 370 352 352 352H192C174 352 160 338 160 320V176C160 158 174 144 192 144H352C370 144 384 158 384 176V320Z" class="fa-primary"/></svg>