<svg xmlns="http://www.w3.org/2000/svg" viewBox="0 0 512 512"><!-- Font Awesome Pro 6.0.0-alpha1 by @fontawesome - https://fontawesome.com License - https://fontawesome.com/license (Commercial License) --><defs><style>.fa-secondary{opacity:.4}</style></defs><path d="M224 160H16C7 160 0 167 0 176V208C0 217 7 224 16 224H224V160ZM432 256H288V320H432C441 320 448 313 448 304V272C448 263 441 256 432 256ZM80 128H224V64H80C71 64 64 71 64 80V112C64 121 71 128 80 128ZM448 112V80C448 71 441 64 432 64H288V128H432C441 128 448 121 448 112ZM64 272V304C64 313 71 320 80 320H224V256H80C71 256 64 263 64 272ZM400 352H112C75 352 52 393 71 425L114 496C120 506 130 512 141 512H371C382 512 392 506 398 496L441 425C460 393 437 352 400 352ZM200 464C187 464 176 453 176 440S187 416 200 416S224 427 224 440S213 464 200 464ZM312 464C299 464 288 453 288 440S299 416 312 416S336 427 336 440S325 464 312 464ZM496 160H288V224H496C505 224 512 217 512 208V176C512 167 505 160 496 160Z" class="fa-secondary"/><path d="M288 16V352H224V16C224 7 231 0 240 0H272C281 0 288 7 288 16Z" class="fa-primary"/></svg>