<svg xmlns="http://www.w3.org/2000/svg" viewBox="0 0 512 512"><!-- Font Awesome Pro 6.0.0-alpha1 by @fontawesome - https://fontawesome.com License - https://fontawesome.com/license (Commercial License) --><defs><style>.fa-secondary{opacity:.4}</style></defs><path d="M0 240V272C0 290 14 304 32 304H224V208H32C14 208 0 222 0 240ZM480 208H416V304H480C498 304 512 290 512 272V240C512 222 498 208 480 208Z" class="fa-secondary"/><path d="M368 96H304C278 96 256 118 256 144V368C256 394 278 416 304 416H368C394 416 416 394 416 368V144C416 118 394 96 368 96ZM352 352H320V160H352V352Z" class="fa-primary"/></svg>