<svg xmlns="http://www.w3.org/2000/svg" viewBox="0 0 512 512"><!-- Font Awesome Pro 6.0.0-alpha1 by @fontawesome - https://fontawesome.com License - https://fontawesome.com/license (Commercial License) --><defs><style>.fa-secondary{opacity:.4}</style></defs><path d="M97 405C95 414 100 422 108 424L123 428C131 430 140 426 142 417L161 346L104 379L97 405ZM59 274C51 272 43 277 41 285L37 300C34 308 39 316 47 319L73 326L130 293L59 274ZM452 238C460 240 469 235 471 227L475 212C477 204 472 196 464 193L438 186L382 219L452 238ZM41 227C43 235 51 240 59 238L130 219L73 186L48 193C39 195 34 204 37 212L41 227ZM414 107C417 99 412 90 403 88L389 84C380 82 372 87 370 95L351 166L407 133L414 107ZM123 84L108 88C100 90 95 99 97 107L104 133L161 166L142 95C140 87 131 82 123 84ZM407 379L351 346L370 417C372 425 380 430 389 428L404 424C412 422 417 413 414 405L407 379ZM330 37C324 30 314 30 308 37L288 56V124L342 71C348 64 348 54 342 48L330 37ZM170 464L181 475C188 482 198 482 204 475L224 456L224 388L170 442C164 448 164 458 170 464ZM475 300L471 285C469 277 461 272 452 274L382 293L438 326L464 319C473 317 477 308 475 300ZM182 37L170 48C164 54 164 64 170 71L224 124V56L204 37C198 30 188 30 182 37ZM288 388L288 456L307 475C314 482 324 482 330 475L341 464C347 458 347 448 341 441L288 388Z" class="fa-secondary"/><path d="M478 366L462 393C458 400 449 403 441 399L288 310L288 496C288 505 281 512 272 512H240C231 512 224 505 224 496L224 310L71 399C63 403 54 401 50 393L34 366C30 359 32 350 40 345L194 256L40 167C32 162 30 153 34 146L50 119C54 112 63 109 71 113L224 202V16C224 7 231 0 240 0H272C281 0 288 7 288 16V202L441 113C449 109 458 112 462 119L478 146C482 153 480 163 472 167L318 256L472 345C480 349 482 359 478 366Z" class="fa-primary"/></svg>