<svg xmlns="http://www.w3.org/2000/svg" viewBox="0 0 448 512"><!-- Font Awesome Pro 6.0.0-alpha1 by @fontawesome - https://fontawesome.com License - https://fontawesome.com/license (Commercial License) --><defs><style>.fa-secondary{opacity:.4}</style></defs><path d="M390 256H58C42 284 32 317 32 352C32 409 57 461 97 496C109 506 124 512 140 512H308C324 512 339 506 351 496C400 453 427 384 411 310C407 290 400 273 390 256ZM152 336C139 336 128 325 128 312C128 299 139 288 152 288C165 288 176 299 176 312C176 325 165 336 152 336ZM224 448C224 448 192 402 192 384S206 352 224 352S256 366 256 384S224 448 224 448ZM296 336C283 336 272 325 272 312C272 299 283 288 296 288C309 288 320 299 320 312C320 325 309 336 296 336Z" class="fa-secondary"/><path d="M384 32C384 14 370 0 352 0H96C78 0 64 14 64 32V160H384V32ZM432 192H16C7 192 0 199 0 208C0 234 22 256 48 256H400C426 256 448 234 448 208C448 199 441 192 432 192ZM224 352C206 352 192 366 192 384S224 448 224 448S256 402 256 384S242 352 224 352Z" class="fa-primary"/></svg>