<svg xmlns="http://www.w3.org/2000/svg" viewBox="0 0 640 512"><!-- Font Awesome Pro 6.0.0-alpha1 by @fontawesome - https://fontawesome.com License - https://fontawesome.com/license (Commercial License) --><defs><style>.fa-secondary{opacity:.4}</style></defs><path d="M368 352C394 352 416 374 416 400S394 448 368 448H112C86 448 64 426 64 400S86 352 112 352H368M368 288H112C50 288 0 338 0 400S50 512 112 512H368C430 512 480 462 480 400S430 288 368 288Z" class="fa-secondary"/><path d="M120 376C107 376 96 387 96 400C96 413 107 424 120 424C133 424 144 413 144 400C144 387 133 376 120 376H120ZM200 376C187 376 176 387 176 400C176 413 187 424 200 424C213 424 224 413 224 400C224 387 213 376 200 376H200ZM360 376C347 376 336 387 336 400C336 413 347 424 360 424C373 424 384 413 384 400C384 387 373 376 360 376H360ZM280 376C267 376 256 387 256 400C256 413 267 424 280 424C293 424 304 413 304 400C304 387 293 376 280 376H280ZM599 425C584 411 576 391 576 371V269C576 249 584 229 599 215L635 178C642 172 642 162 635 155L613 133C606 127 596 127 590 133L553 169C527 196 512 232 512 269V288H448V237C448 228 446 220 443 212L365 29C357 11 340 0 320 0H176C150 0 128 22 128 48V160H112C85 160 64 182 64 208V299C79 292 95 288 112 288H368C411 288 451 313 469 352H512V371C512 408 527 444 553 471L590 507C596 514 606 514 613 507L635 485C642 478 642 468 635 462L599 425ZM256 224L192 160V64H310L378 224H256Z" class="fa-primary"/></svg>