<svg xmlns="http://www.w3.org/2000/svg" viewBox="0 0 512 512"><!-- Font Awesome Pro 6.0.0-alpha1 by @fontawesome - https://fontawesome.com License - https://fontawesome.com/license (Commercial License) --><defs><style>.fa-secondary{opacity:.4}</style></defs><path d="M128 128H288V96H128V128ZM128 272L41 337C2 366 -13 421 12 464C29 494 61 512 96 512C117 512 137 505 154 493L175 476C146 421 162 351 215 311L288 256V160H128V272ZM160 0C142 0 128 14 128 32V64H288V32C288 21 291 11 296 2C293 1 291 0 288 0H160ZM320 64V96H512V64H320ZM320 160H512V128H320V160Z" class="fa-secondary"/><path d="M288 64H128V96H288V64ZM288 128H128V160H288V128ZM480 0H352C334 0 320 14 320 32V64H512V32C512 14 498 0 480 0ZM320 128H512V96H320V128ZM320 272L234 337C194 366 180 421 205 464C231 510 290 526 336 499C336 499 336 499 336 499C343 495 336 500 461 406C493 382 512 344 512 304V160H320V272Z" class="fa-primary"/></svg>