<svg xmlns="http://www.w3.org/2000/svg" viewBox="0 0 512 512"><!-- Font Awesome Pro 6.0.0-alpha1 by @fontawesome - https://fontawesome.com License - https://fontawesome.com/license (Commercial License) --><defs><style>.fa-secondary{opacity:.4}</style></defs><path d="M392 188C381 199 367 203 353 201C377 244 371 299 335 335C292 380 220 380 176 337S131 222 175 178C210 141 266 133 311 159C309 145 313 131 324 120C326 118 329 117 331 115C308 103 282 96 256 96C168 96 96 168 96 256C96 344 168 416 256 416C298 416 339 399 369 369C420 318 429 242 396 181C395 183 394 186 392 188ZM337 448C259 481 169 463 109 403C39 334 30 227 79 146H79C63 143 49 132 42 116C-23 215 -12 350 75 437C151 513 267 534 364 488C362 486 360 484 358 482C348 473 341 461 337 448ZM437 75C361 -1 245 -22 148 24C150 26 152 28 154 30C164 39 171 51 175 64C253 31 343 49 403 109C473 178 482 285 433 366C449 369 463 380 470 396C535 297 524 162 437 75Z" class="fa-secondary"/><path d="M52 38C52 38 52 38 52 38C31 60 31 95 52 117C74 139 110 139 132 117C153 95 153 60 132 38C110 16 74 16 52 38ZM256 177C221 177 192 206 192 241C192 277 221 305 256 305S320 277 320 241C320 206 291 177 256 177ZM392 174C411 155 411 124 392 106C373 87 343 87 324 106C305 124 305 155 324 174C343 192 373 192 392 174C392 174 392 174 392 174ZM460 366C438 344 402 344 381 366S359 423 381 445S438 467 460 445C460 445 460 445 460 445C482 423 482 388 460 366Z" class="fa-primary"/></svg>