<svg xmlns="http://www.w3.org/2000/svg" viewBox="0 0 512 512"><!-- Font Awesome Pro 6.0.0-alpha1 by @fontawesome - https://fontawesome.com License - https://fontawesome.com/license (Commercial License) --><defs><style>.fa-secondary{opacity:.4}</style></defs><path d="M384 343C342 349 299 352 256 352C172 352 94 341 26 322C54 423 147 496 256 496C335 496 404 458 448 400V384H384V343ZM494 224H448V160H368V96H416V77C374 39 318 16 256 16C123 16 16 123 16 256C16 266 17 277 18 287C88 308 169 320 256 320S424 308 494 287C495 277 496 266 496 256C496 245 495 234 494 224ZM192 240C148 240 112 204 112 160S148 80 192 80S272 116 272 160S236 240 192 240Z" class="fa-secondary"/><path d="M192 240C236 240 272 204 272 160S236 80 192 80S112 116 112 160S148 240 192 240ZM192 136C205 136 216 147 216 160C216 173 205 184 192 184S168 173 168 160C168 147 179 136 192 136ZM256 320C169 320 88 308 18 287C20 299 22 311 25 322C94 341 172 352 256 352S418 341 486 322C490 311 492 299 494 287C424 308 343 320 256 320Z" class="fa-primary"/></svg>