<svg xmlns="http://www.w3.org/2000/svg" viewBox="0 0 640 512"><!-- Font Awesome Pro 6.0.0-alpha1 by @fontawesome - https://fontawesome.com License - https://fontawesome.com/license (Commercial License) --><defs><style>.fa-secondary{opacity:.4}</style></defs><path d="M638 379C634 391 620 397 607 393C599 390 593 393 576 404C562 413 545 425 524 425C516 425 509 424 501 421C468 408 461 379 455 358C453 349 451 344 449 339C433 353 412 365 388 374C398 410 420 464 448 464C461 464 472 475 472 488C472 501 461 512 448 512C381 512 351 424 341 383C334 384 327 384 320 384S306 384 299 383C289 424 259 512 192 512C179 512 168 501 168 488C168 475 179 464 192 464C220 464 242 410 252 373C228 365 207 353 191 339C189 344 187 349 185 358C179 379 172 408 139 421C131 424 123 425 116 425C95 425 77 413 64 404C47 393 41 390 32 393C20 397 6 391 2 379C-3 366 3 353 15 348C48 336 73 352 91 364C108 376 114 379 122 376C130 373 133 366 138 346C141 333 146 317 156 304C154 301 152 298 150 295C140 305 126 312 108 312C74 312 57 287 46 270C35 253 31 248 24 248C11 248 0 238 0 224S11 201 24 201C58 201 75 226 86 243C97 259 101 264 108 264C125 264 146 203 205 163L187 127C189 127 190 128 192 128C214 128 233 117 245 100L263 136C281 132 299 129 320 129S359 132 377 136L395 100C407 117 426 128 448 128C450 128 451 127 453 127L435 163C494 203 515 264 532 264C539 264 543 259 554 243C565 226 582 200 616 200C629 200 640 211 640 224S629 248 616 248C609 248 605 253 594 270C583 287 566 312 532 312C514 312 501 305 490 295C488 298 486 301 484 304C494 317 498 333 502 346C507 366 510 373 518 376C526 379 532 376 549 364C567 352 592 335 624 348C637 353 643 366 638 379Z" class="fa-secondary"/><path d="M192 0C157 0 128 29 128 64S157 128 192 128S256 99 256 64S227 0 192 0ZM192 80C183 80 176 73 176 64S183 48 192 48S208 55 208 64S201 80 192 80ZM448 0C413 0 384 29 384 64S413 128 448 128S512 99 512 64S483 0 448 0ZM448 80C439 80 432 73 432 64S439 48 448 48S464 55 464 64S457 80 448 80Z" class="fa-primary"/></svg>