<svg xmlns="http://www.w3.org/2000/svg" viewBox="0 0 640 512"><!-- Font Awesome Pro 6.0.0-alpha1 by @fontawesome - https://fontawesome.com License - https://fontawesome.com/license (Commercial License) --><defs><style>.fa-secondary{opacity:.4}</style></defs><path d="M176 224C202 224 238 239 256 258V48C256 33 263 12 272 0H48C22 0 0 22 0 48V464C0 490 22 512 48 512H272C263 500 256 479 256 464V414C238 433 202 448 176 448C114 448 64 398 64 336S114 224 176 224ZM176 64C202 64 224 86 224 112S202 160 176 160S128 138 128 112S150 64 176 64ZM592 0H336C310 0 288 22 288 48V464C288 490 310 512 336 512H592C618 512 640 490 640 464V48C640 22 618 0 592 0ZM464 64C490 64 512 86 512 112S490 160 464 160S416 138 416 112S438 64 464 64ZM464 448C402 448 352 398 352 336S402 224 464 224S576 274 576 336S526 448 464 448Z" class="fa-secondary"/><path d="M464 160C490 160 512 138 512 112S490 64 464 64S416 86 416 112S438 160 464 160ZM464 224C402 224 352 274 352 336S402 448 464 448S576 398 576 336S526 224 464 224ZM464 400C429 400 400 371 400 336S429 272 464 272S528 301 528 336S499 400 464 400ZM176 160C202 160 224 138 224 112S202 64 176 64S128 86 128 112S150 160 176 160ZM64 336C64 398 114 448 176 448C207 448 236 435 256 414V258C236 237 207 224 176 224C114 224 64 274 64 336ZM240 336C240 371 211 400 176 400S112 371 112 336S141 272 176 272S240 301 240 336Z" class="fa-primary"/></svg>