<svg xmlns="http://www.w3.org/2000/svg" viewBox="0 0 512 512"><!-- Font Awesome Pro 6.0.0-alpha1 by @fontawesome - https://fontawesome.com License - https://fontawesome.com/license (Commercial License) --><defs><style>.fa-secondary{opacity:.4}</style></defs><path d="M471 361C432 441 351 496 256 496C123 496 16 389 16 256S123 16 256 16C261 16 266 16 271 17C263 17 256 24 256 33V65C256 73 263 80 271 81C272 81 272 81 272 81C267 80 261 80 256 80C159 80 80 159 80 256S159 432 256 432C327 432 388 390 416 330C416 330 415 330 415 330C412 338 414 347 421 352L449 368C457 372 467 369 471 361Z" class="fa-secondary"/><path d="M496 256C496 294 487 329 472 361C468 369 457 372 449 368L421 352C414 347 412 338 415 330C426 308 432 283 432 256C432 164 361 88 271 81C263 80 256 73 256 65V33C256 24 264 16 273 17C398 25 496 129 496 256Z" class="fa-primary"/></svg>