<svg xmlns="http://www.w3.org/2000/svg" viewBox="0 0 512 512"><!-- Font Awesome Pro 6.0.0-alpha1 by @fontawesome - https://fontawesome.com License - https://fontawesome.com/license (Commercial License) --><defs><style>.fa-secondary{opacity:.4}</style></defs><path d="M109 355C83 355 61 377 61 403S83 451 109 451S157 430 157 403S135 355 109 355ZM256 416C230 416 208 438 208 464S230 512 256 512S304 490 304 464S283 416 256 416ZM464 208C438 208 416 230 416 256S438 304 464 304S512 282 512 256S491 208 464 208ZM403 355C377 355 355 377 355 403S377 451 403 451S451 430 451 403S430 355 403 355ZM403 157C430 157 451 135 451 109S430 61 403 61S355 82 355 109S377 157 403 157Z" class="fa-secondary"/><path d="M48 208C22 208 0 230 0 256S22 304 48 304S96 282 96 256S74 208 48 208ZM109 61C82 61 61 82 61 109S82 157 109 157S157 135 157 109S135 61 109 61ZM256 0C230 0 208 22 208 48S230 96 256 96S304 74 304 48S282 0 256 0Z" class="fa-primary"/></svg>