<svg xmlns="http://www.w3.org/2000/svg" viewBox="0 0 512 512"><!-- Font Awesome Pro 6.0.0-alpha1 by @fontawesome - https://fontawesome.com License - https://fontawesome.com/license (Commercial License) --><defs><style>.fa-secondary{opacity:.4}</style></defs><path d="M152 104C139 104 128 115 128 128S139 152 152 152S176 141 176 128S165 104 152 104ZM88 48C75 48 64 59 64 72S75 96 88 96S112 85 112 72S101 48 88 48ZM88 160C75 160 64 171 64 184S75 208 88 208S112 197 112 184S101 160 88 160ZM24 104C11 104 0 115 0 128S11 152 24 152S48 141 48 128S37 104 24 104ZM24 0C11 0 0 11 0 24S11 48 24 48S48 37 48 24S37 0 24 0ZM24 208C11 208 0 219 0 232S11 256 24 256S48 245 48 232S37 208 24 208ZM360 104C347 104 336 115 336 128S347 152 360 152S384 141 384 128S373 104 360 104ZM424 160C411 160 400 171 400 184S411 208 424 208S448 197 448 184S437 160 424 160ZM424 48C411 48 400 59 400 72S411 96 424 96S448 85 448 72S437 48 424 48ZM488 104C475 104 464 115 464 128S475 152 488 152S512 141 512 128S501 104 488 104ZM488 208C475 208 464 219 464 232S475 256 488 256S512 245 512 232S501 208 488 208ZM488 48C501 48 512 37 512 24S501 0 488 0S464 11 464 24S475 48 488 48Z" class="fa-secondary"/><path d="M398 256H288V80C288 71 281 64 272 64H240C231 64 224 71 224 80V256H114C107 256 101 260 98 266C95 272 96 279 100 285L167 363L192 387V512H320V387L345 363L412 285C416 279 417 272 414 266C411 260 405 256 398 256Z" class="fa-primary"/></svg>