<svg xmlns="http://www.w3.org/2000/svg" viewBox="0 0 448 512"><!-- Font Awesome Pro 6.0.0-alpha1 by @fontawesome - https://fontawesome.com License - https://fontawesome.com/license (Commercial License) --><defs><style>.fa-secondary{opacity:.4}</style></defs><path d="M384 32H64C29 32 0 61 0 96V416C0 451 29 480 64 480H384C419 480 448 451 448 416V96C448 61 419 32 384 32ZM347 280L237 394C230 402 218 402 211 394L100 280C68 247 70 192 106 162C138 135 184 140 213 169L224 181L235 169C264 140 311 135 342 162C378 192 380 247 347 280Z" class="fa-secondary"/><path d="M348 280L237 394C230 402 218 402 211 394L101 280C69 247 70 192 106 162C138 135 184 140 213 169L224 181L236 169C264 140 311 135 342 162C378 192 380 247 348 280Z" class="fa-primary"/></svg>