<svg xmlns="http://www.w3.org/2000/svg" viewBox="0 0 448 512"><!-- Font Awesome Pro 6.0.0-alpha1 by @fontawesome - https://fontawesome.com License - https://fontawesome.com/license (Commercial License) --><defs><style>.fa-secondary{opacity:.4}</style></defs><path d="M384 32H64C29 32 0 61 0 96V416C0 451 29 480 64 480H384C419 480 448 451 448 416V96C448 61 419 32 384 32ZM179 368C157 373 107 384 107 384C107 384 106 384 105 384C100 384 95 379 96 373L112 301C114 294 117 288 122 283L223 182L298 257C258 297 217 337 196 358C192 363 186 367 179 368ZM341 214L321 234L246 159L266 139C274 132 283 128 293 128C302 128 312 132 319 139L341 161C356 175 356 199 341 214Z" class="fa-secondary"/><path d="M122 283C117 288 114 294 112 301L96 373C95 379 100 384 105 384C106 384 107 384 107 384C107 384 157 373 179 368C185 367 192 363 196 358C217 337 258 297 298 257L223 182L122 283ZM341 161L319 139C312 132 302 128 293 128C283 128 274 132 266 139L246 159L321 234L341 214C356 199 356 175 341 161Z" class="fa-primary"/></svg>