<svg xmlns="http://www.w3.org/2000/svg" viewBox="0 0 448 512"><!-- Font Awesome Pro 6.0.0-alpha1 by @fontawesome - https://fontawesome.com License - https://fontawesome.com/license (Commercial License) --><defs><style>.fa-secondary{opacity:.4}</style></defs><path d="M384 32H64C29 32 0 61 0 96V416C0 451 29 480 64 480H384C419 480 448 451 448 416V96C448 61 419 32 384 32ZM123 384C116 384 110 379 108 372L96 322C95 314 98 307 105 304L160 280C166 278 174 279 178 285L200 312C235 295 263 267 280 232L253 210C247 206 246 198 248 192L272 137C275 131 282 127 290 128L340 140C347 142 352 148 352 155C352 281 249 384 123 384Z" class="fa-secondary"/><path d="M105 304L160 280C166 278 174 279 178 285L200 312C235 295 263 267 280 232L253 210C247 206 246 198 248 192L272 137C275 131 282 127 289 128L340 140C347 142 352 148 352 155C352 281 249 384 123 384C116 384 110 379 108 372L96 322C95 314 98 307 105 304Z" class="fa-primary"/></svg>