<svg xmlns="http://www.w3.org/2000/svg" viewBox="0 0 448 512"><!-- Font Awesome Pro 6.0.0-alpha1 by @fontawesome - https://fontawesome.com License - https://fontawesome.com/license (Commercial License) --><defs><style>.fa-secondary{opacity:.4}</style></defs><path d="M280 128C267 128 256 139 256 152V291C256 316 234 336 208 336S160 316 160 291V280C160 267 149 256 136 256S112 267 112 280V291C112 342 155 384 208 384S304 342 304 291V152C304 139 293 128 280 128Z" class="fa-secondary"/><path d="M384 32H64C29 32 0 61 0 96V416C0 451 29 480 64 480H384C419 480 448 451 448 416V96C448 61 419 32 384 32ZM304 291C304 342 261 384 208 384S112 342 112 291V280C112 267 123 256 136 256S160 267 160 280V291C160 316 182 336 208 336S256 316 256 291V152C256 139 267 128 280 128S304 139 304 152V291Z" class="fa-primary"/></svg>