<svg xmlns="http://www.w3.org/2000/svg" viewBox="0 0 640 512"><!-- Font Awesome Pro 6.0.0-alpha1 by @fontawesome - https://fontawesome.com License - https://fontawesome.com/license (Commercial License) --><defs><style>.fa-secondary{opacity:.4}</style></defs><path d="M408 128C395 128 384 139 384 152V232H256V152C256 139 245 128 232 128S208 139 208 152V360C208 373 219 384 232 384S256 373 256 360V280H384V360C384 373 395 384 408 384S432 373 432 360V152C432 139 421 128 408 128Z" class="fa-secondary"/><path d="M480 32H160C125 32 96 61 96 96V416C96 451 125 480 160 480H480C515 480 544 451 544 416V96C544 61 515 32 480 32ZM432 360C432 373 421 384 408 384S384 373 384 360V280H256V360C256 373 245 384 232 384S208 373 208 360V152C208 139 219 128 232 128S256 139 256 152V232H384V152C384 139 395 128 408 128S432 139 432 152V360Z" class="fa-primary"/></svg>