<svg xmlns="http://www.w3.org/2000/svg" viewBox="0 0 640 512"><!-- Font Awesome Pro 6.0.0-alpha1 by @fontawesome - https://fontawesome.com License - https://fontawesome.com/license (Commercial License) --><defs><style>.fa-secondary{opacity:.4}</style></defs><path d="M288 352C288 370 274 384 256 384H256C238 384 224 370 224 352V272L96 172V416C96 451 125 480 160 480H480C481 477 481 477 482 474L288 322V352ZM480 32H160C138 32 119 43 108 59L226 152C230 138 241 128 256 128H336C395 128 442 182 430 243C426 262 417 278 403 291L544 401V96C544 61 515 32 480 32ZM368 224C368 206 354 192 336 192H288V200L352 251C362 245 368 236 368 224Z" class="fa-secondary"/><path d="M631 469L39 5C34 2 29 0 24 0C17 0 10 3 5 9C-3 20 -1 35 9 43L601 507C612 515 627 513 635 503C643 492 641 477 631 469Z" class="fa-primary"/></svg>