<svg xmlns="http://www.w3.org/2000/svg" viewBox="0 0 448 512"><!-- Font Awesome Pro 6.0.0-alpha1 by @fontawesome - https://fontawesome.com License - https://fontawesome.com/license (Commercial License) --><defs><style>.fa-secondary{opacity:.4}</style></defs><path d="M306 248C315 235 320 220 320 204C320 162 286 128 244 128H152C139 128 128 139 128 152V360C128 373 139 384 152 384H260C302 384 336 350 336 308C336 283 324 262 306 248ZM176 176H244C259 176 272 189 272 204S259 232 244 232H176V176ZM260 336H176V280H260C275 280 288 293 288 308S275 336 260 336Z" class="fa-secondary"/><path d="M272 204C272 189 259 176 244 176H176V232H244C259 232 272 219 272 204ZM260 280H176V336H260C275 336 288 323 288 308S275 280 260 280ZM384 32H64C29 32 0 61 0 96V416C0 451 29 480 64 480H384C419 480 448 451 448 416V96C448 61 419 32 384 32ZM260 384H152C139 384 128 373 128 360V152C128 139 139 128 152 128H244C286 128 320 162 320 204C320 220 315 235 306 248C324 262 336 283 336 308C336 350 302 384 260 384Z" class="fa-primary"/></svg>