<svg xmlns="http://www.w3.org/2000/svg" viewBox="0 0 640 512"><!-- Font Awesome Pro 6.0.0-alpha1 by @fontawesome - https://fontawesome.com License - https://fontawesome.com/license (Commercial License) --><defs><style>.fa-secondary{opacity:.4}</style></defs><path d="M424 134C413 125 398 126 390 136L320 219L250 137C242 126 227 125 217 134C206 142 205 157 214 167L289 256L214 345C205 355 206 370 216 378C221 382 227 384 232 384C239 384 246 381 250 375L320 293L390 375C394 381 401 384 408 384C413 384 419 382 424 378C434 370 435 355 426 345L351 256L426 167C435 157 434 142 424 134Z" class="fa-secondary"/><path d="M480 32H160C125 32 96 61 96 96V416C96 451 125 480 160 480H480C515 480 544 451 544 416V96C544 61 515 32 480 32ZM426 345C435 355 434 370 424 378C419 382 413 384 408 384C401 384 394 381 390 375L320 293L250 375C246 381 239 384 232 384C227 384 221 382 217 378C206 370 205 355 214 345L289 256L214 167C205 157 206 142 217 134C227 125 242 126 250 136L320 219L390 137C398 126 413 125 423 134C434 142 435 157 426 168L351 256L426 345Z" class="fa-primary"/></svg>