<svg xmlns="http://www.w3.org/2000/svg" viewBox="0 0 448 512"><!-- Font Awesome Pro 6.0.0-alpha1 by @fontawesome - https://fontawesome.com License - https://fontawesome.com/license (Commercial License) --><defs><style>.fa-secondary{opacity:.4}</style></defs><path d="M384 32H64C29 32 0 61 0 96V416C0 451 29 480 64 480H384C419 480 448 451 448 416V96C448 61 419 32 384 32ZM241 384H191C163 384 138 366 129 339C125 327 132 313 144 309C157 305 171 311 175 324C177 331 184 336 191 336H241C258 336 272 322 272 305C272 289 260 276 245 274L157 264C151 263 145 260 141 254C137 249 135 242 136 236L153 148C155 136 165 128 177 128H280C293 128 304 139 304 152S293 176 280 176H197L188 219L250 226C290 231 320 265 320 305C320 349 285 384 241 384Z" class="fa-secondary"/><path d="M320 305C320 349 285 384 241 384H191C163 384 138 366 129 339C125 327 132 313 144 309C157 305 171 311 175 324C177 331 184 336 191 336H241C258 336 272 322 272 305C272 289 260 276 245 274L157 264C151 263 145 260 141 254C137 249 135 242 136 236L153 148C155 136 165 128 177 128H280C293 128 304 139 304 152S293 176 280 176H197L188 219L250 226C290 231 320 265 320 305Z" class="fa-primary"/></svg>