<svg xmlns="http://www.w3.org/2000/svg" viewBox="0 0 448 512"><!-- Font Awesome Pro 6.0.0-alpha1 by @fontawesome - https://fontawesome.com License - https://fontawesome.com/license (Commercial License) --><defs><style>.fa-secondary{opacity:.4}</style></defs><path d="M310 136L224 236L138 136C130 126 114 125 104 134C94 142 93 158 102 168L200 282V360C200 373 211 384 224 384S248 373 248 360V282L346 168C355 158 354 142 344 134C334 125 318 126 310 136Z" class="fa-secondary"/><path d="M384 32H64C29 32 0 61 0 96V416C0 451 29 480 64 480H384C419 480 448 451 448 416V96C448 61 419 32 384 32ZM346 168L248 282V360C248 373 237 384 224 384S200 373 200 360V282L102 168C93 158 94 142 104 134C114 125 130 126 138 136L224 236L310 136C318 126 334 125 344 134C354 142 355 158 346 168Z" class="fa-primary"/></svg>