<svg xmlns="http://www.w3.org/2000/svg" viewBox="0 0 448 512"><!-- Font Awesome Pro 6.0.0-alpha1 by @fontawesome - https://fontawesome.com License - https://fontawesome.com/license (Commercial License) --><defs><style>.fa-secondary{opacity:.4}</style></defs><path d="M448 416V96C448 61 419 32 384 32H64C29 32 0 61 0 96V416C0 451 29 480 64 480H384C419 480 448 451 448 416ZM237 391L119 273C110 264 110 248 119 239L237 121C240 118 244 116 249 116C253 116 257 118 260 121L283 144C290 150 290 160 283 167L194 256L283 345C290 352 290 362 283 368L260 391C257 394 253 396 249 396C244 396 240 394 237 391Z" class="fa-secondary"/><path d="M237 391L119 273C110 264 110 248 119 239L237 121C240 118 244 116 249 116C253 116 257 118 260 121L283 144C290 150 290 160 283 167L194 256L283 345C290 352 290 362 283 368L260 391C257 394 253 396 249 396C244 396 240 394 237 391Z" class="fa-primary"/></svg>