<svg xmlns="http://www.w3.org/2000/svg" viewBox="0 0 448 512"><!-- Font Awesome Pro 6.0.0-alpha1 by @fontawesome - https://fontawesome.com License - https://fontawesome.com/license (Commercial License) --><defs><style>.fa-secondary{opacity:.4}</style></defs><path d="M384 32H64C29 32 0 61 0 96V416C0 451 29 480 64 480H384C419 480 448 451 448 416V96C448 61 419 32 384 32ZM112 416C86 416 64 394 64 368S86 320 112 320S160 342 160 368S138 416 112 416ZM270 416H235C229 416 224 411 224 405C219 325 155 262 75 256C69 256 64 251 64 245V210C64 204 70 199 76 199C186 205 275 294 281 404C281 410 276 416 270 416ZM373 416H338C332 416 327 411 327 405C321 268 212 159 75 153C69 153 64 148 64 142V108C64 101 69 96 76 96C244 102 378 237 384 404C384 411 379 416 373 416Z" class="fa-secondary"/><path d="M112 320C86 320 64 342 64 368S86 416 112 416S160 394 160 368S138 320 112 320ZM76 199C70 199 64 204 64 210V245C64 251 69 256 75 256C154 261 218 325 224 405C224 411 229 416 235 416H270C276 416 281 410 281 404C275 294 186 205 76 199ZM76 96C69 96 64 101 64 107V142C64 148 69 153 75 153C212 159 321 268 327 405C327 411 332 416 338 416H372C379 416 384 411 384 404C378 237 244 102 76 96Z" class="fa-primary"/></svg>