<svg xmlns="http://www.w3.org/2000/svg" viewBox="0 0 448 512"><!-- Font Awesome Pro 6.0.0-alpha1 by @fontawesome - https://fontawesome.com License - https://fontawesome.com/license (Commercial License) --><defs><style>.fa-secondary{opacity:.4}</style></defs><path d="M384 32H64C29 32 0 61 0 96V416C0 451 29 480 64 480H384C419 480 448 451 448 416V96C448 61 419 32 384 32ZM160 368C160 377 153 384 144 384H112C103 384 96 377 96 368V240C96 231 103 224 112 224H144C153 224 160 231 160 240V368ZM256 368C256 377 249 384 240 384H208C199 384 192 377 192 368V144C192 135 199 128 208 128H240C249 128 256 135 256 144V368ZM352 368C352 377 345 384 336 384H304C295 384 288 377 288 368V304C288 295 295 288 304 288H336C345 288 352 295 352 304V368Z" class="fa-secondary"/><path d="M144 224H112C103 224 96 231 96 240V368C96 377 103 384 112 384H144C153 384 160 377 160 368V240C160 231 153 224 144 224ZM336 288H304C295 288 288 295 288 304V368C288 377 295 384 304 384H336C345 384 352 377 352 368V304C352 295 345 288 336 288ZM240 128H208C199 128 192 135 192 144V368C192 377 199 384 208 384H240C249 384 256 377 256 368V144C256 135 249 128 240 128Z" class="fa-primary"/></svg>