<svg xmlns="http://www.w3.org/2000/svg" viewBox="0 0 448 512"><!-- Font Awesome Pro 6.0.0-alpha1 by @fontawesome - https://fontawesome.com License - https://fontawesome.com/license (Commercial License) --><defs><style>.fa-secondary{opacity:.4}</style></defs><path d="M296 176C309 176 320 165 320 152S309 128 296 128H152C139 128 128 139 128 152S139 176 152 176H200V336H152C139 336 128 347 128 360S139 384 152 384H296C309 384 320 373 320 360S309 336 296 336H248V176H296Z" class="fa-secondary"/><path d="M384 32H64C29 32 0 61 0 96V416C0 451 29 480 64 480H384C419 480 448 451 448 416V96C448 61 419 32 384 32ZM296 336C309 336 320 347 320 360S309 384 296 384H152C139 384 128 373 128 360S139 336 152 336H200V176H152C139 176 128 165 128 152S139 128 152 128H296C309 128 320 139 320 152S309 176 296 176H248V336H296Z" class="fa-primary"/></svg>