<svg xmlns="http://www.w3.org/2000/svg" viewBox="0 0 640 512"><!-- Font Awesome Pro 6.0.0-alpha1 by @fontawesome - https://fontawesome.com License - https://fontawesome.com/license (Commercial License) --><defs><style>.fa-secondary{opacity:.4}</style></defs><path d="M435 131C423 125 408 129 403 141L320 306L237 141C232 129 217 125 205 131C193 136 189 151 195 163L299 371C303 379 311 384 320 384S337 379 341 371L445 163C451 151 447 136 435 131Z" class="fa-secondary"/><path d="M480 32H160C125 32 96 61 96 96V416C96 451 125 480 160 480H480C515 480 544 451 544 416V96C544 61 515 32 480 32ZM445 163L341 371C337 379 329 384 320 384S303 379 299 371L195 163C189 151 193 136 205 131C217 125 232 129 237 141L320 306L403 141C408 129 423 125 435 131C447 136 451 151 445 163Z" class="fa-primary"/></svg>