<svg xmlns="http://www.w3.org/2000/svg" viewBox="0 0 448 512"><!-- Font Awesome Pro 6.0.0-alpha1 by @fontawesome - https://fontawesome.com License - https://fontawesome.com/license (Commercial License) --><defs><style>.fa-secondary{opacity:.4}</style></defs><path d="M384 32H64C29 32 0 61 0 96V416C0 451 29 480 64 480H384C419 480 448 451 448 416V96C448 61 419 32 384 32ZM320 288C320 341 277 384 224 384S128 341 128 288V224C128 171 171 128 224 128S320 171 320 224V288ZM224 176C198 176 176 198 176 224V288C176 314 198 336 224 336S272 314 272 288V224C272 198 250 176 224 176Z" class="fa-secondary"/><path d="M224 128C171 128 128 171 128 224V288C128 341 171 384 224 384S320 341 320 288V224C320 171 277 128 224 128ZM272 288C272 314 250 336 224 336S176 314 176 288V224C176 198 198 176 224 176S272 198 272 224V288Z" class="fa-primary"/></svg>