<svg xmlns="http://www.w3.org/2000/svg" viewBox="0 0 640 512"><!-- Font Awesome Pro 6.0.0-alpha1 by @fontawesome - https://fontawesome.com License - https://fontawesome.com/license (Commercial License) --><defs><style>.fa-secondary{opacity:.4}</style></defs><path d="M480 32H160C125 32 96 61 96 96V416C96 451 125 480 160 480H480C515 480 544 451 544 416V96C544 61 515 32 480 32ZM336 384H304C260 384 224 348 224 304C224 279 236 257 254 242C245 230 240 216 240 200C240 160 272 128 312 128H328C368 128 400 160 400 200C400 216 395 230 386 242C404 257 416 279 416 304C416 348 380 384 336 384ZM312 224H328C341 224 352 213 352 200S341 176 328 176H312C299 176 288 187 288 200S299 224 312 224ZM336 272H304C286 272 272 286 272 304S286 336 304 336H336C354 336 368 322 368 304S354 272 336 272Z" class="fa-secondary"/><path d="M386 242C395 230 400 216 400 200C400 160 368 128 328 128H312C272 128 240 160 240 200C240 216 245 230 254 242C236 257 224 279 224 304C224 348 260 384 304 384H336C380 384 416 348 416 304C416 279 404 257 386 242ZM312 176H328C341 176 352 187 352 200S341 224 328 224H312C299 224 288 213 288 200S299 176 312 176ZM336 336H304C286 336 272 322 272 304S286 272 304 272H336C354 272 368 286 368 304S354 336 336 336Z" class="fa-primary"/></svg>