<svg xmlns="http://www.w3.org/2000/svg" viewBox="0 0 448 512"><!-- Font Awesome Pro 6.0.0-alpha1 by @fontawesome - https://fontawesome.com License - https://fontawesome.com/license (Commercial License) --><defs><style>.fa-secondary{opacity:.4}</style></defs><path d="M384 32H64C29 32 0 61 0 96V416C0 451 29 480 64 480H384C419 480 448 451 448 416V96C448 61 419 32 384 32ZM58 183C55 177 56 170 60 165L116 101C122 95 134 95 140 101C140 101 192 161 196 165C198 168 200 172 200 176C200 185 193 192 184 192H160V304C160 313 153 320 144 320H112C103 320 96 313 96 304V192H72C66 192 60 188 58 183ZM384 408C384 412 380 416 376 416H72C68 416 64 412 64 408V392C64 388 68 384 72 384H376C380 384 384 388 384 392V408ZM376 192H352V304C352 313 345 320 336 320H304C295 320 288 313 288 304V192H264C258 192 252 188 249 183C247 177 248 170 252 165L308 101C314 95 326 95 332 101C332 101 384 161 388 165C390 168 392 172 392 176C392 185 385 192 376 192Z" class="fa-secondary"/><path d="M140 101C134 95 122 95 116 101L60 165C56 170 55 177 57 183C60 188 66 192 72 192H96V304C96 313 103 320 112 320H144C153 320 160 313 160 304V192H184C193 192 200 185 200 176C200 172 198 168 196 165C192 161 140 101 140 101ZM388 165C384 161 332 101 332 101C326 95 314 95 308 101L252 165C248 170 247 177 249 183C252 188 258 192 264 192H288V304C288 313 295 320 304 320H336C345 320 352 313 352 304V192H376C385 192 392 185 392 176C392 172 390 168 388 165Z" class="fa-primary"/></svg>