<svg xmlns="http://www.w3.org/2000/svg" viewBox="0 0 448 512"><!-- Font Awesome Pro 6.0.0-alpha1 by @fontawesome - https://fontawesome.com License - https://fontawesome.com/license (Commercial License) --><defs><style>.fa-secondary{opacity:.4}</style></defs><path d="M296 176C309 176 320 165 320 152S309 128 296 128H152C139 128 128 139 128 152V360C128 373 139 384 152 384H296C309 384 320 373 320 360S309 336 296 336H176V280H264C277 280 288 269 288 256S277 232 264 232H176V176H296Z" class="fa-secondary"/><path d="M384 32H64C29 32 0 61 0 96V416C0 451 29 480 64 480H384C419 480 448 451 448 416V96C448 61 419 32 384 32ZM264 232C277 232 288 243 288 256S277 280 264 280H176V336H296C309 336 320 347 320 360S309 384 296 384H152C139 384 128 373 128 360V152C128 139 139 128 152 128H296C309 128 320 139 320 152S309 176 296 176H176V232H264Z" class="fa-primary"/></svg>