<svg xmlns="http://www.w3.org/2000/svg" viewBox="0 0 448 512"><!-- Font Awesome Pro 6.0.0-alpha1 by @fontawesome - https://fontawesome.com License - https://fontawesome.com/license (Commercial License) --><defs><style>.fa-secondary{opacity:.4}</style></defs><path d="M224 128H144C126 128 112 142 112 160V352C112 370 126 384 144 384S176 370 176 352V320H224C277 320 320 277 320 224S277 128 224 128ZM224 256H176V192H224C242 192 256 206 256 224S242 256 224 256Z" class="fa-secondary"/><path d="M240 192H192V256H240C258 256 272 242 272 224S258 192 240 192Z" class="fa-primary"/></svg>