<svg xmlns="http://www.w3.org/2000/svg" viewBox="0 0 448 512"><!-- Font Awesome Pro 6.0.0-alpha1 by @fontawesome - https://fontawesome.com License - https://fontawesome.com/license (Commercial License) --><defs><style>.fa-secondary{opacity:.4}</style></defs><path d="M224 337C207 337 193 351 193 369C193 386 207 400 224 400S256 386 256 369C256 351 242 337 224 337ZM224 304C238 304 248 293 248 280V152C248 139 238 128 224 128S200 139 200 152V280C200 293 211 304 224 304Z" class="fa-secondary"/><path d="M384 32H64C29 32 0 61 0 96V416C0 451 29 480 64 480H384C419 480 448 451 448 416V96C448 61 419 32 384 32ZM200 152C200 139 211 128 224 128S248 139 248 152V280C248 293 237 304 224 304S200 293 200 280V152ZM224 400C207 400 193 386 193 369C193 351 207 337 224 337S255 351 255 369C255 386 241 400 224 400Z" class="fa-primary"/></svg>