<svg xmlns="http://www.w3.org/2000/svg" viewBox="0 0 448 512"><!-- Font Awesome Pro 6.0.0-alpha1 by @fontawesome - https://fontawesome.com License - https://fontawesome.com/license (Commercial License) --><defs><style>.fa-secondary{opacity:.4}</style></defs><path d="M224 128C153 128 96 185 96 256S153 384 224 384S352 327 352 256S295 128 224 128ZM224 336C180 336 144 300 144 256S180 176 224 176S304 212 304 256S268 336 224 336Z" class="fa-secondary"/><path d="M224 176C180 176 144 212 144 256S180 336 224 336S304 300 304 256S268 176 224 176ZM384 32H64C29 32 0 61 0 96V416C0 451 29 480 64 480H384C419 480 448 451 448 416V96C448 61 419 32 384 32ZM224 384C153 384 96 327 96 256S153 128 224 128S352 185 352 256S295 384 224 384Z" class="fa-primary"/></svg>