<svg xmlns="http://www.w3.org/2000/svg" viewBox="0 0 640 512"><!-- Font Awesome Pro 6.0.0-alpha1 by @fontawesome - https://fontawesome.com License - https://fontawesome.com/license (Commercial License) --><defs><style>.fa-secondary{opacity:.4}</style></defs><path d="M480 32H160C125 32 96 61 96 96V416C96 451 125 480 160 480H480C515 480 544 451 544 416V96C544 61 515 32 480 32ZM413 163L301 371C297 379 289 384 280 384C276 384 272 383 269 381C257 375 253 360 259 349L352 176H248C235 176 224 165 224 152S235 128 248 128H392C400 128 408 132 413 140C417 147 417 156 413 163Z" class="fa-secondary"/><path d="M413 140C417 147 417 156 413 163L301 371C297 379 289 384 280 384C276 384 272 383 269 381C257 375 253 360 259 349L352 176H248C235 176 224 165 224 152S235 128 248 128H392C400 128 408 132 413 140Z" class="fa-primary"/></svg>