<svg xmlns="http://www.w3.org/2000/svg" viewBox="0 0 576 512"><!-- Font Awesome Pro 6.0.0-alpha1 by @fontawesome - https://fontawesome.com License - https://fontawesome.com/license (Commercial License) --><defs><style>.fa-secondary{opacity:.4}</style></defs><path d="M571 251L549 229C542 223 532 223 526 229L480 275L434 229C428 223 417 223 411 229L389 251C382 258 382 268 389 274L435 320L389 366C382 372 382 383 389 389L411 411C417 418 428 418 434 411L480 365L526 411C532 418 542 418 549 411L571 389C577 383 577 372 571 366L525 320L571 274C577 268 577 258 571 251Z" class="fa-secondary"/><path d="M576 16V64C576 73 569 80 560 80H351L247 482C243 498 229 510 213 512C211 512 210 512 208 512C193 512 180 504 173 491L72 304H16C7 304 0 297 0 288V240C0 231 7 224 16 224H96C111 224 124 232 131 245L195 363L281 30C286 12 302 0 320 0H560C569 0 576 7 576 16Z" class="fa-primary"/></svg>