<svg xmlns="http://www.w3.org/2000/svg" viewBox="0 0 448 512"><!-- Font Awesome Pro 6.0.0-alpha1 by @fontawesome - https://fontawesome.com License - https://fontawesome.com/license (Commercial License) --><defs><style>.fa-secondary{opacity:.4}</style></defs><path d="M384 32H64C29 32 0 61 0 96V416C0 451 29 480 64 480H384C419 480 448 451 448 416V96C448 61 419 32 384 32ZM296 320H288V360C288 373 277 384 264 384S240 373 240 360V320H138C130 320 122 316 118 309S113 294 116 286L178 142C183 130 197 125 210 130C222 135 227 149 222 161L174 272H240V221C240 208 251 197 264 197S288 208 288 221V272H296C309 272 320 283 320 296S309 320 296 320Z" class="fa-secondary"/><path d="M320 296C320 309 309 320 296 320H288V360C288 373 277 384 264 384S240 373 240 360V320H138C130 320 122 316 118 309S113 294 116 286L178 142C183 130 197 125 210 130C222 135 227 149 222 161L174 272H240V221C240 208 251 197 264 197S288 208 288 221V272H296C309 272 320 283 320 296Z" class="fa-primary"/></svg>