<svg xmlns="http://www.w3.org/2000/svg" viewBox="0 0 448 512"><!-- Font Awesome Pro 6.0.0-alpha1 by @fontawesome - https://fontawesome.com License - https://fontawesome.com/license (Commercial License) --><defs><style>.fa-secondary{opacity:.4}</style></defs><path d="M0 96V416C0 451 29 480 64 480H384C419 480 448 451 448 416V96C448 61 419 32 384 32H64C29 32 0 61 0 96ZM386 259C391 264 392 272 388 278L361 322C357 328 349 331 341 328L287 306C280 304 276 297 277 290L280 256C244 243 204 243 168 256L171 290C172 297 168 304 161 306L107 328C99 331 91 328 87 322L60 278C56 272 57 264 62 259C151 170 297 170 386 259Z" class="fa-secondary"/><path d="M342 328L287 306C281 304 277 297 277 290L281 256C244 243 204 243 168 256L171 290C172 297 168 304 162 306L107 328C100 331 92 328 88 322L60 278C57 272 57 264 63 259C152 170 297 170 386 259C391 264 392 272 388 278L361 322C357 328 349 331 342 328Z" class="fa-primary"/></svg>