<svg xmlns="http://www.w3.org/2000/svg" viewBox="0 0 448 512"><!-- Font Awesome Pro 6.0.0-alpha1 by @fontawesome - https://fontawesome.com License - https://fontawesome.com/license (Commercial License) --><defs><style>.fa-secondary{opacity:.4}</style></defs><path d="M64 480H384C419 480 448 451 448 416V96C448 61 419 32 384 32H64C29 32 0 61 0 96V416C0 451 29 480 64 480ZM89 269L207 151C216 142 232 142 241 151L359 269C362 272 364 276 364 281C364 285 362 289 359 292L336 315C330 322 320 322 313 315L224 226L135 315C128 322 118 322 112 315L89 292C86 289 84 285 84 281C84 276 86 272 89 269Z" class="fa-secondary"/><path d="M89 269L207 151C216 142 232 142 241 151L360 269C363 272 364 276 364 281C364 285 363 289 360 292L337 315C330 322 320 322 314 315L224 226L135 315C128 322 118 322 112 315L89 292C86 289 84 285 84 281C84 276 86 272 89 269Z" class="fa-primary"/></svg>