<svg xmlns="http://www.w3.org/2000/svg" viewBox="0 0 448 512"><!-- Font Awesome Pro 6.0.0-alpha1 by @fontawesome - https://fontawesome.com License - https://fontawesome.com/license (Commercial License) --><defs><style>.fa-secondary{opacity:.4}</style></defs><path d="M335 129C325 126 315 130 309 138L224 255L139 138C133 129 122 126 113 129C103 132 96 142 96 152V360C96 373 107 384 120 384S144 373 144 360V226L205 310C214 323 234 323 243 310L304 226V360C304 373 315 384 328 384S352 373 352 360V152C352 142 345 132 335 129Z" class="fa-secondary"/><path d="M384 32H64C29 32 0 61 0 96V416C0 451 29 480 64 480H384C419 480 448 451 448 416V96C448 61 419 32 384 32ZM352 360C352 373 341 384 328 384S304 373 304 360V226L243 310C234 323 214 323 205 310L144 226V360C144 373 133 384 120 384S96 373 96 360V152C96 142 103 132 113 129C122 126 133 130 139 138L224 255L309 138C315 129 325 126 335 129C345 132 352 142 352 152V360Z" class="fa-primary"/></svg>