<svg xmlns="http://www.w3.org/2000/svg" viewBox="0 0 512 512"><!-- Font Awesome Pro 6.0.0-alpha1 by @fontawesome - https://fontawesome.com License - https://fontawesome.com/license (Commercial License) --><defs><style>.fa-secondary{opacity:.4}</style></defs><path d="M96 304V348L156 288H112C103 288 96 295 96 304ZM370 285L402 303C410 308 420 305 424 298L443 264L370 285Z" class="fa-secondary"/><path d="M512 80V184C512 220 488 251 454 261L285 309C272 313 260 320 251 329L75 505C66 514 50 514 41 505L7 471C-2 462 -2 446 7 437L183 261C204 240 230 225 259 217L416 172V96H366L354 119C350 127 341 130 333 126L275 98C268 94 264 84 268 76L284 44C298 17 325 0 356 0H432C476 0 512 36 512 80Z" class="fa-primary"/></svg>