<svg xmlns="http://www.w3.org/2000/svg" viewBox="0 0 576 512"><!-- Font Awesome Pro 6.0.0-alpha1 by @fontawesome - https://fontawesome.com License - https://fontawesome.com/license (Commercial License) --><defs><style>.fa-secondary{opacity:.4}</style></defs><path d="M560 224C569 224 576 216 576 208V155C576 148 572 142 565 140L311 48C256 28 194 26 139 49C-4 111 0 256 0 256S-4 401 139 463C194 486 256 484 311 464L328 458L227 336C226 336 225 336 224 336C179 337 142 301 142 256C141 211 177 174 222 174S303 209 304 254C304 261 303 268 302 275L391 384H432C448 384 463 392 472 406L565 372C572 370 576 364 576 357V304C576 296 569 288 560 288H416V224H560ZM80 272C71 272 64 265 64 256C64 247 71 240 80 240S96 247 96 256S89 272 80 272ZM112 368C103 368 96 361 96 352C96 343 103 336 112 336C121 336 128 343 128 352C128 361 121 368 112 368ZM112 176C103 176 96 169 96 160C96 151 103 144 112 144C121 144 128 151 128 160C128 169 121 176 112 176Z" class="fa-secondary"/><path d="M128 352C128 361 121 368 112 368C103 368 96 361 96 352C96 343 103 336 112 336C121 336 128 343 128 352ZM112 144C103 144 96 151 96 160C96 169 103 176 112 176C121 176 128 169 128 160C128 160 128 160 128 160C128 151 121 144 112 144C112 144 112 144 112 144ZM80 240C71 240 64 247 64 256C64 265 71 272 80 272C89 272 96 265 96 256C96 256 96 256 96 256C96 247 89 240 80 240C80 240 80 240 80 240L80 240ZM480 432C480 458 458 480 432 480H368C354 480 340 474 331 462L227 336C226 336 225 336 224 336C179 337 142 301 142 256C141 211 177 174 222 174C267 173 303 209 304 254C304 261 303 268 302 275L391 384H432C459 384 480 406 480 432ZM256 256C256 238 242 224 224 224C206 224 192 238 192 256C192 274 206 288 224 288C242 288 256 274 256 256Z" class="fa-primary"/></svg>