<svg xmlns="http://www.w3.org/2000/svg" viewBox="0 0 512 512"><!-- Font Awesome Pro 6.0.0-alpha1 by @fontawesome - https://fontawesome.com License - https://fontawesome.com/license (Commercial License) --><defs><style>.fa-secondary{opacity:.4}</style></defs><path d="M509 219L469 203L453 163C452 161 450 160 448 160S444 161 443 163L427 203L387 219C385 220 384 222 384 224S385 228 387 229L427 245L443 285C444 287 446 288 448 288S452 287 453 285L469 245L509 229C511 228 512 226 512 224S511 220 509 219ZM416 80C416 78 415 75 412 74L363 53L342 4C341 1 338 0 336 0S331 1 330 4L309 53L260 74C257 75 256 78 256 80S257 85 260 86L309 107L330 156C331 159 334 160 336 160S341 159 342 156L363 107L412 86C415 85 416 82 416 80Z" class="fa-secondary"/><path d="M364 267L260 252L213 157C204 140 180 140 171 157L125 252L20 267C1 270 -7 293 7 307L83 381L65 485C62 504 82 518 98 509L192 460L286 509C293 513 303 513 310 508C317 502 321 494 319 485L301 381L377 306C391 293 383 270 364 267Z" class="fa-primary"/></svg>