<svg xmlns="http://www.w3.org/2000/svg" viewBox="0 0 512 512"><!-- Font Awesome Pro 6.0.0-alpha1 by @fontawesome - https://fontawesome.com License - https://fontawesome.com/license (Commercial License) --><defs><style>.fa-secondary{opacity:.4}</style></defs><path d="M136 352C130 352 124 354 119 359L71 407C62 416 62 432 71 441S96 450 105 441L153 393C162 384 162 368 153 359C148 354 142 352 136 352ZM376 160C382 160 388 158 393 153L441 105C450 96 450 80 441 71S416 62 407 71L359 119C350 128 350 144 359 153C364 158 370 160 376 160ZM105 71C96 62 80 62 71 71S62 96 71 105L119 153C124 158 130 160 136 160S148 158 153 153C162 144 162 128 153 119L105 71ZM393 359C388 354 382 352 376 352S364 354 359 359C350 368 350 384 359 393L407 441C416 450 432 450 441 441S450 416 441 407L393 359Z" class="fa-secondary"/><path d="M512 256C512 267 505 277 494 280L322 322L279 494C277 505 267 512 256 512S235 505 232 494L190 322L18 280C7 277 0 267 0 256C0 245 7 235 18 232L190 190L232 18C235 7 245 0 256 0S277 7 280 18L322 190L494 232C505 235 512 245 512 256Z" class="fa-primary"/></svg>