<svg xmlns="http://www.w3.org/2000/svg" viewBox="0 0 640 512"><!-- Font Awesome Pro 6.0.0-alpha1 by @fontawesome - https://fontawesome.com License - https://fontawesome.com/license (Commercial License) --><defs><style>.fa-secondary{opacity:.4}</style></defs><path d="M208 352H24C11 352 0 363 0 376V392C0 405 11 416 24 416H208C226 416 240 402 240 384S226 352 208 352ZM448 64C342 64 256 150 256 256S342 448 448 448S640 362 640 256S554 64 448 64ZM448 320C413 320 384 291 384 256S413 192 448 192S512 221 512 256C512 291 483 320 448 320ZM208 96H24C11 96 0 107 0 120V136C0 149 11 160 24 160H208C226 160 240 146 240 128S226 96 208 96Z" class="fa-secondary"/><path d="M448 192C412 192 384 221 384 256S412 320 448 320S512 291 512 256C512 221 483 192 448 192ZM448 288C430 288 416 274 416 256S430 224 448 224S480 238 480 256C480 274 465 288 448 288ZM204 211L141 160H65L136 217L130 218C111 220 96 236 96 256S111 292 130 294L136 295L65 352H141L204 301L229 303C225 287 224 272 224 256S225 225 229 209L204 211Z" class="fa-primary"/></svg>