<svg xmlns="http://www.w3.org/2000/svg" viewBox="0 0 512 512"><!-- Font Awesome Pro 6.0.0-alpha1 by @fontawesome - https://fontawesome.com License - https://fontawesome.com/license (Commercial License) --><defs><style>.fa-secondary{opacity:.4}</style></defs><path d="M509 231L454 285L467 361C468 367 463 372 457 372C455 372 454 372 452 371L384 335L316 371C314 372 313 372 311 372C305 372 300 367 301 361L314 285L259 231C253 225 256 215 265 214L341 203L375 133C377 130 381 128 384 128C388 128 391 130 393 134L427 203L504 214C512 215 515 225 509 231Z" class="fa-secondary"/><path d="M341 466C339 466 334 467 331 467C215 467 121 372 121 256S215 45 331 45C334 45 339 46 341 46C348 46 354 41 355 34C357 26 353 19 346 17C317 6 286 0 256 0C115 0 0 115 0 256S115 512 256 512C286 512 316 506 345 496C351 494 356 488 356 481C356 473 349 466 341 466Z" class="fa-primary"/></svg>