<svg xmlns="http://www.w3.org/2000/svg" viewBox="0 0 640 512"><!-- Font Awesome Pro 6.0.0-alpha1 by @fontawesome - https://fontawesome.com License - https://fontawesome.com/license (Commercial License) --><defs><style>.fa-secondary{opacity:.4}</style></defs><path d="M208 288H144C135 288 128 295 128 304V432C128 441 135 448 144 448H208C217 448 224 441 224 432V304C224 295 217 288 208 288ZM56 128H48V113C48 105 43 98 35 96C26 95 18 101 16 109C16 110 16 111 16 112V128H8C4 128 0 132 0 136V152C0 156 4 160 8 160H16V431C16 439 21 446 29 448C38 449 46 443 48 435C48 434 48 433 48 432V160H56C60 160 64 156 64 152V136C64 132 60 128 56 128ZM320 224C302 224 288 238 288 256V304C288 313 295 320 304 320H336C345 320 352 313 352 304V256C352 238 338 224 320 224ZM496 288H432C423 288 416 295 416 304V432C416 441 423 448 432 448H496C505 448 512 441 512 432V304C512 295 505 288 496 288ZM632 128H624V113C624 105 619 98 611 96C602 95 594 101 592 109C592 110 592 111 592 112V128H584C580 128 576 132 576 136V152C576 156 580 160 584 160H592V431C592 439 597 446 605 448C614 449 622 443 624 435C624 434 624 433 624 432V160H632C636 160 640 156 640 152V136C640 132 636 128 632 128Z" class="fa-secondary"/><path d="M512 352V432C512 441 505 448 496 448H432C423 448 416 441 416 432V352H384V256L354 14C353 6 346 0 338 0H302C294 0 287 6 286 14L256 256V352H224V432C224 441 217 448 208 448H144C135 448 128 441 128 432V352H48V429L176 480V496C176 505 183 512 192 512H208C217 512 224 505 224 496V480H416V496C416 505 423 512 432 512H448C457 512 464 505 464 496V480L592 429V352H512ZM352 304C352 313 345 320 336 320H304C295 320 288 313 288 304V256C288 238 302 224 320 224S352 238 352 256V304Z" class="fa-primary"/></svg>