<svg xmlns="http://www.w3.org/2000/svg" viewBox="0 0 576 512"><!-- Font Awesome Pro 6.0.0-alpha1 by @fontawesome - https://fontawesome.com License - https://fontawesome.com/license (Commercial License) --><defs><style>.fa-secondary{opacity:.4}</style></defs><path d="M515 77C468 23 416 0 369 0C298 0 237 51 214 129C165 269 1 212 0 352C-1 473 139 516 256 512C344 508 443 475 527 380C597 300 592 164 515 77ZM478 338C402 424 314 445 254 448C216 449 122 441 82 401C80 399 23 339 120 297C192 266 253 226 276 147C290 97 327 64 369 64C401 64 435 83 467 119C522 182 527 282 478 338Z" class="fa-secondary"/><path d="M467 119C436 83 402 64 369 64C327 64 291 97 276 147C253 226 192 266 121 297C23 339 80 399 83 401C122 441 216 449 254 448C315 445 403 424 479 338C528 282 522 182 467 119ZM384 256C367 256 352 242 352 224C352 206 367 192 384 192S416 206 416 224C416 242 402 256 384 256Z" class="fa-primary"/></svg>