<svg xmlns="http://www.w3.org/2000/svg" viewBox="0 0 320 512"><!-- Font Awesome Pro 6.0.0-alpha1 by @fontawesome - https://fontawesome.com License - https://fontawesome.com/license (Commercial License) --><defs><style>.fa-secondary{opacity:.4}</style></defs><path d="M240 224H128V288H240C249 288 256 281 256 272V240C256 231 249 224 240 224ZM0 240V272C0 281 7 288 16 288H48V224H16C7 224 0 231 0 240Z" class="fa-secondary"/><path d="M320 424V456C320 469 309 480 296 480L32 480C15 480 0 466 0 448V430C0 418 7 406 18 402C36 394 48 377 48 357V167C48 100 95 41 161 33C181 30 201 33 220 40L295 66C307 71 314 84 309 97L299 127C294 140 280 146 268 142L193 115C188 113 182 112 177 112C150 112 128 134 128 161V357C128 372 125 387 120 400H296C309 400 320 411 320 424Z" class="fa-primary"/></svg>