<svg xmlns="http://www.w3.org/2000/svg" viewBox="0 0 576 512"><!-- Font Awesome Pro 6.0.0-alpha1 by @fontawesome - https://fontawesome.com License - https://fontawesome.com/license (Commercial License) --><defs><style>.fa-secondary{opacity:.4}</style></defs><path d="M512 265V344C512 437 433 512 336 512C241 512 163 439 160 349H161C171 351 181 352 192 352S213 351 223 349H224C227 404 276 448 336 448C398 448 448 401 448 344V265C458 270 469 272 480 272C491 272 502 270 512 265Z" class="fa-secondary"/><path d="M317 13L254 0C241 -2 228 6 226 19C226 19 226 19 226 19L222 35C220 48 228 61 241 63C241 63 241 63 241 63L272 69L272 192C272 245 229 288 176 288S80 245 80 192L80 120V69L111 63C124 61 132 48 129 35C129 35 129 35 129 35L126 19C124 6 111 -2 98 1C98 1 98 1 98 1L35 13C24 15 16 25 16 37V192C16 280 88 352 176 352S336 280 336 192V37C336 25 328 15 317 13ZM464 112C420 112 384 148 384 192S420 272 464 272C508 272 544 236 544 192S508 112 464 112ZM464 216C451 216 440 205 440 192S451 168 464 168C477 168 488 179 488 192S477 216 464 216Z" class="fa-primary"/></svg>