<svg xmlns="http://www.w3.org/2000/svg" viewBox="0 0 384 512"><!-- Font Awesome Pro 6.0.0-alpha1 by @fontawesome - https://fontawesome.com License - https://fontawesome.com/license (Commercial License) --><defs><style>.fa-secondary{opacity:.4}</style></defs><path d="M352 0H96C78 0 64 14 64 32V64C64 82 78 96 96 96H352C370 96 384 82 384 64V32C384 14 370 0 352 0ZM224 368C224 400 238 429 260 450L281 436C325 406 352 357 352 303V258C347 257 341 256 336 256C274 256 224 306 224 368Z" class="fa-secondary"/><path d="M260 450L199 490C177 505 153 512 128 512C87 512 46 492 22 455C-18 396 -2 317 57 278L96 251V96H352V258C347 257 341 256 336 256C274 256 224 306 224 368C224 400 238 429 260 450Z" class="fa-primary"/></svg>