<svg xmlns="http://www.w3.org/2000/svg" viewBox="0 0 576 512"><!-- Font Awesome Pro 6.0.0-alpha1 by @fontawesome - https://fontawesome.com License - https://fontawesome.com/license (Commercial License) --><defs><style>.fa-secondary{opacity:.4}</style></defs><path d="M512 219V464C512 490 491 512 464 512H112C86 512 64 490 64 464V219C69 221 74 222 80 223C84 224 88 224 92 224C105 224 117 221 128 216V384H448V216C459 221 471 224 483 224C488 224 492 224 496 223C501 222 507 221 512 219Z" class="fa-secondary"/><path d="M496 223C492 224 488 224 483 224C457 224 434 213 418 195C402 213 379 224 353 224C327 224 304 213 288 195C272 213 249 224 223 224C197 224 173 213 158 195C142 213 118 224 92 224C88 224 84 224 80 223C25 216 -1 151 28 104L86 13C91 5 100 0 110 0H466C476 0 485 5 490 13L548 104C577 151 551 216 496 223Z" class="fa-primary"/></svg>