<svg xmlns="http://www.w3.org/2000/svg" viewBox="0 0 640 512"><!-- Font Awesome Pro 6.0.0-alpha1 by @fontawesome - https://fontawesome.com License - https://fontawesome.com/license (Commercial License) --><defs><style>.fa-secondary{opacity:.4}</style></defs><path d="M159 384V250C148 254 136 256 124 256C118 256 113 256 108 255C103 254 100 253 96 252V464C96 490 117 512 144 512H496C505 512 513 509 520 505L366 384H159ZM124 224C135 224 145 222 154 218L49 135C43 176 68 217 112 223C116 224 120 224 124 224ZM515 256C503 256 491 254 480 250V351L544 401V252C539 253 536 254 531 255C526 256 521 256 515 256ZM579 104L522 13C517 5 508 0 498 0H141C131 0 122 5 117 13L94 49L300 211C308 206 314 201 319 195C335 213 359 224 385 224C411 224 434 213 450 195C466 213 489 224 515 224C519 224 523 224 527 223C583 216 609 151 579 104Z" class="fa-secondary"/><path d="M635 503C627 513 612 515 601 507L9 43C-1 35 -3 20 5 9C10 3 17 0 24 0C29 0 34 2 39 5L631 469C641 477 643 492 635 503Z" class="fa-primary"/></svg>