<svg xmlns="http://www.w3.org/2000/svg" viewBox="0 0 512 512"><!-- Font Awesome Pro 6.0.0-alpha1 by @fontawesome - https://fontawesome.com License - https://fontawesome.com/license (Commercial License) --><defs><style>.fa-secondary{opacity:.4}</style></defs><path d="M120 240C105 222 96 198 96 164C96 86 162 32 256 32C293 32 350 46 379 53C388 56 393 64 390 73L377 119C375 128 367 133 358 130C322 121 278 112 256 112C243 112 176 114 176 164C176 198 189 206 262 216C288 220 322 225 352 240H120ZM329 320C334 327 336 336 336 348C336 398 269 400 256 400C234 400 190 391 154 382C145 379 137 384 135 393L122 439C119 448 124 456 133 459C162 466 219 480 256 480C350 480 416 426 416 348C416 338 415 329 413 320H329Z" class="fa-secondary"/><path d="M488 240H24C11 240 0 251 0 264C0 277 11 288 24 288H488C501 288 512 277 512 264C512 251 501 240 488 240Z" class="fa-primary"/></svg>