<svg xmlns="http://www.w3.org/2000/svg" viewBox="0 0 512 512"><!-- Font Awesome Pro 6.0.0-alpha1 by @fontawesome - https://fontawesome.com License - https://fontawesome.com/license (Commercial License) --><defs><style>.fa-secondary{opacity:.4}</style></defs><path d="M509 347L446 256L509 165C516 156 510 143 499 141L390 122L371 13C369 2 356 -4 347 3L256 66L165 3C156 -4 143 2 141 13L122 122L13 141C2 143 -4 156 3 165L66 256L3 347C-4 356 2 369 13 371L122 390L141 499C143 510 156 516 165 509L256 446L347 509C356 516 369 510 371 499L390 390L499 371C510 369 516 356 509 347ZM256 384C185 384 128 327 128 256C128 185 185 128 256 128S384 185 384 256C384 327 327 384 256 384Z" class="fa-secondary"/><path d="M256 160C203 160 160 203 160 256S203 352 256 352S352 309 352 256S309 160 256 160Z" class="fa-primary"/></svg>