<svg xmlns="http://www.w3.org/2000/svg" viewBox="0 0 576 512"><!-- Font Awesome Pro 6.0.0-alpha1 by @fontawesome - https://fontawesome.com License - https://fontawesome.com/license (Commercial License) --><defs><style>.fa-secondary{opacity:.4}</style></defs><path d="M286 384C251 384 220 403 203 432H369C352 403 321 384 286 384ZM529 365L420 346L401 237C399 226 386 220 377 227L286 290L195 227C186 220 173 226 171 237L152 346L43 365C32 367 26 380 33 389L63 432H168C187 385 232 352 286 352S385 385 404 432H509L539 389C546 380 540 367 529 365Z" class="fa-secondary"/><path d="M560 464H16C7 464 0 471 0 480V496C0 505 7 512 16 512H560C569 512 576 505 576 496V480C576 471 569 464 560 464ZM228 121L256 99V192C256 210 270 224 288 224S320 210 320 192V99L348 121C362 132 382 130 393 116C404 102 402 82 388 71L308 7C306 6 305 5 303 4C302 4 301 3 299 2C296 1 292 0 288 0S280 1 277 2C275 3 274 4 273 4C271 5 269 6 268 7L188 71C174 82 172 102 183 116C194 130 214 132 228 121Z" class="fa-primary"/></svg>