<svg xmlns="http://www.w3.org/2000/svg" viewBox="0 0 512 512"><!-- Font Awesome Pro 6.0.0-alpha1 by @fontawesome - https://fontawesome.com License - https://fontawesome.com/license (Commercial License) --><defs><style>.fa-secondary{opacity:.4}</style></defs><path d="M435 168L345 77C332 65 312 65 300 77L299 77L224 153V424L435 213C447 200 447 180 435 168ZM480 320H373L187 506C185 509 182 510 180 512H480C498 512 512 498 512 480V352C512 334 498 320 480 320ZM64 256H128V192H64V256ZM64 128H128V64H64V128Z" class="fa-secondary"/><path d="M192 32C192 14 178 0 160 0H32C14 0 0 14 0 32V416C0 469 43 512 96 512S192 469 192 416V32ZM96 440C83 440 72 429 72 416S83 392 96 392S120 403 120 416S109 440 96 440ZM128 256H64V192H128V256ZM128 128H64V64H128V128Z" class="fa-primary"/></svg>