<svg xmlns="http://www.w3.org/2000/svg" viewBox="0 0 512 512"><!-- Font Awesome Pro 6.0.0-alpha1 by @fontawesome - https://fontawesome.com License - https://fontawesome.com/license (Commercial License) --><defs><style>.fa-secondary{opacity:.4}</style></defs><path d="M512 18L496 112L245 363L149 267L400 16L493 0C504 -1 513 8 512 18Z" class="fa-secondary"/><path d="M110 228C104 221 94 221 87 228L69 246C63 252 62 260 67 267L120 347L67 400L37 386C32 383 26 384 21 388L4 405C-1 411 -1 420 4 425L87 508C92 513 101 513 107 508L124 491C128 486 129 480 126 475L112 445L165 392L245 445C252 450 260 449 266 443L284 425C291 418 291 408 284 402L110 228Z" class="fa-primary"/></svg>