<svg xmlns="http://www.w3.org/2000/svg" viewBox="0 0 512 512"><!-- Font Awesome Pro 6.0.0-alpha1 by @fontawesome - https://fontawesome.com License - https://fontawesome.com/license (Commercial License) --><defs><style>.fa-secondary{opacity:.4}</style></defs><path d="M507 462L448 403L480 344C483 338 482 330 477 325L459 307C453 301 443 301 437 307L307 437C301 443 301 453 307 459L325 477C330 482 337 483 344 480L403 448L462 507C468 514 478 514 485 507L507 485C513 479 513 468 507 462ZM75 307C69 301 59 301 53 307L35 325C30 330 29 338 32 344L64 403L5 462C-2 468 -2 479 5 485L27 507C33 514 44 514 50 507L109 448L168 480C174 483 182 482 187 477L205 459C211 453 211 443 205 437L75 307Z" class="fa-secondary"/><path d="M15 0C6 -1 -1 6 0 15L13 93L332 412L412 332L93 13L15 0ZM497 0L419 13L279 153L359 233L499 93L512 15C513 6 506 -1 497 0ZM100 332L180 412L233 359L153 279L100 332Z" class="fa-primary"/></svg>