<svg xmlns="http://www.w3.org/2000/svg" viewBox="0 0 640 512"><!-- Font Awesome Pro 6.0.0-alpha1 by @fontawesome - https://fontawesome.com License - https://fontawesome.com/license (Commercial License) --><defs><style>.fa-secondary{opacity:.4}</style></defs><path d="M272 32H240C231 32 224 39 224 48V253L288 233V48C288 39 281 32 272 32ZM224 464C224 473 231 480 240 480H272C281 480 288 473 288 464V300L224 321V464ZM96 464C96 473 103 480 112 480H144C153 480 160 473 160 464V341L96 362V464ZM144 32H112C103 32 96 39 96 48V295L160 274V48C160 39 153 32 144 32ZM528 32H496C487 32 480 39 480 48V171L544 150V48C544 39 537 32 528 32ZM480 464C480 473 487 480 496 480H528C537 480 544 473 544 464V217L480 238V464ZM400 32H368C359 32 352 39 352 48V212L416 191V48C416 39 409 32 400 32ZM352 464C352 473 359 480 368 480H400C409 480 416 473 416 464V259L352 279V464Z" class="fa-secondary"/><path d="M629 190L31 383C23 386 13 381 11 373L1 343C-2 334 3 325 11 322L609 129C618 126 627 131 629 139L639 170C642 178 637 187 629 190Z" class="fa-primary"/></svg>