<svg xmlns="http://www.w3.org/2000/svg" viewBox="0 0 448 512"><!-- Font Awesome Pro 6.0.0-alpha1 by @fontawesome - https://fontawesome.com License - https://fontawesome.com/license (Commercial License) --><defs><style>.fa-secondary{opacity:.4}</style></defs><path d="M48 32H16C7 32 0 39 0 48V464C0 473 7 480 16 480H48C57 480 64 473 64 464V48C64 39 57 32 48 32Z" class="fa-secondary"/><path d="M176 32H144C135 32 128 39 128 48V464C128 473 135 480 144 480H176C185 480 192 473 192 464V48C192 39 185 32 176 32Z" class="fa-primary"/></svg>