<svg xmlns="http://www.w3.org/2000/svg" viewBox="0 0 640 512"><!-- Font Awesome Pro 6.0.0-alpha1 by @fontawesome - https://fontawesome.com License - https://fontawesome.com/license (Commercial License) --><defs><style>.fa-secondary{opacity:.4}</style></defs><path d="M256 80C159 80 80 159 80 256S159 432 256 432S432 353 432 256S353 80 256 80ZM256 352C203 352 160 309 160 256C160 203 203 160 256 160S352 203 352 256C352 309 309 352 256 352Z" class="fa-secondary"/><path d="M256 224C238 224 224 238 224 256S238 288 256 288S288 274 288 256S274 224 256 224ZM608 432H419C466 388 496 326 496 256C496 123 389 16 256 16S16 123 16 256S123 496 256 496C260 496 608 496 608 496C617 496 624 489 624 480V448C624 439 617 432 608 432ZM256 432C159 432 80 353 80 256S159 80 256 80S432 159 432 256S353 432 256 432Z" class="fa-primary"/></svg>