<svg xmlns="http://www.w3.org/2000/svg" viewBox="0 0 512 512"><!-- Font Awesome Pro 6.0.0-alpha1 by @fontawesome - https://fontawesome.com License - https://fontawesome.com/license (Commercial License) --><defs><style>.fa-secondary{opacity:.4}</style></defs><path d="M352 32C352 14 338 0 320 0H192C174 0 160 14 160 32V64H352V32ZM0 480C0 498 14 512 32 512H64C82 512 96 498 96 480V432H0V480ZM347 128H165C151 128 139 137 135 150L110 224H402L377 150C373 137 361 128 347 128ZM416 432V480C416 498 430 512 448 512H480C498 512 512 498 512 480V432H416Z" class="fa-secondary"/><path d="M471 228L438 130C425 90 388 64 347 64H165C124 64 87 90 74 130L41 228C17 238 0 261 0 288V432H512V288C512 261 495 238 471 228ZM135 150C139 137 151 128 165 128H347C361 128 373 137 377 150L402 224H110L135 150ZM96 352C78 352 64 338 64 320C64 302 78 288 96 288S128 302 128 320C128 338 114 352 96 352ZM416 352C398 352 384 338 384 320C384 302 398 288 416 288S448 302 448 320C448 338 434 352 416 352Z" class="fa-primary"/></svg>