<svg xmlns="http://www.w3.org/2000/svg" viewBox="0 0 576 512"><!-- Font Awesome Pro 6.0.0-alpha1 by @fontawesome - https://fontawesome.com License - https://fontawesome.com/license (Commercial License) --><defs><style>.fa-secondary{opacity:.4}</style></defs><path d="M544 278V112C544 50 494 0 432 0S320 50 320 112V278C300 303 288 334 288 368C288 447 353 512 432 512S576 447 576 368C576 334 564 303 544 278ZM432 448C388 448 352 412 352 368C352 342 364 319 384 304V112C384 86 406 64 432 64S480 86 480 112V304C500 319 512 342 512 368C512 412 476 448 432 448Z" class="fa-secondary"/><path d="M200 125L240 85C245 80 245 73 240 68L232 59C227 55 219 55 215 59L200 74V44C200 37 195 32 188 32H164C157 32 152 37 152 44V74L137 59C133 55 125 55 120 59L112 68C107 73 107 80 112 85L152 125V182L102 153L87 97C85 91 78 87 72 89L60 92C54 94 50 100 51 107L57 127L30 112C25 109 17 111 14 116L2 137C-2 143 0 150 6 154L33 169L12 175C6 176 2 183 4 190L7 201C8 208 15 212 22 210L77 195L128 224L77 253L22 238C15 236 9 240 7 247L4 258C2 265 6 271 12 273L33 279L6 294C0 297 -2 305 2 311L14 332C17 338 25 339 30 336L57 321L52 341C50 348 54 354 60 356L72 359C78 361 85 357 87 351L102 295L152 266V323L112 363C107 368 107 375 112 380L120 389C125 393 133 393 137 389L152 374V404C152 411 158 416 164 416H188C195 416 200 411 200 404V374L215 389C220 393 227 393 232 389L240 380C245 375 245 368 240 363L200 323V266L268 305C273 292 280 280 288 268V261L225 224L288 187V131L200 182V125ZM448 323V304C448 295 441 288 432 288C423 288 416 295 416 304V323C397 330 384 347 384 368C384 394 406 416 432 416C459 416 480 394 480 368C480 347 467 330 448 323Z" class="fa-primary"/></svg>