<svg xmlns="http://www.w3.org/2000/svg" viewBox="0 0 512 512"><!-- Font Awesome Pro 6.0.0-alpha1 by @fontawesome - https://fontawesome.com License - https://fontawesome.com/license (Commercial License) --><defs><style>.fa-secondary{opacity:.4}</style></defs><path d="M256 278V112C256 50 206 0 144 0C82 0 32 50 32 112V278C12 303 0 334 0 368C0 447 65 512 144 512C223 512 288 447 288 368C288 334 276 303 256 278ZM220 393C209 426 178 448 144 448C110 448 79 426 68 393C57 361 69 325 96 304V112C96 86 118 64 144 64C170 64 192 86 192 112V304C219 325 231 361 220 393Z" class="fa-secondary"/><path d="M160 323V112C160 103 153 96 144 96C135 96 128 103 128 112V323C106 331 93 353 97 376C101 399 121 416 144 416C167 416 187 399 191 376C195 353 182 331 160 323ZM505 124L441 44C429 29 403 29 391 44L327 124C316 138 318 158 332 169C346 180 366 178 377 164L384 155V448C384 466 398 480 416 480S448 466 448 448V155L455 164C461 172 471 176 480 176C487 176 494 174 500 169C514 158 516 138 505 124Z" class="fa-primary"/></svg>