<svg xmlns="http://www.w3.org/2000/svg" viewBox="0 0 512 512"><!-- Font Awesome Pro 6.0.0-alpha1 by @fontawesome - https://fontawesome.com License - https://fontawesome.com/license (Commercial License) --><defs><style>.fa-secondary{opacity:.4}</style></defs><path d="M270 17C265 16 261 16 256 16C250 16 243 16 237 17C239 27 240 37 240 48C240 154 154 240 48 240C37 240 27 239 17 237C16 243 16 250 16 256C16 261 16 265 17 270C27 271 37 272 48 272C172 272 272 172 272 48C272 37 271 27 270 17ZM495 242C485 241 475 240 464 240C340 240 240 340 240 464C240 475 241 485 242 495C247 496 251 496 256 496C262 496 269 496 275 495C273 485 272 475 272 464C272 358 358 272 464 272C475 272 485 273 495 275C496 269 496 262 496 256C496 251 496 247 495 242Z" class="fa-secondary"/><path d="M464 240C475 240 485 241 496 242C489 121 392 24 270 17C271 27 272 37 272 48C272 172 172 272 48 272C38 272 27 271 17 270C24 391 121 488 243 495C241 485 240 475 240 464C240 340 341 240 464 240ZM240 48C240 37 239 27 238 17C120 26 26 120 17 237C27 239 38 240 48 240C154 240 240 154 240 48ZM272 464C272 475 273 485 275 495C393 486 486 392 495 275C485 273 475 272 464 272C358 272 272 358 272 464Z" class="fa-primary"/></svg>