<svg xmlns="http://www.w3.org/2000/svg" viewBox="0 0 576 512"><!-- Font Awesome Pro 6.0.0-alpha1 by @fontawesome - https://fontawesome.com License - https://fontawesome.com/license (Commercial License) --><defs><style>.fa-secondary{opacity:.4}</style></defs><path d="M304 32H16C7 32 0 39 0 48V144C0 153 7 160 16 160H48C57 160 64 153 64 144V112H120V416H80C71 416 64 423 64 432V464C64 473 71 480 80 480H240C249 480 256 473 256 464V432C256 423 249 416 240 416H200V112H256V144C256 153 263 160 272 160H304C313 160 320 153 320 144V48C320 39 313 32 304 32Z" class="fa-secondary"/><path d="M571 395L491 475C485 482 475 482 469 475L389 395C379 385 386 368 400 368H448V144H400C384 144 379 126 389 117L469 37C475 30 485 30 491 37L571 117C581 127 574 144 560 144H512V368H560C576 368 581 386 571 395Z" class="fa-primary"/></svg>