<svg xmlns="http://www.w3.org/2000/svg" viewBox="0 0 384 512"><!-- Font Awesome Pro 6.0.0-alpha1 by @fontawesome - https://fontawesome.com License - https://fontawesome.com/license (Commercial License) --><defs><style>.fa-secondary{opacity:.4}</style></defs><path d="M288 256C288 273 286 289 282 304H102C98 289 96 273 96 256S98 223 102 208H282C286 223 288 239 288 256Z" class="fa-secondary"/><path d="M192 112C245 112 288 177 288 256S245 400 192 400S96 335 96 256S139 112 192 112M192 16C84 16 0 121 0 256S84 496 192 496S384 391 384 256S300 16 192 16L192 16Z" class="fa-primary"/></svg>