<svg xmlns="http://www.w3.org/2000/svg" viewBox="0 0 512 512"><!-- Font Awesome Pro 6.0.0-alpha1 by @fontawesome - https://fontawesome.com License - https://fontawesome.com/license (Commercial License) --><defs><style>.fa-secondary{opacity:.4}</style></defs><path d="M256 96C168 96 96 168 96 256S168 416 256 416S416 344 416 256S344 96 256 96ZM256 128C278 128 299 134 317 144L279 197C272 194 264 192 256 192S240 194 233 197L195 144C213 134 234 128 256 128ZM128 256C128 219 144 186 169 163L207 216C198 227 192 241 192 256C192 257 192 259 192 260L130 280C129 272 128 264 128 256ZM240 382C196 377 159 349 141 310L202 290C211 304 224 314 240 318V382ZM224 256C224 238 238 224 256 224S288 238 288 256S274 288 256 288S224 274 224 256ZM272 382V318C288 314 301 304 310 290L371 310C353 349 316 377 272 382ZM320 260C320 259 320 257 320 256C320 241 314 227 305 216L343 163C368 186 384 219 384 256C384 264 383 272 382 280L320 260Z" class="fa-secondary"/><path d="M256 224C238 224 224 238 224 256S238 288 256 288S288 274 288 256S274 224 256 224ZM256 0C115 0 0 115 0 256S115 512 256 512S512 397 512 256S397 0 256 0ZM256 416C168 416 96 344 96 256S168 96 256 96S416 168 416 256S344 416 256 416Z" class="fa-primary"/></svg>