<svg xmlns="http://www.w3.org/2000/svg" viewBox="0 0 512 512"><!-- Font Awesome Pro 6.0.0-alpha1 by @fontawesome - https://fontawesome.com License - https://fontawesome.com/license (Commercial License) --><defs><style>.fa-secondary{opacity:.4}</style></defs><path d="M256 128C168 128 96 200 96 288S168 448 256 448S416 376 416 288S344 128 256 128ZM256 160C278 160 299 166 317 176L279 229C272 226 264 224 256 224S240 226 233 229L195 176C213 166 234 160 256 160ZM128 288C128 251 144 218 169 195L207 248C198 259 192 273 192 288C192 289 192 291 192 292L130 312C129 304 128 296 128 288ZM240 414C196 409 159 381 141 342L202 322C211 336 224 346 240 350V414ZM224 288C224 270 238 256 256 256S288 270 288 288S274 320 256 320S224 306 224 288ZM272 414V350C288 346 301 336 310 322L371 342C353 381 316 409 272 414ZM320 292C320 291 320 289 320 288C320 273 314 259 305 248L343 195C368 218 384 251 384 288C384 296 383 304 382 312L320 292Z" class="fa-secondary"/><path d="M476 418C499 380 512 335 512 288C512 147 397 32 256 32S0 147 0 288C0 335 13 380 36 418C15 423 0 442 0 464C0 490 22 512 48 512H464C490 512 512 490 512 464C512 442 497 423 476 418ZM256 448C168 448 96 376 96 288S168 128 256 128S416 200 416 288S344 448 256 448ZM256 256C238 256 224 270 224 288S238 320 256 320S288 306 288 288S274 256 256 256Z" class="fa-primary"/></svg>