<svg xmlns="http://www.w3.org/2000/svg" viewBox="0 0 576 512"><!-- Font Awesome Pro 6.0.0-alpha1 by @fontawesome - https://fontawesome.com License - https://fontawesome.com/license (Commercial License) --><defs><style>.fa-secondary{opacity:.4}</style></defs><path d="M384 64H192C86 64 0 150 0 256C0 362 86 448 192 448H384C490 448 576 362 576 256C576 150 490 64 384 64ZM384 384H192C121 384 64 327 64 256S121 128 192 128H384C455 128 512 185 512 256S455 384 384 384Z" class="fa-secondary"/><path d="M288 256C288 309 245 352 192 352S96 309 96 256S139 160 192 160S288 203 288 256Z" class="fa-primary"/></svg>