<svg xmlns="http://www.w3.org/2000/svg" viewBox="0 0 576 512"><!-- Font Awesome Pro 6.0.0-alpha1 by @fontawesome - https://fontawesome.com License - https://fontawesome.com/license (Commercial License) --><defs><style>.fa-secondary{opacity:.4}</style></defs><path d="M480 0H128C75 0 32 86 32 192V364C32 405 22 427 1 491C-3 501 5 512 16 512H329C343 512 355 503 359 490C372 452 384 418 384 364V192C384 192 384 192 384 192C384 86 427 0 480 0Z" class="fa-secondary"/><path d="M480 0C427 0 384 86 384 192C384 192 384 192 384 192V364C384 371 383 378 383 384H480C533 384 576 298 576 192C576 86 533 0 480 0ZM480 256C462 256 448 227 448 192S462 128 480 128C497 128 512 157 512 192S497 256 480 256Z" class="fa-primary"/></svg>