<svg xmlns="http://www.w3.org/2000/svg" viewBox="0 0 512 512"><!-- Font Awesome Pro 6.0.0-alpha1 by @fontawesome - https://fontawesome.com License - https://fontawesome.com/license (Commercial License) --><defs><style>.fa-secondary{opacity:.4}</style></defs><path d="M416 384H96C43 384 0 298 0 192C0 86 43 0 96 0H416C363 0 320 86 320 192C320 298 363 384 416 384Z" class="fa-secondary"/><path d="M416 0C363 0 320 86 320 192C320 276 347 347 385 373L385 373C394 380 405 384 416 384H128V480C128 498 142 512 160 512H480C498 512 512 498 512 480V192C512 86 469 0 416 0ZM384 192C384 157 398 128 416 128S448 157 448 192S434 256 416 256S384 227 384 192Z" class="fa-primary"/></svg>