<svg xmlns="http://www.w3.org/2000/svg" viewBox="0 0 512 512"><!-- Font Awesome Pro 6.0.0-alpha1 by @fontawesome - https://fontawesome.com License - https://fontawesome.com/license (Commercial License) --><defs><style>.fa-secondary{opacity:.4}</style></defs><path d="M384 320V368C384 377 377 384 368 384H336C327 384 320 377 320 368V320H192V368C192 377 185 384 176 384H144C135 384 128 377 128 368V320H0V448C0 466 14 480 32 480H480C498 480 512 466 512 448V320H384ZM176 80H336V128H384V80C384 54 362 32 336 32H176C150 32 128 54 128 80V128H176V80Z" class="fa-secondary"/><path d="M512 205V320H384V272C384 263 377 256 368 256H336C327 256 320 263 320 272V320H192V272C192 263 185 256 176 256H144C135 256 128 263 128 272V320H0V205C0 197 3 189 9 183L55 137C61 131 69 128 77 128H435C443 128 451 131 457 137L503 183C509 189 512 197 512 205Z" class="fa-primary"/></svg>