<svg xmlns="http://www.w3.org/2000/svg" viewBox="0 0 448 512"><!-- Font Awesome Pro 6.0.0-alpha1 by @fontawesome - https://fontawesome.com License - https://fontawesome.com/license (Commercial License) --><defs><style>.fa-secondary{opacity:.4}</style></defs><path d="M394 213C374 240 366 273 363 307C359 348 354 389 345 430L338 459C336 471 325 480 313 480C301 480 291 472 288 460L258 339C254 323 240 311 224 311C208 311 194 323 190 339L160 460C157 472 147 480 135 480C123 480 112 471 110 459L103 430C94 389 89 348 85 307C82 273 74 240 54 213C35 187 27 153 35 116C45 77 76 45 114 34C134 29 154 34 172 43L258 100C264 104 273 102 277 96C281 89 279 80 273 76L248 60C251 59 255 58 257 56C280 39 306 27 334 34C372 45 403 77 413 116C421 153 413 187 394 213Z" class="fa-secondary"/></svg>