<svg xmlns="http://www.w3.org/2000/svg" viewBox="0 0 576 512"><!-- Font Awesome Pro 6.0.0-alpha1 by @fontawesome - https://fontawesome.com License - https://fontawesome.com/license (Commercial License) --><defs><style>.fa-secondary{opacity:.4}</style></defs><path d="M184 256H168C164 256 160 260 160 264V416H192V264C192 260 188 256 184 256ZM120 256H104C100 256 96 260 96 264V416H128V264C128 260 124 256 120 256ZM56 256H40C36 256 32 260 32 264V416H64V264C64 260 60 256 56 256ZM376 256H360C356 256 352 260 352 264V416H384V264C384 260 380 256 376 256ZM440 256H424C420 256 416 260 416 264V416H448V264C448 260 444 256 440 256ZM248 256H232C228 256 224 260 224 264V416H256V264C256 260 252 256 248 256ZM312 256H296C292 256 288 260 288 264V416H320V264C320 260 316 256 312 256Z" class="fa-secondary"/><path d="M64 224H416C451 224 480 195 480 160C480 89 423 32 352 32C376 56 359 96 326 96H64C29 96 0 125 0 160S29 224 64 224ZM560 416H16C7 416 0 423 0 432V464C0 473 7 480 16 480H560C569 480 576 473 576 464V432C576 423 569 416 560 416Z" class="fa-primary"/></svg>