<svg xmlns="http://www.w3.org/2000/svg" viewBox="0 0 512 512"><!-- Font Awesome Pro 6.0.0-alpha1 by @fontawesome - https://fontawesome.com License - https://fontawesome.com/license (Commercial License) --><defs><style>.fa-secondary{opacity:.4}</style></defs><path d="M64 192H128V128H64V192ZM224 192H288V128H224V192ZM384 128V192H448V128H384ZM64 496C64 505 71 512 80 512H112C121 512 128 505 128 496V256H64V496ZM384 496C384 505 391 512 400 512H432C441 512 448 505 448 496V256H384V496Z" class="fa-secondary"/><path d="M496 192H16C7 192 0 199 0 208V240C0 249 7 256 16 256H496C505 256 512 249 512 240V208C512 199 505 192 496 192ZM377 32H135C89 32 42 21 0 0V96C0 114 14 128 32 128H480C498 128 512 114 512 96V0C470 21 423 32 377 32Z" class="fa-primary"/></svg>