<svg xmlns="http://www.w3.org/2000/svg" viewBox="0 0 448 512"><!-- Font Awesome Pro 6.0.0-alpha1 by @fontawesome - https://fontawesome.com License - https://fontawesome.com/license (Commercial License) --><defs><style>.fa-secondary{opacity:.4}</style></defs><path d="M416 128H32C11 128 -5 148 1 169L39 301C35 306 32 313 32 320C32 338 46 352 64 352H384C402 352 416 338 416 320C416 313 413 306 409 301L447 169C453 148 437 128 416 128ZM128 288H85L53 176H128V288ZM288 288H160V176H288V288ZM363 288H320V176H395L363 288Z" class="fa-secondary"/><path d="M96 352V480C96 498 110 512 128 512H320C338 512 352 498 352 480V352H96ZM288 96H248V48H264C277 48 288 37 288 24C288 11 277 0 264 0H184C171 0 160 11 160 24C160 37 171 48 184 48H200V96H160C142 96 128 110 128 128H320C320 110 306 96 288 96Z" class="fa-primary"/></svg>