<svg xmlns="http://www.w3.org/2000/svg" viewBox="0 0 640 512"><!-- Font Awesome Pro 6.0.0-alpha1 by @fontawesome - https://fontawesome.com License - https://fontawesome.com/license (Commercial License) --><defs><style>.fa-secondary{opacity:.4}</style></defs><path d="M528 336C479 336 440 375 440 424C440 473 479 512 528 512S616 473 616 424C616 375 577 336 528 336ZM528 448C515 448 504 437 504 424C504 411 515 400 528 400S552 411 552 424C552 437 541 448 528 448ZM330 292H323C320 282 316 272 311 263L316 258C325 250 325 236 316 227L285 196C276 187 262 187 254 196L249 201C240 196 230 192 220 189V182C220 170 210 160 198 160H154C142 160 132 170 132 182V189C122 192 112 196 103 201L98 196C90 187 76 187 67 196L36 227C27 236 27 250 36 258L41 263C36 272 32 282 29 292H22C10 292 0 302 0 314V358C0 370 10 380 22 380H29C32 390 36 400 41 409L36 414C27 422 27 436 36 445L67 476C76 485 90 485 98 476L103 471C112 476 122 480 132 483V490C132 502 142 512 154 512H198C210 512 220 502 220 490V483C230 480 240 476 249 471L254 476C262 485 276 485 285 476L316 445C325 436 325 422 316 414L311 409C316 400 320 390 323 380H330C342 380 352 370 352 358V314C352 302 342 292 330 292ZM176 416C132 416 96 380 96 336C96 292 132 256 176 256S256 292 256 336C256 380 220 416 176 416Z" class="fa-secondary"/><path d="M640 192V243C640 251 637 259 631 265L580 316C564 308 546 304 528 304C489 304 454 323 433 352H352V314C352 302 342 292 330 292H323C320 282 316 272 311 263L316 258C325 250 325 236 316 227L285 196C276 187 262 187 254 196L249 201C240 196 230 192 220 189V182C220 170 210 160 198 160H308L267 64H160V160H154C142 160 132 170 132 182V189C122 192 112 196 103 201L98 196C98 195 97 195 96 194V48C96 22 118 0 144 0H277C297 0 314 11 322 29L378 160H480V120C480 90 490 61 510 38C515 31 525 30 532 36C533 36 534 37 534 37L556 61C561 67 562 75 557 81C549 92 544 106 544 120V160H608C626 160 640 174 640 192Z" class="fa-primary"/></svg>