<svg xmlns="http://www.w3.org/2000/svg" viewBox="0 0 640 512"><!-- Font Awesome Pro 6.0.0-alpha1 by @fontawesome - https://fontawesome.com License - https://fontawesome.com/license (Commercial License) --><defs><style>.fa-secondary{opacity:.4}</style></defs><path d="M96 104C96 100 92 96 88 96H72C68 96 64 100 64 104V264C74 256 85 249 96 244V104ZM192 225V104C192 100 188 96 184 96H168C164 96 160 100 160 104V225C165 225 171 224 176 224S187 225 192 225ZM280 96H264C260 96 256 100 256 104V244C267 249 278 256 288 264V104C288 100 284 96 280 96ZM472 96H456C452 96 448 100 448 104V320H480V104C480 100 476 96 472 96ZM376 96H360C356 96 352 100 352 104V320H384V104C384 100 380 96 376 96ZM176 320C132 320 96 356 96 400S132 480 176 480S256 444 256 400S220 320 176 320Z" class="fa-secondary"/><path d="M624 320H544V64C544 46 530 32 512 32H32C14 32 0 46 0 64V352C0 370 14 384 32 384H66C74 330 120 288 176 288S278 330 286 384H624C633 384 640 377 640 368V336C640 327 633 320 624 320ZM96 244C85 249 74 256 64 264V104C64 100 68 96 72 96H88C92 96 96 100 96 104V244ZM192 225C187 225 181 224 176 224S165 225 160 225V104C160 100 164 96 168 96H184C188 96 192 100 192 104V225ZM288 264C278 256 267 249 256 244V104C256 100 260 96 264 96H280C284 96 288 100 288 104V264ZM384 320H352V104C352 100 356 96 360 96H376C380 96 384 100 384 104V320ZM480 320H448V104C448 100 452 96 456 96H472C476 96 480 100 480 104V320Z" class="fa-primary"/></svg>