<svg xmlns="http://www.w3.org/2000/svg" viewBox="0 0 448 512"><!-- Font Awesome Pro 6.0.0-alpha1 by @fontawesome - https://fontawesome.com License - https://fontawesome.com/license (Commercial License) --><defs><style>.fa-secondary{opacity:.4}</style></defs><path d="M414 498L362 447C359 447 356 448 352 448H295L355 507C358 510 362 512 366 512H408C415 512 419 503 414 498ZM86 447L34 498C29 503 33 512 40 512H82C86 512 90 510 93 507L153 448H96C92 448 89 447 86 447ZM384 224V128C384 110 370 96 352 96H272C254 96 240 110 240 128V224C240 242 254 256 272 256H352C370 256 384 242 384 224ZM176 96H96C78 96 64 110 64 128V224C64 242 78 256 96 256H176C194 256 208 242 208 224V128C208 110 194 96 176 96Z" class="fa-secondary"/><path d="M352 0H96C43 0 0 43 0 96V352C0 402 38 442 86 447C89 447 92 448 96 448H352C356 448 359 447 362 447C410 442 448 402 448 352V96C448 43 405 0 352 0ZM96 384C78 384 64 370 64 352S78 320 96 320S128 334 128 352S114 384 96 384ZM208 224C208 242 194 256 176 256H96C78 256 64 242 64 224V128C64 110 78 96 96 96H176C194 96 208 110 208 128V224ZM352 384C334 384 320 370 320 352S334 320 352 320S384 334 384 352S370 384 352 384ZM384 224C384 242 370 256 352 256H272C254 256 240 242 240 224V128C240 110 254 96 272 96H352C370 96 384 110 384 128V224Z" class="fa-primary"/></svg>