<svg xmlns="http://www.w3.org/2000/svg" viewBox="0 0 448 512"><!-- Font Awesome Pro 6.0.0-alpha1 by @fontawesome - https://fontawesome.com License - https://fontawesome.com/license (Commercial License) --><defs><style>.fa-secondary{opacity:.4}</style></defs><path d="M32 96V464C32 490 54 512 80 512H368C394 512 416 490 416 464V96H32ZM144 416C144 425 137 432 128 432S112 425 112 416V192C112 183 119 176 128 176S144 183 144 192V416ZM240 416C240 425 233 432 224 432S208 425 208 416V192C208 183 215 176 224 176S240 183 240 192V416ZM336 416C336 425 329 432 320 432S304 425 304 416V192C304 183 311 176 320 176S336 183 336 192V416Z" class="fa-secondary"/><path d="M432 32H320L308 9C306 3 300 0 294 0H154C148 0 142 3 140 9L128 32H16C7 32 0 39 0 48V80C0 89 7 96 16 96H432C441 96 448 89 448 80V48C448 39 441 32 432 32Z" class="fa-primary"/></svg>