<svg xmlns="http://www.w3.org/2000/svg" viewBox="0 0 448 512"><!-- Font Awesome Pro 6.0.0-alpha1 by @fontawesome - https://fontawesome.com License - https://fontawesome.com/license (Commercial License) --><defs><style>.fa-secondary{opacity:.4}</style></defs><path d="M32 96V464C32 490 54 512 80 512H368C394 512 416 490 416 464V96H32ZM329 289C320 298 304 298 295 289L248 242V392C248 405 237 416 224 416S200 405 200 392V242L153 289C144 298 128 298 119 289S110 264 119 255L207 167C210 164 216 160 224 160S238 164 241 167L329 255C338 264 338 280 329 289Z" class="fa-secondary"/><path d="M241 167C238 164 232 160 224 160S210 164 207 167L119 255C110 264 110 280 119 289S144 298 153 289L200 242V392C200 405 211 416 224 416S248 405 248 392V242L295 289C304 298 320 298 329 289S338 264 329 255L241 167ZM432 32H312L303 13C298 5 290 0 281 0H167C158 0 149 5 145 13L136 32H16C7 32 0 39 0 48V80C0 89 7 96 16 96H432C441 96 448 89 448 80V48C448 39 441 32 432 32Z" class="fa-primary"/></svg>