<svg xmlns="http://www.w3.org/2000/svg" viewBox="0 0 640 512"><!-- Font Awesome Pro 6.0.0-alpha1 by @fontawesome - https://fontawesome.com License - https://fontawesome.com/license (Commercial License) --><defs><style>.fa-secondary{opacity:.4}</style></defs><path d="M416 448C407 448 400 441 400 432V410L336 360V432C336 441 329 448 320 448S304 441 304 432V335L240 285V432C240 441 233 448 224 448S208 441 208 432V260L128 197V464C128 490 150 512 176 512H464C480 512 495 504 503 491L431 435C430 442 424 448 416 448ZM304 213V208C304 199 311 192 320 192S336 199 336 208V238L400 288V208C400 199 407 192 416 192S432 199 432 208V313L512 376V128H196L304 213ZM528 32H416L404 9C402 3 396 0 390 0H250C244 0 238 3 236 9L224 32H112C103 32 96 39 96 48V50L155 96H528C537 96 544 89 544 80V48C544 39 537 32 528 32Z" class="fa-secondary"/><path d="M24 0C29 0 34 2 39 5L631 469C641 477 643 492 635 503C627 513 612 515 601 507L9 43C-1 35 -3 20 5 9C10 3 17 0 24 0Z" class="fa-primary"/></svg>