<svg xmlns="http://www.w3.org/2000/svg" viewBox="0 0 640 512"><!-- Font Awesome Pro 6.0.0-alpha1 by @fontawesome - https://fontawesome.com License - https://fontawesome.com/license (Commercial License) --><defs><style>.fa-secondary{opacity:.4}</style></defs><path d="M149 467C151 492 172 512 197 512H443C463 512 482 498 488 479L133 201L149 467ZM528 32H416L404 9C402 3 396 0 390 0H250C244 0 238 3 236 9L224 32H112C103 32 96 39 96 48V50L155 96H528C537 96 544 89 544 80V48C544 39 537 32 528 32ZM497 364L512 128H196L497 364Z" class="fa-secondary"/><path d="M24 0C29 0 34 2 39 5L631 469C641 477 643 492 635 503C627 513 612 515 601 507L9 43C-1 35 -3 20 5 9C10 3 17 0 24 0Z" class="fa-primary"/></svg>