<svg xmlns="http://www.w3.org/2000/svg" viewBox="0 0 576 512"><!-- Font Awesome Pro 6.0.0-alpha1 by @fontawesome - https://fontawesome.com License - https://fontawesome.com/license (Commercial License) --><defs><style>.fa-secondary{opacity:.4}</style></defs><path d="M352 336C352 345 345 352 336 352H240C231 352 224 345 224 336V288H160V480H416V288H352V336ZM0 128V256H96V32C43 32 0 75 0 128ZM0 448C0 466 14 480 32 480H96V288H0V448ZM160 256H224V208C224 199 231 192 240 192H336C345 192 352 199 352 208V256H416V32H160V256ZM480 32V256H576V128C576 75 533 32 480 32ZM480 480H544C562 480 576 466 576 448V288H480V480Z" class="fa-secondary"/><path d="M96 256H160V32H96V256ZM96 480H160V288H96V480ZM416 480H480V288H416V480ZM416 32V256H480V32H416ZM336 192H240C231 192 224 199 224 208V336C224 345 231 352 240 352H336C345 352 352 345 352 336V208C352 199 345 192 336 192ZM304 304C304 313 297 320 288 320S272 313 272 304V240C272 231 279 224 288 224S304 231 304 240V304Z" class="fa-primary"/></svg>