<svg xmlns="http://www.w3.org/2000/svg" viewBox="0 0 512 512"><!-- Font Awesome Pro 6.0.0-alpha1 by @fontawesome - https://fontawesome.com License - https://fontawesome.com/license (Commercial License) --><defs><style>.fa-secondary{opacity:.4}</style></defs><path d="M512 288C512 315 503 337 484 356S443 384 416 384H288V368L319 316C322 310 318 304 312 304H288V208C288 199 281 192 272 192H240C231 192 224 199 224 208V240H200C194 240 190 246 193 252L224 304V384H96C69 384 47 375 28 356S0 315 0 288C0 269 5 251 16 235S41 207 59 200C50 184 46 167 49 150S58 119 69 106S94 86 111 82S143 80 160 87C163 62 173 42 191 25S231 0 256 0S302 8 321 25S349 62 352 87C369 80 385 78 402 82S432 94 443 107S461 134 464 151S463 184 454 200H453C471 207 485 219 496 235S512 269 512 288Z" class="fa-secondary"/><path d="M200 240H224V208C224 199 231 192 240 192H272C281 192 288 199 288 208V304H312C318 304 322 310 319 316L288 368V496C288 505 281 512 272 512H240C231 512 224 505 224 496V304L193 252C190 246 194 240 200 240Z" class="fa-primary"/></svg>