<svg xmlns="http://www.w3.org/2000/svg" viewBox="0 0 576 512"><!-- Font Awesome Pro 6.0.0-alpha1 by @fontawesome - https://fontawesome.com License - https://fontawesome.com/license (Commercial License) --><defs><style>.fa-secondary{opacity:.4}</style></defs><path d="M576 173C578 183 569 192 558 192H504L480 144L456 192H265C265 192 110 346 110 346C102 354 89 354 83 345C48 294 62 213 119 156C122 153 126 150 130 147L96 80L72 128H18C7 128 -2 119 0 109C12 47 79 0 159 0C233 0 295 40 314 94C342 76 377 64 417 64C497 64 564 111 576 173Z" class="fa-secondary"/><path d="M230 472C244 415 275 297 265 192H321C336 249 363 371 348 485C346 501 332 512 316 512H261C240 512 225 493 230 472Z" class="fa-primary"/></svg>