<svg xmlns="http://www.w3.org/2000/svg" viewBox="0 0 512 512"><!-- Font Awesome Pro 6.0.0-alpha1 by @fontawesome - https://fontawesome.com License - https://fontawesome.com/license (Commercial License) --><defs><style>.fa-secondary{opacity:.4}</style></defs><path d="M472 456L382 352H418C443 352 457 323 441 303L285 113L264 155C262 158 259 160 256 160S250 158 248 155L227 113L71 303C55 323 69 352 94 352H130L40 456C21 478 37 512 65 512H447C475 512 490 477 472 456ZM192 312C179 312 168 301 168 288S179 264 192 264C205 264 216 275 216 288S205 312 192 312ZM320 440C307 440 296 429 296 416S307 392 320 392S344 403 344 416S333 440 320 440Z" class="fa-secondary"/><path d="M331 72L286 50L264 5C261 -2 251 -2 248 5L226 50L181 72C174 75 174 85 181 88L226 110L248 155C250 158 253 160 256 160S262 158 264 155L286 110L331 88C338 85 338 75 331 72ZM192 264C179 264 168 275 168 288S179 312 192 312C205 312 216 301 216 288S205 264 192 264Z" class="fa-primary"/></svg>