<svg xmlns="http://www.w3.org/2000/svg" viewBox="0 0 640 512"><!-- Font Awesome Pro 6.0.0-alpha1 by @fontawesome - https://fontawesome.com License - https://fontawesome.com/license (Commercial License) --><defs><style>.fa-secondary{opacity:.4}</style></defs><path d="M464 352C420 352 384 388 384 432C384 476 420 512 464 512S544 476 544 432C544 388 508 352 464 352ZM176 352C132 352 96 388 96 432C96 476 132 512 176 512S256 476 256 432C256 388 220 352 176 352ZM296 128H240V72C240 68 236 64 232 64H184C180 64 176 68 176 72V128H120C116 128 112 132 112 136V184C112 188 116 192 120 192H176V248C176 252 180 256 184 256H232C236 256 240 252 240 248V192H296C300 192 304 188 304 184V136C304 132 300 128 296 128Z" class="fa-secondary"/><path d="M624 416C633 416 640 409 640 400V368C640 359 633 352 624 352H608V237C608 220 601 204 589 192L512 115C500 103 484 96 467 96H416V48C416 22 394 0 368 0H48C22 0 0 22 0 48V368C0 394 22 416 48 416H66C74 362 120 320 176 320C232 320 279 362 286 416H354C361 362 408 320 464 320C520 320 566 362 574 416H624ZM304 184C304 188 300 192 296 192H240V248C240 252 236 256 232 256H184C180 256 176 252 176 248V192H120C116 192 112 188 112 184V136C112 132 116 128 120 128H176V72C176 68 180 64 184 64H232C236 64 240 68 240 72V128H296C300 128 304 132 304 136V184ZM416 256V160H467L544 237V256H416Z" class="fa-primary"/></svg>