<svg xmlns="http://www.w3.org/2000/svg" viewBox="0 0 640 512"><!-- Font Awesome Pro 6.0.0-alpha1 by @fontawesome - https://fontawesome.com License - https://fontawesome.com/license (Commercial License) --><defs><style>.fa-secondary{opacity:.4}</style></defs><path d="M272 352H267C265 345 262 338 258 331L262 328C268 321 268 311 262 305L239 282C233 276 223 276 217 282L213 286C206 282 199 279 192 277V272C192 263 185 256 176 256H144C135 256 128 263 128 272V277C121 279 114 282 107 286L103 282C97 276 87 276 81 282L58 305C52 311 52 321 58 327L62 331C58 338 55 345 53 352H48C39 352 32 359 32 368V400C32 409 39 416 48 416H53C55 423 58 430 62 437L58 440C52 447 52 457 58 463L81 486C87 492 97 492 104 486L107 482C114 486 121 489 128 491V496C128 505 135 512 144 512H176C185 512 192 505 192 496V491C199 489 206 486 213 482L217 486C223 492 233 492 239 486L262 463C268 457 268 447 262 441L258 437C262 430 265 423 267 416H272C281 416 288 409 288 400V368C288 359 281 352 272 352ZM160 432C134 432 112 410 112 384S134 336 160 336S208 358 208 384S186 432 160 432ZM592 352H587C585 345 582 338 578 331L582 328C588 321 588 311 582 305L559 282C553 276 543 276 536 282L533 286C526 282 519 279 512 277V272C512 263 505 256 496 256H464C455 256 448 263 448 272V277C441 279 434 282 427 286L424 282C417 276 407 276 401 282L378 305C372 311 372 321 378 328L382 331C378 338 375 345 373 352H368C359 352 352 359 352 368V400C352 409 359 416 368 416H373C375 423 378 430 382 437L378 440C372 447 372 457 378 463L401 486C407 492 417 492 424 486L427 482C434 486 441 489 448 491V496C448 505 455 512 464 512H496C505 512 512 505 512 496V491C519 489 526 486 533 482L537 486C543 492 553 492 559 486L582 463C588 457 588 447 582 440L578 437C582 430 585 423 587 416H592C601 416 608 409 608 400V368C608 359 601 352 592 352ZM480 432C454 432 432 410 432 384S454 336 480 336S528 358 528 384S506 432 480 432Z" class="fa-secondary"/><path d="M624 224H608V160C608 142 594 128 576 128H502L419 24C407 9 389 0 369 0H256C238 0 224 14 224 32V128H48C39 128 32 135 32 144V224H16C7 224 0 231 0 240V272C0 281 7 288 16 288H33C62 249 108 224 160 224S258 249 287 288H353C382 249 428 224 480 224C532 224 578 249 607 288H624C633 288 640 281 640 272V240C640 231 633 224 624 224ZM288 128V64H369L421 128H288Z" class="fa-primary"/></svg>