<svg xmlns="http://www.w3.org/2000/svg" viewBox="0 0 512 512"><!-- Font Awesome Pro 6.0.0-alpha1 by @fontawesome - https://fontawesome.com License - https://fontawesome.com/license (Commercial License) --><defs><style>.fa-secondary{opacity:.4}</style></defs><path d="M377 150C373 137 361 128 347 128H165C151 128 139 137 135 150L110 224H402L377 150ZM32 423V480C32 498 46 512 64 512H96C114 512 128 498 128 480V432H64C52 432 41 429 32 423ZM448 432H384V480C384 498 398 512 416 512H448C466 512 480 498 480 480V423C471 429 460 432 448 432Z" class="fa-secondary"/><path d="M448 0H64C29 0 0 29 0 64V368C0 403 29 432 64 432H448C483 432 512 403 512 368V64C512 29 483 0 448 0ZM135 150C139 137 151 128 165 128H347C361 128 373 137 377 150L402 224H110L135 150ZM96 352C78 352 64 338 64 320C64 302 78 288 96 288S128 302 128 320C128 338 114 352 96 352ZM416 352C398 352 384 338 384 320C384 302 398 288 416 288S448 302 448 320C448 338 434 352 416 352Z" class="fa-primary"/></svg>