<svg xmlns="http://www.w3.org/2000/svg" viewBox="0 0 640 512"><!-- Font Awesome Pro 6.0.0-alpha1 by @fontawesome - https://fontawesome.com License - https://fontawesome.com/license (Commercial License) --><defs><style>.fa-secondary{opacity:.4}</style></defs><path d="M120 304C71 304 32 343 32 392C32 441 71 480 120 480S208 441 208 392C208 343 169 304 120 304ZM376 304C327 304 288 343 288 392C288 441 327 480 376 480S464 441 464 392C464 343 425 304 376 304Z" class="fa-secondary"/><path d="M599 393C584 379 576 359 576 339V237C576 217 584 197 599 183L635 146C642 140 642 130 635 123L613 101C607 94 596 94 590 101L553 137C527 164 512 200 512 237V288H480V224C480 206 466 192 448 192H402L320 55C312 41 296 32 279 32H168C146 32 128 50 128 72V192H32C14 192 0 206 0 224V320C0 329 4 338 10 343C29 301 71 272 120 272C172 272 216 306 233 352H263C280 306 324 272 376 272S472 306 489 352H513C516 385 530 415 553 439L590 475C596 482 607 482 613 475L635 453C642 447 642 436 635 430L599 393ZM192 192V96H270L328 192H192Z" class="fa-primary"/></svg>