<svg xmlns="http://www.w3.org/2000/svg" viewBox="0 0 640 512"><!-- Font Awesome Pro 6.0.0-alpha1 by @fontawesome - https://fontawesome.com License - https://fontawesome.com/license (Commercial License) --><defs><style>.fa-secondary{opacity:.4}</style></defs><path d="M444 96C437 96 432 101 432 108V148C432 155 437 160 444 160H484C491 160 496 155 496 148V108C496 101 491 96 484 96H444ZM492 64H532C539 64 544 59 544 52V12C544 5 539 0 532 0H492C485 0 480 5 480 12V52C480 59 485 64 492 64ZM588 64H628C635 64 640 59 640 52V12C640 5 635 0 628 0H588C581 0 576 5 576 12V52C576 59 581 64 588 64ZM396 64H436C443 64 448 59 448 52V12C448 5 443 0 436 0H396C389 0 384 5 384 12V52C384 59 389 64 396 64ZM540 96C533 96 528 101 528 108V148C528 155 533 160 540 160H580C587 160 592 155 592 148V108C592 101 587 96 580 96H540ZM628 192H588C581 192 576 197 576 204V244C576 251 581 256 588 256H628C635 256 640 251 640 244V204C640 197 635 192 628 192ZM532 192H396C389 192 384 197 384 204V244C384 251 389 256 396 256H532C539 256 544 251 544 244V204C544 197 539 192 532 192ZM300 64H340C347 64 352 59 352 52V12C352 5 347 0 340 0H300C293 0 288 5 288 12V52C288 59 293 64 300 64ZM348 96C341 96 336 101 336 108V148C336 155 341 160 348 160H388C395 160 400 155 400 148V108C400 101 395 96 388 96H348ZM340 192H300C293 192 288 197 288 204V244C288 251 293 256 300 256H340C347 256 352 251 352 244V204C352 197 347 192 340 192Z" class="fa-secondary"/><path d="M493 351L385 305C372 299 357 303 348 314L304 368C235 334 179 277 145 208L198 164C209 155 213 140 207 127L161 19C155 5 140 -3 125 1L24 24C10 27 0 40 0 54C0 307 205 512 457 512C472 512 485 502 488 488L511 387C515 372 507 357 493 351Z" class="fa-primary"/></svg>