<svg xmlns="http://www.w3.org/2000/svg" viewBox="0 0 512 512"><!-- Font Awesome Pro 6.0.0-alpha1 by @fontawesome - https://fontawesome.com License - https://fontawesome.com/license (Commercial License) --><defs><style>.fa-secondary{opacity:.4}</style></defs><path d="M188 352C181 352 176 357 176 364V404C176 411 181 416 188 416H228C235 416 240 411 240 404V364C240 357 235 352 228 352H188ZM236 320H276C283 320 288 315 288 308V268C288 261 283 256 276 256H236C229 256 224 261 224 268V308C224 315 229 320 236 320ZM332 320H372C379 320 384 315 384 308V268C384 261 379 256 372 256H332C325 256 320 261 320 268V308C320 315 325 320 332 320ZM140 320H180C187 320 192 315 192 308V268C192 261 187 256 180 256H140C133 256 128 261 128 268V308C128 315 133 320 140 320ZM368 364V404C368 411 373 416 380 416H420C427 416 432 411 432 404V364C432 357 427 352 420 352H380C373 352 368 357 368 364ZM284 352C277 352 272 357 272 364V404C272 411 277 416 284 416H324C331 416 336 411 336 404V364C336 357 331 352 324 352H284ZM468 448H428C421 448 416 453 416 460V500C416 507 421 512 428 512H468C475 512 480 507 480 500V460C480 453 475 448 468 448ZM468 256H428C421 256 416 261 416 268V308C416 315 421 320 428 320H468C475 320 480 315 480 308V268C480 261 475 256 468 256ZM372 448H140C133 448 128 453 128 460V500C128 507 133 512 140 512H372C379 512 384 507 384 500V460C384 453 379 448 372 448ZM44 320H84C91 320 96 315 96 308V268C96 261 91 256 84 256H44C37 256 32 261 32 268V308C32 315 37 320 44 320ZM92 352C85 352 80 357 80 364V404C80 411 85 416 92 416H132C139 416 144 411 144 404V364C144 357 139 352 132 352H92ZM84 448H44C37 448 32 453 32 460V500C32 507 37 512 44 512H84C91 512 96 507 96 500V460C96 453 91 448 84 448Z" class="fa-secondary"/><path d="M505 103C368 -34 144 -34 7 103C-1 111 -2 123 4 133L46 200C52 210 64 214 75 210L160 176C170 172 176 162 175 151L169 98C225 79 287 79 343 98L338 151C336 162 343 172 352 176L437 210C448 214 460 210 466 200L508 133C514 123 513 111 505 103Z" class="fa-primary"/></svg>