<svg xmlns="http://www.w3.org/2000/svg" viewBox="0 0 576 512"><!-- Font Awesome Pro 6.0.0-alpha1 by @fontawesome - https://fontawesome.com License - https://fontawesome.com/license (Commercial License) --><defs><style>.fa-secondary{opacity:.4}</style></defs><path d="M512 32H64C29 32 0 61 0 96V416C0 451 29 480 64 480H512C547 480 576 451 576 416V96C576 61 547 32 512 32ZM224 416C136 416 64 344 64 256S136 96 224 96S384 168 384 256S312 416 224 416ZM512 268C512 278 510 287 505 297L486 334C494 338 497 348 494 356L468 407C464 415 454 418 446 414L418 400C410 396 407 386 410 378L436 327C440 319 450 316 458 320L477 282C479 278 480 273 480 268V112C480 103 487 96 496 96S512 103 512 112V268Z" class="fa-secondary"/><path d="M496 96C487 96 480 103 480 112V268C480 273 479 278 477 282L458 320C450 316 440 319 436 327L410 378C407 386 410 396 418 400L446 414C454 418 464 415 468 407L494 356C497 348 494 338 486 334L505 296C510 287 512 278 512 268V112C512 103 505 96 496 96ZM224 96C136 96 64 168 64 256S136 416 224 416S384 344 384 256S312 96 224 96ZM224 288C206 288 192 274 192 256S206 224 224 224S256 238 256 256S242 288 224 288Z" class="fa-primary"/></svg>