<svg xmlns="http://www.w3.org/2000/svg" viewBox="0 0 512 512"><!-- Font Awesome Pro 6.0.0-alpha1 by @fontawesome - https://fontawesome.com License - https://fontawesome.com/license (Commercial License) --><defs><style>.fa-secondary{opacity:.4}</style></defs><path d="M384 224V384C384 419 355 448 320 448H128C93 448 64 419 64 384V224C64 189 93 160 128 160H320C355 160 384 189 384 224Z" class="fa-secondary"/><path d="M448 96H322L377 41C386 32 386 16 377 7S352 -2 343 7L256 94L169 7C160 -2 144 -2 135 7S126 32 135 41L190 96H64C29 96 0 125 0 160V448C0 483 29 512 64 512H448C483 512 512 483 512 448V160C512 125 483 96 448 96ZM384 384C384 419 355 448 320 448H128C93 448 64 419 64 384V224C64 189 93 160 128 160H320C355 160 384 189 384 224V384ZM448 336C435 336 424 325 424 312C424 299 435 288 448 288S472 299 472 312C472 325 461 336 448 336ZM448 256C435 256 424 245 424 232C424 219 435 208 448 208S472 219 472 232C472 245 461 256 448 256Z" class="fa-primary"/></svg>