<svg xmlns="http://www.w3.org/2000/svg" viewBox="0 0 640 512"><!-- Font Awesome Pro 6.0.0-alpha1 by @fontawesome - https://fontawesome.com License - https://fontawesome.com/license (Commercial License) --><defs><style>.fa-secondary{opacity:.4}</style></defs><path d="M576 352H64V64H576V352Z" class="fa-secondary"/><path d="M520 448H120C107 448 96 459 96 472V488C96 501 107 512 120 512H520C533 512 544 501 544 488V472C544 459 533 448 520 448ZM592 0H48C22 0 0 22 0 48V368C0 394 22 416 48 416H592C618 416 640 394 640 368V48C640 22 618 0 592 0ZM576 352H64V64H576V352Z" class="fa-primary"/></svg>