<svg xmlns="http://www.w3.org/2000/svg" viewBox="0 0 512 512"><!-- Font Awesome Pro 6.0.0-alpha1 by @fontawesome - https://fontawesome.com License - https://fontawesome.com/license (Commercial License) --><defs><style>.fa-secondary{opacity:.4}</style></defs><path d="M64 192V48C64 22 86 0 112 0H352V96H448V192H365C357 192 349 195 343 201L329 215C323 221 315 224 307 224H205C197 224 189 221 183 215L169 201C163 195 155 192 147 192H64Z" class="fa-secondary"/><path d="M352 0V96H448L352 0ZM480 192H365C357 192 349 195 343 201L329 215C323 221 315 224 307 224H205C197 224 189 221 183 215L169 201C163 195 155 192 147 192H32C14 192 0 206 0 224V256C0 274 14 288 32 288V464C32 490 54 512 80 512H432C458 512 480 490 480 464V288C498 288 512 274 512 256V224C512 206 498 192 480 192ZM336 296C336 292 340 288 344 288H360C364 288 368 292 368 296V312C368 316 364 320 360 320H344C340 320 336 316 336 312V296ZM312 352H328C332 352 336 356 336 360V376C336 380 332 384 328 384H312C308 384 304 380 304 376V360C304 356 308 352 312 352ZM272 296C272 292 276 288 280 288H296C300 288 304 292 304 296V312C304 316 300 320 296 320H280C276 320 272 316 272 312V296ZM248 352H264C268 352 272 356 272 360V376C272 380 268 384 264 384H248C244 384 240 380 240 376V360C240 356 244 352 248 352ZM208 296C208 292 212 288 216 288H232C236 288 240 292 240 296V312C240 316 236 320 232 320H216C212 320 208 316 208 312V296ZM184 352H200C204 352 208 356 208 360V376C208 380 204 384 200 384H184C180 384 176 380 176 376V360C176 356 180 352 184 352ZM144 296C144 292 148 288 152 288H168C172 288 176 292 176 296V312C176 316 172 320 168 320H152C148 320 144 316 144 312V296ZM104 320H88C84 320 80 316 80 312V296C80 292 84 288 88 288H104C108 288 112 292 112 296V312C112 316 108 320 104 320ZM136 384H120C116 384 112 380 112 376V360C112 356 116 352 120 352H136C140 352 144 356 144 360V376C144 380 140 384 136 384ZM368 440C368 444 364 448 360 448H152C148 448 144 444 144 440V424C144 420 148 416 152 416H360C364 416 368 420 368 424V440ZM400 376C400 380 396 384 392 384H376C372 384 368 380 368 376V360C368 356 372 352 376 352H392C396 352 400 356 400 360V376ZM432 312C432 316 428 320 424 320H408C404 320 400 316 400 312V296C400 292 404 288 408 288H424C428 288 432 292 432 296V312Z" class="fa-primary"/></svg>