<svg xmlns="http://www.w3.org/2000/svg" viewBox="0 0 512 512"><!-- Font Awesome Pro 6.0.0-alpha1 by @fontawesome - https://fontawesome.com License - https://fontawesome.com/license (Commercial License) --><defs><style>.fa-secondary{opacity:.4}</style></defs><path d="M256 16C123 16 16 123 16 256C16 389 123 496 256 496S496 389 496 256C496 123 389 16 256 16ZM256 80C278 80 296 98 296 120S278 160 256 160S216 142 216 120S234 80 256 80ZM375 215L315 232C312 233 308 234 304 234V297L335 384C339 397 332 410 320 415C317 416 315 416 312 416C302 416 293 410 289 400L263 329C261 322 251 322 248 329L223 400C219 410 210 416 200 416C197 416 195 416 192 415C180 410 173 397 177 384L208 297V234C204 234 200 233 197 232L137 215C125 211 117 198 121 185S138 165 151 169L210 186C240 194 272 194 302 186L361 169C374 165 387 173 391 185C395 198 387 211 375 215Z" class="fa-secondary"/><path d="M256 160C278 160 296 142 296 120S278 80 256 80S216 98 216 120S234 160 256 160ZM391 185C387 173 374 165 361 169L302 186C272 194 240 194 210 186L151 169C138 165 125 173 121 185S125 211 137 215L197 232C200 233 204 234 208 234V297L177 384C173 397 180 410 192 415C195 416 197 416 200 416C210 416 219 410 223 400L249 329C251 322 261 322 264 329L289 400C293 410 302 416 312 416C315 416 317 416 320 415C332 410 339 397 335 384L304 297V234C308 234 312 233 315 232L375 215C387 211 395 198 391 185Z" class="fa-primary"/></svg>