<svg xmlns="http://www.w3.org/2000/svg" viewBox="0 0 256 512"><!-- Font Awesome Pro 6.0.0-alpha1 by @fontawesome - https://fontawesome.com License - https://fontawesome.com/license (Commercial License) --><defs><style>.fa-secondary{opacity:.4}</style></defs><path d="M2 367C6 358 14 352 24 352H80V256H176V352H232C242 352 250 358 254 367C258 375 256 386 250 393L146 505C137 514 120 514 110 505L6 393C0 386 -2 375 2 367Z" class="fa-secondary"/><path d="M254 138C250 147 242 153 232 153H176V249H80V153H24C14 153 6 147 2 138C-2 129 0 119 6 112L110 0C119 -10 136 -10 146 0L250 112C256 119 258 129 254 138Z" class="fa-primary"/></svg>