<svg xmlns="http://www.w3.org/2000/svg" viewBox="0 0 384 512"><!-- Font Awesome Pro 6.0.0-alpha1 by @fontawesome - https://fontawesome.com License - https://fontawesome.com/license (Commercial License) --><defs><style>.fa-secondary{opacity:.4}</style></defs><path d="M384 432V464C384 473 377 480 368 480H16C7 480 0 473 0 464V432C0 423 7 416 16 416H368C377 416 384 423 384 432Z" class="fa-secondary"/><path d="M34 209C30 201 32 190 39 183L175 39C184 30 200 30 209 39L345 183C352 190 354 200 350 209C346 218 338 224 328 224H256V352C256 370 242 384 224 384H160C142 384 128 370 128 352V224H56C46 224 38 218 34 209Z" class="fa-primary"/></svg>