<svg xmlns="http://www.w3.org/2000/svg" viewBox="0 0 448 512"><!-- Font Awesome Pro 6.0.0-alpha1 by @fontawesome - https://fontawesome.com License - https://fontawesome.com/license (Commercial License) --><defs><style>.fa-secondary{opacity:.4}</style></defs><path d="M208 272H240V240H208V272ZM176 448C167 448 160 455 160 464V512H192V464C192 455 185 448 176 448ZM176 240H144V272H176V240ZM37 133C34 137 32 141 32 146V238C32 243 34 247 37 251S45 256 50 256H80V128H50C45 128 41 130 37 133ZM411 133C407 130 403 128 398 128H368V256H398C403 256 407 254 411 251S416 243 416 238V146C416 141 414 137 411 133ZM272 448C263 448 256 455 256 464S263 480 272 480S288 473 288 464S281 448 272 448ZM272 272H304V240H272V272ZM224 0C215 0 208 7 208 16V64H240V16C240 7 233 0 224 0Z" class="fa-secondary"/><path d="M352 352H96C43 352 0 395 0 448V480C0 498 14 512 32 512H128V448C128 430 142 416 160 416H288C306 416 320 430 320 448V512H416C434 512 448 498 448 480V448C448 395 405 352 352 352ZM116 320H332C352 320 368 304 368 284V109C368 84 348 64 323 64H125C100 64 80 84 80 109V284C80 304 96 320 116 320ZM304 272H272V240H304V272ZM288 128C306 128 320 142 320 160S306 192 288 192S256 178 256 160S270 128 288 128ZM208 240H240V272H208V240ZM176 272H144V240H176V272ZM160 128C178 128 192 142 192 160S178 192 160 192S128 178 128 160S142 128 160 128Z" class="fa-primary"/></svg>