<svg xmlns="http://www.w3.org/2000/svg" viewBox="0 0 448 512"><!-- Font Awesome Pro 6.0.0-alpha1 by @fontawesome - https://fontawesome.com License - https://fontawesome.com/license (Commercial License) --><defs><style>.fa-secondary{opacity:.4}</style></defs><path d="M352 128C352 123 351 117 350 112H98C97 117 96 123 96 128C96 199 153 256 224 256C295 256 352 199 352 128ZM0 477C0 496 16 512 35 512H64V343C25 375 0 423 0 477ZM275 304H173C168 304 163 304 157 305L207 384H272C316 384 352 420 352 464C352 482 346 499 336 512H413C432 512 448 496 448 477C448 382 370 304 275 304ZM272 416H227L286 510C305 504 320 486 320 464C320 438 298 416 272 416Z" class="fa-secondary"/><path d="M277 12C261 4 243 0 224 0C170 0 125 33 106 80H187L277 12ZM342 80C335 61 322 44 306 30L240 80H342ZM96 322V512H249L124 311C114 314 105 318 96 322Z" class="fa-primary"/></svg>