<svg xmlns="http://www.w3.org/2000/svg" viewBox="0 0 448 512"><!-- Font Awesome Pro 6.0.0-alpha1 by @fontawesome - https://fontawesome.com License - https://fontawesome.com/license (Commercial License) --><defs><style>.fa-secondary{opacity:.4}</style></defs><path d="M346 155C310 168 269 176 224 176S138 168 102 155C98 167 96 179 96 192C96 263 153 320 224 320S352 263 352 192C352 179 350 167 346 155ZM176 352L208 408L191 479L208 512H240L257 479L240 408L272 352H176Z" class="fa-secondary"/><path d="M0 485C0 500 12 512 27 512H208L128 353C57 355 0 413 0 485ZM369 102L391 80C396 75 399 69 399 63C399 51 391 41 380 39L232 1C227 0 221 0 216 1L68 39C57 41 49 51 49 63C49 69 52 75 57 80L79 102V146C119 165 169 176 224 176S329 165 369 146V102ZM279 94L231 118C229 119 226 120 224 120S219 119 217 118L169 94C161 90 158 81 162 73C166 65 175 62 183 66L224 86L265 66C273 62 282 65 286 73C290 81 287 90 279 94ZM320 353L240 512H421C436 512 448 500 448 485C448 413 391 355 320 353ZM368 448H336C327 448 320 441 320 432C320 423 327 416 336 416H368C377 416 384 423 384 432C384 441 377 448 368 448Z" class="fa-primary"/></svg>