<svg xmlns="http://www.w3.org/2000/svg" viewBox="0 0 640 512"><!-- Font Awesome Pro 6.0.0-alpha1 by @fontawesome - https://fontawesome.com License - https://fontawesome.com/license (Commercial License) --><defs><style>.fa-secondary{opacity:.4}</style></defs><path d="M224 256C295 256 352 199 352 128S295 0 224 0C153 0 96 57 96 128S153 256 224 256ZM320 368C320 349 323 330 329 313C312 307 294 304 275 304H173C78 304 0 382 0 477C0 496 16 512 35 512H395C350 480 320 428 320 368Z" class="fa-secondary"/><path d="M496 224C416 224 352 288 352 368S416 512 496 512S640 448 640 368S576 224 496 224ZM544 384H490C484 384 480 380 480 374V304C480 295 487 288 496 288C505 288 512 295 512 304V352H544C553 352 560 359 560 368S553 384 544 384Z" class="fa-primary"/></svg>