<svg xmlns="http://www.w3.org/2000/svg" viewBox="0 0 640 512"><!-- Font Awesome Pro 6.0.0-alpha1 by @fontawesome - https://fontawesome.com License - https://fontawesome.com/license (Commercial License) --><defs><style>.fa-secondary{opacity:.4}</style></defs><path d="M544 144C544 82 494 32 432 32C415 32 399 36 384 43V144C384 175 375 204 359 228C379 245 404 256 432 256C494 256 544 206 544 144ZM480 320H406C451 358 480 414 480 477C480 490 476 502 470 512H608C626 512 640 498 640 480C640 392 568 320 480 320ZM96 144C96 215 153 272 224 272S352 215 352 144V128H96V144Z" class="fa-secondary"/><path d="M352 0L288 32L224 0L160 32L96 0V128H352V0ZM275 304H173C78 304 0 382 0 477C0 496 16 512 35 512H413C432 512 448 496 448 477C448 382 370 304 275 304Z" class="fa-primary"/></svg>