<svg xmlns="http://www.w3.org/2000/svg" viewBox="0 0 640 512"><!-- Font Awesome Pro 6.0.0-alpha1 by @fontawesome - https://fontawesome.com License - https://fontawesome.com/license (Commercial License) --><defs><style>.fa-secondary{opacity:.4}</style></defs><path d="M80 96C106 96 128 74 128 48C128 22 106 0 80 0S32 22 32 48C32 74 54 96 80 96ZM224 224H164L129 154C121 138 104 128 86 128H48C22 128 0 150 0 176V281C0 300 8 318 23 330L96 391V480C96 498 110 512 128 512S160 498 160 480V391C160 372 152 354 137 342L96 308V232L115 270C121 281 132 288 144 288H224C242 288 256 274 256 256C256 238 242 224 224 224ZM0 352V480C0 498 14 512 32 512S64 498 64 480V406L2 355C2 354 1 353 0 352Z" class="fa-secondary"/><path d="M624 0H528C519 0 512 7 512 16V59C512 62 513 66 514 69L554 191L254 245C254 245 254 245 254 245C255 248 256 252 256 256C256 274 242 288 224 288H192V496C192 505 199 512 208 512H240C249 512 256 505 256 496V384H576V496C576 505 583 512 592 512H624C633 512 640 505 640 496V16C640 7 633 0 624 0ZM280 328C267 328 256 317 256 304C256 291 267 280 280 280S304 291 304 304C304 317 293 328 280 328Z" class="fa-primary"/></svg>