<svg xmlns="http://www.w3.org/2000/svg" viewBox="0 0 640 512"><!-- Font Awesome Pro 6.0.0-alpha1 by @fontawesome - https://fontawesome.com License - https://fontawesome.com/license (Commercial License) --><defs><style>.fa-secondary{opacity:.4}</style></defs><path d="M224 256C295 256 352 199 352 128S295 0 224 0C153 0 96 57 96 128S153 256 224 256ZM380 435C362 417 352 393 352 367V322C329 311 302 304 275 304H173C78 304 0 382 0 477C0 496 16 512 35 512H413C425 512 435 506 441 497L380 435Z" class="fa-secondary"/><path d="M631 365L541 275C529 263 512 256 495 256H416C398 256 384 270 384 288V367C384 384 391 400 403 412L493 503C506 515 526 515 538 503L631 410C643 398 643 377 631 365ZM448 344C435 344 424 333 424 320C424 307 435 296 448 296C461 296 472 307 472 320S461 344 448 344Z" class="fa-primary"/></svg>