<svg xmlns="http://www.w3.org/2000/svg" viewBox="0 0 448 512"><!-- Font Awesome Pro 6.0.0-alpha1 by @fontawesome - https://fontawesome.com License - https://fontawesome.com/license (Commercial License) --><defs><style>.fa-secondary{opacity:.4}</style></defs><path d="M208 224H240C263 224 284 236 295 256H304C330 256 352 234 352 208V192C352 121 295 64 224 64S96 121 96 192C96 232 115 268 144 291C144 290 144 289 144 288C144 253 173 224 208 224Z" class="fa-secondary"/><path d="M48 224C57 224 64 217 64 208V192C64 104 136 32 224 32S384 104 384 192V208C384 252 348 288 304 288H272C272 270 258 256 240 256H208C190 256 176 270 176 288S190 320 208 320H304C366 320 416 270 416 208V192C416 86 330 0 224 0S32 86 32 192V208C32 217 39 224 48 224ZM315 352H133C60 352 0 412 0 485C0 500 12 512 27 512H421C436 512 448 500 448 485C448 412 388 352 315 352Z" class="fa-primary"/></svg>