<svg xmlns="http://www.w3.org/2000/svg" viewBox="0 0 640 512"><!-- Font Awesome Pro 6.0.0-alpha1 by @fontawesome - https://fontawesome.com License - https://fontawesome.com/license (Commercial License) --><defs><style>.fa-secondary{opacity:.4}</style></defs><path d="M208 80C208 36 172 0 128 0C104 0 83 11 68 28L193 126C202 113 208 97 208 80ZM424 216C424 159 377 112 320 112C284 112 253 131 234 158L397 286C413 267 424 243 424 216ZM512 160C556 160 592 124 592 80S556 0 512 0C468 0 432 36 432 80S468 160 512 160ZM270 352C192 352 128 412 128 485C128 500 141 512 156 512H484C495 512 505 505 510 496L326 352H270ZM187 243L122 192H88C39 192 0 234 0 285C0 296 8 304 18 304H217C202 287 192 266 187 243ZM552 192H490C477 192 465 195 454 200C455 206 456 211 456 216C456 250 443 280 423 304H622C632 304 640 296 640 285C640 234 601 192 552 192Z" class="fa-secondary"/><path d="M635 503C627 513 612 515 601 507L9 43C-1 35 -3 20 5 9C10 3 17 0 24 0C29 0 34 2 39 5L631 469C641 477 643 492 635 503Z" class="fa-primary"/></svg>