<svg xmlns="http://www.w3.org/2000/svg" viewBox="0 0 448 512"><!-- Font Awesome Pro 6.0.0-alpha1 by @fontawesome - https://fontawesome.com License - https://fontawesome.com/license (Commercial License) --><defs><style>.fa-secondary{opacity:.4}</style></defs><path d="M296 96H152C126 96 104 114 104 136V160C104 213 147 256 200 256H248C301 256 344 213 344 160V136C344 114 322 96 296 96ZM213 164L188 172L180 197C179 200 173 200 172 197L164 172L139 164C136 163 136 157 139 156L164 148L172 123C173 120 179 120 180 123L188 148L213 156C216 157 216 163 213 164ZM288 416H160C142 416 128 430 128 448V512H160V464C160 455 167 448 176 448S192 455 192 464V512H320V448C320 430 306 416 288 416ZM272 480C263 480 256 473 256 464S263 448 272 448S288 455 288 464S281 480 272 480Z" class="fa-secondary"/><path d="M64 224H78C102 281 158 320 224 320S346 281 370 224H384C393 224 400 217 400 208V112C400 103 393 96 384 96H370C346 39 290 0 224 0S102 39 78 96H64C55 96 48 103 48 112V208C48 217 55 224 64 224ZM104 136C104 114 126 96 152 96H296C322 96 344 114 344 136V160C344 213 301 256 248 256H200C147 256 104 213 104 160V136ZM336 315C304 339 265 352 224 352S144 339 112 315C47 340 0 403 0 477C0 496 16 512 35 512H128V448C128 430 142 416 160 416H288C306 416 320 430 320 448V512H413C432 512 448 496 448 477C448 403 401 340 336 315ZM272 448C263 448 256 455 256 464S263 480 272 480S288 473 288 464S281 448 272 448Z" class="fa-primary"/></svg>