<svg xmlns="http://www.w3.org/2000/svg" viewBox="0 0 640 512"><!-- Font Awesome Pro 6.0.0-alpha1 by @fontawesome - https://fontawesome.com License - https://fontawesome.com/license (Commercial License) --><defs><style>.fa-secondary{opacity:.4}</style></defs><path d="M224 256C295 256 352 199 352 128S295 0 224 0C153 0 96 57 96 128S153 256 224 256ZM389 348C359 321 319 304 275 304H173C78 304 0 382 0 477C0 496 16 512 35 512H355C333 493 320 468 320 440C320 399 348 365 389 348Z" class="fa-secondary"/><path d="M640 192V255C640 270 629 283 614 286L544 300V440C544 480 501 512 448 512S352 480 352 440C352 400 395 368 448 368C459 368 470 370 480 372V211C480 196 491 183 506 180L602 161C622 157 640 172 640 192Z" class="fa-primary"/></svg>