<svg xmlns="http://www.w3.org/2000/svg" viewBox="0 0 512 512"><!-- Font Awesome Pro 6.0.0-alpha1 by @fontawesome - https://fontawesome.com License - https://fontawesome.com/license (Commercial License) --><defs><style>.fa-secondary{opacity:.4}</style></defs><path d="M48 32H16C7 32 0 39 0 48V464C0 473 7 480 16 480H48C57 480 64 473 64 464V48C64 39 57 32 48 32ZM496 32H464C455 32 448 39 448 48V464C448 473 455 480 464 480H496C505 480 512 473 512 464V48C512 39 505 32 496 32Z" class="fa-secondary"/><path d="M377 151L361 135C352 126 338 126 329 135L256 207L183 135C174 126 160 126 151 135L135 151C126 160 126 174 135 183L207 256L135 329C126 338 126 352 135 361L151 377C160 386 174 386 183 377L256 305L329 377C338 386 352 386 361 377L377 361C386 352 386 338 377 329L305 256L377 183C386 174 386 160 377 151Z" class="fa-primary"/></svg>