<svg xmlns="http://www.w3.org/2000/svg" viewBox="0 0 448 512"><!-- Font Awesome Pro 6.0.0-alpha1 by @fontawesome - https://fontawesome.com License - https://fontawesome.com/license (Commercial License) --><defs><style>.fa-secondary{opacity:.4}</style></defs><path d="M96 352H32C14 352 0 366 0 384V448C0 466 14 480 32 480H96C114 480 128 466 128 448V384C128 366 114 352 96 352ZM80 432H48V400H80V432ZM416 352H352C334 352 320 366 320 384V448C320 466 334 480 352 480H416C434 480 448 466 448 448V384C448 366 434 352 416 352ZM400 432H368V400H400V432ZM416 32H352C334 32 320 46 320 64V128C320 146 334 160 352 160H416C434 160 448 146 448 128V64C448 46 434 32 416 32ZM400 112H368V80H400V112ZM96 32H32C14 32 0 46 0 64V128C0 146 14 160 32 160H96C114 160 128 146 128 128V64C128 46 114 32 96 32ZM80 112H48V80H80V112Z" class="fa-secondary"/><path d="M32 352H96V160H32V352ZM352 160V352H416V160H352ZM128 448H320V384H128V448ZM128 128H320V64H128V128Z" class="fa-primary"/></svg>