<svg xmlns="http://www.w3.org/2000/svg" viewBox="0 0 384 512"><!-- Font Awesome Pro 6.0.0-alpha1 by @fontawesome - https://fontawesome.com License - https://fontawesome.com/license (Commercial License) --><defs><style>.fa-secondary{opacity:.4}</style></defs><path d="M256 176C256 211 227 240 192 240S128 211 128 176S157 112 192 112S256 141 256 176Z" class="fa-secondary"/><path d="M368 176C368 79 289 0 192 0C95 0 16 79 16 176C16 262 78 334 160 349V384H112C103 384 96 391 96 400V432C96 441 103 448 112 448H160V496C160 505 167 512 176 512H208C217 512 224 505 224 496V448H272C281 448 288 441 288 432V400C288 391 281 384 272 384H224V349C306 334 368 262 368 176ZM192 272C139 272 96 229 96 176C96 123 139 80 192 80C245 80 288 123 288 176C288 229 245 272 192 272Z" class="fa-primary"/></svg>