<svg xmlns="http://www.w3.org/2000/svg" viewBox="0 0 576 512"><!-- Font Awesome Pro 6.0.0-alpha1 by @fontawesome - https://fontawesome.com License - https://fontawesome.com/license (Commercial License) --><defs><style>.fa-secondary{opacity:.4}</style></defs><path d="M336 64H48C22 64 0 86 0 112V400C0 426 22 448 48 448H336C362 448 384 426 384 400V112C384 86 362 64 336 64ZM297 185L162 320H216C229 320 240 331 240 344S229 368 216 368H104C91 368 80 357 80 344V232C80 219 91 208 104 208S128 219 128 232V286L263 151C268 146 274 144 280 144S292 146 297 151C306 160 306 176 297 185Z" class="fa-secondary"/><path d="M280 144C274 144 268 146 263 151L128 286V232C128 219 117 208 104 208S80 219 80 232V344C80 357 91 368 104 368H216C229 368 240 357 240 344C240 331 229 320 216 320H162L297 185C306 176 306 160 297 151C292 146 286 144 280 144ZM526 102L416 177V335L526 410C547 425 576 410 576 384V128C576 102 547 87 526 102Z" class="fa-primary"/></svg>