<svg xmlns="http://www.w3.org/2000/svg" viewBox="0 0 576 512"><!-- Font Awesome Pro 6.0.0-alpha1 by @fontawesome - https://fontawesome.com License - https://fontawesome.com/license (Commercial License) --><defs><style>.fa-secondary{opacity:.4}</style></defs><path d="M336 64H48C22 64 0 86 0 112V400C0 426 22 448 48 448H336C362 448 384 426 384 400V112C384 86 362 64 336 64ZM288 264C288 273 281 280 272 280H216V336C216 345 209 352 200 352H184C175 352 168 345 168 336V280H112C103 280 96 273 96 264V248C96 239 103 232 112 232H168V176C168 167 175 160 184 160H200C209 160 216 167 216 176V232H272C281 232 288 239 288 248V264Z" class="fa-secondary"/><path d="M272 232H216V176C216 167 209 160 200 160H184C175 160 168 167 168 176V232H112C103 232 96 239 96 248V264C96 273 103 280 112 280H168V336C168 345 175 352 184 352H200C209 352 216 345 216 336V280H272C281 280 288 273 288 264V248C288 239 281 232 272 232ZM526 102L416 177V335L526 410C547 425 576 410 576 384V127C576 102 547 87 526 102Z" class="fa-primary"/></svg>