<svg xmlns="http://www.w3.org/2000/svg" viewBox="0 0 640 512"><!-- Font Awesome Pro 6.0.0-alpha1 by @fontawesome - https://fontawesome.com License - https://fontawesome.com/license (Commercial License) --><defs><style>.fa-secondary{opacity:.4}</style></defs><path d="M64 496C64 505 71 512 80 512H112C121 512 128 505 128 496V448H64V496ZM480 496C480 505 487 512 496 512H528C537 512 544 505 544 496V448H480V496ZM288 496C288 505 295 512 304 512H336C345 512 352 505 352 496V448H288V496ZM96 352H160V288H96V352ZM160 192H224V128H160V192ZM480 128H416V192H480V128ZM288 352H352V288H288V352ZM480 288V352H544V288H480Z" class="fa-secondary"/><path d="M41 270L96 288H544L599 270C611 264 611 248 599 242L480 192H160L41 242C29 248 29 264 41 270ZM160 128H480L507 112C515 104 513 91 503 86L320 0L137 86C127 91 125 104 133 112L160 128ZM633 401L544 352H96L7 401C2 404 -1 410 0 416C1 421 4 426 9 428L64 448H576L631 428C636 426 639 421 640 416C641 410 638 404 633 401Z" class="fa-primary"/></svg>