<svg xmlns="http://www.w3.org/2000/svg" viewBox="0 0 512 512"><!-- Font Awesome Pro 6.0.0-alpha1 by @fontawesome - https://fontawesome.com License - https://fontawesome.com/license (Commercial License) --><defs><style>.fa-secondary{opacity:.4}</style></defs><path d="M240 246C240 229 237 186 215 135C181 148 72 200 34 346C47 380 69 410 96 434C130 319 213 262 240 246ZM201 107C188 85 171 62 150 41C71 80 16 162 16 256C16 267 17 279 19 290C68 170 162 122 201 107ZM381 281C387 245 397 125 289 19C278 17 267 16 256 16C230 16 205 20 182 28C264 116 272 215 272 247C287 256 326 275 381 281ZM154 379C142 400 131 426 123 456C161 481 207 496 256 496C312 496 363 477 404 445C388 447 372 448 357 448C253 448 182 401 154 379ZM345 33C425 136 419 242 413 283C438 283 466 280 495 271C496 266 496 261 496 256C496 155 434 69 345 33ZM256 274C241 283 204 307 172 352C200 375 299 443 445 404C467 375 483 342 491 306C463 312 438 315 414 315C334 315 276 286 256 274Z" class="fa-secondary"/><path d="M172 352C201 375 300 443 445 404C433 419 420 433 404 445C388 447 372 448 357 448C254 448 183 401 155 379C142 400 131 426 124 456C114 449 105 442 96 434C131 319 213 262 241 246C240 229 238 186 216 135C181 148 73 200 34 346C27 328 22 309 19 290C68 170 163 122 201 107C188 85 172 62 150 41C160 36 171 31 182 28C265 116 272 215 273 247C288 256 327 275 381 281C387 245 397 125 290 19C309 21 328 26 346 33C425 136 419 242 413 283C439 283 466 279 496 271C495 283 493 295 491 306C464 312 438 315 414 315C334 315 277 286 256 274C241 283 205 307 172 352Z" class="fa-primary"/></svg>