<svg xmlns="http://www.w3.org/2000/svg" viewBox="0 0 640 512"><!-- Font Awesome Pro 6.0.0-alpha1 by @fontawesome - https://fontawesome.com License - https://fontawesome.com/license (Commercial License) --><defs><style>.fa-secondary{opacity:.4}</style></defs><path d="M508 61C506 56 502 50 498 46C489 37 477 32 464 32H176C150 32 128 54 128 80V416H512V80C512 73 511 67 508 61ZM422 167L305 283C298 290 288 290 282 283L218 220C212 214 212 203 218 197L230 186C236 179 246 179 252 186L293 226L388 133C394 126 404 126 410 133L422 144C428 150 428 161 422 167Z" class="fa-secondary"/><path d="M608 320H512V384H560C569 384 576 391 576 400S569 416 560 416H80C71 416 64 409 64 400S71 384 80 384H128V320H32C14 320 0 334 0 352V448C0 466 14 480 32 480H608C626 480 640 466 640 448V352C640 334 626 320 608 320ZM282 283C288 290 298 290 305 283L422 167C428 161 428 150 422 144L410 133C404 126 394 126 388 133L293 226L252 186C246 179 236 179 230 186L218 197C212 203 212 214 218 220L282 283Z" class="fa-primary"/></svg>