<svg xmlns="http://www.w3.org/2000/svg" viewBox="0 0 640 512"><!-- Font Awesome Pro 6.0.0-alpha1 by @fontawesome - https://fontawesome.com License - https://fontawesome.com/license (Commercial License) --><defs><style>.fa-secondary{opacity:.4}</style></defs><path d="M464 32H176C150 32 128 54 128 80V416H512V80C512 54 490 32 464 32ZM405 281L394 293C387 299 377 299 371 293L320 242L269 293C263 299 253 299 246 293L235 281C229 275 229 265 235 259L286 208L235 157C229 151 229 141 235 134L247 123C253 117 263 117 269 123L320 174L371 123C377 117 387 117 394 123L405 134C411 141 411 151 405 157L354 208L405 259C411 265 411 275 405 281Z" class="fa-secondary"/><path d="M608 320H512V384H560C569 384 576 391 576 400S569 416 560 416H80C71 416 64 409 64 400S71 384 80 384H128V320H32C14 320 0 334 0 352V448C0 466 14 480 32 480H608C626 480 640 466 640 448V352C640 334 626 320 608 320ZM235 281L247 293C253 299 263 299 269 293L320 242L371 293C377 299 387 299 394 293L405 281C411 275 411 265 405 259L354 208L405 157C411 151 411 141 405 134L394 123C387 117 377 117 371 123L320 174L269 123C263 117 253 117 246 123L235 134C229 141 229 151 235 157L286 208L235 259C229 265 229 275 235 281Z" class="fa-primary"/></svg>