<svg xmlns="http://www.w3.org/2000/svg" viewBox="0 0 640 512"><!-- Font Awesome Pro 6.0.0-alpha1 by @fontawesome - https://fontawesome.com License - https://fontawesome.com/license (Commercial License) --><defs><style>.fa-secondary{opacity:.4}</style></defs><path d="M576 64H64C29 64 0 93 0 128V384C0 419 29 448 64 448H192C217 448 240 433 251 410L278 349C286 331 302 320 320 320S354 331 362 349L389 410C400 433 423 448 448 448H576C611 448 640 419 640 384V128C640 93 611 64 576 64ZM160 304C125 304 96 275 96 240S125 176 160 176S224 205 224 240S195 304 160 304ZM480 304C445 304 416 275 416 240S445 176 480 176S544 205 544 240S515 304 480 304Z" class="fa-secondary"/><path d="M160 304C125 304 96 275 96 240S125 176 160 176S224 205 224 240S195 304 160 304ZM480 304C445 304 416 275 416 240S445 176 480 176S544 205 544 240S515 304 480 304Z" class="fa-primary"/></svg>