<svg xmlns="http://www.w3.org/2000/svg" viewBox="0 0 384 512"><!-- Font Awesome Pro 6.0.0-alpha1 by @fontawesome - https://fontawesome.com License - https://fontawesome.com/license (Commercial License) --><defs><style>.fa-secondary{opacity:.4}</style></defs><path d="M352 96H320V80C320 71 313 64 304 64H272C263 64 256 71 256 80V96H224V80C224 71 217 64 208 64H176C167 64 160 71 160 80V96H32C14 96 0 110 0 128V307C0 315 3 323 9 329L32 352V464C32 490 54 512 80 512H304C330 512 352 490 352 464V352L375 329C381 323 384 315 384 307V128C384 110 370 96 352 96ZM288 312C288 316 284 320 280 320H104C100 320 96 316 96 312V296C96 292 100 288 104 288H280C284 288 288 292 288 296V312ZM288 248C288 252 284 256 280 256H104C100 256 96 252 96 248V232C96 228 100 224 104 224H280C284 224 288 228 288 232V248ZM288 184C288 188 284 192 280 192H104C100 192 96 188 96 184V168C96 164 100 160 104 160H280C284 160 288 164 288 168V184Z" class="fa-secondary"/><path d="M280 288H104C100 288 96 292 96 296V312C96 316 100 320 104 320H280C284 320 288 316 288 312V296C288 292 284 288 280 288ZM280 224H104C100 224 96 228 96 232V248C96 252 100 256 104 256H280C284 256 288 252 288 248V232C288 228 284 224 280 224ZM280 160H104C100 160 96 164 96 168V184C96 188 100 192 104 192H280C284 192 288 188 288 184V168C288 164 284 160 280 160ZM112 24C112 11 101 0 88 0S64 11 64 24V96H112V24Z" class="fa-primary"/></svg>