<svg xmlns="http://www.w3.org/2000/svg" viewBox="0 0 512 512"><!-- Font Awesome Pro 6.0.0-alpha1 by @fontawesome - https://fontawesome.com License - https://fontawesome.com/license (Commercial License) --><defs><style>.fa-secondary{opacity:.4}</style></defs><path d="M480 80V137C471 131 460 128 448 128H48C22 128 0 106 0 80S22 32 48 32H432C458 32 480 54 480 80Z" class="fa-secondary"/><path d="M448 128H48C22 128 0 106 0 80V416C0 451 29 480 64 480H448C483 480 512 451 512 416V192C512 157 483 128 448 128ZM416 336C398 336 384 322 384 304C384 286 398 272 416 272S448 286 448 304C448 322 434 336 416 336Z" class="fa-primary"/></svg>