<svg xmlns="http://www.w3.org/2000/svg" viewBox="0 0 576 512"><!-- Font Awesome Pro 6.0.0-alpha1 by @fontawesome - https://fontawesome.com License - https://fontawesome.com/license (Commercial License) --><defs><style>.fa-secondary{opacity:.4}</style></defs><path d="M188 122L139 101L139 101L138 101L118 52C117 50 114 48 112 48L112 48L112 48C112 48 112 48 112 48C110 48 107 50 106 52L85 101L36 122C34 123 32 126 32 128C32 130 34 133 36 134L85 155L106 204C107 206 110 208 112 208C112 208 112 208 112 208L112 208L112 208C114 208 117 206 118 204L138 155L139 155L139 155L188 134C190 133 192 130 192 128L192 128L192 128C192 126 190 123 188 122ZM544 384C544 382 542 379 540 378L491 357L491 357L470 308C469 306 466 304 464 304C462 304 459 306 458 308L437 357L437 357L388 378C386 379 384 382 384 384L384 384L384 384C384 386 386 389 388 390L437 411L437 411L458 460C459 462 462 464 464 464C466 464 469 462 470 460L491 411H491L491 411L540 390C542 389 544 386 544 384L544 384L544 384ZM272 32L260 2C259 1 257 0 256 0C255 0 253 1 252 2L240 32L210 44C209 45 208 47 208 48C208 49 209 51 210 52L240 64L252 94C253 95 255 96 256 96C257 96 259 95 260 94L272 64L302 52C303 51 304 49 304 48C304 47 303 45 302 44L272 32Z" class="fa-secondary"/><path d="M530 48L496 14C477 -5 447 -5 428 14L46 396C27 415 27 445 46 464L80 498C99 517 129 517 148 498L530 116C549 97 549 67 530 48ZM379 187L357 165L462 59L485 82L379 187Z" class="fa-primary"/></svg>