<svg xmlns="http://www.w3.org/2000/svg" viewBox="0 0 512 512"><!-- Font Awesome Pro 6.0.0-alpha1 by @fontawesome - https://fontawesome.com License - https://fontawesome.com/license (Commercial License) --><defs><style>.fa-secondary{opacity:.4}</style></defs><path d="M156 138L107 117L107 117L106 117L86 68C85 66 82 64 80 64L80 64L80 64C80 64 80 64 80 64C78 64 75 66 74 68L53 117L4 138C2 139 0 142 0 144C0 146 2 149 4 150L53 171L74 220C75 222 78 224 80 224C80 224 80 224 80 224L80 224L80 224C82 224 85 222 86 220L106 171L107 171L107 171L156 150C158 149 160 146 160 144L160 144L160 144C160 142 158 139 156 138ZM512 368C512 366 510 363 508 362L459 341L459 341L438 292C437 290 434 288 432 288C430 288 427 290 426 292L405 341L405 341L356 362C354 363 352 366 352 368L352 368L352 368C352 370 354 373 356 374L405 395L405 395L426 444C427 446 430 448 432 448C434 448 437 446 438 444L459 395H459L459 395L508 374C510 373 512 370 512 368L512 368L512 368ZM240 32L228 2C227 1 225 0 224 0C223 0 221 1 220 2L208 32L178 44C177 45 176 47 176 48C176 49 177 51 178 52L208 64L220 94C221 95 223 96 224 96C225 96 227 95 228 94L240 64L270 52C271 51 272 49 272 48C272 47 271 45 270 44L240 32Z" class="fa-secondary"/><path d="M400 192C409 192 416 185 416 176V148L508 46C514 40 513 30 507 24L488 5C482 -1 472 -2 466 4L187 256H144C135 256 128 263 128 272V309L11 415C-3 427 -4 448 9 461L51 503C64 516 85 515 97 501L376 192H400Z" class="fa-primary"/></svg>