<svg xmlns="http://www.w3.org/2000/svg" viewBox="0 0 448 512"><!-- Font Awesome Pro 6.0.0-alpha1 by @fontawesome - https://fontawesome.com License - https://fontawesome.com/license (Commercial License) --><defs><style>.fa-secondary{opacity:.4}</style></defs><path d="M334 285C314 305 281 305 261 284V284C251 294 238 300 224 300S197 294 187 284C167 305 134 305 114 285C113 291 112 298 112 304C112 366 162 416 224 416S336 366 336 304C336 298 335 291 334 285ZM184 112C197 112 208 101 208 88C208 75 197 64 184 64S160 75 160 88C160 101 171 112 184 112Z" class="fa-secondary"/><path d="M384 0H64C29 0 0 29 0 64V480C0 498 14 512 32 512H416C434 512 448 498 448 480V64C448 29 419 0 384 0ZM184 64C197 64 208 75 208 88S197 112 184 112C171 112 160 101 160 88S171 64 184 64ZM64 88C64 75 75 64 88 64C101 64 112 75 112 88S101 112 88 112C75 112 64 101 64 88ZM224 448C144 448 80 383 80 304S144 160 224 160S368 225 368 304S304 448 224 448Z" class="fa-primary"/></svg>