<svg xmlns="http://www.w3.org/2000/svg" viewBox="0 0 576 512"><!-- Font Awesome Pro 6.0.0-alpha1 by @fontawesome - https://fontawesome.com License - https://fontawesome.com/license (Commercial License) --><defs><style>.fa-secondary{opacity:.4}</style></defs><path d="M576 432V464C576 473 568 481 559 480C530 477 503 469 480 454C423 489 343 488 288 454C233 488 153 489 96 454C73 469 46 477 17 480C8 481 0 473 0 464V432C0 424 6 417 14 416C42 413 68 401 84 382C91 374 102 375 109 383C148 428 240 427 276 382C279 378 283 376 288 376C293 376 297 378 300 382C336 427 428 428 467 383C474 375 485 374 492 382C508 401 534 413 562 416C570 417 576 424 576 432Z" class="fa-secondary"/><path d="M576 128V144C576 153 569 160 560 160H528C519 160 512 153 512 144V128C512 110 498 96 480 96S448 110 448 128V357C446 359 444 360 443 362C431 375 409 384 384 384V288H192V384C167 384 145 375 133 362C132 360 130 359 128 357V128C128 75 171 32 224 32S320 75 320 128V144C320 153 313 160 304 160H272C263 160 256 153 256 144V128C256 110 242 96 224 96S192 110 192 128V224H384V128C384 75 427 32 480 32S576 75 576 128Z" class="fa-primary"/></svg>