<svg xmlns="http://www.w3.org/2000/svg" viewBox="0 0 576 512"><!-- Font Awesome Pro 6.0.0-alpha1 by @fontawesome - https://fontawesome.com License - https://fontawesome.com/license (Commercial License) --><defs><style>.fa-secondary{opacity:.4}</style></defs><path d="M562 448C541 446 520 437 504 425C490 414 470 414 456 425C418 455 349 455 310 424C297 412 277 414 264 425C226 455 157 455 118 424C105 412 85 415 71 426C56 438 35 446 14 448C6 449 0 456 0 464V496C0 505 8 513 17 512C46 509 73 501 96 486C153 521 233 520 288 486C345 521 425 520 480 486C503 500 531 509 559 512C568 513 576 505 576 496V464C576 456 570 449 562 448ZM562 304C541 302 520 293 504 281C490 270 470 270 456 281C418 311 349 311 310 279C297 268 277 270 264 281C226 311 157 311 118 280C105 268 85 271 71 282C56 294 35 302 14 304C6 305 0 312 0 320V352C0 361 8 369 17 368C46 365 73 357 96 342C153 377 233 376 288 342C345 377 425 376 480 342C503 356 531 365 559 368C568 369 576 361 576 352V320C576 312 570 305 562 304Z" class="fa-secondary"/><path d="M268 217C269 218 271 219 273 220C274 220 275 221 277 222C280 223 284 224 288 224S296 223 299 222C301 221 302 220 303 220C305 219 307 218 308 217L388 153C402 142 404 122 393 108C382 94 362 92 348 103L320 125V32C320 14 306 0 288 0S256 14 256 32V125L228 103C214 92 194 94 183 108C172 122 174 142 188 153L268 217Z" class="fa-primary"/></svg>