<svg xmlns="http://www.w3.org/2000/svg" viewBox="0 0 640 512"><!-- Font Awesome Pro 6.0.0-alpha1 by @fontawesome - https://fontawesome.com License - https://fontawesome.com/license (Commercial License) --><defs><style>.fa-secondary{opacity:.4}</style></defs><path d="M68 179C67 180 66 181 66 182L41 256H16C7 256 0 263 0 272V304C0 313 7 320 16 320H64C74 320 82 316 88 309L65 199C63 192 65 185 68 179ZM161 90C161 90 160 91 160 91L138 237L175 409C176 413 176 418 175 421C175 421 176 421 176 421L194 301L160 101C160 97 160 93 161 90ZM624 256H599L575 183C571 172 562 163 551 161C533 157 516 169 513 185L502 237L528 411C528 415 528 419 527 423C527 423 527 423 527 423L552 309C558 316 566 320 576 320H624C633 320 640 313 640 304V272C640 263 633 256 624 256ZM417 89C417 90 417 90 416 91L386 271L416 475C416 479 416 483 415 487C415 486 415 486 416 485L446 301L416 101C416 97 416 93 417 89ZM289 26C289 26 288 27 288 27L254 271L288 475C288 479 288 482 287 486C287 486 288 485 288 485L320 258L288 37C288 33 288 29 289 26Z" class="fa-secondary"/><path d="M187 64C169 67 158 84 160 101L224 485C227 501 241 512 256 512C258 512 259 512 261 512C279 509 290 492 288 475L224 91C221 73 204 61 187 64ZM127 185C124 168 107 157 89 161C72 164 61 181 65 199L113 423C116 438 129 448 144 448C146 448 148 448 151 447C168 444 179 427 175 409L127 185ZM480 91C477 74 461 62 443 64C426 67 414 83 416 101L464 421C467 437 480 448 496 448C498 448 499 448 501 448C518 445 530 429 528 411L480 91ZM315 0C298 3 286 19 288 37L352 485C355 501 368 512 384 512C385 512 387 512 389 512C406 509 418 493 416 475L352 27C349 10 333 -2 315 0Z" class="fa-primary"/></svg>