<svg xmlns="http://www.w3.org/2000/svg" viewBox="0 0 512 512"><!-- Font Awesome Pro 6.0.0-alpha1 by @fontawesome - https://fontawesome.com License - https://fontawesome.com/license (Commercial License) --><defs><style>.fa-secondary{opacity:.4}</style></defs><path d="M320 352C320 440 248 512 160 512S0 440 0 352S72 192 160 192C161 192 161 192 162 192L170 241C167 241 164 240 160 240C98 240 48 290 48 352S98 464 160 464S272 414 272 352H320Z" class="fa-secondary"/><path d="M240 48C240 22 219 0 192 0S144 22 144 48S166 96 192 96S240 74 240 48ZM510 422C505 405 487 396 470 402L450 408L409 308C404 296 392 288 379 288H281L271 240H336C354 240 368 226 368 208S354 176 336 176H257L256 169C252 143 227 125 201 128C175 132 157 157 161 183L184 323C186 340 200 352 216 352H357L402 460C407 472 419 480 432 480C435 480 439 479 442 478L490 462C507 457 516 439 510 422Z" class="fa-primary"/></svg>