<svg xmlns="http://www.w3.org/2000/svg" viewBox="0 0 640 512"><!-- Font Awesome Pro 6.0.0-alpha1 by @fontawesome - https://fontawesome.com License - https://fontawesome.com/license (Commercial License) --><defs><style>.fa-secondary{opacity:.4}</style></defs><path d="M208 68C208 61 208 53 210 46C135 64 65 100 5 155C-2 161 -2 171 5 178L39 212C45 218 55 218 61 212C106 171 159 143 214 127L208 68ZM117 268C110 275 110 285 117 292L151 326C157 331 167 332 173 326C191 311 210 300 230 291L222 208C184 221 149 241 117 268ZM418 208L410 291C430 300 449 311 467 326C473 332 483 331 489 326L523 292C530 285 530 274 523 268C491 241 456 221 418 208ZM635 155C575 100 505 64 430 46C432 53 433 60 432 68L426 127C481 143 534 171 579 212C585 218 595 218 601 212L635 178C642 171 642 161 635 155Z" class="fa-secondary"/><path d="M308 320H332C347 320 360 309 361 294L384 64C386 47 372 32 356 32H285C268 32 255 47 256 64L279 294C281 309 293 320 308 320ZM320 368C289 368 264 393 264 424S289 480 320 480S376 455 376 424S351 368 320 368Z" class="fa-primary"/></svg>