<svg xmlns="http://www.w3.org/2000/svg" viewBox="0 0 512 512"><!-- Font Awesome Pro 6.0.0-alpha1 by @fontawesome - https://fontawesome.com License - https://fontawesome.com/license (Commercial License) --><defs><style>.fa-secondary{opacity:.4}</style></defs><path d="M0 224V416C0 451 29 480 64 480H448C483 480 512 451 512 416V224H0ZM192 160C210 160 224 146 224 128S210 96 192 96S160 110 160 128S174 160 192 160ZM288 160C306 160 320 146 320 128S306 96 288 96S256 110 256 128S270 160 288 160Z" class="fa-secondary"/><path d="M448 32H64C29 32 0 61 0 96V224H512V96C512 61 483 32 448 32ZM96 160C78 160 64 146 64 128S78 96 96 96S128 110 128 128S114 160 96 160ZM192 160C174 160 160 146 160 128S174 96 192 96S224 110 224 128S210 160 192 160ZM288 160C270 160 256 146 256 128S270 96 288 96S320 110 320 128S306 160 288 160Z" class="fa-primary"/></svg>