<svg xmlns="http://www.w3.org/2000/svg" viewBox="0 0 512 512"><!-- Font Awesome Pro 6.0.0-alpha1 by @fontawesome - https://fontawesome.com License - https://fontawesome.com/license (Commercial License) --><defs><style>.fa-secondary{opacity:.4}</style></defs><path d="M509 395C499 436 466 469 425 477C366 490 313 456 295 405C291 395 300 384 310 384H344C350 384 356 387 359 392C367 406 382 416 400 416C427 416 448 394 448 368C448 342 427 320 400 320H251C237 282 199 256 157 256H400C471 256 526 322 509 395Z" class="fa-secondary"/><path d="M157 256H16C7 256 0 263 0 272V304C0 313 7 320 16 320H158C174 320 189 331 192 347C195 367 179 384 160 384C146 384 134 375 130 362C127 356 121 352 114 352H82C72 352 64 361 66 370C74 414 113 448 160 448C217 448 263 398 255 339C249 291 205 256 157 256ZM446 107C438 71 409 42 373 34C317 23 268 59 258 110C256 119 264 128 274 128H306C313 128 319 124 322 118C326 105 338 96 352 96C371 96 387 113 384 133C381 149 366 160 350 160H16C7 160 0 167 0 176V208C0 217 7 224 16 224H352C412 224 459 169 446 107Z" class="fa-primary"/></svg>