<svg xmlns="http://www.w3.org/2000/svg" viewBox="0 0 512 512"><!-- Font Awesome Pro 6.0.0-alpha1 by @fontawesome - https://fontawesome.com License - https://fontawesome.com/license (Commercial License) --><defs><style>.fa-secondary{opacity:.4}</style></defs><path d="M272 336L368 317V99L272 80V336ZM128 96H64V144H128V272H64V320H128V365L208 349V67L128 51V96ZM493 124L432 112V304L493 292C504 290 512 280 512 268V148C512 136 504 126 493 124Z" class="fa-secondary"/><path d="M32 0C14 0 0 14 0 32V496C0 505 7 512 16 512H48C57 512 64 505 64 496V32C64 14 50 0 32 0ZM208 349L272 336V80L208 67V349ZM368 99V317L432 304V112L368 99Z" class="fa-primary"/></svg>