<svg xmlns="http://www.w3.org/2000/svg" viewBox="0 0 512 512"><!-- Font Awesome Pro 6.0.0-alpha1 by @fontawesome - https://fontawesome.com License - https://fontawesome.com/license (Commercial License) --><defs><style>.fa-secondary{opacity:.4}</style></defs><path d="M448 0H192C157 0 128 29 128 64V96H320C373 96 416 139 416 192V384H448C483 384 512 355 512 320V64C512 29 483 0 448 0Z" class="fa-secondary"/><path d="M320 128H64C29 128 0 157 0 192V448C0 483 29 512 64 512H320C355 512 384 483 384 448V192C384 160 358 128 320 128ZM320 256H64V192H320V256Z" class="fa-primary"/></svg>