<svg xmlns="http://www.w3.org/2000/svg" viewBox="0 0 640 512"><!-- Font Awesome Pro 6.0.0-alpha1 by @fontawesome - https://fontawesome.com License - https://fontawesome.com/license (Commercial License) --><defs><style>.fa-secondary{opacity:.4}</style></defs><path d="M384 336C366 336 352 322 352 304C352 286 366 272 384 272H415C415 268 416 265 416 261C419 146 328 51 213 48C98 45 3 136 0 251C-3 366 88 461 203 464C291 466 368 413 400 336H384ZM208 384C190 384 176 370 176 352S190 320 208 320S240 334 240 352S226 384 208 384ZM233 274C233 282 226 288 217 288H198C190 288 183 282 182 274L170 146C169 136 176 128 186 128H230C240 128 247 136 246 146L233 274Z" class="fa-secondary"/><path d="M208 320C191 320 176 334 176 352S191 384 208 384S240 370 240 352S226 320 208 320ZM543 176H434C441 196 446 218 448 240H540C541 240 541 240 541 240C590 240 633 205 639 157C647 98 601 48 544 48C498 48 459 82 450 126C448 135 456 144 466 144H499C505 144 512 140 514 134C518 121 530 112 544 112C564 112 579 129 576 149C573 165 558 176 543 176ZM231 128H186C177 128 169 136 170 146L183 274C184 282 191 288 199 288H218C226 288 233 282 234 274L247 146C247 136 240 128 231 128ZM638 349C630 303 587 272 541 272H384C367 272 352 286 352 304C352 322 367 336 384 336H543C558 336 573 347 576 363C579 383 564 400 544 400C530 400 518 391 514 378C512 372 505 368 499 368H466C456 368 448 377 450 387C459 431 498 464 544 464C604 464 650 410 638 349Z" class="fa-primary"/></svg>