<svg xmlns="http://www.w3.org/2000/svg" viewBox="0 0 320 512"><!-- Font Awesome Pro 6.0.0-alpha1 by @fontawesome - https://fontawesome.com License - https://fontawesome.com/license (Commercial License) --><defs><style>.fa-secondary{opacity:.4}</style></defs><path d="M232 464H192V347C260 331 310 267 303 193L288 15C287 6 280 0 272 0H48C40 0 33 6 32 14L17 193C10 267 59 331 128 347V464H88C66 464 48 482 48 504C48 508 52 512 56 512H264C268 512 272 508 272 504C272 482 254 464 232 464ZM180 300C167 303 153 303 139 300C92 289 60 245 64 197L78 48H242L256 197C260 245 228 289 181 300L180 300Z" class="fa-secondary"/></svg>