<svg xmlns="http://www.w3.org/2000/svg" viewBox="0 0 512 512"><!-- Font Awesome Pro 6.0.0-alpha1 by @fontawesome - https://fontawesome.com License - https://fontawesome.com/license (Commercial License) --><defs><style>.fa-secondary{opacity:.4}</style></defs><path d="M201 210L21 389C-7 417 -7 463 21 491C35 505 54 512 72 512S109 505 123 491L302 311C254 296 216 258 201 210ZM80 456C67 456 56 445 56 432C56 419 67 408 80 408S104 419 104 432C104 445 93 456 80 456Z" class="fa-secondary"/><path d="M507 199C492 261 439 309 376 318C269 334 178 243 194 136C203 73 251 20 313 5C341 -2 367 -1 391 5C403 8 407 23 398 32L320 110V192H402L480 114C489 105 504 109 507 121C513 145 514 171 507 199Z" class="fa-primary"/></svg>