<svg xmlns="http://www.w3.org/2000/svg" viewBox="0 0 320 512"><!-- Font Awesome Pro 6.0.0-alpha1 by @fontawesome - https://fontawesome.com License - https://fontawesome.com/license (Commercial License) --><path d="M320 336C320 415 255 480 176 480H115C64 480 19 448 2 399C-6 374 8 347 33 338C58 330 85 344 94 369C97 378 105 384 115 384H176C202 384 224 362 224 336S202 288 176 288H48C34 288 20 282 11 270C2 259 -2 245 1 231L33 71C37 48 57 32 80 32H240C267 32 288 54 288 80S267 128 240 128H119L107 192H176C255 192 320 257 320 336Z"/></svg>