<svg xmlns="http://www.w3.org/2000/svg" viewBox="0 0 576 512"><!-- Font Awesome Pro 6.0.0-alpha1 by @fontawesome - https://fontawesome.com License - https://fontawesome.com/license (Commercial License) --><path d="M528 32H48C22 32 0 54 0 80V432C0 458 22 480 48 480H528C554 480 576 458 576 432V80C576 54 554 32 528 32ZM128 264H112C103 264 96 271 96 280V296C96 305 103 312 112 312H128V336H112C103 336 96 343 96 352V368C96 377 103 384 112 384H128V416H64V240H128V264ZM128 128H112C103 128 96 135 96 144V160C96 169 103 176 112 176H128V208H64V96H128V128ZM256 264H240C231 264 224 271 224 280V296C224 305 231 312 240 312H256V336H240C231 336 224 343 224 352V368C224 377 231 384 240 384H256V416H160V384H176C185 384 192 377 192 368V352C192 343 185 336 176 336H160V312H176C185 312 192 305 192 296V280C192 271 185 264 176 264H160V240H256V264ZM256 128H240C231 128 224 135 224 144V160C224 169 231 176 240 176H256V208H160V176H176C185 176 192 169 192 160V144C192 135 185 128 176 128H160V96H256V128ZM416 336H400C391 336 384 343 384 352V368C384 377 391 384 400 384H416V416H288V384H304C313 384 320 377 320 368V352C320 343 313 336 304 336H288V312H304C313 312 320 305 320 296V280C320 271 313 264 304 264H288V240H416V336ZM416 128H400C391 128 384 135 384 144V160C384 169 391 176 400 176H416V208H288V176H304C313 176 320 169 320 160V144C320 135 313 128 304 128H288V96H416V128ZM512 416H448V384H464C473 384 480 377 480 368V352C480 343 473 336 464 336H448V240H512V416ZM512 208H448V176H464C473 176 480 169 480 160V144C480 135 473 128 464 128H448V96H512V208Z"/></svg>