<svg xmlns="http://www.w3.org/2000/svg" viewBox="0 0 384 512"><!-- Font Awesome Pro 6.0.0-alpha1 by @fontawesome - https://fontawesome.com License - https://fontawesome.com/license (Commercial License) --><path d="M304 384H224V352H356C380 352 393 324 377 306L306 224H342C364 224 376 198 362 182L212 9C201 -3 183 -3 172 9L22 182C8 198 20 224 42 224H78L7 306C-9 324 4 352 28 352H160V384H80C53 384 32 406 32 432V464C32 490 53 512 80 512H304C331 512 352 490 352 464V432C352 406 331 384 304 384ZM192 56C205 56 216 67 216 80S205 104 192 104C179 104 168 93 168 80S179 56 192 56ZM304 464H80V432H304V464Z"/></svg>