<svg xmlns="http://www.w3.org/2000/svg" viewBox="0 0 512 512"><!-- Font Awesome Pro 6.0.0-alpha1 by @fontawesome - https://fontawesome.com License - https://fontawesome.com/license (Commercial License) --><path d="M161 26L15 147C6 133 0 115 0 96C0 43 43 0 96 0C121 0 144 10 161 26ZM416 0C391 0 368 10 351 26L497 147C506 133 512 115 512 96C512 43 469 0 416 0ZM480 288C480 338 463 385 435 422L475 462C482 468 482 478 475 485L453 507C446 514 436 514 430 507L390 467C353 495 306 512 256 512C206 512 159 495 122 467L82 507C76 514 66 514 59 507L37 485C30 478 30 468 37 462L77 422C49 385 32 338 32 288C32 164 132 64 256 64S480 164 480 288ZM334 333L280 292V184C280 171 269 160 256 160S232 171 232 184V304C232 312 236 319 242 323L306 371C310 374 315 376 320 376C327 376 334 373 339 366C347 356 345 341 334 333Z"/></svg>