<svg xmlns="http://www.w3.org/2000/svg" viewBox="0 0 448 512"><!-- Font Awesome Pro 6.0.0-alpha1 by @fontawesome - https://fontawesome.com License - https://fontawesome.com/license (Commercial License) --><path d="M432 416H16C7 416 0 423 0 432V464C0 473 7 480 16 480H432C441 480 448 473 448 464V432C448 423 441 416 432 416ZM432 288H16C7 288 0 295 0 304V336C0 345 7 352 16 352H432C441 352 448 345 448 336V304C448 295 441 288 432 288ZM432 160H16C7 160 0 167 0 176V208C0 217 7 224 16 224H432C441 224 448 217 448 208V176C448 167 441 160 432 160ZM432 32H16C7 32 0 39 0 48V80C0 89 7 96 16 96H432C441 96 448 89 448 80V48C448 39 441 32 432 32Z"/></svg>