<svg xmlns="http://www.w3.org/2000/svg" viewBox="0 0 448 512"><!-- Font Awesome Pro 6.0.0-alpha1 by @fontawesome - https://fontawesome.com License - https://fontawesome.com/license (Commercial License) --><path d="M100 256L218 125C227 116 226 100 216 92L192 70C182 61 167 62 158 72L5 242C-2 250 -2 262 5 270L158 440C167 450 182 451 192 442L216 420C226 412 227 396 218 387L100 256ZM292 256L410 125C419 116 418 100 408 92L384 70C374 61 359 62 350 72L197 242C190 250 190 262 197 270L350 440C359 450 374 451 384 442L408 420C418 412 419 396 410 387L292 256Z"/></svg>