<svg xmlns="http://www.w3.org/2000/svg" viewBox="0 0 384 512"><!-- Font Awesome Pro 6.0.0-alpha1 by @fontawesome - https://fontawesome.com License - https://fontawesome.com/license (Commercial License) --><path d="M28 248C36 258 52 259 61 250L192 132L323 250C332 259 348 258 356 248L378 224C387 214 386 199 376 190L206 37C198 30 186 30 178 37L8 190C-2 199 -3 214 6 224L28 248ZM206 229C198 222 186 222 178 229L8 382C-2 391 -3 406 6 416L28 440C36 450 52 451 61 442L192 324L323 442C332 451 348 450 356 440L378 416C387 406 386 391 376 382L206 229Z"/></svg>