<svg xmlns="http://www.w3.org/2000/svg" viewBox="0 0 320 512"><!-- Font Awesome Pro 6.0.0-alpha1 by @fontawesome - https://fontawesome.com License - https://fontawesome.com/license (Commercial License) --><path d="M296 256H251C273 222 288 182 288 144C288 56 231 0 160 0S32 56 32 144C32 182 47 222 69 256H24C11 256 0 267 0 280V312C0 325 11 336 24 336H120V488C120 501 131 512 144 512H176C189 512 200 501 200 488V336H296C309 336 320 325 320 312V280C320 267 309 256 296 256ZM160 80C190 80 208 105 208 144C208 179 181 222 160 245C139 222 112 179 112 144C112 105 130 80 160 80Z"/></svg>