<svg xmlns="http://www.w3.org/2000/svg" viewBox="0 0 512 512"><!-- Font Awesome Pro 6.0.0-alpha1 by @fontawesome - https://fontawesome.com License - https://fontawesome.com/license (Commercial License) --><path d="M318 192H478C483 153 473 89 424 81C406 78 372 87 352 98C335 89 309 81 290 81C292 83 294 85 296 87C317 117 322 159 318 192ZM210 50C222 38 225 18 224 0C211 -1 188 0 174 14C157 30 160 60 161 64C179 65 198 62 210 50ZM402 50C414 38 417 18 415 0C402 -1 380 0 365 14C349 30 352 60 352 64C371 65 390 62 402 50ZM286 192C291 153 281 89 232 81C214 78 181 87 160 98C139 87 106 78 87 81C39 89 29 153 34 192H286ZM496 224H16C7 224 0 231 0 240V352H512V240C512 231 505 224 496 224ZM64 304C55 304 48 297 48 288S55 272 64 272S80 279 80 288S73 304 64 304ZM448 304C439 304 432 297 432 288S439 272 448 272S464 279 464 288S457 304 448 304ZM0 496C0 505 7 512 16 512H496C505 512 512 505 512 496V384H0V496ZM448 432C457 432 464 439 464 448S457 464 448 464S432 457 432 448S439 432 448 432ZM64 432C73 432 80 439 80 448S73 464 64 464S48 457 48 448S55 432 64 432Z"/></svg>