<svg xmlns="http://www.w3.org/2000/svg" viewBox="0 0 384 512"><!-- Font Awesome Pro 6.0.0-alpha1 by @fontawesome - https://fontawesome.com License - https://fontawesome.com/license (Commercial License) --><path d="M215 169C208 163 200 160 192 160S176 163 169 169L37 302C30 308 30 318 37 325L59 347C66 354 76 354 82 347L160 269V464C160 473 167 480 176 480H208C217 480 224 473 224 464V269L302 347C308 354 318 354 325 347L347 325C354 318 354 308 347 302L215 169ZM368 32H16C7 32 0 39 0 48V80C0 89 7 96 16 96H368C377 96 384 89 384 80V48C384 39 377 32 368 32Z"/></svg>