<svg xmlns="http://www.w3.org/2000/svg" viewBox="0 0 512 512"><!-- Font Awesome Pro 6.0.0-alpha1 by @fontawesome - https://fontawesome.com License - https://fontawesome.com/license (Commercial License) --><path d="M276 192H428C439 192 448 183 448 172V52C448 41 439 32 428 32H276C265 32 256 41 256 52V172C256 183 265 192 276 192ZM484 256H284C269 256 256 269 256 284V452C256 467 269 480 284 480H484C499 480 512 467 512 452V284C512 269 499 256 484 256ZM121 44C109 29 83 29 71 44L7 124C-4 138 -2 158 12 169C26 180 46 178 57 164L64 155V448C64 466 78 480 96 480S128 466 128 448V155L135 164C141 172 151 176 160 176C167 176 174 174 180 169C194 158 196 138 185 124L121 44Z"/></svg>