<svg xmlns="http://www.w3.org/2000/svg" viewBox="0 0 512 512"><!-- Font Awesome Pro 6.0.0-alpha1 by @fontawesome - https://fontawesome.com License - https://fontawesome.com/license (Commercial License) --><path d="M368 288H240C231 288 224 295 224 304V336C224 345 231 352 240 352H368C377 352 384 345 384 336V304C384 295 377 288 368 288ZM304 416H240C231 416 224 423 224 432V464C224 473 231 480 240 480H304C313 480 320 473 320 464V432C320 423 313 416 304 416ZM432 160H240C231 160 224 167 224 176V208C224 217 231 224 240 224H432C441 224 448 217 448 208V176C448 167 441 160 432 160ZM496 32H240C231 32 224 39 224 48V80C224 89 231 96 240 96H496C505 96 512 89 512 80V48C512 39 505 32 496 32ZM121 44C109 29 83 29 71 44L7 124C-4 138 -2 158 12 169C26 180 46 178 57 164L64 155V448C64 466 78 480 96 480S128 466 128 448V155L135 164C141 172 151 176 160 176C167 176 174 174 180 169C194 158 196 138 185 124L121 44Z"/></svg>