<svg xmlns="http://www.w3.org/2000/svg" viewBox="0 0 384 512"><!-- Font Awesome Pro 6.0.0-alpha1 by @fontawesome - https://fontawesome.com License - https://fontawesome.com/license (Commercial License) --><path d="M204 343C190 354 188 374 199 388L263 468C269 476 278 480 288 480S307 476 313 468L377 388C388 374 386 354 372 343C358 332 338 334 327 348L320 357V64C320 46 306 32 288 32S256 46 256 64V357L249 348C238 334 218 332 204 343ZM12 169C18 174 25 176 32 176C41 176 51 172 57 164L64 155V448C64 466 78 480 96 480S128 466 128 448V155L135 164C146 178 166 180 180 169C194 158 196 138 185 124L121 44C109 29 83 29 71 44L7 124C-4 138 -2 158 12 169Z"/></svg>