<svg xmlns="http://www.w3.org/2000/svg" viewBox="0 0 640 512"><!-- Font Awesome Pro 6.0.0-alpha1 by @fontawesome - https://fontawesome.com License - https://fontawesome.com/license (Commercial License) --><path d="M504 288H360C347 288 336 299 336 312V456C336 469 347 480 360 480H504C517 480 528 469 528 456V312C528 299 517 288 504 288ZM540 183L457 46C446 27 418 27 407 46L324 183C313 201 327 224 349 224H515C537 224 551 201 540 183ZM217 44C205 29 179 29 167 44L103 124C92 138 94 158 108 169C122 180 142 178 153 164L160 155V448C160 466 174 480 192 480S224 466 224 448V155L231 164C237 172 247 176 256 176C263 176 270 174 276 169C290 158 292 138 281 124L217 44ZM-1176 224H-1032C-1019 224 -1008 213 -1008 200V56C-1008 43 -1019 32 -1032 32H-1176C-1189 32 -1200 43 -1200 56V200C-1200 213 -1189 224 -1176 224ZM-1079 302C-1090 283 -1118 283 -1129 302L-1212 439C-1223 457 -1209 480 -1187 480H-1021C-999 480 -985 457 -996 439L-1079 302ZM-1305 348L-1312 357V64C-1312 46 -1326 32 -1344 32S-1376 46 -1376 64V357L-1383 348C-1394 334 -1414 332 -1428 343C-1442 354 -1444 374 -1433 388L-1369 468C-1363 476 -1354 480 -1344 480S-1325 476 -1319 468L-1255 388C-1244 374 -1246 354 -1260 343C-1274 332 -1294 334 -1305 348Z"/></svg>