<svg xmlns="http://www.w3.org/2000/svg" viewBox="0 0 384 512"><!-- Font Awesome Pro 6.0.0-alpha1 by @fontawesome - https://fontawesome.com License - https://fontawesome.com/license (Commercial License) --><path d="M169 471C176 477 184 480 192 480S208 477 215 471L347 338C354 332 354 322 347 315L325 293C318 286 308 286 302 293L224 371V176C224 167 217 160 208 160H176C167 160 160 167 160 176V371L82 293C76 286 66 286 59 293L37 315C30 322 30 332 37 338L169 471ZM16 96H368C377 96 384 89 384 80V48C384 39 377 32 368 32H16C7 32 0 39 0 48V80C0 89 7 96 16 96Z"/></svg>