<svg xmlns="http://www.w3.org/2000/svg" viewBox="0 0 384 512"><!-- Font Awesome Pro 6.0.0-alpha1 by @fontawesome - https://fontawesome.com License - https://fontawesome.com/license (Commercial License) --><path d="M169 343C176 349 184 352 192 352S208 349 215 343L347 210C354 204 354 194 347 187L325 165C318 158 308 158 302 165L224 243V48C224 39 217 32 208 32H176C167 32 160 39 160 48V243L82 165C76 158 66 158 59 165L37 187C30 194 30 204 37 210L169 343ZM16 480H368C377 480 384 473 384 464V432C384 423 377 416 368 416H16C7 416 0 423 0 432V464C0 473 7 480 16 480Z"/></svg>