<svg xmlns="http://www.w3.org/2000/svg" viewBox="0 0 448 512"><!-- Font Awesome Pro 6.0.0-alpha1 by @fontawesome - https://fontawesome.com License - https://fontawesome.com/license (Commercial License) --><path d="M384 128H336C327 128 320 135 320 144V176C320 185 327 192 336 192H384V448H64V192H112C121 192 128 185 128 176V144C128 135 121 128 112 128H64C29 128 0 157 0 192V448C0 483 29 512 64 512H384C419 512 448 483 448 448V192C448 157 419 128 384 128ZM199 372C205 380 214 384 224 384S243 380 249 372L313 292C324 278 322 258 308 247C294 236 274 238 263 252L256 261V32C256 14 242 0 224 0S192 14 192 32V261L185 252C174 238 154 236 140 247C126 258 124 278 135 292L199 372Z"/></svg>