<svg xmlns="http://www.w3.org/2000/svg" viewBox="0 0 448 512"><!-- Font Awesome Pro 6.0.0-alpha1 by @fontawesome - https://fontawesome.com License - https://fontawesome.com/license (Commercial License) --><path d="M416 288H288C279 288 272 295 272 304V336C272 345 279 352 288 352H344L283 422C276 429 272 437 272 446V464C272 473 279 480 288 480H416C425 480 432 473 432 464V432C432 423 425 416 416 416H360L421 346C428 339 432 331 432 322V304C432 295 425 288 416 288ZM447 203L388 43C386 36 380 32 373 32H331C325 32 319 36 316 43L257 203C255 207 256 213 259 217C262 222 267 224 272 224H297C304 224 310 219 312 213L317 200H388L392 213C394 219 400 224 407 224H432C437 224 442 222 445 217S449 207 447 203ZM336 144L352 96L368 144H336ZM121 44C109 29 83 29 71 44L7 124C-4 138 -2 158 12 169C26 180 46 178 57 164L64 155V448C64 466 78 480 96 480S128 466 128 448V155L135 164C141 172 151 176 160 176C167 176 174 174 180 169C194 158 196 138 185 124L121 44Z"/></svg>