<svg xmlns="http://www.w3.org/2000/svg" viewBox="0 0 384 512"><!-- Font Awesome Pro 6.0.0-alpha1 by @fontawesome - https://fontawesome.com License - https://fontawesome.com/license (Commercial License) --><path d="M215 41C208 35 200 32 192 32S176 35 169 41L37 174C30 180 30 190 37 197L59 219C66 226 76 226 82 219L160 141V336C160 345 167 352 176 352H208C217 352 224 345 224 336V141L302 219C308 226 318 226 325 219L347 197C354 190 354 180 347 174L215 41ZM368 416H16C7 416 0 423 0 432V464C0 473 7 480 16 480H368C377 480 384 473 384 464V432C384 423 377 416 368 416Z"/></svg>