<svg xmlns="http://www.w3.org/2000/svg" viewBox="0 0 448 512"><!-- Font Awesome Pro 6.0.0-alpha1 by @fontawesome - https://fontawesome.com License - https://fontawesome.com/license (Commercial License) --><path d="M304 224H400C409 224 416 217 416 208V176C416 167 409 160 400 160H384V48C384 39 377 32 368 32H320C314 32 308 35 306 41L290 73C287 78 288 84 290 88S299 96 304 96H320V160H304C295 160 288 167 288 176V208C288 217 295 224 304 224ZM330 259C304 266 283 287 275 313C261 364 296 411 344 416C338 421 331 425 323 428C316 432 312 441 315 449L325 469C328 478 337 482 346 479C404 454 432 417 432 347V336C432 285 384 245 330 259ZM352 356C341 356 332 347 332 336S341 316 352 316S372 325 372 336S363 356 352 356ZM121 44C109 29 83 29 71 44L7 124C-4 138 -2 158 12 169C26 180 46 178 57 164L64 155V448C64 466 78 480 96 480S128 466 128 448V155L135 164C141 172 151 176 160 176C167 176 174 174 180 169C194 158 196 138 185 124L121 44Z"/></svg>