<svg xmlns="http://www.w3.org/2000/svg" viewBox="0 0 512 512"><!-- Font Awesome Pro 6.0.0-alpha1 by @fontawesome - https://fontawesome.com License - https://fontawesome.com/license (Commercial License) --><path d="M48 16C66 16 80 30 80 48V93C125 45 188 16 256 16C388 16 496 124 496 256S388 496 256 496C204 496 154 479 112 448C94 435 91 410 104 392C117 374 142 371 160 384C188 405 221 416 256 416C344 416 416 344 416 256S344 96 256 96C205 96 158 120 128 160H128C128 160 128 160 128 160H192C210 160 224 174 224 192C224 210 210 224 192 224H48C39 224 31 220 25 215S16 201 16 192V48C16 30 30 16 48 16Z"/></svg>