<svg xmlns="http://www.w3.org/2000/svg" viewBox="0 0 320 512"><!-- Font Awesome Pro 6.0.0-alpha1 by @fontawesome - https://fontawesome.com License - https://fontawesome.com/license (Commercial License) --><path d="M299 363C306 370 306 380 299 386L183 503C176 509 168 512 160 512S144 509 137 503L21 386C14 380 14 370 21 363L43 341C50 334 60 334 66 341L128 403V109L66 171C60 178 50 178 43 171L21 149C14 142 14 132 21 126L137 9C144 3 152 0 160 0S176 3 183 9L299 126C306 132 306 142 299 149L277 171C270 178 260 178 254 171L192 109V403L254 341C260 334 270 334 277 341L299 363Z"/></svg>