<svg xmlns="http://www.w3.org/2000/svg" viewBox="0 0 512 512"><!-- Font Awesome Pro 6.0.0-alpha1 by @fontawesome - https://fontawesome.com License - https://fontawesome.com/license (Commercial License) --><path d="M512 256H448C448 262 447 268 446 274C438 320 395 352 348 352H96C68 352 53 386 73 407L174 507C180 514 190 514 197 507L219 485C226 478 226 468 219 462L173 416H344C433 416 510 348 512 259C512 258 512 257 512 256ZM164 160H416C444 160 459 126 439 105L338 5C332 -2 322 -2 315 5L293 27C286 34 286 44 293 50L339 96H168C79 96 2 164 0 253C0 254 0 255 0 256H64C64 250 65 244 66 238C74 192 117 160 164 160ZM256 320H272C281 320 288 313 288 304V208C288 199 281 192 272 192H243C237 192 232 195 229 200L217 222C215 226 216 230 218 234C220 238 224 240 228 240H240V304C240 313 247 320 256 320Z"/></svg>