<svg xmlns="http://www.w3.org/2000/svg" viewBox="0 0 448 512"><!-- Font Awesome Pro 6.0.0-alpha1 by @fontawesome - https://fontawesome.com License - https://fontawesome.com/license (Commercial License) --><path d="M408 288H264C251 288 240 299 240 312V456C240 469 251 480 264 480H408C421 480 432 469 432 456V312C432 299 421 288 408 288ZM444 183L361 46C350 27 322 27 311 46L228 183C217 201 231 224 253 224H419C441 224 455 201 444 183ZM135 348L128 357V64C128 46 114 32 96 32S64 46 64 64V357L57 348C46 334 26 332 12 343C-2 354 -4 374 7 388L71 468C77 476 86 480 96 480S115 476 121 468L185 388C196 374 194 354 180 343C166 332 146 334 135 348Z"/></svg>