<svg xmlns="http://www.w3.org/2000/svg" viewBox="0 0 448 512"><!-- Font Awesome Pro 6.0.0-alpha1 by @fontawesome - https://fontawesome.com License - https://fontawesome.com/license (Commercial License) --><path d="M185 124L121 44C117 38 111 36 104 34C99 32 94 32 89 34C82 36 76 38 71 44L7 124C4 129 2 134 1 140C1 141 1 142 1 144C1 153 5 163 12 169C26 180 46 178 57 164L61 160H64V448C64 466 79 480 96 480H96C97 480 98 480 98 480C112 479 124 469 127 456C128 453 128 451 128 448V160H132L135 164C142 172 151 176 161 176C168 176 175 174 180 169C188 163 192 153 192 144C192 142 192 141 192 140C191 134 189 129 185 124ZM331 35C304 42 283 63 276 89C261 140 297 187 344 192C338 197 331 201 324 205C316 208 313 217 315 225L325 245C328 254 338 258 346 255C404 230 432 193 432 123V112C432 61 384 21 331 35ZM352 132C341 132 332 123 332 112S341 92 352 92S372 101 372 112S363 132 352 132ZM400 416H384V304C384 295 377 288 368 288H320C314 288 309 291 306 297L290 329C288 334 288 340 291 344S299 352 304 352H320V416H304C296 416 288 423 288 432V464C288 473 296 480 304 480H400C409 480 416 473 416 464V432C416 423 409 416 400 416Z"/></svg>