<svg xmlns="http://www.w3.org/2000/svg" viewBox="0 0 448 512"><!-- Font Awesome Pro 6.0.0-alpha1 by @fontawesome - https://fontawesome.com License - https://fontawesome.com/license (Commercial License) --><path d="M311 279C317 272 320 264 320 256S317 240 311 233L178 101C172 94 162 94 155 101L133 123C126 130 126 140 133 146L211 224H16C7 224 0 231 0 240V272C0 281 7 288 16 288H211L133 366C126 372 126 382 133 389L155 411C162 418 172 418 178 411L311 279ZM448 432V80C448 71 441 64 432 64H400C391 64 384 71 384 80V432C384 441 391 448 400 448H432C441 448 448 441 448 432Z"/></svg>