<svg xmlns="http://www.w3.org/2000/svg" viewBox="0 0 512 512"><!-- Font Awesome Pro 6.0.0-alpha1 by @fontawesome - https://fontawesome.com License - https://fontawesome.com/license (Commercial License) --><path d="M208 21C114 39 39 114 21 208C-8 356 99 486 239 496C248 497 256 489 256 480V448C256 439 249 433 241 432C151 424 80 348 80 256C80 153 169 71 274 81C365 90 432 172 432 264V280C432 302 414 320 392 320S352 302 352 280V160C352 151 345 144 336 144H304C297 144 291 149 289 156C274 149 258 144 240 144C178 144 128 194 128 256S178 368 240 368C266 368 290 359 310 344C333 374 372 391 414 382C462 372 496 327 496 277V256C496 108 361 -9 208 21ZM240 304C214 304 192 283 192 256S214 208 240 208S288 230 288 256S266 304 240 304Z"/></svg>