<svg xmlns="http://www.w3.org/2000/svg" viewBox="0 0 384 512"><!-- Font Awesome Pro 6.0.0-alpha1 by @fontawesome - https://fontawesome.com License - https://fontawesome.com/license (Commercial License) --><path d="M2 433C-2 441 0 451 6 457C11 464 20 467 29 466L74 457L95 499C99 507 108 512 117 512C117 512 117 512 118 512C127 512 135 506 139 497L172 415C119 410 70 387 34 351L2 433ZM288 358C302 350 306 328 317 317C328 306 350 302 358 288C366 274 358 254 363 238C367 223 384 209 384 192C384 175 367 161 363 146C358 131 366 110 358 96C350 82 328 78 317 67C306 56 302 34 288 26C274 18 254 26 238 21C223 17 209 0 192 0C175 0 161 17 146 21C131 26 110 18 96 26C82 34 78 56 67 67C56 78 34 82 26 96C18 110 26 130 21 146C17 161 0 175 0 192C0 209 17 223 21 238C26 253 18 274 26 288C34 302 56 306 67 317C78 328 82 350 96 358C110 366 130 358 146 363C161 367 175 384 192 384C209 384 223 367 238 363C253 358 274 366 288 358ZM112 192C112 148 148 112 192 112S272 148 272 192C272 236 236 272 192 272S112 236 112 192ZM350 351C313 387 265 410 211 415L245 497C249 506 257 512 266 512C267 512 267 512 267 512C276 512 285 507 289 499L310 457L355 466C364 467 373 464 378 457C384 451 386 441 382 433L350 351Z"/></svg>