<svg xmlns="http://www.w3.org/2000/svg" viewBox="0 0 640 512"><!-- Font Awesome Pro 6.0.0-alpha1 by @fontawesome - https://fontawesome.com License - https://fontawesome.com/license (Commercial License) --><path d="M231 204L299 271L68 503C55 515 35 515 23 503L0 480C-13 467 -13 447 0 435L231 204ZM631 160V192C631 316 530 416 407 416H375V302L224 151C211 139 212 118 224 106L321 9C327 3 335 0 343 0S360 3 366 9L396 39L425 9C438 -3 458 -3 471 9L493 32C506 45 506 65 493 77L463 107L516 160H631ZM563 224H525C509 263 478 295 439 311V349C501 336 551 287 563 224Z"/></svg>