<svg xmlns="http://www.w3.org/2000/svg" viewBox="0 0 448 512"><!-- Font Awesome Pro 6.0.0-alpha1 by @fontawesome - https://fontawesome.com License - https://fontawesome.com/license (Commercial License) --><path d="M416 160H344V120C344 54 290 0 224 0S104 54 104 120V160H32C14 160 0 174 0 192V432C0 476 36 512 80 512H368C412 512 448 476 448 432V192C448 174 434 160 416 160ZM152 120C152 80 184 48 224 48S296 80 296 120V160H152V120ZM128 248C115 248 104 237 104 224S115 200 128 200S152 211 152 224S141 248 128 248ZM320 248C307 248 296 237 296 224S307 200 320 200S344 211 344 224S333 248 320 248Z"/></svg>