<svg xmlns="http://www.w3.org/2000/svg" viewBox="0 0 320 512"><!-- Font Awesome Pro 6.0.0-alpha1 by @fontawesome - https://fontawesome.com License - https://fontawesome.com/license (Commercial License) --><path d="M272 233C282 216 288 197 288 176C288 114 238 64 176 64V16C176 7 169 0 160 0H128C119 0 112 7 112 16V64H32C14 64 0 78 0 96V416C0 434 14 448 32 448H112V496C112 505 119 512 128 512H160C169 512 176 505 176 496V448H200C266 448 320 394 320 328C320 289 301 255 272 233ZM208 176C208 194 194 208 176 208V144C194 144 208 158 208 176ZM112 144V208H80V144H112ZM80 368V288H112V368H80ZM200 368H176V288H200C222 288 240 306 240 328S222 368 200 368Z"/></svg>