<svg xmlns="http://www.w3.org/2000/svg" viewBox="0 0 576 512"><!-- Font Awesome Pro 6.0.0-alpha1 by @fontawesome - https://fontawesome.com License - https://fontawesome.com/license (Commercial License) --><path d="M256 248C256 204 220 168 176 168S96 204 96 248S132 328 176 328S256 292 256 248ZM80 352C36 352 0 388 0 432S36 512 80 512S160 476 160 432S124 352 80 352ZM288 160C332 160 368 124 368 80S332 0 288 0S208 36 208 80S244 160 288 160ZM496 352C452 352 416 388 416 432S452 512 496 512S576 476 576 432S540 352 496 352ZM288 352C244 352 208 388 208 432S244 512 288 512S368 476 368 432S332 352 288 352ZM480 248C480 204 444 168 400 168S320 204 320 248S356 328 400 328S480 292 480 248Z"/></svg>