<svg xmlns="http://www.w3.org/2000/svg" viewBox="0 0 640 512"><!-- Font Awesome Pro 6.0.0-alpha1 by @fontawesome - https://fontawesome.com License - https://fontawesome.com/license (Commercial License) --><path d="M0 160V352C0 387 29 416 64 416H160V96H64C29 96 0 125 0 160ZM576 96H480V416H576C611 416 640 387 640 352V160C640 125 611 96 576 96ZM192 416H448V96H192V416ZM368 184C381 184 392 195 392 208S381 232 368 232S344 221 344 208S355 184 368 184ZM368 280C381 280 392 291 392 304S381 328 368 328S344 317 344 304S355 280 368 280ZM272 184C285 184 296 195 296 208S285 232 272 232S248 221 248 208S259 184 272 184ZM272 280C285 280 296 291 296 304S285 328 272 328S248 317 248 304S259 280 272 280Z"/></svg>