<svg xmlns="http://www.w3.org/2000/svg" viewBox="0 0 512 512"><!-- Font Awesome Pro 6.0.0-alpha1 by @fontawesome - https://fontawesome.com License - https://fontawesome.com/license (Commercial License) --><path d="M503 30L473 0C460 -13 440 -13 428 0L382 46C378 50 375 55 373 60L361 97L286 171C266 158 243 149 218 145V145C218 130 206 119 192 119C178 119 166 130 166 145V145C140 149 115 159 94 175L93 175C83 165 67 165 57 176C47 185 47 201 56 212L57 212C41 233 31 258 27 284H26C12 284 0 296 0 311C0 325 12 337 26 337H27C31 363 41 388 57 409L56 409C49 416 46 426 49 435C51 444 58 452 68 454C77 456 87 453 93 446L94 446C115 462 140 472 166 476V476C166 491 178 503 192 503S218 491 218 476V476C244 472 269 462 290 446L291 446C297 453 307 456 316 454C326 451 333 444 335 435C338 426 335 416 328 409L328 409C343 388 353 363 357 337H358C372 337 384 325 384 311C384 296 372 284 358 284H357C354 260 345 236 331 217L406 142L443 130C448 128 452 125 456 121L503 75C515 62 515 42 503 30ZM192 423C130 423 80 373 80 311S130 199 192 199S304 249 304 311C304 373 254 422 192 423ZM153 297C151 295 150 295 147 295C145 295 143 295 142 297L130 308C127 311 127 317 130 320L183 372C186 375 191 375 194 372L206 361C207 359 208 357 208 355C208 353 207 351 206 350L153 297Z"/></svg>