<svg xmlns="http://www.w3.org/2000/svg" viewBox="0 0 640 512"><!-- Font Awesome Pro 6.0.0-alpha1 by @fontawesome - https://fontawesome.com License - https://fontawesome.com/license (Commercial License) --><path d="M288 48C288 39 281 32 272 32H240C231 32 224 39 224 48V192H288V48ZM192 40C192 36 188 32 184 32H168C164 32 160 36 160 40V192H192V40ZM480 40C480 36 476 32 472 32H456C452 32 448 36 448 40V192H480V40ZM576 48C576 39 569 32 560 32H528C519 32 512 39 512 48V192H576V48ZM128 48C128 39 121 32 112 32H80C71 32 64 39 64 48V192H128V48ZM384 48C384 39 377 32 368 32H336C327 32 320 39 320 48V192H384V48ZM160 472C160 476 164 480 168 480H184C188 480 192 476 192 472V320H160V472ZM64 464C64 473 71 480 80 480H112C121 480 128 473 128 464V320H64V464ZM512 464C512 473 519 480 528 480H560C569 480 576 473 576 464V320H512V464ZM448 472C448 476 452 480 456 480H472C476 480 480 476 480 472V320H448V472ZM320 464C320 473 327 480 336 480H368C377 480 384 473 384 464V320H320V464ZM224 464C224 473 231 480 240 480H272C281 480 288 473 288 464V320H224V464ZM624 232H16C7 232 0 239 0 248V264C0 273 7 280 16 280H624C633 280 640 273 640 264V248C640 239 633 232 624 232Z"/></svg>