<svg xmlns="http://www.w3.org/2000/svg" viewBox="0 0 512 512"><!-- Font Awesome Pro 6.0.0-alpha1 by @fontawesome - https://fontawesome.com License - https://fontawesome.com/license (Commercial License) --><path d="M492 297C485 296 478 295 471 295C465 295 459 295 453 296C445 297 437 291 435 283C434 274 440 265 449 264C456 263 464 263 471 263C480 263 488 264 496 265C496 262 496 259 496 256C496 124 389 16 256 16C253 16 250 16 247 16C248 24 249 33 249 41C249 48 249 56 248 63C247 72 238 78 229 77C221 75 215 68 216 59C217 53 217 47 217 41C217 34 216 27 215 20C115 37 37 115 20 215C27 216 34 217 41 217C47 217 53 217 59 216C68 215 76 221 77 229C78 238 72 247 63 248C56 249 48 249 41 249C33 249 24 248 16 247C16 250 16 253 16 256C16 388 124 496 256 496C259 496 262 496 265 496C264 488 263 479 263 471C263 464 264 456 264 449C265 440 274 434 283 435C291 437 297 444 296 453C296 459 295 465 295 471C295 478 296 485 297 492C397 475 475 397 492 297ZM130 229C120 233 109 227 107 217L107 217C106 210 110 203 116 200C153 182 182 153 200 116C203 109 210 106 217 107L217 107C227 109 233 120 229 130C208 173 173 208 130 229ZM295 405L295 405C285 403 279 392 283 382C304 339 339 304 383 283C392 279 403 285 405 295L405 295C406 302 403 309 396 312C359 330 330 359 312 396C309 402 302 406 295 405Z"/></svg>