<svg xmlns="http://www.w3.org/2000/svg" viewBox="0 0 512 512"><!-- Font Awesome Pro 6.0.0-alpha1 by @fontawesome - https://fontawesome.com License - https://fontawesome.com/license (Commercial License) --><path d="M231 17C239 16 247 16 256 16C317 16 372 39 414 76L256 233L187 164C215 131 233 88 233 41C233 33 232 25 231 17ZM279 256L348 325C381 297 424 279 471 279C479 279 487 280 495 281C496 273 496 265 496 256C496 195 473 140 436 98L279 256ZM348 370C325 398 311 433 311 471C311 477 312 483 313 489C351 480 385 462 414 437L348 370ZM436 414C461 385 480 351 489 313C483 312 477 311 471 311C433 311 398 325 370 348L436 414ZM76 98C51 127 32 161 23 199C29 200 35 201 41 201C79 201 114 187 142 164L76 98ZM279 471C279 424 297 381 325 348L256 279L98 436C140 473 195 496 256 496C265 496 273 496 281 495C280 487 279 479 279 471ZM233 256L164 187C131 215 88 233 41 233C33 233 25 232 17 231C16 239 16 247 16 256C16 317 39 372 76 414L233 256ZM199 23C161 32 127 51 98 76L164 142C187 114 201 79 201 41C201 35 200 29 199 23Z"/></svg>