<svg xmlns="http://www.w3.org/2000/svg" viewBox="0 0 512 512"><!-- Font Awesome Pro 6.0.0-alpha1 by @fontawesome - https://fontawesome.com License - https://fontawesome.com/license (Commercial License) --><path d="M32 384C32 412 44 438 64 455V496C64 505 71 512 80 512H112C121 512 128 505 128 496V480H384V496C384 505 391 512 400 512H432C441 512 448 505 448 496V455C468 438 480 412 480 384V352H32V384ZM496 256H96V77C96 66 111 60 119 68L132 82C124 109 129 134 144 153L144 153C138 160 138 170 144 176L155 187C162 194 172 194 178 187L283 82C290 76 290 66 283 59L272 48C266 42 256 42 249 48L249 48C230 33 205 28 178 36L164 23C150 8 130 0 109 0C67 0 32 35 32 77V256H16C7 256 0 263 0 272V304C0 313 7 320 16 320H496C505 320 512 313 512 304V272C512 263 505 256 496 256Z"/></svg>