<svg xmlns="http://www.w3.org/2000/svg" viewBox="0 0 576 512"><!-- Font Awesome Pro 6.0.0-alpha1 by @fontawesome - https://fontawesome.com License - https://fontawesome.com/license (Commercial License) --><path d="M0 160V352C0 387 29 416 64 416H178C177 411 176 405 176 400C176 382 181 366 189 352H64V160H192V96H64C29 96 0 125 0 160ZM544 192V160C544 125 515 96 480 96H352V160H480V352H355C363 366 368 382 368 400C368 405 367 411 366 416H480C515 416 544 387 544 352V320C562 320 576 306 576 288V224C576 206 562 192 544 192ZM272 320C290 320 304 306 304 288V96C304 78 290 64 272 64S240 78 240 96V288C240 306 254 320 272 320ZM272 360C250 360 232 378 232 400C232 422 250 440 272 440S312 422 312 400C312 378 294 360 272 360Z"/></svg>