<svg xmlns="http://www.w3.org/2000/svg" viewBox="0 0 576 512"><!-- Font Awesome Pro 6.0.0-alpha1 by @fontawesome - https://fontawesome.com License - https://fontawesome.com/license (Commercial License) --><path d="M464 0H240C231 0 224 7 224 16V128H64V16C64 7 57 0 48 0H16C7 0 0 7 0 16V496C0 505 7 512 16 512H48C57 512 64 505 64 496V448H512V496C512 505 519 512 528 512H560C569 512 576 505 576 496V112C576 50 526 0 464 0ZM512 267C497 260 481 256 464 256H240C231 256 224 263 224 272V384H64V192H512V267ZM144 352C170 352 192 330 192 304S170 256 144 256S96 278 96 304S118 352 144 352ZM144 96C170 96 192 74 192 48S170 0 144 0S96 22 96 48S118 96 144 96Z"/></svg>