<svg xmlns="http://www.w3.org/2000/svg" viewBox="0 0 640 512"><!-- Font Awesome Pro 6.0.0-alpha1 by @fontawesome - https://fontawesome.com License - https://fontawesome.com/license (Commercial License) --><path d="M176 288C220 288 256 252 256 208S220 128 176 128S96 164 96 208S132 288 176 288ZM544 128H304C295 128 288 135 288 144V320H64V48C64 39 57 32 48 32H16C7 32 0 39 0 48V464C0 473 7 480 16 480H48C57 480 64 473 64 464V416H576V464C576 473 583 480 592 480H624C633 480 640 473 640 464V224C640 171 597 128 544 128Z"/></svg>