<svg xmlns="http://www.w3.org/2000/svg" viewBox="0 0 512 512"><!-- Font Awesome Pro 6.0.0-alpha1 by @fontawesome - https://fontawesome.com License - https://fontawesome.com/license (Commercial License) --><path d="M99 133C111 125 127 129 138 138C152 152 171 160 192 160S232 152 247 138C257 129 273 125 285 133C295 140 307 144 320 144C360 144 391 108 383 66C378 43 359 24 336 18C318 14 301 17 287 25C274 33 258 32 246 22C232 8 213 0 192 0S152 8 138 22C126 32 110 33 97 25C83 17 66 14 48 18C25 24 6 43 1 66C-7 108 24 144 64 144C77 144 89 140 99 133ZM416 160H372C357 170 339 176 320 176C302 176 284 171 269 161C269 161 269 162 268 162C248 181 220 192 192 192S136 181 116 162C115 162 115 161 115 161C100 171 82 176 64 176C47 176 30 171 16 163V448C16 483 45 512 80 512H304C339 512 368 483 368 448L449 412C477 399 496 371 496 339V240C496 196 460 160 416 160ZM144 432C144 441 137 448 128 448S112 441 112 432V240C112 231 119 224 128 224S144 231 144 240V432ZM208 432C208 441 201 448 192 448S176 441 176 432V240C176 231 183 224 192 224S208 231 208 240V432ZM272 432C272 441 265 448 256 448S240 441 240 432V240C240 231 247 224 256 224S272 231 272 240V432ZM432 339C432 345 428 351 423 354L368 378V224H416C425 224 432 231 432 240V339Z"/></svg>