<svg xmlns="http://www.w3.org/2000/svg" viewBox="0 0 640 512"><!-- Font Awesome Pro 6.0.0-alpha1 by @fontawesome - https://fontawesome.com License - https://fontawesome.com/license (Commercial License) --><path d="M464 464H416V423L400 410C363 434 319 448 272 448C218 448 168 430 128 399V480C128 498 142 512 160 512H464C482 512 498 507 512 498L468 463C467 464 465 464 464 464ZM374 389L72 153C67 170 64 189 64 208C64 323 157 416 272 416C309 416 343 406 374 389ZM631 469L570 422C574 415 576 408 576 400C576 374 555 352 528 352C516 352 505 357 497 364L444 323C467 290 480 251 480 208C480 93 387 0 272 0C211 0 157 26 119 68L39 5C28 -3 13 -1 5 9C-3 20 -1 35 9 43L601 507C612 515 627 513 635 503C643 492 641 477 631 469ZM343 244L317 223C319 218 320 213 320 208C320 182 299 160 272 160C262 160 254 163 246 168L220 147C234 135 252 128 272 128C316 128 352 164 352 208C352 221 349 233 343 244Z"/></svg>