<svg xmlns="http://www.w3.org/2000/svg" viewBox="0 0 640 512"><!-- Font Awesome Pro 6.0.0-alpha1 by @fontawesome - https://fontawesome.com License - https://fontawesome.com/license (Commercial License) --><path d="M112 192C112 179 101 168 88 168H24C11 168 0 179 0 192S11 216 24 216H88C101 216 112 205 112 192ZM52 65L107 97C114 101 124 101 131 97C139 93 143 85 143 76C143 67 139 59 131 55L76 23C68 19 59 19 51 23C44 27 39 35 39 44C39 53 44 61 52 65ZM521 100C525 100 529 99 533 97L588 65C600 58 603 43 597 32C590 21 576 17 564 23L509 55C499 61 495 72 498 82C501 93 510 100 521 100ZM320 512C355 512 384 483 384 448H256C256 483 285 512 320 512ZM616 168H552C539 168 528 179 528 192S539 216 552 216H616C629 216 640 205 640 192S629 168 616 168ZM480 208C480 130 426 68 352 53V32C352 14 338 0 320 0C302 0 288 14 288 32V53C214 68 160 130 160 208C160 310 124 342 105 362C99 368 96 376 96 384C96 400 109 416 128 416H512C531 416 544 400 544 384C544 376 541 368 535 362C516 342 480 310 480 208Z"/></svg>