<svg xmlns="http://www.w3.org/2000/svg" viewBox="0 0 640 512"><!-- Font Awesome Pro 6.0.0-alpha1 by @fontawesome - https://fontawesome.com License - https://fontawesome.com/license (Commercial License) --><path d="M242 254C214 177 247 93 316 54C307 49 298 44 288 40C219 15 142 51 117 120C117 122 103 160 102 162C73 242 36 257 15 267C-6 278 -5 308 18 316L261 405C269 386 280 359 257 297C248 270 251 279 242 254ZM138 444C166 454 196 444 212 421L97 379C94 407 110 434 138 444ZM502 476C529 466 546 439 543 411L428 453C444 476 474 486 502 476ZM626 299C605 289 567 274 538 194C537 192 523 154 523 152C498 83 421 47 352 72C283 97 247 174 272 243C273 245 287 283 288 286C317 366 297 400 288 422C279 443 299 466 322 458L622 348C643 341 647 311 626 299Z"/></svg>