<svg xmlns="http://www.w3.org/2000/svg" viewBox="0 0 448 512"><!-- Font Awesome Pro 6.0.0-alpha1 by @fontawesome - https://fontawesome.com License - https://fontawesome.com/license (Commercial License) --><path d="M224 512C259 512 288 483 288 448H160C160 483 189 512 224 512ZM439 362C420 342 384 310 384 208C384 130 330 68 256 53V32C256 14 242 0 224 0C206 0 192 14 192 32V53C118 68 64 130 64 208C64 310 28 342 9 362C3 368 0 376 0 384C0 400 13 416 32 416H416C435 416 448 400 448 384C448 376 445 368 439 362ZM224 352C206 352 192 338 192 320S206 288 224 288S256 302 256 320S242 352 224 352ZM249 242C249 250 242 256 234 256H214C206 256 199 250 199 242L186 146C185 141 187 137 190 133C193 130 197 128 202 128H246C251 128 255 130 258 133C261 137 263 141 262 146L249 242Z"/></svg>