<svg xmlns="http://www.w3.org/2000/svg" viewBox="0 0 512 512"><!-- Font Awesome Pro 6.0.0-alpha1 by @fontawesome - https://fontawesome.com License - https://fontawesome.com/license (Commercial License) --><path d="M96 227V160H16L0 256H67C72 242 82 232 96 227ZM157 288C150 307 132 320 112 320S74 307 67 288H16L0 384H512L496 288H157ZM16 416L0 512H512L496 416H16ZM512 48V16C512 7 505 0 496 0H16C7 0 0 7 0 16V48C0 55 4 61 11 63L0 128H96V64H128V128H512L501 63C508 61 512 55 512 48ZM128 160V227C142 232 152 242 157 256H512L496 160H128Z"/></svg>