<svg xmlns="http://www.w3.org/2000/svg" viewBox="0 0 576 512"><!-- Font Awesome Pro 6.0.0-alpha1 by @fontawesome - https://fontawesome.com License - https://fontawesome.com/license (Commercial License) --><path d="M535 267C560 280 576 306 576 334V338C576 374 553 407 518 414C480 423 443 401 431 365C431 365 431 365 431 365C425 348 410 336 392 336H184C167 336 151 348 145 365C145 365 145 365 145 365C133 401 96 423 58 414C23 407 0 374 0 338V334C0 306 16 280 41 267C50 263 50 249 41 244C16 232 0 206 0 178V174C0 138 23 105 58 98C96 89 133 111 145 147L145 147C151 164 166 176 184 176H392C409 176 425 164 431 147L431 147C443 111 480 89 518 98C553 105 576 138 576 174V178C576 206 560 232 535 244C526 249 526 263 535 267Z"/></svg>