<svg xmlns="http://www.w3.org/2000/svg" viewBox="0 0 512 512"><!-- Font Awesome Pro 6.0.0-alpha1 by @fontawesome - https://fontawesome.com License - https://fontawesome.com/license (Commercial License) --><path d="M334 512C358 512 379 499 390 479C407 451 416 419 416 384C416 348 406 314 389 285L432 242L441 251C448 258 458 258 464 251L475 240C482 234 482 224 475 217L423 165C416 158 406 158 400 165L389 176C382 182 382 192 389 199L398 208L359 247C347 236 334 226 320 218V64H336C345 64 352 56 352 48V16C352 7 345 0 336 0L112 0C103 0 96 7 96 16V48C96 57 103 64 112 64H128V218C71 251 32 313 32 384C32 419 41 451 58 479C69 499 90 512 114 512H334ZM152 259L176 246V64L272 64V246L296 259C321 274 340 295 353 320H95C108 295 127 274 152 259Z"/></svg>