<svg xmlns="http://www.w3.org/2000/svg" viewBox="0 0 576 512"><!-- Font Awesome Pro 6.0.0-alpha1 by @fontawesome - https://fontawesome.com License - https://fontawesome.com/license (Commercial License) --><path d="M144 32C107 31 64 41 19 61C7 66 0 78 0 90L0 448C0 460 12 468 22 463C149 404 242 474 246 477C249 479 253 480 256 480C268 480 272 469 272 464V80C272 75 269 70 265 67C263 66 217 33 144 32ZM557 61C512 42 469 32 432 32C359 33 313 66 311 67C307 70 304 75 304 80V464C304 468 308 480 320 480C323 480 327 479 330 477C334 474 427 404 554 463C564 468 576 460 576 448L576 90C576 78 569 66 557 61Z"/></svg>