<svg xmlns="http://www.w3.org/2000/svg" viewBox="0 0 448 512"><!-- Font Awesome Pro 6.0.0-alpha1 by @fontawesome - https://fontawesome.com License - https://fontawesome.com/license (Commercial License) --><path d="M448 360V24C448 11 437 0 424 0H96C43 0 0 43 0 96V416C0 469 43 512 96 512H424C437 512 448 501 448 488V472C448 462 441 453 432 450V382C441 379 448 370 448 360ZM128 144C128 135 135 128 144 128H336C345 128 352 135 352 144V144C352 153 345 160 336 160H144C135 160 128 153 128 144L128 144ZM128 208C128 199 135 192 144 192H336C345 192 352 199 352 208V208C352 217 345 224 336 224H144C135 224 128 217 128 208L128 208ZM64 416C64 398 78 384 96 384H384V448H96C78 448 64 434 64 416Z"/></svg>