<svg xmlns="http://www.w3.org/2000/svg" viewBox="0 0 448 512"><!-- Font Awesome Pro 6.0.0-alpha1 by @fontawesome - https://fontawesome.com License - https://fontawesome.com/license (Commercial License) --><path d="M448 360V24C448 11 437 0 424 0H96C43 0 0 43 0 96V416C0 469 43 512 96 512H424C437 512 448 501 448 488V472C448 462 441 453 432 450V382C441 379 448 370 448 360ZM240 64C275 64 304 93 304 128S275 192 240 192C205 192 176 163 176 128S205 64 240 64ZM208 224H272C316 224 352 260 352 304C352 313 345 320 336 320H144C135 320 128 313 128 304C128 260 164 224 208 224ZM384 448H96C78 448 64 434 64 416C64 398 78 384 96 384H384V448Z"/></svg>