<svg xmlns="http://www.w3.org/2000/svg" viewBox="0 0 448 512"><!-- Font Awesome Pro 6.0.0-alpha1 by @fontawesome - https://fontawesome.com License - https://fontawesome.com/license (Commercial License) --><path d="M208 297L225 269H191L208 297ZM302 139H267L285 169L302 139ZM114 245H149L131 215L114 245ZM267 245H302L285 215L267 245ZM208 87L191 115H225L208 87ZM149 139H114L131 169L149 139ZM352 0H24C11 0 0 11 0 24V360C0 370 7 379 16 382V450C7 453 0 462 0 472V488C0 501 11 512 24 512H352C405 512 448 469 448 416V96C448 43 405 0 352 0ZM89 126C93 119 100 115 107 116H163L191 69C194 63 201 59 208 59S222 63 225 69L253 115H309C316 115 323 119 326 126C330 132 330 139 326 146L299 192L326 238C330 244 330 252 327 258C323 265 316 269 309 269H253L225 315C222 321 215 324 208 324C201 324 194 321 191 315L163 269H107C100 269 93 265 90 258C86 252 86 245 90 238L117 192L90 146C86 139 86 132 89 126ZM352 448H64V384H352C370 384 384 398 384 416C384 434 370 448 352 448ZM177 245H239L271 192L239 139H177L145 192L177 245Z"/></svg>