<svg xmlns="http://www.w3.org/2000/svg" viewBox="0 0 512 512"><!-- Font Awesome Pro 6.0.0-alpha1 by @fontawesome - https://fontawesome.com License - https://fontawesome.com/license (Commercial License) --><path d="M0 32V496C0 505 7 512 16 512H48C57 512 64 505 64 496V64H96V0H32C14 0 0 14 0 32ZM480 0H448V496C448 505 455 512 464 512H496C505 512 512 505 512 496V32C512 14 498 0 480 0ZM128 397C128 422 146 446 172 448C198 450 220 431 224 406C228 430 248 448 272 448S316 430 320 406C324 431 345 450 371 448C397 446 416 422 416 396L416 0H128L128 397Z"/></svg>