<svg xmlns="http://www.w3.org/2000/svg" viewBox="0 0 448 512"><!-- Font Awesome Pro 6.0.0-alpha1 by @fontawesome - https://fontawesome.com License - https://fontawesome.com/license (Commercial License) --><path d="M48 416H16C7 416 0 423 0 432V464C0 473 7 480 16 480H48C57 480 64 473 64 464V432C64 423 57 416 48 416ZM16 192H48C57 192 64 185 64 176V144C64 135 57 128 48 128H16C7 128 0 135 0 144V176C0 185 7 192 16 192ZM304 96H336C345 96 352 89 352 80V48C352 39 345 32 336 32H304C295 32 288 39 288 48V80C288 89 295 96 304 96ZM48 320H16C7 320 0 327 0 336V368C0 377 7 384 16 384H48C57 384 64 377 64 368V336C64 327 57 320 48 320ZM112 96H144C153 96 160 89 160 80V48C160 39 153 32 144 32H112C103 32 96 39 96 48V80C96 89 103 96 112 96ZM16 96H48C57 96 64 89 64 80V48C64 39 57 32 48 32H16C7 32 0 39 0 48V80C0 89 7 96 16 96ZM336 416H304C295 416 288 423 288 432V464C288 473 295 480 304 480H336C345 480 352 473 352 464V432C352 423 345 416 336 416ZM432 128H400C391 128 384 135 384 144V176C384 185 391 192 400 192H432C441 192 448 185 448 176V144C448 135 441 128 432 128ZM432 32H400C391 32 384 39 384 48V80C384 89 391 96 400 96H432C441 96 448 89 448 80V48C448 39 441 32 432 32ZM432 224H256V48C256 39 249 32 240 32H208C199 32 192 39 192 48V224H16C7 224 0 231 0 240V272C0 281 7 288 16 288H192V464C192 473 199 480 208 480H240C249 480 256 473 256 464V288H432C441 288 448 281 448 272V240C448 231 441 224 432 224ZM144 416H112C103 416 96 423 96 432V464C96 473 103 480 112 480H144C153 480 160 473 160 464V432C160 423 153 416 144 416ZM432 320H400C391 320 384 327 384 336V368C384 377 391 384 400 384H432C441 384 448 377 448 368V336C448 327 441 320 432 320ZM432 416H400C391 416 384 423 384 432V464C384 473 391 480 400 480H432C441 480 448 473 448 464V432C448 423 441 416 432 416Z"/></svg>