<svg xmlns="http://www.w3.org/2000/svg" viewBox="0 0 448 512"><!-- Font Awesome Pro 6.0.0-alpha1 by @fontawesome - https://fontawesome.com License - https://fontawesome.com/license (Commercial License) --><path d="M240 416H208C199 416 192 423 192 432V464C192 473 199 480 208 480H240C249 480 256 473 256 464V432C256 423 249 416 240 416ZM144 416H112C103 416 96 423 96 432V464C96 473 103 480 112 480H144C153 480 160 473 160 464V432C160 423 153 416 144 416ZM336 416H304C295 416 288 423 288 432V464C288 473 295 480 304 480H336C345 480 352 473 352 464V432C352 423 345 416 336 416ZM432 224H400C391 224 384 231 384 240V272C384 281 391 288 400 288H432C441 288 448 281 448 272V240C448 231 441 224 432 224ZM432 320H400C391 320 384 327 384 336V368C384 377 391 384 400 384H432C441 384 448 377 448 368V336C448 327 441 320 432 320ZM432 416H400C391 416 384 423 384 432V464C384 473 391 480 400 480H432C441 480 448 473 448 464V432C448 423 441 416 432 416ZM432 128H400C391 128 384 135 384 144V176C384 185 391 192 400 192H432C441 192 448 185 448 176V144C448 135 441 128 432 128ZM432 32H64C29 32 0 61 0 96V464C0 473 7 480 16 480H48C57 480 64 473 64 464V96H432C441 96 448 89 448 80V48C448 39 441 32 432 32Z"/></svg>