<svg xmlns="http://www.w3.org/2000/svg" viewBox="0 0 448 512"><!-- Font Awesome Pro 6.0.0-alpha1 by @fontawesome - https://fontawesome.com License - https://fontawesome.com/license (Commercial License) --><path d="M240 224H208C199 224 192 231 192 240V272C192 281 199 288 208 288H240C249 288 256 281 256 272V240C256 231 249 224 240 224ZM336 224H304C295 224 288 231 288 240V272C288 281 295 288 304 288H336C345 288 352 281 352 272V240C352 231 345 224 336 224ZM144 224H112C103 224 96 231 96 240V272C96 281 103 288 112 288H144C153 288 160 281 160 272V240C160 231 153 224 144 224ZM240 416H208C199 416 192 423 192 432V464C192 473 199 480 208 480H240C249 480 256 473 256 464V432C256 423 249 416 240 416ZM336 416H304C295 416 288 423 288 432V464C288 473 295 480 304 480H336C345 480 352 473 352 464V432C352 423 345 416 336 416ZM240 320H208C199 320 192 327 192 336V368C192 377 199 384 208 384H240C249 384 256 377 256 368V336C256 327 249 320 240 320ZM240 128H208C199 128 192 135 192 144V176C192 185 199 192 208 192H240C249 192 256 185 256 176V144C256 135 249 128 240 128ZM144 416H112C103 416 96 423 96 432V464C96 473 103 480 112 480H144C153 480 160 473 160 464V432C160 423 153 416 144 416ZM240 32H208C199 32 192 39 192 48V80C192 89 199 96 208 96H240C249 96 256 89 256 80V48C256 39 249 32 240 32ZM336 32H304C295 32 288 39 288 48V80C288 89 295 96 304 96H336C345 96 352 89 352 80V48C352 39 345 32 336 32ZM48 224H16C7 224 0 231 0 240V272C0 281 7 288 16 288H48C57 288 64 281 64 272V240C64 231 57 224 48 224ZM48 416H16C7 416 0 423 0 432V464C0 473 7 480 16 480H48C57 480 64 473 64 464V432C64 423 57 416 48 416ZM48 320H16C7 320 0 327 0 336V368C0 377 7 384 16 384H48C57 384 64 377 64 368V336C64 327 57 320 48 320ZM48 128H16C7 128 0 135 0 144V176C0 185 7 192 16 192H48C57 192 64 185 64 176V144C64 135 57 128 48 128ZM48 32H16C7 32 0 39 0 48V80C0 89 7 96 16 96H48C57 96 64 89 64 80V48C64 39 57 32 48 32ZM144 32H112C103 32 96 39 96 48V80C96 89 103 96 112 96H144C153 96 160 89 160 80V48C160 39 153 32 144 32ZM432 32H400C391 32 384 39 384 48V464C384 473 391 480 400 480H432C441 480 448 473 448 464V48C448 39 441 32 432 32Z"/></svg>