<svg xmlns="http://www.w3.org/2000/svg" viewBox="0 0 512 512"><!-- Font Awesome Pro 6.0.0-alpha1 by @fontawesome - https://fontawesome.com License - https://fontawesome.com/license (Commercial License) --><path d="M256 16C123 16 16 123 16 256S123 496 256 496S496 389 496 256S389 16 256 16ZM144 208C126 208 112 194 112 176S126 144 144 144S176 158 176 176S162 208 144 208ZM240 80C258 80 272 94 272 112S258 144 240 144S208 130 208 112S222 80 240 80ZM240 240C222 240 208 226 208 208S222 176 240 176S272 190 272 208S258 240 240 240Z"/></svg>