<svg xmlns="http://www.w3.org/2000/svg" viewBox="0 0 640 512"><!-- Font Awesome Pro 6.0.0-alpha1 by @fontawesome - https://fontawesome.com License - https://fontawesome.com/license (Commercial License) --><path d="M194 144C193 139 192 133 192 128C192 93 221 64 256 64S320 93 320 128C320 139 317 150 312 159L320 160L475 140L511 42C514 33 510 24 501 21L446 1C438 -2 428 2 425 11L384 125C382 56 326 0 256 0C185 0 128 57 128 128C128 130 129 133 129 135L194 144ZM638 272L587 169C584 163 577 159 570 160L320 192L412 344C416 350 423 353 430 351L628 295C638 292 643 281 638 272ZM228 344L320 192L70 160C63 159 56 163 53 169L2 272C-3 281 2 292 12 295L210 351C217 353 224 350 228 344ZM426 385C409 385 393 376 384 362L320 256L256 362C247 376 231 385 214 385C210 385 205 385 201 384L64 345V426C64 440 74 453 88 456L304 510C315 513 325 513 335 510L552 456C566 453 576 440 576 426V345L439 383C435 385 430 385 426 385Z"/></svg>