<svg xmlns="http://www.w3.org/2000/svg" viewBox="0 0 640 512"><!-- Font Awesome Pro 6.0.0-alpha1 by @fontawesome - https://fontawesome.com License - https://fontawesome.com/license (Commercial License) --><path d="M228 216L320 64L70 32C63 31 56 35 53 41L2 144C-3 153 2 164 12 167L210 223C217 225 224 222 228 216ZM638 144L587 41C584 35 577 31 570 32L320 64L412 216C416 222 423 225 430 223L628 167C638 164 643 153 638 144ZM426 257C409 257 393 248 384 234L320 128L256 234C247 248 231 257 214 257C210 257 205 257 201 256L64 217V394C64 408 74 421 88 424L304 478C315 481 325 481 335 478L552 424C566 421 576 408 576 394V217L439 255C435 257 430 257 426 257Z"/></svg>