<svg xmlns="http://www.w3.org/2000/svg" viewBox="0 0 512 512"><!-- Font Awesome Pro 6.0.0-alpha1 by @fontawesome - https://fontawesome.com License - https://fontawesome.com/license (Commercial License) --><path d="M384 288L448 96H339C308 96 282 77 272 48C262 19 236 0 205 0H64L128 288H384ZM0 480C0 498 14 512 32 512H480C498 512 512 498 512 480V416H0V480ZM480 224H439L418 288H432C441 288 448 295 448 304S441 320 432 320H80C71 320 64 313 64 304S71 288 80 288H95L81 224H32C14 224 0 238 0 256V384H512V256C512 238 498 224 480 224Z"/></svg>