<svg xmlns="http://www.w3.org/2000/svg" viewBox="0 0 576 512"><!-- Font Awesome Pro 6.0.0-alpha1 by @fontawesome - https://fontawesome.com License - https://fontawesome.com/license (Commercial License) --><path d="M183 32H151C98 32 55 75 55 128V166C55 174 51 182 45 188L0 233C-12 246 -12 266 0 279L45 324C51 330 55 338 55 346V384C55 437 98 480 151 480H183C200 480 215 466 215 448V448C215 430 200 416 183 416H151C133 416 119 402 119 384V346C119 321 109 297 91 279L68 256L90 233C109 215 119 191 119 165V128C119 110 133 96 151 96H183C200 96 215 82 215 64V64C215 46 200 32 183 32ZM557 233L512 188C506 182 503 174 503 166V128C503 75 460 32 407 32H375C357 32 343 46 343 64V64C343 82 357 96 375 96H407C424 96 439 110 439 128V166C439 191 449 215 467 233L489 256L467 279C449 297 439 321 439 346V384C439 402 424 416 407 416H375C357 416 343 430 343 448V448C343 466 357 480 375 480H407C460 480 503 437 503 384V346C503 338 506 330 512 324L557 279C570 266 570 246 557 233Z"/></svg>