<svg xmlns="http://www.w3.org/2000/svg" viewBox="0 0 512 512"><!-- Font Awesome Pro 6.0.0-alpha1 by @fontawesome - https://fontawesome.com License - https://fontawesome.com/license (Commercial License) --><path d="M184 0C155 0 132 22 129 50C101 57 80 82 80 112C80 118 81 124 83 130C54 136 32 161 32 192C32 207 37 221 46 232C19 245 0 272 0 304C0 338 22 367 52 379C50 385 48 392 48 400C48 435 77 464 112 464C118 464 123 463 129 462C131 490 155 512 184 512C215 512 240 487 240 456V56C240 25 215 0 184 0ZM512 304C512 272 493 245 466 232C475 221 480 207 480 192C480 161 458 136 429 130C431 124 432 118 432 112C432 82 411 57 383 50C380 22 357 0 328 0C297 0 272 25 272 56V456C272 487 297 512 328 512C357 512 381 490 383 462C389 463 394 464 400 464C435 464 464 435 464 400C464 392 462 385 460 379C490 367 512 338 512 304Z"/></svg>