<svg xmlns="http://www.w3.org/2000/svg" viewBox="0 0 640 512"><!-- Font Awesome Pro 6.0.0-alpha1 by @fontawesome - https://fontawesome.com License - https://fontawesome.com/license (Commercial License) --><path d="M480 192C480 104 373 32 240 32S0 104 0 192C0 227 31 256 64 256V448C64 466 78 480 96 480H384C402 480 416 466 416 448V256C449 256 480 227 480 192ZM400 32C398 32 395 32 393 32C465 66 512 125 512 192C512 235 485 271 448 283V448C448 459 445 470 439 480H544C562 480 576 466 576 448V256H580C613 256 640 227 640 192C640 104 533 32 400 32Z"/></svg>