<svg xmlns="http://www.w3.org/2000/svg" viewBox="0 0 512 512"><!-- Font Awesome Pro 6.0.0-alpha1 by @fontawesome - https://fontawesome.com License - https://fontawesome.com/license (Commercial License) --><path d="M464 96H384V48C384 22 362 0 336 0H176C150 0 128 22 128 48V96H48C22 96 0 118 0 144V432C0 458 22 480 48 480H464C490 480 512 458 512 432V144C512 118 490 96 464 96ZM176 48H336V96H176V48ZM368 314C368 323 361 330 352 330H298V384C298 393 291 400 282 400H230C221 400 214 393 214 384V330H160C151 330 144 323 144 314V262C144 253 151 246 160 246H214V192C214 183 221 176 230 176H282C291 176 298 183 298 192V246H352C361 246 368 253 368 262V314Z"/></svg>