<svg xmlns="http://www.w3.org/2000/svg" viewBox="0 0 640 512"><!-- Font Awesome Pro 6.0.0-alpha1 by @fontawesome - https://fontawesome.com License - https://fontawesome.com/license (Commercial License) --><path d="M64 176V80C64 71 71 64 80 64H256V48C256 22 234 0 208 0H48C22 0 0 22 0 48V208C0 234 22 256 48 256H128V192H80C71 192 64 185 64 176ZM480 352V160C480 125 451 96 416 96H224C189 96 160 125 160 160V352C160 387 189 416 224 416H416C451 416 480 387 480 352ZM592 256H512V320H560C569 320 576 327 576 336V432C576 441 569 448 560 448H384V464C384 490 406 512 432 512H592C618 512 640 490 640 464V304C640 278 618 256 592 256Z"/></svg>