<svg xmlns="http://www.w3.org/2000/svg" viewBox="0 0 512 512"><!-- Font Awesome Pro 6.0.0-alpha1 by @fontawesome - https://fontawesome.com License - https://fontawesome.com/license (Commercial License) --><path d="M352 288V64C352 29 323 0 288 0H64C29 0 0 29 0 64V288C0 323 29 352 64 352H288C323 352 352 323 352 288ZM448 160H384V224H432C441 224 448 231 448 240V432C448 441 441 448 432 448H240C231 448 224 441 224 432V384H160V448C160 483 189 512 224 512H448C483 512 512 483 512 448V224C512 189 483 160 448 160Z"/></svg>