<svg xmlns="http://www.w3.org/2000/svg" viewBox="0 0 448 512"><!-- Font Awesome Pro 6.0.0-alpha1 by @fontawesome - https://fontawesome.com License - https://fontawesome.com/license (Commercial License) --><path d="M432 464H416V24C416 11 405 0 392 0H56C43 0 32 11 32 24V464H16C7 464 0 471 0 480V496C0 505 7 512 16 512H192V400C192 391 199 384 208 384H240C249 384 256 391 256 400V512H432C441 512 448 505 448 496V480C448 471 441 464 432 464ZM192 304C192 313 185 320 176 320H144C135 320 128 313 128 304V272C128 263 135 256 144 256H176C185 256 192 263 192 272V304ZM192 208C192 217 185 224 176 224H144C135 224 128 217 128 208V176C128 167 135 160 144 160H176C185 160 192 167 192 176V208ZM192 112C192 121 185 128 176 128H144C135 128 128 121 128 112V80C128 71 135 64 144 64H176C185 64 192 71 192 80V112ZM320 304C320 313 313 320 304 320H272C263 320 256 313 256 304V272C256 263 263 256 272 256H304C313 256 320 263 320 272V304ZM320 208C320 217 313 224 304 224H272C263 224 256 217 256 208V176C256 167 263 160 272 160H304C313 160 320 167 320 176V208ZM320 112C320 121 313 128 304 128H272C263 128 256 121 256 112V80C256 71 263 64 272 64H304C313 64 320 71 320 80V112Z"/></svg>