<svg xmlns="http://www.w3.org/2000/svg" viewBox="0 0 512 512"><!-- Font Awesome Pro 6.0.0-alpha1 by @fontawesome - https://fontawesome.com License - https://fontawesome.com/license (Commercial License) --><path d="M291 310L270 383C334 376 384 322 384 256C384 185 327 128 256 128C190 128 136 178 129 242L202 221C214 204 234 192 256 192C291 192 320 221 320 256C320 278 308 298 291 310ZM267 245C263 241 257 239 252 241L28 305C21 306 16 312 16 319C16 326 19 332 26 335L100 367L5 462C-2 468 -2 478 5 485L27 507C34 514 44 514 50 507L145 412L177 486C180 492 186 496 192 496C192 496 193 496 193 496C200 496 206 491 207 484L271 260C273 255 271 249 267 245ZM256 16C123 16 16 123 16 256C16 262 16 269 17 275C18 274 18 274 19 274L80 256C80 256 80 256 80 256C80 159 159 80 256 80S432 159 432 256S353 432 256 432C256 432 256 432 256 432L238 493C238 494 238 494 237 495C243 496 250 496 256 496C389 496 496 389 496 256S389 16 256 16Z"/></svg>