<svg xmlns="http://www.w3.org/2000/svg" viewBox="0 0 448 512"><!-- Font Awesome Pro 6.0.0-alpha1 by @fontawesome - https://fontawesome.com License - https://fontawesome.com/license (Commercial License) --><path d="M0 464C0 490 22 512 48 512H400C426 512 448 490 448 464V272H0V464ZM128 368C128 359 135 352 144 352H304C313 352 320 359 320 368V408C320 412 316 416 312 416H296C292 416 288 412 288 408V384H160V408C160 412 156 416 152 416H136C132 416 128 412 128 408V368ZM400 0H48C22 0 0 22 0 48V240H448V48C448 22 426 0 400 0ZM320 152C320 156 316 160 312 160H296C292 160 288 156 288 152V128H160V152C160 156 156 160 152 160H136C132 160 128 156 128 152V112C128 103 135 96 144 96H304C313 96 320 103 320 112V152Z"/></svg>