<svg xmlns="http://www.w3.org/2000/svg" viewBox="0 0 512 512"><!-- Font Awesome Pro 6.0.0-alpha1 by @fontawesome - https://fontawesome.com License - https://fontawesome.com/license (Commercial License) --><path d="M192 96C210 96 224 82 224 64S210 32 192 32S160 46 160 64S174 96 192 96ZM288 64C306 64 320 50 320 32S306 0 288 0S256 14 256 32S270 64 288 64ZM511 52C509 43 500 38 492 41L12 169C3 171 -2 180 1 188C2 195 9 200 16 200C17 200 19 200 20 199L240 141V224H96C61 224 32 253 32 288V448C32 483 61 512 96 512H416C451 512 480 483 480 448V288C480 253 451 224 416 224H272V132L500 72C509 69 514 60 511 52ZM176 384H80V288H176V384ZM336 288H432V384H336V288ZM304 288V384H208V288H304Z"/></svg>