<svg xmlns="http://www.w3.org/2000/svg" viewBox="0 0 512 512"><!-- Font Awesome Pro 6.0.0-alpha1 by @fontawesome - https://fontawesome.com License - https://fontawesome.com/license (Commercial License) --><path d="M192 288H32C14 288 0 302 0 320V480C0 498 14 512 32 512H192C210 512 224 498 224 480V320C224 302 210 288 192 288ZM157 423C163 429 163 439 157 445C151 451 141 451 135 445L112 423L89 445C83 451 73 451 67 445C61 439 61 429 67 423L89 400L67 377C61 371 61 361 67 355C73 349 83 349 89 355L112 377L135 355C141 349 151 349 157 355C163 361 163 371 157 377L135 400L157 423ZM480 288H320C302 288 288 302 288 320V480C288 498 302 512 320 512H480C498 512 512 498 512 480V320C512 302 498 288 480 288ZM464 432C464 441 457 448 448 448H352C343 448 336 441 336 432V432C336 423 343 416 352 416H448C457 416 464 423 464 432V432ZM464 368C464 377 457 384 448 384H352C343 384 336 377 336 368V368C336 359 343 352 352 352H448C457 352 464 359 464 368V368ZM480 0H320C302 0 288 14 288 32V192C288 210 302 224 320 224H480C498 224 512 210 512 192V32C512 14 498 0 480 0ZM464 112C464 121 457 128 448 128H416V160C416 169 409 176 400 176H400C391 176 384 169 384 160V128H352C343 128 336 121 336 112V112C336 103 343 96 352 96H384V64C384 55 391 48 400 48H400C409 48 416 55 416 64V96H448C457 96 464 103 464 112V112ZM192 0H32C14 0 0 14 0 32V192C0 210 14 224 32 224H192C210 224 224 210 224 192V32C224 14 210 0 192 0ZM176 112C176 121 169 128 160 128H64C55 128 48 121 48 112V112C48 103 55 96 64 96H160C169 96 176 103 176 112V112Z"/></svg>