<svg xmlns="http://www.w3.org/2000/svg" viewBox="0 0 384 512"><!-- Font Awesome Pro 6.0.0-alpha1 by @fontawesome - https://fontawesome.com License - https://fontawesome.com/license (Commercial License) --><path d="M336 0H48C22 0 0 22 0 48V464C0 490 22 512 48 512H336C362 512 384 490 384 464V48C384 22 362 0 336 0ZM64 208C64 199 71 192 80 192H112C121 192 128 199 128 208V240C128 249 121 256 112 256H80C71 256 64 249 64 240V208ZM64 304C64 295 71 288 80 288H112C121 288 128 295 128 304V336C128 345 121 352 112 352H80C71 352 64 345 64 336V304ZM224 432C224 441 217 448 208 448H80C71 448 64 441 64 432V400C64 391 71 384 80 384H208C217 384 224 391 224 400V432ZM224 336C224 345 217 352 208 352H176C167 352 160 345 160 336V304C160 295 167 288 176 288H208C217 288 224 295 224 304V336ZM224 240C224 249 217 256 208 256H176C167 256 160 249 160 240V208C160 199 167 192 176 192H208C217 192 224 199 224 208V240ZM320 432C320 441 313 448 304 448H272C263 448 256 441 256 432V400C256 391 263 384 272 384H304C313 384 320 391 320 400V432ZM320 336C320 345 313 352 304 352H272C263 352 256 345 256 336V304C256 295 263 288 272 288H304C313 288 320 295 320 304V336ZM320 240C320 249 313 256 304 256H272C263 256 256 249 256 240V208C256 199 263 192 272 192H304C313 192 320 199 320 208V240ZM320 144C320 153 313 160 304 160H80C71 160 64 153 64 144V80C64 71 71 64 80 64H304C313 64 320 71 320 80V144Z"/></svg>