<svg xmlns="http://www.w3.org/2000/svg" viewBox="0 0 448 512"><!-- Font Awesome Pro 6.0.0-alpha1 by @fontawesome - https://fontawesome.com License - https://fontawesome.com/license (Commercial License) --><path d="M0 464C0 490 22 512 48 512H400C426 512 448 490 448 464V192H0V464ZM134 304L189 296L213 247C218 238 230 238 235 247L259 296L314 304C324 306 328 318 321 325L281 363L290 418C292 428 282 435 273 431L224 405L175 431C166 435 156 428 158 418L167 363L128 325C120 318 124 306 134 304ZM400 64H352V16C352 7 345 0 336 0H304C295 0 288 7 288 16V64H160V16C160 7 153 0 144 0H112C103 0 96 7 96 16V64H48C22 64 0 86 0 112V160H448V112C448 86 426 64 400 64Z"/></svg>