<svg xmlns="http://www.w3.org/2000/svg" viewBox="0 0 576 512"><!-- Font Awesome Pro 6.0.0-alpha1 by @fontawesome - https://fontawesome.com License - https://fontawesome.com/license (Commercial License) --><path d="M448 112C448 86 426 64 400 64H352V16C352 7 345 0 336 0H304C295 0 288 7 288 16V64H160V16C160 7 153 0 144 0H112C103 0 96 7 96 16V64H48C22 64 0 86 0 112V160H448V112ZM432 224C352 224 288 288 288 368S352 512 432 512S576 448 576 368S512 224 432 224ZM480 384H426C420 384 416 380 416 374V304C416 295 423 288 432 288C441 288 448 295 448 304V352H480C489 352 496 359 496 368C496 377 489 384 480 384ZM256 368C256 271 335 192 432 192H0V464C0 490 22 512 48 512H331C286 480 256 428 256 368Z"/></svg>