<svg xmlns="http://www.w3.org/2000/svg" viewBox="0 0 448 512"><!-- Font Awesome Pro 6.0.0-alpha1 by @fontawesome - https://fontawesome.com License - https://fontawesome.com/license (Commercial License) --><path d="M448 112V160H0V112C0 86 22 64 48 64H96V16C96 7 103 0 112 0H144C153 0 160 7 160 16V64H288V16C288 7 295 0 304 0H336C345 0 352 7 352 16V64H400C426 64 448 86 448 112ZM0 192H448V464C448 490 426 512 400 512H48C22 512 0 490 0 464V192ZM127 361C136 370 152 370 161 361L200 322V424C200 437 211 448 224 448S248 437 248 424V322L287 361C292 366 298 368 304 368S316 366 321 361C330 352 330 336 321 327L241 247C232 238 216 238 207 247L127 327C118 336 118 352 127 361Z"/></svg>