<svg xmlns="http://www.w3.org/2000/svg" viewBox="0 0 448 512"><!-- Font Awesome Pro 6.0.0-alpha1 by @fontawesome - https://fontawesome.com License - https://fontawesome.com/license (Commercial License) --><path d="M0 464C0 490 22 512 48 512H400C426 512 448 490 448 464V192H0V464ZM156 318C147 309 147 293 156 284S181 275 190 284L224 318L258 284C267 275 283 275 292 284S301 309 292 318L258 352L292 386C301 395 301 411 292 420C283 429 267 429 258 420L224 386L190 420C181 429 165 429 156 420C147 411 147 395 156 386L190 352L156 318ZM448 112V160H0V112C0 86 22 64 48 64H96V16C96 7 103 0 112 0H144C153 0 160 7 160 16V64H288V16C288 7 295 0 304 0H336C345 0 352 7 352 16V64H400C426 64 448 86 448 112Z"/></svg>