<svg xmlns="http://www.w3.org/2000/svg" viewBox="0 0 448 512"><!-- Font Awesome Pro 6.0.0-alpha1 by @fontawesome - https://fontawesome.com License - https://fontawesome.com/license (Commercial License) --><path d="M448 112V160H0V112C0 86 22 64 48 64H96V16C96 7 103 0 112 0H144C153 0 160 7 160 16V64H288V16C288 7 295 0 304 0H336C345 0 352 7 352 16V64H400C426 64 448 86 448 112ZM0 192H448V464C448 490 426 512 400 512H48C22 512 0 490 0 464V192ZM135 377L183 425C188 429 194 432 200 432C200 432 201 432 201 432C208 432 214 429 218 424L314 312C323 302 322 286 312 278C302 269 286 270 278 280L199 373L169 343C160 334 144 334 135 343S126 368 135 377Z"/></svg>