<svg xmlns="http://www.w3.org/2000/svg" viewBox="0 0 448 512"><!-- Font Awesome Pro 6.0.0-alpha1 by @fontawesome - https://fontawesome.com License - https://fontawesome.com/license (Commercial License) --><path d="M400 64H352V16C352 7 345 0 336 0H304C295 0 288 7 288 16V64H160V16C160 7 153 0 144 0H112C103 0 96 7 96 16V64H48C22 64 0 86 0 112V160H448V112C448 86 426 64 400 64ZM0 464C0 490 22 512 48 512H400C426 512 448 490 448 464V192H0V464ZM64 272C64 263 71 256 80 256H368C377 256 384 263 384 272V336C384 345 377 352 368 352H80C71 352 64 345 64 336V272Z"/></svg>