<svg xmlns="http://www.w3.org/2000/svg" viewBox="0 0 576 512"><!-- Font Awesome Pro 6.0.0-alpha1 by @fontawesome - https://fontawesome.com License - https://fontawesome.com/license (Commercial License) --><path d="M526 166L416 241V399L526 474C547 489 576 474 576 448V191C576 166 547 151 526 166ZM320 160H96V128C96 110 110 96 128 96H304C313 96 320 89 320 80V48C320 39 313 32 304 32H128C75 32 32 75 32 128V163C13 170 0 188 0 208V416C0 451 29 480 64 480H320C355 480 384 451 384 416V224C384 189 355 160 320 160ZM304 256H80C71 256 64 249 64 240C64 231 71 224 80 224H304C313 224 320 231 320 240C320 249 313 256 304 256Z"/></svg>