<svg xmlns="http://www.w3.org/2000/svg" viewBox="0 0 448 512"><!-- Font Awesome Pro 6.0.0-alpha1 by @fontawesome - https://fontawesome.com License - https://fontawesome.com/license (Commercial License) --><path d="M224 112C171 112 128 155 128 208C128 261 171 304 224 304S320 261 320 208C320 155 277 112 224 112ZM384 0H64C29 0 0 29 0 64V352C0 387 29 416 64 416H137L76 451C70 455 64 465 64 473V485C64 500 76 512 91 512H357C372 512 384 500 384 485V474C384 465 378 455 371 451L311 416H384C419 416 448 387 448 352V64C448 29 419 0 384 0ZM224 336C153 336 96 279 96 208C96 137 153 80 224 80S352 137 352 208C352 279 295 336 224 336Z"/></svg>