<svg xmlns="http://www.w3.org/2000/svg" viewBox="0 0 640 512"><!-- Font Awesome Pro 6.0.0-alpha1 by @fontawesome - https://fontawesome.com License - https://fontawesome.com/license (Commercial License) --><path d="M320 384H320C231 384 160 312 160 224C160 223 160 223 160 222L101 176C98 192 96 208 96 224C96 300 134 367 192 408L143 439C134 444 128 455 128 466V480C128 498 142 512 160 512H480C492 512 503 505 508 495L360 378C347 382 334 384 320 384ZM631 469L495 363C526 325 544 277 544 224C544 100 444 0 320 0C248 0 184 34 143 87L39 5C34 2 29 0 24 0C17 0 10 3 5 9C-3 20 -1 35 9 43L601 507C612 515 627 513 635 503C643 492 641 477 631 469ZM320 176C304 176 291 184 282 196L257 176C271 156 294 144 320 144C329 144 336 151 336 160C336 169 329 176 320 176ZM445 323L419 303C437 282 448 254 448 224C448 153 391 96 320 96H320C279 96 242 116 219 146L194 127C223 89 268 64 320 64C408 64 480 136 480 224C480 262 466 296 445 323Z"/></svg>