<svg xmlns="http://www.w3.org/2000/svg" viewBox="0 0 512 512"><!-- Font Awesome Pro 6.0.0-alpha1 by @fontawesome - https://fontawesome.com License - https://fontawesome.com/license (Commercial License) --><path d="M501 450L361 405L501 361C509 358 514 349 511 341L502 310C499 302 491 297 482 300L256 372L30 300C21 297 13 302 10 310L1 341C-2 349 3 358 11 361L151 405L11 450C3 453 -2 462 1 470L10 501C13 509 21 514 30 511L256 439L482 511C491 514 499 509 502 501L511 470C514 462 509 453 501 450ZM256 320C336 320 400 255 400 176C400 143 367 74 320 32C307 44 294 57 284 70C266 46 245 22 220 0C157 57 112 131 112 176C112 255 176 320 256 320ZM227 107C230 112 276 173 276 173L305 138C307 142 309 145 311 148C325 176 319 211 294 229C283 236 270 241 256 241C220 241 190 216 190 176C190 156 202 138 227 107Z"/></svg>