<svg xmlns="http://www.w3.org/2000/svg" viewBox="0 0 512 512"><!-- Font Awesome Pro 6.0.0-alpha1 by @fontawesome - https://fontawesome.com License - https://fontawesome.com/license (Commercial License) --><path d="M497 92C470 33 412 0 352 0C324 0 296 7 271 23L243 39C228 48 223 68 232 83L265 138C273 152 292 158 309 149L336 133C341 129 347 128 353 128C364 128 374 134 380 144C389 159 384 178 369 187L16 398C0 407 -5 426 5 441L37 496C46 511 65 517 81 507L429 301C500 258 533 167 497 92ZM320 105L317 106L297 45C306 40 317 37 327 35L348 97C338 97 328 100 320 105ZM146 432L85 393L116 375L177 414L146 432ZM253 368L193 329L224 311L284 350L253 368ZM364 302L304 263L335 245L395 284L364 302ZM385 105L431 59C439 65 447 73 453 81L408 127C402 118 394 110 385 105ZM467 212L407 193C411 187 413 182 415 176C416 171 416 166 416 162L477 182C475 192 471 203 467 212Z"/></svg>