<svg xmlns="http://www.w3.org/2000/svg" viewBox="0 0 640 512"><!-- Font Awesome Pro 6.0.0-alpha1 by @fontawesome - https://fontawesome.com License - https://fontawesome.com/license (Commercial License) --><path d="M277 191C267 176 258 160 248 145C229 118 203 90 85 206C-31 324 -3 350 24 369C39 379 55 388 70 398C89 370 118 331 165 285C210 239 249 210 277 191ZM187 307C143 351 115 388 98 415C214 483 342 537 379 500H379C416 463 362 335 294 219C267 236 230 264 187 307ZM326 447C306 444 276 433 238 416C247 406 256 397 266 386C276 376 286 367 295 359C312 397 322 427 326 447ZM342 157C375 287 428 416 480 416H480C532 416 585 287 618 157C587 150 542 144 481 144C419 144 372 150 342 157ZM480 341C469 325 454 296 440 257C452 256 466 256 481 256C495 256 508 256 520 257C505 296 491 325 480 341ZM480 0C314 2 315 39 322 73C326 90 329 108 334 126C367 119 415 112 481 112C545 112 593 119 626 126C630 108 634 90 638 73C645 39 646 2 480 0Z"/></svg>