<svg xmlns="http://www.w3.org/2000/svg" viewBox="0 0 448 512"><!-- Font Awesome Pro 6.0.0-alpha1 by @fontawesome - https://fontawesome.com License - https://fontawesome.com/license (Commercial License) --><path d="M376 368C336 368 304 400 304 440C304 449 306 457 308 464H256V256C256 238 242 224 224 224H160V272C160 281 153 288 144 288S128 281 128 272V224H96C78 224 64 238 64 256V464H16C7 464 0 471 0 480V496C0 505 7 512 16 512H376C416 512 448 480 448 440S416 368 376 368ZM376 464C363 464 352 453 352 440S363 416 376 416S400 427 400 440S389 464 376 464ZM160 192C206 192 238 159 238 113C238 83 205 38 160 0C114 38 82 83 82 113C82 159 114 192 160 192Z"/></svg>