<svg xmlns="http://www.w3.org/2000/svg" viewBox="0 0 512 512"><!-- Font Awesome Pro 6.0.0-alpha1 by @fontawesome - https://fontawesome.com License - https://fontawesome.com/license (Commercial License) --><path d="M471 196L438 98C425 58 388 32 347 32H165C124 32 87 58 74 98L41 196C17 206 0 229 0 256V336C0 360 13 380 32 391V448C32 466 46 480 64 480H96C114 480 128 466 128 448V400H384V448C384 466 398 480 416 480H448C466 480 480 466 480 448V391C499 380 512 360 512 336V256C512 229 495 206 471 196ZM104 304H72C59 304 48 293 48 280S59 256 72 256H104C117 256 128 267 128 280S117 304 104 304ZM110 192L135 118C139 105 151 96 165 96H347C361 96 373 105 377 118L402 192H110ZM320 320C320 329 313 336 304 336H208C199 336 192 329 192 320V288C192 279 199 272 208 272H304C313 272 320 279 320 288V320ZM440 304H408C395 304 384 293 384 280S395 256 408 256H440C453 256 464 267 464 280S453 304 440 304Z"/></svg>