<svg xmlns="http://www.w3.org/2000/svg" viewBox="0 0 640 512"><!-- Font Awesome Pro 6.0.0-alpha1 by @fontawesome - https://fontawesome.com License - https://fontawesome.com/license (Commercial License) --><path d="M258 110L274 91L289 66C292 60 287 53 280 55L205 79C201 80 197 78 196 74L167 0C164 -6 156 -6 153 0L124 74C123 78 119 80 115 79L40 55C33 53 28 60 31 66L71 135C73 138 72 143 69 145L3 190C-2 194 0 202 6 203L85 215C88 216 91 219 91 223L85 303C84 309 92 313 97 309L151 258L190 164C202 135 228 115 258 110ZM622 286L629 194C631 158 610 124 577 111L429 49C396 35 357 45 333 72L273 141C251 141 229 154 220 176L163 314C155 331 164 352 181 359L197 366C215 373 235 365 243 347L256 314L512 420L499 453C491 471 500 491 517 498L533 505C551 512 571 504 579 486L636 348C645 326 639 301 622 286ZM313 245C308 258 292 264 279 259C266 253 260 238 265 225C271 212 286 205 299 211C312 216 318 232 313 245ZM345 164L386 117C390 113 397 111 403 113L550 175C556 177 560 183 560 190L555 252L345 164ZM569 351C563 364 548 370 535 365C522 359 515 344 521 331C526 318 542 311 555 317C568 322 574 338 569 351Z"/></svg>