<svg xmlns="http://www.w3.org/2000/svg" viewBox="0 0 512 512"><!-- Font Awesome Pro 6.0.0-alpha1 by @fontawesome - https://fontawesome.com License - https://fontawesome.com/license (Commercial License) --><path d="M506 112H448L426 80L448 48H506C511 48 514 43 511 39C497 16 472 0 442 0C410 0 382 20 369 48H143C132 23 109 5 81 1C47 -4 17 13 1 39C-2 43 1 48 6 48H64L86 80L64 112H6C1 112 -2 117 1 121C15 144 40 160 70 160C102 160 130 140 143 112H369C380 137 403 155 431 159C465 164 495 147 511 121C514 117 511 112 506 112ZM431 294L404 213C393 181 363 160 330 160H182C149 160 119 181 108 213L81 294C62 301 48 320 48 342V480C48 498 62 512 80 512H96C114 512 128 498 128 480V447H384V480C384 498 398 512 416 512H432C450 512 464 498 464 480V342C464 320 450 301 431 294ZM169 234C171 228 176 224 182 224H330C336 224 341 228 343 234L361 288H151L169 234ZM128 392C115 392 104 381 104 368C104 355 115 344 128 344S152 355 152 368C152 381 141 392 128 392ZM384 392C371 392 360 381 360 368C360 355 371 344 384 344S408 355 408 368C408 381 397 392 384 392Z"/></svg>