<svg xmlns="http://www.w3.org/2000/svg" viewBox="0 0 640 512"><!-- Font Awesome Pro 6.0.0-alpha1 by @fontawesome - https://fontawesome.com License - https://fontawesome.com/license (Commercial License) --><path d="M624 352H576V192C576 104 504 32 416 32H64C29 32 0 61 0 96V352C0 387 29 416 64 416H96C96 469 139 512 192 512S288 469 288 416H624C633 416 640 409 640 400V368C640 359 633 352 624 352ZM192 464C166 464 144 442 144 416S166 368 192 368S240 390 240 416S218 464 192 464ZM256 224C256 242 242 256 224 256H96C78 256 64 242 64 224V160C64 142 78 128 96 128H224C242 128 256 142 256 160V224ZM320 352V160C320 142 334 128 352 128H416C434 128 448 142 448 160V224H416C407 224 400 231 400 240C400 249 407 256 416 256H448V352H320Z"/></svg>