<svg xmlns="http://www.w3.org/2000/svg" viewBox="0 0 576 512"><!-- Font Awesome Pro 6.0.0-alpha1 by @fontawesome - https://fontawesome.com License - https://fontawesome.com/license (Commercial License) --><path d="M224 464C224 490 202 512 176 512S128 490 128 464S150 416 176 416S224 438 224 464ZM570 45C563 37 554 32 544 32H360V134L383 111C392 102 408 102 417 111S426 136 417 145L353 209C348 214 342 216 336 216S324 214 319 209L255 145C246 136 246 120 255 111S280 102 289 111L312 134V32H122L120 20C117 8 108 0 96 0H16C7 0 0 7 0 16V32C0 41 7 48 16 48H76L136 364C139 376 148 384 160 384H496C505 384 512 377 512 368V352C512 343 505 336 496 336H180L171 288H489C503 288 516 278 520 265L575 73C578 63 576 53 570 45ZM464 416C438 416 416 438 416 464S438 512 464 512S512 490 512 464S490 416 464 416Z"/></svg>