<svg xmlns="http://www.w3.org/2000/svg" viewBox="0 0 640 512"><!-- Font Awesome Pro 6.0.0-alpha1 by @fontawesome - https://fontawesome.com License - https://fontawesome.com/license (Commercial License) --><path d="M224 320H576C594 320 608 306 608 288V64C608 46 594 32 576 32H448V160L400 128L352 160V32H224C206 32 192 46 192 64V288C192 306 206 320 224 320ZM624 384H128V64C128 29 99 0 64 0H16C7 0 0 7 0 16V48C0 57 7 64 16 64H48C57 64 64 71 64 80V432C64 441 71 448 80 448H163C161 453 160 458 160 464C160 490 182 512 208 512S256 490 256 464C256 458 255 453 253 448H451C449 453 448 458 448 464C448 490 470 512 496 512S544 490 544 464C544 458 543 453 541 448H624C633 448 640 441 640 432V400C640 391 633 384 624 384Z"/></svg>