<svg xmlns="http://www.w3.org/2000/svg" viewBox="0 0 576 512"><!-- Font Awesome Pro 6.0.0-alpha1 by @fontawesome - https://fontawesome.com License - https://fontawesome.com/license (Commercial License) --><path d="M160 352C178 352 192 338 192 320S178 288 160 288S128 302 128 320S142 352 160 352ZM528 32H48C22 32 0 54 0 80V128H576V80C576 54 554 32 528 32ZM0 432C0 458 22 480 48 480H528C554 480 576 458 576 432V160H0V432ZM320 224H512V416H320V224ZM160 224C213 224 256 267 256 320S213 416 160 416C107 416 64 373 64 320S107 224 160 224Z"/></svg>