<svg xmlns="http://www.w3.org/2000/svg" viewBox="0 0 512 512"><!-- Font Awesome Pro 6.0.0-alpha1 by @fontawesome - https://fontawesome.com License - https://fontawesome.com/license (Commercial License) --><path d="M511 377L485 219C482 203 469 192 453 192H208V128H288C306 128 320 114 320 96V32C320 14 306 0 288 0H64C47 0 32 14 32 32V96C32 114 47 128 64 128H144V192H59C44 192 30 203 28 219L1 379C1 382 0 386 0 389V480C0 498 14 512 32 512H480C498 512 512 498 512 480V389C512 386 511 381 511 377ZM280 248C280 239 287 232 296 232H312C321 232 328 239 328 248V264C328 273 321 280 312 280H296C287 280 280 273 280 264V248ZM248 312H264C273 312 280 319 280 328V344C280 353 273 360 264 360H248C239 360 232 353 232 344V328C232 319 239 312 248 312ZM216 232C225 232 232 239 232 248V264C232 273 225 280 216 280H200C191 280 184 273 184 264V248C184 239 191 232 200 232H216ZM80 80V48H272V80H80ZM120 280H104C95 280 88 273 88 264V248C88 239 95 232 104 232H120C129 232 136 239 136 248V264C136 273 129 280 120 280ZM136 344V328C136 319 143 312 152 312H168C177 312 184 319 184 328V344C184 353 177 360 168 360H152C143 360 136 353 136 344ZM352 448C352 457 345 464 336 464H176C167 464 160 457 160 448V448C160 439 167 432 176 432H336C345 432 352 439 352 448L352 448ZM376 344C376 353 369 360 360 360H344C335 360 328 353 328 344V328C328 319 335 312 344 312H360C369 312 376 319 376 328V344ZM424 264C424 273 417 280 408 280H392C383 280 376 273 376 264V248C376 239 383 232 392 232H408C417 232 424 239 424 248V264Z"/></svg>