<svg xmlns="http://www.w3.org/2000/svg" viewBox="0 0 576 512"><!-- Font Awesome Pro 6.0.0-alpha1 by @fontawesome - https://fontawesome.com License - https://fontawesome.com/license (Commercial License) --><path d="M528 288H291L448 446C455 452 464 452 471 447C509 410 536 361 544 306C545 296 537 288 528 288ZM512 223C504 104 408 8 289 0C280 -1 272 7 272 16V240H496C505 240 513 232 512 223ZM224 288V51C224 41 216 33 206 35C87 52 -4 156 0 280C5 408 115 514 243 512C293 511 340 495 378 468C386 462 387 451 380 444L224 288Z"/></svg>