<svg xmlns="http://www.w3.org/2000/svg" viewBox="0 0 576 512"><!-- Font Awesome Pro 6.0.0-alpha1 by @fontawesome - https://fontawesome.com License - https://fontawesome.com/license (Commercial License) --><path d="M336 448H16C7 448 0 455 0 464V496C0 505 7 512 16 512H336C345 512 352 505 352 496V464C352 455 345 448 336 448ZM544 128V80C544 71 537 64 528 64S512 71 512 80V128H480V80C480 71 473 64 464 64S448 71 448 80V128H432C423 128 416 135 416 144V176C416 212 440 242 472 252V370C472 384 462 397 449 400C431 402 416 389 416 372V344C416 295 377 256 328 256H320V64C320 29 291 0 256 0H96C61 0 32 29 32 64V416H320V304H328C350 304 368 322 368 344V369C368 408 397 444 436 448C482 452 520 416 520 372V252C552 242 576 212 576 176V144C576 135 569 128 560 128H544ZM254 176L166 315C164 318 160 320 156 320C148 320 142 314 144 307L167 224H108C101 224 95 218 96 212L112 105C113 100 118 96 124 96H192C200 96 206 102 204 109L192 160H244C253 160 259 169 254 176Z"/></svg>