<svg xmlns="http://www.w3.org/2000/svg" viewBox="0 0 512 512"><!-- Font Awesome Pro 6.0.0-alpha1 by @fontawesome - https://fontawesome.com License - https://fontawesome.com/license (Commercial License) --><path d="M0 320V416C0 434 14 448 32 448H224V288H32C14 288 0 302 0 320ZM32 224H128V64H32C14 64 0 78 0 96V192C0 210 14 224 32 224ZM480 64H288C288 55 281 48 272 48S256 55 256 64H160V112H256V176H160V224H256C256 233 263 240 272 240S288 233 288 224H480C498 224 512 210 512 192V96C512 78 498 64 480 64ZM464 176H288V112H464V176ZM480 288H384C384 279 377 272 368 272S352 279 352 288H256V336H352V400H256V448H352C352 457 359 464 368 464S384 457 384 448H480C498 448 512 434 512 416V320C512 302 498 288 480 288ZM464 400H384V336H464V400Z"/></svg>