<svg xmlns="http://www.w3.org/2000/svg" viewBox="0 0 576 512"><!-- Font Awesome Pro 6.0.0-alpha1 by @fontawesome - https://fontawesome.com License - https://fontawesome.com/license (Commercial License) --><path d="M511 93C516 95 522 96 528 96C554 96 576 74 576 48S554 0 528 0S480 22 480 48C480 50 480 53 481 55L385 131C380 129 374 128 368 128S356 129 351 131L255 55C256 53 256 50 256 48C256 22 234 0 208 0S160 22 160 48C160 52 161 56 162 60L60 162C56 161 52 160 48 160C22 160 0 182 0 208S22 256 48 256S96 234 96 208C96 204 95 200 94 196L196 94C200 95 204 96 208 96C214 96 220 95 225 93L321 169C320 171 320 174 320 176C320 202 342 224 368 224S416 202 416 176C416 174 416 171 415 169L511 93ZM400 320H336C327 320 320 327 320 336V496C320 505 327 512 336 512H400C409 512 416 505 416 496V336C416 327 409 320 400 320ZM560 192H496C487 192 480 199 480 208V496C480 505 487 512 496 512H560C569 512 576 505 576 496V208C576 199 569 192 560 192ZM240 192H176C167 192 160 199 160 208V496C160 505 167 512 176 512H240C249 512 256 505 256 496V208C256 199 249 192 240 192ZM80 352H16C7 352 0 359 0 368V496C0 505 7 512 16 512H80C89 512 96 505 96 496V368C96 359 89 352 80 352Z"/></svg>