<svg xmlns="http://www.w3.org/2000/svg" viewBox="0 0 512 512"><!-- Font Awesome Pro 6.0.0-alpha1 by @fontawesome - https://fontawesome.com License - https://fontawesome.com/license (Commercial License) --><path d="M496 416H64V48C64 39 57 32 48 32H16C7 32 0 39 0 48V448C0 466 14 480 32 480H496C505 480 512 473 512 464V432C512 423 505 416 496 416ZM123 315C130 322 140 322 146 315L208 253L281 327C288 333 296 336 304 336S320 333 327 327L411 242L453 283C463 294 480 285 480 272V144C480 135 473 128 464 128H336C322 128 315 145 325 155L366 197L304 259L231 185C218 173 198 173 185 185L101 270C94 276 94 286 101 293L123 315Z"/></svg>