<svg xmlns="http://www.w3.org/2000/svg" viewBox="0 0 512 512"><!-- Font Awesome Pro 6.0.0-alpha1 by @fontawesome - https://fontawesome.com License - https://fontawesome.com/license (Commercial License) --><path d="M500 416H64V44C64 37 59 32 52 32H12C5 32 0 37 0 44V448C0 466 14 480 32 480H500C507 480 512 475 512 468V428C512 421 507 416 500 416ZM480 237C480 229 477 222 472 216L402 136C392 125 376 125 366 136L323 186L259 105C249 93 231 93 221 105L135 214C130 220 128 227 128 234V352H480V237Z"/></svg>