<svg xmlns="http://www.w3.org/2000/svg" viewBox="0 0 320 512"><!-- Font Awesome Pro 6.0.0-alpha1 by @fontawesome - https://fontawesome.com License - https://fontawesome.com/license (Commercial License) --><path d="M105 224H80C71 224 64 231 64 240V272C64 281 71 288 80 288H96V294C96 338 92 380 72 416H248C228 380 224 338 224 294V288H240C249 288 256 281 256 272V240C256 231 249 224 240 224H215C244 206 264 173 264 136C264 78 218 32 160 32S56 78 56 136C56 173 76 206 105 224ZM272 448H48C22 448 0 470 0 496V496C0 505 7 512 16 512H304C313 512 320 505 320 496V496C320 470 298 448 272 448Z"/></svg>