<svg xmlns="http://www.w3.org/2000/svg" viewBox="0 0 640 512"><!-- Font Awesome Pro 6.0.0-alpha1 by @fontawesome - https://fontawesome.com License - https://fontawesome.com/license (Commercial License) --><path d="M600 128H488V80H528C537 80 544 73 544 64V48C544 39 537 32 528 32H400C391 32 384 39 384 48V64C384 73 391 80 400 80H440V128H256V112C256 103 249 96 240 96H112C103 96 96 103 96 112V128H40C18 128 0 146 0 168V440C0 462 18 480 40 480H600C622 480 640 462 640 440V168C640 146 622 128 600 128ZM176 416C114 416 64 366 64 304C64 242 114 192 176 192C238 192 288 242 288 304C288 366 238 416 176 416ZM464 416C402 416 352 366 352 304C352 242 402 192 464 192C526 192 576 242 576 304C576 366 526 416 464 416ZM231 243C229 241 226 240 223 240C219 240 216 241 214 243L163 294C161 296 160 299 160 302C160 306 161 309 163 311L169 317C171 319 174 320 177 320C181 320 184 319 186 317L237 266C239 263 240 260 240 257C240 254 239 251 237 249L231 243ZM468 224H460C453 224 448 230 448 236V308C448 315 453 320 460 320H468C474 320 480 315 480 308V236C480 233 479 230 476 228C474 225 471 224 468 224Z"/></svg>