<svg xmlns="http://www.w3.org/2000/svg" viewBox="0 0 384 512"><!-- Font Awesome Pro 6.0.0-alpha1 by @fontawesome - https://fontawesome.com License - https://fontawesome.com/license (Commercial License) --><path d="M19 273L60 290C68 294 77 294 85 291L97 286C106 282 113 275 116 265L125 235C127 228 131 222 138 219L160 208V258C160 276 150 293 133 301L76 330C49 343 32 371 32 402V416H352V224C352 118 266 32 160 32H12C5 32 0 37 0 44C0 47 1 49 2 52L16 80L7 89C2 94 0 100 0 106V243C0 256 7 267 19 273ZM52 128C63 128 72 137 72 148S63 168 52 168S32 159 32 148S41 128 52 128ZM336 448H48C22 448 0 470 0 496V496C0 505 7 512 16 512H368C377 512 384 505 384 496V496C384 470 362 448 336 448Z"/></svg>