<svg xmlns="http://www.w3.org/2000/svg" viewBox="0 0 320 512"><!-- Font Awesome Pro 6.0.0-alpha1 by @fontawesome - https://fontawesome.com License - https://fontawesome.com/license (Commercial License) --><path d="M272 448H48C22 448 0 470 0 496C0 505 7 512 16 512H304C313 512 320 505 320 496C320 470 298 448 272 448ZM8 288C8 339 30 362 64 373V416H256V373C290 362 312 340 312 288C312 257 301 221 285 185L185 286C182 289 177 289 174 286L162 274C159 271 159 266 162 263L270 155C250 117 224 83 199 62C213 59 224 47 224 32C224 14 210 0 192 0H128C110 0 96 14 96 32C96 47 107 59 121 62C68 107 8 214 8 288Z"/></svg>