<svg xmlns="http://www.w3.org/2000/svg" viewBox="0 0 640 512"><!-- Font Awesome Pro 6.0.0-alpha1 by @fontawesome - https://fontawesome.com License - https://fontawesome.com/license (Commercial License) --><path d="M519 243C517 241 514 240 511 240C508 240 505 241 502 243L452 294C449 296 448 299 448 302C448 306 449 309 452 311L457 317C459 319 463 320 466 320C469 320 472 319 474 317L525 266C527 263 529 260 529 257C529 254 527 251 525 249L519 243ZM600 128H544V112C544 103 537 96 528 96H400C391 96 384 103 384 112V128H200V80H240C249 80 256 73 256 64V48C256 39 249 32 240 32H112C103 32 96 39 96 48V64C96 73 103 80 112 80H152V128H40C18 128 0 146 0 168V440C0 462 18 480 40 480H600C622 480 640 462 640 440V168C640 146 622 128 600 128ZM176 416C114 416 64 366 64 304S114 192 176 192C238 192 288 242 288 304C288 366 238 416 176 416ZM464 416C402 416 352 366 352 304S402 192 464 192C526 192 576 242 576 304C576 366 526 416 464 416ZM180 224H172C166 224 160 230 160 236V308C160 315 166 320 172 320H180C187 320 192 315 192 308V236C192 230 187 224 180 224Z"/></svg>