<svg xmlns="http://www.w3.org/2000/svg" viewBox="0 0 448 512"><!-- Font Awesome Pro 6.0.0-alpha1 by @fontawesome - https://fontawesome.com License - https://fontawesome.com/license (Commercial License) --><path d="M192 224H128V288H192V224ZM384 32H64C29 32 0 61 0 96V416C0 451 29 480 64 480H384C419 480 448 451 448 416V96C448 61 419 32 384 32ZM384 160H320V224H384V288H320V352H384V416H320V352H256V416H192V352H128V416H64V352H128V288H64V224H128V160H64V96H128V160H192V96H256V160H320V96H384V160ZM192 288V352H256V288H192ZM256 224V160H192V224H256ZM256 288H320V224H256V288Z"/></svg>