<svg xmlns="http://www.w3.org/2000/svg" viewBox="0 0 448 512"><!-- Font Awesome Pro 6.0.0-alpha1 by @fontawesome - https://fontawesome.com License - https://fontawesome.com/license (Commercial License) --><path d="M368 448H80C53 448 32 470 32 496V496C32 505 39 512 48 512H400C409 512 416 505 416 496V496C416 470 394 448 368 448ZM416 160H256V112H296C300 112 304 108 304 104V56C304 52 300 48 296 48H256V8C256 4 252 0 248 0H200C196 0 192 4 192 8V48H152C148 48 144 52 144 56V104C144 108 148 112 152 112H192V160H32C22 160 12 165 6 173C0 181 -2 192 1 202L74 416H373L446 202C449 192 448 181 442 173C436 165 426 160 416 160Z"/></svg>