<svg xmlns="http://www.w3.org/2000/svg" viewBox="0 0 256 512"><!-- Font Awesome Pro 6.0.0-alpha1 by @fontawesome - https://fontawesome.com License - https://fontawesome.com/license (Commercial License) --><path d="M67 192H64C55 192 48 199 48 208V224C48 233 55 240 64 240H80V254C80 298 75 342 64 384H192C181 342 176 298 176 254V240H192C201 240 208 233 208 224V208C208 199 201 192 192 192H189L233 96C235 93 234 90 231 88L221 81C218 79 214 80 211 83C207 89 199 92 192 91C182 89 175 80 175 70C175 66 173 64 170 64H153C151 64 148 66 148 68C146 78 138 84 128 84S110 78 108 68C108 66 105 64 103 64H86C83 64 81 66 81 70C81 81 73 90 62 91C55 91 49 88 45 83C42 80 38 79 35 81L25 88C22 90 21 93 23 96L67 192ZM128 48C141 48 152 37 152 24S141 0 128 0S104 11 104 24S115 48 128 48ZM247 460L224 448V432C224 423 217 416 208 416H48C39 416 32 423 32 432V448L9 460C3 462 0 468 0 474V496C0 505 7 512 16 512H240C249 512 256 505 256 496V474C256 468 253 462 247 460Z"/></svg>