<svg xmlns="http://www.w3.org/2000/svg" viewBox="0 0 256 512"><!-- Font Awesome Pro 6.0.0-alpha1 by @fontawesome - https://fontawesome.com License - https://fontawesome.com/license (Commercial License) --><path d="M64 288H79C77 320 72 353 64 384H192C184 353 179 320 177 288H192C201 288 208 281 208 272V256C208 247 201 240 192 240H180C196 233 207 215 207 190C207 170 200 147 189 126L140 175C140 176 139 176 138 176C137 176 136 176 135 175L129 169C128 168 128 165 129 163L181 112C171 95 159 80 147 72C155 70 160 62 160 53C160 41 152 32 141 32H115C104 32 96 41 96 53C96 62 101 70 109 72C80 92 49 149 49 190C49 215 60 233 76 240H64C55 240 48 247 48 256V272C48 281 55 288 64 288ZM247 460L224 448V432C224 423 217 416 208 416H48C39 416 32 423 32 432V448L9 460C3 462 0 468 0 474V496C0 505 7 512 16 512H240C249 512 256 505 256 496V474C256 468 253 462 247 460Z"/></svg>