<svg xmlns="http://www.w3.org/2000/svg" viewBox="0 0 448 512"><!-- Font Awesome Pro 6.0.0-alpha1 by @fontawesome - https://fontawesome.com License - https://fontawesome.com/license (Commercial License) --><path d="M197 242C190 250 190 262 197 270L382 472C391 482 406 483 416 474L440 452C450 444 451 428 442 419L292 256L442 93C451 84 450 68 440 60L416 38C406 29 391 30 382 40L197 242ZM248 452C258 444 259 428 250 419L100 256L250 93C259 84 258 68 248 60L224 38C214 29 199 30 190 40L5 242C-2 250 -2 262 5 270L190 472C199 482 214 483 224 474L248 452Z"/></svg>