<svg xmlns="http://www.w3.org/2000/svg" viewBox="0 0 512 512"><!-- Font Awesome Pro 6.0.0-alpha1 by @fontawesome - https://fontawesome.com License - https://fontawesome.com/license (Commercial License) --><path d="M256 16C123 16 16 123 16 256S123 496 256 496S496 389 496 256S389 16 256 16ZM328 384H184C174 384 165 378 162 369C158 359 161 349 168 342L276 244C283 237 288 227 288 216S283 196 276 188C259 172 233 172 217 188L206 199C196 208 181 208 172 198C162 189 163 174 172 164L183 154C218 120 274 120 309 154C326 170 336 193 336 216S326 262 309 279L246 336H328C341 336 352 347 352 360S341 384 328 384Z"/></svg>