<svg xmlns="http://www.w3.org/2000/svg" viewBox="0 0 512 512"><!-- Font Awesome Pro 6.0.0-alpha1 by @fontawesome - https://fontawesome.com License - https://fontawesome.com/license (Commercial License) --><path d="M304 204C304 189 291 176 276 176H208V232H276C291 232 304 219 304 204ZM256 16C123 16 16 123 16 256S123 496 256 496S496 389 496 256S389 16 256 16ZM292 384H184C171 384 160 373 160 360V152C160 139 171 128 184 128H276C318 128 352 162 352 204C352 220 347 235 338 248C356 262 368 283 368 308C368 350 334 384 292 384ZM292 280H208V336H292C307 336 320 323 320 308S307 280 292 280Z"/></svg>