<svg xmlns="http://www.w3.org/2000/svg" viewBox="0 0 512 512"><!-- Font Awesome Pro 6.0.0-alpha1 by @fontawesome - https://fontawesome.com License - https://fontawesome.com/license (Commercial License) --><path d="M256 16C123 16 16 123 16 256S123 496 256 496S496 389 496 256S389 16 256 16ZM384 357C384 372 372 384 357 384H155C140 384 128 372 128 357V224H384V357ZM384 192H128V155C128 140 140 128 155 128H192V105C192 100 196 96 201 96H215C220 96 224 100 224 105V128H288V105C288 100 292 96 297 96H311C316 96 320 100 320 105V128H357C372 128 384 140 384 155V192Z"/></svg>