<svg xmlns="http://www.w3.org/2000/svg" viewBox="0 0 512 512"><!-- Font Awesome Pro 6.0.0-alpha1 by @fontawesome - https://fontawesome.com License - https://fontawesome.com/license (Commercial License) --><path d="M256 16C123 16 16 123 16 256S123 496 256 496S496 389 496 256S389 16 256 16ZM296 232C309 232 320 243 320 256S309 280 296 280H208V336H328C341 336 352 347 352 360S341 384 328 384H184C171 384 160 373 160 360V152C160 139 171 128 184 128H328C341 128 352 139 352 152S341 176 328 176H208V232H296Z"/></svg>