<svg xmlns="http://www.w3.org/2000/svg" viewBox="0 0 512 512"><!-- Font Awesome Pro 6.0.0-alpha1 by @fontawesome - https://fontawesome.com License - https://fontawesome.com/license (Commercial License) --><path d="M464 352H447C428 378 403 400 374 416H432C441 416 448 423 448 432C448 441 441 448 432 448H80C71 448 64 441 64 432C64 423 71 416 80 416H137C109 400 84 378 64 352H48C22 352 0 374 0 400V464C0 490 22 512 48 512H464C490 512 512 490 512 464V400C512 374 490 352 464 352ZM256 416C371 416 464 323 464 208S371 0 256 0S48 93 48 208S141 416 256 416ZM234 97V81C234 71 241 64 250 64H262C271 64 278 71 278 81V98C294 98 309 104 321 113C327 117 327 125 322 130L306 146C302 149 297 149 292 147C287 143 281 141 274 141H235C226 141 219 150 219 160C219 168 224 175 231 177L293 196C319 204 337 229 337 256C337 290 311 318 278 319V335C278 345 271 352 261 352H250C241 352 234 345 234 335V318C218 318 203 312 191 303C185 299 185 291 190 286L206 270C210 267 215 267 220 269C225 273 231 274 238 274H277C286 274 293 266 293 256C293 248 288 241 281 239L218 220C193 212 175 187 175 160C175 126 201 98 234 97Z"/></svg>