<svg xmlns="http://www.w3.org/2000/svg" viewBox="0 0 512 512"><!-- Font Awesome Pro 6.0.0-alpha1 by @fontawesome - https://fontawesome.com License - https://fontawesome.com/license (Commercial License) --><path d="M248 224H264C277 224 288 213 288 200S277 176 264 176H248C235 176 224 187 224 200S235 224 248 224ZM256 16C123 16 16 123 16 256S123 496 256 496S496 389 496 256S389 16 256 16ZM272 384H240C196 384 160 348 160 304C160 279 172 257 190 242C181 230 176 216 176 200C176 160 208 128 248 128H264C304 128 336 160 336 200C336 216 331 230 322 242C340 257 352 279 352 304C352 348 316 384 272 384ZM272 272H240C222 272 208 286 208 304S222 336 240 336H272C290 336 304 322 304 304S290 272 272 272Z"/></svg>