<svg xmlns="http://www.w3.org/2000/svg" viewBox="0 0 512 512"><!-- Font Awesome Pro 6.0.0-alpha1 by @fontawesome - https://fontawesome.com License - https://fontawesome.com/license (Commercial License) --><path d="M256 16C123 16 16 123 16 256S123 496 256 496S496 389 496 256S389 16 256 16ZM362 345C371 355 370 370 360 378C355 382 349 384 344 384C337 384 330 381 326 375L256 293L186 375C182 381 175 384 168 384C163 384 157 382 153 378C142 370 141 355 150 345L225 256L150 167C141 157 142 142 153 134C163 125 178 126 186 136L256 219L326 137C334 126 349 125 359 134C370 142 371 157 362 168L287 256L362 345Z"/></svg>