<svg xmlns="http://www.w3.org/2000/svg" viewBox="0 0 512 512"><!-- Font Awesome Pro 6.0.0-alpha1 by @fontawesome - https://fontawesome.com License - https://fontawesome.com/license (Commercial License) --><path d="M256 496C389 496 496 389 496 256S389 16 256 16S16 123 16 256S123 496 256 496ZM129 209L233 105C236 102 240 100 244 98C248 97 252 96 256 96S264 97 268 98C272 100 276 102 279 105L383 209C395 222 395 242 383 255S350 267 337 255L288 205V384C288 402 274 416 256 416S224 402 224 384V205L175 255C162 267 142 267 129 255S117 222 129 209Z"/></svg>