<svg xmlns="http://www.w3.org/2000/svg" viewBox="0 0 512 512"><!-- Font Awesome Pro 6.0.0-alpha1 by @fontawesome - https://fontawesome.com License - https://fontawesome.com/license (Commercial License) --><path d="M256 16C123 16 16 123 16 256S123 496 256 496S496 389 496 256S389 16 256 16ZM208 144C208 117 229 96 256 96S304 117 304 144H264C260 144 256 148 256 152V168C256 172 260 176 264 176H304V208H264C260 208 256 212 256 216V232C256 236 260 240 264 240H304V256C304 283 283 304 256 304S208 283 208 256V144ZM384 256C384 321 335 374 272 382V408C272 412 268 416 264 416H248C244 416 240 412 240 408V382C177 374 128 321 128 256V232C128 228 132 224 136 224H152C156 224 160 228 160 232V253C160 301 195 345 243 351C302 359 352 313 352 256V232C352 228 356 224 360 224H376C380 224 384 228 384 232V256Z"/></svg>