<svg xmlns="http://www.w3.org/2000/svg" viewBox="0 0 512 512"><!-- Font Awesome Pro 6.0.0-alpha1 by @fontawesome - https://fontawesome.com License - https://fontawesome.com/license (Commercial License) --><path d="M256 16C123 16 16 123 16 256S123 496 256 496S496 389 496 256S389 16 256 16ZM341 362C341 374 330 384 317 384H195C182 384 171 374 171 362L160 192H352L341 362ZM352 160H160C151 160 144 153 144 144C144 135 151 128 160 128H208L214 116C215 114 218 112 221 112H291C294 112 297 114 298 116L304 128H352C361 128 368 135 368 144C368 153 361 160 352 160Z"/></svg>