<svg xmlns="http://www.w3.org/2000/svg" viewBox="0 0 512 512"><!-- Font Awesome Pro 6.0.0-alpha1 by @fontawesome - https://fontawesome.com License - https://fontawesome.com/license (Commercial License) --><path d="M256 16C123 16 16 123 16 256S123 496 256 496S496 389 496 256S389 16 256 16ZM273 384H223C195 384 170 366 161 339C157 327 164 313 176 309C189 305 203 311 207 324C209 331 216 336 223 336H273C290 336 304 322 304 305C304 289 292 276 277 274L189 264C183 263 177 260 173 254C169 249 167 242 168 236L185 148C187 136 197 128 209 128H312C325 128 336 139 336 152S325 176 312 176H229L220 219L282 226C322 231 352 265 352 305C352 349 317 384 273 384Z"/></svg>