<svg xmlns="http://www.w3.org/2000/svg" viewBox="0 0 512 512"><!-- Font Awesome Pro 6.0.0-alpha1 by @fontawesome - https://fontawesome.com License - https://fontawesome.com/license (Commercial License) --><path d="M256 16C123 16 16 124 16 256C16 389 123 496 256 496S496 389 496 256C496 124 389 16 256 16ZM256 128C274 128 288 142 288 160C288 178 274 192 256 192S224 178 224 160C224 142 238 128 256 128ZM296 384H216C203 384 192 373 192 360S203 336 216 336H232V272H224C211 272 200 261 200 248S211 224 224 224H256C269 224 280 235 280 248V336H296C309 336 320 347 320 360S309 384 296 384Z"/></svg>