<svg xmlns="http://www.w3.org/2000/svg" viewBox="0 0 512 512"><!-- Font Awesome Pro 6.0.0-alpha1 by @fontawesome - https://fontawesome.com License - https://fontawesome.com/license (Commercial License) --><path d="M256 16C123 16 16 123 16 256S123 496 256 496S496 389 496 256S389 16 256 16ZM352 288C352 341 309 384 256 384S160 341 160 288V224C160 171 203 128 256 128S352 171 352 224V288ZM256 176C230 176 208 198 208 224V288C208 314 230 336 256 336S304 314 304 288V224C304 198 282 176 256 176Z"/></svg>