<svg xmlns="http://www.w3.org/2000/svg" viewBox="0 0 512 512"><!-- Font Awesome Pro 6.0.0-alpha1 by @fontawesome - https://fontawesome.com License - https://fontawesome.com/license (Commercial License) --><path d="M216 280H296L256 192L216 280ZM256 16C123 16 16 123 16 256S123 496 256 496S496 389 496 256S389 16 256 16ZM362 366C359 367 355 368 352 368C343 368 334 363 330 354L318 328H194L182 354C176 366 162 371 150 366C138 360 133 346 138 334L234 125C242 108 270 108 278 125L374 334C379 346 374 360 362 366Z"/></svg>