<svg xmlns="http://www.w3.org/2000/svg" viewBox="0 0 512 512"><!-- Font Awesome Pro 6.0.0-alpha1 by @fontawesome - https://fontawesome.com License - https://fontawesome.com/license (Commercial License) --><path d="M272 128H208C190 128 176 142 176 160V352C176 370 190 384 208 384H208C226 384 240 370 240 352V320L268 320C314 320 357 289 366 243C378 182 331 128 272 128ZM272 256H240V192H272C290 192 304 206 304 224S290 256 272 256ZM256 16C123 16 16 123 16 256S123 496 256 496S496 389 496 256S389 16 256 16ZM256 432C159 432 80 353 80 256S159 80 256 80S432 159 432 256S353 432 256 432Z"/></svg>