<svg xmlns="http://www.w3.org/2000/svg" viewBox="0 0 512 512"><!-- Font Awesome Pro 6.0.0-alpha1 by @fontawesome - https://fontawesome.com License - https://fontawesome.com/license (Commercial License) --><path d="M256 16C123 16 16 123 16 256S123 496 256 496S496 389 496 256S389 16 256 16ZM232 336C232 345 225 352 216 352H168C159 352 152 345 152 336V176C152 167 159 160 168 160H216C225 160 232 167 232 176V336ZM360 336C360 345 353 352 344 352H296C287 352 280 345 280 336V176C280 167 287 160 296 160H344C353 160 360 167 360 176V336Z"/></svg>