<svg xmlns="http://www.w3.org/2000/svg" viewBox="0 0 512 512"><!-- Font Awesome Pro 6.0.0-alpha1 by @fontawesome - https://fontawesome.com License - https://fontawesome.com/license (Commercial License) --><path d="M197 192H315L256 134L197 192ZM256 16C123 16 16 123 16 256S123 496 256 496C389 496 496 389 496 256S389 16 256 16ZM361 319L269 411C266 414 261 416 256 416S246 414 243 411L151 319C140 308 148 288 165 288H348C364 288 372 308 361 319ZM347 224H165C148 224 140 204 151 193L243 101C246 98 251 96 256 96S266 98 269 101L361 193C372 204 364 224 347 224Z"/></svg>