<svg xmlns="http://www.w3.org/2000/svg" viewBox="0 0 512 512"><!-- Font Awesome Pro 6.0.0-alpha1 by @fontawesome - https://fontawesome.com License - https://fontawesome.com/license (Commercial License) --><path d="M256 16C123 16 16 123 16 256S123 496 256 496S496 389 496 256S389 16 256 16ZM328 320H320V360C320 373 309 384 296 384S272 373 272 360V320H170C162 320 154 316 150 309S145 294 148 286L210 142C215 130 229 125 242 130C254 135 259 149 254 161L206 272H272V221C272 208 283 197 296 197S320 208 320 221V272H328C341 272 352 283 352 296S341 320 328 320Z"/></svg>