<svg xmlns="http://www.w3.org/2000/svg" viewBox="0 0 512 512"><!-- Font Awesome Pro 6.0.0-alpha1 by @fontawesome - https://fontawesome.com License - https://fontawesome.com/license (Commercial License) --><path d="M256 16C123 16 16 123 16 256S123 496 256 496S496 389 496 256S389 16 256 16ZM276 242L348 346C355 357 353 372 342 380C338 383 333 384 328 384C320 384 313 380 308 374L239 273L208 304V360C208 373 197 384 184 384S160 373 160 360V152C160 139 171 128 184 128S208 139 208 152V237L311 135C321 126 336 126 345 135C354 145 354 160 345 169L273 240C274 241 275 241 276 242Z"/></svg>