<svg xmlns="http://www.w3.org/2000/svg" viewBox="0 0 512 512"><!-- Font Awesome Pro 6.0.0-alpha1 by @fontawesome - https://fontawesome.com License - https://fontawesome.com/license (Commercial License) --><path d="M256 16C123 16 16 123 16 256S123 496 256 496S496 389 496 256S389 16 256 16ZM352 360C352 370 345 380 335 383C333 384 330 384 328 384C320 384 313 380 308 374L208 229V360C208 373 197 384 184 384S160 373 160 360V152C160 142 167 132 177 129C187 126 198 130 204 138L304 283V152C304 139 315 128 328 128S352 139 352 152V360Z"/></svg>