<svg xmlns="http://www.w3.org/2000/svg" viewBox="0 0 512 512"><!-- Font Awesome Pro 6.0.0-alpha1 by @fontawesome - https://fontawesome.com License - https://fontawesome.com/license (Commercial License) --><path d="M256 16C123 16 16 123 16 256S123 496 256 496S496 389 496 256S389 16 256 16ZM320 384H192C179 384 168 373 168 360S179 336 192 336H232V197L217 207C206 214 191 211 184 200C177 189 180 174 191 167L243 132C250 127 260 127 267 131C275 135 280 143 280 152V336H320C333 336 344 347 344 360S333 384 320 384Z"/></svg>