<svg xmlns="http://www.w3.org/2000/svg" viewBox="0 0 640 512"><!-- Font Awesome Pro 6.0.0-alpha1 by @fontawesome - https://fontawesome.com License - https://fontawesome.com/license (Commercial License) --><path d="M320 16C187 16 80 123 80 256S187 496 320 496S560 389 560 256S453 16 320 16ZM448 275C448 276 448 278 448 279C443 303 430 327 410 347C386 371 354 384 320 384S254 371 230 347C180 297 180 215 230 166C277 118 357 115 408 161C418 169 419 185 410 195C401 204 386 205 376 196C344 168 294 169 263 199C232 231 232 281 263 313C294 343 346 343 377 313C384 305 390 297 394 288H344C331 288 320 277 320 264S331 240 344 240H424C437 240 448 251 448 264V275Z"/></svg>