<svg xmlns="http://www.w3.org/2000/svg" viewBox="0 0 512 512"><!-- Font Awesome Pro 6.0.0-alpha1 by @fontawesome - https://fontawesome.com License - https://fontawesome.com/license (Commercial License) --><path d="M256 16C123 16 16 123 16 256S123 496 256 496S496 389 496 256S389 16 256 16ZM240 352C228 345 189 326 139 348C134 350 128 347 128 342V186C128 180 131 175 137 173C158 164 178 160 196 160C215 160 230 165 240 169V352ZM384 342C384 347 378 350 373 348C323 326 284 345 272 352V169C282 165 297 160 316 160C334 160 354 164 375 173C381 175 384 180 384 186V342Z"/></svg>