<svg xmlns="http://www.w3.org/2000/svg" viewBox="0 0 512 512"><!-- Font Awesome Pro 6.0.0-alpha1 by @fontawesome - https://fontawesome.com License - https://fontawesome.com/license (Commercial License) --><path d="M256 16C123 16 16 123 16 256S123 496 256 496S496 389 496 256S389 16 256 16ZM399 175L335 383C332 393 323 400 312 400H312C301 400 292 393 289 382L256 260L223 382C220 393 211 400 200 400C190 400 180 393 177 383L113 175C109 162 116 149 129 145C142 141 155 148 159 161L198 289L233 162C236 151 245 144 256 144S276 151 279 162L314 289L353 161C357 148 370 141 383 145C396 149 403 162 399 175Z"/></svg>