<svg xmlns="http://www.w3.org/2000/svg" viewBox="0 0 512 512"><!-- Font Awesome Pro 6.0.0-alpha1 by @fontawesome - https://fontawesome.com License - https://fontawesome.com/license (Commercial License) --><path d="M256 16C123 16 16 123 16 256S123 496 256 496S496 389 496 256S389 16 256 16ZM356 378C351 382 346 384 340 384C333 384 327 381 322 376L303 356C289 374 267 384 243 384H211C174 384 144 354 144 317C144 297 153 278 169 265L199 241L188 230C177 218 171 202 171 186C171 154 197 128 229 128H252C284 128 310 154 310 186C310 203 302 220 288 231L268 246L298 279L320 247C327 236 342 233 353 241C364 248 367 263 360 274L331 315L358 344C366 354 366 369 356 378ZM236 211L258 193C260 191 262 189 262 186C262 180 257 176 252 176H229C223 176 219 180 219 186C219 190 221 194 224 197L236 211ZM199 303C195 306 192 311 192 317C192 328 200 336 211 336H243C253 336 263 331 268 323L270 320L231 277L199 303Z"/></svg>