<svg xmlns="http://www.w3.org/2000/svg" viewBox="0 0 384 512"><!-- Font Awesome Pro 6.0.0-alpha1 by @fontawesome - https://fontawesome.com License - https://fontawesome.com/license (Commercial License) --><path d="M336 64H282C269 27 234 0 192 0S115 27 102 64H48C22 64 0 85 0 112V464C0 491 22 512 48 512H336C362 512 384 491 384 464V112C384 85 362 64 336 64ZM192 64C210 64 224 78 224 96C224 114 210 128 192 128S160 114 160 96C160 78 174 64 192 64ZM192 192C227 192 256 221 256 256S227 320 192 320S128 291 128 256S157 192 192 192ZM288 448H96C87 448 80 441 80 432C80 388 116 352 160 352H224C268 352 304 388 304 432C304 441 297 448 288 448Z"/></svg>