<svg xmlns="http://www.w3.org/2000/svg" viewBox="0 0 384 512"><!-- Font Awesome Pro 6.0.0-alpha1 by @fontawesome - https://fontawesome.com License - https://fontawesome.com/license (Commercial License) --><path d="M336 64H282C269 27 234 0 192 0S115 27 102 64H48C22 64 0 85 0 112V464C0 491 22 512 48 512H336C362 512 384 491 384 464V112C384 85 362 64 336 64ZM192 64C210 64 224 78 224 96S210 128 192 128S160 114 160 96S174 64 192 64ZM283 263L195 375C191 380 185 383 178 384C178 384 177 384 176 384C170 384 165 382 160 378L104 330C94 322 93 306 102 296C110 286 126 285 136 294L173 325L245 233C253 223 268 221 279 229C289 237 291 252 283 263Z"/></svg>