<svg xmlns="http://www.w3.org/2000/svg" viewBox="0 0 384 512"><!-- Font Awesome Pro 6.0.0-alpha1 by @fontawesome - https://fontawesome.com License - https://fontawesome.com/license (Commercial License) --><path d="M336 64H282C269 27 234 0 192 0S115 27 102 64H48C22 64 0 85 0 112V464C0 491 22 512 48 512H336C362 512 384 491 384 464V112C384 85 362 64 336 64ZM96 392C83 392 72 381 72 368S83 344 96 344S120 355 120 368S109 392 96 392ZM96 296C83 296 72 285 72 272S83 248 96 248S120 259 120 272S109 296 96 296ZM192 64C210 64 224 78 224 96C224 114 210 128 192 128S160 114 160 96C160 78 174 64 192 64ZM304 384H176C167 384 160 377 160 368C160 359 167 352 176 352H304C313 352 320 359 320 368C320 377 313 384 304 384ZM304 288H176C167 288 160 281 160 272C160 263 167 256 176 256H304C313 256 320 263 320 272C320 281 313 288 304 288Z"/></svg>