<svg xmlns="http://www.w3.org/2000/svg" viewBox="0 0 448 512"><!-- Font Awesome Pro 6.0.0-alpha1 by @fontawesome - https://fontawesome.com License - https://fontawesome.com/license (Commercial License) --><path d="M224 448C348 448 448 348 448 224C448 100 348 0 224 0C100 0 0 100 0 224C0 348 100 448 224 448ZM200 120C200 107 211 96 224 96S248 107 248 120V228L302 269C313 277 315 292 307 302C302 309 295 312 288 312C283 312 278 310 274 307L210 259C204 255 200 248 200 240V120ZM224 480C128 480 44 427 0 348V464C0 490 22 512 48 512H400C426 512 448 490 448 464V348C404 427 320 480 224 480Z"/></svg>