<svg xmlns="http://www.w3.org/2000/svg" viewBox="0 0 512 512"><!-- Font Awesome Pro 6.0.0-alpha1 by @fontawesome - https://fontawesome.com License - https://fontawesome.com/license (Commercial License) --><path d="M416 128C415 128 415 128 414 128C415 123 416 118 416 112C416 68 380 32 336 32C311 32 290 43 275 61C256 25 219 0 176 0C114 0 64 50 64 112C64 119 65 126 66 133C28 146 0 182 0 224C0 277 43 320 96 320H416C469 320 512 277 512 224S469 128 416 128ZM384 352C366 352 352 366 352 384S366 416 384 416S416 402 416 384S402 352 384 352ZM192 448C174 448 160 462 160 480S174 512 192 512S224 498 224 480S210 448 192 448ZM320 448C302 448 288 462 288 480S302 512 320 512S352 498 352 480S338 448 320 448ZM256 352C238 352 224 366 224 384S238 416 256 416S288 402 288 384S274 352 256 352ZM64 448C46 448 32 462 32 480S46 512 64 512S96 498 96 480S82 448 64 448ZM128 352C110 352 96 366 96 384S110 416 128 416S160 402 160 384S146 352 128 352Z"/></svg>