<svg xmlns="http://www.w3.org/2000/svg" viewBox="0 0 512 512"><!-- Font Awesome Pro 6.0.0-alpha1 by @fontawesome - https://fontawesome.com License - https://fontawesome.com/license (Commercial License) --><path d="M248 374C235 419 208 431 208 462C208 490 230 512 256 512S304 490 304 462C304 431 277 419 264 374C262 366 250 366 248 374ZM88 374C75 419 48 431 48 462C48 490 70 512 96 512S144 490 144 462C144 431 117 419 104 374C102 366 90 366 88 374ZM408 374C395 419 368 431 368 462C368 490 390 512 416 512S464 490 464 462C464 431 437 419 424 374C422 366 410 366 408 374ZM416 128C415 128 415 128 414 128C415 123 416 118 416 112C416 68 380 32 336 32C311 32 290 43 275 61C256 25 219 0 176 0C114 0 64 50 64 112C64 119 65 126 66 133C28 146 0 182 0 224C0 277 43 320 96 320H416C469 320 512 277 512 224S469 128 416 128Z"/></svg>