<svg xmlns="http://www.w3.org/2000/svg" viewBox="0 0 512 512"><!-- Font Awesome Pro 6.0.0-alpha1 by @fontawesome - https://fontawesome.com License - https://fontawesome.com/license (Commercial License) --><path d="M87 354C79 350 70 353 66 361L2 489C-2 497 1 506 9 510C11 511 14 512 16 512C22 512 28 509 30 503L94 375C98 367 95 358 87 354ZM512 224C512 171 469 128 416 128C415 128 415 128 414 128C415 123 416 118 416 112C416 68 380 32 336 32C311 32 290 43 275 61C256 25 219 0 176 0C114 0 64 50 64 112C64 119 65 126 66 133C28 146 0 182 0 224C0 277 43 320 96 320H416C469 320 512 277 512 224ZM343 354C335 350 326 353 322 361L258 489C254 497 257 506 265 510C267 511 270 512 272 512C278 512 284 509 286 503L350 375C354 367 351 358 343 354ZM239 389L231 375C229 371 224 370 220 372L192 388V360C192 356 188 352 184 352H168C164 352 160 356 160 360V388L132 372C128 370 123 371 121 375L113 389C111 393 112 398 116 400L144 416L116 432C112 434 111 439 113 443L121 457C123 461 128 462 132 460L160 444V472C160 476 164 480 168 480H184C188 480 192 476 192 472V444L220 460C224 462 229 461 231 457L239 443C241 439 240 434 236 432L208 416L236 400C240 398 241 393 239 389ZM495 389L487 375C485 371 480 370 476 372L448 388V360C448 356 444 352 440 352H424C420 352 416 356 416 360V388L388 372C384 370 379 371 377 375L369 389C367 393 368 398 372 400L400 416L372 432C368 434 367 439 369 443L377 457C379 461 384 462 388 460L416 444V472C416 476 420 480 424 480H440C444 480 448 476 448 472V444L476 460C480 462 485 461 487 457L495 443C497 439 496 434 492 432L464 416L492 400C496 398 497 393 495 389Z"/></svg>