<svg xmlns="http://www.w3.org/2000/svg" viewBox="0 0 640 512"><!-- Font Awesome Pro 6.0.0-alpha1 by @fontawesome - https://fontawesome.com License - https://fontawesome.com/license (Commercial License) --><path d="M538 227C542 216 544 204 544 192C544 139 501 96 448 96C428 96 410 102 395 112C367 64 315 32 256 32C168 32 96 104 96 192C96 195 96 197 96 200C40 220 0 273 0 336C0 415 65 480 144 480H512C583 480 640 423 640 352C640 290 596 238 538 227ZM128 304C128 295 135 288 144 288H272C281 288 288 295 288 304C288 313 281 320 272 320H144C135 320 128 313 128 304ZM208 384H176C167 384 160 377 160 368C160 359 167 352 176 352H208C217 352 224 359 224 368C224 377 217 384 208 384ZM368 384H272C263 384 256 377 256 368C256 359 263 352 272 352H368C377 352 384 359 384 368C384 377 377 384 368 384ZM464 384H432C423 384 416 377 416 368C416 359 423 352 432 352H464C473 352 480 359 480 368C480 377 473 384 464 384ZM496 320H336C327 320 320 313 320 304C320 295 327 288 336 288H496C505 288 512 295 512 304C512 313 505 320 496 320Z"/></svg>