<svg xmlns="http://www.w3.org/2000/svg" viewBox="0 0 576 512"><!-- Font Awesome Pro 6.0.0-alpha1 by @fontawesome - https://fontawesome.com License - https://fontawesome.com/license (Commercial License) --><path d="M568 224C498 237 433 183 433 113C433 72 455 35 490 15C496 12 495 4 488 2C480 1 471 0 462 0C384 0 321 61 317 138C344 150 366 172 376 200C413 214 440 247 447 286C452 287 457 288 462 288C506 288 547 268 574 235C579 230 574 223 568 224ZM276 336H218L236 271C238 263 232 256 224 256H156C150 256 145 261 144 266L128 386C127 394 133 400 140 400H199L176 497C174 505 180 512 188 512C192 512 196 510 198 506L286 354C291 346 285 336 276 336ZM351 226C344 188 311 160 272 160C260 160 248 163 238 168C220 144 192 128 160 128C107 128 64 171 64 224C64 225 64 225 64 226C28 233 0 265 0 304C0 348 36 384 80 384H96C96 383 96 383 96 382L112 262C115 240 134 224 156 224H224C238 224 251 230 259 241C267 252 270 266 267 279L260 304H276C292 304 306 312 314 326C322 340 322 357 314 370L306 384H336C380 384 416 348 416 304C416 265 388 232 351 226Z"/></svg>