<svg xmlns="http://www.w3.org/2000/svg" viewBox="0 0 576 512"><!-- Font Awesome Pro 6.0.0-alpha1 by @fontawesome - https://fontawesome.com License - https://fontawesome.com/license (Commercial License) --><path d="M80 352C54 352 32 374 32 400S54 448 80 448S128 426 128 400S106 352 80 352ZM496 352C470 352 448 374 448 400S470 448 496 448S544 426 544 400S522 352 496 352ZM377 363C382 349 379 332 367 321C356 309 339 306 325 311C318 297 304 288 288 288S258 297 251 311C237 306 220 309 209 321C197 332 194 349 199 363C185 370 176 384 176 400S185 430 199 437C194 451 197 468 209 479C217 487 228 491 238 491C243 491 247 490 251 489C258 502 272 512 288 512S318 502 325 489C329 490 333 491 338 491C348 491 359 487 367 479C379 468 382 451 377 437C391 430 400 416 400 400S390 370 377 363ZM544 224C544 171 501 128 448 128C447 128 447 128 446 128C447 123 448 118 448 112C448 68 412 32 368 32C343 32 322 43 307 61C288 25 251 0 208 0C146 0 96 50 96 112C96 119 97 126 98 133C60 146 32 182 32 224C32 277 75 320 128 320H171C175 312 180 305 186 298C200 285 218 277 237 277C250 264 269 256 288 256S326 264 339 277C358 277 376 285 390 298C396 305 401 312 405 320H448C501 320 544 277 544 224Z"/></svg>