<svg xmlns="http://www.w3.org/2000/svg" viewBox="0 0 640 512"><!-- Font Awesome Pro 6.0.0-alpha1 by @fontawesome - https://fontawesome.com License - https://fontawesome.com/license (Commercial License) --><path d="M160 320H480C533 320 576 277 576 224S533 128 480 128C479 128 479 128 478 128C479 123 480 118 480 112C480 68 444 32 400 32C375 32 354 43 339 61C320 25 283 0 240 0C178 0 128 50 128 112C128 119 129 126 130 133C92 146 64 182 64 224C64 277 107 320 160 320ZM208 464H80C71 464 64 471 64 480V496C64 505 71 512 80 512H208C217 512 224 505 224 496V480C224 471 217 464 208 464ZM624 464H288C279 464 272 471 272 480V496C272 505 279 512 288 512H624C633 512 640 505 640 496V480C640 471 633 464 624 464ZM576 408V392C576 383 569 376 560 376H16C7 376 0 383 0 392V408C0 417 7 424 16 424H560C569 424 576 417 576 408Z"/></svg>