<svg xmlns="http://www.w3.org/2000/svg" viewBox="0 0 576 512"><!-- Font Awesome Pro 6.0.0-alpha1 by @fontawesome - https://fontawesome.com License - https://fontawesome.com/license (Commercial License) --><path d="M343 353C348 343 352 332 352 320C352 285 323 256 288 256C271 256 255 263 244 274C227 244 196 224 160 224C107 224 64 267 64 320C64 322 65 324 65 326C27 339 0 374 0 416C0 469 43 512 96 512H336C380 512 416 476 416 432C416 390 384 356 343 353ZM565 298C472 316 387 245 387 151C387 97 416 47 463 20C470 16 468 5 460 3C448 1 437 0 425 0C319 0 233 86 233 192C233 201 234 209 235 217C241 221 246 226 252 231C263 226 275 224 288 224C341 224 384 267 384 320C384 324 384 327 383 331C407 342 426 360 437 383C491 380 541 354 574 313C579 306 573 297 565 298Z"/></svg>