<svg xmlns="http://www.w3.org/2000/svg" viewBox="0 0 512 512"><!-- Font Awesome Pro 6.0.0-alpha1 by @fontawesome - https://fontawesome.com License - https://fontawesome.com/license (Commercial License) --><path d="M96 320H416C469 320 512 277 512 224S469 128 416 128C415 128 415 128 414 128C415 123 416 118 416 112C416 68 380 32 336 32C311 32 290 43 275 61C256 25 219 0 176 0C114 0 64 50 64 112C64 119 65 126 66 133C28 146 0 182 0 224C0 277 43 320 96 320ZM127 389L119 375C117 371 112 370 108 372L80 388V360C80 356 76 352 72 352H56C52 352 48 356 48 360V388L20 372C16 370 11 371 9 375L1 389C-1 393 0 398 4 400L32 416L4 432C0 434 -1 439 1 443L9 457C11 461 16 462 20 460L48 444V472C48 476 52 480 56 480H72C76 480 80 476 80 472V444L108 460C112 462 117 461 119 457L127 443C129 439 128 434 124 432L96 416L124 400C128 398 129 393 127 389ZM319 421L311 407C309 403 304 402 300 404L272 420V392C272 388 268 384 264 384H248C244 384 240 388 240 392V420L212 404C208 402 203 403 201 407L193 421C191 425 192 430 196 432L224 448L196 464C192 466 191 471 193 475L201 489C203 493 208 494 212 492L240 476V504C240 508 244 512 248 512H264C268 512 272 508 272 504V476L300 492C304 494 309 493 311 489L319 475C321 471 320 466 316 464L288 448L316 432C320 430 321 425 319 421ZM511 389L503 375C501 371 496 370 492 372L464 388V360C464 356 460 352 456 352H440C436 352 432 356 432 360V388L404 372C400 370 395 371 393 375L385 389C383 393 384 398 388 400L416 416L388 432C384 434 383 439 385 443L393 457C395 461 400 462 404 460L432 444V472C432 476 436 480 440 480H456C460 480 464 476 464 472V444L492 460C496 462 501 461 503 457L511 443C513 439 512 434 508 432L480 416L508 400C512 398 513 393 511 389Z"/></svg>