<svg xmlns="http://www.w3.org/2000/svg" viewBox="0 0 512 512"><!-- Font Awesome Pro 6.0.0-alpha1 by @fontawesome - https://fontawesome.com License - https://fontawesome.com/license (Commercial License) --><path d="M337 288H265L287 211C290 201 283 192 273 192H191C183 192 177 198 176 205L160 335C159 344 166 352 175 352H256L224 494C222 503 229 512 239 512C244 512 249 509 252 505L350 311C356 301 349 288 337 288ZM416 128C415 128 415 128 414 128C415 123 416 118 416 112C416 68 380 32 336 32C311 32 290 43 275 61C256 25 219 0 176 0C114 0 64 50 64 112C64 119 65 126 66 133C28 146 0 182 0 224C0 277 43 320 96 320H129L144 201C147 178 167 160 191 160H276C291 160 304 167 313 178C322 190 325 205 321 219L310 260H341C358 260 373 269 382 283C388 295 389 308 386 320H416C469 320 512 277 512 224S469 128 416 128Z"/></svg>