<svg xmlns="http://www.w3.org/2000/svg" viewBox="0 0 640 512"><!-- Font Awesome Pro 6.0.0-alpha1 by @fontawesome - https://fontawesome.com License - https://fontawesome.com/license (Commercial License) --><path d="M156 253C119 215 119 154 156 117C191 82 245 80 283 110C303 97 326 89 352 89C353 89 353 89 354 89L363 62C366 52 357 43 346 46L271 71L236 0C231 -10 217 -10 212 0L177 71L101 46C91 43 82 52 85 62L110 138L39 173C30 178 30 192 39 196L110 232L85 307C82 317 91 327 102 324L161 304C161 302 160 299 160 297C160 284 162 272 166 261C163 258 159 256 156 253ZM226 195C230 170 242 148 258 131C248 124 236 121 224 121C189 121 160 149 160 185C160 203 168 220 181 232C192 216 208 203 226 195ZM468 329H410L428 264C430 256 424 249 416 249H348C342 249 337 253 336 259L320 379C319 386 325 393 332 393H391L368 490C366 498 372 505 380 505C384 505 388 503 390 499L478 347C483 339 477 329 468 329ZM543 218C536 181 503 153 464 153C452 153 440 156 430 161C412 137 384 121 352 121C299 121 256 164 256 217C256 217 256 218 256 218C220 226 192 258 192 297C192 341 228 377 272 377H288C288 376 288 376 288 375L304 255C307 233 326 217 348 217H416C430 217 443 223 451 234C459 245 462 259 459 272L452 297H468C484 297 498 305 506 319C514 332 514 349 506 363L498 377H528C572 377 608 341 608 297C608 258 580 225 543 218Z"/></svg>