<svg xmlns="http://www.w3.org/2000/svg" viewBox="0 0 512 512"><!-- Font Awesome Pro 6.0.0-alpha1 by @fontawesome - https://fontawesome.com License - https://fontawesome.com/license (Commercial License) --><path d="M184 370C176 366 167 368 162 376L98 488C94 496 96 506 104 510C107 511 109 512 112 512C118 512 123 509 126 504L190 392C194 384 192 374 184 370ZM280 370C272 366 263 368 258 376L194 488C190 496 192 506 200 510C203 511 205 512 208 512C214 512 219 509 222 504L286 392C290 384 288 374 280 370ZM88 370C80 366 71 368 66 376L2 488C-2 496 0 506 8 510C11 511 13 512 16 512C22 512 27 509 30 504L94 392C98 384 96 374 88 370ZM472 370C464 366 455 368 450 376L386 488C382 496 384 506 392 510C395 511 397 512 400 512C406 512 411 509 414 504L478 392C482 384 480 374 472 370ZM376 370C368 366 359 368 354 376L290 488C286 496 288 506 296 510C299 511 301 512 304 512C310 512 315 509 318 504L382 392C386 384 384 374 376 370ZM416 128C415 128 415 128 414 128C415 123 416 118 416 112C416 68 380 32 336 32C311 32 290 43 275 61C256 25 219 0 176 0C114 0 64 50 64 112C64 119 65 126 66 133C28 146 0 182 0 224C0 277 43 320 96 320H416C469 320 512 277 512 224S469 128 416 128Z"/></svg>