<svg xmlns="http://www.w3.org/2000/svg" viewBox="0 0 512 512"><!-- Font Awesome Pro 6.0.0-alpha1 by @fontawesome - https://fontawesome.com License - https://fontawesome.com/license (Commercial License) --><path d="M512 288C512 359 455 416 384 416C346 416 311 399 288 372V427C288 439 296 450 308 453L332 459C344 462 352 473 352 485C352 500 340 512 325 512H187C172 512 160 500 160 485C160 473 168 462 180 459L204 453C216 450 224 439 224 427V372C201 399 166 416 128 416C57 416 0 359 0 288S57 160 128 160C130 160 131 160 133 160C130 150 128 139 128 128C128 57 185 0 256 0C327 0 384 57 384 128C384 139 382 150 379 160C381 160 382 160 384 160C455 160 512 217 512 288Z"/></svg>