<svg xmlns="http://www.w3.org/2000/svg" viewBox="0 0 512 512"><!-- Font Awesome Pro 6.0.0-alpha1 by @fontawesome - https://fontawesome.com License - https://fontawesome.com/license (Commercial License) --><path d="M431 178L480 32H88C39 32 0 71 0 120V208C0 217 7 224 16 224H48C57 224 64 217 64 208V136C64 114 82 96 104 96H117L145 178C95 218 64 278 64 345C64 396 83 429 114 462C125 474 139 480 155 480H421C437 480 452 474 462 462C493 430 512 396 512 345C512 278 481 218 431 178ZM446 320H131C137 281 159 247 191 224H387C418 247 439 281 446 320Z"/></svg>