<svg xmlns="http://www.w3.org/2000/svg" viewBox="0 0 512 512"><!-- Font Awesome Pro 6.0.0-alpha1 by @fontawesome - https://fontawesome.com License - https://fontawesome.com/license (Commercial License) --><path d="M0 405V448C0 483 86 512 192 512C298 512 384 483 384 448V405C343 434 267 448 192 448S41 434 0 405ZM320 128C426 128 512 99 512 64S426 0 320 0C214 0 128 29 128 64S214 128 320 128ZM0 300V352C0 387 86 416 192 416C298 416 384 387 384 352V300C343 334 267 352 192 352S41 334 0 300ZM416 311C473 300 512 280 512 256V213C489 230 455 241 416 248V311ZM192 160C86 160 0 196 0 240S86 320 192 320C298 320 384 284 384 240S298 160 192 160ZM411 216C471 206 512 184 512 160V117C477 142 415 156 351 159C381 173 402 193 411 216Z"/></svg>