<svg xmlns="http://www.w3.org/2000/svg" viewBox="0 0 384 512"><!-- Font Awesome Pro 6.0.0-alpha1 by @fontawesome - https://fontawesome.com License - https://fontawesome.com/license (Commercial License) --><path d="M322 350C313 342 301 341 291 347C281 355 269 360 257 363L300 168C308 169 316 167 322 162L345 139C355 128 354 111 342 102C335 96 326 91 318 87L333 19C335 9 328 0 318 0H301C294 0 287 5 286 13L273 70C263 68 252 66 242 65L252 19C254 9 246 0 236 0H220C212 0 206 5 204 13L192 67C153 74 117 92 89 120C52 156 32 205 32 256S52 356 89 392C97 400 106 407 115 413L97 493C95 503 103 512 113 512H129C137 512 143 507 145 499L159 436C169 440 179 443 190 445L179 493C177 503 184 512 194 512H211C218 512 225 507 226 499L238 447C276 445 312 432 342 410C354 401 355 384 345 373L322 350ZM113 256C113 226 125 198 146 177C154 169 162 164 172 159L135 322C121 303 113 280 113 256ZM177 356L224 145C234 145 245 146 255 149L207 365C197 363 186 361 177 356Z"/></svg>