<svg xmlns="http://www.w3.org/2000/svg" viewBox="0 0 576 512"><!-- Font Awesome Pro 6.0.0-alpha1 by @fontawesome - https://fontawesome.com License - https://fontawesome.com/license (Commercial License) --><path d="M416 192C416 104 323 32 208 32S0 104 0 192C0 226 14 258 38 284C25 314 2 338 2 338C0 341 -1 344 1 347C2 350 5 352 8 352C45 352 75 340 97 327C129 343 167 352 208 352C323 352 416 280 416 192ZM191 271V262C183 260 176 258 169 255L166 254C157 251 152 241 155 232C158 223 168 218 177 222L181 223C188 225 195 228 201 229C213 231 226 229 227 222C228 218 228 216 203 208L198 207C183 203 149 192 155 156C158 138 172 126 191 122V113C191 104 199 96 208 96S225 104 225 113V122C230 123 235 125 241 127C250 130 255 140 252 149C249 158 239 162 230 159C225 157 220 156 215 155C203 153 190 155 189 162C188 165 188 168 208 174L213 176C232 181 267 191 261 228C258 246 244 258 225 262V271C225 280 217 288 208 288S191 280 191 271ZM574 466C576 469 577 472 575 475C574 478 571 480 568 480C531 480 501 468 479 455C447 471 409 480 368 480C282 480 208 440 176 382C187 383 197 384 208 384C340 384 448 298 448 192C448 185 447 178 447 172C522 196 576 253 576 320C576 354 562 386 538 412C551 442 574 466 574 466Z"/></svg>