<svg xmlns="http://www.w3.org/2000/svg" viewBox="0 0 512 512"><!-- Font Awesome Pro 6.0.0-alpha1 by @fontawesome - https://fontawesome.com License - https://fontawesome.com/license (Commercial License) --><path d="M256 32C115 32 0 125 0 240C0 290 21 335 57 371C44 421 3 466 2 466C0 469 -1 472 1 475C2 478 5 480 8 480C74 480 124 448 149 429C181 441 218 448 256 448C397 448 512 355 512 240S397 32 256 32ZM64 240C64 231 71 224 80 224H208C217 224 224 231 224 240C224 249 217 256 208 256H80C71 256 64 249 64 240ZM144 320H112C103 320 96 313 96 304C96 295 103 288 112 288H144C153 288 160 295 160 304C160 313 153 320 144 320ZM304 320H208C199 320 192 313 192 304C192 295 199 288 208 288H304C313 288 320 295 320 304C320 313 313 320 304 320ZM400 320H368C359 320 352 313 352 304C352 295 359 288 368 288H400C409 288 416 295 416 304C416 313 409 320 400 320ZM432 256H272C263 256 256 249 256 240C256 231 263 224 272 224H432C441 224 448 231 448 240C448 249 441 256 432 256Z"/></svg>