<svg xmlns="http://www.w3.org/2000/svg" viewBox="0 0 512 512"><!-- Font Awesome Pro 6.0.0-alpha1 by @fontawesome - https://fontawesome.com License - https://fontawesome.com/license (Commercial License) --><path d="M256 32C115 32 0 125 0 240C0 290 21 335 57 371C44 421 3 466 2 466C0 469 -1 472 1 475C2 478 5 480 8 480C74 480 124 448 149 429C181 441 218 448 256 448C397 448 512 355 512 240S397 32 256 32ZM328 264H280V312C280 325 269 336 256 336S232 325 232 312V264H184C171 264 160 253 160 240S171 216 184 216H232V168C232 155 243 144 256 144S280 155 280 168V216H328C341 216 352 227 352 240S341 264 328 264Z"/></svg>