<svg xmlns="http://www.w3.org/2000/svg" viewBox="0 0 640 512"><!-- Font Awesome Pro 6.0.0-alpha1 by @fontawesome - https://fontawesome.com License - https://fontawesome.com/license (Commercial License) --><path d="M64 240C64 290 85 335 121 371C108 421 67 466 66 466C64 469 63 472 65 475C66 478 69 480 72 480C138 480 188 448 213 429C245 441 282 448 320 448C357 448 393 441 425 430L83 162C71 186 64 212 64 240ZM631 469L513 376C552 340 576 292 576 240C576 125 461 32 320 32C252 32 191 54 145 88L39 5C28 -3 13 -1 5 9C-3 20 -1 35 9 43L601 507C612 515 627 513 635 503C643 492 641 477 631 469Z"/></svg>