<svg xmlns="http://www.w3.org/2000/svg" viewBox="0 0 512 512"><!-- Font Awesome Pro 6.0.0-alpha1 by @fontawesome - https://fontawesome.com License - https://fontawesome.com/license (Commercial License) --><path d="M256 32C115 32 0 125 0 240C0 290 21 335 57 371C44 421 3 466 2 466C0 469 -1 472 1 475C2 478 5 480 8 480C74 480 124 448 149 429C181 441 218 448 256 448C397 448 512 355 512 240S397 32 256 32ZM240 256C240 300 204 336 160 336H156C149 336 144 331 144 324V300C144 293 149 288 156 288H160C178 288 192 274 192 256V240H152C139 240 128 229 128 216V168C128 155 139 144 152 144H216C229 144 240 155 240 168V256ZM384 256C384 300 348 336 304 336H300C293 336 288 331 288 324V300C288 293 293 288 300 288H304C322 288 336 274 336 256V240H296C283 240 272 229 272 216V168C272 155 283 144 296 144H360C373 144 384 155 384 168V256Z"/></svg>