<svg xmlns="http://www.w3.org/2000/svg" viewBox="0 0 512 512"><!-- Font Awesome Pro 6.0.0-alpha1 by @fontawesome - https://fontawesome.com License - https://fontawesome.com/license (Commercial License) --><path d="M256 32C115 32 0 125 0 240C0 290 21 335 57 371C44 421 3 466 2 466C0 469 -1 472 1 475C2 478 5 480 8 480C74 480 124 448 149 429C181 441 218 448 256 448C397 448 512 355 512 240S397 32 256 32ZM167 272C164 292 146 304 122 304C118 304 114 304 109 303C101 302 93 299 86 296C77 293 71 283 74 275S85 262 93 265C100 267 108 270 114 271C126 273 135 271 136 266C137 261 125 258 111 254C99 251 67 241 73 208C77 185 100 172 131 177C137 178 143 180 149 182C158 185 162 194 159 202C156 211 147 215 139 212C134 211 130 209 126 209C114 207 105 209 104 214C103 219 114 222 124 225C141 229 173 239 167 272ZM320 288C320 297 313 304 304 304S288 297 288 288V240L269 266C263 274 249 274 243 266L224 240V288C224 297 217 304 208 304S192 297 192 288V192C192 185 196 179 203 177C209 175 217 177 221 182L256 229L291 182C295 177 303 175 309 177C316 179 320 185 320 192V288ZM439 272C436 292 418 304 394 304C390 304 386 304 381 303C373 302 365 299 358 296C349 293 343 283 346 275S357 262 365 265C372 267 380 270 386 271C398 273 407 271 408 266C409 261 397 258 383 254C371 251 339 241 345 208C349 185 372 172 403 177C409 178 415 180 421 182C430 185 434 194 431 202C428 211 419 215 411 212C406 211 402 209 398 209C386 207 377 209 376 214C375 219 386 222 396 225C413 229 445 239 439 272Z"/></svg>