<svg xmlns="http://www.w3.org/2000/svg" viewBox="0 0 512 512"><!-- Font Awesome Pro 6.0.0-alpha1 by @fontawesome - https://fontawesome.com License - https://fontawesome.com/license (Commercial License) --><path d="M256 32C115 32 0 125 0 240C0 290 21 335 57 371C44 421 3 466 2 466C0 469 -1 472 1 475C2 478 5 480 8 480C74 480 124 448 149 429C181 441 218 448 256 448C397 448 512 355 512 240S397 32 256 32ZM346 200L250 312C246 317 240 320 233 320C233 320 232 320 232 320C226 320 220 317 215 313L167 265C158 256 158 240 167 231S192 222 201 231L231 261L310 168C318 158 334 157 344 166C354 174 355 190 346 200Z"/></svg>