<svg xmlns="http://www.w3.org/2000/svg" viewBox="0 0 448 512"><!-- Font Awesome Pro 6.0.0-alpha1 by @fontawesome - https://fontawesome.com License - https://fontawesome.com/license (Commercial License) --><path d="M416 0H32C14 0 0 14 0 32V400C0 409 7 416 16 416H432C441 416 448 409 448 400V32C448 14 434 0 416 0ZM80 356C69 356 60 347 60 336S69 316 80 316S100 325 100 336S91 356 80 356ZM384 344C384 348 380 352 376 352H232C228 352 224 348 224 344V328C224 324 228 320 232 320H376C380 320 384 324 384 328V344ZM384 224C384 242 370 256 352 256H96C78 256 64 242 64 224V96C64 78 78 64 96 64H352C370 64 384 78 384 96V224ZM32 512H416V448H32V512Z"/></svg>