<svg xmlns="http://www.w3.org/2000/svg" viewBox="0 0 512 512"><!-- Font Awesome Pro 6.0.0-alpha1 by @fontawesome - https://fontawesome.com License - https://fontawesome.com/license (Commercial License) --><path d="M457 344C432 365 404 382 374 393L429 488L483 511C493 515 504 508 505 498L512 440L457 344ZM499 250C504 242 501 232 493 227L465 212C458 208 449 210 444 218C403 281 332 320 256 320C232 320 209 316 187 308L254 192H258L309 280C340 271 369 254 392 231L340 142C347 128 352 113 352 96C352 43 309 0 256 0S160 43 160 96C160 113 165 128 172 142L104 260C91 248 80 235 70 221C65 214 56 211 49 216L21 232C13 236 10 247 15 254C31 278 50 298 71 316L0 440L7 498C8 508 19 515 29 511L83 488L154 365C186 377 221 384 256 384C355 384 447 333 499 250ZM256 64C274 64 288 78 288 96S274 128 256 128C238 128 224 114 224 96S238 64 256 64Z"/></svg>