<svg xmlns="http://www.w3.org/2000/svg" viewBox="0 0 512 512"><!-- Font Awesome Pro 6.0.0-alpha1 by @fontawesome - https://fontawesome.com License - https://fontawesome.com/license (Commercial License) --><path d="M256 16C123 16 16 123 16 256S123 496 256 496S496 389 496 256S389 16 256 16ZM81 256H80C71 256 63 248 64 239C72 146 146 72 239 64C248 63 256 71 256 80V80C256 88 250 95 242 96C165 103 103 164 96 241C95 250 89 256 81 256ZM256 352C203 352 160 309 160 256S203 160 256 160S352 203 352 256S309 352 256 352ZM256 224C238 224 224 238 224 256S238 288 256 288C274 288 288 274 288 256S274 224 256 224Z"/></svg>