<svg xmlns="http://www.w3.org/2000/svg" viewBox="0 0 640 512"><!-- Font Awesome Pro 6.0.0-alpha1 by @fontawesome - https://fontawesome.com License - https://fontawesome.com/license (Commercial License) --><path d="M220 382C203 390 186 373 194 356L230 277L96 172C86 198 80 226 80 256C80 389 187 496 320 496C370 496 417 480 456 454L311 341L220 382ZM631 469L523 384C546 347 560 303 560 256C560 123 453 16 320 16C252 16 191 45 147 90L39 5C28 -3 13 -1 5 9C-3 20 -1 35 9 43L601 507C612 515 627 513 635 503C643 492 641 477 631 469ZM446 156L389 280L351 250C350 244 347 238 343 233C336 227 327 224 318 224L280 194L420 130C437 122 454 139 446 156Z"/></svg>