<svg xmlns="http://www.w3.org/2000/svg" viewBox="0 0 640 512"><!-- Font Awesome Pro 6.0.0-alpha1 by @fontawesome - https://fontawesome.com License - https://fontawesome.com/license (Commercial License) --><path d="M608 80V48C608 39 601 32 592 32H48C39 32 32 39 32 48V80C32 89 39 96 48 96V416C39 416 32 423 32 432V464C32 473 39 480 48 480H592C601 480 608 473 608 464V432C608 423 601 416 592 416V96C601 96 608 89 608 80ZM144 416H112V96H144V416ZM240 416H208V96H240V416ZM336 416H304V96H336V416ZM432 416H400V96H432V416ZM528 416H496V96H528V416Z"/></svg>