<svg xmlns="http://www.w3.org/2000/svg" viewBox="0 0 640 512"><!-- Font Awesome Pro 6.0.0-alpha1 by @fontawesome - https://fontawesome.com License - https://fontawesome.com/license (Commercial License) --><path d="M592 224C566 224 544 246 544 272V352H96V272C96 246 74 224 48 224S0 246 0 272V464C0 473 7 480 16 480H80C89 480 96 473 96 464V448H544V464C544 473 551 480 560 480H624C633 480 640 473 640 464V272C640 246 618 224 592 224ZM128 272V320H512V272C512 233 540 201 576 194V160C576 89 519 32 448 32H192C121 32 64 89 64 160V194C100 201 128 233 128 272Z"/></svg>