<svg xmlns="http://www.w3.org/2000/svg" viewBox="0 0 640 512"><!-- Font Awesome Pro 6.0.0-alpha1 by @fontawesome - https://fontawesome.com License - https://fontawesome.com/license (Commercial License) --><path d="M634 277L624 263V186C624 174 611 166 601 172C590 177 581 185 574 195L509 104C491 79 462 64 431 64H112C63 64 24 103 24 152V238C10 250 0 268 0 288V320H8C43 320 72 291 72 256V152C72 135 82 121 97 115C97 119 96 123 96 128V432C96 441 103 448 112 448H176C185 448 192 441 192 432V320C201 329 212 337 224 342V368C224 377 231 384 240 384C249 384 256 377 256 368V351C265 352 269 353 288 351V368C288 377 295 384 304 384C313 384 320 377 320 368V342C332 337 343 329 352 320V432C352 441 359 448 368 448H432C441 448 448 441 448 432V256L480 288V330C480 342 484 354 491 365L532 427C541 440 555 448 571 448C594 448 613 432 618 410L639 301C641 293 639 284 634 277ZM377 167L354 190C333 212 303 224 272 224H272C241 224 211 212 190 190L167 167C151 152 165 128 189 128H355C379 128 393 152 377 167ZM576 352C567 352 560 345 560 336S567 320 576 320S592 327 592 336S585 352 576 352Z"/></svg>