<svg xmlns="http://www.w3.org/2000/svg" viewBox="0 0 640 512"><!-- Font Awesome Pro 6.0.0-alpha1 by @fontawesome - https://fontawesome.com License - https://fontawesome.com/license (Commercial License) --><path d="M288 352C288 277 331 212 395 180L384 122C382 107 368 96 353 96H337V48C337 22 315 0 289 0H161C134 0 113 22 113 48V96H95C80 96 66 107 64 122L0 474C-3 493 11 512 32 512H374C322 478 288 419 288 352ZM288 96H160V48H288V96ZM480 192C392 192 320 264 320 352S392 512 480 512S640 440 640 352S568 192 480 192ZM560 352C560 361 553 368 544 368H496V416C496 425 489 432 480 432H480C471 432 464 425 464 416V368H416C407 368 400 361 400 352V352C400 343 407 336 416 336H464V288C464 279 471 272 480 272H480C489 272 496 279 496 288V336H544C553 336 560 343 560 352L560 352Z"/></svg>