<svg xmlns="http://www.w3.org/2000/svg" viewBox="0 0 576 512"><!-- Font Awesome Pro 6.0.0-alpha1 by @fontawesome - https://fontawesome.com License - https://fontawesome.com/license (Commercial License) --><path d="M512 32H64C29 32 0 61 0 96V416C0 451 29 480 64 480H512C547 480 576 451 576 416V96C576 61 547 32 512 32ZM64 272C64 263 71 256 80 256H176C185 256 192 263 192 272V304C192 313 185 320 176 320H80C71 320 64 313 64 304V272ZM160 408C160 412 156 416 152 416H72C68 416 64 412 64 408V392C64 388 68 384 72 384H152C156 384 160 388 160 392V408ZM352 408C352 412 348 416 344 416H200C196 416 192 412 192 408V392C192 388 196 384 200 384H344C348 384 352 388 352 392V408ZM384 304C384 313 377 320 368 320H240C231 320 224 313 224 304V272C224 263 231 256 240 256H368C377 256 384 263 384 272V304ZM512 304C512 313 505 320 496 320H432C423 320 416 313 416 304V272C416 263 423 256 432 256H496C505 256 512 263 512 272V304ZM512 176C512 185 505 192 496 192H400C391 192 384 185 384 176V112C384 103 391 96 400 96H496C505 96 512 103 512 112V176Z"/></svg>