<svg xmlns="http://www.w3.org/2000/svg" viewBox="0 0 512 512"><!-- Font Awesome Pro 6.0.0-alpha1 by @fontawesome - https://fontawesome.com License - https://fontawesome.com/license (Commercial License) --><path d="M512 376V424C512 437 501 448 488 448H448V488C448 501 437 512 424 512H376C363 512 352 501 352 488V205L205 352H320V448H88C75 448 64 437 64 424V160H24C11 160 0 149 0 136V88C0 75 11 64 24 64H64V24C64 11 75 0 88 0H136C149 0 160 11 160 24V307L307 160H192V64H403L462 5C468 -2 478 -2 485 5L507 27C514 34 514 44 507 50L448 109V352H488C501 352 512 363 512 376Z"/></svg>