<svg xmlns="http://www.w3.org/2000/svg" viewBox="0 0 384 512"><!-- Font Awesome Pro 6.0.0-alpha1 by @fontawesome - https://fontawesome.com License - https://fontawesome.com/license (Commercial License) --><path d="M358 390C372 404 370 427 354 438C317 465 271 480 224 480C164 480 108 457 66 414C23 372 0 316 0 256S23 140 66 98C108 55 164 32 224 32C271 32 317 47 354 74C370 85 372 108 358 122L346 134C335 145 318 146 305 137C281 121 253 112 224 112C186 112 149 127 122 154C95 181 80 218 80 256S95 331 122 358C133 369 146 378 160 384V240C160 231 167 224 176 224H208C216 224 223 230 224 238C234 234 245 232 256 232C284 232 310 244 328 264C335 272 332 284 324 289L295 305C289 309 282 308 277 303C271 299 264 296 256 296C238 296 224 310 224 328V400C253 400 281 391 305 375C318 366 335 367 346 378L358 390Z"/></svg>