<svg xmlns="http://www.w3.org/2000/svg" viewBox="0 0 576 512"><!-- Font Awesome Pro 6.0.0-alpha1 by @fontawesome - https://fontawesome.com License - https://fontawesome.com/license (Commercial License) --><path d="M480 224C480 189 451 160 416 160H224V128C224 110 238 96 256 96H400C409 96 416 89 416 80V48C416 39 409 32 400 32H256C203 32 160 75 160 128V160C125 160 96 189 96 224C43 224 0 267 0 320V336H576V320C576 267 533 224 480 224ZM0 384C0 437 43 480 96 480H480C533 480 576 437 576 384V368H0V384Z"/></svg>