<svg xmlns="http://www.w3.org/2000/svg" viewBox="0 0 576 512"><!-- Font Awesome Pro 6.0.0-alpha1 by @fontawesome - https://fontawesome.com License - https://fontawesome.com/license (Commercial License) --><path d="M503 64H196C179 64 163 71 151 83L0 233C-13 246 -13 266 0 279L151 429C163 441 179 448 196 448H503C538 448 567 419 567 384V128C567 93 538 64 503 64ZM432 311C441 320 441 336 432 345C427 350 421 352 415 352S402 350 398 345L343 290L288 345C283 350 277 352 271 352S258 350 254 345C244 336 244 320 254 311L309 256L254 201C244 192 244 176 254 167S278 158 288 167L343 222L398 167C407 158 422 158 432 167S441 192 432 201L377 256L432 311Z"/></svg>