<svg xmlns="http://www.w3.org/2000/svg" viewBox="0 0 512 512"><!-- Font Awesome Pro 6.0.0-alpha1 by @fontawesome - https://fontawesome.com License - https://fontawesome.com/license (Commercial License) --><path d="M495 225L478 226C473 187 457 150 434 120L447 109C454 103 454 92 448 86L426 64C420 58 409 58 403 65L392 78C362 55 325 39 286 34L287 17C287 8 280 0 271 0H241C232 0 224 8 225 17L226 34C187 39 150 55 120 78L109 65C103 58 92 58 86 64L64 86C58 92 58 103 65 109L78 120C55 150 39 187 34 226L17 225C8 225 0 232 0 241V271C0 280 8 288 17 287L34 286C39 325 55 362 78 392L65 403C58 409 58 420 64 426L86 448C92 454 103 454 109 447L120 434C150 457 187 473 226 478L225 495C225 504 232 512 241 512H271C280 512 288 504 287 495L286 478C325 473 362 457 392 434L403 447C409 454 420 454 426 448L448 426C454 420 454 409 447 403L434 392C457 362 473 325 478 286L495 287C504 287 512 280 512 271V241C512 232 504 225 495 225ZM282 99C307 103 330 112 349 126L307 175C298 169 288 165 278 163L282 99ZM230 99L234 163C224 165 214 169 206 175L163 126C182 112 205 103 230 99ZM126 163L175 206C169 214 165 224 163 234L99 230C103 205 112 182 126 163ZM99 282L163 278C165 288 169 298 175 307L126 349C112 330 103 307 99 282ZM230 413C205 409 182 400 163 386L205 337C214 343 224 347 234 349L230 413ZM256 288C238 288 224 274 224 256S238 224 256 224S288 238 288 256S274 288 256 288ZM282 413L278 349C288 347 298 343 307 337L349 386C330 400 307 409 282 413ZM386 349L337 306C343 298 347 288 349 278L413 282C409 307 400 330 386 349ZM349 234C347 224 343 214 337 205L386 163C400 182 409 205 413 230L349 234Z"/></svg>