<svg xmlns="http://www.w3.org/2000/svg" viewBox="0 0 576 512"><!-- Font Awesome Pro 6.0.0-alpha1 by @fontawesome - https://fontawesome.com License - https://fontawesome.com/license (Commercial License) --><path d="M288 64C306 64 320 50 320 32S306 0 288 0C270 0 256 14 256 32S270 64 288 64ZM32 256C14 256 0 270 0 288C0 306 14 320 32 320S64 306 64 288C64 270 50 256 32 256ZM544 256C526 256 512 270 512 288C512 306 526 320 544 320S576 306 576 288C576 270 562 256 544 256ZM446 84C434 97 434 117 446 130C459 142 479 142 492 130C504 117 504 97 492 84S459 72 446 84ZM84 446C72 459 72 479 84 492C97 504 117 504 130 492C142 479 142 459 130 446C117 434 97 434 84 446ZM446 446C434 459 434 479 446 492C459 504 479 504 492 492C504 479 504 459 492 446C479 434 459 434 446 446ZM130 130C142 117 142 97 130 84C117 72 97 72 84 84S72 117 84 130C97 142 117 142 130 130ZM288 448C376 448 448 376 448 288C448 250 434 215 411 187L299 299C293 306 283 306 277 299S270 283 277 277L389 165C361 142 326 128 288 128C200 128 128 200 128 288C128 376 200 448 288 448Z"/></svg>