<svg xmlns="http://www.w3.org/2000/svg" viewBox="0 0 512 512"><!-- Font Awesome Pro 6.0.0-alpha1 by @fontawesome - https://fontawesome.com License - https://fontawesome.com/license (Commercial License) --><path d="M114 329L169 500L83 458C73 452 60 439 54 429L7 334C2 325 0 315 0 305V215L114 329ZM131 301L8 177L59 74L240 139V246L131 301ZM256 111L90 51L178 7C187 2 197 0 207 0H305H305C313 0 326 3 334 7L422 51L256 111ZM365 328L306 512H206L147 328L256 274L365 328ZM272 139L453 74L504 177L381 301L272 246V139ZM512 215V305C512 313 509 326 505 334L458 429C452 439 439 452 429 458L343 500L398 329L512 215Z"/></svg>