<svg xmlns="http://www.w3.org/2000/svg" viewBox="0 0 512 512"><!-- Font Awesome Pro 6.0.0-alpha1 by @fontawesome - https://fontawesome.com License - https://fontawesome.com/license (Commercial License) --><path d="M151 262L239 324V503C239 511 231 515 225 510L3 308C-2 303 0 294 7 292L151 262ZM3 241L195 7C201 0 212 6 209 16L141 228L11 255C3 257 -2 247 3 241ZM337 236L256 293L175 236L248 6C251 -2 261 -2 264 6L337 236ZM509 308L287 510C281 515 273 511 273 503V324L361 262L505 292C512 294 514 303 509 308ZM303 16C300 6 311 0 317 7L509 241C514 247 509 257 501 255L371 228L303 16Z"/></svg>