<svg xmlns="http://www.w3.org/2000/svg" viewBox="0 0 448 512"><!-- Font Awesome Pro 6.0.0-alpha1 by @fontawesome - https://fontawesome.com License - https://fontawesome.com/license (Commercial License) --><path d="M12 155L208 271V495C208 508 195 516 184 510L32 417C12 405 0 383 0 360V162C0 155 7 151 12 155ZM422 124L224 243L26 124C21 121 21 113 26 110L192 9C212 -3 236 -3 256 9L422 110C428 113 427 121 422 124ZM448 162V360C448 383 436 405 416 417L264 510C253 516 240 508 240 495V271L436 155C441 151 448 155 448 162Z"/></svg>