<svg xmlns="http://www.w3.org/2000/svg" viewBox="0 0 640 512"><!-- Font Awesome Pro 6.0.0-alpha1 by @fontawesome - https://fontawesome.com License - https://fontawesome.com/license (Commercial License) --><path d="M539 144H473C478 134 480 123 480 112C480 68 444 32 400 32C368 32 346 47 320 79C294 47 272 32 240 32C196 32 160 68 160 112C160 123 162 134 167 144H96C43 144 0 192 0 272S43 416 96 416L256 382V480L320 448L384 480V382L539 416C595 416 640 352 640 272C640 192 595 144 539 144ZM256 316L93 351C85 346 64 320 64 272C64 219 90 208 96 208H256V316ZM240 144C222 144 208 129 208 112S222 80 240 80C255 80 267 83 307 144H240ZM333 144C373 83 385 80 400 80C418 80 432 95 432 112S418 143 400 143H333ZM543 351L384 316V208H539C552 208 576 223 576 272C576 317 556 346 543 351Z"/></svg>