<svg xmlns="http://www.w3.org/2000/svg" viewBox="0 0 576 512"><!-- Font Awesome Pro 6.0.0-alpha1 by @fontawesome - https://fontawesome.com License - https://fontawesome.com/license (Commercial License) --><path d="M528 0H48C22 0 0 22 0 48V368C0 394 22 416 48 416H240L224 464H152C139 464 128 475 128 488S139 512 152 512H424C437 512 448 501 448 488S437 464 424 464H352L336 416H528C554 416 576 394 576 368V48C576 22 554 0 528 0ZM512 352H64V64H512V352ZM208 240H256V288C256 297 263 304 272 304H304C313 304 320 297 320 288V240H368C377 240 384 233 384 224V192C384 183 377 176 368 176H320V128C320 119 313 112 304 112H272C263 112 256 119 256 128V176H208C199 176 192 183 192 192V224C192 233 199 240 208 240Z"/></svg>