<svg xmlns="http://www.w3.org/2000/svg" viewBox="0 0 576 512"><!-- Font Awesome Pro 6.0.0-alpha1 by @fontawesome - https://fontawesome.com License - https://fontawesome.com/license (Commercial License) --><path d="M298 224L448 278V496C448 505 441 512 432 512H368C359 512 352 505 352 496V384H192V496C192 505 185 512 176 512H112C103 512 96 505 96 496V282C59 269 32 234 32 192C32 174 46 160 64 160S96 174 96 192S110 224 128 224H298ZM544 112V144C544 179 515 208 480 208H448V244L320 198V48C320 34 337 27 347 37L375 64H428C439 64 452 72 457 82L464 96H528C537 96 544 103 544 112ZM432 112C432 103 425 96 416 96S400 103 400 112S407 128 416 128S432 121 432 112Z"/></svg>