<svg xmlns="http://www.w3.org/2000/svg" viewBox="0 0 576 512"><!-- Font Awesome Pro 6.0.0-alpha1 by @fontawesome - https://fontawesome.com License - https://fontawesome.com/license (Commercial License) --><path d="M575 326L565 296C562 288 553 283 545 286L331 357C314 335 288 321 258 320L158 22C154 9 142 0 128 0H16C7 0 0 7 0 16V48C0 57 7 64 16 64H105L197 341C171 361 155 394 161 431C167 471 199 504 238 510C299 521 351 476 352 418L565 347C573 344 578 335 575 326ZM256 448C238 448 224 434 224 416C224 398 238 384 256 384S288 398 288 416C288 434 274 448 256 448Z"/></svg>