<svg xmlns="http://www.w3.org/2000/svg" viewBox="0 0 320 512"><!-- Font Awesome Pro 6.0.0-alpha1 by @fontawesome - https://fontawesome.com License - https://fontawesome.com/license (Commercial License) --><path d="M298 375C282 419 239 447 192 448V496C192 505 185 512 176 512H144C135 512 128 505 128 496V448C104 448 81 442 60 431C42 420 39 395 54 380L66 368C75 359 89 356 101 361C109 366 119 368 128 368H194C211 368 224 355 224 338C224 326 215 314 203 310L100 280C56 267 21 230 16 184C11 119 62 64 125 64H128V16C128 7 135 0 144 0H176C185 0 192 7 192 16V64C216 64 239 70 259 81C278 92 281 117 266 132L254 144C245 153 231 156 219 151C211 146 201 144 192 144H125C109 144 96 157 96 174C96 186 105 198 117 202L225 233C283 250 319 314 298 375Z"/></svg>