<svg xmlns="http://www.w3.org/2000/svg" viewBox="0 0 384 512"><!-- Font Awesome Pro 6.0.0-alpha1 by @fontawesome - https://fontawesome.com License - https://fontawesome.com/license (Commercial License) --><path d="M368 432H16C7 432 0 439 0 448V464C0 473 7 480 16 480H368C377 480 384 473 384 464V448C384 439 377 432 368 432ZM192 400C216 400 238 393 257 382C260 392 269 400 280 400H296C309 400 320 389 320 376V112H336C345 112 352 105 352 96V80C352 71 345 64 336 64H320V56C320 43 309 32 296 32H280C267 32 256 43 256 56V64H208C199 64 192 71 192 80V96C192 105 199 112 208 112H256V162C237 151 215 144 192 144C121 144 64 201 64 272C64 343 121 400 192 400ZM192 224C218 224 240 246 240 272S218 320 192 320S144 298 144 272S166 224 192 224Z"/></svg>