<svg xmlns="http://www.w3.org/2000/svg" viewBox="0 0 384 512"><!-- Font Awesome Pro 6.0.0-alpha1 by @fontawesome - https://fontawesome.com License - https://fontawesome.com/license (Commercial License) --><path d="M328 288H256V160C256 142 242 128 224 128H160C142 128 128 142 128 160V288H56C46 288 38 294 34 303C30 311 32 322 39 329L175 473C184 482 200 482 209 473L345 329C352 322 354 312 350 303C346 294 338 288 328 288ZM368 32H16C7 32 0 39 0 48V80C0 89 7 96 16 96H368C377 96 384 89 384 80V48C384 39 377 32 368 32Z"/></svg>