<svg xmlns="http://www.w3.org/2000/svg" viewBox="0 0 512 512"><!-- Font Awesome Pro 6.0.0-alpha1 by @fontawesome - https://fontawesome.com License - https://fontawesome.com/license (Commercial License) --><path d="M216 263H80C67 263 55 270 50 282C45 294 48 308 57 317L87 347L9 425C-3 438 -3 458 9 471L32 493C44 506 65 506 77 493L155 415L185 445C191 451 200 455 208 455C212 455 216 454 220 452C232 447 240 436 240 423V287C240 273 229 263 216 263ZM296 231H432C445 231 457 223 462 211C467 199 464 185 455 176L425 146L503 68C515 55 515 35 503 23L480 0C467 -13 447 -13 435 0L357 78L327 48C317 39 304 36 292 41C280 46 272 58 272 71V207C272 220 283 231 296 231Z"/></svg>