<svg xmlns="http://www.w3.org/2000/svg" viewBox="0 0 384 512"><!-- Font Awesome Pro 6.0.0-alpha1 by @fontawesome - https://fontawesome.com License - https://fontawesome.com/license (Commercial License) --><path d="M368 416H16C7 416 0 423 0 432V464C0 473 7 480 16 480H368C377 480 384 473 384 464V432C384 423 377 416 368 416ZM328 192H256V64C256 46 242 32 224 32H160C142 32 128 46 128 64V192H56C46 192 38 198 34 207C30 215 32 226 39 233L175 377C184 386 200 386 209 377L345 233C352 226 354 215 350 207C346 198 338 192 328 192Z"/></svg>