<svg xmlns="http://www.w3.org/2000/svg" viewBox="0 0 448 512"><!-- Font Awesome Pro 6.0.0-alpha1 by @fontawesome - https://fontawesome.com License - https://fontawesome.com/license (Commercial License) --><path d="M416 361V151C435 140 448 120 448 96C448 61 419 32 384 32C360 32 340 45 329 64H119C108 45 88 32 64 32C29 32 0 61 0 96C0 120 13 140 32 151V361C13 372 0 392 0 416C0 451 29 480 64 480C88 480 108 467 119 448H329C340 467 360 480 384 480C419 480 448 451 448 416C448 392 435 372 416 361ZM96 361V151C106 146 114 138 119 128H329C334 138 342 146 352 151V361C342 367 334 374 329 384H119C114 374 106 366 96 361ZM400 96C400 105 393 112 384 112S368 105 368 96S375 80 384 80S400 87 400 96ZM64 80C73 80 80 87 80 96S73 112 64 112S48 105 48 96S55 80 64 80ZM48 416C48 407 55 400 64 400S80 407 80 416S73 432 64 432S48 425 48 416ZM384 432C375 432 368 425 368 416S375 400 384 400S400 407 400 416S393 432 384 432Z"/></svg>