<svg xmlns="http://www.w3.org/2000/svg" viewBox="0 0 512 512"><!-- Font Awesome Pro 6.0.0-alpha1 by @fontawesome - https://fontawesome.com License - https://fontawesome.com/license (Commercial License) --><path d="M512 256C512 229 495 206 472 197C451 121 391 61 315 40C306 17 283 0 256 0C229 0 206 17 197 40C121 61 61 121 40 197C17 206 0 229 0 256S17 306 40 315C61 391 121 451 197 472C206 495 229 512 256 512C283 512 306 495 315 472C391 451 451 391 472 315C495 306 512 283 512 256ZM448 240C457 240 464 247 464 256C464 265 457 272 448 272S432 265 432 256C432 247 439 240 448 240ZM272 64C272 73 265 80 256 80C247 80 240 73 240 64S247 48 256 48C265 48 272 55 272 64ZM64 272C55 272 48 265 48 256C48 247 55 240 64 240S80 247 80 256C80 265 73 272 64 272ZM240 448C240 439 247 432 256 432C265 432 272 439 272 448S265 464 256 464C247 464 240 457 240 448ZM305 407C293 393 276 384 256 384C236 384 219 393 207 407C158 392 120 354 105 305C119 293 128 276 128 256S119 219 105 207C120 158 158 120 207 105C219 119 236 128 256 128C276 128 293 119 305 105C354 120 392 158 407 207C393 219 384 236 384 256S393 293 407 305C392 354 354 392 305 407Z"/></svg>