<svg xmlns="http://www.w3.org/2000/svg" viewBox="0 0 640 512"><!-- Font Awesome Pro 6.0.0-alpha1 by @fontawesome - https://fontawesome.com License - https://fontawesome.com/license (Commercial License) --><path d="M144 334C144 432 223 512 320 512C373 512 420 488 452 451L175 234C157 264 144 295 144 334ZM631 469L494 362C495 353 496 343 496 334C496 222 396 181 349 22C341 -7 300 -8 291 22C274 78 251 119 228 154L39 5C34 2 29 0 24 0C17 0 10 3 5 9C-3 20 -1 35 9 43L601 507C612 515 627 513 635 503C643 492 641 477 631 469Z"/></svg>