<svg xmlns="http://www.w3.org/2000/svg" viewBox="0 0 512 512"><!-- Font Awesome Pro 6.0.0-alpha1 by @fontawesome - https://fontawesome.com License - https://fontawesome.com/license (Commercial License) --><path d="M431 122L505 75C512 70 514 60 509 53L500 39C495 32 486 30 478 35L368 106C318 97 271 96 256 96C219 96 0 101 0 208V368C0 399 27 426 72 446V344C72 331 83 320 96 320C109 320 120 331 120 344V463C153 472 191 478 232 480V376C232 363 243 352 256 352S280 363 280 376V480C321 478 359 472 392 463V344C392 331 403 320 416 320C429 320 440 331 440 344V446C484 426 512 399 512 368V208C512 165 476 138 431 122ZM256 272C141 272 48 244 48 208S141 144 256 144C273 144 290 145 306 146L233 193C226 198 223 208 228 215L237 228C242 236 252 238 259 233L378 156C430 168 464 187 464 208C464 244 371 272 256 272Z"/></svg>