<svg xmlns="http://www.w3.org/2000/svg" viewBox="0 0 512 512"><!-- Font Awesome Pro 6.0.0-alpha1 by @fontawesome - https://fontawesome.com License - https://fontawesome.com/license (Commercial License) --><path d="M512 124C470 102 418 107 383 141C342 182 342 248 382 292C362 299 341 302 320 302H234L194 343C184 353 183 367 188 380C198 406 189 437 165 452S109 465 89 445C74 429 69 408 74 389C54 393 33 389 18 373C-3 353 -6 322 10 298C26 274 56 264 83 275C95 280 110 278 119 269L160 228V142C160 78 188 35 223 0C290 -66 397 -66 463 0C497 34 513 80 512 124Z"/></svg>