<svg xmlns="http://www.w3.org/2000/svg" viewBox="0 0 576 512"><!-- Font Awesome Pro 6.0.0-alpha1 by @fontawesome - https://fontawesome.com License - https://fontawesome.com/license (Commercial License) --><path d="M560 160C570 160 578 150 575 140L551 44C550 37 543 32 536 32H437L463 160H560ZM272 32H171L146 160H272V32ZM405 32H304V160H430L405 32ZM16 160H113L139 32H40C33 32 26 37 25 44L1 140C-2 150 6 160 16 160ZM560 224H540L544 192H32L36 224H16C7 224 0 231 0 240V272C0 281 7 288 16 288H44L64 448V464C64 473 71 480 80 480H112C121 480 128 473 128 464V448H448V464C448 473 455 480 464 480H496C505 480 512 473 512 464V448L532 288H560C569 288 576 281 576 272V240C576 231 569 224 560 224Z"/></svg>