<svg xmlns="http://www.w3.org/2000/svg" viewBox="0 0 640 512"><!-- Font Awesome Pro 6.0.0-alpha1 by @fontawesome - https://fontawesome.com License - https://fontawesome.com/license (Commercial License) --><path d="M419 104L419 104L405 32H304V160H365C381 141 399 122 419 104ZM272 32H172L146 160H272V32ZM461 104C480 120 497 138 512 156C518 150 524 145 530 139L551 120L572 139C573 140 574 141 575 142C575 142 576 141 575 140L551 44C550 37 543 32 536 32H437L449 94L461 104ZM16 160H113L139 32H40C33 32 26 37 25 44L1 140C-2 150 6 160 16 160ZM341 192H32L36 224H16C7 224 0 231 0 240V272C0 281 7 288 16 288H44L64 448V464C64 473 71 480 80 480H112C121 480 128 473 128 464V448H337C307 414 288 370 288 322C288 286 308 239 341 192ZM551 163C536 177 523 190 511 204C491 179 467 152 440 128C370 191 320 272 320 322C320 409 392 480 480 480S640 409 640 322C640 285 603 209 551 163ZM533 393C518 403 500 410 480 410C431 410 391 376 391 322C391 295 408 271 441 230C445 235 508 318 508 318L547 271C550 276 553 280 555 285C574 322 566 368 533 393Z"/></svg>