<svg xmlns="http://www.w3.org/2000/svg" viewBox="0 0 640 512"><!-- Font Awesome Pro 6.0.0-alpha1 by @fontawesome - https://fontawesome.com License - https://fontawesome.com/license (Commercial License) --><path d="M464 70C367 70 288 149 288 246S367 422 464 422S640 344 640 246S561 70 464 70ZM166 337C116 287 116 206 166 156C201 121 251 111 295 125C303 115 311 105 320 96L272 0C265 -13 247 -13 240 0L193 95L93 61C79 57 66 70 71 83L104 183L10 231C-3 237 -3 255 10 262L104 309L71 410C66 423 79 436 93 432L193 398L240 493C247 506 265 506 271 493L319 398L324 400C313 390 304 379 295 368C251 382 201 372 166 337ZM256 150C203 150 160 193 160 246S203 342 256 342C264 342 271 341 278 339C264 311 256 280 256 246S264 181 278 153C271 152 264 150 256 150Z"/></svg>