<svg xmlns="http://www.w3.org/2000/svg" viewBox="0 0 640 512"><!-- Font Awesome Pro 6.0.0-alpha1 by @fontawesome - https://fontawesome.com License - https://fontawesome.com/license (Commercial License) --><path d="M608 192H576A32 32 0 0 0 544 224V416A32 32 0 0 0 576 448H608A32 32 0 0 0 640 416V224A32 32 0 0 0 608 192ZM435 154A48 48 0 0 0 405 144H328V112H392A24 24 0 0 0 392 64H216A24 24 0 0 0 216 112H280V144H128A48 48 0 0 0 80 192V232H48V152A24 24 0 0 0 0 152V360A24 24 0 0 0 48 360V280H80V336A48 48 0 0 0 128 384H169L219 434A48 48 0 0 0 253 448H464A48 48 0 0 0 512 400V224A16 16 0 0 0 506 212ZM304 400A24 24 0 1 1 328 376A24 24 0 0 1 304 400ZM322 306A16 16 0 0 1 306 320H302A16 16 0 0 1 286 306L274 210A16 16 0 0 1 290 192H318A16 16 0 0 1 334 210Z"/></svg>