<svg xmlns="http://www.w3.org/2000/svg" viewBox="0 0 512 512"><!-- Font Awesome Pro 6.0.0-alpha1 by @fontawesome - https://fontawesome.com License - https://fontawesome.com/license (Commercial License) --><path d="M256 417C240 417 223 412 209 402L0 251V464C0 490 22 512 48 512H464C490 512 512 490 512 464V251L303 402C289 412 272 417 256 417ZM494 163C485 156 476 150 464 140V96C464 70 442 48 416 48H338C335 46 333 44 329 42C313 29 279 0 256 0C233 0 199 29 183 42C179 44 177 46 174 48H96C70 48 48 70 48 96V140C36 150 27 156 18 163C7 172 0 186 0 201V211L96 281V96H416V281L512 211V201C512 186 505 172 494 163ZM264 136H248C244 136 240 140 240 144V160C216 161 197 181 197 205C197 225 210 243 229 249L274 262C279 264 283 269 283 275C283 282 277 288 271 288H243C238 288 234 287 230 284C227 282 223 282 220 285L208 296C205 300 205 305 209 308C218 315 229 319 240 320V336C240 340 244 344 248 344H264C268 344 272 340 272 336V320C296 319 315 299 315 275C315 255 302 237 283 231L238 218C233 216 229 211 229 205C229 198 235 192 241 192H269C274 192 278 193 282 196C285 198 289 198 292 195L304 184C307 180 307 175 303 172C294 165 283 161 272 160V144C272 140 268 136 264 136Z"/></svg>