<svg xmlns="http://www.w3.org/2000/svg" viewBox="0 0 640 512"><!-- Font Awesome Pro 6.0.0-alpha1 by @fontawesome - https://fontawesome.com License - https://fontawesome.com/license (Commercial License) --><path d="M192 449C182 449 172 446 164 440L32 340V480C32 498 46 512 64 512H320C338 512 352 498 352 480V340L220 439C212 446 202 449 192 449ZM192 192C192 157 221 128 256 128H480V32C480 14 466 0 448 0H128C110 0 96 14 96 32V224H192V192ZM320 256H64C46 256 32 270 32 288V300L183 414C188 418 196 418 201 414L352 300V288C352 270 338 256 320 256ZM576 160H256C238 160 224 174 224 192V224H320C353 224 381 249 384 282L384 282V416H576C594 416 608 402 608 384V192C608 174 594 160 576 160ZM544 288H480V224H544V288Z"/></svg>