<svg xmlns="http://www.w3.org/2000/svg" viewBox="0 0 640 512"><!-- Font Awesome Pro 6.0.0-alpha1 by @fontawesome - https://fontawesome.com License - https://fontawesome.com/license (Commercial License) --><path d="M631 469L527 388C559 356 585 317 605 273C606 269 608 261 608 256C608 251 606 243 605 239C550 116 443 32 320 32C257 32 199 54 149 92L39 5C34 2 29 0 24 0C17 0 10 3 5 9C-3 20 -1 35 9 43L601 507C612 515 627 513 635 503C643 492 641 477 631 469ZM464 256C464 281 457 304 446 324L408 294C413 282 416 270 416 256C416 203 373 160 320 160H320C317 160 314 160 312 161C317 170 320 181 320 192C320 202 317 212 313 220L224 150C249 127 283 112 320 112C399 112 464 177 464 256V256ZM37 236L344 479C358 478 372 475 385 472L51 208C46 217 41 226 37 236ZM292 478L38 277C88 389 182 467 292 478ZM67 180L422 460C432 456 443 451 453 445L85 155C79 163 73 172 67 180Z"/></svg>