<svg xmlns="http://www.w3.org/2000/svg" viewBox="0 0 512 512"><!-- Font Awesome Pro 6.0.0-alpha1 by @fontawesome - https://fontawesome.com License - https://fontawesome.com/license (Commercial License) --><path d="M241 320H143L217 246L177 207L51 333C39 345 32 362 32 378V424L0 480L32 512L88 480H134C150 480 167 473 179 461L305 335L266 295L241 320ZM484 28C446 -9 386 -9 348 28L271 105L258 92C249 83 233 83 224 92L183 133C174 142 174 158 183 167L345 329C354 338 370 338 379 329L420 288C429 279 429 263 420 254L407 241L484 164C521 126 521 66 484 28Z"/></svg>