<svg xmlns="http://www.w3.org/2000/svg" viewBox="0 0 512 512"><!-- Font Awesome Pro 6.0.0-alpha1 by @fontawesome - https://fontawesome.com License - https://fontawesome.com/license (Commercial License) --><path d="M256 16C123 16 16 123 16 256S123 496 256 496S496 389 496 256S389 16 256 16ZM152 400H144C126 400 112 386 112 368V360H152V400ZM152 344H112V336C112 318 126 304 144 304H152V344ZM144 208C144 190 158 176 176 176C194 176 208 190 208 208S194 240 176 240C158 240 144 226 144 208ZM216 400H168V360H216V400ZM216 344H168V304H216V344ZM280 400H232V360H280V400ZM280 344H232V304H280V344ZM344 400H296V360H344V400ZM344 344H296V304H344V344ZM336 240C318 240 304 226 304 208S318 176 336 176C354 176 368 190 368 208S354 240 336 240ZM400 368C400 386 386 400 368 400H360V360H400V368ZM400 344H360V304H368C386 304 400 318 400 336V344Z"/></svg>