<svg xmlns="http://www.w3.org/2000/svg" viewBox="0 0 512 512"><!-- Font Awesome Pro 6.0.0-alpha1 by @fontawesome - https://fontawesome.com License - https://fontawesome.com/license (Commercial License) --><path d="M256 16C123 16 16 123 16 256S123 496 256 496S496 389 496 256S389 16 256 16ZM290 198L370 150C381 143 394 157 385 168L352 208L385 248C394 259 381 273 370 266L290 218C282 214 282 202 290 198ZM127 168C118 157 131 143 142 150L222 198C230 202 230 214 222 218L142 266C131 273 118 259 127 248L160 208L127 168ZM256 432C195 432 121 394 112 339C110 327 122 317 133 321C163 330 208 336 256 336S349 330 379 321C391 317 402 327 400 339C391 394 317 432 256 432Z"/></svg>