<svg xmlns="http://www.w3.org/2000/svg" viewBox="0 0 640 512"><!-- Font Awesome Pro 6.0.0-alpha1 by @fontawesome - https://fontawesome.com License - https://fontawesome.com/license (Commercial License) --><path d="M624 72H568V16C568 7 561 0 552 0H536C527 0 520 7 520 16V72H464C455 72 448 79 448 88V104C448 113 455 120 464 120H520V176C520 185 527 192 536 192H552C561 192 568 185 568 176V120H624C633 120 640 113 640 104V88C640 79 633 72 624 72ZM224 64C100 64 0 164 0 288S100 512 224 512C348 512 448 412 448 288S348 64 224 64ZM144 208C162 208 176 222 176 240S162 272 144 272S112 258 112 240S126 208 144 208ZM332 367C305 398 265 416 224 416C183 416 143 398 116 367C110 361 111 351 117 345S134 339 140 346C161 370 192 384 224 384S287 370 308 346C314 339 324 339 331 345C337 350 338 361 332 367ZM304 272C286 272 272 258 272 240S286 208 304 208S336 222 336 240S322 272 304 272Z"/></svg>