<svg xmlns="http://www.w3.org/2000/svg" viewBox="0 0 512 512"><!-- Font Awesome Pro 6.0.0-alpha1 by @fontawesome - https://fontawesome.com License - https://fontawesome.com/license (Commercial License) --><path d="M256 16C123 16 16 123 16 256S123 496 256 496S496 389 496 256S389 16 256 16ZM336 176C354 176 368 190 368 208S354 240 336 240C318 240 304 226 304 208S318 176 336 176ZM160 416C133 416 112 395 112 369C112 349 140 309 154 291C157 287 163 287 166 291C179 309 208 349 208 369C208 395 186 416 160 416ZM176 240C158 240 144 226 144 208S158 176 176 176C194 176 208 190 208 208S194 240 176 240ZM346 394C324 367 291 352 256 352C235 352 235 320 256 320C300 320 342 340 371 374C384 390 360 410 346 394Z"/></svg>