<svg xmlns="http://www.w3.org/2000/svg" viewBox="0 0 512 512"><!-- Font Awesome Pro 6.0.0-alpha1 by @fontawesome - https://fontawesome.com License - https://fontawesome.com/license (Commercial License) --><path d="M496 256C496 389 389 496 256 496S16 389 16 256S123 16 256 16S496 123 496 256ZM371 374C342 340 300 320 256 320S170 340 141 374C128 390 152 410 166 394C188 367 221 352 256 352S324 367 346 394C360 410 384 390 371 374ZM144 208C144 226 158 240 176 240S208 226 208 208S194 176 176 176S144 190 144 208ZM304 208C304 226 318 240 336 240S368 226 368 208S354 176 336 176S304 190 304 208Z"/></svg>