<svg xmlns="http://www.w3.org/2000/svg" viewBox="0 0 512 512"><!-- Font Awesome Pro 6.0.0-alpha1 by @fontawesome - https://fontawesome.com License - https://fontawesome.com/license (Commercial License) --><path d="M98 405C76 408 28 416 14 431C-5 449 -4 479 14 498S63 517 81 498C96 484 104 436 107 414C108 409 103 404 98 405ZM419 139L415 139H413C401 139 390 134 382 125C375 116 372 105 373 93C376 77 378 63 381 51C289 -5 166 6 86 86C6 166 -5 289 51 381C64 378 77 376 93 373L97 373H99C111 373 122 378 129 387C137 396 140 407 139 419C136 435 134 449 131 460C223 517 346 506 426 426C506 346 517 223 461 131C448 134 435 136 419 139ZM261 100C265 87 284 89 285 102L290 154L342 159C355 160 357 179 344 183L253 205C245 208 237 200 239 191L261 100ZM183 344C179 357 160 355 159 342L154 290L102 285C89 284 87 265 100 261L191 239C200 236 208 244 205 253L183 344ZM380 380C338 423 258 449 213 416C203 409 204 394 215 389C243 374 279 346 313 313C346 279 374 243 389 215C394 204 409 203 416 213C449 258 423 338 380 380ZM498 14C479 -4 449 -5 431 14C416 28 408 76 405 98C404 103 409 108 414 107C436 104 484 96 498 81C517 63 516 33 498 14Z"/></svg>