<svg xmlns="http://www.w3.org/2000/svg" viewBox="0 0 512 512"><!-- Font Awesome Pro 6.0.0-alpha1 by @fontawesome - https://fontawesome.com License - https://fontawesome.com/license (Commercial License) --><path d="M496 256C496 389 389 496 256 496S16 389 16 256S123 16 256 16S496 123 496 256ZM144 208C144 226 158 240 176 240S208 226 208 208S194 176 176 176S144 190 144 208ZM352 336H160C139 336 139 368 160 368H352C373 368 373 336 352 336ZM368 208C368 190 354 176 336 176S304 190 304 208S318 240 336 240S368 226 368 208Z"/></svg>