<svg xmlns="http://www.w3.org/2000/svg" viewBox="0 0 512 512"><!-- Font Awesome Pro 6.0.0-alpha1 by @fontawesome - https://fontawesome.com License - https://fontawesome.com/license (Commercial License) --><path d="M16 256C16 389 123 496 256 496S496 389 496 256S389 16 256 16S16 123 16 256ZM208 208C208 226 194 240 176 240C158 240 144 226 144 208S158 176 176 176C194 176 208 190 208 208ZM376 233L367 224C352 211 320 211 306 224L296 233C288 240 274 233 276 222C280 197 310 180 336 180C362 180 392 197 396 222C398 233 384 240 376 233ZM133 321C163 330 208 336 256 336S349 330 379 321C390 317 402 327 400 339C391 394 317 432 256 432S121 394 112 339C110 327 121 317 133 321Z"/></svg>