<svg xmlns="http://www.w3.org/2000/svg" viewBox="0 0 512 512"><!-- Font Awesome Pro 6.0.0-alpha1 by @fontawesome - https://fontawesome.com License - https://fontawesome.com/license (Commercial License) --><path d="M256 16C123 16 16 123 16 256S123 496 256 496S496 389 496 256S389 16 256 16ZM103 169L137 164L153 132C156 126 164 126 167 132L182 164L217 169C224 170 226 178 222 182L196 207L202 242C203 248 197 253 191 250L160 233L129 250C123 253 117 248 118 242L124 207L98 182C94 178 96 170 103 169ZM256 432C195 432 121 394 112 339C110 327 121 317 133 321C163 330 208 336 256 336S349 330 379 321C391 317 402 327 400 339C391 394 317 432 256 432ZM414 182L388 207L394 242C395 248 389 253 383 250L352 233L321 250C315 253 309 248 310 242L316 207L290 182C286 178 288 170 295 169L330 164L345 132C348 127 356 127 359 132L374 164L409 169C416 170 418 178 414 182Z"/></svg>