<svg xmlns="http://www.w3.org/2000/svg" viewBox="0 0 448 512"><!-- Font Awesome Pro 6.0.0-alpha1 by @fontawesome - https://fontawesome.com License - https://fontawesome.com/license (Commercial License) --><path d="M224 192C215 192 208 199 208 208S215 224 224 224S240 217 240 208S233 192 224 192ZM320 448H256V413C356 398 432 312 432 208C432 93 339 0 224 0S16 93 16 208C16 312 92 398 192 413V448H128C100 448 73 466 65 492C62 502 70 512 80 512H368C378 512 386 502 383 492C375 466 348 448 320 448ZM120 335C113 331 105 318 114 306L182 225C125 204 113 147 122 112C129 87 145 67 166 54C179 47 191 56 193 64L230 163C258 139 298 134 331 149C365 165 386 198 386 235C386 241 384 246 379 249S369 254 364 254L259 236C264 258 260 281 249 300C223 345 165 361 120 335Z"/></svg>