<svg xmlns="http://www.w3.org/2000/svg" viewBox="0 0 576 512"><!-- Font Awesome Pro 6.0.0-alpha1 by @fontawesome - https://fontawesome.com License - https://fontawesome.com/license (Commercial License) --><path d="M222 91L222 91C210 27 145 -15 79 5C31 19 0 66 0 116L0 480C0 498 14 512 32 512H128V261C128 251 130 241 135 232L190 121C197 108 208 97 222 91ZM573 246L517 135C514 129 508 123 502 120L381 67C373 63 363 63 355 67L234 120C228 123 222 129 219 135L163 246C161 251 160 256 160 261V512H288V416H448V512H576V261C576 256 575 251 573 246ZM416 320H320V224H416V320Z"/></svg>