<svg xmlns="http://www.w3.org/2000/svg" viewBox="0 0 512 512"><!-- Font Awesome Pro 6.0.0-alpha1 by @fontawesome - https://fontawesome.com License - https://fontawesome.com/license (Commercial License) --><path d="M384 0V128H512L384 0ZM352 128V0H176C150 0 128 22 128 48V288H302L263 249C254 240 254 224 263 215S288 206 297 215L377 295C386 304 386 320 377 329L297 409C288 418 272 418 263 409C258 404 256 398 256 392S258 380 263 375L302 336H128V464C128 490 150 512 176 512H464C490 512 512 490 512 464V160H384C366 160 352 146 352 128ZM24 288C11 288 0 299 0 312C0 325 11 336 24 336H128V288H24Z"/></svg>