<svg xmlns="http://www.w3.org/2000/svg" viewBox="0 0 384 512"><!-- Font Awesome Pro 6.0.0-alpha1 by @fontawesome - https://fontawesome.com License - https://fontawesome.com/license (Commercial License) --><path d="M256 0V128H384L256 0ZM224 128V0H48C22 0 0 22 0 48V464C0 490 22 512 48 512H336C362 512 384 490 384 464V160H256C238 160 224 146 224 128ZM192 448C174 448 160 434 160 416S174 384 192 384S224 398 224 416S210 448 192 448ZM218 338C217 346 210 352 202 352H182C174 352 167 346 166 338L154 210C153 200 160 192 170 192H214C224 192 231 200 230 210L218 338Z"/></svg>