<svg xmlns="http://www.w3.org/2000/svg" viewBox="0 0 384 512"><!-- Font Awesome Pro 6.0.0-alpha1 by @fontawesome - https://fontawesome.com License - https://fontawesome.com/license (Commercial License) --><path d="M384 128H256V0L384 128ZM256 160H384V464C384 490 362 512 336 512H48C22 512 0 490 0 464V48C0 22 22 0 48 0H224V128C224 146 238 160 256 160ZM246 264L167 357L137 327C128 318 112 318 103 327S94 352 103 361L151 409C156 413 162 416 168 416C168 416 169 416 169 416C176 416 182 413 186 408L282 296C291 286 290 270 280 262C270 253 254 254 246 264Z"/></svg>