<svg xmlns="http://www.w3.org/2000/svg" viewBox="0 0 384 512"><!-- Font Awesome Pro 6.0.0-alpha1 by @fontawesome - https://fontawesome.com License - https://fontawesome.com/license (Commercial License) --><path d="M256 0V128H384L256 0ZM224 128V0H48C22 0 0 22 0 48V464C0 490 22 512 48 512H336C362 512 384 490 384 464V160H256C238 160 224 146 224 128ZM128 280C128 284 124 288 120 288H112C103 288 96 295 96 304V336C96 345 103 352 112 352H120C124 352 128 356 128 360V376C128 380 124 384 120 384H112C86 384 64 362 64 336V304C64 278 86 256 112 256H120C124 256 128 260 128 264V280ZM172 384H160C156 384 152 380 152 376V360C152 356 156 352 160 352H172C178 352 183 349 183 345C183 344 182 343 181 342L159 323C150 315 145 305 145 295C145 273 164 256 188 256H200C204 256 208 260 208 264V280C208 284 204 288 200 288H188C182 288 177 291 177 295C177 296 178 297 179 298L201 317C210 325 215 335 215 345C215 367 196 384 172 384ZM288 285V264C288 260 292 256 296 256H312C316 256 320 260 320 264V285C320 320 307 354 284 379C281 382 277 384 272 384S263 382 260 379C237 354 224 320 224 285V264C224 260 228 256 232 256H248C252 256 256 260 256 264V285C256 305 262 325 272 342C282 325 288 305 288 285Z"/></svg>