<svg xmlns="http://www.w3.org/2000/svg" viewBox="0 0 384 512"><!-- Font Awesome Pro 6.0.0-alpha1 by @fontawesome - https://fontawesome.com License - https://fontawesome.com/license (Commercial License) --><path d="M224 128V0H48C22 0 0 22 0 48V464C0 490 22 512 48 512H336C362 512 384 490 384 464V160H256C238 160 224 146 224 128ZM282 240H305C313 240 318 247 317 255L274 439C273 444 268 448 262 448H233C228 448 223 444 222 439L192 329L162 439C161 444 156 448 151 448H122C116 448 111 444 110 439L67 255C66 247 71 240 79 240H102C108 240 113 244 114 249L138 352L166 249C167 244 172 240 177 240H207C212 240 217 244 218 249L246 352L270 249C271 244 276 240 282 240ZM256 0V128H384L256 0Z"/></svg>