<svg xmlns="http://www.w3.org/2000/svg" viewBox="0 0 384 512"><!-- Font Awesome Pro 6.0.0-alpha1 by @fontawesome - https://fontawesome.com License - https://fontawesome.com/license (Commercial License) --><path d="M384 128H256V0L384 128ZM256 160H384V464C384 490 362 512 336 512H48C22 512 0 490 0 464V48C0 22 22 0 48 0H224V128C224 146 238 160 256 160ZM64 88C64 92 68 96 72 96H152C156 96 160 92 160 88V72C160 68 156 64 152 64H72C68 64 64 68 64 72V88ZM72 160H152C156 160 160 156 160 152V136C160 132 156 128 152 128H72C68 128 64 132 64 136V152C64 156 68 160 72 160ZM198 317L192 315C168 308 169 305 170 301C171 293 186 291 200 293C205 294 212 296 217 298C228 301 239 296 243 285C246 275 241 264 231 260C223 257 217 256 212 255V248C212 237 203 228 192 228S172 237 172 248V254C150 259 134 273 130 294C123 337 163 348 181 354L187 355C216 364 215 366 214 371C213 379 198 381 184 379C177 378 168 375 161 372L156 370C146 367 134 372 131 383C127 393 132 405 143 408L147 410C155 412 163 415 172 417V424C172 435 181 444 192 444S212 435 212 424V418C234 413 250 399 254 378C261 335 220 323 198 317Z"/></svg>