<svg xmlns="http://www.w3.org/2000/svg" viewBox="0 0 384 512"><!-- Font Awesome Pro 6.0.0-alpha1 by @fontawesome - https://fontawesome.com License - https://fontawesome.com/license (Commercial License) --><path d="M224 128V0H48C22 0 0 22 0 48V464C0 490 22 512 48 512H336C362 512 384 490 384 464V160H256C238 160 224 146 224 128ZM151 433C149 435 147 436 144 437L88 448C83 449 79 445 80 440L91 384C92 381 93 379 95 377L193 279L249 335L151 433ZM279 232L296 249C307 260 307 277 296 288L271 313L215 257L240 232C251 221 268 221 279 232ZM256 0V128H384L256 0Z"/></svg>