<svg xmlns="http://www.w3.org/2000/svg" viewBox="0 0 576 512"><!-- Font Awesome Pro 6.0.0-alpha1 by @fontawesome - https://fontawesome.com License - https://fontawesome.com/license (Commercial License) --><path d="M293 342C290 345 288 349 288 354V416H350C355 416 359 414 362 411L519 253L451 185L293 342ZM569 167L537 135C527 126 511 126 501 135L473 163L541 231L569 203C578 193 578 177 569 167ZM256 0V128H384L256 0ZM256 448C240 448 225 439 218 424C215 418 210 418 208 418S201 418 198 424L190 439C188 445 182 448 176 448H175C168 447 163 443 161 437L144 387L133 418C127 436 111 448 92 448H80C71 448 64 441 64 432S71 416 80 416H92C97 416 102 413 103 408L121 354C125 344 134 337 144 337S163 344 167 354L181 395C200 379 235 386 247 410C249 413 252 415 256 416V347C256 338 259 330 265 324L384 207V160H256C238 160 224 146 224 128V0H48C22 0 0 22 0 48V464C0 490 22 512 48 512H336C362 512 384 490 384 464V448H256V448Z"/></svg>