<svg xmlns="http://www.w3.org/2000/svg" viewBox="0 0 384 512"><!-- Font Awesome Pro 6.0.0-alpha1 by @fontawesome - https://fontawesome.com License - https://fontawesome.com/license (Commercial License) --><path d="M256 0V128H384L256 0ZM224 128V0H48C22 0 0 22 0 48V464C0 490 22 512 48 512H336C362 512 384 490 384 464V160H256C238 160 224 146 224 128ZM224 384C224 402 210 416 192 416H96C78 416 64 402 64 384V288C64 270 78 256 96 256H192C210 256 224 270 224 288V384ZM320 285V387C320 400 306 407 296 401L256 376V296L296 271C306 265 320 272 320 285Z"/></svg>