<svg xmlns="http://www.w3.org/2000/svg" viewBox="0 0 384 512"><!-- Font Awesome Pro 6.0.0-alpha1 by @fontawesome - https://fontawesome.com License - https://fontawesome.com/license (Commercial License) --><path d="M256 0V128H384L256 0ZM224 128V0H48C22 0 0 22 0 48V464C0 490 22 512 48 512H336C362 512 384 490 384 464V160H256C238 160 224 146 224 128ZM280 308C284 354 249 392 204 392H160V432C160 441 153 448 144 448H128C119 448 112 441 112 432V256C112 247 119 240 128 240H200C239 240 276 269 280 308ZM160 344H204C219 344 232 331 232 316S219 288 204 288H160V344Z"/></svg>