<svg xmlns="http://www.w3.org/2000/svg" viewBox="0 0 384 512"><!-- Font Awesome Pro 6.0.0-alpha1 by @fontawesome - https://fontawesome.com License - https://fontawesome.com/license (Commercial License) --><path d="M256 0V128H384L256 0ZM224 128V0H48C22 0 0 22 0 48V464C0 490 22 512 48 512H336C362 512 384 490 384 464V160H256C238 160 224 146 224 128ZM128 435C128 442 122 448 115 448H77C70 448 64 442 64 435V365C64 358 70 352 77 352H115C122 352 128 358 128 365V435ZM224 435C224 442 218 448 211 448H173C166 448 160 442 160 435V237C160 230 166 224 173 224H211C218 224 224 230 224 237V435ZM269 288H307C314 288 320 294 320 301V435C320 442 314 448 307 448H269C262 448 256 442 256 435V301C256 294 262 288 269 288Z"/></svg>