<svg xmlns="http://www.w3.org/2000/svg" viewBox="0 0 384 512"><!-- Font Awesome Pro 6.0.0-alpha1 by @fontawesome - https://fontawesome.com License - https://fontawesome.com/license (Commercial License) --><path d="M184 208C184 204 180 200 176 200S168 204 168 208C168 210 168 231 177 258C179 250 184 226 184 208ZM256 0V128H384L256 0ZM80 422C80 432 90 434 94 429C99 422 109 408 120 389C106 397 93 406 82 417C81 418 80 420 80 422ZM224 128V0H48C22 0 0 22 0 48V464C0 490 22 512 48 512H336C362 512 384 490 384 464V160H256C238 160 224 146 224 128ZM292 312C316 312 336 332 336 356C336 381 317 400 293 400C287 400 281 399 276 397C256 390 237 381 221 370C197 375 176 381 157 389C142 415 129 435 120 447C113 458 101 464 88 464C66 464 48 446 48 424C48 412 52 402 59 395C75 378 97 364 122 352C134 329 144 305 153 282C136 242 136 208 136 208C136 186 154 168 176 168C198 168 216 186 216 208C216 233 209 264 207 271C206 274 205 277 204 280C212 295 222 308 233 318C263 313 284 312 288 312H292ZM157 355C175 348 193 343 209 339C197 327 187 314 180 301C172 321 164 338 157 355ZM293 368C299 368 304 363 304 357C304 349 299 344 292 344H288C288 344 271 345 247 349C258 356 271 362 286 367C288 368 290 368 293 368Z"/></svg>