<svg xmlns="http://www.w3.org/2000/svg" viewBox="0 0 448 512"><!-- Font Awesome Pro 6.0.0-alpha1 by @fontawesome - https://fontawesome.com License - https://fontawesome.com/license (Commercial License) --><path d="M320 0V128H448L320 0ZM288 128V0H112C86 0 64 22 64 48V224H16C7 224 0 231 0 240V272C0 281 7 288 16 288H144C150 288 156 291 158 297L176 332L226 233C231 222 249 222 254 233L282 288H352C361 288 368 295 368 304S361 320 352 320H272C266 320 260 317 258 311L240 276L190 375C188 381 182 384 176 384S164 381 162 375L134 320H64V464C64 490 86 512 112 512H400C426 512 448 490 448 464V160H320C302 160 288 146 288 128Z"/></svg>