<svg xmlns="http://www.w3.org/2000/svg" viewBox="0 0 384 512"><!-- Font Awesome Pro 6.0.0-alpha1 by @fontawesome - https://fontawesome.com License - https://fontawesome.com/license (Commercial License) --><path d="M224 128V0H48C22 0 0 22 0 48V464C0 490 22 512 48 512H336C362 512 384 490 384 464V160H256C238 160 224 146 224 128ZM273 264L224 344L273 424C280 434 272 448 259 448H233C227 448 222 445 219 440L192 396L165 440C162 445 157 448 151 448H125C112 448 104 434 111 424L160 344L111 264C104 254 112 240 125 240H151C157 240 162 243 165 248L192 292L219 248C222 243 227 240 233 240H259C272 240 280 254 273 264ZM256 0V128H384L256 0Z"/></svg>