<svg xmlns="http://www.w3.org/2000/svg" viewBox="0 0 384 512"><!-- Font Awesome Pro 6.0.0-alpha1 by @fontawesome - https://fontawesome.com License - https://fontawesome.com/license (Commercial License) --><path d="M176 240H128V272H176C185 272 192 265 192 256S185 240 176 240ZM256 0V128H384L256 0ZM224 128V0H48C22 0 0 22 0 48V464C0 490 22 512 48 512H336C362 512 384 490 384 464V160H256C238 160 224 146 224 128ZM293 315L304 327C310 333 310 343 304 349L274 379L304 409C310 416 310 426 304 432L293 443C286 450 276 450 270 443L240 413L210 443C204 450 193 450 187 443L176 432C170 426 170 416 176 409L206 379L147 320H128V368C128 377 121 384 112 384H96C87 384 80 377 80 368V208C80 199 87 192 96 192H176C211 192 240 221 240 256C240 280 226 301 206 312L240 345L270 315C276 309 286 309 293 315Z"/></svg>