<svg xmlns="http://www.w3.org/2000/svg" viewBox="0 0 384 512"><!-- Font Awesome Pro 6.0.0-alpha1 by @fontawesome - https://fontawesome.com License - https://fontawesome.com/license (Commercial License) --><path d="M256 0V128H384L256 0ZM224 128V0H48C22 0 0 22 0 48V464C0 490 22 512 48 512H336C362 512 384 490 384 464V160H256C238 160 224 146 224 128ZM192 192C227 192 256 221 256 256S227 320 192 320C157 320 128 291 128 256S157 192 192 192ZM304 432C304 441 297 448 288 448H96C87 448 80 441 80 432C80 388 116 352 160 352H224C268 352 304 388 304 432Z"/></svg>