<svg xmlns="http://www.w3.org/2000/svg" viewBox="0 0 640 512"><!-- Font Awesome Pro 6.0.0-alpha1 by @fontawesome - https://fontawesome.com License - https://fontawesome.com/license (Commercial License) --><path d="M528 288C491 288 458 306 438 334C418 288 373 256 320 256S222 288 202 334C182 306 149 288 112 288C50 288 0 338 0 400S50 512 112 512H528C590 512 640 462 640 400S590 288 528 288ZM196 283C205 271 217 261 230 252C225 241 222 228 222 213C222 183 240 157 277 112C282 118 350 209 350 209L394 157C397 162 400 168 403 172C415 197 417 226 408 250C421 259 434 270 444 283C458 273 473 266 489 262C493 246 496 230 496 213C496 173 455 89 398 39C382 53 367 69 354 84C333 56 306 27 276 0C199 69 144 159 144 213C144 230 147 246 151 262C167 266 182 274 196 283Z"/></svg>