<svg xmlns="http://www.w3.org/2000/svg" viewBox="0 0 384 512"><!-- Font Awesome Pro 6.0.0-alpha1 by @fontawesome - https://fontawesome.com License - https://fontawesome.com/license (Commercial License) --><path d="M203 4C197 -1 187 -1 181 4C75 105 0 220 0 298C0 424 79 512 192 512S384 424 384 298C384 220 309 104 203 4ZM192 448C121 448 64 395 64 330C64 286 90 259 98 250C102 247 106 247 110 250C111 252 112 254 112 256V296C112 327 137 352 168 352C199 352 224 327 224 296C224 224 111 231 185 132C187 128 192 127 195 129C197 129 201 131 201 135C201 169 226 190 252 213C286 242 320 271 320 330C320 395 263 448 192 448Z"/></svg>