<svg xmlns="http://www.w3.org/2000/svg" viewBox="0 0 448 512"><!-- Font Awesome Pro 6.0.0-alpha1 by @fontawesome - https://fontawesome.com License - https://fontawesome.com/license (Commercial License) --><path d="M323 51C303 71 284 91 267 111C240 74 206 35 168 0C70 91 0 210 0 282C0 409 100 512 224 512S448 409 448 282C448 228 396 118 323 51ZM304 392C282 407 256 416 227 416C155 416 96 368 96 291C96 252 120 218 169 160C176 168 268 285 268 285L326 218C330 225 334 232 338 238C365 291 353 357 304 392Z"/></svg>