<svg xmlns="http://www.w3.org/2000/svg" viewBox="0 0 512 512"><!-- Font Awesome Pro 6.0.0-alpha1 by @fontawesome - https://fontawesome.com License - https://fontawesome.com/license (Commercial License) --><path d="M64 480C64 498 78 512 96 512H256C274 512 288 498 288 480V448H64V480ZM503 6C498 1 491 -1 484 0L308 32C296 34 288 44 288 56H224V32C224 14 210 0 192 0H160C142 0 128 14 128 32V59C70 69 21 111 1 168C-3 181 4 195 16 199C19 200 21 200 24 200C34 200 43 194 47 184C59 146 90 118 128 108V139C90 157 64 195 64 240V416H288V240C288 195 262 157 224 139V104H288C288 116 296 126 308 128L484 160C485 160 487 160 488 160C494 160 499 158 503 154C509 150 512 143 512 136V24C512 17 509 10 503 6ZM176 96C167 96 160 89 160 80S167 64 176 64S192 71 192 80S185 96 176 96Z"/></svg>