<svg xmlns="http://www.w3.org/2000/svg" viewBox="0 0 512 512"><!-- Font Awesome Pro 6.0.0-alpha1 by @fontawesome - https://fontawesome.com License - https://fontawesome.com/license (Commercial License) --><path d="M477 0C471 0 465 1 459 4C415 25 382 32 355 32C297 32 263 0 196 0C163 0 121 8 64 32V32C64 14 50 0 32 0S0 14 0 32V496C0 505 7 512 16 512H48C57 512 64 505 64 496V384C116 360 157 352 192 352C263 352 313 384 384 384C415 384 450 378 492 361C504 356 512 344 512 332V31C512 12 496 0 477 0ZM448 142C416 156 390 162 368 164V244C393 243 420 238 448 227V309C425 316 404 320 384 320C379 320 373 320 368 319V244C364 245 359 245 355 245C329 245 307 241 288 235V302C264 296 238 291 208 289V214C204 214 201 213 196 213C177 213 154 218 128 226V295C107 299 86 306 64 314V251L89 240C103 234 116 230 128 226V143C109 148 88 155 64 165V102L89 91C103 86 116 81 128 77V143C154 136 177 133 196 133C201 133 204 134 208 134V65C227 67 242 72 261 78C270 81 279 83 288 86V152C309 159 329 165 355 165C359 165 363 165 368 164V96C393 94 420 89 448 78V142ZM208 134V214C227 216 242 221 261 227C270 230 279 232 288 235V152C264 144 240 136 208 134Z"/></svg>