<svg xmlns="http://www.w3.org/2000/svg" viewBox="0 0 512 512"><!-- Font Awesome Pro 6.0.0-alpha1 by @fontawesome - https://fontawesome.com License - https://fontawesome.com/license (Commercial License) --><path d="M64 496C64 505 57 512 48 512H16C7 512 0 505 0 496V32C0 14 14 0 32 0S64 14 64 32V496ZM476 0C470 0 463 1 457 4C411 25 377 32 349 32C289 32 254 0 185 0H185C161 0 132 5 96 16V366C128 356 156 352 181 352C254 352 306 384 379 384C411 384 447 378 491 361C504 356 512 344 512 332V31C512 12 495 0 476 0Z"/></svg>