<svg xmlns="http://www.w3.org/2000/svg" viewBox="0 0 448 512"><!-- Font Awesome Pro 6.0.0-alpha1 by @fontawesome - https://fontawesome.com License - https://fontawesome.com/license (Commercial License) --><path d="M320 169V64H328C341 64 352 53 352 40V24C352 11 341 0 328 0H120C107 0 96 11 96 24V40C96 53 107 64 120 64H128V168C62 203 16 272 16 352C16 406 36 455 70 492C82 505 99 512 117 512H331C349 512 366 505 378 491C411 455 431 408 432 357C434 277 387 205 320 169ZM263 331C209 304 147 302 81 335C92 246 172 217 192 207V64H256V207C292 227 367 260 368 352C344 352 308 354 263 331Z"/></svg>