<svg xmlns="http://www.w3.org/2000/svg" viewBox="0 0 512 512"><!-- Font Awesome Pro 6.0.0-alpha1 by @fontawesome - https://fontawesome.com License - https://fontawesome.com/license (Commercial License) --><path d="M496 320H449C386 320 329 342 288 378V281C325 298 369 283 389 248C410 213 400 168 368 144C393 125 405 94 398 63C392 32 368 8 337 2C306 -5 275 7 256 32C237 7 206 -5 175 2C144 8 120 32 114 63C107 94 119 125 144 144C112 168 102 213 123 248C143 283 187 298 224 281V378C183 342 126 320 63 320H16C7 320 -1 328 0 337C10 435 106 512 224 512H288C406 512 502 435 512 337C513 328 505 320 496 320ZM256 192C229 192 208 170 208 144S229 96 256 96S304 118 304 144S282 192 256 192Z"/></svg>