<svg xmlns="http://www.w3.org/2000/svg" viewBox="0 0 512 512"><!-- Font Awesome Pro 6.0.0-alpha1 by @fontawesome - https://fontawesome.com License - https://fontawesome.com/license (Commercial License) --><path d="M464 96H272L208 32H48C22 32 0 54 0 80V432C0 458 22 480 48 480H464C490 480 512 458 512 432V144C512 118 490 96 464 96ZM352 352C352 370 330 384 304 384S256 370 256 352S278 320 304 320C309 320 315 321 320 322V246L224 283V384C224 402 202 416 176 416S128 402 128 384S150 352 176 352C181 352 187 353 192 354V239C192 232 197 226 203 224L331 177C336 175 341 176 346 179S352 187 352 192V352Z"/></svg>