<svg xmlns="http://www.w3.org/2000/svg" viewBox="0 0 512 512"><!-- Font Awesome Pro 6.0.0-alpha1 by @fontawesome - https://fontawesome.com License - https://fontawesome.com/license (Commercial License) --><path d="M464 96H272L208 32H48C22 32 0 54 0 80V432C0 458 22 480 48 480H464C490 480 512 458 512 432V144C512 118 490 96 464 96ZM352 306C352 314 346 320 338 320H288V370C288 378 282 384 274 384H238C230 384 224 378 224 370V320H174C166 320 160 314 160 306V270C160 262 166 256 174 256H224V206C224 198 230 192 238 192H274C282 192 288 198 288 206V256H338C346 256 352 262 352 270V306Z"/></svg>