<svg xmlns="http://www.w3.org/2000/svg" viewBox="0 0 512 512"><!-- Font Awesome Pro 6.0.0-alpha1 by @fontawesome - https://fontawesome.com License - https://fontawesome.com/license (Commercial License) --><path d="M464 96H272L208 32H48C22 32 0 54 0 80V432C0 458 22 480 48 480H464C490 480 512 458 512 432V144C512 118 490 96 464 96ZM328 312H280V360C280 373 269 384 256 384S232 373 232 360V312H184C171 312 160 301 160 288S171 264 184 264H232V216C232 203 243 192 256 192S280 203 280 216V264H328C341 264 352 275 352 288S341 312 328 312Z"/></svg>