<svg xmlns="http://www.w3.org/2000/svg" viewBox="0 0 512 512"><!-- Font Awesome Pro 6.0.0-alpha1 by @fontawesome - https://fontawesome.com License - https://fontawesome.com/license (Commercial License) --><path d="M464 96H272L208 32H48C22 32 0 54 0 80V432C0 458 22 480 48 480H464C490 480 512 458 512 432V144C512 118 490 96 464 96ZM353 305C348 310 342 312 336 312S324 310 319 305L280 266V376C280 389 269 400 256 400S232 389 232 376V266L193 305C184 314 168 314 159 305S150 280 159 271L239 191C248 182 264 182 273 191L353 271C362 280 362 296 353 305Z"/></svg>