<svg xmlns="http://www.w3.org/2000/svg" viewBox="0 0 512 512"><!-- Font Awesome Pro 6.0.0-alpha1 by @fontawesome - https://fontawesome.com License - https://fontawesome.com/license (Commercial License) --><path d="M480 320H338L324 244L461 226C470 225 476 217 475 209C443 62 317 16 240 16C107 16 0 123 0 256C0 312 19 364 52 404C58 412 67 416 77 416H104L190 461C215 474 245 469 265 449C302 412 276 367 270 352H312L322 405C332 458 378 496 432 496H480C489 496 496 489 496 480V336C496 327 489 320 480 320ZM160 360C147 360 136 349 136 336S147 312 160 312S184 323 184 336S173 360 160 360ZM258 320L247 294C239 275 252 253 273 251L292 248L306 320H258ZM464 464H432C399 464 371 445 359 416H464V464ZM464 384H350L344 352H464V384Z"/></svg>