<svg xmlns="http://www.w3.org/2000/svg" viewBox="0 0 512 512"><!-- Font Awesome Pro 6.0.0-alpha1 by @fontawesome - https://fontawesome.com License - https://fontawesome.com/license (Commercial License) --><path d="M510 126L448 234C428 266 395 286 358 290C337 292 316 288 297 280L83 504C78 509 71 512 64 512C57 512 50 509 45 504L8 467C3 462 0 455 0 448C0 441 3 434 8 429L232 215C224 196 220 175 222 154C226 117 246 84 279 63L386 2C394 -2 403 0 409 7C414 14 413 24 407 30L295 142L309 156L433 54C440 48 450 49 457 55C463 61 464 72 458 79L356 203L370 217L482 105C488 99 498 98 505 103C512 109 514 118 510 126Z"/></svg>