<svg xmlns="http://www.w3.org/2000/svg" viewBox="0 0 384 512"><!-- Font Awesome Pro 6.0.0-alpha1 by @fontawesome - https://fontawesome.com License - https://fontawesome.com/license (Commercial License) --><path d="M368 224H334C327 224 320 228 319 235C310 274 257 304 192 304C127 304 74 274 65 235C64 228 57 224 50 224H16C11 224 6 226 4 230C1 234 -1 239 0 243L54 487C58 502 71 512 86 512H298C313 512 326 502 329 487L384 243C385 239 383 234 380 230C377 226 373 224 368 224ZM287 228C288 226 289 225 290 223L320 51C321 45 319 40 315 36C310 32 305 31 299 33L265 43C261 44 258 47 256 51V258C273 250 285 239 287 228ZM367 192L384 99C385 93 383 88 379 84C374 80 369 79 363 81L346 86L327 193C330 193 332 192 334 192H367ZM224 269V32C224 26 221 20 215 18L183 2C178 -1 172 -1 168 2C163 5 160 10 160 16V269C181 273 203 273 224 269ZM50 192C54 192 57 193 60 194L40 87L21 81C15 79 9 80 5 84C1 88 -1 93 0 99L17 192H50ZM128 258V33L124 13C123 8 119 3 114 1C109 -1 103 0 99 3L70 25C65 28 63 35 64 41L101 238C106 245 116 253 128 258Z"/></svg>