<svg xmlns="http://www.w3.org/2000/svg" viewBox="0 0 576 512"><!-- Font Awesome Pro 6.0.0-alpha1 by @fontawesome - https://fontawesome.com License - https://fontawesome.com/license (Commercial License) --><path d="M528 416H496L406 320L546 241C565 230 576 211 576 190C576 169 564 149 546 139C505 117 446 97 446 97C440 60 407 32 368 32S296 60 290 98C127 113 -1 250 0 417C0 452 29 480 64 480H368C377 480 384 473 384 464C384 438 362 416 336 416H284L308 384C333 347 319 295 275 277C251 267 223 272 202 288L170 313C162 318 153 317 147 309C142 302 143 292 150 287L185 261C222 233 274 233 310 261C321 269 356 300 351 354L470 480H560C569 480 576 473 576 464C576 438 554 416 528 416ZM344 112C344 99 355 88 368 88S392 99 392 112S381 136 368 136S344 125 344 112Z"/></svg>