<svg xmlns="http://www.w3.org/2000/svg" viewBox="0 0 512 512"><!-- Font Awesome Pro 6.0.0-alpha1 by @fontawesome - https://fontawesome.com License - https://fontawesome.com/license (Commercial License) --><path d="M178 229L208 320H304L334 229L256 172L178 229ZM256 16C123 16 16 123 16 256S123 496 256 496S496 389 496 256S389 16 256 16ZM406 347L331 360L296 427C283 430 270 432 256 432S229 430 216 427L181 360L106 347C92 324 83 299 81 271L134 216L123 141C140 121 163 104 188 94L256 128L324 94C349 104 371 121 389 141L378 216L431 271C429 299 420 324 406 347Z"/></svg>