<svg xmlns="http://www.w3.org/2000/svg" viewBox="0 0 640 512"><!-- Font Awesome Pro 6.0.0-alpha1 by @fontawesome - https://fontawesome.com License - https://fontawesome.com/license (Commercial License) --><path d="M610 117L338 4C333 2 326 0 320 0C314 0 307 1 302 4L30 117C12 125 0 142 0 161V496C0 505 7 512 16 512H80C89 512 96 505 96 496V224C96 206 111 192 129 192H511C529 192 544 206 544 224V496C544 505 551 512 560 512H624C633 512 640 505 640 496V161C640 142 628 125 610 117ZM469 349L447 284C438 258 414 240 386 240H254C226 240 202 258 193 284L171 349C155 355 144 371 144 389V486C144 500 156 512 170 512H183C198 512 209 500 209 486V464H431V486C431 500 442 512 457 512H470C484 512 496 500 496 486V389C496 371 485 355 469 349ZM239 299C241 292 247 288 254 288H386C393 288 399 292 401 299L419 352H221L239 299ZM216 432C203 432 192 421 192 408C192 395 203 384 216 384S240 395 240 408C240 421 229 432 216 432ZM424 432C411 432 400 421 400 408C400 395 411 384 424 384S448 395 448 408C448 421 437 432 424 432Z"/></svg>