<svg xmlns="http://www.w3.org/2000/svg" viewBox="0 0 640 512"><!-- Font Awesome Pro 6.0.0-alpha1 by @fontawesome - https://fontawesome.com License - https://fontawesome.com/license (Commercial License) --><path d="M128 512H512V352H128L128 512ZM272 416H368C377 416 384 423 384 432S377 448 368 448H272C263 448 256 441 256 432S263 416 272 416ZM128 320H511L512 224H128V320ZM610 117L338 4C333 2 326 0 320 0C314 0 307 1 302 4L30 117C12 125 0 142 0 161V496C0 505 7 512 16 512H80C89 512 96 505 96 496V224C96 206 111 192 129 192H511C529 192 544 206 544 224V496C544 505 551 512 560 512H624C633 512 640 505 640 496V161C640 142 628 125 610 117Z"/></svg>