<svg xmlns="http://www.w3.org/2000/svg" viewBox="0 0 512 512"><!-- Font Awesome Pro 6.0.0-alpha1 by @fontawesome - https://fontawesome.com License - https://fontawesome.com/license (Commercial License) --><path d="M336 448H16C7 448 0 455 0 464V496C0 505 7 512 16 512H336C345 512 352 505 352 496V464C352 455 345 448 336 448ZM493 107L412 26C406 20 396 20 390 26L378 38C372 44 372 54 378 60L416 98V160C416 188 437 211 464 215V376C464 389 453 400 440 400C427 400 416 389 416 376V344C416 295 377 256 328 256H320V64C320 29 291 0 256 0H96C61 0 32 29 32 64V416H320V304H328C350 304 368 322 368 344V372C368 410 395 444 433 448C475 452 512 418 512 376V153C512 136 505 119 493 107ZM256 192H96V64H256V192Z"/></svg>