<svg xmlns="http://www.w3.org/2000/svg" viewBox="0 0 640 512"><!-- Font Awesome Pro 6.0.0-alpha1 by @fontawesome - https://fontawesome.com License - https://fontawesome.com/license (Commercial License) --><path d="M96 172V416H384V398L96 172ZM400 448H80C71 448 64 455 64 464V496C64 505 71 512 80 512H400C409 512 416 505 416 496V464C416 455 409 448 400 448ZM631 469L563 416C571 405 576 391 576 376V153C576 136 569 119 557 107L476 26C470 20 460 20 454 26L442 38C436 44 436 54 442 60L480 98V160C480 188 501 211 528 215V376C528 380 527 383 525 386L384 276V64C384 29 355 0 320 0H160C129 0 103 22 97 51L39 5C34 2 29 0 24 0C17 0 10 3 5 9C-3 20 -1 35 9 43L601 507C612 515 627 513 635 503C643 492 641 477 631 469Z"/></svg>