<svg xmlns="http://www.w3.org/2000/svg" viewBox="0 0 576 512"><!-- Font Awesome Pro 6.0.0-alpha1 by @fontawesome - https://fontawesome.com License - https://fontawesome.com/license (Commercial License) --><path d="M288 32C129 32 0 161 0 320C0 373 14 422 39 465C45 474 55 480 66 480H510C521 480 531 474 537 465C562 422 576 373 576 320C576 161 447 32 288 32ZM343 416H233C230 410 227 404 226 398L92 376C79 374 70 361 72 348C74 335 87 326 100 328L234 351C245 332 265 320 288 320C323 320 352 349 352 384C352 396 349 406 343 416Z"/></svg>