<svg xmlns="http://www.w3.org/2000/svg" viewBox="0 0 576 512"><!-- Font Awesome Pro 6.0.0-alpha1 by @fontawesome - https://fontawesome.com License - https://fontawesome.com/license (Commercial License) --><path d="M288 32C129 32 0 161 0 320C0 373 14 422 39 465C45 474 55 480 66 480H510C521 480 531 474 537 465C562 422 576 373 576 320C576 161 447 32 288 32ZM288 96C306 96 320 110 320 128S306 160 288 160S256 146 256 128S270 96 288 96ZM96 384C78 384 64 370 64 352S78 320 96 320S128 334 128 352S114 384 96 384ZM144 224C126 224 112 210 112 192S126 160 144 160S176 174 176 192S162 224 144 224ZM343 416H233C227 406 224 396 224 384C224 349 253 320 288 320C294 320 299 321 304 322L413 178C421 167 436 165 446 173C457 181 459 196 451 206L343 351C349 361 352 372 352 384C352 396 349 406 343 416ZM480 384C462 384 448 370 448 352S462 320 480 320S512 334 512 352S498 384 480 384Z"/></svg>