<svg xmlns="http://www.w3.org/2000/svg" viewBox="0 0 384 512"><!-- Font Awesome Pro 6.0.0-alpha1 by @fontawesome - https://fontawesome.com License - https://fontawesome.com/license (Commercial License) --><path d="M186 0C81 3 0 95 0 200V464C0 478 17 485 27 475L52 457C59 452 68 453 74 459L117 507C123 514 133 514 139 507L180 462C186 454 198 454 204 462L245 507C251 514 261 514 267 507L310 459C316 453 325 452 332 457L357 475C367 485 384 478 384 464V192C384 84 295 -3 186 0ZM128 224C110 224 96 210 96 192S110 160 128 160S160 174 160 192S146 224 128 224ZM256 224C238 224 224 210 224 192S238 160 256 160C274 160 288 174 288 192S274 224 256 224Z"/></svg>