<svg xmlns="http://www.w3.org/2000/svg" viewBox="0 0 512 512"><!-- Font Awesome Pro 6.0.0-alpha1 by @fontawesome - https://fontawesome.com License - https://fontawesome.com/license (Commercial License) --><path d="M32 480C32 498 46 512 64 512H224V288H32V480ZM480 128H438C450 105 453 77 438 47C423 17 393 0 359 0C318 0 291 21 256 68C221 21 194 0 153 0C119 0 89 17 74 47C59 77 62 105 74 128H32C14 128 0 142 0 160V224C0 242 14 256 32 256H480C498 256 512 242 512 224V160C512 142 498 128 480 128ZM154 128C132 128 114 110 114 88S132 48 154 48C174 48 189 51 240 128H154ZM358 128H272C323 51 338 48 358 48C380 48 398 66 398 88S380 128 358 128ZM288 512H448C466 512 480 498 480 480V288H288V512Z"/></svg>