<svg xmlns="http://www.w3.org/2000/svg" viewBox="0 0 576 512"><!-- Font Awesome Pro 6.0.0-alpha1 by @fontawesome - https://fontawesome.com License - https://fontawesome.com/license (Commercial License) --><path d="M528 128H470C482 105 485 77 470 47C455 17 425 0 391 0C350 0 323 21 288 68C253 21 226 0 185 0C151 0 121 17 106 47C91 77 94 105 106 128H48C22 128 0 150 0 176V464C0 490 22 512 48 512H528C554 512 576 490 576 464V176C576 150 554 128 528 128ZM390 48C412 48 430 66 430 88S412 128 390 128H304C355 51 370 48 390 48ZM146 88C146 66 164 48 186 48C206 48 221 51 272 128H186C164 128 146 110 146 88ZM512 448H64V384H512V448ZM512 320H64V192H206L170 228C164 234 164 244 170 250L182 262C188 268 198 268 204 262L274 192H302L372 262C378 268 388 268 394 262L406 250C412 244 412 234 406 228L370 192H512V320Z"/></svg>