<svg xmlns="http://www.w3.org/2000/svg" viewBox="0 0 448 512"><!-- Font Awesome Pro 6.0.0-alpha1 by @fontawesome - https://fontawesome.com License - https://fontawesome.com/license (Commercial License) --><path d="M338 304H368C407 304 438 269 431 229C426 198 396 176 365 176H299C292 176 288 168 293 162C314 141 325 110 318 76C311 39 280 8 242 2C181 -9 128 37 128 96C128 122 138 145 155 162C160 167 156 176 149 176H83C51 176 22 198 17 229C10 269 41 304 80 304H110C120 304 128 312 128 322C128 326 127 331 124 334L66 404C42 432 44 476 73 498C84 508 98 512 112 512C130 512 149 504 161 489L199 443C212 428 236 428 249 443L287 489C300 504 318 512 336 512C350 512 364 508 376 498C404 476 406 432 383 404L324 334C322 331 320 327 320 322C320 312 328 304 338 304ZM192 96C183 96 176 89 176 80S183 64 192 64S208 71 208 80S201 96 192 96ZM224 368C215 368 208 361 208 352C208 343 215 336 224 336S240 343 240 352C240 361 233 368 224 368ZM224 304C215 304 208 297 208 288C208 279 215 272 224 272S240 279 240 288C240 297 233 304 224 304ZM224 240C215 240 208 233 208 224C208 215 215 208 224 208S240 215 240 224C240 233 233 240 224 240ZM256 96C247 96 240 89 240 80S247 64 256 64S272 71 272 80S265 96 256 96Z"/></svg>