<svg xmlns="http://www.w3.org/2000/svg" viewBox="0 0 512 512"><!-- Font Awesome Pro 6.0.0-alpha1 by @fontawesome - https://fontawesome.com License - https://fontawesome.com/license (Commercial License) --><path d="M320 128H32C23 128 14 132 8 138C2 145 -1 154 0 163L32 483C34 499 48 512 64 512H288C304 512 318 499 320 483L352 163C353 154 350 145 344 138C338 132 329 128 320 128ZM278 256H74L68 192H284L278 256ZM368 0C305 0 253 40 233 96H285C302 67 333 48 368 48C421 48 464 91 464 144C464 194 425 235 376 239L372 288C449 286 512 222 512 144C512 65 448 0 368 0Z"/></svg>