<svg xmlns="http://www.w3.org/2000/svg" viewBox="0 0 448 512"><!-- Font Awesome Pro 6.0.0-alpha1 by @fontawesome - https://fontawesome.com License - https://fontawesome.com/license (Commercial License) --><path d="M384 416H64L17 487C10 498 17 512 30 512H418C431 512 439 498 431 487L384 416ZM192 384V352H134C120 352 112 337 121 327L187 256H157C146 256 140 245 147 237L214 164C219 159 229 159 234 164L301 237C308 245 302 256 291 256H261L327 327C336 337 328 352 314 352H256V384H380C422 343 448 287 448 224C448 100 348 0 224 0S0 100 0 224C0 287 26 343 68 384H192ZM336 160C345 160 352 167 352 176S345 192 336 192S320 185 320 176S327 160 336 160ZM240 64C249 64 256 71 256 80S249 96 240 96S224 89 224 80S231 64 240 64ZM80 224C89 224 96 231 96 240S89 256 80 256S64 249 64 240S71 224 80 224Z"/></svg>