<svg xmlns="http://www.w3.org/2000/svg" viewBox="0 0 512 512"><!-- Font Awesome Pro 6.0.0-alpha1 by @fontawesome - https://fontawesome.com License - https://fontawesome.com/license (Commercial License) --><path d="M187 26C119 47 64 96 36 160H136C146 104 164 57 187 26ZM160 256C160 279 161 300 164 320H348C351 300 352 279 352 256S351 212 348 192H164C161 212 160 233 160 256ZM344 160C327 72 290 16 256 16S185 72 168 160H344ZM476 160C448 96 393 47 325 26C348 57 366 104 376 160H476ZM325 486C393 465 448 416 476 352H376C366 408 348 455 325 486ZM487 192H380C383 213 384 234 384 256S383 299 380 320H487C493 300 496 278 496 256S493 212 487 192ZM168 352C185 440 222 496 256 496S327 440 344 352H168ZM128 256C128 234 129 213 132 192H25C19 212 16 234 16 256S19 300 25 320H132C129 299 128 278 128 256ZM36 352C64 416 119 465 187 486C164 455 146 408 136 352H36Z"/></svg>