<svg xmlns="http://www.w3.org/2000/svg" viewBox="0 0 512 512"><!-- Font Awesome Pro 6.0.0-alpha1 by @fontawesome - https://fontawesome.com License - https://fontawesome.com/license (Commercial License) --><path d="M496 352H480V240C480 231 473 224 464 224H448V144C448 135 441 128 432 128H416V16C416 7 409 0 400 0S384 7 384 16V32H320V16C320 7 313 0 304 0S288 7 288 16V32H224V16C224 7 217 0 208 0S192 7 192 16V32H128V16C128 7 121 0 112 0S96 7 96 16V128H80C71 128 64 135 64 144V224H48C39 224 32 231 32 240V352H16C7 352 0 359 0 368V496C0 505 7 512 16 512H96V352H128V224H160V128H192V224H160V352H128V512H208V432C208 423 215 416 224 416H288C297 416 304 423 304 432V512H384V352H352V224H320V128H352V224H384V352H416V512H496C505 512 512 505 512 496V368C512 359 505 352 496 352ZM232 176C232 167 239 160 248 160H264C273 160 280 167 280 176V224H232V176ZM288 352H224V288C224 279 231 272 240 272H272C281 272 288 279 288 288V352Z"/></svg>