<svg xmlns="http://www.w3.org/2000/svg" viewBox="0 0 640 512"><!-- Font Awesome Pro 6.0.0-alpha1 by @fontawesome - https://fontawesome.com License - https://fontawesome.com/license (Commercial License) --><path d="M624 137L341 36C327 31 313 31 299 36L16 137C6 140 0 150 0 160S6 180 16 183L76 205C64 220 56 239 52 259C40 263 32 275 32 288C32 298 37 306 44 312L19 461C17 471 25 480 35 480H93C103 480 111 471 109 461L84 312C91 306 96 298 96 288C96 278 91 269 83 263C88 245 96 229 108 216L299 284C312 289 327 289 341 284L624 183C634 180 640 170 640 160S634 140 624 137ZM352 314C342 318 331 320 320 320C309 320 298 318 288 314L143 262L128 405C128 447 214 480 320 480C426 480 512 447 512 405L497 262L352 314Z"/></svg>