<svg xmlns="http://www.w3.org/2000/svg" viewBox="0 0 384 512"><!-- Font Awesome Pro 6.0.0-alpha1 by @fontawesome - https://fontawesome.com License - https://fontawesome.com/license (Commercial License) --><path d="M70 317C132 274 231 223 308 243C320 246 328 257 328 269C328 288 312 304 293 304H184C171 304 160 315 160 328V352H293C339 352 376 315 376 269C376 235 353 206 321 197C243 176 183 81 151 14C141 -7 112 -4 106 18L33 291C27 313 51 330 70 317ZM368 448H352V416C352 398 338 384 320 384H64C46 384 32 398 32 416V448H16C7 448 0 455 0 464V496C0 505 7 512 16 512H368C377 512 384 505 384 496V464C384 455 377 448 368 448Z"/></svg>