<svg xmlns="http://www.w3.org/2000/svg" viewBox="0 0 512 512"><!-- Font Awesome Pro 6.0.0-alpha1 by @fontawesome - https://fontawesome.com License - https://fontawesome.com/license (Commercial License) --><path d="M96 0H32C14 0 0 14 0 32V96C0 114 14 128 32 128H96C114 128 128 114 128 96V32C128 14 114 0 96 0ZM288 0H224C206 0 192 14 192 32V96C192 114 206 128 224 128H288C306 128 320 114 320 96V32C320 14 306 0 288 0ZM480 0H416C398 0 384 14 384 32V96C384 114 398 128 416 128H480C498 128 512 114 512 96V32C512 14 498 0 480 0ZM96 384H32C14 384 0 398 0 416V480C0 498 14 512 32 512H96C114 512 128 498 128 480V416C128 398 114 384 96 384ZM288 384H224C206 384 192 398 192 416V480C192 498 206 512 224 512H288C306 512 320 498 320 480V416C320 398 306 384 288 384ZM480 384H416C398 384 384 398 384 416V480C384 498 398 512 416 512H480C498 512 512 498 512 480V416C512 398 498 384 480 384ZM96 192H32C14 192 0 206 0 224V288C0 306 14 320 32 320H96C114 320 128 306 128 288V224C128 206 114 192 96 192ZM288 192H224C206 192 192 206 192 224V288C192 306 206 320 224 320H288C306 320 320 306 320 288V224C320 206 306 192 288 192ZM480 192H416C398 192 384 206 384 224V288C384 306 398 320 416 320H480C498 320 512 306 512 288V224C512 206 498 192 480 192Z"/></svg>