<svg xmlns="http://www.w3.org/2000/svg" viewBox="0 0 512 512"><!-- Font Awesome Pro 6.0.0-alpha1 by @fontawesome - https://fontawesome.com License - https://fontawesome.com/license (Commercial License) --><path d="M392 0H344C340 0 336 4 336 8V56C336 60 340 64 344 64H392C396 64 400 60 400 56V8C400 4 396 0 392 0ZM280 0H232C228 0 224 4 224 8V56C224 60 228 64 232 64H280C284 64 288 60 288 56V8C288 4 284 0 280 0ZM168 0H120C116 0 112 4 112 8V56C112 60 116 64 120 64H168C172 64 176 60 176 56V8C176 4 172 0 168 0ZM56 0H8C4 0 0 4 0 8V56C0 60 4 64 8 64H56C60 64 64 60 64 56V8C64 4 60 0 56 0ZM504 0H456C452 0 448 4 448 8V56C448 60 452 64 456 64H504C508 64 512 60 512 56V8C512 4 508 0 504 0ZM56 448H8C4 448 0 452 0 456V504C0 508 4 512 8 512H56C60 512 64 508 64 504V456C64 452 60 448 56 448ZM168 448H120C116 448 112 452 112 456V504C112 508 116 512 120 512H168C172 512 176 508 176 504V456C176 452 172 448 168 448ZM392 448H344C340 448 336 452 336 456V504C336 508 340 512 344 512H392C396 512 400 508 400 504V456C400 452 396 448 392 448ZM280 448H232C228 448 224 452 224 456V504C224 508 228 512 232 512H280C284 512 288 508 288 504V456C288 452 284 448 280 448ZM504 448H456C452 448 448 452 448 456V504C448 508 452 512 456 512H504C508 512 512 508 512 504V456C512 452 508 448 504 448ZM504 336H456C452 336 448 340 448 344V392C448 396 452 400 456 400H504C508 400 512 396 512 392V344C512 340 508 336 504 336ZM168 336H120C116 336 112 340 112 344V392C112 396 116 400 120 400H168C172 400 176 396 176 392V344C176 340 172 336 168 336ZM56 336H8C4 336 0 340 0 344V392C0 396 4 400 8 400H56C60 400 64 396 64 392V344C64 340 60 336 56 336ZM392 336H344C340 336 336 340 336 344V392C336 396 340 400 344 400H392C396 400 400 396 400 392V344C400 340 396 336 392 336ZM280 336H232C228 336 224 340 224 344V392C224 396 228 400 232 400H280C284 400 288 396 288 392V344C288 340 284 336 280 336ZM392 224H344C340 224 336 228 336 232V280C336 284 340 288 344 288H392C396 288 400 284 400 280V232C400 228 396 224 392 224ZM280 224H232C228 224 224 228 224 232V280C224 284 228 288 232 288H280C284 288 288 284 288 280V232C288 228 284 224 280 224ZM504 224H456C452 224 448 228 448 232V280C448 284 452 288 456 288H504C508 288 512 284 512 280V232C512 228 508 224 504 224ZM168 224H120C116 224 112 228 112 232V280C112 284 116 288 120 288H168C172 288 176 284 176 280V232C176 228 172 224 168 224ZM56 224H8C4 224 0 228 0 232V280C0 284 4 288 8 288H56C60 288 64 284 64 280V232C64 228 60 224 56 224ZM504 112H456C452 112 448 116 448 120V168C448 172 452 176 456 176H504C508 176 512 172 512 168V120C512 116 508 112 504 112ZM392 112H344C340 112 336 116 336 120V168C336 172 340 176 344 176H392C396 176 400 172 400 168V120C400 116 396 112 392 112ZM168 112H120C116 112 112 116 112 120V168C112 172 116 176 120 176H168C172 176 176 172 176 168V120C176 116 172 112 168 112ZM280 112H232C228 112 224 116 224 120V168C224 172 228 176 232 176H280C284 176 288 172 288 168V120C288 116 284 112 280 112ZM56 112H8C4 112 0 116 0 120V168C0 172 4 176 8 176H56C60 176 64 172 64 168V120C64 116 60 112 56 112Z"/></svg>