<svg xmlns="http://www.w3.org/2000/svg" viewBox="0 0 384 512"><!-- Font Awesome Pro 6.0.0-alpha1 by @fontawesome - https://fontawesome.com License - https://fontawesome.com/license (Commercial License) --><path d="M328 224H224V145C243 148 261 155 276 167C285 174 298 174 306 166L330 144C341 134 341 117 329 107C299 83 263 68 224 65H224V16C224 7 217 0 208 0H176C167 0 160 7 160 16V71C143 75 126 82 110 91C62 119 29 167 19 221C1 325 67 418 160 442V496C160 505 167 512 176 512H208C217 512 224 505 224 496V447C307 440 368 381 368 304V264C368 242 350 224 328 224ZM192 65C192 65 192 65 192 65C192 65 192 65 192 65ZM96 256C96 211 122 173 160 155V357C122 339 96 301 96 256ZM224 367V304H288C288 340 257 361 224 367Z"/></svg>