<svg xmlns="http://www.w3.org/2000/svg" viewBox="0 0 512 512"><!-- Font Awesome Pro 6.0.0-alpha1 by @fontawesome - https://fontawesome.com License - https://fontawesome.com/license (Commercial License) --><path d="M229 300C235 290 238 278 238 266C238 237 221 211 194 195C182 187 167 183 152 181V127L169 94C171 90 172 85 172 81V26C172 12 160 0 145 0H111C96 0 84 12 84 26V80C84 85 85 89 87 93L104 127V181C89 183 74 187 61 195C55 199 49 204 43 210C28 225 18 245 18 266C18 278 21 290 27 300C35 316 33 336 22 349C8 366 0 385 0 407C0 465 57 512 128 512C168 512 203 497 227 474C228 472 229 471 230 470C221 443 222 415 233 389L243 361C240 357 237 353 234 349C223 336 221 316 229 300ZM156 332C141 348 115 348 100 332C84 317 84 291 100 276C115 260 141 260 156 276C172 291 172 317 156 332ZM506 401L478 327C472 309 473 289 481 272C486 262 488 251 488 241V212C488 204 482 196 474 194C466 192 457 196 453 204L443 224C437 235 427 241 416 243L408 243V73C410 72 411 71 413 70C428 55 429 31 416 15C402 -1 379 -5 362 7C345 18 348 20 330 103C328 112 331 122 337 128L360 151V243L352 242C341 239 331 231 327 220L314 184C311 177 303 172 295 173C286 175 280 182 280 190V241C280 251 283 262 287 272C295 289 296 309 290 327L263 401C240 454 278 512 336 512H432C489 512 528 453 506 401ZM432 392C432 396 428 400 424 400H344C340 400 336 396 336 392V376C336 372 340 368 344 368H424C428 368 432 372 432 376V392ZM432 328C432 332 428 336 424 336H344C340 336 336 332 336 328V312C336 307 340 304 344 304H424C428 304 432 307 432 312V328Z"/></svg>