<svg xmlns="http://www.w3.org/2000/svg" viewBox="0 0 512 512"><!-- Font Awesome Pro 6.0.0-alpha1 by @fontawesome - https://fontawesome.com License - https://fontawesome.com/license (Commercial License) --><path d="M511 40C508 20 493 5 473 1C450 -3 451 1 367 55C358 61 352 71 352 82V115L244 223C236 212 235 197 241 185L258 148C262 139 259 130 252 124C244 119 234 120 227 126L189 165C181 173 175 183 171 194C164 213 149 229 130 238L54 273C-3 296 -18 370 25 414L98 487C142 530 216 515 239 458L274 382C283 363 299 348 319 341C329 337 339 331 348 323L369 302C376 295 377 285 372 277C367 269 358 266 349 268L325 276C313 280 299 277 288 269L462 96C462 96 463 96 464 96C478 96 492 90 501 79S514 54 511 40ZM182 394L170 406C167 409 162 409 159 406L106 353C105 352 104 350 104 347S105 343 106 342L118 330C119 329 121 328 123 328C125 328 128 329 129 330L182 383C183 384 184 386 184 389S183 393 182 394ZM246 330L234 342C231 345 226 345 223 342L170 289C169 288 168 286 168 283C168 281 169 279 170 278L182 266C183 265 185 264 187 264C189 264 191 265 193 266L246 319C247 320 248 322 248 325S247 329 246 330Z"/></svg>