<svg xmlns="http://www.w3.org/2000/svg" viewBox="0 0 640 512"><!-- Font Awesome Pro 6.0.0-alpha1 by @fontawesome - https://fontawesome.com License - https://fontawesome.com/license (Commercial License) --><path d="M296 64H248C235 64 224 75 224 88V208H96V88C96 75 85 64 72 64H24C11 64 0 75 0 88V424C0 437 11 448 24 448H72C85 448 96 437 96 424V304H224V424C224 437 235 448 248 448H296C309 448 320 437 320 424V88C320 75 309 64 296 64ZM615 352H497C508 343 520 334 535 324C582 294 640 257 640 184C640 114 584 64 504 64C448 64 399 91 372 138C365 150 368 164 379 171L421 199C433 206 448 202 456 191C469 172 483 163 499 163C504 163 528 167 528 192C528 210 506 224 477 243C428 276 368 319 368 400V424C368 437 379 448 392 448H615C629 448 640 437 640 424V376C640 363 629 352 615 352Z"/></svg>