<svg xmlns="http://www.w3.org/2000/svg" viewBox="0 0 576 512"><!-- Font Awesome Pro 6.0.0-alpha1 by @fontawesome - https://fontawesome.com License - https://fontawesome.com/license (Commercial License) --><path d="M569 196L546 174C542 169 536 167 529 167S517 169 512 174L507 179L487 159C491 136 484 111 467 94L422 49C390 17 348 0 303 0C258 0 216 17 184 49L176 57L272 105V119C272 138 280 156 294 170L343 219C356 232 374 240 393 240C398 240 403 239 407 238L428 259L422 264C413 274 413 289 422 298L445 321C449 325 455 328 461 328S474 325 478 321L569 230C578 221 578 206 569 196ZM271 192C267 189 264 184 261 180L21 389C-7 417 -7 463 21 491C35 505 54 512 72 512S109 505 123 491L332 252C328 248 324 245 320 242L271 192Z"/></svg>