<svg xmlns="http://www.w3.org/2000/svg" viewBox="0 0 640 512"><!-- Font Awesome Pro 6.0.0-alpha1 by @fontawesome - https://fontawesome.com License - https://fontawesome.com/license (Commercial License) --><path d="M488 192H336L336 244C336 282 309 316 272 320C228 324 192 290 192 248V126L168 141C123 168 96 216 96 267V267L16 314C1 322 -5 342 4 357L84 496C93 511 113 516 128 508L231 448H368C403 448 432 419 432 384H432C459 384 480 362 480 336V288H488C501 288 512 277 512 264V216C512 203 501 192 488 192ZM636 155L556 16C547 1 527 -5 512 4L409 64H346C308 64 271 75 239 95L239 95C230 100 224 111 224 122V248C224 270 242 288 264 288C286 288 304 270 304 248V160H488C519 160 544 185 544 216V245L624 198C639 189 645 170 636 155Z"/></svg>