<svg xmlns="http://www.w3.org/2000/svg" viewBox="0 0 576 512"><!-- Font Awesome Pro 6.0.0-alpha1 by @fontawesome - https://fontawesome.com License - https://fontawesome.com/license (Commercial License) --><path d="M480 0H416C375 0 338 16 310 41C336 73 351 113 352 157C425 142 480 78 480 0ZM256 160V272C256 281 263 288 272 288H304C313 288 320 281 320 272V160C320 72 248 0 160 0H96C96 88 168 160 256 160ZM568 336C555 318 530 315 512 328L393 416H272C263 416 256 409 256 400C256 391 263 384 272 384H350C366 384 381 373 384 357C387 337 371 320 352 320H192C165 320 139 329 118 346L71 384H16C7 384 0 391 0 400V496C0 505 7 512 16 512H363C385 512 407 505 425 492L560 392C578 379 581 354 568 336Z"/></svg>