<svg xmlns="http://www.w3.org/2000/svg" viewBox="0 0 576 512"><!-- Font Awesome Pro 6.0.0-alpha1 by @fontawesome - https://fontawesome.com License - https://fontawesome.com/license (Commercial License) --><path d="M224 224C277 224 320 181 320 128C320 128 288 160 224 160C206 160 192 142 192 128V96C192 78 206 64 224 64H352C370 64 384 78 384 96V128C384 162 366 194 342 219L288 272L306 271C383 267 447 206 448 130V96C448 43 405 0 352 0H224C171 0 128 43 128 96V128C128 179 173 224 224 224ZM568 336C555 318 530 315 512 328L393 416H272C263 416 256 409 256 400C256 391 263 384 272 384H350C366 384 381 373 384 357C387 337 371 320 352 320H192C165 320 139 329 118 346L71 384H16C7 384 0 391 0 400V496C0 505 7 512 16 512H363C385 512 407 505 425 492L560 392C578 379 581 354 568 336Z"/></svg>