<svg xmlns="http://www.w3.org/2000/svg" viewBox="0 0 448 512"><!-- Font Awesome Pro 6.0.0-alpha1 by @fontawesome - https://fontawesome.com License - https://fontawesome.com/license (Commercial License) --><path d="M368 288H352C351 288 350 288 349 288C343 306 325 320 304 320H288C279 320 271 318 264 314C256 327 241 336 224 336H208C196 336 185 331 176 324V464C176 490 154 512 128 512S80 490 80 464V168C80 164 76 160 72 160S64 164 64 168V243L24 211C9 199 0 181 0 161V108C0 84 13 63 33 51L99 16C118 5 139 0 161 0H288C359 0 416 57 416 128V240C416 266 394 288 368 288Z"/></svg>