<svg xmlns="http://www.w3.org/2000/svg" viewBox="0 0 512 512"><!-- Font Awesome Pro 6.0.0-alpha1 by @fontawesome - https://fontawesome.com License - https://fontawesome.com/license (Commercial License) --><path d="M224 432V416C224 415 224 414 224 413C206 407 192 389 192 368V352C192 343 194 335 198 328C185 320 176 305 176 288V272C176 260 181 249 188 240H48C22 240 0 218 0 192S22 144 48 144H344C348 144 352 140 352 136S348 128 344 128H269L301 88C313 73 331 64 351 64H404C428 64 449 77 461 97L496 163C507 182 512 203 512 225V352C512 423 455 480 384 480H272C246 480 224 458 224 432Z"/></svg>