<svg xmlns="http://www.w3.org/2000/svg" viewBox="0 0 512 512"><!-- Font Awesome Pro 6.0.0-alpha1 by @fontawesome - https://fontawesome.com License - https://fontawesome.com/license (Commercial License) --><path d="M331 242L223 209C210 205 197 212 193 225C189 238 196 251 209 255L256 272H57C45 272 35 280 32 291C30 307 41 320 56 320H184C188 320 192 324 192 328S188 336 184 336H25C13 336 3 344 0 355C-2 371 9 384 24 384H184C188 384 192 388 192 392S188 400 184 400H57C45 400 35 408 32 419C30 435 41 448 56 448H184C188 448 192 452 192 456S188 464 184 464H89C77 464 67 472 64 483C62 499 73 512 88 512H296C362 512 416 458 416 392V360C416 307 382 259 331 242ZM197 179C203 177 209 176 216 176C222 176 227 177 233 178L249 183L228 117C224 106 214 98 202 100C187 102 177 117 182 131L197 179ZM487 145C474 145 463 155 463 169L461 219L401 29C398 18 387 10 375 11C360 13 351 28 355 42L394 165C395 169 393 173 389 175C384 176 380 174 378 169L331 18C327 7 316 -1 305 0C289 2 280 17 284 31L328 169C329 173 327 178 323 179C318 180 314 178 313 174L279 67C276 56 265 49 253 50C238 52 229 67 233 81L267 189L341 212C405 233 448 293 448 360V388C486 367 511 327 512 281V168C512 155 500 145 487 145Z"/></svg>