<svg xmlns="http://www.w3.org/2000/svg" viewBox="0 0 640 512"><!-- Font Awesome Pro 6.0.0-alpha1 by @fontawesome - https://fontawesome.com License - https://fontawesome.com/license (Commercial License) --><path d="M359 196L504 314C516 324 524 337 526 352H608C626 352 640 337 640 320V160C640 142 626 128 608 128H512C471 87 415 64 358 64H349C341 64 333 67 327 72L234 158L208 138L289 64H283C239 64 197 78 162 101L39 5C34 2 29 0 24 0C17 0 10 3 5 9C-3 20 -1 35 9 43L601 507C612 515 627 513 635 503C643 492 641 477 631 469L495 363C495 354 491 345 484 339L335 217L323 228L298 208L336 173L363 148C370 142 380 143 386 149C392 156 391 166 385 172L359 196ZM32 128C14 128 0 142 0 160V320C0 337 14 352 32 352H146L237 434C264 456 304 452 327 424L327 424L345 440C361 453 384 450 397 434L410 418L40 128H32Z"/></svg>