<svg xmlns="http://www.w3.org/2000/svg" viewBox="0 0 640 512"><!-- Font Awesome Pro 6.0.0-alpha1 by @fontawesome - https://fontawesome.com License - https://fontawesome.com/license (Commercial License) --><path d="M200 240C217 240 232 251 238 267C244 283 262 292 279 286C295 280 304 262 298 245C287 215 263 192 233 182L313 159C330 154 340 136 335 119C330 102 312 92 295 97L196 126L277 56C290 45 292 25 280 11C269 -2 249 -4 235 8L135 94L157 45C164 29 157 10 141 3C125 -4 106 3 99 19L15 207C5 229 0 252 0 277C0 336 48 384 107 384H207C239 382 268 365 286 338C296 323 292 303 278 293C263 284 243 287 233 302C226 313 213 320 200 320C178 320 160 302 160 280C160 258 178 240 200 240ZM533 128H433C401 130 372 147 354 174C344 189 348 209 362 219C377 228 397 225 407 210C414 199 427 192 440 192C462 192 480 210 480 232C480 254 462 272 440 272C423 272 408 261 402 245C396 229 378 220 361 226C345 232 336 250 342 267C353 297 377 320 407 330L327 353C310 358 300 376 305 393C310 410 328 420 345 415L444 386L363 456C350 467 348 487 360 501C371 514 391 516 405 504L505 418L483 467C476 483 483 502 499 509C515 516 534 509 541 493L625 305C635 283 640 260 640 235C640 176 592 128 533 128Z"/></svg>