<svg xmlns="http://www.w3.org/2000/svg" viewBox="0 0 576 512"><!-- Font Awesome Pro 6.0.0-alpha1 by @fontawesome - https://fontawesome.com License - https://fontawesome.com/license (Commercial License) --><path d="M255 144L309 159C313 159 316 163 316 167C316 171 312 175 307 175H271C267 175 264 174 260 173C255 171 249 171 245 175L226 192C225 193 224 194 224 195C222 198 221 201 222 204S225 209 227 211C238 217 250 221 262 222V240C262 249 270 256 279 256H297C306 256 314 249 314 240V222C347 219 372 191 368 159C364 136 345 118 321 112L267 97C263 97 260 93 260 89C260 85 264 81 269 81H305C309 81 312 82 316 83C321 85 327 85 331 81L350 64C351 63 352 62 353 61C354 58 354 55 354 52C353 49 351 47 349 45C338 39 326 35 314 34V16C314 7 306 0 297 0H279C270 0 262 7 262 16V34C229 37 204 65 209 97C212 120 231 138 255 144ZM568 336C555 318 530 315 512 328L393 416H272C263 416 256 409 256 400C256 391 263 384 272 384H350C366 384 381 373 384 357C387 337 371 320 352 320H192C165 320 139 329 118 346L71 384H16C7 384 0 391 0 400V496C0 505 7 512 16 512H363C385 512 407 505 425 492L560 392C578 379 581 354 568 336Z"/></svg>