<svg xmlns="http://www.w3.org/2000/svg" viewBox="0 0 640 512"><!-- Font Awesome Pro 6.0.0-alpha1 by @fontawesome - https://fontawesome.com License - https://fontawesome.com/license (Commercial License) --><path d="M272 192C254 192 240 206 240 224V304C240 313 233 320 224 320S208 313 208 304V227C208 210 213 193 222 178L300 48C309 33 304 14 289 5C274 -4 256 0 246 14C246 14 245 14 245 14L128 190C118 206 112 224 112 243V324L22 354C9 358 0 370 0 384V480C0 491 9 512 32 512C35 512 37 512 40 511L219 464C269 450 304 404 304 352V224C304 206 290 192 272 192ZM618 354L528 324V243C528 224 522 206 512 190L395 14C394 14 394 14 394 14C384 0 366 -4 352 5C336 14 332 33 341 49L418 178C427 193 432 210 432 228V304C432 313 425 320 416 320S400 313 400 304V224C400 206 386 192 368 192S336 206 336 224V352C336 404 371 450 421 464L600 511C603 512 605 512 608 512C631 512 640 491 640 480V384C640 370 631 358 618 354Z"/></svg>