<svg xmlns="http://www.w3.org/2000/svg" viewBox="0 0 512 512"><!-- Font Awesome Pro 6.0.0-alpha1 by @fontawesome - https://fontawesome.com License - https://fontawesome.com/license (Commercial License) --><path d="M436 96C415 98 400 117 400 138V248C400 252 396 256 392 256H392C387 256 384 252 384 248V74C384 53 368 34 348 32C324 30 304 49 304 72V248C304 252 300 256 296 256H296C291 256 288 252 288 248V42C288 21 272 2 252 0C228 -2 208 17 208 40V248C208 252 204 256 200 256H199C195 256 192 253 191 249C190 234 189 219 188 204L175 84C173 62 153 46 131 48C110 50 94 70 96 92L108 213C113 256 115 300 117 344L72 281C59 262 31 258 13 274C-3 288 -4 312 8 329L89 442C120 486 171 512 225 512H312C404 512 480 437 480 344V136C480 113 460 94 436 96Z"/></svg>