<svg xmlns="http://www.w3.org/2000/svg" viewBox="0 0 640 512"><!-- Font Awesome Pro 6.0.0-alpha1 by @fontawesome - https://fontawesome.com License - https://fontawesome.com/license (Commercial License) --><path d="M448 384H64C29 384 0 413 0 448V448C0 466 14 480 32 480H480C498 480 512 466 512 448V448C512 413 483 384 448 384ZM384 192L456 211C458 207 461 203 464 200C464 186 470 171 481 161C483 159 486 157 488 155L435 92C403 54 355 32 305 32C237 32 175 73 148 137L64 352H448L384 192ZM640 240C640 228 632 218 621 215C626 205 625 192 617 183C608 175 595 174 585 179C582 168 572 160 560 160S538 168 535 179C525 174 512 175 503 183C495 192 494 205 499 215C488 218 480 228 480 240S488 262 499 265C494 275 495 288 503 297C509 302 515 304 522 304C527 304 531 303 535 301C538 312 548 320 560 320S582 312 585 301C589 303 593 304 598 304C605 304 611 302 617 297C625 288 626 275 621 265C632 262 640 252 640 240Z"/></svg>