<svg xmlns="http://www.w3.org/2000/svg" viewBox="0 0 512 512"><!-- Font Awesome Pro 6.0.0-alpha1 by @fontawesome - https://fontawesome.com License - https://fontawesome.com/license (Commercial License) --><path d="M195 105C190 115 191 128 199 137C205 142 211 144 218 144C223 144 227 143 231 141C234 152 244 160 256 160C268 160 278 152 281 141C285 143 289 144 294 144C301 144 307 142 313 137C321 128 322 115 317 105C328 102 336 92 336 80S328 58 317 55C322 45 321 32 313 23C304 15 291 14 281 19C278 8 268 0 256 0C244 0 234 8 231 19C221 14 208 15 199 23C191 32 190 45 195 55C184 58 176 68 176 80S184 102 195 105ZM128 270L192 302L256 270L320 302L384 270L448 302L455 298C436 248 400 194 336 158C336 158 336 159 335 159C325 170 311 176 296 176C285 186 271 192 256 192C241 192 227 186 216 176C202 176 187 170 177 159C176 159 176 158 176 158C112 194 76 248 57 298L64 302L128 270ZM496 448H16C7 448 0 455 0 464V496C0 505 7 512 16 512H496C505 512 512 505 512 496V464C512 455 505 448 496 448ZM466 329L448 338L384 306L320 338L256 306L192 338L128 306L64 338L46 329C32 378 32 416 32 416H480C480 416 480 378 466 329Z"/></svg>