<svg xmlns="http://www.w3.org/2000/svg" viewBox="0 0 512 512"><!-- Font Awesome Pro 6.0.0-alpha1 by @fontawesome - https://fontawesome.com License - https://fontawesome.com/license (Commercial License) --><path d="M416 32C395 32 375 39 358 52C335 21 298 0 256 0C214 0 177 21 154 52C125 30 86 26 53 42C20 58 0 91 0 128C0 170 64 320 64 320H138L112 163C111 154 117 146 125 144C134 143 142 149 144 157L171 320H240V160C240 151 247 144 256 144S272 151 272 160V320H341L368 157C370 149 378 143 387 144C395 146 401 154 400 163L374 320H448C448 320 512 170 512 128C512 75 469 32 416 32ZM64 480C64 498 78 512 96 512H416C434 512 448 498 448 480V352H64V480Z"/></svg>