<svg xmlns="http://www.w3.org/2000/svg" viewBox="0 0 512 512"><!-- Font Awesome Pro 6.0.0-alpha1 by @fontawesome - https://fontawesome.com License - https://fontawesome.com/license (Commercial License) --><path d="M192 224C192 206 178 192 160 192H144C109 192 80 221 80 256V304C80 339 109 368 144 368H160C178 368 192 354 192 336V224ZM256 0C113 0 5 119 0 256V304C0 313 7 320 16 320H32C41 320 48 313 48 304V256C48 141 141 48 256 48C371 48 464 141 464 256V400C464 422 446 440 424 440H313C305 426 290 416 272 416H240C214 416 192 438 192 464S214 512 240 512H272C290 512 305 502 313 488H424C473 488 512 449 512 400V256C507 119 399 0 256 0ZM368 368C403 368 432 339 432 304V256C432 221 403 192 368 192H352C334 192 320 206 320 224V336C320 354 334 368 352 368H368Z"/></svg>