<svg xmlns="http://www.w3.org/2000/svg" viewBox="0 0 512 512"><!-- Font Awesome Pro 6.0.0-alpha1 by @fontawesome - https://fontawesome.com License - https://fontawesome.com/license (Commercial License) --><path d="M509 275C488 228 461 123 436 88C397 33 334 0 266 0H192C86 0 0 86 0 192C0 246 23 298 64 335V512H320V448H384C419 448 448 419 448 384V320H480C491 320 501 314 507 305C513 296 514 285 509 275ZM336 218C336 227 329 234 320 234H266V288C266 297 259 304 250 304H198C189 304 182 297 182 288V234H128C119 234 112 227 112 218V166C112 157 119 150 128 150H182V96C182 87 189 80 198 80H250C259 80 266 87 266 96V150H320C329 150 336 157 336 166V218Z"/></svg>