<svg xmlns="http://www.w3.org/2000/svg" viewBox="0 0 512 512"><!-- Font Awesome Pro 6.0.0-alpha1 by @fontawesome - https://fontawesome.com License - https://fontawesome.com/license (Commercial License) --><path d="M160 179V176C160 177 160 178 160 179C160 179 160 179 160 179ZM509 275C488 228 461 123 436 88C397 33 334 0 266 0H192C86 0 0 86 0 192C0 246 23 298 64 335V512H320V448H384C419 448 448 419 448 384V320H480C491 320 501 314 507 305C513 296 514 285 509 275ZM336 208H285C287 213 288 218 288 224C288 250 266 272 240 272C234 272 229 271 224 269V320H160V269C155 271 150 272 144 272C118 272 96 250 96 224C96 223 96 222 96 221C74 214 61 191 65 168C69 145 89 128 112 128C112 102 134 80 160 80C168 80 176 82 183 86C192 73 207 64 224 64C241 64 256 73 265 86C277 79 292 78 305 83C318 88 329 99 333 112H336C362 112 384 134 384 160S362 208 336 208Z"/></svg>