<svg xmlns="http://www.w3.org/2000/svg" viewBox="0 0 512 512"><!-- Font Awesome Pro 6.0.0-alpha1 by @fontawesome - https://fontawesome.com License - https://fontawesome.com/license (Commercial License) --><path d="M509 275C488 228 461 123 436 88C397 33 334 0 266 0H192C86 0 0 86 0 192C0 246 23 298 64 335V512H320V448H384C419 448 448 419 448 384V320H480C491 320 501 314 507 305C513 296 514 285 509 275ZM330 198L247 284C242 289 233 289 228 284L145 198C121 173 122 132 149 109C173 89 208 93 229 115L238 124L246 115C268 93 303 89 326 109C353 132 354 173 330 198Z"/></svg>