<svg xmlns="http://www.w3.org/2000/svg" viewBox="0 0 512 512"><!-- Font Awesome Pro 6.0.0-alpha1 by @fontawesome - https://fontawesome.com License - https://fontawesome.com/license (Commercial License) --><path d="M463 63C439 42 409 32 379 32C341 32 303 47 276 76L256 96L256 96L236 76C186 24 103 16 49 63C-13 117 -16 213 40 270L233 470C239 477 248 480 256 480C264 480 273 477 279 470L472 270C528 213 525 117 463 63ZM438 237L256 425V165L256 165C294 126 283 137 310 109C328 91 353 80 379 80C393 80 413 83 432 99C451 116 463 140 464 167C465 193 455 219 438 237Z"/></svg>