<svg xmlns="http://www.w3.org/2000/svg" viewBox="0 0 448 512"><!-- Font Awesome Pro 6.0.0-alpha1 by @fontawesome - https://fontawesome.com License - https://fontawesome.com/license (Commercial License) --><path d="M64 152V112C64 103 57 96 48 96H16C7 96 0 103 0 112V152C0 206 20 259 57 299C82 327 96 364 96 402V464C96 473 103 480 112 480H144C153 480 160 473 160 464V402C160 348 140 296 104 256C78 227 64 190 64 152ZM392 256C366 227 352 190 352 152V112C352 103 345 96 336 96H304C295 96 288 103 288 112V152C288 206 308 259 345 299C370 327 384 364 384 402V464C384 473 391 480 400 480H432C441 480 448 473 448 464V402C448 348 428 296 392 256ZM208 152V48C208 39 201 32 192 32H160C151 32 144 39 144 48V152C144 206 164 259 201 299C226 327 240 364 240 402V464C240 473 247 480 256 480H288C297 480 304 473 304 464V402C304 348 284 296 248 256C222 227 208 190 208 152Z"/></svg>