<svg xmlns="http://www.w3.org/2000/svg" viewBox="0 0 576 512"><!-- Font Awesome Pro 6.0.0-alpha1 by @fontawesome - https://fontawesome.com License - https://fontawesome.com/license (Commercial License) --><path d="M565 232L309 8C303 2 295 0 287 0C280 0 273 3 267 8L11 232C4 238 0 247 0 256C0 274 14 288 32 288H64V448C64 483 93 512 128 512H448C483 512 512 483 512 448V288H544C562 288 576 274 576 256C576 247 572 238 565 232ZM381 326L298 412C292 417 284 417 278 412L195 326C171 301 173 260 200 237C223 217 258 221 279 243L288 252L296 243C318 221 353 217 376 237C403 260 405 301 381 326Z"/></svg>