<svg xmlns="http://www.w3.org/2000/svg" viewBox="0 0 576 512"><!-- Font Awesome Pro 6.0.0-alpha1 by @fontawesome - https://fontawesome.com License - https://fontawesome.com/license (Commercial License) --><path d="M288 192C218 192 160 249 160 320V512H416V320C416 249 359 192 288 192ZM570 461C512 384 512 320 512 320V256C512 172 466 133 411 73L451 34C463 21 454 0 437 0H288C192 0 64 110 64 256V320C64 320 64 384 6 461C2 467 0 474 0 480C0 497 14 512 32 512H128V320C128 232 200 160 288 160S448 232 448 320V512H544C563 512 576 497 576 480C576 474 574 467 570 461Z"/></svg>