<svg xmlns="http://www.w3.org/2000/svg" viewBox="0 0 512 512"><!-- Font Awesome Pro 6.0.0-alpha1 by @fontawesome - https://fontawesome.com License - https://fontawesome.com/license (Commercial License) --><path d="M510 332L440 168C425 127 390 97 347 89C365 78 393 53 381 7C380 2 374 -1 369 1L167 76C36 123 0 239 0 399V480C0 498 14 512 32 512H268C292 512 308 487 297 466L256 384V383C210 380 171 353 152 314C150 311 151 307 153 304L165 292C169 288 176 290 178 295C193 328 227 352 266 352C283 352 299 347 313 339L359 403C365 411 374 416 385 416H435C443 416 451 413 457 407L503 367C512 358 514 344 510 332ZM328 224C315 224 304 213 304 200S315 176 328 176C341 176 352 187 352 200S341 224 328 224Z"/></svg>