<svg xmlns="http://www.w3.org/2000/svg" viewBox="0 0 576 512"><!-- Font Awesome Pro 6.0.0-alpha1 by @fontawesome - https://fontawesome.com License - https://fontawesome.com/license (Commercial License) --><path d="M544 96H448V64C448 29 419 0 384 0H192C157 0 128 29 128 64V96H32C14 96 0 110 0 128V480C0 498 14 512 32 512H544C562 512 576 498 576 480V128C576 110 562 96 544 96ZM160 436C160 443 155 448 148 448H108C101 448 96 443 96 436V396C96 389 101 384 108 384H148C155 384 160 389 160 396V436ZM160 340C160 347 155 352 148 352H108C101 352 96 347 96 340V300C96 293 101 288 108 288H148C155 288 160 293 160 300V340ZM320 436C320 443 315 448 308 448H268C261 448 256 443 256 436V396C256 389 261 384 268 384H308C315 384 320 389 320 396V436ZM320 340C320 347 315 352 308 352H268C261 352 256 347 256 340V300C256 293 261 288 268 288H308C315 288 320 293 320 300V340ZM368 166C368 171 363 176 358 176H320V214C320 219 315 224 310 224H266C261 224 256 219 256 214V176H218C213 176 208 171 208 166V122C208 117 213 112 218 112H256V74C256 69 261 64 266 64H310C315 64 320 69 320 74V112H358C363 112 368 117 368 122V166ZM480 436C480 443 475 448 468 448H428C421 448 416 443 416 436V396C416 389 421 384 428 384H468C475 384 480 389 480 396V436ZM480 340C480 347 475 352 468 352H428C421 352 416 347 416 340V300C416 293 421 288 428 288H468C475 288 480 293 480 300V340Z"/></svg>