<svg xmlns="http://www.w3.org/2000/svg" viewBox="0 0 640 512"><!-- Font Awesome Pro 6.0.0-alpha1 by @fontawesome - https://fontawesome.com License - https://fontawesome.com/license (Commercial License) --><path d="M512 352H448C377 352 320 409 320 480C320 498 334 512 352 512H608C626 512 640 498 640 480C640 409 583 352 512 352ZM352 353V64C352 29 323 0 288 0H64C29 0 0 29 0 64V448C0 483 29 512 64 512H297C291 503 288 492 288 480C288 428 313 382 352 353ZM144 420C144 427 139 432 132 432H92C85 432 80 427 80 420V380C80 373 85 368 92 368H132C139 368 144 373 144 380V420ZM144 292C144 299 139 304 132 304H92C85 304 80 299 80 292V252C80 245 85 240 92 240H132C139 240 144 245 144 252V292ZM202 184C202 188 198 192 193 192H159C154 192 150 188 150 184V154H120C116 154 112 150 112 145V111C112 106 116 102 120 102H150V72C150 68 154 64 159 64H193C198 64 202 68 202 72V102H232C236 102 240 106 240 111V145C240 150 236 154 232 154H202V184ZM272 420C272 427 267 432 260 432H220C213 432 208 427 208 420V380C208 373 213 368 220 368H260C267 368 272 373 272 380V420ZM272 292C272 299 267 304 260 304H220C213 304 208 299 208 292V252C208 245 213 240 220 240H260C267 240 272 245 272 252V292ZM480 320C533 320 576 277 576 224S533 128 480 128S384 171 384 224S427 320 480 320Z"/></svg>