<svg xmlns="http://www.w3.org/2000/svg" viewBox="0 0 448 512"><!-- Font Awesome Pro 6.0.0-alpha1 by @fontawesome - https://fontawesome.com License - https://fontawesome.com/license (Commercial License) --><path d="M416 480V64C416 29 387 0 352 0H96C61 0 32 29 32 64V480C32 498 46 512 64 512H160C178 512 192 498 192 480V396C192 389 197 384 204 384H244C251 384 256 389 256 396V480C256 498 270 512 288 512H384C402 512 416 498 416 480ZM300 256H340C347 256 352 261 352 268V308C352 315 347 320 340 320H300C293 320 288 315 288 308V268C288 261 293 256 300 256ZM160 308C160 315 155 320 148 320H108C101 320 96 315 96 308V268C96 261 101 256 108 256H148C155 256 160 261 160 268V308ZM168 154C164 154 160 150 160 145V111C160 106 164 102 168 102H198V72C198 68 202 64 207 64H241C246 64 250 68 250 72V102H280C284 102 288 106 288 111V145C288 150 284 154 280 154H250V184C250 188 246 192 241 192H207C202 192 198 188 198 184V154H168ZM244 320H204C197 320 192 315 192 308V268C192 261 197 256 204 256H244C251 256 256 261 256 268V308C256 315 251 320 244 320Z"/></svg>