<svg xmlns="http://www.w3.org/2000/svg" viewBox="0 0 512 512"><!-- Font Awesome Pro 6.0.0-alpha1 by @fontawesome - https://fontawesome.com License - https://fontawesome.com/license (Commercial License) --><path d="M414 178C415 186 422 192 430 192H446C456 192 463 183 462 174C458 134 440 99 412 77C395 62 383 40 380 14C379 6 372 0 364 0H348C339 0 331 9 332 18C337 58 354 93 382 115C400 130 411 152 414 178ZM306 178C307 186 314 192 322 192H338C348 192 355 183 354 174C350 134 332 99 304 77C287 62 275 40 272 14C271 6 264 0 256 0H240C231 0 223 9 224 18C229 58 246 93 274 115C292 130 303 152 306 178ZM480 256H256L145 173C134 165 121 160 107 160H64C29 160 0 189 0 224V448C0 483 29 512 64 512H448C483 512 512 483 512 448V288C512 270 498 256 480 256ZM128 440C128 444 124 448 120 448H104C100 448 96 444 96 440V328C96 324 100 320 104 320H120C124 320 128 324 128 328V440ZM224 440C224 444 220 448 216 448H200C196 448 192 444 192 440V328C192 324 196 320 200 320H216C220 320 224 324 224 328V440ZM320 440C320 444 316 448 312 448H296C292 448 288 444 288 440V328C288 324 292 320 296 320H312C316 320 320 324 320 328V440ZM416 440C416 444 412 448 408 448H392C388 448 384 444 384 440V328C384 324 388 320 392 320H408C412 320 416 324 416 328V440ZM64 128C99 128 128 99 128 64S99 0 64 0S0 29 0 64S29 128 64 128Z"/></svg>