<svg xmlns="http://www.w3.org/2000/svg" viewBox="0 0 576 512"><!-- Font Awesome Pro 6.0.0-alpha1 by @fontawesome - https://fontawesome.com License - https://fontawesome.com/license (Commercial License) --><path d="M565 232L512 185V48C512 39 505 32 496 32H432C423 32 416 39 416 48V102L309 8C303 2 295 0 287 0C280 0 273 3 267 8L11 232C4 238 0 247 0 256C0 274 14 288 32 288H64V448C64 483 93 512 128 512H448C483 512 512 483 512 448V288H544C562 288 576 274 576 256C576 247 572 238 565 232ZM400 330C400 339 393 346 384 346H330V400C330 409 323 416 314 416H262C253 416 246 409 246 400V346H192C183 346 176 339 176 330V278C176 269 183 262 192 262H246V208C246 199 253 192 262 192H314C323 192 330 199 330 208V262H384C393 262 400 269 400 278V330Z"/></svg>