<svg xmlns="http://www.w3.org/2000/svg" viewBox="0 0 640 512"><!-- Font Awesome Pro 6.0.0-alpha1 by @fontawesome - https://fontawesome.com License - https://fontawesome.com/license (Commercial License) --><path d="M357 385C360 382 362 378 364 374L385 322L396 293C396 290 396 287 395 284C392 286 389 287 386 288C379 290 373 291 366 291C356 291 346 289 337 284C306 269 293 230 309 199L316 185C329 157 353 135 382 123L385 122L262 8C249 -3 231 -3 218 8L10 200C1 209 -3 223 2 236C7 248 19 256 32 256H64V368C64 394 86 416 112 416H326L357 385ZM224 272C224 281 217 288 208 288H144C135 288 128 281 128 272V208C128 199 135 192 144 192H208C217 192 224 199 224 208V272ZM393 386C390 394 385 401 379 407L329 458C317 470 318 490 330 502C342 514 362 515 375 503L434 443C440 437 445 430 448 422L462 388C406 328 423 346 414 334L393 386ZM528 96C554 96 576 75 576 48C576 22 554 0 528 0S480 22 480 48C480 75 501 96 528 96ZM622 245L599 233L589 204C575 159 534 128 487 128C451 128 431 138 394 153C372 162 355 178 344 199L337 213C330 229 336 248 352 256C359 260 368 260 376 258C384 255 390 249 394 242L401 228C404 221 410 216 417 213L444 202L429 263C424 283 429 305 444 321L504 387C511 395 516 404 519 414L537 488C541 505 559 515 576 511C593 507 603 489 599 472L577 383C574 373 569 363 562 355L517 306L534 237L539 254C545 270 556 283 571 291L594 302C602 306 610 307 618 304C626 302 633 296 637 288C644 272 638 253 622 245Z"/></svg>