<svg xmlns="http://www.w3.org/2000/svg" viewBox="0 0 384 512"><!-- Font Awesome Pro 6.0.0-alpha1 by @fontawesome - https://fontawesome.com License - https://fontawesome.com/license (Commercial License) --><path d="M368 272H16C7 272 0 279 0 288V320C0 329 7 336 16 336H58C45 365 44 399 62 430C81 462 117 480 154 480H233C257 480 281 471 299 456L311 446C321 438 323 422 314 412L294 388C285 377 270 376 260 385L248 394C244 398 238 400 233 400H149C138 400 128 390 128 379C128 373 130 367 135 363L164 336H368C377 336 384 329 384 320V288C384 279 377 272 368 272ZM368 176H326C339 147 340 113 322 82C303 50 267 32 230 32H151C127 32 103 41 85 56L73 66C63 74 61 90 70 100L90 124C99 134 114 136 124 127L136 118C140 114 146 112 151 112H235C246 112 256 122 256 133C256 139 254 145 249 149L220 176H16C7 176 0 183 0 192V224C0 233 7 240 16 240H368C377 240 384 233 384 224V192C384 183 377 176 368 176Z"/></svg>