<svg xmlns="http://www.w3.org/2000/svg" viewBox="0 0 448 512"><!-- Font Awesome Pro 6.0.0-alpha1 by @fontawesome - https://fontawesome.com License - https://fontawesome.com/license (Commercial License) --><path d="M224 224C206 224 192 238 192 256S206 288 224 288S256 274 256 256S242 224 224 224ZM208 96L233 21C236 10 227 -1 215 0C112 12 32 102 32 208C32 323 125 416 240 416L215 491C212 502 221 513 233 512C336 500 416 410 416 304C416 189 323 96 208 96ZM224 352C171 352 128 309 128 256S171 160 224 160S320 203 320 256S277 352 224 352Z"/></svg>