<svg xmlns="http://www.w3.org/2000/svg" viewBox="0 0 512 512"><!-- Font Awesome Pro 6.0.0-alpha1 by @fontawesome - https://fontawesome.com License - https://fontawesome.com/license (Commercial License) --><path d="M448 32H64C29 32 0 61 0 96V416C0 451 29 480 64 480H448C483 480 512 451 512 416V96C512 61 483 32 448 32ZM256 128C291 128 320 157 320 192S291 256 256 256S192 227 192 192S221 128 256 128ZM352 384H160C151 384 144 377 144 368C144 324 180 288 224 288H288C332 288 368 324 368 368C368 377 361 384 352 384Z"/></svg>