<svg xmlns="http://www.w3.org/2000/svg" viewBox="0 0 512 512"><!-- Font Awesome Pro 6.0.0-alpha1 by @fontawesome - https://fontawesome.com License - https://fontawesome.com/license (Commercial License) --><path d="M448 32H64C29 32 0 61 0 96V416C0 451 29 480 64 480H448C483 480 512 451 512 416V96C512 61 483 32 448 32ZM112 96C138 96 160 118 160 144S138 192 112 192S64 170 64 144S85 96 112 96ZM446 408C443 413 438 416 432 416H82C76 416 70 413 68 407C65 402 66 395 69 391L139 295C142 290 147 288 152 288S162 290 165 295L197 339L291 199C294 195 299 192 304 192S314 195 317 199L445 391C449 396 449 402 446 408Z"/></svg>