<svg xmlns="http://www.w3.org/2000/svg" viewBox="0 0 448 512"><!-- Font Awesome Pro 6.0.0-alpha1 by @fontawesome - https://fontawesome.com License - https://fontawesome.com/license (Commercial License) --><path d="M146 231L99 295C96 299 95 306 98 311C100 317 106 320 112 320H336C342 320 347 317 350 312C353 306 353 300 349 295L264 167C261 163 256 160 251 160S240 163 237 167L184 247L172 231C169 226 164 224 159 224S149 226 146 231ZM400 32H48C22 32 0 54 0 80V432C0 458 22 480 48 480H400C426 480 448 458 448 432V80C448 54 426 32 400 32ZM384 352H64V96H384V352ZM128 192C146 192 160 178 160 160S146 128 128 128S96 142 96 160S110 192 128 192Z"/></svg>