<svg xmlns="http://www.w3.org/2000/svg" viewBox="0 0 448 512"><!-- Font Awesome Pro 6.0.0-alpha1 by @fontawesome - https://fontawesome.com License - https://fontawesome.com/license (Commercial License) --><path d="M432 416H16C7 416 0 423 0 432V464C0 473 7 480 16 480H432C441 480 448 473 448 464V432C448 423 441 416 432 416ZM435 288H205C201 288 198 289 196 292S192 297 192 301V339C192 343 193 346 196 348S201 352 205 352H435C439 352 442 351 444 348S448 343 448 339V301C448 297 447 294 444 292S439 288 435 288ZM435 160H205C201 160 198 161 196 164S192 169 192 173V211C192 215 193 218 196 220S201 224 205 224H435C439 224 442 223 444 220S448 215 448 211V173C448 169 447 166 444 164S439 160 435 160ZM432 32H16C7 32 0 39 0 48V80C0 89 7 96 16 96H432C441 96 448 89 448 80V48C448 39 441 32 432 32ZM9 350C11 351 14 352 16 352C20 352 23 351 26 348L122 268C126 265 128 261 128 256S126 247 122 244L26 164C21 160 15 159 9 162C4 164 0 170 0 176V336C0 342 4 348 9 350Z"/></svg>