<svg xmlns="http://www.w3.org/2000/svg" viewBox="0 0 320 512"><!-- Font Awesome Pro 6.0.0-alpha1 by @fontawesome - https://fontawesome.com License - https://fontawesome.com/license (Commercial License) --><path d="M240 112C245 122 249 133 252 144H304C313 144 320 151 320 160V192C320 201 313 208 304 208H252C238 268 187 314 124 319L267 453C277 463 270 480 256 480H188C180 480 173 477 167 472L10 330C4 323 0 315 0 306V256C0 247 7 240 16 240H112C136 240 156 227 167 208H16C7 208 0 201 0 192V160C0 151 7 144 16 144H167C155 124 133 112 108 112H16C7 112 0 105 0 96V48C0 39 7 32 16 32H304C313 32 320 39 320 48V96C320 105 313 112 304 112H240Z"/></svg>