<svg xmlns="http://www.w3.org/2000/svg" viewBox="0 0 576 512"><!-- Font Awesome Pro 6.0.0-alpha1 by @fontawesome - https://fontawesome.com License - https://fontawesome.com/license (Commercial License) --><path d="M32 320C14 320 0 334 0 352S14 384 32 384S64 370 64 352S50 320 32 320ZM32 416C14 416 0 430 0 448S14 480 32 480S64 466 64 448S50 416 32 416ZM128 368C110 368 96 382 96 400S110 432 128 432S160 418 160 400S146 368 128 368ZM32 224C14 224 0 238 0 256S14 288 32 288S64 274 64 256S50 224 32 224ZM128 272C110 272 96 286 96 304S110 336 128 336S160 322 160 304S146 272 128 272ZM328 224H224C206 224 192 238 192 256V448C192 466 206 480 224 480H470C483 480 494 471 497 459L540 296L357 113L328 224ZM555 65L435 33C420 29 404 38 400 53L388 99L536 246L575 100C579 85 570 69 555 65Z"/></svg>