<svg xmlns="http://www.w3.org/2000/svg" viewBox="0 0 640 512"><!-- Font Awesome Pro 6.0.0-alpha1 by @fontawesome - https://fontawesome.com License - https://fontawesome.com/license (Commercial License) --><path d="M576 64H64C29 64 0 93 0 128V384C0 419 29 448 64 448H576C611 448 640 419 640 384V128C640 93 611 64 576 64ZM576 384H64V128H576V384ZM109 348C121 354 136 350 141 338L147 327H237L242 338C247 346 255 351 264 351C268 351 271 350 275 348C287 342 291 328 285 316L213 172C205 156 179 156 170 172L98 316C93 328 97 342 109 348ZM192 237L213 279H171L192 237ZM344 352H412C445 352 472 325 472 292C472 273 463 257 450 246C454 238 456 229 456 220C456 187 429 160 396 160H344C331 160 320 171 320 184V328C320 341 331 352 344 352ZM368 208H396C403 208 408 213 408 220S403 232 396 232H368V208ZM368 280H412C419 280 424 285 424 292C424 299 419 304 412 304H368V280Z"/></svg>