<svg xmlns="http://www.w3.org/2000/svg" viewBox="0 0 576 512"><!-- Font Awesome Pro 6.0.0-alpha1 by @fontawesome - https://fontawesome.com License - https://fontawesome.com/license (Commercial License) --><path d="M352 107V36C352 30 349 24 343 22L304 2C295 -2 285 1 282 10L246 100C259 98 273 96 288 96C312 96 333 100 352 107ZM495 153C468 130 430 123 396 132C402 138 408 143 413 150C416 154 419 159 421 164C389 140 346 128 288 128S187 140 155 164C158 159 160 154 163 150C168 143 174 138 180 132C146 123 108 130 81 153C-27 245 -27 395 81 487C119 520 182 520 221 488C239 503 261 512 288 512S337 503 355 488C395 520 457 520 495 487C603 395 603 245 495 153ZM321 278L362 211C364 207 371 207 374 211L415 278C417 281 416 288 409 288H327C320 288 319 281 321 278ZM161 278L202 211C204 207 211 207 214 211L255 278C257 281 256 288 249 288H167C160 288 159 281 161 278ZM470 346C464 363 457 374 451 382C442 395 430 406 416 415C416 407 409 400 400 400H384C375 400 368 407 368 416V438C345 444 318 448 288 448S232 444 208 438V416C208 407 201 400 192 400H176C167 400 160 407 160 416C146 406 135 396 125 383C119 374 112 363 106 346C101 332 117 319 130 327C163 346 200 360 240 366V384C240 393 247 400 256 400H272C281 400 288 393 288 384V370C346 370 401 354 447 327C459 319 475 332 470 346Z"/></svg>