<svg xmlns="http://www.w3.org/2000/svg" viewBox="0 0 640 512"><!-- Font Awesome Pro 6.0.0-alpha1 by @fontawesome - https://fontawesome.com License - https://fontawesome.com/license (Commercial License) --><path d="M629 241L476 196C468 193 457 192 448 192H384L264 32H283C291 32 299 25 299 16C299 7 291 0 283 0H208C199 0 192 7 192 16V192H144L101 134C98 130 93 128 88 128H48C39 128 32 135 32 144V224H16C7 224 0 231 0 240V272C0 281 7 288 16 288H32V368C32 377 39 384 48 384H88C93 384 98 382 101 378L144 320H192V496C192 505 199 512 208 512H283C291 512 299 505 299 496C299 487 291 480 283 480H264L384 320H448C457 320 467 319 476 316L629 271C644 267 644 245 629 241ZM152 264H72C68 264 64 260 64 256S68 248 72 248H152C156 248 160 252 160 256S156 264 152 264Z"/></svg>