<svg xmlns="http://www.w3.org/2000/svg" viewBox="0 0 448 512"><!-- Font Awesome Pro 6.0.0-alpha1 by @fontawesome - https://fontawesome.com License - https://fontawesome.com/license (Commercial License) --><path d="M416 352H128V336C128 327 121 320 112 320H80C71 320 64 327 64 336V352H32C14 352 0 366 0 384V480C0 498 14 512 32 512H416C434 512 448 498 448 480V384C448 366 434 352 416 352ZM192 219V320H256V219C302 205 336 163 336 112C336 50 286 0 224 0S112 50 112 112C112 163 146 205 192 219ZM200 48C213 48 224 59 224 72S213 96 200 96S176 85 176 72S187 48 200 48Z"/></svg>