<svg xmlns="http://www.w3.org/2000/svg" viewBox="0 0 448 512"><!-- Font Awesome Pro 6.0.0-alpha1 by @fontawesome - https://fontawesome.com License - https://fontawesome.com/license (Commercial License) --><path d="M416 168C416 138 397 111 369 100C340 90 309 98 289 122L279 109C276 105 274 101 273 96H111C110 101 108 105 105 109L28 205C10 228 0 256 0 285V448C0 483 29 512 64 512H320C355 512 384 483 384 448V285C384 267 380 250 373 234C399 222 416 197 416 168ZM320 384C320 402 306 416 288 416H96C78 416 64 402 64 384V320C64 302 78 288 96 288H288C306 288 320 302 320 320V384ZM345 192L321 162C324 151 333 144 344 144C357 144 367 154 368 167C368 180 358 191 345 192ZM120 64H264C270 64 277 62 281 57S288 46 288 40V24C288 18 286 11 281 7S270 0 264 0H120C114 0 107 2 103 7S96 18 96 24V40C96 46 98 53 103 57S114 64 120 64Z"/></svg>