<svg xmlns="http://www.w3.org/2000/svg" viewBox="0 0 576 512"><!-- Font Awesome Pro 6.0.0-alpha1 by @fontawesome - https://fontawesome.com License - https://fontawesome.com/license (Commercial License) --><path d="M554 79L318 0C299 -7 277 -7 258 0L22 79C9 83 0 95 0 109V158L265 79C280 74 296 74 311 79L576 158V109C576 95 567 83 554 79ZM274 109L0 191V420C0 435 10 448 25 451L267 505C281 508 295 508 309 505L551 451C566 448 576 435 576 420V191L302 109C293 106 283 106 274 109ZM128 225C128 229 126 232 122 233L42 255C37 256 32 252 32 247V230C32 227 34 224 38 223L118 201C123 200 128 203 128 209V225ZM272 186C272 190 270 193 266 194L170 220C165 221 160 217 160 212V195C160 192 162 189 166 188L262 162C267 160 272 164 272 169V186ZM448 209C448 203 453 200 458 201L538 223C542 224 544 227 544 230V247C544 252 539 256 534 255L454 233C450 232 448 229 448 225V209ZM304 169C304 164 309 160 314 162L410 188C414 189 416 192 416 196V212C416 217 411 221 406 220L310 194C306 193 304 190 304 186V169Z"/></svg>