<svg xmlns="http://www.w3.org/2000/svg" viewBox="0 0 640 512"><!-- Font Awesome Pro 6.0.0-alpha1 by @fontawesome - https://fontawesome.com License - https://fontawesome.com/license (Commercial License) --><path d="M576 64H224C189 64 160 93 160 128V384C160 419 189 448 224 448H576C611 448 640 419 640 384V128C640 93 611 64 576 64ZM320 140C320 133 325 128 332 128H372C379 128 384 133 384 140V180C384 187 379 192 372 192H332C325 192 320 187 320 180V140ZM320 236C320 229 325 224 332 224H372C379 224 384 229 384 236V276C384 283 379 288 372 288H332C325 288 320 283 320 276V236ZM288 372C288 379 283 384 276 384H236C229 384 224 379 224 372V332C224 325 229 320 236 320H276C283 320 288 325 288 332V372ZM288 276C288 283 283 288 276 288H236C229 288 224 283 224 276V236C224 229 229 224 236 224H276C283 224 288 229 288 236V276ZM288 180C288 187 283 192 276 192H236C229 192 224 187 224 180V140C224 133 229 128 236 128H276C283 128 288 133 288 140V180ZM480 372C480 379 475 384 468 384H332C325 384 320 379 320 372V332C320 325 325 320 332 320H468C475 320 480 325 480 332V372ZM480 276C480 283 475 288 468 288H428C421 288 416 283 416 276V236C416 229 421 224 428 224H468C475 224 480 229 480 236V276ZM480 180C480 187 475 192 468 192H428C421 192 416 187 416 180V140C416 133 421 128 428 128H468C475 128 480 133 480 140V180ZM576 372C576 379 571 384 564 384H524C517 384 512 379 512 372V332C512 325 517 320 524 320H564C571 320 576 325 576 332V372ZM576 276C576 283 571 288 564 288H524C517 288 512 283 512 276V236C512 229 517 224 524 224H564C571 224 576 229 576 236V276ZM576 180C576 187 571 192 564 192H524C517 192 512 187 512 180V140C512 133 517 128 524 128H564C571 128 576 133 576 140V180ZM116 155C109 152 101 154 96 159L6 242C-2 250 -2 262 6 270L96 353C101 358 109 360 116 357C123 354 128 347 128 339V173C128 165 123 158 116 155Z"/></svg>