<svg xmlns="http://www.w3.org/2000/svg" viewBox="0 0 512 512"><!-- Font Awesome Pro 6.0.0-alpha1 by @fontawesome - https://fontawesome.com License - https://fontawesome.com/license (Commercial License) --><path d="M416 66C409 63 401 64 396 69C391 74 391 82 394 89C411 115 420 145 420 176C419 229 393 279 348 308L272 362V342L316 306C320 301 321 295 319 290L311 273C345 254 368 218 368 176C368 135 346 100 313 80L318 69C321 63 319 57 315 53L256 0L197 53C192 57 191 63 193 69L198 80C166 100 144 135 144 176C144 218 167 254 201 273L193 290C191 295 192 301 196 306L240 342V362L163 308C119 279 92 229 92 176C92 145 101 115 117 89C121 82 120 75 115 70C110 64 101 63 95 67C16 110 -22 205 13 296C20 314 31 330 44 345L100 410C105 416 113 418 119 414L199 372L228 392L181 425C179 425 178 424 176 424C163 424 152 435 152 448S163 472 176 472C188 472 198 463 199 451L240 423V453C230 459 224 468 224 480C224 498 238 512 256 512S288 498 288 480C288 468 281 459 272 453V423L313 451C314 463 324 472 336 472C349 472 360 461 360 448S349 424 336 424C334 424 333 425 331 425L284 392L313 372L392 414C399 418 407 416 412 410L465 349C484 327 499 302 506 274C528 190 489 106 416 66ZM320 176C320 198 308 218 291 229L285 217C277 192 277 166 285 141L293 124C309 136 320 155 320 176ZM192 176C192 155 202 136 218 124L226 141C235 166 235 193 226 217L221 229C203 218 192 198 192 176Z"/></svg>