<svg xmlns="http://www.w3.org/2000/svg" viewBox="0 0 576 512"><!-- Font Awesome Pro 6.0.0-alpha1 by @fontawesome - https://fontawesome.com License - https://fontawesome.com/license (Commercial License) --><path d="M64 32H96V480H64C29 480 0 451 0 416V96C0 61 29 32 64 32ZM128 32H448V480H128V32ZM176 282C176 291 183 298 192 298H246V352C246 361 253 368 262 368H314C323 368 330 361 330 352V298H384C393 298 400 291 400 282V230C400 221 393 214 384 214H330V160C330 151 323 144 314 144H262C253 144 246 151 246 160V214H192C183 214 176 221 176 230V282ZM512 32H480V480H512C547 480 576 451 576 416V96C576 61 547 32 512 32Z"/></svg>