<svg xmlns="http://www.w3.org/2000/svg" viewBox="0 0 640 512"><!-- Font Awesome Pro 6.0.0-alpha1 by @fontawesome - https://fontawesome.com License - https://fontawesome.com/license (Commercial License) --><path d="M114 316L167 351C178 359 192 351 192 338V270C192 257 178 250 167 257L120 288V224C120 175 81 136 32 136H16C7 136 0 143 0 152V168C0 177 7 184 16 184H32C54 184 72 202 72 224V288L25 257C14 250 0 257 0 270V338C0 351 14 359 25 351L78 316C89 309 103 309 114 316ZM608 0H345C331 0 318 10 314 25L234 372L147 459C137 469 120 462 120 448V359L96 343L72 359V443C72 460 77 476 88 489C114 521 157 517 181 493L268 406L615 326C630 322 640 309 640 295V32C640 14 626 0 608 0ZM555 213C562 219 562 229 555 235C549 242 539 242 533 235L480 183L363 299C357 306 347 306 341 299C334 293 334 283 341 277L457 160L405 107C398 101 398 91 405 85S421 78 427 85L480 137L533 85C539 78 549 78 555 85S562 101 555 107L503 160L555 213Z"/></svg>