<svg xmlns="http://www.w3.org/2000/svg" viewBox="0 0 512 512"><!-- Font Awesome Pro 6.0.0-alpha1 by @fontawesome - https://fontawesome.com License - https://fontawesome.com/license (Commercial License) --><path d="M494 63H346L301 18C276 -6 236 -6 211 19C187 44 186 84 211 109L222 120L103 239C97 245 94 254 97 262L150 448H64C36 448 9 466 1 492C-3 502 6 512 16 512H368C378 512 386 502 383 492C375 466 348 448 320 448H200L147 263L256 154L256 154V302C256 318 275 326 286 315L507 93C518 82 510 63 494 63ZM380 266C402 285 435 284 456 263C476 243 478 209 458 187L380 266Z"/></svg>