<svg xmlns="http://www.w3.org/2000/svg" viewBox="0 0 640 512"><!-- Font Awesome Pro 6.0.0-alpha1 by @fontawesome - https://fontawesome.com License - https://fontawesome.com/license (Commercial License) --><path d="M128 96H512V352H576V80C576 54 554 32 528 32H112C86 32 64 54 64 80V352H128V96ZM624 384H16C7 384 0 391 0 400V416C0 451 29 480 64 480H576C611 480 640 451 640 416V400C640 391 633 384 624 384ZM398 278C402 282 407 284 412 284S422 282 426 278L474 230C482 222 482 210 474 202L426 154C418 146 406 146 398 154S390 174 398 182L432 216L398 250C390 258 390 270 398 278ZM242 154C234 146 222 146 214 154L166 202C158 210 158 222 166 230L214 278C218 282 223 284 228 284S238 282 242 278C250 270 250 258 242 250L208 216L242 182C250 174 250 162 242 154ZM329 141L273 293C269 303 275 315 285 319C287 320 290 320 292 320C300 320 308 315 311 307L367 155C371 145 365 133 355 129C345 125 333 131 329 141Z"/></svg>