<svg xmlns="http://www.w3.org/2000/svg" viewBox="0 0 576 512"><!-- Font Awesome Pro 6.0.0-alpha1 by @fontawesome - https://fontawesome.com License - https://fontawesome.com/license (Commercial License) --><path d="M572 426L523 405L502 356C501 354 498 352 496 352C494 352 491 354 490 356L469 405L420 426C418 427 416 430 416 432C416 434 418 437 420 438L469 459L490 508C491 510 494 512 496 512C498 512 501 510 502 508L523 459L572 438C574 437 576 434 576 432C576 430 574 427 572 426ZM576 181C576 100 494 32 379 9L387 29L425 44C439 52 448 66 448 80C448 86 446 93 443 98C485 120 512 150 512 181C512 244 407 299 288 299C275 299 263 298 250 297C239 273 210 256 176 256C162 256 148 259 135 265C129 262 123 260 119 257C98 244 64 218 64 181C64 130 135 84 226 69C229 59 236 50 245 45L285 29L297 0C294 0 291 0 288 0C126 0 0 80 0 181C0 231 30 277 85 311C88 313 92 315 96 317C96 318 96 319 96 320C96 355 132 384 176 384C177 384 177 384 178 384C180 390 180 396 181 402C181 414 176 426 167 434C159 443 147 448 135 448H48C39 448 32 455 32 464V496C32 505 39 512 48 512H135C194 512 244 465 245 406C245 390 243 375 238 360C255 362 271 363 288 363C450 363 576 283 576 181ZM256 80L256 80L256 80C256 82 258 85 260 86L309 107L309 107L330 156C331 158 334 160 336 160C338 160 341 158 342 156L363 107L363 107L363 107L412 86C414 85 416 82 416 80L416 80L416 80C416 78 414 75 412 74L363 53L363 53L342 4C341 2 338 0 336 0C334 0 331 2 330 4L309 53L309 53L260 74C258 75 256 78 256 80Z"/></svg>