<svg xmlns="http://www.w3.org/2000/svg" viewBox="0 0 576 512"><!-- Font Awesome Pro 6.0.0-alpha1 by @fontawesome - https://fontawesome.com License - https://fontawesome.com/license (Commercial License) --><path d="M288 0C126 0 0 80 0 181C0 231 30 277 85 311C88 313 92 315 96 317C96 318 96 319 96 320C96 355 132 384 176 384C177 384 177 384 178 384C180 390 180 396 181 402C181 414 176 426 167 434C159 443 147 448 135 448H48C39 448 32 455 32 464V496C32 505 39 512 48 512H135C194 512 244 465 245 406C245 390 243 375 238 360C255 362 271 363 288 363C450 363 576 283 576 181C576 80 450 0 288 0ZM288 299C275 299 263 298 250 297C239 273 210 256 176 256C162 256 148 259 135 265C129 262 123 260 119 257C98 244 64 218 64 181C64 119 169 64 288 64S512 119 512 181C512 244 407 299 288 299Z"/></svg>