<svg xmlns="http://www.w3.org/2000/svg" viewBox="0 0 512 512"><!-- Font Awesome Pro 6.0.0-alpha1 by @fontawesome - https://fontawesome.com License - https://fontawesome.com/license (Commercial License) --><path d="M512 165C512 293 442 401 337 436C317 443 295 448 272 448C207 448 147 412 116 354C62 403 48 461 47 462C45 473 35 480 24 480C22 480 20 480 18 479C6 476 -2 463 1 450C10 411 91 224 336 224C345 224 352 217 352 208S345 192 336 192C229 192 151 227 96 268C96 257 98 246 100 235C113 169 166 116 231 100C260 94 287 94 312 100C368 114 430 93 462 39C467 29 482 30 486 40C503 77 512 122 512 165Z"/></svg>