<svg xmlns="http://www.w3.org/2000/svg" viewBox="0 0 512 512"><!-- Font Awesome Pro 6.0.0-alpha1 by @fontawesome - https://fontawesome.com License - https://fontawesome.com/license (Commercial License) --><path d="M504 274L392 378C385 384 375 386 366 382S352 370 352 360V304H160V360C160 370 154 378 145 382C137 386 126 384 119 378L7 274C-2 265 -2 248 7 238L119 134C126 128 137 126 145 130C154 134 160 142 160 152V208H352V152C352 142 357 134 366 130S385 128 392 134L504 238C514 247 514 265 504 274Z"/></svg>