<svg xmlns="http://www.w3.org/2000/svg" viewBox="0 0 448 512"><!-- Font Awesome Pro 6.0.0-alpha1 by @fontawesome - https://fontawesome.com License - https://fontawesome.com/license (Commercial License) --><path d="M48 64H16C7 64 0 71 0 80V432C0 441 7 448 16 448H48C57 448 64 441 64 432V80C64 71 57 64 48 64ZM103 273L247 409C254 416 265 418 273 414C282 410 288 402 288 392V320H416C434 320 448 306 448 288V224C448 206 434 192 416 192H288V120C288 110 282 102 273 98C265 94 254 96 247 103L103 239C94 248 94 264 103 273Z"/></svg>