<svg xmlns="http://www.w3.org/2000/svg" viewBox="0 0 512 512"><!-- Font Awesome Pro 6.0.0-alpha1 by @fontawesome - https://fontawesome.com License - https://fontawesome.com/license (Commercial License) --><path d="M256 16C123 16 16 123 16 256S123 496 256 496S496 389 496 256S389 16 256 16ZM425 164L347 225C337 197 315 175 287 165L348 87C380 105 407 132 425 164ZM192 256C192 221 221 192 256 192S320 221 320 256S291 320 256 320S192 291 192 256ZM164 87L225 165C197 175 175 197 165 225L87 164C105 132 132 105 164 87ZM87 348L165 287C175 315 197 337 225 347L164 425C132 407 105 380 87 348ZM348 425L287 347C315 337 337 315 347 287L425 348C407 380 380 407 348 425Z"/></svg>