<svg xmlns="http://www.w3.org/2000/svg" viewBox="0 0 384 512"><!-- Font Awesome Pro 6.0.0-alpha1 by @fontawesome - https://fontawesome.com License - https://fontawesome.com/license (Commercial License) --><path d="M112 454C112 461 114 467 117 472L134 498C141 507 150 512 161 512H223C234 512 244 507 250 498L267 472C270 467 272 461 272 454V416H112V454ZM191 0C90 0 16 83 16 176C16 220 33 261 59 292C76 311 102 350 112 383C112 383 112 384 112 384H272C272 384 272 383 272 383C282 350 308 311 325 292C351 261 368 220 368 176C368 79 289 0 191 0ZM192 320C174 320 160 306 160 288S174 256 192 256S224 270 224 288S210 320 192 320ZM230 82L218 210C217 218 210 224 202 224H182C174 224 167 218 166 210L154 82C153 72 160 64 170 64H214C224 64 231 72 230 82Z"/></svg>