<svg xmlns="http://www.w3.org/2000/svg" viewBox="0 0 640 512"><!-- Font Awesome Pro 6.0.0-alpha1 by @fontawesome - https://fontawesome.com License - https://fontawesome.com/license (Commercial License) --><path d="M599 41C571 14 535 0 499 0S426 14 399 41L355 85C370 93 385 102 397 115C400 118 403 121 406 125L444 87C459 72 478 64 499 64S539 72 553 87C568 101 576 121 576 141S568 181 553 196L420 329C405 344 386 352 365 352S325 344 311 329C296 315 288 295 288 275S296 235 311 220L314 216C312 212 310 209 307 205C298 197 287 192 275 192C263 192 252 197 243 205C212 259 219 329 265 375C293 402 329 416 365 416C402 416 438 402 465 375L599 241C654 186 654 97 599 41ZM234 387L196 425C181 440 162 448 141 448C121 448 101 440 87 425C72 411 64 391 64 371S72 331 87 316L220 183C235 168 254 160 275 160S315 168 329 183C344 197 352 217 352 237S344 277 329 292L326 296C328 300 330 304 333 307C342 315 353 320 365 320C377 320 388 315 397 307C428 253 421 183 375 137C347 110 311 96 275 96C238 96 202 110 175 137L41 271C-14 326 -14 415 41 471C69 498 105 512 141 512C178 512 214 498 241 471L285 427C270 419 255 410 243 397C240 394 237 391 234 387Z"/></svg>