<svg xmlns="http://www.w3.org/2000/svg" viewBox="0 0 320 512"><!-- Font Awesome Pro 6.0.0-alpha1 by @fontawesome - https://fontawesome.com License - https://fontawesome.com/license (Commercial License) --><path d="M320 424V456C320 469 309 480 296 480L32 480C15 480 0 466 0 448V430C0 418 7 406 18 402C36 394 48 377 48 357V352H16C7 352 0 345 0 336V304C0 295 7 288 16 288H48V256H16C7 256 0 249 0 240V208C0 199 7 192 16 192H48V167C48 100 95 41 161 33C181 30 201 33 220 40L295 66C307 71 314 84 309 97L299 127C294 140 280 146 268 142L193 115C188 113 182 112 177 112C150 112 128 134 128 161V192H240C249 192 256 199 256 208V240C256 249 249 256 240 256H128V288H240C249 288 256 295 256 304V336C256 345 249 352 240 352H128V357C128 372 125 387 120 400H296C309 400 320 411 320 424Z"/></svg>