<svg xmlns="http://www.w3.org/2000/svg" viewBox="0 0 512 512"><!-- Font Awesome Pro 6.0.0-alpha1 by @fontawesome - https://fontawesome.com License - https://fontawesome.com/license (Commercial License) --><path d="M208 208H144C135 208 128 215 128 224V232H72V144H80C89 144 96 137 96 128V64C96 55 89 48 80 48H16C7 48 0 55 0 64V128C0 137 7 144 16 144H24V384C24 415 49 440 80 440H128V448C128 457 135 464 144 464H208C217 464 224 457 224 448V384C224 375 217 368 208 368H144C135 368 128 375 128 384V392H80C76 392 72 388 72 384V280H128V288C128 297 135 304 144 304H208C217 304 224 297 224 288V224C224 215 217 208 208 208ZM496 384H304C295 384 288 391 288 400V432C288 441 295 448 304 448H496C505 448 512 441 512 432V400C512 391 505 384 496 384ZM496 64H176C167 64 160 71 160 80V112C160 121 167 128 176 128H496C505 128 512 121 512 112V80C512 71 505 64 496 64ZM496 224H304C295 224 288 231 288 240V272C288 281 295 288 304 288H496C505 288 512 281 512 272V240C512 231 505 224 496 224Z"/></svg>