<svg xmlns="http://www.w3.org/2000/svg" viewBox="0 0 384 512"><!-- Font Awesome Pro 6.0.0-alpha1 by @fontawesome - https://fontawesome.com License - https://fontawesome.com/license (Commercial License) --><path d="M192 0C86 0 0 86 0 192C0 269 26 291 173 502C182 515 202 515 211 502C358 291 384 269 384 192C384 86 298 0 192 0ZM192 352C174 352 160 338 160 320S174 288 192 288S224 302 224 320S210 352 192 352ZM219 239V240C219 249 212 256 203 256H186C178 256 171 249 171 240V224C171 215 176 207 184 202C215 187 235 176 235 160C235 141 221 120 195 120C177 120 162 132 157 148C154 155 148 160 141 160H124C114 160 107 150 109 141C118 101 153 72 195 72C250 72 283 117 283 160C283 201 250 222 219 239Z"/></svg>