<svg xmlns="http://www.w3.org/2000/svg" viewBox="0 0 640 512"><!-- Font Awesome Pro 6.0.0-alpha1 by @fontawesome - https://fontawesome.com License - https://fontawesome.com/license (Commercial License) --><path d="M300 502C310 515 330 515 340 502C364 467 384 438 402 412L128 197C129 270 158 296 300 502ZM631 469L457 333C501 268 512 241 512 192C512 86 426 0 320 0C249 0 188 39 154 96L39 5C34 2 29 0 24 0C17 0 10 3 5 9C-3 20 -1 35 9 43L601 507C612 515 627 513 635 503C643 492 641 477 631 469ZM363 259L245 166C255 135 285 112 320 112C364 112 400 148 400 192C400 220 385 245 363 259Z"/></svg>