<svg xmlns="http://www.w3.org/2000/svg" viewBox="0 0 512 512"><!-- Font Awesome Pro 6.0.0-alpha1 by @fontawesome - https://fontawesome.com License - https://fontawesome.com/license (Commercial License) --><path d="M416 224H400V144C400 65 335 0 256 0S112 65 112 144V224H96C61 224 32 253 32 288V448C32 483 61 512 96 512H416C451 512 480 483 480 448V288C480 253 451 224 416 224ZM288 384C288 402 274 416 256 416S224 402 224 384V352C224 334 238 320 256 320S288 334 288 352V384ZM336 224H176V144C176 100 212 64 256 64S336 100 336 144V224Z"/></svg>