<svg xmlns="http://www.w3.org/2000/svg" viewBox="0 0 512 512"><!-- Font Awesome Pro 6.0.0-alpha1 by @fontawesome - https://fontawesome.com License - https://fontawesome.com/license (Commercial License) --><path d="M505 448L381 324C403 291 416 251 416 208C416 93 323 0 208 0S0 93 0 208S93 416 208 416C251 416 291 403 324 381L448 505C458 514 473 514 482 505L505 482C514 473 514 458 505 448ZM304 208C304 221 293 232 280 232H136C123 232 112 221 112 208V208C112 195 123 184 136 184H280C293 184 304 195 304 208L304 208Z"/></svg>