<svg xmlns="http://www.w3.org/2000/svg" viewBox="0 0 512 512"><!-- Font Awesome Pro 6.0.0-alpha1 by @fontawesome - https://fontawesome.com License - https://fontawesome.com/license (Commercial License) --><path d="M505 448L381 324C403 291 416 251 416 208C416 93 323 0 208 0S0 93 0 208S93 416 208 416C251 416 291 403 324 381L448 505C458 514 473 514 482 505L505 482C514 473 514 458 505 448ZM274 254C270 276 253 291 228 296V304C228 315 219 324 208 324S188 315 188 304V295C178 293 168 290 160 287L155 285C144 281 139 270 143 260C146 249 158 244 168 247L173 249C182 252 191 256 199 257C215 259 233 257 234 247C235 240 235 236 202 227L196 225C178 220 135 207 142 162C146 140 163 125 188 120V112C188 101 197 92 208 92S228 101 228 112V121C234 122 241 124 249 127C260 130 265 142 262 152C258 163 247 168 236 165C228 162 222 160 217 159C201 157 183 159 182 169C181 175 180 179 207 187L213 189C239 196 282 208 274 254Z"/></svg>