<svg xmlns="http://www.w3.org/2000/svg" viewBox="0 0 512 512"><!-- Font Awesome Pro 6.0.0-alpha1 by @fontawesome - https://fontawesome.com License - https://fontawesome.com/license (Commercial License) --><path d="M236 176C236 191 223 204 208 204S180 191 180 176S193 148 208 148S236 161 236 176ZM505 482L482 505C473 514 458 514 448 505L324 381C291 403 251 416 208 416C93 416 0 323 0 208S93 0 208 0S416 93 416 208C416 251 403 291 381 324L505 448C514 458 514 473 505 482ZM294 182C294 134 256 96 208 96C160 96 122 134 122 182C122 221 178 291 200 316C202 319 205 320 208 320C211 320 214 319 216 316C238 291 294 221 294 182Z"/></svg>