<svg xmlns="http://www.w3.org/2000/svg" viewBox="0 0 576 512"><!-- Font Awesome Pro 6.0.0-alpha1 by @fontawesome - https://fontawesome.com License - https://fontawesome.com/license (Commercial License) --><path d="M432 64H245C290 96 320 149 320 208V448H544C562 448 576 434 576 416V208C576 129 511 64 432 64ZM512 272C512 281 505 288 496 288H464C455 288 448 281 448 272V224H400C391 224 384 217 384 208S391 192 400 192H496C505 192 512 199 512 208V272ZM144 64C65 64 0 129 0 208V416C0 434 14 448 32 448H288V208C288 129 223 64 144 64ZM208 224H80C71 224 64 217 64 208S71 192 80 192H208C217 192 224 199 224 208S217 224 208 224Z"/></svg>