<svg xmlns="http://www.w3.org/2000/svg" viewBox="0 0 384 512"><!-- Font Awesome Pro 6.0.0-alpha1 by @fontawesome - https://fontawesome.com License - https://fontawesome.com/license (Commercial License) --><path d="M368 272V456C368 469 357 480 344 480H312C299 480 288 469 288 456V276C288 234 262 195 224 182V464C224 473 217 480 208 480H176C167 480 160 473 160 464V182C123 195 96 230 96 272V456C96 469 85 480 72 480H40C27 480 16 469 16 456V280C16 193 76 116 160 100V48C160 39 167 32 176 32H208C217 32 224 39 224 48V99C306 114 368 186 368 272Z"/></svg>