<svg xmlns="http://www.w3.org/2000/svg" viewBox="0 0 384 512"><!-- Font Awesome Pro 6.0.0-alpha1 by @fontawesome - https://fontawesome.com License - https://fontawesome.com/license (Commercial License) --><path d="M224 163V144H248C252 144 256 140 256 136V120C256 116 252 112 248 112H224V96H249C265 96 273 76 262 65L201 4C196 -1 188 -1 183 4L122 65C111 76 119 96 135 96H160V112H136C132 112 128 116 128 120V136C128 140 132 144 136 144H160V163C75 179 11 255 16 346C21 436 99 511 189 512C288 513 368 434 368 336C368 250 306 178 224 163ZM192 432C139 432 96 389 96 336S139 240 192 240C245 240 288 283 288 336S245 432 192 432Z"/></svg>