<svg xmlns="http://www.w3.org/2000/svg" viewBox="0 0 448 512"><!-- Font Awesome Pro 6.0.0-alpha1 by @fontawesome - https://fontawesome.com License - https://fontawesome.com/license (Commercial License) --><path d="M448 320V456C448 469 437 480 424 480H288C275 480 263 472 258 460C254 448 256 435 265 425L295 395L224 324L153 395L183 425C192 435 195 448 190 460C185 472 173 480 160 480H24C11 480 0 469 0 456V320C0 307 8 295 20 290C24 289 28 288 32 288C40 288 49 291 55 297L85 327L156 256L85 185L55 215C45 224 32 227 20 222C8 217 0 205 0 192V56C0 43 11 32 24 32H160C173 32 185 40 190 52C191 56 192 60 192 64C192 72 189 81 183 87L153 117L224 188L295 117L265 87C256 78 253 64 258 52C263 40 275 32 288 32H424C437 32 448 43 448 56V192C448 205 440 217 428 222C416 226 403 224 393 215L363 185L292 256L363 327L393 297C402 288 416 285 428 290C440 295 448 307 448 320Z"/></svg>