<svg xmlns="http://www.w3.org/2000/svg" viewBox="0 0 640 512"><!-- Font Awesome Pro 6.0.0-alpha1 by @fontawesome - https://fontawesome.com License - https://fontawesome.com/license (Commercial License) --><path d="M64 352C64 387 93 416 128 416H224V500C224 510 235 515 243 510L368 416H407L64 147V352ZM631 469L548 404C565 393 576 374 576 352V64C576 29 547 0 512 0H128C104 0 84 13 73 32L39 5C34 2 29 0 24 0C17 0 10 3 5 9C-3 20 -1 35 9 43L601 507C612 515 627 513 635 503C643 492 641 477 631 469Z"/></svg>