<svg xmlns="http://www.w3.org/2000/svg" viewBox="0 0 512 512"><!-- Font Awesome Pro 6.0.0-alpha1 by @fontawesome - https://fontawesome.com License - https://fontawesome.com/license (Commercial License) --><path d="M448 0H64C29 0 0 29 0 64V352C0 387 29 416 64 416H160V500C160 510 171 515 179 510L304 416H448C483 416 512 387 512 352V64C512 29 483 0 448 0ZM256 336C238 336 224 322 224 304S238 272 256 272S288 286 288 304S274 336 256 336ZM282 226C281 234 274 240 266 240H246C238 240 231 234 230 226L218 98C217 88 224 80 234 80H278C288 80 295 88 294 98L282 226Z"/></svg>