<svg xmlns="http://www.w3.org/2000/svg" viewBox="0 0 512 512"><!-- Font Awesome Pro 6.0.0-alpha1 by @fontawesome - https://fontawesome.com License - https://fontawesome.com/license (Commercial License) --><path d="M448 0H64C29 0 0 29 0 64V352C0 387 29 416 64 416H160V500C160 510 171 515 179 510L304 416H448C483 416 512 387 512 352V64C512 29 483 0 448 0ZM128 96C146 96 160 110 160 128S146 160 128 160S96 146 96 128S110 96 128 96ZM414 312C411 317 406 320 400 320H112C106 320 100 317 98 311C95 306 96 299 99 295L169 199C172 194 177 192 182 192S192 194 195 199L217 229L280 135C283 131 288 128 293 128S304 131 307 135L413 295C417 300 417 306 414 312Z"/></svg>