<svg xmlns="http://www.w3.org/2000/svg" viewBox="0 0 512 512"><!-- Font Awesome Pro 6.0.0-alpha1 by @fontawesome - https://fontawesome.com License - https://fontawesome.com/license (Commercial License) --><path d="M290 27C266 51 255 83 257 114L365 222C396 224 428 213 452 189L454 187L292 25L290 27ZM7 390C-3 400 -2 416 8 426L52 471C62 481 78 481 89 472L224 352V463C224 471 231 479 240 479H272C281 479 288 471 288 463V296L344 247L232 135L7 390ZM479 0C434 -45 361 -45 317 0L314 2L476 164L479 162C523 117 523 45 479 0Z"/></svg>