<svg xmlns="http://www.w3.org/2000/svg" viewBox="0 0 512 512"><!-- Font Awesome Pro 6.0.0-alpha1 by @fontawesome - https://fontawesome.com License - https://fontawesome.com/license (Commercial License) --><path d="M160 320H172V336C172 345 179 352 188 352H228C237 352 244 345 244 336V320H256C274 320 288 306 288 288V64C288 46 274 32 256 32V16C256 7 249 0 240 0H176C167 0 160 7 160 16V32C142 32 128 46 128 64V288C128 306 142 320 160 320ZM464 448H463C493 414 512 369 512 320C512 214 426 128 320 128V192C391 192 448 249 448 320S391 448 320 448H48C22 448 0 470 0 496C0 505 7 512 16 512H496C505 512 512 505 512 496C512 470 490 448 464 448ZM104 416H312C316 416 320 412 320 408V392C320 388 316 384 312 384H104C100 384 96 388 96 392V408C96 412 100 416 104 416Z"/></svg>