<svg xmlns="http://www.w3.org/2000/svg" viewBox="0 0 576 512"><!-- Font Awesome Pro 6.0.0-alpha1 by @fontawesome - https://fontawesome.com License - https://fontawesome.com/license (Commercial License) --><path d="M528 32H48C22 32 0 54 0 80V400C0 426 22 448 48 448L72 480H120L144 448H432L456 480H504L528 448C554 448 576 426 576 400V80C576 54 554 32 528 32ZM416 352H96V128H416V352ZM496 264C483 264 472 253 472 240S483 216 496 216S520 227 520 240S509 264 496 264ZM496 168C483 168 472 157 472 144S483 120 496 120S520 131 520 144S509 168 496 168Z"/></svg>