<svg xmlns="http://www.w3.org/2000/svg" viewBox="0 0 512 512"><!-- Font Awesome Pro 6.0.0-alpha1 by @fontawesome - https://fontawesome.com License - https://fontawesome.com/license (Commercial License) --><path d="M200 288H64C51 288 39 296 34 308C29 320 32 333 41 343L71 373L9 435C-3 447 -3 468 9 480L32 503C44 515 65 515 77 503L139 441L169 471C175 477 184 480 192 480C196 480 200 479 204 478C216 473 224 461 224 448V312C224 299 213 288 200 288ZM312 224H448C461 224 473 216 478 204C483 192 480 179 471 169L441 139L503 77C515 65 515 44 503 32L480 9C467 -3 447 -3 435 9L373 71L343 41C333 32 320 30 308 34C296 39 288 51 288 64V200C288 213 299 224 312 224ZM204 34C192 29 179 32 169 41L139 71L77 9C65 -3 44 -3 32 9L9 32C-3 44 -3 65 9 77L71 139L41 169C35 175 32 184 32 192C32 196 33 200 34 204C39 216 51 224 64 224H200C213 224 224 213 224 200V64C224 51 216 39 204 34ZM441 373L471 343C480 333 482 320 478 308C473 296 461 288 448 288H312C299 288 288 299 288 312V448C288 461 296 473 308 478C320 483 333 480 343 471L373 441L435 503C447 515 467 515 480 503L503 480C515 467 515 447 503 435L441 373Z"/></svg>