<svg xmlns="http://www.w3.org/2000/svg" viewBox="0 0 640 512"><!-- Font Awesome Pro 6.0.0-alpha1 by @fontawesome - https://fontawesome.com License - https://fontawesome.com/license (Commercial License) --><path d="M586 136L573 148L448 274C439 283 427 288 414 288H112C103 288 96 281 96 272C96 263 103 256 112 256H320V194C320 181 325 169 334 160L366 128H80C54 128 32 150 32 176V464C32 490 54 512 80 512H560C586 512 608 490 608 464V176C608 159 599 144 586 136ZM528 384H112C103 384 96 377 96 368C96 359 103 352 112 352H528C537 352 544 359 544 368C544 377 537 384 528 384ZM601 75C610 65 610 49 601 39L569 7C564 2 557 0 551 0S538 2 533 7L505 35L573 103L601 75ZM352 194V256H414C419 256 423 254 426 251L551 125L483 57L357 182C354 185 352 189 352 194Z"/></svg>