<svg xmlns="http://www.w3.org/2000/svg" viewBox="0 0 576 512"><!-- Font Awesome Pro 6.0.0-alpha1 by @fontawesome - https://fontawesome.com License - https://fontawesome.com/license (Commercial License) --><path d="M528 64H48C22 64 0 86 0 112V400C0 426 22 448 48 448H528C554 448 576 426 576 400V112C576 86 554 64 528 64ZM144 328V344C144 348 140 352 136 352H120C116 352 112 348 112 344V328C101 327 90 323 81 316C77 313 77 308 80 304L92 293C95 290 99 290 102 292C106 295 110 296 115 296H143C149 296 155 290 155 283C155 277 151 272 146 270L101 257C82 251 69 233 69 213C69 189 88 169 112 168V152C112 148 116 144 120 144H136C140 144 144 148 144 152V168C155 169 166 173 175 180C179 183 179 188 176 192L164 203C161 206 157 206 154 204C150 201 146 200 141 200H113C107 200 101 206 101 213C101 219 105 224 110 226L155 239C174 245 187 263 187 283C187 307 168 327 144 328ZM352 304C352 313 345 320 336 320H272C263 320 256 313 256 304V304C256 295 263 288 272 288H336C345 288 352 295 352 304L352 304ZM512 304C512 313 505 320 496 320H432C423 320 416 313 416 304V304C416 295 423 288 432 288H496C505 288 512 295 512 304L512 304ZM512 208C512 217 505 224 496 224H272C263 224 256 217 256 208V208C256 199 263 192 272 192H496C505 192 512 199 512 208L512 208Z"/></svg>