<svg xmlns="http://www.w3.org/2000/svg" viewBox="0 0 576 512"><!-- Font Awesome Pro 6.0.0-alpha1 by @fontawesome - https://fontawesome.com License - https://fontawesome.com/license (Commercial License) --><path d="M324 288H312V188C312 182 306 176 300 176H264C259 176 256 179 254 183L241 206C239 210 240 214 242 218C244 222 248 224 252 224H264V288H252C246 288 240 294 240 300V324C240 330 246 336 252 336H324C330 336 336 330 336 324V300C336 294 330 288 324 288ZM559 54C524 38 489 32 454 32C343 32 233 94 122 94C94 94 66 90 38 81C35 79 32 79 29 79C14 79 0 92 0 111V428C0 441 7 453 17 458C52 474 87 480 122 480C233 480 343 418 454 418C482 418 510 422 538 431C541 433 544 433 547 433C562 433 576 420 576 401V84C576 71 569 59 559 54ZM103 430C84 429 65 425 48 419V361C80 365 104 391 104 424C104 426 103 428 103 430ZM48 192V134C68 139 89 141 110 142C104 170 79 192 48 192ZM288 384C229 384 181 327 181 256C181 185 229 128 288 128S395 185 395 256C395 327 347 384 288 384ZM528 378C508 373 487 371 466 370C472 342 497 320 528 320V378ZM528 151C496 147 472 121 472 88C472 86 473 84 473 82C492 83 511 87 528 93V151Z"/></svg>