<svg xmlns="http://www.w3.org/2000/svg" viewBox="0 0 576 512"><!-- Font Awesome Pro 6.0.0-alpha1 by @fontawesome - https://fontawesome.com License - https://fontawesome.com/license (Commercial License) --><path d="M528 64H48C22 64 0 86 0 112V400C0 426 22 448 48 448H528C554 448 576 426 576 400V112C576 86 554 64 528 64ZM48 400V336C83 336 112 365 112 400H48ZM48 176V112H112C112 147 83 176 48 176ZM288 352C244 352 208 309 208 256C208 203 244 160 288 160S368 203 368 256C368 309 332 352 288 352ZM528 400H464C464 365 493 336 528 336V400ZM528 176C493 176 464 147 464 112H528V176Z"/></svg>