<svg xmlns="http://www.w3.org/2000/svg" viewBox="0 0 640 512"><!-- Font Awesome Pro 6.0.0-alpha1 by @fontawesome - https://fontawesome.com License - https://fontawesome.com/license (Commercial License) --><path d="M601 75C610 65 610 49 601 39L569 7C559 -2 543 -2 533 7L505 35L573 103L601 75ZM352 194V256H414C419 256 423 254 426 251L551 125L483 57L357 182C354 185 352 189 352 194ZM586 136L573 148L448 274C439 283 427 288 414 288H272C263 288 256 281 256 272C256 263 263 256 272 256H320V194C320 181 325 169 334 160L366 128H80C54 128 32 150 32 176V464C32 490 54 512 80 512H560C586 512 608 490 608 464V176C608 159 599 144 586 136ZM176 392V408C176 412 172 416 168 416H152C148 416 144 412 144 408V392C133 391 122 387 113 380C109 377 109 372 112 368L124 357C127 354 131 354 134 356C138 359 142 360 147 360H175C181 360 187 354 187 347C187 341 183 336 178 334L133 321C114 315 101 297 101 277C101 253 120 233 144 232V216C144 212 148 208 152 208H168C172 208 176 212 176 216V232C187 233 198 237 207 244C211 247 211 252 208 256L196 267C193 270 189 270 186 268C182 265 178 264 173 264H145C139 264 133 270 133 277C133 283 137 288 142 290L187 303C206 309 219 327 219 347C219 371 200 391 176 392ZM528 384H272C263 384 256 377 256 368C256 359 263 352 272 352H528C537 352 544 359 544 368C544 377 537 384 528 384Z"/></svg>