<svg xmlns="http://www.w3.org/2000/svg" viewBox="0 0 576 512"><!-- Font Awesome Pro 6.0.0-alpha1 by @fontawesome - https://fontawesome.com License - https://fontawesome.com/license (Commercial License) --><path d="M480 128H96V256H197C200 256 203 258 204 260L224 300L274 201C280 189 296 189 302 201L330 256H400C409 256 416 263 416 272S409 288 400 288H310L288 244L238 343C232 355 216 355 210 343L182 288H96V384H480V128ZM528 32H48C22 32 0 54 0 80V432C0 458 22 480 48 480H528C554 480 576 458 576 432V80C576 54 554 32 528 32ZM512 416H64V96H512V416Z"/></svg>