<svg xmlns="http://www.w3.org/2000/svg" viewBox="0 0 384 512"><!-- Font Awesome Pro 6.0.0-alpha1 by @fontawesome - https://fontawesome.com License - https://fontawesome.com/license (Commercial License) --><path d="M289 96C288 89 285 82 280 77L203 0C197 -6 187 -6 181 0L104 77C99 82 96 89 95 96L64 411H320L289 96ZM240 303C240 309 234 315 227 315H157C150 315 144 309 144 303V264C144 258 150 251 157 251H227C234 251 240 258 240 264V303ZM368 443H16C7 443 0 450 0 459V491C0 500 7 507 16 507H368C377 507 384 500 384 491V459C384 450 377 443 368 443Z"/></svg>