<svg xmlns="http://www.w3.org/2000/svg" viewBox="0 0 512 512"><!-- Font Awesome Pro 6.0.0-alpha1 by @fontawesome - https://fontawesome.com License - https://fontawesome.com/license (Commercial License) --><path d="M338 318C284 328 234 287 234 232C234 200 250 171 278 156C282 153 281 147 276 146C270 145 263 144 256 144C194 144 144 194 144 256C144 318 194 368 256 368C290 368 322 352 343 327C346 323 343 317 338 318ZM508 339L450 256L508 173C518 159 510 140 493 137L393 119L375 19C372 3 353 -6 339 4L256 62L173 4C159 -6 140 2 137 19L119 119L19 137C3 140 -6 159 4 173L62 256L4 339C-6 353 2 372 19 375L119 393L137 493C140 509 159 518 173 508L256 450L339 508C353 517 372 509 375 493L393 393L493 375C510 372 518 353 508 339ZM358 358C302 414 210 414 154 358S98 210 154 154C210 98 302 98 358 154C414 210 414 302 358 358Z"/></svg>