<svg xmlns="http://www.w3.org/2000/svg" viewBox="0 0 512 512"><!-- Font Awesome Pro 6.0.0-alpha1 by @fontawesome - https://fontawesome.com License - https://fontawesome.com/license (Commercial License) --><path d="M332 426C239 444 154 373 154 279C154 225 183 175 230 148C237 144 235 133 227 131C109 109 0 200 0 320C0 426 86 512 192 512C251 512 305 485 341 441C346 434 340 425 332 426ZM288 64L300 94C301 95 303 96 304 96S307 95 308 94L320 64L350 52C351 51 352 49 352 48C352 47 351 45 350 44L320 32L308 2C307 1 305 0 304 0S301 1 300 2L288 32L258 44C257 45 256 47 256 48C256 49 257 51 258 52L288 64ZM508 217L448 192L423 132C422 130 419 128 416 128S410 130 409 132L384 192L324 217C322 218 320 221 320 224S322 230 324 231L384 256L409 316C410 318 413 320 416 320S422 318 423 316L448 256L508 231C510 230 512 227 512 224S510 218 508 217Z"/></svg>