<svg xmlns="http://www.w3.org/2000/svg" viewBox="0 0 640 512"><!-- Font Awesome Pro 6.0.0-alpha1 by @fontawesome - https://fontawesome.com License - https://fontawesome.com/license (Commercial License) --><path d="M0 480C0 498 14 512 32 512H96C114 512 128 498 128 480V160H0V480ZM579 288C597 271 608 251 608 229C608 176 566 135 520 106C478 80 439 48 408 10L400 0L392 10C361 48 322 80 280 106C234 135 192 176 192 229C192 251 203 271 221 288H579ZM64 0C64 0 0 32 0 96V128H128V96C128 32 64 0 64 0ZM608 320H192C174 320 160 334 160 352V512H224V448C224 430 238 416 256 416S288 430 288 448V512H352V440C352 392 400 368 400 368S448 392 448 440V512H512V448C512 430 526 416 544 416S576 430 576 448V512H640V352C640 334 626 320 608 320Z"/></svg>