<svg xmlns="http://www.w3.org/2000/svg" viewBox="0 0 640 512"><!-- Font Awesome Pro 6.0.0-alpha1 by @fontawesome - https://fontawesome.com License - https://fontawesome.com/license (Commercial License) --><path d="M96 352C96 370 110 384 128 384S160 370 160 352S146 320 128 320S96 334 96 352ZM198 336H254C246 273 193 224 128 224C57 224 0 281 0 352S57 480 128 480C193 480 246 431 254 368H198C191 400 162 424 128 424C88 424 56 392 56 352S88 280 128 280C162 280 191 304 198 336ZM512 224C499 224 486 227 474 230L418 128H480C498 128 512 114 512 96V64C512 46 498 32 480 32H460C452 32 445 35 439 39L392 79L373 45C369 37 361 32 352 32H272C263 32 256 39 256 48V64C256 73 263 80 272 80H338L354 110L256 192H234L212 170C195 153 173 144 149 144H48C39 144 32 151 32 160V176C32 185 39 192 48 192H128C216 192 288 264 288 352C288 363 287 374 285 384H355C353 374 352 363 352 352C352 300 377 254 416 225L431 253C403 277 384 312 384 352C384 423 441 480 512 480S640 423 640 352S583 224 512 224ZM512 424C472 424 440 392 440 352C440 333 447 317 459 304L483 349C487 357 497 360 505 356L519 348C527 344 530 334 525 326L501 281C505 281 508 280 512 280C552 280 584 312 584 352S552 424 512 424Z"/></svg>