<svg xmlns="http://www.w3.org/2000/svg" viewBox="0 0 384 512"><!-- Font Awesome Pro 6.0.0-alpha1 by @fontawesome - https://fontawesome.com License - https://fontawesome.com/license (Commercial License) --><path d="M336 0H48C22 0 0 22 0 48V464C0 490 22 512 48 512H336C362 512 384 490 384 464V48C384 22 362 0 336 0ZM192 448C139 448 96 405 96 352S139 256 192 256S288 299 288 352S245 448 192 448ZM320 192H64V64H320V192ZM192 320C174 320 160 334 160 352S174 384 192 384S224 370 224 352S210 320 192 320Z"/></svg>