<svg xmlns="http://www.w3.org/2000/svg" viewBox="0 0 576 512"><!-- Font Awesome Pro 6.0.0-alpha1 by @fontawesome - https://fontawesome.com License - https://fontawesome.com/license (Commercial License) --><path d="M416 64H144V128L183 167C189 173 192 181 192 189V256C192 274 178 288 160 288H96C78 288 64 274 64 256V189C64 181 67 173 73 167L112 128V64H24C18 64 11 66 7 71S0 82 0 88V352C0 405 43 448 96 448H288C341 448 384 405 384 352L384 352V320H416C487 320 544 263 544 192S487 64 416 64ZM416 256H384V128H416C451 128 480 157 480 192S451 256 416 256Z"/></svg>