<svg xmlns="http://www.w3.org/2000/svg" viewBox="0 0 512 512"><!-- Font Awesome Pro 6.0.0-alpha1 by @fontawesome - https://fontawesome.com License - https://fontawesome.com/license (Commercial License) --><path d="M196 127H347C355 115 354 99 343 89L294 40C282 28 262 28 249 40L201 89C190 99 189 115 196 127ZM178 66L201 44C195 37 186 32 176 32H64C46 32 32 46 32 64V127H162C157 106 162 83 178 66ZM400 159H160V223C160 241 146 255 128 255S96 241 96 223V159H32C14 159 0 174 0 191V383C0 436 43 479 96 479H288C341 479 384 436 384 383H400C462 383 512 333 512 271C512 210 462 159 400 159ZM400 319H384V223H400C426 223 448 245 448 271C448 298 426 319 400 319Z"/></svg>