<svg xmlns="http://www.w3.org/2000/svg" viewBox="0 0 640 512"><!-- Font Awesome Pro 6.0.0-alpha1 by @fontawesome - https://fontawesome.com License - https://fontawesome.com/license (Commercial License) --><path d="M631 469L384 276V148L457 127C471 123 480 110 480 96V32C480 22 475 12 467 6C459 0 449 -2 439 1L342 30C329 34 320 46 320 60V226L39 5C34 2 29 0 24 0C17 0 10 3 5 9C-3 20 -1 35 9 43L601 507C612 515 627 513 635 503C643 492 641 477 631 469ZM272 352C210 352 160 388 160 432S210 512 272 512S384 476 384 432S334 352 272 352Z"/></svg>