<svg xmlns="http://www.w3.org/2000/svg" viewBox="0 0 512 512"><!-- Font Awesome Pro 6.0.0-alpha1 by @fontawesome - https://fontawesome.com License - https://fontawesome.com/license (Commercial License) --><path d="M512 368L512 368L512 368C512 412 469 448 416 448S320 412 320 368C320 324 363 288 416 288C427 288 438 290 448 293V149L192 224V432C192 476 149 512 96 512S0 476 0 432C0 388 43 352 96 352C107 352 118 354 128 357V126C128 114 138 100 150 96L470 1C473 1 477 0 480 0C498 0 512 14 512 32V368Z"/></svg>