<svg xmlns="http://www.w3.org/2000/svg" viewBox="0 0 640 512"><!-- Font Awesome Pro 6.0.0-alpha1 by @fontawesome - https://fontawesome.com License - https://fontawesome.com/license (Commercial License) --><path d="M192 357C182 354 171 352 160 352C107 352 64 388 64 432C64 476 107 512 160 512S256 476 256 432V297L192 247V357ZM631 469L559 413C569 400 576 385 576 368V32C576 14 562 0 544 0C541 0 537 1 534 1L214 96C202 100 193 113 192 125L39 5C34 2 29 0 24 0C17 0 10 3 5 9C-3 20 -1 35 9 43L601 507C612 515 627 513 635 503C643 492 641 477 631 469ZM512 293C502 290 491 288 480 288C458 288 438 295 422 305L301 211L512 149V293Z"/></svg>