<svg xmlns="http://www.w3.org/2000/svg" viewBox="0 0 448 512"><!-- Font Awesome Pro 6.0.0-alpha1 by @fontawesome - https://fontawesome.com License - https://fontawesome.com/license (Commercial License) --><path d="M432 256H384V56C384 43 373 32 360 32H328C315 32 304 43 304 56V256H269L163 54C157 40 143 32 128 32H104C82 32 64 50 64 72V256H16C7 256 0 263 0 272V304C0 313 7 320 16 320H64V456C64 469 75 480 88 480H120C133 480 144 469 144 456V320H212L285 458C291 472 305 480 320 480H344C366 480 384 462 384 440V320H432C441 320 448 313 448 304V272C448 263 441 256 432 256ZM144 256V189L179 256H144Z"/></svg>