<svg xmlns="http://www.w3.org/2000/svg" viewBox="0 0 448 512"><!-- Font Awesome Pro 6.0.0-alpha1 by @fontawesome - https://fontawesome.com License - https://fontawesome.com/license (Commercial License) --><path d="M320 480L448 352H320V480ZM400 32H48C22 32 0 54 0 80V432C0 458 22 480 48 480H288V352C288 334 302 320 320 320H448V80C448 54 426 32 400 32ZM320 248C320 252 316 256 312 256H256V312C256 316 252 320 248 320H200C196 320 192 316 192 312V256H136C132 256 128 252 128 248V200C128 196 132 192 136 192H192V136C192 132 196 128 200 128H248C252 128 256 132 256 136V192H312C316 192 320 196 320 200V248Z"/></svg>