<svg xmlns="http://www.w3.org/2000/svg" viewBox="0 0 512 512"><!-- Font Awesome Pro 6.0.0-alpha1 by @fontawesome - https://fontawesome.com License - https://fontawesome.com/license (Commercial License) --><path d="M384 48H80C62 48 48 62 48 80V384C22 384 0 362 0 336V64C0 29 29 0 64 0H336C362 0 384 22 384 48ZM480 144V384L384 480H144C118 480 96 458 96 432V144C96 118 118 96 144 96H432C458 96 480 118 480 144ZM384 264C384 260 380 256 376 256H320V200C320 196 316 192 312 192H264C260 192 256 196 256 200V256H200C196 256 192 260 192 264V312C192 316 196 320 200 320H256V376C256 380 260 384 264 384H312C316 384 320 380 320 376V320H376C380 320 384 316 384 312V264Z"/></svg>