<svg xmlns="http://www.w3.org/2000/svg" viewBox="0 0 512 512"><!-- Font Awesome Pro 6.0.0-alpha1 by @fontawesome - https://fontawesome.com License - https://fontawesome.com/license (Commercial License) --><path d="M496 128C505 128 512 121 512 112V48C512 39 505 32 496 32H432C423 32 416 39 416 48V64H96V48C96 39 89 32 80 32H16C7 32 0 39 0 48V112C0 121 7 128 16 128H32V384H16C7 384 0 391 0 400V464C0 473 7 480 16 480H80C89 480 96 473 96 464V448H416V464C416 473 423 480 432 480H496C505 480 512 473 512 464V400C512 391 505 384 496 384H480V128H496ZM96 272V144C96 135 103 128 112 128H272C281 128 288 135 288 144V272C288 281 281 288 272 288H112C103 288 96 281 96 272ZM416 368C416 377 409 384 400 384H240C231 384 224 377 224 368V320H296C309 320 320 309 320 296V224H400C409 224 416 231 416 240V368Z"/></svg>