<svg xmlns="http://www.w3.org/2000/svg" viewBox="0 0 512 512"><!-- Font Awesome Pro 6.0.0-alpha1 by @fontawesome - https://fontawesome.com License - https://fontawesome.com/license (Commercial License) --><path d="M483 157L355 29C346 21 335 16 323 16H189C177 16 166 21 157 29L29 157C21 166 16 177 16 189V323C16 335 21 346 29 355L157 483C166 491 177 496 189 496H323C335 496 346 491 355 483L483 355C491 346 496 335 496 323V189C496 177 491 166 483 157ZM341 307C350 316 350 332 341 341C332 350 316 350 307 341L256 290L205 341C196 350 180 350 171 341C162 332 162 316 171 307L222 256L171 205C162 196 162 180 171 171C180 162 196 162 205 171L256 222L307 171C316 162 332 162 341 171C350 180 350 196 341 205L290 256L341 307Z"/></svg>