<svg xmlns="http://www.w3.org/2000/svg" viewBox="0 0 512 512"><!-- Font Awesome Pro 6.0.0-alpha1 by @fontawesome - https://fontawesome.com License - https://fontawesome.com/license (Commercial License) --><path d="M361 58C362 60 365 61 368 61S373 60 375 58L397 36C399 34 400 32 400 29S399 24 397 22L375 0C371 -4 365 -4 361 0L339 22C337 24 336 26 336 29S337 34 339 36L361 58ZM412 189C385 189 360 199 342 218L317 243C310 249 302 253 292 253H245C255 231 259 205 253 178C243 135 206 102 163 95C127 89 92 100 67 123C60 130 60 142 68 148L94 168C100 172 108 172 114 168C122 161 133 157 144 157C170 157 192 179 192 205S170 253 144 253H112C100 253 92 266 98 276L114 309C116 314 121 316 127 317H160C195 317 224 346 224 381S195 445 160 445C64 445 38 391 15 353C10 345 0 349 0 358C0 413 41 509 160 509C230 509 288 452 288 381C288 358 281 336 270 317H292C318 317 344 307 362 288L387 263C394 257 402 253 412 253C432 253 448 269 448 289V389C448 402 429 413 416 413C377 413 349 389 334 370C329 364 320 368 320 375V413C320 413 320 477 416 477C465 477 512 438 512 389V289C512 234 467 189 412 189ZM454 64C369 129 285 67 282 64C276 60 267 60 262 65C256 70 254 78 258 85C259 88 298 157 377 157C457 157 475 126 478 119C479 117 480 115 480 112V77C480 64 465 56 454 64Z"/></svg>