<svg xmlns="http://www.w3.org/2000/svg" viewBox="0 0 384 512"><!-- Font Awesome Pro 6.0.0-alpha1 by @fontawesome - https://fontawesome.com License - https://fontawesome.com/license (Commercial License) --><path d="M288 154V112C288 103 281 96 272 96H247C253 87 256 76 256 64C256 29 227 0 192 0S128 29 128 64C128 76 131 87 137 96H112C103 96 96 103 96 112V154C67 171 43 195 26 224H358C341 195 317 171 288 154ZM192 96C174 96 160 82 160 64S174 32 192 32S224 46 224 64S209 96 192 96ZM192 512C263 512 325 473 358 416H26C59 473 121 512 192 512ZM373 256H11C4 276 0 298 0 320S4 364 11 384H373C380 364 384 342 384 320C384 298 380 276 373 256Z"/></svg>