<svg xmlns="http://www.w3.org/2000/svg" viewBox="0 0 448 512"><!-- Font Awesome Pro 6.0.0-alpha1 by @fontawesome - https://fontawesome.com License - https://fontawesome.com/license (Commercial License) --><path d="M432 0H16C7 0 0 7 0 16V48C0 57 7 64 16 64H432C441 64 448 57 448 48V16C448 7 441 0 432 0ZM232 128H216C123 128 48 203 48 296V344C48 437 123 512 216 512H232C325 512 400 437 400 344V296C400 203 325 128 232 128ZM320 344C320 393 281 432 232 432H216C167 432 128 393 128 344V296C128 247 167 208 216 208H232C281 208 320 247 320 296V344Z"/></svg>