<svg xmlns="http://www.w3.org/2000/svg" viewBox="0 0 576 512"><!-- Font Awesome Pro 6.0.0-alpha1 by @fontawesome - https://fontawesome.com License - https://fontawesome.com/license (Commercial License) --><path d="M204 296C197 294 191 293 184 293C184 293 184 293 184 293C156 293 130 304 111 324C88 347 78 377 81 406C83 432 64 453 32 453C14 453 0 468 0 485C0 503 14 517 32 517C32 517 60 517 86 517C140 517 219 510 258 471C283 445 292 410 286 378L204 296ZM560 22C538 0 502 0 480 22L228 275L307 354L560 101C581 79 581 44 560 22Z"/></svg>