<svg xmlns="http://www.w3.org/2000/svg" viewBox="0 0 512 512"><!-- Font Awesome Pro 6.0.0-alpha1 by @fontawesome - https://fontawesome.com License - https://fontawesome.com/license (Commercial License) --><path d="M416 128V32C416 14 402 0 384 0H32C14 0 0 14 0 32V128C0 146 14 160 32 160H384C402 160 416 146 416 128ZM448 64V192C448 210 434 224 416 224H256C221 224 192 253 192 288V320C174 320 160 334 160 352V480C160 498 174 512 192 512H256C274 512 288 498 288 480V352C288 334 274 320 256 320V288H416C469 288 512 245 512 192V128C512 93 483 64 448 64Z"/></svg>