<svg xmlns="http://www.w3.org/2000/svg" viewBox="0 0 512 512"><!-- Font Awesome Pro 6.0.0-alpha1 by @fontawesome - https://fontawesome.com License - https://fontawesome.com/license (Commercial License) --><path d="M204 5C105 24 25 104 5 203C-32 390 137 530 264 510C305 504 325 456 306 418C283 373 316 320 367 320H447C483 320 512 290 512 255C511 97 368 -27 204 5ZM96 320C78 320 64 306 64 288C64 270 78 256 96 256S128 270 128 288C128 306 114 320 96 320ZM128 192C110 192 96 178 96 160S110 128 128 128S160 142 160 160S146 192 128 192ZM256 128C238 128 224 114 224 96S238 64 256 64S288 78 288 96S274 128 256 128ZM384 192C366 192 352 178 352 160S366 128 384 128S416 142 416 160S402 192 384 192Z"/></svg>