<svg xmlns="http://www.w3.org/2000/svg" viewBox="0 0 640 512"><!-- Font Awesome Pro 6.0.0-alpha1 by @fontawesome - https://fontawesome.com License - https://fontawesome.com/license (Commercial License) --><path d="M160 256H480C498 256 512 242 512 224V32C512 14 498 0 480 0H384V128L320 96L256 128V0H160C142 0 128 14 128 32V224C128 242 142 256 160 256ZM624 384C633 384 640 377 640 368V336C640 327 633 320 624 320H16C7 320 0 327 0 336V368C0 377 7 384 16 384H64V448H16C7 448 0 455 0 464V496C0 505 7 512 16 512H624C633 512 640 505 640 496V464C640 455 633 448 624 448H576V384H624ZM288 448H128V384H288V448ZM512 448H352V384H512V448Z"/></svg>