<svg xmlns="http://www.w3.org/2000/svg" viewBox="0 0 640 512"><!-- Font Awesome Pro 6.0.0-alpha1 by @fontawesome - https://fontawesome.com License - https://fontawesome.com/license (Commercial License) --><path d="M578 66L578 66C410 117 230 117 62 66L62 66C31 57 0 80 0 112V432C0 464 31 487 62 478L62 478C230 427 410 427 578 478L578 478C609 487 640 464 640 432V112C640 80 609 57 578 66ZM128 224C110 224 96 210 96 192S110 160 128 160C146 160 160 174 160 192S146 224 128 224ZM474 389C423 380 372 376 320 376C270 376 219 380 170 388C156 390 146 375 154 363C175 334 203 295 203 295C206 290 211 288 216 288S226 290 229 295L261 339L355 199C358 195 363 192 368 192S378 195 381 199C381 199 454 309 490 364C498 376 488 391 474 389Z"/></svg>