<svg xmlns="http://www.w3.org/2000/svg" viewBox="0 0 384 512"><!-- Font Awesome Pro 6.0.0-alpha1 by @fontawesome - https://fontawesome.com License - https://fontawesome.com/license (Commercial License) --><path d="M352 128V336C352 439 263 521 158 511C67 502 0 420 0 328V208C0 199 7 192 16 192H48C57 192 64 199 64 208V333C64 386 100 435 152 446C224 460 288 405 288 336V132C288 100 266 70 235 65C195 58 160 89 160 128V304C160 313 167 320 176 320S192 313 192 304V144C192 135 199 128 208 128H240C249 128 256 135 256 144V299C256 341 226 379 184 384C137 388 96 351 96 304V134C96 67 145 7 211 1C288 -7 352 53 352 128Z"/></svg>