<svg xmlns="http://www.w3.org/2000/svg" viewBox="0 0 384 512"><!-- Font Awesome Pro 6.0.0-alpha1 by @fontawesome - https://fontawesome.com License - https://fontawesome.com/license (Commercial License) --><path d="M144 224H160V304C160 313 167 320 176 320H208C217 320 224 313 224 304V64H256V304C256 313 263 320 272 320H304C313 320 320 313 320 304V64H336C345 64 352 57 352 48V16C352 7 345 0 336 0H144C80 0 32 48 32 112S80 224 144 224ZM368 384H128V336C128 330 124 324 119 322C113 319 107 320 102 324L6 404C2 407 0 411 0 416S2 425 6 428L102 508C105 511 108 512 112 512C114 512 117 511 119 510C124 508 128 502 128 496V448H368C377 448 384 441 384 432V400C384 391 377 384 368 384Z"/></svg>