<svg xmlns="http://www.w3.org/2000/svg" viewBox="0 0 448 512"><!-- Font Awesome Pro 6.0.0-alpha1 by @fontawesome - https://fontawesome.com License - https://fontawesome.com/license (Commercial License) --><path d="M130 208C135 239 155 265 183 278C175 259 170 235 169 208H130ZM130 176H169C170 149 175 125 183 106C155 119 135 145 130 176ZM224 287C232 279 245 252 247 208H201C203 252 216 279 224 287ZM265 106C273 125 278 149 279 176H318C313 145 293 119 265 106ZM384 0H64C29 0 0 29 0 64V448C0 483 29 512 64 512H384C419 512 448 483 448 448V64C448 29 419 0 384 0ZM336 416H112C103 416 96 409 96 400S103 384 112 384H336C345 384 352 391 352 400S345 416 336 416ZM224 320C153 320 96 263 96 192S153 64 224 64S352 121 352 192S295 320 224 320ZM265 278C293 265 313 239 318 208H279C278 235 273 259 265 278ZM201 176H248C245 132 232 105 224 97C216 105 203 132 201 176Z"/></svg>