<svg xmlns="http://www.w3.org/2000/svg" viewBox="0 0 512 512"><!-- Font Awesome Pro 6.0.0-alpha1 by @fontawesome - https://fontawesome.com License - https://fontawesome.com/license (Commercial License) --><path d="M320 96V80C320 54 298 32 272 32H215C204 13 184 0 160 0S116 13 105 32H48C22 32 0 54 0 80V400C0 426 22 448 48 448H192V176C192 132 228 96 272 96H320ZM160 88C147 88 136 77 136 64S147 40 160 40S184 51 184 64S173 88 160 88ZM416 128V224H512L416 128ZM384 224V128H272C246 128 224 150 224 176V464C224 490 246 512 272 512H464C490 512 512 490 512 464V256H416C398 256 384 242 384 224Z"/></svg>