<svg xmlns="http://www.w3.org/2000/svg" viewBox="0 0 512 512"><!-- Font Awesome Pro 6.0.0-alpha1 by @fontawesome - https://fontawesome.com License - https://fontawesome.com/license (Commercial License) --><path d="M256 16C123 16 16 123 16 256S123 496 256 496S496 389 496 256S389 16 256 16ZM432 256C432 286 424 314 411 339L288 241V83C370 98 432 170 432 256ZM224 429C193 423 164 409 141 389L224 323V429ZM288 323L371 389C348 409 319 423 288 429V323ZM224 83V241L101 339C88 314 80 286 80 256C80 170 142 98 224 83Z"/></svg>