<svg xmlns="http://www.w3.org/2000/svg" viewBox="0 0 640 512"><!-- Font Awesome Pro 6.0.0-alpha1 by @fontawesome - https://fontawesome.com License - https://fontawesome.com/license (Commercial License) --><path d="M128 288L64 496L162 392C161 389 160 387 160 384C160 366 174 352 192 352S224 366 224 384S210 416 192 416C189 416 187 415 184 414L80 512L288 448L325 351L206 258L128 288ZM631 469L394 283L548 142C632 67 508 -56 433 28L281 195L39 5C34 2 29 0 24 0C17 0 10 3 5 9C-3 20 -1 35 9 43L601 507C612 515 627 513 635 503C643 492 641 477 631 469Z"/></svg>