<svg xmlns="http://www.w3.org/2000/svg" viewBox="0 0 640 512"><!-- Font Awesome Pro 6.0.0-alpha1 by @fontawesome - https://fontawesome.com License - https://fontawesome.com/license (Commercial License) --><path d="M192 320C192 338 206 352 224 352S256 338 256 320S242 288 224 288S192 302 192 320ZM96 320C96 338 110 352 128 352S160 338 160 320S146 288 128 288S96 302 96 320ZM627 39L601 13C584 -4 556 -4 539 13L312 240C309 243 307 247 306 252L288 339C287 347 293 353 301 352L388 334C393 333 397 331 400 328L627 101C644 84 644 56 627 39ZM512 327C512 327 512 327 512 327V448H64V192H292L356 128H64C29 128 0 157 0 192V448C0 483 29 512 64 512H512C547 512 576 483 576 448V384H576V220L512 284V327Z"/></svg>