<svg xmlns="http://www.w3.org/2000/svg" viewBox="0 0 512 512"><!-- Font Awesome Pro 6.0.0-alpha1 by @fontawesome - https://fontawesome.com License - https://fontawesome.com/license (Commercial License) --><path d="M137 139C116 145 100 160 93 180L0 460L15 475L165 325C162 318 160 311 160 304C160 278 181 256 208 256S256 278 256 304S234 352 208 352C201 352 194 350 187 347L37 497L52 512L332 419C352 412 367 396 373 375L416 224L288 96L137 139ZM498 74L438 14C419 -5 389 -5 370 14L313 71L441 199L498 142C517 123 517 93 498 74Z"/></svg>