<svg xmlns="http://www.w3.org/2000/svg" viewBox="0 0 576 512"><!-- Font Awesome Pro 6.0.0-alpha1 by @fontawesome - https://fontawesome.com License - https://fontawesome.com/license (Commercial License) --><path d="M348 69L58 358C53 363 50 369 49 376L32 473C30 488 42 500 57 498L154 481C161 479 167 476 171 472L461 182L348 69ZM530 113C549 94 549 64 530 45L485 0C466 -19 435 -19 417 0L371 46L484 159L530 113ZM544 434C512 434 493 413 495 387C497 357 488 327 465 305C451 290 432 280 412 276L291 397C294 417 303 436 318 451C357 490 436 498 490 498C516 498 544 498 544 498C561 498 576 484 576 466C576 448 561 434 544 434ZM232 139L95 2C74 -20 38 -20 16 2S-6 60 16 82L153 218L232 139Z"/></svg>