<svg xmlns="http://www.w3.org/2000/svg" viewBox="0 0 640 512"><!-- Font Awesome Pro 6.0.0-alpha1 by @fontawesome - https://fontawesome.com License - https://fontawesome.com/license (Commercial License) --><path d="M158 290C106 342 72 411 64 485V485C63 501 75 513 91 512C164 504 233 471 286 418L340 364L197 251L158 290ZM562 142C581 123 581 93 562 74L502 14C483 -5 453 -5 434 14L377 71L505 199L562 142ZM631 469L409 295L483 221L315 54C299 38 274 38 259 54L189 123L39 5C34 2 29 0 24 0C17 0 10 3 5 9C-3 20 -1 35 9 43L601 507C612 515 627 513 635 503C643 492 641 477 631 469ZM265 183L227 153L287 93L321 127L265 183Z"/></svg>