<svg xmlns="http://www.w3.org/2000/svg" viewBox="0 0 512 512"><!-- Font Awesome Pro 6.0.0-alpha1 by @fontawesome - https://fontawesome.com License - https://fontawesome.com/license (Commercial License) --><path d="M465 134C486 96 485 47 459 10C452 -1 437 -3 426 4C415 12 413 27 420 38C435 58 435 85 424 107C407 100 388 96 368 96C332 96 299 110 274 132L352 165V256H443L476 334C498 309 512 276 512 240C512 198 494 161 465 134ZM320 288V187L267 164C216 241 189 400 56 400C25 400 0 425 0 456S25 512 56 512C236 512 377 424 445 344L421 288H320Z"/></svg>