<svg xmlns="http://www.w3.org/2000/svg" viewBox="0 0 448 512"><!-- Font Awesome Pro 6.0.0-alpha1 by @fontawesome - https://fontawesome.com License - https://fontawesome.com/license (Commercial License) --><path d="M352 288C299 288 256 331 256 384S299 480 352 480S448 437 448 384S405 288 352 288ZM352 416C334 416 320 402 320 384S334 352 352 352S384 366 384 384S370 416 352 416ZM192 128C192 75 149 32 96 32S0 75 0 128S43 224 96 224S192 181 192 128ZM64 128C64 110 78 96 96 96S128 110 128 128S114 160 96 160S64 146 64 128ZM407 96L384 73C372 61 351 61 339 73L41 371C29 383 29 404 41 416L64 439C76 451 97 451 109 439L407 141C419 129 419 108 407 96Z"/></svg>