<svg xmlns="http://www.w3.org/2000/svg" viewBox="0 0 512 512"><!-- Font Awesome Pro 6.0.0-alpha1 by @fontawesome - https://fontawesome.com License - https://fontawesome.com/license (Commercial License) --><path d="M505 420C496 411 480 411 471 420C459 432 441 435 426 429L377 403C381 398 384 392 384 384V288C384 270 370 256 352 256H301L347 210C361 196 365 176 358 158C350 140 333 128 314 128H160C142 128 128 142 128 160S142 192 160 192H243L169 265C166 268 164 272 162 276C160 281 160 286 161 292L35 227C23 221 9 225 3 237C-3 249 1 263 13 269L405 472C417 477 429 480 442 480C465 480 488 471 505 454C514 445 514 429 505 420ZM320 374L216 320H320V374ZM400 128C427 128 448 106 448 80S427 32 400 32C374 32 352 54 352 80S374 128 400 128Z"/></svg>