<svg xmlns="http://www.w3.org/2000/svg" viewBox="0 0 512 512"><!-- Font Awesome Pro 6.0.0-alpha1 by @fontawesome - https://fontawesome.com License - https://fontawesome.com/license (Commercial License) --><path d="M461 250C467 254 473 256 480 256C490 256 499 252 506 243C516 229 513 209 499 198L388 115C374 105 359 97 342 91L279 70L253 18C245 2 225 -4 210 4C194 11 187 31 195 46L224 105C230 116 240 124 252 129L269 134L227 155C206 166 192 187 192 212V265L118 290C101 295 92 313 98 330C99 335 103 340 106 343L68 329C58 325 50 318 46 309C40 297 26 292 14 297C2 303 -3 317 2 329C12 350 29 366 51 374L416 507C426 510 436 512 446 512C458 512 471 509 482 504C494 498 499 484 494 472C488 460 474 455 462 460C453 465 442 465 432 462L342 429C350 424 357 417 359 407L381 305C385 286 378 267 363 256L311 217L377 187L461 250ZM316 301L297 393C295 400 297 407 299 413L130 352C133 351 135 351 138 350L223 322C243 315 256 297 256 276V256L316 301ZM432 96C458 96 480 74 480 48S458 0 432 0S384 22 384 48S405 96 432 96Z"/></svg>