<svg xmlns="http://www.w3.org/2000/svg" viewBox="0 0 512 512"><!-- Font Awesome Pro 6.0.0-alpha1 by @fontawesome - https://fontawesome.com License - https://fontawesome.com/license (Commercial License) --><path d="M331 361C333 369 342 374 351 372L468 341C476 338 481 329 479 321L448 204C445 196 437 190 428 193L311 224C303 226 297 235 300 244L331 361ZM0 480C0 498 14 512 32 512S64 498 64 480V405C48 392 0 351 0 350V480ZM503 374C502 370 498 367 494 368L340 409C330 397 315 388 299 385L239 163C238 159 234 157 229 158L199 166C194 167 192 171 193 176L206 224H167L133 162C122 141 101 128 77 128H48C21 128 0 149 0 176V279C0 298 8 315 22 328L98 393L112 485C113 491 123 516 149 511C167 509 178 492 176 475L162 382C159 367 151 354 140 344L96 306V228L119 271C125 281 135 288 147 288H223L252 396C232 410 220 434 226 461C231 485 250 505 275 511C313 519 347 492 352 456L506 415C510 414 513 409 512 405L503 374ZM289 464C280 464 273 457 273 448C273 439 280 432 289 432C297 432 305 439 305 448C305 457 298 464 289 464ZM80 96C107 96 128 75 128 48S107 0 80 0S32 22 32 48S54 96 80 96Z"/></svg>