<svg xmlns="http://www.w3.org/2000/svg" viewBox="0 0 384 512"><!-- Font Awesome Pro 6.0.0-alpha1 by @fontawesome - https://fontawesome.com License - https://fontawesome.com/license (Commercial License) --><path d="M144 96C171 96 192 74 192 48S171 0 144 0S96 22 96 48S118 96 144 96ZM352 416H332L320 316C318 300 304 288 288 288H192V256H256C274 256 288 242 288 224C288 206 274 192 256 192H192V176C192 150 171 128 144 128S96 150 96 176V304C96 330 117 352 144 352C146 352 148 352 149 351C150 352 151 352 152 352H260L272 452C274 468 288 480 304 480H352C370 480 384 466 384 448S370 416 352 416ZM192 384H128C93 384 64 355 64 320V160C64 142 50 128 32 128S0 142 0 160V320C0 391 57 448 128 448H192C210 448 224 434 224 416S210 384 192 384Z"/></svg>