<svg xmlns="http://www.w3.org/2000/svg" viewBox="0 0 512 512"><!-- Font Awesome Pro 6.0.0-alpha1 by @fontawesome - https://fontawesome.com License - https://fontawesome.com/license (Commercial License) --><path d="M432 96C459 96 480 75 480 48S459 0 432 0C406 0 384 22 384 48S406 96 432 96ZM505 452C496 443 480 443 471 452C459 464 441 468 426 461L290 391L339 317C352 298 350 272 333 256L293 216L186 163C183 183 189 203 204 217L279 292L233 361L35 259C23 253 9 257 3 269C-3 281 1 295 13 301L405 504C417 509 429 512 442 512C465 512 488 503 505 486C514 477 514 461 505 452ZM120 92L108 114C123 121 140 119 151 109L198 133C198 133 198 133 198 133L313 190L345 177L352 196C356 208 364 218 376 224L434 253C450 261 469 254 477 238C485 223 478 203 462 195L410 169L393 118C385 94 352 62 309 79L227 111L165 80C165 66 158 52 144 45L133 67H133L98 60C96 59 95 60 93 61C91 63 92 67 94 69L120 92Z"/></svg>