<svg xmlns="http://www.w3.org/2000/svg" viewBox="0 0 576 512"><!-- Font Awesome Pro 6.0.0-alpha1 by @fontawesome - https://fontawesome.com License - https://fontawesome.com/license (Commercial License) --><path d="M464 256C473 256 480 249 480 240S473 224 464 224C455 224 448 231 448 240S455 256 464 256ZM288 176C337 176 376 137 376 88S337 0 288 0S200 39 200 88S239 176 288 176ZM80 256C89 256 96 249 96 240S89 224 80 224S64 231 64 240S71 256 80 256ZM76 375C77 375 118 346 176 325V432H400V325C458 346 500 375 500 375C509 381 518 384 528 384C543 384 558 377 567 364C582 342 577 312 556 297C554 296 535 282 504 266C495 279 481 288 464 288C438 288 416 266 416 240C416 236 416 233 417 230C379 217 334 208 288 208C229 208 173 223 128 241C128 267 106 288 80 288C69 288 59 284 51 278C33 288 22 296 20 297C-1 312 -6 342 9 364C24 385 54 390 76 375ZM336 344C349 344 360 355 360 368S349 392 336 392C323 392 312 381 312 368S323 344 336 344ZM240 248C253 248 264 259 264 272S253 296 240 296C227 296 216 285 216 272S227 248 240 248ZM560 464H16C7 464 0 471 0 480V496C0 505 7 512 16 512H560C569 512 576 505 576 496V480C576 471 569 464 560 464Z"/></svg>