<svg xmlns="http://www.w3.org/2000/svg" viewBox="0 0 576 512"><!-- Font Awesome Pro 6.0.0-alpha1 by @fontawesome - https://fontawesome.com License - https://fontawesome.com/license (Commercial License) --><path d="M336 96C362 96 384 74 384 48S362 0 336 0S288 22 288 48S310 96 336 96ZM552 416C539 416 528 427 528 440S517 464 504 464H434L460 286C472 281 480 269 480 256C480 238 466 224 448 224H404L378 171C366 145 343 127 316 120L245 99C217 92 187 98 164 116L125 146C110 157 108 177 119 191C119 192 120 192 121 193L67 464H24C11 464 0 475 0 488S11 512 24 512H504C544 512 576 480 576 440C576 427 565 416 552 416ZM291 464H195L238 373L216 360C204 353 194 343 186 332L124 464H99L152 203C156 202 160 200 163 197L203 167C211 161 221 159 228 161L243 165L206 252C193 282 204 316 232 333L317 383L291 464ZM402 464H358L382 389C388 368 379 345 360 334L299 298L331 220L351 261C359 277 376 288 394 288H427L402 464Z"/></svg>