<svg xmlns="http://www.w3.org/2000/svg" viewBox="0 0 512 512"><!-- Font Awesome Pro 6.0.0-alpha1 by @fontawesome - https://fontawesome.com License - https://fontawesome.com/license (Commercial License) --><path d="M112 128C138 128 160 106 160 80S138 32 112 32S64 54 64 80S85 128 112 128ZM256 0H224V184L256 176V0ZM488 288C475 288 464 299 464 312C464 326 455 338 442 343L320 389V248C320 238 315 229 308 223C300 217 290 214 280 217L212 234L188 180C177 156 148 145 124 156C100 167 89 196 100 220C100 220 127 286 128 288C136 307 151 315 168 311L256 289V412L112 466C99 470 93 484 97 496C101 506 110 512 120 512C123 512 126 511 128 510L459 388C491 377 512 346 512 312C512 299 501 288 488 288ZM192 381C204 377 211 364 207 351C203 338 189 332 176 336L158 342C139 348 118 339 109 321L46 188C40 176 26 171 14 177C2 183 -3 197 2 209L66 342C81 373 112 392 145 392C158 392 162 391 192 381Z"/></svg>