<svg xmlns="http://www.w3.org/2000/svg" viewBox="0 0 384 512"><!-- Font Awesome Pro 6.0.0-alpha1 by @fontawesome - https://fontawesome.com License - https://fontawesome.com/license (Commercial License) --><path d="M80 96C106 96 128 74 128 48C128 22 106 0 80 0S32 22 32 48C32 74 54 96 80 96ZM352 96H224C206 96 192 110 192 128V224H167L133 162C122 141 101 128 77 128H48C22 128 0 150 0 176V279C0 298 8 315 22 328L98 393L112 485C113 491 123 516 149 511C167 509 178 492 176 475L161 382C159 367 151 354 140 344L96 306V228L119 271C125 282 135 288 147 288H352C370 288 384 274 384 256V128C384 110 370 96 352 96ZM0 480C0 498 14 512 32 512S64 498 64 480V405C48 392 1 351 0 350V480Z"/></svg>