<svg xmlns="http://www.w3.org/2000/svg" viewBox="0 0 512 512"><!-- Font Awesome Pro 6.0.0-alpha1 by @fontawesome - https://fontawesome.com License - https://fontawesome.com/license (Commercial License) --><path d="M480 224H436L410 171C397 145 375 126 348 120L277 99C249 92 219 98 196 116L157 146C155 147 154 149 153 150C140 62 112 0 80 0C36 0 0 115 0 256S36 512 80 512C105 512 128 474 142 416H206C225 416 242 405 250 387L258 366L248 360C231 350 218 335 210 318L195 352H154C158 320 160 288 160 256C160 236 159 216 158 197C169 205 184 206 196 197L235 167C243 161 253 159 261 160L275 165L238 252C225 282 236 316 264 333L349 383L322 470C316 487 326 505 342 510C359 516 377 506 383 490L414 389C420 368 411 345 393 334L331 298L363 220L383 261C391 278 408 288 426 288H480C498 288 512 274 512 256C512 238 498 224 480 224ZM368 96C394 96 416 74 416 48S394 0 368 0S320 22 320 48S342 96 368 96Z"/></svg>