<svg xmlns="http://www.w3.org/2000/svg" viewBox="0 0 448 512"><!-- Font Awesome Pro 6.0.0-alpha1 by @fontawesome - https://fontawesome.com License - https://fontawesome.com/license (Commercial License) --><path d="M445 487L328 314C325 319 321 323 317 326C312 330 307 332 302 334L419 505C422 510 427 512 432 512C435 512 438 511 441 509C448 504 450 494 445 487ZM144 96C170 96 192 74 192 48S170 0 144 0S96 22 96 48S117 96 144 96ZM96 348L65 472C61 489 71 507 88 511C91 512 93 512 96 512C110 512 123 502 127 488L149 400L96 346V348ZM314 269L237 166C219 142 190 128 160 128H136C99 128 66 148 50 181L3 274C-5 290 2 309 18 317C22 319 27 320 32 320C44 320 55 314 61 302L96 232V288C96 296 99 305 105 311L192 397V480C192 498 206 512 224 512C242 512 256 498 256 480V397C256 380 249 364 237 352L192 307V213L262 307C273 321 293 324 307 314C321 303 324 283 314 269Z"/></svg>