<svg xmlns="http://www.w3.org/2000/svg" viewBox="0 0 512 512"><!-- Font Awesome Pro 6.0.0-alpha1 by @fontawesome - https://fontawesome.com License - https://fontawesome.com/license (Commercial License) --><path d="M493 351L385 305C372 299 357 303 348 314L304 368C235 334 179 277 145 208L198 164C209 155 213 140 207 127L161 19C155 5 140 -3 125 1L24 24C10 27 0 40 0 54C0 307 205 512 457 512C472 512 485 502 488 488L511 387C515 372 507 357 493 351ZM496 72H440V16C440 7 433 0 424 0H408C399 0 392 7 392 16V72H336C327 72 320 79 320 88V104C320 113 327 120 336 120H392V176C392 185 399 192 408 192H424C433 192 440 185 440 176V120H496C505 120 512 113 512 104V88C512 79 505 72 496 72Z"/></svg>