<svg xmlns="http://www.w3.org/2000/svg" viewBox="0 0 640 512"><!-- Font Awesome Pro 6.0.0-alpha1 by @fontawesome - https://fontawesome.com License - https://fontawesome.com/license (Commercial License) --><path d="M631 376C460 205 180 205 9 376C-1 386 -3 402 5 414L57 498C65 510 80 515 94 510L199 468C212 463 219 450 218 437L212 370C282 346 358 346 429 370L422 437C421 450 428 463 441 468L546 510C560 515 575 510 583 498L635 414C643 402 641 386 631 376ZM112 158C125 163 136 158 142 152L172 121L226 175C247 196 274 211 303 215C344 220 382 207 411 179L539 50C546 44 546 34 539 27L517 5C510 -2 500 -2 494 5L365 134C340 158 300 158 275 134L217 76L248 46C256 38 258 26 254 16C250 6 240 0 229 0H116C105 0 96 9 96 20V133C96 144 103 154 112 158Z"/></svg>