<svg xmlns="http://www.w3.org/2000/svg" viewBox="0 0 512 512"><!-- Font Awesome Pro 6.0.0-alpha1 by @fontawesome - https://fontawesome.com License - https://fontawesome.com/license (Commercial License) --><path d="M493 351L385 305A31 31 0 0 0 348 314L304 368A350 350 0 0 1 145 208L198 164A31 31 0 0 0 207 127L161 19A32 32 0 0 0 125 1L24 24A31 31 0 0 0 0 54A458 458 0 0 0 458 512A31 31 0 0 0 488 488L511 387A31 31 0 0 0 493 351ZM480 0H384A32 32 0 0 0 384 64H403L297 169A32 32 0 0 0 343 215L448 109V128A32 32 0 0 0 512 128V32A32 32 0 0 0 480 0Z"/></svg>