<svg xmlns="http://www.w3.org/2000/svg" viewBox="0 0 640 512"><!-- Font Awesome Pro 6.0.0-alpha1 by @fontawesome - https://fontawesome.com License - https://fontawesome.com/license (Commercial License) --><path d="M272 368L228 314C219 303 204 299 191 305L83 351C69 357 61 372 65 387L88 488C91 502 104 512 119 512C226 512 325 475 403 412L314 343C301 352 287 360 272 368ZM631 469L471 344C536 265 576 165 576 54C576 40 566 27 552 24L451 1C436 -3 421 5 415 19L369 128C363 140 367 155 378 164L431 208C419 233 404 256 386 277L39 5C34 2 29 0 24 0C17 0 10 3 5 9C-3 20 -1 35 9 43L601 507C612 515 627 513 635 503C643 492 641 477 631 469Z"/></svg>