<svg xmlns="http://www.w3.org/2000/svg" viewBox="0 0 640 512"><!-- Font Awesome Pro 6.0.0-alpha1 by @fontawesome - https://fontawesome.com License - https://fontawesome.com/license (Commercial License) --><path d="M352 432C352 441 345 448 336 448H176C167 448 160 441 160 432V128H48C22 128 0 150 0 176V464C0 490 22 512 48 512H464C490 512 512 490 512 464V384H352V432ZM104 439C104 444 100 448 95 448H65C60 448 56 444 56 439V409C56 404 60 400 65 400H95C100 400 104 404 104 409V439ZM104 335C104 340 100 344 95 344H65C60 344 56 340 56 335V305C56 300 60 296 65 296H95C100 296 104 300 104 305V335ZM104 231C104 236 100 240 95 240H65C60 240 56 236 56 231V201C56 196 60 192 65 192H95C100 192 104 196 104 201V231ZM408 409C408 404 412 400 417 400H447C452 400 456 404 456 409V439C456 444 452 448 447 448H417C412 448 408 444 408 439V409ZM592 0H240C213 0 192 22 192 48V304C192 330 213 352 240 352H592C618 352 640 330 640 304V48C640 22 618 0 592 0ZM304 64C322 64 336 78 336 96S322 128 304 128C286 128 272 114 272 96S286 64 304 64ZM574 280C571 285 566 288 560 288H272C266 288 260 285 258 279C255 274 256 267 259 263L329 167C332 162 337 160 342 160C347 160 352 162 355 167L377 197L440 103C443 99 448 96 453 96C459 96 464 99 467 103L573 263C577 268 577 274 574 280Z"/></svg>