<svg xmlns="http://www.w3.org/2000/svg" viewBox="0 0 576 512"><!-- Font Awesome Pro 6.0.0-alpha1 by @fontawesome - https://fontawesome.com License - https://fontawesome.com/license (Commercial License) --><path d="M256 96H384C389 96 395 96 400 97C400 97 400 96 400 96C400 43 357 0 304 0S208 43 208 96C208 98 209 100 209 102C224 98 240 96 256 96ZM560 224H531C522 204 509 186 493 171L512 96H480C451 96 425 110 407 130C399 129 392 128 384 128H256C179 128 114 183 99 256H56C41 256 29 242 32 227C35 216 45 208 57 208H58C61 208 64 205 64 202V182C64 179 61 176 58 176C29 176 4 196 0 225C-4 259 23 288 56 288H96C96 340 121 386 160 415V480C160 498 174 512 192 512H224C242 512 256 498 256 480V448H384V480C384 498 398 512 416 512H448C466 512 480 498 480 480V415C492 406 502 396 511 384H560C569 384 576 377 576 368V240C576 231 569 224 560 224ZM432 288C423 288 416 281 416 272S423 256 432 256S448 263 448 272S441 288 432 288Z"/></svg>