<svg xmlns="http://www.w3.org/2000/svg" viewBox="0 0 576 512"><!-- Font Awesome Pro 6.0.0-alpha1 by @fontawesome - https://fontawesome.com License - https://fontawesome.com/license (Commercial License) --><path d="M112 32C50 32 0 82 0 144V368C0 430 50 480 112 480S224 430 224 368V144C224 82 174 32 112 32ZM160 256H64V144C64 118 86 96 112 96S160 118 160 144V256ZM300 226C296 223 290 223 287 227C242 290 247 377 303 433C360 490 447 495 510 449C514 446 514 441 510 437L300 226ZM530 207C473 151 386 146 323 191C319 194 319 200 322 204L533 415C537 418 543 418 545 414C591 351 586 264 530 207Z"/></svg>