<svg xmlns="http://www.w3.org/2000/svg" viewBox="0 0 576 512"><!-- Font Awesome Pro 6.0.0-alpha1 by @fontawesome - https://fontawesome.com License - https://fontawesome.com/license (Commercial License) --><path d="M247 0C252 0 258 4 261 8L366 192H480C515 192 576 221 576 256S515 320 480 320H366L261 504C258 509 252 512 247 512H181C171 512 163 502 166 492L215 320H112L69 378C66 382 61 384 56 384H16C6 384 -2 374 1 364L32 256L0 148C-2 138 6 128 16 128H56C61 128 66 130 69 134L112 192H215L166 20C163 10 171 0 181 0H247L247 0Z"/></svg>