<svg xmlns="http://www.w3.org/2000/svg" viewBox="0 0 576 512"><!-- Font Awesome Pro 6.0.0-alpha1 by @fontawesome - https://fontawesome.com License - https://fontawesome.com/license (Commercial License) --><path d="M576 256C576 291 515 320 480 320H347L338 384H368V368C368 359 375 352 384 352S400 359 400 368V400C409 400 416 407 416 416C416 425 409 432 400 432V464C400 473 393 480 384 480S368 473 368 464V448H329L322 498C321 506 314 512 306 512H270C262 512 255 506 254 498L247 448H224C206 448 192 434 192 416C192 398 206 384 224 384H238L228 315L121 306L111 376C110 381 106 384 102 384H58C54 384 50 381 49 376L37 288H32C14 288 0 274 0 256C0 238 14 224 32 224H37L49 136C50 131 54 128 58 128H102C106 128 110 131 111 136L121 206L228 197L238 128H224C206 128 192 114 192 96C192 78 206 64 224 64H247L254 14C255 6 262 0 270 0H306C314 0 321 6 322 14L329 64H368V48C368 39 375 32 384 32S400 39 400 48V80C409 80 416 87 416 96C416 105 409 112 400 112V144C400 153 393 160 384 160S368 153 368 144V128H338L347 192H480C515 192 576 221 576 256Z"/></svg>