<svg xmlns="http://www.w3.org/2000/svg" viewBox="0 0 512 512"><!-- Font Awesome Pro 6.0.0-alpha1 by @fontawesome - https://fontawesome.com License - https://fontawesome.com/license (Commercial License) --><path d="M512 297V363C512 373 502 381 492 378L320 329V400L378 443C382 446 384 451 384 456V496C384 506 374 514 364 511L256 480L148 511C138 514 128 506 128 496V456C128 451 130 446 134 443L192 400V329L20 378C10 381 0 373 0 363V297C0 292 4 286 8 283L192 178V96C192 61 221 0 256 0S320 61 320 96V178L504 283C509 286 512 292 512 297Z"/></svg>