<svg xmlns="http://www.w3.org/2000/svg" viewBox="0 0 640 512"><!-- Font Awesome Pro 6.0.0-alpha1 by @fontawesome - https://fontawesome.com License - https://fontawesome.com/license (Commercial License) --><path d="M80 341C87 348 96 352 105 352L235 352C246 352 256 349 265 345L556 197C583 183 607 164 623 139C641 110 643 90 636 75C629 61 611 50 578 48C548 46 518 54 492 67L393 117L174 35C169 31 162 31 156 34L91 67C80 73 77 87 85 96L242 194L138 246L66 210C61 207 55 207 50 210L10 230C-1 236 -3 249 4 258L80 341ZM624 448H16C7 448 0 455 0 464V496C0 505 7 512 16 512H624C633 512 640 505 640 496V464C640 455 633 448 624 448Z"/></svg>