<svg xmlns="http://www.w3.org/2000/svg" viewBox="0 0 576 512"><!-- Font Awesome Pro 6.0.0-alpha1 by @fontawesome - https://fontawesome.com License - https://fontawesome.com/license (Commercial License) --><path d="M576 256C576 291 515 320 480 320H366L329 384H336C345 384 352 391 352 400V432C352 441 345 448 336 448H293L261 504C258 509 252 512 247 512H181C171 512 163 502 166 492L215 320H112L69 378C66 382 61 384 56 384H16C6 384 -2 374 1 364L23 286C10 282 0 271 0 256S10 230 23 226L0 148C-2 138 6 128 16 128H56C61 128 66 130 69 134L112 192H215L166 20C163 10 171 0 181 0H247C252 0 258 4 261 8L293 64H336C345 64 352 71 352 80V112C352 121 345 128 336 128H329L366 192H480C515 192 576 221 576 256Z"/></svg>