<svg xmlns="http://www.w3.org/2000/svg" viewBox="0 0 448 512"><!-- Font Awesome Pro 6.0.0-alpha1 by @fontawesome - https://fontawesome.com License - https://fontawesome.com/license (Commercial License) --><path d="M109 512H339C356 512 369 500 371 484L400 224H48L77 484C79 500 92 512 109 512ZM432 144H127C134 113 158 89 190 82C199 91 211 96 224 96H288C314 96 336 74 336 48S314 0 288 0H224C202 0 183 15 178 35C126 47 86 90 79 144H16C7 144 0 151 0 160V176C0 185 7 192 16 192H432C441 192 448 185 448 176V160C448 151 441 144 432 144Z"/></svg>