<svg xmlns="http://www.w3.org/2000/svg" viewBox="0 0 512 512"><!-- Font Awesome Pro 6.0.0-alpha1 by @fontawesome - https://fontawesome.com License - https://fontawesome.com/license (Commercial License) --><path d="M240 288H272C281 288 288 281 288 272V16C288 7 281 0 272 0H240C231 0 224 7 224 16V272C224 281 231 288 240 288ZM402 65C386 54 364 59 355 76L347 90C339 104 343 121 355 130C393 161 416 207 416 256C416 358 320 438 213 410C165 398 125 362 107 316C80 246 104 173 157 131C169 121 173 104 165 90L157 76C148 59 126 54 110 65C38 121 1 215 22 309C45 411 135 488 239 495C379 505 496 394 496 256C496 181 461 110 402 65Z"/></svg>