<svg xmlns="http://www.w3.org/2000/svg" viewBox="0 0 384 512"><!-- Font Awesome Pro 6.0.0-alpha1 by @fontawesome - https://fontawesome.com License - https://fontawesome.com/license (Commercial License) --><path d="M32 448C32 483 61 512 96 512H288C323 512 352 483 352 448V128H32V448ZM96 304C96 295 103 288 112 288H160V240C160 231 167 224 176 224H208C217 224 224 231 224 240V288H272C281 288 288 295 288 304V336C288 345 281 352 272 352H224V400C224 409 217 416 208 416H176C167 416 160 409 160 400V352H112C103 352 96 345 96 336V304ZM360 0H24C11 0 0 11 0 24V72C0 85 11 96 24 96H360C373 96 384 85 384 72V24C384 11 373 0 360 0Z"/></svg>