<svg xmlns="http://www.w3.org/2000/svg" viewBox="0 0 576 512"><!-- Font Awesome Pro 6.0.0-alpha1 by @fontawesome - https://fontawesome.com License - https://fontawesome.com/license (Commercial License) --><path d="M560 0H16C7 0 0 7 0 16V48C0 57 7 64 16 64H32V320C32 338 46 352 64 352H256V387L181 462C174 468 174 479 181 485L203 507C209 514 220 514 226 507L288 445L350 507C356 514 366 514 373 507L395 485C401 479 401 468 395 462L320 387V352H512C530 352 544 338 544 320V64H560C569 64 576 57 576 48V16C576 7 569 0 560 0ZM480 288H96V64H480V288Z"/></svg>