<svg xmlns="http://www.w3.org/2000/svg" viewBox="0 0 640 512"><!-- Font Awesome Pro 6.0.0-alpha1 by @fontawesome - https://fontawesome.com License - https://fontawesome.com/license (Commercial License) --><path d="M448 448H192V352H326L122 193C90 195 64 223 64 256V352C64 370 78 384 96 384H128V480C128 498 142 512 160 512H480C492 512 503 505 508 495L448 448V448ZM631 469L522 384H544C562 384 576 370 576 352V256C576 221 547 192 512 192H277L192 125V64H422L448 90V160H512V77C512 69 509 61 503 55L457 9C451 3 443 0 435 0H160C142 0 128 14 128 32V75L39 5C34 2 29 0 24 0C17 0 10 3 5 9C-3 20 -1 35 9 43L601 507C612 515 627 513 635 503C643 492 641 477 631 469ZM496 296C483 296 472 285 472 272C472 259 483 248 496 248S520 259 520 272C520 285 509 296 496 296Z"/></svg>