<svg xmlns="http://www.w3.org/2000/svg" viewBox="0 0 640 512"><!-- Font Awesome Pro 6.0.0-alpha1 by @fontawesome - https://fontawesome.com License - https://fontawesome.com/license (Commercial License) --><path d="M416 128C429 128 440 117 440 104V24C440 11 429 0 416 0S392 11 392 24V104C392 117 403 128 416 128ZM512 136C518 136 524 134 529 129L585 73C594 64 594 48 585 39S560 30 551 39L495 95C486 104 486 120 495 129C500 134 506 136 512 136ZM303 129C308 134 314 136 320 136S332 134 337 129C346 120 346 104 337 95L281 39C272 30 256 30 247 39S238 64 247 73L303 129ZM592 192H511C484 172 452 160 416 160S348 172 321 192H48C22 192 0 214 0 240V400C0 426 22 448 48 448H64L77 500C79 507 85 512 93 512H132C139 512 145 507 147 500L160 448H321C348 468 380 480 416 480C440 480 463 474 484 464L493 500C495 507 501 512 509 512H548C555 512 561 507 563 500L576 448H592C618 448 640 426 640 400V240C640 214 618 192 592 192ZM96 352C78 352 64 338 64 320S78 288 96 288S128 302 128 320S114 352 96 352ZM192 352C174 352 160 338 160 320S174 288 192 288S224 302 224 320S210 352 192 352ZM416 416C363 416 320 373 320 320S363 224 416 224S512 267 512 320S469 416 416 416Z"/></svg>