<svg xmlns="http://www.w3.org/2000/svg" viewBox="0 0 576 512"><!-- Font Awesome Pro 6.0.0-alpha1 by @fontawesome - https://fontawesome.com License - https://fontawesome.com/license (Commercial License) --><path d="M352 107V36C352 30 349 24 343 22L304 2C295 -2 285 1 282 10L246 100C259 98 273 96 288 96C312 96 333 100 352 107ZM495 153C468 130 430 123 396 132C402 138 408 143 413 150C416 154 419 159 421 164C389 140 346 128 288 128S187 140 155 164C158 159 160 154 163 150C168 143 174 138 180 132C146 123 108 130 81 153C-27 245 -27 395 81 487C119 520 182 520 221 488C239 503 261 512 288 512S337 503 355 488C395 520 457 520 495 487C603 395 603 245 495 153Z"/></svg>