<svg xmlns="http://www.w3.org/2000/svg" viewBox="0 0 384 512"><!-- Font Awesome Pro 6.0.0-alpha1 by @fontawesome - https://fontawesome.com License - https://fontawesome.com/license (Commercial License) --><path d="M379 94L336 51C324 39 308 32 291 32H224C224 14 210 0 192 0H128C110 0 96 14 96 32V128H224V96H291L334 139C340 146 350 146 357 139L379 117C386 110 386 100 379 94ZM236 160H84C51 160 24 185 21 218L0 442C-3 480 26 512 64 512H256C294 512 323 480 320 442L299 218C296 185 269 160 236 160ZM240 333C240 341 234 347 227 347H187V387C187 394 181 400 173 400H147C139 400 133 394 133 387V347H93C86 347 80 341 80 333V307C80 299 86 293 93 293H133V253C133 246 139 240 147 240H173C181 240 187 246 187 253V293H227C234 293 240 299 240 307V333Z"/></svg>