<svg xmlns="http://www.w3.org/2000/svg" viewBox="0 0 640 512"><!-- Font Awesome Pro 6.0.0-alpha1 by @fontawesome - https://fontawesome.com License - https://fontawesome.com/license (Commercial License) --><path d="M640 256C640 291 618 320 592 320C578 320 566 312 557 299C552 293 545 288 536 288C523 288 512 299 512 312V416C512 434 498 448 480 448H376C363 448 352 437 352 424C352 415 357 408 363 403C376 394 384 382 384 368C384 342 355 320 320 320S256 342 256 368C256 382 264 394 277 403C283 408 288 415 288 424C288 437 277 448 264 448H160C142 448 128 434 128 416V312C128 299 117 288 104 288C95 288 88 293 83 299C74 312 62 320 48 320C22 320 0 291 0 256S22 192 48 192C62 192 74 200 83 213C88 219 95 224 104 224C117 224 128 213 128 200V96C128 78 142 64 160 64H264C277 64 288 75 288 88C288 97 283 104 277 109C264 118 256 130 256 144C256 170 285 192 320 192S384 170 384 144C384 130 376 118 363 109C357 104 352 97 352 88C352 75 363 64 376 64H480C498 64 512 78 512 96V200C512 213 523 224 536 224C545 224 552 219 557 213C566 200 578 192 592 192C618 192 640 221 640 256Z"/></svg>