<svg xmlns="http://www.w3.org/2000/svg" viewBox="0 0 512 512"><!-- Font Awesome Pro 6.0.0-alpha1 by @fontawesome - https://fontawesome.com License - https://fontawesome.com/license (Commercial License) --><path d="M512 288C512 323 490 352 464 352C450 352 438 344 429 331C424 325 417 320 408 320C395 320 384 331 384 344V480C384 498 370 512 352 512H280C267 512 256 501 256 488C256 479 261 472 267 467C280 458 288 446 288 432C288 406 259 384 224 384S160 406 160 432C160 446 168 458 181 467C187 472 192 479 192 488C192 501 181 512 168 512H32C14 512 0 498 0 480V344C0 331 11 320 24 320C33 320 40 325 45 331C54 344 66 352 80 352C106 352 128 323 128 288S106 224 80 224C66 224 54 232 45 245C40 251 33 256 24 256C11 256 0 245 0 232V160C0 142 14 128 32 128H168C181 128 192 117 192 104C192 95 187 88 181 83C168 74 160 62 160 48C160 22 189 0 224 0S288 22 288 48C288 62 280 74 267 83C261 88 256 95 256 104C256 117 267 128 280 128H352C370 128 384 142 384 160V232C384 245 395 256 408 256C417 256 424 251 429 245C438 232 450 224 464 224C490 224 512 253 512 288Z"/></svg>