<svg xmlns="http://www.w3.org/2000/svg" viewBox="0 0 320 512"><!-- Font Awesome Pro 6.0.0-alpha1 by @fontawesome - https://fontawesome.com License - https://fontawesome.com/license (Commercial License) --><path d="M144 376C113 376 88 401 88 432S113 488 144 488S200 463 200 432S175 376 144 376ZM201 32H112C50 32 0 82 0 144C0 171 22 192 48 192S96 171 96 144C96 135 103 128 112 128H201C214 128 224 138 224 151C224 159 220 166 212 170L120 222C105 231 96 247 96 264V288C96 315 118 336 144 336C169 336 190 317 192 292L259 254C297 233 320 193 320 151C320 85 267 32 201 32Z"/></svg>