<svg xmlns="http://www.w3.org/2000/svg" viewBox="0 0 640 512"><!-- Font Awesome Pro 6.0.0-alpha1 by @fontawesome - https://fontawesome.com License - https://fontawesome.com/license (Commercial License) --><path d="M93 258C71 275 53 314 39 355L99 333C105 331 110 338 106 343L11 455C4 487 0 510 0 510S207 524 267 476C327 428 343 326 343 326L257 217C257 217 153 210 93 258ZM637 31L617 6C611 -1 601 -2 594 3L362 181L328 138C323 132 313 133 309 140L284 195L370 304L429 292C437 290 441 281 436 274L402 231L634 54C641 48 642 38 637 31ZM496 352C452 352 416 388 416 432S452 512 496 512C540 512 576 476 576 432S540 352 496 352Z"/></svg>