<svg xmlns="http://www.w3.org/2000/svg" viewBox="0 0 512 512"><!-- Font Awesome Pro 6.0.0-alpha1 by @fontawesome - https://fontawesome.com License - https://fontawesome.com/license (Commercial License) --><path d="M464 32H336C310 32 288 54 288 80V208C288 234 310 256 336 256H416V320C416 355 387 384 352 384H344C331 384 320 395 320 408V456C320 469 331 480 344 480H352C440 480 512 408 512 320V80C512 54 490 32 464 32ZM176 32H48C22 32 0 54 0 80V208C0 234 22 256 48 256H128V320C128 355 99 384 64 384H56C43 384 32 395 32 408V456C32 469 43 480 56 480H64C152 480 224 408 224 320V80C224 54 202 32 176 32Z"/></svg>