<svg xmlns="http://www.w3.org/2000/svg" viewBox="0 0 640 512"><!-- Font Awesome Pro 6.0.0-alpha1 by @fontawesome - https://fontawesome.com License - https://fontawesome.com/license (Commercial License) --><path d="M167 413C163 416 160 421 160 426V464C160 477 174 484 184 478L251 438L203 390L167 413ZM584 217L528 183C528 169 526 152 521 134C509 92 489 61 475 64C461 68 458 105 470 148C470 150 471 152 472 155C467 149 462 143 456 136C425 106 391 89 381 99C371 109 387 143 418 174C431 186 444 197 456 204C453 209 450 216 449 223C448 226 448 229 448 232C396 195 294 128 224 128C172 128 139 156 119 182C117 179 116 176 114 174C95 155 65 155 46 174C27 193 27 223 46 242C62 258 87 260 106 247L297 439C303 445 311 448 320 448H464C473 448 480 441 480 432V416C480 398 466 384 448 384H352V328C352 293 328 261 294 252L252 239C243 237 238 228 241 220C243 211 252 206 260 209L303 221C351 234 384 279 384 328V352L448 320H551C583 320 608 295 608 263C608 245 599 228 584 217ZM528 256C519 256 512 249 512 240C512 231 519 224 528 224S544 231 544 240C544 249 537 256 528 256Z"/></svg>