<svg xmlns="http://www.w3.org/2000/svg" viewBox="0 0 640 512"><!-- Font Awesome Pro 6.0.0-alpha1 by @fontawesome - https://fontawesome.com License - https://fontawesome.com/license (Commercial License) --><path d="M12 420C-1 430 -4 447 5 460L34 500C43 513 61 516 73 507L185 431L122 343L12 420ZM616 60C560 -18 433 -19 332 52C275 93 238 149 225 203C214 253 190 298 158 336L203 400C291 367 348 382 375 382C425 382 480 365 529 330C631 257 670 137 616 60ZM570 177C546 251 459 318 375 318C304 318 270 271 291 205C307 154 380 64 486 64C557 64 591 111 570 177Z"/></svg>