<svg xmlns="http://www.w3.org/2000/svg" viewBox="0 0 512 512"><!-- Font Awesome Pro 6.0.0-alpha1 by @fontawesome - https://fontawesome.com License - https://fontawesome.com/license (Commercial License) --><path d="M504 256C504 393 393 504 256 504S8 393 8 256S119 8 256 8C306 8 354 23 395 51L425 21C432 14 442 14 448 21L459 32C466 38 466 48 459 55L258 256H320C320 291 292 320 257 320C222 321 193 293 192 258C191 223 219 193 254 192L282 164C274 162 265 160 256 160C203 160 160 203 160 256S203 352 256 352S352 309 352 256H416C416 335 358 401 281 413C275 406 267 400 256 400S237 406 231 413C163 402 110 349 99 281C106 275 112 267 112 256S106 237 99 231C111 154 177 96 256 96C283 96 308 103 330 115L354 91C325 74 291 64 256 64C160 64 80 135 66 227C55 233 48 244 48 256S55 279 66 285C79 368 144 433 227 446C233 457 244 464 256 464S279 457 285 446C377 432 448 352 448 256H504Z"/></svg>