<svg xmlns="http://www.w3.org/2000/svg" viewBox="0 0 512 512"><!-- Font Awesome Pro 6.0.0-alpha1 by @fontawesome - https://fontawesome.com License - https://fontawesome.com/license (Commercial License) --><path d="M448 128H218L495 47C507 43 515 30 511 17C507 5 494 -3 481 1L52 127C23 135 2 162 0 192L0 192V448C0 483 29 512 64 512H448C483 512 512 483 512 448V192C512 157 483 128 448 128ZM80 248C80 244 84 240 88 240H200C204 240 208 244 208 248V264C208 268 204 272 200 272H88C84 272 80 268 80 264V248ZM208 392C208 396 204 400 200 400H88C84 400 80 396 80 392V376C80 372 84 368 88 368H200C204 368 208 372 208 376V392ZM224 328C224 332 220 336 216 336H72C68 336 64 332 64 328V312C64 308 68 304 72 304H216C220 304 224 308 224 312V328ZM368 400C324 400 288 364 288 320S324 240 368 240S448 276 448 320S412 400 368 400Z"/></svg>