<svg xmlns="http://www.w3.org/2000/svg" viewBox="0 0 640 512"><!-- Font Awesome Pro 6.0.0-alpha1 by @fontawesome - https://fontawesome.com License - https://fontawesome.com/license (Commercial License) --><path d="M312 32C138 36 0 183 0 358V464C0 473 7 480 16 480H48C57 480 64 473 64 464V357C64 214 181 94 324 96C464 98 576 212 576 352V464C576 473 583 480 592 480H624C633 480 640 473 640 464V352C640 173 492 28 312 32ZM314 224C245 228 192 287 192 356V464C192 473 199 480 208 480H240C249 480 256 473 256 464V354C256 320 282 290 316 288C353 286 384 315 384 352V464C384 473 391 480 400 480H432C441 480 448 473 448 464V352C448 279 387 221 314 224ZM313 128C191 132 96 235 96 357V464C96 473 103 480 112 480H144C153 480 160 473 160 464V356C160 269 227 195 314 192C405 189 480 262 480 352V464C480 473 487 480 496 480H528C537 480 544 473 544 464V352C544 226 440 124 313 128Z"/></svg>