<svg xmlns="http://www.w3.org/2000/svg" viewBox="0 0 640 512"><!-- Font Awesome Pro 6.0.0-alpha1 by @fontawesome - https://fontawesome.com License - https://fontawesome.com/license (Commercial License) --><path d="M624 101L571 48C561 38 548 32 533 32H457C436 12 407 0 376 0C324 0 279 34 263 81C247 83 232 92 222 104C213 99 203 96 192 96C172 96 154 105 142 120C133 115 123 112 112 112C77 112 48 141 48 176C48 182 49 188 51 193C22 200 0 225 0 256S22 312 51 319C49 324 48 330 48 336C48 371 77 400 112 400C113 400 114 400 115 400L154 497C158 506 166 512 176 512H200C213 512 224 501 224 488V410C236 423 253 432 272 432S308 423 320 410V488C320 501 331 512 344 512H368C378 512 386 506 390 497L429 400C430 400 431 400 432 400C467 400 496 371 496 336C496 330 495 324 493 319C522 312 544 287 544 256C544 226 523 200 494 194C494 193 494 193 494 192H587C607 192 625 181 634 162C645 142 641 117 624 101ZM426 96C417 77 397 63 374 64C345 65 321 90 320 119C319 150 345 176 376 176H392C401 176 408 183 408 192V192C408 201 401 208 392 208H379C333 208 293 174 288 128C283 76 325 32 376 32C416 32 450 59 460 96H426ZM512 112C503 112 496 105 496 96S503 80 512 80S528 87 528 96S521 112 512 112Z"/></svg>