<svg xmlns="http://www.w3.org/2000/svg" viewBox="0 0 512 512"><!-- Font Awesome Pro 6.0.0-alpha1 by @fontawesome - https://fontawesome.com License - https://fontawesome.com/license (Commercial License) --><path d="M448 32H64C29 32 0 61 0 96V416C0 451 29 480 64 480H448C483 480 512 451 512 416V96C512 61 483 32 448 32ZM341 307C350 316 350 332 341 341C332 350 316 350 307 341L256 290L205 341C196 350 180 350 171 341C162 332 162 316 171 307L222 256L171 205C162 196 162 180 171 171C180 162 196 162 205 171L256 222L307 171C316 162 332 162 341 171C350 180 350 196 341 205L290 256L341 307Z"/></svg>