<svg xmlns="http://www.w3.org/2000/svg" viewBox="0 0 576 512"><!-- Font Awesome Pro 6.0.0-alpha1 by @fontawesome - https://fontawesome.com License - https://fontawesome.com/license (Commercial License) --><path d="M171 280H213L192 238ZM512 32H64A64 64 0 0 0 0 96V416A64 64 0 0 0 64 480H512A64 64 0 0 0 576 416V96A64 64 0 0 0 512 32ZM275 349A24 24 0 0 1 264 352A24 24 0 0 1 243 339L233 320H151L141 339A24 24 0 0 1 99 317L171 173A25 25 0 0 1 213 173L285 317A24 24 0 0 1 275 349ZM384 352H328A24 24 0 0 1 304 328V184A24 24 0 0 1 328 160H384A96 96 0 0 1 384 352ZM384 208H352V304H384A48 48 0 0 0 384 208Z"/></svg>