<svg xmlns="http://www.w3.org/2000/svg" viewBox="0 0 512 512"><!-- Font Awesome Pro 6.0.0-alpha1 by @fontawesome - https://fontawesome.com License - https://fontawesome.com/license (Commercial License) --><path d="M180 243C185 264 162 280 144 269L120 254L69 335C56 356 71 384 96 384H148C155 384 160 389 160 396V436C160 443 155 448 148 448H96C21 448 -25 365 15 301L66 220L41 204C23 193 28 166 48 161L140 140C149 138 157 143 159 152L180 243ZM283 79L324 145L300 160C282 171 287 199 307 204L399 225C407 227 416 222 418 213L439 122C444 101 421 85 403 96L379 111L337 45C300 -15 212 -15 175 45L157 74C153 79 155 87 160 90L194 112C200 115 207 113 211 108L229 79C242 59 271 59 283 79ZM497 301L470 257C466 251 459 250 453 253L419 274C414 278 412 285 416 291L443 335C456 356 441 384 416 384H320V355C320 334 294 323 279 338L213 405C206 411 206 421 213 427L279 494C294 509 320 498 320 477V448H416C491 448 537 365 497 301Z"/></svg>