<svg xmlns="http://www.w3.org/2000/svg" viewBox="0 0 576 512"><!-- Font Awesome Pro 6.0.0-alpha1 by @fontawesome - https://fontawesome.com License - https://fontawesome.com/license (Commercial License) --><path d="M135 226L311 378C327 391 351 381 351 360V276C460 289 502 335 464 458C459 474 478 486 492 476C535 445 575 384 575 322C575 191 480 149 351 139V56C351 35 327 25 311 38L135 190C124 199 124 217 135 226ZM7 226L183 378C199 391 223 381 223 360V344L65 208L223 72V56C223 35 199 25 183 38L7 190C-4 199 -4 217 7 226Z"/></svg>