<svg xmlns="http://www.w3.org/2000/svg" viewBox="0 0 640 512"><!-- Font Awesome Pro 6.0.0-alpha1 by @fontawesome - https://fontawesome.com License - https://fontawesome.com/license (Commercial License) --><path d="M496 320C409 320 337 257 323 175C292 170 259 168 224 168V88C224 67 200 57 184 70L8 222C-3 231 -3 249 8 258L184 410C200 423 224 413 224 392V304C379 306 446 345 401 490C396 506 415 518 429 508C472 477 512 416 512 354C512 342 511 330 509 319C505 320 500 320 496 320ZM496 0C416 0 352 64 352 144S416 288 496 288S640 224 640 144S576 0 496 0ZM544 160H490C484 160 480 156 480 150V80C480 71 487 64 496 64C505 64 512 71 512 80V128H544C553 128 560 135 560 144C560 153 553 160 544 160Z"/></svg>