<svg xmlns="http://www.w3.org/2000/svg" viewBox="0 0 448 512"><!-- Font Awesome Pro 6.0.0-alpha1 by @fontawesome - https://fontawesome.com License - https://fontawesome.com/license (Commercial License) --><path d="M6 444C-4 455 -1 472 11 480L79 508C89 515 103 513 111 504L202 402L123 314L6 444ZM442 444C442 444 150 120 146 114C162 106 187 96 224 96S286 106 301 114C298 120 245 179 245 179L325 267L359 229C387 197 392 150 370 113L326 40C322 32 317 26 310 22C269 -6 182 -8 138 22C131 26 126 32 121 40L78 113C76 115 41 175 89 229L337 504C345 513 359 514 369 508L438 480C449 472 452 455 442 444Z"/></svg>