<svg xmlns="http://www.w3.org/2000/svg" viewBox="0 0 512 512"><!-- Font Awesome Pro 6.0.0-alpha1 by @fontawesome - https://fontawesome.com License - https://fontawesome.com/license (Commercial License) --><path d="M256 64C110 64 0 126 0 208V306C0 385 115 448 256 448S512 385 512 306V208C512 126 402 64 256 64ZM256 288C203 288 155 279 120 265C155 250 202 240 256 240S357 250 392 265C357 279 309 288 256 288ZM437 234C392 208 328 192 256 192S120 208 75 234C68 226 64 217 64 208C64 164 150 128 256 128C362 128 448 164 448 208C448 217 444 226 437 234Z"/></svg>