<svg xmlns="http://www.w3.org/2000/svg" viewBox="0 0 512 512"><!-- Font Awesome Pro 6.0.0-alpha1 by @fontawesome - https://fontawesome.com License - https://fontawesome.com/license (Commercial License) --><path d="M351 161C365 183 375 207 380 233C432 255 459 312 444 366C429 420 377 454 321 447C265 439 224 392 224 336C224 294 248 257 282 238C286 249 288 260 288 272C288 300 277 328 257 349C261 371 274 391 293 403C330 370 352 322 352 272C352 190 296 122 221 102L256 32L224 0H128L96 32L131 102C56 122 0 190 0 272C0 369 79 448 176 448C184 448 191 447 199 446C246 504 324 527 394 502C465 477 512 411 512 336C512 244 441 168 351 161ZM64 272C64 210 114 160 176 160C203 160 227 170 246 186C195 216 160 272 160 336C160 352 162 368 166 383C109 378 64 330 64 272Z"/></svg>