<svg xmlns="http://www.w3.org/2000/svg" viewBox="0 0 640 512"><!-- Font Awesome Pro 6.0.0-alpha1 by @fontawesome - https://fontawesome.com License - https://fontawesome.com/license (Commercial License) --><path d="M9 233C3 239 0 247 0 256V384C0 393 3 401 9 407S23 416 32 416H64V224H32C23 224 15 227 9 233ZM464 96H352V32C352 14 338 0 320 0S288 14 288 32V96H176C132 96 96 132 96 176V448C96 483 125 512 160 512H480C515 512 544 483 544 448V176C544 132 508 96 464 96ZM256 416H192V384H256V416ZM224 296C202 296 184 278 184 256S202 216 224 216S264 234 264 256S246 296 224 296ZM352 416H288V384H352V416ZM448 416H384V384H448V416ZM416 296C394 296 376 278 376 256S394 216 416 216S456 234 456 256S438 296 416 296ZM631 233C625 227 617 224 608 224H576V416H608C617 416 625 413 631 407S640 393 640 384V256C640 247 637 239 631 233Z"/></svg>