<svg xmlns="http://www.w3.org/2000/svg" viewBox="0 0 512 512"><!-- Font Awesome Pro 6.0.0-alpha1 by @fontawesome - https://fontawesome.com License - https://fontawesome.com/license (Commercial License) --><path d="M505 19C504 14 498 8 493 7C461 0 435 0 410 0C307 0 245 55 199 128H95C78 128 59 140 52 154L2 253C1 257 0 260 0 264C0 277 11 288 24 288H128L105 310C94 322 92 343 105 356L156 407C167 418 188 420 202 407L224 384V488C224 501 235 512 248 512C252 512 255 511 259 510L358 460C372 453 384 434 384 417V313C457 266 512 204 512 102C512 77 512 51 505 19ZM384 168C362 168 344 150 344 128S362 88 384 88C406 88 424 106 424 128S406 168 384 168Z"/></svg>