<svg xmlns="http://www.w3.org/2000/svg" viewBox="0 0 448 512"><!-- Font Awesome Pro 6.0.0-alpha1 by @fontawesome - https://fontawesome.com License - https://fontawesome.com/license (Commercial License) --><path d="M428 269C398 224 417 165 441 114C445 106 445 96 440 89L398 30C393 23 383 17 371 22C356 28 338 31 321 31C291 31 261 22 238 5C234 2 229 0 224 0S215 2 211 5C187 22 157 31 127 31C110 31 93 28 77 22C65 17 55 23 50 30L9 89C3 96 3 106 7 114C31 165 50 224 20 269C-18 326 1 409 58 435L224 512L390 435C447 409 466 326 428 269ZM363 377L224 442L85 377C66 368 56 330 73 305C98 268 102 228 98 192H350C346 228 351 268 375 305C393 330 382 368 363 377Z"/></svg>