<svg xmlns="http://www.w3.org/2000/svg" viewBox="0 0 512 512"><!-- Font Awesome Pro 6.0.0-alpha1 by @fontawesome - https://fontawesome.com License - https://fontawesome.com/license (Commercial License) --><path d="M416 320H320C302 320 288 306 288 288S302 256 320 256H416C416 256 512 149 512 96S469 0 416 0S320 43 320 96C320 122 342 159 365 192H320C267 192 224 235 224 288S267 384 320 384H416C434 384 448 398 448 416S434 448 416 448H186C170 473 152 496 138 512H416C469 512 512 469 512 416S469 320 416 320ZM416 64C434 64 448 78 448 96S434 128 416 128S384 114 384 96S398 64 416 64ZM96 256C43 256 0 299 0 352S96 512 96 512S192 405 192 352S149 256 96 256ZM96 384C78 384 64 370 64 352S78 320 96 320S128 334 128 352S114 384 96 384Z"/></svg>