<svg xmlns="http://www.w3.org/2000/svg" viewBox="0 0 256 512"><!-- Font Awesome Pro 6.0.0-alpha1 by @fontawesome - https://fontawesome.com License - https://fontawesome.com/license (Commercial License) --><path d="M160 112C160 121 167 128 176 128H256V192H176C167 192 160 199 160 208S167 224 176 224H256V288H176C167 288 160 295 160 304S167 320 176 320H256V384H176C167 384 160 391 160 400S167 416 176 416H256V480C256 498 242 512 224 512H32C14 512 0 498 0 480V32C0 14 14 0 32 0H224C242 0 256 14 256 32V96H176C167 96 160 103 160 112Z"/></svg>