<svg xmlns="http://www.w3.org/2000/svg" viewBox="0 0 512 512"><!-- Font Awesome Pro 6.0.0-alpha1 by @fontawesome - https://fontawesome.com License - https://fontawesome.com/license (Commercial License) --><path d="M503 158L168 493C155 506 135 506 122 493L9 380C-3 368 -3 347 9 335L64 281L120 337C126 343 137 343 143 337S149 321 143 315L86 258L132 213L188 269C194 276 205 276 211 269S217 253 211 247L154 190L199 145L256 201C262 208 272 208 279 201C285 195 285 185 279 179L222 122L267 77L324 134C330 140 340 140 347 134S353 117 347 111L290 54L344 0C357 -12 377 -12 390 0L503 113C515 126 515 146 503 158Z"/></svg>