<svg xmlns="http://www.w3.org/2000/svg" viewBox="0 0 448 512"><!-- Font Awesome Pro 6.0.0-alpha1 by @fontawesome - https://fontawesome.com License - https://fontawesome.com/license (Commercial License) --><path d="M181 302C225 277 256 230 256 176C256 74 162 32 106 32H48C22 32 0 54 0 80V456C0 469 11 480 24 480H56C69 480 80 469 80 456V320H103L144 463C147 473 156 480 167 480H200C216 480 227 465 223 449L181 302ZM112 240H80V112H112C147 112 176 141 176 176S147 240 112 240ZM352 288C343 288 336 281 336 272S343 256 352 256H408C421 256 432 245 432 232V200C432 187 421 176 408 176H356C309 176 267 207 258 253C246 314 293 368 352 368C361 368 368 375 368 384S361 400 352 400H280C267 400 256 411 256 424V456C256 469 267 480 280 480H348C395 480 437 449 446 403C458 342 411 288 352 288Z"/></svg>