<svg xmlns="http://www.w3.org/2000/svg" viewBox="0 0 512 512"><!-- Font Awesome Pro 6.0.0-alpha1 by @fontawesome - https://fontawesome.com License - https://fontawesome.com/license (Commercial License) --><path d="M256 176C256 74 162 32 106 32H48C22 32 0 54 0 80V456C0 469 11 480 24 480H56C69 480 80 469 80 456V320H103L144 463C147 473 156 480 167 480H200C216 480 227 465 223 449L181 302C225 277 256 230 256 176ZM112 240H80V112H112C147 112 176 141 176 176S147 240 112 240ZM392 160H312C290 160 272 178 272 200V488C272 501 283 512 296 512H328C341 512 352 501 352 488V400H389C446 400 498 361 509 305C525 228 466 160 392 160ZM392 320H352V240H392C414 240 432 258 432 280S414 320 392 320Z"/></svg>