<svg xmlns="http://www.w3.org/2000/svg" viewBox="0 0 512 512"><!-- Font Awesome Pro 6.0.0-alpha1 by @fontawesome - https://fontawesome.com License - https://fontawesome.com/license (Commercial License) --><path d="M192 96H320L367 25C371 20 371 14 368 8C365 3 360 0 354 0H158C152 0 147 3 144 9C141 14 141 20 145 25L192 96ZM320 128H192C-10 243 0 397 0 416C0 469 49 512 110 512H402C463 512 512 469 512 416C512 397 521 243 320 128ZM327 368C323 392 305 408 280 414V424C280 437 269 448 256 448S232 437 232 424V413C223 410 213 407 205 404L200 403C187 398 181 384 185 372S203 353 216 357L221 359C230 362 240 366 247 367C264 370 279 366 280 360C281 355 281 352 249 343L243 341C225 336 176 322 185 272C189 248 207 232 232 227V216C232 203 243 192 256 192S280 203 280 216V227C286 229 292 230 300 233C312 237 319 251 315 264C310 276 297 283 284 278C276 275 270 274 265 273C248 270 233 274 232 280C232 284 231 288 256 295L263 297C288 304 336 318 327 368Z"/></svg>