<svg xmlns="http://www.w3.org/2000/svg" viewBox="0 0 576 512"><!-- Font Awesome Pro 6.0.0-alpha1 by @fontawesome - https://fontawesome.com License - https://fontawesome.com/license (Commercial License) --><path d="M495 114C522 83 516 36 483 12C454 -9 413 -1 389 26L188 262C179 272 186 288 200 288H332C341 288 350 284 356 277L495 114ZM240 430C272 405 288 366 288 328V320H180L0 512C89 512 174 483 240 431C240 431 240 430 240 430ZM304 480H240C231 480 224 487 224 496S231 512 240 512H304C313 512 320 505 320 496S313 480 304 480ZM432 480H368C359 480 352 487 352 496S359 512 368 512H432C441 512 448 505 448 496S441 480 432 480ZM560 480H496C487 480 480 487 480 496S487 512 496 512H560C569 512 576 505 576 496S569 480 560 480Z"/></svg>