<svg xmlns="http://www.w3.org/2000/svg" viewBox="0 0 640 512"><!-- Font Awesome Pro 6.0.0-alpha1 by @fontawesome - https://fontawesome.com License - https://fontawesome.com/license (Commercial License) --><path d="M85 250C-2 425 0 416 0 432C0 476 57 512 128 512S256 476 256 432C256 416 257 423 171 250C153 215 103 215 85 250ZM56 416L128 272L200 416H56ZM555 123C537 87 487 87 469 123C382 297 384 288 384 304C384 348 441 384 512 384S640 348 640 304C640 288 641 295 555 123ZM440 288L512 144L584 288H440ZM496 448H352V153C373 144 389 126 396 104L522 62C539 57 548 39 542 22C537 5 519 -4 502 2L389 39C375 16 349 0 320 0C276 0 240 36 240 80C240 83 241 86 241 89L118 130C101 135 92 153 98 170C102 184 115 192 128 192C131 192 135 191 138 190L274 145C278 148 283 151 288 153V496C288 505 295 512 304 512H528C537 512 544 505 544 496C544 470 522 448 496 448Z"/></svg>