<svg xmlns="http://www.w3.org/2000/svg" viewBox="0 0 448 512"><!-- Font Awesome Pro 6.0.0-alpha1 by @fontawesome - https://fontawesome.com License - https://fontawesome.com/license (Commercial License) --><path d="M224 448C216 448 209 446 202 443L192 437V496C192 505 199 512 208 512H240C249 512 256 505 256 496V437L246 442C239 446 232 448 224 448ZM446 186L419 160L438 142C443 137 439 128 432 128H314C318 118 320 107 320 96C320 43 277 0 224 0S128 43 128 96C128 107 130 118 134 128H16C9 128 5 137 10 142L29 160L2 186C-1 189 -1 194 2 198L29 224L10 242C5 247 9 256 16 256H122L96 397C94 410 107 420 119 414L152 390C157 386 163 386 169 389L217 414C221 417 227 417 231 414L279 389C285 386 291 386 296 390L329 414C341 420 354 410 352 397L326 256H432C439 256 443 247 438 242L419 224L446 198C449 194 449 190 446 186ZM192 96C183 96 176 89 176 80S183 64 192 64C201 64 208 71 208 80S201 96 192 96ZM256 112C247 112 240 105 240 96S247 80 256 80S272 87 272 96S265 112 256 112Z"/></svg>