<svg xmlns="http://www.w3.org/2000/svg" viewBox="0 0 512 512"><!-- Font Awesome Pro 6.0.0-alpha1 by @fontawesome - https://fontawesome.com License - https://fontawesome.com/license (Commercial License) --><path d="M332 225C360 225 387 236 407 256L426 276C466 258 497 222 508 179C514 155 513 132 508 110C505 100 492 96 484 104L415 173H339V97L408 28C416 20 412 7 402 4C380 -1 357 -2 333 4C278 17 235 64 226 121C225 129 224 137 224 145L307 228C315 226 323 225 332 225ZM384 279C361 255 326 251 299 265L192 158V96L64 0L0 64L96 192H158L265 299C251 326 255 361 279 384L396 501C410 516 434 516 448 501L501 448C516 434 516 410 501 396L384 279ZM228 307L169 248L20 397C-7 423 -7 466 20 492C33 505 50 512 67 512S102 505 115 492L234 373C225 352 223 329 228 307ZM64 472C51 472 40 461 40 448C40 435 51 424 64 424S88 435 88 448C88 461 77 472 64 472Z"/></svg>