<svg xmlns="http://www.w3.org/2000/svg" viewBox="0 0 576 512"><!-- Font Awesome Pro 6.0.0-alpha1 by @fontawesome - https://fontawesome.com License - https://fontawesome.com/license (Commercial License) --><path d="M48 32C22 32 0 54 0 80V144C0 153 7 160 16 160H96V80C96 54 74 32 48 32ZM256 381V320H480V128C480 75 437 32 384 32H112C122 45 128 62 128 80V384C128 423 163 454 203 447C234 442 256 413 256 381ZM288 352V384C288 437 245 480 192 480H464C526 480 576 430 576 368C576 359 569 352 560 352H288Z"/></svg>