<svg xmlns="http://www.w3.org/2000/svg" viewBox="0 0 576 512"><!-- Font Awesome Pro 6.0.0-alpha1 by @fontawesome - https://fontawesome.com License - https://fontawesome.com/license (Commercial License) --><path d="M560 352H416L384 384L352 352H288V384C288 437 245 480 192 480H464C526 480 576 430 576 369C576 360 569 352 560 352ZM48 32C22 32 0 54 0 80V144C0 153 7 160 16 160H96V80C96 54 74 32 48 32ZM256 381V320H480V288L476 284C476 284 475 284 475 283L448 256L480 224V192L448 160L480 128C480 128 480 125 480 121C476 71 434 32 384 32H112C122 45 128 62 128 80V192L132 196C132 196 133 196 133 197L160 224L128 256V384C128 423 163 454 203 447C234 442 256 413 256 381Z"/></svg>