<svg xmlns="http://www.w3.org/2000/svg" viewBox="0 0 448 512"><!-- Font Awesome Pro 6.0.0-alpha1 by @fontawesome - https://fontawesome.com License - https://fontawesome.com/license (Commercial License) --><path d="M445 334L413 398C407 409 396 416 384 416H264V464H360C373 464 384 475 384 488C384 501 373 512 360 512H120C107 512 96 501 96 488C96 475 107 464 120 464H216V416H172C134 416 99 393 84 358L8 185C3 173 0 160 0 147V32C0 14 14 0 32 0S64 14 64 32V147C64 151 65 155 67 159L81 192H320C338 192 352 206 352 224C352 242 338 256 320 256H109L123 289C125 289 126 288 128 288H416C427 288 437 294 443 303S450 324 445 334Z"/></svg>