<svg xmlns="http://www.w3.org/2000/svg" viewBox="0 0 448 512"><!-- Font Awesome Pro 6.0.0-alpha1 by @fontawesome - https://fontawesome.com License - https://fontawesome.com/license (Commercial License) --><path d="M384 32H64C29 32 0 61 0 96V416C0 451 29 480 64 480H384C419 480 448 451 448 416V96C448 61 419 32 384 32ZM96 272C96 281 89 288 80 288S64 281 64 272V112C64 103 71 96 80 96S96 103 96 112V272ZM160 272C160 281 153 288 144 288S128 281 128 272V112C128 103 135 96 144 96S160 103 160 112V272ZM224 272C224 281 217 288 208 288S192 281 192 272V112C192 103 199 96 208 96S224 103 224 112V272Z"/></svg>