<svg xmlns="http://www.w3.org/2000/svg" viewBox="0 0 640 512"><!-- Font Awesome Pro 6.0.0-alpha1 by @fontawesome - https://fontawesome.com License - https://fontawesome.com/license (Commercial License) --><path d="M289 315C289 254 343 162 419 91C425 85 433 82 441 82C444 82 446 83 448 83C442 54 416 32 385 32H64C29 32 0 61 0 96V416C0 451 29 480 64 480H377C322 443 289 382 289 315ZM96 272C96 281 89 288 80 288C71 288 64 281 64 272V112C64 103 71 96 80 96C89 96 96 103 96 112V272ZM161 272C161 281 153 288 144 288C136 288 128 281 128 272V112C128 103 136 96 144 96C153 96 161 103 161 112V272ZM225 272C225 281 218 288 209 288C200 288 193 281 193 272V112C193 103 200 96 209 96C218 96 225 103 225 112V272ZM551 151C537 164 523 178 511 194C490 165 466 138 440 114C370 179 320 264 320 315C320 406 392 480 480 480S640 406 640 315C640 277 603 199 551 151ZM540 398C523 410 503 416 482 416C428 416 384 380 384 322C384 293 402 268 439 224C444 230 513 318 513 318L557 268C560 273 563 278 565 283C586 322 577 372 540 398Z"/></svg>