<svg xmlns="http://www.w3.org/2000/svg" viewBox="0 0 576 512"><!-- Font Awesome Pro 6.0.0-alpha1 by @fontawesome - https://fontawesome.com License - https://fontawesome.com/license (Commercial License) --><path d="M440 190L264 38C248 25 224 35 224 56V139C95 149 0 191 0 322C0 384 40 445 83 476C97 486 116 474 111 458C73 335 116 289 224 276V360C224 381 248 391 264 378L440 226C451 217 451 199 440 190ZM568 190L392 38C376 25 352 35 352 56V72L510 208L352 344V360C352 381 376 391 392 378L568 226C579 217 579 199 568 190Z"/></svg>