<svg xmlns="http://www.w3.org/2000/svg" viewBox="0 0 448 512"><!-- Font Awesome Pro 6.0.0-alpha1 by @fontawesome - https://fontawesome.com License - https://fontawesome.com/license (Commercial License) --><path d="M448 384C448 437 405 480 352 480S256 437 256 384C256 380 257 376 257 372L162 325C145 342 122 352 96 352C43 352 0 309 0 256S43 160 96 160C122 160 145 170 162 187L257 140C257 136 256 132 256 128C256 75 299 32 352 32S448 75 448 128S405 224 352 224C326 224 303 214 286 197L191 244C191 248 192 252 192 256S191 264 191 268L286 315C303 298 326 288 352 288C405 288 448 331 448 384Z"/></svg>