<svg xmlns="http://www.w3.org/2000/svg" viewBox="0 0 640 512"><!-- Font Awesome Pro 6.0.0-alpha1 by @fontawesome - https://fontawesome.com License - https://fontawesome.com/license (Commercial License) --><path d="M608 0L608 0C590 0 576 14 576 32V160H64V32C64 14 50 0 32 0H32C14 0 0 14 0 32V512H64V480H576V512H640V32C640 14 626 0 608 0ZM576 416H64V224H576V416ZM368 128H464C473 128 480 121 480 112V16C480 7 473 0 464 0H368C359 0 352 7 352 16V112C352 121 359 128 368 128ZM112 384H208C217 384 224 377 224 368V272C224 263 217 256 208 256H112C103 256 96 263 96 272V368C96 377 103 384 112 384ZM272 384H368C377 384 384 377 384 368V272C384 263 377 256 368 256H272C263 256 256 263 256 272V368C256 377 263 384 272 384Z"/></svg>