<svg xmlns="http://www.w3.org/2000/svg" viewBox="0 0 512 512"><!-- Font Awesome Pro 6.0.0-alpha1 by @fontawesome - https://fontawesome.com License - https://fontawesome.com/license (Commercial License) --><path d="M466 84L274 4C270 2 261 0 256 0C251 0 242 2 238 4L46 84C28 91 16 109 16 128C16 327 130 464 238 508C249 513 263 513 274 508C360 473 496 349 496 128C496 109 484 91 466 84ZM346 216L250 328C246 333 240 336 233 336C233 336 232 336 232 336C226 336 220 333 215 329L167 281C158 272 158 256 167 247S192 238 201 247L231 277L310 184C318 174 334 173 344 182C354 190 355 206 346 216Z"/></svg>