<svg xmlns="http://www.w3.org/2000/svg" viewBox="0 0 512 512"><!-- Font Awesome Pro 6.0.0-alpha1 by @fontawesome - https://fontawesome.com License - https://fontawesome.com/license (Commercial License) --><path d="M466 84L274 4C270 2 261 0 256 0C251 0 242 2 238 4L46 84C28 91 16 109 16 128C16 326 130 464 238 508C249 513 263 513 274 508C360 473 496 349 496 128C496 109 484 91 466 84ZM421 224H288V428C277 436 266 442 256 447C245 442 235 436 224 428V224H91C86 204 83 182 81 160H224V79L256 65L288 79V160H431C429 183 426 204 421 224Z"/></svg>