<svg xmlns="http://www.w3.org/2000/svg" viewBox="0 0 512 512"><!-- Font Awesome Pro 6.0.0-alpha1 by @fontawesome - https://fontawesome.com License - https://fontawesome.com/license (Commercial License) --><path d="M466 84L274 4C270 2 261 0 256 0C251 0 242 2 238 4L46 84C28 91 16 109 16 128C16 327 130 464 238 508C249 513 263 513 274 508C360 473 496 349 496 128C496 109 484 91 466 84ZM256 384C238 384 224 370 224 352S238 320 256 320S288 334 288 352S274 384 256 384ZM282 274C281 282 274 288 266 288H246C238 288 231 282 230 274L218 146C217 136 224 128 234 128H278C288 128 295 136 294 146L282 274Z"/></svg>