<svg xmlns="http://www.w3.org/2000/svg" viewBox="0 0 512 512"><!-- Font Awesome Pro 6.0.0-alpha1 by @fontawesome - https://fontawesome.com License - https://fontawesome.com/license (Commercial License) --><path d="M466 84L274 4C270 2 261 0 256 0C251 0 242 2 238 4L46 84C28 91 16 109 16 128C16 327 130 464 238 508C249 513 263 513 274 508C360 473 496 349 496 128C496 109 484 91 466 84ZM324 290C333 299 333 315 324 324C314 333 299 333 290 324L256 290L222 324C213 333 197 333 188 324C179 315 179 299 188 290L222 256L188 222C179 213 179 197 188 188S213 179 222 188L256 222L290 188C299 179 315 179 324 188S333 213 324 222L290 256L324 290Z"/></svg>