<svg xmlns="http://www.w3.org/2000/svg" viewBox="0 0 640 512"><!-- Font Awesome Pro 6.0.0-alpha1 by @fontawesome - https://fontawesome.com License - https://fontawesome.com/license (Commercial License) --><path d="M24 115L5 142C-9 164 6 192 32 192H122L24 115ZM320 384H128V224H64V480C64 498 78 512 96 512H352C370 512 384 498 384 480V398L320 347V384ZM576 426V224H512V376L384 276V224H320V225L277 192H608C633 192 649 163 635 142L549 14C543 5 533 0 523 0H117C107 0 97 5 91 14L77 35L39 5C34 2 29 0 24 0C17 0 10 3 5 9C-3 20 -1 35 9 43L601 507C612 515 627 513 635 503C643 492 641 477 631 469L576 426Z"/></svg>