<svg xmlns="http://www.w3.org/2000/svg" viewBox="0 0 512 512"><!-- Font Awesome Pro 6.0.0-alpha1 by @fontawesome - https://fontawesome.com License - https://fontawesome.com/license (Commercial License) --><path d="M505 82L430 7C421 -2 405 -2 396 7L367 36C352 50 344 70 344 90C344 103 348 114 353 125L260 219L210 169C199 158 181 157 168 167L12 287C-3 299 -4 321 9 335L177 503C191 516 213 515 225 500L345 344C355 331 354 313 343 302L293 252L387 159C398 164 409 167 421 167C442 167 461 159 476 145L505 116C514 106 514 91 505 82ZM112 352C108 352 104 350 101 347C95 341 95 331 101 325L181 245C187 238 197 238 203 245C209 251 209 261 203 267L123 347C120 350 116 352 112 352ZM267 331L187 411C184 414 180 416 176 416C172 416 168 414 165 411C159 405 159 395 165 389L245 309C251 302 261 302 267 309C274 315 274 325 267 331ZM442 111C431 122 412 122 401 111C395 105 392 98 392 90S395 75 401 70L413 58L454 99L442 111Z"/></svg>