<svg xmlns="http://www.w3.org/2000/svg" viewBox="0 0 512 512"><!-- Font Awesome Pro 6.0.0-alpha1 by @fontawesome - https://fontawesome.com License - https://fontawesome.com/license (Commercial License) --><path d="M288 384C270 384 256 398 256 416C256 434 270 448 288 448S320 434 320 416C320 398 306 384 288 384ZM416 256C398 256 384 270 384 288C384 306 398 320 416 320S448 306 448 288C448 270 434 256 416 256ZM480 192C462 192 448 206 448 224C448 242 462 256 480 256S512 242 512 224C512 206 498 192 480 192ZM288 320C288 302 274 288 256 288S224 302 224 320C224 338 238 352 256 352S288 338 288 320ZM320 224C302 224 288 238 288 256C288 274 302 288 320 288S352 274 352 256C352 238 338 224 320 224ZM384 224C402 224 416 210 416 192C416 174 402 160 384 160S352 174 352 192C352 210 366 224 384 224ZM352 320C334 320 320 334 320 352C320 370 334 384 352 384S384 370 384 352C384 334 370 320 352 320ZM347 91L336 80C330 74 320 74 313 80L307 87C272 60 225 57 187 78L170 61C132 23 64 18 22 71C7 90 0 114 0 138V464C0 473 7 480 16 480H48C57 480 64 473 64 464V132C64 112 80 96 100 96C109 96 119 100 125 106L142 123C121 161 124 208 151 243L144 249C138 256 138 266 144 272L155 283C162 290 172 290 178 283L347 114C354 108 354 98 347 91Z"/></svg>