<svg xmlns="http://www.w3.org/2000/svg" viewBox="0 0 512 512"><!-- Font Awesome Pro 6.0.0-alpha1 by @fontawesome - https://fontawesome.com License - https://fontawesome.com/license (Commercial License) --><path d="M484 192H464C464 198 468 248 419 263L328 292L302 337L224 374L198 348L269 277L410 233C423 228 432 216 432 202V108C432 93 419 80 404 80H310C296 80 284 89 279 102L235 243L164 314L138 288L175 210L220 184L249 93C263 47 308 48 320 48V28C320 13 307 0 292 0H237C227 0 217 6 212 16L95 266L56 306L206 456L245 416L496 300C506 295 512 285 512 275V220C512 205 499 192 484 192ZM31 331C-10 372 -10 440 31 481S140 522 181 481L184 478L34 328L31 331Z"/></svg>