<svg xmlns="http://www.w3.org/2000/svg" viewBox="0 0 512 512"><!-- Font Awesome Pro 6.0.0-alpha1 by @fontawesome - https://fontawesome.com License - https://fontawesome.com/license (Commercial License) --><path d="M352 136V128H206L315 256L206 384H352V376C352 363 363 352 376 352H424C437 352 448 363 448 376V448C448 466 434 480 416 480H116C96 480 79 469 70 451C61 434 63 413 74 397L197 256L74 115C62 99 61 78 70 61C79 43 96 32 116 32H416C434 32 448 46 448 64V136C448 149 437 160 424 160H376C363 160 352 149 352 136Z"/></svg>