<svg xmlns="http://www.w3.org/2000/svg" viewBox="0 0 576 512"><!-- Font Awesome Pro 6.0.0-alpha1 by @fontawesome - https://fontawesome.com License - https://fontawesome.com/license (Commercial License) --><path d="M64 256C64 203 84 151 119 112C125 106 124 96 118 90L96 69C93 66 89 64 84 64C80 64 75 66 73 70C26 121 0 186 0 256S26 391 73 442C75 446 80 448 84 448C89 448 93 447 96 443L118 422C124 416 125 406 119 400C84 361 64 309 64 256ZM198 168L175 146C172 143 168 141 163 142C159 142 154 144 151 148C99 210 99 302 151 364C154 368 159 370 163 370C168 371 172 369 175 366L198 344C204 338 204 330 200 323C168 284 168 228 200 189C205 182 204 174 198 168ZM425 148C422 144 417 142 413 142S404 143 401 146L378 168C372 174 371 183 376 189C408 228 408 284 376 323C371 329 372 338 378 344L401 366C404 369 408 371 413 370S422 368 425 365C477 302 477 210 425 148ZM288 200C257 200 232 225 232 256S257 312 288 312S344 287 344 256S319 200 288 200ZM503 70C501 66 496 64 492 64C487 64 483 65 480 69L458 90C452 96 451 106 457 112C531 194 531 318 457 400C451 406 452 416 458 422L480 443C483 446 487 448 492 448C496 448 501 446 503 442C550 391 576 326 576 256S550 121 503 70Z"/></svg>