<svg xmlns="http://www.w3.org/2000/svg" viewBox="0 0 512 512"><!-- Font Awesome Pro 6.0.0-alpha1 by @fontawesome - https://fontawesome.com License - https://fontawesome.com/license (Commercial License) --><path d="M224 496C224 505 231 512 240 512H272C281 512 288 505 288 496V384H224V496ZM456 224H288V192H224V224H71C62 224 54 227 48 233L5 277C-2 283 -2 293 5 299L48 343C54 349 62 352 71 352H456C469 352 480 341 480 328V248C480 235 469 224 456 224ZM507 85L464 41C458 35 450 32 441 32H288V16C288 7 281 0 272 0H240C231 0 224 7 224 16V32H56C43 32 32 43 32 56V136C32 149 43 160 56 160H441C450 160 458 157 464 151L507 107C514 101 514 91 507 85Z"/></svg>