<svg xmlns="http://www.w3.org/2000/svg" viewBox="0 0 640 512"><!-- Font Awesome Pro 6.0.0-alpha1 by @fontawesome - https://fontawesome.com License - https://fontawesome.com/license (Commercial License) --><path d="M192 288V480C192 498 206 512 224 512H256C274 512 288 498 288 480V322L209 260C199 266 192 276 192 288ZM96 384H64C46 384 32 398 32 416V480C32 498 46 512 64 512H96C114 512 128 498 128 480V416C128 398 114 384 96 384ZM352 480C352 498 366 512 384 512H416C434 512 448 498 448 480V448L352 373V480ZM631 469L608 451V32C608 14 594 0 576 0H544C526 0 512 14 512 32V376L448 326V160C448 142 434 128 416 128H384C366 128 352 142 352 160V251L39 5C34 2 29 0 24 0C17 0 10 3 5 9C-3 20 -1 35 9 43L601 507C612 515 627 513 635 503C643 492 641 477 631 469Z"/></svg>