<svg xmlns="http://www.w3.org/2000/svg" viewBox="0 0 512 512"><!-- Font Awesome Pro 6.0.0-alpha1 by @fontawesome - https://fontawesome.com License - https://fontawesome.com/license (Commercial License) --><path d="M496 288H400V256H464C473 256 480 249 480 240V224C480 215 473 208 464 208H384C366 208 352 222 352 240V288H288V96C288 78 302 64 320 64S352 78 352 96V112C352 121 359 128 368 128H400C409 128 416 121 416 112V96C416 37 362 -10 301 2C255 11 224 53 224 100V288H160V240C160 222 146 208 128 208H48C39 208 32 215 32 224V240C32 249 39 256 48 256H112V288H16C7 288 0 295 0 304V336C0 345 7 352 16 352H496C505 352 512 345 512 336V304C512 295 505 288 496 288ZM32 416C32 469 75 512 128 512H384C437 512 480 469 480 416V384H32V416Z"/></svg>