<svg xmlns="http://www.w3.org/2000/svg" viewBox="0 0 640 512"><!-- Font Awesome Pro 6.0.0-alpha1 by @fontawesome - https://fontawesome.com License - https://fontawesome.com/license (Commercial License) --><path d="M224 167C225 165 226 163 227 162C229 161 231 160 233 160L249 162C251 163 253 164 254 166C256 167 256 169 256 171L232 352H496L471 152C467 120 440 96 408 96H233C200 96 173 120 169 152L144 352H199L224 167ZM536 112C541 112 545 111 549 108L597 76C605 72 609 63 608 55C608 46 603 38 595 34C587 31 578 31 571 36L523 68C514 74 510 85 513 95C516 105 526 112 536 112ZM91 108C98 113 107 114 115 110C123 107 128 99 129 90C129 81 125 73 117 68L69 36C62 31 53 31 45 34C37 38 32 46 31 55C31 63 35 72 43 76L91 108ZM112 224C112 211 101 200 88 200H24C11 200 0 211 0 224S11 248 24 248H88C101 248 112 237 112 224ZM616 200H552C539 200 528 211 528 224S539 248 552 248H616C629 248 640 237 640 224S629 200 616 200ZM528 384H112C103 384 96 391 96 400V464C96 473 103 480 112 480H528C537 480 544 473 544 464V400C544 391 537 384 528 384Z"/></svg>