<svg xmlns="http://www.w3.org/2000/svg" viewBox="0 0 448 512"><!-- Font Awesome Pro 6.0.0-alpha1 by @fontawesome - https://fontawesome.com License - https://fontawesome.com/license (Commercial License) --><path d="M128 167C129 165 130 163 131 162C133 160 135 160 137 160L153 162C155 162 157 164 158 165C160 167 160 169 160 171L136 352H400L375 152C371 120 344 96 311 96H137C104 96 77 120 73 152L48 352H103L128 167ZM432 384H16C7 384 0 391 0 400V464C0 473 7 480 16 480H432C441 480 448 473 448 464V400C448 391 441 384 432 384Z"/></svg>