<svg xmlns="http://www.w3.org/2000/svg" viewBox="0 0 512 512"><!-- Font Awesome Pro 6.0.0-alpha1 by @fontawesome - https://fontawesome.com License - https://fontawesome.com/license (Commercial License) --><path d="M256 0C115 0 0 100 0 224C0 294 37 357 94 398C104 405 110 416 108 428L96 494C95 503 102 512 112 512H192V456C192 452 196 448 200 448H216C220 448 224 452 224 456V512H288V456C288 452 292 448 296 448H312C316 448 320 452 320 456V512H400C410 512 417 503 416 494L404 428C402 416 408 405 417 398C475 357 512 294 512 224C512 100 397 0 256 0ZM160 320C125 320 96 291 96 256S125 192 160 192S224 221 224 256S195 320 160 320ZM352 320C317 320 288 291 288 256S317 192 352 192S416 221 416 256S387 320 352 320Z"/></svg>