<svg xmlns="http://www.w3.org/2000/svg" viewBox="0 0 640 512"><!-- Font Awesome Pro 6.0.0-alpha1 by @fontawesome - https://fontawesome.com License - https://fontawesome.com/license (Commercial License) --><path d="M144 288H300C323 308 352 320 384 320S445 308 468 288H528C590 288 640 238 640 176S590 64 528 64C510 64 493 69 478 76C454 31 407 0 352 0C311 0 274 17 248 45C222 17 185 0 144 0C65 0 0 65 0 144S65 288 144 288ZM144 464H16C7 464 0 471 0 480V496C0 505 7 512 16 512H144C153 512 160 505 160 496V480C160 471 153 464 144 464ZM624 368H80C71 368 64 375 64 384V400C64 409 71 416 80 416H624C633 416 640 409 640 400V384C640 375 633 368 624 368ZM560 464H224C215 464 208 471 208 480V496C208 505 215 512 224 512H560C569 512 576 505 576 496V480C576 471 569 464 560 464Z"/></svg>