<svg xmlns="http://www.w3.org/2000/svg" viewBox="0 0 448 512"><!-- Font Awesome Pro 6.0.0-alpha1 by @fontawesome - https://fontawesome.com License - https://fontawesome.com/license (Commercial License) --><path d="M192 192H288C297 192 304 185 304 176V144C304 135 297 128 288 128H253L311 71C317 65 320 57 320 48V32C320 14 306 0 288 0H184C175 0 168 7 168 16V48C168 57 175 64 184 64H227L169 121C163 127 160 135 160 144V160C160 178 174 192 192 192ZM192 224H40C27 224 16 235 16 248V296C16 309 27 320 40 320H90L8 413C3 418 0 426 0 434V480C0 498 14 512 32 512H184C197 512 208 501 208 488V440C208 427 197 416 184 416H134L216 323C221 318 224 310 224 302V256C224 238 210 224 192 224ZM448 272V256C448 238 434 224 416 224H320C311 224 304 231 304 240V272C304 281 311 288 320 288H355L297 345C291 351 288 359 288 368V384C288 402 302 416 320 416H424C433 416 440 409 440 400V368C440 359 433 352 424 352H381L439 295C445 289 448 281 448 272Z"/></svg>