<svg xmlns="http://www.w3.org/2000/svg" viewBox="0 0 512 512"><!-- Font Awesome Pro 6.0.0-alpha1 by @fontawesome - https://fontawesome.com License - https://fontawesome.com/license (Commercial License) --><path d="M511 152L505 138C502 130 492 126 484 129L456 141V112C456 103 449 96 440 96H424C415 96 408 103 408 112V158C408 159 408 159 408 160L359 181C354 168 346 157 337 147C346 132 352 115 352 96C352 43 309 0 256 0S160 43 160 96C160 115 166 132 175 147C166 157 158 168 153 181L104 160C104 159 104 159 104 158V112C104 103 97 96 88 96H72C63 96 56 103 56 112V141L28 129C20 126 10 130 7 138L1 152C-2 160 2 170 10 173L144 228C145 241 147 253 152 264C118 293 96 336 96 384C96 437 122 483 161 512H351C390 483 416 437 416 384C416 336 394 293 360 264C365 253 367 241 368 228L502 173C510 170 514 160 511 152ZM224 96C215 96 208 89 208 80S215 64 224 64S240 71 240 80S233 96 224 96ZM256 368C247 368 240 361 240 352S247 336 256 336S272 343 272 352S265 368 256 368ZM256 304C247 304 240 297 240 288S247 272 256 272S272 279 272 288S265 304 256 304ZM256 240C247 240 240 233 240 224S247 208 256 208S272 215 272 224S265 240 256 240ZM256 152C256 152 240 129 240 120S247 104 256 104S272 111 272 120S256 152 256 152ZM288 96C279 96 272 89 272 80S279 64 288 64S304 71 304 80S297 96 288 96Z"/></svg>