<svg xmlns="http://www.w3.org/2000/svg" viewBox="0 0 640 512"><!-- Font Awesome Pro 6.0.0-alpha1 by @fontawesome - https://fontawesome.com License - https://fontawesome.com/license (Commercial License) --><path d="M608 256L636 240C640 238 641 233 639 229L631 215C629 211 624 210 620 212L592 228V200C592 196 588 192 584 192H568C564 192 560 196 560 200V228L532 212C528 210 523 211 521 215L513 229C511 233 512 238 516 240L544 256L516 272C512 274 511 279 513 283L521 297C523 301 528 302 532 300L560 284V312C560 316 564 320 568 320H584C588 320 592 316 592 312V284L620 300C624 302 629 301 631 297L639 283C641 279 640 274 636 272L608 256ZM446 146L430 119C426 112 417 109 409 113L376 133L383 107C385 98 380 90 372 88L357 84C349 82 340 86 338 95L319 166L256 202V124L310 71C316 64 316 54 310 48L298 37C292 30 282 30 276 37L256 56V16C256 7 249 0 240 0H208C199 0 192 7 192 16V56L172 37C166 30 156 30 150 37L138 48C132 54 132 64 138 71L192 124V202L129 166L110 95C108 87 100 82 91 84L76 88C68 90 63 99 66 107L73 133L39 113C31 109 22 112 18 119L2 146C-2 153 0 162 8 167L42 186L16 193C7 195 2 204 5 212L9 227C11 235 19 240 28 238L98 219L162 256L98 293L28 274C19 272 11 277 9 285L5 300C2 308 7 316 16 319L42 326L8 345C0 350 -2 359 2 366L18 393C22 400 31 403 39 399L72 379L65 405C63 414 68 422 76 424L91 428C99 430 108 426 110 417L129 346L192 310V388L138 442C132 448 132 458 138 464L150 475C156 482 166 482 172 475L192 456V496C192 505 199 512 208 512H240C249 512 256 505 256 496V456L276 475C282 481 292 481 298 475L309 464C316 458 316 448 309 441L256 388V310L319 346L338 417C340 425 349 430 357 428L372 424C380 422 385 413 383 405L376 379L409 399C417 403 426 400 430 393L446 366C450 359 448 349 440 345L406 326L432 319C441 316 446 308 443 300L439 285C437 277 429 272 420 274L350 293L286 256L350 219L420 238C429 240 437 235 439 227L443 212C446 204 441 196 432 193L406 186L440 167C448 163 450 153 446 146ZM528 120C528 124 532 128 536 128H552C556 128 560 124 560 120V92L588 108C592 110 597 109 599 105L607 91C609 87 608 82 604 80L576 64L604 48C608 46 609 41 607 37L599 23C597 19 592 18 588 20L560 36V8C560 4 556 0 552 0H536C532 0 528 4 528 8V36L500 20C496 18 491 19 489 23L481 37C479 41 480 46 484 48L512 64L484 80C480 82 479 87 481 91L489 105C491 109 496 110 500 108L528 92V120Z"/></svg>