<svg xmlns="http://www.w3.org/2000/svg" viewBox="0 0 512 512"><!-- Font Awesome Pro 6.0.0-alpha1 by @fontawesome - https://fontawesome.com License - https://fontawesome.com/license (Commercial License) --><path d="M288 32C288 21 291 11 296 2C293 1 291 0 288 0H160C142 0 128 14 128 32V64H288V32ZM215 311L288 256V96H128V272L41 337C2 366 -13 421 12 464C30 495 63 512 96 512C116 512 136 506 154 493L176 476C146 421 162 351 215 311ZM320 272L234 337C194 366 180 421 205 464C223 495 255 512 288 512C308 512 328 506 346 493L461 406C493 382 512 344 512 304V96H320V272ZM480 0H352C334 0 320 14 320 32V64H512V32C512 14 498 0 480 0Z"/></svg>