<svg xmlns="http://www.w3.org/2000/svg" viewBox="0 0 512 512"><!-- Font Awesome Pro 6.0.0-alpha1 by @fontawesome - https://fontawesome.com License - https://fontawesome.com/license (Commercial License) --><path d="M392 120C375 104 350 103 331 116C307 103 282 96 256 96C184 96 120 145 101 215C83 285 113 358 176 395C239 431 318 420 369 369C420 318 429 242 396 181C409 162 408 137 392 120ZM335 335C294 377 228 380 183 343C138 306 129 240 163 192C196 144 260 130 311 159C312 169 316 180 324 188C332 196 343 200 353 201C377 244 371 299 335 335ZM256 192C221 192 192 221 192 256S221 320 256 320S320 291 320 256S291 192 256 192ZM337 448C259 480 169 463 109 403C39 334 30 227 79 146C105 152 131 140 143 116C154 93 148 65 127 48C107 32 78 32 57 48C37 64 30 93 42 116C-23 215 -12 350 75 437C151 513 267 534 364 488C362 486 360 484 358 482C348 472 341 461 337 448ZM437 75C361 -1 245 -22 148 24C150 26 152 28 154 30C164 40 171 51 175 64C253 32 343 49 403 109C473 179 482 285 433 366C407 360 381 372 369 396C358 419 364 447 385 464C405 480 434 480 455 464C475 448 482 420 470 396C535 297 524 162 437 75Z"/></svg>