<svg xmlns="http://www.w3.org/2000/svg" viewBox="0 0 512 512"><!-- Font Awesome Pro 6.0.0-alpha1 by @fontawesome - https://fontawesome.com License - https://fontawesome.com/license (Commercial License) --><path d="M256 16C123 16 16 123 16 256C16 266 17 277 18 287C88 307 169 320 256 320S424 307 494 287C495 277 496 266 496 256C496 123 389 16 256 16ZM192 240C148 240 112 204 112 160S148 80 192 80S272 116 272 160S236 240 192 240ZM26 322C54 423 147 496 256 496S458 423 486 322C418 341 340 352 256 352S94 341 26 322ZM192 136C179 136 168 147 168 160S179 184 192 184S216 173 216 160S205 136 192 136Z"/></svg>