<svg xmlns="http://www.w3.org/2000/svg" viewBox="0 0 512 512"><!-- Font Awesome Pro 6.0.0-alpha1 by @fontawesome - https://fontawesome.com License - https://fontawesome.com/license (Commercial License) --><path d="M512 284C512 352 457 407 390 407H378C343 407 310 391 288 366V418C288 430 296 441 308 444L332 450C344 453 352 463 352 476C352 491 340 503 325 503H187C172 503 160 491 160 476C160 463 168 453 180 450L204 444C216 441 224 430 224 418V366C202 391 169 407 134 407H122C55 407 0 352 0 284C0 251 13 221 36 197L233 0C246 -13 266 -13 279 0L476 197C499 221 512 251 512 284Z"/></svg>