<svg xmlns="http://www.w3.org/2000/svg" viewBox="0 0 448 512"><!-- Font Awesome Pro 6.0.0-alpha1 by @fontawesome - https://fontawesome.com License - https://fontawesome.com/license (Commercial License) --><path d="M384 32H64C29 32 0 61 0 96V416C0 451 29 480 64 480H384C419 480 448 451 448 416V96C448 61 419 32 384 32ZM320 280H248V352C248 365 237 376 224 376C211 376 200 365 200 352V280H128C115 280 104 269 104 256C104 243 115 232 128 232H200V160C200 147 211 136 224 136C237 136 248 147 248 160V232H320C333 232 344 243 344 256C344 269 333 280 320 280Z"/></svg>