<svg xmlns="http://www.w3.org/2000/svg" viewBox="0 0 448 512"><!-- Font Awesome Pro 6.0.0-alpha1 by @fontawesome - https://fontawesome.com License - https://fontawesome.com/license (Commercial License) --><path d="M384 32H64C29 32 0 61 0 96V416C0 451 29 480 64 480H384C419 480 448 451 448 416V96C448 61 419 32 384 32ZM296 384H152C143 384 135 379 131 371C127 363 127 354 132 346L250 176H152C139 176 128 165 128 152S139 128 152 128H296C305 128 313 133 317 141C321 149 321 158 316 166L198 336H296C309 336 320 347 320 360S309 384 296 384Z"/></svg>