<svg xmlns="http://www.w3.org/2000/svg" viewBox="0 0 448 512"><!-- Font Awesome Pro 6.0.0-alpha1 by @fontawesome - https://fontawesome.com License - https://fontawesome.com/license (Commercial License) --><path d="M384 32H64C29 32 0 61 0 96V416C0 451 29 480 64 480H384C419 480 448 451 448 416V96C448 61 419 32 384 32ZM320 208C320 256 285 295 240 302V384H288C297 384 304 391 304 400C304 409 297 416 288 416H160C151 416 144 409 144 400C144 391 151 384 160 384H208V302C163 295 128 256 128 208V112C128 103 135 96 144 96H176L208 160L176 192L256 256L224 192L272 160L240 96H304C313 96 320 103 320 112V208Z"/></svg>