<svg xmlns="http://www.w3.org/2000/svg" viewBox="0 0 448 512"><!-- Font Awesome Pro 6.0.0-alpha1 by @fontawesome - https://fontawesome.com License - https://fontawesome.com/license (Commercial License) --><path d="M384 32H64C29 32 0 61 0 96V416C0 451 29 480 64 480H384C419 480 448 451 448 416V96C448 61 419 32 384 32ZM236 384H191C163 384 138 366 129 339C125 327 132 313 144 309C157 305 171 311 175 324C177 331 184 336 191 336H236C256 336 272 320 272 300S256 264 236 264H184C174 264 165 258 162 249C158 239 160 229 168 222L218 176H152C139 176 128 165 128 152S139 128 152 128H280C290 128 299 134 302 143C306 153 304 163 296 170L245 217C287 221 320 257 320 300C320 346 282 384 236 384Z"/></svg>