<svg xmlns="http://www.w3.org/2000/svg" viewBox="0 0 448 512"><!-- Font Awesome Pro 6.0.0-alpha1 by @fontawesome - https://fontawesome.com License - https://fontawesome.com/license (Commercial License) --><path d="M384 32H64C29 32 0 61 0 96V416C0 451 29 480 64 480H384C419 480 448 451 448 416V96C448 61 419 32 384 32ZM382 268C380 272 378 276 375 279L271 383C258 395 238 395 225 383S213 350 225 337L275 288H96C78 288 64 274 64 256S78 224 96 224H275L225 175C213 162 213 142 225 129S258 117 271 129L375 233C378 236 380 240 382 244C383 248 384 252 384 256S383 264 382 268Z"/></svg>