<svg xmlns="http://www.w3.org/2000/svg" viewBox="0 0 448 512"><!-- Font Awesome Pro 6.0.0-alpha1 by @fontawesome - https://fontawesome.com License - https://fontawesome.com/license (Commercial License) --><path d="M384 32H64C29 32 0 61 0 96V416C0 451 29 480 64 480H384C419 480 448 451 448 416V96C448 61 419 32 384 32ZM384 336C384 354 370 368 352 368H96C78 368 64 354 64 336V226L203 295C209 299 217 300 224 300S239 298 245 295L384 226V336ZM384 190L231 267C227 269 221 269 217 267L64 190V176C64 158 78 144 96 144H352C370 144 384 158 384 176V190Z"/></svg>