<svg xmlns="http://www.w3.org/2000/svg" viewBox="0 0 448 512"><!-- Font Awesome Pro 6.0.0-alpha1 by @fontawesome - https://fontawesome.com License - https://fontawesome.com/license (Commercial License) --><path d="M384 32H64C29 32 0 61 0 96V416C0 451 29 480 64 480H384C419 480 448 451 448 416V96C448 61 419 32 384 32ZM351 255C338 267 318 267 305 255L256 205V384C256 402 242 416 224 416S192 402 192 384V205L143 255C130 267 110 267 97 255S85 222 97 209L201 105C204 102 208 100 212 98C216 97 220 96 224 96S232 97 236 98C240 100 244 102 247 105L351 209C363 222 363 242 351 255Z"/></svg>