<svg xmlns="http://www.w3.org/2000/svg" viewBox="0 0 512 512"><!--! Font Awesome Pro 6.0.0 by @fontawesome - https://fontawesome.com License - https://fontawesome.com/license (Commercial License) Copyright 2022 Fonticons, Inc. --><path d="M32 96C32 60.65 60.65 32 96 32H416C451.3 32 480 60.65 480 96V416C480 451.3 451.3 480 416 480H96C60.65 480 32 451.3 32 416V96zM241.7 112.9L205.4 186.4L124.4 198.1C118.3 199 113.3 203.2 111.4 209C109.6 214.8 111.1 221.2 115.5 225.4L174.1 282.6L160.3 363.3C159.3 369.3 161.7 375.4 166.7 378.1C171.6 382.6 178.1 383 183.5 380.2L255.1 342.1L328.5 380.2C333.9 383 340.4 382.6 345.3 378.1C350.3 375.4 352.7 369.3 351.7 363.3L337.9 282.6L396.5 225.4C400.9 221.2 402.4 214.8 400.6 209C398.7 203.2 393.7 199 387.6 198.1L306.6 186.4L270.3 112.9C267.7 107.5 262.1 104 255.1 104C249.9 104 244.3 107.5 241.7 112.9H241.7z"/></svg>