<svg xmlns="http://www.w3.org/2000/svg" viewBox="0 0 448 512"><!-- Font Awesome Pro 6.0.0-alpha1 by @fontawesome - https://fontawesome.com License - https://fontawesome.com/license (Commercial License) --><path d="M384 32H64C29 32 0 61 0 96V416C0 451 29 480 64 480H384C419 480 448 451 448 416V96C448 61 419 32 384 32ZM167 312C182 327 202 336 223 336S264 327 279 312C288 303 303 303 313 312C322 322 322 337 313 346C289 371 257 384 223 384C223 384 223 384 223 384C189 384 157 371 133 346C84 296 84 215 133 165C181 116 265 116 313 165C322 174 322 189 313 199C304 208 288 208 279 198C249 168 197 168 167 198C136 230 136 281 167 312Z"/></svg>