<svg xmlns="http://www.w3.org/2000/svg" viewBox="0 0 448 512"><!-- Font Awesome Pro 6.0.0-alpha1 by @fontawesome - https://fontawesome.com License - https://fontawesome.com/license (Commercial License) --><path d="M204 211L226 193C228 191 230 189 230 186C230 180 225 176 220 176H197C191 176 187 180 187 186C187 190 189 194 192 197L204 211ZM167 303C163 306 160 311 160 317C160 328 168 336 179 336H211C221 336 231 331 236 323L238 320L199 277L167 303ZM384 32H64C29 32 0 61 0 96V416C0 451 29 480 64 480H384C419 480 448 451 448 416V96C448 61 419 32 384 32ZM324 378C319 382 314 384 308 384C301 384 295 381 290 376L271 356C257 374 235 384 211 384H179C142 384 112 354 112 317C112 297 121 278 137 265L167 241L156 230C145 218 139 202 139 186C139 154 165 128 197 128H220C252 128 278 154 278 186C278 203 270 220 256 231L236 246L266 279L288 247C295 236 310 233 321 241C332 248 335 263 328 274L299 315L326 344C334 354 334 369 324 378Z"/></svg>