<svg xmlns="http://www.w3.org/2000/svg" viewBox="0 0 448 512"><!-- Font Awesome Pro 6.0.0-alpha1 by @fontawesome - https://fontawesome.com License - https://fontawesome.com/license (Commercial License) --><path d="M224 176C180 176 144 212 144 256S180 336 224 336C237 336 250 332 261 327L231 297C222 288 222 272 231 263S256 254 265 263L295 293C300 282 304 269 304 256C304 212 268 176 224 176ZM384 32H64C29 32 0 61 0 96V416C0 451 29 480 64 480H384C419 480 448 451 448 416V96C448 61 419 32 384 32ZM345 343C354 352 354 368 345 377C340 382 334 384 328 384S316 382 311 377L296 362C275 376 251 384 224 384C153 384 96 327 96 256S153 128 224 128S352 185 352 256C352 283 344 307 330 328L345 343Z"/></svg>