<svg xmlns="http://www.w3.org/2000/svg" viewBox="0 0 448 512"><!-- Font Awesome Pro 6.0.0-alpha1 by @fontawesome - https://fontawesome.com License - https://fontawesome.com/license (Commercial License) --><path d="M384 32H64C29 32 0 61 0 96V416C0 451 29 480 64 480H384C419 480 448 451 448 416V96C448 61 419 32 384 32ZM224 128C242 128 256 142 256 160C256 178 242 192 224 192S192 178 192 160C192 142 206 128 224 128ZM264 384H184C171 384 160 373 160 360S171 336 184 336H200V272H192C179 272 168 261 168 248S179 224 192 224H224C237 224 248 235 248 248V336H264C277 336 288 347 288 360S277 384 264 384Z"/></svg>