<svg xmlns="http://www.w3.org/2000/svg" viewBox="0 0 448 512"><!-- Font Awesome Pro 6.0.0-alpha1 by @fontawesome - https://fontawesome.com License - https://fontawesome.com/license (Commercial License) --><path d="M240 192H192V256H240C258 256 272 242 272 224S258 192 240 192ZM384 32H64C29 32 0 61 0 96V416C0 451 29 480 64 480H384C419 480 448 451 448 416V96C448 61 419 32 384 32ZM240 320H192V352C192 370 178 384 160 384S128 370 128 352V160C128 142 142 128 160 128H240C293 128 336 171 336 224S293 320 240 320Z"/></svg>