<svg xmlns="http://www.w3.org/2000/svg" viewBox="0 0 640 512"><!-- Font Awesome Pro 6.0.0-alpha1 by @fontawesome - https://fontawesome.com License - https://fontawesome.com/license (Commercial License) --><path d="M480 32H160C125 32 96 61 96 96V416C96 451 125 480 160 480H480C515 480 544 451 544 416V96C544 61 515 32 480 32ZM463 159L399 367C396 377 387 384 376 384H376C365 384 356 377 353 366L320 244L287 366C284 377 275 384 264 384C254 384 244 377 241 367L177 159C173 146 180 133 193 129C206 125 219 132 223 145L262 273L297 146C300 135 309 128 320 128S340 135 343 146L378 273L417 145C421 132 434 125 447 129C460 133 467 146 463 159Z"/></svg>