<svg xmlns="http://www.w3.org/2000/svg" viewBox="0 0 448 512"><!-- Font Awesome Pro 6.0.0-alpha1 by @fontawesome - https://fontawesome.com License - https://fontawesome.com/license (Commercial License) --><path d="M384 32H64C29 32 0 61 0 96V416C0 451 29 480 64 480H384C419 480 448 451 448 416V96C448 61 419 32 384 32ZM160 96C169 96 176 103 176 112V160H192C210 160 224 174 224 192V192C224 210 210 224 192 224H176V400C176 409 169 416 160 416H128C119 416 112 409 112 400V224H96C78 224 64 210 64 192V192C64 174 78 160 96 160H112V112C112 103 119 96 128 96H160ZM320 96C329 96 336 103 336 112V288H352C370 288 384 302 384 320V320C384 338 370 352 352 352H336V400C336 409 329 416 320 416H288C279 416 272 409 272 400V352H256C238 352 224 338 224 320V320C224 302 238 288 256 288H272V112C272 103 279 96 288 96H320Z"/></svg>