<svg xmlns="http://www.w3.org/2000/svg" viewBox="0 0 448 512"><!-- Font Awesome Pro 6.0.0-alpha1 by @fontawesome - https://fontawesome.com License - https://fontawesome.com/license (Commercial License) --><path d="M384 32H64C29 32 0 61 0 96V416C0 451 29 480 64 480H384C419 480 448 451 448 416V96C448 61 419 32 384 32ZM280 308L200 378C195 382 190 384 184 384C177 384 171 381 166 376C157 366 158 351 168 342L198 316C158 305 128 268 128 224C128 171 171 128 224 128S320 171 320 224C320 265 292 297 280 308ZM224 176C198 176 176 198 176 224S198 272 224 272C245 272 264 258 270 238C271 233 272 229 272 224C272 198 250 176 224 176Z"/></svg>