<svg xmlns="http://www.w3.org/2000/svg" viewBox="0 0 640 512"><!-- Font Awesome Pro 6.0.0-alpha1 by @fontawesome - https://fontawesome.com License - https://fontawesome.com/license (Commercial License) --><path d="M480 32H160C125 32 96 61 96 96V416C96 451 125 480 160 480H480C515 480 544 451 544 416V96C544 61 515 32 480 32ZM392 384H248C238 384 229 378 226 369C222 359 225 349 232 342L340 244C347 237 352 227 352 216S347 196 340 188C323 172 297 172 281 188L270 199C260 208 245 208 236 198C226 189 227 174 236 164L247 154C282 120 338 120 373 154C390 170 400 193 400 216S390 262 373 279L310 336H392C405 336 416 347 416 360S405 384 392 384Z"/></svg>