<svg xmlns="http://www.w3.org/2000/svg" viewBox="0 0 448 512"><!-- Font Awesome Pro 6.0.0-alpha1 by @fontawesome - https://fontawesome.com License - https://fontawesome.com/license (Commercial License) --><path d="M384 32H64C29 32 0 61 0 96V416C0 451 29 480 64 480H384C419 480 448 451 448 416V96C448 61 419 32 384 32ZM384 352C384 361 377 368 368 368H320V384C320 402 306 416 288 416H288C270 416 256 402 256 384V368H80C71 368 64 361 64 352V320C64 311 71 304 80 304H256V288C256 270 270 256 288 256H288C306 256 320 270 320 288V304H368C377 304 384 311 384 320V352ZM384 192C384 201 377 208 368 208H192V224C192 242 178 256 160 256H160C142 256 128 242 128 224V208H80C71 208 64 201 64 192V160C64 151 71 144 80 144H128V128C128 110 142 96 160 96H160C178 96 192 110 192 128V144H368C377 144 384 151 384 160V192Z"/></svg>