<svg xmlns="http://www.w3.org/2000/svg" viewBox="0 0 448 512"><!-- Font Awesome Pro 6.0.0-alpha1 by @fontawesome - https://fontawesome.com License - https://fontawesome.com/license (Commercial License) --><path d="M224 176C198 176 176 198 176 224V288C176 314 198 336 224 336S272 314 272 288V224C272 198 250 176 224 176ZM384 32H64C29 32 0 61 0 96V416C0 451 29 480 64 480H384C419 480 448 451 448 416V96C448 61 419 32 384 32ZM320 288C320 341 277 384 224 384S128 341 128 288V224C128 171 171 128 224 128S320 171 320 224V288Z"/></svg>