<svg xmlns="http://www.w3.org/2000/svg" viewBox="0 0 640 512"><!-- Font Awesome Pro 6.0.0-alpha1 by @fontawesome - https://fontawesome.com License - https://fontawesome.com/license (Commercial License) --><path d="M480 32H160C125 32 96 61 96 96V416C96 451 125 480 160 480H480C515 480 544 451 544 416V96C544 61 515 32 480 32ZM445 163L341 371C337 379 329 384 320 384S303 379 299 371L195 163C189 151 193 136 205 131C217 125 232 129 237 141L320 306L403 141C408 129 423 125 435 131C447 136 451 151 445 163Z"/></svg>