<svg xmlns="http://www.w3.org/2000/svg" viewBox="0 0 448 512"><!-- Font Awesome Pro 6.0.0-alpha1 by @fontawesome - https://fontawesome.com License - https://fontawesome.com/license (Commercial License) --><path d="M222 176H176V336H222C267 336 304 300 304 256C304 212 267 176 222 176ZM384 32H64C29 32 0 61 0 96V416C0 451 29 480 64 480H384C419 480 448 451 448 416V96C448 61 419 32 384 32ZM222 384H152C139 384 128 373 128 360V152C128 139 139 128 152 128H222C294 128 352 185 352 256C352 327 294 384 222 384Z"/></svg>