<svg xmlns="http://www.w3.org/2000/svg" viewBox="0 0 448 512"><!-- Font Awesome Pro 6.0.0-alpha1 by @fontawesome - https://fontawesome.com License - https://fontawesome.com/license (Commercial License) --><path d="M384 32H64C29 32 0 61 0 96V416C0 451 29 480 64 480H384C419 480 448 451 448 416V96C448 61 419 32 384 32ZM244 242L316 346C323 357 321 372 310 380C306 383 301 384 296 384C288 384 281 380 276 374L207 273L176 304V360C176 373 165 384 152 384S128 373 128 360V152C128 139 139 128 152 128S176 139 176 152V237L279 135C289 126 304 126 313 135C322 145 322 160 313 169L241 240C242 241 243 241 244 242Z"/></svg>