<svg xmlns="http://www.w3.org/2000/svg" viewBox="0 0 448 512"><!-- Font Awesome Pro 6.0.0-alpha1 by @fontawesome - https://fontawesome.com License - https://fontawesome.com/license (Commercial License) --><path d="M384 32H64C29 32 0 61 0 96V416C0 451 29 480 64 480H384C419 480 448 451 448 416V96C448 61 419 32 384 32ZM346 168L248 282V360C248 373 237 384 224 384S200 373 200 360V282L102 168C93 158 94 142 104 134C114 125 130 126 138 136L224 236L310 136C318 126 334 125 344 134C354 142 355 158 346 168Z"/></svg>