<svg xmlns="http://www.w3.org/2000/svg" viewBox="0 0 576 512"><!-- Font Awesome Pro 6.0.0-alpha1 by @fontawesome - https://fontawesome.com License - https://fontawesome.com/license (Commercial License) --><path d="M571 251L549 229C543 223 532 223 526 229L480 275L434 229C428 222 417 222 411 229L389 251C382 257 382 268 389 274L435 320L389 366C382 372 382 383 389 389L411 411C417 418 428 418 434 411L480 365L526 411C532 418 542 418 549 411L571 389C577 383 577 372 571 366L525 320L571 274C578 268 578 258 571 251ZM560 0H320C302 0 286 12 281 30L195 363L131 245C124 232 111 224 96 224H16C7 224 0 231 0 240V288C0 297 7 304 16 304H72L173 491C180 504 193 512 208 512C210 512 211 512 213 512C229 510 243 498 247 482L351 80H560C569 80 576 73 576 64V16C576 7 569 0 560 0Z"/></svg>