<svg xmlns="http://www.w3.org/2000/svg" viewBox="0 0 640 512"><!-- Font Awesome Pro 6.0.0-alpha1 by @fontawesome - https://fontawesome.com License - https://fontawesome.com/license (Commercial License) --><path d="M480 32H160C125 32 96 61 96 96V416C96 451 125 480 160 480H480C515 480 544 451 544 416V96C544 61 515 32 480 32ZM432 275C432 335 382 384 320 384S208 335 208 275V152C208 139 219 128 232 128S256 139 256 152V275C256 309 285 336 320 336S384 309 384 275V152C384 139 395 128 408 128S432 139 432 152V275Z"/></svg>