<svg xmlns="http://www.w3.org/2000/svg" viewBox="0 0 512 512"><!-- Font Awesome Pro 6.0.0-alpha1 by @fontawesome - https://fontawesome.com License - https://fontawesome.com/license (Commercial License) --><path d="M464 448H449C467 430 480 406 480 384C480 358 458 331 432 323V224H480C500 224 516 205 511 185C501 136 467 96 416 96V64C368 64 342 127 327 172L288 288V144C288 64 224 0 144 0S0 64 0 144C0 213 48 270 112 284C102 306 96 329 96 355C97 443 176 512 264 512H496C505 512 512 505 512 496C512 470 490 448 464 448ZM416 160C416 151 423 144 432 144C441 144 448 151 448 160S441 176 432 176C423 176 416 169 416 160Z"/></svg>