<svg xmlns="http://www.w3.org/2000/svg" viewBox="0 0 512 512"><!-- Font Awesome Pro 6.0.0-alpha1 by @fontawesome - https://fontawesome.com License - https://fontawesome.com/license (Commercial License) --><path d="M32 512H480V448H32V512ZM416 256H350C333 256 320 243 320 226V217C320 190 329 164 341 140C351 122 354 101 350 78C343 40 312 8 273 1C212 -9 160 37 160 96C160 110 163 123 169 136C182 165 192 195 192 227C192 243 178 256 162 256H96C43 256 0 299 0 352V416H512V352C512 299 469 256 416 256Z"/></svg>