<svg xmlns="http://www.w3.org/2000/svg" viewBox="0 0 512 512"><!-- Font Awesome Pro 6.0.0-alpha1 by @fontawesome - https://fontawesome.com License - https://fontawesome.com/license (Commercial License) --><path d="M490 363L466 405C460 416 445 420 433 414L304 339V488C304 501 294 512 280 512H232C219 512 208 501 208 488V339L79 414C68 420 53 416 46 405L22 363C16 352 20 337 31 330L160 256L31 182C20 175 16 160 22 149L46 107C53 96 68 92 79 98L208 173V24C208 11 219 0 232 0H280C294 0 304 11 304 24V173L433 98C445 92 459 96 466 107L490 149C497 160 493 175 481 182L352 256L481 330C493 337 497 352 490 363Z"/></svg>