<svg xmlns="http://www.w3.org/2000/svg" viewBox="0 0 576 512"><!-- Font Awesome Pro 6.0.0-alpha1 by @fontawesome - https://fontawesome.com License - https://fontawesome.com/license (Commercial License) --><path d="M224 208C198 208 176 230 176 256S198 304 224 304S272 282 272 256S251 208 224 208ZM560 224C569 224 576 216 576 208V155C576 148 572 142 566 140L311 48C256 27 194 26 139 49C-4 111 0 256 0 256S-4 401 139 463C194 486 256 485 311 464L328 458L331 462C340 474 354 480 368 480H432C450 480 466 470 474 455C483 439 482 421 472 406L566 372C572 370 576 363 576 357V304C576 296 569 288 560 288H416V224H560ZM80 272C71 272 64 265 64 256C64 247 71 240 80 240S96 247 96 256C96 265 89 272 80 272ZM112 368C103 368 96 361 96 352S103 336 112 336S128 343 128 352S121 368 112 368ZM112 176C103 176 96 169 96 160S103 144 112 144S128 151 128 160S121 176 112 176ZM224 336C180 336 144 300 144 256S180 176 224 176C268 176 304 212 304 256S268 336 224 336Z"/></svg>