<svg xmlns="http://www.w3.org/2000/svg" viewBox="0 0 512 512"><!-- Font Awesome Pro 6.0.0-alpha1 by @fontawesome - https://fontawesome.com License - https://fontawesome.com/license (Commercial License) --><path d="M119 153C124 158 130 160 136 160S148 158 153 153C162 144 162 128 153 119L105 71C96 62 80 62 71 71S62 96 71 105L119 153ZM376 160C382 160 388 158 393 153L441 105C450 96 450 80 441 71S416 62 407 71L359 119C350 128 350 144 359 153C364 158 370 160 376 160ZM393 359C388 354 382 352 376 352S364 354 359 359C350 368 350 384 359 393L407 441C416 450 432 450 441 441S450 416 441 407L393 359ZM136 352C130 352 124 354 119 359L71 407C62 416 62 432 71 441S96 450 105 441L153 393C162 384 162 368 153 359C148 354 142 352 136 352ZM494 232L322 190L280 18C277 7 267 0 256 0S235 7 232 18L190 190L18 232C7 235 0 245 0 256S7 277 18 280L190 322L232 494C235 505 245 512 256 512S277 505 279 494L322 322L494 280C505 277 512 267 512 256S505 235 494 232Z"/></svg>