<svg xmlns="http://www.w3.org/2000/svg" viewBox="0 0 576 512"><!-- Font Awesome Pro 6.0.0-alpha1 by @fontawesome - https://fontawesome.com License - https://fontawesome.com/license (Commercial License) --><path d="M560 32H528C519 32 512 39 512 48V216L437 197C413 138 355 96 288 96S163 138 139 197L64 216V48C64 39 57 32 48 32H16C7 32 0 39 0 48V464C0 473 7 480 16 480H48C57 480 64 473 64 464V296L139 315C163 374 221 416 288 416S413 374 437 315L512 296V464C512 473 519 480 528 480H560C569 480 576 473 576 464V48C576 39 569 32 560 32ZM300 161C317 163 333 170 347 181L324 203C317 198 309 195 300 193V161ZM276 161V193C267 195 259 198 252 203L229 181C243 170 259 163 276 161ZM213 197L235 220C230 227 227 235 225 244H193C195 227 202 211 213 197ZM193 268H225C227 277 230 285 235 292L213 315C202 301 195 285 193 268ZM276 351C259 349 243 342 229 331L252 309C259 314 267 317 276 319V351ZM256 256C256 238 270 224 288 224S320 238 320 256S306 288 288 288S256 274 256 256ZM300 351V319C309 317 317 314 324 309L347 331C333 342 317 349 300 351ZM363 315L341 292C346 285 349 277 351 268H383C381 285 374 301 363 315ZM351 244C349 235 346 227 341 220L363 197C374 211 381 227 383 244H351Z"/></svg>