<svg xmlns="http://www.w3.org/2000/svg" viewBox="0 0 640 512"><!-- Font Awesome Pro 6.0.0-alpha1 by @fontawesome - https://fontawesome.com License - https://fontawesome.com/license (Commercial License) --><path d="M448 64C342 64 256 150 256 256C256 362 342 448 448 448C554 448 640 362 640 256C640 150 554 64 448 64ZM448 320C413 320 384 291 384 256S413 192 448 192S512 221 512 256S483 320 448 320ZM448 224C430 224 416 238 416 256S430 288 448 288S480 274 480 256S466 224 448 224ZM240 128C240 110 226 96 208 96H24C11 96 0 107 0 120V136C0 149 11 160 24 160H65L136 217L131 218C111 220 96 236 96 256S111 292 131 294L136 295L65 352H24C11 352 0 363 0 376V392C0 405 11 416 24 416H208C226 416 240 402 240 384S226 352 208 352H141L204 301L229 303C226 287 224 272 224 256S226 225 229 209L204 211L141 160H208C226 160 240 146 240 128Z"/></svg>