<svg xmlns="http://www.w3.org/2000/svg" viewBox="0 0 576 512"><!-- Font Awesome Pro 6.0.0-alpha1 by @fontawesome - https://fontawesome.com License - https://fontawesome.com/license (Commercial License) --><path d="M529 171L382 150L317 18C311 6 299 0 288 0C277 0 265 6 259 18L194 150L47 171C21 175 11 208 30 226L136 329L111 475C107 495 124 512 142 512C147 512 152 511 157 508L288 440L419 508C424 511 429 512 434 512C452 512 469 495 465 475L440 329L546 226C565 208 555 175 529 171ZM407 295L389 312L393 337L413 451L310 397L288 385V68L339 171L350 194L375 198L490 214L407 295Z"/></svg>