<svg xmlns="http://www.w3.org/2000/svg" viewBox="0 0 448 512"><!-- Font Awesome Pro 6.0.0-alpha1 by @fontawesome - https://fontawesome.com License - https://fontawesome.com/license (Commercial License) --><path d="M398 191L399 190L426 164C432 158 432 147 426 141L403 118C397 112 387 112 380 118L356 143C328 120 294 104 256 98V64H288C297 64 304 57 304 48V16C304 7 297 0 288 0H160C151 0 144 7 144 16V48C144 57 151 64 160 64H192V98C94 113 19 196 16 298C13 411 107 510 221 512C337 514 432 420 432 304C432 262 420 223 398 191ZM248 328C248 341 237 352 224 352S200 341 200 328V216C200 203 211 192 224 192S248 203 248 216V328Z"/></svg>