<svg xmlns="http://www.w3.org/2000/svg" viewBox="0 0 448 512"><!-- Font Awesome Pro 6.0.0-alpha1 by @fontawesome - https://fontawesome.com License - https://fontawesome.com/license (Commercial License) --><path d="M300 256V352C300 359 295 364 288 364S276 359 276 352V256C276 249 281 244 288 244S300 249 300 256ZM432 304C432 420 337 514 221 512C107 510 13 411 16 298C19 196 94 113 192 98V64H160C151 64 144 57 144 48V16C144 7 151 0 160 0H288C297 0 304 7 304 16V48C304 57 297 64 288 64H256V98C294 104 328 120 356 143L380 118C387 112 397 112 403 118L426 141C432 147 432 157 426 164L399 190L399 191C420 223 432 262 432 304ZM164 364C166 350 172 336 182 326C201 307 212 281 212 252C212 226 190 204 164 204S116 226 116 252C116 263 125 272 136 272S156 263 156 252C156 243 172 241 172 254C172 270 165 286 154 298C135 317 124 343 124 370V384C124 395 133 404 144 404H192C203 404 212 395 212 384S203 364 192 364H164ZM340 256C340 227 317 204 288 204S236 227 236 256V352C236 381 259 404 288 404S340 381 340 352V256Z"/></svg>