<svg xmlns="http://www.w3.org/2000/svg" viewBox="0 0 640 512"><!-- Font Awesome Pro 6.0.0-alpha1 by @fontawesome - https://fontawesome.com License - https://fontawesome.com/license (Commercial License) --><path d="M160 384V250C148 254 137 256 124 256C119 256 113 256 108 255C104 254 100 253 96 252V464C96 490 118 512 144 512H496C505 512 514 509 521 505L367 384H160ZM124 224C135 224 145 222 155 218L49 135C44 176 69 217 112 223C116 224 120 224 124 224ZM631 469L544 401V252C540 253 536 254 532 255C526 256 521 256 515 256C503 256 491 254 480 250V351L301 211C308 206 314 201 320 195C336 213 359 224 385 224C411 224 434 213 450 195C466 213 489 224 515 224C520 224 524 224 528 223C583 216 609 151 580 104L522 13C517 5 508 0 498 0H142C132 0 123 5 118 13L95 49L39 5C34 2 29 0 24 0C17 0 10 3 5 9C-3 20 -1 35 9 43L601 507C612 515 627 513 635 503C643 492 641 477 631 469Z"/></svg>