<svg xmlns="http://www.w3.org/2000/svg" viewBox="0 0 512 512"><!-- Font Awesome Pro 6.0.0-alpha1 by @fontawesome - https://fontawesome.com License - https://fontawesome.com/license (Commercial License) --><path d="M192 304L205 404C207 420 220 432 236 432H276C292 432 306 420 307 404L320 304C338 304 352 290 352 272V224C352 189 323 160 288 160H224C189 160 160 189 160 224V272C160 290 174 304 192 304ZM256 128C291 128 320 99 320 64S291 0 256 0S192 29 192 64S221 128 256 128ZM368 344V390C420 395 464 406 464 424C464 456 333 464 256 464C179 464 48 456 48 424C48 404 99 394 144 390V344C84 352 0 374 0 424C0 493 161 512 256 512S512 493 512 424C512 378 443 355 368 344Z"/></svg>