<svg xmlns="http://www.w3.org/2000/svg" viewBox="0 0 448 512"><!-- Font Awesome Pro 6.0.0-alpha1 by @fontawesome - https://fontawesome.com License - https://fontawesome.com/license (Commercial License) --><path d="M368 128H320V48C320 22 298 0 272 0H176C150 0 128 22 128 48V128H80C54 128 32 150 32 176V432C32 458 54 480 80 480H96V496C96 505 103 512 112 512H144C153 512 160 505 160 496V480H288V496C288 505 295 512 304 512H336C345 512 352 505 352 496V480H368C394 480 416 458 416 432V176C416 150 394 128 368 128ZM176 48H272V128H176V48ZM336 384H112C103 384 96 377 96 368C96 359 103 352 112 352H336C345 352 352 359 352 368C352 377 345 384 336 384ZM336 256H112C103 256 96 249 96 240C96 231 103 224 112 224H336C345 224 352 231 352 240C352 249 345 256 336 256Z"/></svg>