<svg xmlns="http://www.w3.org/2000/svg" viewBox="0 0 512 512"><!-- Font Awesome Pro 6.0.0-alpha1 by @fontawesome - https://fontawesome.com License - https://fontawesome.com/license (Commercial License) --><path d="M120 154C125 159 131 161 137 161S149 159 154 154C164 145 164 130 154 120L109 75C100 66 84 66 75 75S66 100 75 109L120 154ZM256 112C269 112 280 101 280 88V24C280 11 269 0 256 0S232 11 232 24V88C232 101 243 112 256 112ZM112 256C112 243 101 232 88 232H24C11 232 0 243 0 256S11 280 24 280H88C101 280 112 269 112 256ZM375 161C381 161 387 159 392 154L437 109C446 100 446 84 437 75S412 66 403 75L358 120C348 130 348 145 358 154C363 159 369 161 375 161ZM256 400C243 400 232 411 232 424V488C232 501 243 512 256 512S280 501 280 488V424C280 411 269 400 256 400ZM120 358L75 403C66 412 66 428 75 437C80 442 86 444 92 444S104 442 109 437L154 392C164 382 164 367 154 358S130 348 120 358ZM488 232H424C411 232 400 243 400 256S411 280 424 280H488C501 280 512 269 512 256S501 232 488 232ZM392 358C382 348 367 348 358 358S348 382 358 392L403 437C408 442 414 444 420 444S432 442 437 437C446 428 446 412 437 403L392 358ZM256 144C194 144 144 194 144 256C144 318 194 368 256 368S368 318 368 256C368 194 318 144 256 144Z"/></svg>