<svg xmlns="http://www.w3.org/2000/svg" viewBox="0 0 576 512"><!-- Font Awesome Pro 6.0.0-alpha1 by @fontawesome - https://fontawesome.com License - https://fontawesome.com/license (Commercial License) --><path d="M574 280L529 99C523 75 507 55 486 43C464 31 439 29 415 37L400 42C392 44 387 54 390 62L395 77C398 85 407 90 415 87L429 83C439 79 452 79 462 85C472 90 479 99 482 110L521 264C494 256 467 252 439 252C405 252 366 259 325 278H251C210 259 171 252 136 252C109 252 82 256 55 264L94 110C97 99 104 90 114 85C124 79 136 79 147 83L160 87C164 89 169 88 173 86C176 84 179 81 181 77L186 62C189 53 184 44 176 42L161 37C137 29 112 31 90 43C69 55 53 75 47 99L2 280C1 286 0 291 0 296V366C0 429 52 480 115 480H152C213 480 263 434 267 375L270 336H306L309 375C313 434 363 480 424 480H461C524 480 576 429 576 366V296C576 291 575 286 574 280ZM64 368C64 367 64 367 64 366V328C87 320 112 316 137 316C146 316 155 317 164 318L64 368ZM372 366L370 329C392 320 416 316 440 316C449 316 459 317 468 318L372 366Z"/></svg>