<svg xmlns="http://www.w3.org/2000/svg" viewBox="0 0 576 512"><!-- Font Awesome Pro 6.0.0-alpha1 by @fontawesome - https://fontawesome.com License - https://fontawesome.com/license (Commercial License) --><path d="M62 432H168C187 385 232 352 286 352S385 385 404 432H509L539 389C545 380 540 367 529 365L420 346L401 237C399 226 386 220 377 227L286 290L195 227C186 220 173 226 171 237L151 346L42 365C31 367 26 380 33 389L62 432ZM203 432H368C352 403 321 384 286 384S220 403 203 432ZM560 464H16C7 464 0 471 0 480V496C0 505 7 512 16 512H560C569 512 576 505 576 496V480C576 471 569 464 560 464ZM268 217C269 218 271 219 273 220C274 220 275 221 277 222C280 223 284 224 288 224S296 223 299 222C301 221 302 220 303 220C305 219 307 218 308 217L388 153C402 142 404 122 393 108C382 94 362 92 348 103L320 125V32C320 14 306 0 288 0S256 14 256 32V125L228 103C214 92 194 94 183 108C172 122 174 142 188 153L268 217Z"/></svg>