<svg xmlns="http://www.w3.org/2000/svg" viewBox="0 0 512 512"><!-- Font Awesome Pro 6.0.0-alpha1 by @fontawesome - https://fontawesome.com License - https://fontawesome.com/license (Commercial License) --><path d="M309 389L389 309L93 13L15 0C6 -1 -1 6 0 15L13 93L309 389ZM507 462L448 403L480 344C483 338 482 330 477 325L459 307C453 301 443 301 437 307L307 437C301 443 301 453 307 459L325 477C330 482 338 483 344 480L403 448L462 507C468 514 479 514 485 507L507 485C514 479 514 468 507 462ZM499 93L512 15C513 6 506 -1 497 0L419 13L279 153L359 233L499 93ZM153 279L100 332L75 307C69 301 59 301 53 307L35 325C30 330 29 338 32 344L64 403L5 462C-1 468 -1 479 5 485L27 507C34 514 44 514 50 507L109 448L168 480C175 483 182 482 187 477L205 459C211 453 211 443 205 437L180 412L233 359L153 279Z"/></svg>