<svg xmlns="http://www.w3.org/2000/svg" viewBox="0 0 512 512"><!-- Font Awesome Pro 6.0.0-alpha1 by @fontawesome - https://fontawesome.com License - https://fontawesome.com/license (Commercial License) --><path d="M128 361L21 469L43 491L151 384L128 361ZM94 327L9 412C-3 425 -3 445 9 457L117 350L94 327ZM309 256H172C168 256 164 258 161 261L106 316L196 406L320 283C331 273 323 256 309 256ZM505 7C496 -2 481 -2 472 6L226 232H329L506 40C514 31 514 16 505 7ZM55 503C67 515 87 515 100 503L185 418L162 395L55 503Z"/></svg>