<svg xmlns="http://www.w3.org/2000/svg" viewBox="0 0 512 512"><!-- Font Awesome Pro 6.0.0-alpha1 by @fontawesome - https://fontawesome.com License - https://fontawesome.com/license (Commercial License) --><path d="M16 160H80V208C80 217 87 224 96 224H128C137 224 144 217 144 208V160H208C217 160 224 153 224 144V112C224 103 217 96 208 96H16C7 96 0 103 0 112V144C0 153 7 160 16 160ZM16 64H208C217 64 224 57 224 48V16C224 7 217 0 208 0H16C7 0 0 7 0 16V48C0 57 7 64 16 64ZM478 0L329 23C315 26 304 39 304 55V162C299 161 293 160 288 160C253 160 224 182 224 208S253 256 288 256C323 256 352 235 352 208V100L464 82V130C459 129 453 128 448 128C413 128 384 150 384 176S413 224 448 224C483 224 512 203 512 176V32C512 13 496 -2 478 0ZM328 368C350 368 368 350 368 328S350 288 328 288S288 306 288 328S306 368 328 368ZM220 384L197 361C191 355 181 355 174 361L146 389L124 366C150 342 151 302 127 276C103 250 62 249 37 273S9 337 33 363L26 370C-3 400 -9 448 16 481C31 499 52 510 76 512C99 513 122 505 138 488L147 480L174 507C180 513 191 513 197 507L219 485C226 478 226 468 219 462L192 434L220 406C226 400 226 390 220 384ZM80 304C89 304 96 311 96 320S89 336 80 336S64 329 64 320S71 304 80 304ZM93 443C86 450 75 450 68 443C61 436 61 425 68 418L77 410L101 434L93 443ZM485 293C478 286 468 286 462 293L293 462C286 468 286 478 293 485L315 507C321 513 332 513 338 507L507 338C513 332 513 321 507 315L485 293ZM472 432C450 432 432 450 432 472S450 512 472 512S512 494 512 472S494 432 472 432Z"/></svg>