<svg xmlns="http://www.w3.org/2000/svg" viewBox="0 0 512 512"><!-- Font Awesome Pro 6.0.0-alpha1 by @fontawesome - https://fontawesome.com License - https://fontawesome.com/license (Commercial License) --><path d="M505 64L441 0C432 -9 416 -9 407 0S398 25 407 34L422 49L384 87L329 32C320 23 304 23 295 32C287 40 286 53 293 63L442 212C446 215 451 217 456 217C462 217 468 215 473 210C482 201 482 185 473 176L418 121L456 83L471 98C476 103 482 105 488 105S500 103 505 98C514 89 514 73 505 64ZM209 147L267 206C274 212 274 222 267 228C264 231 260 233 256 233S248 231 245 228L186 170L145 211L203 270C210 276 210 286 203 292C200 295 196 297 192 297S184 295 181 292L122 234L83 273C71 285 64 301 64 318V407L7 464C-2 473 -2 489 7 498C12 503 18 505 24 505S36 503 41 498L98 441H187C204 441 220 434 232 422L420 235L270 85L209 147Z"/></svg>