<svg xmlns="http://www.w3.org/2000/svg" viewBox="0 0 512 512"><!-- Font Awesome Pro 6.0.0-alpha1 by @fontawesome - https://fontawesome.com License - https://fontawesome.com/license (Commercial License) --><path d="M416 288C444 288 470 297 491 313C530 229 514 125 443 58C355 -25 215 -16 130 69L75 124C74 125 73 127 71 129L302 359C323 317 366 288 416 288ZM290 393L52 154C21 206 27 265 67 305L103 341L11 423C-3 434 -4 456 9 469L26 486L43 503C56 516 77 515 89 501L170 408L206 444C233 471 270 483 305 479C295 460 288 439 288 416C288 408 289 400 290 393ZM416 320C363 320 320 363 320 416C320 469 363 512 416 512C469 512 512 469 512 416C512 363 469 320 416 320Z"/></svg>