<svg xmlns="http://www.w3.org/2000/svg" viewBox="0 0 640 512"><!-- Font Awesome Pro 6.0.0-alpha1 by @fontawesome - https://fontawesome.com License - https://fontawesome.com/license (Commercial License) --><path d="M576 64H64C29 64 0 93 0 128V384C0 419 29 448 64 448H576C611 448 640 419 640 384V128C640 93 611 64 576 64ZM64 296C64 292 68 288 72 288H88C92 288 96 292 96 296V312C96 316 92 320 88 320H72C68 320 64 316 64 312V296ZM352 376C352 380 348 384 344 384H72C68 384 64 380 64 376V360C64 356 68 352 72 352H344C348 352 352 356 352 360V376ZM128 312V296C128 292 132 288 136 288H152C156 288 160 292 160 296V312C160 316 156 320 152 320H136C132 320 128 316 128 312ZM192 312V296C192 292 196 288 200 288H216C220 288 224 292 224 296V312C224 316 220 320 216 320H200C196 320 192 316 192 312ZM256 312V296C256 292 260 288 264 288H280C284 288 288 292 288 296V312C288 316 284 320 280 320H264C260 320 256 316 256 312ZM352 312C352 316 348 320 344 320H328C324 320 320 316 320 312V296C320 292 324 288 328 288H344C348 288 352 292 352 296V312ZM352 238C352 248 344 256 335 256H81C72 256 64 248 64 238V146C64 136 72 128 81 128H335C344 128 352 136 352 146V238ZM576 376C576 380 572 384 568 384H392C388 384 384 380 384 376V360C384 356 388 352 392 352H568C572 352 576 356 576 360V376Z"/></svg>