<svg xmlns="http://www.w3.org/2000/svg" viewBox="0 0 512 512"><!-- Font Awesome Pro 6.0.0-alpha1 by @fontawesome - https://fontawesome.com License - https://fontawesome.com/license (Commercial License) --><path d="M256 192C126 192 18 299 0 439C-2 461 13 480 32 480H479C499 480 514 461 512 439C494 299 386 192 256 192ZM112 416C103 416 96 409 96 400S103 384 112 384C121 384 128 391 128 400S121 416 112 416ZM176 352C167 352 160 345 160 336S167 320 176 320S192 327 192 336S185 352 176 352ZM7 279C10 289 11 298 12 308C64 218 155 160 256 160S448 218 500 308C501 298 502 289 505 279C505 279 505 279 505 279C510 262 516 242 509 224C502 205 484 195 469 186C459 180 449 174 445 168C440 162 438 150 435 138C431 120 427 100 411 88C396 75 375 77 357 78C347 79 335 79 328 77C321 74 313 67 305 59C276 32 255 15 207 59C199 66 191 74 184 77C177 79 165 78 155 78C137 76 116 75 101 88C85 100 81 120 77 138C74 150 72 162 67 168C63 174 53 180 43 186C28 195 10 205 3 224C-4 242 2 262 7 279C7 279 7 279 7 279Z"/></svg>