<svg xmlns="http://www.w3.org/2000/svg" viewBox="0 0 640 512"><!-- Font Awesome Pro 6.0.0-alpha1 by @fontawesome - https://fontawesome.com License - https://fontawesome.com/license (Commercial License) --><path d="M629 190L544 217V464C544 473 537 480 528 480H496C487 480 480 473 480 464V238L416 259V464C416 473 409 480 400 480H368C359 480 352 473 352 464V279L288 300V464C288 473 281 480 272 480H240C231 480 224 473 224 464V321L160 341V464C160 473 153 480 144 480H112C103 480 96 473 96 464V362L31 383C23 386 13 381 11 373L1 342C-2 334 3 325 11 322L96 295V48C96 39 103 32 112 32H144C153 32 160 39 160 48V274L224 253V48C224 39 231 32 240 32H272C281 32 288 39 288 48V233L352 212V48C352 39 359 32 368 32H400C409 32 416 39 416 48V191L480 171V48C480 39 487 32 496 32H528C537 32 544 39 544 48V150L609 129C618 126 627 131 629 139L639 170C642 178 637 187 629 190Z"/></svg>