<svg xmlns="http://www.w3.org/2000/svg" viewBox="0 0 640 512"><!-- Font Awesome Pro 6.0.0-alpha1 by @fontawesome - https://fontawesome.com License - https://fontawesome.com/license (Commercial License) --><path d="M256 192C221 192 192 221 192 256C192 291 221 320 256 320S320 291 320 256C320 221 291 192 256 192ZM608 432H419C466 388 496 326 496 256C496 123 389 16 256 16S16 123 16 256S123 496 256 496H608C617 496 624 489 624 480V448C624 439 617 432 608 432ZM256 352C203 352 160 309 160 256S203 160 256 160S352 203 352 256S309 352 256 352Z"/></svg>