<svg xmlns="http://www.w3.org/2000/svg" viewBox="0 0 640 512"><!-- Font Awesome Pro 6.0.0-alpha1 by @fontawesome - https://fontawesome.com License - https://fontawesome.com/license (Commercial License) --><path d="M247 224H192V80H273C281 80 288 87 288 95V154C302 142 318 134 336 130V128C336 114 342 101 352 92V63C352 28 274 0 176 0C78 0 0 28 0 63V355C0 371 13 384 29 384H48V416C48 434 62 448 80 448H96C114 448 128 434 128 416V384H192V342C192 313 207 286 231 271L247 224ZM80 328C67 328 56 317 56 304S67 280 80 280S104 291 104 304S93 328 80 328ZM160 224H79C71 224 64 217 64 209V95C64 87 71 80 79 80H160V224ZM607 294L580 213C569 181 539 160 506 160H496V128C496 119 489 112 480 112H384C375 112 368 119 368 128V160H358C325 160 295 181 284 213L257 294C238 301 224 320 224 342V480C224 498 238 512 256 512H272C290 512 304 498 304 480V447H560V480C560 498 574 512 592 512H608C626 512 640 498 640 480V342C640 320 626 301 607 294ZM345 234C347 228 352 224 358 224H506C512 224 517 228 519 234L537 288H327L345 234ZM304 392C291 392 280 381 280 368C280 355 291 344 304 344S328 355 328 368C328 381 317 392 304 392ZM560 392C547 392 536 381 536 368C536 355 547 344 560 344S584 355 584 368C584 381 573 392 560 392Z"/></svg>