<svg xmlns="http://www.w3.org/2000/svg" viewBox="0 0 576 512"><!-- Font Awesome Pro 6.0.0-alpha1 by @fontawesome - https://fontawesome.com License - https://fontawesome.com/license (Commercial License) --><path d="M480 32H96C43 32 0 75 0 128V384C0 437 43 480 96 480H480C533 480 576 437 576 384V128C576 75 533 32 480 32ZM144 336C144 362 122 384 96 384S48 362 48 336V304C48 295 55 288 64 288H128C137 288 144 295 144 304V336ZM144 240C144 249 137 256 128 256H64C55 256 48 249 48 240V208C48 182 70 160 96 160S144 182 144 208V240ZM272 336C272 362 250 384 224 384S176 362 176 336V304C176 295 183 288 192 288H256C265 288 272 295 272 304V336ZM272 242C272 250 266 256 258 256H190C182 256 176 250 176 242V176C176 150 198 128 224 128S272 150 272 176V242ZM400 336C400 362 378 384 352 384S304 362 304 336V304C304 295 311 288 320 288H384C393 288 400 295 400 304V336ZM400 242C400 250 394 256 386 256H318C310 256 304 250 304 242V176C304 150 326 128 352 128S400 150 400 176V242ZM528 336C528 362 506 384 480 384S432 362 432 336V304C432 295 439 288 448 288H512C521 288 528 295 528 304V336ZM528 240C528 249 521 256 512 256H448C439 256 432 249 432 240V208C432 182 454 160 480 160S528 182 528 208V240Z"/></svg>