<svg xmlns="http://www.w3.org/2000/svg" viewBox="0 0 512 512"><!-- Font Awesome Pro 6.0.0-alpha1 by @fontawesome - https://fontawesome.com License - https://fontawesome.com/license (Commercial License) --><path d="M160 323V304C160 295 153 288 144 288S128 295 128 304V323C109 330 96 347 96 368C96 394 118 416 144 416S192 394 192 368C192 347 179 330 160 323ZM256 112C256 50 206 0 144 0S32 50 32 112V278C12 303 0 334 0 368C0 447 65 512 144 512S288 447 288 368C288 334 276 303 256 278V112ZM144 448C100 448 64 412 64 368C64 342 76 319 96 304V112C96 86 118 64 144 64S192 86 192 112V304C212 319 224 342 224 368C224 412 188 448 144 448ZM416 0C363 0 320 43 320 96S363 192 416 192S512 149 512 96S469 0 416 0ZM416 128C398 128 384 114 384 96S398 64 416 64S448 78 448 96S434 128 416 128Z"/></svg>