<svg xmlns="http://www.w3.org/2000/svg" viewBox="0 0 320 512"><!-- Font Awesome Pro 6.0.0-alpha1 by @fontawesome - https://fontawesome.com License - https://fontawesome.com/license (Commercial License) --><path d="M176 323V112C176 103 169 96 160 96S144 103 144 112V323C125 330 112 347 112 368C112 394 134 416 160 416S208 394 208 368C208 347 195 330 176 323ZM272 278V112C272 50 222 0 160 0S48 50 48 112V278C28 303 16 334 16 368C16 447 81 512 160 512S304 447 304 368C304 334 292 303 272 278ZM160 448C116 448 80 412 80 368C80 342 92 319 112 304V112C112 86 134 64 160 64S208 86 208 112V304C228 319 240 342 240 368C240 412 204 448 160 448Z"/></svg>