<svg xmlns="http://www.w3.org/2000/svg" viewBox="0 0 512 512"><!-- Font Awesome Pro 6.0.0-alpha1 by @fontawesome - https://fontawesome.com License - https://fontawesome.com/license (Commercial License) --><path d="M240 47C240 37 239 26 237 16C119 25 25 119 16 237C26 239 37 240 47 240C154 240 240 154 240 47ZM465 240C475 240 486 241 496 242C489 120 392 23 270 16C271 26 272 37 272 47C272 171 171 272 47 272C37 272 26 271 16 270C23 392 120 489 242 496C241 486 240 475 240 465C240 341 341 240 465 240ZM272 465C272 475 273 486 275 496C393 487 487 393 496 275C486 273 475 272 465 272C358 272 272 358 272 465Z"/></svg>