<svg xmlns="http://www.w3.org/2000/svg" viewBox="0 0 640 512"><!-- Font Awesome Pro 6.0.0-alpha1 by @fontawesome - https://fontawesome.com License - https://fontawesome.com/license (Commercial License) --><path d="M368 416H328L339 363L271 309L248 416H208C199 416 192 423 192 432V464C192 473 199 480 208 480H368C377 480 384 473 384 464V432C384 423 377 416 368 416ZM631 469L361 258L392 112H512V144C512 153 519 160 528 160H560C569 160 576 153 576 144V48C576 39 569 32 560 32H144C135 32 128 39 128 48V75L39 5C34 2 29 0 24 0C17 0 10 3 5 9C-3 20 -1 35 9 43L601 507C612 515 627 513 635 503C643 492 641 477 631 469ZM293 204L192 125V112H312L293 204Z"/></svg>