<svg xmlns="http://www.w3.org/2000/svg" viewBox="0 0 448 512"><!-- Font Awesome Pro 6.0.0-alpha1 by @fontawesome - https://fontawesome.com License - https://fontawesome.com/license (Commercial License) --><path d="M363 293C354 283 336 288 336 304V352H112V304C112 290 95 283 85 293L5 373C-2 379 -2 389 5 395L85 475C94 485 112 480 112 464V416H336V464C336 478 353 485 363 475L443 395C450 389 450 379 443 373L363 293ZM432 32H16C7 32 0 39 0 48V128C0 137 7 144 16 144H48C57 144 64 137 64 128V112H184V224H160C151 224 144 231 144 240V272C144 281 151 288 160 288H288C297 288 304 281 304 272V240C304 231 297 224 288 224H264V112H384V128C384 137 391 144 400 144H432C441 144 448 137 448 128V48C448 39 441 32 432 32Z"/></svg>