<svg xmlns="http://www.w3.org/2000/svg" viewBox="0 0 448 512"><!-- Font Awesome Pro 6.0.0-alpha1 by @fontawesome - https://fontawesome.com License - https://fontawesome.com/license (Commercial License) --><path d="M432 32C441 32 448 39 448 48V144C448 153 441 160 432 160H400C391 160 384 153 384 144V112H272V416H304C313 416 320 423 320 432V464C320 473 313 480 304 480H144C135 480 128 473 128 464V432C128 423 135 416 144 416H176V112H64V144C64 153 57 160 48 160H16C7 160 0 153 0 144V48C0 39 7 32 16 32H432Z"/></svg>