<svg xmlns="http://www.w3.org/2000/svg" viewBox="0 0 576 512"><!-- Font Awesome Pro 6.0.0-alpha1 by @fontawesome - https://fontawesome.com License - https://fontawesome.com/license (Commercial License) --><path d="M304 32H16C7 32 0 39 0 48V144C0 153 7 160 16 160H48C57 160 64 153 64 144V112H120V416H80C71 416 64 423 64 432V464C64 473 71 480 80 480H240C249 480 256 473 256 464V432C256 423 249 416 240 416H200V112H256V144C256 153 263 160 272 160H304C313 160 320 153 320 144V48C320 39 313 32 304 32ZM560 368H512V144H560C574 144 581 127 571 117L491 37C485 30 475 30 469 37L389 117C379 126 384 144 400 144H448V368H400C386 368 379 385 389 395L469 475C475 482 485 482 491 475L571 395C581 386 576 368 560 368Z"/></svg>