<svg xmlns="http://www.w3.org/2000/svg" viewBox="0 0 512 512"><!-- Font Awesome Pro 6.0.0-alpha1 by @fontawesome - https://fontawesome.com License - https://fontawesome.com/license (Commercial License) --><path d="M104 0H24C11 0 0 11 0 24V264C0 277 11 288 24 288H104C117 288 128 277 128 264V24C128 11 117 0 104 0ZM490 200C494 193 496 185 496 176V160C496 139 482 121 464 115C464 114 464 113 464 112V96C464 75 451 58 432 51V48C432 22 410 0 384 0H272C244 0 218 10 198 29L160 64V288L175 309C187 327 198 345 213 361C226 374 231 395 236 416C241 439 250 480 276 480C299 480 352 471 352 391C352 362 342 341 332 323C329 317 326 310 324 304H464C490 304 512 282 512 256V240C512 223 503 208 490 200Z"/></svg>