<svg xmlns="http://www.w3.org/2000/svg" viewBox="0 0 640 512"><!-- Font Awesome Pro 6.0.0-alpha1 by @fontawesome - https://fontawesome.com License - https://fontawesome.com/license (Commercial License) --><path d="M640 208V112C640 86 618 64 592 64H48C22 64 0 86 0 112V400C0 426 22 448 48 448H592C618 448 640 426 640 400V304C614 304 592 282 592 256S614 208 640 208ZM304 288H256L200 380C199 382 196 384 193 384H158C153 384 148 379 150 373L176 288H120L98 317C97 319 94 320 92 320H72C67 320 63 315 64 310L80 256L64 202C63 197 67 192 72 192H92C95 192 97 193 98 195L120 224V224L176 224L150 139C148 133 153 128 158 128H193C196 128 199 130 200 132L256 224H304C322 224 352 238 352 256S322 288 304 288ZM432 400C423 400 416 393 416 384C416 375 423 368 432 368S448 375 448 384C448 393 441 400 432 400ZM432 336C423 336 416 329 416 320C416 311 423 304 432 304S448 311 448 320C448 329 441 336 432 336ZM432 272C423 272 416 265 416 256C416 247 423 240 432 240S448 247 448 256C448 265 441 272 432 272ZM432 208C423 208 416 201 416 192C416 183 423 176 432 176S448 183 448 192C448 201 441 208 432 208ZM432 144C423 144 416 137 416 128C416 119 423 112 432 112S448 119 448 128C448 137 441 144 432 144Z"/></svg>