<svg xmlns="http://www.w3.org/2000/svg" viewBox="0 0 512 512"><!-- Font Awesome Pro 6.0.0-alpha1 by @fontawesome - https://fontawesome.com License - https://fontawesome.com/license (Commercial License) --><path d="M512 192V239C512 328 431 398 339 382C304 375 273 354 250 326L184 242C174 231 160 224 145 224C118 224 96 246 96 273V321C96 339 82 353 64 353H32C14 353 0 339 0 321V280C0 202 59 133 137 128C184 125 229 146 259 182L328 269C338 281 352 288 367 288C394 288 416 266 416 239V192C416 174 430 160 448 160H480C498 160 512 174 512 192Z"/></svg>