<svg xmlns="http://www.w3.org/2000/svg" viewBox="0 0 512 512"><!-- Font Awesome Pro 6.0.0-alpha1 by @fontawesome - https://fontawesome.com License - https://fontawesome.com/license (Commercial License) --><path d="M202 290L141 310C159 349 196 377 240 382V318C224 314 211 304 202 290ZM192 256C192 241 198 227 207 216L169 163C144 186 128 219 128 256C128 264 129 272 130 280L192 260C192 259 192 257 192 256ZM256 192C264 192 272 194 279 197L317 144C299 134 278 128 256 128S213 134 195 144L233 197C240 194 248 192 256 192ZM305 216C314 227 320 241 320 256C320 257 320 259 320 260L382 280C383 272 384 264 384 256C384 219 368 186 343 163L305 216ZM256 0C115 0 0 115 0 256S115 512 256 512S512 397 512 256S397 0 256 0ZM256 416C168 416 96 344 96 256S168 96 256 96S416 168 416 256S344 416 256 416ZM272 318V382C316 377 353 349 371 310L310 290C301 304 288 314 272 318ZM288 256C288 238 274 224 256 224S224 238 224 256S238 288 256 288S288 274 288 256Z"/></svg>