<svg xmlns="http://www.w3.org/2000/svg" viewBox="0 0 512 512"><!-- Font Awesome Pro 6.0.0-alpha1 by @fontawesome - https://fontawesome.com License - https://fontawesome.com/license (Commercial License) --><path d="M256 288C238 288 224 302 224 320S238 352 256 352S288 338 288 320S274 288 256 288ZM246 256H266C274 256 281 250 282 242L294 114C295 104 288 96 278 96H234C224 96 217 104 218 114L230 242C231 250 238 256 246 256ZM474 142C458 113 448 81 448 46V17C448 8 441 0 432 0H400C391 0 384 7 384 16V64C384 96 399 139 419 173C438 206 448 245 448 284C448 325 435 367 412 402C406 411 396 416 386 416H126C116 416 106 411 100 402C77 367 64 325 64 284C64 245 74 206 93 173C113 139 128 96 128 64V16C128 7 121 0 112 0H80C71 0 64 8 64 17V46C64 81 54 113 38 141C14 183 0 232 0 284C0 361 33 430 80 480V496C80 505 87 512 96 512H128C137 512 144 505 144 496V480H176V496C176 505 183 512 192 512H224C233 512 240 505 240 496V480H272V496C272 505 279 512 288 512H320C329 512 336 505 336 496V480H368V496C368 505 375 512 384 512H416C425 512 432 505 432 496V480C479 430 512 361 512 284C512 232 498 183 474 142Z"/></svg>