<svg xmlns="http://www.w3.org/2000/svg" viewBox="0 0 512 512"><!-- Font Awesome Pro 6.0.0-alpha1 by @fontawesome - https://fontawesome.com License - https://fontawesome.com/license (Commercial License) --><path d="M480 192H471C466 177 460 163 453 150L460 143C472 130 472 110 460 98L414 52C402 40 382 40 369 52L362 59C349 52 335 46 320 41V32C320 14 306 0 288 0H224C206 0 192 14 192 32V41C177 46 163 52 150 59L143 52C130 40 110 40 98 52L52 98C40 110 40 130 52 143L59 150C52 163 46 177 41 192H32C14 192 0 206 0 224V288C0 306 14 320 32 320H41C46 335 52 349 59 363L52 369C40 382 40 402 52 414L98 460C110 472 130 472 143 460L150 453C163 460 177 466 192 471V480C192 498 206 512 224 512H288C306 512 320 498 320 480V471C335 466 349 460 362 453L369 460C382 472 402 472 414 460L460 414C472 402 472 382 460 369L453 363C460 349 466 335 471 320H480C498 320 512 306 512 288V224C512 206 498 192 480 192ZM256 384C185 384 128 327 128 256C128 185 185 128 256 128S384 185 384 256C384 327 327 384 256 384ZM256 160C243 160 232 171 232 184C232 197 243 208 256 208S280 197 280 184C280 171 269 160 256 160ZM210 241C214 229 208 215 195 211C182 207 169 214 165 226S167 252 180 257S206 254 210 241ZM194 300C186 311 189 326 200 334C210 341 225 339 233 328S239 303 228 295C217 287 202 289 194 300ZM284 295C274 303 271 318 279 328S302 341 312 334C323 326 326 311 318 300C310 289 295 287 284 295ZM317 211C304 215 298 229 302 241C306 254 319 261 332 257S351 239 347 226S330 207 317 211Z"/></svg>