<svg xmlns="http://www.w3.org/2000/svg" viewBox="0 0 448 512"><!-- Font Awesome Pro 6.0.0-alpha1 by @fontawesome - https://fontawesome.com License - https://fontawesome.com/license (Commercial License) --><path d="M432 48C441 48 448 41 448 32V16C448 7 441 0 432 0H16C7 0 0 7 0 16V32C0 41 7 48 16 48H32V207C12 221 0 238 0 256C0 317 33 371 85 406L65 471C59 491 75 512 96 512H352C373 512 389 491 383 471L363 406C415 371 448 317 448 256C448 238 436 221 416 207V48H432ZM96 72C96 68 100 64 104 64H152C156 64 160 68 160 72V88C160 92 156 96 152 96H104C100 96 96 92 96 88V72ZM224 288C136 288 64 274 64 256C64 238 136 224 224 224S384 238 384 256C384 274 312 288 224 288Z"/></svg>