<svg xmlns="http://www.w3.org/2000/svg" viewBox="0 0 512 512"><!-- Font Awesome Pro 6.0.0-alpha1 by @fontawesome - https://fontawesome.com License - https://fontawesome.com/license (Commercial License) --><path d="M416 384C469 384 512 298 512 192C512 86 469 0 416 0S320 86 320 192C320 298 363 384 416 384ZM416 128C434 128 448 157 448 192S434 256 416 256S384 227 384 192S398 128 416 128ZM288 192C288 108 312 38 348 0H96C43 0 0 86 0 192C0 298 43 384 96 384H348C312 346 288 276 288 192ZM48 224C39 224 32 217 32 208S39 192 48 192S64 199 64 208S57 224 48 224ZM112 224C103 224 96 217 96 208S103 192 112 192S128 199 128 208S121 224 112 224ZM176 224C167 224 160 217 160 208S167 192 176 192S192 199 192 208S185 224 176 224ZM240 224C231 224 224 217 224 208S231 192 240 192S256 199 256 208S249 224 240 224ZM423 416L423 416H128V480C128 498 142 512 160 512H480C498 512 512 498 512 480V343C490 386 459 413 423 416Z"/></svg>