<svg xmlns="http://www.w3.org/2000/svg" viewBox="0 0 640 512"><!-- Font Awesome Pro 6.0.0-alpha1 by @fontawesome - https://fontawesome.com License - https://fontawesome.com/license (Commercial License) --><path d="M64 192V364C64 405 54 427 33 491C29 501 37 512 48 512H329C343 512 355 503 359 490C369 460 379 433 382 396L67 149C65 163 64 177 64 192ZM631 469L521 383C570 374 608 292 608 192C608 86 565 0 512 0S416 86 416 192C416 241 425 286 441 320L384 276V192C384 108 408 38 445 0H160C135 0 113 19 96 50L39 5C34 2 29 0 24 0C17 0 10 3 5 9C-3 20 -1 35 9 43L601 507C612 515 627 513 635 503C643 492 641 477 631 469ZM480 192C480 157 494 128 512 128C530 128 544 157 544 192S530 256 512 256C494 256 480 227 480 192Z"/></svg>