<svg xmlns="http://www.w3.org/2000/svg" viewBox="0 0 448 512"><!-- Font Awesome Pro 6.0.0-alpha1 by @fontawesome - https://fontawesome.com License - https://fontawesome.com/license (Commercial License) --><path d="M416 192C416 86 330 0 224 0C118 0 32 86 32 192V416H416V192ZM320 192C320 201 313 208 304 208H248V336C248 345 241 352 232 352H216C207 352 200 345 200 336V208H144C135 208 128 201 128 192V176C128 167 135 160 144 160H200V112C200 103 207 96 216 96H232C241 96 248 103 248 112V160H304C313 160 320 167 320 176V192ZM432 448H16C7 448 0 455 0 464V496C0 505 7 512 16 512H432C441 512 448 505 448 496V464C448 455 441 448 432 448Z"/></svg>