<svg xmlns="http://www.w3.org/2000/svg" viewBox="0 0 512 512"><!-- Font Awesome Pro 6.0.0-alpha1 by @fontawesome - https://fontawesome.com License - https://fontawesome.com/license (Commercial License) --><path d="M503 183L457 137C451 131 443 128 435 128H384V80C384 54 362 32 336 32H176C150 32 128 54 128 80V128H77C69 128 61 131 55 137L9 183C3 189 0 197 0 205V304H128V272C128 263 135 256 144 256H176C185 256 192 263 192 272V304H320V272C320 263 327 256 336 256H368C377 256 384 263 384 272V304H512V205C512 197 509 189 503 183ZM336 128H176V80H336V128ZM384 368C384 377 377 384 368 384H336C327 384 320 377 320 368V336H192V368C192 377 185 384 176 384H144C135 384 128 377 128 368V336H0V448C0 466 14 480 32 480H480C498 480 512 466 512 448V336H384V368Z"/></svg>