<svg xmlns="http://www.w3.org/2000/svg" viewBox="0 0 576 512"><!-- Font Awesome Pro 6.0.0-alpha1 by @fontawesome - https://fontawesome.com License - https://fontawesome.com/license (Commercial License) --><path d="M288 64C253 64 224 93 224 128C224 152 237 172 256 183V496C256 505 263 512 272 512H304C313 512 320 505 320 496V183C339 172 352 152 352 128C352 93 323 64 288 64ZM173 128C173 117 175 107 178 97C180 89 177 81 170 78L141 65C133 62 123 66 121 74C115 91 112 109 112 128C112 147 115 165 121 182C123 190 133 194 141 191L170 178C177 175 180 167 178 159C175 149 173 139 173 128ZM435 65L406 78C399 81 396 89 398 97C401 107 403 117 403 128C403 139 401 149 398 159C396 167 399 175 406 178L435 191C443 194 453 190 455 182C461 165 464 147 464 128C464 109 461 91 455 74C453 66 443 62 435 65ZM71 14L43 1C35 -2 25 2 22 10C7 48 0 87 0 128S7 208 22 246C25 254 35 258 43 255L71 242C79 239 82 230 80 222C68 192 63 161 63 128S68 64 80 34C82 26 79 17 71 14ZM554 10C551 2 541 -2 533 1L505 14C497 17 494 26 496 34C508 64 513 95 513 128C513 161 508 192 496 222C494 230 497 239 505 242L533 255C541 258 551 254 554 246C569 208 576 169 576 128S569 48 554 10Z"/></svg>