<svg xmlns="http://www.w3.org/2000/svg" viewBox="0 0 640 512"><!-- Font Awesome Pro 6.0.0-alpha1 by @fontawesome - https://fontawesome.com License - https://fontawesome.com/license (Commercial License) --><path d="M528 336C479 336 440 375 440 424S479 512 528 512S616 473 616 424S577 336 528 336ZM528 448C515 448 504 437 504 424S515 400 528 400S552 411 552 424S541 448 528 448ZM608 160H544V120C544 106 549 92 557 81C562 75 561 67 556 62L534 37C527 30 516 30 510 38C491 61 480 90 480 120V160H378L322 29C314 11 297 0 278 0H144C118 0 96 22 96 48V194C87 188 75 188 67 196L36 227C27 236 27 250 36 258L41 263C36 273 32 282 29 292H22C10 292 0 302 0 314V358C0 370 10 380 22 380H29C32 390 36 399 41 409L36 414C27 422 27 436 36 445L67 476C76 485 90 485 98 476L103 471C113 476 122 480 132 483V490C132 502 142 512 154 512H198C210 512 220 502 220 490V483C230 480 239 476 249 471L254 476C262 485 276 485 285 476L316 445C325 436 325 422 316 414L311 409C316 399 320 390 323 380H330C342 380 352 370 352 358V352H433C455 323 489 304 528 304C547 304 564 309 580 316L631 265C637 259 640 251 640 243V192C640 174 626 160 608 160ZM176 416C132 416 96 380 96 336S132 256 176 256S256 292 256 336S220 416 176 416ZM198 160H160V64H267L308 160H198Z"/></svg>