<svg xmlns="http://www.w3.org/2000/svg" viewBox="0 0 640 512"><!-- Font Awesome Pro 6.0.0-alpha1 by @fontawesome - https://fontawesome.com License - https://fontawesome.com/license (Commercial License) --><path d="M208 96H48C22 96 0 118 0 144S22 192 48 192H80V368C80 394 102 416 128 416S176 394 176 368V192H208C234 192 256 170 256 144S234 96 208 96ZM608 99C589 92 567 98 555 114L464 227L373 114C361 98 339 92 320 99C301 105 288 124 288 144V368C288 394 310 416 336 416S384 394 384 368V281L427 334C445 357 483 357 501 334L544 281V368C544 394 566 416 592 416S640 394 640 368V144C640 124 627 105 608 99Z"/></svg>