<svg xmlns="http://www.w3.org/2000/svg" viewBox="0 0 384 512"><!-- Font Awesome Pro 6.0.0-alpha1 by @fontawesome - https://fontawesome.com License - https://fontawesome.com/license (Commercial License) --><path d="M192 344C179 344 168 355 168 368S179 392 192 392S216 381 216 368S205 344 192 344ZM384 192H320V154C357 141 384 106 384 64H320V32C320 14 306 0 288 0H96C78 0 64 14 64 32V64H0C0 106 27 141 64 154V192H0C0 234 27 269 64 282V320H0C0 363 28 399 67 411C79 469 131 512 192 512S305 469 317 411C356 399 384 363 384 320H320V282C357 269 384 234 384 192ZM192 416C166 416 144 394 144 368S166 320 192 320S240 342 240 368S218 416 192 416ZM192 288C166 288 144 266 144 240S166 192 192 192S240 214 240 240S218 288 192 288ZM192 160C166 160 144 138 144 112S166 64 192 64S240 86 240 112S218 160 192 160ZM192 88C179 88 168 99 168 112S179 136 192 136S216 125 216 112S205 88 192 88Z"/></svg>