<svg xmlns="http://www.w3.org/2000/svg" viewBox="0 0 448 512"><!-- Font Awesome Pro 6.0.0-alpha1 by @fontawesome - https://fontawesome.com License - https://fontawesome.com/license (Commercial License) --><path d="M352 0H96C43 0 0 43 0 96V352C0 402 38 442 86 447L34 498C29 503 33 512 40 512H82C86 512 90 510 93 507L153 448H295L355 507C358 510 362 512 366 512H408C415 512 419 503 414 498L362 447C410 442 448 402 448 352V96C448 43 405 0 352 0ZM64 352C64 334 78 320 96 320S128 334 128 352S114 384 96 384S64 370 64 352ZM208 224C208 242 194 256 176 256H96C78 256 64 242 64 224V128C64 110 78 96 96 96H176C194 96 208 110 208 128V224ZM352 384C334 384 320 370 320 352S334 320 352 320S384 334 384 352S370 384 352 384ZM384 224C384 242 370 256 352 256H272C254 256 240 242 240 224V128C240 110 254 96 272 96H352C370 96 384 110 384 128V224Z"/></svg>