<svg xmlns="http://www.w3.org/2000/svg" viewBox="0 0 512 512"><!-- Font Awesome Pro 6.0.0-alpha1 by @fontawesome - https://fontawesome.com License - https://fontawesome.com/license (Commercial License) --><path d="M94 140L64 128L52 98C51 97 50 96 48 96S45 97 44 98L32 128L2 140C1 141 0 142 0 144S1 147 2 148L32 160L44 190C45 191 46 192 48 192S51 191 52 190L64 160L94 148C95 147 96 146 96 144S95 141 94 140ZM144 224H368C377 224 384 217 384 208S377 192 368 192H144C135 192 128 199 128 208S135 224 144 224ZM256 96C282 96 304 74 304 48S282 0 256 0S208 22 208 48S230 96 256 96ZM176 160H336C345 160 352 153 352 144S345 128 336 128H176C167 128 160 135 160 144S167 160 176 160ZM176 352H336C345 352 352 345 352 336S345 320 336 320H176C167 320 160 327 160 336S167 352 176 352ZM400 256H112C103 256 96 263 96 272S103 288 112 288H400C409 288 416 281 416 272S409 256 400 256ZM510 44L480 32L468 2C467 1 466 0 464 0S461 1 460 2L448 32L418 44C417 45 416 46 416 48S417 51 418 52L448 64L460 94C461 95 462 96 464 96S467 95 468 94L480 64L510 52C511 51 512 50 512 48S511 45 510 44ZM384 448H128C110 448 96 462 96 480V512H416V480C416 462 402 448 384 448ZM176 416H336C345 416 352 409 352 400S345 384 336 384H176C167 384 160 391 160 400S167 416 176 416Z"/></svg>