<svg xmlns="http://www.w3.org/2000/svg" viewBox="0 0 512 512"><!-- Font Awesome Pro 6.0.0-alpha1 by @fontawesome - https://fontawesome.com License - https://fontawesome.com/license (Commercial License) --><path d="M336 320H176C167 320 160 327 160 336S167 352 176 352H336C345 352 352 345 352 336S345 320 336 320ZM336 384H176C167 384 160 391 160 400S167 416 176 416H336C345 416 352 409 352 400S345 384 336 384ZM256 96C282 96 304 74 304 48S282 0 256 0S208 22 208 48S230 96 256 96ZM153 277L184 239V288H328V239L359 277C371 290 391 292 404 281C418 269 420 249 409 236L338 151C326 136 308 128 289 128H223C204 128 186 136 174 151L103 235C92 249 94 269 107 281C121 292 141 290 153 277ZM510 172L480 160L468 130C467 129 466 128 464 128S461 129 460 130L448 160L418 172C417 173 416 174 416 176S417 179 418 180L448 192L460 222C461 223 462 224 464 224S467 223 468 222L480 192L510 180C511 179 512 178 512 176S511 173 510 172ZM384 448H128C110 448 96 462 96 480V512H416V480C416 462 402 448 384 448ZM94 364L64 352L52 322C51 321 50 320 48 320S45 321 44 322L32 352L2 364C1 365 0 366 0 368S1 371 2 372L32 384L44 414C45 415 46 416 48 416S51 415 52 414L64 384L94 372C95 371 96 370 96 368S95 365 94 364Z"/></svg>