<svg xmlns="http://www.w3.org/2000/svg" viewBox="0 0 640 512"><!-- Font Awesome Pro 6.0.0-alpha1 by @fontawesome - https://fontawesome.com License - https://fontawesome.com/license (Commercial License) --><path d="M149 467C151 492 172 512 197 512H443C463 512 482 498 488 479L133 201L149 467ZM631 469L497 364L512 128H196L155 96H528C537 96 544 89 544 80V48C544 39 537 32 528 32H416L404 9C402 3 396 0 390 0H250C244 0 238 3 236 9L224 32H112C103 32 96 39 96 48V50L39 5C34 2 29 0 24 0C17 0 10 3 5 9C-3 20 -1 35 9 43L601 507C612 515 627 513 635 503C643 492 641 477 631 469Z"/></svg>