<svg xmlns="http://www.w3.org/2000/svg" viewBox="0 0 448 512"><!-- Font Awesome Pro 6.0.0-alpha1 by @fontawesome - https://fontawesome.com License - https://fontawesome.com/license (Commercial License) --><path d="M32 464C32 490 54 512 80 512H368C394 512 416 490 416 464V128H32V464ZM304 208C304 199 311 192 320 192S336 199 336 208V432C336 441 329 448 320 448S304 441 304 432V208ZM208 208C208 199 215 192 224 192S240 199 240 208V432C240 441 233 448 224 448S208 441 208 432V208ZM112 208C112 199 119 192 128 192S144 199 144 208V432C144 441 137 448 128 448S112 441 112 432V208ZM432 32H320L308 9C306 3 300 0 294 0H154C148 0 142 3 140 9L128 32H16C7 32 0 39 0 48V80C0 89 7 96 16 96H432C441 96 448 89 448 80V48C448 39 441 32 432 32Z"/></svg>