<svg xmlns="http://www.w3.org/2000/svg" viewBox="0 0 448 512"><!-- Font Awesome Pro 6.0.0-alpha1 by @fontawesome - https://fontawesome.com License - https://fontawesome.com/license (Commercial License) --><path d="M432 32H312L303 13C298 5 290 0 281 0H167C158 0 149 5 145 13L136 32H16C7 32 0 39 0 48V80C0 89 7 96 16 96H432C441 96 448 89 448 80V48C448 39 441 32 432 32ZM32 464C32 490 54 512 80 512H368C394 512 416 490 416 464V128H32V464ZM103 271L175 199C184 190 200 190 209 199S218 224 209 233L178 264H240C289 264 328 303 328 352V392C328 405 317 416 304 416S280 405 280 392V352C280 330 262 312 240 312H178L209 343C218 352 218 368 209 377C204 382 198 384 192 384S180 382 175 377L103 305C94 296 94 280 103 271Z"/></svg>