<svg xmlns="http://www.w3.org/2000/svg" viewBox="0 0 640 512"><!-- Font Awesome Pro 6.0.0-alpha1 by @fontawesome - https://fontawesome.com License - https://fontawesome.com/license (Commercial License) --><path d="M298 283H329C338 283 346 278 350 270C354 262 352 253 346 246L268 155H297C306 155 315 150 318 141C322 133 320 124 314 117L204 0C198 -7 186 -7 180 0L70 117C64 124 62 133 66 141C69 150 78 155 87 155H116L37 246C32 253 30 262 34 270C38 278 46 283 55 283H86L6 374C0 380 -2 390 2 398C6 406 14 411 23 411H160V491C160 500 167 507 176 507H208C217 507 224 500 224 491V411H361C370 411 378 406 382 398C386 390 384 380 378 374L298 283ZM634 374L554 283H585C594 283 602 278 606 270C610 262 608 253 603 246L524 155H553C562 155 571 150 574 141C578 133 576 124 570 117L460 0C454 -7 442 -7 436 0L341 101C352 117 355 137 348 154C344 163 337 171 329 177L371 225C385 241 388 264 379 284C375 293 368 300 361 305L402 352C411 362 416 367 416 379H416V491C416 500 423 507 432 507H464C473 507 480 500 480 491V411H617C626 411 634 406 638 398C642 390 640 380 634 374Z"/></svg>