<svg xmlns="http://www.w3.org/2000/svg" viewBox="0 0 512 512"><!-- Font Awesome Pro 6.0.0-alpha1 by @fontawesome - https://fontawesome.com License - https://fontawesome.com/license (Commercial License) --><path d="M500 463C483 493 451 512 416 512H96C61 512 29 493 12 463C-5 433 -4 397 14 368L174 109C186 90 204 77 224 70V16C224 7 231 0 240 0H272C281 0 288 7 288 16V70C308 77 326 90 338 109L374 168L473 69C480 62 490 62 496 69L507 80C513 86 513 96 507 103L308 301C318 326 308 354 286 369C263 383 234 380 215 361C196 342 193 313 207 290C221 268 250 258 275 267L328 214L283 143C275 130 261 128 256 128C250 128 237 130 228 143L69 402C63 411 63 422 68 432C74 442 84 448 96 448H416C427 448 438 442 444 432C450 422 449 411 443 402L371 284L417 238L498 368C516 397 517 433 500 463Z"/></svg>