<svg xmlns="http://www.w3.org/2000/svg" viewBox="0 0 640 512"><!-- Font Awesome Pro 6.0.0-alpha1 by @fontawesome - https://fontawesome.com License - https://fontawesome.com/license (Commercial License) --><path d="M21 235C61 224 95 248 107 278L232 245C227 209 249 174 284 165C287 164 290 164 292 164C282 127 246 109 214 117L59 159C26 168 4 201 14 238C16 237 19 236 21 235ZM416 0C381 0 352 29 352 64V356L6 450C2 451 -1 456 0 460L13 506C14 510 19 513 23 512L416 404C419 467 472 516 535 512C595 508 640 454 640 394L640 0H416ZM528 448C502 448 480 426 480 400C480 373 502 352 528 352C555 352 576 373 576 400C576 426 555 448 528 448ZM24 400L320 321V199C312 195 302 193 292 196C271 201 258 223 264 245L270 268L85 318L79 294C73 273 51 260 30 266C8 272 -4 294 1 315L24 400Z"/></svg>