<svg xmlns="http://www.w3.org/2000/svg" viewBox="0 0 640 512"><!-- Font Awesome Pro 6.0.0-alpha1 by @fontawesome - https://fontawesome.com License - https://fontawesome.com/license (Commercial License) --><path d="M624 352H608V237C608 220 601 204 589 192L512 115C500 103 484 96 467 96H416V48C416 22 394 0 368 0H112C86 0 64 22 64 48V96H16C7 96 0 103 0 112C0 121 7 128 16 128H272C281 128 288 135 288 144C288 153 281 160 272 160H48C39 160 32 167 32 176C32 185 39 192 48 192H240C249 192 256 199 256 208C256 217 249 224 240 224H16C7 224 0 231 0 240C0 249 7 256 16 256H208C217 256 224 263 224 272C224 281 217 288 208 288H64V416C64 469 107 512 160 512S256 469 256 416H384C384 469 427 512 480 512S576 469 576 416H624C633 416 640 409 640 400V368C640 359 633 352 624 352ZM160 464C134 464 112 442 112 416S134 368 160 368S208 390 208 416S186 464 160 464ZM480 464C454 464 432 442 432 416S454 368 480 368S528 390 528 416S506 464 480 464ZM544 256H416V160H467L544 237V256Z"/></svg>