<svg xmlns="http://www.w3.org/2000/svg" viewBox="0 0 640 512"><!-- Font Awesome Pro 6.0.0-alpha1 by @fontawesome - https://fontawesome.com License - https://fontawesome.com/license (Commercial License) --><path d="M621 237L563 179C551 167 534 160 518 160H464C446 160 432 174 432 192V336H32C14 336 0 350 0 368V396C0 437 29 474 69 479C100 483 127 470 144 448C162 472 194 486 229 477C254 471 275 451 284 426C289 412 289 397 286 384H450C447 397 448 412 453 426C461 452 482 471 508 478C561 490 608 451 608 400C608 394 607 389 606 384H624C633 384 640 377 640 368V283C640 265 633 249 621 237ZM80 432C62 432 48 418 48 400S62 368 80 368S112 382 112 400S98 432 80 432ZM208 432C190 432 176 418 176 400S190 368 208 368S240 382 240 400S226 432 208 432ZM528 432C510 432 496 418 496 400S510 368 528 368S560 382 560 400S546 432 528 432ZM480 256V208H518C522 208 526 210 529 213L572 256H480ZM48 304H352C378 304 400 282 400 256V80C400 53 378 32 352 32H48C22 32 0 53 0 80V256C0 282 22 304 48 304ZM304 80H336V256H304V80ZM224 80H256V256H224V80ZM144 80H176V256H144V80ZM64 80H96V256H64V80Z"/></svg>