<svg xmlns="http://www.w3.org/2000/svg" viewBox="0 0 640 512"><!-- Font Awesome Pro 6.0.0-alpha1 by @fontawesome - https://fontawesome.com License - https://fontawesome.com/license (Commercial License) --><path d="M599 393C584 379 576 359 576 339V237C576 217 584 197 599 183L635 146C642 140 642 130 635 123L613 101C607 94 596 94 590 101L553 137C527 164 512 200 512 237V288H480V224C480 206 466 192 448 192H402L320 55C312 41 296 32 279 32H168C146 32 128 50 128 72V192H32C14 192 0 206 0 224V320C0 338 14 352 32 352H38C34 362 32 373 32 384C32 437 75 480 128 480S224 437 224 384C224 373 222 362 218 352H294C290 362 288 373 288 384C288 437 331 480 384 480S480 437 480 384C480 373 478 362 474 352H513C516 385 530 415 553 439L590 475C596 482 606 482 613 475L635 453C641 447 641 436 635 430L599 393ZM192 96H270L328 192H192V96ZM160 384C160 402 146 416 128 416S96 402 96 384S110 352 128 352S160 366 160 384ZM384 416C366 416 352 402 352 384S366 352 384 352S416 366 416 384S402 416 384 416Z"/></svg>