<svg xmlns="http://www.w3.org/2000/svg" viewBox="0 0 640 512"><!-- Font Awesome Pro 6.0.0-alpha1 by @fontawesome - https://fontawesome.com License - https://fontawesome.com/license (Commercial License) --><path d="M621 237L563 179C551 167 535 160 518 160H480V96C480 61 451 32 416 32H64C29 32 0 61 0 96V396C0 436 29 474 69 479C100 483 127 470 144 448C161 470 189 484 220 479C252 474 279 448 286 417C289 404 288 394 286 384H450C449 387 449 390 448 393C445 433 474 472 514 479C564 487 608 449 608 400C608 394 607 389 606 384H624C633 384 640 377 640 368V282C640 266 633 249 621 237ZM80 432C62 432 48 418 48 400S62 368 80 368S112 382 112 400S98 432 80 432ZM208 432C190 432 176 418 176 400S190 368 208 368S240 382 240 400S226 432 208 432ZM528 432C510 432 496 418 496 400S510 368 528 368S560 382 560 400S546 432 528 432ZM480 256V208H518C522 208 526 210 529 213L572 256H480Z"/></svg>