<svg xmlns="http://www.w3.org/2000/svg" viewBox="0 0 640 512"><!-- Font Awesome Pro 6.0.0-alpha1 by @fontawesome - https://fontawesome.com License - https://fontawesome.com/license (Commercial License) --><path d="M624 64C619 64 614 66 611 71C591 97 569 121 545 142C529 155 512 168 492 178C487 181 466 192 432 192H400V160C400 151 393 144 384 144H368C359 144 352 151 352 160V192H312V160C312 151 305 144 296 144H280C271 144 264 151 264 160V192H224V160C224 151 217 144 208 144H192C183 144 176 151 176 160V192H48C48 183 41 176 32 176H16C7 176 0 183 0 192V256C0 265 7 272 16 272H32C41 272 48 265 48 256H82C71 275 64 297 64 320C64 391 121 448 192 448H416C469 448 512 405 512 352V321C501 312 490 305 477 298C469 293 459 291 448 290V352C448 370 434 384 416 384H400V256H432C466 256 487 267 492 270C510 279 526 290 542 303C581 338 610 377 611 377C614 381 619 384 624 384C636 384 640 373 640 368V80C640 68 629 64 624 64ZM176 382C148 374 128 349 128 320S148 266 176 258V382ZM264 384H224V256H264V384ZM352 384H312V256H352V384Z"/></svg>