<svg xmlns="http://www.w3.org/2000/svg" viewBox="0 0 512 512"><!-- Font Awesome Pro 6.0.0-alpha1 by @fontawesome - https://fontawesome.com License - https://fontawesome.com/license (Commercial License) --><path d="M272 280V320C272 327 277 332 284 332H324C331 332 336 327 336 320V280C336 274 331 268 324 268H284C277 268 272 274 272 280ZM368 280V320C368 327 373 332 380 332H420C427 332 432 327 432 320V280C432 274 427 268 420 268H380C373 268 368 274 368 280ZM276 172H236C229 172 224 178 224 184V224C224 231 229 236 236 236H276C283 236 288 231 288 224V184C288 178 283 172 276 172ZM84 364H44C37 364 32 370 32 376V416C32 423 37 428 44 428H84C91 428 96 423 96 416V376C96 370 91 364 84 364ZM176 280V320C176 327 181 332 188 332H228C235 332 240 327 240 320V280C240 274 235 268 228 268H188C181 268 176 274 176 280ZM372 172H332C325 172 320 178 320 184V224C320 231 325 236 332 236H372C379 236 384 231 384 224V184C384 178 379 172 372 172ZM468 172H428C421 172 416 178 416 184V224C416 231 421 236 428 236H468C475 236 480 231 480 224V184C480 178 475 172 468 172ZM372 364H140C133 364 128 370 128 376V416C128 423 133 428 140 428H372C379 428 384 423 384 416V376C384 370 379 364 372 364ZM180 172H140C133 172 128 178 128 184V224C128 231 133 236 140 236H180C187 236 192 231 192 224V184C192 178 187 172 180 172ZM468 364H428C421 364 416 370 416 376V416C416 423 421 428 428 428H468C475 428 480 423 480 416V376C480 370 475 364 468 364ZM80 280V320C80 327 85 332 92 332H132C139 332 144 327 144 320V280C144 274 139 268 132 268H92C85 268 80 274 80 280ZM84 172H44C37 172 32 178 32 184V224C32 231 37 236 44 236H84C91 236 96 231 96 224V184C96 178 91 172 84 172ZM505 19C368 -118 144 -118 7 19C-1 27 -2 40 4 49L46 116C52 126 64 130 75 126L160 92C170 88 176 78 175 68L169 14C225 -5 287 -5 343 14L338 68C336 78 343 88 352 92L437 126C448 130 460 126 466 117L508 49C514 40 513 27 505 19Z"/></svg>