<svg xmlns="http://www.w3.org/2000/svg" viewBox="0 0 384 512"><!-- Font Awesome Pro 6.0.0-alpha1 by @fontawesome - https://fontawesome.com License - https://fontawesome.com/license (Commercial License) --><path d="M384 48V96C384 105 377 112 368 112H232V182L317 160C326 158 336 166 336 176V207C336 215 331 221 323 223L232 246V278L317 256C326 254 336 262 336 272V303C336 311 331 317 323 319L232 342V464C232 473 225 480 216 480H168C159 480 152 473 152 464V362L67 384C58 386 48 378 48 368V337C48 329 53 323 61 321L152 298V266L67 288C58 290 48 282 48 272V241C48 233 53 227 61 225L152 202V112H16C7 112 0 105 0 96V48C0 39 7 32 16 32H368C377 32 384 39 384 48Z"/></svg>