<svg xmlns="http://www.w3.org/2000/svg" viewBox="0 0 576 512"><!-- Font Awesome Pro 6.0.0-alpha1 by @fontawesome - https://fontawesome.com License - https://fontawesome.com/license (Commercial License) --><path d="M512 32H64C29 32 0 61 0 96V416C0 451 29 480 64 480H512C547 480 576 451 576 416V96C576 61 547 32 512 32ZM224 416C136 416 64 344 64 256S136 96 224 96S384 168 384 256S312 416 224 416ZM512 268C512 278 510 287 505 297L486 334C494 338 497 348 494 356L468 407C464 415 454 418 446 414L418 400C410 396 407 386 410 378L436 327C440 319 450 316 458 320L477 282C479 278 480 273 480 268V112C480 103 487 96 496 96S512 103 512 112V268ZM224 224C206 224 192 238 192 256S206 288 224 288S256 274 256 256S242 224 224 224Z"/></svg>