<svg xmlns="http://www.w3.org/2000/svg" viewBox="0 0 640 512"><!-- Font Awesome Pro 6.0.0-alpha1 by @fontawesome - https://fontawesome.com License - https://fontawesome.com/license (Commercial License) --><path d="M240 320C266 320 288 306 288 288V203L384 166V226C379 225 373 224 368 224C342 224 320 238 320 256S342 288 368 288S416 274 416 256V112C416 107 414 102 410 99S400 95 395 97L267 144C261 146 256 152 256 159V258C251 257 245 256 240 256C214 256 192 270 192 288S214 320 240 320ZM520 448H120C107 448 96 459 96 472V488C96 501 107 512 120 512H520C533 512 544 501 544 488V472C544 459 533 448 520 448ZM592 0H48C22 0 0 22 0 48V368C0 394 22 416 48 416H592C618 416 640 394 640 368V48C640 22 618 0 592 0ZM576 352H64V64H576V352Z"/></svg>