<svg xmlns="http://www.w3.org/2000/svg" viewBox="0 0 640 512"><!-- Font Awesome Pro 6.0.0-alpha1 by @fontawesome - https://fontawesome.com License - https://fontawesome.com/license (Commercial License) --><path d="M115 137L218 174C253 93 304 30 357 0C261 -4 168 37 108 112C101 121 105 133 115 137ZM248 185L486 272C522 150 505 40 444 18C436 15 428 14 420 14C362 14 292 83 248 185ZM522 61C528 77 532 95 535 116C540 166 533 224 516 283L618 320C629 324 640 317 640 306C642 210 598 118 522 61ZM528 448H321L386 270L326 248L253 448H48C22 448 0 470 0 496V496C0 505 7 512 16 512H560C569 512 576 505 576 496V496C576 470 555 448 528 448Z"/></svg>