<svg xmlns="http://www.w3.org/2000/svg" viewBox="0 0 640 512"><!-- Font Awesome Pro 6.0.0-alpha1 by @fontawesome - https://fontawesome.com License - https://fontawesome.com/license (Commercial License) --><path d="M632 32H532C538 26 542 18 544 10C545 5 541 0 536 0H416C345 0 288 57 288 128H160C131 128 106 141 88 161V160C39 160 0 199 0 248V304C0 313 7 320 16 320H32C41 320 48 313 48 304V248C48 235 55 224 65 216C65 219 64 221 64 224C64 252 76 276 94 294L69 363C64 375 63 388 67 401L88 488C92 502 105 512 120 512H153C173 512 189 492 184 472L162 387L186 323L288 346V480C288 498 302 512 320 512H352C370 512 384 498 384 480V318C404 298 416 270 416 240C416 240 416 240 416 239V137L432 144L451 182C458 197 476 203 491 197L524 184C536 179 544 167 544 154V83L636 47C643 42 640 32 632 32ZM480 96C471 96 464 89 464 80S471 64 480 64C489 64 496 71 496 80S489 96 480 96Z"/></svg>