<svg xmlns="http://www.w3.org/2000/svg" viewBox="0 0 448 512"><!-- Font Awesome Pro 6.0.0-alpha1 by @fontawesome - https://fontawesome.com License - https://fontawesome.com/license (Commercial License) --><path d="M384 224H144V144C144 100 180 64 224 64S304 100 304 144V160H368V144C368 65 303 0 224 0S80 65 80 144V224H64C29 224 0 253 0 288V448C0 483 29 512 64 512H384C419 512 448 483 448 448V288C448 253 419 224 384 224ZM256 384C256 402 242 416 224 416S192 402 192 384V352C192 334 206 320 224 320S256 334 256 352V384Z"/></svg>