<svg xmlns="http://www.w3.org/2000/svg" viewBox="0 0 384 512"><!-- Font Awesome Pro 6.0.0-alpha1 by @fontawesome - https://fontawesome.com License - https://fontawesome.com/license (Commercial License) --><path d="M56 320H128V448C128 466 142 480 160 480H224C242 480 256 466 256 448V320H328C338 320 346 314 350 305C354 297 352 286 345 279L209 135C200 126 184 126 175 135L39 279C32 286 30 297 34 305C38 314 46 320 56 320ZM368 32H16C7 32 0 39 0 48V80C0 89 7 96 16 96H368C377 96 384 89 384 80V48C384 39 377 32 368 32Z"/></svg>