<svg xmlns="http://www.w3.org/2000/svg" viewBox="0 0 512 512"><!-- Font Awesome Pro 6.0.0-alpha1 by @fontawesome - https://fontawesome.com License - https://fontawesome.com/license (Commercial License) --><path d="M105 183C118 195 138 195 151 183L224 109V352C224 370 238 384 256 384C274 384 288 370 288 352V109L361 183C374 195 394 195 407 183V183C419 170 419 150 407 137L279 9C272 3 264 0 256 0S240 3 233 9L105 137C93 150 93 170 105 183L105 183ZM480 352H320C320 387 291 416 256 416S192 387 192 352H32C14 352 0 366 0 384V480C0 498 14 512 32 512H480C498 512 512 498 512 480V384C512 366 498 352 480 352ZM432 456C419 456 408 445 408 432C408 419 419 408 432 408S456 419 456 432C456 445 445 456 432 456Z"/></svg>