<svg xmlns="http://www.w3.org/2000/svg" viewBox="0 0 640 512"><!-- Font Awesome Pro 6.0.0-alpha1 by @fontawesome - https://fontawesome.com License - https://fontawesome.com/license (Commercial License) --><path d="M0 160V352C0 387 29 416 64 416H448V96H64C29 96 0 125 0 160ZM608 128H480V384H608C626 384 640 370 640 352V160C640 142 626 128 608 128ZM584 312C584 321 577 328 568 328H552C543 328 536 321 536 312V296C536 287 543 280 552 280H568C577 280 584 287 584 296V312ZM584 216C584 225 577 232 568 232H552C543 232 536 225 536 216V200C536 191 543 184 552 184H568C577 184 584 191 584 200V216Z"/></svg>