<svg xmlns="http://www.w3.org/2000/svg" viewBox="0 0 640 512"><!-- Font Awesome Pro 6.0.0-alpha1 by @fontawesome - https://fontawesome.com License - https://fontawesome.com/license (Commercial License) --><path d="M275 304H173C78 304 0 382 0 477C0 496 16 512 35 512H413C432 512 448 496 448 477C448 382 370 304 275 304ZM224 256C295 256 352 199 352 128S295 0 224 0C153 0 96 57 96 128S153 256 224 256ZM616 200H472C459 200 448 211 448 224S459 248 472 248H616C629 248 640 237 640 224S629 200 616 200Z"/></svg>