<svg xmlns="http://www.w3.org/2000/svg" viewBox="0 0 640 512"><!-- Font Awesome Pro 6.0.0-alpha1 by @fontawesome - https://fontawesome.com License - https://fontawesome.com/license (Commercial License) --><path d="M152 216C152 208 153 200 155 193C153 192 152 192 150 192H88C39 192 0 234 0 285C0 296 8 304 18 304H185C165 280 152 250 152 216ZM112 160C156 160 192 124 192 80S156 0 112 0C68 0 32 36 32 80S68 160 112 160ZM288 320C300 320 310 318 321 314C320 309 320 304 322 298C330 272 344 248 362 228C370 220 380 215 391 215C391 215 392 216 392 216C392 158 345 112 288 112C231 112 184 159 184 216C184 273 231 320 288 320ZM425 483C423 481 421 480 418 479L410 483C405 487 398 489 391 489C380 489 370 484 362 476C343 456 330 432 322 406C316 388 324 369 340 360L347 356C347 355 347 354 347 353C344 353 341 352 338 352H238C160 352 96 412 96 485C96 500 109 512 124 512H431C428 506 425 499 425 492V483ZM611 373C613 359 613 345 611 331L636 316C639 314 641 311 640 307C633 286 621 266 606 250C604 247 600 247 597 248L572 263C561 254 548 247 535 242V212C535 209 532 206 529 205C507 200 484 200 463 205C460 206 457 209 457 212V242C444 247 431 254 420 263L394 249C392 247 388 247 385 250C370 266 359 286 352 307C351 311 353 314 356 316L381 331C379 345 379 359 381 373L356 388C353 390 351 393 352 397C359 418 370 438 385 454C388 457 391 457 394 456L420 441C431 450 444 457 457 462V492C457 495 460 498 463 499C485 504 508 504 529 499C532 498 535 495 535 492V462C548 457 561 450 572 441L597 456C600 457 604 457 606 454C621 438 633 418 640 397C641 393 639 390 636 388L611 373ZM496 401C469 401 448 379 448 352S469 303 496 303S545 325 545 352S523 401 496 401Z"/></svg>