<svg xmlns="http://www.w3.org/2000/svg" viewBox="0 0 448 512"><!-- Font Awesome Pro 6.0.0-alpha1 by @fontawesome - https://fontawesome.com License - https://fontawesome.com/license (Commercial License) --><path d="M224 300C295 300 352 243 352 172V62C352 48 344 36 331 32L247 0C232 -6 216 -6 202 0L117 32C104 36 96 48 96 62V172C96 243 153 300 224 300ZM184 67C184 65 186 62 189 62H211V41C211 38 213 36 216 36H232C235 36 237 38 237 41V62H259C262 62 264 65 264 67V84C264 87 262 89 259 89H237V111C237 114 235 116 232 116H216C213 116 211 114 211 111V89H189C186 89 184 87 184 84V67ZM144 156H304V172C304 216 268 252 224 252S144 216 144 172V156ZM327 309L224 412L121 309C51 331 0 396 0 473C0 492 16 508 35 508H413C432 508 448 492 448 473C448 396 397 331 327 309Z"/></svg>