<svg xmlns="http://www.w3.org/2000/svg" viewBox="0 0 448 512"><!-- Font Awesome Pro 6.0.0-alpha1 by @fontawesome - https://fontawesome.com License - https://fontawesome.com/license (Commercial License) --><path d="M176 448C167 448 160 455 160 464V512H192V464C192 455 185 448 176 448ZM272 448C263 448 256 455 256 464S263 480 272 480S288 473 288 464S281 448 272 448ZM164 172L172 197C173 200 179 200 180 197L188 172L213 164C216 163 216 157 213 156L188 148L180 123C179 120 173 120 172 123L164 148L139 156C136 157 136 163 139 164L164 172ZM336 315C304 339 265 352 224 352S144 339 112 315C47 340 0 403 0 477C0 496 16 512 35 512H128V448C128 430 142 416 160 416H288C306 416 320 430 320 448V512H413C432 512 448 496 448 477C448 403 401 340 336 315ZM64 224H78C102 281 158 320 224 320S346 281 370 224H384C393 224 400 217 400 208V112C400 103 393 96 384 96H370C346 39 290 0 224 0S102 39 78 96H64C55 96 48 103 48 112V208C48 217 55 224 64 224ZM104 136C104 114 126 96 152 96H296C322 96 344 114 344 136V160C344 213 301 256 248 256H200C147 256 104 213 104 160V136Z"/></svg>