<svg xmlns="http://www.w3.org/2000/svg" viewBox="0 0 640 512"><!-- Font Awesome Pro 6.0.0-alpha1 by @fontawesome - https://fontawesome.com License - https://fontawesome.com/license (Commercial License) --><path d="M224 256C295 256 352 199 352 128S295 0 224 0C153 0 96 57 96 128S153 256 224 256ZM275 304H173C78 304 0 382 0 477C0 496 16 512 35 512H413C432 512 448 496 448 477C448 382 370 304 275 304ZM578 224L612 190C621 181 621 165 612 156S587 147 578 156L544 190L510 156C501 147 485 147 476 156S467 181 476 190L510 224L476 258C467 267 467 283 476 292C481 297 487 299 493 299S505 297 510 292L544 258L578 292C583 297 589 299 595 299S607 297 612 292C621 283 621 267 612 258L578 224Z"/></svg>