<svg xmlns="http://www.w3.org/2000/svg" viewBox="0 0 640 512"><!-- Font Awesome Pro 6.0.0-alpha1 by @fontawesome - https://fontawesome.com License - https://fontawesome.com/license (Commercial License) --><path d="M389 348C359 321 319 304 275 304H173C78 304 0 382 0 477C0 496 16 512 35 512H355C333 493 320 468 320 440C320 399 348 365 389 348ZM224 256C295 256 352 199 352 128S295 0 224 0C153 0 96 57 96 128S153 256 224 256ZM602 161L506 180C491 183 480 196 480 211V372C470 370 459 368 448 368C395 368 352 400 352 440C352 480 395 512 448 512S544 480 544 440V300L614 286C629 283 640 270 640 255V192C640 172 622 157 602 161Z"/></svg>