<svg xmlns="http://www.w3.org/2000/svg" viewBox="0 0 448 512"><!-- Font Awesome Pro 6.0.0-alpha1 by @fontawesome - https://fontawesome.com License - https://fontawesome.com/license (Commercial License) --><path d="M342 114C331 64 311 0 278 0C268 0 258 5 251 10C235 22 214 22 199 10C191 5 182 0 171 0C138 0 118 65 107 114C133 124 171 133 224 133C278 133 316 124 342 114ZM96 224V224C96 295 153 352 224 352C295 352 352 295 352 224V224C422 183 447 118 447 117C450 110 446 101 438 98C431 94 422 96 416 103C416 104 372 165 224 165C77 165 32 104 32 103C26 96 17 94 10 98C2 101 -2 110 1 117C1 118 26 183 96 224ZM447 472C434 420 387 384 334 384H114C61 384 14 420 1 472C-4 492 11 512 32 512H416C437 512 452 492 447 472Z"/></svg>