<svg xmlns="http://www.w3.org/2000/svg" viewBox="0 0 640 512"><!-- Font Awesome Pro 6.0.0-alpha1 by @fontawesome - https://fontawesome.com License - https://fontawesome.com/license (Commercial License) --><path d="M320 320C377 320 424 273 424 216C424 159 377 112 320 112C262 112 216 159 216 216C216 273 262 320 320 320ZM370 352H270C192 352 128 412 128 485C128 500 141 512 156 512H484C499 512 512 500 512 485C512 412 448 352 370 352ZM512 160C556 160 592 124 592 80S556 0 512 0C468 0 432 36 432 80S468 160 512 160ZM184 216C184 211 185 205 186 200C175 195 163 192 150 192H88C39 192 0 234 0 285C0 296 8 304 18 304H217C197 280 184 250 184 216ZM128 160C172 160 208 124 208 80S172 0 128 0C84 0 48 36 48 80S84 160 128 160ZM552 192H490C477 192 465 195 454 200C455 206 456 211 456 216C456 250 443 280 423 304H622C632 304 640 296 640 285C640 234 601 192 552 192Z"/></svg>