<svg xmlns="http://www.w3.org/2000/svg" viewBox="0 0 640 512"><!-- Font Awesome Pro 6.0.0-alpha1 by @fontawesome - https://fontawesome.com License - https://fontawesome.com/license (Commercial License) --><path d="M425 483C423 481 421 480 418 479L410 483C404 487 398 488 391 488C380 488 370 484 362 476C343 456 330 432 322 406C316 388 324 369 339 361L347 356C347 353 347 351 347 348L340 344C327 337 320 324 320 310C306 306 290 304 275 304H173C78 304 0 382 0 477C0 496 16 512 35 512H413C419 512 424 510 429 508C427 503 425 498 425 492V483ZM224 256C295 256 352 199 352 128S295 0 224 0C153 0 96 57 96 128S153 256 224 256ZM610 373C613 359 613 345 610 331L636 316C639 314 641 311 640 307C633 286 621 266 606 250C604 247 600 247 597 248L572 263C561 254 548 247 535 242V212C535 209 532 206 529 205C507 200 484 200 463 205C459 206 457 209 457 212V242C444 247 431 254 420 263L394 249C391 247 388 247 385 250C370 266 359 286 352 307C351 311 353 314 356 316L381 331C379 345 379 359 381 373L356 388C353 390 351 393 352 397C359 418 370 438 385 454C388 457 391 457 394 456L420 441C431 450 444 457 457 462V492C457 495 459 498 463 499C485 504 508 504 529 499C532 498 535 495 535 492V462C548 457 561 450 572 441L597 456C600 457 604 457 606 454C621 438 633 418 640 397C641 393 639 390 636 388L610 373ZM496 401C469 401 447 379 447 352S469 303 496 303S545 325 545 352S523 401 496 401Z"/></svg>