<svg xmlns="http://www.w3.org/2000/svg" viewBox="0 0 640 512"><!-- Font Awesome Pro 6.0.0-alpha1 by @fontawesome - https://fontawesome.com License - https://fontawesome.com/license (Commercial License) --><path d="M143 256L102 448H48C22 448 0 470 0 496C0 505 7 512 16 512H176C185 512 192 505 192 496V464C192 455 185 448 176 448H168L209 256H143ZM640 128C640 57 583 0 512 0H302C242 0 189 42 177 101L150 224H216L239 115C246 85 271 64 302 64H512C545 64 572 89 575 121C579 154 557 183 525 190C489 151 438 128 384 128C366 128 352 142 352 160V326C344 328 337 332 330 336C320 343 311 352 304 362C294 378 288 396 288 416C288 469 331 512 384 512H512C547 512 576 483 576 448V320C576 294 571 269 561 245C607 226 640 181 640 128ZM384 448C366 448 352 434 352 416S366 384 384 384S416 398 416 416S402 448 384 448Z"/></svg>