<svg xmlns="http://www.w3.org/2000/svg" viewBox="0 0 448 512"><!-- Font Awesome Pro 6.0.0-alpha1 by @fontawesome - https://fontawesome.com License - https://fontawesome.com/license (Commercial License) --><path d="M416 160C434 160 448 146 448 128V64C448 46 434 32 416 32H352C334 32 320 46 320 64H128C128 46 114 32 96 32H32C14 32 0 46 0 64V128C0 146 14 160 32 160V352C14 352 0 366 0 384V448C0 466 14 480 32 480H96C114 480 128 466 128 448H320C320 466 334 480 352 480H416C434 480 448 466 448 448V384C448 366 434 352 416 352H383L350 297C351 294 352 291 352 288V224C352 221 351 218 350 215L383 160H416ZM80 432H48V400H80V432ZM80 112H48V80H80V112ZM289 192H256C238 192 224 206 224 224V288C224 306 238 320 256 320H289L322 375C321 378 320 381 320 384H128C128 366 114 352 96 352V160C114 160 128 146 128 128H320C320 131 321 134 322 137L289 192ZM304 240V272H272V240H304ZM368 400H400V432H368V400ZM368 80H400V112H368V80Z"/></svg>