<svg xmlns="http://www.w3.org/2000/svg" viewBox="0 0 640 512"><!-- Font Awesome Pro 6.0.0-alpha1 by @fontawesome - https://fontawesome.com License - https://fontawesome.com/license (Commercial License) --><path d="M256 384H208V349C290 334 352 262 352 176C352 79 273 0 176 0C79 0 0 79 0 176C0 262 62 334 144 349V384H96C87 384 80 391 80 400V432C80 441 87 448 96 448H144V496C144 505 151 512 160 512H192C201 512 208 505 208 496V448H256C265 448 272 441 272 432V400C272 391 265 384 256 384ZM176 272C123 272 80 229 80 176C80 123 123 80 176 80C229 80 272 123 272 176C272 229 229 272 176 272ZM624 0H512C490 0 480 26 495 41L524 71L500 95C470 74 435 64 400 64C385 64 370 66 355 70C368 93 378 118 382 146C388 145 394 144 400 144C425 144 449 153 468 172C505 210 505 270 468 308C449 327 425 336 400 336C376 336 353 327 335 310C319 329 300 345 278 357C289 363 298 374 302 386C331 406 366 416 400 416C445 416 490 399 524 364C585 303 592 209 545 140L569 116L599 145C604 150 610 152 616 152C628 152 640 143 640 128V16C640 7 633 0 624 0Z"/></svg>