<svg xmlns="http://www.w3.org/2000/svg" viewBox="0 0 448 512"><!-- Font Awesome Pro 6.0.0-alpha1 by @fontawesome - https://fontawesome.com License - https://fontawesome.com/license (Commercial License) --><path d="M437 240L384 160V32C384 14 370 0 352 0H320C315 0 311 1 307 4L282 21C247 44 201 44 166 21L141 4C137 1 133 0 128 0H96C78 0 64 14 64 32V160L11 240C4 250 0 263 0 275V480C0 498 14 512 32 512H192V288C192 285 193 281 194 278L207 237L150 67C173 79 199 86 224 86S275 79 298 67L224 288V512H416C434 512 448 498 448 480V275C448 263 444 250 437 240ZM131 371L83 419C80 422 76 424 72 424S64 422 61 419C54 413 54 403 61 397L109 349C115 342 125 342 131 349S138 365 131 371ZM387 419C384 422 380 424 376 424S368 422 365 419L317 371C310 365 310 355 317 349S333 342 339 349L387 397C394 403 394 413 387 419Z"/></svg>