<svg xmlns="http://www.w3.org/2000/svg" viewBox="0 0 448 512"><!-- Font Awesome Pro 6.0.0-alpha1 by @fontawesome - https://fontawesome.com License - https://fontawesome.com/license (Commercial License) --><path d="M437 240L384 160V32C384 14 370 0 352 0H320C315 0 311 1 307 4L282 21C247 44 201 44 166 21L141 4C137 1 133 0 128 0H96C78 0 64 14 64 32V160L11 240C4 250 0 263 0 275V480C0 498 14 512 32 512H192V288C192 285 193 281 194 278L207 237L150 67C173 79 199 86 224 86S275 79 298 67L224 288V512H416C434 512 448 498 448 480V275C448 263 444 250 437 240ZM63 273C59 268 59 260 63 256C68 251 76 251 80 256L96 271L111 256C116 251 124 251 128 256C133 260 133 268 128 273L113 288L128 303C133 308 133 316 128 320C126 323 123 324 120 324S114 323 111 320L96 305L81 320C78 323 75 324 72 324S66 323 63 320C59 316 59 308 63 303L79 288L63 273ZM96 456C74 456 56 438 56 416S74 376 96 376S136 394 136 416S118 456 96 456ZM359 336L311 336C307 336 304 333 304 329L304 281C304 266 317 255 331 256C344 257 354 269 353 282L353 287L358 287C371 287 383 296 384 309C385 323 374 336 359 336Z"/></svg>