<svg xmlns="http://www.w3.org/2000/svg" viewBox="0 0 512 512"><!-- Font Awesome Pro 6.0.0-alpha1 by @fontawesome - https://fontawesome.com License - https://fontawesome.com/license (Commercial License) --><path d="M200 32H24C11 32 0 43 0 56C0 69 11 80 24 80H32V400C32 444 68 480 112 480S192 444 192 400V80H200C213 80 224 69 224 56C224 43 213 32 200 32ZM144 256H80V80H144V256ZM488 32H312C299 32 288 43 288 56C288 69 299 80 312 80H320V400C320 444 356 480 400 480S480 444 480 400V80H488C501 80 512 69 512 56C512 43 501 32 488 32ZM432 256H368V80H432V256Z"/></svg>