<svg xmlns="http://www.w3.org/2000/svg" viewBox="0 0 640 512"><!-- Font Awesome Pro 6.0.0-alpha1 by @fontawesome - https://fontawesome.com License - https://fontawesome.com/license (Commercial License) --><path d="M472 96C485 96 496 85 496 72C496 59 485 48 472 48C459 48 448 59 448 72C448 85 459 96 472 96ZM347 16L336 5C330 -2 320 -2 313 5L5 313C-2 320 -2 330 5 336L16 347C22 354 32 354 39 347L347 39C353 32 353 22 347 16ZM520 48C533 48 544 37 544 24S533 0 520 0S496 11 496 24S507 48 520 48ZM238 416L224 402C219 397 210 396 204 400L135 446C131 449 128 453 128 458C128 463 129 468 133 471L169 507C172 511 177 512 182 512C187 512 191 509 194 505L240 436C244 430 243 421 238 416ZM616 96C603 96 592 107 592 120S603 144 616 144C629 144 640 133 640 120S629 96 616 96ZM458 228L635 50C641 44 641 34 635 27L613 5C607 -1 596 -1 590 5L412 182C400 174 387 167 372 163C339 155 307 162 284 184C286 192 288 200 288 208C288 238 272 265 246 279C221 293 189 292 165 276C162 277 160 279 157 282C126 313 121 361 138 406L186 374C205 361 231 364 247 380L260 393C276 410 279 435 266 454L234 502C279 519 327 514 359 483C361 480 363 478 365 475C346 447 347 410 368 383C389 356 424 345 456 356C478 333 485 300 477 268C473 253 467 240 458 228ZM568 144C555 144 544 155 544 168C544 181 555 192 568 192C581 192 592 181 592 168C592 155 581 144 568 144Z"/></svg>