<svg xmlns="http://www.w3.org/2000/svg" viewBox="0 0 640 512"><!-- Font Awesome Pro 6.0.0-alpha1 by @fontawesome - https://fontawesome.com License - https://fontawesome.com/license (Commercial License) --><path d="M496 96C443 96 394 125 369 172C344 219 347 276 376 320H264C300 265 295 192 251 143C206 94 134 82 76 113S-12 211 4 275C20 339 78 384 144 384H496C575 384 640 319 640 240S575 96 496 96ZM64 240C64 196 100 160 144 160S224 196 224 240S188 320 144 320S64 284 64 240ZM496 320C452 320 416 284 416 240S452 160 496 160S576 196 576 240S540 320 496 320Z"/></svg>