<svg xmlns="http://www.w3.org/2000/svg" viewBox="0 0 512 512"><!-- Font Awesome Pro 6.0.0-alpha1 by @fontawesome - https://fontawesome.com License - https://fontawesome.com/license (Commercial License) --><path d="M304 224H208C198 224 188 229 182 236L127 307L140 324C150 336 170 336 180 324C191 310 207 303 224 302C241 301 258 309 269 322L301 359C310 370 330 370 340 359L385 306L330 236C323 229 314 224 304 224ZM160 144C173 144 185 140 195 134L224 192H288L317 134C327 140 339 144 352 144C387 144 416 115 416 80S387 16 352 16C336 16 322 22 311 31C300 13 279 0 256 0C233 0 212 13 201 31C190 22 176 16 160 16C125 16 96 45 96 80S125 144 160 144ZM506 461L405 332L364 380C353 393 337 400 320 400S287 393 276 380L245 343C240 337 233 334 225 334H225C217 334 210 338 205 344C183 371 137 371 115 344L107 333L6 461C-9 482 6 512 32 512H480C506 512 521 482 506 461Z"/></svg>