<svg xmlns="http://www.w3.org/2000/svg" viewBox="0 0 512 512"><!-- Font Awesome Pro 6.0.0-alpha1 by @fontawesome - https://fontawesome.com License - https://fontawesome.com/license (Commercial License) --><path d="M381 281C387 245 396 125 289 19C278 17 267 16 256 16C230 16 205 20 182 28C265 116 272 216 272 247C288 256 327 275 381 281ZM240 246C240 229 237 185 215 135C181 148 72 200 34 346C47 380 69 410 96 434C130 319 213 262 240 246ZM201 107C188 85 171 63 150 41C70 80 16 162 16 256C16 267 17 279 19 290C68 170 162 122 201 107ZM345 33C425 136 419 242 413 283C438 283 466 279 495 271C496 266 496 261 496 256C496 155 434 69 345 33ZM256 274C240 283 204 308 172 352C200 375 299 443 445 403C467 375 483 342 491 306C463 312 437 315 414 315C334 315 276 286 256 274ZM154 379C142 400 131 426 123 456C161 481 207 496 256 496C312 496 363 477 404 445C388 447 372 448 357 448C253 448 182 401 154 379Z"/></svg>