<svg xmlns="http://www.w3.org/2000/svg" viewBox="0 0 640 512"><!-- Font Awesome Pro 6.0.0-alpha1 by @fontawesome - https://fontawesome.com License - https://fontawesome.com/license (Commercial License) --><path d="M304 416H144C135 416 128 423 128 432V496C128 505 135 512 144 512H304C313 512 320 505 320 496V432C320 423 313 416 304 416ZM304 288H144C135 288 128 295 128 304V368C128 377 135 384 144 384H304C313 384 320 377 320 368V304C320 295 313 288 304 288ZM496 416H368C359 416 352 423 352 432V496C352 505 359 512 368 512H496C505 512 512 505 512 496V432C512 423 505 416 496 416ZM610 117L338 4C333 2 326 0 320 0C314 0 307 1 302 4L30 117C12 125 0 142 0 161V496C0 505 7 512 16 512H80C89 512 96 505 96 496V256C96 238 111 224 129 224H511C529 224 544 238 544 256V496C544 505 551 512 560 512H624C633 512 640 505 640 496V161C640 142 628 125 610 117Z"/></svg>