<svg xmlns="http://www.w3.org/2000/svg" viewBox="0 0 384 512"><!-- Font Awesome Pro 6.0.0-alpha1 by @fontawesome - https://fontawesome.com License - https://fontawesome.com/license (Commercial License) --><path d="M320 32C320 14 306 0 288 0H96C78 0 64 14 64 32V48H320V32ZM320 80H64C29 80 0 109 0 144V368C0 403 29 432 64 432H320C355 432 384 403 384 368V144C384 109 355 80 320 80ZM232 160C245 160 256 171 256 184C256 197 245 208 232 208S208 197 208 184C208 171 219 160 232 160ZM152 160C165 160 176 171 176 184C176 197 165 208 152 208S128 197 128 184C128 171 139 160 152 160ZM96 256C96 243 107 232 120 232S144 243 144 256C144 269 133 280 120 280S96 269 96 256ZM152 352C139 352 128 341 128 328C128 315 139 304 152 304S176 315 176 328C176 341 165 352 152 352ZM160 256C160 238 174 224 192 224S224 238 224 256S210 288 192 288S160 274 160 256ZM232 352C219 352 208 341 208 328C208 315 219 304 232 304S256 315 256 328C256 341 245 352 232 352ZM264 280C251 280 240 269 240 256C240 243 251 232 264 232S288 243 288 256C288 269 277 280 264 280ZM64 480C64 498 78 512 96 512H288C306 512 320 498 320 480V464H64V480Z"/></svg>