<svg xmlns="http://www.w3.org/2000/svg" viewBox="0 0 384 512"><!-- Font Awesome Pro 6.0.0-alpha1 by @fontawesome - https://fontawesome.com License - https://fontawesome.com/license (Commercial License) --><path d="M320 32C320 14 306 0 288 0H96C78 0 64 14 64 32V48H320V32ZM64 480C64 498 78 512 96 512H288C306 512 320 498 320 480V464H64V480ZM320 80H64C29 80 0 109 0 144V368C0 403 29 432 64 432H320C355 432 384 403 384 368V144C384 109 355 80 320 80ZM120 368C120 372 116 376 112 376H80C76 376 72 372 72 368V336C72 332 76 328 80 328H112C116 328 120 332 120 336V368ZM120 272C120 276 116 280 112 280H80C76 280 72 276 72 272V240C72 236 76 232 80 232H112C116 232 120 236 120 240V272ZM216 368C216 372 212 376 208 376H176C172 376 168 372 168 368V336C168 332 172 328 176 328H208C212 328 216 332 216 336V368ZM216 272C216 276 212 280 208 280H176C172 280 168 276 168 272V240C168 236 172 232 176 232H208C212 232 216 236 216 240V272ZM312 368C312 372 308 376 304 376H272C268 376 264 372 264 368V336C264 332 268 328 272 328H304C308 328 312 332 312 336V368ZM312 272C312 276 308 280 304 280H272C268 280 264 276 264 272V240C264 236 268 232 272 232H304C308 232 312 236 312 240V272ZM312 176C312 180 308 184 304 184H80C76 184 72 180 72 176V144C72 140 76 136 80 136H304C308 136 312 140 312 144V176Z"/></svg>