<svg xmlns="http://www.w3.org/2000/svg" viewBox="0 0 512 512"><!-- Font Awesome Pro 6.0.0-alpha1 by @fontawesome - https://fontawesome.com License - https://fontawesome.com/license (Commercial License) --><path d="M367 145C372 150 378 152 384 152S396 150 401 145L505 41C514 32 514 16 505 7S480 -2 471 7L367 111C358 120 358 136 367 145ZM471 103L399 175C399 175 399 175 399 175C376 177 357 175 341 174C340 169 335 145 336 113C337 113 337 113 337 113L409 41C418 32 418 16 409 7S384 -2 375 7L331 51C317 30 300 16 296 13C269 37 246 69 244 103C246 131 263 159 285 182L244 223C245 217 247 211 247 205C247 158 201 120 195 115C167 139 144 171 143 204C144 233 161 261 184 283L142 325C144 319 145 313 145 306C145 260 99 221 93 217C65 241 42 273 41 306C42 335 59 363 82 385L9 457C-3 470 -3 490 9 503C22 515 42 515 55 503L127 430C150 453 177 471 206 472C239 470 272 447 296 419C279 400 246 369 207 367C200 367 194 368 187 370L229 329C251 351 279 369 308 370C341 369 374 345 398 317C381 298 347 267 308 266C302 266 295 266 289 268L330 227C353 250 381 267 410 268C443 267 476 243 500 216C491 205 477 192 461 181L505 137C514 128 514 112 505 103S480 94 471 103Z"/></svg>