<svg xmlns="http://www.w3.org/2000/svg" viewBox="0 0 512 512"><!-- Font Awesome Pro 6.0.0-alpha1 by @fontawesome - https://fontawesome.com License - https://fontawesome.com/license (Commercial License) --><path d="M482 114C507 86 514 42 512 1C483 -1 431 0 399 30C362 68 368 135 369 143C411 146 454 139 482 114ZM438 170C395 180 366 175 341 174C340 167 330 122 342 72C329 40 301 17 296 13C269 37 246 69 244 103C246 131 263 159 285 182L244 223C245 217 247 211 247 205C247 158 201 120 195 115C167 139 144 171 143 204C144 233 161 261 184 283L142 325C144 319 145 313 145 306C145 260 99 221 93 217C65 241 42 273 41 306C42 335 59 363 82 385L9 457C-3 470 -3 490 9 503C22 515 42 515 55 503L127 430C150 453 177 471 206 472C239 470 272 447 296 419C279 400 246 369 207 367C200 367 194 368 187 370L229 329C251 351 279 369 308 370C341 369 374 345 398 317C381 298 347 267 308 266C302 266 295 266 289 268L330 227C353 250 381 267 410 268C443 267 476 243 500 216C487 201 465 180 438 170Z"/></svg>