<svg xmlns="http://www.w3.org/2000/svg" viewBox="0 0 512 512"><!-- Font Awesome Pro 6.0.0-alpha1 by @fontawesome - https://fontawesome.com License - https://fontawesome.com/license (Commercial License) --><path d="M510 422C505 405 487 396 470 402L450 408L409 308C404 296 392 288 379 288H281L271 240H336C354 240 368 226 368 208S354 176 336 176H257L256 169C252 143 227 125 201 128C175 132 157 157 161 183L184 323C186 340 200 352 216 352H357L402 460C407 472 419 480 432 480C435 480 439 479 442 478L490 462C507 457 516 439 510 422ZM160 464C98 464 48 414 48 352C48 298 87 252 138 242L130 195C56 209 0 274 0 352C0 440 72 512 160 512C237 512 302 457 317 384H267C253 430 211 464 160 464ZM192 96C218 96 240 74 240 48S218 0 192 0S144 22 144 48S166 96 192 96Z"/></svg>