<svg xmlns="http://www.w3.org/2000/svg" viewBox="0 0 640 512"><!-- Font Awesome Pro 6.0.0-alpha1 by @fontawesome - https://fontawesome.com License - https://fontawesome.com/license (Commercial License) --><path d="M628 327L491 221L448 248L416 224L438 179L340 103L340 103C307 79 267 64 224 64C185 64 149 76 119 95C108 77 87 64 64 64C29 64 0 93 0 128C0 156 19 180 44 189C37 210 32 232 32 256C32 362 118 448 224 448C288 448 344 417 379 369L530 445C534 447 539 448 544 448C552 448 560 445 567 439L631 375C637 368 641 359 640 350C639 341 635 332 628 327ZM80 130C76 134 72 138 69 143C67 144 66 144 64 144C55 144 48 137 48 128S55 112 64 112S80 119 80 128C80 129 80 129 80 130ZM224 320C189 320 160 291 160 256C160 221 189 192 224 192S288 221 288 256C288 291 259 320 224 320Z"/></svg>