<svg xmlns="http://www.w3.org/2000/svg" viewBox="0 0 640 512"><!-- Font Awesome Pro 6.0.0-alpha1 by @fontawesome - https://fontawesome.com License - https://fontawesome.com/license (Commercial License) --><path d="M5 155C-2 161 -2 171 5 178L39 212C45 218 55 218 61 212C75 200 90 189 104 179L39 127C27 136 16 145 5 155ZM117 268C110 274 110 285 117 292L151 326C157 331 167 332 173 326C194 308 217 295 242 286L171 231C152 241 134 254 117 268ZM327 353C324 352 322 352 320 352C285 352 256 381 256 416S285 480 320 480C355 480 384 451 384 416C384 408 382 401 380 395L327 353ZM399 287C423 296 446 309 467 326C473 332 483 331 489 326L523 292C530 285 530 274 523 268C455 208 366 184 281 195L200 131C328 89 474 116 579 212C585 218 595 218 601 212L635 178C642 171 642 161 635 155C495 25 293 -1 127 74L39 5C34 2 29 0 24 0C17 0 10 3 5 9C-3 20 -1 35 9 43L601 507C612 515 627 513 635 503C643 492 641 477 631 469L399 287Z"/></svg>