<svg xmlns="http://www.w3.org/2000/svg" viewBox="0 0 512 512"><!-- Font Awesome Pro 6.0.0-alpha1 by @fontawesome - https://fontawesome.com License - https://fontawesome.com/license (Commercial License) --><path d="M0 96V416C0 451 29 480 64 480H448C483 480 512 451 512 416V96C512 61 483 32 448 32H64C29 32 0 61 0 96ZM384 128C384 110 398 96 416 96S448 110 448 128S434 160 416 160S384 146 384 128ZM288 128C288 110 302 96 320 96S352 110 352 128S338 160 320 160S288 146 288 128ZM192 128C192 110 206 96 224 96S256 110 256 128S242 160 224 160S192 146 192 128Z"/></svg>