<svg xmlns="http://www.w3.org/2000/svg" viewBox="0 0 512 512"><!-- Font Awesome Pro 6.0.0-alpha1 by @fontawesome - https://fontawesome.com License - https://fontawesome.com/license (Commercial License) --><path d="M157 256H16C7 256 0 263 0 272V304C0 313 7 320 16 320H158C174 320 189 331 192 347C195 367 179 384 160 384C146 384 134 375 130 362C127 356 121 352 114 352H82C72 352 64 361 66 370C74 414 113 448 160 448C217 448 263 398 255 339C249 291 205 256 157 256ZM16 224H352C412 224 459 169 446 107C438 71 409 42 373 34C317 23 268 59 258 110C256 119 264 128 274 128H306C313 128 319 124 322 118C326 105 338 96 352 96C371 96 387 113 384 133C381 149 366 160 350 160H16C7 160 0 167 0 176V208C0 217 7 224 16 224ZM400 256H244C263 273 277 295 283 320H400C426 320 448 341 448 368C448 394 426 416 400 416C382 416 367 406 358 392C355 387 350 384 344 384H310C299 384 291 395 295 405C313 456 365 490 424 477C465 469 499 436 509 395C526 322 470 256 400 256Z"/></svg>