<svg xmlns="http://www.w3.org/2000/svg" viewBox="0 0 512 512"><!-- Font Awesome Pro 6.0.0-alpha1 by @fontawesome - https://fontawesome.com License - https://fontawesome.com/license (Commercial License) --><path d="M399 426L310 243C304 230 304 214 310 201L383 22C386 14 382 4 374 1C367 -2 360 1 355 7L241 163C233 175 219 183 205 186L13 216C6 217 0 224 0 232V232C0 240 6 247 14 247L204 268C219 270 232 277 241 289L372 442C377 448 385 450 392 446L392 446C399 442 402 433 399 426ZM256 248C243 248 232 237 232 224C232 211 243 200 256 200C269 200 280 211 280 224C280 237 269 248 256 248ZM350 480H302L297 403L221 314L210 480H162C148 480 135 488 129 500C127 504 129 509 132 511C134 512 135 512 136 512H376C380 512 384 508 384 504C384 503 384 502 383 500C377 488 364 480 350 480Z"/></svg>