<svg xmlns="http://www.w3.org/2000/svg" viewBox="0 0 512 512"><!-- Font Awesome Pro 6.0.0-alpha1 by @fontawesome - https://fontawesome.com License - https://fontawesome.com/license (Commercial License) --><path d="M508 123C505 111 489 107 481 115L404 192H320V108L397 31C405 23 401 7 389 4C366 -1 340 -2 313 5C252 19 204 72 194 134C190 161 192 187 200 210L21 389C-7 417 -7 463 21 491C35 505 54 512 72 512S109 505 123 491L302 312C325 320 351 322 378 318C440 308 493 260 507 199C514 172 513 146 508 123ZM80 456C67 456 56 445 56 432C56 419 67 408 80 408S104 419 104 432C104 445 93 456 80 456Z"/></svg>