<svg xmlns="http://www.w3.org/2000/svg" viewBox="0 0 512 512"><!-- Font Awesome Pro 6.0.0-alpha1 by @fontawesome - https://fontawesome.com License - https://fontawesome.com/license (Commercial License) --><path d="M208 352C199 352 192 359 192 368C192 377 199 384 208 384S224 377 224 368C224 359 217 352 208 352ZM304 384C313 384 320 377 320 368C320 359 313 352 304 352S288 359 288 368C288 377 295 384 304 384ZM496 96C505 96 512 89 512 80V48C512 39 505 32 496 32H16C7 32 0 39 0 48V80C0 89 7 96 16 96H32V416H16C7 416 0 423 0 432V464C0 473 7 480 16 480H496C505 480 512 473 512 464V432C512 423 505 416 496 416H480V96H496ZM416 216C416 220 412 224 408 224H272V256H376C380 256 384 260 384 264V280C384 284 380 288 376 288H272V320H341C367 320 382 348 368 370L347 402C341 411 331 416 320 416H192C181 416 171 411 165 402L144 370C130 348 145 320 171 320H240V288H136C132 288 128 284 128 280V264C128 260 132 256 136 256H240V224H104C100 224 96 220 96 216V200C96 196 100 192 104 192H240V160H136C132 160 128 156 128 152V136C128 132 132 128 136 128H240V104C240 100 244 96 248 96H264C268 96 272 100 272 104V128H376C380 128 384 132 384 136V152C384 156 380 160 376 160H272V192H408C412 192 416 196 416 200V216Z"/></svg>