<svg xmlns="http://www.w3.org/2000/svg" viewBox="0 0 512 512"><!-- Font Awesome Pro 6.0.0-alpha1 by @fontawesome - https://fontawesome.com License - https://fontawesome.com/license (Commercial License) --><path d="M256 128C238 128 224 142 224 160S238 192 256 192S288 178 288 160S274 128 256 128ZM256 16C123 16 16 123 16 256C16 389 123 496 256 496S496 389 496 256C496 123 389 16 256 16ZM256 384C238 384 224 370 224 352S238 320 256 320S288 334 288 352S274 384 256 384ZM256 256C203 256 160 299 160 352S203 448 256 448C150 448 64 362 64 256C64 150 150 64 256 64C309 64 352 107 352 160S309 256 256 256Z"/></svg>