<svg xmlns="http://www.w3.org/2000/svg" width="560" height="360">
  <defs>
    <clipPath clipPathUnits="userSpaceOnUse" id="a">
      <path d="M0 270h420V0H0z"/>
    </clipPath>
  </defs>
  <g clip-path="url(#a)" transform="matrix(1.33333 0 0 -1.33333 0 360)">
    <path d="M77.947 50.261L65.967 66.75a.483.483 0 01-.874-.284V54.89a7.522 7.522 0 00-15.044 0v50.06a7.522 7.522 0 007.522 7.521 7.522 7.522 0 007.522-7.52V77.947c0-.466.594-.663.872-.289l13.248 17.795a2.497 2.497 0 002.002 1.005h8.658c3.443 0 5.328-4.01 3.132-6.662l-14.633-17.66a.483.483 0 01.002-.62L94.507 52.35c1.659-1.97.258-4.983-2.32-4.983h-8.561a7.02 7.02 0 00-5.68 2.894M135.959 62.852c2.023 2.11 3.035 5.13 3.035 9.062 0 3.928-.983 6.95-2.947 9.062-1.966 2.11-4.385 3.167-7.258 3.167-2.934 0-5.367-1.042-7.302-3.124-1.936-2.082-2.903-5.118-2.903-9.105 0-3.931.952-6.951 2.859-9.062 1.905-2.111 4.295-3.167 7.17-3.167 2.873 0 5.322 1.056 7.346 3.167m-20.323-13.108c-3.842 2.052-6.862 4.984-9.062 8.797-2.2 3.812-3.3 8.27-3.3 13.373 0 5.043 1.115 9.486 3.345 13.328 2.228 3.84 5.278 6.788 9.15 8.842 3.87 2.052 8.21 3.079 13.02 3.079 4.809 0 9.149-1.027 13.02-3.08 3.872-2.053 6.92-5 9.15-8.841 2.228-3.842 3.343-8.285 3.343-13.328 0-5.045-1.13-9.488-3.387-13.33-2.258-3.841-5.337-6.788-9.238-8.84-3.901-2.055-8.256-3.08-13.064-3.08-4.81 0-9.136 1.025-12.977 3.08M195.46 80.799c-2.084 2.169-4.62 3.255-7.61 3.255-2.993 0-5.53-1.07-7.612-3.211-2.082-2.142-3.122-5.09-3.122-8.841 0-3.755 1.04-6.731 3.122-8.931 2.082-2.2 4.62-3.298 7.611-3.298 2.991 0 5.527 1.084 7.61 3.255 2.081 2.169 3.123 5.13 3.123 8.886 0 3.752-1.042 6.715-3.123 8.885m-30.792 4.487c1.905 3.812 4.5 6.744 7.786 8.798 3.283 2.052 6.95 3.079 10.997 3.079 3.46 0 6.495-.704 9.105-2.112 2.61-1.407 4.62-3.254 6.027-5.542v3.846a3.104 3.104 0 003.105 3.104h8.465a3.474 3.474 0 003.474-3.474V49.379a2.01 2.01 0 00-2.01-2.011h-11.023a2.01 2.01 0 00-2.01 2.01v4.94c-1.468-2.288-3.506-4.135-6.116-5.542-2.61-1.408-5.645-2.112-9.105-2.112-3.989 0-7.626 1.04-10.909 3.123-3.286 2.08-5.88 5.044-7.786 8.886-1.907 3.84-2.859 8.284-2.859 13.329 0 5.043.952 9.47 2.86 13.284M282.836 80.799c-2.083 2.169-4.619 3.255-7.61 3.255-2.992 0-5.529-1.07-7.61-3.211-2.083-2.142-3.123-5.09-3.123-8.841 0-3.755 1.04-6.731 3.123-8.931 2.081-2.2 4.618-3.298 7.61-3.298 2.991 0 5.527 1.084 7.61 3.255 2.081 2.169 3.124 5.13 3.124 8.886 0 3.752-1.043 6.715-3.124 8.885m-30.792 4.487c1.905 3.812 4.5 6.744 7.786 8.798 3.284 2.052 6.95 3.079 10.997 3.079 3.46 0 6.495-.704 9.106-2.112 2.609-1.407 4.618-3.254 6.027-5.542v3.846a3.103 3.103 0 003.104 3.104h8.465a3.474 3.474 0 003.474-3.474V49.379a2.01 2.01 0 00-2.01-2.011H287.97c-1.11 0-2.01.9-2.01 2.01v4.94c-1.467-2.288-3.506-4.135-6.115-5.542-2.611-1.408-5.646-2.112-9.106-2.112-3.989 0-7.625 1.04-10.909 3.123-3.286 2.08-5.881 5.044-7.786 8.886-1.907 3.84-2.859 8.284-2.859 13.329 0 5.043.952 9.47 2.859 13.284M342.482 58.113v-8.735c0-1.11-.9-2.01-2.011-2.01h-5.643c-5.455 0-9.708 1.333-12.757 4.002-3.05 2.668-4.575 7.023-4.575 13.065v19.531h-1.654a4.328 4.328 0 00-4.328 4.328v4.483a3.682 3.682 0 003.682 3.682h2.3v5.195a6.77 6.77 0 006.771 6.77h6.263c1.11 0 2.011-.9 2.011-2.01v-9.955h6.214a3.64 3.64 0 003.639-3.639v-5.445a3.409 3.409 0 00-3.41-3.409h-6.443V64.26c0-1.467.351-2.522 1.055-3.167.704-.646 1.877-.968 3.519-.968h3.356a2.01 2.01 0 002.011-2.01M367.73 89.298v-34.77a7.16 7.16 0 00-7.16-7.16h-.722a7.16 7.16 0 00-7.161 7.16v34.77a7.16 7.16 0 007.16 7.16h.723a7.16 7.16 0 007.16-7.16M239.454 104.882V54.528a7.16 7.16 0 00-7.16-7.16h-.723a7.16 7.16 0 00-7.16 7.16v50.354a7.16 7.16 0 007.16 7.161h.722a7.16 7.16 0 007.161-7.16M177.997 172.035c0-4.062.664-7.968 1.885-11.618-3.298-1.207-6.183-1.91-8.767-1.91-5.64 0-9.828 3.342-13.614 12.075-3.283 7.576-4.298 14.061-3.016 19.275 1.282 5.233 4.962 9.2 10.934 11.788a23.836 23.836 0 009.507 1.996c3.187 0 6.364-.653 9.385-1.955 1.835-.79 3.57-1.81 5.184-3.032-7.079-6.68-11.498-16.142-11.498-26.619M250.144 180.989c-3.695 14.685-16.29 25.87-31.687 27.474a23.51 23.51 0 005.133 7.133c2.333 2.213 5.128 3.942 8.275 5.088 6.118 2.227 11.517 1.875 16.047-1.04 2.257-1.453 4.318-3.534 6.164-6.22 1.844-2.684 3.483-5.972 4.896-9.852 4.68-12.855 1.106-18.194-8.828-22.583" fill="#2751e6"/>
    <path d="M177.997 172.035c0-4.062.664-7.968 1.885-11.618-3.298-1.207-6.183-1.91-8.767-1.91-5.64 0-9.828 3.342-13.614 12.075-3.283 7.576-4.298 14.061-3.016 19.275 1.282 5.233 4.962 9.2 10.934 11.788a23.836 23.836 0 009.507 1.996c3.187 0 6.364-.653 9.385-1.955 1.835-.79 3.57-1.81 5.184-3.032-7.079-6.68-11.498-16.142-11.498-26.619M250.144 180.989c-3.695 14.685-16.29 25.87-31.687 27.474a23.51 23.51 0 005.133 7.133c2.333 2.213 5.128 3.942 8.275 5.088 6.118 2.227 11.517 1.875 16.047-1.04 2.257-1.453 4.318-3.534 6.164-6.22 1.844-2.684 3.483-5.972 4.896-9.852 4.68-12.855 1.106-18.194-8.828-22.583" fill="#fff"/>
    <path d="M250.144 180.989c-3.695 14.685-16.29 25.87-31.687 27.474a23.51 23.51 0 005.133 7.133c2.333 2.213 5.128 3.942 8.275 5.088 6.118 2.227 11.517 1.875 16.047-1.04 2.257-1.453 4.318-3.534 6.164-6.22 1.844-2.684 3.483-5.972 4.896-9.852 4.68-12.855 1.106-18.194-8.828-22.583m-15.046-39.313s0-.005-.006-.005a9.376 9.376 0 00-5.514.256c-1.137.402-2.232 1.02-3.268 1.83a30.429 30.429 0 00-11.684-2.318c-12.206 0-22.768 7.184-27.67 17.55a30.315 30.315 0 00-1.478 3.736 30.501 30.501 0 00-1.448 9.31c0 8.873 3.796 16.872 9.844 22.462.493.458 1 .895 1.523 1.322.518.418 1.05.82 1.599 1.207a30.398 30.398 0 0017.52 5.605h.11c.649 0 1.288-.02 1.926-.065 13.699-.85 24.986-10.76 27.92-23.794a29.237 29.237 0 00.63-4.032c.08-.89.12-1.795.12-2.705a30.405 30.405 0 00-3.82-14.795c1.126.2 2.398.513 3.866.955v.005c.17.045.347.1.527.156a31.56 31.56 0 00-2.378-3.67c-.004-.005-.004-.005-.004-.01-.996-1.297-2.001-2.353-3.012-3.182.307.04.618.085.94.145a41.57 41.57 0 014.364 1.026c.437.126.895.267 1.367.412-3.821-6.842-7.998-10.406-11.974-11.401m-63.983 16.83c-5.64 0-9.828 3.344-13.614 12.076-3.282 7.576-4.298 14.062-3.016 19.275 1.282 5.233 4.962 9.2 10.934 11.789a23.853 23.853 0 009.507 1.996c3.187 0 6.364-.654 9.386-1.956a24.894 24.894 0 005.183-3.031c-7.08-6.682-11.497-16.143-11.497-26.62 0-4.062.663-7.968 1.885-11.618-3.298-1.206-6.183-1.91-8.768-1.91m49.328 80.125c-34.648 0-74.283-27.726-74.283-55.738 0-28.017 16.082-57.914 50.725-57.914 34.648 0 74.736 10.602 74.736 57.914 0 28.012-16.53 55.738-51.178 55.738" fill="#2751e6"/>
    <path d="M234.489 175.977c-.221-.503-.578-.885-1.051-1.061-.754-.276-1.624.035-2.327.734a4.453 4.453 0 00-1.026 1.629c-.643 1.749-.186 3.529 1.02 3.97 1.207.449 2.705-.612 3.354-2.361.392-1.061.377-2.137.03-2.911m-24.167-8.552c-1.206-.442-2.704.614-3.353 2.364-.643 1.749-.186 3.528 1.02 3.97 1.208.448 2.71-.613 3.354-2.362.644-1.75.187-3.524-1.021-3.972m34.779 7.315a29.688 29.688 0 01-.628 4.032c-2.936 13.036-14.222 22.945-27.921 23.794-.64.045-1.277.065-1.926.065h-.11a30.402 30.402 0 01-17.521-5.605 31.229 31.229 0 01-1.598-1.207 31.535 31.535 0 01-1.523-1.321c-6.05-5.591-9.844-13.59-9.844-22.462a30.503 30.503 0 012.126-11.206 30.41 30.41 0 01.8-1.84c4.902-10.367 15.464-17.551 27.67-17.551 4.137 0 8.084.825 11.684 2.318-2.65 2.086-4.902 5.445-6.466 9.718-1.216.89-7.576 17.917-.155 21.647.246.12.487.23.718.327.85.357 1.64.558 2.384.618h.005c2.136.197 3.845-.718 5.213-2.217.583-.638 1.105-1.387 1.568-2.202 3.057-5.354 3.695-13.64 3.695-13.64a3.133 3.133 0 00-.08-.23c2.403-.704 4.509-1.201 8.21-.538a30.406 30.406 0 013.82 14.796c0 .909-.04 1.814-.121 2.704" fill="#fff"/>
    <path d="M234.489 175.977c-.221-.503-.578-.885-1.051-1.061-.754-.276-1.624.035-2.327.734a4.453 4.453 0 00-1.026 1.629c-.643 1.749-.186 3.529 1.02 3.97 1.207.449 2.705-.612 3.354-2.361.392-1.061.377-2.137.03-2.911M210.322 167.425c-1.206-.442-2.705.614-3.353 2.363-.643 1.75-.186 3.529 1.021 3.97 1.206.449 2.71-.612 3.353-2.361.643-1.75.186-3.524-1.02-3.972" fill="#2751e6"/>
    <path d="M247.072 153.077c-3.821-6.842-7.998-10.406-11.975-11.402 0 0 0-.005-.005-.005a9.388 9.388 0 00-5.515.257c-1.136.401-2.232 1.02-3.267 1.83-2.65 2.086-4.902 5.444-6.466 9.717a.193.193 0 01.07-.035c.559-.115 3.887-.664 7.124-.086.11.02.217.041.327.066h.005c2.499.508 4.882 1.72 5.822 4.36 2.403-.705 4.509-1.203 8.21-.539 1.126.201 2.398.512 3.865.955v.005c.17.045.347.1.528.156a31.39 31.39 0 00-2.378-3.67c-.005-.005-.005-.005-.005-.01-.995-1.297-2.001-2.353-3.011-3.182.307.04.618.085.94.145 1.282.221 2.72.553 4.364 1.026.437.125.895.266 1.367.412" fill="#35d102"/>
    <path d="M233.272 158.009a3.133 3.133 0 00-.08-.231c-.94-2.64-3.323-3.851-5.822-4.36h-.005a7.556 7.556 0 00-.327-.064c-3.237-.578-6.565-.03-7.123.085a.21.21 0 00-.07.035c-1.218.89-7.577 17.918-.156 21.648.246.12.487.23.718.327.85.357 1.64.558 2.384.618h.004c2.137.196 3.846-.72 5.213-2.217.584-.638 1.106-1.387 1.57-2.202 3.055-5.354 3.694-13.64 3.694-13.64M107.743 29.582c.464-.508.696-1.206.696-2.094v-3.912h-2.04v3.636c0 .448-.116.796-.348 1.044-.232.248-.544.372-.936.372-.393 0-.704-.124-.936-.372-.232-.248-.348-.596-.348-1.044v-3.636h-2.052v8.88h2.052v-3.084c.208.296.492.532.852.708.36.176.764.264 1.212.264.768 0 1.384-.254 1.848-.762M114.08 27.572c0 .352-.12.632-.36.84-.24.208-.54.312-.9.312-.345 0-.636-.1-.87-.3-.237-.2-.383-.484-.439-.852zm2.062-1.14H111.5c.032-.417.166-.734.402-.954.236-.22.526-.33.87-.33.512 0 .868.216 1.068.648h2.184a2.997 2.997 0 00-.606-1.188 3.034 3.034 0 00-1.098-.828c-.44-.2-.932-.3-1.476-.3-.657 0-1.24.14-1.752.42-.512.28-.912.68-1.2 1.2-.288.52-.432 1.128-.432 1.824 0 .696.141 1.304.426 1.824.284.52.682.92 1.194 1.2.512.28 1.1.42 1.764.42.648 0 1.224-.136 1.728-.408a2.93 2.93 0 001.182-1.164c.284-.504.426-1.092.426-1.764 0-.192-.012-.393-.037-.6M119.311 23.576h-2.052v8.88h2.052zM125.353 28.143a1.406 1.406 0 01-1.05.437c-.408 0-.754-.148-1.038-.444-.284-.296-.426-.7-.426-1.212 0-.511.142-.916.426-1.212.284-.296.63-.443 1.038-.443.408 0 .756.149 1.044.449.288.3.432.706.432 1.219 0 .512-.142.913-.426 1.206m-1.674 1.937c.352.193.764.289 1.237.289.55 0 1.05-.14 1.499-.42.448-.281.802-.68 1.062-1.201.26-.52.39-1.124.39-1.811 0-.69-.13-1.295-.39-1.818-.26-.525-.614-.928-1.062-1.212a2.734 2.734 0 00-1.5-.426c-.464 0-.874.096-1.23.288a2.252 2.252 0 00-.834.743v-4.128h-2.052v9.889h2.052v-.948c.2.31.476.563.828.755M130.999 23.576h-2.052v6.696h2.052zm-1.902 7.71a1.03 1.03 0 00-.342.786c0 .32.114.586.342.798.228.212.522.319.883.319.351 0 .641-.107.87-.319.227-.212.341-.478.341-.798 0-.312-.114-.574-.341-.786-.229-.212-.519-.318-.87-.318-.361 0-.655.106-.883.318M138.445 29.582c.468-.508.702-1.206.702-2.094v-3.912h-2.04v3.636c0 .448-.116.796-.349 1.044-.23.248-.543.372-.935.372-.393 0-.704-.124-.937-.372-.23-.248-.347-.596-.347-1.044v-3.636h-2.052v6.696h2.052v-.888c.208.296.488.53.84.702a2.67 2.67 0 001.188.258c.784 0 1.41-.254 1.878-.762M144.757 28.136c-.284.296-.63.444-1.038.444-.407 0-.754-.145-1.038-.437-.283-.293-.426-.694-.426-1.206 0-.513.143-.918.426-1.22.284-.3.63-.448 1.038-.448.408 0 .754.147 1.038.443.284.296.426.7.426 1.212 0 .513-.142.916-.426 1.212m-.396 1.944c.356-.192.63-.444.822-.756v.949h2.053v-6.685a3.77 3.77 0 00-.367-1.674 2.795 2.795 0 00-1.116-1.194c-.5-.296-1.122-.443-1.866-.443-.992 0-1.796.233-2.412.702-.615.468-.968 1.1-1.056 1.9h2.028a.966.966 0 01.456-.604c.24-.15.536-.223.888-.223.424 0 .762.122 1.014.366s.378.635.378 1.17v.948a2.27 2.27 0 00-.827-.761c-.353-.197-.765-.294-1.237-.294a2.74 2.74 0 00-1.5.426c-.448.284-.801.687-1.062 1.21-.26.525-.39 1.13-.39 1.82 0 .687.13 1.292.39 1.81.26.522.614.92 1.062 1.2.449.282.949.42 1.5.42.472 0 .886-.094 1.242-.287M151.284 28.748c.284.521.68.92 1.188 1.2.508.28 1.09.42 1.747.42.84 0 1.542-.22 2.105-.66.564-.439.935-1.06 1.11-1.859h-2.184c-.184.511-.539.767-1.068.767-.376 0-.676-.146-.9-.438-.224-.292-.336-.71-.336-1.254s.112-.962.336-1.254c.224-.292.524-.438.9-.438.53 0 .884.256 1.068.768h2.184c-.175-.784-.547-1.399-1.116-1.848-.568-.448-1.267-.672-2.099-.672-.657 0-1.239.14-1.747.42-.508.28-.904.68-1.188 1.201-.284.52-.426 1.127-.426 1.823s.142 1.304.426 1.824M161.479 30.026c.359.212.76.317 1.2.317v-2.17h-.564c-.512 0-.897-.11-1.153-.332-.255-.219-.383-.605-.383-1.157v-3.108h-2.052v6.696h2.052v-1.116c.24.368.54.658.9.87M167.874 27.572c0 .352-.12.632-.36.84-.24.208-.54.312-.9.312-.344 0-.635-.1-.87-.3-.236-.2-.382-.484-.438-.852zm2.063-1.14h-4.643c.032-.417.166-.734.402-.954.236-.22.526-.33.87-.33.512 0 .868.216 1.068.648h2.184a2.997 2.997 0 00-.606-1.188 3.034 3.034 0 00-1.098-.828c-.44-.2-.932-.3-1.476-.3-.657 0-1.24.14-1.752.42-.512.28-.912.68-1.2 1.2-.288.52-.432 1.128-.432 1.824 0 .696.141 1.304.426 1.824.284.52.682.92 1.194 1.2.512.28 1.1.42 1.764.42.648 0 1.224-.136 1.728-.408a2.93 2.93 0 001.182-1.164c.284-.504.426-1.092.426-1.764 0-.192-.012-.393-.037-.6M175.236 28.136c-.284.296-.63.444-1.038.444-.407 0-.754-.145-1.038-.437-.283-.293-.426-.694-.426-1.206 0-.513.143-.918.426-1.22.284-.3.631-.448 1.038-.448.408 0 .754.147 1.038.443.284.296.426.7.426 1.212 0 .513-.142.916-.426 1.212m-4.2.612c.261.52.614.92 1.062 1.2.45.28.95.42 1.5.42.472 0 .886-.095 1.242-.288.356-.192.63-.444.822-.756v.949h2.053v-6.697h-2.053v.949a2.192 2.192 0 00-.834-.756c-.356-.193-.77-.288-1.24-.288-.546 0-1.04.14-1.49.426-.448.284-.8.687-1.062 1.21-.26.525-.39 1.13-.39 1.82 0 .687.13 1.292.39 1.81M182.934 25.317v-1.74h-1.044c-.743 0-1.324.18-1.74.546-.415.364-.623.958-.623 1.782v2.664h-.817v1.704h.817v1.632h2.052v-1.632h1.343v-1.704h-1.343v-2.69c0-.2.047-.342.143-.43.097-.088.256-.132.48-.132zM188.124 25.689c.276.288.414.699.414 1.235 0 .536-.134.949-.402 1.237a1.298 1.298 0 01-.99.43c-.4 0-.732-.14-.996-.425s-.396-.699-.396-1.243c0-.536.13-.947.391-1.235a1.26 1.26 0 01.977-.433c.392 0 .726.145 1.002.433m-2.77-1.788c-.526.28-.938.68-1.238 1.2-.3.52-.45 1.128-.45 1.823 0 .69.152 1.294.456 1.82.304.522.72.924 1.248 1.205.528.28 1.12.42 1.776.42.656 0 1.25-.14 1.776-.42a3.107 3.107 0 001.248-1.206c.304-.525.456-1.13.456-1.819 0-.687-.154-1.294-.462-1.817a3.118 3.118 0 00-1.26-1.206 3.767 3.767 0 00-1.782-.42c-.656 0-1.246.14-1.769.42M194.67 30.026c.359.212.76.317 1.2.317v-2.17h-.564c-.512 0-.897-.11-1.153-.332-.255-.219-.383-.605-.383-1.157v-3.108h-2.052v6.696h2.052v-1.116c.24.368.54.658.9.87M198.019 23.78c-.456.2-.816.474-1.08.822a2.162 2.162 0 00-.444 1.17h2.028a.776.776 0 01.324-.564c.192-.144.428-.216.708-.216.256 0 .453.05.594.15.14.1.21.23.21.39 0 .192-.101.334-.3.426-.2.092-.524.194-.973.306-.48.112-.88.23-1.2.354-.32.124-.596.32-.827.588-.232.267-.35.63-.35 1.086 0 .384.108.734.32 1.05.212.316.523.566.935.75.412.184.903.276 1.47.276.84 0 1.503-.208 1.986-.624.485-.416.763-.968.834-1.656h-1.895a.817.817 0 01-.306.552c-.173.136-.398.203-.68.203-.238 0-.422-.045-.55-.137a.441.441 0 01-.193-.378c0-.193.103-.336.307-.432.204-.096.52-.192.954-.288a10.5 10.5 0 001.212-.378 2.09 2.09 0 00.822-.6c.236-.276.358-.646.365-1.11a1.76 1.76 0 00-.33-1.05c-.22-.308-.536-.55-.947-.726-.412-.176-.89-.264-1.434-.264-.584 0-1.104.1-1.56.3M210.648 28.143a1.406 1.406 0 01-1.05.437c-.408 0-.754-.148-1.038-.444-.284-.296-.426-.7-.426-1.212 0-.511.142-.916.426-1.212.284-.296.63-.443 1.038-.443.408 0 .756.149 1.044.449.288.3.432.706.432 1.219 0 .512-.142.913-.426 1.206m-1.674 1.937c.36.193.772.289 1.237.289.55 0 1.05-.14 1.499-.42.448-.281.802-.68 1.062-1.201.26-.52.39-1.124.39-1.811 0-.69-.13-1.295-.39-1.818-.26-.525-.614-.928-1.062-1.212a2.734 2.734 0 00-1.5-.426c-.472 0-.884.094-1.236.28a2.197 2.197 0 00-.828.75v-.934h-2.052v8.879h2.052v-3.131c.192.31.468.563.828.755M220.855 30.273v-6.696h-2.053v.912a2.256 2.256 0 00-.845-.714 2.573 2.573 0 00-1.182-.271c-.513 0-.965.115-1.357.342a2.323 2.323 0 00-.912.99c-.215.433-.324.94-.324 1.525v3.911h2.04v-3.637c0-.447.116-.796.349-1.044.23-.248.544-.372.935-.372.4 0 .716.124.949.372.23.248.347.597.347 1.044v3.637zM224.382 23.576h-2.052v6.696h2.052zm-1.902 7.71a1.03 1.03 0 00-.342.786c0 .32.114.586.342.798.228.212.522.319.882.319.352 0 .642-.107.871-.319.227-.212.341-.478.341-.798 0-.312-.114-.574-.341-.786-.229-.212-.519-.318-.871-.318-.36 0-.654.106-.882.318M227.922 23.576h-2.052v8.88h2.052zM233.592 28.136c-.284.296-.63.444-1.038.444-.407 0-.754-.145-1.038-.437-.283-.293-.426-.694-.426-1.206 0-.513.143-.918.426-1.22.284-.3.63-.448 1.038-.448.408 0 .754.147 1.038.443.284.296.426.7.426 1.212 0 .513-.142.916-.426 1.212m-4.2.612c.26.52.614.92 1.062 1.2.449.28.949.42 1.5.42.44 0 .842-.091 1.206-.276.365-.184.65-.432.858-.743v3.107h2.053v-8.88h-2.053v.96a2.081 2.081 0 00-.822-.767c-.356-.193-.77-.288-1.242-.288a2.74 2.74 0 00-1.5.426c-.448.284-.801.687-1.062 1.21-.26.525-.39 1.13-.39 1.82 0 .687.13 1.292.39 1.81M244.283 28.136c-.284.296-.63.444-1.038.444-.407 0-.754-.145-1.038-.437-.283-.293-.426-.694-.426-1.206 0-.513.143-.918.426-1.22.284-.3.631-.448 1.038-.448.408 0 .754.147 1.038.443.284.296.426.7.426 1.212 0 .513-.142.916-.426 1.212m-4.2.612c.261.52.614.92 1.062 1.2.45.28.95.42 1.5.42.472 0 .886-.095 1.242-.288.356-.192.63-.444.822-.756v.949h2.053v-6.697h-2.053v.949a2.192 2.192 0 00-.834-.756c-.356-.193-.77-.288-1.24-.288-.546 0-1.04.14-1.49.426-.448.284-.8.687-1.062 1.21-.26.525-.39 1.13-.39 1.82 0 .687.13 1.292.39 1.81M255.347 28.143a1.406 1.406 0 01-1.05.437c-.408 0-.754-.148-1.038-.444-.284-.296-.426-.7-.426-1.212 0-.511.142-.916.426-1.212.284-.296.63-.443 1.038-.443.408 0 .756.149 1.044.449.288.3.432.706.432 1.219 0 .512-.142.913-.426 1.206m-1.674 1.937c.36.193.772.289 1.237.289.55 0 1.05-.14 1.499-.42.448-.281.802-.68 1.062-1.201.26-.52.39-1.124.39-1.811 0-.69-.13-1.295-.39-1.818-.26-.525-.614-.928-1.062-1.212a2.734 2.734 0 00-1.5-.426c-.472 0-.884.094-1.236.28a2.197 2.197 0 00-.828.75v-.934h-2.052v8.879h2.052v-3.131c.192.31.468.563.828.755M263.153 27.572c0 .352-.12.632-.36.84-.24.208-.54.312-.9.312-.344 0-.635-.1-.87-.3-.236-.2-.382-.484-.438-.852zm2.063-1.14h-4.643c.032-.417.166-.734.402-.954.236-.22.526-.33.87-.33.512 0 .868.216 1.068.648h2.184a2.997 2.997 0 00-.606-1.188 3.034 3.034 0 00-1.098-.828c-.44-.2-.932-.3-1.476-.3-.657 0-1.24.14-1.752.42-.512.28-.912.68-1.2 1.2-.288.52-.432 1.128-.432 1.824 0 .696.141 1.304.426 1.824.284.52.682.92 1.194 1.2.512.28 1.1.42 1.764.42.648 0 1.224-.136 1.728-.408a2.93 2.93 0 001.182-1.164c.284-.504.426-1.092.426-1.764 0-.192-.012-.393-.037-.6M270.065 25.317v-1.74h-1.044c-.743 0-1.324.18-1.74.546-.415.364-.623.958-.623 1.782v2.664h-.817v1.704h.817v1.632h2.052v-1.632h1.343v-1.704h-1.343v-2.69c0-.2.047-.342.143-.43.097-.088.256-.132.48-.132zM274.937 25.317v-1.74h-1.044c-.743 0-1.324.18-1.74.546-.415.364-.623.958-.623 1.782v2.664h-.817v1.704h.817v1.632h2.052v-1.632h1.343v-1.704h-1.343v-2.69c0-.2.047-.342.143-.43.097-.088.256-.132.48-.132zM280.288 27.572c0 .352-.12.632-.36.84-.24.208-.54.312-.9.312-.344 0-.635-.1-.87-.3-.236-.2-.382-.484-.438-.852zm2.063-1.14h-4.643c.032-.417.166-.734.402-.954.236-.22.526-.33.87-.33.512 0 .868.216 1.068.648h2.184a2.997 2.997 0 00-.606-1.188 3.034 3.034 0 00-1.098-.828c-.44-.2-.932-.3-1.476-.3-.657 0-1.24.14-1.752.42-.512.28-.912.68-1.2 1.2-.288.52-.432 1.128-.432 1.824 0 .696.141 1.304.426 1.824.284.52.682.92 1.194 1.2.512.28 1.1.42 1.764.42.648 0 1.224-.136 1.728-.408a2.93 2.93 0 001.182-1.164c.284-.504.426-1.092.426-1.764 0-.192-.012-.393-.037-.6M286.421 30.026c.359.212.76.317 1.2.317v-2.17h-.564c-.512 0-.897-.11-1.153-.332-.255-.219-.383-.605-.383-1.157v-3.108h-2.052v6.696h2.052v-1.116c.24.368.54.658.9.87M300.76 30.273l-1.811-6.696h-2.268l-1.057 4.343-1.092-4.343h-2.255l-1.825 6.696h2.052l.948-4.788 1.128 4.788h2.172l1.14-4.765.936 4.765zM305.752 27.572c0 .352-.12.632-.36.84-.24.208-.54.312-.9.312-.344 0-.635-.1-.87-.3-.236-.2-.382-.484-.438-.852zm2.063-1.14h-4.643c.032-.417.166-.734.402-.954.236-.22.526-.33.87-.33.512 0 .868.216 1.068.648h2.184a2.997 2.997 0 00-.606-1.188 3.034 3.034 0 00-1.098-.828c-.44-.2-.932-.3-1.476-.3-.657 0-1.241.14-1.752.42-.512.28-.912.68-1.2 1.2-.288.52-.432 1.128-.432 1.824 0 .696.141 1.304.426 1.824.284.52.682.92 1.194 1.2.512.28 1.1.42 1.764.42.648 0 1.224-.136 1.728-.408a2.93 2.93 0 001.182-1.164c.284-.504.426-1.092.426-1.764 0-.192-.012-.393-.037-.6M313.486 28.143a1.406 1.406 0 01-1.05.437c-.408 0-.754-.148-1.038-.444-.284-.296-.426-.7-.426-1.212 0-.511.142-.916.426-1.212.284-.296.63-.443 1.038-.443.408 0 .756.149 1.044.449.288.3.432.706.432 1.219 0 .512-.142.913-.426 1.206m-1.674 1.937c.361.193.772.289 1.237.289.551 0 1.051-.14 1.5-.42.447-.281.801-.68 1.061-1.201.26-.52.39-1.124.39-1.811 0-.69-.13-1.295-.39-1.818-.26-.525-.614-.928-1.062-1.212a2.734 2.734 0 00-1.499-.426c-.473 0-.885.094-1.237.28a2.197 2.197 0 00-.828.75v-.934h-2.052v8.879h2.052v-3.131c.192.31.468.563.828.755" fill="#2751e6"/>
  </g>
</svg>
