<svg xmlns="http://www.w3.org/2000/svg" width="733.333" height="266.667">
  <defs>
    <clipPath clipPathUnits="userSpaceOnUse" id="a">
      <path d="M0 200h550V0H0z"/>
    </clipPath>
  </defs>
  <g clip-path="url(#a)" transform="matrix(1.33333 0 0 -1.33333 0 266.667)">
    <path class="bubble earfill" d="M69.592 92.998c0-4.062.663-7.968 1.885-11.618-3.298-1.207-6.183-1.91-8.767-1.91-5.641 0-9.829 3.342-13.615 12.075-3.282 7.576-4.298 14.061-3.016 19.275 1.282 5.233 4.962 9.2 10.934 11.788a23.84 23.84 0 009.507 1.996c3.187 0 6.364-.653 9.386-1.955a24.899 24.899 0 005.183-3.032c-7.078-6.68-11.497-16.142-11.497-26.619" fill="#2751e6"/>
    <path class="bubble earfill" d="M141.738 101.952c-3.695 14.685-16.288 25.87-31.687 27.474a23.527 23.527 0 005.133 7.133c2.333 2.213 5.128 3.942 8.275 5.088 6.118 2.227 11.518 1.875 16.047-1.04 2.257-1.453 4.318-3.534 6.164-6.22 1.844-2.684 3.484-5.972 4.896-9.852 4.68-12.855 1.106-18.194-8.828-22.583" fill="#2751e6"/>
    <path class="bubble" d="M141.738 101.952c-3.695 14.685-16.288 25.87-31.687 27.474a23.527 23.527 0 005.133 7.133c2.333 2.213 5.128 3.942 8.275 5.088 6.118 2.227 11.518 1.875 16.047-1.04 2.257-1.453 4.318-3.534 6.164-6.22 1.844-2.684 3.484-5.972 4.896-9.852 4.68-12.855 1.106-18.194-8.828-22.583m-15.046-39.313s0-.005-.006-.005a9.376 9.376 0 00-5.514.256c-1.137.402-2.232 1.02-3.268 1.83a30.429 30.429 0 00-11.684-2.318c-12.206 0-22.768 7.184-27.669 17.55a29.712 29.712 0 00-.8 1.84 31.116 31.116 0 00-.679 1.896 30.5 30.5 0 00-1.447 9.31c0 8.873 3.795 16.872 9.843 22.462.493.458 1 .895 1.523 1.323a31.83 31.83 0 001.599 1.206 30.398 30.398 0 0017.52 5.605h.11c.649 0 1.288-.02 1.926-.065 13.699-.85 24.986-10.76 27.922-23.794a29.615 29.615 0 00.628-4.032c.081-.89.12-1.795.12-2.705a30.405 30.405 0 00-3.82-14.795c1.126.2 2.398.513 3.866.955v.005c.17.045.347.1.527.156a31.43 31.43 0 00-2.378-3.67c-.004-.005-.004-.005-.004-.01-.996-1.297-2.001-2.353-3.012-3.182.307.04.618.085.94.146 1.282.22 2.72.553 4.364 1.025.438.126.895.267 1.368.412-3.821-6.842-7.999-10.406-11.975-11.401M62.71 79.469c-5.641 0-9.829 3.344-13.615 12.076-3.282 7.576-4.298 14.062-3.016 19.275 1.282 5.234 4.962 9.2 10.934 11.789a23.857 23.857 0 009.507 1.996c3.187 0 6.364-.654 9.386-1.956a24.894 24.894 0 005.183-3.031c-7.078-6.682-11.497-16.143-11.497-26.62 0-4.062.663-7.968 1.885-11.618-3.298-1.206-6.183-1.91-8.767-1.91m49.327 80.125c-34.648 0-74.283-27.726-74.283-55.738 0-28.017 16.082-57.914 50.725-57.914 34.648 0 74.736 10.603 74.736 57.914 0 28.012-16.53 55.738-51.178 55.738" fill="#2751e6"/>
    <path class="ear right" d="M69.592 92.998c0-4.062.663-7.968 1.885-11.618-3.298-1.207-6.183-1.91-8.767-1.91-5.641 0-9.829 3.342-13.615 12.075-3.282 7.576-4.298 14.061-3.016 19.275 1.282 5.233 4.962 9.2 10.934 11.788a23.84 23.84 0 009.507 1.996c3.187 0 6.364-.653 9.386-1.955a24.899 24.899 0 005.183-3.032c-7.078-6.68-11.497-16.142-11.497-26.619" fill="#fff"/>
    <path class="ear left" d="M141.738 101.952c-3.695 14.685-16.288 25.87-31.687 27.474a23.527 23.527 0 005.133 7.133c2.333 2.213 5.128 3.942 8.275 5.088 6.118 2.227 11.518 1.875 16.047-1.04 2.257-1.453 4.318-3.534 6.164-6.22 1.844-2.684 3.484-5.972 4.896-9.852 4.68-12.855 1.106-18.194-8.828-22.583" fill="#fff"/>
    <path class="face" d="M126.083 96.94c-.22-.504-.578-.886-1.05-1.062-.755-.275-1.625.036-2.328.735a4.453 4.453 0 00-1.026 1.628c-.643 1.75-.186 3.53 1.021 3.972 1.206.448 2.704-.613 3.353-2.362.392-1.061.377-2.137.03-2.911m-24.166-8.551c-1.207-.443-2.705.613-3.354 2.363-.643 1.749-.186 3.528 1.021 3.97 1.207.448 2.71-.613 3.353-2.362.644-1.75.187-3.524-1.02-3.971m34.78 7.314a30.245 30.245 0 01-.248 2.04 29.004 29.004 0 01-.382 1.992c-2.936 13.036-14.222 22.945-27.92 23.794-.64.045-1.278.065-1.927.065h-.11a30.395 30.395 0 01-17.52-5.605 31.83 31.83 0 01-1.599-1.207 32.118 32.118 0 01-1.523-1.321c-6.048-5.592-9.843-13.59-9.843-22.463 0-3.243.507-6.375 1.447-9.31.206-.645.432-1.273.68-1.896a29.78 29.78 0 01.798-1.84c4.902-10.366 15.464-17.55 27.67-17.55 4.137 0 8.084.824 11.684 2.317-2.65 2.087-4.902 5.446-6.466 9.719-1.216.89-7.576 17.916-.155 21.646.246.121.487.231.718.327.85.357 1.64.558 2.384.618h.005c2.136.197 3.845-.718 5.213-2.216a12.18 12.18 0 001.568-2.203c3.057-5.354 3.696-13.639 3.696-13.639a3.68 3.68 0 00-.08-.23c2.402-.705 4.508-1.202 8.21-.539A30.406 30.406 0 01136.816 93c0 .909-.04 1.815-.12 2.704" fill="#fff"/>
    <path class="eye left" d="M126.083 96.94c-.22-.504-.578-.886-1.05-1.062-.755-.275-1.625.036-2.328.735a4.453 4.453 0 00-1.026 1.628c-.643 1.75-.186 3.53 1.021 3.972 1.206.448 2.704-.613 3.353-2.362.392-1.061.377-2.137.03-2.911" fill="#2751e6"/>
    <path class="eye right" d="M101.917 88.388c-1.207-.442-2.705.613-3.354 2.363-.643 1.75-.186 3.53 1.021 3.971 1.207.448 2.71-.613 3.354-2.363.643-1.749.186-3.524-1.02-3.97" fill="#2751e6"/>
    <path class="leaf" d="M138.667 74.04c-3.821-6.842-8-10.406-11.975-11.402 0 0 0-.005-.005-.005a9.388 9.388 0 00-5.515.257c-1.136.402-2.232 1.02-3.268 1.83-2.65 2.086-4.902 5.444-6.465 9.717.025-.02.05-.03.07-.035.558-.115 3.887-.664 7.124-.086.11.021.216.041.327.066h.005c2.498.508 4.88 1.72 5.822 4.36 2.402-.705 4.509-1.203 8.209-.539 1.126.201 2.398.512 3.866.955v.005c.17.045.347.101.528.156a31.52 31.52 0 00-2.378-3.67c-.005-.005-.005-.005-.005-.01-.995-1.297-2.001-2.353-3.011-3.182.306.04.618.085.94.146 1.282.22 2.72.552 4.363 1.025.438.125.895.266 1.368.412" fill="#35d102"/>
    <path class="nose" d="M124.867 78.972a2.731 2.731 0 00-.081-.231c-.94-2.64-3.323-3.851-5.821-4.36h-.005a7.869 7.869 0 00-.327-.064c-3.238-.578-6.566-.03-7.124.086a.17.17 0 00-.07.035c-1.217.889-7.576 17.917-.156 21.647.247.12.488.23.719.327.849.357 1.639.558 2.383.618h.005c2.137.196 3.846-.72 5.213-2.217a12.19 12.19 0 001.569-2.202c3.056-5.354 3.695-13.64 3.695-13.64" fill="#2751e6"/>
    <path class="k" d="M221.248 65.017l-11.98 16.49a.484.484 0 01-.874-.286V69.645a7.522 7.522 0 00-15.044 0v50.06a7.522 7.522 0 0015.044 0v-27c0-.467.594-.664.872-.29l13.248 17.795a2.497 2.497 0 002.002 1.005h8.658c3.443 0 5.328-4.01 3.132-6.662l-14.633-17.66a.483.483 0 01.002-.62l16.133-19.167c1.659-1.97.258-4.983-2.32-4.983h-8.561a7.02 7.02 0 00-5.68 2.894" fill="#2751e6"/>
    <path class="o" d="M279.26 77.608c2.023 2.111 3.035 5.131 3.035 9.061 0 3.93-.983 6.95-2.947 9.063-1.966 2.11-4.385 3.166-7.258 3.166-2.934 0-5.367-1.041-7.302-3.123-1.936-2.083-2.903-5.118-2.903-9.106 0-3.93.952-6.95 2.859-9.061 1.904-2.112 4.294-3.168 7.17-3.168 2.873 0 5.322 1.057 7.346 3.168m-20.323-13.109c-3.842 2.053-6.862 4.985-9.062 8.798-2.2 3.811-3.3 8.27-3.3 13.372 0 5.044 1.115 9.487 3.345 13.33 2.228 3.84 5.278 6.788 9.15 8.84 3.87 2.054 8.21 3.08 13.02 3.08 4.809 0 9.149-1.026 13.02-3.08 3.871-2.052 6.92-5 9.15-8.84 2.228-3.843 3.343-8.286 3.343-13.33 0-5.044-1.13-9.487-3.387-13.328-2.258-3.843-5.337-6.79-9.237-8.842-3.902-2.053-8.257-3.078-13.065-3.078-4.81 0-9.136 1.024-12.977 3.078" fill="#2751e6"/>
    <path class="a a1" d="M338.76 95.555c-2.083 2.17-4.62 3.255-7.61 3.255-2.992 0-5.53-1.07-7.611-3.21-2.082-2.143-3.122-5.09-3.122-8.843 0-3.754 1.04-6.73 3.122-8.93 2.082-2.199 4.619-3.299 7.61-3.299 2.992 0 5.528 1.085 7.61 3.256 2.082 2.168 3.124 5.131 3.124 8.885 0 3.753-1.042 6.716-3.123 8.886m-30.792 4.487c1.905 3.811 4.5 6.744 7.786 8.797 3.283 2.053 6.95 3.08 10.997 3.08 3.46 0 6.495-.704 9.105-2.112 2.61-1.408 4.619-3.255 6.027-5.542v3.846a3.105 3.105 0 003.105 3.104h8.465a3.474 3.474 0 003.474-3.475V64.135c0-1.11-.9-2.012-2.011-2.012h-11.022a2.011 2.011 0 00-2.011 2.012v4.94c-1.467-2.289-3.505-4.136-6.115-5.544-2.61-1.408-5.645-2.11-9.105-2.11-3.99 0-7.626 1.04-10.91 3.122-3.285 2.081-5.88 5.043-7.785 8.886-1.907 3.84-2.86 8.283-2.86 13.328 0 5.044.953 9.471 2.86 13.285" fill="#2751e6"/>
    <path class="l" d="M382.755 119.639V69.285a7.16 7.16 0 00-7.16-7.161h-.723a7.16 7.16 0 00-7.16 7.16v50.355a7.16 7.16 0 007.16 7.16h.722a7.16 7.16 0 007.161-7.16" fill="#2751e6"/>
    <path class="a a2" d="M426.137 95.555c-2.083 2.17-4.62 3.255-7.61 3.255-2.992 0-5.53-1.07-7.61-3.21-2.083-2.143-3.123-5.09-3.123-8.843 0-3.754 1.04-6.73 3.123-8.93 2.08-2.199 4.618-3.299 7.61-3.299 2.99 0 5.527 1.085 7.61 3.256 2.08 2.168 3.124 5.131 3.124 8.885 0 3.753-1.043 6.716-3.124 8.886m-30.792 4.487c1.905 3.811 4.5 6.744 7.786 8.797 3.284 2.053 6.95 3.08 10.997 3.08 3.46 0 6.495-.704 9.106-2.112 2.609-1.408 4.618-3.255 6.027-5.542v3.846a3.104 3.104 0 003.104 3.104h8.465a3.474 3.474 0 003.474-3.475V64.135c0-1.11-.9-2.012-2.01-2.012H431.27c-1.11 0-2.01.901-2.01 2.012v4.94c-1.467-2.289-3.506-4.136-6.115-5.544-2.611-1.408-5.646-2.11-9.106-2.11-3.99 0-7.625 1.04-10.91 3.122-3.285 2.081-5.88 5.043-7.785 8.886-1.907 3.84-2.86 8.283-2.86 13.328 0 5.044.953 9.471 2.86 13.285" fill="#2751e6"/>
    <path class="t" d="M485.783 72.87v-8.735a2.01 2.01 0 00-2.011-2.011h-5.643c-5.455 0-9.708 1.333-12.757 4.003-3.05 2.668-4.575 7.023-4.575 13.065v19.53h-1.654a4.328 4.328 0 00-4.328 4.328v4.484a3.681 3.681 0 003.682 3.68h2.3v5.196a6.771 6.771 0 006.77 6.77h6.264c1.11 0 2.01-.9 2.01-2.011v-9.954h6.215a3.639 3.639 0 003.639-3.64v-5.443a3.409 3.409 0 00-3.41-3.41h-6.443V79.017c0-1.467.35-2.523 1.055-3.167.704-.646 1.877-.968 3.519-.968h3.356a2.011 2.011 0 002.01-2.011" fill="#2751e6"/>
    <path class="i" d="M511.031 104.054v-34.77a7.16 7.16 0 00-7.16-7.16h-.723a7.16 7.16 0 00-7.16 7.16v34.77a7.16 7.16 0 007.16 7.161h.722a7.16 7.16 0 007.161-7.16" fill="#2751e6"/>
  </g>
</svg>
