<svg xmlns="http://www.w3.org/2000/svg" width="400" height="276.827571">
  <path d="M5.847.233c-.106.128-.705 1.272-1.331 2.542C3.218 5.41 2.312 6.542.923 7.268-1.289 8.424.26 9.021 4.545 8.666c3.668-.305 5.205-.792 6.472-2.051 1.527-1.519 2.028-3.966 1.191-5.823L11.852 0H8.946C6.661 0 6 .05 5.847.233m63.736.249c-1.146.659-2.265 1.899-3.922 4.351-4.089 6.051-5.714 6.349-9.414 1.731-1.665-2.078-2.329-2.696-3.497-3.253-3.659-1.747-10.991 1.64-13.068 6.037-.682 1.443-2.832 8.891-2.626 9.097.419.418 2.28-.718 4.418-2.697 5.304-4.911 11.54-5.976 16.346-2.794C59.331 13.955 59.313 14 57.41 14c-4.524 0-10.703 1.377-14.776 3.293-3.517 1.655-4.266 3.722-2.794 7.707.61 1.652.591 2.334-.094 3.37-.981 1.481-.825 2.55.456 3.132 1.911.867 3.126.092 5.226-3.335 2.243-3.662 5.61-6.07 12.444-8.901 3.242-1.343 4.51-1.398 4.947-.215.4 1.081-.316 1.746-6.569 6.104-4.276 2.98-8.817 9.163-9.042 12.313-.118 1.647.253 2.341 2.327 4.349 2.474 2.395 2.912 3.64 2.466 7.007-.258 1.949-.168 2.459.46 2.624 1.823.479 2.551-.983 4.789-9.615 1.73-6.676 2.884-9.579 4.867-12.252 2.844-3.833 7.463-6.985 9.041-6.169 1.338.692.983 1.885-1.284 4.306-5.447 5.817-7.735 9.17-9.273 13.588-2.036 5.849-1.491 11.405 1.565 15.944 1.481 2.2 1.753 3 1.471 4.318-.291 1.355.768 1.874 1.821.891.551-.514.488-1.4-.215-3.017-1.148-2.641-1.148-4.546 0-8.993 1.468-5.69 2.26-7.253 5.503-10.866 2.32-2.583 2.803-3.39 3.425-5.715.681-2.548 2.191-3.159 3.782-1.53 1.429 1.461 1.054 3.075-1.75 7.531-3.169 5.036-3.339 7.173-.949 11.964 1.071 2.147 1.29 3.158 1.228 5.667-.194 7.843-.209 7.824 8.636 10.915 6.58 2.3 6.787 2.128 3.443-2.869-3.527-5.272-4.263-9.394-3.295-18.463.376-3.521.69-4.25 1.834-4.25 1.867 0 2.893 4.227 3.478 14.334.328 5.675.733 6.923 3.418 10.537 2.414 3.25 3.198 2.568 2.351-2.047-.887-4.831-.404-7.277 1.721-8.719 1.561-1.06 2.356-.057 3.098 3.907.799 4.279 2.828 6.279 5.252 5.178 1.634-.743 2.287-2.075 2.847-5.811.793-5.28.764-5.548-.757-7.045l-.932-.917.713.059c2.299.188 2.384-2.393.189-5.734-3.095-4.709-7.678-8.223-13.756-10.548-5.299-2.026-6.534-3.084-5.18-4.434 1.773-1.768 5.199-1.761 9.996.021 5.388 2.002 8.299 2.06 9.464.189.699-1.123.133-1.963-2.514-3.732-5.075-3.391-12.031-5.239-18.238-4.847-2.188.138-6.183-.142-6.683-.469-1.926-1.262 2.348-2.396 6.35-1.684 1.238.22 10.118 2.168 10.808 2.371.396.117.248-.453-.312-1.202-1.032-1.379-7.118-3.456-13.89-4.741-3.682-.699-6.46-1.949-5.8-2.611.534-.536 5.756-.096 7.443.626.731.313 9.661 2.048 9.804 1.905.331-.331-3.164-4.026-4.965-5.249-3.282-2.228-5.478-2.596-9.588-1.604-2.311.558-5.403.765-6.706.449-1.005-.244-1.711-.521-1.711-.674 0-.289 7.301-2.384 11.375-3.262 1.545-.334 1.537-.295.326-1.449-3.121-2.977-7.775-3.186-11.239-.504-2.328 1.802-3.606 2.16-4.884 1.371-1.25-.773-1.333-.704 2.731-2.261 4.524-1.733 4.968-2.173 3.674-3.647L74.465 0l-2.024.002c-1.923.001-2.066.025-2.858.48M107.5.311c0 .171.155.508.345.75.403.512.388.519-.403.189-2.432-1.016-3.869.689-2.442 2.897 1.155 1.787 1.351 2.641 1.494 6.52.183 4.954.077 4.649 5.036 14.489 6.098 12.1 6.047 12.042 12.418 14.156 3.289 1.092 4.221 1.577 8.265 4.301 5.914 3.984 7.479 4.555 12.829 4.678 5.905.137 6.581-.227 4.935-2.657-.354-.522-.644-1-.644-1.062 0-.062-.46-.605-1.023-1.207-1.47-1.572-2.06-2.893-2.06-4.615 0-2.2.614-2.956 3.5-4.312 4.494-2.112 3.326-5.27-2.577-6.971-8.343-2.403-14.306-8.614-16.276-16.953-.768-3.249-2.281-4.44-3.619-2.85l-.383.455-.544-1.049c-1.507-2.909-4.745-5.583-8.137-6.722-1.518-.51-10.714-.541-10.714-.037m41.75-.135c.835.173 2.698.168 3.25-.009.253-.081-.433-.133-1.75-.131-1.575.002-1.984.04-1.5.14m10.25.109c-.668.298-.674.295 1.167.714.504.115 1.819.653 2.922 1.197 3.7 1.822 6.047 1.291 5.878-1.33l-.05-.783-4.667-.029c-3.917-.025-4.76.012-5.25.231m14.167-.143c0 .28 3.394 3.717 4.713 4.772 3.722 2.978 5.15 3.271 17.131 3.517 6.262.128 6.735.095 7.476-.529.684-.576.517-.902-.463-.903-1.879-.003-4.193-.829-8.834-3.154-1.31-.656-3.07-1.433-3.911-1.727l-1.529-.535-4.103.044c-4.588.049-5.365-.075-6.89-1.105-.77-.519-3.59-.818-3.59-.38m29.421.316c1.945 3.049 5.336 6.419 6.145 6.109.684-.263 2.1-3.882 2.1-5.369 0-1.273.273-1.198-4.37-1.198h-4.168l.293.458m21.842.216c-2.492 2.758-4.689 6.588-7.321 12.761-1.143 2.683-1.348 3.628-.757 3.49.219-.05 2.468-.43 4.999-.842 8.619-1.406 10.526-2.258 14.903-6.653 3.064-3.076 3.574-4.153 3.577-7.555L240.333 0h-14.794l-.609.674m19.945 1.451c-2.269 4.778-4.18 11.139-3.8 12.651.433 1.724 13.148-3.838 17.962-7.858 1.838-1.535 4.796-5.69 4.796-6.736 0-.129-2.602-.182-8.974-.182h-8.975l-1.009 2.125M272.009.443c-.503.639-.884 2.08-.746 2.818l.115.612.75-.103c1.338-.184 5.246-2.323 6.614-3.62.094-.089-1.165-.15-3.113-.15h-3.271l-.349.443m11.775 7.994c-3.647 4.641-6.603 8.466-6.569 8.501.18.179 2.917-.715 4.401-1.439 3.563-1.739 6.941-4.865 10.929-10.115 1.252-1.648 2.773-3.534 3.381-4.19L297.031 0h-6.616l-6.631 8.437m30.966-7.145c.062.71.419 3.429.794 6.041.677 4.715.682 4.791.724 10.334.046 6.129-.012 5.651 1.47 12.088.232 1.011.484 2.473.559 3.25l.137 1.412.294-.667c.762-1.731.841-2.537.859-8.75.017-5.859.022-5.934.468-7.667.939-3.649.822-4.83-.882-8.902-1.363-3.255-1.683-6.141-.906-8.166.09-.233-.125-.265-1.763-.265h-1.866l.112 1.292m9.643-.167c-.426 3.595-.109 8.308.882 13.125 1.044 5.07.965 9.664-.275 15.968-.544 2.764-.584 2.606.507 2.012 1.478-.804 2.489-2.295 3.065-4.517.898-3.472 2.328-21.959 2.018-26.096L330.469 0h-5.942l-.134 1.125M376.75.847c6.194 3.501 14.62 6.32 18.895 6.32.792 0-.53-3.525-2.345-6.25l-.555-.834-8.747-.042-8.748-.042 1.5.848m-67.833.971c-14.178 5.411-29.599 15.569-34.306 22.596-.636.95-.599.965 1.014.396 4.331-1.527 7.795-3.618 15.292-9.229 4.91-3.675 7.357-5.336 10.666-7.242 4.669-2.687 8.388-5.486 9.034-6.797.233-.473.284-.481-1.7.276m.587 1.489c-.683 1.15-1.162 2.815-1.168 4.06-.003.611-.041.646-4.211 3.763-13.204 9.872-21.703 18.443-27.014 27.242-.428.709-.778 1.333-.778 1.387 0 .179 3.485-1.718 4.884-2.658 3.01-2.024 6.404-5.257 13.067-12.448 3.165-3.416 4.859-5.034 8.049-7.684 1.86-1.546 4.657-4.301 5.532-5.451l.43-.565.117 1.065c.107.974.398 2.814 2.165 13.701.947 5.84 1.01 5.795 2.452-1.73 1.738-9.071 1.725-9.418-.538-14.195-1.727-3.645-2.209-5.057-2.219-6.502-.009-1.365.053-1.367-.768.015m-155.036 3c.536.61 1.515 1.799 2.175 2.642 3.143 4.011 6.493 5.091 8.817 2.842 2.376-2.3-.464-5.208-5.337-5.467-2.437-.129-4.222-.402-5.864-.896l-.766-.231.975 1.11m-18.516-.02c-1.652.55-3.123 2.501-2.876 3.814.292 1.559 1.698 2.225 5.091 2.411 3.209.175 3.758.373 5.229 1.882 1.361 1.396 1.385 1.234.248-1.644-2.099-5.314-4.668-7.472-7.692-6.463m210.785.535c-1.404.805-2.636 2.586-2.991 4.325l-.115.564.629-.119c2.753-.516 4.74-2.174 4.74-3.956 0-1.357-.808-1.648-2.263-.814m15.657-.24c-6.403 1.393-17.632 12.773-16.554 16.778.354 1.313 1.165 1.249 2.783-.217 2.72-2.465 5.725-3.987 11.759-5.956 6.053-1.975 7.112-2.046 11.401-.761 5.309 1.591 10.176 1.966 14.206 1.097 1.118-.241 1.966-.337 2.375-.268.963.163.842.069-1.989-1.551-13.73-7.852-19.582-10.078-23.981-9.122M24.537 10.759c-1.322.926.766 3.561 3.463 4.371 2.06.619 2.16.487 1.177-1.546-1.181-2.438-3.326-3.745-4.64-2.825m158.52-.002c-.694 1.811 3.227 6.784 6.693 8.486 5.646 2.772 10.664 1.672 16.484-3.615l1.602-1.455-1.876-.918c-3.978-1.947-6.073-2.062-9.536-.525-4.342 1.928-8.058 1.476-12.057-1.469-1.163-.855-1.173-.859-1.31-.504M13.248 11.3c-3.18 1.099-5.384 3.651-6.888 7.972-.442 1.271-.862 2.443-.933 2.603-.113.254-.031.292.628.292.417 0 1.269.119 1.893.265 2.714.634 4.195-.231 5.773-3.375.42-.836 1.169-1.998 1.664-2.581 2.847-3.356 1.567-6.457-2.137-5.176m58.052.567c.671.67-1.89 2.717-3.254 2.601-1.091-.094-1.099-.53-.031-1.532 1.192-1.115 2.736-1.618 3.285-1.069m235.867 1.716c-.229.245-.909.773-1.51 1.173-4.522 3.008-8.009 9.031-12.25 21.161-1.122 3.208-2.394 6.808-2.826 8-2.222 6.127-2.899 10.52-2.163 14.031.347 1.653.376 1.638 1.085-.531 4.635-14.187 15.815-41.084 17.077-41.084.02 0-.169.807-.422 1.792-3.369 13.155-2.384 24.05 2.862 31.638 1.09 1.577 1.048 1.601 1.392-.805 1.03-7.207.149-18.447-2.79-35.598-.025-.144-.185-.066-.455.223m-156.834.857c-.736.208-1.075.223-1.721.076-.442-.1-1.067-.183-1.389-.183h-.584l.505.638c.278.351.812.851 1.187 1.11.509.354.871.841 1.436 1.935 1.896 3.671 4.509 4.095 6.65 1.08 1.001-1.41.574-2.407-1.712-3.994-1.4-.972-2.623-1.158-4.372-.662M17.67 16.19c-2.101.625-6.016 6.175-6.502 9.218-.21 1.312-.404 1.85-.908 2.511l-.384.503 1.187-.367c.653-.202 1.58-.486 2.061-.631 2.361-.711 5.533-3.38 6.547-5.507 1.555-3.261.439-6.452-2.001-5.727m378.016.436c-2.208 2.321-2.423 5.713-.757 11.957 1.638 6.138 1.493 7.939-1.088 13.569-2.74 5.977-2.671 9.291.357 16.985 1.163 2.954 1.491 3.43 2.363 3.43 1.964 0 2.748-2.471 2.031-6.4-.499-2.738-.276-4.586.837-6.933l.571-1.202V26.338l-.496-.806c-1.699-2.761-2.66-5.529-2.674-7.699-.011-1.834-.279-2.116-1.144-1.207m-329.197-.11c1.335.4 2.222 2.013 1.013 1.842-.886-.126-2.153-.712-2.259-1.046-.155-.49.058-1.194.33-1.089.124.048.536.18.916.293m185.117.157c-1.556.461-3.231 2.574-3.687 4.65l-.123.559.699-.112c1.017-.162 2.584-.839 3.351-1.446 1.918-1.52 1.74-4.237-.24-3.651m13.828.18c-.639.173-1.393.913-1.52 1.492-.313 1.428 2.014 3.084 3.014 2.144 1.489-1.399.364-4.138-1.494-3.636m-27.615 2.898c-3.581.887-6.152 2.838-6.152 4.667 0 .796-1.559 2.079-2.534 2.086l-.55.003.417.342c3.775 3.093 7.762 1.196 10.51-5 1.292-2.913 1.343-2.85-1.691-2.098m-164.708.874c1.514 1.915 1.34 3.127-.257 1.784-1.064-.896-1.147-2.076-.146-2.076.095 0 .276.132.403.292M23.69 23.17c-1.789.812-4.783 4.927-6.2 8.521-.447 1.134-.555 1.141 2.361-.165 1.411-.632 3.278-1.352 4.149-1.599 3.158-.9 4.631-2.344 4.463-4.376-.166-1.994-2.767-3.291-4.773-2.381m188.421-.226c-.972.973 3.311 7.835 8.181 13.107C226.7 42.99 227.27 46.1 223.579 54c-1.362 2.914-1.371 2.95-.852 3.186 1.576.718 4.718-3.483 7.189-9.612 1.539-3.819 1.403-6.36-.501-9.338-3.741-5.851-15.953-16.643-17.304-15.292M4.5 23.603c-.321.14-1.446.502-2.5.803l-1.917.548-.035 3.314-.035 3.315.993-1.966c1.055-2.091 1.951-3.514 3.064-4.867.928-1.128 1.149-1.418 1.075-1.41-.034.003-.324.122-.645.263m201.223-.009c-.163.424.076 1.924.685 4.302 1.45 5.657 3.179 9.082 8.255 16.354 2.304 3.301 3.363 6.295 3.094 8.75l-.1.917.362-.417c2.462-2.829 1.586-8.098-2.222-13.365-3.731-5.159-4.014-5.661-6.131-10.89-1.774-4.38-2.307-5.464-2.827-5.742-.467-.25-1.002-.207-1.116.091m36.405 1.073c-2.58 4.362-.338 7.797 6.682 10.235l1.727.6-.111-.626c-.713-4.013-2.688-7.192-4.843-7.795-1.773-.496-2.701-1.31-2.909-2.554l-.103-.61-.443.75m129.582.233c-.826.757-.871 1.655-.123 2.441 1.385 1.457 2.665 1.258 3.054-.475.471-2.098-1.41-3.36-2.931-1.966m13.54-.255c-3.295 1.506-4.252 5.619-2.815 12.105 1.384 6.245.967 8.769-2.783 16.855-2.619 5.648-3.346 8.084-3.376 11.312-.039 4.25 1.427 6.696 3.239 5.405.835-.594 1.289-1.646 2.15-4.981 1.066-4.133 1.544-5.124 3.489-7.244 2.162-2.356 2.422-3.025 3.204-8.264.814-5.446.537-9.265-.98-13.49-1.334-3.719-1.086-6.982.897-11.801.143-.347-2.218-.266-3.025.103m-217.5.015c-.467.195-1.196 1.002-1.406 1.559-.438 1.159-.24 2.161 1.137 5.754 1.005 2.621 1.004 2.614.321 2.261-1.507-.779-2.98-2.926-3.352-4.885-.216-1.137-.546-1.313-1.307-.697-.863.701-.188 3.624 1.928 8.335.511 1.139.929 2.096.929 2.128 0 .156-1.729-.847-2.254-1.307-1.236-1.086-2.246-3.103-2.246-4.489 0-1.621-1.775-1.439-2.42.249-.682 1.787.064 3.233 4.032 7.806 2.351 2.709 4.457 5.779 4.166 6.07-.051.052-.642-.177-1.312-.509-3.347-1.653-6.035-4.729-7.226-8.268-.572-1.701-1.025-1.585-2.091.536-1.585 3.152-1.603 3.584-.193 4.639 4.727 3.536 8.711 7.533 8.711 8.741 0 2.605-4.288.294-6.804-3.666-2.11-3.323-4.142-5.485-4.503-4.792-.415.794-.658 5.146-.35 6.255.391 1.406 5.209 5.121 10.709 8.255l1.468.837-.968.209c-3.446.744-5.534.008-6.871-2.42-.953-1.732-1.942-2.477-3.588-2.702l-.811-.111.095 1.043c.375 4.141 3.61 6.263 11.579 7.597 4.764.798 7.679 1.802 7.921 2.729.62 2.37-7.853 1.189-12.055-1.68-1.926-1.315-3.489-1.672-3.489-.796 0 .701 1.658 4.915 2.075 5.276.981.847 7.236 1.876 11.436 1.881 1.734.002 3.171.252 4.058.704l.663.338-.43.225c-2.24 1.174-7.292 1.553-9.969.748-4.334-1.304-5.85.8-2.332 3.237.467.325.822.78 1.162 1.493 1.042 2.182 1.638 2.203 5.717.198 8.429-4.144 12.757-4.454 9.132-.653-.435.456-1.247 1.139-1.806 1.519-1.431.972-1.502 1.664-.253 2.482 1.61 1.055 3.918-.02 6.306-2.936 2.412-2.945 2.716-.792.805 5.689-.115.389 1.445.41 2.35.032 2.801-1.171 3.736-4.621 2.524-9.315-.544-2.107-.468-2.757.411-3.497 1.1-.925 2.42-.195 6.901 3.817 4.36 3.903 6.019 3.701 9.195-1.121 2.713-4.118 3.056-5.149 2.047-6.158-.551-.551-.629-.555-3.935-.196-1.074.116-1.962-.257-2.193-.922-.332-.952-.039-1.097 3.719-1.839 6.523-1.288 8.856-4.184 6.327-7.852-.86-1.248-1.002-1.881-.692-3.095.147-.576-.205-1.121-.621-.961-.125.047-.738.738-1.363 1.534-3.379 4.306-6.142 6.448-8.317 6.448-2.416 0-2.306-.188 2-3.411 3.464-2.593 4.56-3.581 5.577-5.03 1.806-2.572 1.644-4.143-.427-4.143-.821 0-.858-.331-.165-1.454.92-1.491.697-2.792-.46-2.68-.6.058-1.344 1.083-3.704 5.099-2.152 3.664-4.558 5.813-6.064 5.419-1.262-.33 2.811-6.566 5.91-9.05 2.052-1.645 2.126-2.281.585-5.016-1.526-2.707-1.411-2.66-2.806-1.147-3.601 3.908-7.128 6.614-7.609 5.837-.273-.443 1.258-5.033 2.517-7.546 1.082-2.159 1.101-2.11-2.242-5.503-3.288-3.338-3.436-3.3-3.442.875-.004 2.985-.258 3.781-1.634 5.131-1.207 1.184-1.5.751-1.488-2.208.007-1.823.252-2.771.955-3.692.953-1.25.049-1.919-4.471-3.31-1.568-.482-1.553-.5-1.349 1.548.3 3.029.102 4.265-.719 4.471-.9.226-.97-.088-.907-4.043.062-3.935-.003-4.312-.825-4.798-.489-.289-2.611-.748-3.508-.76l-.442-.006.478 1.137c1.128 2.685 1.04 6.546-.142 6.255-1.422-.35-1.899-1.352-1.844-3.871.066-3.003-1.672-3.656-2.795-1.051-.732 1.697-.975 2.109-1.279 2.167-1.032.197-1.706-2.304-1.046-3.884.144-.345.262-.65.262-.678 0-.437-.939-.683-1.583-.415m95.801 4.842c-2.945 1.186 2.127 4.367 5.498 3.448l.466-.127-.379-.536c-1.581-2.239-3.976-3.433-5.585-2.785m102.181.346c-4.42.739-9.79 4.022-11.987 7.326-1.037 1.56-1.527 2.702-2.822 6.574-1.598 4.776-2.226 5.93-4.357 8.01-2.129 2.078-2.503 2.978-1.582 3.811.753.681 5.288.748 7.357.109 3.332-1.029 4.549-2.851 6.575-9.845 1.726-5.955 4.463-8.465 10.265-9.412 2.013-.329 6.173-.522 5.819-.27-.338.24 2.062.25 2.511.01.461-.247.399-.806-.194-1.753-2.195-3.507-6.874-5.348-11.585-4.56m-15.649 1.079c-1.491.754-1.484 2.489.013 3.414.838.518 1.544.482 2.011-.104 1.382-1.733-.158-4.253-2.024-3.31m-114.417 1.031c-.617 2.106-.321 4.268.702 5.129 1.778 1.496 2.033-3.381.271-5.199-.678-.699-.749-.694-.973.07m-228.354.348c-.217.268-.732.917-1.143 1.442-.411.525-1.311 1.404-2 1.953C.596 38.547-.474 40.598.708 42.335c1.865 2.74 5.721 1.126 6.641-2.779.148-.632.491-7.482.384-7.688-.013-.027-.203.17-.421.438m249.833 2.475c-1.614 1.002-1.177 3.044.756 3.531 1.342.338 1.933-.15 1.931-1.593-.002-1.686-1.432-2.717-2.687-1.938m71.47.059c-5.602 1.402-10.51 6.845-12.874 14.274-.519 1.633-1.189 3.504-1.489 4.157l-.544 1.187 1.25.113c.688.062 2.16.304 3.271.537 5.236 1.098 7.665-.255 10.541-5.871 1.45-2.831 1.721-3.248 3.47-5.32 4.494-5.328 2.395-10.584-3.625-9.077m-298.698.502c-2.064.318-4.779 1.383-5.917 2.323l-.417.344.432-.099c.806-.185 3.835.274 6.873 1.041 4.743 1.197 6.487 1.052 7.426-.618.639-1.138.336-2.229-.765-2.759-.734-.353-5.837-.509-7.632-.232m147.75 2.752c0 .717-.799 1.906-1.279 1.906-.498 0-.194-1.202.495-1.958.455-.5.784-.478.784.052m-163.72.239c-.047.138-.135.471-.194.74-.06.27-.318.757-.575 1.084-1.943 2.474-2.615 7.804-1.167 9.26.958.963 3.399.353 4-1 1.147-2.58.842-6.206-.692-8.243-.541-.717-1.051-1.481-1.134-1.697-.113-.293-.174-.329-.238-.144m157.724.449c.744.509.866.885.287.884-.503-.001-1.458-.599-1.458-.914 0-.341.654-.324 1.171.03m71.079.826c-3.429 1.466-4.674 3.043-4.909 6.22-.129 1.738-.424 2.711-.879 2.894-.117.047.366.091 1.073.098 3.843.04 5.822-2.438 6.08-7.612.117-2.341.184-2.262-1.365-1.6m132.659-.022c-2.228 1.078-3.414 2.724-5.649 7.831-1.697 3.878-2.854 5.289-6.761 8.239-3.831 2.892-4.774 3.972-10.42 11.927-5.583 7.866-5.959 8.45-6.669 10.334-.494 1.315-.72 1.276 2.826.485 8.94-1.995 15.533-4.772 18.519-7.799 3.173-3.218 4.15-6.604 4.574-15.853.374-8.165 1.471-11.943 4.317-14.876.806-.83.572-.922-.737-.288M95.963 41.237c4.08 1.388 7.553 4.376 9.602 8.263.446.845 1.044 1.805 1.331 2.134.625.718.657.736-2.479-1.369-5.075-3.407-8.089-6.261-9.564-9.057-.241-.457-.326-.459 1.11.029m90.783 1.425c.201.223.324.698.379 1.468.118 1.644-.27 2.08-1.936 2.174-1.525.086-1.658-.144-.73-1.26.399-.48.708-1.056.782-1.458.234-1.274.847-1.65 1.505-.924M28.541 45.458c.743.986 2.347 3.301 3.564 5.146 3.418 5.179 5.306 6.167 7.347 3.842 2.531-2.883.134-6.211-6.066-8.42-1.3-.463-3.197-1.183-4.216-1.601-1.019-.417-1.881-.758-1.916-.758-.035 0 .544.806 1.287 1.791m86.083-.451c-3.471 3.093-1.997 7.689 3.762 11.729 1.42.996 1.364 1.079 1.364-2.042 0-3.72-.573-5.412-2.199-6.487-1.649-1.09-2.427-2.366-2.07-3.392.265-.76.193-.744-.857.192m221.905.132c-3.247 3.162-1.788 7.594 3.784 11.494 1.489 1.041 1.451 1.06 1.565-.753.253-4.035-.551-6.526-2.545-7.88-1.393-.946-1.9-1.746-1.795-2.832.099-1.031.022-1.034-1.009-.029m-74.985.259c-.526.669-1.218 2.73-2.682 7.989l-1.326 4.761-1.252 1.662c-5.263 6.986-6.105 17.493-1.796 22.401 1.05 1.196 1.195.996 1.845-2.544.672-3.657 2.367-12.122 3.931-19.633 2.329-11.181 2.672-13.792 1.933-14.705l-.304-.375-.349.444m-88.908 2.586c1.906.973 2.813 2.942 1.59 3.453-1.14.477-4.059-1.324-4.059-2.504 0-1.113 1.224-1.584 2.469-.949m18.608-.093c.994.728-.675 3.45-2.141 3.491-1.938.055-1.272-2.238.98-3.378.791-.4.77-.398 1.161-.113m78.659 1.104c-1.2.485-1.571 1.945-.737 2.895 1.445 1.646 3.084 1.071 3.084-1.083 0-1.512-1.062-2.332-2.347-1.812m-24.61.76c-.048.181-.092 1.644-.098 3.252-.019 4.701-.415 6.779-1.958 10.275-3.019 6.841-2.786 15.91.604 23.483 1.427 3.187 1.804 3.099 2.897-.682 2.719-9.404 3.598-24.233 1.833-30.916-.711-2.695-3-6.472-3.278-5.412M20.928 52.042c-2.51 2.511-2.183 5.483.962 8.744 1.578 1.636 4.244 3.685 4.35 3.344.191-.617.245-3.129.094-4.455-.293-2.592-.905-3.789-2.557-5.008-1.435-1.059-1.825-1.686-1.736-2.792.086-1.08.141-1.088-1.113.167m254.838-.5c-.133.206-.618 1.612-1.078 3.125-3.079 10.131-6.279 15.314-12.855 20.813-2.736 2.289-1.39 2.29 3.191.004 9.445-4.715 14.325-12.517 12.907-20.638-.501-2.871-1.481-4.366-2.165-3.304m55.651 1.563c-2.19 1.69-3.194 2.84-6.932 7.941-4.781 6.523-6.141 10.649-5.23 15.87.14.803.318 2.605.396 4.005.192 3.434 1.068 5.19 3.953 7.924 2.281 2.162 2.923 2.227 4.294.437.927-1.21 1.13-1.585.727-1.343-.16.096-.164.069-.02-.115 4.436-5.652 6.307-11.187 6.515-19.275.164-6.415-.863-13.73-2.22-15.801-.351-.536-.315-.544-1.483.357m-187.645 2.74c-1.089.858-.01 2.556 1.304 2.051.695-.266 1.017-1.912.435-2.223-.514-.276-1.263-.201-1.739.172m91.363 1.133c-5.335 5.933-5.976 12.194-2.213 21.605.073.184-.274-.191-.772-.833-3.981-5.132-7.229-10.323-8.064-12.89-.343-1.053-.527-.97-.841.382-.786 3.38-.759 7.959.058 10.023 2.06 5.201 8.648 10.875 15.28 13.159 1.059.365 1.514.633 2.209 1.304l.875.844v-.829c0-3.602-1.076-8.747-3.17-15.16-2.375-7.27-2.942-11.264-2.42-17.041.147-1.63.062-1.681-.942-.564m-39.765.522c-.134 1.196-3.203 3.462-3.203 2.366 0-.441.847-1.7 1.57-2.334.802-.702 1.71-.72 1.633-.032m100.521.663c-1.368.784-2.623 2.604-2.977 4.317l-.117.564.63-.118c3.036-.57 5.382-2.82 4.73-4.536-.337-.886-1.001-.953-2.266-.227m-123.297.186c1.053.325 1.564.339 2.281.062.229-.089.292-.026.292.295 0 1.166-2.994 2.237-4.327 1.548-.516-.267-1.123-1.544-.949-1.998.142-.37 1.338-.329 2.703.093m-166.361.049c-.837.375-.998 1.295-.335 1.918.784.736 1.893.225 2.165-.997.194-.87-.812-1.377-1.83-.921m302.35 2.297c-7.677 4.31-9.253 5.778-11.9 11.077-2.28 4.565-2.243 6.339.234 11.377 1.526 3.102 2.083 4.649 2.083 5.785 0 .882.236.951.501.146.289-.875 1.545-2.058 3.678-3.463 4.48-2.951 7.12-6.893 8.646-12.91 1.116-4.398 1.85-14.108 1.083-14.31-.087-.023-2.033 1.011-4.325 2.298m-182.68-1.7c-1.487.601-1.612 2.468-.23 3.426 1.091.756 1.976.56 2.436-.541.751-1.797-.583-3.542-2.206-2.885m-107.464 4.88c-.669.609-.705 1.051-.13 1.626.971.971 2.191.404 2.191-1.018 0-1.012-1.22-1.372-2.061-.608m29.458 1.199c.302 2.945 1.697 6.721 4.929 13.344 2.315 4.744 5.829 8.021 10.194 9.506.658.223 1.958.813 2.89 1.311 2.331 1.244 3.284 1.5 5.168 1.384 4.036-.249 7.493-1.65 7.177-2.908-.221-.881-1.245-2.903-1.417-2.797-.094.058-.172.007-.174-.112-.022-2.014-4.989-8.677-8.713-11.689-5.22-4.222-14.481-8.637-18.998-9.057l-1.171-.109.115 1.127m134.94.014c1.202 1.448-4.836 3.52-6.327 2.171-1.034-.936 1.195-2.735 2.475-1.998.391.226.51.218 1.265-.081 1.02-.405 2.29-.45 2.587-.092m-142.531 2.39c-3.507 3.205-2.213 7.462 3.521 11.591 1.625 1.17 1.535 1.235 1.633-1.19.137-3.385-.503-5.674-1.915-6.845-2.403-1.993-2.826-2.65-2.412-3.746.283-.751.176-.726-.827.19m-29.062 1.189c-2.473 5.453-4.168 7.81-7.95 11.054-.618.53-1.612 1.59-2.21 2.356l-1.088 1.392.044 7.288.043 7.287 1.103-1.563c8.968-12.723 13.174-23.64 11.001-28.55l-.301-.681-.642 1.417m113.589-.786c-.88.443-.67 1.122.7 2.255 2.248 1.862 4.185 4.621 6.397 9.114 1.799 3.655 2.104 4.969 1.758 7.588-.709 5.384-.539 8.047.746 11.662.244.688.49 1.587.547 2 .101.742.116.714 1.376-2.667 4.131-11.081 5.006-15.19 3.959-18.595-1.497-4.871-12.432-12.892-15.483-11.357m16.237-.053c-1.2.485-1.572 1.946-.737 2.896.982 1.118 2.15 1.241 2.787.293 1.138-1.694-.283-3.904-2.05-3.189M.208 69.444c-.121.049-.206.374-.203.778l.005.695.411-.667c.552-.897.5-1.094-.213-.806m285.456.688c-.594.348-2.393 1.541-3.997 2.651-9.719 6.725-15.723 9.363-24.031 10.559-5.537.797 3.279 2.38 9.313 1.672 5.714-.67 11.448-2.646 16.167-5.573 2.587-1.604 3.058-2.457 3.812-6.91.595-3.509.604-3.492-1.264-2.399m-257.843.757c-.739.565-3.115 3.163-5.893 6.444-2.312 2.732-2.748 3.136-4.047 3.762-6.921 3.331-11.672 10.289-11.77 17.238-.022 1.508.037 2.086.278 2.709.514 1.334.374 1.463 4.292-3.959 1.589-2.2 5.737-7.787 9.216-12.416 8.105-10.782 9.176-12.391 9.071-13.625-.068-.797-.269-.824-1.147-.153m71.755.187c-1.043 1.043-.022 5.593 1.658 7.389 1.332 1.424 2.766 1.929 6.933 2.441 5.156.633 7.288 2.019 8.855 5.761.838 2 1.766 6.031 1.326 5.759-.183-.113.273 1.928.476 2.132.453.452 2.218-1.174 2.998-2.761 1.765-3.594 1.07-7.711-1.985-11.766-2.6-3.45-4.799-4.676-9.92-5.531-4.623-.771-5.998-1.261-7.742-2.755-1.382-1.185-1.94-1.328-2.599-.669M396.493 75c-3.614 3.607-4.635 4.851-8.079 9.833-3.029 4.384-4.251 5.93-6.817 8.63-3.392 3.567-4.239 5.947-2.791 7.839l.295.386 1.016-.748c1.75-1.288 3.111-3.168 5.629-7.773 2.507-4.586 4.139-6.612 9.945-12.352l4.318-4.268-.046-2.482-.046-2.482L396.493 75m-182.956-1.956c-.725.772-4.904 10.081-5.115 11.396-.322 1.992.576 2.893 2.882 2.894 4.402 0 4.407 3.087.006 3.744-4.125.616-3.381 4.459 1.292 6.673.907.43 2.173 1.032 2.815 1.338 5.222 2.49 4.161 8.413-1.525 8.511-3.067.052-2.924.744 1.58 7.631 4.323 6.61 7.085 8.021 11.778 6.018 2.153-.918 3.365-.931 4.179-.043 1.377 1.502.139 3.172-2.316 3.126-1.728-.033-1.732-.032-1.834.357-.327 1.251 3.761 2.598 8.388 2.766 3.477.125 6.607-.422 10.041-1.757 1.121-.435 1.253-.572.973-1.014-.098-.154.049-.687.438-1.583 2.026-4.679 2.351-6.554 1.337-7.709-.516-.587-.541-.679-.57-2.118-.039-1.944-.187-2.201-1.656-2.871-1.416-.646-2.261-1.353-3.001-2.508-1.086-1.698-2.228-1.296-3.757 1.321-1.124 1.923-2.467 3.155-2.825 2.591-.295-.466-.146-2.206.29-3.39 1.371-3.715 1.361-3.827-.441-5.014-1.527-1.006-2.743-2.125-3.579-3.29-.367-.512-.704-.932-.75-.935-.046-.002-.759 1.363-1.584 3.034-1.347 2.729-1.542 3.038-1.916 3.038-.653 0-.514-1.265.446-4.045 1.534-4.441 1.346-5.265-2.431-10.656-3.238-4.619-3.26-4.631-5.997-3.299-1.774.863-2.276.931-2.543.346-.474-1.04.409-2.03 2.402-2.694 2.98-.992 3.064-1.828.437-4.364-2.067-1.996-3.909-4.083-5.474-6.205-1.365-1.851-1.413-1.882-1.97-1.289m-66.715 1.219c-.178.215-.18.44-.012 1.209.114.519.404 1.845.645 2.945.918 4.192.677 6.641-1.135 11.534-1.612 4.356-2.276 7.742-2.436 12.424-.119 3.506-.197 3.417 1.873 2.141 9.373-5.779 12.151-18.394 6.034-27.41-1.601-2.361-4.156-3.822-4.969-2.843m-65.591 1.283c5.668 15.021 9.786 18.229 21.519 16.766 6.47-.807 10.512-.305 13.037 1.622.682.52.691.342.034-.65-1.037-1.566-2.653-2.431-6.404-3.427-4.002-1.063-4.75-1.491-8.148-4.665-2.749-2.568-3.668-3.135-10.751-6.633-5.75-2.839-7.723-3.692-9.14-3.951l-.538-.098.391 1.036m112.089.22c-.288.348-.102 1.769.582 4.437 1.379 5.383 3.388 9.53 7.166 14.797 3.195 4.454 4.146 6.656 4.165 9.639l.009 1.556.38-.473c2.479-3.08 1.407-8.154-3.005-14.222-3.143-4.322-3.578-5.114-5.535-10.083-1.859-4.719-2.242-5.432-3.071-5.722-.382-.133-.535-.117-.691.071M359 77.326c-3.699.792-5.811 2.196-6.559 4.362-.552 1.597-1.26 2.291-2.524 2.473l-.667.097.726.532c3.899 2.859 7.813.619 10.527-6.026.365-.894.664-1.657.664-1.695 0-.133-.764-.043-2.167.257m40.184 3.768c-1.458 1.636-1.603 2.049-6.102 17.323-1.161 3.941-2.514 8.512-3.008 10.158-1.033 3.444-1.034 3.247.023 2.554 3.858-2.529 6.889-7.75 9.075-15.633l.832-2.999-.044-6.113-.043-6.113-.733.823m-182.276.802c.863 1.209.847 1.159.497 1.509-.697.696-1.905.119-1.905-.91 0-1.916.359-2.069 1.408-.599m153.308-.736c-1.563.953-1.228 2.795.652 3.581 1.139.475 1.965-.327 1.965-1.908 0-1.59-1.344-2.449-2.617-1.673M38.232 82.463c-.285.249-1.423 1.472-2.529 2.717-3.864 4.35-7.169 7.082-11.37 9.401-2.82 1.556-4.652 2.235-9.964 3.69-2.372.65 1.945 1.298 6.048.908 7.991-.761 13.782-3.801 16.906-8.877 2.544-4.134 3.207-9.851.909-7.839m249.112 4.883c-2.14.759-4.167.784-10.677.132-5.887-.59-9.711-.328-13.25.906-1.404.49-1.65.524-3.834.525l-2.333.002-2.319-.796c-2.489-.855-2.764-.872-2.764-.171 0 1.746 5.895 4.841 12.329 6.472 11.826 2.997 20.366.765 23.923-6.254.66-1.302.543-1.39-1.075-.816m70.573 2.632c-1.092.498-1.845 1.206-1.492 1.403 2.149 1.203 6.331.488 6.038-1.032-.126-.657-3.342-.92-4.546-.371m-199.031.347c-1.124.685-1.228 1.873-.25 2.85 1.164 1.164 2.224 1.087 2.757-.199.815-1.966-.811-3.685-2.507-2.651m88.859 1.133c2.428 4.442 10.209 11.493 15.505 14.049 3.347 1.615 8.782 2.516 9.692 1.607.778-.778-4.112-4.104-16.513-11.231-2.482-1.427-5.498-3.184-6.704-3.905-2.58-1.544-2.533-1.532-1.98-.52m116.205.25c-1.09 2.951-.664 5.493 1.03 6.147 2.003.773 2.118-3.507.164-6.1-.699-.928-.866-.935-1.194-.047m-122.059.55c-.488 1.27 2.096 6.61 5.179 10.702 3.061 4.065 9.606 9.422 14.013 11.471 2.541 1.181 2.518.979-.208-1.831-2.622-2.701-6.166-6.817-10.206-11.85-5.988-7.461-8.312-9.708-8.778-8.492m-69.974.277c-.863.495-.954 1.12-.263 1.811.867.867 1.911.411 2.128-.93.156-.958-.88-1.447-1.865-.881m54.687.708c.17.443-.289 1.423-1.589 3.393-.707 1.071-1.505 2.34-1.774 2.82-.588 1.049-1.007 1.323-.625.409.864-2.069 3.49-6.865 3.759-6.865.075 0 .177.109.229.243m-143.8.705c-2.363.805-4.012.835-10.554.19-6.11-.601-10.165-.321-13.75.951-2.531.899-4.983.769-8.545-.45-2.545-.872-3.167-.579-1.939.911 2.551 3.095 12.503 6.433 20.067 6.731 7.945.313 12.815-2.013 15.666-7.483.627-1.202.479-1.335-.945-.85m221.515 2.26c-9.019 9.598-10.258 11.346-10.445 14.731-.177 3.207.392 4.426 1.245 2.669.848-1.745 2.847-3.428 6.464-5.441 5.076-2.825 6.418-4.189 6.416-6.52-.001-1.505-1.318-7.48-1.649-7.48-.062 0-.976.918-2.031 2.041m42.511-1.283c-1.497.753-3.04.941-8.163.994-6.383.066-8.366.365-11.597 1.745-2.569 1.098-4.259 1.168-7.643.32-1.597-.401-1.883-.33-1.606.4.817 2.148 9.3 4.616 15.869 4.616 7.151 0 11.21-1.961 13.559-6.552 1.06-2.072 1.013-2.244-.419-1.523m9.65 1.44c-.788 3.098-.019 6.212 1.853 7.508 1.279.885 2.159 1.737 2.409 2.331l.213.505.488-.729c2.196-3.282 1.144-6.586-3.01-9.458-1.734-1.199-1.689-1.195-1.953-.157m-260.756.639c-5.774 1.043-5.492 3.798.443 4.333 3.514.317 4.268.54 6.166 1.83 1.92 1.303 2.26 1.398 5.293 1.47 5.39.128 8.467-.452 11.821-2.227 3.273-1.731 5.668-1.973 9.65-.975.754.189.095-2.048-.874-2.967-1.947-1.847-4.53-1.886-9.223-.14-5.182 1.928-7.05 1.937-13.397.064-4.54-1.339-7.695-1.782-9.879-1.388m80.345.056c-.079.207 2.31 6.554 3.316 8.81 2.795 6.265 9.465 10.271 20.491 12.307 2.269.419 2.322.401 2.707-.894 1.105-3.72-.863-7.565-6.154-12.024-6.452-5.438-10.358-7.318-16.096-7.746-1.237-.092-2.625-.282-3.083-.422-1.023-.312-1.072-.313-1.181-.031m110.584 3.149c-2.608 3.975-2.892 4.603-2.768 6.124.182 2.229 2.839 11.667 3.284 11.667.233 0 1.692-2.039 2.117-2.957.456-.986.502-1.624.313-4.376-.109-1.584-.071-2.318.218-4.225.584-3.854.151-8.927-.813-9.523-.075-.046-1.133 1.434-2.351 3.29m-120.951 2.76c-2.266 7.108-2.563 8.928-2.039 12.515.949 6.486 3.045 9.634 7.587 11.39.825.319 2.137.825 2.917 1.124 1.609.618 2.994 1.412 3.801 2.18.666.633.786.572.451-.23-.388-.928-.303-2.474.262-4.781 1.497-6.116.269-11.719-3.961-18.084-2.094-3.149-6.244-8.248-7.055-8.667l-.439-.227-1.524 4.78M42.25 99.017c-1.249.715-.768 2.425.641 2.283.82-.083 1.523-1.4 1.074-2.012-.269-.368-1.269-.525-1.715-.271m308.626 1.358c-.091.115-.451.883-.802 1.708-.714 1.682-1.391 2.89-2.676 4.777-1.415 2.079-1.408 2.457.129 7.138.805 2.455 1.034 3.388 1.121 4.584l.11 1.501.114-1.916c.218-3.663.722-5.381 2.297-7.838 1.548-2.413 1.669-3.47.831-7.219-.275-1.23-.5-2.395-.5-2.59 0-.388-.364-.473-.624-.145m48.874.36c-6.199 8.852-9.577 15.196-10.188 19.132-.128.822-.296.899 1.615-.745 2.147-1.847 5.333-5.816 7.672-9.556l1.158-1.851-.045-3.609c-.031-2.466-.098-3.534-.212-3.371M6.833 103.067c0 1.19 6.09 4.603 10.697 5.995 6.144 1.857 15.52 2.283 18.553.844 1.169-.555 5.259-5.641 5.252-6.531-.003-.375-1.924-.233-6.164.454-12.463 2.02-17.701 1.922-26.004-.486-1.962-.569-2.334-.613-2.334-.276m306.334.058c-1.575.768-4.257 5.042-3.164 5.042.785 0 3.166-.979 3.94-1.619 2.07-1.714 1.437-4.502-.776-3.423m-159.826.675c-1.534 1.534 2.079 8.667 5.225 10.314.454.238.476.235.362-.055-.564-1.443-.985-3.063-1.411-5.436-.717-3.989-1.315-5.066-2.913-5.246-.675-.076-.808-.032-1.263.423M1.733 105.09c-.768 3.061 8.072 11.982 15.703 15.846 6.545 3.315 11.184 3.405 16.154.314 2.153-1.34 2.196-1.636.26-1.798-2.156-.181-4.195-1.085-9.234-4.095-5.884-3.514-8.524-4.579-12.699-5.123-3.38-.441-5.075-1.315-8.065-4.16-1.566-1.49-1.947-1.667-2.119-.984m130.18.403c-1.391.213-2.566.613-5.095 1.735-4.869 2.161-5.705 2.206-11.568.616-3.651-.99-6.188-.661-10.167 1.317-4.158 2.067-5.149 2.874-4.741 3.86.542 1.309 2.089 1.477 5.019.545 3.09-.982 4.074-.89 8.845.829 6.041 2.176 9.191 1.347 16.044-4.227 1.993-1.621 3.935-2.642 5.289-2.782 1.454-.15 1.716-.556.731-1.133-1.222-.716-2.819-.995-4.357-.76m-82.002.166c-.883.357-1.053 1.342-.339 1.957.956.822 2.095.201 2.095-1.143 0-.851-.777-1.211-1.756-.814m101.59 1.674c-.124.413-.597 1.688-1.053 2.834-2.163 5.443-1.875 8.457.938 9.818 2.251 1.09 3.864-.366 3.864-3.488v-1.419l-1.189-2.331c-1.002-1.963-1.973-4.465-2.264-5.83-.051-.239-.135-.121-.296.416m180.604 1.118c-2.197 1.404-4.643 1.862-10.938 2.048-9.982.295-14.679 1.062-21.042 3.436-1.63.609-2.214 1.071-1 .792 1.81-.416 4.796-.154 8.458.741 8.039 1.966 15.726 2.1 19.253.338 2.033-1.016 3.894-3.154 5.266-6.051.873-1.842.873-1.859.003-1.304m-265.676-.022c-.505.504-.422.645 1.931 3.284 2.634 2.953 3.105 5.259 1.382 6.771-1.125.988-1.51.687-2.326-1.817-.807-2.476-1.139-2.928-3.1-4.216-.758-.499-1.186-.923-1.483-1.469-.882-1.628-1.324-1.69-4.06-.573-3.39 1.385-3.415 2.557-.07 3.172 2.913.535 4.052 1.671 4.959 4.943 1.022 3.687-.984 3.443-3.937-.481-.995-1.322-1.355-1.617-2.181-1.789-.373-.078-.782-.396-1.322-1.028-1.34-1.568-1.955-1.72-2.859-.705-.337.378-.925.823-1.306.988-1.572.68-1.085 1.633 1.195 2.337 2.823.872 6.064 6.321 3.759 6.321-.726 0-3.752-2.464-4.018-3.273-.415-1.255-1.998-2.525-2.875-2.305-.249.063-.589-.047-.992-.321-1.365-.926-1.569-.922-2.159.04-.206.335-.62.843-.92 1.128-1.008.959-.6 1.583 1.226 1.876 2.706.433 5.417 3.01 3.177 3.019-.794.003-1.381-.298-2.477-1.271-1.405-1.248-2.45-1.491-3.437-.8-.792.555-.528 1.302.964 2.73 1.755 1.679 1.672 2.656-.116 1.361-1.549-1.122-2.257-1.266-2.926-.597-1.503 1.503-.105 3.355 3.13 4.144 2.207.539 1.777 1.102-.843 1.102-1.36 0-1.463.026-1.915.477-.984.984-.52 1.38 2.753 2.348 1.284.379 2.426.721 2.539.759.316.108.058.567-.472.841-.331.171-.933.238-1.974.219-2.079-.038-2.69.701-1.536 1.855.844.844 1.36.891 7.777.712 6.53-.183 6.142-.215 5.498.457-.773.807-1.988 1.165-3.963 1.167-2.113.001-3.421.207-4.749.747-1.164.473-1.911.525-2.575.178-.938-.489-.674.836.398 1.999 1.843 1.999 4.255 2.052 9.756.212 3.228-1.08 3.551-1.108 3.551-.313 0 1.017-4.073 2.519-9.066 3.343-1.091.18-2.015.358-2.053.396-.302.303 2.484 1.796 4.512 2.419 2.312.71 3.879.381 6.974-1.463 3.144-1.874 5.967-2.613 5.967-1.562 0 .702-1.109 1.294-6.306 3.366-2.86 1.14-5.178 2.153-5.149 2.25.11.378 1.897 1.096 3.121 1.254 5.449.705 7.923-.556 12.387-6.314 2.088-2.691 2.539-3.11 3.18-2.95.916.23.766 1.55-.253 2.233-1.335.894-2.051 1.644-3.074 3.222-1.565 2.416-3.007 3.595-5.073 4.151-.413.111-.854.232-.981.27-.185.054-.172.133.065.394.431.477 1.273.58 2.19.267.987-.336 1.683-.337 2.825-.006 2.46.716 4.213-.875 5.888-5.341 1.058-2.822 1.916-3.785 3.107-3.486 1.422.357 1.221 1.141-1.566 6.105-3.297 5.873-3.11 6.163 2.217 3.416 3.417-1.762 3.301-1.583 3.446-5.289.113-2.903.331-3.901 1.245-5.704.558-1.102.678-.962 1.387 1.622 1.112 4.053 3.36 4.829 6.163 2.127 1.596-1.538.973-3.011-2.349-5.56-1.303-.999-1.576-1.39-1.387-1.985.191-.602.751-.359 2.14.928 2.459 2.28 3.842 2.667 3.423.956-.684-2.79-2.997-5.184-5.845-6.049-3.403-1.033-3.038-3.335.529-3.335 2.94 0 5.197-1.259 6.358-3.546.197-.387.497-.883.668-1.101.93-1.191-1.179-12.186-2.338-12.186-.559 0-.852.631-.852 1.835 0 2.398-1.732 6.165-2.834 6.165-.563 0-.527-.295.409-3.381 1.859-6.129 1.463-6.767-6.059-9.748-.377-.15-.103 1.082.594 2.665 1.253 2.847 1.298 5.967.121 8.382-1.082 2.219-1.451 1.329-1.586-3.827-.138-5.282-.525-6.733-1.989-7.458-.66-.327-4.707-1.046-5.08-.903-.572.219.171 1.706 1.849 3.699 2.294 2.725 2.955 6.169 1.508 7.852-1.159 1.347-2.4-.695-2.858-4.698-.528-4.618-1.181-6.032-3.281-7.103-1.479-.755-5.141-1.109-5.698-.551m301.404.747c-.504.458-2.491 2.023-4.416 3.477-7.027 5.309-8.396 7.396-8.917 13.597-.24 2.853-.59 4.733-1.091 5.867-.225.508-.409.955-.409.992 0 .037 1.181-.997 2.625-2.298 8.314-7.492 10.467-10.654 11.615-17.061.463-2.581.803-3.851 1.282-4.792.175-.343.298-.622.273-.619-.025.003-.458.38-.962.837m10.838.749c-1.525.425-3.79 2.004-3.421 2.386.681.703 4.243.91 5.422.314 2.763-1.396 1.147-3.576-2.001-2.7m-111.028 1.533c-.502 2.247-.204 4.077.793 4.861 1.809 1.423 1.982-3.421.189-5.277-.693-.717-.733-.7-.982.416m-126.276-.591c-.11.11-.2.298-.2.418s-.287.649-.638 1.175c-.351.526-.97 1.548-1.375 2.27-1.469 2.617-2.857 3.383-5.801 3.204-5.735-.349-5.214-.375-7.52.375-3.455 1.125-5.089 1.241-8.243.585-2.553-.531-3.241.596-1.459 2.389 1.636 1.647 4.247 2.088 8.779 1.483 2.527-.337 3.925-.335 6.654.011 3.436.435 4.842.057 7.693-2.07 2.939-2.193 4.319-4.259 4.311-6.457-.007-2.095-1.38-4.205-2.201-3.383M0 114.827v3.894l.91 1.719c2.864 5.411 6.248 8.902 10.136 10.456 2.104.841 1.922-.369-.71-4.729C8.722 123.493.821 111.801.15 111.092c-.089-.094-.15 1.424-.15 3.735m341.769-3.152c-.563.669-1.315 3.093-2.865 9.242-1.926 7.635-3.065 10.884-5.008 14.287-1.916 3.353-2.001 4.864-.462 8.145.999 2.128 1.337 2.073 4.077-.67 5.249-5.254 6.978-11.539 5.574-20.262-.435-2.707-.483-3.404-.492-7.125-.01-4.439-.036-4.553-.824-3.617m-135.689.617c-.057.343-.284 1.428-.506 2.41-.82 3.634-.727 4.677.603 6.714 1.661 2.545 2.25 4.247 2.437 7.042.114 1.703.287 1.985.438.713.054-.455.52-2.087 1.036-3.625 1.469-4.376 1.45-5.249-.17-7.621-1.095-1.604-2.002-3.278-2.601-4.803-.593-1.508-1.074-1.831-1.237-.83m13.67.136c1.1-.057 2.244-.149 2.542-.202.418-.075.541-.039.541.159 0 .707-3.572.956-5.458.38-1.174-.358-1.42-.652-.333-.397.408.096 1.555.121 2.708.06m57.667.627c-2.377.609-3.895 1.747-5.846 4.383-.785 1.06-1.403 1.94-1.374 1.954 4.169 2.037 4.879 2.013 7.053-.232.55-.568 1.498-1.36 2.107-1.76 3.565-2.34 2.197-5.404-1.94-4.345m-32.688 1.816c.145.23-.016.685-.801 2.273-1.607 3.251-1.845 3.377-1.339.714.547-2.888 1.43-4.12 2.14-2.987m52.286 3.899c-3.132.425-8.054 1.58-7.802 1.831.05.051.243.012.428-.087.676-.362 2.14-.205 3.993.429 1.735.594 1.87.614 5.033.726 3.665.131 3.39.068 8.361 1.926 10.739 4.012 17.406 3.226 20.364-2.403.816-1.554.841-1.529-1.1-1.088-8.891 2.019-14.857 1.907-20.766-.391-3.147-1.224-4.962-1.425-8.511-.943m-34.432.797c-1.298.412-3.416 1.815-3.416 2.264 0 .533 3.621 1.032 4.897.674.794-.222 1.709-.992 1.959-1.649.452-1.188-1.477-1.911-3.44-1.289m-73.591.75c.612 1.2.809 1.902 1.332 4.736 1.248 6.765 3.091 9.519 11.343 16.947 1.054.949 2.202 1.993 2.552 2.321l.635.596-.422-.757c-.577-1.036-1.047-3.157-1.272-5.743-.603-6.92-1.924-9.015-9.006-14.282-1.795-1.334-3.775-2.904-4.4-3.489l-1.136-1.063.374.734m187.291.856c-1.8.451-3.405 1.53-5.741 3.857-1.994 1.985-2.007 2.028-.75 2.293 3.848.812 7.029.275 8.535-1.441 1.33-1.517 2.678-2.081 3.684-1.543.662.354.211-.459-.911-1.645-1.258-1.33-3.171-1.934-4.817-1.521m-305.665 1.078c.53.937.495 1.621-.119 2.288l-.5.544-.431-.484c-.325-.366-.404-.59-.322-.917.059-.237.145-.657.19-.932.188-1.145.243-1.272.524-1.218.154.03.451.354.658.719m169.512.175c.488.342.468.881-.062 1.676-.801 1.201-1.613 1.544-2.263.956-1.098-.994 1.104-3.487 2.325-2.632m-25.018 2.616c.114 2.67-.09 5.451-.704 9.614-1.194 8.093.512 14.158 5.41 19.227 2.85 2.95 3.33 3.09 4.235 1.236 1.667-3.42 1.602-4.895-.374-8.446-2.056-3.694-3.028-6.477-5.008-14.34-1.836-7.288-2.695-9.666-3.492-9.666-.111 0-.134.811-.067 2.375m-149.54-.998c.316.881.323.998.089 1.416-.688 1.23-2.012-.007-1.831-1.71.128-1.199 1.276-1.005 1.742.294m206.924-.796c-10.967 2.188-20.719 9.463-23.404 17.46-1.272 3.79-2.02 14.991-1.08 16.186.745.948.858.863 5.945-4.436 14.424-15.026 20.733-20.08 28.126-22.533.734-.243 1.444-.48 1.579-.526 1.178-.401-2.591-.521-6.867-.219-3.472.246-7.112 1.509-11.04 3.832l-.838.496 1.166-1.105c1.344-1.272 7.055-6.306 8.96-7.898.71-.593 1.29-1.174 1.29-1.292 0-.283-2.348-.262-3.837.035m-19.746.038c-1.354.328-1.381 1.961-.04 2.435.737.26 1.772-.939 1.556-1.802-.074-.294-1.027-.893-1.166-.733-.009.011-.167.056-.35.1m-93.602.273c-.422.116-1.547.672-2.5 1.236-2.619 1.55-4.114 1.909-5.328 1.282-.527-.273-.82-.209-.82.178 0 .513-.891 2.199-2.227 4.212-3.168 4.776-3.808 8.764-2.029 12.65.562 1.227.64 1.183 2.77-1.53 2.127-2.709 2.235-2.747 2.225-.789-.007 1.343-.482 2.645-1.17 3.212-1.902 1.567-1.689 2.509 1.206 5.331 3.787 3.69 4.54 3.794 5.725.797 1.093-2.766 2.057-2.677 1.317.122-.584 2.209-.223 3.927 1.113 5.303 1.066 1.097 1.263.932 3.313-2.771 1.547-2.796 1.682-2.946 1.849-2.055.151.808-.032 1.478-.848 3.096-1.482 2.941-1.481 5.313.005 8.463 1.967 4.17 9.247 10.676 9.252 8.267.002-1.308.818-2.526 1.561-2.332.805.211.923-.085.907-2.274-.008-1.157.104-2.779.258-3.748.465-2.909.338-4.118-.587-5.575-.728-1.148-.623-1.66.393-1.911 1.023-.252 1.075-.291 1.301-.976.41-1.241-.524-2.228-2.841-2.999-1.956-.652-1.935-.974.134-2.05 2.367-1.232 2.36-1.15.567-6.781-1.839-5.778-1.947-5.975-3.541-6.505-1.198-.398-1.474-.878-.978-1.701.861-1.43.425-2.737-1.183-3.548-1.61-.813-2.117-1.714-1.406-2.499.232-.257.038-.41-2.375-1.87-4.049-2.45-4.573-2.643-6.063-2.235m-80.875.069c.606.39 1.396 3.039.907 3.039-.841 0-1.46-.874-1.54-2.173-.052-.841.18-1.158.633-.866m210.81.487c-1.344.183-2.773 1.029-2.201 1.304 2.468 1.187 3.319 1.782 5.951 4.16 4.256 3.844 8.008 5.421 12.9 5.421 3.109 0 4.478-.524 6.681-2.555l1.296-1.195-2.653.058c-4.814.106-8.445-.949-12.558-3.651-4.346-2.855-7.035-3.866-9.416-3.542m-233.356 2.352c.466.673.554 1.109.261 1.291-.365.225-1.64-1.378-1.402-1.763.213-.344.721-.134 1.141.472m340.023.07c-1.232.437-2.75 1.818-2.75 2.502 0 2.216 2.884 4.628 5.533 4.628H400l.001-1.959c.001-3.887-1.776-6.049-4.251-5.171M54.133 130.7c.313.313.247.412-.463.696-.722.289-1.503.142-1.503-.283 0-.497 1.556-.824 1.966-.413m78.093 1.132c-.881.355-1.069 1.099-.461 1.822.88 1.046 2.233.388 2.234-1.086.001-.747-.859-1.105-1.773-.736m184.917 1.214c-.581 2.282-.197 4.454.907 5.127.698.426.829.362 1.062-.519.534-2.022-.037-4.197-1.364-5.192l-.383-.287-.222.871m66.774-.465c-3.445 1.618-1.357 5.583 3.6 6.84 1.816.46 4.078 1.327 5.242 2.01.927.543.982.513.489-.267-.232-.369-.981-1.812-1.663-3.209-2.324-4.756-4.996-6.629-7.668-5.374m-284.558 1.211c-.807.683-.428 1.876.678 2.135.945.222 1.946-1.544 1.263-2.227-.305-.305-1.542-.246-1.941.092m77.889.26c-1.839 1.839-1.153 6.232 1.497 9.595.605.769 1.177 1.541 1.272 1.717.155.29.276.208 1.285-.872 2.013-2.154 2.17-3.262.804-5.672-.417-.736-.963-1.981-1.213-2.767-.81-2.542-2.291-3.355-3.645-2.001M118 134.2c0 .804 3.086 5.179 5.233 7.42 2.488 2.595 4.345 3.887 9.706 6.748 4.568 2.439 7.361 4.589 10.208 7.86.849.975 1.607 1.772 1.686 1.772.946 0 1.241-2.917.565-5.583-1.525-6.021-9.068-12.476-19.258-16.479-3.81-1.498-8.14-2.422-8.14-1.738m-55.321.454c.781.781.662 1.121-.592 1.69-2.562 1.161-4.245-.197-1.919-1.549 1.316-.765 1.857-.796 2.511-.141m170.1-.242c-.35.35-.358.224.148 2.365 1.344 5.686 1.239 7.926-.61 13.03-1.745 4.818-2.42 8.186-2.6 12.97-.12 3.201-.172 3.138 1.677 2.057 8.768-5.123 12.019-16.216 7.449-25.417-1.872-3.77-4.846-6.224-6.064-5.005m-123.502.829c-1.069.44-2.027 1.055-2.612 1.678l-.38.404.482.185c2.66 1.018 5.22.748 6.219-.655 1.194-1.677-1.112-2.679-3.709-1.612m259.441 1.57c-2.592 2.834-3.774 3.264-8.551 3.111-4.865-.156-5.848.081-10.968 2.645-3.972 1.99-6.224 2.762-8.056 2.765-1.384.002-.841 1.182.654 1.421.341.054.735.121.877.148.57.11 14.837-.396 15.916-.564 3.361-.524 6.055-2.134 9.451-5.649 2.317-2.399 2.92-3.682 2.286-4.866-.252-.472-.3-.442-1.609.989m-290.921.064c-.183 2.071-2.584 5.142-3.056 3.911-.267-.696 1.369-4.134 2.15-4.519.892-.44.993-.372.906.608m-50.89.75c-.059.344-.29 1.45-.513 2.458-.81 3.664-.707 4.554.796 6.85 1.478 2.259 2.065 4.003 2.253 6.698.121 1.735.298 2.094.44.893.052-.44.55-2.198 1.106-3.906 1.483-4.554 1.45-4.985-.599-7.987-.873-1.28-1.348-2.185-2.448-4.673-.499-1.129-.877-1.25-1.035-.333m42.76.88c0 1.796-1.675 3.738-2.947 3.419-1.007-.253-.787-1.272.47-2.175.55-.395.842-.743.94-1.119.141-.547.672-.956 1.245-.961.239-.002.292.148.292.836m119.823-.182c-1.992.613-2.201 2.55-.376 3.49 1.645.847 3.719-2.235 2.165-3.218-.493-.312-1.274-.43-1.789-.272m-172.74.361c-1.239.709-.796 2.423.59 2.286.869-.085 1.591-1.379 1.125-2.015-.269-.368-1.269-.526-1.715-.271m265.766.574c-7.476 1.622-18.423 9.67-23.224 17.075-1.595 2.461-.956 2.302 4.207-1.049 10.716-6.955 19.472-11.121 29.334-13.956 2.989-.859 2.926-.91-2.166-1.757-3.782-.628-6.259-.723-8.151-.313m96.05 1.582c-1.616.491-2.07 2.551-.865 3.923 1.293 1.474 2.995 1.709 7.05.973l2.604-.472-1.386-.703c-.762-.386-2.023-1.235-2.802-1.886-2.048-1.711-3.329-2.222-4.601-1.835m16.291 2.76c.071 2.066.482 3.07 1.517 3.703.458.281 3.145 1.197 3.51 1.197.064 0 .116-1.277.116-2.837v-2.838l-.409-.156c-.226-.085-1.258-.267-2.295-.403-1.037-.135-2.024-.3-2.193-.365-.29-.111-.305-.013-.246 1.699m-286.524-1.112c-2.06.289-5.149 1.523-5.513 2.203-.229.429-.045.622 1.013 1.059 6.258 2.584 15.945 8.003 22.293 12.473 8.235 5.798 8.594 6.003 10.532 6.017 6.15.048-5.968-13.941-16.597-19.159-4.109-2.017-8.661-3.024-11.728-2.593m201.394 1.261c-.563.122-2.076.642-3.361 1.155-1.286.512-2.683.979-3.104 1.037-1.722.236-.829 1.757 2.267 3.862 6.459 4.39 18.428 5.034 22.67 1.22l.816-.734-1.351-.904c-7.386-4.945-13.002-6.709-17.937-5.636M9.825 145.485c.459.856.881 2.409 1.356 4.987 1.222 6.627 3.206 9.529 11.849 17.326l2.614 2.358-.492-1.052c-.609-1.301-.913-2.742-1.148-5.437-.592-6.804-1.898-8.916-8.611-13.929-1.755-1.31-3.771-2.889-4.481-3.508-.718-.627-1.2-.957-1.087-.745m380.793 1.457c.182.261.517.887.745 1.391 1.264 2.797 4.409 5.06 7.054 5.075l1.5.009.047-1.953.046-1.953-.632-.4c-2.196-1.386-3.992-1.974-6.256-2.047-1.228-.04-1.96-.144-2.315-.328l-.519-.268.33.474m-203.435.583c-1.023 2.935 6.437 9.486 11.738 10.307 1.517.235 15.36.642 16.513.485 1.787-.242 2.671-1.484 1.057-1.484-1.952 0-3.525-.549-8.491-2.964-4.977-2.421-5.051-2.439-10.341-2.446l-4.423-.006-1.255-.62c-1.003-.495-1.562-.937-2.792-2.208-1.721-1.779-1.751-1.795-2.006-1.064m-151.241 2.767c.117 2.624-.099 5.62-.696 9.666-1.227 8.318.788 14.971 6.015 19.861 2.557 2.392 2.756 2.412 3.7.375 1.646-3.551 1.59-4.186-.794-8.944-2.023-4.036-2.682-5.962-4.57-13.356-1.672-6.55-2.448-9.029-2.981-9.53-.731-.687-.784-.536-.674 1.928m323.629-.855c-4.195 3-7.995 3.57-11.95 1.792-3.782-1.699-6.066-1.601-10.112.433-1.733.871-1.732.776-.02 2.346 6.471 5.934 13.363 6.641 19.011 1.951 3.032-2.517 5.855-8.513 3.071-6.522m16.096 1.043c-1.686.553-2.108 1.057-1.922 2.297.415 2.768 5.533 2.592 8.28-.284.988-1.035 1.064-1.16.703-1.16-.223 0-.871-.2-1.441-.445-1.1-.473-4.64-.73-5.62-.408m-275.661.23c-2.033.727-1.38 3.623.816 3.623.796 0 1.845-1.487 1.845-2.615 0-.841-1.519-1.416-2.661-1.008m181.725 2.466c-5.701 1.198-12.731 5.412-12.731 7.631 0 1.172 3.269.68 10.207-1.534 8.832-2.818 12.894-3.006 16.695-.773 1.586.932 1.723.738.392-.555-4.269-4.147-9.448-5.844-14.563-4.769M3.5 153.292c-1.141.57-.696 2.208.6 2.208 1.184 0 1.779-1.944.708-2.317-.665-.232-.618-.236-1.308.109m384.667-.228c0 .05.528.841 1.174 1.757.646.916 1.516 2.284 1.934 3.04 1.93 3.489 4.486 4.393 5.667 2.004 1.098-2.219-.217-4.006-4.109-5.583-1.62-.656-4.666-1.451-4.666-1.218m-282.926 4.165c-1.674.779-3.593 3.895-2.855 4.633.134.134 1.241.402 2.546.616 5.57.914 10.441 2.58 17.757 6.072 4.07 1.942 5.272 2.2 5.806 1.241 1.133-2.036-7.623-8.869-15.037-11.733-3.329-1.286-6.541-1.61-8.217-.829m83.142.815c-2.946 4.333-.288 8.255 7.253 10.703 1.125.365 1.114.385.692-1.269-1.094-4.285-2.435-6.169-4.95-6.951-1.694-.528-2.35-1.148-2.536-2.4l-.092-.623-.367.54m126.172 1.388c-1.595 1.072-1.949 1.235-2.691 1.235-.776 0-1.47-.483-1.654-1.15l-.127-.461-4.028 2.281c-7.157 4.054-7.125 4.009-7.161 9.996-.032 5.238-.64 7.274-2.391 7.999-.651.27-.64.336.228 1.314 1.144 1.287 1.711 2.192 3.399 5.426 3.948 7.563 8.866 11.36 14.87 11.483 1.862.037 1.868.208-.161-4.602-1.942-4.603-1.833-4.187-1.057-4.041 2.246.421 4.242 2.406 5.144 5.117 1.122 3.367 2.526 3.402 11.491.281 3.049-1.062 3.307-2.537.948-5.415-2.724-3.322-2.129-4.56.852-1.776 2.811 2.625 5.611 3.413 8.283 2.334 1.601-.647 1.583-.706-1.882-6.286-1.838-2.96-2.172-3.593-1.919-3.637 1.038-.182 2.61 1.069 3.94 3.135 2.588 4.022 5.772 5.869 10.779 6.252 4.422.338 14.339-2.161 16.569-4.175 1.296-1.17 1.32-1.417.219-2.175-1.665-1.146-2.054-2.143-1.331-3.406.551-.963.256-1.398-1.463-2.157-1.875-.829-2.531-1.241-5.368-3.372-3.737-2.806-4.943-3.321-7.697-3.284-2.143.029-2.578-.318-2.099-1.674.395-1.12.327-1.744-.263-2.416-1.359-1.547-3.153-1.084-6.043 1.559-2.16 1.976-2.339 1.825-2.351-1.984-.012-3.755.414-3.477-7.918-5.174-8.951-1.824-9-1.825-10.931-.242-1.602 1.313-2.421 1.369-3.01.203-1.052-2.082-3.136-2.561-5.177-1.188m-269.744-.357c-1.166.66-.733 2.194 1.497 5.303 1.455 2.029 1.77 2.903 1.624 4.516l-.107 1.189.493-.583c2.008-2.374 2.969-5.51 2.212-7.222-.999-2.257-4.212-4.057-5.719-3.203m10.51.412c-.946.946.138 2.402 1.422 1.909.37-.142.757-.939.757-1.559 0-.927-1.38-1.149-2.179-.35m329.795.263c.074.367.134 2.617.134 5 0 4.24.008 4.348.391 5.015.658 1.149 1.666 1.516 2.698.982 1.663-.86-.028-8.08-2.519-10.762l-.838-.902.134.667m-138.533.152c-6.915 3.079-7.87 18.482-1.941 31.314.779 1.688.674 1.788-.57.545-.989-.99-1.062-.936-.59.436 1.308 3.802 4.007 4.944 6.561 2.776 1.412-1.198 1.481-5.236.126-7.435-.29-.472-.336-.835-.339-2.667-.004-2.671-.293-4.711-1.251-8.815-1.378-5.907-1.659-9.796-1.011-14.025.361-2.358.219-2.665-.985-2.129m-100.55.465c-.26.26-.251 1.14.046 4.383 2.104 22.975 1.663 32.902-1.761 39.612-.772 1.515-.099 1.101 1.808-1.112 4.278-4.962 5.604-7.513 6.775-13.028l.384-1.805.131 2.5c.072 1.375.09 4.769.041 7.542-.099 5.509-.09 5.562.82 4.685 2.461-2.374 5.646-10.436 6.481-16.402 1.383-9.892-1.889-17.11-11.256-24.828-.87-.716-1.681-1.403-1.803-1.525-.277-.277-1.396-.292-1.666-.022m50.965.218c-.898 1.083 2.957 6.45 5.838 8.127 5.556 3.235 11.604 2.148 17.094-3.074l1.736-1.651-1.875-.91c-4.045-1.966-6.03-2.052-9.603-.42-4.078 1.863-7.791 1.37-11.962-1.589-.877-.622-1.054-.692-1.228-.483m58.937.79c-2.955 2.655-3.88 16.298-1.692 24.932 1.893 7.467 6.374 13.19 10.803 13.797 1.031.141 1.031.067.01-3.271-2.605-8.517-4.046-15.924-5.14-26.416-.825-7.92-2.074-10.756-3.981-9.042m28.432 1.224c-4.16.698-4.518 2.091-1.348 5.23 2.184 2.162 6.761 5.247 6.949 4.683.172-.517-1.994-4.21-3.754-6.398-.502-.625-.887-1.163-.855-1.195.281-.281 9.65 1.039 11.229 1.582 1.225.422 1.22.435.309-.884-1.908-2.764-6.891-3.964-12.53-3.018m95.409 1.399c-.535.627-2.129 2.275-3.542 3.663-3.71 3.644-4.31 5.641-2.02 6.727 2.799 1.329 4.859-.903 5.703-6.179.231-1.444.537-3.213.682-3.931.33-1.646.339-1.643-.823-.28m-24.193-.63c-.833.478-.974 1.256-.341 1.89.906.905 2.258.213 2.258-1.157 0-.761-1.12-1.19-1.917-.733m-293.75.86c-2.359 1.74-3.379 4.155-2.321 5.5 1.271 1.615 3.573-1.475 3.454-4.638-.058-1.536-.137-1.596-1.133-.862m205.274.283c-1.522 1.198-1.381 8.529.293 15.165 2.24 8.879 6.02 12.494 10.614 10.15.949-.484.936-.679-.155-2.349-3.113-4.768-5.082-9.407-7.359-17.333-1.557-5.423-2.233-6.545-3.393-5.633m-257.038.383c-1.215.551-1.589 1.827-.807 2.757 1.228 1.458 3.11.739 3.489-1.334.224-1.223-1.318-2.04-2.682-1.423m265.157 1.691c-.708 1.847 2.825 9.619 6.168 13.567 3.367 3.976 8.577 7.141 8.027 4.876-1.198-4.931-13.331-20.695-14.195-18.443m-136.362 1.029c-.228.432-.47 1.721-.949 5.053-1.774 12.335-4.278 21.26-8.666 30.881-1.266 2.775-1.269 2.919-.041 2.066 7.65-5.313 10.406-9.981 11.546-19.554.846-7.107-.572-20.944-1.89-18.446m84.845.143c-1.151 2.172-1.126 4.981.055 6.163 1.44 1.44 2.713.007 2.246-2.527-.34-1.847-1.923-4.349-2.301-3.636m-145.542.049c0 .073.234.352.52.621.286.269 1.251 1.393 2.145 2.497 3.732 4.608 6.69 5.745 9.142 3.515 2.631-2.393-.26-5.356-5.48-5.616-2.405-.12-4.577-.48-5.869-.973-.252-.096-.458-.116-.458-.044m25.583 2.207c-2.831.391-5.404 1.28-5.663 1.955-.518 1.35 10.223 3.282 18.246 3.282 7.138 0 7.113-1.159-.083-3.839-3.433-1.278-8.924-1.892-12.5-1.398m-51.361.358c-1.198.852-2.011 2.6-2.172 4.671-.113 1.464-.109 1.467 1.033.806 2.025-1.173 3.144-2.624 3.158-4.093.016-1.603-.862-2.205-2.019-1.384m181.273.017c-2.551 1.272-4.588 12.688-3.424 19.188 1.025 5.718 3.37 8.856 7.789 10.42 1.065.377 1.272.247.821-.517-.95-1.61-1.291-3.476-1.601-8.754-.333-5.675-.821-8.092-2.172-10.757-1.264-2.494-1.573-4.824-.992-7.468.429-1.95.323-2.483-.421-2.112m-165.995 1.759c-3.543.78-9.785 3.663-13.293 6.139-2.609 1.842-4.326 3.761-6.139 6.863-.45.769-1.137 1.755-1.527 2.191-.7.783-.904 1.325-.5 1.328.115.001 1.746.146 3.625.322 5.731.536 6.58.564 8.46.278 6.051-.92 11.315-4.737 17.165-12.446 1.432-1.886 1.488-2.198.552-3.043-1.875-1.694-5.152-2.335-8.343-1.632m-59.568.489c-.655 1.266-.158 2.317 2.272 4.806 3.061 3.137 5.434 4.72 8.106 5.41 2.713.699 17.961 1.012 19.023.39 1.07-.628.884-1.008-.554-1.13-1.866-.157-3.651-.796-7.779-2.782-5.51-2.652-5.187-2.572-10.5-2.579-5.699-.007-6.224-.197-9.067-3.287l-1.235-1.342-.266.514m120.626 1.419c-1.123 1.234-1.978 2.81-3.727 6.866-3.424 7.94-5.37 10.929-8.404 12.905-.815.532-3.33 1.61-3.926 1.685-.047.005.072.073.263.151 1.196.483 6.073-.723 8.957-2.216 4.951-2.562 8.77-9.962 8.833-17.113.028-3.235-.538-3.88-1.996-2.278m65.518 2.169c-1.271 1.271-.8 2.803 1.001 3.257 1.312.331 1.977-.211 1.949-1.588-.038-1.924-1.735-2.884-2.95-1.669m204.17.423c-2.207.795-7.202 3.647-7.56 4.316-.23.429.061.704.745.704 1.619 0 5.159 1.041 7.444 2.189l.958.482V176.333l-.375.006c-.206.004-.752.142-1.212.308m-229.68.7c-2.077.602-1.742 3.649.4 3.652 2.058.004 2.805-3.336.835-3.73-.587-.118-.554-.12-1.235.078m36.747.216c-2.805 1.003-4.271 3.568-4.648 8.136-.246 2.984-.903 4.134-2.361 4.134-1.261 0-2.63-1.703-5.223-6.5-2.945-5.447-5.162-6.277-9.039-3.384-5.771 4.305-6.813 5.711-5.293 7.144.581.548.766.609 3.282 1.082 1.657.311 2.711 1.318 2.376 2.272-.22.63-1.494.698-4.491.24-5.165-.789-7.105-.426-9.006 1.688-1.049 1.168-1.233 2.11-.763 3.922.479 1.847.453 2.403-.159 3.473-1.063 1.857-.328 2.012 2.155.454 5.831-3.66 9.538-4.748 11.846-3.474 1.554.858 1.426.935-4.656 2.829-5.097 1.586-6.695 2.372-8.543 4.204-1.635 1.62-1.599 2.53.134 3.297 1.136.502 1.132.562-.092 1.504-1.426 1.097-1.83 2.036-1.24 2.879.604.861 1.723.249 5.574-3.048 3.121-2.672 4.703-3.668 6.616-4.166 1.689-.44 2.884-.201 2.884.577 0 1.094-6.556 5.567-10.144 6.921-2.639.996-2.834 1.443-2.198 5.035.577 3.258.577 3.258 1.631 2.659 5.394-3.066 11.045-4.945 11.045-3.673 0 .618-2.629 4.02-4.975 6.437-1.752 1.804-1.897 2.003-1.889 2.583.018 1.164 3.27 8.212 3.789 8.212.658 0 1.336-1.224 1.923-3.472.662-2.536 2.944-5.028 4.604-5.028 1.39 0-.343 4.795-2.397 6.631-1.061.948-1.119 1.037-.966 1.473.206.587 3.878 3.75 5.372 4.629.28.164.577-.563 1.11-2.716.633-2.558 1.294-3.684 2.165-3.684 1.108 0 1.01.825-.588 4.923-1.809 4.64-1.723 5.089 1.261 6.559 1.804.888 1.703.949 1.702-1.021-.001-2.01.304-3.355 1.149-5.086.664-1.358.818-1.422 1.648-.693 1.114.978 1.163 2.285.171 4.567-1.443 3.317.784 4.365 3.138 1.475 2.177-2.672 3.548.17 1.438 2.979-.951 1.265-.684 1.897.788 1.864 2.335-.051 2.973-1.469 2.973-6.605 0-4.377-.01-4.346 1.003-2.865 1.18 1.723 1.564 3.799 1.216 6.57-.046.369.016.422.54.466.876.074 1.422-.428 1.67-1.537.202-.904.116-8.505-.114-10.012l-.102-.667.613.583c1.904 1.813 2.65 4.496 2.054 7.382-.367 1.776 1.399 2.07 2.755.46 1.154-1.372.925-3.463-.891-8.119-1.896-4.864-3.126-9.146-2.739-9.533.177-.177 2.131 1.935 3.023 3.269 1.778 2.658 2.542 5.035 2.676 8.331.128 3.146.386 3.213 2.864.735 2.717-2.717 2.712-2.693 1.106-5.169-5.217-8.041-6.788-12.689-4.287-12.689 1.362 0 3.748 3.713 4.552 7.083.347 1.456.48 1.916 1.06 3.667 1.447 4.368 1.725 4.418 3.422.61 1.217-2.731 1.441-3.725 1.103-4.879-.465-1.585-4.495-7.403-7.776-11.225l-1.551-1.806.902.117c4.226.549 6.01 1.956 6.573 5.185.395 2.264 2.029 4.415 3.355 4.415.607 0 .9-2.752.469-4.408-.886-3.399-2.945-5.403-8.912-8.676-4.933-2.704-7.455-4.598-7.764-5.829-.747-2.974 8.557 1.215 11.375 5.121 1.882 2.609 3.068 3.578 3.959 3.236.41-.157.386-5.615-.029-6.444-.583-1.168-5.654-4.062-10.375-5.921-5.811-2.288-7.061-3.533-3.375-3.362 3.603.168 6.34 1.099 9.505 3.234 2.223 1.499 3.088 1.696 3.94.895.796-.748.618-1.629-.793-3.92-.502-.815-.61-1.147-.61-1.88 0-2.497-1.099-2.98-5.344-2.35-3.687.547-11.084.575-11.989.046-1.547-.906.53-2.813 4-3.674 1.871-.465 2.237-1.371 1.038-2.57-1.585-1.585-4.224-1.319-7.529.757-3.514 2.208-3.666 1.272-.573-3.518.952-1.473 1.73-2.771 1.73-2.883 0-.599-2.595-.907-3.853-.458m13.814 1.365c-1.864 1.011-.832 3.572 1.438 3.572.94 0 1.268-.399 1.268-1.545 0-1.769-1.337-2.77-2.706-2.027m-106.211.562c-2.95.524-5.583 1.392-5.583 1.842 0 .377 3.257 1.057 6.417 1.34 1.191.107 2.189.216 2.218.243.252.24-7.215 6.658-8.574 7.369-1.09.571-.982.694.728.826 3.562.274 8.341-3.46 10.884-8.504 1.598-3.171-.302-4.144-6.09-3.116m269.468 1.178c-1.363.549-.899 2.332.607 2.332.401 0 .586-.119.844-.542.79-1.296-.062-2.349-1.451-1.79m-8.844 2.577c-1.076.475-.992 1.84.138 2.234.857.299 1.655-.382 1.655-1.412 0-.863-.834-1.245-1.793-.822M88.289 184.34c-.346.086-1.471.54-2.5 1.01-4.567 2.082-7.023 2.386-8.595 1.064-.581-.489-.571-.498-1.485 1.273-.711 1.376-1.67 2.692-3.387 4.646-5.325 6.064-6.93 11.927-4.986 18.221.523 1.692.476 1.714 4.184-1.991l3.288-3.285.117.626c.441 2.35-.45 4.601-2.652 6.703-2.852 2.72-2.866 2.681 4.042 10.854 2.002 2.369 3.518 2.021 5.362-1.231 2.169-3.826 3.48-3.512 1.876.449-1.213 2.994-.821 6.083 1.031 8.133 1.221 1.352 1.253 1.327 5.068-3.952 2.791-3.86 2.928-3.96 2.905-2.104-.013 1.055-.458 2.071-1.657 3.783-3.898 5.561-3.074 12.019 2.466 19.347 3.871 5.119 5.508 6.651 7.487 7.011l.603.11.114-.879c.265-2.042 1.2-3.03 2.701-2.854 1.184.139 1.328-.119 1.456-2.607.1-1.958.301-3.001 1.285-6.667.843-3.14.826-5.363-.054-7.271-1.002-2.173-.836-2.698.911-2.879 1.498-.155 2.131-.778 2.131-2.097 0-1.531-.99-2.522-3.926-3.931-1.141-.547-2.074-1.062-2.074-1.145 0-.352 1.398-1.304 2.448-1.669 2.525-.876 3.383-1.589 3.385-2.815 0-.461-1.962-10.876-2.512-13.333-.403-1.796-1.181-2.784-2.861-3.63-1.7-.856-1.894-1.399-.984-2.754 1.422-2.117.934-3.978-1.393-5.309-2.029-1.161-2.622-3.038-1.196-3.785.351-.183-6.595-5.708-8.339-6.632-1.032-.547-2.958-.732-4.259-.41m79.543 1.803c-2.255 1.659-3.224 3.969-2.227 5.31 1.168 1.571 3.366-.947 3.523-4.036.109-2.138.011-2.234-1.296-1.274m-149.999-.225c-.642.773 1.913 5.006 4.132 6.847 5.611 4.654 12.638 3.971 18.823-1.83 1.97-1.847 2.012-1.593-.455-2.748-3.885-1.819-5.805-1.812-9.921.036-3.629 1.63-7.598.866-12.013-2.312-.314-.227-.373-.226-.566.007m-9.971.634c-.906.965.327 2.56 1.496 1.935.335-.18.809-1.089.809-1.553 0-.805-1.65-1.078-2.305-.382m371.203.37c-1.711 2.61 6.601 12.719 15.722 19.121 1.839 1.29 4.952 3.29 5.122 3.29.052 0 .075-3.056.051-6.791l-.043-6.792-1.417-.288c-.779-.158-2.5-.404-3.825-.545-5.317-.57-7.632-1.728-12.508-6.257-2.481-2.304-2.664-2.407-3.102-1.738m-4.576 5.536c-.829 2.156-.613 4.424.521 5.448 2.408 2.176 3.015-3.111.664-5.789-.705-.803-.75-.79-1.185.341m-14.446 1.483c-1.456.717-1.528 2.251-.154 3.299.85.649 1.501.719 2.003.217 1.636-1.636.133-4.493-1.849-3.516m-73.498.034c-2.8.818.09 3.608 3.738 3.608 2.027 0 2.12-.115 1.09-1.353-1.56-1.872-3.32-2.695-4.828-2.255m-14.628 1.102c-.903.328-1.449.974-1.318 1.558.47 2.1 3.362 2.655 3.889.747.476-1.722-.866-2.924-2.571-2.305m67.102.263c-1.392 1.392-.476 3.231 1.613 3.239.936.004.956-.006 1.257-.622.977-1.999-1.359-4.128-2.87-2.617m-175.474 1.24c-1.572.684-1.493 2.671.132 3.321 1.143.458 2.077-.123 2.507-1.56.473-1.579-.92-2.508-2.639-1.761m44.702.106c.366.102.844.326 1.065.499.22.173.627.315.906.315 1.148 0 1.618 1.565.624 2.079-.859.444-2.445.341-2.937-.191-.369-.398-.519-.441-1.392-.406-1.119.046-2.209-.202-2.597-.59-1.044-1.044 2.165-2.307 4.331-1.706m-162.825.706c-.274.2-.297.389-.207 1.708.542 7.925 9.398 18.126 16.202 18.661 1.73.136 1.71.201.853-2.783-2.815-9.81-6.055-13.922-12.786-16.227-1.223-.419-2.539-.947-2.925-1.173-.824-.483-.748-.471-1.137-.186m250.352 2.476c-3.237 3.402-9.197 10.683-9.869 12.058-1.232 2.518-.266 4.433 2.524 5.008 4.794.987 4.901 5.44.12 5.002-4.116-.377-4.413-.32-5.314 1.017-1.574 2.336-.059 5.367 4.688 9.381 2.822 2.386 3.838 3.529 4.332 4.874 1.603 4.367-2.844 8.536-7.623 7.147l-.784-.228-.534-1.603c-.996-2.989-1.74-3.253-6.373-2.265-1.586.338-2.15.096-2.241-.961-.12-1.386 1.097-2.107 3.89-2.305 4.442-.315 4.954-1.308 2.657-5.16-1.855-3.11-3.796-7.09-4.999-10.25-1.569-4.12-1.134-4.262-6.66 2.167-5.867 6.826-6.754 8.124-6.755 9.882 0 1.801.831 2.646 3.044 3.098 3.279.668 4.592 2.667 2.827 4.303-.903.838-1.996.975-4.308.542-2.667-.5-4.215.608-4.226 3.024-.01 2.359 1.437 4.503 4.997 7.398 4.326 3.521 5.561 5.91 4.503 8.713-1.165 3.087-4.661 4.44-8.366 3.238-3.455-1.122-3.477.144-.189 10.76l.606 1.959h28.253l.198-.625c.287-.906.891-1.901 2.299-3.79 1.934-2.594 2.085-3.217 1.095-4.513l-.6-.786.809.106c.444.059 1.845-.002 3.112-.136 3.697-.39 5.345.23 5.705 2.146.451 2.408-2.337 3.668-5.208 2.354-1.818-.832-2.634.246-1.301 1.721l.582.645-.624.433c-.343.238-1.072.886-1.619 1.439l-.995 1.006h3.542c3.491 0 3.54-.005 3.364-.334-.098-.183-.135-.333-.082-.333.052 0 .39.15.749.333.632.323.982.334 10.82.334h10.166l.903-1.125c3.57-4.445 4.526-6.618 3.696-8.4-.527-1.133-.524-1.247.101-3.293.69-2.258.562-2.654-1.39-4.295-1.507-1.268-2.227-2.361-2.819-4.277-.778-2.522-2.227-2.399-5.304.451-1.808 1.675-3.317 2.605-4.223 2.605h-.497l.096-.926c.13-1.262.829-2.66 2.367-4.74 2.216-2.995 2.311-3.544.892-5.112-1.735-1.916-3.157-4.17-3.976-6.305-.211-.55-.436-1.06-.5-1.134-.064-.073-1.006.864-2.093 2.084-2.907 3.259-4.261 4.633-4.567 4.633-1.213 0-.587-1.784 1.813-5.166 3.887-5.479 3.914-6.24.552-15.795-2.235-6.354-2.493-6.566-6.752-5.554-2.241.533-2.955.355-2.986-.743-.043-1.513 1.511-2.408 4.179-2.408 3.738 0 4.558-1.512 2.585-4.764-2.248-3.704-3.905-7.116-5.412-11.14-1.089-2.907-1.328-3.023-2.877-1.395M10.5 199.266c-5.502.358-8.077.823-9.968 1.801l-.532.275V218.329l.946-.418c3.137-1.388 6.7-4.517 9.314-8.181 2.186-3.065 5.695-9.156 5.86-10.174l.09-.556-1.147.022c-.63.012-2.684.122-4.563.244m181.5.574c.298.202-.972 1.469-1.994 1.991-1.733.883-3.202.383-2.048-.697 1.098-1.027 3.363-1.752 4.042-1.294m57.289 1.452c-1.297 1.439-1.655 4.361-.728 5.938 1.199 2.04 4.101 3.872 7.916 4.999l.893.264-.116-.776c-.579-3.859-2.574-6.885-5.067-7.688-1.749-.563-2.977-1.866-2.624-2.786.123-.32.046-.307-.274.049m55.277.943c-.396 1.032 2.571 3.272 6.595 4.979 8.624 3.659 17.632 3.589 21.298-.166 1.777-1.821 3.007-3.889 2.166-3.644-2.482.724-4.283.73-8.563.029-5.76-.943-8.732-.991-11.79-.189-3.105.815-4.414.717-7.597-.566-1.872-.755-1.981-.777-2.109-.443m-194.99.674c-.496.496-.518.908-.079 1.466.858 1.091 2.336.388 2.336-1.111 0-.835-1.535-1.077-2.257-.355m-78.993.34c-1.759.627-1.894 2.484-.243 3.338.76.393 1.299.307 1.912-.305 1.726-1.727.568-3.831-1.669-3.033m325.039 1.089c-.529.083-1.265.233-1.636.332l-.675.182.563.622c2.13 2.359 3.839 6.722 3.599 9.193-.056.577-.066.584-.922.633-2.156.125-3.586-1.616-4.136-5.033-.347-2.157-.807-3.015-1.665-3.104-1.737-.181-2.624.989-2.936 3.874-.226 2.094-.462 2.63-1.157 2.63-1.551 0-2.965-2.704-2.723-5.207.132-1.365-.027-1.627-.986-1.627-1.761 0-2.985 1.978-2.734 4.416.152 1.47.648 2.338 4.167 7.303 1.093 1.541 1.96 2.828 1.928 2.86-.201.195-2.808-.875-3.879-1.591-1.917-1.282-4.263-4.359-4.263-5.59 0-.893-1.855.23-2.082 1.26-.334 1.522 2.709 6.518 7.303 11.989l1.313 1.563-.809-.118c-3.655-.531-6.865-3.161-8.132-6.663-.605-1.669-1.247-1.891-2.417-.834-.819.74-1.064 1.458-.98 2.879.15 2.541 1.822 4.291 8.387 8.778 3.485 2.382 5.398 3.879 7.014 5.489 2.113 2.106 2.168 2.24.851 2.062-6.028-.814-11.983-4.753-15.127-10.007-1.305-2.181-2.226-.954-2.968 3.954-.586 3.874-.583 3.881 2.647 5.254 4.096 1.742 11.022 5.337 13.528 7.022 2.574 1.731 2.416 4.484-.246 4.268-2.844-.23-8.554-3.524-10.611-6.121-.28-.354-.865-.849-1.299-1.1-.434-.25-1.164-.767-1.622-1.149-3.762-3.134-4.481-3.11-4.097.139.552 4.674 1.308 7.065 2.613 8.268 1.609 1.483 11.883 5.46 18.359 7.106 2.189.557 2.182.547.847 1.146-5.63 2.526-7.854 2.335-11.283-.97-2.39-2.304-4.452-3.037-6.743-2.398-1.63.454 1.741 5.292 4.807 6.899 3.607 1.891 6.712 2.179 14.663 1.358 8.373-.864 13.482-.113 12.954 1.905-.346 1.324-5.582 2.527-11.037 2.535-3.498.006-3.946-.079-7.25-1.367-2.81-1.096-5.583-1.084-5.583.023 0 .265 3.678 5.798 4.301 6.471 1.456 1.572 8.491 1.219 17.671-.888 3.862-.887 7.333-1.037 7.766-.336.187.302-3.287 2.471-5.52 3.446l-1.302.569 4.814.002 4.813.002 1.504-.861c2.388-1.366 4.043-1.191 3.696.391l-.103.47h3.326c2.753 0 3.362-.043 3.534-.25.114-.138.339-.25.5-.25.161 0 .386.112.5.25.221.267 6.833.391 6.833.128 0-.34-.926-2.454-1.589-3.628-2.066-3.658-2.405-4.957-1.638-6.27 1.065-1.824 2.466-1.728 7.375.505 1.228.558 2.259 1.015 2.292 1.015.033 0 .06-7.32.06-16.267v-16.266l-.762 1.014c-1.786 2.376-3.893 3.368-4.317 2.033-.321-1.013 1.821-7.215 3.925-11.361l1.154-2.274-.002-4.315-.002-4.314-1.446-1.466c-1.871-1.896-1.844-1.902-3.123.632-2.782 5.509-7.259 11.584-8.537 11.584-1.029 0-.87-6.103.299-11.5.605-2.792.604-3.511-.006-4.206-.968-1.102-9.13-6.128-9.952-6.128-1.064 0-1.092 1.852-.07 4.75 1.124 3.193 1.121 5.528-.011 7.928-1.287 2.726-1.959 2.54-3.07-.849-.889-2.715-.996-4.9-.333-6.851.838-2.466-.021-2.823-7.801-3.242l-2.136-.115.118.648c.162.881.416 1.663 1.233 3.792 1.109 2.889 1.081 5.08-.068 5.368-1.208.304-1.559-.452-2.784-5.983-1.067-4.817-1.37-5.638-2.278-6.167-.649-.378-2.871-.516-4.409-.274m-118.189 1.037c-1.536 2.622-1.661 5.064-.314 6.123 2.081 1.637 3.052-3.066 1.264-6.123-.228-.39-.442-.708-.475-.708-.033 0-.247.318-.475.708m-76.495.565c-3.768.807-5.924 2.199-6.682 4.31-.646 1.798-1.273 2.428-2.566 2.579l-.755.088.92.632c3.968 2.729 7.812.429 10.464-6.262.733-1.848.772-1.809-1.381-1.347m109.676.563c-2.753.826.198 3.58 3.836 3.58 1.967 0 2.059-.103 1.134-1.27-1.512-1.905-3.398-2.782-4.97-2.31m-56.781.666c1.08.547 1.511 1.474 1.201 2.581-.247.884-1.187.671-2.939-.667-.911-.695-1.42-.916-2.106-.916-.376 0-.489-.076-.489-.33 0-.991 2.832-1.428 4.333-.668m-177.324 1.97c-5.695 12.383-17.144 33.792-20.025 37.448-1.374 1.742-1.588 1.971-1.403 1.496 5.418-13.928 5.619-25.949.568-34.083l-.362-.583-.225.75c-1.981 6.608-2.517 17.181-1.661 32.722.257 4.667.257 4.664.808 4.156.206-.19.824-.586 1.374-.88 4.942-2.64 9.483-8.729 14.303-19.175.869-1.885 2.141-4.548 2.827-5.917 3.703-7.399 4.821-10.827 4.807-14.74-.011-3.008-.119-3.135-1.011-1.194m205.967.153c-.502 2.247-.203 4.076.793 4.86 1.809 1.423 1.982-3.421.189-5.277-.693-.717-.732-.7-.982.417m-131.771 1.179c.4.429 1.453 1.694 2.34 2.812 3.357 4.23 6.644 5.336 8.963 3.017 2.375-2.375-.466-5.214-5.486-5.481-2.523-.134-4.07-.372-5.741-.881l-.802-.245.726.778m-84.402-.215c-1.117.607-.492 2.244.857 2.244.436 0 1.173-.935 1.173-1.487 0-.906-1.041-1.294-2.03-.757m271.102.619c1.172 2.656 1.137 3.292-.183 3.292-1.564 0-1.996-1.303-1.053-3.172.615-1.218.745-1.23 1.236-.12m-104.703-.206c.903 1.115-.679 2.573-3.021 2.785-1.513.138-1.729-.481-.675-1.935.943-1.303 2.955-1.765 3.696-.85m-53.535.301c-1.228.322-2.933 1.227-3.91 2.075l-.66.572 1.243.692c2.926 1.63 5.25 1.89 6.899.771l.619-.42-.114.378c-.406 1.344-1.345 2.688-2.327 3.332l-.5.328.833-.101c.458-.056 1.359-.35 2.002-.655 5.554-2.634 2.066-8.586-4.085-6.972m124.816.91c-1.191.8-1.236 2.399-.088 3.105 1.291.793 2.482.591 2.768-.471.53-1.969-1.175-3.645-2.68-2.634m17.233 3.78c-1.47.897-1.376 2.647.181 3.354 1.369.622 2.292.276 2.488-.934.298-1.835-1.28-3.267-2.669-2.42m-71.506 1.382c1.752 1.863 2.025 3.113.79 3.625-1.083.448-2.314-.259-3.136-1.801-1.673-3.14-.066-4.389 2.346-1.824m40.04-.396c-3.157 1.232-4.905 3.172-4.913 5.456-.005 1.4-.277 2.728-.668 3.261l-.327.446.487.107c3.715.816 6.784-2.925 6.635-8.087l-.047-1.638-1.167.455m-204.733.284c-2.161.582-6.174 3.939-5.296 4.43 2.127 1.191 6.479.979 7.84-.382l.653-.653-.094.908c-.117 1.137-.645 2.353-1.328 3.059-1.181 1.22 1.314-.028 2.686-1.344 3.261-3.128.192-7.269-4.461-6.018m149.983.403c.857.438.806.601-.429 1.349-.591.358-1.122.834-1.321 1.184-1.369 2.405-2.864.598-1.64-1.981.521-1.1 1.882-1.321 3.39-.552m125.17.22c-1.032.351-1.129 1.701-.159 2.203.869.449 1.822-.252 1.822-1.341 0-.85-.674-1.199-1.663-.862m-160.314 1.009c-.758.274-1.926 1.268-1.726 1.468 1.374 1.374 6.194.547 6.203-1.065.002-.496-3.379-.801-4.477-.403m-45.453.842c-1.589.691-1.588 2.575.002 3.329 1.119.531 2.175-.099 2.612-1.559.466-1.554-.934-2.502-2.614-1.77m51.264 1.043c-.895 2.373-.812 4.356.229 5.459 2.292 2.431 3.37-1.801 1.286-5.048-.961-1.499-1.092-1.534-1.515-.411m144.654-.46c-.946.946.138 2.402 1.422 1.909.367-.141.757-.938.757-1.549 0-.959-1.356-1.183-2.179-.36m50.857 2.96c.288.757-.235 2.586-.942 3.293-.422.422-.736.036-.736-.902 0-1.873 1.216-3.606 1.678-2.391m-212.628.657c-1.631.772-2.91.925-8.133.976-6.431.063-8.289.353-11.736 1.83-2.414 1.034-4.234 1.094-7.547.248-1.775-.453-2.195-.079-1.107.984 2.175 2.126 9.48 4.025 15.487 4.025 6.836 0 11.154-2.026 13.362-6.27 1.152-2.215 1.106-2.47-.326-1.793m9.869.764c-1.21 3.412-.394 6.651 2.15 8.533 1.339.99 1.931 1.692 1.932 2.291.001.381.012.378.406-.109 2.56-3.158 1.506-7.069-2.657-9.862-1.476-.99-1.739-1.112-1.831-.853m157.664 1.363c-2.736 1.237-2.307 5.961.933 10.271l1.337 1.778 1.053-1.098c2.027-2.115 2.177-3.158.817-5.682-.469-.871-1.017-2.136-1.218-2.812-.588-1.983-1.771-2.977-2.922-2.457m-144.208.18c-1.092.483-1.102 1.703-.018 2.159.929.39 1.607-.068 1.758-1.189.131-.977-.689-1.434-1.74-.97m204.393.509c2.336 2.336 1.646 5.212-1.444 6.021-1.831.48-2.076.052-1.072-1.874.54-1.036.583-1.222.542-2.393-.07-2.029.867-2.862 1.974-1.754m-22.945.158c1.354.7.477 1.392-1.147.905-.886-.265-1.419-.71-1.282-1.068.141-.366 1.595-.268 2.429.163m-151.962.845c-.109.644-1.436 1.744-2.103 1.744-.682 0 .144-1.411 1.105-1.889.691-.343 1.072-.288.998.145m35.226.238c-.175.283-.622 11.365-.521 12.922.312 4.819 2.385 7.566 9.434 12.5 3.278 2.295 4.728 3.475 6.014 4.894 1.011 1.114 1.03 1.126 1.38.831.196-.164.756-.608 1.246-.986 2.141-1.653 2.168-3.655.073-5.444-1.99-1.701-2.543-2.853-4.115-8.578-2.415-8.792-3.846-10.785-10.713-14.925-2.278-1.373-2.611-1.517-2.798-1.214m-190.57 1.214c-4.49 1.627-8.263 4.212-15.997 10.956-4.754 4.146-6.864 5.811-10.035 7.918-2.853 1.895-4.517 3.169-6.209 4.751l-1.109 1.038-.002-1.644c-.001-.904-.073-2.844-.161-4.311-.087-1.466-.278-4.916-.424-7.666-.249-4.699-.455-6.098-.84-5.713-.145.145-3.609 11.795-3.854 12.963-.456 2.176-.264 3.416 1.198 7.735 1.334 3.94 1.62 5.423 1.282 6.642-.213.77-.102.709.772-.423.747-.968 1.428-2.586 1.616-3.836.115-.773.149-.81 1.307-1.475 16.233-9.304 26.814-17.73 33.515-26.69.62-.829.577-.838-1.059-.245m160.336.605c.671.672.86 1.353.375 1.353-.408 0-1.395-1.128-1.395-1.595 0-.57.273-.505 1.02.242m-144.303-.163c-1.182.742-1.301 1.948-.282 2.843 1.393 1.223 3.232.146 3.232-1.895 0-1.112-1.78-1.684-2.95-.948m-57.442.835c-.804 1.529-1.235 3.651-1.518 7.468-.379 5.126-.454 5.531-1.642 8.963-.906 2.619-.967 4.727-.207 7.167 1.612 5.176 1.571 6.177-.49 11.988L0 267.855v3.239c0 1.782.04 3.239.089 3.239.049 0 .443-.177.875-.393 2.444-1.224 5.891-1.406 10.365-.549 5.595 1.073 8.511.877 11.326-.76 1.015-.59 4.214-3.741 15.178-14.952l6.584-6.731-1.084.101c-4.806.447-10.036 3.748-15.738 9.932-5.343 5.795-7.164 6.71-15.602 7.842-4.026.54-6.143 1.006-8.203 1.807l-1.293.502.341-.441c2.2-2.846 2.364-3.869 2.302-14.407-.046-7.801-.036-8.107.353-10.534.506-3.154.543-6.592.101-9.5-.167-1.1-.35-3.125-.408-4.5l-.104-2.5-.474.902m270.373 1.019c.935 2.364.862 2.829-.442 2.829-1.449 0-1.904-1.413-1.011-3.143.682-1.322.819-1.293 1.453.314m31.29-1.093c.206.536-.728 1.698-2.855 3.554-1.192 1.039-2.731 2.432-3.421 3.097-1.172 1.127-1.828 1.595-1.828 1.303 0-.49 7.344-8.199 7.811-8.199.109 0 .241.11.293.245m-137.401.372c-2.976 4.172-.499 8.244 6.505 10.697 1.724.603 1.662.707 1.044-1.751-.867-3.448-2.317-5.557-4.267-6.207-1.948-.65-2.636-1.283-2.81-2.586l-.092-.686-.38.533m-117.629 1.299c-1.201.615-1.386 1.812-.427 2.771 1.351 1.351 3.332.34 3.349-1.71.009-1.088-1.675-1.699-2.922-1.061m333.851.996c1.102 2.638-1.494 6.544-3.601 5.417-1.401-.75-.809-3.036 1.298-5.007 1.307-1.223 1.918-1.332 2.303-.41m-306.919.498c-.976 1.039-3.875 2.176-8.09 3.172-4.85 1.147-7.888 2.399-10.333 4.258-2.357 1.792-3.782 2.304-6.514 2.342-2.218.031-2.736.124-2.736.488 0 2.093 9.885 2.676 16.583.978 6.847-1.736 10.26-4.491 11.511-9.291.608-2.334.483-2.909-.421-1.947m43.93.088c-1.424.451-2.143 2.119-1.538 3.567l.232.555-.839-.246c-2.39-.701-3.401.854-2.033 3.126 1.114 1.851 1.247 2.448 1.41 6.334.21 4.977.089 4.626 4.913 14.278 6.131 12.266 6.168 12.31 12.419 14.395 1.42.474 2.786.966 3.033 1.094.37.191 2.16.233 10.045.233h9.595l-.128-.459c-.722-2.58.155-4.043 3.42-5.706 2.466-1.256 3.094-2.428 2.217-4.134-.692-1.343-1.564-1.849-4.932-2.859-8.369-2.507-14.204-8.608-16.155-16.887-.479-2.032-.733-2.61-1.364-3.107-.728-.572-2.182-.317-2.47.433-.09.233-.207.122-.567-.535-2.271-4.152-6.173-6.878-10.861-7.589-1.555-.236-2.23-.544-2.788-1.275-.771-1.011-2.462-1.582-3.609-1.218M154 238.148c0 3.105 4.214 13.436 7.053 17.293 2.1 2.852 4.883 4.931 8.114 6.059.595.208 2.021.848 3.166 1.422 2.578 1.292 3.443 1.489 5.437 1.243 4.005-.494 6.918-1.728 6.645-2.814-.223-.89-1.143-2.858-1.31-2.803-.097.033-.414-.521-.705-1.231-1.895-4.631-5.995-9.307-11.227-12.808-6.49-4.342-17.173-8.299-17.173-6.361m205.024 1.8c2.792 1.306 3.704 3.264 1.916 4.113-1.313.623-5.725-.593-6.447-1.777-1.362-2.235 1.544-3.734 4.531-2.336m-178.065.647c-2.264 1.228-1.608 6.419 1.271 10.044.606.764 1.174 1.514 1.262 1.667.141.246.192.231.451-.139.16-.229.663-.792 1.116-1.25 1.632-1.65 1.72-3.115.324-5.417-.305-.504-.741-1.501-.969-2.216-.87-2.733-1.899-3.533-3.455-2.689M46.75 243.274c-1.627.387-3.959 1.179-5.869 1.995-3.077 1.314-4.086 1.86-11.298 6.113-4.417 2.604-7.221 4.084-10.333 5.455-4.919 2.166-6.802 3.233-9.016 5.111-1.396 1.185-1.292 1.216 1.548.466 13.633-3.602 30.072-12.005 35.426-18.109 1.285-1.464 1.292-1.446-.458-1.031m33.133.709c-1.181.743-1.301 1.949-.282 2.843 1.354 1.19 3.214.08 3.229-1.925.007-1.081-1.795-1.642-2.947-.918m314.445.419c.517 1.359-2.223 5.431-3.653 5.431-.473 0 .202-2.809.975-4.055.929-1.497 2.353-2.229 2.678-1.376m-166.861.27c-2.056.354-3.051 1.93-4.049 6.413-.306 1.376-.706 3.085-.889 3.798l-.332 1.296 1.709-1.645c.939-.905 2.526-2.34 3.526-3.189 2.63-2.233 3.223-3.041 3.231-4.403.009-1.494-1.495-2.563-3.196-2.27m-12.417 3.245c-1.574 1.102-.086 8.455 2.242 11.078l.636.717-.159-1.343c-.121-1.02-.092-1.998.122-4.064.46-4.454.365-5.28-.714-6.188-.614-.516-1.55-.604-2.127-.2m-22.729 2.237c-.599.598-.608.844-.056 1.5.89 1.058 2.235.372 2.235-1.14 0-.959-1.356-1.183-2.179-.36m-122.731.61c-6.212.966-11.327 4.179-11.058 6.949.082.847.515.958 2.968.757 7.194-.588 10.223.033 16.116 3.302C83.85 265.231 92.197 268 96.392 268c.56 0-.538-3.081-1.913-5.369-5.3-8.817-14.938-13.413-24.889-11.867m212.985.332c.139.742.204.664-2.575 3.08-1.238 1.075-2.622 2.339-3.077 2.806-.729.75-1.256 1.063-1.256.747 0-.363 6.337-7.229 6.672-7.229.068 0 .174.268.236.596m6.84 1.48c.538.14 1.845.38 2.906.533 2.132.308 2.326.387 1.928.785-.733.733-4.633-.076-6.851-1.42-1.216-.737-1.175-1.047.071-.544.532.215 1.408.506 1.946.646m75.817 1.354c.291.759.102 1.152-1.107 2.303-2.923 2.782-5.713 2.498-6.695-.683-.225-.725.641-.966 3.487-.971 2.393-.003 2.532-.022 3.25-.441.912-.532.939-.538 1.065-.208m-104.034 2.462c-1.461.811-1.318 2.934.233 3.446 1.569.518 2.402.07 2.402-1.29 0-1.749-1.361-2.863-2.635-2.156m-154.287.6c-.844.342-1.035 1.26-.403 1.933.863.919 2.159.248 2.159-1.118 0-.851-.777-1.212-1.756-.815m100.092.294c-1.789.917-1.965 3.304-.351 4.75 1.47 1.317 6.038 3.458 7.39 3.463.396.001.439.099-.921-2.111-.666-1.084-1.395-2.384-1.62-2.888-1.262-2.832-2.924-4.02-4.498-3.214m-92.45 1.715c-1.229.495-.68 2.431.653 2.301.6-.058 1.294-.899 1.294-1.567 0-.717-1.029-1.104-1.947-.734m171.372 1.924l.556 1.277-.778.857c-3.51 3.868-4.203 4.354-4.203 2.944 0-.862 3.473-6.752 3.793-6.432.043.042.327.652.632 1.354m-46.572-.329c-.528.142-1.304.548-1.887.986-1.487 1.118-2.55 1.297-3.613.608-.386-.25-.393-.245-.27.152 1.525 4.913 6.493 5.306 12.377.979 1.605-1.18 1.608-1.141-.171-1.83-2.635-1.02-4.834-1.325-6.436-.895m139.718-.001c1.241 1.241-2.79 5.093-5.414 5.175-.576.019-1.206.166-1.63.383-.8.408-1.581.219-2.089-.506-1.065-1.52 2.026-4.088 3.912-3.249.178.079.508-.085 1-.498 1.532-1.286 3.601-1.926 4.221-1.305m-176.154 3.848c-3.682.789-2.526 3.326 2.657 5.833 1.429.69 1.719.768 3.342.898 1.302.104 1.933.234 2.357.484l.579.342-.254-.458c-.139-.252-.48-.973-.756-1.601-1.197-2.717-3.795-4.971-6.253-5.426-1.016-.188-1.112-.192-1.672-.072m118.883.09c.561.561-.023 1.425-3.181 4.714-1.669 1.738-1.832 1.741-1.116.022 1.504-3.614 3.367-5.666 4.297-4.736M47 264.76c-2.326.501-3.845 1.271-8.321 4.22-4.306 2.835-7.525 4.212-14.928 6.382l-4.166 1.221 4.884.045 4.885.044 4.031-2.074c4.26-2.191 6.26-3.054 9.115-3.931 4.268-1.311 6.16-2.961 6.165-5.375.002-.908.034-.898-1.665-.532m176.994-.099c-1.516.192-2.266.547-3.327 1.575-.505.489-1.067.971-1.25 1.071-.316.173-.311.183.083.188.229.003.877.223 1.44.49 3.501 1.655 7.857 1.027 7.765-1.121-.087-2.034-1.356-2.627-4.711-2.203m-112.781.176c-1.536.618.42 3.434 2.998 4.314 2.403.821 2.589.63 1.506-1.539-1.139-2.283-2.951-3.4-4.504-2.775m9.841.528c-1.124.543-.575 2.302.718 2.302.915 0 1.663-1.922.906-2.328-.404-.216-1.149-.204-1.624.026M63.5 267.281c-3.284.544-7.853 3.666-12.742 8.706l-.659.68 7.576.001c4.961 0 8.018-.067 8.86-.195.998-.152 1.65-.149 2.917.011 1.153.145 3.991.19 9.684.152l8.054-.053-2.637-1.471c-11.34-6.327-17.131-8.481-21.053-7.831m134.173 1.02c-1.886 1.886 1.669 6.355 5.725 7.195.468.097 1.377.282 2.019.409.641.128 1.279.278 1.416.332.214.085.25-.185.25-1.86 0-2.855-.481-3.512-3.333-4.548-.825-.3-1.982-.85-2.57-1.221-1.5-.944-2.759-1.055-3.507-.307m-26.256 1.56c-2.462 1.28-3.591 3.776-2.872 6.347l.128.459h5.853l-.108-.542c-.23-1.147-.479-1.687-1.171-2.537-1.263-1.55-1.605-2.837-.988-3.718.336-.478.067-.481-.842-.009m-66.417.284c-.739.245-1.742.81-2.059 1.162-.329.363.114 1.36.605 1.36.104 0 .456.252.78.56.325.308 1.4 1.21 2.388 2.004l1.798 1.443 3.085-.045 3.085-.046-.966-1.558c-2.337-3.771-5.952-5.795-8.716-4.88m159.163 1.27c1.18.598 3.383 1.199 5.543 1.511 2.053.297 2.398.453 1.877.85-1.049.8-5.992-.618-7.929-2.275-.704-.601-.557-.626.509-.086m-74.392 1.33c-1.527.544-2.709 2.105-2.465 3.255l.124.583 4.214.045 4.214.044-.115-.377c-.903-2.98-3.403-4.466-5.972-3.55m28.729.1c-.596.086-1.704.212-2.462.281l-1.379.124 1.275.75c.701.412 1.746 1.181 2.321 1.708l1.046.959h2.754c3.075 0 2.985.039 2.767-1.204-.356-2.031-2.951-3.106-6.322-2.618m94.591.231c.689.689.4 1.478-.925 2.526-1.228.973-2.327 1.072-2.939.266-1.202-1.582 2.441-4.215 3.864-2.792" fill="#ffffff" fill-rule="evenodd"/>
</svg>
