<svg xmlns="http://www.w3.org/2000/svg" viewBox="0 0 4092 512"><!-- Font Awesome Pro 6.0.0-alpha1 by @fontawesome - https://fontawesome.com License - https://fontawesome.com/license (Commercial License) --><path d="M1594.3 158.6c-14.4 0-24.8 10.9-24.8 25.5v76.9l-68.9-86.2c-4.4-5.7-11.6-16.2-25.6-16.2 -19.2 0-24.4 17.8-24.4 25.5v148.6c0 14.2 10.4 25.5 24.8 25.5 14.4 0 24.8-10.9 24.8-25.5v-77.3l69.3 86.6c4.8 5.7 11.6 16.2 25.6 16.2 19.2 0 24-17.4 24-25.5V184.1C1619.1 169.6 1608.7 158.6 1594.3 158.6zM1856.6 160.2h-124.1c-7.2 0-22.8 4.5-22.8 22.3 0 13.4 10 22.7 22.8 22.7h37.2v125.5c0 14.2 10.4 25.5 24.8 25.5 14.4 0 24.8-10.9 24.8-25.5V205.2h37.2c12.8 0 22.8-9.3 22.8-22.7C1879.4 165.1 1863.8 160.2 1856.6 160.2zM1037.3 160.2h-84.1c-20 0-25.2 17.4-25.2 25.5v145.3c0 19.8 16.8 25.5 24.8 25.5 8 0 24.8-5.3 24.8-25.5v-43.3h44.8c12.8 0 22.8-9.3 22.8-22.7 0-17.8-15.6-22.3-22.8-22.3h-44.8V206h59.7c12.8 0 22.8-9.3 22.8-22.7C1060.1 165.1 1044.5 160.2 1037.3 160.2zM1247.9 158.6c-58.1 0-102.5 44.1-102.5 99.6 0 56.3 44.8 99.6 102.5 99.6s102.5-43.3 102.5-99.6C1350.4 202.8 1306 158.6 1247.9 158.6zM1247.9 312.1c-35.2 0-52.1-27.5-52.1-53.4s16.8-53.4 52.1-53.4c35.2 0 52.1 27.9 52.1 53.4C1299.6 284.5 1283.2 312.1 1247.9 312.1zM3283.7 158.6c-58.1 0-102.5 44.1-102.5 99.6 0 56.3 44.8 99.6 102.5 99.6 57.7 0 102.5-43.3 102.5-99.6C3386.2 202.8 3341.7 158.6 3283.7 158.6zM3283.7 312.1c-35.2 0-52.1-27.5-52.1-53.4s16.8-53.4 52.1-53.4c35.2 0 52.1 27.9 52.1 53.4C3335.7 284.5 3318.9 312.1 3283.7 312.1zM3041.8 240l-22-9.3c-12-4.9-16.4-8.5-16.4-15.8 0-8.1 5.6-12.1 16.8-12.1 12.8 0 19.6 7.7 24.4 10.9 7.2 5.3 18.4 6.9 28-2 10.8-10.5 6.8-23.9 1.2-30.8 -12.4-15-30.4-22.3-54.1-22.3 -19.2 0-35.2 5.3-47.7 15.8 -12.4 10.5-18.8 24.3-18.8 41.3 0 24.3 16 43.7 48.1 57.9l19.6 8.9c16 6.9 19.2 9.7 19.2 17.8 0 9.3-6.4 14.2-19.6 14.2 -19.2 0-34.8-15-36.4-16.2 -10.8-7.3-21.6-2-26.4 2.8 -6.8 6.5-12.8 21.1 3.2 36.4 6.8 6.5 15.6 11.7 26.8 15.4 11.2 4 22 5.7 32.8 5.7 20 0 36.8-5.3 50.1-16.2 13.2-10.9 19.6-25.5 19.6-43.7 0-13.8-4-25.1-12-34C3070.3 255.8 3058.2 246.9 3041.8 240zM3655.3 158.6c-9.6 0-17.6 6.1-25.2 18.2l-46.8 76.5 -46.8-76.5c-7.2-12.1-15.6-18.2-25.2-18.2 -19.6 0-24.8 18.2-24.8 25.9v148.2c0 14.2 10.4 25.5 24.8 25.5 14.4 0 24.8-10.9 24.8-25.5v-67.2l24.8 40.1c6.4 10.1 14 15.4 22.4 15.4 8.8 0 16-5.3 22.4-15.4l24.8-40.1v67.2c0 14.2 10.4 25.5 24.8 25.5 14.4 0 24.8-10.9 24.8-25.5V184.5C3680.1 176.4 3675.3 158.6 3655.3 158.6zM3905.1 309.2h-66.1v-33.6h39.6c12 0 21.2-8.9 21.2-21.1s-9.2-21.1-21.2-21.1h-39.6v-26.3h62.5c12.8 0 22.8-9.3 22.8-22.7 0-17.8-15.6-22.3-22.8-22.3h-86.9c-20 0-25.2 17.4-25.2 25.5v141.7c0 8.1 5.2 25.5 25.2 25.5h90.5c12.8 0 22.8-9.3 22.8-22.7C3928 314.1 3912.3 309.2 3905.1 309.2zM2595.4 158.6c-11.2 0-19.2 5.7-23.2 16.6l-34.4 95.1 -31.6-92.7c-4.4-12.6-12.4-19-24.4-19 -12 0-20 6.5-24.4 19l-31.6 92.7 -34.4-96c-3.6-10.5-11.2-15.8-22.8-15.8 -6.8 0-12.4 2.4-17.6 7.3 -5.2 5.3-10.8 14.6-4.8 28.7l56.1 146.6c4 11.3 11.6 17 23.2 17 11.2 0 18.8-5.7 22.8-17l33.6-92.3 33.6 92.3c4 11.3 11.6 17 22.8 17 11.2 0 19.2-5.7 23.2-17l56.1-146.6c3.6-9.3 4.4-19.4-4.8-28.7C2607.8 161.1 2602.2 158.6 2595.4 158.6zM2834.4 309.2h-66.1v-33.6h39.6c12 0 21.2-8.9 21.2-21.1s-9.2-21.1-21.2-21.1h-39.6v-26.3h62.5c12.8 0 22.8-9.3 22.8-22.7 0-17.8-15.6-22.3-22.8-22.3h-86.9c-20 0-25.2 17.4-25.2 25.5v141.7c0 8.1 5.2 25.5 25.2 25.5h90.5c12.8 0 22.8-9.3 22.8-22.7C2857.2 314.1 2841.6 309.2 2834.4 309.2zM2214.9 175.2c-4.4-10.9-12.4-16.6-23.6-16.6 -11.2 0-19.2 5.7-23.6 16.6L2108 321.8c-7.2 17.8 2.8 27.5 4.4 29.1 4.8 4.5 10.4 6.9 17.6 6.9 10.8 0 18.8-6.1 23.2-18.2l4-10.1h68.1l4 10.1c4.8 12.1 12.4 18.2 23.2 18.2 7.2 0 12.8-2.4 17.6-6.9 10-10.1 6.8-22.7 4.4-29.1L2214.9 175.2zM2171.7 289.4l19.2-56.3 19.2 56.3H2171.7zM211.2 50.6c-50.8 0-74.8 20.8-115.2 28.8V66.6c0-17.6-14.4-32-32-32S32 49 32 66.6v384c0 17.6 14.4 32 32 32s32-14.4 32-32V143.4c40.4-8 64.4-28.8 115.2-28.8 62.8 0 86.4 32 149.2 32 20.4 0 35.6-2.8 55.6-9.2v192c-20 6.4-35.2 9.2-55.6 9.2 -62.8 0-86.8-32-149.2-32 -20.4 0-36.4 3.6-51.2 8v64c14.8-4.8 30.8-8 51.2-8 62.8 0 86.4 32 149.2 32 37.2 0 56.4-9.6 119.6-32v-320c-63.2 22.4-82.4 32-119.6 32C297.6 82.6 273.6 50.6 211.2 50.6z"/></svg>